<?xml version="1.0" encoding="utf-8" standalone="no"?>
<!DOCTYPE svg PUBLIC "-//W3C//DTD SVG 1.1//EN"
  "http://www.w3.org/Graphics/SVG/1.1/DTD/svg11.dtd">
<!-- Created with matplotlib (https://matplotlib.org/) -->
<svg height="432pt" version="1.1" viewBox="0 0 576 432" width="576pt" xmlns="http://www.w3.org/2000/svg" xmlns:xlink="http://www.w3.org/1999/xlink">
 <metadata>
  <rdf:RDF xmlns:cc="http://creativecommons.org/ns#" xmlns:dc="http://purl.org/dc/elements/1.1/" xmlns:rdf="http://www.w3.org/1999/02/22-rdf-syntax-ns#">
   <cc:Work>
    <dc:type rdf:resource="http://purl.org/dc/dcmitype/StillImage"/>
    <dc:date>2021-03-09T23:29:27.110287</dc:date>
    <dc:format>image/svg+xml</dc:format>
    <dc:creator>
     <cc:Agent>
      <dc:title>Matplotlib v3.3.4, https://matplotlib.org/</dc:title>
     </cc:Agent>
    </dc:creator>
   </cc:Work>
  </rdf:RDF>
 </metadata>
 <defs>
  <style type="text/css">*{stroke-linecap:butt;stroke-linejoin:round;}</style>
 </defs>
 <g id="figure_1">
  <g id="patch_1">
   <path d="M 0 432 
L 576 432 
L 576 0 
L 0 0 
z
" style="fill:#ffffff;"/>
  </g>
  <g id="axes_1">
   <g id="patch_2">
    <path d="M 52.571875 381.1375 
L 278.471094 381.1375 
L 278.471094 35.758451 
L 52.571875 35.758451 
z
" style="fill:#ffffff;"/>
   </g>
   <g id="patch_3">
    <path clip-path="url(#p848dcb9bf6)" d="M 75.161797 310.833069 
L 255.881172 310.833069 
L 255.881172 232.337831 
L 75.161797 232.337831 
L 75.161797 310.833069 
z
" style="fill:#3274a1;stroke:#3f3f3f;stroke-linejoin:miter;stroke-width:1.5;"/>
   </g>
   <g id="matplotlib.axis_1">
    <g id="xtick_1">
     <g id="line2d_1">
      <defs>
       <path d="M 0 0 
L 0 3.5 
" id="m11938e0ecc" style="stroke:#000000;stroke-width:0.8;"/>
      </defs>
      <g>
       <use style="stroke:#000000;stroke-width:0.8;" x="165.521484" xlink:href="#m11938e0ecc" y="391.1375"/>
      </g>
     </g>
     <g id="text_1">
      <text style="font-family:Roboto;font-size:10px;font-stretch:normal;font-style:normal;font-weight:normal;text-anchor:middle;" transform="rotate(-0, 165.521484, 405.6375)" x="165.521484" y="405.6375">2018</text>
     </g>
    </g>
    <g id="text_2">
     <text style="font-family:Roboto;font-size:10px;font-stretch:normal;font-style:normal;font-weight:normal;text-anchor:middle;" transform="rotate(-0, 165.521484, 419.16875)" x="165.521484" y="419.16875">Year</text>
    </g>
   </g>
   <g id="matplotlib.axis_2">
    <g id="ytick_1">
     <g id="line2d_2">
      <defs>
       <path d="M 0 0 
L -3.5 0 
" id="ma82a8643f0" style="stroke:#000000;stroke-width:0.8;"/>
      </defs>
      <g>
       <use style="stroke:#000000;stroke-width:0.8;" x="42.571875" xlink:href="#ma82a8643f0" y="379.089798"/>
      </g>
     </g>
     <g id="text_3">
      <text style="font-family:Roboto;font-size:10px;font-stretch:normal;font-style:normal;font-weight:normal;text-anchor:end;" transform="rotate(-0, 35.571875, 382.839798)" x="35.571875" y="382.839798">0</text>
     </g>
    </g>
    <g id="ytick_2">
     <g id="line2d_3">
      <g>
       <use style="stroke:#000000;stroke-width:0.8;" x="42.571875" xlink:href="#ma82a8643f0" y="310.833069"/>
      </g>
     </g>
     <g id="text_4">
      <text style="font-family:Roboto;font-size:10px;font-stretch:normal;font-style:normal;font-weight:normal;text-anchor:end;" transform="rotate(-0, 35.571875, 314.583069)" x="35.571875" y="314.583069">5</text>
     </g>
    </g>
    <g id="ytick_3">
     <g id="line2d_4">
      <g>
       <use style="stroke:#000000;stroke-width:0.8;" x="42.571875" xlink:href="#ma82a8643f0" y="242.57634"/>
      </g>
     </g>
     <g id="text_5">
      <text style="font-family:Roboto;font-size:10px;font-stretch:normal;font-style:normal;font-weight:normal;text-anchor:end;" transform="rotate(-0, 35.571875, 246.32634)" x="35.571875" y="246.32634">10</text>
     </g>
    </g>
    <g id="ytick_4">
     <g id="line2d_5">
      <g>
       <use style="stroke:#000000;stroke-width:0.8;" x="42.571875" xlink:href="#ma82a8643f0" y="174.319611"/>
      </g>
     </g>
     <g id="text_6">
      <text style="font-family:Roboto;font-size:10px;font-stretch:normal;font-style:normal;font-weight:normal;text-anchor:end;" transform="rotate(-0, 35.571875, 178.069611)" x="35.571875" y="178.069611">15</text>
     </g>
    </g>
    <g id="ytick_5">
     <g id="line2d_6">
      <g>
       <use style="stroke:#000000;stroke-width:0.8;" x="42.571875" xlink:href="#ma82a8643f0" y="106.062882"/>
      </g>
     </g>
     <g id="text_7">
      <text style="font-family:Roboto;font-size:10px;font-stretch:normal;font-style:normal;font-weight:normal;text-anchor:end;" transform="rotate(-0, 35.571875, 109.812882)" x="35.571875" y="109.812882">20</text>
     </g>
    </g>
    <g id="ytick_6">
     <g id="line2d_7">
      <g>
       <use style="stroke:#000000;stroke-width:0.8;" x="42.571875" xlink:href="#ma82a8643f0" y="37.806153"/>
      </g>
     </g>
     <g id="text_8">
      <text style="font-family:Roboto;font-size:10px;font-stretch:normal;font-style:normal;font-weight:normal;text-anchor:end;" transform="rotate(-0, 35.571875, 41.556153)" x="35.571875" y="41.556153">25</text>
     </g>
    </g>
    <g id="text_9">
     <text style="font-family:Roboto;font-size:10px;font-stretch:normal;font-style:normal;font-weight:normal;text-anchor:middle;" transform="rotate(-90, 18.3, 208.447976)" x="18.3" y="208.447976">Value</text>
    </g>
   </g>
   <g id="line2d_8">
    <path clip-path="url(#p848dcb9bf6)" d="M 165.521484 310.833069 
L 165.521484 365.438452 
" style="fill:none;stroke:#3f3f3f;stroke-linecap:square;stroke-width:1.5;"/>
   </g>
   <g id="line2d_9">
    <path clip-path="url(#p848dcb9bf6)" d="M 165.521484 232.337831 
L 165.521484 133.365574 
" style="fill:none;stroke:#3f3f3f;stroke-linecap:square;stroke-width:1.5;"/>
   </g>
   <g id="line2d_10">
    <path clip-path="url(#p848dcb9bf6)" d="M 120.341641 365.438452 
L 210.701328 365.438452 
" style="fill:none;stroke:#3f3f3f;stroke-linecap:square;stroke-width:1.5;"/>
   </g>
   <g id="line2d_11">
    <path clip-path="url(#p848dcb9bf6)" d="M 120.341641 133.365574 
L 210.701328 133.365574 
" style="fill:none;stroke:#3f3f3f;stroke-linecap:square;stroke-width:1.5;"/>
   </g>
   <g id="line2d_12">
    <defs>
     <path d="M -0 3.535534 
L 2.12132 0 
L -0 -3.535534 
L -2.12132 -0 
z
" id="m4db6d992a2" style="stroke:#3f3f3f;stroke-linejoin:miter;"/>
    </defs>
    <g clip-path="url(#p848dcb9bf6)">
     <use style="fill:#3f3f3f;stroke:#3f3f3f;stroke-linejoin:miter;" x="165.521484" xlink:href="#m4db6d992a2" y="51.457499"/>
     <use style="fill:#3f3f3f;stroke:#3f3f3f;stroke-linejoin:miter;" x="165.521484" xlink:href="#m4db6d992a2" y="106.062882"/>
     <use style="fill:#3f3f3f;stroke:#3f3f3f;stroke-linejoin:miter;" x="165.521484" xlink:href="#m4db6d992a2" y="106.062882"/>
    </g>
   </g>
   <g id="line2d_13">
    <path clip-path="url(#p848dcb9bf6)" d="M 75.161797 242.57634 
L 255.881172 242.57634 
" style="fill:none;stroke:#3f3f3f;stroke-linecap:square;stroke-width:1.5;"/>
   </g>
   <g id="patch_4">
    <path d="M 42.571875 379.089798 
L 42.571875 37.806153 
" style="fill:none;stroke:#000000;stroke-linecap:square;stroke-linejoin:miter;stroke-width:0.8;"/>
   </g>
   <g id="patch_5">
    <path d="M 165.521484 391.1375 
L 165.521484 391.1375 
" style="fill:none;stroke:#000000;stroke-linecap:square;stroke-linejoin:miter;stroke-width:0.8;"/>
   </g>
   <g id="PathCollection_1">
    <defs>
     <path d="M 0 2.5 
C 0.663008 2.5 1.29895 2.236584 1.767767 1.767767 
C 2.236584 1.29895 2.5 0.663008 2.5 -0 
C 2.5 -0.663008 2.236584 -1.29895 1.767767 -1.767767 
C 1.29895 -2.236584 0.663008 -2.5 0 -2.5 
C -0.663008 -2.5 -1.29895 -2.236584 -1.767767 -1.767767 
C -2.236584 -1.29895 -2.5 -0.663008 -2.5 0 
C -2.5 0.663008 -2.236584 1.29895 -1.767767 1.767767 
C -1.29895 2.236584 -0.663008 2.5 0 2.5 
z
" id="C0_0_b8765d9f38"/>
    </defs>
    <g clip-path="url(#p848dcb9bf6)">
     <use style="fill:#808080;fill-opacity:0.75;" x="165.521484" xlink:href="#C0_0_b8765d9f38" y="365.438452"/>
    </g>
    <g clip-path="url(#p848dcb9bf6)">
     <use style="fill:#808080;fill-opacity:0.75;" x="165.521484" xlink:href="#C0_0_b8765d9f38" y="351.787107"/>
    </g>
    <g clip-path="url(#p848dcb9bf6)">
     <use style="fill:#808080;fill-opacity:0.75;" x="159.676646" xlink:href="#C0_0_b8765d9f38" y="351.787107"/>
    </g>
    <g clip-path="url(#p848dcb9bf6)">
     <use style="fill:#808080;fill-opacity:0.75;" x="171.366323" xlink:href="#C0_0_b8765d9f38" y="351.787107"/>
    </g>
    <g clip-path="url(#p848dcb9bf6)">
     <use style="fill:#808080;fill-opacity:0.75;" x="153.831807" xlink:href="#C0_0_b8765d9f38" y="351.787107"/>
    </g>
    <g clip-path="url(#p848dcb9bf6)">
     <use style="fill:#808080;fill-opacity:0.75;" x="165.521484" xlink:href="#C0_0_b8765d9f38" y="338.135761"/>
    </g>
    <g clip-path="url(#p848dcb9bf6)">
     <use style="fill:#808080;fill-opacity:0.75;" x="159.676646" xlink:href="#C0_0_b8765d9f38" y="338.135761"/>
    </g>
    <g clip-path="url(#p848dcb9bf6)">
     <use style="fill:#808080;fill-opacity:0.75;" x="165.521484" xlink:href="#C0_0_b8765d9f38" y="324.484415"/>
    </g>
    <g clip-path="url(#p848dcb9bf6)">
     <use style="fill:#808080;fill-opacity:0.75;" x="159.676646" xlink:href="#C0_0_b8765d9f38" y="324.484415"/>
    </g>
    <g clip-path="url(#p848dcb9bf6)">
     <use style="fill:#808080;fill-opacity:0.75;" x="171.366323" xlink:href="#C0_0_b8765d9f38" y="324.484415"/>
    </g>
    <g clip-path="url(#p848dcb9bf6)">
     <use style="fill:#808080;fill-opacity:0.75;" x="165.521484" xlink:href="#C0_0_b8765d9f38" y="310.833069"/>
    </g>
    <g clip-path="url(#p848dcb9bf6)">
     <use style="fill:#808080;fill-opacity:0.75;" x="159.676646" xlink:href="#C0_0_b8765d9f38" y="310.833069"/>
    </g>
    <g clip-path="url(#p848dcb9bf6)">
     <use style="fill:#808080;fill-opacity:0.75;" x="171.366323" xlink:href="#C0_0_b8765d9f38" y="310.833069"/>
    </g>
    <g clip-path="url(#p848dcb9bf6)">
     <use style="fill:#808080;fill-opacity:0.75;" x="153.831807" xlink:href="#C0_0_b8765d9f38" y="310.833069"/>
    </g>
    <g clip-path="url(#p848dcb9bf6)">
     <use style="fill:#808080;fill-opacity:0.75;" x="165.521484" xlink:href="#C0_0_b8765d9f38" y="297.181723"/>
    </g>
    <g clip-path="url(#p848dcb9bf6)">
     <use style="fill:#808080;fill-opacity:0.75;" x="159.676646" xlink:href="#C0_0_b8765d9f38" y="297.181723"/>
    </g>
    <g clip-path="url(#p848dcb9bf6)">
     <use style="fill:#808080;fill-opacity:0.75;" x="171.366323" xlink:href="#C0_0_b8765d9f38" y="297.181723"/>
    </g>
    <g clip-path="url(#p848dcb9bf6)">
     <use style="fill:#808080;fill-opacity:0.75;" x="153.831807" xlink:href="#C0_0_b8765d9f38" y="297.181723"/>
    </g>
    <g clip-path="url(#p848dcb9bf6)">
     <use style="fill:#808080;fill-opacity:0.75;" x="177.211162" xlink:href="#C0_0_b8765d9f38" y="297.181723"/>
    </g>
    <g clip-path="url(#p848dcb9bf6)">
     <use style="fill:#808080;fill-opacity:0.75;" x="147.986968" xlink:href="#C0_0_b8765d9f38" y="297.181723"/>
    </g>
    <g clip-path="url(#p848dcb9bf6)">
     <use style="fill:#808080;fill-opacity:0.75;" x="165.521484" xlink:href="#C0_0_b8765d9f38" y="283.530377"/>
    </g>
    <g clip-path="url(#p848dcb9bf6)">
     <use style="fill:#808080;fill-opacity:0.75;" x="165.521484" xlink:href="#C0_0_b8765d9f38" y="269.879032"/>
    </g>
    <g clip-path="url(#p848dcb9bf6)">
     <use style="fill:#808080;fill-opacity:0.75;" x="159.676646" xlink:href="#C0_0_b8765d9f38" y="269.879032"/>
    </g>
    <g clip-path="url(#p848dcb9bf6)">
     <use style="fill:#808080;fill-opacity:0.75;" x="165.521484" xlink:href="#C0_0_b8765d9f38" y="256.227686"/>
    </g>
    <g clip-path="url(#p848dcb9bf6)">
     <use style="fill:#808080;fill-opacity:0.75;" x="159.676646" xlink:href="#C0_0_b8765d9f38" y="256.227686"/>
    </g>
    <g clip-path="url(#p848dcb9bf6)">
     <use style="fill:#808080;fill-opacity:0.75;" x="165.521484" xlink:href="#C0_0_b8765d9f38" y="242.57634"/>
    </g>
    <g clip-path="url(#p848dcb9bf6)">
     <use style="fill:#808080;fill-opacity:0.75;" x="159.676646" xlink:href="#C0_0_b8765d9f38" y="242.57634"/>
    </g>
    <g clip-path="url(#p848dcb9bf6)">
     <use style="fill:#808080;fill-opacity:0.75;" x="171.366323" xlink:href="#C0_0_b8765d9f38" y="242.57634"/>
    </g>
    <g clip-path="url(#p848dcb9bf6)">
     <use style="fill:#808080;fill-opacity:0.75;" x="153.831807" xlink:href="#C0_0_b8765d9f38" y="242.57634"/>
    </g>
    <g clip-path="url(#p848dcb9bf6)">
     <use style="fill:#808080;fill-opacity:0.75;" x="177.211162" xlink:href="#C0_0_b8765d9f38" y="242.57634"/>
    </g>
    <g clip-path="url(#p848dcb9bf6)">
     <use style="fill:#808080;fill-opacity:0.75;" x="147.986968" xlink:href="#C0_0_b8765d9f38" y="242.57634"/>
    </g>
    <g clip-path="url(#p848dcb9bf6)">
     <use style="fill:#808080;fill-opacity:0.75;" x="183.056" xlink:href="#C0_0_b8765d9f38" y="242.57634"/>
    </g>
    <g clip-path="url(#p848dcb9bf6)">
     <use style="fill:#808080;fill-opacity:0.75;" x="142.14213" xlink:href="#C0_0_b8765d9f38" y="242.57634"/>
    </g>
    <g clip-path="url(#p848dcb9bf6)">
     <use style="fill:#808080;fill-opacity:0.75;" x="188.900839" xlink:href="#C0_0_b8765d9f38" y="242.57634"/>
    </g>
    <g clip-path="url(#p848dcb9bf6)">
     <use style="fill:#808080;fill-opacity:0.75;" x="136.297291" xlink:href="#C0_0_b8765d9f38" y="242.57634"/>
    </g>
    <g clip-path="url(#p848dcb9bf6)">
     <use style="fill:#808080;fill-opacity:0.75;" x="194.745678" xlink:href="#C0_0_b8765d9f38" y="242.57634"/>
    </g>
    <g clip-path="url(#p848dcb9bf6)">
     <use style="fill:#808080;fill-opacity:0.75;" x="130.452452" xlink:href="#C0_0_b8765d9f38" y="242.57634"/>
    </g>
    <g clip-path="url(#p848dcb9bf6)">
     <use style="fill:#808080;fill-opacity:0.75;" x="200.590516" xlink:href="#C0_0_b8765d9f38" y="242.57634"/>
    </g>
    <g clip-path="url(#p848dcb9bf6)">
     <use style="fill:#808080;fill-opacity:0.75;" x="124.607614" xlink:href="#C0_0_b8765d9f38" y="242.57634"/>
    </g>
    <g clip-path="url(#p848dcb9bf6)">
     <use style="fill:#808080;fill-opacity:0.75;" x="165.521484" xlink:href="#C0_0_b8765d9f38" y="201.622303"/>
    </g>
    <g clip-path="url(#p848dcb9bf6)">
     <use style="fill:#808080;fill-opacity:0.75;" x="165.521484" xlink:href="#C0_0_b8765d9f38" y="187.970957"/>
    </g>
    <g clip-path="url(#p848dcb9bf6)">
     <use style="fill:#808080;fill-opacity:0.75;" x="159.676646" xlink:href="#C0_0_b8765d9f38" y="187.970957"/>
    </g>
    <g clip-path="url(#p848dcb9bf6)">
     <use style="fill:#808080;fill-opacity:0.75;" x="171.366323" xlink:href="#C0_0_b8765d9f38" y="187.970957"/>
    </g>
    <g clip-path="url(#p848dcb9bf6)">
     <use style="fill:#808080;fill-opacity:0.75;" x="165.521484" xlink:href="#C0_0_b8765d9f38" y="174.319611"/>
    </g>
    <g clip-path="url(#p848dcb9bf6)">
     <use style="fill:#808080;fill-opacity:0.75;" x="159.676646" xlink:href="#C0_0_b8765d9f38" y="174.319611"/>
    </g>
    <g clip-path="url(#p848dcb9bf6)">
     <use style="fill:#808080;fill-opacity:0.75;" x="171.366323" xlink:href="#C0_0_b8765d9f38" y="174.319611"/>
    </g>
    <g clip-path="url(#p848dcb9bf6)">
     <use style="fill:#808080;fill-opacity:0.75;" x="153.831807" xlink:href="#C0_0_b8765d9f38" y="174.319611"/>
    </g>
    <g clip-path="url(#p848dcb9bf6)">
     <use style="fill:#808080;fill-opacity:0.75;" x="165.521484" xlink:href="#C0_0_b8765d9f38" y="133.365574"/>
    </g>
    <g clip-path="url(#p848dcb9bf6)">
     <use style="fill:#808080;fill-opacity:0.75;" x="159.676646" xlink:href="#C0_0_b8765d9f38" y="133.365574"/>
    </g>
    <g clip-path="url(#p848dcb9bf6)">
     <use style="fill:#808080;fill-opacity:0.75;" x="165.521484" xlink:href="#C0_0_b8765d9f38" y="106.062882"/>
    </g>
    <g clip-path="url(#p848dcb9bf6)">
     <use style="fill:#808080;fill-opacity:0.75;" x="159.676646" xlink:href="#C0_0_b8765d9f38" y="106.062882"/>
    </g>
    <g clip-path="url(#p848dcb9bf6)">
     <use style="fill:#808080;fill-opacity:0.75;" x="165.521484" xlink:href="#C0_0_b8765d9f38" y="51.457499"/>
    </g>
   </g>
  </g>
  <g id="axes_2">
   <g id="patch_6">
    <path d="M 339.300781 381.1375 
L 565.2 381.1375 
L 565.2 35.758451 
L 339.300781 35.758451 
z
" style="fill:#ffffff;"/>
   </g>
   <g id="patch_7">
    <path clip-path="url(#p7ab61dff1c)" d="M 388.93061 381.1375 
L 393.801362 381.1375 
L 393.801362 357.642327 
L 388.93061 357.642327 
z
" style="fill:#1f77b4;opacity:0.4;"/>
   </g>
   <g id="patch_8">
    <path clip-path="url(#p7ab61dff1c)" d="M 393.801362 381.1375 
L 398.672114 381.1375 
L 398.672114 287.156806 
L 393.801362 287.156806 
z
" style="fill:#1f77b4;opacity:0.4;"/>
   </g>
   <g id="patch_9">
    <path clip-path="url(#p7ab61dff1c)" d="M 398.672114 381.1375 
L 403.542867 381.1375 
L 403.542867 334.147153 
L 398.672114 334.147153 
z
" style="fill:#1f77b4;opacity:0.4;"/>
   </g>
   <g id="patch_10">
    <path clip-path="url(#p7ab61dff1c)" d="M 403.542867 381.1375 
L 408.413619 381.1375 
L 408.413619 310.65198 
L 403.542867 310.65198 
z
" style="fill:#1f77b4;opacity:0.4;"/>
   </g>
   <g id="patch_11">
    <path clip-path="url(#p7ab61dff1c)" d="M 408.413619 381.1375 
L 413.284372 381.1375 
L 413.284372 287.156806 
L 408.413619 287.156806 
z
" style="fill:#1f77b4;opacity:0.4;"/>
   </g>
   <g id="patch_12">
    <path clip-path="url(#p7ab61dff1c)" d="M 413.284372 381.1375 
L 418.155124 381.1375 
L 418.155124 240.16646 
L 413.284372 240.16646 
z
" style="fill:#1f77b4;opacity:0.4;"/>
   </g>
   <g id="patch_13">
    <path clip-path="url(#p7ab61dff1c)" d="M 418.155124 381.1375 
L 423.025876 381.1375 
L 423.025876 357.642327 
L 418.155124 357.642327 
z
" style="fill:#1f77b4;opacity:0.4;"/>
   </g>
   <g id="patch_14">
    <path clip-path="url(#p7ab61dff1c)" d="M 423.025876 381.1375 
L 427.896629 381.1375 
L 427.896629 334.147153 
L 423.025876 334.147153 
z
" style="fill:#1f77b4;opacity:0.4;"/>
   </g>
   <g id="patch_15">
    <path clip-path="url(#p7ab61dff1c)" d="M 427.896629 381.1375 
L 432.767381 381.1375 
L 432.767381 381.1375 
L 427.896629 381.1375 
z
" style="fill:#1f77b4;opacity:0.4;"/>
   </g>
   <g id="patch_16">
    <path clip-path="url(#p7ab61dff1c)" d="M 432.767381 381.1375 
L 437.638133 381.1375 
L 437.638133 334.147153 
L 432.767381 334.147153 
z
" style="fill:#1f77b4;opacity:0.4;"/>
   </g>
   <g id="patch_17">
    <path clip-path="url(#p7ab61dff1c)" d="M 437.638133 381.1375 
L 442.508886 381.1375 
L 442.508886 52.205072 
L 437.638133 52.205072 
z
" style="fill:#1f77b4;opacity:0.4;"/>
   </g>
   <g id="patch_18">
    <path clip-path="url(#p7ab61dff1c)" d="M 442.508886 381.1375 
L 447.379638 381.1375 
L 447.379638 381.1375 
L 442.508886 381.1375 
z
" style="fill:#1f77b4;opacity:0.4;"/>
   </g>
   <g id="patch_19">
    <path clip-path="url(#p7ab61dff1c)" d="M 447.379638 381.1375 
L 452.250391 381.1375 
L 452.250391 381.1375 
L 447.379638 381.1375 
z
" style="fill:#1f77b4;opacity:0.4;"/>
   </g>
   <g id="patch_20">
    <path clip-path="url(#p7ab61dff1c)" d="M 452.250391 381.1375 
L 457.121143 381.1375 
L 457.121143 357.642327 
L 452.250391 357.642327 
z
" style="fill:#1f77b4;opacity:0.4;"/>
   </g>
   <g id="patch_21">
    <path clip-path="url(#p7ab61dff1c)" d="M 457.121143 381.1375 
L 461.991895 381.1375 
L 461.991895 310.65198 
L 457.121143 310.65198 
z
" style="fill:#1f77b4;opacity:0.4;"/>
   </g>
   <g id="patch_22">
    <path clip-path="url(#p7ab61dff1c)" d="M 461.991895 381.1375 
L 466.862648 381.1375 
L 466.862648 287.156806 
L 461.991895 287.156806 
z
" style="fill:#1f77b4;opacity:0.4;"/>
   </g>
   <g id="patch_23">
    <path clip-path="url(#p7ab61dff1c)" d="M 466.862648 381.1375 
L 471.7334 381.1375 
L 471.7334 381.1375 
L 466.862648 381.1375 
z
" style="fill:#1f77b4;opacity:0.4;"/>
   </g>
   <g id="patch_24">
    <path clip-path="url(#p7ab61dff1c)" d="M 471.7334 381.1375 
L 476.604153 381.1375 
L 476.604153 381.1375 
L 471.7334 381.1375 
z
" style="fill:#1f77b4;opacity:0.4;"/>
   </g>
   <g id="patch_25">
    <path clip-path="url(#p7ab61dff1c)" d="M 476.604153 381.1375 
L 481.474905 381.1375 
L 481.474905 381.1375 
L 476.604153 381.1375 
z
" style="fill:#1f77b4;opacity:0.4;"/>
   </g>
   <g id="patch_26">
    <path clip-path="url(#p7ab61dff1c)" d="M 481.474905 381.1375 
L 486.345657 381.1375 
L 486.345657 334.147153 
L 481.474905 334.147153 
z
" style="fill:#1f77b4;opacity:0.4;"/>
   </g>
   <g id="patch_27">
    <path clip-path="url(#p7ab61dff1c)" d="M 486.345657 381.1375 
L 491.21641 381.1375 
L 491.21641 381.1375 
L 486.345657 381.1375 
z
" style="fill:#1f77b4;opacity:0.4;"/>
   </g>
   <g id="patch_28">
    <path clip-path="url(#p7ab61dff1c)" d="M 491.21641 381.1375 
L 496.087162 381.1375 
L 496.087162 334.147153 
L 491.21641 334.147153 
z
" style="fill:#1f77b4;opacity:0.4;"/>
   </g>
   <g id="patch_29">
    <path clip-path="url(#p7ab61dff1c)" d="M 496.087162 381.1375 
L 500.957914 381.1375 
L 500.957914 381.1375 
L 496.087162 381.1375 
z
" style="fill:#1f77b4;opacity:0.4;"/>
   </g>
   <g id="patch_30">
    <path clip-path="url(#p7ab61dff1c)" d="M 500.957914 381.1375 
L 505.828667 381.1375 
L 505.828667 381.1375 
L 500.957914 381.1375 
z
" style="fill:#1f77b4;opacity:0.4;"/>
   </g>
   <g id="patch_31">
    <path clip-path="url(#p7ab61dff1c)" d="M 505.828667 381.1375 
L 510.699419 381.1375 
L 510.699419 381.1375 
L 505.828667 381.1375 
z
" style="fill:#1f77b4;opacity:0.4;"/>
   </g>
   <g id="patch_32">
    <path clip-path="url(#p7ab61dff1c)" d="M 510.699419 381.1375 
L 515.570172 381.1375 
L 515.570172 357.642327 
L 510.699419 357.642327 
z
" style="fill:#1f77b4;opacity:0.4;"/>
   </g>
   <g id="matplotlib.axis_3">
    <g id="xtick_2">
     <g id="line2d_14">
      <g>
       <use style="stroke:#000000;stroke-width:0.8;" x="383.424542" xlink:href="#m11938e0ecc" y="391.1375"/>
      </g>
     </g>
     <g id="text_10">
      <text style="font-family:Roboto;font-size:10px;font-stretch:normal;font-style:normal;font-weight:normal;text-anchor:middle;" transform="rotate(-0, 383.424542, 405.6375)" x="383.424542" y="405.6375">0</text>
     </g>
    </g>
    <g id="xtick_3">
     <g id="line2d_15">
      <g>
       <use style="stroke:#000000;stroke-width:0.8;" x="438.485221" xlink:href="#m11938e0ecc" y="391.1375"/>
      </g>
     </g>
     <g id="text_11">
      <text style="font-family:Roboto;font-size:10px;font-stretch:normal;font-style:normal;font-weight:normal;text-anchor:middle;" transform="rotate(-0, 438.485221, 405.6375)" x="438.485221" y="405.6375">10</text>
     </g>
    </g>
    <g id="xtick_4">
     <g id="line2d_16">
      <g>
       <use style="stroke:#000000;stroke-width:0.8;" x="493.5459" xlink:href="#m11938e0ecc" y="391.1375"/>
      </g>
     </g>
     <g id="text_12">
      <text style="font-family:Roboto;font-size:10px;font-stretch:normal;font-style:normal;font-weight:normal;text-anchor:middle;" transform="rotate(-0, 493.5459, 405.6375)" x="493.5459" y="405.6375">20</text>
     </g>
    </g>
    <g id="xtick_5">
     <g id="line2d_17">
      <g>
       <use style="stroke:#000000;stroke-width:0.8;" x="548.606579" xlink:href="#m11938e0ecc" y="391.1375"/>
      </g>
     </g>
     <g id="text_13">
      <text style="font-family:Roboto;font-size:10px;font-stretch:normal;font-style:normal;font-weight:normal;text-anchor:middle;" transform="rotate(-0, 548.606579, 405.6375)" x="548.606579" y="405.6375">30</text>
     </g>
    </g>
    <g id="text_14">
     <text style="font-family:Roboto;font-size:10px;font-stretch:normal;font-style:normal;font-weight:normal;text-anchor:middle;" transform="rotate(-0, 452.250391, 419.16875)" x="452.250391" y="419.16875">Value</text>
    </g>
   </g>
   <g id="matplotlib.axis_4">
    <g id="ytick_7">
     <g id="line2d_18">
      <g>
       <use style="stroke:#000000;stroke-width:0.8;" x="329.300781" xlink:href="#ma82a8643f0" y="381.1375"/>
      </g>
     </g>
     <g id="text_15">
      <text style="font-family:Roboto;font-size:10px;font-stretch:normal;font-style:normal;font-weight:normal;text-anchor:end;" transform="rotate(-0, 322.300781, 384.8875)" x="322.300781" y="384.8875">0.00</text>
     </g>
    </g>
    <g id="ytick_8">
     <g id="line2d_19">
      <g>
       <use style="stroke:#000000;stroke-width:0.8;" x="329.300781" xlink:href="#ma82a8643f0" y="327.098601"/>
      </g>
     </g>
     <g id="text_16">
      <text style="font-family:Roboto;font-size:10px;font-stretch:normal;font-style:normal;font-weight:normal;text-anchor:end;" transform="rotate(-0, 322.300781, 330.848601)" x="322.300781" y="330.848601">0.05</text>
     </g>
    </g>
    <g id="ytick_9">
     <g id="line2d_20">
      <g>
       <use style="stroke:#000000;stroke-width:0.8;" x="329.300781" xlink:href="#ma82a8643f0" y="273.059702"/>
      </g>
     </g>
     <g id="text_17">
      <text style="font-family:Roboto;font-size:10px;font-stretch:normal;font-style:normal;font-weight:normal;text-anchor:end;" transform="rotate(-0, 322.300781, 276.809702)" x="322.300781" y="276.809702">0.10</text>
     </g>
    </g>
    <g id="ytick_10">
     <g id="line2d_21">
      <g>
       <use style="stroke:#000000;stroke-width:0.8;" x="329.300781" xlink:href="#ma82a8643f0" y="219.020804"/>
      </g>
     </g>
     <g id="text_18">
      <text style="font-family:Roboto;font-size:10px;font-stretch:normal;font-style:normal;font-weight:normal;text-anchor:end;" transform="rotate(-0, 322.300781, 222.770804)" x="322.300781" y="222.770804">0.15</text>
     </g>
    </g>
    <g id="ytick_11">
     <g id="line2d_22">
      <g>
       <use style="stroke:#000000;stroke-width:0.8;" x="329.300781" xlink:href="#ma82a8643f0" y="164.981905"/>
      </g>
     </g>
     <g id="text_19">
      <text style="font-family:Roboto;font-size:10px;font-stretch:normal;font-style:normal;font-weight:normal;text-anchor:end;" transform="rotate(-0, 322.300781, 168.731905)" x="322.300781" y="168.731905">0.20</text>
     </g>
    </g>
    <g id="ytick_12">
     <g id="line2d_23">
      <g>
       <use style="stroke:#000000;stroke-width:0.8;" x="329.300781" xlink:href="#ma82a8643f0" y="110.943006"/>
      </g>
     </g>
     <g id="text_20">
      <text style="font-family:Roboto;font-size:10px;font-stretch:normal;font-style:normal;font-weight:normal;text-anchor:end;" transform="rotate(-0, 322.300781, 114.693006)" x="322.300781" y="114.693006">0.25</text>
     </g>
    </g>
    <g id="ytick_13">
     <g id="line2d_24">
      <g>
       <use style="stroke:#000000;stroke-width:0.8;" x="329.300781" xlink:href="#ma82a8643f0" y="56.904107"/>
      </g>
     </g>
     <g id="text_21">
      <text style="font-family:Roboto;font-size:10px;font-stretch:normal;font-style:normal;font-weight:normal;text-anchor:end;" transform="rotate(-0, 322.300781, 60.654107)" x="322.300781" y="60.654107">0.30</text>
     </g>
    </g>
    <g id="text_22">
     <text style="font-family:Roboto;font-size:10px;font-stretch:normal;font-style:normal;font-weight:normal;text-anchor:middle;" transform="rotate(-90, 296.667969, 208.447976)" x="296.667969" y="208.447976">Density</text>
    </g>
   </g>
   <g id="line2d_25">
    <path clip-path="url(#p7ab61dff1c)" d="M 349.568928 381.052762 
L 354.7288 380.852217 
L 358.856698 380.456351 
L 361.952622 379.902842 
L 364.016571 379.351293 
L 366.08052 378.608274 
L 368.144469 377.631286 
L 370.208418 376.377289 
L 372.272367 374.805916 
L 374.336316 372.883206 
L 376.400265 370.585491 
L 378.464214 367.902966 
L 380.528163 364.842435 
L 382.592112 361.428799 
L 385.688035 355.744814 
L 389.815933 347.46037 
L 396.00778 334.856813 
L 399.103704 329.083094 
L 401.167653 325.587888 
L 403.231602 322.429961 
L 405.295551 319.63462 
L 407.3595 317.205948 
L 409.423449 315.125921 
L 411.487398 313.355598 
L 413.551347 311.83906 
L 416.64727 309.895883 
L 420.775168 307.61324 
L 424.903066 305.513008 
L 426.967015 304.61383 
L 429.030964 303.93113 
L 431.094913 303.581374 
L 432.126888 303.569227 
L 433.158862 303.68441 
L 434.190837 303.93907 
L 435.222811 304.343046 
L 436.254786 304.903358 
L 437.28676 305.623803 
L 438.318735 306.50468 
L 440.382684 308.730824 
L 442.446633 311.513163 
L 444.510582 314.734459 
L 447.606505 320.057331 
L 452.766378 328.954052 
L 455.862301 333.692473 
L 457.92625 336.50715 
L 461.022174 340.256501 
L 464.118097 343.580167 
L 468.245995 347.639339 
L 473.405868 352.404134 
L 477.533766 355.937216 
L 480.629689 358.349453 
L 483.725613 360.536781 
L 487.853511 363.152091 
L 493.013384 366.10932 
L 499.205231 369.37794 
L 503.333129 371.336405 
L 507.461027 373.038906 
L 511.588925 374.472563 
L 516.748797 375.97365 
L 523.972619 377.781701 
L 530.164466 379.111799 
L 535.324338 379.971401 
L 539.452236 380.457753 
L 544.612109 380.833476 
L 550.803956 381.042441 
L 554.931854 381.09872 
L 554.931854 381.09872 
" style="fill:none;stroke:#1f77b4;stroke-linecap:square;stroke-width:1.5;"/>
   </g>
   <g id="patch_33">
    <path d="M 329.300781 381.1375 
L 329.300781 56.904107 
" style="fill:none;stroke:#000000;stroke-linecap:square;stroke-linejoin:miter;stroke-width:0.8;"/>
   </g>
   <g id="patch_34">
    <path d="M 383.424542 391.1375 
L 548.606579 391.1375 
" style="fill:none;stroke:#000000;stroke-linecap:square;stroke-linejoin:miter;stroke-width:0.8;"/>
   </g>
   <g id="legend_1">
    <g id="patch_35">
     <path d="M 503.71875 58.289701 
L 558.2 58.289701 
Q 560.2 58.289701 560.2 56.289701 
L 560.2 42.758451 
Q 560.2 40.758451 558.2 40.758451 
L 503.71875 40.758451 
Q 501.71875 40.758451 501.71875 42.758451 
L 501.71875 56.289701 
Q 501.71875 58.289701 503.71875 58.289701 
z
" style="fill:#ffffff;opacity:0.8;stroke:#cccccc;stroke-linejoin:miter;"/>
    </g>
    <g id="patch_36">
     <path d="M 505.71875 52.258451 
L 525.71875 52.258451 
L 525.71875 45.258451 
L 505.71875 45.258451 
z
" style="fill:#1f77b4;opacity:0.4;"/>
    </g>
    <g id="text_23">
     <text style="font-family:Roboto;font-size:10px;font-stretch:normal;font-style:normal;font-weight:normal;text-anchor:start;" transform="rotate(-0, 533.71875, 52.258451)" x="533.71875" y="52.258451">2018</text>
    </g>
   </g>
  </g>
  <g id="text_24">
   <text style="font-family:Roboto;font-size:12px;font-stretch:normal;font-style:normal;font-weight:normal;text-anchor:middle;" transform="rotate(-0, 288, 18.26625)" x="288" y="18.26625">How many years of software development experience for World (without 95 percentile)</text>
  </g>
 </g>
 <defs>
  <clipPath id="p848dcb9bf6">
   <rect height="345.379049" width="225.899219" x="52.571875" y="35.758451"/>
  </clipPath>
  <clipPath id="p7ab61dff1c">
   <rect height="345.379049" width="225.899219" x="339.300781" y="35.758451"/>
  </clipPath>
 </defs>
</svg>
