<?xml version="1.0" encoding="utf-8" standalone="no"?>
<!DOCTYPE svg PUBLIC "-//W3C//DTD SVG 1.1//EN"
  "http://www.w3.org/Graphics/SVG/1.1/DTD/svg11.dtd">
<!-- Created with matplotlib (https://matplotlib.org/) -->
<svg height="432pt" version="1.1" viewBox="0 0 576 432" width="576pt" xmlns="http://www.w3.org/2000/svg" xmlns:xlink="http://www.w3.org/1999/xlink">
 <metadata>
  <rdf:RDF xmlns:cc="http://creativecommons.org/ns#" xmlns:dc="http://purl.org/dc/elements/1.1/" xmlns:rdf="http://www.w3.org/1999/02/22-rdf-syntax-ns#">
   <cc:Work>
    <dc:type rdf:resource="http://purl.org/dc/dcmitype/StillImage"/>
    <dc:date>2021-03-09T17:57:23.597017</dc:date>
    <dc:format>image/svg+xml</dc:format>
    <dc:creator>
     <cc:Agent>
      <dc:title>Matplotlib v3.3.4, https://matplotlib.org/</dc:title>
     </cc:Agent>
    </dc:creator>
   </cc:Work>
  </rdf:RDF>
 </metadata>
 <defs>
  <style type="text/css">*{stroke-linecap:butt;stroke-linejoin:round;}</style>
 </defs>
 <g id="figure_1">
  <g id="patch_1">
   <path d="M 0 432 
L 576 432 
L 576 0 
L 0 0 
z
" style="fill:#ffffff;"/>
  </g>
  <g id="axes_1">
   <g id="patch_2">
    <path d="M 52.571875 381.1375 
L 278.471094 381.1375 
L 278.471094 33.980625 
L 52.571875 33.980625 
z
" style="fill:#ffffff;"/>
   </g>
   <g id="patch_3">
    <path clip-path="url(#p818b1a1275)" d="M 63.866836 321.963033 
L 154.226523 321.963033 
L 154.226523 195.724169 
L 63.866836 195.724169 
L 63.866836 321.963033 
z
" style="fill:#3274a1;stroke:#3f3f3f;stroke-linejoin:miter;stroke-width:1.5;"/>
   </g>
   <g id="patch_4">
    <path clip-path="url(#p818b1a1275)" d="M 176.816445 333.797926 
L 267.176133 333.797926 
L 267.176133 286.458352 
L 176.816445 286.458352 
L 176.816445 333.797926 
z
" style="fill:#e1812c;stroke:#3f3f3f;stroke-linejoin:miter;stroke-width:1.5;"/>
   </g>
   <g id="matplotlib.axis_1">
    <g id="xtick_1">
     <g id="line2d_1">
      <defs>
       <path d="M 0 0 
L 0 3.5 
" id="m827b52667f" style="stroke:#000000;stroke-width:0.8;"/>
      </defs>
      <g>
       <use style="stroke:#000000;stroke-width:0.8;" x="109.04668" xlink:href="#m827b52667f" y="391.1375"/>
      </g>
     </g>
     <g id="text_1">
      <text style="font-family:Roboto;font-size:10px;font-stretch:normal;font-style:normal;font-weight:normal;text-anchor:middle;" transform="rotate(-0, 109.04668, 405.6375)" x="109.04668" y="405.6375">2017</text>
     </g>
    </g>
    <g id="xtick_2">
     <g id="line2d_2">
      <g>
       <use style="stroke:#000000;stroke-width:0.8;" x="221.996289" xlink:href="#m827b52667f" y="391.1375"/>
      </g>
     </g>
     <g id="text_2">
      <text style="font-family:Roboto;font-size:10px;font-stretch:normal;font-style:normal;font-weight:normal;text-anchor:middle;" transform="rotate(-0, 221.996289, 405.6375)" x="221.996289" y="405.6375">2018</text>
     </g>
    </g>
    <g id="text_3">
     <text style="font-family:Roboto;font-size:10px;font-stretch:normal;font-style:normal;font-weight:normal;text-anchor:middle;" transform="rotate(-0, 165.521484, 419.16875)" x="165.521484" y="419.16875">Year</text>
    </g>
   </g>
   <g id="matplotlib.axis_2">
    <g id="ytick_1">
     <g id="line2d_3">
      <defs>
       <path d="M 0 0 
L -3.5 0 
" id="meffec59a5a" style="stroke:#000000;stroke-width:0.8;"/>
      </defs>
      <g>
       <use style="stroke:#000000;stroke-width:0.8;" x="42.571875" xlink:href="#meffec59a5a" y="365.357642"/>
      </g>
     </g>
     <g id="text_4">
      <text style="font-family:Roboto;font-size:10px;font-stretch:normal;font-style:normal;font-weight:normal;text-anchor:end;" transform="rotate(-0, 35.571875, 369.107642)" x="35.571875" y="369.107642">0</text>
     </g>
    </g>
    <g id="ytick_2">
     <g id="line2d_4">
      <g>
       <use style="stroke:#000000;stroke-width:0.8;" x="42.571875" xlink:href="#meffec59a5a" y="325.907997"/>
      </g>
     </g>
     <g id="text_5">
      <text style="font-family:Roboto;font-size:10px;font-stretch:normal;font-style:normal;font-weight:normal;text-anchor:end;" transform="rotate(-0, 35.571875, 329.657997)" x="35.571875" y="329.657997">5</text>
     </g>
    </g>
    <g id="ytick_3">
     <g id="line2d_5">
      <g>
       <use style="stroke:#000000;stroke-width:0.8;" x="42.571875" xlink:href="#meffec59a5a" y="286.458352"/>
      </g>
     </g>
     <g id="text_6">
      <text style="font-family:Roboto;font-size:10px;font-stretch:normal;font-style:normal;font-weight:normal;text-anchor:end;" transform="rotate(-0, 35.571875, 290.208352)" x="35.571875" y="290.208352">10</text>
     </g>
    </g>
    <g id="ytick_4">
     <g id="line2d_6">
      <g>
       <use style="stroke:#000000;stroke-width:0.8;" x="42.571875" xlink:href="#meffec59a5a" y="247.008707"/>
      </g>
     </g>
     <g id="text_7">
      <text style="font-family:Roboto;font-size:10px;font-stretch:normal;font-style:normal;font-weight:normal;text-anchor:end;" transform="rotate(-0, 35.571875, 250.758707)" x="35.571875" y="250.758707">15</text>
     </g>
    </g>
    <g id="ytick_5">
     <g id="line2d_7">
      <g>
       <use style="stroke:#000000;stroke-width:0.8;" x="42.571875" xlink:href="#meffec59a5a" y="207.559063"/>
      </g>
     </g>
     <g id="text_8">
      <text style="font-family:Roboto;font-size:10px;font-stretch:normal;font-style:normal;font-weight:normal;text-anchor:end;" transform="rotate(-0, 35.571875, 211.309063)" x="35.571875" y="211.309063">20</text>
     </g>
    </g>
    <g id="ytick_6">
     <g id="line2d_8">
      <g>
       <use style="stroke:#000000;stroke-width:0.8;" x="42.571875" xlink:href="#meffec59a5a" y="168.109418"/>
      </g>
     </g>
     <g id="text_9">
      <text style="font-family:Roboto;font-size:10px;font-stretch:normal;font-style:normal;font-weight:normal;text-anchor:end;" transform="rotate(-0, 35.571875, 171.859418)" x="35.571875" y="171.859418">25</text>
     </g>
    </g>
    <g id="ytick_7">
     <g id="line2d_9">
      <g>
       <use style="stroke:#000000;stroke-width:0.8;" x="42.571875" xlink:href="#meffec59a5a" y="128.659773"/>
      </g>
     </g>
     <g id="text_10">
      <text style="font-family:Roboto;font-size:10px;font-stretch:normal;font-style:normal;font-weight:normal;text-anchor:end;" transform="rotate(-0, 35.571875, 132.409773)" x="35.571875" y="132.409773">30</text>
     </g>
    </g>
    <g id="ytick_8">
     <g id="line2d_10">
      <g>
       <use style="stroke:#000000;stroke-width:0.8;" x="42.571875" xlink:href="#meffec59a5a" y="89.210128"/>
      </g>
     </g>
     <g id="text_11">
      <text style="font-family:Roboto;font-size:10px;font-stretch:normal;font-style:normal;font-weight:normal;text-anchor:end;" transform="rotate(-0, 35.571875, 92.960128)" x="35.571875" y="92.960128">35</text>
     </g>
    </g>
    <g id="ytick_9">
     <g id="line2d_11">
      <g>
       <use style="stroke:#000000;stroke-width:0.8;" x="42.571875" xlink:href="#meffec59a5a" y="49.760483"/>
      </g>
     </g>
     <g id="text_12">
      <text style="font-family:Roboto;font-size:10px;font-stretch:normal;font-style:normal;font-weight:normal;text-anchor:end;" transform="rotate(-0, 35.571875, 53.510483)" x="35.571875" y="53.510483">40</text>
     </g>
    </g>
    <g id="text_13">
     <text style="font-family:Roboto;font-size:10px;font-stretch:normal;font-style:normal;font-weight:normal;text-anchor:middle;" transform="rotate(-90, 18.3, 207.559063)" x="18.3" y="207.559063">Value</text>
    </g>
   </g>
   <g id="line2d_12">
    <path clip-path="url(#p818b1a1275)" d="M 109.04668 321.963033 
L 109.04668 349.577784 
" style="fill:none;stroke:#3f3f3f;stroke-linecap:square;stroke-width:1.5;"/>
   </g>
   <g id="line2d_13">
    <path clip-path="url(#p818b1a1275)" d="M 109.04668 195.724169 
L 109.04668 49.760483 
" style="fill:none;stroke:#3f3f3f;stroke-linecap:square;stroke-width:1.5;"/>
   </g>
   <g id="line2d_14">
    <path clip-path="url(#p818b1a1275)" d="M 86.456758 349.577784 
L 131.636602 349.577784 
" style="fill:none;stroke:#3f3f3f;stroke-linecap:square;stroke-width:1.5;"/>
   </g>
   <g id="line2d_15">
    <path clip-path="url(#p818b1a1275)" d="M 86.456758 49.760483 
L 131.636602 49.760483 
" style="fill:none;stroke:#3f3f3f;stroke-linecap:square;stroke-width:1.5;"/>
   </g>
   <g id="line2d_16"/>
   <g id="line2d_17">
    <path clip-path="url(#p818b1a1275)" d="M 221.996289 333.797926 
L 221.996289 365.357642 
" style="fill:none;stroke:#3f3f3f;stroke-linecap:square;stroke-width:1.5;"/>
   </g>
   <g id="line2d_18">
    <path clip-path="url(#p818b1a1275)" d="M 221.996289 286.458352 
L 221.996289 223.33892 
" style="fill:none;stroke:#3f3f3f;stroke-linecap:square;stroke-width:1.5;"/>
   </g>
   <g id="line2d_19">
    <path clip-path="url(#p818b1a1275)" d="M 199.406367 365.357642 
L 244.586211 365.357642 
" style="fill:none;stroke:#3f3f3f;stroke-linecap:square;stroke-width:1.5;"/>
   </g>
   <g id="line2d_20">
    <path clip-path="url(#p818b1a1275)" d="M 199.406367 223.33892 
L 244.586211 223.33892 
" style="fill:none;stroke:#3f3f3f;stroke-linecap:square;stroke-width:1.5;"/>
   </g>
   <g id="line2d_21">
    <defs>
     <path d="M -0 3.535534 
L 2.12132 0 
L -0 -3.535534 
L -2.12132 -0 
z
" id="mfe3772c63e" style="stroke:#3f3f3f;stroke-linejoin:miter;"/>
    </defs>
    <g clip-path="url(#p818b1a1275)">
     <use style="fill:#3f3f3f;stroke:#3f3f3f;stroke-linejoin:miter;" x="221.996289" xlink:href="#mfe3772c63e" y="207.559063"/>
    </g>
   </g>
   <g id="line2d_22">
    <path clip-path="url(#p818b1a1275)" d="M 63.866836 258.843601 
L 154.226523 258.843601 
" style="fill:none;stroke:#3f3f3f;stroke-linecap:square;stroke-width:1.5;"/>
   </g>
   <g id="line2d_23">
    <path clip-path="url(#p818b1a1275)" d="M 176.816445 325.907997 
L 267.176133 325.907997 
" style="fill:none;stroke:#3f3f3f;stroke-linecap:square;stroke-width:1.5;"/>
   </g>
   <g id="patch_5">
    <path d="M 42.571875 365.357642 
L 42.571875 49.760483 
" style="fill:none;stroke:#000000;stroke-linecap:square;stroke-linejoin:miter;stroke-width:0.8;"/>
   </g>
   <g id="patch_6">
    <path d="M 109.04668 391.1375 
L 221.996289 391.1375 
" style="fill:none;stroke:#000000;stroke-linecap:square;stroke-linejoin:miter;stroke-width:0.8;"/>
   </g>
   <g id="PathCollection_1">
    <defs>
     <path d="M 0 2.5 
C 0.663008 2.5 1.29895 2.236584 1.767767 1.767767 
C 2.236584 1.29895 2.5 0.663008 2.5 -0 
C 2.5 -0.663008 2.236584 -1.29895 1.767767 -1.767767 
C 1.29895 -2.236584 0.663008 -2.5 0 -2.5 
C -0.663008 -2.5 -1.29895 -2.236584 -1.767767 -1.767767 
C -2.236584 -1.29895 -2.5 -0.663008 -2.5 0 
C -2.5 0.663008 -2.236584 1.29895 -1.767767 1.767767 
C -1.29895 2.236584 -0.663008 2.5 0 2.5 
z
" id="C0_0_50fbe8ac05"/>
    </defs>
    <g clip-path="url(#p818b1a1275)">
     <use style="fill:#808080;fill-opacity:0.75;" x="109.04668" xlink:href="#C0_0_50fbe8ac05" y="349.577784"/>
    </g>
    <g clip-path="url(#p818b1a1275)">
     <use style="fill:#808080;fill-opacity:0.75;" x="109.04668" xlink:href="#C0_0_50fbe8ac05" y="341.687855"/>
    </g>
    <g clip-path="url(#p818b1a1275)">
     <use style="fill:#808080;fill-opacity:0.75;" x="103.201841" xlink:href="#C0_0_50fbe8ac05" y="341.687855"/>
    </g>
    <g clip-path="url(#p818b1a1275)">
     <use style="fill:#808080;fill-opacity:0.75;" x="114.891518" xlink:href="#C0_0_50fbe8ac05" y="341.687855"/>
    </g>
    <g clip-path="url(#p818b1a1275)">
     <use style="fill:#808080;fill-opacity:0.75;" x="109.04668" xlink:href="#C0_0_50fbe8ac05" y="325.907997"/>
    </g>
    <g clip-path="url(#p818b1a1275)">
     <use style="fill:#808080;fill-opacity:0.75;" x="109.04668" xlink:href="#C0_0_50fbe8ac05" y="310.128139"/>
    </g>
    <g clip-path="url(#p818b1a1275)">
     <use style="fill:#808080;fill-opacity:0.75;" x="109.04668" xlink:href="#C0_0_50fbe8ac05" y="302.23821"/>
    </g>
    <g clip-path="url(#p818b1a1275)">
     <use style="fill:#808080;fill-opacity:0.75;" x="109.04668" xlink:href="#C0_0_50fbe8ac05" y="286.458352"/>
    </g>
    <g clip-path="url(#p818b1a1275)">
     <use style="fill:#808080;fill-opacity:0.75;" x="109.04668" xlink:href="#C0_0_50fbe8ac05" y="270.678494"/>
    </g>
    <g clip-path="url(#p818b1a1275)">
     <use style="fill:#808080;fill-opacity:0.75;" x="109.04668" xlink:href="#C0_0_50fbe8ac05" y="247.008707"/>
    </g>
    <g clip-path="url(#p818b1a1275)">
     <use style="fill:#808080;fill-opacity:0.75;" x="109.04668" xlink:href="#C0_0_50fbe8ac05" y="231.228849"/>
    </g>
    <g clip-path="url(#p818b1a1275)">
     <use style="fill:#808080;fill-opacity:0.75;" x="109.04668" xlink:href="#C0_0_50fbe8ac05" y="215.448991"/>
    </g>
    <g clip-path="url(#p818b1a1275)">
     <use style="fill:#808080;fill-opacity:0.75;" x="109.04668" xlink:href="#C0_0_50fbe8ac05" y="207.559063"/>
    </g>
    <g clip-path="url(#p818b1a1275)">
     <use style="fill:#808080;fill-opacity:0.75;" x="109.04668" xlink:href="#C0_0_50fbe8ac05" y="191.779205"/>
    </g>
    <g clip-path="url(#p818b1a1275)">
     <use style="fill:#808080;fill-opacity:0.75;" x="109.04668" xlink:href="#C0_0_50fbe8ac05" y="168.109418"/>
    </g>
    <g clip-path="url(#p818b1a1275)">
     <use style="fill:#808080;fill-opacity:0.75;" x="109.04668" xlink:href="#C0_0_50fbe8ac05" y="128.659773"/>
    </g>
    <g clip-path="url(#p818b1a1275)">
     <use style="fill:#808080;fill-opacity:0.75;" x="109.04668" xlink:href="#C0_0_50fbe8ac05" y="81.320199"/>
    </g>
    <g clip-path="url(#p818b1a1275)">
     <use style="fill:#808080;fill-opacity:0.75;" x="109.04668" xlink:href="#C0_0_50fbe8ac05" y="49.760483"/>
    </g>
   </g>
   <g id="PathCollection_2">
    <defs>
     <path d="M 0 2.5 
C 0.663008 2.5 1.29895 2.236584 1.767767 1.767767 
C 2.236584 1.29895 2.5 0.663008 2.5 -0 
C 2.5 -0.663008 2.236584 -1.29895 1.767767 -1.767767 
C 1.29895 -2.236584 0.663008 -2.5 0 -2.5 
C -0.663008 -2.5 -1.29895 -2.236584 -1.767767 -1.767767 
C -2.236584 -1.29895 -2.5 -0.663008 -2.5 0 
C -2.5 0.663008 -2.236584 1.29895 -1.767767 1.767767 
C -1.29895 2.236584 -0.663008 2.5 0 2.5 
z
" id="C1_0_f42c865e60"/>
    </defs>
    <g clip-path="url(#p818b1a1275)">
     <use style="fill:#808080;fill-opacity:0.75;" x="221.996289" xlink:href="#C1_0_f42c865e60" y="365.357642"/>
    </g>
    <g clip-path="url(#p818b1a1275)">
     <use style="fill:#808080;fill-opacity:0.75;" x="221.996289" xlink:href="#C1_0_f42c865e60" y="357.467713"/>
    </g>
    <g clip-path="url(#p818b1a1275)">
     <use style="fill:#808080;fill-opacity:0.75;" x="216.15145" xlink:href="#C1_0_f42c865e60" y="357.467713"/>
    </g>
    <g clip-path="url(#p818b1a1275)">
     <use style="fill:#808080;fill-opacity:0.75;" x="221.996289" xlink:href="#C1_0_f42c865e60" y="341.687855"/>
    </g>
    <g clip-path="url(#p818b1a1275)">
     <use style="fill:#808080;fill-opacity:0.75;" x="221.996289" xlink:href="#C1_0_f42c865e60" y="333.797926"/>
    </g>
    <g clip-path="url(#p818b1a1275)">
     <use style="fill:#808080;fill-opacity:0.75;" x="216.15145" xlink:href="#C1_0_f42c865e60" y="333.797926"/>
    </g>
    <g clip-path="url(#p818b1a1275)">
     <use style="fill:#808080;fill-opacity:0.75;" x="221.996289" xlink:href="#C1_0_f42c865e60" y="325.907997"/>
    </g>
    <g clip-path="url(#p818b1a1275)">
     <use style="fill:#808080;fill-opacity:0.75;" x="216.15145" xlink:href="#C1_0_f42c865e60" y="325.907997"/>
    </g>
    <g clip-path="url(#p818b1a1275)">
     <use style="fill:#808080;fill-opacity:0.75;" x="227.841128" xlink:href="#C1_0_f42c865e60" y="325.907997"/>
    </g>
    <g clip-path="url(#p818b1a1275)">
     <use style="fill:#808080;fill-opacity:0.75;" x="210.306612" xlink:href="#C1_0_f42c865e60" y="325.907997"/>
    </g>
    <g clip-path="url(#p818b1a1275)">
     <use style="fill:#808080;fill-opacity:0.75;" x="233.685966" xlink:href="#C1_0_f42c865e60" y="325.907997"/>
    </g>
    <g clip-path="url(#p818b1a1275)">
     <use style="fill:#808080;fill-opacity:0.75;" x="221.996289" xlink:href="#C1_0_f42c865e60" y="318.018068"/>
    </g>
    <g clip-path="url(#p818b1a1275)">
     <use style="fill:#808080;fill-opacity:0.75;" x="216.15145" xlink:href="#C1_0_f42c865e60" y="318.018068"/>
    </g>
    <g clip-path="url(#p818b1a1275)">
     <use style="fill:#808080;fill-opacity:0.75;" x="221.996289" xlink:href="#C1_0_f42c865e60" y="302.23821"/>
    </g>
    <g clip-path="url(#p818b1a1275)">
     <use style="fill:#808080;fill-opacity:0.75;" x="221.996289" xlink:href="#C1_0_f42c865e60" y="286.458352"/>
    </g>
    <g clip-path="url(#p818b1a1275)">
     <use style="fill:#808080;fill-opacity:0.75;" x="216.15145" xlink:href="#C1_0_f42c865e60" y="286.458352"/>
    </g>
    <g clip-path="url(#p818b1a1275)">
     <use style="fill:#808080;fill-opacity:0.75;" x="227.841128" xlink:href="#C1_0_f42c865e60" y="286.458352"/>
    </g>
    <g clip-path="url(#p818b1a1275)">
     <use style="fill:#808080;fill-opacity:0.75;" x="221.996289" xlink:href="#C1_0_f42c865e60" y="270.678494"/>
    </g>
    <g clip-path="url(#p818b1a1275)">
     <use style="fill:#808080;fill-opacity:0.75;" x="221.996289" xlink:href="#C1_0_f42c865e60" y="247.008707"/>
    </g>
    <g clip-path="url(#p818b1a1275)">
     <use style="fill:#808080;fill-opacity:0.75;" x="221.996289" xlink:href="#C1_0_f42c865e60" y="223.33892"/>
    </g>
    <g clip-path="url(#p818b1a1275)">
     <use style="fill:#808080;fill-opacity:0.75;" x="221.996289" xlink:href="#C1_0_f42c865e60" y="207.559063"/>
    </g>
   </g>
  </g>
  <g id="axes_2">
   <g id="patch_7">
    <path d="M 339.300781 381.1375 
L 565.2 381.1375 
L 565.2 33.980625 
L 339.300781 33.980625 
z
" style="fill:#ffffff;"/>
   </g>
   <g id="patch_8">
    <path clip-path="url(#pc69f677c3e)" d="M 401.843025 381.1375 
L 413.044662 381.1375 
L 413.044662 250.627397 
L 401.843025 250.627397 
z
" style="fill:#1f77b4;opacity:0.4;"/>
   </g>
   <g id="patch_9">
    <path clip-path="url(#pc69f677c3e)" d="M 413.044662 381.1375 
L 424.246299 381.1375 
L 424.246299 302.831438 
L 413.044662 302.831438 
z
" style="fill:#1f77b4;opacity:0.4;"/>
   </g>
   <g id="patch_10">
    <path clip-path="url(#pc69f677c3e)" d="M 424.246299 381.1375 
L 435.447935 381.1375 
L 435.447935 355.035479 
L 424.246299 355.035479 
z
" style="fill:#1f77b4;opacity:0.4;"/>
   </g>
   <g id="patch_11">
    <path clip-path="url(#pc69f677c3e)" d="M 435.447935 381.1375 
L 446.649572 381.1375 
L 446.649572 328.933459 
L 435.447935 328.933459 
z
" style="fill:#1f77b4;opacity:0.4;"/>
   </g>
   <g id="patch_12">
    <path clip-path="url(#pc69f677c3e)" d="M 446.649572 381.1375 
L 457.851209 381.1375 
L 457.851209 302.831438 
L 446.649572 302.831438 
z
" style="fill:#1f77b4;opacity:0.4;"/>
   </g>
   <g id="patch_13">
    <path clip-path="url(#pc69f677c3e)" d="M 457.851209 381.1375 
L 469.052846 381.1375 
L 469.052846 355.035479 
L 457.851209 355.035479 
z
" style="fill:#1f77b4;opacity:0.4;"/>
   </g>
   <g id="patch_14">
    <path clip-path="url(#pc69f677c3e)" d="M 469.052846 381.1375 
L 480.254483 381.1375 
L 480.254483 355.035479 
L 469.052846 355.035479 
z
" style="fill:#1f77b4;opacity:0.4;"/>
   </g>
   <g id="patch_15">
    <path clip-path="url(#pc69f677c3e)" d="M 480.254483 381.1375 
L 491.45612 381.1375 
L 491.45612 381.1375 
L 480.254483 381.1375 
z
" style="fill:#1f77b4;opacity:0.4;"/>
   </g>
   <g id="patch_16">
    <path clip-path="url(#pc69f677c3e)" d="M 491.45612 381.1375 
L 502.657756 381.1375 
L 502.657756 328.933459 
L 491.45612 328.933459 
z
" style="fill:#1f77b4;opacity:0.4;"/>
   </g>
   <g id="patch_17">
    <path clip-path="url(#pc69f677c3e)" d="M 396.536986 381.1375 
L 401.843025 381.1375 
L 401.843025 239.440816 
L 396.536986 239.440816 
z
" style="fill:#ff7f0e;opacity:0.4;"/>
   </g>
   <g id="patch_18">
    <path clip-path="url(#pc69f677c3e)" d="M 401.843025 381.1375 
L 407.149063 381.1375 
L 407.149063 333.905272 
L 401.843025 333.905272 
z
" style="fill:#ff7f0e;opacity:0.4;"/>
   </g>
   <g id="patch_19">
    <path clip-path="url(#pc69f677c3e)" d="M 407.149063 381.1375 
L 412.455102 381.1375 
L 412.455102 50.511905 
L 407.149063 50.511905 
z
" style="fill:#ff7f0e;opacity:0.4;"/>
   </g>
   <g id="patch_20">
    <path clip-path="url(#pc69f677c3e)" d="M 412.455102 381.1375 
L 417.76114 381.1375 
L 417.76114 286.673044 
L 412.455102 286.673044 
z
" style="fill:#ff7f0e;opacity:0.4;"/>
   </g>
   <g id="patch_21">
    <path clip-path="url(#pc69f677c3e)" d="M 417.76114 381.1375 
L 423.067179 381.1375 
L 423.067179 333.905272 
L 417.76114 333.905272 
z
" style="fill:#ff7f0e;opacity:0.4;"/>
   </g>
   <g id="patch_22">
    <path clip-path="url(#pc69f677c3e)" d="M 423.067179 381.1375 
L 428.373217 381.1375 
L 428.373217 239.440816 
L 423.067179 239.440816 
z
" style="fill:#ff7f0e;opacity:0.4;"/>
   </g>
   <g id="patch_23">
    <path clip-path="url(#pc69f677c3e)" d="M 428.373217 381.1375 
L 433.679256 381.1375 
L 433.679256 333.905272 
L 428.373217 333.905272 
z
" style="fill:#ff7f0e;opacity:0.4;"/>
   </g>
   <g id="patch_24">
    <path clip-path="url(#pc69f677c3e)" d="M 433.679256 381.1375 
L 438.985294 381.1375 
L 438.985294 333.905272 
L 433.679256 333.905272 
z
" style="fill:#ff7f0e;opacity:0.4;"/>
   </g>
   <g id="patch_25">
    <path clip-path="url(#pc69f677c3e)" d="M 438.985294 381.1375 
L 444.291333 381.1375 
L 444.291333 381.1375 
L 438.985294 381.1375 
z
" style="fill:#ff7f0e;opacity:0.4;"/>
   </g>
   <g id="patch_26">
    <path clip-path="url(#pc69f677c3e)" d="M 444.291333 381.1375 
L 449.597371 381.1375 
L 449.597371 286.673044 
L 444.291333 286.673044 
z
" style="fill:#ff7f0e;opacity:0.4;"/>
   </g>
   <g id="matplotlib.axis_3">
    <g id="xtick_3">
     <g id="line2d_24">
      <g>
       <use style="stroke:#000000;stroke-width:0.8;" x="343.476601" xlink:href="#m827b52667f" y="391.1375"/>
      </g>
     </g>
     <g id="text_14">
      <text style="font-family:Roboto;font-size:10px;font-stretch:normal;font-style:normal;font-weight:normal;text-anchor:middle;" transform="rotate(-0, 343.476601, 405.6375)" x="343.476601" y="405.6375">−20</text>
     </g>
    </g>
    <g id="xtick_4">
     <g id="line2d_25">
      <g>
       <use style="stroke:#000000;stroke-width:0.8;" x="396.536986" xlink:href="#m827b52667f" y="391.1375"/>
      </g>
     </g>
     <g id="text_15">
      <text style="font-family:Roboto;font-size:10px;font-stretch:normal;font-style:normal;font-weight:normal;text-anchor:middle;" transform="rotate(-0, 396.536986, 405.6375)" x="396.536986" y="405.6375">0</text>
     </g>
    </g>
    <g id="xtick_5">
     <g id="line2d_26">
      <g>
       <use style="stroke:#000000;stroke-width:0.8;" x="449.597371" xlink:href="#m827b52667f" y="391.1375"/>
      </g>
     </g>
     <g id="text_16">
      <text style="font-family:Roboto;font-size:10px;font-stretch:normal;font-style:normal;font-weight:normal;text-anchor:middle;" transform="rotate(-0, 449.597371, 405.6375)" x="449.597371" y="405.6375">20</text>
     </g>
    </g>
    <g id="xtick_6">
     <g id="line2d_27">
      <g>
       <use style="stroke:#000000;stroke-width:0.8;" x="502.657756" xlink:href="#m827b52667f" y="391.1375"/>
      </g>
     </g>
     <g id="text_17">
      <text style="font-family:Roboto;font-size:10px;font-stretch:normal;font-style:normal;font-weight:normal;text-anchor:middle;" transform="rotate(-0, 502.657756, 405.6375)" x="502.657756" y="405.6375">40</text>
     </g>
    </g>
    <g id="xtick_7">
     <g id="line2d_28">
      <g>
       <use style="stroke:#000000;stroke-width:0.8;" x="555.718142" xlink:href="#m827b52667f" y="391.1375"/>
      </g>
     </g>
     <g id="text_18">
      <text style="font-family:Roboto;font-size:10px;font-stretch:normal;font-style:normal;font-weight:normal;text-anchor:middle;" transform="rotate(-0, 555.718142, 405.6375)" x="555.718142" y="405.6375">60</text>
     </g>
    </g>
    <g id="text_19">
     <text style="font-family:Roboto;font-size:10px;font-stretch:normal;font-style:normal;font-weight:normal;text-anchor:middle;" transform="rotate(-0, 452.250391, 419.16875)" x="452.250391" y="419.16875">Value</text>
    </g>
   </g>
   <g id="matplotlib.axis_4">
    <g id="ytick_10">
     <g id="line2d_29">
      <g>
       <use style="stroke:#000000;stroke-width:0.8;" x="329.300781" xlink:href="#meffec59a5a" y="381.1375"/>
      </g>
     </g>
     <g id="text_20">
      <text style="font-family:Roboto;font-size:10px;font-stretch:normal;font-style:normal;font-weight:normal;text-anchor:end;" transform="rotate(-0, 322.300781, 384.8875)" x="322.300781" y="384.8875">0.00</text>
     </g>
    </g>
    <g id="ytick_11">
     <g id="line2d_30">
      <g>
       <use style="stroke:#000000;stroke-width:0.8;" x="329.300781" xlink:href="#meffec59a5a" y="341.462429"/>
      </g>
     </g>
     <g id="text_21">
      <text style="font-family:Roboto;font-size:10px;font-stretch:normal;font-style:normal;font-weight:normal;text-anchor:end;" transform="rotate(-0, 322.300781, 345.212429)" x="322.300781" y="345.212429">0.02</text>
     </g>
    </g>
    <g id="ytick_12">
     <g id="line2d_31">
      <g>
       <use style="stroke:#000000;stroke-width:0.8;" x="329.300781" xlink:href="#meffec59a5a" y="301.787357"/>
      </g>
     </g>
     <g id="text_22">
      <text style="font-family:Roboto;font-size:10px;font-stretch:normal;font-style:normal;font-weight:normal;text-anchor:end;" transform="rotate(-0, 322.300781, 305.537357)" x="322.300781" y="305.537357">0.04</text>
     </g>
    </g>
    <g id="ytick_13">
     <g id="line2d_32">
      <g>
       <use style="stroke:#000000;stroke-width:0.8;" x="329.300781" xlink:href="#meffec59a5a" y="262.112286"/>
      </g>
     </g>
     <g id="text_23">
      <text style="font-family:Roboto;font-size:10px;font-stretch:normal;font-style:normal;font-weight:normal;text-anchor:end;" transform="rotate(-0, 322.300781, 265.862286)" x="322.300781" y="265.862286">0.06</text>
     </g>
    </g>
    <g id="ytick_14">
     <g id="line2d_33">
      <g>
       <use style="stroke:#000000;stroke-width:0.8;" x="329.300781" xlink:href="#meffec59a5a" y="222.437214"/>
      </g>
     </g>
     <g id="text_24">
      <text style="font-family:Roboto;font-size:10px;font-stretch:normal;font-style:normal;font-weight:normal;text-anchor:end;" transform="rotate(-0, 322.300781, 226.187214)" x="322.300781" y="226.187214">0.08</text>
     </g>
    </g>
    <g id="ytick_15">
     <g id="line2d_34">
      <g>
       <use style="stroke:#000000;stroke-width:0.8;" x="329.300781" xlink:href="#meffec59a5a" y="182.762143"/>
      </g>
     </g>
     <g id="text_25">
      <text style="font-family:Roboto;font-size:10px;font-stretch:normal;font-style:normal;font-weight:normal;text-anchor:end;" transform="rotate(-0, 322.300781, 186.512143)" x="322.300781" y="186.512143">0.10</text>
     </g>
    </g>
    <g id="ytick_16">
     <g id="line2d_35">
      <g>
       <use style="stroke:#000000;stroke-width:0.8;" x="329.300781" xlink:href="#meffec59a5a" y="143.087071"/>
      </g>
     </g>
     <g id="text_26">
      <text style="font-family:Roboto;font-size:10px;font-stretch:normal;font-style:normal;font-weight:normal;text-anchor:end;" transform="rotate(-0, 322.300781, 146.837071)" x="322.300781" y="146.837071">0.12</text>
     </g>
    </g>
    <g id="ytick_17">
     <g id="line2d_36">
      <g>
       <use style="stroke:#000000;stroke-width:0.8;" x="329.300781" xlink:href="#meffec59a5a" y="103.412"/>
      </g>
     </g>
     <g id="text_27">
      <text style="font-family:Roboto;font-size:10px;font-stretch:normal;font-style:normal;font-weight:normal;text-anchor:end;" transform="rotate(-0, 322.300781, 107.162)" x="322.300781" y="107.162">0.14</text>
     </g>
    </g>
    <g id="ytick_18">
     <g id="line2d_37">
      <g>
       <use style="stroke:#000000;stroke-width:0.8;" x="329.300781" xlink:href="#meffec59a5a" y="63.736929"/>
      </g>
     </g>
     <g id="text_28">
      <text style="font-family:Roboto;font-size:10px;font-stretch:normal;font-style:normal;font-weight:normal;text-anchor:end;" transform="rotate(-0, 322.300781, 67.486929)" x="322.300781" y="67.486929">0.16</text>
     </g>
    </g>
    <g id="text_29">
     <text style="font-family:Roboto;font-size:10px;font-stretch:normal;font-style:normal;font-weight:normal;text-anchor:middle;" transform="rotate(-90, 296.667969, 207.559063)" x="296.667969" y="207.559063">Density</text>
    </g>
   </g>
   <g id="line2d_38">
    <path clip-path="url(#pc69f677c3e)" d="M 349.568928 380.896421 
L 354.7288 380.548877 
L 358.856698 380.005786 
L 361.952622 379.353261 
L 365.048545 378.407151 
L 367.112494 377.57099 
L 369.176443 376.539368 
L 371.240392 375.286032 
L 373.304341 373.786784 
L 375.36829 372.021262 
L 377.432239 369.974862 
L 379.496188 367.640663 
L 381.560137 365.0212 
L 383.624086 362.129905 
L 386.72001 357.341862 
L 390.847908 350.342086 
L 398.071729 337.793703 
L 401.167653 332.927126 
L 403.231602 330.022597 
L 405.295551 327.451882 
L 407.3595 325.253388 
L 409.423449 323.450573 
L 411.487398 322.05133 
L 413.551347 321.048442 
L 415.615296 320.421051 
L 417.679245 320.136998 
L 419.743194 320.155816 
L 421.807143 320.432103 
L 423.871092 320.918984 
L 426.967015 321.946737 
L 430.062939 323.217495 
L 434.190837 325.135073 
L 439.350709 327.767741 
L 443.478607 330.085413 
L 447.606505 332.667979 
L 451.734403 335.56703 
L 455.862301 338.766653 
L 463.086123 344.757377 
L 468.245995 348.909978 
L 472.373893 351.90355 
L 475.469817 353.888341 
L 478.56574 355.637762 
L 481.661664 357.170979 
L 485.789562 358.955704 
L 500.237205 364.85182 
L 505.397078 367.385259 
L 519.844721 374.817473 
L 523.972619 376.547786 
L 527.068542 377.637648 
L 530.164466 378.540922 
L 533.260389 379.26418 
L 537.388287 379.977798 
L 541.516185 380.4555 
L 546.676058 380.811087 
L 553.899879 381.036219 
L 554.931854 381.052946 
L 554.931854 381.052946 
" style="fill:none;stroke:#1f77b4;stroke-linecap:square;stroke-width:1.5;"/>
   </g>
   <g id="line2d_39">
    <path clip-path="url(#pc69f677c3e)" d="M 373.177092 380.891081 
L 375.182724 380.597212 
L 376.686948 380.202538 
L 378.191171 379.573924 
L 379.193987 378.975469 
L 380.196803 378.191865 
L 381.199619 377.182412 
L 382.202435 375.902813 
L 383.20525 374.306372 
L 384.208066 372.345573 
L 385.210882 369.973945 
L 386.213698 367.148107 
L 387.216514 363.829843 
L 388.720737 357.863459 
L 390.224961 350.654626 
L 391.729185 342.190154 
L 393.233409 332.515714 
L 395.23904 317.930637 
L 397.74608 297.655229 
L 402.258751 260.216946 
L 403.762975 249.309936 
L 405.267198 240.145019 
L 406.270014 235.270567 
L 407.27283 231.538599 
L 408.275646 229.042066 
L 408.777054 228.274385 
L 409.278461 227.830387 
L 409.779869 227.708669 
L 410.281277 227.904729 
L 410.782685 228.411032 
L 411.284093 229.217147 
L 411.785501 230.309946 
L 412.788317 233.29121 
L 413.791133 237.206881 
L 415.295356 244.457312 
L 417.300988 255.76328 
L 423.317883 290.872991 
L 425.824922 303.776387 
L 427.830554 313.121602 
L 429.836186 321.476988 
L 431.340409 326.986093 
L 432.844633 331.760774 
L 434.348857 335.753316 
L 435.85308 338.964644 
L 437.357304 341.454809 
L 438.861528 343.34209 
L 440.365752 344.791876 
L 442.872791 346.765907 
L 444.878423 348.460198 
L 446.382646 350.040407 
L 447.88687 351.988125 
L 449.391094 354.326867 
L 451.396725 357.977094 
L 454.906581 365.096408 
L 457.41362 369.932212 
L 458.917844 372.467029 
L 460.422068 374.639549 
L 461.926291 376.424284 
L 463.430515 377.830707 
L 464.934739 378.894515 
L 466.438963 379.667263 
L 467.943186 380.206546 
L 469.948818 380.658086 
L 472.455857 380.946027 
L 472.957265 380.980015 
L 472.957265 380.980015 
" style="fill:none;stroke:#ff7f0e;stroke-linecap:square;stroke-width:1.5;"/>
   </g>
   <g id="patch_27">
    <path d="M 329.300781 381.1375 
L 329.300781 63.736929 
" style="fill:none;stroke:#000000;stroke-linecap:square;stroke-linejoin:miter;stroke-width:0.8;"/>
   </g>
   <g id="patch_28">
    <path d="M 343.476601 391.1375 
L 555.718142 391.1375 
" style="fill:none;stroke:#000000;stroke-linecap:square;stroke-linejoin:miter;stroke-width:0.8;"/>
   </g>
   <g id="legend_1">
    <g id="patch_29">
     <path d="M 503.71875 71.043125 
L 558.2 71.043125 
Q 560.2 71.043125 560.2 69.043125 
L 560.2 40.980625 
Q 560.2 38.980625 558.2 38.980625 
L 503.71875 38.980625 
Q 501.71875 38.980625 501.71875 40.980625 
L 501.71875 69.043125 
Q 501.71875 71.043125 503.71875 71.043125 
z
" style="fill:#ffffff;opacity:0.8;stroke:#cccccc;stroke-linejoin:miter;"/>
    </g>
    <g id="patch_30">
     <path d="M 505.71875 50.480625 
L 525.71875 50.480625 
L 525.71875 43.480625 
L 505.71875 43.480625 
z
" style="fill:#1f77b4;opacity:0.4;"/>
    </g>
    <g id="text_30">
     <text style="font-family:Roboto;font-size:10px;font-stretch:normal;font-style:normal;font-weight:normal;text-anchor:start;" transform="rotate(-0, 533.71875, 50.480625)" x="533.71875" y="50.480625">2017</text>
    </g>
    <g id="patch_31">
     <path d="M 505.71875 65.011875 
L 525.71875 65.011875 
L 525.71875 58.011875 
L 505.71875 58.011875 
z
" style="fill:#ff7f0e;opacity:0.4;"/>
    </g>
    <g id="text_31">
     <text style="font-family:Roboto;font-size:10px;font-stretch:normal;font-style:normal;font-weight:normal;text-anchor:start;" transform="rotate(-0, 533.71875, 65.011875)" x="533.71875" y="65.011875">2018</text>
    </g>
   </g>
  </g>
  <g id="text_32">
   <text style="font-family:Roboto;font-size:12px;font-stretch:normal;font-style:normal;font-weight:normal;text-anchor:middle;" transform="rotate(-0, 288, 18.26625)" x="288" y="18.26625">How many years of software development experience for South Africa (without 95 percentile)</text>
  </g>
 </g>
 <defs>
  <clipPath id="p818b1a1275">
   <rect height="347.156875" width="225.899219" x="52.571875" y="33.980625"/>
  </clipPath>
  <clipPath id="pc69f677c3e">
   <rect height="347.156875" width="225.899219" x="339.300781" y="33.980625"/>
  </clipPath>
 </defs>
</svg>
