<?xml version="1.0" encoding="utf-8" standalone="no"?>
<!DOCTYPE svg PUBLIC "-//W3C//DTD SVG 1.1//EN"
  "http://www.w3.org/Graphics/SVG/1.1/DTD/svg11.dtd">
<!-- Created with matplotlib (https://matplotlib.org/) -->
<svg height="345.6pt" version="1.1" viewBox="0 0 460.8 345.6" width="460.8pt" xmlns="http://www.w3.org/2000/svg" xmlns:xlink="http://www.w3.org/1999/xlink">
 <metadata>
  <rdf:RDF xmlns:cc="http://creativecommons.org/ns#" xmlns:dc="http://purl.org/dc/elements/1.1/" xmlns:rdf="http://www.w3.org/1999/02/22-rdf-syntax-ns#">
   <cc:Work>
    <dc:type rdf:resource="http://purl.org/dc/dcmitype/StillImage"/>
    <dc:date>2021-03-09T22:36:35.910215</dc:date>
    <dc:format>image/svg+xml</dc:format>
    <dc:creator>
     <cc:Agent>
      <dc:title>Matplotlib v3.3.4, https://matplotlib.org/</dc:title>
     </cc:Agent>
    </dc:creator>
   </cc:Work>
  </rdf:RDF>
 </metadata>
 <defs>
  <style type="text/css">*{stroke-linecap:butt;stroke-linejoin:round;}</style>
 </defs>
 <g id="figure_1">
  <g id="patch_1">
   <path d="M 0 345.6 
L 460.8 345.6 
L 460.8 0 
L 0 0 
z
" style="fill:#ffffff;"/>
  </g>
  <g id="axes_1">
   <g id="patch_2">
    <path d="M 92.16 302.4 
L 414.72 302.4 
L 414.72 41.472 
L 92.16 41.472 
z
" style="fill:#ffffff;"/>
   </g>
   <g id="patch_3">
    <path clip-path="url(#p7c7a66dc18)" d="M 125.766864 289.3536 
L 260.853279 289.3536 
L 260.853279 280.656 
L 125.766864 280.656 
z
" style="fill:#1f77b4;"/>
   </g>
   <g id="patch_4">
    <path clip-path="url(#p7c7a66dc18)" d="M 125.766864 237.168 
L 393.468601 237.168 
L 393.468601 228.4704 
L 125.766864 228.4704 
z
" style="fill:#1f77b4;"/>
   </g>
   <g id="patch_5">
    <path clip-path="url(#p7c7a66dc18)" d="M 125.766864 184.9824 
L 189.191583 184.9824 
L 189.191583 176.2848 
L 125.766864 176.2848 
z
" style="fill:#1f77b4;"/>
   </g>
   <g id="patch_6">
    <path clip-path="url(#p7c7a66dc18)" d="M 125.766864 132.7968 
L 143.888212 132.7968 
L 143.888212 124.0992 
L 125.766864 124.0992 
z
" style="fill:#1f77b4;"/>
   </g>
   <g id="patch_7">
    <path clip-path="url(#p7c7a66dc18)" d="M 125.766864 80.6112 
L 334.16237 80.6112 
L 334.16237 71.9136 
L 125.766864 71.9136 
z
" style="fill:#1f77b4;"/>
   </g>
   <g id="patch_8">
    <path clip-path="url(#p7c7a66dc18)" d="M 125.766864 280.656 
L 246.850419 280.656 
L 246.850419 271.9584 
L 125.766864 271.9584 
z
" style="fill:#ff7f0e;"/>
   </g>
   <g id="patch_9">
    <path clip-path="url(#p7c7a66dc18)" d="M 125.766864 228.4704 
L 400.058182 228.4704 
L 400.058182 219.7728 
L 125.766864 219.7728 
z
" style="fill:#ff7f0e;"/>
   </g>
   <g id="patch_10">
    <path clip-path="url(#p7c7a66dc18)" d="M 125.766864 176.2848 
L 170.246537 176.2848 
L 170.246537 167.5872 
L 125.766864 167.5872 
z
" style="fill:#ff7f0e;"/>
   </g>
   <g id="patch_11">
    <path clip-path="url(#p7c7a66dc18)" d="M 125.766864 124.0992 
L 144.71191 124.0992 
L 144.71191 115.4016 
L 125.766864 115.4016 
z
" style="fill:#ff7f0e;"/>
   </g>
   <g id="patch_12">
    <path clip-path="url(#p7c7a66dc18)" d="M 125.766864 71.9136 
L 320.983207 71.9136 
L 320.983207 63.216 
L 125.766864 63.216 
z
" style="fill:#ff7f0e;"/>
   </g>
   <g id="patch_13">
    <path clip-path="url(#p7c7a66dc18)" d="M 125.766864 271.9584 
L 111.764004 271.9584 
L 111.764004 263.2608 
L 125.766864 263.2608 
z
" style="fill:#2ca02c;"/>
   </g>
   <g id="patch_14">
    <path clip-path="url(#p7c7a66dc18)" d="M 125.766864 219.7728 
L 132.356445 219.7728 
L 132.356445 211.0752 
L 125.766864 211.0752 
z
" style="fill:#2ca02c;"/>
   </g>
   <g id="patch_15">
    <path clip-path="url(#p7c7a66dc18)" d="M 125.766864 167.5872 
L 106.821818 167.5872 
L 106.821818 158.8896 
L 125.766864 158.8896 
z
" style="fill:#2ca02c;"/>
   </g>
   <g id="patch_16">
    <path clip-path="url(#p7c7a66dc18)" d="M 125.766864 115.4016 
L 126.590562 115.4016 
L 126.590562 106.704 
L 125.766864 106.704 
z
" style="fill:#2ca02c;"/>
   </g>
   <g id="patch_17">
    <path clip-path="url(#p7c7a66dc18)" d="M 125.766864 63.216 
L 112.587702 63.216 
L 112.587702 54.5184 
L 125.766864 54.5184 
z
" style="fill:#2ca02c;"/>
   </g>
   <g id="matplotlib.axis_1">
    <g id="xtick_1">
     <g id="line2d_1">
      <defs>
       <path d="M 0 0 
L 0 3.5 
" id="ma594c4b359" style="stroke:#000000;stroke-width:0.8;"/>
      </defs>
      <g>
       <use style="stroke:#000000;stroke-width:0.8;" x="125.766864" xlink:href="#ma594c4b359" y="302.4"/>
      </g>
     </g>
     <g id="text_1">
      <text style="font-family:Roboto;font-size:10px;font-stretch:normal;font-style:normal;font-weight:normal;text-anchor:middle;" transform="rotate(-0, 125.766864, 316.9)" x="125.766864" y="316.9">0</text>
     </g>
    </g>
    <g id="xtick_2">
     <g id="line2d_2">
      <g>
       <use style="stroke:#000000;stroke-width:0.8;" x="166.951747" xlink:href="#ma594c4b359" y="302.4"/>
      </g>
     </g>
     <g id="text_2">
      <text style="font-family:Roboto;font-size:10px;font-stretch:normal;font-style:normal;font-weight:normal;text-anchor:middle;" transform="rotate(-0, 166.951747, 316.9)" x="166.951747" y="316.9">50</text>
     </g>
    </g>
    <g id="xtick_3">
     <g id="line2d_3">
      <g>
       <use style="stroke:#000000;stroke-width:0.8;" x="208.136629" xlink:href="#ma594c4b359" y="302.4"/>
      </g>
     </g>
     <g id="text_3">
      <text style="font-family:Roboto;font-size:10px;font-stretch:normal;font-style:normal;font-weight:normal;text-anchor:middle;" transform="rotate(-0, 208.136629, 316.9)" x="208.136629" y="316.9">100</text>
     </g>
    </g>
    <g id="xtick_4">
     <g id="line2d_4">
      <g>
       <use style="stroke:#000000;stroke-width:0.8;" x="249.321512" xlink:href="#ma594c4b359" y="302.4"/>
      </g>
     </g>
     <g id="text_4">
      <text style="font-family:Roboto;font-size:10px;font-stretch:normal;font-style:normal;font-weight:normal;text-anchor:middle;" transform="rotate(-0, 249.321512, 316.9)" x="249.321512" y="316.9">150</text>
     </g>
    </g>
    <g id="xtick_5">
     <g id="line2d_5">
      <g>
       <use style="stroke:#000000;stroke-width:0.8;" x="290.506394" xlink:href="#ma594c4b359" y="302.4"/>
      </g>
     </g>
     <g id="text_5">
      <text style="font-family:Roboto;font-size:10px;font-stretch:normal;font-style:normal;font-weight:normal;text-anchor:middle;" transform="rotate(-0, 290.506394, 316.9)" x="290.506394" y="316.9">200</text>
     </g>
    </g>
    <g id="xtick_6">
     <g id="line2d_6">
      <g>
       <use style="stroke:#000000;stroke-width:0.8;" x="331.691277" xlink:href="#ma594c4b359" y="302.4"/>
      </g>
     </g>
     <g id="text_6">
      <text style="font-family:Roboto;font-size:10px;font-stretch:normal;font-style:normal;font-weight:normal;text-anchor:middle;" transform="rotate(-0, 331.691277, 316.9)" x="331.691277" y="316.9">250</text>
     </g>
    </g>
    <g id="xtick_7">
     <g id="line2d_7">
      <g>
       <use style="stroke:#000000;stroke-width:0.8;" x="372.876159" xlink:href="#ma594c4b359" y="302.4"/>
      </g>
     </g>
     <g id="text_7">
      <text style="font-family:Roboto;font-size:10px;font-stretch:normal;font-style:normal;font-weight:normal;text-anchor:middle;" transform="rotate(-0, 372.876159, 316.9)" x="372.876159" y="316.9">300</text>
     </g>
    </g>
    <g id="xtick_8">
     <g id="line2d_8">
      <g>
       <use style="stroke:#000000;stroke-width:0.8;" x="414.061042" xlink:href="#ma594c4b359" y="302.4"/>
      </g>
     </g>
     <g id="text_8">
      <text style="font-family:Roboto;font-size:10px;font-stretch:normal;font-style:normal;font-weight:normal;text-anchor:middle;" transform="rotate(-0, 414.061042, 316.9)" x="414.061042" y="316.9">350</text>
     </g>
    </g>
   </g>
   <g id="matplotlib.axis_2">
    <g id="ytick_1">
     <g id="line2d_9">
      <defs>
       <path d="M 0 0 
L -3.5 0 
" id="m557a5f9c67" style="stroke:#000000;stroke-width:0.8;"/>
      </defs>
      <g>
       <use style="stroke:#000000;stroke-width:0.8;" x="92.16" xlink:href="#m557a5f9c67" y="276.3072"/>
      </g>
     </g>
     <g id="text_9">
      <text style="font-family:Roboto;font-size:10px;font-stretch:normal;font-style:normal;font-weight:normal;text-anchor:end;" transform="rotate(-0, 85.16, 280.0572)" x="85.16" y="280.0572">United States</text>
     </g>
    </g>
    <g id="ytick_2">
     <g id="line2d_10">
      <g>
       <use style="stroke:#000000;stroke-width:0.8;" x="92.16" xlink:href="#m557a5f9c67" y="224.1216"/>
      </g>
     </g>
     <g id="text_10">
      <text style="font-family:Roboto;font-size:10px;font-stretch:normal;font-style:normal;font-weight:normal;text-anchor:end;" transform="rotate(-0, 85.16, 227.820037)" x="85.16" y="227.820037">Germany</text>
     </g>
    </g>
    <g id="ytick_3">
     <g id="line2d_11">
      <g>
       <use style="stroke:#000000;stroke-width:0.8;" x="92.16" xlink:href="#m557a5f9c67" y="171.936"/>
      </g>
     </g>
     <g id="text_11">
      <text style="font-family:Roboto;font-size:10px;font-stretch:normal;font-style:normal;font-weight:normal;text-anchor:end;" transform="rotate(-0, 85.16, 175.686)" x="85.16" y="175.686">Netherlands</text>
     </g>
    </g>
    <g id="ytick_4">
     <g id="line2d_12">
      <g>
       <use style="stroke:#000000;stroke-width:0.8;" x="92.16" xlink:href="#m557a5f9c67" y="119.7504"/>
      </g>
     </g>
     <g id="text_12">
      <text style="font-family:Roboto;font-size:10px;font-stretch:normal;font-style:normal;font-weight:normal;text-anchor:end;" transform="rotate(-0, 85.16, 123.5004)" x="85.16" y="123.5004">South Africa</text>
     </g>
    </g>
    <g id="ytick_5">
     <g id="line2d_13">
      <g>
       <use style="stroke:#000000;stroke-width:0.8;" x="92.16" xlink:href="#m557a5f9c67" y="67.5648"/>
      </g>
     </g>
     <g id="text_13">
      <text style="font-family:Roboto;font-size:10px;font-stretch:normal;font-style:normal;font-weight:normal;text-anchor:end;" transform="rotate(-0, 85.16, 71.3148)" x="85.16" y="71.3148">United Kingdom</text>
     </g>
    </g>
   </g>
   <g id="patch_18">
    <path d="M 92.16 302.4 
L 414.72 302.4 
" style="fill:none;stroke:#000000;stroke-linecap:square;stroke-linejoin:miter;stroke-width:0.8;"/>
   </g>
   <g id="legend_1">
    <g id="patch_19">
     <path d="M 89.297812 344.36704 
L 417.582188 344.36704 
Q 419.582188 344.36704 419.582188 342.36704 
L 419.582188 328.83579 
Q 419.582188 326.83579 417.582188 326.83579 
L 89.297812 326.83579 
Q 87.297812 326.83579 87.297812 328.83579 
L 87.297812 342.36704 
Q 87.297812 344.36704 89.297812 344.36704 
z
" style="fill:#ffffff;opacity:0.8;stroke:#cccccc;stroke-linejoin:miter;"/>
    </g>
    <g id="patch_20">
     <path d="M 91.297812 338.33579 
L 111.297812 338.33579 
L 111.297812 331.33579 
L 91.297812 331.33579 
z
" style="fill:#1f77b4;"/>
    </g>
    <g id="text_14">
     <text style="font-family:Roboto;font-size:10px;font-stretch:normal;font-style:normal;font-weight:normal;text-anchor:start;" transform="rotate(-0, 119.297812, 338.33579)" x="119.297812" y="338.33579">2017</text>
    </g>
    <g id="patch_21">
     <path d="M 161.779063 338.33579 
L 181.779063 338.33579 
L 181.779063 331.33579 
L 161.779063 331.33579 
z
" style="fill:#ff7f0e;"/>
    </g>
    <g id="text_15">
     <text style="font-family:Roboto;font-size:10px;font-stretch:normal;font-style:normal;font-weight:normal;text-anchor:start;" transform="rotate(-0, 189.779063, 338.33579)" x="189.779063" y="338.33579">2018</text>
    </g>
    <g id="patch_22">
     <path d="M 232.260312 338.33579 
L 252.260312 338.33579 
L 252.260312 331.33579 
L 232.260312 331.33579 
z
" style="fill:#2ca02c;"/>
    </g>
    <g id="text_16">
     <text style="font-family:Roboto;font-size:10px;font-stretch:normal;font-style:normal;font-weight:normal;text-anchor:start;" transform="rotate(-0, 260.260312, 338.33579)" x="260.260312" y="338.33579">Difference between 2017 and 2018</text>
    </g>
   </g>
  </g>
 </g>
 <defs>
  <clipPath id="p7c7a66dc18">
   <rect height="260.928" width="322.56" x="92.16" y="41.472"/>
  </clipPath>
 </defs>
</svg>
