<?xml version="1.0" encoding="utf-8" standalone="no"?>
<!DOCTYPE svg PUBLIC "-//W3C//DTD SVG 1.1//EN"
  "http://www.w3.org/Graphics/SVG/1.1/DTD/svg11.dtd">
<!-- Created with matplotlib (https://matplotlib.org/) -->
<svg height="360pt" version="1.1" viewBox="0 0 504 360" width="504pt" xmlns="http://www.w3.org/2000/svg" xmlns:xlink="http://www.w3.org/1999/xlink">
 <metadata>
  <rdf:RDF xmlns:cc="http://creativecommons.org/ns#" xmlns:dc="http://purl.org/dc/elements/1.1/" xmlns:rdf="http://www.w3.org/1999/02/22-rdf-syntax-ns#">
   <cc:Work>
    <dc:type rdf:resource="http://purl.org/dc/dcmitype/StillImage"/>
    <dc:date>2021-03-09T23:29:17.602421</dc:date>
    <dc:format>image/svg+xml</dc:format>
    <dc:creator>
     <cc:Agent>
      <dc:title>Matplotlib v3.3.4, https://matplotlib.org/</dc:title>
     </cc:Agent>
    </dc:creator>
   </cc:Work>
  </rdf:RDF>
 </metadata>
 <defs>
  <style type="text/css">*{stroke-linecap:butt;stroke-linejoin:round;}</style>
 </defs>
 <g id="figure_1">
  <g id="patch_1">
   <path d="M 0 360 
L 504 360 
L 504 0 
L 0 0 
z
" style="fill:#ffffff;"/>
  </g>
  <g id="axes_1">
   <g id="patch_2">
    <path d="M 61.625 226.498125 
L 479.424219 226.498125 
L 479.424219 25.8 
L 61.625 25.8 
z
" style="fill:#ffffff;"/>
   </g>
   <g id="patch_3">
    <path clip-path="url(#p37d8ac7194)" d="M 61.625 216.463219 
L 163.292106 216.463219 
L 163.292106 196.393406 
L 61.625 196.393406 
z
" style="fill:#1f77b4;"/>
   </g>
   <g id="patch_4">
    <path clip-path="url(#p37d8ac7194)" d="M 61.625 176.323594 
L 130.289853 176.323594 
L 130.289853 156.253781 
L 61.625 156.253781 
z
" style="fill:#1f77b4;"/>
   </g>
   <g id="patch_5">
    <path clip-path="url(#p37d8ac7194)" d="M 61.625 136.183969 
L 121.486666 136.183969 
L 121.486666 116.114156 
L 61.625 116.114156 
z
" style="fill:#1f77b4;"/>
   </g>
   <g id="patch_6">
    <path clip-path="url(#p37d8ac7194)" d="M 61.625 96.044344 
L 102.119657 96.044344 
L 102.119657 75.974531 
L 61.625 75.974531 
z
" style="fill:#1f77b4;"/>
   </g>
   <g id="patch_7">
    <path clip-path="url(#p37d8ac7194)" d="M 61.625 55.904719 
L 102.119657 55.904719 
L 102.119657 35.834906 
L 61.625 35.834906 
z
" style="fill:#1f77b4;"/>
   </g>
   <g id="patch_8">
    <path clip-path="url(#p37d8ac7194)" d="M 163.292106 216.463219 
L 252.689044 216.463219 
L 252.689044 196.393406 
L 163.292106 196.393406 
z
" style="fill:#ff7f0e;"/>
   </g>
   <g id="patch_9">
    <path clip-path="url(#p37d8ac7194)" d="M 130.289853 176.323594 
L 204.236617 176.323594 
L 204.236617 156.253781 
L 130.289853 156.253781 
z
" style="fill:#ff7f0e;"/>
   </g>
   <g id="patch_10">
    <path clip-path="url(#p37d8ac7194)" d="M 121.486666 136.183969 
L 161.981323 136.183969 
L 161.981323 116.114156 
L 121.486666 116.114156 
z
" style="fill:#ff7f0e;"/>
   </g>
   <g id="patch_11">
    <path clip-path="url(#p37d8ac7194)" d="M 102.119657 96.044344 
L 147.896225 96.044344 
L 147.896225 75.974531 
L 102.119657 75.974531 
z
" style="fill:#ff7f0e;"/>
   </g>
   <g id="patch_12">
    <path clip-path="url(#p37d8ac7194)" d="M 102.119657 55.904719 
L 125.007941 55.904719 
L 125.007941 35.834906 
L 102.119657 35.834906 
z
" style="fill:#ff7f0e;"/>
   </g>
   <g id="patch_13">
    <path clip-path="url(#p37d8ac7194)" d="M 252.689044 216.463219 
L 317.545646 216.463219 
L 317.545646 196.393406 
L 252.689044 196.393406 
z
" style="fill:#2ca02c;"/>
   </g>
   <g id="patch_14">
    <path clip-path="url(#p37d8ac7194)" d="M 204.236617 176.323594 
L 272.90147 176.323594 
L 272.90147 156.253781 
L 204.236617 156.253781 
z
" style="fill:#2ca02c;"/>
   </g>
   <g id="patch_15">
    <path clip-path="url(#p37d8ac7194)" d="M 161.981323 136.183969 
L 223.603627 136.183969 
L 223.603627 116.114156 
L 161.981323 116.114156 
z
" style="fill:#2ca02c;"/>
   </g>
   <g id="patch_16">
    <path clip-path="url(#p37d8ac7194)" d="M 147.896225 96.044344 
L 186.630245 96.044344 
L 186.630245 75.974531 
L 147.896225 75.974531 
z
" style="fill:#2ca02c;"/>
   </g>
   <g id="patch_17">
    <path clip-path="url(#p37d8ac7194)" d="M 125.007941 55.904719 
L 156.699411 55.904719 
L 156.699411 35.834906 
L 125.007941 35.834906 
z
" style="fill:#2ca02c;"/>
   </g>
   <g id="patch_18">
    <path clip-path="url(#p37d8ac7194)" d="M 317.545646 216.463219 
L 352.603269 216.463219 
L 352.603269 196.393406 
L 317.545646 196.393406 
z
" style="fill:#d62728;"/>
   </g>
   <g id="patch_19">
    <path clip-path="url(#p37d8ac7194)" d="M 272.90147 176.323594 
L 304.59294 176.323594 
L 304.59294 156.253781 
L 272.90147 156.253781 
z
" style="fill:#d62728;"/>
   </g>
   <g id="patch_20">
    <path clip-path="url(#p37d8ac7194)" d="M 223.603627 136.183969 
L 269.380195 136.183969 
L 269.380195 116.114156 
L 223.603627 116.114156 
z
" style="fill:#d62728;"/>
   </g>
   <g id="patch_21">
    <path clip-path="url(#p37d8ac7194)" d="M 186.630245 96.044344 
L 237.688725 96.044344 
L 237.688725 75.974531 
L 186.630245 75.974531 
z
" style="fill:#d62728;"/>
   </g>
   <g id="patch_22">
    <path clip-path="url(#p37d8ac7194)" d="M 156.699411 55.904719 
L 220.082352 55.904719 
L 220.082352 35.834906 
L 156.699411 35.834906 
z
" style="fill:#d62728;"/>
   </g>
   <g id="patch_23">
    <path clip-path="url(#p37d8ac7194)" d="M 352.603269 216.463219 
L 387.660891 216.463219 
L 387.660891 196.393406 
L 352.603269 196.393406 
z
" style="fill:#9467bd;"/>
   </g>
   <g id="patch_24">
    <path clip-path="url(#p37d8ac7194)" d="M 304.59294 176.323594 
L 343.32696 176.323594 
L 343.32696 156.253781 
L 304.59294 156.253781 
z
" style="fill:#9467bd;"/>
   </g>
   <g id="patch_25">
    <path clip-path="url(#p37d8ac7194)" d="M 269.380195 136.183969 
L 304.59294 136.183969 
L 304.59294 116.114156 
L 269.380195 116.114156 
z
" style="fill:#9467bd;"/>
   </g>
   <g id="patch_26">
    <path clip-path="url(#p37d8ac7194)" d="M 237.688725 96.044344 
L 265.858921 96.044344 
L 265.858921 75.974531 
L 237.688725 75.974531 
z
" style="fill:#9467bd;"/>
   </g>
   <g id="patch_27">
    <path clip-path="url(#p37d8ac7194)" d="M 220.082352 55.904719 
L 257.055734 55.904719 
L 257.055734 35.834906 
L 220.082352 35.834906 
z
" style="fill:#9467bd;"/>
   </g>
   <g id="patch_28">
    <path clip-path="url(#p37d8ac7194)" d="M 387.660891 216.463219 
L 417.459871 216.463219 
L 417.459871 196.393406 
L 387.660891 196.393406 
z
" style="fill:#8c564b;"/>
   </g>
   <g id="patch_29">
    <path clip-path="url(#p37d8ac7194)" d="M 343.32696 176.323594 
L 385.582253 176.323594 
L 385.582253 156.253781 
L 343.32696 156.253781 
z
" style="fill:#8c564b;"/>
   </g>
   <g id="patch_30">
    <path clip-path="url(#p37d8ac7194)" d="M 304.59294 136.183969 
L 346.848234 136.183969 
L 346.848234 116.114156 
L 304.59294 116.114156 
z
" style="fill:#8c564b;"/>
   </g>
   <g id="patch_31">
    <path clip-path="url(#p37d8ac7194)" d="M 265.858921 96.044344 
L 322.199313 96.044344 
L 322.199313 75.974531 
L 265.858921 75.974531 
z
" style="fill:#8c564b;"/>
   </g>
   <g id="patch_32">
    <path clip-path="url(#p37d8ac7194)" d="M 257.055734 55.904719 
L 322.199313 55.904719 
L 322.199313 35.834906 
L 257.055734 35.834906 
z
" style="fill:#8c564b;"/>
   </g>
   <g id="patch_33">
    <path clip-path="url(#p37d8ac7194)" d="M 417.459871 216.463219 
L 438.494444 216.463219 
L 438.494444 196.393406 
L 417.459871 196.393406 
z
" style="fill:#e377c2;"/>
   </g>
   <g id="patch_34">
    <path clip-path="url(#p37d8ac7194)" d="M 385.582253 176.323594 
L 415.513087 176.323594 
L 415.513087 156.253781 
L 385.582253 156.253781 
z
" style="fill:#e377c2;"/>
   </g>
   <g id="patch_35">
    <path clip-path="url(#p37d8ac7194)" d="M 346.848234 136.183969 
L 385.582253 136.183969 
L 385.582253 116.114156 
L 346.848234 116.114156 
z
" style="fill:#e377c2;"/>
   </g>
   <g id="patch_36">
    <path clip-path="url(#p37d8ac7194)" d="M 322.199313 96.044344 
L 367.975881 96.044344 
L 367.975881 75.974531 
L 322.199313 75.974531 
z
" style="fill:#e377c2;"/>
   </g>
   <g id="patch_37">
    <path clip-path="url(#p37d8ac7194)" d="M 322.199313 55.904719 
L 383.821616 55.904719 
L 383.821616 35.834906 
L 322.199313 35.834906 
z
" style="fill:#e377c2;"/>
   </g>
   <g id="patch_38">
    <path clip-path="url(#p37d8ac7194)" d="M 438.494444 216.463219 
L 449.011731 216.463219 
L 449.011731 196.393406 
L 438.494444 196.393406 
z
" style="fill:#7f7f7f;"/>
   </g>
   <g id="patch_39">
    <path clip-path="url(#p37d8ac7194)" d="M 415.513087 176.323594 
L 445.44392 176.323594 
L 445.44392 156.253781 
L 415.513087 156.253781 
z
" style="fill:#7f7f7f;"/>
   </g>
   <g id="patch_40">
    <path clip-path="url(#p37d8ac7194)" d="M 385.582253 136.183969 
L 427.837547 136.183969 
L 427.837547 116.114156 
L 385.582253 116.114156 
z
" style="fill:#7f7f7f;"/>
   </g>
   <g id="patch_41">
    <path clip-path="url(#p37d8ac7194)" d="M 367.975881 96.044344 
L 431.358822 96.044344 
L 431.358822 75.974531 
L 367.975881 75.974531 
z
" style="fill:#7f7f7f;"/>
   </g>
   <g id="patch_42">
    <path clip-path="url(#p37d8ac7194)" d="M 383.821616 55.904719 
L 426.07691 55.904719 
L 426.07691 35.834906 
L 383.821616 35.834906 
z
" style="fill:#7f7f7f;"/>
   </g>
   <g id="patch_43">
    <path clip-path="url(#p37d8ac7194)" d="M 449.011731 216.463219 
L 459.529018 216.463219 
L 459.529018 196.393406 
L 449.011731 196.393406 
z
" style="fill:#bcbd22;"/>
   </g>
   <g id="patch_44">
    <path clip-path="url(#p37d8ac7194)" d="M 445.44392 176.323594 
L 459.529018 176.323594 
L 459.529018 156.253781 
L 445.44392 156.253781 
z
" style="fill:#bcbd22;"/>
   </g>
   <g id="patch_45">
    <path clip-path="url(#p37d8ac7194)" d="M 427.837547 136.183969 
L 459.529018 136.183969 
L 459.529018 116.114156 
L 427.837547 116.114156 
z
" style="fill:#bcbd22;"/>
   </g>
   <g id="patch_46">
    <path clip-path="url(#p37d8ac7194)" d="M 431.358822 96.044344 
L 459.529018 96.044344 
L 459.529018 75.974531 
L 431.358822 75.974531 
z
" style="fill:#bcbd22;"/>
   </g>
   <g id="patch_47">
    <path clip-path="url(#p37d8ac7194)" d="M 426.07691 55.904719 
L 459.529018 55.904719 
L 459.529018 35.834906 
L 426.07691 35.834906 
z
" style="fill:#bcbd22;"/>
   </g>
   <g id="matplotlib.axis_1">
    <g id="xtick_1">
     <g id="line2d_1">
      <defs>
       <path d="M 0 0 
L 0 3.5 
" id="maba868e0fb" style="stroke:#000000;stroke-width:0.8;"/>
      </defs>
      <g>
       <use style="stroke:#000000;stroke-width:0.8;" x="61.625" xlink:href="#maba868e0fb" y="226.498125"/>
      </g>
     </g>
     <g id="text_1">
      <text style="font-family:Roboto;font-size:10px;font-stretch:normal;font-style:normal;font-weight:normal;text-anchor:middle;" transform="rotate(-0, 61.625, 240.998125)" x="61.625" y="240.998125">0</text>
     </g>
    </g>
    <g id="xtick_2">
     <g id="line2d_2">
      <g>
       <use style="stroke:#000000;stroke-width:0.8;" x="141.205804" xlink:href="#maba868e0fb" y="226.498125"/>
      </g>
     </g>
     <g id="text_2">
      <text style="font-family:Roboto;font-size:10px;font-stretch:normal;font-style:normal;font-weight:normal;text-anchor:middle;" transform="rotate(-0, 141.205804, 240.998125)" x="141.205804" y="240.998125">20</text>
     </g>
    </g>
    <g id="xtick_3">
     <g id="line2d_3">
      <g>
       <use style="stroke:#000000;stroke-width:0.8;" x="220.786607" xlink:href="#maba868e0fb" y="226.498125"/>
      </g>
     </g>
     <g id="text_3">
      <text style="font-family:Roboto;font-size:10px;font-stretch:normal;font-style:normal;font-weight:normal;text-anchor:middle;" transform="rotate(-0, 220.786607, 240.998125)" x="220.786607" y="240.998125">40</text>
     </g>
    </g>
    <g id="xtick_4">
     <g id="line2d_4">
      <g>
       <use style="stroke:#000000;stroke-width:0.8;" x="300.367411" xlink:href="#maba868e0fb" y="226.498125"/>
      </g>
     </g>
     <g id="text_4">
      <text style="font-family:Roboto;font-size:10px;font-stretch:normal;font-style:normal;font-weight:normal;text-anchor:middle;" transform="rotate(-0, 300.367411, 240.998125)" x="300.367411" y="240.998125">60</text>
     </g>
    </g>
    <g id="xtick_5">
     <g id="line2d_5">
      <g>
       <use style="stroke:#000000;stroke-width:0.8;" x="379.948214" xlink:href="#maba868e0fb" y="226.498125"/>
      </g>
     </g>
     <g id="text_5">
      <text style="font-family:Roboto;font-size:10px;font-stretch:normal;font-style:normal;font-weight:normal;text-anchor:middle;" transform="rotate(-0, 379.948214, 240.998125)" x="379.948214" y="240.998125">80</text>
     </g>
    </g>
    <g id="xtick_6">
     <g id="line2d_6">
      <g>
       <use style="stroke:#000000;stroke-width:0.8;" x="459.529018" xlink:href="#maba868e0fb" y="226.498125"/>
      </g>
     </g>
     <g id="text_6">
      <text style="font-family:Roboto;font-size:10px;font-stretch:normal;font-style:normal;font-weight:normal;text-anchor:middle;" transform="rotate(-0, 459.529018, 240.998125)" x="459.529018" y="240.998125">100</text>
     </g>
    </g>
    <g id="text_7">
     <text style="font-family:Roboto;font-size:10px;font-stretch:normal;font-style:normal;font-weight:normal;text-anchor:middle;" transform="rotate(-0, 270.524609, 254.6325)" x="270.524609" y="254.6325">Ranking of importance</text>
    </g>
   </g>
   <g id="matplotlib.axis_2">
    <g id="ytick_1">
     <g id="line2d_7">
      <defs>
       <path d="M 0 0 
L -3.5 0 
" id="mc3aa532a29" style="stroke:#000000;stroke-width:0.8;"/>
      </defs>
      <g>
       <use style="stroke:#000000;stroke-width:0.8;" x="61.625" xlink:href="#mc3aa532a29" y="206.428312"/>
      </g>
     </g>
     <g id="text_8">
      <text style="font-family:Roboto;font-size:10px;font-stretch:normal;font-style:normal;font-weight:normal;text-anchor:end;" transform="rotate(-0, 54.625, 210.178312)" x="54.625" y="210.178312">Rank 1</text>
     </g>
    </g>
    <g id="ytick_2">
     <g id="line2d_8">
      <g>
       <use style="stroke:#000000;stroke-width:0.8;" x="61.625" xlink:href="#mc3aa532a29" y="166.288687"/>
      </g>
     </g>
     <g id="text_9">
      <text style="font-family:Roboto;font-size:10px;font-stretch:normal;font-style:normal;font-weight:normal;text-anchor:end;" transform="rotate(-0, 54.625, 170.038687)" x="54.625" y="170.038687">Rank 2</text>
     </g>
    </g>
    <g id="ytick_3">
     <g id="line2d_9">
      <g>
       <use style="stroke:#000000;stroke-width:0.8;" x="61.625" xlink:href="#mc3aa532a29" y="126.149063"/>
      </g>
     </g>
     <g id="text_10">
      <text style="font-family:Roboto;font-size:10px;font-stretch:normal;font-style:normal;font-weight:normal;text-anchor:end;" transform="rotate(-0, 54.625, 129.899063)" x="54.625" y="129.899063">Rank 3</text>
     </g>
    </g>
    <g id="ytick_4">
     <g id="line2d_10">
      <g>
       <use style="stroke:#000000;stroke-width:0.8;" x="61.625" xlink:href="#mc3aa532a29" y="86.009438"/>
      </g>
     </g>
     <g id="text_11">
      <text style="font-family:Roboto;font-size:10px;font-stretch:normal;font-style:normal;font-weight:normal;text-anchor:end;" transform="rotate(-0, 54.625, 89.759438)" x="54.625" y="89.759438">Rank 4</text>
     </g>
    </g>
    <g id="ytick_5">
     <g id="line2d_11">
      <g>
       <use style="stroke:#000000;stroke-width:0.8;" x="61.625" xlink:href="#mc3aa532a29" y="45.869813"/>
      </g>
     </g>
     <g id="text_12">
      <text style="font-family:Roboto;font-size:10px;font-stretch:normal;font-style:normal;font-weight:normal;text-anchor:end;" transform="rotate(-0, 54.625, 49.619813)" x="54.625" y="49.619813">Rank 5</text>
     </g>
    </g>
    <g id="text_13">
     <text style="font-family:Roboto;font-size:10px;font-stretch:normal;font-style:normal;font-weight:normal;text-anchor:middle;" transform="rotate(-90, 18.246875, 126.149063)" x="18.246875" y="126.149063">Percentage</text>
    </g>
   </g>
   <g id="patch_48">
    <path d="M 61.625 226.498125 
L 479.424219 226.498125 
" style="fill:none;stroke:#000000;stroke-linecap:square;stroke-linejoin:miter;stroke-width:0.8;"/>
   </g>
   <g id="text_14">
    <text style="font-family:Roboto;font-size:10px;font-stretch:normal;font-style:normal;font-weight:normal;text-anchor:middle;" transform="rotate(-0, 112.458553, 210.442275)" x="112.458553" y="210.442275">26</text>
   </g>
   <g id="text_15">
    <text style="font-family:Roboto;font-size:10px;font-stretch:normal;font-style:normal;font-weight:normal;text-anchor:middle;" transform="rotate(-0, 95.957426, 170.30265)" x="95.957426" y="170.30265">17</text>
   </g>
   <g id="text_16">
    <text style="font-family:Roboto;font-size:10px;font-stretch:normal;font-style:normal;font-weight:normal;text-anchor:middle;" transform="rotate(-0, 91.555833, 130.163025)" x="91.555833" y="130.163025">15</text>
   </g>
   <g id="text_17">
    <text style="font-family:Roboto;font-size:10px;font-stretch:normal;font-style:normal;font-weight:normal;text-anchor:middle;" transform="rotate(-0, 81.872328, 90.0234)" x="81.872328" y="90.0234">10</text>
   </g>
   <g id="text_18">
    <text style="font-family:Roboto;font-size:10px;font-stretch:normal;font-style:normal;font-weight:normal;text-anchor:middle;" transform="rotate(-0, 81.872328, 49.883775)" x="81.872328" y="49.883775">10</text>
   </g>
   <g id="text_19">
    <text style="font-family:Roboto;font-size:10px;font-stretch:normal;font-style:normal;font-weight:normal;text-anchor:middle;" transform="rotate(-0, 207.990575, 210.442275)" x="207.990575" y="210.442275">22</text>
   </g>
   <g id="text_20">
    <text style="font-family:Roboto;font-size:10px;font-stretch:normal;font-style:normal;font-weight:normal;text-anchor:middle;" transform="rotate(-0, 167.263235, 170.30265)" x="167.263235" y="170.30265">19</text>
   </g>
   <g id="text_21">
    <text style="font-family:Roboto;font-size:10px;font-stretch:normal;font-style:normal;font-weight:normal;text-anchor:middle;" transform="rotate(-0, 141.733995, 130.163025)" x="141.733995" y="130.163025">10</text>
   </g>
   <g id="text_22">
    <text style="font-family:Roboto;font-size:10px;font-stretch:normal;font-style:normal;font-weight:normal;text-anchor:middle;" transform="rotate(-0, 125.007941, 90.0234)" x="125.007941" y="90.0234">12</text>
   </g>
   <g id="text_23">
    <text style="font-family:Roboto;font-size:10px;font-stretch:normal;font-style:normal;font-weight:normal;text-anchor:middle;" transform="rotate(-0, 113.563799, 49.883775)" x="113.563799" y="49.883775">6</text>
   </g>
   <g id="text_24">
    <text style="font-family:Roboto;font-size:10px;font-stretch:normal;font-style:normal;font-weight:normal;text-anchor:middle;" transform="rotate(-0, 285.117345, 210.442275)" x="285.117345" y="210.442275">16</text>
   </g>
   <g id="text_25">
    <text style="font-family:Roboto;font-size:10px;font-stretch:normal;font-style:normal;font-weight:normal;text-anchor:middle;" transform="rotate(-0, 238.569043, 170.30265)" x="238.569043" y="170.30265">17</text>
   </g>
   <g id="text_26">
    <text style="font-family:Roboto;font-size:10px;font-stretch:normal;font-style:normal;font-weight:normal;text-anchor:middle;" transform="rotate(-0, 192.792475, 130.163025)" x="192.792475" y="130.163025">15</text>
   </g>
   <g id="text_27">
    <text style="font-family:Roboto;font-size:10px;font-stretch:normal;font-style:normal;font-weight:normal;text-anchor:middle;" transform="rotate(-0, 167.263235, 90.0234)" x="167.263235" y="90.0234">10</text>
   </g>
   <g id="text_28">
    <text style="font-family:Roboto;font-size:10px;font-stretch:normal;font-style:normal;font-weight:normal;text-anchor:middle;" transform="rotate(-0, 140.853676, 49.883775)" x="140.853676" y="49.883775">8</text>
   </g>
   <g id="text_29">
    <text style="font-family:Roboto;font-size:10px;font-stretch:normal;font-style:normal;font-weight:normal;text-anchor:middle;" transform="rotate(-0, 335.074457, 210.442275)" x="335.074457" y="210.442275">9</text>
   </g>
   <g id="text_30">
    <text style="font-family:Roboto;font-size:10px;font-stretch:normal;font-style:normal;font-weight:normal;text-anchor:middle;" transform="rotate(-0, 288.747205, 170.30265)" x="288.747205" y="170.30265">8</text>
   </g>
   <g id="text_31">
    <text style="font-family:Roboto;font-size:10px;font-stretch:normal;font-style:normal;font-weight:normal;text-anchor:middle;" transform="rotate(-0, 246.491911, 130.163025)" x="246.491911" y="130.163025">12</text>
   </g>
   <g id="text_32">
    <text style="font-family:Roboto;font-size:10px;font-stretch:normal;font-style:normal;font-weight:normal;text-anchor:middle;" transform="rotate(-0, 212.159485, 90.0234)" x="212.159485" y="90.0234">13</text>
   </g>
   <g id="text_33">
    <text style="font-family:Roboto;font-size:10px;font-stretch:normal;font-style:normal;font-weight:normal;text-anchor:middle;" transform="rotate(-0, 188.390882, 49.883775)" x="188.390882" y="49.883775">16</text>
   </g>
   <g id="text_34">
    <text style="font-family:Roboto;font-size:10px;font-stretch:normal;font-style:normal;font-weight:normal;text-anchor:middle;" transform="rotate(-0, 370.13208, 210.442275)" x="370.13208" y="210.442275">9</text>
   </g>
   <g id="text_35">
    <text style="font-family:Roboto;font-size:10px;font-stretch:normal;font-style:normal;font-weight:normal;text-anchor:middle;" transform="rotate(-0, 323.95995, 170.30265)" x="323.95995" y="170.30265">10</text>
   </g>
   <g id="text_36">
    <text style="font-family:Roboto;font-size:10px;font-stretch:normal;font-style:normal;font-weight:normal;text-anchor:middle;" transform="rotate(-0, 286.986568, 130.163025)" x="286.986568" y="130.163025">9</text>
   </g>
   <g id="text_37">
    <text style="font-family:Roboto;font-size:10px;font-stretch:normal;font-style:normal;font-weight:normal;text-anchor:middle;" transform="rotate(-0, 251.773823, 90.0234)" x="251.773823" y="90.0234">7</text>
   </g>
   <g id="text_38">
    <text style="font-family:Roboto;font-size:10px;font-stretch:normal;font-style:normal;font-weight:normal;text-anchor:middle;" transform="rotate(-0, 238.569043, 49.883775)" x="238.569043" y="49.883775">9</text>
   </g>
   <g id="text_39">
    <text style="font-family:Roboto;font-size:10px;font-stretch:normal;font-style:normal;font-weight:normal;text-anchor:middle;" transform="rotate(-0, 402.560381, 210.442275)" x="402.560381" y="210.442275">7</text>
   </g>
   <g id="text_40">
    <text style="font-family:Roboto;font-size:10px;font-stretch:normal;font-style:normal;font-weight:normal;text-anchor:middle;" transform="rotate(-0, 364.454607, 170.30265)" x="364.454607" y="170.30265">11</text>
   </g>
   <g id="text_41">
    <text style="font-family:Roboto;font-size:10px;font-stretch:normal;font-style:normal;font-weight:normal;text-anchor:middle;" transform="rotate(-0, 325.720587, 130.163025)" x="325.720587" y="130.163025">11</text>
   </g>
   <g id="text_42">
    <text style="font-family:Roboto;font-size:10px;font-stretch:normal;font-style:normal;font-weight:normal;text-anchor:middle;" transform="rotate(-0, 294.029117, 90.0234)" x="294.029117" y="90.0234">14</text>
   </g>
   <g id="text_43">
    <text style="font-family:Roboto;font-size:10px;font-stretch:normal;font-style:normal;font-weight:normal;text-anchor:middle;" transform="rotate(-0, 289.627524, 49.883775)" x="289.627524" y="49.883775">16</text>
   </g>
   <g id="text_44">
    <text style="font-family:Roboto;font-size:10px;font-stretch:normal;font-style:normal;font-weight:normal;text-anchor:middle;" transform="rotate(-0, 427.977157, 210.442275)" x="427.977157" y="210.442275">5</text>
   </g>
   <g id="text_45">
    <text style="font-family:Roboto;font-size:10px;font-stretch:normal;font-style:normal;font-weight:normal;text-anchor:middle;" transform="rotate(-0, 400.54767, 170.30265)" x="400.54767" y="170.30265">8</text>
   </g>
   <g id="text_46">
    <text style="font-family:Roboto;font-size:10px;font-stretch:normal;font-style:normal;font-weight:normal;text-anchor:middle;" transform="rotate(-0, 366.215244, 130.163025)" x="366.215244" y="130.163025">10</text>
   </g>
   <g id="text_47">
    <text style="font-family:Roboto;font-size:10px;font-stretch:normal;font-style:normal;font-weight:normal;text-anchor:middle;" transform="rotate(-0, 345.087597, 90.0234)" x="345.087597" y="90.0234">12</text>
   </g>
   <g id="text_48">
    <text style="font-family:Roboto;font-size:10px;font-stretch:normal;font-style:normal;font-weight:normal;text-anchor:middle;" transform="rotate(-0, 353.010464, 49.883775)" x="353.010464" y="49.883775">15</text>
   </g>
   <g id="text_49">
    <text style="font-family:Roboto;font-size:10px;font-stretch:normal;font-style:normal;font-weight:normal;text-anchor:middle;" transform="rotate(-0, 430.478503, 170.30265)" x="430.478503" y="170.30265">8</text>
   </g>
   <g id="text_50">
    <text style="font-family:Roboto;font-size:10px;font-stretch:normal;font-style:normal;font-weight:normal;text-anchor:middle;" transform="rotate(-0, 406.7099, 130.163025)" x="406.7099" y="130.163025">11</text>
   </g>
   <g id="text_51">
    <text style="font-family:Roboto;font-size:10px;font-stretch:normal;font-style:normal;font-weight:normal;text-anchor:middle;" transform="rotate(-0, 399.667351, 90.0234)" x="399.667351" y="90.0234">16</text>
   </g>
   <g id="text_52">
    <text style="font-family:Roboto;font-size:10px;font-stretch:normal;font-style:normal;font-weight:normal;text-anchor:middle;" transform="rotate(-0, 404.949263, 49.883775)" x="404.949263" y="49.883775">11</text>
   </g>
   <g id="text_53">
    <text style="font-family:Roboto;font-size:10px;font-stretch:normal;font-style:normal;font-weight:normal;text-anchor:middle;" transform="rotate(-0, 443.683283, 130.163025)" x="443.683283" y="130.163025">8</text>
   </g>
   <g id="text_54">
    <text style="font-family:Roboto;font-size:10px;font-stretch:normal;font-style:normal;font-weight:normal;text-anchor:middle;" transform="rotate(-0, 445.44392, 90.0234)" x="445.44392" y="90.0234">7</text>
   </g>
   <g id="text_55">
    <text style="font-family:Roboto;font-size:10px;font-stretch:normal;font-style:normal;font-weight:normal;text-anchor:middle;" transform="rotate(-0, 442.802964, 49.883775)" x="442.802964" y="49.883775">8</text>
   </g>
   <g id="text_56">
    <text style="font-family:Roboto;font-size:12px;font-stretch:normal;font-style:normal;font-weight:normal;text-anchor:middle;" transform="rotate(-0, 270.524609, 19.8)" x="270.524609" y="19.8">Reasons to choose current job: United Kingdom</text>
   </g>
   <g id="legend_1">
    <g id="patch_49">
     <path d="M 63.448828 337.724719 
L 477.600391 337.724719 
Q 479.600391 337.724719 479.600391 335.724719 
L 479.600391 263.602844 
Q 479.600391 261.602844 477.600391 261.602844 
L 63.448828 261.602844 
Q 61.448828 261.602844 61.448828 263.602844 
L 61.448828 335.724719 
Q 61.448828 337.724719 63.448828 337.724719 
z
" style="fill:#ffffff;opacity:0.8;stroke:#cccccc;stroke-linejoin:miter;"/>
    </g>
    <g id="patch_50">
     <path d="M 65.448828 273.102844 
L 85.448828 273.102844 
L 85.448828 266.102844 
L 65.448828 266.102844 
z
" style="fill:#1f77b4;"/>
    </g>
    <g id="text_57">
     <text style="font-family:Roboto;font-size:10px;font-stretch:normal;font-style:normal;font-weight:normal;text-anchor:start;" transform="rotate(-0, 93.448828, 273.102844)" x="93.448828" y="273.102844">Desire to work in a research environment</text>
    </g>
    <g id="patch_51">
     <path d="M 65.448828 287.634094 
L 85.448828 287.634094 
L 85.448828 280.634094 
L 65.448828 280.634094 
z
" style="fill:#ff7f0e;"/>
    </g>
    <g id="text_58">
     <text style="font-family:Roboto;font-size:10px;font-stretch:normal;font-style:normal;font-weight:normal;text-anchor:start;" transform="rotate(-0, 93.448828, 287.634094)" x="93.448828" y="287.634094">Desire to advance research</text>
    </g>
    <g id="patch_52">
     <path d="M 65.448828 302.268469 
L 85.448828 302.268469 
L 85.448828 295.268469 
L 65.448828 295.268469 
z
" style="fill:#2ca02c;"/>
    </g>
    <g id="text_59">
     <text style="font-family:Roboto;font-size:10px;font-stretch:normal;font-style:normal;font-weight:normal;text-anchor:start;" transform="rotate(-0, 93.448828, 302.268469)" x="93.448828" y="302.268469">Opportunity to develop software</text>
    </g>
    <g id="patch_53">
     <path d="M 65.448828 316.902844 
L 85.448828 316.902844 
L 85.448828 309.902844 
L 65.448828 309.902844 
z
" style="fill:#d62728;"/>
    </g>
    <g id="text_60">
     <text style="font-family:Roboto;font-size:10px;font-stretch:normal;font-style:normal;font-weight:normal;text-anchor:start;" transform="rotate(-0, 93.448828, 316.902844)" x="93.448828" y="316.902844">Freedom to choose own working practices</text>
    </g>
    <g id="patch_54">
     <path d="M 65.448828 331.590344 
L 85.448828 331.590344 
L 85.448828 324.590344 
L 65.448828 324.590344 
z
" style="fill:#9467bd;"/>
    </g>
    <g id="text_61">
     <text style="font-family:Roboto;font-size:10px;font-stretch:normal;font-style:normal;font-weight:normal;text-anchor:start;" transform="rotate(-0, 93.448828, 331.590344)" x="93.448828" y="331.590344">Opportunity for career advancement</text>
    </g>
    <g id="patch_55">
     <path d="M 302.141016 273.102844 
L 322.141016 273.102844 
L 322.141016 266.102844 
L 302.141016 266.102844 
z
" style="fill:#8c564b;"/>
    </g>
    <g id="text_62">
     <text style="font-family:Roboto;font-size:10px;font-stretch:normal;font-style:normal;font-weight:normal;text-anchor:start;" transform="rotate(-0, 330.141016, 273.102844)" x="330.141016" y="273.102844">I want to learn new skills</text>
    </g>
    <g id="patch_56">
     <path d="M 302.141016 287.634094 
L 322.141016 287.634094 
L 322.141016 280.634094 
L 302.141016 280.634094 
z
" style="fill:#e377c2;"/>
    </g>
    <g id="text_63">
     <text style="font-family:Roboto;font-size:10px;font-stretch:normal;font-style:normal;font-weight:normal;text-anchor:start;" transform="rotate(-0, 330.141016, 287.634094)" x="330.141016" y="287.634094">Flexible working hours</text>
    </g>
    <g id="patch_57">
     <path d="M 302.141016 302.218469 
L 322.141016 302.218469 
L 322.141016 295.218469 
L 302.141016 295.218469 
z
" style="fill:#7f7f7f;"/>
    </g>
    <g id="text_64">
     <text style="font-family:Roboto;font-size:10px;font-stretch:normal;font-style:normal;font-weight:normal;text-anchor:start;" transform="rotate(-0, 330.141016, 302.218469)" x="330.141016" y="302.218469">Ability to work across disciplines</text>
    </g>
    <g id="patch_58">
     <path d="M 302.141016 316.852844 
L 322.141016 316.852844 
L 322.141016 309.852844 
L 302.141016 309.852844 
z
" style="fill:#bcbd22;"/>
    </g>
    <g id="text_65">
     <text style="font-family:Roboto;font-size:10px;font-stretch:normal;font-style:normal;font-weight:normal;text-anchor:start;" transform="rotate(-0, 330.141016, 316.852844)" x="330.141016" y="316.852844">The salary</text>
    </g>
   </g>
  </g>
 </g>
 <defs>
  <clipPath id="p37d8ac7194">
   <rect height="200.698125" width="417.799219" x="61.625" y="25.8"/>
  </clipPath>
 </defs>
</svg>
