<?xml version="1.0" encoding="utf-8" standalone="no"?>
<!DOCTYPE svg PUBLIC "-//W3C//DTD SVG 1.1//EN"
  "http://www.w3.org/Graphics/SVG/1.1/DTD/svg11.dtd">
<!-- Created with matplotlib (https://matplotlib.org/) -->
<svg height="360pt" version="1.1" viewBox="0 0 504 360" width="504pt" xmlns="http://www.w3.org/2000/svg" xmlns:xlink="http://www.w3.org/1999/xlink">
 <metadata>
  <rdf:RDF xmlns:cc="http://creativecommons.org/ns#" xmlns:dc="http://purl.org/dc/elements/1.1/" xmlns:rdf="http://www.w3.org/1999/02/22-rdf-syntax-ns#">
   <cc:Work>
    <dc:type rdf:resource="http://purl.org/dc/dcmitype/StillImage"/>
    <dc:date>2021-03-09T17:57:17.789557</dc:date>
    <dc:format>image/svg+xml</dc:format>
    <dc:creator>
     <cc:Agent>
      <dc:title>Matplotlib v3.3.4, https://matplotlib.org/</dc:title>
     </cc:Agent>
    </dc:creator>
   </cc:Work>
  </rdf:RDF>
 </metadata>
 <defs>
  <style type="text/css">*{stroke-linecap:butt;stroke-linejoin:round;}</style>
 </defs>
 <g id="figure_1">
  <g id="patch_1">
   <path d="M 0 360 
L 504 360 
L 504 0 
L 0 0 
z
" style="fill:#ffffff;"/>
  </g>
  <g id="axes_1">
   <g id="patch_2">
    <path d="M 61.625 226.754375 
L 472.003125 226.754375 
L 472.003125 25.8 
L 61.625 25.8 
z
" style="fill:#ffffff;"/>
   </g>
   <g id="patch_3">
    <path clip-path="url(#pc971403794)" d="M 61.625 216.706656 
L 178.875893 216.706656 
L 178.875893 196.611219 
L 61.625 196.611219 
z
" style="fill:#1f77b4;"/>
   </g>
   <g id="patch_4">
    <path clip-path="url(#pc971403794)" d="M 61.625 176.515781 
L 116.342083 176.515781 
L 116.342083 156.420344 
L 61.625 156.420344 
z
" style="fill:#1f77b4;"/>
   </g>
   <g id="patch_5">
    <path clip-path="url(#pc971403794)" d="M 61.625 136.324906 
L 85.075179 136.324906 
L 85.075179 116.229469 
L 61.625 116.229469 
z
" style="fill:#1f77b4;"/>
   </g>
   <g id="patch_6">
    <path clip-path="url(#pc971403794)" d="M 61.625 96.134031 
L 100.708631 96.134031 
L 100.708631 76.038594 
L 61.625 76.038594 
z
" style="fill:#1f77b4;"/>
   </g>
   <g id="patch_7">
    <path clip-path="url(#pc971403794)" d="M 61.625 55.943156 
L 85.075179 55.943156 
L 85.075179 35.847719 
L 61.625 35.847719 
z
" style="fill:#1f77b4;"/>
   </g>
   <g id="patch_8">
    <path clip-path="url(#pc971403794)" d="M 178.875893 216.706656 
L 264.859881 216.706656 
L 264.859881 196.611219 
L 178.875893 196.611219 
z
" style="fill:#ff7f0e;"/>
   </g>
   <g id="patch_9">
    <path clip-path="url(#pc971403794)" d="M 116.342083 176.515781 
L 155.425714 176.515781 
L 155.425714 156.420344 
L 116.342083 156.420344 
z
" style="fill:#ff7f0e;"/>
   </g>
   <g id="patch_10">
    <path clip-path="url(#pc971403794)" d="M 85.075179 136.324906 
L 131.975536 136.324906 
L 131.975536 116.229469 
L 85.075179 116.229469 
z
" style="fill:#ff7f0e;"/>
   </g>
   <g id="patch_11">
    <path clip-path="url(#pc971403794)" d="M 100.708631 96.134031 
L 139.792262 96.134031 
L 139.792262 76.038594 
L 100.708631 76.038594 
z
" style="fill:#ff7f0e;"/>
   </g>
   <g id="patch_12">
    <path clip-path="url(#pc971403794)" d="M 85.075179 55.943156 
L 116.342083 55.943156 
L 116.342083 35.847719 
L 85.075179 35.847719 
z
" style="fill:#ff7f0e;"/>
   </g>
   <g id="patch_13">
    <path clip-path="url(#pc971403794)" d="M 264.859881 216.706656 
L 335.210417 216.706656 
L 335.210417 196.611219 
L 264.859881 196.611219 
z
" style="fill:#2ca02c;"/>
   </g>
   <g id="patch_14">
    <path clip-path="url(#pc971403794)" d="M 155.425714 176.515781 
L 249.226429 176.515781 
L 249.226429 156.420344 
L 155.425714 156.420344 
z
" style="fill:#2ca02c;"/>
   </g>
   <g id="patch_15">
    <path clip-path="url(#pc971403794)" d="M 131.975536 136.324906 
L 194.509345 136.324906 
L 194.509345 116.229469 
L 131.975536 116.229469 
z
" style="fill:#2ca02c;"/>
   </g>
   <g id="patch_16">
    <path clip-path="url(#pc971403794)" d="M 139.792262 96.134031 
L 186.692619 96.134031 
L 186.692619 76.038594 
L 139.792262 76.038594 
z
" style="fill:#2ca02c;"/>
   </g>
   <g id="patch_17">
    <path clip-path="url(#pc971403794)" d="M 116.342083 55.943156 
L 155.425714 55.943156 
L 155.425714 35.847719 
L 116.342083 35.847719 
z
" style="fill:#2ca02c;"/>
   </g>
   <g id="patch_18">
    <path clip-path="url(#pc971403794)" d="M 335.210417 216.706656 
L 366.477321 216.706656 
L 366.477321 196.611219 
L 335.210417 196.611219 
z
" style="fill:#d62728;"/>
   </g>
   <g id="patch_19">
    <path clip-path="url(#pc971403794)" d="M 249.226429 176.515781 
L 296.126786 176.515781 
L 296.126786 156.420344 
L 249.226429 156.420344 
z
" style="fill:#d62728;"/>
   </g>
   <g id="patch_20">
    <path clip-path="url(#pc971403794)" d="M 194.509345 136.324906 
L 241.409702 136.324906 
L 241.409702 116.229469 
L 194.509345 116.229469 
z
" style="fill:#d62728;"/>
   </g>
   <g id="patch_21">
    <path clip-path="url(#pc971403794)" d="M 186.692619 96.134031 
L 241.409702 96.134031 
L 241.409702 76.038594 
L 186.692619 76.038594 
z
" style="fill:#d62728;"/>
   </g>
   <g id="patch_22">
    <path clip-path="url(#pc971403794)" d="M 155.425714 55.943156 
L 217.959524 55.943156 
L 217.959524 35.847719 
L 155.425714 35.847719 
z
" style="fill:#d62728;"/>
   </g>
   <g id="patch_23">
    <path clip-path="url(#pc971403794)" d="M 366.477321 216.706656 
L 389.9275 216.706656 
L 389.9275 196.611219 
L 366.477321 196.611219 
z
" style="fill:#9467bd;"/>
   </g>
   <g id="patch_24">
    <path clip-path="url(#pc971403794)" d="M 296.126786 176.515781 
L 311.760238 176.515781 
L 311.760238 156.420344 
L 296.126786 156.420344 
z
" style="fill:#9467bd;"/>
   </g>
   <g id="patch_25">
    <path clip-path="url(#pc971403794)" d="M 241.409702 136.324906 
L 296.126786 136.324906 
L 296.126786 116.229469 
L 241.409702 116.229469 
z
" style="fill:#9467bd;"/>
   </g>
   <g id="patch_26">
    <path clip-path="url(#pc971403794)" d="M 241.409702 96.134031 
L 296.126786 96.134031 
L 296.126786 76.038594 
L 241.409702 76.038594 
z
" style="fill:#9467bd;"/>
   </g>
   <g id="patch_27">
    <path clip-path="url(#pc971403794)" d="M 217.959524 55.943156 
L 288.31006 55.943156 
L 288.31006 35.847719 
L 217.959524 35.847719 
z
" style="fill:#9467bd;"/>
   </g>
   <g id="patch_28">
    <path clip-path="url(#pc971403794)" d="M 389.9275 216.706656 
L 413.377679 216.706656 
L 413.377679 196.611219 
L 389.9275 196.611219 
z
" style="fill:#8c564b;"/>
   </g>
   <g id="patch_29">
    <path clip-path="url(#pc971403794)" d="M 311.760238 176.515781 
L 350.843869 176.515781 
L 350.843869 156.420344 
L 311.760238 156.420344 
z
" style="fill:#8c564b;"/>
   </g>
   <g id="patch_30">
    <path clip-path="url(#pc971403794)" d="M 296.126786 136.324906 
L 311.760238 136.324906 
L 311.760238 116.229469 
L 296.126786 116.229469 
z
" style="fill:#8c564b;"/>
   </g>
   <g id="patch_31">
    <path clip-path="url(#pc971403794)" d="M 296.126786 96.134031 
L 311.760238 96.134031 
L 311.760238 76.038594 
L 296.126786 76.038594 
z
" style="fill:#8c564b;"/>
   </g>
   <g id="patch_32">
    <path clip-path="url(#pc971403794)" d="M 288.31006 55.943156 
L 319.576964 55.943156 
L 319.576964 35.847719 
L 288.31006 35.847719 
z
" style="fill:#8c564b;"/>
   </g>
   <g id="patch_33">
    <path clip-path="url(#pc971403794)" d="M 413.377679 216.706656 
L 436.827857 216.706656 
L 436.827857 196.611219 
L 413.377679 196.611219 
z
" style="fill:#e377c2;"/>
   </g>
   <g id="patch_34">
    <path clip-path="url(#pc971403794)" d="M 350.843869 176.515781 
L 413.377679 176.515781 
L 413.377679 156.420344 
L 350.843869 156.420344 
z
" style="fill:#e377c2;"/>
   </g>
   <g id="patch_35">
    <path clip-path="url(#pc971403794)" d="M 311.760238 136.324906 
L 343.027143 136.324906 
L 343.027143 116.229469 
L 311.760238 116.229469 
z
" style="fill:#e377c2;"/>
   </g>
   <g id="patch_36">
    <path clip-path="url(#pc971403794)" d="M 311.760238 96.134031 
L 374.294048 96.134031 
L 374.294048 76.038594 
L 311.760238 76.038594 
z
" style="fill:#e377c2;"/>
   </g>
   <g id="patch_37">
    <path clip-path="url(#pc971403794)" d="M 319.576964 55.943156 
L 358.660595 55.943156 
L 358.660595 35.847719 
L 319.576964 35.847719 
z
" style="fill:#e377c2;"/>
   </g>
   <g id="patch_38">
    <path clip-path="url(#pc971403794)" d="M 436.827857 216.706656 
L 452.46131 216.706656 
L 452.46131 196.611219 
L 436.827857 196.611219 
z
" style="fill:#7f7f7f;"/>
   </g>
   <g id="patch_39">
    <path clip-path="url(#pc971403794)" d="M 413.377679 176.515781 
L 429.011131 176.515781 
L 429.011131 156.420344 
L 413.377679 156.420344 
z
" style="fill:#7f7f7f;"/>
   </g>
   <g id="patch_40">
    <path clip-path="url(#pc971403794)" d="M 343.027143 136.324906 
L 374.294048 136.324906 
L 374.294048 116.229469 
L 343.027143 116.229469 
z
" style="fill:#7f7f7f;"/>
   </g>
   <g id="patch_41">
    <path clip-path="url(#pc971403794)" d="M 374.294048 96.134031 
L 397.744226 96.134031 
L 397.744226 76.038594 
L 374.294048 76.038594 
z
" style="fill:#7f7f7f;"/>
   </g>
   <g id="patch_42">
    <path clip-path="url(#pc971403794)" d="M 358.660595 55.943156 
L 405.560952 55.943156 
L 405.560952 35.847719 
L 358.660595 35.847719 
z
" style="fill:#7f7f7f;"/>
   </g>
   <g id="patch_43">
    <path clip-path="url(#pc971403794)" d="M 61.625 216.706656 
L 61.625 216.706656 
L 61.625 196.611219 
L 61.625 196.611219 
z
" style="fill:#bcbd22;"/>
   </g>
   <g id="patch_44">
    <path clip-path="url(#pc971403794)" d="M 429.011131 176.515781 
L 452.46131 176.515781 
L 452.46131 156.420344 
L 429.011131 156.420344 
z
" style="fill:#bcbd22;"/>
   </g>
   <g id="patch_45">
    <path clip-path="url(#pc971403794)" d="M 374.294048 136.324906 
L 452.46131 136.324906 
L 452.46131 116.229469 
L 374.294048 116.229469 
z
" style="fill:#bcbd22;"/>
   </g>
   <g id="patch_46">
    <path clip-path="url(#pc971403794)" d="M 397.744226 96.134031 
L 452.46131 96.134031 
L 452.46131 76.038594 
L 397.744226 76.038594 
z
" style="fill:#bcbd22;"/>
   </g>
   <g id="patch_47">
    <path clip-path="url(#pc971403794)" d="M 405.560952 55.943156 
L 452.46131 55.943156 
L 452.46131 35.847719 
L 405.560952 35.847719 
z
" style="fill:#bcbd22;"/>
   </g>
   <g id="matplotlib.axis_1">
    <g id="xtick_1">
     <g id="line2d_1">
      <defs>
       <path d="M 0 0 
L 0 3.5 
" id="ma6beb272a2" style="stroke:#000000;stroke-width:0.8;"/>
      </defs>
      <g>
       <use style="stroke:#000000;stroke-width:0.8;" x="61.625" xlink:href="#ma6beb272a2" y="226.754375"/>
      </g>
     </g>
     <g id="text_1">
      <text style="font-family:Roboto;font-size:10px;font-stretch:normal;font-style:normal;font-weight:normal;text-anchor:middle;" transform="rotate(-0, 61.625, 241.254375)" x="61.625" y="241.254375">0</text>
     </g>
    </g>
    <g id="xtick_2">
     <g id="line2d_2">
      <g>
       <use style="stroke:#000000;stroke-width:0.8;" x="139.792262" xlink:href="#ma6beb272a2" y="226.754375"/>
      </g>
     </g>
     <g id="text_2">
      <text style="font-family:Roboto;font-size:10px;font-stretch:normal;font-style:normal;font-weight:normal;text-anchor:middle;" transform="rotate(-0, 139.792262, 241.254375)" x="139.792262" y="241.254375">20</text>
     </g>
    </g>
    <g id="xtick_3">
     <g id="line2d_3">
      <g>
       <use style="stroke:#000000;stroke-width:0.8;" x="217.959524" xlink:href="#ma6beb272a2" y="226.754375"/>
      </g>
     </g>
     <g id="text_3">
      <text style="font-family:Roboto;font-size:10px;font-stretch:normal;font-style:normal;font-weight:normal;text-anchor:middle;" transform="rotate(-0, 217.959524, 241.254375)" x="217.959524" y="241.254375">40</text>
     </g>
    </g>
    <g id="xtick_4">
     <g id="line2d_4">
      <g>
       <use style="stroke:#000000;stroke-width:0.8;" x="296.126786" xlink:href="#ma6beb272a2" y="226.754375"/>
      </g>
     </g>
     <g id="text_4">
      <text style="font-family:Roboto;font-size:10px;font-stretch:normal;font-style:normal;font-weight:normal;text-anchor:middle;" transform="rotate(-0, 296.126786, 241.254375)" x="296.126786" y="241.254375">60</text>
     </g>
    </g>
    <g id="xtick_5">
     <g id="line2d_5">
      <g>
       <use style="stroke:#000000;stroke-width:0.8;" x="374.294048" xlink:href="#ma6beb272a2" y="226.754375"/>
      </g>
     </g>
     <g id="text_5">
      <text style="font-family:Roboto;font-size:10px;font-stretch:normal;font-style:normal;font-weight:normal;text-anchor:middle;" transform="rotate(-0, 374.294048, 241.254375)" x="374.294048" y="241.254375">80</text>
     </g>
    </g>
    <g id="xtick_6">
     <g id="line2d_6">
      <g>
       <use style="stroke:#000000;stroke-width:0.8;" x="452.46131" xlink:href="#ma6beb272a2" y="226.754375"/>
      </g>
     </g>
     <g id="text_6">
      <text style="font-family:Roboto;font-size:10px;font-stretch:normal;font-style:normal;font-weight:normal;text-anchor:middle;" transform="rotate(-0, 452.46131, 241.254375)" x="452.46131" y="241.254375">100</text>
     </g>
    </g>
    <g id="text_7">
     <text style="font-family:Roboto;font-size:10px;font-stretch:normal;font-style:normal;font-weight:normal;text-anchor:middle;" transform="rotate(-0, 266.814062, 254.88875)" x="266.814062" y="254.88875">Ranking of importance</text>
    </g>
   </g>
   <g id="matplotlib.axis_2">
    <g id="ytick_1">
     <g id="line2d_7">
      <defs>
       <path d="M 0 0 
L -3.5 0 
" id="m8121a54c74" style="stroke:#000000;stroke-width:0.8;"/>
      </defs>
      <g>
       <use style="stroke:#000000;stroke-width:0.8;" x="61.625" xlink:href="#m8121a54c74" y="206.658937"/>
      </g>
     </g>
     <g id="text_8">
      <text style="font-family:Roboto;font-size:10px;font-stretch:normal;font-style:normal;font-weight:normal;text-anchor:end;" transform="rotate(-0, 54.625, 210.408937)" x="54.625" y="210.408937">Rank 1</text>
     </g>
    </g>
    <g id="ytick_2">
     <g id="line2d_8">
      <g>
       <use style="stroke:#000000;stroke-width:0.8;" x="61.625" xlink:href="#m8121a54c74" y="166.468063"/>
      </g>
     </g>
     <g id="text_9">
      <text style="font-family:Roboto;font-size:10px;font-stretch:normal;font-style:normal;font-weight:normal;text-anchor:end;" transform="rotate(-0, 54.625, 170.218063)" x="54.625" y="170.218063">Rank 2</text>
     </g>
    </g>
    <g id="ytick_3">
     <g id="line2d_9">
      <g>
       <use style="stroke:#000000;stroke-width:0.8;" x="61.625" xlink:href="#m8121a54c74" y="126.277188"/>
      </g>
     </g>
     <g id="text_10">
      <text style="font-family:Roboto;font-size:10px;font-stretch:normal;font-style:normal;font-weight:normal;text-anchor:end;" transform="rotate(-0, 54.625, 130.027188)" x="54.625" y="130.027188">Rank 3</text>
     </g>
    </g>
    <g id="ytick_4">
     <g id="line2d_10">
      <g>
       <use style="stroke:#000000;stroke-width:0.8;" x="61.625" xlink:href="#m8121a54c74" y="86.086313"/>
      </g>
     </g>
     <g id="text_11">
      <text style="font-family:Roboto;font-size:10px;font-stretch:normal;font-style:normal;font-weight:normal;text-anchor:end;" transform="rotate(-0, 54.625, 89.836313)" x="54.625" y="89.836313">Rank 4</text>
     </g>
    </g>
    <g id="ytick_5">
     <g id="line2d_11">
      <g>
       <use style="stroke:#000000;stroke-width:0.8;" x="61.625" xlink:href="#m8121a54c74" y="45.895438"/>
      </g>
     </g>
     <g id="text_12">
      <text style="font-family:Roboto;font-size:10px;font-stretch:normal;font-style:normal;font-weight:normal;text-anchor:end;" transform="rotate(-0, 54.625, 49.645438)" x="54.625" y="49.645438">Rank 5</text>
     </g>
    </g>
    <g id="text_13">
     <text style="font-family:Roboto;font-size:10px;font-stretch:normal;font-style:normal;font-weight:normal;text-anchor:middle;" transform="rotate(-90, 18.246875, 126.277188)" x="18.246875" y="126.277188">Percentage</text>
    </g>
   </g>
   <g id="patch_48">
    <path d="M 61.625 226.754375 
L 472.003125 226.754375 
" style="fill:none;stroke:#000000;stroke-linecap:square;stroke-linejoin:miter;stroke-width:0.8;"/>
   </g>
   <g id="text_14">
    <text style="font-family:Roboto;font-size:10px;font-stretch:normal;font-style:normal;font-weight:normal;text-anchor:middle;" transform="rotate(-0, 120.250446, 210.678025)" x="120.250446" y="210.678025">30</text>
   </g>
   <g id="text_15">
    <text style="font-family:Roboto;font-size:10px;font-stretch:normal;font-style:normal;font-weight:normal;text-anchor:middle;" transform="rotate(-0, 88.983542, 170.48715)" x="88.983542" y="170.48715">14</text>
   </g>
   <g id="text_16">
    <text style="font-family:Roboto;font-size:10px;font-stretch:normal;font-style:normal;font-weight:normal;text-anchor:middle;" transform="rotate(-0, 73.350089, 130.296275)" x="73.350089" y="130.296275">6</text>
   </g>
   <g id="text_17">
    <text style="font-family:Roboto;font-size:10px;font-stretch:normal;font-style:normal;font-weight:normal;text-anchor:middle;" transform="rotate(-0, 81.166815, 90.1054)" x="81.166815" y="90.1054">10</text>
   </g>
   <g id="text_18">
    <text style="font-family:Roboto;font-size:10px;font-stretch:normal;font-style:normal;font-weight:normal;text-anchor:middle;" transform="rotate(-0, 73.350089, 49.914525)" x="73.350089" y="49.914525">6</text>
   </g>
   <g id="text_19">
    <text style="font-family:Roboto;font-size:10px;font-stretch:normal;font-style:normal;font-weight:normal;text-anchor:middle;" transform="rotate(-0, 221.867887, 210.678025)" x="221.867887" y="210.678025">22</text>
   </g>
   <g id="text_20">
    <text style="font-family:Roboto;font-size:10px;font-stretch:normal;font-style:normal;font-weight:normal;text-anchor:middle;" transform="rotate(-0, 135.883899, 170.48715)" x="135.883899" y="170.48715">10</text>
   </g>
   <g id="text_21">
    <text style="font-family:Roboto;font-size:10px;font-stretch:normal;font-style:normal;font-weight:normal;text-anchor:middle;" transform="rotate(-0, 108.525357, 130.296275)" x="108.525357" y="130.296275">12</text>
   </g>
   <g id="text_22">
    <text style="font-family:Roboto;font-size:10px;font-stretch:normal;font-style:normal;font-weight:normal;text-anchor:middle;" transform="rotate(-0, 120.250446, 90.1054)" x="120.250446" y="90.1054">10</text>
   </g>
   <g id="text_23">
    <text style="font-family:Roboto;font-size:10px;font-stretch:normal;font-style:normal;font-weight:normal;text-anchor:middle;" transform="rotate(-0, 100.708631, 49.914525)" x="100.708631" y="49.914525">8</text>
   </g>
   <g id="text_24">
    <text style="font-family:Roboto;font-size:10px;font-stretch:normal;font-style:normal;font-weight:normal;text-anchor:middle;" transform="rotate(-0, 300.035149, 210.678025)" x="300.035149" y="210.678025">18</text>
   </g>
   <g id="text_25">
    <text style="font-family:Roboto;font-size:10px;font-stretch:normal;font-style:normal;font-weight:normal;text-anchor:middle;" transform="rotate(-0, 202.326071, 170.48715)" x="202.326071" y="170.48715">24</text>
   </g>
   <g id="text_26">
    <text style="font-family:Roboto;font-size:10px;font-stretch:normal;font-style:normal;font-weight:normal;text-anchor:middle;" transform="rotate(-0, 163.24244, 130.296275)" x="163.24244" y="130.296275">16</text>
   </g>
   <g id="text_27">
    <text style="font-family:Roboto;font-size:10px;font-stretch:normal;font-style:normal;font-weight:normal;text-anchor:middle;" transform="rotate(-0, 163.24244, 90.1054)" x="163.24244" y="90.1054">12</text>
   </g>
   <g id="text_28">
    <text style="font-family:Roboto;font-size:10px;font-stretch:normal;font-style:normal;font-weight:normal;text-anchor:middle;" transform="rotate(-0, 135.883899, 49.914525)" x="135.883899" y="49.914525">10</text>
   </g>
   <g id="text_29">
    <text style="font-family:Roboto;font-size:10px;font-stretch:normal;font-style:normal;font-weight:normal;text-anchor:middle;" transform="rotate(-0, 350.843869, 210.678025)" x="350.843869" y="210.678025">8</text>
   </g>
   <g id="text_30">
    <text style="font-family:Roboto;font-size:10px;font-stretch:normal;font-style:normal;font-weight:normal;text-anchor:middle;" transform="rotate(-0, 272.676607, 170.48715)" x="272.676607" y="170.48715">12</text>
   </g>
   <g id="text_31">
    <text style="font-family:Roboto;font-size:10px;font-stretch:normal;font-style:normal;font-weight:normal;text-anchor:middle;" transform="rotate(-0, 217.959524, 130.296275)" x="217.959524" y="130.296275">12</text>
   </g>
   <g id="text_32">
    <text style="font-family:Roboto;font-size:10px;font-stretch:normal;font-style:normal;font-weight:normal;text-anchor:middle;" transform="rotate(-0, 214.051161, 90.1054)" x="214.051161" y="90.1054">14</text>
   </g>
   <g id="text_33">
    <text style="font-family:Roboto;font-size:10px;font-stretch:normal;font-style:normal;font-weight:normal;text-anchor:middle;" transform="rotate(-0, 186.692619, 49.914525)" x="186.692619" y="49.914525">16</text>
   </g>
   <g id="text_34">
    <text style="font-family:Roboto;font-size:10px;font-stretch:normal;font-style:normal;font-weight:normal;text-anchor:middle;" transform="rotate(-0, 378.202411, 210.678025)" x="378.202411" y="210.678025">6</text>
   </g>
   <g id="text_35">
    <text style="font-family:Roboto;font-size:10px;font-stretch:normal;font-style:normal;font-weight:normal;text-anchor:middle;" transform="rotate(-0, 268.768244, 130.296275)" x="268.768244" y="130.296275">14</text>
   </g>
   <g id="text_36">
    <text style="font-family:Roboto;font-size:10px;font-stretch:normal;font-style:normal;font-weight:normal;text-anchor:middle;" transform="rotate(-0, 268.768244, 90.1054)" x="268.768244" y="90.1054">14</text>
   </g>
   <g id="text_37">
    <text style="font-family:Roboto;font-size:10px;font-stretch:normal;font-style:normal;font-weight:normal;text-anchor:middle;" transform="rotate(-0, 253.134792, 49.914525)" x="253.134792" y="49.914525">18</text>
   </g>
   <g id="text_38">
    <text style="font-family:Roboto;font-size:10px;font-stretch:normal;font-style:normal;font-weight:normal;text-anchor:middle;" transform="rotate(-0, 401.652589, 210.678025)" x="401.652589" y="210.678025">6</text>
   </g>
   <g id="text_39">
    <text style="font-family:Roboto;font-size:10px;font-stretch:normal;font-style:normal;font-weight:normal;text-anchor:middle;" transform="rotate(-0, 331.302054, 170.48715)" x="331.302054" y="170.48715">10</text>
   </g>
   <g id="text_40">
    <text style="font-family:Roboto;font-size:10px;font-stretch:normal;font-style:normal;font-weight:normal;text-anchor:middle;" transform="rotate(-0, 303.943512, 49.914525)" x="303.943512" y="49.914525">8</text>
   </g>
   <g id="text_41">
    <text style="font-family:Roboto;font-size:10px;font-stretch:normal;font-style:normal;font-weight:normal;text-anchor:middle;" transform="rotate(-0, 425.102768, 210.678025)" x="425.102768" y="210.678025">6</text>
   </g>
   <g id="text_42">
    <text style="font-family:Roboto;font-size:10px;font-stretch:normal;font-style:normal;font-weight:normal;text-anchor:middle;" transform="rotate(-0, 382.110774, 170.48715)" x="382.110774" y="170.48715">16</text>
   </g>
   <g id="text_43">
    <text style="font-family:Roboto;font-size:10px;font-stretch:normal;font-style:normal;font-weight:normal;text-anchor:middle;" transform="rotate(-0, 327.39369, 130.296275)" x="327.39369" y="130.296275">8</text>
   </g>
   <g id="text_44">
    <text style="font-family:Roboto;font-size:10px;font-stretch:normal;font-style:normal;font-weight:normal;text-anchor:middle;" transform="rotate(-0, 343.027143, 90.1054)" x="343.027143" y="90.1054">16</text>
   </g>
   <g id="text_45">
    <text style="font-family:Roboto;font-size:10px;font-stretch:normal;font-style:normal;font-weight:normal;text-anchor:middle;" transform="rotate(-0, 339.11878, 49.914525)" x="339.11878" y="49.914525">10</text>
   </g>
   <g id="text_46">
    <text style="font-family:Roboto;font-size:10px;font-stretch:normal;font-style:normal;font-weight:normal;text-anchor:middle;" transform="rotate(-0, 358.660595, 130.296275)" x="358.660595" y="130.296275">8</text>
   </g>
   <g id="text_47">
    <text style="font-family:Roboto;font-size:10px;font-stretch:normal;font-style:normal;font-weight:normal;text-anchor:middle;" transform="rotate(-0, 386.019137, 90.1054)" x="386.019137" y="90.1054">6</text>
   </g>
   <g id="text_48">
    <text style="font-family:Roboto;font-size:10px;font-stretch:normal;font-style:normal;font-weight:normal;text-anchor:middle;" transform="rotate(-0, 382.110774, 49.914525)" x="382.110774" y="49.914525">12</text>
   </g>
   <g id="text_49">
    <text style="font-family:Roboto;font-size:10px;font-stretch:normal;font-style:normal;font-weight:normal;text-anchor:middle;" transform="rotate(-0, 440.73622, 170.48715)" x="440.73622" y="170.48715">6</text>
   </g>
   <g id="text_50">
    <text style="font-family:Roboto;font-size:10px;font-stretch:normal;font-style:normal;font-weight:normal;text-anchor:middle;" transform="rotate(-0, 413.377679, 130.296275)" x="413.377679" y="130.296275">20</text>
   </g>
   <g id="text_51">
    <text style="font-family:Roboto;font-size:10px;font-stretch:normal;font-style:normal;font-weight:normal;text-anchor:middle;" transform="rotate(-0, 425.102768, 90.1054)" x="425.102768" y="90.1054">14</text>
   </g>
   <g id="text_52">
    <text style="font-family:Roboto;font-size:10px;font-stretch:normal;font-style:normal;font-weight:normal;text-anchor:middle;" transform="rotate(-0, 429.011131, 49.914525)" x="429.011131" y="49.914525">12</text>
   </g>
   <g id="text_53">
    <text style="font-family:Roboto;font-size:12px;font-stretch:normal;font-style:normal;font-weight:normal;text-anchor:middle;" transform="rotate(-0, 266.814062, 19.8)" x="266.814062" y="19.8">Reasons to choose current job: World</text>
   </g>
   <g id="legend_1">
    <g id="patch_49">
     <path d="M 52.317187 337.763156 
L 481.310938 337.763156 
Q 483.310938 337.763156 483.310938 335.763156 
L 483.310938 263.897531 
Q 483.310938 261.897531 481.310938 261.897531 
L 52.317187 261.897531 
Q 50.317187 261.897531 50.317187 263.897531 
L 50.317187 335.763156 
Q 50.317187 337.763156 52.317187 337.763156 
z
" style="fill:#ffffff;opacity:0.8;stroke:#cccccc;stroke-linejoin:miter;"/>
    </g>
    <g id="patch_50">
     <path d="M 54.317187 273.500656 
L 74.317187 273.500656 
L 74.317187 266.500656 
L 54.317187 266.500656 
z
" style="fill:#1f77b4;"/>
    </g>
    <g id="text_54">
     <text style="font-family:Roboto;font-size:10px;font-stretch:normal;font-style:normal;font-weight:normal;text-anchor:start;" transform="rotate(-0, 82.317187, 273.500656)" x="82.317187" y="273.500656">Freedom to choose own working practices</text>
    </g>
    <g id="patch_51">
     <path d="M 54.317187 288.085031 
L 74.317187 288.085031 
L 74.317187 281.085031 
L 54.317187 281.085031 
z
" style="fill:#ff7f0e;"/>
    </g>
    <g id="text_55">
     <text style="font-family:Roboto;font-size:10px;font-stretch:normal;font-style:normal;font-weight:normal;text-anchor:start;" transform="rotate(-0, 82.317187, 288.085031)" x="82.317187" y="288.085031">Desire to advance research</text>
    </g>
    <g id="patch_52">
     <path d="M 54.317187 302.616281 
L 74.317187 302.616281 
L 74.317187 295.616281 
L 54.317187 295.616281 
z
" style="fill:#2ca02c;"/>
    </g>
    <g id="text_56">
     <text style="font-family:Roboto;font-size:10px;font-stretch:normal;font-style:normal;font-weight:normal;text-anchor:start;" transform="rotate(-0, 82.317187, 302.616281)" x="82.317187" y="302.616281">Desire to work in a research environment</text>
    </g>
    <g id="patch_53">
     <path d="M 54.317187 317.147531 
L 74.317187 317.147531 
L 74.317187 310.147531 
L 54.317187 310.147531 
z
" style="fill:#d62728;"/>
    </g>
    <g id="text_57">
     <text style="font-family:Roboto;font-size:10px;font-stretch:normal;font-style:normal;font-weight:normal;text-anchor:start;" transform="rotate(-0, 82.317187, 317.147531)" x="82.317187" y="317.147531">Flexible working hours</text>
    </g>
    <g id="patch_54">
     <path d="M 54.317187 331.731906 
L 74.317187 331.731906 
L 74.317187 324.731906 
L 54.317187 324.731906 
z
" style="fill:#9467bd;"/>
    </g>
    <g id="text_58">
     <text style="font-family:Roboto;font-size:10px;font-stretch:normal;font-style:normal;font-weight:normal;text-anchor:start;" transform="rotate(-0, 82.317187, 331.731906)" x="82.317187" y="331.731906">I want to learn new skills</text>
    </g>
    <g id="patch_55">
     <path d="M 291.009375 273.500656 
L 311.009375 273.500656 
L 311.009375 266.500656 
L 291.009375 266.500656 
z
" style="fill:#8c564b;"/>
    </g>
    <g id="text_59">
     <text style="font-family:Roboto;font-size:10px;font-stretch:normal;font-style:normal;font-weight:normal;text-anchor:start;" transform="rotate(-0, 319.009375, 273.500656)" x="319.009375" y="273.500656">Opportunity for career advancement</text>
    </g>
    <g id="patch_56">
     <path d="M 291.009375 288.238156 
L 311.009375 288.238156 
L 311.009375 281.238156 
L 291.009375 281.238156 
z
" style="fill:#e377c2;"/>
    </g>
    <g id="text_60">
     <text style="font-family:Roboto;font-size:10px;font-stretch:normal;font-style:normal;font-weight:normal;text-anchor:start;" transform="rotate(-0, 319.009375, 288.238156)" x="319.009375" y="288.238156">Opportunity to develop software</text>
    </g>
    <g id="patch_57">
     <path d="M 291.009375 302.872531 
L 311.009375 302.872531 
L 311.009375 295.872531 
L 291.009375 295.872531 
z
" style="fill:#7f7f7f;"/>
    </g>
    <g id="text_61">
     <text style="font-family:Roboto;font-size:10px;font-stretch:normal;font-style:normal;font-weight:normal;text-anchor:start;" transform="rotate(-0, 319.009375, 302.872531)" x="319.009375" y="302.872531">The salary</text>
    </g>
    <g id="patch_58">
     <path d="M 291.009375 317.506906 
L 311.009375 317.506906 
L 311.009375 310.506906 
L 291.009375 310.506906 
z
" style="fill:#bcbd22;"/>
    </g>
    <g id="text_62">
     <text style="font-family:Roboto;font-size:10px;font-stretch:normal;font-style:normal;font-weight:normal;text-anchor:start;" transform="rotate(-0, 319.009375, 317.506906)" x="319.009375" y="317.506906">Ability to work across disciplines</text>
    </g>
   </g>
  </g>
 </g>
 <defs>
  <clipPath id="pc971403794">
   <rect height="200.954375" width="410.378125" x="61.625" y="25.8"/>
  </clipPath>
 </defs>
</svg>
