<?xml version="1.0" encoding="utf-8" standalone="no"?>
<!DOCTYPE svg PUBLIC "-//W3C//DTD SVG 1.1//EN"
  "http://www.w3.org/Graphics/SVG/1.1/DTD/svg11.dtd">
<!-- Created with matplotlib (https://matplotlib.org/) -->
<svg height="432pt" version="1.1" viewBox="0 0 576 432" width="576pt" xmlns="http://www.w3.org/2000/svg" xmlns:xlink="http://www.w3.org/1999/xlink">
 <metadata>
  <rdf:RDF xmlns:cc="http://creativecommons.org/ns#" xmlns:dc="http://purl.org/dc/elements/1.1/" xmlns:rdf="http://www.w3.org/1999/02/22-rdf-syntax-ns#">
   <cc:Work>
    <dc:type rdf:resource="http://purl.org/dc/dcmitype/StillImage"/>
    <dc:date>2021-03-09T17:54:51.152250</dc:date>
    <dc:format>image/svg+xml</dc:format>
    <dc:creator>
     <cc:Agent>
      <dc:title>Matplotlib v3.3.4, https://matplotlib.org/</dc:title>
     </cc:Agent>
    </dc:creator>
   </cc:Work>
  </rdf:RDF>
 </metadata>
 <defs>
  <style type="text/css">*{stroke-linecap:butt;stroke-linejoin:round;}</style>
 </defs>
 <g id="figure_1">
  <g id="patch_1">
   <path d="M 0 432 
L 576 432 
L 576 0 
L 0 0 
z
" style="fill:#ffffff;"/>
  </g>
  <g id="axes_1">
   <g id="patch_2">
    <path d="M 46.951563 381.1375 
L 278.471094 381.1375 
L 278.471094 33.980625 
L 46.951563 33.980625 
z
" style="fill:#ffffff;"/>
   </g>
   <g id="patch_3">
    <path clip-path="url(#pe0294733f2)" d="M 70.103516 365.357642 
L 255.319141 365.357642 
L 255.319141 239.118778 
L 70.103516 239.118778 
L 70.103516 365.357642 
z
" style="fill:#3274a1;stroke:#3f3f3f;stroke-linejoin:miter;stroke-width:1.5;"/>
   </g>
   <g id="matplotlib.axis_1">
    <g id="xtick_1">
     <g id="line2d_1">
      <defs>
       <path d="M 0 0 
L 0 3.5 
" id="m986e1804d3" style="stroke:#000000;stroke-width:0.8;"/>
      </defs>
      <g>
       <use style="stroke:#000000;stroke-width:0.8;" x="162.711328" xlink:href="#m986e1804d3" y="391.1375"/>
      </g>
     </g>
     <g id="text_1">
      <text style="font-family:Roboto;font-size:10px;font-stretch:normal;font-style:normal;font-weight:normal;text-anchor:middle;" transform="rotate(-0, 162.711328, 405.6375)" x="162.711328" y="405.6375">2018</text>
     </g>
    </g>
    <g id="text_2">
     <text style="font-family:Roboto;font-size:10px;font-stretch:normal;font-style:normal;font-weight:normal;text-anchor:middle;" transform="rotate(-0, 162.711328, 419.16875)" x="162.711328" y="419.16875">Year</text>
    </g>
   </g>
   <g id="matplotlib.axis_2">
    <g id="ytick_1">
     <g id="line2d_2">
      <defs>
       <path d="M 0 0 
L -3.5 0 
" id="m82eff2b7aa" style="stroke:#000000;stroke-width:0.8;"/>
      </defs>
      <g>
       <use style="stroke:#000000;stroke-width:0.8;" x="36.951563" xlink:href="#m82eff2b7aa" y="365.357642"/>
      </g>
     </g>
     <g id="text_3">
      <text style="font-family:Roboto;font-size:10px;font-stretch:normal;font-style:normal;font-weight:normal;text-anchor:end;" transform="rotate(-0, 29.951563, 369.107642)" x="29.951563" y="369.107642">0</text>
     </g>
    </g>
    <g id="ytick_2">
     <g id="line2d_3">
      <g>
       <use style="stroke:#000000;stroke-width:0.8;" x="36.951563" xlink:href="#m82eff2b7aa" y="302.23821"/>
      </g>
     </g>
     <g id="text_4">
      <text style="font-family:Roboto;font-size:10px;font-stretch:normal;font-style:normal;font-weight:normal;text-anchor:end;" transform="rotate(-0, 29.951563, 305.98821)" x="29.951563" y="305.98821">1</text>
     </g>
    </g>
    <g id="ytick_3">
     <g id="line2d_4">
      <g>
       <use style="stroke:#000000;stroke-width:0.8;" x="36.951563" xlink:href="#m82eff2b7aa" y="239.118778"/>
      </g>
     </g>
     <g id="text_5">
      <text style="font-family:Roboto;font-size:10px;font-stretch:normal;font-style:normal;font-weight:normal;text-anchor:end;" transform="rotate(-0, 29.951563, 242.868778)" x="29.951563" y="242.868778">2</text>
     </g>
    </g>
    <g id="ytick_4">
     <g id="line2d_5">
      <g>
       <use style="stroke:#000000;stroke-width:0.8;" x="36.951563" xlink:href="#m82eff2b7aa" y="175.999347"/>
      </g>
     </g>
     <g id="text_6">
      <text style="font-family:Roboto;font-size:10px;font-stretch:normal;font-style:normal;font-weight:normal;text-anchor:end;" transform="rotate(-0, 29.951563, 179.749347)" x="29.951563" y="179.749347">3</text>
     </g>
    </g>
    <g id="ytick_5">
     <g id="line2d_6">
      <g>
       <use style="stroke:#000000;stroke-width:0.8;" x="36.951563" xlink:href="#m82eff2b7aa" y="112.879915"/>
      </g>
     </g>
     <g id="text_7">
      <text style="font-family:Roboto;font-size:10px;font-stretch:normal;font-style:normal;font-weight:normal;text-anchor:end;" transform="rotate(-0, 29.951563, 116.629915)" x="29.951563" y="116.629915">4</text>
     </g>
    </g>
    <g id="ytick_6">
     <g id="line2d_7">
      <g>
       <use style="stroke:#000000;stroke-width:0.8;" x="36.951563" xlink:href="#m82eff2b7aa" y="49.760483"/>
      </g>
     </g>
     <g id="text_8">
      <text style="font-family:Roboto;font-size:10px;font-stretch:normal;font-style:normal;font-weight:normal;text-anchor:end;" transform="rotate(-0, 29.951563, 53.510483)" x="29.951563" y="53.510483">5</text>
     </g>
    </g>
    <g id="text_9">
     <text style="font-family:Roboto;font-size:10px;font-stretch:normal;font-style:normal;font-weight:normal;text-anchor:middle;" transform="rotate(-90, 18.3, 207.559063)" x="18.3" y="207.559063">Value</text>
    </g>
   </g>
   <g id="line2d_8">
    <path clip-path="url(#pe0294733f2)" d="M 162.711328 365.357642 
L 162.711328 365.357642 
" style="fill:none;stroke:#3f3f3f;stroke-linecap:square;stroke-width:1.5;"/>
   </g>
   <g id="line2d_9">
    <path clip-path="url(#pe0294733f2)" d="M 162.711328 239.118778 
L 162.711328 49.760483 
" style="fill:none;stroke:#3f3f3f;stroke-linecap:square;stroke-width:1.5;"/>
   </g>
   <g id="line2d_10">
    <path clip-path="url(#pe0294733f2)" d="M 116.407422 365.357642 
L 209.015234 365.357642 
" style="fill:none;stroke:#3f3f3f;stroke-linecap:square;stroke-width:1.5;"/>
   </g>
   <g id="line2d_11">
    <path clip-path="url(#pe0294733f2)" d="M 116.407422 49.760483 
L 209.015234 49.760483 
" style="fill:none;stroke:#3f3f3f;stroke-linecap:square;stroke-width:1.5;"/>
   </g>
   <g id="line2d_12"/>
   <g id="line2d_13">
    <path clip-path="url(#pe0294733f2)" d="M 70.103516 302.23821 
L 255.319141 302.23821 
" style="fill:none;stroke:#3f3f3f;stroke-linecap:square;stroke-width:1.5;"/>
   </g>
   <g id="patch_4">
    <path d="M 36.951563 365.357642 
L 36.951563 49.760483 
" style="fill:none;stroke:#000000;stroke-linecap:square;stroke-linejoin:miter;stroke-width:0.8;"/>
   </g>
   <g id="patch_5">
    <path d="M 162.711328 391.1375 
L 162.711328 391.1375 
" style="fill:none;stroke:#000000;stroke-linecap:square;stroke-linejoin:miter;stroke-width:0.8;"/>
   </g>
   <g id="PathCollection_1">
    <defs>
     <path d="M 0 2.5 
C 0.663008 2.5 1.29895 2.236584 1.767767 1.767767 
C 2.236584 1.29895 2.5 0.663008 2.5 -0 
C 2.5 -0.663008 2.236584 -1.29895 1.767767 -1.767767 
C 1.29895 -2.236584 0.663008 -2.5 0 -2.5 
C -0.663008 -2.5 -1.29895 -2.236584 -1.767767 -1.767767 
C -2.236584 -1.29895 -2.5 -0.663008 -2.5 0 
C -2.5 0.663008 -2.236584 1.29895 -1.767767 1.767767 
C -1.29895 2.236584 -0.663008 2.5 0 2.5 
z
" id="C0_0_e3e98448d3"/>
    </defs>
    <g clip-path="url(#pe0294733f2)">
     <use style="fill:#808080;fill-opacity:0.75;" x="162.711328" xlink:href="#C0_0_e3e98448d3" y="365.357642"/>
    </g>
    <g clip-path="url(#pe0294733f2)">
     <use style="fill:#808080;fill-opacity:0.75;" x="156.721071" xlink:href="#C0_0_e3e98448d3" y="365.357642"/>
    </g>
    <g clip-path="url(#pe0294733f2)">
     <use style="fill:#808080;fill-opacity:0.75;" x="168.701585" xlink:href="#C0_0_e3e98448d3" y="365.357642"/>
    </g>
    <g clip-path="url(#pe0294733f2)">
     <use style="fill:#808080;fill-opacity:0.75;" x="150.730815" xlink:href="#C0_0_e3e98448d3" y="365.357642"/>
    </g>
    <g clip-path="url(#pe0294733f2)">
     <use style="fill:#808080;fill-opacity:0.75;" x="174.691842" xlink:href="#C0_0_e3e98448d3" y="365.357642"/>
    </g>
    <g clip-path="url(#pe0294733f2)">
     <use style="fill:#808080;fill-opacity:0.75;" x="144.740558" xlink:href="#C0_0_e3e98448d3" y="365.357642"/>
    </g>
    <g clip-path="url(#pe0294733f2)">
     <use style="fill:#808080;fill-opacity:0.75;" x="180.682098" xlink:href="#C0_0_e3e98448d3" y="365.357642"/>
    </g>
    <g clip-path="url(#pe0294733f2)">
     <use style="fill:#808080;fill-opacity:0.75;" x="138.750301" xlink:href="#C0_0_e3e98448d3" y="365.357642"/>
    </g>
    <g clip-path="url(#pe0294733f2)">
     <use style="fill:#808080;fill-opacity:0.75;" x="186.672355" xlink:href="#C0_0_e3e98448d3" y="365.357642"/>
    </g>
    <g clip-path="url(#pe0294733f2)">
     <use style="fill:#808080;fill-opacity:0.75;" x="132.760045" xlink:href="#C0_0_e3e98448d3" y="365.357642"/>
    </g>
    <g clip-path="url(#pe0294733f2)">
     <use style="fill:#808080;fill-opacity:0.75;" x="192.662612" xlink:href="#C0_0_e3e98448d3" y="365.357642"/>
    </g>
    <g clip-path="url(#pe0294733f2)">
     <use style="fill:#808080;fill-opacity:0.75;" x="126.769788" xlink:href="#C0_0_e3e98448d3" y="365.357642"/>
    </g>
    <g clip-path="url(#pe0294733f2)">
     <use style="fill:#808080;fill-opacity:0.75;" x="198.652868" xlink:href="#C0_0_e3e98448d3" y="365.357642"/>
    </g>
    <g clip-path="url(#pe0294733f2)">
     <use style="fill:#808080;fill-opacity:0.75;" x="162.711328" xlink:href="#C0_0_e3e98448d3" y="333.797926"/>
    </g>
    <g clip-path="url(#pe0294733f2)">
     <use style="fill:#808080;fill-opacity:0.75;" x="162.711328" xlink:href="#C0_0_e3e98448d3" y="302.23821"/>
    </g>
    <g clip-path="url(#pe0294733f2)">
     <use style="fill:#808080;fill-opacity:0.75;" x="156.721071" xlink:href="#C0_0_e3e98448d3" y="302.23821"/>
    </g>
    <g clip-path="url(#pe0294733f2)">
     <use style="fill:#808080;fill-opacity:0.75;" x="168.701585" xlink:href="#C0_0_e3e98448d3" y="302.23821"/>
    </g>
    <g clip-path="url(#pe0294733f2)">
     <use style="fill:#808080;fill-opacity:0.75;" x="150.730815" xlink:href="#C0_0_e3e98448d3" y="302.23821"/>
    </g>
    <g clip-path="url(#pe0294733f2)">
     <use style="fill:#808080;fill-opacity:0.75;" x="174.691842" xlink:href="#C0_0_e3e98448d3" y="302.23821"/>
    </g>
    <g clip-path="url(#pe0294733f2)">
     <use style="fill:#808080;fill-opacity:0.75;" x="144.740558" xlink:href="#C0_0_e3e98448d3" y="302.23821"/>
    </g>
    <g clip-path="url(#pe0294733f2)">
     <use style="fill:#808080;fill-opacity:0.75;" x="180.682098" xlink:href="#C0_0_e3e98448d3" y="302.23821"/>
    </g>
    <g clip-path="url(#pe0294733f2)">
     <use style="fill:#808080;fill-opacity:0.75;" x="162.711328" xlink:href="#C0_0_e3e98448d3" y="239.118778"/>
    </g>
    <g clip-path="url(#pe0294733f2)">
     <use style="fill:#808080;fill-opacity:0.75;" x="156.721071" xlink:href="#C0_0_e3e98448d3" y="239.118778"/>
    </g>
    <g clip-path="url(#pe0294733f2)">
     <use style="fill:#808080;fill-opacity:0.75;" x="168.701585" xlink:href="#C0_0_e3e98448d3" y="239.118778"/>
    </g>
    <g clip-path="url(#pe0294733f2)">
     <use style="fill:#808080;fill-opacity:0.75;" x="150.730815" xlink:href="#C0_0_e3e98448d3" y="239.118778"/>
    </g>
    <g clip-path="url(#pe0294733f2)">
     <use style="fill:#808080;fill-opacity:0.75;" x="174.691842" xlink:href="#C0_0_e3e98448d3" y="239.118778"/>
    </g>
    <g clip-path="url(#pe0294733f2)">
     <use style="fill:#808080;fill-opacity:0.75;" x="144.740558" xlink:href="#C0_0_e3e98448d3" y="239.118778"/>
    </g>
    <g clip-path="url(#pe0294733f2)">
     <use style="fill:#808080;fill-opacity:0.75;" x="180.682098" xlink:href="#C0_0_e3e98448d3" y="239.118778"/>
    </g>
    <g clip-path="url(#pe0294733f2)">
     <use style="fill:#808080;fill-opacity:0.75;" x="138.750301" xlink:href="#C0_0_e3e98448d3" y="239.118778"/>
    </g>
    <g clip-path="url(#pe0294733f2)">
     <use style="fill:#808080;fill-opacity:0.75;" x="186.672355" xlink:href="#C0_0_e3e98448d3" y="239.118778"/>
    </g>
    <g clip-path="url(#pe0294733f2)">
     <use style="fill:#808080;fill-opacity:0.75;" x="162.711328" xlink:href="#C0_0_e3e98448d3" y="112.879915"/>
    </g>
    <g clip-path="url(#pe0294733f2)">
     <use style="fill:#808080;fill-opacity:0.75;" x="162.711328" xlink:href="#C0_0_e3e98448d3" y="49.760483"/>
    </g>
   </g>
  </g>
  <g id="axes_2">
   <g id="patch_6">
    <path d="M 333.680469 381.1375 
L 565.2 381.1375 
L 565.2 33.980625 
L 333.680469 33.980625 
z
" style="fill:#ffffff;"/>
   </g>
   <g id="patch_7">
    <path clip-path="url(#p1e474e92c7)" d="M 388.932454 381.1375 
L 396.495926 381.1375 
L 396.495926 50.511905 
L 388.932454 50.511905 
z
" style="fill:#1f77b4;opacity:0.4;"/>
   </g>
   <g id="patch_8">
    <path clip-path="url(#p1e474e92c7)" d="M 396.495926 381.1375 
L 404.059399 381.1375 
L 404.059399 355.704762 
L 396.495926 355.704762 
z
" style="fill:#1f77b4;opacity:0.4;"/>
   </g>
   <g id="patch_9">
    <path clip-path="url(#p1e474e92c7)" d="M 404.059399 381.1375 
L 411.622872 381.1375 
L 411.622872 381.1375 
L 404.059399 381.1375 
z
" style="fill:#1f77b4;opacity:0.4;"/>
   </g>
   <g id="patch_10">
    <path clip-path="url(#p1e474e92c7)" d="M 411.622872 381.1375 
L 419.186344 381.1375 
L 419.186344 203.108333 
L 411.622872 203.108333 
z
" style="fill:#1f77b4;opacity:0.4;"/>
   </g>
   <g id="patch_11">
    <path clip-path="url(#p1e474e92c7)" d="M 419.186344 381.1375 
L 426.749817 381.1375 
L 426.749817 381.1375 
L 419.186344 381.1375 
z
" style="fill:#1f77b4;opacity:0.4;"/>
   </g>
   <g id="patch_12">
    <path clip-path="url(#p1e474e92c7)" d="M 426.749817 381.1375 
L 434.313289 381.1375 
L 434.313289 381.1375 
L 426.749817 381.1375 
z
" style="fill:#1f77b4;opacity:0.4;"/>
   </g>
   <g id="patch_13">
    <path clip-path="url(#p1e474e92c7)" d="M 434.313289 381.1375 
L 441.876762 381.1375 
L 441.876762 152.242857 
L 434.313289 152.242857 
z
" style="fill:#1f77b4;opacity:0.4;"/>
   </g>
   <g id="patch_14">
    <path clip-path="url(#p1e474e92c7)" d="M 441.876762 381.1375 
L 449.440234 381.1375 
L 449.440234 381.1375 
L 441.876762 381.1375 
z
" style="fill:#1f77b4;opacity:0.4;"/>
   </g>
   <g id="patch_15">
    <path clip-path="url(#p1e474e92c7)" d="M 449.440234 381.1375 
L 457.003707 381.1375 
L 457.003707 381.1375 
L 449.440234 381.1375 
z
" style="fill:#1f77b4;opacity:0.4;"/>
   </g>
   <g id="patch_16">
    <path clip-path="url(#p1e474e92c7)" d="M 457.003707 381.1375 
L 464.567179 381.1375 
L 464.567179 381.1375 
L 457.003707 381.1375 
z
" style="fill:#1f77b4;opacity:0.4;"/>
   </g>
   <g id="patch_17">
    <path clip-path="url(#p1e474e92c7)" d="M 464.567179 381.1375 
L 472.130652 381.1375 
L 472.130652 381.1375 
L 464.567179 381.1375 
z
" style="fill:#1f77b4;opacity:0.4;"/>
   </g>
   <g id="patch_18">
    <path clip-path="url(#p1e474e92c7)" d="M 472.130652 381.1375 
L 479.694125 381.1375 
L 479.694125 381.1375 
L 472.130652 381.1375 
z
" style="fill:#1f77b4;opacity:0.4;"/>
   </g>
   <g id="patch_19">
    <path clip-path="url(#p1e474e92c7)" d="M 479.694125 381.1375 
L 487.257597 381.1375 
L 487.257597 355.704762 
L 479.694125 355.704762 
z
" style="fill:#1f77b4;opacity:0.4;"/>
   </g>
   <g id="patch_20">
    <path clip-path="url(#p1e474e92c7)" d="M 487.257597 381.1375 
L 494.82107 381.1375 
L 494.82107 381.1375 
L 487.257597 381.1375 
z
" style="fill:#1f77b4;opacity:0.4;"/>
   </g>
   <g id="patch_21">
    <path clip-path="url(#p1e474e92c7)" d="M 494.82107 381.1375 
L 502.384542 381.1375 
L 502.384542 381.1375 
L 494.82107 381.1375 
z
" style="fill:#1f77b4;opacity:0.4;"/>
   </g>
   <g id="patch_22">
    <path clip-path="url(#p1e474e92c7)" d="M 502.384542 381.1375 
L 509.948015 381.1375 
L 509.948015 355.704762 
L 502.384542 355.704762 
z
" style="fill:#1f77b4;opacity:0.4;"/>
   </g>
   <g id="matplotlib.axis_3">
    <g id="xtick_2">
     <g id="line2d_14">
      <g>
       <use style="stroke:#000000;stroke-width:0.8;" x="340.52623" xlink:href="#m986e1804d3" y="391.1375"/>
      </g>
     </g>
     <g id="text_10">
      <text style="font-family:Roboto;font-size:10px;font-stretch:normal;font-style:normal;font-weight:normal;text-anchor:middle;" transform="rotate(-0, 340.52623, 405.6375)" x="340.52623" y="405.6375">−2</text>
     </g>
    </g>
    <g id="xtick_3">
     <g id="line2d_15">
      <g>
       <use style="stroke:#000000;stroke-width:0.8;" x="388.932454" xlink:href="#m986e1804d3" y="391.1375"/>
      </g>
     </g>
     <g id="text_11">
      <text style="font-family:Roboto;font-size:10px;font-stretch:normal;font-style:normal;font-weight:normal;text-anchor:middle;" transform="rotate(-0, 388.932454, 405.6375)" x="388.932454" y="405.6375">0</text>
     </g>
    </g>
    <g id="xtick_4">
     <g id="line2d_16">
      <g>
       <use style="stroke:#000000;stroke-width:0.8;" x="437.338678" xlink:href="#m986e1804d3" y="391.1375"/>
      </g>
     </g>
     <g id="text_12">
      <text style="font-family:Roboto;font-size:10px;font-stretch:normal;font-style:normal;font-weight:normal;text-anchor:middle;" transform="rotate(-0, 437.338678, 405.6375)" x="437.338678" y="405.6375">2</text>
     </g>
    </g>
    <g id="xtick_5">
     <g id="line2d_17">
      <g>
       <use style="stroke:#000000;stroke-width:0.8;" x="485.744903" xlink:href="#m986e1804d3" y="391.1375"/>
      </g>
     </g>
     <g id="text_13">
      <text style="font-family:Roboto;font-size:10px;font-stretch:normal;font-style:normal;font-weight:normal;text-anchor:middle;" transform="rotate(-0, 485.744903, 405.6375)" x="485.744903" y="405.6375">4</text>
     </g>
    </g>
    <g id="xtick_6">
     <g id="line2d_18">
      <g>
       <use style="stroke:#000000;stroke-width:0.8;" x="534.151127" xlink:href="#m986e1804d3" y="391.1375"/>
      </g>
     </g>
     <g id="text_14">
      <text style="font-family:Roboto;font-size:10px;font-stretch:normal;font-style:normal;font-weight:normal;text-anchor:middle;" transform="rotate(-0, 534.151127, 405.6375)" x="534.151127" y="405.6375">6</text>
     </g>
    </g>
    <g id="text_15">
     <text style="font-family:Roboto;font-size:10px;font-stretch:normal;font-style:normal;font-weight:normal;text-anchor:middle;" transform="rotate(-0, 449.440234, 419.16875)" x="449.440234" y="419.16875">Value</text>
    </g>
   </g>
   <g id="matplotlib.axis_4">
    <g id="ytick_7">
     <g id="line2d_19">
      <g>
       <use style="stroke:#000000;stroke-width:0.8;" x="323.680469" xlink:href="#m82eff2b7aa" y="381.1375"/>
      </g>
     </g>
     <g id="text_16">
      <text style="font-family:Roboto;font-size:10px;font-stretch:normal;font-style:normal;font-weight:normal;text-anchor:end;" transform="rotate(-0, 316.680469, 384.8875)" x="316.680469" y="384.8875">0.0</text>
     </g>
    </g>
    <g id="ytick_8">
     <g id="line2d_20">
      <g>
       <use style="stroke:#000000;stroke-width:0.8;" x="323.680469" xlink:href="#m82eff2b7aa" y="330.272024"/>
      </g>
     </g>
     <g id="text_17">
      <text style="font-family:Roboto;font-size:10px;font-stretch:normal;font-style:normal;font-weight:normal;text-anchor:end;" transform="rotate(-0, 316.680469, 334.022024)" x="316.680469" y="334.022024">0.2</text>
     </g>
    </g>
    <g id="ytick_9">
     <g id="line2d_21">
      <g>
       <use style="stroke:#000000;stroke-width:0.8;" x="323.680469" xlink:href="#m82eff2b7aa" y="279.406548"/>
      </g>
     </g>
     <g id="text_18">
      <text style="font-family:Roboto;font-size:10px;font-stretch:normal;font-style:normal;font-weight:normal;text-anchor:end;" transform="rotate(-0, 316.680469, 283.156548)" x="316.680469" y="283.156548">0.4</text>
     </g>
    </g>
    <g id="ytick_10">
     <g id="line2d_22">
      <g>
       <use style="stroke:#000000;stroke-width:0.8;" x="323.680469" xlink:href="#m82eff2b7aa" y="228.541071"/>
      </g>
     </g>
     <g id="text_19">
      <text style="font-family:Roboto;font-size:10px;font-stretch:normal;font-style:normal;font-weight:normal;text-anchor:end;" transform="rotate(-0, 316.680469, 232.291071)" x="316.680469" y="232.291071">0.6</text>
     </g>
    </g>
    <g id="ytick_11">
     <g id="line2d_23">
      <g>
       <use style="stroke:#000000;stroke-width:0.8;" x="323.680469" xlink:href="#m82eff2b7aa" y="177.675595"/>
      </g>
     </g>
     <g id="text_20">
      <text style="font-family:Roboto;font-size:10px;font-stretch:normal;font-style:normal;font-weight:normal;text-anchor:end;" transform="rotate(-0, 316.680469, 181.425595)" x="316.680469" y="181.425595">0.8</text>
     </g>
    </g>
    <g id="ytick_12">
     <g id="line2d_24">
      <g>
       <use style="stroke:#000000;stroke-width:0.8;" x="323.680469" xlink:href="#m82eff2b7aa" y="126.810119"/>
      </g>
     </g>
     <g id="text_21">
      <text style="font-family:Roboto;font-size:10px;font-stretch:normal;font-style:normal;font-weight:normal;text-anchor:end;" transform="rotate(-0, 316.680469, 130.560119)" x="316.680469" y="130.560119">1.0</text>
     </g>
    </g>
    <g id="ytick_13">
     <g id="line2d_25">
      <g>
       <use style="stroke:#000000;stroke-width:0.8;" x="323.680469" xlink:href="#m82eff2b7aa" y="75.944643"/>
      </g>
     </g>
     <g id="text_22">
      <text style="font-family:Roboto;font-size:10px;font-stretch:normal;font-style:normal;font-weight:normal;text-anchor:end;" transform="rotate(-0, 316.680469, 79.694643)" x="316.680469" y="79.694643">1.2</text>
     </g>
    </g>
    <g id="text_23">
     <text style="font-family:Roboto;font-size:10px;font-stretch:normal;font-style:normal;font-weight:normal;text-anchor:middle;" transform="rotate(-90, 296.667969, 207.559063)" x="296.667969" y="207.559063">Density</text>
    </g>
   </g>
   <g id="line2d_26">
    <path clip-path="url(#p1e474e92c7)" d="M 344.204084 380.389746 
L 347.377033 379.751421 
L 349.492333 379.0975 
L 351.607632 378.194352 
L 353.722932 376.975046 
L 355.838231 375.36636 
L 357.953531 373.292874 
L 360.06883 370.68284 
L 362.18413 367.475643 
L 364.299429 363.630387 
L 366.414729 359.134761 
L 368.530028 354.01308 
L 370.645328 348.33219 
L 373.818277 339.019058 
L 380.164175 319.76517 
L 382.279475 313.949578 
L 384.394774 308.787507 
L 386.510074 304.447352 
L 387.567724 302.624784 
L 388.625373 301.047697 
L 389.683023 299.721653 
L 390.740673 298.648311 
L 391.798323 297.825499 
L 392.855973 297.247379 
L 393.913622 296.904705 
L 394.971272 296.785156 
L 396.028922 296.873737 
L 397.086572 297.153224 
L 398.144221 297.604644 
L 399.201871 298.207759 
L 401.317171 299.784728 
L 403.43247 301.714906 
L 411.893668 310.046322 
L 414.008968 311.762498 
L 416.124267 313.223988 
L 418.239567 314.427445 
L 420.354866 315.397289 
L 423.527815 316.5319 
L 428.816064 318.292491 
L 430.931364 319.265878 
L 433.046663 320.559901 
L 435.161963 322.268415 
L 437.277262 324.458622 
L 439.392562 327.162444 
L 441.507861 330.371346 
L 443.623161 334.035486 
L 446.79611 340.185598 
L 455.257308 357.320092 
L 457.372608 361.056239 
L 459.487907 364.372465 
L 461.603207 367.217098 
L 463.718506 369.568915 
L 465.833806 371.434479 
L 467.949105 372.843553 
L 470.064405 373.843399 
L 472.179704 374.492702 
L 474.295004 374.855758 
L 476.410303 374.99735 
L 479.583252 374.926402 
L 484.871501 374.460248 
L 491.2174 373.920032 
L 496.505648 373.724941 
L 500.736247 373.774531 
L 504.966846 374.026236 
L 509.197446 374.502776 
L 513.428045 375.210403 
L 518.716293 376.361487 
L 530.350441 379.060816 
L 534.58104 379.798733 
L 538.811639 380.33817 
L 544.099887 380.761646 
L 550.445786 381.008419 
L 554.676385 381.080203 
L 554.676385 381.080203 
" style="fill:none;stroke:#1f77b4;stroke-linecap:square;stroke-width:1.5;"/>
   </g>
   <g id="patch_23">
    <path d="M 323.680469 381.1375 
L 323.680469 75.944643 
" style="fill:none;stroke:#000000;stroke-linecap:square;stroke-linejoin:miter;stroke-width:0.8;"/>
   </g>
   <g id="patch_24">
    <path d="M 340.52623 391.1375 
L 534.151127 391.1375 
" style="fill:none;stroke:#000000;stroke-linecap:square;stroke-linejoin:miter;stroke-width:0.8;"/>
   </g>
   <g id="legend_1">
    <g id="patch_25">
     <path d="M 503.71875 56.511875 
L 558.2 56.511875 
Q 560.2 56.511875 560.2 54.511875 
L 560.2 40.980625 
Q 560.2 38.980625 558.2 38.980625 
L 503.71875 38.980625 
Q 501.71875 38.980625 501.71875 40.980625 
L 501.71875 54.511875 
Q 501.71875 56.511875 503.71875 56.511875 
z
" style="fill:#ffffff;opacity:0.8;stroke:#cccccc;stroke-linejoin:miter;"/>
    </g>
    <g id="patch_26">
     <path d="M 505.71875 50.480625 
L 525.71875 50.480625 
L 525.71875 43.480625 
L 505.71875 43.480625 
z
" style="fill:#1f77b4;opacity:0.4;"/>
    </g>
    <g id="text_24">
     <text style="font-family:Roboto;font-size:10px;font-stretch:normal;font-style:normal;font-weight:normal;text-anchor:start;" transform="rotate(-0, 533.71875, 50.480625)" x="533.71875" y="50.480625">2018</text>
    </g>
   </g>
  </g>
  <g id="text_25">
   <text style="font-family:Roboto;font-size:12px;font-stretch:normal;font-style:normal;font-weight:normal;text-anchor:middle;" transform="rotate(-0, 288, 18.26625)" x="288" y="18.26625">Number of time per year providing training for New Zealand (without 95 percentile)</text>
  </g>
 </g>
 <defs>
  <clipPath id="pe0294733f2">
   <rect height="347.156875" width="231.519531" x="46.951563" y="33.980625"/>
  </clipPath>
  <clipPath id="p1e474e92c7">
   <rect height="347.156875" width="231.519531" x="333.680469" y="33.980625"/>
  </clipPath>
 </defs>
</svg>
