<?xml version="1.0" encoding="utf-8" standalone="no"?>
<!DOCTYPE svg PUBLIC "-//W3C//DTD SVG 1.1//EN"
  "http://www.w3.org/Graphics/SVG/1.1/DTD/svg11.dtd">
<svg xmlns:xlink="http://www.w3.org/1999/xlink" width="432pt" height="576pt" viewBox="0 0 432 576" xmlns="http://www.w3.org/2000/svg" version="1.1">
 <metadata>
  <rdf:RDF xmlns:dc="http://purl.org/dc/elements/1.1/" xmlns:cc="http://creativecommons.org/ns#" xmlns:rdf="http://www.w3.org/1999/02/22-rdf-syntax-ns#">
   <cc:Work>
    <dc:type rdf:resource="http://purl.org/dc/dcmitype/StillImage"/>
    <dc:date>2022-03-21T16:11:27.308636</dc:date>
    <dc:format>image/svg+xml</dc:format>
    <dc:creator>
     <cc:Agent>
      <dc:title>Matplotlib v3.5.1, https://matplotlib.org/</dc:title>
     </cc:Agent>
    </dc:creator>
   </cc:Work>
  </rdf:RDF>
 </metadata>
 <defs>
  <style type="text/css">*{stroke-linejoin: round; stroke-linecap: butt}</style>
 </defs>
 <g id="figure_1">
  <g id="patch_1">
   <path d="M 0 576 
L 432 576 
L 432 0 
L 0 0 
z
" style="fill: #ffffff"/>
  </g>
  <g id="axes_1">
   <g id="patch_2">
    <path d="M 102.460938 499.14664 
L 421.2 499.14664 
L 421.2 25.53 
L 102.460938 25.53 
z
" style="fill: #ffffff"/>
   </g>
   <g id="patch_3">
    <path d="M 102.460938 40.33052 
L 371.776688 40.33052 
L 371.776688 50.197533 
L 102.460938 50.197533 
z
" clip-path="url(#p3207f3d4cc)" style="fill: #1f77b4"/>
   </g>
   <g id="patch_4">
    <path d="M 102.460938 99.5326 
L 285.174035 99.5326 
L 285.174035 109.399613 
L 102.460938 109.399613 
z
" clip-path="url(#p3207f3d4cc)" style="fill: #1f77b4"/>
   </g>
   <g id="patch_5">
    <path d="M 102.460938 158.73468 
L 321.140164 158.73468 
L 321.140164 168.601693 
L 102.460938 168.601693 
z
" clip-path="url(#p3207f3d4cc)" style="fill: #1f77b4"/>
   </g>
   <g id="patch_6">
    <path d="M 102.460938 217.93676 
L 274.547679 217.93676 
L 274.547679 227.803773 
L 102.460938 227.803773 
z
" clip-path="url(#p3207f3d4cc)" style="fill: #1f77b4"/>
   </g>
   <g id="patch_7">
    <path d="M 102.460938 277.13884 
L 222.921657 277.13884 
L 222.921657 287.005853 
L 102.460938 287.005853 
z
" clip-path="url(#p3207f3d4cc)" style="fill: #1f77b4"/>
   </g>
   <g id="patch_8">
    <path d="M 102.460938 336.34092 
L 406.021949 336.34092 
L 406.021949 346.207933 
L 102.460938 346.207933 
z
" clip-path="url(#p3207f3d4cc)" style="fill: #1f77b4"/>
   </g>
   <g id="patch_9">
    <path d="M 102.460938 395.543 
L 314.084608 395.543 
L 314.084608 405.410013 
L 102.460938 405.410013 
z
" clip-path="url(#p3207f3d4cc)" style="fill: #1f77b4"/>
   </g>
   <g id="patch_10">
    <path d="M 102.460938 454.74508 
L 215.392862 454.74508 
L 215.392862 464.612093 
L 102.460938 464.612093 
z
" clip-path="url(#p3207f3d4cc)" style="fill: #1f77b4"/>
   </g>
   <g id="patch_11">
    <path d="M 102.460938 50.197533 
L 151.720767 50.197533 
L 151.720767 60.064547 
L 102.460938 60.064547 
z
" clip-path="url(#p3207f3d4cc)" style="fill: #ff7f0e"/>
   </g>
   <g id="patch_12">
    <path d="M 102.460938 109.399613 
L 313.568348 109.399613 
L 313.568348 119.266627 
L 102.460938 119.266627 
z
" clip-path="url(#p3207f3d4cc)" style="fill: #ff7f0e"/>
   </g>
   <g id="patch_13">
    <path d="M 102.460938 168.601693 
L 288.8739 168.601693 
L 288.8739 178.468707 
L 102.460938 178.468707 
z
" clip-path="url(#p3207f3d4cc)" style="fill: #ff7f0e"/>
   </g>
   <g id="patch_14">
    <path d="M 102.460938 227.803773 
L 221.587984 227.803773 
L 221.587984 237.670787 
L 102.460938 237.670787 
z
" clip-path="url(#p3207f3d4cc)" style="fill: #ff7f0e"/>
   </g>
   <g id="patch_15">
    <path d="M 102.460938 287.005853 
L 205.712982 287.005853 
L 205.712982 296.872867 
L 102.460938 296.872867 
z
" clip-path="url(#p3207f3d4cc)" style="fill: #ff7f0e"/>
   </g>
   <g id="patch_16">
    <path d="M 102.460938 346.207933 
L 189.32172 346.207933 
L 189.32172 356.074947 
L 102.460938 356.074947 
z
" clip-path="url(#p3207f3d4cc)" style="fill: #ff7f0e"/>
   </g>
   <g id="patch_17">
    <path d="M 102.460938 405.410013 
L 217.371859 405.410013 
L 217.371859 415.277027 
L 102.460938 415.277027 
z
" clip-path="url(#p3207f3d4cc)" style="fill: #ff7f0e"/>
   </g>
   <g id="patch_18">
    <path d="M 102.460938 464.612093 
L 184.46027 464.612093 
L 184.46027 474.479107 
L 102.460938 474.479107 
z
" clip-path="url(#p3207f3d4cc)" style="fill: #ff7f0e"/>
   </g>
   <g id="patch_19">
    <path d="M 102.460938 60.064547 
L 214.102211 60.064547 
L 214.102211 69.93156 
L 102.460938 69.93156 
z
" clip-path="url(#p3207f3d4cc)" style="fill: #2ca02c"/>
   </g>
   <g id="patch_20">
    <path d="M 102.460938 119.266627 
L 138.857283 119.266627 
L 138.857283 129.13364 
L 102.460938 129.13364 
z
" clip-path="url(#p3207f3d4cc)" style="fill: #2ca02c"/>
   </g>
   <g id="patch_21">
    <path d="M 102.460938 178.468707 
L 127.54258 178.468707 
L 127.54258 188.33572 
L 102.460938 188.33572 
z
" clip-path="url(#p3207f3d4cc)" style="fill: #2ca02c"/>
   </g>
   <g id="patch_22">
    <path d="M 102.460938 237.670787 
L 241.464003 237.670787 
L 241.464003 247.5378 
L 102.460938 247.5378 
z
" clip-path="url(#p3207f3d4cc)" style="fill: #2ca02c"/>
   </g>
   <g id="patch_23">
    <path d="M 102.460938 296.872867 
L 308.965027 296.872867 
L 308.965027 306.73988 
L 102.460938 306.73988 
z
" clip-path="url(#p3207f3d4cc)" style="fill: #2ca02c"/>
   </g>
   <g id="patch_24">
    <path d="M 102.460938 356.074947 
L 142.255996 356.074947 
L 142.255996 365.94196 
L 102.460938 365.94196 
z
" clip-path="url(#p3207f3d4cc)" style="fill: #2ca02c"/>
   </g>
   <g id="patch_25">
    <path d="M 102.460938 415.277027 
L 206.143199 415.277027 
L 206.143199 425.14404 
L 102.460938 425.14404 
z
" clip-path="url(#p3207f3d4cc)" style="fill: #2ca02c"/>
   </g>
   <g id="patch_26">
    <path d="M 102.460938 474.479107 
L 337.746535 474.479107 
L 337.746535 484.34612 
L 102.460938 484.34612 
z
" clip-path="url(#p3207f3d4cc)" style="fill: #2ca02c"/>
   </g>
   <g id="matplotlib.axis_1">
    <g id="xtick_1">
     <g id="line2d_1">
      <defs>
       <path id="m4c99cd72f3" d="M 0 0 
L 0 3.5 
" style="stroke: #000000; stroke-width: 0.8"/>
      </defs>
      <g>
       <use xlink:href="#m4c99cd72f3" x="102.460938" y="499.14664" style="stroke: #000000; stroke-width: 0.8"/>
      </g>
     </g>
     <g id="text_1">
      <text style="font: 10px 'sans-serif'; text-anchor: middle" x="102.460938" y="513.320077" transform="rotate(-0, 102.460938, 513.320077)">0</text>
     </g>
    </g>
    <g id="xtick_2">
     <g id="line2d_2">
      <g>
       <use xlink:href="#m4c99cd72f3" x="145.482623" y="499.14664" style="stroke: #000000; stroke-width: 0.8"/>
      </g>
     </g>
     <g id="text_2">
      <text style="font: 10px 'sans-serif'; text-anchor: middle" x="145.482623" y="513.320077" transform="rotate(-0, 145.482623, 513.320077)">10</text>
     </g>
    </g>
    <g id="xtick_3">
     <g id="line2d_3">
      <g>
       <use xlink:href="#m4c99cd72f3" x="188.504308" y="499.14664" style="stroke: #000000; stroke-width: 0.8"/>
      </g>
     </g>
     <g id="text_3">
      <text style="font: 10px 'sans-serif'; text-anchor: middle" x="188.504308" y="513.320077" transform="rotate(-0, 188.504308, 513.320077)">20</text>
     </g>
    </g>
    <g id="xtick_4">
     <g id="line2d_4">
      <g>
       <use xlink:href="#m4c99cd72f3" x="231.525994" y="499.14664" style="stroke: #000000; stroke-width: 0.8"/>
      </g>
     </g>
     <g id="text_4">
      <text style="font: 10px 'sans-serif'; text-anchor: middle" x="231.525994" y="513.320077" transform="rotate(-0, 231.525994, 513.320077)">30</text>
     </g>
    </g>
    <g id="xtick_5">
     <g id="line2d_5">
      <g>
       <use xlink:href="#m4c99cd72f3" x="274.547679" y="499.14664" style="stroke: #000000; stroke-width: 0.8"/>
      </g>
     </g>
     <g id="text_5">
      <text style="font: 10px 'sans-serif'; text-anchor: middle" x="274.547679" y="513.320077" transform="rotate(-0, 274.547679, 513.320077)">40</text>
     </g>
    </g>
    <g id="xtick_6">
     <g id="line2d_6">
      <g>
       <use xlink:href="#m4c99cd72f3" x="317.569364" y="499.14664" style="stroke: #000000; stroke-width: 0.8"/>
      </g>
     </g>
     <g id="text_6">
      <text style="font: 10px 'sans-serif'; text-anchor: middle" x="317.569364" y="513.320077" transform="rotate(-0, 317.569364, 513.320077)">50</text>
     </g>
    </g>
    <g id="xtick_7">
     <g id="line2d_7">
      <g>
       <use xlink:href="#m4c99cd72f3" x="360.59105" y="499.14664" style="stroke: #000000; stroke-width: 0.8"/>
      </g>
     </g>
     <g id="text_7">
      <text style="font: 10px 'sans-serif'; text-anchor: middle" x="360.59105" y="513.320077" transform="rotate(-0, 360.59105, 513.320077)">60</text>
     </g>
    </g>
    <g id="xtick_8">
     <g id="line2d_8">
      <g>
       <use xlink:href="#m4c99cd72f3" x="403.612735" y="499.14664" style="stroke: #000000; stroke-width: 0.8"/>
      </g>
     </g>
     <g id="text_8">
      <text style="font: 10px 'sans-serif'; text-anchor: middle" x="403.612735" y="513.320077" transform="rotate(-0, 403.612735, 513.320077)">70</text>
     </g>
    </g>
    <g id="text_9">
     <text style="font: 10px 'sans-serif'; text-anchor: middle" x="261.830469" y="526.57789" transform="rotate(-0, 261.830469, 526.57789)">Percentage</text>
    </g>
   </g>
   <g id="matplotlib.axis_2">
    <g id="ytick_1">
     <g id="line2d_9">
      <defs>
       <path id="m8e343aef83" d="M 0 0 
L -3.5 0 
" style="stroke: #000000; stroke-width: 0.8"/>
      </defs>
      <g>
       <use xlink:href="#m8e343aef83" x="102.460938" y="55.13104" style="stroke: #000000; stroke-width: 0.8"/>
      </g>
     </g>
     <g id="text_10">
      <text style="font: 10px 'sans-serif'; text-anchor: end" x="95.460938" y="58.717759" transform="rotate(-0, 95.460938, 58.717759)">Australia</text>
     </g>
    </g>
    <g id="ytick_2">
     <g id="line2d_10">
      <g>
       <use xlink:href="#m8e343aef83" x="102.460938" y="114.33312" style="stroke: #000000; stroke-width: 0.8"/>
      </g>
     </g>
     <g id="text_11">
      <text style="font: 10px 'sans-serif'; text-anchor: end" x="95.460938" y="118.017495" transform="rotate(-0, 95.460938, 118.017495)">Germany</text>
     </g>
    </g>
    <g id="ytick_3">
     <g id="line2d_11">
      <g>
       <use xlink:href="#m8e343aef83" x="102.460938" y="173.5352" style="stroke: #000000; stroke-width: 0.8"/>
      </g>
     </g>
     <g id="text_12">
      <text style="font: 10px 'sans-serif'; text-anchor: end" x="95.460938" y="177.121919" transform="rotate(-0, 95.460938, 177.121919)">Netherlands</text>
     </g>
    </g>
    <g id="ytick_4">
     <g id="line2d_12">
      <g>
       <use xlink:href="#m8e343aef83" x="102.460938" y="232.73728" style="stroke: #000000; stroke-width: 0.8"/>
      </g>
     </g>
     <g id="text_13">
      <text style="font: 10px 'sans-serif'; text-anchor: end" x="95.460938" y="236.323999" transform="rotate(-0, 95.460938, 236.323999)">New Zealand</text>
     </g>
    </g>
    <g id="ytick_5">
     <g id="line2d_13">
      <g>
       <use xlink:href="#m8e343aef83" x="102.460938" y="291.93936" style="stroke: #000000; stroke-width: 0.8"/>
      </g>
     </g>
     <g id="text_14">
      <text style="font: 10px 'sans-serif'; text-anchor: end" x="95.460938" y="295.526079" transform="rotate(-0, 95.460938, 295.526079)">South Africa</text>
     </g>
    </g>
    <g id="ytick_6">
     <g id="line2d_14">
      <g>
       <use xlink:href="#m8e343aef83" x="102.460938" y="351.14144" style="stroke: #000000; stroke-width: 0.8"/>
      </g>
     </g>
     <g id="text_15">
      <text style="font: 10px 'sans-serif'; text-anchor: end" x="95.460938" y="354.739877" transform="rotate(-0, 95.460938, 354.739877)">United Kingdom</text>
     </g>
    </g>
    <g id="ytick_7">
     <g id="line2d_15">
      <g>
       <use xlink:href="#m8e343aef83" x="102.460938" y="410.34352" style="stroke: #000000; stroke-width: 0.8"/>
      </g>
     </g>
     <g id="text_16">
      <text style="font: 10px 'sans-serif'; text-anchor: end" x="95.460938" y="413.930239" transform="rotate(-0, 95.460938, 413.930239)">United States</text>
     </g>
    </g>
    <g id="ytick_8">
     <g id="line2d_16">
      <g>
       <use xlink:href="#m8e343aef83" x="102.460938" y="469.5456" style="stroke: #000000; stroke-width: 0.8"/>
      </g>
     </g>
     <g id="text_17">
      <text style="font: 10px 'sans-serif'; text-anchor: end" x="95.460938" y="473.132319" transform="rotate(-0, 95.460938, 473.132319)">World</text>
     </g>
    </g>
    <g id="text_18">
     <text style="font: 10px 'sans-serif'; text-anchor: middle" x="18.16875" y="262.33832" transform="rotate(-90, 18.16875, 262.33832)">Country</text>
    </g>
   </g>
   <g id="patch_27">
    <path d="M 102.460938 499.14664 
L 421.2 499.14664 
" style="fill: none; stroke: #000000; stroke-width: 0.8; stroke-linejoin: miter; stroke-linecap: square"/>
   </g>
   <g id="text_19">
    <text style="font: 8px 'sans-serif'; text-anchor: start" x="376.776688" y="48.343819" transform="rotate(-0, 376.776688, 48.343819)">63</text>
   </g>
   <g id="text_20">
    <text style="font: 8px 'sans-serif'; text-anchor: start" x="290.174035" y="107.545899" transform="rotate(-0, 290.174035, 107.545899)">42</text>
   </g>
   <g id="text_21">
    <text style="font: 8px 'sans-serif'; text-anchor: start" x="326.140164" y="166.747979" transform="rotate(-0, 326.140164, 166.747979)">51</text>
   </g>
   <g id="text_22">
    <text style="font: 8px 'sans-serif'; text-anchor: start" x="279.547679" y="225.950059" transform="rotate(-0, 279.547679, 225.950059)">40</text>
   </g>
   <g id="text_23">
    <text style="font: 8px 'sans-serif'; text-anchor: start" x="227.921657" y="285.152139" transform="rotate(-0, 227.921657, 285.152139)">28</text>
   </g>
   <g id="text_24">
    <text style="font: 8px 'sans-serif'; text-anchor: start" x="411.021949" y="344.354219" transform="rotate(-0, 411.021949, 344.354219)">71</text>
   </g>
   <g id="text_25">
    <text style="font: 8px 'sans-serif'; text-anchor: start" x="319.084608" y="403.556299" transform="rotate(-0, 319.084608, 403.556299)">49</text>
   </g>
   <g id="text_26">
    <text style="font: 8px 'sans-serif'; text-anchor: start" x="220.392862" y="462.758379" transform="rotate(-0, 220.392862, 462.758379)">26</text>
   </g>
   <g id="text_27">
    <text style="font: 8px 'sans-serif'; text-anchor: start" x="156.720767" y="58.210832" transform="rotate(-0, 156.720767, 58.210832)">11</text>
   </g>
   <g id="text_28">
    <text style="font: 8px 'sans-serif'; text-anchor: start" x="318.568348" y="117.412912" transform="rotate(-0, 318.568348, 117.412912)">49</text>
   </g>
   <g id="text_29">
    <text style="font: 8px 'sans-serif'; text-anchor: start" x="293.8739" y="176.614992" transform="rotate(-0, 293.8739, 176.614992)">43</text>
   </g>
   <g id="text_30">
    <text style="font: 8px 'sans-serif'; text-anchor: start" x="226.587984" y="235.817072" transform="rotate(-0, 226.587984, 235.817072)">28</text>
   </g>
   <g id="text_31">
    <text style="font: 8px 'sans-serif'; text-anchor: start" x="210.712982" y="295.019152" transform="rotate(-0, 210.712982, 295.019152)">24</text>
   </g>
   <g id="text_32">
    <text style="font: 8px 'sans-serif'; text-anchor: start" x="194.32172" y="354.221232" transform="rotate(-0, 194.32172, 354.221232)">20</text>
   </g>
   <g id="text_33">
    <text style="font: 8px 'sans-serif'; text-anchor: start" x="222.371859" y="413.423312" transform="rotate(-0, 222.371859, 413.423312)">27</text>
   </g>
   <g id="text_34">
    <text style="font: 8px 'sans-serif'; text-anchor: start" x="189.46027" y="472.625392" transform="rotate(-0, 189.46027, 472.625392)">19</text>
   </g>
   <g id="text_35">
    <text style="font: 8px 'sans-serif'; text-anchor: start" x="219.102211" y="68.077845" transform="rotate(-0, 219.102211, 68.077845)">26</text>
   </g>
   <g id="text_36">
    <text style="font: 8px 'sans-serif'; text-anchor: start" x="143.857283" y="127.279925" transform="rotate(-0, 143.857283, 127.279925)">8</text>
   </g>
   <g id="text_37">
    <text style="font: 8px 'sans-serif'; text-anchor: start" x="132.54258" y="186.482005" transform="rotate(-0, 132.54258, 186.482005)">6</text>
   </g>
   <g id="text_38">
    <text style="font: 8px 'sans-serif'; text-anchor: start" x="246.464003" y="245.684085" transform="rotate(-0, 246.464003, 245.684085)">32</text>
   </g>
   <g id="text_39">
    <text style="font: 8px 'sans-serif'; text-anchor: start" x="313.965027" y="304.886165" transform="rotate(-0, 313.965027, 304.886165)">48</text>
   </g>
   <g id="text_40">
    <text style="font: 8px 'sans-serif'; text-anchor: start" x="147.255996" y="364.088245" transform="rotate(-0, 147.255996, 364.088245)">9</text>
   </g>
   <g id="text_41">
    <text style="font: 8px 'sans-serif'; text-anchor: start" x="211.143199" y="423.290325" transform="rotate(-0, 211.143199, 423.290325)">24</text>
   </g>
   <g id="text_42">
    <text style="font: 8px 'sans-serif'; text-anchor: start" x="342.746535" y="482.492405" transform="rotate(-0, 342.746535, 482.492405)">55</text>
   </g>
   <g id="text_43">
    <text style="font: 12px 'sans-serif'; text-anchor: middle" x="261.830469" y="19.53" transform="rotate(-0, 261.830469, 19.53)">Percentage of Doctorate and Master per country</text>
   </g>
   <g id="legend_1">
    <g id="patch_28">
     <path d="M 131.414844 565.189136 
L 392.246094 565.189136 
Q 394.246094 565.189136 394.246094 563.189136 
L 394.246094 549.779761 
Q 394.246094 547.779761 392.246094 547.779761 
L 131.414844 547.779761 
Q 129.414844 547.779761 129.414844 549.779761 
L 129.414844 563.189136 
Q 129.414844 565.189136 131.414844 565.189136 
z
" style="fill: #ffffff; opacity: 0.8; stroke: #cccccc; stroke-linejoin: miter"/>
    </g>
    <g id="patch_29">
     <path d="M 133.414844 558.976636 
L 153.414844 558.976636 
L 153.414844 551.976636 
L 133.414844 551.976636 
z
" style="fill: #1f77b4"/>
    </g>
    <g id="text_44">
     <text style="font: 10px 'sans-serif'; text-anchor: start" x="161.414844" y="558.976636" transform="rotate(-0, 161.414844, 558.976636)">Doctorate</text>
    </g>
    <g id="patch_30">
     <path d="M 224.766406 558.976636 
L 244.766406 558.976636 
L 244.766406 551.976636 
L 224.766406 551.976636 
z
" style="fill: #ff7f0e"/>
    </g>
    <g id="text_45">
     <text style="font: 10px 'sans-serif'; text-anchor: start" x="252.766406" y="558.976636" transform="rotate(-0, 252.766406, 558.976636)">Master degree</text>
    </g>
    <g id="patch_31">
     <path d="M 337.238281 558.976636 
L 357.238281 558.976636 
L 357.238281 551.976636 
L 337.238281 551.976636 
z
" style="fill: #2ca02c"/>
    </g>
    <g id="text_46">
     <text style="font: 10px 'sans-serif'; text-anchor: start" x="365.238281" y="558.976636" transform="rotate(-0, 365.238281, 558.976636)">Other</text>
    </g>
   </g>
  </g>
 </g>
 <defs>
  <clipPath id="p3207f3d4cc">
   <rect x="102.460938" y="25.53" width="318.739063" height="473.61664"/>
  </clipPath>
 </defs>
</svg>
