<?xml version="1.0" encoding="utf-8" standalone="no"?>
<!DOCTYPE svg PUBLIC "-//W3C//DTD SVG 1.1//EN"
  "http://www.w3.org/Graphics/SVG/1.1/DTD/svg11.dtd">
<svg xmlns:xlink="http://www.w3.org/1999/xlink" width="432pt" height="576pt" viewBox="0 0 432 576" xmlns="http://www.w3.org/2000/svg" version="1.1">
 <metadata>
  <rdf:RDF xmlns:dc="http://purl.org/dc/elements/1.1/" xmlns:cc="http://creativecommons.org/ns#" xmlns:rdf="http://www.w3.org/1999/02/22-rdf-syntax-ns#">
   <cc:Work>
    <dc:type rdf:resource="http://purl.org/dc/dcmitype/StillImage"/>
    <dc:date>2022-03-14T17:31:31.028780</dc:date>
    <dc:format>image/svg+xml</dc:format>
    <dc:creator>
     <cc:Agent>
      <dc:title>Matplotlib v3.5.1, https://matplotlib.org/</dc:title>
     </cc:Agent>
    </dc:creator>
   </cc:Work>
  </rdf:RDF>
 </metadata>
 <defs>
  <style type="text/css">*{stroke-linejoin: round; stroke-linecap: butt}</style>
 </defs>
 <g id="figure_1">
  <g id="patch_1">
   <path d="M 0 576 
L 432 576 
L 432 0 
L 0 0 
z
" style="fill: #ffffff"/>
  </g>
  <g id="axes_1">
   <g id="patch_2">
    <path d="M 102.460937 503.672 
L 421.2 503.672 
L 421.2 25.53 
L 102.460937 25.53 
z
" style="fill: #ffffff"/>
   </g>
   <g id="patch_3">
    <path d="M 102.460937 40.471937 
L 371.776688 40.471937 
L 371.776688 50.433229 
L 102.460937 50.433229 
z
" clip-path="url(#pfab15f9459)" style="fill: #1f77b4"/>
   </g>
   <g id="patch_4">
    <path d="M 102.460937 100.239687 
L 285.174035 100.239687 
L 285.174035 110.200979 
L 102.460937 110.200979 
z
" clip-path="url(#pfab15f9459)" style="fill: #1f77b4"/>
   </g>
   <g id="patch_5">
    <path d="M 102.460937 160.007437 
L 321.140164 160.007437 
L 321.140164 169.968729 
L 102.460937 169.968729 
z
" clip-path="url(#pfab15f9459)" style="fill: #1f77b4"/>
   </g>
   <g id="patch_6">
    <path d="M 102.460937 219.775188 
L 274.547679 219.775188 
L 274.547679 229.736479 
L 102.460937 229.736479 
z
" clip-path="url(#pfab15f9459)" style="fill: #1f77b4"/>
   </g>
   <g id="patch_7">
    <path d="M 102.460937 279.542937 
L 222.921657 279.542937 
L 222.921657 289.504229 
L 102.460937 289.504229 
z
" clip-path="url(#pfab15f9459)" style="fill: #1f77b4"/>
   </g>
   <g id="patch_8">
    <path d="M 102.460937 339.310687 
L 406.021949 339.310687 
L 406.021949 349.271979 
L 102.460937 349.271979 
z
" clip-path="url(#pfab15f9459)" style="fill: #1f77b4"/>
   </g>
   <g id="patch_9">
    <path d="M 102.460937 399.078438 
L 314.084608 399.078438 
L 314.084608 409.039729 
L 102.460937 409.039729 
z
" clip-path="url(#pfab15f9459)" style="fill: #1f77b4"/>
   </g>
   <g id="patch_10">
    <path d="M 102.460937 458.846187 
L 215.392862 458.846187 
L 215.392862 468.807479 
L 102.460937 468.807479 
z
" clip-path="url(#pfab15f9459)" style="fill: #1f77b4"/>
   </g>
   <g id="patch_11">
    <path d="M 102.460937 50.433229 
L 151.720767 50.433229 
L 151.720767 60.394521 
L 102.460937 60.394521 
z
" clip-path="url(#pfab15f9459)" style="fill: #ff7f0e"/>
   </g>
   <g id="patch_12">
    <path d="M 102.460937 110.200979 
L 313.568348 110.200979 
L 313.568348 120.162271 
L 102.460937 120.162271 
z
" clip-path="url(#pfab15f9459)" style="fill: #ff7f0e"/>
   </g>
   <g id="patch_13">
    <path d="M 102.460937 169.968729 
L 288.8739 169.968729 
L 288.8739 179.930021 
L 102.460937 179.930021 
z
" clip-path="url(#pfab15f9459)" style="fill: #ff7f0e"/>
   </g>
   <g id="patch_14">
    <path d="M 102.460937 229.736479 
L 221.587984 229.736479 
L 221.587984 239.697771 
L 102.460937 239.697771 
z
" clip-path="url(#pfab15f9459)" style="fill: #ff7f0e"/>
   </g>
   <g id="patch_15">
    <path d="M 102.460937 289.504229 
L 205.712982 289.504229 
L 205.712982 299.465521 
L 102.460937 299.465521 
z
" clip-path="url(#pfab15f9459)" style="fill: #ff7f0e"/>
   </g>
   <g id="patch_16">
    <path d="M 102.460937 349.271979 
L 189.32172 349.271979 
L 189.32172 359.233271 
L 102.460937 359.233271 
z
" clip-path="url(#pfab15f9459)" style="fill: #ff7f0e"/>
   </g>
   <g id="patch_17">
    <path d="M 102.460937 409.039729 
L 217.371859 409.039729 
L 217.371859 419.001021 
L 102.460937 419.001021 
z
" clip-path="url(#pfab15f9459)" style="fill: #ff7f0e"/>
   </g>
   <g id="patch_18">
    <path d="M 102.460937 468.807479 
L 184.46027 468.807479 
L 184.46027 478.768771 
L 102.460937 478.768771 
z
" clip-path="url(#pfab15f9459)" style="fill: #ff7f0e"/>
   </g>
   <g id="patch_19">
    <path d="M 102.460937 60.394521 
L 214.102211 60.394521 
L 214.102211 70.355812 
L 102.460937 70.355812 
z
" clip-path="url(#pfab15f9459)" style="fill: #2ca02c"/>
   </g>
   <g id="patch_20">
    <path d="M 102.460937 120.162271 
L 138.857283 120.162271 
L 138.857283 130.123562 
L 102.460937 130.123562 
z
" clip-path="url(#pfab15f9459)" style="fill: #2ca02c"/>
   </g>
   <g id="patch_21">
    <path d="M 102.460937 179.930021 
L 127.54258 179.930021 
L 127.54258 189.891312 
L 102.460937 189.891312 
z
" clip-path="url(#pfab15f9459)" style="fill: #2ca02c"/>
   </g>
   <g id="patch_22">
    <path d="M 102.460937 239.697771 
L 241.464003 239.697771 
L 241.464003 249.659062 
L 102.460937 249.659062 
z
" clip-path="url(#pfab15f9459)" style="fill: #2ca02c"/>
   </g>
   <g id="patch_23">
    <path d="M 102.460937 299.465521 
L 308.965027 299.465521 
L 308.965027 309.426813 
L 102.460937 309.426813 
z
" clip-path="url(#pfab15f9459)" style="fill: #2ca02c"/>
   </g>
   <g id="patch_24">
    <path d="M 102.460937 359.233271 
L 142.255996 359.233271 
L 142.255996 369.194563 
L 102.460937 369.194563 
z
" clip-path="url(#pfab15f9459)" style="fill: #2ca02c"/>
   </g>
   <g id="patch_25">
    <path d="M 102.460937 419.001021 
L 206.143199 419.001021 
L 206.143199 428.962313 
L 102.460937 428.962313 
z
" clip-path="url(#pfab15f9459)" style="fill: #2ca02c"/>
   </g>
   <g id="patch_26">
    <path d="M 102.460937 478.768771 
L 337.746535 478.768771 
L 337.746535 488.730063 
L 102.460937 488.730063 
z
" clip-path="url(#pfab15f9459)" style="fill: #2ca02c"/>
   </g>
   <g id="matplotlib.axis_1">
    <g id="xtick_1">
     <g id="line2d_1">
      <defs>
       <path id="m4c99cd72f3" d="M 0 0 
L 0 3.5 
" style="stroke: #000000; stroke-width: 0.8"/>
      </defs>
      <g>
       <use xlink:href="#m4c99cd72f3" x="102.460937" y="503.672" style="stroke: #000000; stroke-width: 0.8"/>
      </g>
     </g>
     <g id="text_1">
      <text style="font: 10px 'sans-serif'; text-anchor: middle" x="102.460937" y="517.845438" transform="rotate(-0, 102.460937, 517.845438)">0</text>
     </g>
    </g>
    <g id="xtick_2">
     <g id="line2d_2">
      <g>
       <use xlink:href="#m4c99cd72f3" x="145.482623" y="503.672" style="stroke: #000000; stroke-width: 0.8"/>
      </g>
     </g>
     <g id="text_2">
      <text style="font: 10px 'sans-serif'; text-anchor: middle" x="145.482623" y="517.845438" transform="rotate(-0, 145.482623, 517.845438)">10</text>
     </g>
    </g>
    <g id="xtick_3">
     <g id="line2d_3">
      <g>
       <use xlink:href="#m4c99cd72f3" x="188.504308" y="503.672" style="stroke: #000000; stroke-width: 0.8"/>
      </g>
     </g>
     <g id="text_3">
      <text style="font: 10px 'sans-serif'; text-anchor: middle" x="188.504308" y="517.845438" transform="rotate(-0, 188.504308, 517.845438)">20</text>
     </g>
    </g>
    <g id="xtick_4">
     <g id="line2d_4">
      <g>
       <use xlink:href="#m4c99cd72f3" x="231.525994" y="503.672" style="stroke: #000000; stroke-width: 0.8"/>
      </g>
     </g>
     <g id="text_4">
      <text style="font: 10px 'sans-serif'; text-anchor: middle" x="231.525994" y="517.845438" transform="rotate(-0, 231.525994, 517.845438)">30</text>
     </g>
    </g>
    <g id="xtick_5">
     <g id="line2d_5">
      <g>
       <use xlink:href="#m4c99cd72f3" x="274.547679" y="503.672" style="stroke: #000000; stroke-width: 0.8"/>
      </g>
     </g>
     <g id="text_5">
      <text style="font: 10px 'sans-serif'; text-anchor: middle" x="274.547679" y="517.845438" transform="rotate(-0, 274.547679, 517.845438)">40</text>
     </g>
    </g>
    <g id="xtick_6">
     <g id="line2d_6">
      <g>
       <use xlink:href="#m4c99cd72f3" x="317.569364" y="503.672" style="stroke: #000000; stroke-width: 0.8"/>
      </g>
     </g>
     <g id="text_6">
      <text style="font: 10px 'sans-serif'; text-anchor: middle" x="317.569364" y="517.845438" transform="rotate(-0, 317.569364, 517.845438)">50</text>
     </g>
    </g>
    <g id="xtick_7">
     <g id="line2d_7">
      <g>
       <use xlink:href="#m4c99cd72f3" x="360.59105" y="503.672" style="stroke: #000000; stroke-width: 0.8"/>
      </g>
     </g>
     <g id="text_7">
      <text style="font: 10px 'sans-serif'; text-anchor: middle" x="360.59105" y="517.845438" transform="rotate(-0, 360.59105, 517.845438)">60</text>
     </g>
    </g>
    <g id="xtick_8">
     <g id="line2d_8">
      <g>
       <use xlink:href="#m4c99cd72f3" x="403.612735" y="503.672" style="stroke: #000000; stroke-width: 0.8"/>
      </g>
     </g>
     <g id="text_8">
      <text style="font: 10px 'sans-serif'; text-anchor: middle" x="403.612735" y="517.845438" transform="rotate(-0, 403.612735, 517.845438)">70</text>
     </g>
    </g>
    <g id="text_9">
     <text style="font: 10px 'sans-serif'; text-anchor: middle" x="261.830469" y="531.10325" transform="rotate(-0, 261.830469, 531.10325)">Percentage</text>
    </g>
   </g>
   <g id="matplotlib.axis_2">
    <g id="ytick_1">
     <g id="line2d_9">
      <defs>
       <path id="m8e343aef83" d="M 0 0 
L -3.5 0 
" style="stroke: #000000; stroke-width: 0.8"/>
      </defs>
      <g>
       <use xlink:href="#m8e343aef83" x="102.460937" y="55.413875" style="stroke: #000000; stroke-width: 0.8"/>
      </g>
     </g>
     <g id="text_10">
      <text style="font: 10px 'sans-serif'; text-anchor: end" x="95.460937" y="59.000594" transform="rotate(-0, 95.460937, 59.000594)">Australia</text>
     </g>
    </g>
    <g id="ytick_2">
     <g id="line2d_10">
      <g>
       <use xlink:href="#m8e343aef83" x="102.460937" y="115.181625" style="stroke: #000000; stroke-width: 0.8"/>
      </g>
     </g>
     <g id="text_11">
      <text style="font: 10px 'sans-serif'; text-anchor: end" x="95.460937" y="118.866" transform="rotate(-0, 95.460937, 118.866)">Germany</text>
     </g>
    </g>
    <g id="ytick_3">
     <g id="line2d_11">
      <g>
       <use xlink:href="#m8e343aef83" x="102.460937" y="174.949375" style="stroke: #000000; stroke-width: 0.8"/>
      </g>
     </g>
     <g id="text_12">
      <text style="font: 10px 'sans-serif'; text-anchor: end" x="95.460937" y="178.536094" transform="rotate(-0, 95.460937, 178.536094)">Netherlands</text>
     </g>
    </g>
    <g id="ytick_4">
     <g id="line2d_12">
      <g>
       <use xlink:href="#m8e343aef83" x="102.460937" y="234.717125" style="stroke: #000000; stroke-width: 0.8"/>
      </g>
     </g>
     <g id="text_13">
      <text style="font: 10px 'sans-serif'; text-anchor: end" x="95.460937" y="238.303844" transform="rotate(-0, 95.460937, 238.303844)">New Zealand</text>
     </g>
    </g>
    <g id="ytick_5">
     <g id="line2d_13">
      <g>
       <use xlink:href="#m8e343aef83" x="102.460937" y="294.484875" style="stroke: #000000; stroke-width: 0.8"/>
      </g>
     </g>
     <g id="text_14">
      <text style="font: 10px 'sans-serif'; text-anchor: end" x="95.460937" y="298.071594" transform="rotate(-0, 95.460937, 298.071594)">South Africa</text>
     </g>
    </g>
    <g id="ytick_6">
     <g id="line2d_14">
      <g>
       <use xlink:href="#m8e343aef83" x="102.460937" y="354.252625" style="stroke: #000000; stroke-width: 0.8"/>
      </g>
     </g>
     <g id="text_15">
      <text style="font: 10px 'sans-serif'; text-anchor: end" x="95.460937" y="357.851062" transform="rotate(-0, 95.460937, 357.851062)">United Kingdom</text>
     </g>
    </g>
    <g id="ytick_7">
     <g id="line2d_15">
      <g>
       <use xlink:href="#m8e343aef83" x="102.460937" y="414.020375" style="stroke: #000000; stroke-width: 0.8"/>
      </g>
     </g>
     <g id="text_16">
      <text style="font: 10px 'sans-serif'; text-anchor: end" x="95.460937" y="417.607094" transform="rotate(-0, 95.460937, 417.607094)">United States</text>
     </g>
    </g>
    <g id="ytick_8">
     <g id="line2d_16">
      <g>
       <use xlink:href="#m8e343aef83" x="102.460937" y="473.788125" style="stroke: #000000; stroke-width: 0.8"/>
      </g>
     </g>
     <g id="text_17">
      <text style="font: 10px 'sans-serif'; text-anchor: end" x="95.460937" y="477.374844" transform="rotate(-0, 95.460937, 477.374844)">World</text>
     </g>
    </g>
    <g id="text_18">
     <text style="font: 10px 'sans-serif'; text-anchor: middle" x="18.16875" y="264.601" transform="rotate(-90, 18.16875, 264.601)">Country</text>
    </g>
   </g>
   <g id="patch_27">
    <path d="M 102.460937 503.672 
L 421.2 503.672 
" style="fill: none; stroke: #000000; stroke-width: 0.8; stroke-linejoin: miter; stroke-linecap: square"/>
   </g>
   <g id="text_19">
    <text style="font: 8px 'sans-serif'; text-anchor: start" x="376.776688" y="48.475808" transform="rotate(-0, 376.776688, 48.475808)">63</text>
   </g>
   <g id="text_20">
    <text style="font: 8px 'sans-serif'; text-anchor: start" x="290.174035" y="108.243558" transform="rotate(-0, 290.174035, 108.243558)">42</text>
   </g>
   <g id="text_21">
    <text style="font: 8px 'sans-serif'; text-anchor: start" x="326.140164" y="168.011308" transform="rotate(-0, 326.140164, 168.011308)">51</text>
   </g>
   <g id="text_22">
    <text style="font: 8px 'sans-serif'; text-anchor: start" x="279.547679" y="227.779058" transform="rotate(-0, 279.547679, 227.779058)">40</text>
   </g>
   <g id="text_23">
    <text style="font: 8px 'sans-serif'; text-anchor: start" x="227.921657" y="287.546808" transform="rotate(-0, 227.921657, 287.546808)">28</text>
   </g>
   <g id="text_24">
    <text style="font: 8px 'sans-serif'; text-anchor: start" x="411.021949" y="347.314558" transform="rotate(-0, 411.021949, 347.314558)">71</text>
   </g>
   <g id="text_25">
    <text style="font: 8px 'sans-serif'; text-anchor: start" x="319.084608" y="407.082308" transform="rotate(-0, 319.084608, 407.082308)">49</text>
   </g>
   <g id="text_26">
    <text style="font: 8px 'sans-serif'; text-anchor: start" x="220.392862" y="466.850058" transform="rotate(-0, 220.392862, 466.850058)">26</text>
   </g>
   <g id="text_27">
    <text style="font: 8px 'sans-serif'; text-anchor: start" x="156.720767" y="58.4371" transform="rotate(-0, 156.720767, 58.4371)">11</text>
   </g>
   <g id="text_28">
    <text style="font: 8px 'sans-serif'; text-anchor: start" x="318.568348" y="118.20485" transform="rotate(-0, 318.568348, 118.20485)">49</text>
   </g>
   <g id="text_29">
    <text style="font: 8px 'sans-serif'; text-anchor: start" x="293.8739" y="177.9726" transform="rotate(-0, 293.8739, 177.9726)">43</text>
   </g>
   <g id="text_30">
    <text style="font: 8px 'sans-serif'; text-anchor: start" x="226.587984" y="237.74035" transform="rotate(-0, 226.587984, 237.74035)">28</text>
   </g>
   <g id="text_31">
    <text style="font: 8px 'sans-serif'; text-anchor: start" x="210.712982" y="297.5081" transform="rotate(-0, 210.712982, 297.5081)">24</text>
   </g>
   <g id="text_32">
    <text style="font: 8px 'sans-serif'; text-anchor: start" x="194.32172" y="357.27585" transform="rotate(-0, 194.32172, 357.27585)">20</text>
   </g>
   <g id="text_33">
    <text style="font: 8px 'sans-serif'; text-anchor: start" x="222.371859" y="417.0436" transform="rotate(-0, 222.371859, 417.0436)">27</text>
   </g>
   <g id="text_34">
    <text style="font: 8px 'sans-serif'; text-anchor: start" x="189.46027" y="476.81135" transform="rotate(-0, 189.46027, 476.81135)">19</text>
   </g>
   <g id="text_35">
    <text style="font: 8px 'sans-serif'; text-anchor: start" x="219.102211" y="68.398392" transform="rotate(-0, 219.102211, 68.398392)">26</text>
   </g>
   <g id="text_36">
    <text style="font: 8px 'sans-serif'; text-anchor: start" x="143.857283" y="128.166142" transform="rotate(-0, 143.857283, 128.166142)">8</text>
   </g>
   <g id="text_37">
    <text style="font: 8px 'sans-serif'; text-anchor: start" x="132.54258" y="187.933892" transform="rotate(-0, 132.54258, 187.933892)">6</text>
   </g>
   <g id="text_38">
    <text style="font: 8px 'sans-serif'; text-anchor: start" x="246.464003" y="247.701642" transform="rotate(-0, 246.464003, 247.701642)">32</text>
   </g>
   <g id="text_39">
    <text style="font: 8px 'sans-serif'; text-anchor: start" x="313.965027" y="307.469392" transform="rotate(-0, 313.965027, 307.469392)">48</text>
   </g>
   <g id="text_40">
    <text style="font: 8px 'sans-serif'; text-anchor: start" x="147.255996" y="367.237142" transform="rotate(-0, 147.255996, 367.237142)">9</text>
   </g>
   <g id="text_41">
    <text style="font: 8px 'sans-serif'; text-anchor: start" x="211.143199" y="427.004892" transform="rotate(-0, 211.143199, 427.004892)">24</text>
   </g>
   <g id="text_42">
    <text style="font: 8px 'sans-serif'; text-anchor: start" x="342.746535" y="486.772642" transform="rotate(-0, 342.746535, 486.772642)">55</text>
   </g>
   <g id="text_43">
    <text style="font: 12px 'sans-serif'; text-anchor: middle" x="261.830469" y="19.53" transform="rotate(-0, 261.830469, 19.53)">Percentage of Doctorate and Master per country</text>
   </g>
   <g id="legend_1">
    <g id="patch_28">
     <path d="M 131.414844 570.3933 
L 392.246094 570.3933 
Q 394.246094 570.3933 394.246094 568.3933 
L 394.246094 554.983925 
Q 394.246094 552.983925 392.246094 552.983925 
L 131.414844 552.983925 
Q 129.414844 552.983925 129.414844 554.983925 
L 129.414844 568.3933 
Q 129.414844 570.3933 131.414844 570.3933 
z
" style="fill: #ffffff; opacity: 0.8; stroke: #cccccc; stroke-linejoin: miter"/>
    </g>
    <g id="patch_29">
     <path d="M 133.414844 564.1808 
L 153.414844 564.1808 
L 153.414844 557.1808 
L 133.414844 557.1808 
z
" style="fill: #1f77b4"/>
    </g>
    <g id="text_44">
     <text style="font: 10px 'sans-serif'; text-anchor: start" x="161.414844" y="564.1808" transform="rotate(-0, 161.414844, 564.1808)">Doctorate</text>
    </g>
    <g id="patch_30">
     <path d="M 224.766406 564.1808 
L 244.766406 564.1808 
L 244.766406 557.1808 
L 224.766406 557.1808 
z
" style="fill: #ff7f0e"/>
    </g>
    <g id="text_45">
     <text style="font: 10px 'sans-serif'; text-anchor: start" x="252.766406" y="564.1808" transform="rotate(-0, 252.766406, 564.1808)">Master degree</text>
    </g>
    <g id="patch_31">
     <path d="M 337.238281 564.1808 
L 357.238281 564.1808 
L 357.238281 557.1808 
L 337.238281 557.1808 
z
" style="fill: #2ca02c"/>
    </g>
    <g id="text_46">
     <text style="font: 10px 'sans-serif'; text-anchor: start" x="365.238281" y="564.1808" transform="rotate(-0, 365.238281, 564.1808)">Other</text>
    </g>
   </g>
  </g>
 </g>
 <defs>
  <clipPath id="pfab15f9459">
   <rect x="102.460937" y="25.53" width="318.739062" height="478.142"/>
  </clipPath>
 </defs>
</svg>
