<?xml version="1.0" encoding="utf-8" standalone="no"?>
<!DOCTYPE svg PUBLIC "-//W3C//DTD SVG 1.1//EN"
  "http://www.w3.org/Graphics/SVG/1.1/DTD/svg11.dtd">
<svg xmlns:xlink="http://www.w3.org/1999/xlink" width="432pt" height="576pt" viewBox="0 0 432 576" xmlns="http://www.w3.org/2000/svg" version="1.1">
 <metadata>
  <rdf:RDF xmlns:dc="http://purl.org/dc/elements/1.1/" xmlns:cc="http://creativecommons.org/ns#" xmlns:rdf="http://www.w3.org/1999/02/22-rdf-syntax-ns#">
   <cc:Work>
    <dc:type rdf:resource="http://purl.org/dc/dcmitype/StillImage"/>
    <dc:date>2022-03-21T11:52:42.665405</dc:date>
    <dc:format>image/svg+xml</dc:format>
    <dc:creator>
     <cc:Agent>
      <dc:title>Matplotlib v3.5.1, https://matplotlib.org/</dc:title>
     </cc:Agent>
    </dc:creator>
   </cc:Work>
  </rdf:RDF>
 </metadata>
 <defs>
  <style type="text/css">*{stroke-linejoin: round; stroke-linecap: butt}</style>
 </defs>
 <g id="figure_1">
  <g id="patch_1">
   <path d="M 0 576 
L 432 576 
L 432 0 
L 0 0 
z
" style="fill: #ffffff"/>
  </g>
  <g id="axes_1">
   <g id="patch_2">
    <path d="M 102.460938 499.24622 
L 421.2 499.24622 
L 421.2 25.53 
L 102.460938 25.53 
z
" style="fill: #ffffff"/>
   </g>
   <g id="patch_3">
    <path d="M 102.460938 40.333632 
L 371.776688 40.333632 
L 371.776688 50.20272 
L 102.460938 50.20272 
z
" clip-path="url(#p2438f7fa63)" style="fill: #1f77b4"/>
   </g>
   <g id="patch_4">
    <path d="M 102.460938 99.548159 
L 285.174035 99.548159 
L 285.174035 109.417247 
L 102.460938 109.417247 
z
" clip-path="url(#p2438f7fa63)" style="fill: #1f77b4"/>
   </g>
   <g id="patch_5">
    <path d="M 102.460938 158.762687 
L 321.140164 158.762687 
L 321.140164 168.631775 
L 102.460938 168.631775 
z
" clip-path="url(#p2438f7fa63)" style="fill: #1f77b4"/>
   </g>
   <g id="patch_6">
    <path d="M 102.460938 217.977214 
L 274.547679 217.977214 
L 274.547679 227.846302 
L 102.460938 227.846302 
z
" clip-path="url(#p2438f7fa63)" style="fill: #1f77b4"/>
   </g>
   <g id="patch_7">
    <path d="M 102.460938 277.191742 
L 222.921657 277.191742 
L 222.921657 287.06083 
L 102.460938 287.06083 
z
" clip-path="url(#p2438f7fa63)" style="fill: #1f77b4"/>
   </g>
   <g id="patch_8">
    <path d="M 102.460938 336.406269 
L 406.021949 336.406269 
L 406.021949 346.275357 
L 102.460938 346.275357 
z
" clip-path="url(#p2438f7fa63)" style="fill: #1f77b4"/>
   </g>
   <g id="patch_9">
    <path d="M 102.460938 395.620797 
L 314.084608 395.620797 
L 314.084608 405.489885 
L 102.460938 405.489885 
z
" clip-path="url(#p2438f7fa63)" style="fill: #1f77b4"/>
   </g>
   <g id="patch_10">
    <path d="M 102.460938 454.835324 
L 215.392862 454.835324 
L 215.392862 464.704412 
L 102.460938 464.704412 
z
" clip-path="url(#p2438f7fa63)" style="fill: #1f77b4"/>
   </g>
   <g id="patch_11">
    <path d="M 102.460938 50.20272 
L 151.720767 50.20272 
L 151.720767 60.071808 
L 102.460938 60.071808 
z
" clip-path="url(#p2438f7fa63)" style="fill: #ff7f0e"/>
   </g>
   <g id="patch_12">
    <path d="M 102.460938 109.417247 
L 313.568348 109.417247 
L 313.568348 119.286335 
L 102.460938 119.286335 
z
" clip-path="url(#p2438f7fa63)" style="fill: #ff7f0e"/>
   </g>
   <g id="patch_13">
    <path d="M 102.460938 168.631775 
L 288.8739 168.631775 
L 288.8739 178.500863 
L 102.460938 178.500863 
z
" clip-path="url(#p2438f7fa63)" style="fill: #ff7f0e"/>
   </g>
   <g id="patch_14">
    <path d="M 102.460938 227.846302 
L 221.587984 227.846302 
L 221.587984 237.71539 
L 102.460938 237.71539 
z
" clip-path="url(#p2438f7fa63)" style="fill: #ff7f0e"/>
   </g>
   <g id="patch_15">
    <path d="M 102.460938 287.06083 
L 205.712982 287.06083 
L 205.712982 296.929918 
L 102.460938 296.929918 
z
" clip-path="url(#p2438f7fa63)" style="fill: #ff7f0e"/>
   </g>
   <g id="patch_16">
    <path d="M 102.460938 346.275357 
L 189.32172 346.275357 
L 189.32172 356.144445 
L 102.460938 356.144445 
z
" clip-path="url(#p2438f7fa63)" style="fill: #ff7f0e"/>
   </g>
   <g id="patch_17">
    <path d="M 102.460938 405.489885 
L 217.371859 405.489885 
L 217.371859 415.358973 
L 102.460938 415.358973 
z
" clip-path="url(#p2438f7fa63)" style="fill: #ff7f0e"/>
   </g>
   <g id="patch_18">
    <path d="M 102.460938 464.704412 
L 184.46027 464.704412 
L 184.46027 474.5735 
L 102.460938 474.5735 
z
" clip-path="url(#p2438f7fa63)" style="fill: #ff7f0e"/>
   </g>
   <g id="patch_19">
    <path d="M 102.460938 60.071808 
L 214.102211 60.071808 
L 214.102211 69.940896 
L 102.460938 69.940896 
z
" clip-path="url(#p2438f7fa63)" style="fill: #2ca02c"/>
   </g>
   <g id="patch_20">
    <path d="M 102.460938 119.286335 
L 138.857283 119.286335 
L 138.857283 129.155423 
L 102.460938 129.155423 
z
" clip-path="url(#p2438f7fa63)" style="fill: #2ca02c"/>
   </g>
   <g id="patch_21">
    <path d="M 102.460938 178.500863 
L 127.54258 178.500863 
L 127.54258 188.369951 
L 102.460938 188.369951 
z
" clip-path="url(#p2438f7fa63)" style="fill: #2ca02c"/>
   </g>
   <g id="patch_22">
    <path d="M 102.460938 237.71539 
L 241.464003 237.71539 
L 241.464003 247.584478 
L 102.460938 247.584478 
z
" clip-path="url(#p2438f7fa63)" style="fill: #2ca02c"/>
   </g>
   <g id="patch_23">
    <path d="M 102.460938 296.929918 
L 308.965027 296.929918 
L 308.965027 306.799006 
L 102.460938 306.799006 
z
" clip-path="url(#p2438f7fa63)" style="fill: #2ca02c"/>
   </g>
   <g id="patch_24">
    <path d="M 102.460938 356.144445 
L 142.255996 356.144445 
L 142.255996 366.013533 
L 102.460938 366.013533 
z
" clip-path="url(#p2438f7fa63)" style="fill: #2ca02c"/>
   </g>
   <g id="patch_25">
    <path d="M 102.460938 415.358973 
L 206.143199 415.358973 
L 206.143199 425.228061 
L 102.460938 425.228061 
z
" clip-path="url(#p2438f7fa63)" style="fill: #2ca02c"/>
   </g>
   <g id="patch_26">
    <path d="M 102.460938 474.5735 
L 337.746535 474.5735 
L 337.746535 484.442588 
L 102.460938 484.442588 
z
" clip-path="url(#p2438f7fa63)" style="fill: #2ca02c"/>
   </g>
   <g id="matplotlib.axis_1">
    <g id="xtick_1">
     <g id="line2d_1">
      <defs>
       <path id="m4c99cd72f3" d="M 0 0 
L 0 3.5 
" style="stroke: #000000; stroke-width: 0.8"/>
      </defs>
      <g>
       <use xlink:href="#m4c99cd72f3" x="102.460938" y="499.24622" style="stroke: #000000; stroke-width: 0.8"/>
      </g>
     </g>
     <g id="text_1">
      <text style="font: 10px 'sans-serif'; text-anchor: middle" x="102.460938" y="513.419657" transform="rotate(-0, 102.460938, 513.419657)">0</text>
     </g>
    </g>
    <g id="xtick_2">
     <g id="line2d_2">
      <g>
       <use xlink:href="#m4c99cd72f3" x="145.482623" y="499.24622" style="stroke: #000000; stroke-width: 0.8"/>
      </g>
     </g>
     <g id="text_2">
      <text style="font: 10px 'sans-serif'; text-anchor: middle" x="145.482623" y="513.419657" transform="rotate(-0, 145.482623, 513.419657)">10</text>
     </g>
    </g>
    <g id="xtick_3">
     <g id="line2d_3">
      <g>
       <use xlink:href="#m4c99cd72f3" x="188.504308" y="499.24622" style="stroke: #000000; stroke-width: 0.8"/>
      </g>
     </g>
     <g id="text_3">
      <text style="font: 10px 'sans-serif'; text-anchor: middle" x="188.504308" y="513.419657" transform="rotate(-0, 188.504308, 513.419657)">20</text>
     </g>
    </g>
    <g id="xtick_4">
     <g id="line2d_4">
      <g>
       <use xlink:href="#m4c99cd72f3" x="231.525994" y="499.24622" style="stroke: #000000; stroke-width: 0.8"/>
      </g>
     </g>
     <g id="text_4">
      <text style="font: 10px 'sans-serif'; text-anchor: middle" x="231.525994" y="513.419657" transform="rotate(-0, 231.525994, 513.419657)">30</text>
     </g>
    </g>
    <g id="xtick_5">
     <g id="line2d_5">
      <g>
       <use xlink:href="#m4c99cd72f3" x="274.547679" y="499.24622" style="stroke: #000000; stroke-width: 0.8"/>
      </g>
     </g>
     <g id="text_5">
      <text style="font: 10px 'sans-serif'; text-anchor: middle" x="274.547679" y="513.419657" transform="rotate(-0, 274.547679, 513.419657)">40</text>
     </g>
    </g>
    <g id="xtick_6">
     <g id="line2d_6">
      <g>
       <use xlink:href="#m4c99cd72f3" x="317.569364" y="499.24622" style="stroke: #000000; stroke-width: 0.8"/>
      </g>
     </g>
     <g id="text_6">
      <text style="font: 10px 'sans-serif'; text-anchor: middle" x="317.569364" y="513.419657" transform="rotate(-0, 317.569364, 513.419657)">50</text>
     </g>
    </g>
    <g id="xtick_7">
     <g id="line2d_7">
      <g>
       <use xlink:href="#m4c99cd72f3" x="360.59105" y="499.24622" style="stroke: #000000; stroke-width: 0.8"/>
      </g>
     </g>
     <g id="text_7">
      <text style="font: 10px 'sans-serif'; text-anchor: middle" x="360.59105" y="513.419657" transform="rotate(-0, 360.59105, 513.419657)">60</text>
     </g>
    </g>
    <g id="xtick_8">
     <g id="line2d_8">
      <g>
       <use xlink:href="#m4c99cd72f3" x="403.612735" y="499.24622" style="stroke: #000000; stroke-width: 0.8"/>
      </g>
     </g>
     <g id="text_8">
      <text style="font: 10px 'sans-serif'; text-anchor: middle" x="403.612735" y="513.419657" transform="rotate(-0, 403.612735, 513.419657)">70</text>
     </g>
    </g>
    <g id="text_9">
     <text style="font: 10px 'sans-serif'; text-anchor: middle" x="261.830469" y="526.67747" transform="rotate(-0, 261.830469, 526.67747)">Percentage</text>
    </g>
   </g>
   <g id="matplotlib.axis_2">
    <g id="ytick_1">
     <g id="line2d_9">
      <defs>
       <path id="m8e343aef83" d="M 0 0 
L -3.5 0 
" style="stroke: #000000; stroke-width: 0.8"/>
      </defs>
      <g>
       <use xlink:href="#m8e343aef83" x="102.460938" y="55.137264" style="stroke: #000000; stroke-width: 0.8"/>
      </g>
     </g>
     <g id="text_10">
      <text style="font: 10px 'sans-serif'; text-anchor: end" x="95.460938" y="58.723983" transform="rotate(-0, 95.460938, 58.723983)">Australia</text>
     </g>
    </g>
    <g id="ytick_2">
     <g id="line2d_10">
      <g>
       <use xlink:href="#m8e343aef83" x="102.460938" y="114.351791" style="stroke: #000000; stroke-width: 0.8"/>
      </g>
     </g>
     <g id="text_11">
      <text style="font: 10px 'sans-serif'; text-anchor: end" x="95.460938" y="118.036166" transform="rotate(-0, 95.460938, 118.036166)">Germany</text>
     </g>
    </g>
    <g id="ytick_3">
     <g id="line2d_11">
      <g>
       <use xlink:href="#m8e343aef83" x="102.460938" y="173.566319" style="stroke: #000000; stroke-width: 0.8"/>
      </g>
     </g>
     <g id="text_12">
      <text style="font: 10px 'sans-serif'; text-anchor: end" x="95.460938" y="177.153037" transform="rotate(-0, 95.460938, 177.153037)">Netherlands</text>
     </g>
    </g>
    <g id="ytick_4">
     <g id="line2d_12">
      <g>
       <use xlink:href="#m8e343aef83" x="102.460938" y="232.780846" style="stroke: #000000; stroke-width: 0.8"/>
      </g>
     </g>
     <g id="text_13">
      <text style="font: 10px 'sans-serif'; text-anchor: end" x="95.460938" y="236.367565" transform="rotate(-0, 95.460938, 236.367565)">New Zealand</text>
     </g>
    </g>
    <g id="ytick_5">
     <g id="line2d_13">
      <g>
       <use xlink:href="#m8e343aef83" x="102.460938" y="291.995374" style="stroke: #000000; stroke-width: 0.8"/>
      </g>
     </g>
     <g id="text_14">
      <text style="font: 10px 'sans-serif'; text-anchor: end" x="95.460938" y="295.582092" transform="rotate(-0, 95.460938, 295.582092)">South Africa</text>
     </g>
    </g>
    <g id="ytick_6">
     <g id="line2d_14">
      <g>
       <use xlink:href="#m8e343aef83" x="102.460938" y="351.209901" style="stroke: #000000; stroke-width: 0.8"/>
      </g>
     </g>
     <g id="text_15">
      <text style="font: 10px 'sans-serif'; text-anchor: end" x="95.460938" y="354.808339" transform="rotate(-0, 95.460938, 354.808339)">United Kingdom</text>
     </g>
    </g>
    <g id="ytick_7">
     <g id="line2d_15">
      <g>
       <use xlink:href="#m8e343aef83" x="102.460938" y="410.424429" style="stroke: #000000; stroke-width: 0.8"/>
      </g>
     </g>
     <g id="text_16">
      <text style="font: 10px 'sans-serif'; text-anchor: end" x="95.460938" y="414.011147" transform="rotate(-0, 95.460938, 414.011147)">United States</text>
     </g>
    </g>
    <g id="ytick_8">
     <g id="line2d_16">
      <g>
       <use xlink:href="#m8e343aef83" x="102.460938" y="469.638956" style="stroke: #000000; stroke-width: 0.8"/>
      </g>
     </g>
     <g id="text_17">
      <text style="font: 10px 'sans-serif'; text-anchor: end" x="95.460938" y="473.225675" transform="rotate(-0, 95.460938, 473.225675)">World</text>
     </g>
    </g>
    <g id="text_18">
     <text style="font: 10px 'sans-serif'; text-anchor: middle" x="18.16875" y="262.38811" transform="rotate(-90, 18.16875, 262.38811)">Country</text>
    </g>
   </g>
   <g id="patch_27">
    <path d="M 102.460938 499.24622 
L 421.2 499.24622 
" style="fill: none; stroke: #000000; stroke-width: 0.8; stroke-linejoin: miter; stroke-linecap: square"/>
   </g>
   <g id="text_19">
    <text style="font: 8px 'sans-serif'; text-anchor: start" x="376.776688" y="48.346723" transform="rotate(-0, 376.776688, 48.346723)">63</text>
   </g>
   <g id="text_20">
    <text style="font: 8px 'sans-serif'; text-anchor: start" x="290.174035" y="107.561251" transform="rotate(-0, 290.174035, 107.561251)">42</text>
   </g>
   <g id="text_21">
    <text style="font: 8px 'sans-serif'; text-anchor: start" x="326.140164" y="166.775778" transform="rotate(-0, 326.140164, 166.775778)">51</text>
   </g>
   <g id="text_22">
    <text style="font: 8px 'sans-serif'; text-anchor: start" x="279.547679" y="225.990306" transform="rotate(-0, 279.547679, 225.990306)">40</text>
   </g>
   <g id="text_23">
    <text style="font: 8px 'sans-serif'; text-anchor: start" x="227.921657" y="285.204833" transform="rotate(-0, 227.921657, 285.204833)">28</text>
   </g>
   <g id="text_24">
    <text style="font: 8px 'sans-serif'; text-anchor: start" x="411.021949" y="344.419361" transform="rotate(-0, 411.021949, 344.419361)">71</text>
   </g>
   <g id="text_25">
    <text style="font: 8px 'sans-serif'; text-anchor: start" x="319.084608" y="403.633888" transform="rotate(-0, 319.084608, 403.633888)">49</text>
   </g>
   <g id="text_26">
    <text style="font: 8px 'sans-serif'; text-anchor: start" x="220.392862" y="462.848416" transform="rotate(-0, 220.392862, 462.848416)">26</text>
   </g>
   <g id="text_27">
    <text style="font: 8px 'sans-serif'; text-anchor: start" x="156.720767" y="58.215811" transform="rotate(-0, 156.720767, 58.215811)">11</text>
   </g>
   <g id="text_28">
    <text style="font: 8px 'sans-serif'; text-anchor: start" x="318.568348" y="117.430339" transform="rotate(-0, 318.568348, 117.430339)">49</text>
   </g>
   <g id="text_29">
    <text style="font: 8px 'sans-serif'; text-anchor: start" x="293.8739" y="176.644866" transform="rotate(-0, 293.8739, 176.644866)">43</text>
   </g>
   <g id="text_30">
    <text style="font: 8px 'sans-serif'; text-anchor: start" x="226.587984" y="235.859394" transform="rotate(-0, 226.587984, 235.859394)">28</text>
   </g>
   <g id="text_31">
    <text style="font: 8px 'sans-serif'; text-anchor: start" x="210.712982" y="295.073921" transform="rotate(-0, 210.712982, 295.073921)">24</text>
   </g>
   <g id="text_32">
    <text style="font: 8px 'sans-serif'; text-anchor: start" x="194.32172" y="354.288449" transform="rotate(-0, 194.32172, 354.288449)">20</text>
   </g>
   <g id="text_33">
    <text style="font: 8px 'sans-serif'; text-anchor: start" x="222.371859" y="413.502976" transform="rotate(-0, 222.371859, 413.502976)">27</text>
   </g>
   <g id="text_34">
    <text style="font: 8px 'sans-serif'; text-anchor: start" x="189.46027" y="472.717503" transform="rotate(-0, 189.46027, 472.717503)">19</text>
   </g>
   <g id="text_35">
    <text style="font: 8px 'sans-serif'; text-anchor: start" x="219.102211" y="68.084899" transform="rotate(-0, 219.102211, 68.084899)">26</text>
   </g>
   <g id="text_36">
    <text style="font: 8px 'sans-serif'; text-anchor: start" x="143.857283" y="127.299426" transform="rotate(-0, 143.857283, 127.299426)">8</text>
   </g>
   <g id="text_37">
    <text style="font: 8px 'sans-serif'; text-anchor: start" x="132.54258" y="186.513954" transform="rotate(-0, 132.54258, 186.513954)">6</text>
   </g>
   <g id="text_38">
    <text style="font: 8px 'sans-serif'; text-anchor: start" x="246.464003" y="245.728481" transform="rotate(-0, 246.464003, 245.728481)">32</text>
   </g>
   <g id="text_39">
    <text style="font: 8px 'sans-serif'; text-anchor: start" x="313.965027" y="304.943009" transform="rotate(-0, 313.965027, 304.943009)">48</text>
   </g>
   <g id="text_40">
    <text style="font: 8px 'sans-serif'; text-anchor: start" x="147.255996" y="364.157536" transform="rotate(-0, 147.255996, 364.157536)">9</text>
   </g>
   <g id="text_41">
    <text style="font: 8px 'sans-serif'; text-anchor: start" x="211.143199" y="423.372064" transform="rotate(-0, 211.143199, 423.372064)">24</text>
   </g>
   <g id="text_42">
    <text style="font: 8px 'sans-serif'; text-anchor: start" x="342.746535" y="482.586591" transform="rotate(-0, 342.746535, 482.586591)">55</text>
   </g>
   <g id="text_43">
    <text style="font: 12px 'sans-serif'; text-anchor: middle" x="261.830469" y="19.53" transform="rotate(-0, 261.830469, 19.53)">Percentage of Doctorate and Master per country</text>
   </g>
   <g id="legend_1">
    <g id="patch_28">
     <path d="M 131.414844 565.303653 
L 392.246094 565.303653 
Q 394.246094 565.303653 394.246094 563.303653 
L 394.246094 549.894278 
Q 394.246094 547.894278 392.246094 547.894278 
L 131.414844 547.894278 
Q 129.414844 547.894278 129.414844 549.894278 
L 129.414844 563.303653 
Q 129.414844 565.303653 131.414844 565.303653 
z
" style="fill: #ffffff; opacity: 0.8; stroke: #cccccc; stroke-linejoin: miter"/>
    </g>
    <g id="patch_29">
     <path d="M 133.414844 559.091153 
L 153.414844 559.091153 
L 153.414844 552.091153 
L 133.414844 552.091153 
z
" style="fill: #1f77b4"/>
    </g>
    <g id="text_44">
     <text style="font: 10px 'sans-serif'; text-anchor: start" x="161.414844" y="559.091153" transform="rotate(-0, 161.414844, 559.091153)">Doctorate</text>
    </g>
    <g id="patch_30">
     <path d="M 224.766406 559.091153 
L 244.766406 559.091153 
L 244.766406 552.091153 
L 224.766406 552.091153 
z
" style="fill: #ff7f0e"/>
    </g>
    <g id="text_45">
     <text style="font: 10px 'sans-serif'; text-anchor: start" x="252.766406" y="559.091153" transform="rotate(-0, 252.766406, 559.091153)">Master degree</text>
    </g>
    <g id="patch_31">
     <path d="M 337.238281 559.091153 
L 357.238281 559.091153 
L 357.238281 552.091153 
L 337.238281 552.091153 
z
" style="fill: #2ca02c"/>
    </g>
    <g id="text_46">
     <text style="font: 10px 'sans-serif'; text-anchor: start" x="365.238281" y="559.091153" transform="rotate(-0, 365.238281, 559.091153)">Other</text>
    </g>
   </g>
  </g>
 </g>
 <defs>
  <clipPath id="p2438f7fa63">
   <rect x="102.460938" y="25.53" width="318.739063" height="473.71622"/>
  </clipPath>
 </defs>
</svg>
