<?xml version="1.0" encoding="utf-8" standalone="no"?>
<!DOCTYPE svg PUBLIC "-//W3C//DTD SVG 1.1//EN"
  "http://www.w3.org/Graphics/SVG/1.1/DTD/svg11.dtd">
<svg xmlns:xlink="http://www.w3.org/1999/xlink" width="648pt" height="288pt" viewBox="0 0 648 288" xmlns="http://www.w3.org/2000/svg" version="1.1">
 <metadata>
  <rdf:RDF xmlns:dc="http://purl.org/dc/elements/1.1/" xmlns:cc="http://creativecommons.org/ns#" xmlns:rdf="http://www.w3.org/1999/02/22-rdf-syntax-ns#">
   <cc:Work>
    <dc:type rdf:resource="http://purl.org/dc/dcmitype/StillImage"/>
    <dc:date>2022-03-18T15:58:54.763746</dc:date>
    <dc:format>image/svg+xml</dc:format>
    <dc:creator>
     <cc:Agent>
      <dc:title>Matplotlib v3.5.1, https://matplotlib.org/</dc:title>
     </cc:Agent>
    </dc:creator>
   </cc:Work>
  </rdf:RDF>
 </metadata>
 <defs>
  <style type="text/css">*{stroke-linejoin: round; stroke-linecap: butt}</style>
 </defs>
 <g id="figure_1">
  <g id="patch_1">
   <path d="M 0 288 
L 648 288 
L 648 0 
L 0 0 
z
" style="fill: #ffffff"/>
  </g>
  <g id="axes_1">
   <g id="patch_2">
    <path d="M 133.18 246.04 
L 628.92 246.04 
L 628.92 25.6875 
L 133.18 25.6875 
z
" style="fill: #ffffff"/>
   </g>
   <g id="line2d_1">
    <path d="M 381.66813 246.04 
L 381.66813 25.6875 
" clip-path="url(#pac9f0914cf)" style="fill: none; stroke-dasharray: 5.55,2.4; stroke-dashoffset: 0; stroke: #000000; stroke-opacity: 0.5; stroke-width: 1.5"/>
   </g>
   <g id="patch_3">
    <path d="M 254.458834 35.703523 
L 254.458834 35.703523 
L 254.458834 236.023977 
L 254.458834 236.023977 
z
" clip-path="url(#pac9f0914cf)" style="fill: #67001f"/>
   </g>
   <g id="patch_4">
    <path d="M 254.458834 35.703523 
L 310.000921 35.703523 
L 310.000921 236.023977 
L 254.458834 236.023977 
z
" clip-path="url(#pac9f0914cf)" style="fill: #b61f2e"/>
   </g>
   <g id="patch_5">
    <path d="M 310.000921 35.703523 
L 342.251165 35.703523 
L 342.251165 236.023977 
L 310.000921 236.023977 
z
" clip-path="url(#pac9f0914cf)" style="fill: #dc6e57"/>
   </g>
   <g id="patch_6">
    <path d="M 342.251165 35.703523 
L 356.584607 35.703523 
L 356.584607 236.023977 
L 342.251165 236.023977 
z
" clip-path="url(#pac9f0914cf)" style="fill: #f7b799"/>
   </g>
   <g id="patch_7">
    <path d="M 356.584607 35.703523 
L 381.66813 35.703523 
L 381.66813 236.023977 
L 356.584607 236.023977 
z
" clip-path="url(#pac9f0914cf)" style="fill: #fae7dc"/>
   </g>
   <g id="patch_8">
    <path d="M 381.66813 35.703523 
L 410.335013 35.703523 
L 410.335013 236.023977 
L 381.66813 236.023977 
z
" clip-path="url(#pac9f0914cf)" style="fill: #e1edf3"/>
   </g>
   <g id="patch_9">
    <path d="M 410.335013 35.703523 
L 456.918699 35.703523 
L 456.918699 236.023977 
L 410.335013 236.023977 
z
" clip-path="url(#pac9f0914cf)" style="fill: #a7d0e4"/>
   </g>
   <g id="patch_10">
    <path d="M 456.918699 35.703523 
L 489.168943 35.703523 
L 489.168943 236.023977 
L 456.918699 236.023977 
z
" clip-path="url(#pac9f0914cf)" style="fill: #529dc8"/>
   </g>
   <g id="patch_11">
    <path d="M 489.168943 35.703523 
L 501.710704 35.703523 
L 501.710704 236.023977 
L 489.168943 236.023977 
z
" clip-path="url(#pac9f0914cf)" style="fill: #246aae"/>
   </g>
   <g id="patch_12">
    <path d="M 501.710704 35.703523 
L 501.710704 35.703523 
L 501.710704 236.023977 
L 501.710704 236.023977 
z
" clip-path="url(#pac9f0914cf)" style="fill: #053061"/>
   </g>
   <g id="matplotlib.axis_1">
    <g id="xtick_1">
     <g id="line2d_2">
      <defs>
       <path id="m4c99cd72f3" d="M 0 0 
L 0 3.5 
" style="stroke: #000000; stroke-width: 0.8"/>
      </defs>
      <g>
       <use xlink:href="#m4c99cd72f3" x="134.416259" y="246.04" style="stroke: #000000; stroke-width: 0.8"/>
      </g>
     </g>
     <g id="text_1">
      <text style="font: 10px 'sans-serif'; text-anchor: middle" x="134.416259" y="260.213437" transform="rotate(-0, 134.416259, 260.213437)">100</text>
     </g>
    </g>
    <g id="xtick_2">
     <g id="line2d_3">
      <g>
       <use xlink:href="#m4c99cd72f3" x="159.141446" y="246.04" style="stroke: #000000; stroke-width: 0.8"/>
      </g>
     </g>
     <g id="text_2">
      <text style="font: 10px 'sans-serif'; text-anchor: middle" x="159.141446" y="260.213437" transform="rotate(-0, 159.141446, 260.213437)">90</text>
     </g>
    </g>
    <g id="xtick_3">
     <g id="line2d_4">
      <g>
       <use xlink:href="#m4c99cd72f3" x="183.866633" y="246.04" style="stroke: #000000; stroke-width: 0.8"/>
      </g>
     </g>
     <g id="text_3">
      <text style="font: 10px 'sans-serif'; text-anchor: middle" x="183.866633" y="260.213437" transform="rotate(-0, 183.866633, 260.213437)">80</text>
     </g>
    </g>
    <g id="xtick_4">
     <g id="line2d_5">
      <g>
       <use xlink:href="#m4c99cd72f3" x="208.59182" y="246.04" style="stroke: #000000; stroke-width: 0.8"/>
      </g>
     </g>
     <g id="text_4">
      <text style="font: 10px 'sans-serif'; text-anchor: middle" x="208.59182" y="260.213437" transform="rotate(-0, 208.59182, 260.213437)">70</text>
     </g>
    </g>
    <g id="xtick_5">
     <g id="line2d_6">
      <g>
       <use xlink:href="#m4c99cd72f3" x="233.317007" y="246.04" style="stroke: #000000; stroke-width: 0.8"/>
      </g>
     </g>
     <g id="text_5">
      <text style="font: 10px 'sans-serif'; text-anchor: middle" x="233.317007" y="260.213437" transform="rotate(-0, 233.317007, 260.213437)">60</text>
     </g>
    </g>
    <g id="xtick_6">
     <g id="line2d_7">
      <g>
       <use xlink:href="#m4c99cd72f3" x="258.042195" y="246.04" style="stroke: #000000; stroke-width: 0.8"/>
      </g>
     </g>
     <g id="text_6">
      <text style="font: 10px 'sans-serif'; text-anchor: middle" x="258.042195" y="260.213437" transform="rotate(-0, 258.042195, 260.213437)">50</text>
     </g>
    </g>
    <g id="xtick_7">
     <g id="line2d_8">
      <g>
       <use xlink:href="#m4c99cd72f3" x="282.767382" y="246.04" style="stroke: #000000; stroke-width: 0.8"/>
      </g>
     </g>
     <g id="text_7">
      <text style="font: 10px 'sans-serif'; text-anchor: middle" x="282.767382" y="260.213437" transform="rotate(-0, 282.767382, 260.213437)">40</text>
     </g>
    </g>
    <g id="xtick_8">
     <g id="line2d_9">
      <g>
       <use xlink:href="#m4c99cd72f3" x="307.492569" y="246.04" style="stroke: #000000; stroke-width: 0.8"/>
      </g>
     </g>
     <g id="text_8">
      <text style="font: 10px 'sans-serif'; text-anchor: middle" x="307.492569" y="260.213437" transform="rotate(-0, 307.492569, 260.213437)">30</text>
     </g>
    </g>
    <g id="xtick_9">
     <g id="line2d_10">
      <g>
       <use xlink:href="#m4c99cd72f3" x="332.217756" y="246.04" style="stroke: #000000; stroke-width: 0.8"/>
      </g>
     </g>
     <g id="text_9">
      <text style="font: 10px 'sans-serif'; text-anchor: middle" x="332.217756" y="260.213437" transform="rotate(-0, 332.217756, 260.213437)">20</text>
     </g>
    </g>
    <g id="xtick_10">
     <g id="line2d_11">
      <g>
       <use xlink:href="#m4c99cd72f3" x="356.942943" y="246.04" style="stroke: #000000; stroke-width: 0.8"/>
      </g>
     </g>
     <g id="text_10">
      <text style="font: 10px 'sans-serif'; text-anchor: middle" x="356.942943" y="260.213437" transform="rotate(-0, 356.942943, 260.213437)">10</text>
     </g>
    </g>
    <g id="xtick_11">
     <g id="line2d_12">
      <g>
       <use xlink:href="#m4c99cd72f3" x="381.66813" y="246.04" style="stroke: #000000; stroke-width: 0.8"/>
      </g>
     </g>
     <g id="text_11">
      <text style="font: 10px 'sans-serif'; text-anchor: middle" x="381.66813" y="260.213437" transform="rotate(-0, 381.66813, 260.213437)">0</text>
     </g>
    </g>
    <g id="xtick_12">
     <g id="line2d_13">
      <g>
       <use xlink:href="#m4c99cd72f3" x="406.393317" y="246.04" style="stroke: #000000; stroke-width: 0.8"/>
      </g>
     </g>
     <g id="text_12">
      <text style="font: 10px 'sans-serif'; text-anchor: middle" x="406.393317" y="260.213437" transform="rotate(-0, 406.393317, 260.213437)">10</text>
     </g>
    </g>
    <g id="xtick_13">
     <g id="line2d_14">
      <g>
       <use xlink:href="#m4c99cd72f3" x="431.118504" y="246.04" style="stroke: #000000; stroke-width: 0.8"/>
      </g>
     </g>
     <g id="text_13">
      <text style="font: 10px 'sans-serif'; text-anchor: middle" x="431.118504" y="260.213437" transform="rotate(-0, 431.118504, 260.213437)">20</text>
     </g>
    </g>
    <g id="xtick_14">
     <g id="line2d_15">
      <g>
       <use xlink:href="#m4c99cd72f3" x="455.843691" y="246.04" style="stroke: #000000; stroke-width: 0.8"/>
      </g>
     </g>
     <g id="text_14">
      <text style="font: 10px 'sans-serif'; text-anchor: middle" x="455.843691" y="260.213437" transform="rotate(-0, 455.843691, 260.213437)">30</text>
     </g>
    </g>
    <g id="xtick_15">
     <g id="line2d_16">
      <g>
       <use xlink:href="#m4c99cd72f3" x="480.568878" y="246.04" style="stroke: #000000; stroke-width: 0.8"/>
      </g>
     </g>
     <g id="text_15">
      <text style="font: 10px 'sans-serif'; text-anchor: middle" x="480.568878" y="260.213437" transform="rotate(-0, 480.568878, 260.213437)">40</text>
     </g>
    </g>
    <g id="xtick_16">
     <g id="line2d_17">
      <g>
       <use xlink:href="#m4c99cd72f3" x="505.294065" y="246.04" style="stroke: #000000; stroke-width: 0.8"/>
      </g>
     </g>
     <g id="text_16">
      <text style="font: 10px 'sans-serif'; text-anchor: middle" x="505.294065" y="260.213437" transform="rotate(-0, 505.294065, 260.213437)">50</text>
     </g>
    </g>
    <g id="xtick_17">
     <g id="line2d_18">
      <g>
       <use xlink:href="#m4c99cd72f3" x="530.019252" y="246.04" style="stroke: #000000; stroke-width: 0.8"/>
      </g>
     </g>
     <g id="text_17">
      <text style="font: 10px 'sans-serif'; text-anchor: middle" x="530.019252" y="260.213437" transform="rotate(-0, 530.019252, 260.213437)">60</text>
     </g>
    </g>
    <g id="xtick_18">
     <g id="line2d_19">
      <g>
       <use xlink:href="#m4c99cd72f3" x="554.744439" y="246.04" style="stroke: #000000; stroke-width: 0.8"/>
      </g>
     </g>
     <g id="text_18">
      <text style="font: 10px 'sans-serif'; text-anchor: middle" x="554.744439" y="260.213437" transform="rotate(-0, 554.744439, 260.213437)">70</text>
     </g>
    </g>
    <g id="xtick_19">
     <g id="line2d_20">
      <g>
       <use xlink:href="#m4c99cd72f3" x="579.469626" y="246.04" style="stroke: #000000; stroke-width: 0.8"/>
      </g>
     </g>
     <g id="text_19">
      <text style="font: 10px 'sans-serif'; text-anchor: middle" x="579.469626" y="260.213437" transform="rotate(-0, 579.469626, 260.213437)">80</text>
     </g>
    </g>
    <g id="xtick_20">
     <g id="line2d_21">
      <g>
       <use xlink:href="#m4c99cd72f3" x="604.194813" y="246.04" style="stroke: #000000; stroke-width: 0.8"/>
      </g>
     </g>
     <g id="text_20">
      <text style="font: 10px 'sans-serif'; text-anchor: middle" x="604.194813" y="260.213437" transform="rotate(-0, 604.194813, 260.213437)">90</text>
     </g>
    </g>
    <g id="xtick_21">
     <g id="line2d_22">
      <g>
       <use xlink:href="#m4c99cd72f3" x="628.92" y="246.04" style="stroke: #000000; stroke-width: 0.8"/>
      </g>
     </g>
     <g id="text_21">
      <text style="font: 10px 'sans-serif'; text-anchor: middle" x="628.92" y="260.213437" transform="rotate(-0, 628.92, 260.213437)">100</text>
     </g>
    </g>
    <g id="text_22">
     <text style="font: 10px 'sans-serif'; text-anchor: middle" x="381.05" y="273.47125" transform="rotate(-0, 381.05, 273.47125)">Percentage</text>
    </g>
   </g>
   <g id="matplotlib.axis_2">
    <g id="ytick_1">
     <g id="line2d_23">
      <defs>
       <path id="m8e343aef83" d="M 0 0 
L -3.5 0 
" style="stroke: #000000; stroke-width: 0.8"/>
      </defs>
      <g>
       <use xlink:href="#m8e343aef83" x="133.18" y="135.86375" style="stroke: #000000; stroke-width: 0.8"/>
      </g>
     </g>
     <g id="text_23">
      <text style="font: 11px 'sans-serif'" transform="translate(21.63875 128.699828)">turnOver3. How often</text>
      <text style="font: 11px 'sans-serif'" transform="translate(10.612969 140.492516)">do you consider leaving</text>
      <text style="font: 11px 'sans-serif'" transform="translate(80.932188 152.516891)">your job?</text>
     </g>
    </g>
   </g>
   <g id="patch_13">
    <path d="M 133.18 246.04 
L 628.92 246.04 
" style="fill: none; stroke: #000000; stroke-width: 0.8; stroke-linejoin: miter; stroke-linecap: square"/>
   </g>
   <g id="text_24">
    <text style="font: 10px 'sans-serif'; text-anchor: middle" x="282.229877" y="135.86375" transform="rotate(-0, 282.229877, 135.86375)">22</text>
   </g>
   <g id="text_25">
    <text style="font: 10px 'sans-serif'; text-anchor: middle" x="326.126043" y="135.86375" transform="rotate(-0, 326.126043, 135.86375)">13</text>
   </g>
   <g id="text_26">
    <text style="font: 10px 'sans-serif'; text-anchor: middle" x="349.417886" y="135.86375" transform="rotate(-0, 349.417886, 135.86375)">6</text>
   </g>
   <g id="text_27">
    <text style="font: 10px 'sans-serif'; text-anchor: middle" x="369.126368" y="135.86375" transform="rotate(-0, 369.126368, 135.86375)">10</text>
   </g>
   <g id="text_28">
    <text style="font: 10px 'sans-serif'; text-anchor: middle" x="396.001571" y="135.86375" transform="rotate(-0, 396.001571, 135.86375)">12</text>
   </g>
   <g id="text_29">
    <text style="font: 10px 'sans-serif'; text-anchor: middle" x="433.626856" y="135.86375" transform="rotate(-0, 433.626856, 135.86375)">19</text>
   </g>
   <g id="text_30">
    <text style="font: 10px 'sans-serif'; text-anchor: middle" x="473.043821" y="135.86375" transform="rotate(-0, 473.043821, 135.86375)">13</text>
   </g>
   <g id="text_31">
    <text style="font: 10px 'sans-serif'; text-anchor: middle" x="495.439824" y="135.86375" transform="rotate(-0, 495.439824, 135.86375)">5</text>
   </g>
   <g id="text_32">
    <text style="font: 12px 'sans-serif'; text-anchor: middle" x="381.05" y="19.6875" transform="rotate(-0, 381.05, 19.6875)">Consider leaving job</text>
   </g>
   <g id="legend_1">
    <g id="patch_14">
     <path d="M 140.18 241.04 
L 621.92 241.04 
Q 623.92 241.04 623.92 239.04 
L 623.92 225.782187 
Q 623.92 223.782187 621.92 223.782187 
L 140.18 223.782187 
Q 138.18 223.782187 138.18 225.782187 
L 138.18 239.04 
Q 138.18 241.04 140.18 241.04 
z
" style="fill: #ffffff; opacity: 0.8; stroke: #cccccc; stroke-linejoin: miter"/>
    </g>
    <g id="patch_15">
     <path d="M 142.18 234.955625 
L 162.18 234.955625 
L 162.18 227.955625 
L 142.18 227.955625 
z
" style="fill: #67001f"/>
    </g>
    <g id="text_33">
     <text style="font: 10px 'sans-serif'; text-anchor: start" x="170.18" y="234.955625" transform="rotate(-0, 170.18, 234.955625)">1</text>
    </g>
    <g id="patch_16">
     <path d="M 190.915347 234.955625 
L 210.915347 234.955625 
L 210.915347 227.955625 
L 190.915347 227.955625 
z
" style="fill: #b61f2e"/>
    </g>
    <g id="text_34">
     <text style="font: 10px 'sans-serif'; text-anchor: start" x="218.915347" y="234.955625" transform="rotate(-0, 218.915347, 234.955625)">2</text>
    </g>
    <g id="patch_17">
     <path d="M 239.650694 234.955625 
L 259.650694 234.955625 
L 259.650694 227.955625 
L 239.650694 227.955625 
z
" style="fill: #dc6e57"/>
    </g>
    <g id="text_35">
     <text style="font: 10px 'sans-serif'; text-anchor: start" x="267.650694" y="234.955625" transform="rotate(-0, 267.650694, 234.955625)">3</text>
    </g>
    <g id="patch_18">
     <path d="M 288.386042 234.955625 
L 308.386042 234.955625 
L 308.386042 227.955625 
L 288.386042 227.955625 
z
" style="fill: #f7b799"/>
    </g>
    <g id="text_36">
     <text style="font: 10px 'sans-serif'; text-anchor: start" x="316.386042" y="234.955625" transform="rotate(-0, 316.386042, 234.955625)">4</text>
    </g>
    <g id="patch_19">
     <path d="M 337.121389 234.955625 
L 357.121389 234.955625 
L 357.121389 227.955625 
L 337.121389 227.955625 
z
" style="fill: #fae7dc"/>
    </g>
    <g id="text_37">
     <text style="font: 10px 'sans-serif'; text-anchor: start" x="365.121389" y="234.955625" transform="rotate(-0, 365.121389, 234.955625)">5</text>
    </g>
    <g id="patch_20">
     <path d="M 385.856736 234.955625 
L 405.856736 234.955625 
L 405.856736 227.955625 
L 385.856736 227.955625 
z
" style="fill: #e1edf3"/>
    </g>
    <g id="text_38">
     <text style="font: 10px 'sans-serif'; text-anchor: start" x="413.856736" y="234.955625" transform="rotate(-0, 413.856736, 234.955625)">6</text>
    </g>
    <g id="patch_21">
     <path d="M 434.592083 234.955625 
L 454.592083 234.955625 
L 454.592083 227.955625 
L 434.592083 227.955625 
z
" style="fill: #a7d0e4"/>
    </g>
    <g id="text_39">
     <text style="font: 10px 'sans-serif'; text-anchor: start" x="462.592083" y="234.955625" transform="rotate(-0, 462.592083, 234.955625)">7</text>
    </g>
    <g id="patch_22">
     <path d="M 483.327431 234.955625 
L 503.327431 234.955625 
L 503.327431 227.955625 
L 483.327431 227.955625 
z
" style="fill: #529dc8"/>
    </g>
    <g id="text_40">
     <text style="font: 10px 'sans-serif'; text-anchor: start" x="511.327431" y="234.955625" transform="rotate(-0, 511.327431, 234.955625)">8</text>
    </g>
    <g id="patch_23">
     <path d="M 532.062778 234.955625 
L 552.062778 234.955625 
L 552.062778 227.955625 
L 532.062778 227.955625 
z
" style="fill: #246aae"/>
    </g>
    <g id="text_41">
     <text style="font: 10px 'sans-serif'; text-anchor: start" x="560.062778" y="234.955625" transform="rotate(-0, 560.062778, 234.955625)">9</text>
    </g>
    <g id="patch_24">
     <path d="M 580.798125 234.955625 
L 600.798125 234.955625 
L 600.798125 227.955625 
L 580.798125 227.955625 
z
" style="fill: #053061"/>
    </g>
    <g id="text_42">
     <text style="font: 10px 'sans-serif'; text-anchor: start" x="608.798125" y="234.955625" transform="rotate(-0, 608.798125, 234.955625)">10</text>
    </g>
   </g>
  </g>
 </g>
 <defs>
  <clipPath id="pac9f0914cf">
   <rect x="133.18" y="25.6875" width="495.74" height="220.3525"/>
  </clipPath>
 </defs>
</svg>
