<?xml version="1.0" encoding="utf-8" standalone="no"?>
<!DOCTYPE svg PUBLIC "-//W3C//DTD SVG 1.1//EN"
  "http://www.w3.org/Graphics/SVG/1.1/DTD/svg11.dtd">
<svg height="432pt" version="1.1" viewBox="0 0 576 432" width="576pt" xmlns="http://www.w3.org/2000/svg" xmlns:xlink="http://www.w3.org/1999/xlink">
 <metadata>
  <rdf:RDF xmlns:cc="http://creativecommons.org/ns#" xmlns:dc="http://purl.org/dc/elements/1.1/" xmlns:rdf="http://www.w3.org/1999/02/22-rdf-syntax-ns#">
   <cc:Work>
    <dc:type rdf:resource="http://purl.org/dc/dcmitype/StillImage"/>
    <dc:date>2021-03-29T15:52:58.475969</dc:date>
    <dc:format>image/svg+xml</dc:format>
    <dc:creator>
     <cc:Agent>
      <dc:title>Matplotlib v3.4.0, https://matplotlib.org/</dc:title>
     </cc:Agent>
    </dc:creator>
   </cc:Work>
  </rdf:RDF>
 </metadata>
 <defs>
  <style type="text/css">*{stroke-linecap:butt;stroke-linejoin:round;}</style>
 </defs>
 <g id="figure_1">
  <g id="patch_1">
   <path d="M 0 432 
L 576 432 
L 576 0 
L 0 0 
z
" style="fill:#ffffff;"/>
  </g>
  <g id="axes_1">
   <g id="patch_2">
    <path d="M 54.203125 380.84375 
L 277.829688 380.84375 
L 277.829688 33.21375 
L 54.203125 33.21375 
z
" style="fill:#ffffff;"/>
   </g>
   <g id="patch_3">
    <path clip-path="url(#p6d0a55f1f8)" d="M 65.384453 321.588636 
L 154.835078 321.588636 
L 154.835078 195.177727 
L 65.384453 195.177727 
L 65.384453 321.588636 
z
" style="fill:#3274a1;stroke:#3f3f3f;stroke-linejoin:miter;stroke-width:1.5;"/>
   </g>
   <g id="patch_4">
    <path clip-path="url(#p6d0a55f1f8)" d="M 177.197734 333.439659 
L 266.648359 333.439659 
L 266.648359 286.035568 
L 177.197734 286.035568 
L 177.197734 333.439659 
z
" style="fill:#e1812c;stroke:#3f3f3f;stroke-linejoin:miter;stroke-width:1.5;"/>
   </g>
   <g id="matplotlib.axis_1">
    <g id="xtick_1">
     <g id="line2d_1">
      <defs>
       <path d="M 0 0 
L 0 3.5 
" id="mc3a356a46d" style="stroke:#000000;stroke-width:0.8;"/>
      </defs>
      <g>
       <use style="stroke:#000000;stroke-width:0.8;" x="110.109766" xlink:href="#mc3a356a46d" y="390.84375"/>
      </g>
     </g>
     <g id="text_1">
      <text style="font-family:DejaVu Sans;font-size:10px;font-stretch:normal;font-style:normal;font-weight:normal;text-anchor:middle;" transform="rotate(-0, 110.109766, 405.442187)" x="110.109766" y="405.442187">2017</text>
     </g>
    </g>
    <g id="xtick_2">
     <g id="line2d_2">
      <g>
       <use style="stroke:#000000;stroke-width:0.8;" x="221.923047" xlink:href="#mc3a356a46d" y="390.84375"/>
      </g>
     </g>
     <g id="text_2">
      <text style="font-family:DejaVu Sans;font-size:10px;font-stretch:normal;font-style:normal;font-weight:normal;text-anchor:middle;" transform="rotate(-0, 221.923047, 405.442187)" x="221.923047" y="405.442187">2018</text>
     </g>
    </g>
    <g id="text_3">
     <text style="font-family:DejaVu Sans;font-size:10px;font-stretch:normal;font-style:normal;font-weight:normal;text-anchor:middle;" transform="rotate(-0, 166.016406, 419.120313)" x="166.016406" y="419.120313">Year</text>
    </g>
   </g>
   <g id="matplotlib.axis_2">
    <g id="ytick_1">
     <g id="line2d_3">
      <defs>
       <path d="M 0 0 
L -3.5 0 
" id="m82278324de" style="stroke:#000000;stroke-width:0.8;"/>
      </defs>
      <g>
       <use style="stroke:#000000;stroke-width:0.8;" x="44.203125" xlink:href="#m82278324de" y="365.042386"/>
      </g>
     </g>
     <g id="text_4">
      <text style="font-family:DejaVu Sans;font-size:10px;font-stretch:normal;font-style:normal;font-weight:normal;text-anchor:end;" transform="rotate(-0, 37.203125, 368.841605)" x="37.203125" y="368.841605">0</text>
     </g>
    </g>
    <g id="ytick_2">
     <g id="line2d_4">
      <g>
       <use style="stroke:#000000;stroke-width:0.8;" x="44.203125" xlink:href="#m82278324de" y="325.538977"/>
      </g>
     </g>
     <g id="text_5">
      <text style="font-family:DejaVu Sans;font-size:10px;font-stretch:normal;font-style:normal;font-weight:normal;text-anchor:end;" transform="rotate(-0, 37.203125, 329.338196)" x="37.203125" y="329.338196">5</text>
     </g>
    </g>
    <g id="ytick_3">
     <g id="line2d_5">
      <g>
       <use style="stroke:#000000;stroke-width:0.8;" x="44.203125" xlink:href="#m82278324de" y="286.035568"/>
      </g>
     </g>
     <g id="text_6">
      <text style="font-family:DejaVu Sans;font-size:10px;font-stretch:normal;font-style:normal;font-weight:normal;text-anchor:end;" transform="rotate(-0, 37.203125, 289.834787)" x="37.203125" y="289.834787">10</text>
     </g>
    </g>
    <g id="ytick_4">
     <g id="line2d_6">
      <g>
       <use style="stroke:#000000;stroke-width:0.8;" x="44.203125" xlink:href="#m82278324de" y="246.532159"/>
      </g>
     </g>
     <g id="text_7">
      <text style="font-family:DejaVu Sans;font-size:10px;font-stretch:normal;font-style:normal;font-weight:normal;text-anchor:end;" transform="rotate(-0, 37.203125, 250.331378)" x="37.203125" y="250.331378">15</text>
     </g>
    </g>
    <g id="ytick_5">
     <g id="line2d_7">
      <g>
       <use style="stroke:#000000;stroke-width:0.8;" x="44.203125" xlink:href="#m82278324de" y="207.02875"/>
      </g>
     </g>
     <g id="text_8">
      <text style="font-family:DejaVu Sans;font-size:10px;font-stretch:normal;font-style:normal;font-weight:normal;text-anchor:end;" transform="rotate(-0, 37.203125, 210.827969)" x="37.203125" y="210.827969">20</text>
     </g>
    </g>
    <g id="ytick_6">
     <g id="line2d_8">
      <g>
       <use style="stroke:#000000;stroke-width:0.8;" x="44.203125" xlink:href="#m82278324de" y="167.525341"/>
      </g>
     </g>
     <g id="text_9">
      <text style="font-family:DejaVu Sans;font-size:10px;font-stretch:normal;font-style:normal;font-weight:normal;text-anchor:end;" transform="rotate(-0, 37.203125, 171.32456)" x="37.203125" y="171.32456">25</text>
     </g>
    </g>
    <g id="ytick_7">
     <g id="line2d_9">
      <g>
       <use style="stroke:#000000;stroke-width:0.8;" x="44.203125" xlink:href="#m82278324de" y="128.021932"/>
      </g>
     </g>
     <g id="text_10">
      <text style="font-family:DejaVu Sans;font-size:10px;font-stretch:normal;font-style:normal;font-weight:normal;text-anchor:end;" transform="rotate(-0, 37.203125, 131.821151)" x="37.203125" y="131.821151">30</text>
     </g>
    </g>
    <g id="ytick_8">
     <g id="line2d_10">
      <g>
       <use style="stroke:#000000;stroke-width:0.8;" x="44.203125" xlink:href="#m82278324de" y="88.518523"/>
      </g>
     </g>
     <g id="text_11">
      <text style="font-family:DejaVu Sans;font-size:10px;font-stretch:normal;font-style:normal;font-weight:normal;text-anchor:end;" transform="rotate(-0, 37.203125, 92.317741)" x="37.203125" y="92.317741">35</text>
     </g>
    </g>
    <g id="ytick_9">
     <g id="line2d_11">
      <g>
       <use style="stroke:#000000;stroke-width:0.8;" x="44.203125" xlink:href="#m82278324de" y="49.015114"/>
      </g>
     </g>
     <g id="text_12">
      <text style="font-family:DejaVu Sans;font-size:10px;font-stretch:normal;font-style:normal;font-weight:normal;text-anchor:end;" transform="rotate(-0, 37.203125, 52.814332)" x="37.203125" y="52.814332">40</text>
     </g>
    </g>
    <g id="text_13">
     <text style="font-family:DejaVu Sans;font-size:10px;font-stretch:normal;font-style:normal;font-weight:normal;text-anchor:middle;" transform="rotate(-90, 18.398438, 207.02875)" x="18.398438" y="207.02875">Value</text>
    </g>
   </g>
   <g id="line2d_12">
    <path clip-path="url(#p6d0a55f1f8)" d="M 110.109766 321.588636 
L 110.109766 349.241023 
" style="fill:none;stroke:#3f3f3f;stroke-linecap:square;stroke-width:1.5;"/>
   </g>
   <g id="line2d_13">
    <path clip-path="url(#p6d0a55f1f8)" d="M 110.109766 195.177727 
L 110.109766 49.015114 
" style="fill:none;stroke:#3f3f3f;stroke-linecap:square;stroke-width:1.5;"/>
   </g>
   <g id="line2d_14">
    <path clip-path="url(#p6d0a55f1f8)" d="M 87.747109 349.241023 
L 132.472422 349.241023 
" style="fill:none;stroke:#3f3f3f;stroke-linecap:square;stroke-width:1.5;"/>
   </g>
   <g id="line2d_15">
    <path clip-path="url(#p6d0a55f1f8)" d="M 87.747109 49.015114 
L 132.472422 49.015114 
" style="fill:none;stroke:#3f3f3f;stroke-linecap:square;stroke-width:1.5;"/>
   </g>
   <g id="line2d_16"/>
   <g id="line2d_17">
    <path clip-path="url(#p6d0a55f1f8)" d="M 221.923047 333.439659 
L 221.923047 365.042386 
" style="fill:none;stroke:#3f3f3f;stroke-linecap:square;stroke-width:1.5;"/>
   </g>
   <g id="line2d_18">
    <path clip-path="url(#p6d0a55f1f8)" d="M 221.923047 286.035568 
L 221.923047 222.830114 
" style="fill:none;stroke:#3f3f3f;stroke-linecap:square;stroke-width:1.5;"/>
   </g>
   <g id="line2d_19">
    <path clip-path="url(#p6d0a55f1f8)" d="M 199.560391 365.042386 
L 244.285703 365.042386 
" style="fill:none;stroke:#3f3f3f;stroke-linecap:square;stroke-width:1.5;"/>
   </g>
   <g id="line2d_20">
    <path clip-path="url(#p6d0a55f1f8)" d="M 199.560391 222.830114 
L 244.285703 222.830114 
" style="fill:none;stroke:#3f3f3f;stroke-linecap:square;stroke-width:1.5;"/>
   </g>
   <g id="line2d_21">
    <defs>
     <path d="M -0 3.535534 
L 2.12132 0 
L -0 -3.535534 
L -2.12132 -0 
z
" id="m226ab95657" style="stroke:#3f3f3f;stroke-linejoin:miter;"/>
    </defs>
    <g clip-path="url(#p6d0a55f1f8)">
     <use style="fill:#3f3f3f;stroke:#3f3f3f;stroke-linejoin:miter;" x="221.923047" xlink:href="#m226ab95657" y="207.02875"/>
    </g>
   </g>
   <g id="line2d_22">
    <path clip-path="url(#p6d0a55f1f8)" d="M 65.384453 258.383182 
L 154.835078 258.383182 
" style="fill:none;stroke:#3f3f3f;stroke-linecap:square;stroke-width:1.5;"/>
   </g>
   <g id="line2d_23">
    <path clip-path="url(#p6d0a55f1f8)" d="M 177.197734 325.538977 
L 266.648359 325.538977 
" style="fill:none;stroke:#3f3f3f;stroke-linecap:square;stroke-width:1.5;"/>
   </g>
   <g id="patch_5">
    <path d="M 44.203125 365.042386 
L 44.203125 49.015114 
" style="fill:none;stroke:#000000;stroke-linecap:square;stroke-linejoin:miter;stroke-width:0.8;"/>
   </g>
   <g id="patch_6">
    <path d="M 110.109766 390.84375 
L 221.923047 390.84375 
" style="fill:none;stroke:#000000;stroke-linecap:square;stroke-linejoin:miter;stroke-width:0.8;"/>
   </g>
   <g id="PathCollection_1">
    <defs>
     <path d="M 0 2.5 
C 0.663008 2.5 1.29895 2.236584 1.767767 1.767767 
C 2.236584 1.29895 2.5 0.663008 2.5 -0 
C 2.5 -0.663008 2.236584 -1.29895 1.767767 -1.767767 
C 1.29895 -2.236584 0.663008 -2.5 0 -2.5 
C -0.663008 -2.5 -1.29895 -2.236584 -1.767767 -1.767767 
C -2.236584 -1.29895 -2.5 -0.663008 -2.5 0 
C -2.5 0.663008 -2.236584 1.29895 -1.767767 1.767767 
C -1.29895 2.236584 -0.663008 2.5 0 2.5 
z
" id="C0_0_77057b9605"/>
    </defs>
    <g clip-path="url(#p6d0a55f1f8)">
     <use style="fill:#808080;fill-opacity:0.75;" x="110.109766" xlink:href="#C0_0_77057b9605" y="349.241023"/>
    </g>
    <g clip-path="url(#p6d0a55f1f8)">
     <use style="fill:#808080;fill-opacity:0.75;" x="110.109766" xlink:href="#C0_0_77057b9605" y="341.340341"/>
    </g>
    <g clip-path="url(#p6d0a55f1f8)">
     <use style="fill:#808080;fill-opacity:0.75;" x="104.323729" xlink:href="#C0_0_77057b9605" y="341.340341"/>
    </g>
    <g clip-path="url(#p6d0a55f1f8)">
     <use style="fill:#808080;fill-opacity:0.75;" x="115.895802" xlink:href="#C0_0_77057b9605" y="341.340341"/>
    </g>
    <g clip-path="url(#p6d0a55f1f8)">
     <use style="fill:#808080;fill-opacity:0.75;" x="110.109766" xlink:href="#C0_0_77057b9605" y="325.538977"/>
    </g>
    <g clip-path="url(#p6d0a55f1f8)">
     <use style="fill:#808080;fill-opacity:0.75;" x="110.109766" xlink:href="#C0_0_77057b9605" y="309.737614"/>
    </g>
    <g clip-path="url(#p6d0a55f1f8)">
     <use style="fill:#808080;fill-opacity:0.75;" x="110.109766" xlink:href="#C0_0_77057b9605" y="301.836932"/>
    </g>
    <g clip-path="url(#p6d0a55f1f8)">
     <use style="fill:#808080;fill-opacity:0.75;" x="110.109766" xlink:href="#C0_0_77057b9605" y="286.035568"/>
    </g>
    <g clip-path="url(#p6d0a55f1f8)">
     <use style="fill:#808080;fill-opacity:0.75;" x="110.109766" xlink:href="#C0_0_77057b9605" y="270.234205"/>
    </g>
    <g clip-path="url(#p6d0a55f1f8)">
     <use style="fill:#808080;fill-opacity:0.75;" x="110.109766" xlink:href="#C0_0_77057b9605" y="246.532159"/>
    </g>
    <g clip-path="url(#p6d0a55f1f8)">
     <use style="fill:#808080;fill-opacity:0.75;" x="110.109766" xlink:href="#C0_0_77057b9605" y="230.730795"/>
    </g>
    <g clip-path="url(#p6d0a55f1f8)">
     <use style="fill:#808080;fill-opacity:0.75;" x="110.109766" xlink:href="#C0_0_77057b9605" y="214.929432"/>
    </g>
    <g clip-path="url(#p6d0a55f1f8)">
     <use style="fill:#808080;fill-opacity:0.75;" x="110.109766" xlink:href="#C0_0_77057b9605" y="207.02875"/>
    </g>
    <g clip-path="url(#p6d0a55f1f8)">
     <use style="fill:#808080;fill-opacity:0.75;" x="110.109766" xlink:href="#C0_0_77057b9605" y="191.227386"/>
    </g>
    <g clip-path="url(#p6d0a55f1f8)">
     <use style="fill:#808080;fill-opacity:0.75;" x="110.109766" xlink:href="#C0_0_77057b9605" y="167.525341"/>
    </g>
    <g clip-path="url(#p6d0a55f1f8)">
     <use style="fill:#808080;fill-opacity:0.75;" x="110.109766" xlink:href="#C0_0_77057b9605" y="128.021932"/>
    </g>
    <g clip-path="url(#p6d0a55f1f8)">
     <use style="fill:#808080;fill-opacity:0.75;" x="110.109766" xlink:href="#C0_0_77057b9605" y="80.617841"/>
    </g>
    <g clip-path="url(#p6d0a55f1f8)">
     <use style="fill:#808080;fill-opacity:0.75;" x="110.109766" xlink:href="#C0_0_77057b9605" y="49.015114"/>
    </g>
   </g>
   <g id="PathCollection_2">
    <defs>
     <path d="M 0 2.5 
C 0.663008 2.5 1.29895 2.236584 1.767767 1.767767 
C 2.236584 1.29895 2.5 0.663008 2.5 -0 
C 2.5 -0.663008 2.236584 -1.29895 1.767767 -1.767767 
C 1.29895 -2.236584 0.663008 -2.5 0 -2.5 
C -0.663008 -2.5 -1.29895 -2.236584 -1.767767 -1.767767 
C -2.236584 -1.29895 -2.5 -0.663008 -2.5 0 
C -2.5 0.663008 -2.236584 1.29895 -1.767767 1.767767 
C -1.29895 2.236584 -0.663008 2.5 0 2.5 
z
" id="C1_0_77057b9605"/>
    </defs>
    <g clip-path="url(#p6d0a55f1f8)">
     <use style="fill:#808080;fill-opacity:0.75;" x="221.923047" xlink:href="#C1_0_77057b9605" y="365.042386"/>
    </g>
    <g clip-path="url(#p6d0a55f1f8)">
     <use style="fill:#808080;fill-opacity:0.75;" x="221.923047" xlink:href="#C1_0_77057b9605" y="357.141705"/>
    </g>
    <g clip-path="url(#p6d0a55f1f8)">
     <use style="fill:#808080;fill-opacity:0.75;" x="216.13701" xlink:href="#C1_0_77057b9605" y="357.141705"/>
    </g>
    <g clip-path="url(#p6d0a55f1f8)">
     <use style="fill:#808080;fill-opacity:0.75;" x="221.923047" xlink:href="#C1_0_77057b9605" y="341.340341"/>
    </g>
    <g clip-path="url(#p6d0a55f1f8)">
     <use style="fill:#808080;fill-opacity:0.75;" x="221.923047" xlink:href="#C1_0_77057b9605" y="333.439659"/>
    </g>
    <g clip-path="url(#p6d0a55f1f8)">
     <use style="fill:#808080;fill-opacity:0.75;" x="216.13701" xlink:href="#C1_0_77057b9605" y="333.439659"/>
    </g>
    <g clip-path="url(#p6d0a55f1f8)">
     <use style="fill:#808080;fill-opacity:0.75;" x="221.923047" xlink:href="#C1_0_77057b9605" y="325.538977"/>
    </g>
    <g clip-path="url(#p6d0a55f1f8)">
     <use style="fill:#808080;fill-opacity:0.75;" x="216.13701" xlink:href="#C1_0_77057b9605" y="325.538977"/>
    </g>
    <g clip-path="url(#p6d0a55f1f8)">
     <use style="fill:#808080;fill-opacity:0.75;" x="227.709084" xlink:href="#C1_0_77057b9605" y="325.538977"/>
    </g>
    <g clip-path="url(#p6d0a55f1f8)">
     <use style="fill:#808080;fill-opacity:0.75;" x="210.350973" xlink:href="#C1_0_77057b9605" y="325.538977"/>
    </g>
    <g clip-path="url(#p6d0a55f1f8)">
     <use style="fill:#808080;fill-opacity:0.75;" x="233.49512" xlink:href="#C1_0_77057b9605" y="325.538977"/>
    </g>
    <g clip-path="url(#p6d0a55f1f8)">
     <use style="fill:#808080;fill-opacity:0.75;" x="221.923047" xlink:href="#C1_0_77057b9605" y="317.638295"/>
    </g>
    <g clip-path="url(#p6d0a55f1f8)">
     <use style="fill:#808080;fill-opacity:0.75;" x="216.13701" xlink:href="#C1_0_77057b9605" y="317.638295"/>
    </g>
    <g clip-path="url(#p6d0a55f1f8)">
     <use style="fill:#808080;fill-opacity:0.75;" x="221.923047" xlink:href="#C1_0_77057b9605" y="301.836932"/>
    </g>
    <g clip-path="url(#p6d0a55f1f8)">
     <use style="fill:#808080;fill-opacity:0.75;" x="221.923047" xlink:href="#C1_0_77057b9605" y="286.035568"/>
    </g>
    <g clip-path="url(#p6d0a55f1f8)">
     <use style="fill:#808080;fill-opacity:0.75;" x="216.13701" xlink:href="#C1_0_77057b9605" y="286.035568"/>
    </g>
    <g clip-path="url(#p6d0a55f1f8)">
     <use style="fill:#808080;fill-opacity:0.75;" x="227.709084" xlink:href="#C1_0_77057b9605" y="286.035568"/>
    </g>
    <g clip-path="url(#p6d0a55f1f8)">
     <use style="fill:#808080;fill-opacity:0.75;" x="221.923047" xlink:href="#C1_0_77057b9605" y="270.234205"/>
    </g>
    <g clip-path="url(#p6d0a55f1f8)">
     <use style="fill:#808080;fill-opacity:0.75;" x="221.923047" xlink:href="#C1_0_77057b9605" y="246.532159"/>
    </g>
    <g clip-path="url(#p6d0a55f1f8)">
     <use style="fill:#808080;fill-opacity:0.75;" x="221.923047" xlink:href="#C1_0_77057b9605" y="222.830114"/>
    </g>
    <g clip-path="url(#p6d0a55f1f8)">
     <use style="fill:#808080;fill-opacity:0.75;" x="221.923047" xlink:href="#C1_0_77057b9605" y="207.02875"/>
    </g>
   </g>
  </g>
  <g id="axes_2">
   <g id="patch_7">
    <path d="M 341.573438 380.84375 
L 565.2 380.84375 
L 565.2 33.21375 
L 341.573438 33.21375 
z
" style="fill:#ffffff;"/>
   </g>
   <g id="patch_8">
    <path clip-path="url(#pc77d4886dd)" d="M 403.486476 380.84375 
L 414.575419 380.84375 
L 414.575419 250.15578 
L 403.486476 250.15578 
z
" style="fill:#1f77b4;opacity:0.4;"/>
   </g>
   <g id="patch_9">
    <path clip-path="url(#pc77d4886dd)" d="M 414.575419 380.84375 
L 425.664361 380.84375 
L 425.664361 302.430968 
L 414.575419 302.430968 
z
" style="fill:#1f77b4;opacity:0.4;"/>
   </g>
   <g id="patch_10">
    <path clip-path="url(#pc77d4886dd)" d="M 425.664361 380.84375 
L 436.753304 380.84375 
L 436.753304 354.706156 
L 425.664361 354.706156 
z
" style="fill:#1f77b4;opacity:0.4;"/>
   </g>
   <g id="patch_11">
    <path clip-path="url(#pc77d4886dd)" d="M 436.753304 380.84375 
L 447.842247 380.84375 
L 447.842247 328.568562 
L 436.753304 328.568562 
z
" style="fill:#1f77b4;opacity:0.4;"/>
   </g>
   <g id="patch_12">
    <path clip-path="url(#pc77d4886dd)" d="M 447.842247 380.84375 
L 458.93119 380.84375 
L 458.93119 302.430968 
L 447.842247 302.430968 
z
" style="fill:#1f77b4;opacity:0.4;"/>
   </g>
   <g id="patch_13">
    <path clip-path="url(#pc77d4886dd)" d="M 458.93119 380.84375 
L 470.020133 380.84375 
L 470.020133 354.706156 
L 458.93119 354.706156 
z
" style="fill:#1f77b4;opacity:0.4;"/>
   </g>
   <g id="patch_14">
    <path clip-path="url(#pc77d4886dd)" d="M 470.020133 380.84375 
L 481.109076 380.84375 
L 481.109076 354.706156 
L 470.020133 354.706156 
z
" style="fill:#1f77b4;opacity:0.4;"/>
   </g>
   <g id="patch_15">
    <path clip-path="url(#pc77d4886dd)" d="M 481.109076 380.84375 
L 492.198019 380.84375 
L 492.198019 380.84375 
L 481.109076 380.84375 
z
" style="fill:#1f77b4;opacity:0.4;"/>
   </g>
   <g id="patch_16">
    <path clip-path="url(#pc77d4886dd)" d="M 492.198019 380.84375 
L 503.286962 380.84375 
L 503.286962 328.568562 
L 492.198019 328.568562 
z
" style="fill:#1f77b4;opacity:0.4;"/>
   </g>
   <g id="patch_17">
    <path clip-path="url(#pc77d4886dd)" d="M 398.233818 380.84375 
L 403.486476 380.84375 
L 403.486476 238.953954 
L 398.233818 238.953954 
z
" style="fill:#ff7f0e;opacity:0.4;"/>
   </g>
   <g id="patch_18">
    <path clip-path="url(#pc77d4886dd)" d="M 403.486476 380.84375 
L 408.739133 380.84375 
L 408.739133 333.547151 
L 403.486476 333.547151 
z
" style="fill:#ff7f0e;opacity:0.4;"/>
   </g>
   <g id="patch_19">
    <path clip-path="url(#pc77d4886dd)" d="M 408.739133 380.84375 
L 413.99179 380.84375 
L 413.99179 49.76756 
L 408.739133 49.76756 
z
" style="fill:#ff7f0e;opacity:0.4;"/>
   </g>
   <g id="patch_20">
    <path clip-path="url(#pc77d4886dd)" d="M 413.99179 380.84375 
L 419.244447 380.84375 
L 419.244447 286.250553 
L 413.99179 286.250553 
z
" style="fill:#ff7f0e;opacity:0.4;"/>
   </g>
   <g id="patch_21">
    <path clip-path="url(#pc77d4886dd)" d="M 419.244447 380.84375 
L 424.497104 380.84375 
L 424.497104 333.547151 
L 419.244447 333.547151 
z
" style="fill:#ff7f0e;opacity:0.4;"/>
   </g>
   <g id="patch_22">
    <path clip-path="url(#pc77d4886dd)" d="M 424.497104 380.84375 
L 429.749761 380.84375 
L 429.749761 238.953954 
L 424.497104 238.953954 
z
" style="fill:#ff7f0e;opacity:0.4;"/>
   </g>
   <g id="patch_23">
    <path clip-path="url(#pc77d4886dd)" d="M 429.749761 380.84375 
L 435.002419 380.84375 
L 435.002419 333.547151 
L 429.749761 333.547151 
z
" style="fill:#ff7f0e;opacity:0.4;"/>
   </g>
   <g id="patch_24">
    <path clip-path="url(#pc77d4886dd)" d="M 435.002419 380.84375 
L 440.255076 380.84375 
L 440.255076 333.547151 
L 435.002419 333.547151 
z
" style="fill:#ff7f0e;opacity:0.4;"/>
   </g>
   <g id="patch_25">
    <path clip-path="url(#pc77d4886dd)" d="M 440.255076 380.84375 
L 445.507733 380.84375 
L 445.507733 380.84375 
L 440.255076 380.84375 
z
" style="fill:#ff7f0e;opacity:0.4;"/>
   </g>
   <g id="patch_26">
    <path clip-path="url(#pc77d4886dd)" d="M 445.507733 380.84375 
L 450.76039 380.84375 
L 450.76039 286.250553 
L 445.507733 286.250553 
z
" style="fill:#ff7f0e;opacity:0.4;"/>
   </g>
   <g id="matplotlib.axis_3">
    <g id="xtick_3">
     <g id="line2d_24">
      <g>
       <use style="stroke:#000000;stroke-width:0.8;" x="345.707247" xlink:href="#mc3a356a46d" y="390.84375"/>
      </g>
     </g>
     <g id="text_14">
      <text style="font-family:DejaVu Sans;font-size:10px;font-stretch:normal;font-style:normal;font-weight:normal;text-anchor:middle;" transform="rotate(-0, 345.707247, 405.442187)" x="345.707247" y="405.442187">−20</text>
     </g>
    </g>
    <g id="xtick_4">
     <g id="line2d_25">
      <g>
       <use style="stroke:#000000;stroke-width:0.8;" x="398.233818" xlink:href="#mc3a356a46d" y="390.84375"/>
      </g>
     </g>
     <g id="text_15">
      <text style="font-family:DejaVu Sans;font-size:10px;font-stretch:normal;font-style:normal;font-weight:normal;text-anchor:middle;" transform="rotate(-0, 398.233818, 405.442187)" x="398.233818" y="405.442187">0</text>
     </g>
    </g>
    <g id="xtick_5">
     <g id="line2d_26">
      <g>
       <use style="stroke:#000000;stroke-width:0.8;" x="450.76039" xlink:href="#mc3a356a46d" y="390.84375"/>
      </g>
     </g>
     <g id="text_16">
      <text style="font-family:DejaVu Sans;font-size:10px;font-stretch:normal;font-style:normal;font-weight:normal;text-anchor:middle;" transform="rotate(-0, 450.76039, 405.442187)" x="450.76039" y="405.442187">20</text>
     </g>
    </g>
    <g id="xtick_6">
     <g id="line2d_27">
      <g>
       <use style="stroke:#000000;stroke-width:0.8;" x="503.286962" xlink:href="#mc3a356a46d" y="390.84375"/>
      </g>
     </g>
     <g id="text_17">
      <text style="font-family:DejaVu Sans;font-size:10px;font-stretch:normal;font-style:normal;font-weight:normal;text-anchor:middle;" transform="rotate(-0, 503.286962, 405.442187)" x="503.286962" y="405.442187">40</text>
     </g>
    </g>
    <g id="xtick_7">
     <g id="line2d_28">
      <g>
       <use style="stroke:#000000;stroke-width:0.8;" x="555.813534" xlink:href="#mc3a356a46d" y="390.84375"/>
      </g>
     </g>
     <g id="text_18">
      <text style="font-family:DejaVu Sans;font-size:10px;font-stretch:normal;font-style:normal;font-weight:normal;text-anchor:middle;" transform="rotate(-0, 555.813534, 405.442187)" x="555.813534" y="405.442187">60</text>
     </g>
    </g>
    <g id="text_19">
     <text style="font-family:DejaVu Sans;font-size:10px;font-stretch:normal;font-style:normal;font-weight:normal;text-anchor:middle;" transform="rotate(-0, 453.386719, 419.120313)" x="453.386719" y="419.120313">Value</text>
    </g>
   </g>
   <g id="matplotlib.axis_4">
    <g id="ytick_10">
     <g id="line2d_29">
      <g>
       <use style="stroke:#000000;stroke-width:0.8;" x="331.573438" xlink:href="#m82278324de" y="380.84375"/>
      </g>
     </g>
     <g id="text_20">
      <text style="font-family:DejaVu Sans;font-size:10px;font-stretch:normal;font-style:normal;font-weight:normal;text-anchor:end;" transform="rotate(-0, 324.573438, 384.642969)" x="324.573438" y="384.642969">0.00</text>
     </g>
    </g>
    <g id="ytick_11">
     <g id="line2d_30">
      <g>
       <use style="stroke:#000000;stroke-width:0.8;" x="331.573438" xlink:href="#m82278324de" y="341.114607"/>
      </g>
     </g>
     <g id="text_21">
      <text style="font-family:DejaVu Sans;font-size:10px;font-stretch:normal;font-style:normal;font-weight:normal;text-anchor:end;" transform="rotate(-0, 324.573438, 344.913826)" x="324.573438" y="344.913826">0.02</text>
     </g>
    </g>
    <g id="ytick_12">
     <g id="line2d_31">
      <g>
       <use style="stroke:#000000;stroke-width:0.8;" x="331.573438" xlink:href="#m82278324de" y="301.385464"/>
      </g>
     </g>
     <g id="text_22">
      <text style="font-family:DejaVu Sans;font-size:10px;font-stretch:normal;font-style:normal;font-weight:normal;text-anchor:end;" transform="rotate(-0, 324.573438, 305.184683)" x="324.573438" y="305.184683">0.04</text>
     </g>
    </g>
    <g id="ytick_13">
     <g id="line2d_32">
      <g>
       <use style="stroke:#000000;stroke-width:0.8;" x="331.573438" xlink:href="#m82278324de" y="261.656321"/>
      </g>
     </g>
     <g id="text_23">
      <text style="font-family:DejaVu Sans;font-size:10px;font-stretch:normal;font-style:normal;font-weight:normal;text-anchor:end;" transform="rotate(-0, 324.573438, 265.45554)" x="324.573438" y="265.45554">0.06</text>
     </g>
    </g>
    <g id="ytick_14">
     <g id="line2d_33">
      <g>
       <use style="stroke:#000000;stroke-width:0.8;" x="331.573438" xlink:href="#m82278324de" y="221.927179"/>
      </g>
     </g>
     <g id="text_24">
      <text style="font-family:DejaVu Sans;font-size:10px;font-stretch:normal;font-style:normal;font-weight:normal;text-anchor:end;" transform="rotate(-0, 324.573438, 225.726397)" x="324.573438" y="225.726397">0.08</text>
     </g>
    </g>
    <g id="ytick_15">
     <g id="line2d_34">
      <g>
       <use style="stroke:#000000;stroke-width:0.8;" x="331.573438" xlink:href="#m82278324de" y="182.198036"/>
      </g>
     </g>
     <g id="text_25">
      <text style="font-family:DejaVu Sans;font-size:10px;font-stretch:normal;font-style:normal;font-weight:normal;text-anchor:end;" transform="rotate(-0, 324.573438, 185.997254)" x="324.573438" y="185.997254">0.10</text>
     </g>
    </g>
    <g id="ytick_16">
     <g id="line2d_35">
      <g>
       <use style="stroke:#000000;stroke-width:0.8;" x="331.573438" xlink:href="#m82278324de" y="142.468893"/>
      </g>
     </g>
     <g id="text_26">
      <text style="font-family:DejaVu Sans;font-size:10px;font-stretch:normal;font-style:normal;font-weight:normal;text-anchor:end;" transform="rotate(-0, 324.573438, 146.268112)" x="324.573438" y="146.268112">0.12</text>
     </g>
    </g>
    <g id="ytick_17">
     <g id="line2d_36">
      <g>
       <use style="stroke:#000000;stroke-width:0.8;" x="331.573438" xlink:href="#m82278324de" y="102.73975"/>
      </g>
     </g>
     <g id="text_27">
      <text style="font-family:DejaVu Sans;font-size:10px;font-stretch:normal;font-style:normal;font-weight:normal;text-anchor:end;" transform="rotate(-0, 324.573438, 106.538969)" x="324.573438" y="106.538969">0.14</text>
     </g>
    </g>
    <g id="ytick_18">
     <g id="line2d_37">
      <g>
       <use style="stroke:#000000;stroke-width:0.8;" x="331.573438" xlink:href="#m82278324de" y="63.010607"/>
      </g>
     </g>
     <g id="text_28">
      <text style="font-family:DejaVu Sans;font-size:10px;font-stretch:normal;font-style:normal;font-weight:normal;text-anchor:end;" transform="rotate(-0, 324.573438, 66.809826)" x="324.573438" y="66.809826">0.16</text>
     </g>
    </g>
    <g id="text_29">
     <text style="font-family:DejaVu Sans;font-size:10px;font-stretch:normal;font-style:normal;font-weight:normal;text-anchor:middle;" transform="rotate(-90, 296.228125, 207.02875)" x="296.228125" y="207.02875">Density</text>
    </g>
   </g>
   <g id="line2d_38">
    <path clip-path="url(#pc77d4886dd)" d="M 351.738281 380.602343 
L 356.846243 380.254325 
L 360.932612 379.710493 
L 363.997389 379.057079 
L 367.062166 378.109679 
L 369.105351 377.27238 
L 371.148536 376.239352 
L 373.19172 374.984308 
L 375.234905 373.483016 
L 377.27809 371.715088 
L 379.321274 369.665899 
L 381.364459 367.328519 
L 383.407644 364.705485 
L 385.450828 361.81025 
L 388.515605 357.015682 
L 392.601975 350.006366 
L 399.753121 337.440881 
L 402.817898 332.567672 
L 404.861083 329.659184 
L 406.904267 327.084967 
L 408.947452 324.883476 
L 410.990637 323.078204 
L 413.033821 321.677054 
L 415.077006 320.672799 
L 417.120191 320.044553 
L 419.163375 319.760113 
L 421.20656 319.778957 
L 423.249745 320.055621 
L 425.292929 320.543165 
L 428.357707 321.572319 
L 431.422484 322.844809 
L 435.508853 324.765 
L 440.616815 327.401256 
L 444.703184 329.722086 
L 448.789553 332.308172 
L 452.875923 335.211174 
L 456.962292 338.415158 
L 464.113438 344.414046 
L 469.2214 348.572306 
L 473.307769 351.569959 
L 476.372546 353.557455 
L 479.437323 355.309259 
L 482.5021 356.844566 
L 486.58847 358.631723 
L 500.890762 364.535875 
L 505.998724 367.072766 
L 520.301017 374.51511 
L 524.387386 376.247781 
L 527.452163 377.339128 
L 530.51694 378.243634 
L 533.581717 378.967877 
L 537.668087 379.682468 
L 541.754456 380.160821 
L 546.862418 380.516892 
L 554.013564 380.742331 
L 555.035156 380.759081 
L 555.035156 380.759081 
" style="fill:none;stroke:#1f77b4;stroke-linecap:square;stroke-width:1.5;"/>
   </g>
   <g id="line2d_39">
    <path clip-path="url(#pc77d4886dd)" d="M 375.108936 380.596995 
L 377.09439 380.302726 
L 378.583481 379.907514 
L 380.072571 379.278043 
L 381.065298 378.678772 
L 382.058025 377.8941 
L 383.050752 376.883272 
L 384.043479 375.601929 
L 385.036206 374.003313 
L 386.028933 372.039841 
L 387.02166 369.664981 
L 388.014387 366.835291 
L 389.007114 363.512505 
L 390.496205 357.53799 
L 391.985295 350.319333 
L 393.474386 341.843325 
L 394.963476 332.155699 
L 396.94893 317.550745 
L 399.430748 297.247704 
L 403.898019 259.758399 
L 405.38711 248.836524 
L 406.8762 239.659116 
L 407.868927 234.778021 
L 408.861654 231.040967 
L 409.854381 228.541032 
L 410.350745 227.772305 
L 410.847108 227.327701 
L 411.343472 227.205818 
L 411.839835 227.402145 
L 412.336199 227.909138 
L 412.832562 228.716351 
L 413.328926 229.81064 
L 414.321653 232.795967 
L 415.31438 236.716974 
L 416.80347 243.977287 
L 418.788924 255.298663 
L 424.745286 290.456224 
L 427.227104 303.377204 
L 429.212558 312.735156 
L 431.198012 321.101929 
L 432.687102 326.618542 
L 434.176192 331.399731 
L 435.665283 335.397714 
L 437.154373 338.613419 
L 438.643464 341.106977 
L 440.132554 342.99683 
L 441.621645 344.448592 
L 444.103462 346.425313 
L 446.088916 348.121914 
L 447.578007 349.704277 
L 449.067097 351.654648 
L 450.556188 353.996578 
L 452.541642 357.65178 
L 456.016186 364.780796 
L 458.498004 369.623191 
L 459.987094 372.161463 
L 461.476185 374.336944 
L 462.965275 376.124111 
L 464.454366 377.53245 
L 465.943456 378.597708 
L 467.432547 379.371509 
L 468.921637 379.911527 
L 470.907091 380.363683 
L 473.388909 380.652016 
L 473.885272 380.68605 
L 473.885272 380.68605 
" style="fill:none;stroke:#ff7f0e;stroke-linecap:square;stroke-width:1.5;"/>
   </g>
   <g id="patch_27">
    <path d="M 331.573438 380.84375 
L 331.573438 63.010607 
" style="fill:none;stroke:#000000;stroke-linecap:square;stroke-linejoin:miter;stroke-width:0.8;"/>
   </g>
   <g id="patch_28">
    <path d="M 345.707247 390.84375 
L 555.813534 390.84375 
" style="fill:none;stroke:#000000;stroke-linecap:square;stroke-linejoin:miter;stroke-width:0.8;"/>
   </g>
   <g id="legend_1">
    <g id="patch_29">
     <path d="M 500.75 70.57 
L 558.2 70.57 
Q 560.2 70.57 560.2 68.57 
L 560.2 40.21375 
Q 560.2 38.21375 558.2 38.21375 
L 500.75 38.21375 
Q 498.75 38.21375 498.75 40.21375 
L 498.75 68.57 
Q 498.75 70.57 500.75 70.57 
z
" style="fill:#ffffff;opacity:0.8;stroke:#cccccc;stroke-linejoin:miter;"/>
    </g>
    <g id="patch_30">
     <path d="M 502.75 49.812187 
L 522.75 49.812187 
L 522.75 42.812187 
L 502.75 42.812187 
z
" style="fill:#1f77b4;opacity:0.4;"/>
    </g>
    <g id="text_30">
     <text style="font-family:DejaVu Sans;font-size:10px;font-stretch:normal;font-style:normal;font-weight:normal;text-anchor:start;" transform="rotate(-0, 530.75, 49.812187)" x="530.75" y="49.812187">2017</text>
    </g>
    <g id="patch_31">
     <path d="M 502.75 64.490313 
L 522.75 64.490313 
L 522.75 57.490313 
L 502.75 57.490313 
z
" style="fill:#ff7f0e;opacity:0.4;"/>
    </g>
    <g id="text_31">
     <text style="font-family:DejaVu Sans;font-size:10px;font-stretch:normal;font-style:normal;font-weight:normal;text-anchor:start;" transform="rotate(-0, 530.75, 64.490313)" x="530.75" y="64.490313">2018</text>
    </g>
   </g>
  </g>
  <g id="text_32">
   <text style="font-family:DejaVu Sans;font-size:12px;font-stretch:normal;font-style:normal;font-weight:normal;text-anchor:middle;" transform="rotate(-0, 288, 17.758125)" x="288" y="17.758125">How many years of software development experience for South Africa (without 95 percentile)</text>
  </g>
 </g>
 <defs>
  <clipPath id="p6d0a55f1f8">
   <rect height="347.63" width="223.626563" x="54.203125" y="33.21375"/>
  </clipPath>
  <clipPath id="pc77d4886dd">
   <rect height="347.63" width="223.626562" x="341.573438" y="33.21375"/>
  </clipPath>
 </defs>
</svg>
