<?xml version="1.0" encoding="utf-8" standalone="no"?>
<!DOCTYPE svg PUBLIC "-//W3C//DTD SVG 1.1//EN"
  "http://www.w3.org/Graphics/SVG/1.1/DTD/svg11.dtd">
<svg height="432pt" version="1.1" viewBox="0 0 576 432" width="576pt" xmlns="http://www.w3.org/2000/svg" xmlns:xlink="http://www.w3.org/1999/xlink">
 <metadata>
  <rdf:RDF xmlns:cc="http://creativecommons.org/ns#" xmlns:dc="http://purl.org/dc/elements/1.1/" xmlns:rdf="http://www.w3.org/1999/02/22-rdf-syntax-ns#">
   <cc:Work>
    <dc:type rdf:resource="http://purl.org/dc/dcmitype/StillImage"/>
    <dc:date>2021-03-29T15:53:04.051756</dc:date>
    <dc:format>image/svg+xml</dc:format>
    <dc:creator>
     <cc:Agent>
      <dc:title>Matplotlib v3.4.0, https://matplotlib.org/</dc:title>
     </cc:Agent>
    </dc:creator>
   </cc:Work>
  </rdf:RDF>
 </metadata>
 <defs>
  <style type="text/css">*{stroke-linecap:butt;stroke-linejoin:round;}</style>
 </defs>
 <g id="figure_1">
  <g id="patch_1">
   <path d="M 0 432 
L 576 432 
L 576 0 
L 0 0 
z
" style="fill:#ffffff;"/>
  </g>
  <g id="axes_1">
   <g id="patch_2">
    <path d="M 54.203125 380.84375 
L 277.829688 380.84375 
L 277.829688 35.040795 
L 54.203125 35.040795 
z
" style="fill:#ffffff;"/>
   </g>
   <g id="patch_3">
    <path clip-path="url(#p350921dd75)" d="M 76.565781 310.45303 
L 255.467031 310.45303 
L 255.467031 231.861449 
L 76.565781 231.861449 
L 76.565781 310.45303 
z
" style="fill:#3274a1;stroke:#3f3f3f;stroke-linejoin:miter;stroke-width:1.5;"/>
   </g>
   <g id="matplotlib.axis_1">
    <g id="xtick_1">
     <g id="line2d_1">
      <defs>
       <path d="M 0 0 
L 0 3.5 
" id="mc3a356a46d" style="stroke:#000000;stroke-width:0.8;"/>
      </defs>
      <g>
       <use style="stroke:#000000;stroke-width:0.8;" x="166.016406" xlink:href="#mc3a356a46d" y="390.84375"/>
      </g>
     </g>
     <g id="text_1">
      <text style="font-family:DejaVu Sans;font-size:10px;font-stretch:normal;font-style:normal;font-weight:normal;text-anchor:middle;" transform="rotate(-0, 166.016406, 405.442187)" x="166.016406" y="405.442187">2018</text>
     </g>
    </g>
    <g id="text_2">
     <text style="font-family:DejaVu Sans;font-size:10px;font-stretch:normal;font-style:normal;font-weight:normal;text-anchor:middle;" transform="rotate(-0, 166.016406, 419.120313)" x="166.016406" y="419.120313">Year</text>
    </g>
   </g>
   <g id="matplotlib.axis_2">
    <g id="ytick_1">
     <g id="line2d_2">
      <defs>
       <path d="M 0 0 
L -3.5 0 
" id="m82278324de" style="stroke:#000000;stroke-width:0.8;"/>
      </defs>
      <g>
       <use style="stroke:#000000;stroke-width:0.8;" x="44.203125" xlink:href="#m82278324de" y="378.793535"/>
      </g>
     </g>
     <g id="text_3">
      <text style="font-family:DejaVu Sans;font-size:10px;font-stretch:normal;font-style:normal;font-weight:normal;text-anchor:end;" transform="rotate(-0, 37.203125, 382.592754)" x="37.203125" y="382.592754">0</text>
     </g>
    </g>
    <g id="ytick_2">
     <g id="line2d_3">
      <g>
       <use style="stroke:#000000;stroke-width:0.8;" x="44.203125" xlink:href="#m82278324de" y="310.45303"/>
      </g>
     </g>
     <g id="text_4">
      <text style="font-family:DejaVu Sans;font-size:10px;font-stretch:normal;font-style:normal;font-weight:normal;text-anchor:end;" transform="rotate(-0, 37.203125, 314.252249)" x="37.203125" y="314.252249">5</text>
     </g>
    </g>
    <g id="ytick_3">
     <g id="line2d_4">
      <g>
       <use style="stroke:#000000;stroke-width:0.8;" x="44.203125" xlink:href="#m82278324de" y="242.112525"/>
      </g>
     </g>
     <g id="text_5">
      <text style="font-family:DejaVu Sans;font-size:10px;font-stretch:normal;font-style:normal;font-weight:normal;text-anchor:end;" transform="rotate(-0, 37.203125, 245.911744)" x="37.203125" y="245.911744">10</text>
     </g>
    </g>
    <g id="ytick_4">
     <g id="line2d_5">
      <g>
       <use style="stroke:#000000;stroke-width:0.8;" x="44.203125" xlink:href="#m82278324de" y="173.77202"/>
      </g>
     </g>
     <g id="text_6">
      <text style="font-family:DejaVu Sans;font-size:10px;font-stretch:normal;font-style:normal;font-weight:normal;text-anchor:end;" transform="rotate(-0, 37.203125, 177.571239)" x="37.203125" y="177.571239">15</text>
     </g>
    </g>
    <g id="ytick_5">
     <g id="line2d_6">
      <g>
       <use style="stroke:#000000;stroke-width:0.8;" x="44.203125" xlink:href="#m82278324de" y="105.431515"/>
      </g>
     </g>
     <g id="text_7">
      <text style="font-family:DejaVu Sans;font-size:10px;font-stretch:normal;font-style:normal;font-weight:normal;text-anchor:end;" transform="rotate(-0, 37.203125, 109.230734)" x="37.203125" y="109.230734">20</text>
     </g>
    </g>
    <g id="ytick_6">
     <g id="line2d_7">
      <g>
       <use style="stroke:#000000;stroke-width:0.8;" x="44.203125" xlink:href="#m82278324de" y="37.09101"/>
      </g>
     </g>
     <g id="text_8">
      <text style="font-family:DejaVu Sans;font-size:10px;font-stretch:normal;font-style:normal;font-weight:normal;text-anchor:end;" transform="rotate(-0, 37.203125, 40.890229)" x="37.203125" y="40.890229">25</text>
     </g>
    </g>
    <g id="text_9">
     <text style="font-family:DejaVu Sans;font-size:10px;font-stretch:normal;font-style:normal;font-weight:normal;text-anchor:middle;" transform="rotate(-90, 18.398438, 207.942272)" x="18.398438" y="207.942272">Value</text>
    </g>
   </g>
   <g id="line2d_8">
    <path clip-path="url(#p350921dd75)" d="M 166.016406 310.45303 
L 166.016406 365.125434 
" style="fill:none;stroke:#3f3f3f;stroke-linecap:square;stroke-width:1.5;"/>
   </g>
   <g id="line2d_9">
    <path clip-path="url(#p350921dd75)" d="M 166.016406 231.861449 
L 166.016406 132.767717 
" style="fill:none;stroke:#3f3f3f;stroke-linecap:square;stroke-width:1.5;"/>
   </g>
   <g id="line2d_10">
    <path clip-path="url(#p350921dd75)" d="M 121.291094 365.125434 
L 210.741719 365.125434 
" style="fill:none;stroke:#3f3f3f;stroke-linecap:square;stroke-width:1.5;"/>
   </g>
   <g id="line2d_11">
    <path clip-path="url(#p350921dd75)" d="M 121.291094 132.767717 
L 210.741719 132.767717 
" style="fill:none;stroke:#3f3f3f;stroke-linecap:square;stroke-width:1.5;"/>
   </g>
   <g id="line2d_12">
    <defs>
     <path d="M -0 3.535534 
L 2.12132 0 
L -0 -3.535534 
L -2.12132 -0 
z
" id="m226ab95657" style="stroke:#3f3f3f;stroke-linejoin:miter;"/>
    </defs>
    <g clip-path="url(#p350921dd75)">
     <use style="fill:#3f3f3f;stroke:#3f3f3f;stroke-linejoin:miter;" x="166.016406" xlink:href="#m226ab95657" y="50.759111"/>
     <use style="fill:#3f3f3f;stroke:#3f3f3f;stroke-linejoin:miter;" x="166.016406" xlink:href="#m226ab95657" y="105.431515"/>
     <use style="fill:#3f3f3f;stroke:#3f3f3f;stroke-linejoin:miter;" x="166.016406" xlink:href="#m226ab95657" y="105.431515"/>
    </g>
   </g>
   <g id="line2d_13">
    <path clip-path="url(#p350921dd75)" d="M 76.565781 242.112525 
L 255.467031 242.112525 
" style="fill:none;stroke:#3f3f3f;stroke-linecap:square;stroke-width:1.5;"/>
   </g>
   <g id="patch_4">
    <path d="M 44.203125 378.793535 
L 44.203125 37.09101 
" style="fill:none;stroke:#000000;stroke-linecap:square;stroke-linejoin:miter;stroke-width:0.8;"/>
   </g>
   <g id="patch_5">
    <path d="M 166.016406 390.84375 
L 166.016406 390.84375 
" style="fill:none;stroke:#000000;stroke-linecap:square;stroke-linejoin:miter;stroke-width:0.8;"/>
   </g>
   <g id="PathCollection_1">
    <defs>
     <path d="M 0 2.5 
C 0.663008 2.5 1.29895 2.236584 1.767767 1.767767 
C 2.236584 1.29895 2.5 0.663008 2.5 -0 
C 2.5 -0.663008 2.236584 -1.29895 1.767767 -1.767767 
C 1.29895 -2.236584 0.663008 -2.5 0 -2.5 
C -0.663008 -2.5 -1.29895 -2.236584 -1.767767 -1.767767 
C -2.236584 -1.29895 -2.5 -0.663008 -2.5 0 
C -2.5 0.663008 -2.236584 1.29895 -1.767767 1.767767 
C -1.29895 2.236584 -0.663008 2.5 0 2.5 
z
" id="C0_0_77057b9605"/>
    </defs>
    <g clip-path="url(#p350921dd75)">
     <use style="fill:#808080;fill-opacity:0.75;" x="166.016406" xlink:href="#C0_0_77057b9605" y="365.125434"/>
    </g>
    <g clip-path="url(#p350921dd75)">
     <use style="fill:#808080;fill-opacity:0.75;" x="166.016406" xlink:href="#C0_0_77057b9605" y="351.457333"/>
    </g>
    <g clip-path="url(#p350921dd75)">
     <use style="fill:#808080;fill-opacity:0.75;" x="160.23037" xlink:href="#C0_0_77057b9605" y="351.457333"/>
    </g>
    <g clip-path="url(#p350921dd75)">
     <use style="fill:#808080;fill-opacity:0.75;" x="171.802443" xlink:href="#C0_0_77057b9605" y="351.457333"/>
    </g>
    <g clip-path="url(#p350921dd75)">
     <use style="fill:#808080;fill-opacity:0.75;" x="154.444333" xlink:href="#C0_0_77057b9605" y="351.457333"/>
    </g>
    <g clip-path="url(#p350921dd75)">
     <use style="fill:#808080;fill-opacity:0.75;" x="166.016406" xlink:href="#C0_0_77057b9605" y="337.789232"/>
    </g>
    <g clip-path="url(#p350921dd75)">
     <use style="fill:#808080;fill-opacity:0.75;" x="160.23037" xlink:href="#C0_0_77057b9605" y="337.789232"/>
    </g>
    <g clip-path="url(#p350921dd75)">
     <use style="fill:#808080;fill-opacity:0.75;" x="166.016406" xlink:href="#C0_0_77057b9605" y="324.121131"/>
    </g>
    <g clip-path="url(#p350921dd75)">
     <use style="fill:#808080;fill-opacity:0.75;" x="160.23037" xlink:href="#C0_0_77057b9605" y="324.121131"/>
    </g>
    <g clip-path="url(#p350921dd75)">
     <use style="fill:#808080;fill-opacity:0.75;" x="171.802443" xlink:href="#C0_0_77057b9605" y="324.121131"/>
    </g>
    <g clip-path="url(#p350921dd75)">
     <use style="fill:#808080;fill-opacity:0.75;" x="166.016406" xlink:href="#C0_0_77057b9605" y="310.45303"/>
    </g>
    <g clip-path="url(#p350921dd75)">
     <use style="fill:#808080;fill-opacity:0.75;" x="160.23037" xlink:href="#C0_0_77057b9605" y="310.45303"/>
    </g>
    <g clip-path="url(#p350921dd75)">
     <use style="fill:#808080;fill-opacity:0.75;" x="171.802443" xlink:href="#C0_0_77057b9605" y="310.45303"/>
    </g>
    <g clip-path="url(#p350921dd75)">
     <use style="fill:#808080;fill-opacity:0.75;" x="154.444333" xlink:href="#C0_0_77057b9605" y="310.45303"/>
    </g>
    <g clip-path="url(#p350921dd75)">
     <use style="fill:#808080;fill-opacity:0.75;" x="166.016406" xlink:href="#C0_0_77057b9605" y="296.784929"/>
    </g>
    <g clip-path="url(#p350921dd75)">
     <use style="fill:#808080;fill-opacity:0.75;" x="160.23037" xlink:href="#C0_0_77057b9605" y="296.784929"/>
    </g>
    <g clip-path="url(#p350921dd75)">
     <use style="fill:#808080;fill-opacity:0.75;" x="171.802443" xlink:href="#C0_0_77057b9605" y="296.784929"/>
    </g>
    <g clip-path="url(#p350921dd75)">
     <use style="fill:#808080;fill-opacity:0.75;" x="154.444333" xlink:href="#C0_0_77057b9605" y="296.784929"/>
    </g>
    <g clip-path="url(#p350921dd75)">
     <use style="fill:#808080;fill-opacity:0.75;" x="177.58848" xlink:href="#C0_0_77057b9605" y="296.784929"/>
    </g>
    <g clip-path="url(#p350921dd75)">
     <use style="fill:#808080;fill-opacity:0.75;" x="148.658296" xlink:href="#C0_0_77057b9605" y="296.784929"/>
    </g>
    <g clip-path="url(#p350921dd75)">
     <use style="fill:#808080;fill-opacity:0.75;" x="166.016406" xlink:href="#C0_0_77057b9605" y="283.116828"/>
    </g>
    <g clip-path="url(#p350921dd75)">
     <use style="fill:#808080;fill-opacity:0.75;" x="166.016406" xlink:href="#C0_0_77057b9605" y="269.448727"/>
    </g>
    <g clip-path="url(#p350921dd75)">
     <use style="fill:#808080;fill-opacity:0.75;" x="160.23037" xlink:href="#C0_0_77057b9605" y="269.448727"/>
    </g>
    <g clip-path="url(#p350921dd75)">
     <use style="fill:#808080;fill-opacity:0.75;" x="166.016406" xlink:href="#C0_0_77057b9605" y="255.780626"/>
    </g>
    <g clip-path="url(#p350921dd75)">
     <use style="fill:#808080;fill-opacity:0.75;" x="160.23037" xlink:href="#C0_0_77057b9605" y="255.780626"/>
    </g>
    <g clip-path="url(#p350921dd75)">
     <use style="fill:#808080;fill-opacity:0.75;" x="166.016406" xlink:href="#C0_0_77057b9605" y="242.112525"/>
    </g>
    <g clip-path="url(#p350921dd75)">
     <use style="fill:#808080;fill-opacity:0.75;" x="160.23037" xlink:href="#C0_0_77057b9605" y="242.112525"/>
    </g>
    <g clip-path="url(#p350921dd75)">
     <use style="fill:#808080;fill-opacity:0.75;" x="171.802443" xlink:href="#C0_0_77057b9605" y="242.112525"/>
    </g>
    <g clip-path="url(#p350921dd75)">
     <use style="fill:#808080;fill-opacity:0.75;" x="154.444333" xlink:href="#C0_0_77057b9605" y="242.112525"/>
    </g>
    <g clip-path="url(#p350921dd75)">
     <use style="fill:#808080;fill-opacity:0.75;" x="177.58848" xlink:href="#C0_0_77057b9605" y="242.112525"/>
    </g>
    <g clip-path="url(#p350921dd75)">
     <use style="fill:#808080;fill-opacity:0.75;" x="148.658296" xlink:href="#C0_0_77057b9605" y="242.112525"/>
    </g>
    <g clip-path="url(#p350921dd75)">
     <use style="fill:#808080;fill-opacity:0.75;" x="183.374516" xlink:href="#C0_0_77057b9605" y="242.112525"/>
    </g>
    <g clip-path="url(#p350921dd75)">
     <use style="fill:#808080;fill-opacity:0.75;" x="142.872259" xlink:href="#C0_0_77057b9605" y="242.112525"/>
    </g>
    <g clip-path="url(#p350921dd75)">
     <use style="fill:#808080;fill-opacity:0.75;" x="189.160553" xlink:href="#C0_0_77057b9605" y="242.112525"/>
    </g>
    <g clip-path="url(#p350921dd75)">
     <use style="fill:#808080;fill-opacity:0.75;" x="137.086223" xlink:href="#C0_0_77057b9605" y="242.112525"/>
    </g>
    <g clip-path="url(#p350921dd75)">
     <use style="fill:#808080;fill-opacity:0.75;" x="194.94659" xlink:href="#C0_0_77057b9605" y="242.112525"/>
    </g>
    <g clip-path="url(#p350921dd75)">
     <use style="fill:#808080;fill-opacity:0.75;" x="131.300186" xlink:href="#C0_0_77057b9605" y="242.112525"/>
    </g>
    <g clip-path="url(#p350921dd75)">
     <use style="fill:#808080;fill-opacity:0.75;" x="200.732627" xlink:href="#C0_0_77057b9605" y="242.112525"/>
    </g>
    <g clip-path="url(#p350921dd75)">
     <use style="fill:#808080;fill-opacity:0.75;" x="125.514149" xlink:href="#C0_0_77057b9605" y="242.112525"/>
    </g>
    <g clip-path="url(#p350921dd75)">
     <use style="fill:#808080;fill-opacity:0.75;" x="166.016406" xlink:href="#C0_0_77057b9605" y="201.108222"/>
    </g>
    <g clip-path="url(#p350921dd75)">
     <use style="fill:#808080;fill-opacity:0.75;" x="166.016406" xlink:href="#C0_0_77057b9605" y="187.440121"/>
    </g>
    <g clip-path="url(#p350921dd75)">
     <use style="fill:#808080;fill-opacity:0.75;" x="160.23037" xlink:href="#C0_0_77057b9605" y="187.440121"/>
    </g>
    <g clip-path="url(#p350921dd75)">
     <use style="fill:#808080;fill-opacity:0.75;" x="171.802443" xlink:href="#C0_0_77057b9605" y="187.440121"/>
    </g>
    <g clip-path="url(#p350921dd75)">
     <use style="fill:#808080;fill-opacity:0.75;" x="166.016406" xlink:href="#C0_0_77057b9605" y="173.77202"/>
    </g>
    <g clip-path="url(#p350921dd75)">
     <use style="fill:#808080;fill-opacity:0.75;" x="160.23037" xlink:href="#C0_0_77057b9605" y="173.77202"/>
    </g>
    <g clip-path="url(#p350921dd75)">
     <use style="fill:#808080;fill-opacity:0.75;" x="171.802443" xlink:href="#C0_0_77057b9605" y="173.77202"/>
    </g>
    <g clip-path="url(#p350921dd75)">
     <use style="fill:#808080;fill-opacity:0.75;" x="154.444333" xlink:href="#C0_0_77057b9605" y="173.77202"/>
    </g>
    <g clip-path="url(#p350921dd75)">
     <use style="fill:#808080;fill-opacity:0.75;" x="166.016406" xlink:href="#C0_0_77057b9605" y="132.767717"/>
    </g>
    <g clip-path="url(#p350921dd75)">
     <use style="fill:#808080;fill-opacity:0.75;" x="160.23037" xlink:href="#C0_0_77057b9605" y="132.767717"/>
    </g>
    <g clip-path="url(#p350921dd75)">
     <use style="fill:#808080;fill-opacity:0.75;" x="166.016406" xlink:href="#C0_0_77057b9605" y="105.431515"/>
    </g>
    <g clip-path="url(#p350921dd75)">
     <use style="fill:#808080;fill-opacity:0.75;" x="160.23037" xlink:href="#C0_0_77057b9605" y="105.431515"/>
    </g>
    <g clip-path="url(#p350921dd75)">
     <use style="fill:#808080;fill-opacity:0.75;" x="166.016406" xlink:href="#C0_0_77057b9605" y="50.759111"/>
    </g>
   </g>
  </g>
  <g id="axes_2">
   <g id="patch_6">
    <path d="M 341.573438 380.84375 
L 565.2 380.84375 
L 565.2 35.040795 
L 341.573438 35.040795 
z
" style="fill:#ffffff;"/>
   </g>
   <g id="patch_7">
    <path clip-path="url(#pb66a69bbf2)" d="M 390.703966 380.84375 
L 395.525716 380.84375 
L 395.525716 357.319739 
L 390.703966 357.319739 
z
" style="fill:#1f77b4;opacity:0.4;"/>
   </g>
   <g id="patch_8">
    <path clip-path="url(#pb66a69bbf2)" d="M 395.525716 380.84375 
L 400.347466 380.84375 
L 400.347466 286.747708 
L 395.525716 286.747708 
z
" style="fill:#1f77b4;opacity:0.4;"/>
   </g>
   <g id="patch_9">
    <path clip-path="url(#pb66a69bbf2)" d="M 400.347466 380.84375 
L 405.169216 380.84375 
L 405.169216 333.795729 
L 400.347466 333.795729 
z
" style="fill:#1f77b4;opacity:0.4;"/>
   </g>
   <g id="patch_10">
    <path clip-path="url(#pb66a69bbf2)" d="M 405.169216 380.84375 
L 409.990967 380.84375 
L 409.990967 310.271718 
L 405.169216 310.271718 
z
" style="fill:#1f77b4;opacity:0.4;"/>
   </g>
   <g id="patch_11">
    <path clip-path="url(#pb66a69bbf2)" d="M 409.990967 380.84375 
L 414.812717 380.84375 
L 414.812717 286.747708 
L 409.990967 286.747708 
z
" style="fill:#1f77b4;opacity:0.4;"/>
   </g>
   <g id="patch_12">
    <path clip-path="url(#pb66a69bbf2)" d="M 414.812717 380.84375 
L 419.634467 380.84375 
L 419.634467 239.699687 
L 414.812717 239.699687 
z
" style="fill:#1f77b4;opacity:0.4;"/>
   </g>
   <g id="patch_13">
    <path clip-path="url(#pb66a69bbf2)" d="M 419.634467 380.84375 
L 424.456217 380.84375 
L 424.456217 357.319739 
L 419.634467 357.319739 
z
" style="fill:#1f77b4;opacity:0.4;"/>
   </g>
   <g id="patch_14">
    <path clip-path="url(#pb66a69bbf2)" d="M 424.456217 380.84375 
L 429.277968 380.84375 
L 429.277968 333.795729 
L 424.456217 333.795729 
z
" style="fill:#1f77b4;opacity:0.4;"/>
   </g>
   <g id="patch_15">
    <path clip-path="url(#pb66a69bbf2)" d="M 429.277968 380.84375 
L 434.099718 380.84375 
L 434.099718 380.84375 
L 429.277968 380.84375 
z
" style="fill:#1f77b4;opacity:0.4;"/>
   </g>
   <g id="patch_16">
    <path clip-path="url(#pb66a69bbf2)" d="M 434.099718 380.84375 
L 438.921468 380.84375 
L 438.921468 333.795729 
L 434.099718 333.795729 
z
" style="fill:#1f77b4;opacity:0.4;"/>
   </g>
   <g id="patch_17">
    <path clip-path="url(#pb66a69bbf2)" d="M 438.921468 380.84375 
L 443.743218 380.84375 
L 443.743218 51.507602 
L 438.921468 51.507602 
z
" style="fill:#1f77b4;opacity:0.4;"/>
   </g>
   <g id="patch_18">
    <path clip-path="url(#pb66a69bbf2)" d="M 443.743218 380.84375 
L 448.564969 380.84375 
L 448.564969 380.84375 
L 443.743218 380.84375 
z
" style="fill:#1f77b4;opacity:0.4;"/>
   </g>
   <g id="patch_19">
    <path clip-path="url(#pb66a69bbf2)" d="M 448.564969 380.84375 
L 453.386719 380.84375 
L 453.386719 380.84375 
L 448.564969 380.84375 
z
" style="fill:#1f77b4;opacity:0.4;"/>
   </g>
   <g id="patch_20">
    <path clip-path="url(#pb66a69bbf2)" d="M 453.386719 380.84375 
L 458.208469 380.84375 
L 458.208469 357.319739 
L 453.386719 357.319739 
z
" style="fill:#1f77b4;opacity:0.4;"/>
   </g>
   <g id="patch_21">
    <path clip-path="url(#pb66a69bbf2)" d="M 458.208469 380.84375 
L 463.030219 380.84375 
L 463.030219 310.271718 
L 458.208469 310.271718 
z
" style="fill:#1f77b4;opacity:0.4;"/>
   </g>
   <g id="patch_22">
    <path clip-path="url(#pb66a69bbf2)" d="M 463.030219 380.84375 
L 467.851969 380.84375 
L 467.851969 286.747708 
L 463.030219 286.747708 
z
" style="fill:#1f77b4;opacity:0.4;"/>
   </g>
   <g id="patch_23">
    <path clip-path="url(#pb66a69bbf2)" d="M 467.851969 380.84375 
L 472.67372 380.84375 
L 472.67372 380.84375 
L 467.851969 380.84375 
z
" style="fill:#1f77b4;opacity:0.4;"/>
   </g>
   <g id="patch_24">
    <path clip-path="url(#pb66a69bbf2)" d="M 472.67372 380.84375 
L 477.49547 380.84375 
L 477.49547 380.84375 
L 472.67372 380.84375 
z
" style="fill:#1f77b4;opacity:0.4;"/>
   </g>
   <g id="patch_25">
    <path clip-path="url(#pb66a69bbf2)" d="M 477.49547 380.84375 
L 482.31722 380.84375 
L 482.31722 380.84375 
L 477.49547 380.84375 
z
" style="fill:#1f77b4;opacity:0.4;"/>
   </g>
   <g id="patch_26">
    <path clip-path="url(#pb66a69bbf2)" d="M 482.31722 380.84375 
L 487.13897 380.84375 
L 487.13897 333.795729 
L 482.31722 333.795729 
z
" style="fill:#1f77b4;opacity:0.4;"/>
   </g>
   <g id="patch_27">
    <path clip-path="url(#pb66a69bbf2)" d="M 487.13897 380.84375 
L 491.960721 380.84375 
L 491.960721 380.84375 
L 487.13897 380.84375 
z
" style="fill:#1f77b4;opacity:0.4;"/>
   </g>
   <g id="patch_28">
    <path clip-path="url(#pb66a69bbf2)" d="M 491.960721 380.84375 
L 496.782471 380.84375 
L 496.782471 333.795729 
L 491.960721 333.795729 
z
" style="fill:#1f77b4;opacity:0.4;"/>
   </g>
   <g id="patch_29">
    <path clip-path="url(#pb66a69bbf2)" d="M 496.782471 380.84375 
L 501.604221 380.84375 
L 501.604221 380.84375 
L 496.782471 380.84375 
z
" style="fill:#1f77b4;opacity:0.4;"/>
   </g>
   <g id="patch_30">
    <path clip-path="url(#pb66a69bbf2)" d="M 501.604221 380.84375 
L 506.425971 380.84375 
L 506.425971 380.84375 
L 501.604221 380.84375 
z
" style="fill:#1f77b4;opacity:0.4;"/>
   </g>
   <g id="patch_31">
    <path clip-path="url(#pb66a69bbf2)" d="M 506.425971 380.84375 
L 511.247722 380.84375 
L 511.247722 380.84375 
L 506.425971 380.84375 
z
" style="fill:#1f77b4;opacity:0.4;"/>
   </g>
   <g id="patch_32">
    <path clip-path="url(#pb66a69bbf2)" d="M 511.247722 380.84375 
L 516.069472 380.84375 
L 516.069472 357.319739 
L 511.247722 357.319739 
z
" style="fill:#1f77b4;opacity:0.4;"/>
   </g>
   <g id="matplotlib.axis_3">
    <g id="xtick_2">
     <g id="line2d_14">
      <g>
       <use style="stroke:#000000;stroke-width:0.8;" x="385.253291" xlink:href="#mc3a356a46d" y="390.84375"/>
      </g>
     </g>
     <g id="text_10">
      <text style="font-family:DejaVu Sans;font-size:10px;font-stretch:normal;font-style:normal;font-weight:normal;text-anchor:middle;" transform="rotate(-0, 385.253291, 405.442187)" x="385.253291" y="405.442187">0</text>
     </g>
    </g>
    <g id="xtick_3">
     <g id="line2d_15">
      <g>
       <use style="stroke:#000000;stroke-width:0.8;" x="439.760033" xlink:href="#mc3a356a46d" y="390.84375"/>
      </g>
     </g>
     <g id="text_11">
      <text style="font-family:DejaVu Sans;font-size:10px;font-stretch:normal;font-style:normal;font-weight:normal;text-anchor:middle;" transform="rotate(-0, 439.760033, 405.442187)" x="439.760033" y="405.442187">10</text>
     </g>
    </g>
    <g id="xtick_4">
     <g id="line2d_16">
      <g>
       <use style="stroke:#000000;stroke-width:0.8;" x="494.266775" xlink:href="#mc3a356a46d" y="390.84375"/>
      </g>
     </g>
     <g id="text_12">
      <text style="font-family:DejaVu Sans;font-size:10px;font-stretch:normal;font-style:normal;font-weight:normal;text-anchor:middle;" transform="rotate(-0, 494.266775, 405.442187)" x="494.266775" y="405.442187">20</text>
     </g>
    </g>
    <g id="xtick_5">
     <g id="line2d_17">
      <g>
       <use style="stroke:#000000;stroke-width:0.8;" x="548.773517" xlink:href="#mc3a356a46d" y="390.84375"/>
      </g>
     </g>
     <g id="text_13">
      <text style="font-family:DejaVu Sans;font-size:10px;font-stretch:normal;font-style:normal;font-weight:normal;text-anchor:middle;" transform="rotate(-0, 548.773517, 405.442187)" x="548.773517" y="405.442187">30</text>
     </g>
    </g>
    <g id="text_14">
     <text style="font-family:DejaVu Sans;font-size:10px;font-stretch:normal;font-style:normal;font-weight:normal;text-anchor:middle;" transform="rotate(-0, 453.386719, 419.120313)" x="453.386719" y="419.120313">Value</text>
    </g>
   </g>
   <g id="matplotlib.axis_4">
    <g id="ytick_7">
     <g id="line2d_18">
      <g>
       <use style="stroke:#000000;stroke-width:0.8;" x="331.573438" xlink:href="#m82278324de" y="380.84375"/>
      </g>
     </g>
     <g id="text_15">
      <text style="font-family:DejaVu Sans;font-size:10px;font-stretch:normal;font-style:normal;font-weight:normal;text-anchor:end;" transform="rotate(-0, 324.573438, 384.642969)" x="324.573438" y="384.642969">0.00</text>
     </g>
    </g>
    <g id="ytick_8">
     <g id="line2d_19">
      <g>
       <use style="stroke:#000000;stroke-width:0.8;" x="331.573438" xlink:href="#m82278324de" y="326.738526"/>
      </g>
     </g>
     <g id="text_16">
      <text style="font-family:DejaVu Sans;font-size:10px;font-stretch:normal;font-style:normal;font-weight:normal;text-anchor:end;" transform="rotate(-0, 324.573438, 330.537744)" x="324.573438" y="330.537744">0.05</text>
     </g>
    </g>
    <g id="ytick_9">
     <g id="line2d_20">
      <g>
       <use style="stroke:#000000;stroke-width:0.8;" x="331.573438" xlink:href="#m82278324de" y="272.633301"/>
      </g>
     </g>
     <g id="text_17">
      <text style="font-family:DejaVu Sans;font-size:10px;font-stretch:normal;font-style:normal;font-weight:normal;text-anchor:end;" transform="rotate(-0, 324.573438, 276.43252)" x="324.573438" y="276.43252">0.10</text>
     </g>
    </g>
    <g id="ytick_10">
     <g id="line2d_21">
      <g>
       <use style="stroke:#000000;stroke-width:0.8;" x="331.573438" xlink:href="#m82278324de" y="218.528077"/>
      </g>
     </g>
     <g id="text_18">
      <text style="font-family:DejaVu Sans;font-size:10px;font-stretch:normal;font-style:normal;font-weight:normal;text-anchor:end;" transform="rotate(-0, 324.573438, 222.327296)" x="324.573438" y="222.327296">0.15</text>
     </g>
    </g>
    <g id="ytick_11">
     <g id="line2d_22">
      <g>
       <use style="stroke:#000000;stroke-width:0.8;" x="331.573438" xlink:href="#m82278324de" y="164.422853"/>
      </g>
     </g>
     <g id="text_19">
      <text style="font-family:DejaVu Sans;font-size:10px;font-stretch:normal;font-style:normal;font-weight:normal;text-anchor:end;" transform="rotate(-0, 324.573438, 168.222072)" x="324.573438" y="168.222072">0.20</text>
     </g>
    </g>
    <g id="ytick_12">
     <g id="line2d_23">
      <g>
       <use style="stroke:#000000;stroke-width:0.8;" x="331.573438" xlink:href="#m82278324de" y="110.317629"/>
      </g>
     </g>
     <g id="text_20">
      <text style="font-family:DejaVu Sans;font-size:10px;font-stretch:normal;font-style:normal;font-weight:normal;text-anchor:end;" transform="rotate(-0, 324.573438, 114.116847)" x="324.573438" y="114.116847">0.25</text>
     </g>
    </g>
    <g id="ytick_13">
     <g id="line2d_24">
      <g>
       <use style="stroke:#000000;stroke-width:0.8;" x="331.573438" xlink:href="#m82278324de" y="56.212404"/>
      </g>
     </g>
     <g id="text_21">
      <text style="font-family:DejaVu Sans;font-size:10px;font-stretch:normal;font-style:normal;font-weight:normal;text-anchor:end;" transform="rotate(-0, 324.573438, 60.011623)" x="324.573438" y="60.011623">0.30</text>
     </g>
    </g>
    <g id="text_22">
     <text style="font-family:DejaVu Sans;font-size:10px;font-stretch:normal;font-style:normal;font-weight:normal;text-anchor:middle;" transform="rotate(-90, 296.228125, 207.942272)" x="296.228125" y="207.942272">Density</text>
    </g>
   </g>
   <g id="line2d_25">
    <path clip-path="url(#pb66a69bbf2)" d="M 351.738281 380.758908 
L 356.846243 380.558117 
L 360.932612 380.161765 
L 363.997389 379.607577 
L 366.040574 379.05535 
L 368.083759 378.31142 
L 370.126943 377.333232 
L 372.170128 376.077697 
L 374.213313 374.504395 
L 376.256497 372.579325 
L 378.299682 370.27879 
L 380.342867 367.592973 
L 382.386051 364.528685 
L 384.429236 361.110859 
L 387.494013 355.419898 
L 391.580382 347.125286 
L 397.709936 334.506259 
L 400.774713 328.725454 
L 402.817898 325.225959 
L 404.861083 322.064155 
L 406.904267 319.265384 
L 408.947452 316.83373 
L 410.990637 314.751151 
L 413.033821 312.978655 
L 415.077006 311.460255 
L 418.141783 309.514694 
L 422.228152 307.229249 
L 426.314522 305.126439 
L 428.357707 304.226158 
L 430.400891 303.54262 
L 432.444076 303.192435 
L 433.465668 303.180273 
L 434.487261 303.295597 
L 435.508853 303.55057 
L 436.530445 303.955041 
L 437.552038 304.516041 
L 438.57363 305.23737 
L 439.595222 306.119328 
L 441.638407 308.348205 
L 443.681592 311.133958 
L 445.724776 314.359208 
L 448.789553 319.688614 
L 453.897515 328.596254 
L 456.962292 333.340491 
L 459.005477 336.158623 
L 462.070254 339.912575 
L 465.135031 343.240321 
L 469.2214 347.304474 
L 474.329362 352.075118 
L 478.415731 355.612536 
L 481.480508 358.027734 
L 484.545285 360.217746 
L 488.631654 362.836266 
L 493.739616 365.797125 
L 499.86917 369.069757 
L 503.955539 371.030625 
L 508.041909 372.735216 
L 512.128278 374.170633 
L 517.23624 375.673563 
L 524.387386 377.483832 
L 530.51694 378.815562 
L 535.624902 379.67622 
L 539.711271 380.163169 
L 544.819233 380.539353 
L 550.948787 380.748574 
L 555.035156 380.804923 
L 555.035156 380.804923 
" style="fill:none;stroke:#1f77b4;stroke-linecap:square;stroke-width:1.5;"/>
   </g>
   <g id="patch_33">
    <path d="M 331.573438 380.84375 
L 331.573438 56.212404 
" style="fill:none;stroke:#000000;stroke-linecap:square;stroke-linejoin:miter;stroke-width:0.8;"/>
   </g>
   <g id="patch_34">
    <path d="M 385.253291 390.84375 
L 548.773517 390.84375 
" style="fill:none;stroke:#000000;stroke-linecap:square;stroke-linejoin:miter;stroke-width:0.8;"/>
   </g>
   <g id="legend_1">
    <g id="patch_35">
     <path d="M 500.75 57.71892 
L 558.2 57.71892 
Q 560.2 57.71892 560.2 55.71892 
L 560.2 42.040795 
Q 560.2 40.040795 558.2 40.040795 
L 500.75 40.040795 
Q 498.75 40.040795 498.75 42.040795 
L 498.75 55.71892 
Q 498.75 57.71892 500.75 57.71892 
z
" style="fill:#ffffff;opacity:0.8;stroke:#cccccc;stroke-linejoin:miter;"/>
    </g>
    <g id="patch_36">
     <path d="M 502.75 51.639232 
L 522.75 51.639232 
L 522.75 44.639232 
L 502.75 44.639232 
z
" style="fill:#1f77b4;opacity:0.4;"/>
    </g>
    <g id="text_23">
     <text style="font-family:DejaVu Sans;font-size:10px;font-stretch:normal;font-style:normal;font-weight:normal;text-anchor:start;" transform="rotate(-0, 530.75, 51.639232)" x="530.75" y="51.639232">2018</text>
    </g>
   </g>
  </g>
  <g id="text_24">
   <text style="font-family:DejaVu Sans;font-size:12px;font-stretch:normal;font-style:normal;font-weight:normal;text-anchor:middle;" transform="rotate(-0, 288, 17.758125)" x="288" y="17.758125">How many years of software development experience for World (without 95 percentile)</text>
  </g>
 </g>
 <defs>
  <clipPath id="p350921dd75">
   <rect height="345.802955" width="223.626563" x="54.203125" y="35.040795"/>
  </clipPath>
  <clipPath id="pb66a69bbf2">
   <rect height="345.802955" width="223.626562" x="341.573438" y="35.040795"/>
  </clipPath>
 </defs>
</svg>
