<?xml version="1.0" encoding="utf-8" standalone="no"?>
<!DOCTYPE svg PUBLIC "-//W3C//DTD SVG 1.1//EN"
  "http://www.w3.org/Graphics/SVG/1.1/DTD/svg11.dtd">
<svg height="432pt" version="1.1" viewBox="0 0 576 432" width="576pt" xmlns="http://www.w3.org/2000/svg" xmlns:xlink="http://www.w3.org/1999/xlink">
 <metadata>
  <rdf:RDF xmlns:cc="http://creativecommons.org/ns#" xmlns:dc="http://purl.org/dc/elements/1.1/" xmlns:rdf="http://www.w3.org/1999/02/22-rdf-syntax-ns#">
   <cc:Work>
    <dc:type rdf:resource="http://purl.org/dc/dcmitype/StillImage"/>
    <dc:date>2021-06-09T15:04:05.671181</dc:date>
    <dc:format>image/svg+xml</dc:format>
    <dc:creator>
     <cc:Agent>
      <dc:title>Matplotlib v3.4.2, https://matplotlib.org/</dc:title>
     </cc:Agent>
    </dc:creator>
   </cc:Work>
  </rdf:RDF>
 </metadata>
 <defs>
  <style type="text/css">*{stroke-linecap:butt;stroke-linejoin:round;}</style>
 </defs>
 <g id="figure_1">
  <g id="patch_1">
   <path d="M 0 432 
L 576 432 
L 576 0 
L 0 0 
z
" style="fill:#ffffff;"/>
  </g>
  <g id="axes_1">
   <g id="patch_2">
    <path d="M 52.067188 381.909375 
L 282.6 381.909375 
L 282.6 32.86125 
L 52.067188 32.86125 
z
" style="fill:#ffffff;"/>
   </g>
   <g id="patch_3">
    <path clip-path="url(#p1bc3246ace)" d="M 63.593828 322.412536 
L 155.806953 322.412536 
L 155.806953 195.485945 
L 63.593828 195.485945 
L 63.593828 322.412536 
z
" style="fill:#3274a1;stroke:#3f3f3f;stroke-linejoin:miter;stroke-width:1.5;"/>
   </g>
   <g id="patch_4">
    <path clip-path="url(#p1bc3246ace)" d="M 178.860234 334.311903 
L 271.073359 334.311903 
L 271.073359 286.714432 
L 178.860234 286.714432 
L 178.860234 334.311903 
z
" style="fill:#e1812c;stroke:#3f3f3f;stroke-linejoin:miter;stroke-width:1.5;"/>
   </g>
   <g id="matplotlib.axis_1">
    <g id="xtick_1">
     <g id="line2d_1">
      <defs>
       <path d="M 0 0 
L 0 3.5 
" id="mc3a356a46d" style="stroke:#000000;stroke-width:0.8;"/>
      </defs>
      <g>
       <use style="stroke:#000000;stroke-width:0.8;" x="109.700391" xlink:href="#mc3a356a46d" y="391.909375"/>
      </g>
     </g>
     <g id="text_1">
      <text style="font-family:Arial;font-size:10px;font-stretch:normal;font-style:normal;font-weight:normal;text-anchor:middle;" transform="rotate(-0, 109.700391, 406.067187)" x="109.700391" y="406.067187">2017</text>
     </g>
    </g>
    <g id="xtick_2">
     <g id="line2d_2">
      <g>
       <use style="stroke:#000000;stroke-width:0.8;" x="224.966797" xlink:href="#mc3a356a46d" y="391.909375"/>
      </g>
     </g>
     <g id="text_2">
      <text style="font-family:Arial;font-size:10px;font-stretch:normal;font-style:normal;font-weight:normal;text-anchor:middle;" transform="rotate(-0, 224.966797, 406.067187)" x="224.966797" y="406.067187">2018</text>
     </g>
    </g>
    <g id="text_3">
     <text style="font-family:Arial;font-size:10px;font-stretch:normal;font-style:normal;font-weight:normal;text-anchor:middle;" transform="rotate(-0, 167.333594, 419.2125)" x="167.333594" y="419.2125">Year</text>
    </g>
   </g>
   <g id="matplotlib.axis_2">
    <g id="ytick_1">
     <g id="line2d_3">
      <defs>
       <path d="M 0 0 
L -3.5 0 
" id="m82278324de" style="stroke:#000000;stroke-width:0.8;"/>
      </defs>
      <g>
       <use style="stroke:#000000;stroke-width:0.8;" x="42.067188" xlink:href="#m82278324de" y="366.043551"/>
      </g>
     </g>
     <g id="text_4">
      <text style="font-family:Arial;font-size:10px;font-stretch:normal;font-style:normal;font-weight:normal;text-anchor:end;" transform="rotate(-0, 35.067188, 369.622457)" x="35.067188" y="369.622457">0</text>
     </g>
    </g>
    <g id="ytick_2">
     <g id="line2d_4">
      <g>
       <use style="stroke:#000000;stroke-width:0.8;" x="42.067188" xlink:href="#m82278324de" y="326.378991"/>
      </g>
     </g>
     <g id="text_5">
      <text style="font-family:Arial;font-size:10px;font-stretch:normal;font-style:normal;font-weight:normal;text-anchor:end;" transform="rotate(-0, 35.067188, 329.957898)" x="35.067188" y="329.957898">5</text>
     </g>
    </g>
    <g id="ytick_3">
     <g id="line2d_5">
      <g>
       <use style="stroke:#000000;stroke-width:0.8;" x="42.067188" xlink:href="#m82278324de" y="286.714432"/>
      </g>
     </g>
     <g id="text_6">
      <text style="font-family:Arial;font-size:10px;font-stretch:normal;font-style:normal;font-weight:normal;text-anchor:end;" transform="rotate(-0, 35.067188, 290.293338)" x="35.067188" y="290.293338">10</text>
     </g>
    </g>
    <g id="ytick_4">
     <g id="line2d_6">
      <g>
       <use style="stroke:#000000;stroke-width:0.8;" x="42.067188" xlink:href="#m82278324de" y="247.049872"/>
      </g>
     </g>
     <g id="text_7">
      <text style="font-family:Arial;font-size:10px;font-stretch:normal;font-style:normal;font-weight:normal;text-anchor:end;" transform="rotate(-0, 35.067188, 250.628778)" x="35.067188" y="250.628778">15</text>
     </g>
    </g>
    <g id="ytick_5">
     <g id="line2d_7">
      <g>
       <use style="stroke:#000000;stroke-width:0.8;" x="42.067188" xlink:href="#m82278324de" y="207.385313"/>
      </g>
     </g>
     <g id="text_8">
      <text style="font-family:Arial;font-size:10px;font-stretch:normal;font-style:normal;font-weight:normal;text-anchor:end;" transform="rotate(-0, 35.067188, 210.964219)" x="35.067188" y="210.964219">20</text>
     </g>
    </g>
    <g id="ytick_6">
     <g id="line2d_8">
      <g>
       <use style="stroke:#000000;stroke-width:0.8;" x="42.067188" xlink:href="#m82278324de" y="167.720753"/>
      </g>
     </g>
     <g id="text_9">
      <text style="font-family:Arial;font-size:10px;font-stretch:normal;font-style:normal;font-weight:normal;text-anchor:end;" transform="rotate(-0, 35.067188, 171.299659)" x="35.067188" y="171.299659">25</text>
     </g>
    </g>
    <g id="ytick_7">
     <g id="line2d_9">
      <g>
       <use style="stroke:#000000;stroke-width:0.8;" x="42.067188" xlink:href="#m82278324de" y="128.056193"/>
      </g>
     </g>
     <g id="text_10">
      <text style="font-family:Arial;font-size:10px;font-stretch:normal;font-style:normal;font-weight:normal;text-anchor:end;" transform="rotate(-0, 35.067188, 131.635099)" x="35.067188" y="131.635099">30</text>
     </g>
    </g>
    <g id="ytick_8">
     <g id="line2d_10">
      <g>
       <use style="stroke:#000000;stroke-width:0.8;" x="42.067188" xlink:href="#m82278324de" y="88.391634"/>
      </g>
     </g>
     <g id="text_11">
      <text style="font-family:Arial;font-size:10px;font-stretch:normal;font-style:normal;font-weight:normal;text-anchor:end;" transform="rotate(-0, 35.067188, 91.97054)" x="35.067188" y="91.97054">35</text>
     </g>
    </g>
    <g id="ytick_9">
     <g id="line2d_11">
      <g>
       <use style="stroke:#000000;stroke-width:0.8;" x="42.067188" xlink:href="#m82278324de" y="48.727074"/>
      </g>
     </g>
     <g id="text_12">
      <text style="font-family:Arial;font-size:10px;font-stretch:normal;font-style:normal;font-weight:normal;text-anchor:end;" transform="rotate(-0, 35.067188, 52.30598)" x="35.067188" y="52.30598">40</text>
     </g>
    </g>
    <g id="text_13">
     <text style="font-family:Arial;font-size:10px;font-stretch:normal;font-style:normal;font-weight:normal;text-anchor:middle;" transform="rotate(-90, 17.957813, 207.385312)" x="17.957813" y="207.385312">Value</text>
    </g>
   </g>
   <g id="line2d_12">
    <path clip-path="url(#p1bc3246ace)" d="M 109.700391 322.412536 
L 109.700391 350.177727 
" style="fill:none;stroke:#3f3f3f;stroke-linecap:square;stroke-width:1.5;"/>
   </g>
   <g id="line2d_13">
    <path clip-path="url(#p1bc3246ace)" d="M 109.700391 195.485945 
L 109.700391 48.727074 
" style="fill:none;stroke:#3f3f3f;stroke-linecap:square;stroke-width:1.5;"/>
   </g>
   <g id="line2d_14">
    <path clip-path="url(#p1bc3246ace)" d="M 86.647109 350.177727 
L 132.753672 350.177727 
" style="fill:none;stroke:#3f3f3f;stroke-linecap:square;stroke-width:1.5;"/>
   </g>
   <g id="line2d_15">
    <path clip-path="url(#p1bc3246ace)" d="M 86.647109 48.727074 
L 132.753672 48.727074 
" style="fill:none;stroke:#3f3f3f;stroke-linecap:square;stroke-width:1.5;"/>
   </g>
   <g id="line2d_16"/>
   <g id="line2d_17">
    <path clip-path="url(#p1bc3246ace)" d="M 224.966797 334.311903 
L 224.966797 366.043551 
" style="fill:none;stroke:#3f3f3f;stroke-linecap:square;stroke-width:1.5;"/>
   </g>
   <g id="line2d_18">
    <path clip-path="url(#p1bc3246ace)" d="M 224.966797 286.714432 
L 224.966797 223.251136 
" style="fill:none;stroke:#3f3f3f;stroke-linecap:square;stroke-width:1.5;"/>
   </g>
   <g id="line2d_19">
    <path clip-path="url(#p1bc3246ace)" d="M 201.913516 366.043551 
L 248.020078 366.043551 
" style="fill:none;stroke:#3f3f3f;stroke-linecap:square;stroke-width:1.5;"/>
   </g>
   <g id="line2d_20">
    <path clip-path="url(#p1bc3246ace)" d="M 201.913516 223.251136 
L 248.020078 223.251136 
" style="fill:none;stroke:#3f3f3f;stroke-linecap:square;stroke-width:1.5;"/>
   </g>
   <g id="line2d_21">
    <defs>
     <path d="M -0 3.535534 
L 2.12132 0 
L -0 -3.535534 
L -2.12132 -0 
z
" id="m226ab95657" style="stroke:#3f3f3f;stroke-linejoin:miter;"/>
    </defs>
    <g clip-path="url(#p1bc3246ace)">
     <use style="fill:#3f3f3f;stroke:#3f3f3f;stroke-linejoin:miter;" x="224.966797" xlink:href="#m226ab95657" y="207.385313"/>
    </g>
   </g>
   <g id="line2d_22">
    <path clip-path="url(#p1bc3246ace)" d="M 63.593828 258.94924 
L 155.806953 258.94924 
" style="fill:none;stroke:#3f3f3f;stroke-linecap:square;stroke-width:1.5;"/>
   </g>
   <g id="line2d_23">
    <path clip-path="url(#p1bc3246ace)" d="M 178.860234 326.378991 
L 271.073359 326.378991 
" style="fill:none;stroke:#3f3f3f;stroke-linecap:square;stroke-width:1.5;"/>
   </g>
   <g id="patch_5">
    <path d="M 42.067188 366.043551 
L 42.067188 48.727074 
" style="fill:none;stroke:#000000;stroke-linecap:square;stroke-linejoin:miter;stroke-width:0.8;"/>
   </g>
   <g id="patch_6">
    <path d="M 109.700391 391.909375 
L 224.966797 391.909375 
" style="fill:none;stroke:#000000;stroke-linecap:square;stroke-linejoin:miter;stroke-width:0.8;"/>
   </g>
   <g id="PathCollection_1">
    <defs>
     <path d="M 0 2.5 
C 0.663008 2.5 1.29895 2.236584 1.767767 1.767767 
C 2.236584 1.29895 2.5 0.663008 2.5 -0 
C 2.5 -0.663008 2.236584 -1.29895 1.767767 -1.767767 
C 1.29895 -2.236584 0.663008 -2.5 0 -2.5 
C -0.663008 -2.5 -1.29895 -2.236584 -1.767767 -1.767767 
C -2.236584 -1.29895 -2.5 -0.663008 -2.5 0 
C -2.5 0.663008 -2.236584 1.29895 -1.767767 1.767767 
C -1.29895 2.236584 -0.663008 2.5 0 2.5 
z
" id="C0_0_77057b9605"/>
    </defs>
    <g clip-path="url(#p1bc3246ace)">
     <use style="fill:#808080;fill-opacity:0.75;" x="109.700391" xlink:href="#C0_0_77057b9605" y="350.177727"/>
    </g>
    <g clip-path="url(#p1bc3246ace)">
     <use style="fill:#808080;fill-opacity:0.75;" x="109.700391" xlink:href="#C0_0_77057b9605" y="342.244815"/>
    </g>
    <g clip-path="url(#p1bc3246ace)">
     <use style="fill:#808080;fill-opacity:0.75;" x="103.735664" xlink:href="#C0_0_77057b9605" y="342.244815"/>
    </g>
    <g clip-path="url(#p1bc3246ace)">
     <use style="fill:#808080;fill-opacity:0.75;" x="115.665117" xlink:href="#C0_0_77057b9605" y="342.244815"/>
    </g>
    <g clip-path="url(#p1bc3246ace)">
     <use style="fill:#808080;fill-opacity:0.75;" x="109.700391" xlink:href="#C0_0_77057b9605" y="326.378991"/>
    </g>
    <g clip-path="url(#p1bc3246ace)">
     <use style="fill:#808080;fill-opacity:0.75;" x="109.700391" xlink:href="#C0_0_77057b9605" y="310.513168"/>
    </g>
    <g clip-path="url(#p1bc3246ace)">
     <use style="fill:#808080;fill-opacity:0.75;" x="109.700391" xlink:href="#C0_0_77057b9605" y="302.580256"/>
    </g>
    <g clip-path="url(#p1bc3246ace)">
     <use style="fill:#808080;fill-opacity:0.75;" x="109.700391" xlink:href="#C0_0_77057b9605" y="286.714432"/>
    </g>
    <g clip-path="url(#p1bc3246ace)">
     <use style="fill:#808080;fill-opacity:0.75;" x="109.700391" xlink:href="#C0_0_77057b9605" y="270.848608"/>
    </g>
    <g clip-path="url(#p1bc3246ace)">
     <use style="fill:#808080;fill-opacity:0.75;" x="109.700391" xlink:href="#C0_0_77057b9605" y="247.049872"/>
    </g>
    <g clip-path="url(#p1bc3246ace)">
     <use style="fill:#808080;fill-opacity:0.75;" x="109.700391" xlink:href="#C0_0_77057b9605" y="231.184048"/>
    </g>
    <g clip-path="url(#p1bc3246ace)">
     <use style="fill:#808080;fill-opacity:0.75;" x="109.700391" xlink:href="#C0_0_77057b9605" y="215.318224"/>
    </g>
    <g clip-path="url(#p1bc3246ace)">
     <use style="fill:#808080;fill-opacity:0.75;" x="109.700391" xlink:href="#C0_0_77057b9605" y="207.385312"/>
    </g>
    <g clip-path="url(#p1bc3246ace)">
     <use style="fill:#808080;fill-opacity:0.75;" x="109.700391" xlink:href="#C0_0_77057b9605" y="191.519489"/>
    </g>
    <g clip-path="url(#p1bc3246ace)">
     <use style="fill:#808080;fill-opacity:0.75;" x="109.700391" xlink:href="#C0_0_77057b9605" y="167.720753"/>
    </g>
    <g clip-path="url(#p1bc3246ace)">
     <use style="fill:#808080;fill-opacity:0.75;" x="109.700391" xlink:href="#C0_0_77057b9605" y="128.056193"/>
    </g>
    <g clip-path="url(#p1bc3246ace)">
     <use style="fill:#808080;fill-opacity:0.75;" x="109.700391" xlink:href="#C0_0_77057b9605" y="80.458722"/>
    </g>
    <g clip-path="url(#p1bc3246ace)">
     <use style="fill:#808080;fill-opacity:0.75;" x="109.700391" xlink:href="#C0_0_77057b9605" y="48.727074"/>
    </g>
   </g>
   <g id="PathCollection_2">
    <defs>
     <path d="M 0 2.5 
C 0.663008 2.5 1.29895 2.236584 1.767767 1.767767 
C 2.236584 1.29895 2.5 0.663008 2.5 -0 
C 2.5 -0.663008 2.236584 -1.29895 1.767767 -1.767767 
C 1.29895 -2.236584 0.663008 -2.5 0 -2.5 
C -0.663008 -2.5 -1.29895 -2.236584 -1.767767 -1.767767 
C -2.236584 -1.29895 -2.5 -0.663008 -2.5 0 
C -2.5 0.663008 -2.236584 1.29895 -1.767767 1.767767 
C -1.29895 2.236584 -0.663008 2.5 0 2.5 
z
" id="C1_0_77057b9605"/>
    </defs>
    <g clip-path="url(#p1bc3246ace)">
     <use style="fill:#808080;fill-opacity:0.75;" x="224.966797" xlink:href="#C1_0_77057b9605" y="366.043551"/>
    </g>
    <g clip-path="url(#p1bc3246ace)">
     <use style="fill:#808080;fill-opacity:0.75;" x="224.966797" xlink:href="#C1_0_77057b9605" y="358.110639"/>
    </g>
    <g clip-path="url(#p1bc3246ace)">
     <use style="fill:#808080;fill-opacity:0.75;" x="219.00207" xlink:href="#C1_0_77057b9605" y="358.110639"/>
    </g>
    <g clip-path="url(#p1bc3246ace)">
     <use style="fill:#808080;fill-opacity:0.75;" x="224.966797" xlink:href="#C1_0_77057b9605" y="342.244815"/>
    </g>
    <g clip-path="url(#p1bc3246ace)">
     <use style="fill:#808080;fill-opacity:0.75;" x="224.966797" xlink:href="#C1_0_77057b9605" y="334.311903"/>
    </g>
    <g clip-path="url(#p1bc3246ace)">
     <use style="fill:#808080;fill-opacity:0.75;" x="219.00207" xlink:href="#C1_0_77057b9605" y="334.311903"/>
    </g>
    <g clip-path="url(#p1bc3246ace)">
     <use style="fill:#808080;fill-opacity:0.75;" x="224.966797" xlink:href="#C1_0_77057b9605" y="326.378991"/>
    </g>
    <g clip-path="url(#p1bc3246ace)">
     <use style="fill:#808080;fill-opacity:0.75;" x="219.00207" xlink:href="#C1_0_77057b9605" y="326.378991"/>
    </g>
    <g clip-path="url(#p1bc3246ace)">
     <use style="fill:#808080;fill-opacity:0.75;" x="230.931524" xlink:href="#C1_0_77057b9605" y="326.378991"/>
    </g>
    <g clip-path="url(#p1bc3246ace)">
     <use style="fill:#808080;fill-opacity:0.75;" x="213.037344" xlink:href="#C1_0_77057b9605" y="326.378991"/>
    </g>
    <g clip-path="url(#p1bc3246ace)">
     <use style="fill:#808080;fill-opacity:0.75;" x="236.89625" xlink:href="#C1_0_77057b9605" y="326.378991"/>
    </g>
    <g clip-path="url(#p1bc3246ace)">
     <use style="fill:#808080;fill-opacity:0.75;" x="224.966797" xlink:href="#C1_0_77057b9605" y="318.44608"/>
    </g>
    <g clip-path="url(#p1bc3246ace)">
     <use style="fill:#808080;fill-opacity:0.75;" x="219.00207" xlink:href="#C1_0_77057b9605" y="318.44608"/>
    </g>
    <g clip-path="url(#p1bc3246ace)">
     <use style="fill:#808080;fill-opacity:0.75;" x="224.966797" xlink:href="#C1_0_77057b9605" y="302.580256"/>
    </g>
    <g clip-path="url(#p1bc3246ace)">
     <use style="fill:#808080;fill-opacity:0.75;" x="224.966797" xlink:href="#C1_0_77057b9605" y="286.714432"/>
    </g>
    <g clip-path="url(#p1bc3246ace)">
     <use style="fill:#808080;fill-opacity:0.75;" x="219.00207" xlink:href="#C1_0_77057b9605" y="286.714432"/>
    </g>
    <g clip-path="url(#p1bc3246ace)">
     <use style="fill:#808080;fill-opacity:0.75;" x="230.931524" xlink:href="#C1_0_77057b9605" y="286.714432"/>
    </g>
    <g clip-path="url(#p1bc3246ace)">
     <use style="fill:#808080;fill-opacity:0.75;" x="224.966797" xlink:href="#C1_0_77057b9605" y="270.848608"/>
    </g>
    <g clip-path="url(#p1bc3246ace)">
     <use style="fill:#808080;fill-opacity:0.75;" x="224.966797" xlink:href="#C1_0_77057b9605" y="247.049872"/>
    </g>
    <g clip-path="url(#p1bc3246ace)">
     <use style="fill:#808080;fill-opacity:0.75;" x="224.966797" xlink:href="#C1_0_77057b9605" y="223.251136"/>
    </g>
    <g clip-path="url(#p1bc3246ace)">
     <use style="fill:#808080;fill-opacity:0.75;" x="224.966797" xlink:href="#C1_0_77057b9605" y="207.385312"/>
    </g>
   </g>
  </g>
  <g id="axes_2">
   <g id="patch_7">
    <path d="M 334.667187 381.909375 
L 565.2 381.909375 
L 565.2 32.86125 
L 334.667187 32.86125 
z
" style="fill:#ffffff;"/>
   </g>
   <g id="patch_8">
    <path clip-path="url(#p8025b9161c)" d="M 360.115615 381.909375 
L 375.085278 381.909375 
L 375.085278 49.482589 
L 360.115615 49.482589 
z
" style="fill:#2d1e3e;fill-opacity:0.5;stroke:#000000;stroke-linejoin:miter;"/>
   </g>
   <g id="patch_9">
    <path clip-path="url(#p8025b9161c)" d="M 390.054941 381.909375 
L 405.024604 381.909375 
L 405.024604 200.585674 
L 390.054941 200.585674 
z
" style="fill:#2d1e3e;fill-opacity:0.5;stroke:#000000;stroke-linejoin:miter;"/>
   </g>
   <g id="patch_10">
    <path clip-path="url(#p8025b9161c)" d="M 419.994267 381.909375 
L 434.963931 381.909375 
L 434.963931 321.468141 
L 419.994267 321.468141 
z
" style="fill:#2d1e3e;fill-opacity:0.5;stroke:#000000;stroke-linejoin:miter;"/>
   </g>
   <g id="patch_11">
    <path clip-path="url(#p8025b9161c)" d="M 449.933594 381.909375 
L 464.903257 381.909375 
L 464.903257 321.468141 
L 449.933594 321.468141 
z
" style="fill:#2d1e3e;fill-opacity:0.5;stroke:#000000;stroke-linejoin:miter;"/>
   </g>
   <g id="patch_12">
    <path clip-path="url(#p8025b9161c)" d="M 479.87292 381.909375 
L 494.842583 381.909375 
L 494.842583 381.909375 
L 479.87292 381.909375 
z
" style="fill:#2d1e3e;fill-opacity:0.5;stroke:#000000;stroke-linejoin:miter;"/>
   </g>
   <g id="patch_13">
    <path clip-path="url(#p8025b9161c)" d="M 509.812246 381.909375 
L 524.781909 381.909375 
L 524.781909 381.909375 
L 509.812246 381.909375 
z
" style="fill:#2d1e3e;fill-opacity:0.5;stroke:#000000;stroke-linejoin:miter;"/>
   </g>
   <g id="patch_14">
    <path clip-path="url(#p8025b9161c)" d="M 539.751573 381.909375 
L 554.721236 381.909375 
L 554.721236 381.909375 
L 539.751573 381.909375 
z
" style="fill:#2d1e3e;fill-opacity:0.5;stroke:#000000;stroke-linejoin:miter;"/>
   </g>
   <g id="patch_15">
    <path clip-path="url(#p8025b9161c)" d="M 345.145952 381.909375 
L 360.115615 381.909375 
L 360.115615 230.806291 
L 345.145952 230.806291 
z
" style="fill:#edd1cb;fill-opacity:0.5;stroke:#000000;stroke-linejoin:miter;"/>
   </g>
   <g id="patch_16">
    <path clip-path="url(#p8025b9161c)" d="M 375.085278 381.909375 
L 390.054941 381.909375 
L 390.054941 291.247524 
L 375.085278 291.247524 
z
" style="fill:#edd1cb;fill-opacity:0.5;stroke:#000000;stroke-linejoin:miter;"/>
   </g>
   <g id="patch_17">
    <path clip-path="url(#p8025b9161c)" d="M 405.024604 381.909375 
L 419.994267 381.909375 
L 419.994267 291.247524 
L 405.024604 291.247524 
z
" style="fill:#edd1cb;fill-opacity:0.5;stroke:#000000;stroke-linejoin:miter;"/>
   </g>
   <g id="patch_18">
    <path clip-path="url(#p8025b9161c)" d="M 434.963931 381.909375 
L 449.933594 381.909375 
L 449.933594 291.247524 
L 434.963931 291.247524 
z
" style="fill:#edd1cb;fill-opacity:0.5;stroke:#000000;stroke-linejoin:miter;"/>
   </g>
   <g id="patch_19">
    <path clip-path="url(#p8025b9161c)" d="M 464.903257 381.909375 
L 479.87292 381.909375 
L 479.87292 351.688758 
L 464.903257 351.688758 
z
" style="fill:#edd1cb;fill-opacity:0.5;stroke:#000000;stroke-linejoin:miter;"/>
   </g>
   <g id="patch_20">
    <path clip-path="url(#p8025b9161c)" d="M 494.842583 381.909375 
L 509.812246 381.909375 
L 509.812246 351.688758 
L 494.842583 351.688758 
z
" style="fill:#edd1cb;fill-opacity:0.5;stroke:#000000;stroke-linejoin:miter;"/>
   </g>
   <g id="patch_21">
    <path clip-path="url(#p8025b9161c)" d="M 524.781909 381.909375 
L 539.751573 381.909375 
L 539.751573 321.468141 
L 524.781909 321.468141 
z
" style="fill:#edd1cb;fill-opacity:0.5;stroke:#000000;stroke-linejoin:miter;"/>
   </g>
   <g id="matplotlib.axis_3">
    <g id="xtick_3">
     <g id="line2d_24">
      <g>
       <use style="stroke:#000000;stroke-width:0.8;" x="345.145952" xlink:href="#mc3a356a46d" y="391.909375"/>
      </g>
     </g>
     <g id="text_14">
      <text style="font-family:Arial;font-size:10px;font-stretch:normal;font-style:normal;font-weight:normal;text-anchor:middle;" transform="rotate(-0, 345.145952, 406.067187)" x="345.145952" y="406.067187">0</text>
     </g>
    </g>
    <g id="xtick_4">
     <g id="line2d_25">
      <g>
       <use style="stroke:#000000;stroke-width:0.8;" x="397.539773" xlink:href="#mc3a356a46d" y="391.909375"/>
      </g>
     </g>
     <g id="text_15">
      <text style="font-family:Arial;font-size:10px;font-stretch:normal;font-style:normal;font-weight:normal;text-anchor:middle;" transform="rotate(-0, 397.539773, 406.067187)" x="397.539773" y="406.067187">10</text>
     </g>
    </g>
    <g id="xtick_5">
     <g id="line2d_26">
      <g>
       <use style="stroke:#000000;stroke-width:0.8;" x="449.933594" xlink:href="#mc3a356a46d" y="391.909375"/>
      </g>
     </g>
     <g id="text_16">
      <text style="font-family:Arial;font-size:10px;font-stretch:normal;font-style:normal;font-weight:normal;text-anchor:middle;" transform="rotate(-0, 449.933594, 406.067187)" x="449.933594" y="406.067187">20</text>
     </g>
    </g>
    <g id="xtick_6">
     <g id="line2d_27">
      <g>
       <use style="stroke:#000000;stroke-width:0.8;" x="502.327415" xlink:href="#mc3a356a46d" y="391.909375"/>
      </g>
     </g>
     <g id="text_17">
      <text style="font-family:Arial;font-size:10px;font-stretch:normal;font-style:normal;font-weight:normal;text-anchor:middle;" transform="rotate(-0, 502.327415, 406.067187)" x="502.327415" y="406.067187">30</text>
     </g>
    </g>
    <g id="xtick_7">
     <g id="line2d_28">
      <g>
       <use style="stroke:#000000;stroke-width:0.8;" x="554.721236" xlink:href="#mc3a356a46d" y="391.909375"/>
      </g>
     </g>
     <g id="text_18">
      <text style="font-family:Arial;font-size:10px;font-stretch:normal;font-style:normal;font-weight:normal;text-anchor:middle;" transform="rotate(-0, 554.721236, 406.067187)" x="554.721236" y="406.067187">40</text>
     </g>
    </g>
    <g id="text_19">
     <text style="font-family:Arial;font-size:10px;font-stretch:normal;font-style:normal;font-weight:normal;text-anchor:middle;" transform="rotate(-0, 449.933594, 419.2125)" x="449.933594" y="419.2125">Value</text>
    </g>
   </g>
   <g id="matplotlib.axis_4">
    <g id="ytick_10">
     <g id="line2d_29">
      <g>
       <use style="stroke:#000000;stroke-width:0.8;" x="324.667187" xlink:href="#m82278324de" y="381.909375"/>
      </g>
     </g>
     <g id="text_20">
      <text style="font-family:Arial;font-size:10px;font-stretch:normal;font-style:normal;font-weight:normal;text-anchor:end;" transform="rotate(-0, 317.667187, 385.488281)" x="317.667187" y="385.488281">0</text>
     </g>
    </g>
    <g id="ytick_11">
     <g id="line2d_30">
      <g>
       <use style="stroke:#000000;stroke-width:0.8;" x="324.667187" xlink:href="#m82278324de" y="321.468141"/>
      </g>
     </g>
     <g id="text_21">
      <text style="font-family:Arial;font-size:10px;font-stretch:normal;font-style:normal;font-weight:normal;text-anchor:end;" transform="rotate(-0, 317.667187, 325.047047)" x="317.667187" y="325.047047">2</text>
     </g>
    </g>
    <g id="ytick_12">
     <g id="line2d_31">
      <g>
       <use style="stroke:#000000;stroke-width:0.8;" x="324.667187" xlink:href="#m82278324de" y="261.026907"/>
      </g>
     </g>
     <g id="text_22">
      <text style="font-family:Arial;font-size:10px;font-stretch:normal;font-style:normal;font-weight:normal;text-anchor:end;" transform="rotate(-0, 317.667187, 264.605814)" x="317.667187" y="264.605814">4</text>
     </g>
    </g>
    <g id="ytick_13">
     <g id="line2d_32">
      <g>
       <use style="stroke:#000000;stroke-width:0.8;" x="324.667187" xlink:href="#m82278324de" y="200.585674"/>
      </g>
     </g>
     <g id="text_23">
      <text style="font-family:Arial;font-size:10px;font-stretch:normal;font-style:normal;font-weight:normal;text-anchor:end;" transform="rotate(-0, 317.667187, 204.16458)" x="317.667187" y="204.16458">6</text>
     </g>
    </g>
    <g id="ytick_14">
     <g id="line2d_33">
      <g>
       <use style="stroke:#000000;stroke-width:0.8;" x="324.667187" xlink:href="#m82278324de" y="140.14444"/>
      </g>
     </g>
     <g id="text_24">
      <text style="font-family:Arial;font-size:10px;font-stretch:normal;font-style:normal;font-weight:normal;text-anchor:end;" transform="rotate(-0, 317.667187, 143.723346)" x="317.667187" y="143.723346">8</text>
     </g>
    </g>
    <g id="ytick_15">
     <g id="line2d_34">
      <g>
       <use style="stroke:#000000;stroke-width:0.8;" x="324.667187" xlink:href="#m82278324de" y="79.703206"/>
      </g>
     </g>
     <g id="text_25">
      <text style="font-family:Arial;font-size:10px;font-stretch:normal;font-style:normal;font-weight:normal;text-anchor:end;" transform="rotate(-0, 317.667187, 83.282112)" x="317.667187" y="83.282112">10</text>
     </g>
    </g>
    <g id="text_26">
     <text style="font-family:Arial;font-size:10px;font-stretch:normal;font-style:normal;font-weight:normal;text-anchor:middle;" transform="rotate(-90, 300.557812, 207.385312)" x="300.557812" y="207.385312">Count</text>
    </g>
   </g>
   <g id="line2d_35">
    <path clip-path="url(#p8025b9161c)" d="M 345.145952 247.570158 
L 349.35852 215.035183 
L 354.624231 174.19561 
L 357.783657 151.549585 
L 359.889942 138.005783 
L 361.996226 126.1486 
L 364.10251 116.327644 
L 365.155652 112.275413 
L 366.208794 108.836601 
L 367.261936 106.035112 
L 368.315079 103.888498 
L 369.368221 102.407505 
L 370.421363 101.595761 
L 371.474505 101.449623 
L 372.527647 101.958208 
L 373.580789 103.103589 
L 374.633931 104.861169 
L 375.687074 107.200218 
L 376.740216 110.084559 
L 377.793358 113.473378 
L 379.899642 121.583539 
L 382.005926 131.147537 
L 384.112211 141.77065 
L 387.271637 158.879941 
L 394.643632 199.411165 
L 398.8562 220.974849 
L 402.015627 236.052732 
L 405.175053 250.135874 
L 408.33448 263.14281 
L 411.493906 274.932157 
L 413.60019 282.027874 
L 415.706474 288.453408 
L 417.812759 294.170935 
L 419.919043 299.162283 
L 422.025327 303.434309 
L 424.131612 307.021713 
L 426.237896 309.987112 
L 428.34418 312.418583 
L 430.450464 314.425048 
L 432.556749 316.130039 
L 440.981886 322.497844 
L 443.08817 324.534276 
L 445.194454 326.901452 
L 447.300738 329.62802 
L 449.407023 332.712445 
L 451.513307 336.124451 
L 454.672733 341.729699 
L 465.204155 361.149452 
L 467.310439 364.522947 
L 469.416723 367.578485 
L 471.523007 370.286999 
L 473.629292 372.637436 
L 475.735576 374.634808 
L 477.84186 376.29732 
L 479.948144 377.65299 
L 482.054429 378.736171 
L 484.160713 379.58432 
L 486.266997 380.23523 
L 489.426424 380.919631 
L 492.58585 381.347095 
L 496.798419 381.660836 
L 503.117271 381.845561 
L 515.754977 381.906802 
L 554.721236 381.909375 
L 554.721236 381.909375 
" style="fill:none;stroke:#2d1e3e;stroke-linecap:square;stroke-width:1.5;"/>
   </g>
   <g id="line2d_36">
    <path clip-path="url(#p8025b9161c)" d="M 345.145952 318.037793 
L 350.411662 311.110476 
L 354.624231 305.977056 
L 357.783657 302.43675 
L 360.943084 299.204871 
L 364.10251 296.312139 
L 367.261936 293.781055 
L 370.421363 291.625415 
L 373.580789 289.85017 
L 375.687074 288.876535 
L 377.793358 288.067406 
L 379.899642 287.418204 
L 383.059068 286.73099 
L 386.218495 286.365241 
L 389.377921 286.291573 
L 392.537348 286.477477 
L 395.696774 286.888855 
L 398.8562 287.491511 
L 403.068769 288.536095 
L 408.33448 290.131922 
L 414.653332 292.330764 
L 422.025327 295.14079 
L 430.450464 298.603769 
L 436.769317 301.41159 
L 443.08817 304.460107 
L 448.353881 307.219356 
L 454.672733 310.809551 
L 460.991586 314.681797 
L 469.416723 320.157645 
L 484.160713 329.803166 
L 490.479566 333.621079 
L 495.745276 336.546049 
L 501.010987 339.203453 
L 506.276698 341.58657 
L 511.542408 343.71279 
L 517.861261 345.980846 
L 525.233256 348.360805 
L 544.189814 354.351758 
L 551.561809 356.992777 
L 554.721236 358.199902 
L 554.721236 358.199902 
" style="fill:none;stroke:#edd1cb;stroke-linecap:square;stroke-width:1.5;"/>
   </g>
   <g id="patch_22">
    <path d="M 324.667187 381.909375 
L 324.667187 79.703206 
" style="fill:none;stroke:#000000;stroke-linecap:square;stroke-linejoin:miter;stroke-width:0.8;"/>
   </g>
   <g id="patch_23">
    <path d="M 345.145952 391.909375 
L 554.721236 391.909375 
" style="fill:none;stroke:#000000;stroke-linecap:square;stroke-linejoin:miter;stroke-width:0.8;"/>
   </g>
   <g id="legend_1">
    <g id="patch_24">
     <path d="M 503.95625 83.297188 
L 558.2 83.297188 
Q 560.2 83.297188 560.2 81.297188 
L 560.2 39.86125 
Q 560.2 37.86125 558.2 37.86125 
L 503.95625 37.86125 
Q 501.95625 37.86125 501.95625 39.86125 
L 501.95625 81.297188 
Q 501.95625 83.297188 503.95625 83.297188 
z
" style="fill:#ffffff;opacity:0.8;stroke:#cccccc;stroke-linejoin:miter;"/>
    </g>
    <g id="text_27">
     <text style="font-family:Arial;font-size:10px;font-stretch:normal;font-style:normal;font-weight:normal;text-anchor:start;" transform="rotate(-0, 520.973437, 49.019063)" x="520.973437" y="49.019063">Year</text>
    </g>
    <g id="patch_25">
     <path d="M 505.95625 63.164375 
L 525.95625 63.164375 
L 525.95625 56.164375 
L 505.95625 56.164375 
z
" style="fill:#edd1cb;fill-opacity:0.5;stroke:#000000;stroke-linejoin:miter;"/>
    </g>
    <g id="text_28">
     <text style="font-family:Arial;font-size:10px;font-stretch:normal;font-style:normal;font-weight:normal;text-anchor:start;" transform="rotate(-0, 533.95625, 63.164375)" x="533.95625" y="63.164375">2017</text>
    </g>
    <g id="patch_26">
     <path d="M 505.95625 77.309688 
L 525.95625 77.309688 
L 525.95625 70.309688 
L 505.95625 70.309688 
z
" style="fill:#2d1e3e;fill-opacity:0.5;stroke:#000000;stroke-linejoin:miter;"/>
    </g>
    <g id="text_29">
     <text style="font-family:Arial;font-size:10px;font-stretch:normal;font-style:normal;font-weight:normal;text-anchor:start;" transform="rotate(-0, 533.95625, 77.309688)" x="533.95625" y="77.309688">2018</text>
    </g>
   </g>
  </g>
  <g id="text_30">
   <text style="font-family:Arial;font-size:12px;font-stretch:normal;font-style:normal;font-weight:normal;text-anchor:middle;" transform="rotate(-0, 288, 17.375625)" x="288" y="17.375625">How many years of software development experience for South Africa (without 95 percentile)</text>
  </g>
 </g>
 <defs>
  <clipPath id="p1bc3246ace">
   <rect height="349.048125" width="230.532813" x="52.067188" y="32.86125"/>
  </clipPath>
  <clipPath id="p8025b9161c">
   <rect height="349.048125" width="230.532812" x="334.667187" y="32.86125"/>
  </clipPath>
 </defs>
</svg>
