<?xml version="1.0" encoding="utf-8" standalone="no"?>
<!DOCTYPE svg PUBLIC "-//W3C//DTD SVG 1.1//EN"
  "http://www.w3.org/Graphics/SVG/1.1/DTD/svg11.dtd">
<svg xmlns:xlink="http://www.w3.org/1999/xlink" width="576pt" height="432pt" viewBox="0 0 576 432" xmlns="http://www.w3.org/2000/svg" version="1.1">
 <metadata>
  <rdf:RDF xmlns:dc="http://purl.org/dc/elements/1.1/" xmlns:cc="http://creativecommons.org/ns#" xmlns:rdf="http://www.w3.org/1999/02/22-rdf-syntax-ns#">
   <cc:Work>
    <dc:type rdf:resource="http://purl.org/dc/dcmitype/StillImage"/>
    <dc:date>2022-03-18T10:10:03.336996</dc:date>
    <dc:format>image/svg+xml</dc:format>
    <dc:creator>
     <cc:Agent>
      <dc:title>Matplotlib v3.5.1, https://matplotlib.org/</dc:title>
     </cc:Agent>
    </dc:creator>
   </cc:Work>
  </rdf:RDF>
 </metadata>
 <defs>
  <style type="text/css">*{stroke-linejoin: round; stroke-linecap: butt}</style>
 </defs>
 <g id="figure_1">
  <g id="patch_1">
   <path d="M 0 432 
L 576 432 
L 576 0 
L 0 0 
z
" style="fill: #ffffff"/>
  </g>
  <g id="axes_1">
   <g id="patch_2">
    <path d="M 52.179688 381.684375 
L 282.6 381.684375 
L 282.6 32.92125 
L 52.179688 32.92125 
z
" style="fill: #ffffff"/>
   </g>
   <g id="patch_3">
    <path d="M 63.700703 302.420028 
L 155.868828 302.420028 
L 155.868828 175.597074 
L 63.700703 175.597074 
L 63.700703 302.420028 
z
" clip-path="url(#pf774788d5c)" style="fill: #3274a1; stroke: #3f3f3f; stroke-width: 1.5; stroke-linejoin: miter"/>
   </g>
   <g id="patch_4">
    <path d="M 178.910859 327.784619 
L 271.078984 327.784619 
L 271.078984 277.055437 
L 178.910859 277.055437 
L 178.910859 327.784619 
z
" clip-path="url(#pf774788d5c)" style="fill: #e1812c; stroke: #3f3f3f; stroke-width: 1.5; stroke-linejoin: miter"/>
   </g>
   <g id="matplotlib.axis_1">
    <g id="xtick_1">
     <g id="line2d_1">
      <defs>
       <path id="m4c99cd72f3" d="M 0 0 
L 0 3.5 
" style="stroke: #000000; stroke-width: 0.8"/>
      </defs>
      <g>
       <use xlink:href="#m4c99cd72f3" x="109.784766" y="391.684375" style="stroke: #000000; stroke-width: 0.8"/>
      </g>
     </g>
     <g id="text_1">
      <text style="font: 10px 'sans-serif'; text-anchor: middle" x="109.784766" y="405.857813" transform="rotate(-0, 109.784766, 405.857813)">2018</text>
     </g>
    </g>
    <g id="xtick_2">
     <g id="line2d_2">
      <g>
       <use xlink:href="#m4c99cd72f3" x="224.994922" y="391.684375" style="stroke: #000000; stroke-width: 0.8"/>
      </g>
     </g>
     <g id="text_2">
      <text style="font: 10px 'sans-serif'; text-anchor: middle" x="224.994922" y="405.857813" transform="rotate(-0, 224.994922, 405.857813)">2022</text>
     </g>
    </g>
    <g id="text_3">
     <text style="font: 10px 'sans-serif'; text-anchor: middle" x="167.389844" y="419.115625" transform="rotate(-0, 167.389844, 419.115625)">Year</text>
    </g>
   </g>
   <g id="matplotlib.axis_2">
    <g id="ytick_1">
     <g id="line2d_3">
      <defs>
       <path id="m8e343aef83" d="M 0 0 
L -3.5 0 
" style="stroke: #000000; stroke-width: 0.8"/>
      </defs>
      <g>
       <use xlink:href="#m8e343aef83" x="42.179688" y="365.831506" style="stroke: #000000; stroke-width: 0.8"/>
      </g>
     </g>
     <g id="text_4">
      <text style="font: 10px 'sans-serif'; text-anchor: end" x="35.179688" y="369.418224" transform="rotate(-0, 35.179688, 369.418224)">0</text>
     </g>
    </g>
    <g id="ytick_2">
     <g id="line2d_4">
      <g>
       <use xlink:href="#m8e343aef83" x="42.179688" y="302.420028" style="stroke: #000000; stroke-width: 0.8"/>
      </g>
     </g>
     <g id="text_5">
      <text style="font: 10px 'sans-serif'; text-anchor: end" x="35.179688" y="306.006747" transform="rotate(-0, 35.179688, 306.006747)">5</text>
     </g>
    </g>
    <g id="ytick_3">
     <g id="line2d_5">
      <g>
       <use xlink:href="#m8e343aef83" x="42.179688" y="239.008551" style="stroke: #000000; stroke-width: 0.8"/>
      </g>
     </g>
     <g id="text_6">
      <text style="font: 10px 'sans-serif'; text-anchor: end" x="35.179688" y="242.59527" transform="rotate(-0, 35.179688, 242.59527)">10</text>
     </g>
    </g>
    <g id="ytick_4">
     <g id="line2d_6">
      <g>
       <use xlink:href="#m8e343aef83" x="42.179688" y="175.597074" style="stroke: #000000; stroke-width: 0.8"/>
      </g>
     </g>
     <g id="text_7">
      <text style="font: 10px 'sans-serif'; text-anchor: end" x="35.179688" y="179.183793" transform="rotate(-0, 35.179688, 179.183793)">15</text>
     </g>
    </g>
    <g id="ytick_5">
     <g id="line2d_7">
      <g>
       <use xlink:href="#m8e343aef83" x="42.179688" y="112.185597" style="stroke: #000000; stroke-width: 0.8"/>
      </g>
     </g>
     <g id="text_8">
      <text style="font: 10px 'sans-serif'; text-anchor: end" x="35.179688" y="115.772315" transform="rotate(-0, 35.179688, 115.772315)">20</text>
     </g>
    </g>
    <g id="ytick_6">
     <g id="line2d_8">
      <g>
       <use xlink:href="#m8e343aef83" x="42.179688" y="48.774119" style="stroke: #000000; stroke-width: 0.8"/>
      </g>
     </g>
     <g id="text_9">
      <text style="font: 10px 'sans-serif'; text-anchor: end" x="35.179688" y="52.360838" transform="rotate(-0, 35.179688, 52.360838)">25</text>
     </g>
    </g>
    <g id="text_10">
     <text style="font: 10px 'sans-serif'; text-anchor: middle" x="17.973438" y="207.302813" transform="rotate(-90, 17.973438, 207.302813)">Value</text>
    </g>
   </g>
   <g id="line2d_9">
    <path d="M 109.784766 302.420028 
L 109.784766 340.466915 
" clip-path="url(#pf774788d5c)" style="fill: none; stroke: #3f3f3f; stroke-width: 1.5; stroke-linecap: square"/>
   </g>
   <g id="line2d_10">
    <path d="M 109.784766 175.597074 
L 109.784766 48.774119 
" clip-path="url(#pf774788d5c)" style="fill: none; stroke: #3f3f3f; stroke-width: 1.5; stroke-linecap: square"/>
   </g>
   <g id="line2d_11">
    <path d="M 86.742734 340.466915 
L 132.826797 340.466915 
" clip-path="url(#pf774788d5c)" style="fill: none; stroke: #3f3f3f; stroke-width: 1.5; stroke-linecap: square"/>
   </g>
   <g id="line2d_12">
    <path d="M 86.742734 48.774119 
L 132.826797 48.774119 
" clip-path="url(#pf774788d5c)" style="fill: none; stroke: #3f3f3f; stroke-width: 1.5; stroke-linecap: square"/>
   </g>
   <g id="line2d_13"/>
   <g id="line2d_14">
    <path d="M 224.994922 327.784619 
L 224.994922 365.831506 
" clip-path="url(#pf774788d5c)" style="fill: none; stroke: #3f3f3f; stroke-width: 1.5; stroke-linecap: square"/>
   </g>
   <g id="line2d_15">
    <path d="M 224.994922 277.055437 
L 224.994922 200.961665 
" clip-path="url(#pf774788d5c)" style="fill: none; stroke: #3f3f3f; stroke-width: 1.5; stroke-linecap: square"/>
   </g>
   <g id="line2d_16">
    <path d="M 201.952891 365.831506 
L 248.036953 365.831506 
" clip-path="url(#pf774788d5c)" style="fill: none; stroke: #3f3f3f; stroke-width: 1.5; stroke-linecap: square"/>
   </g>
   <g id="line2d_17">
    <path d="M 201.952891 200.961665 
L 248.036953 200.961665 
" clip-path="url(#pf774788d5c)" style="fill: none; stroke: #3f3f3f; stroke-width: 1.5; stroke-linecap: square"/>
   </g>
   <g id="line2d_18">
    <defs>
     <path id="m1b309634d9" d="M -0 3.535534 
L 2.12132 0 
L -0 -3.535534 
L -2.12132 -0 
z
" style="stroke: #3f3f3f; stroke-linejoin: miter"/>
    </defs>
    <g clip-path="url(#pf774788d5c)">
     <use xlink:href="#m1b309634d9" x="224.994922" y="188.279369" style="fill: #3f3f3f; stroke: #3f3f3f; stroke-linejoin: miter"/>
    </g>
   </g>
   <g id="line2d_19">
    <path d="M 63.700703 239.008551 
L 155.868828 239.008551 
" clip-path="url(#pf774788d5c)" style="fill: none; stroke: #3f3f3f; stroke-width: 1.5; stroke-linecap: square"/>
   </g>
   <g id="line2d_20">
    <path d="M 178.910859 302.420028 
L 271.078984 302.420028 
" clip-path="url(#pf774788d5c)" style="fill: none; stroke: #3f3f3f; stroke-width: 1.5; stroke-linecap: square"/>
   </g>
   <g id="patch_5">
    <path d="M 42.179688 365.831506 
L 42.179688 48.774119 
" style="fill: none; stroke: #000000; stroke-width: 0.8; stroke-linejoin: miter; stroke-linecap: square"/>
   </g>
   <g id="patch_6">
    <path d="M 109.784766 391.684375 
L 224.994922 391.684375 
" style="fill: none; stroke: #000000; stroke-width: 0.8; stroke-linejoin: miter; stroke-linecap: square"/>
   </g>
   <g id="PathCollection_1">
    <defs>
     <path id="C0_0_77057b9605" d="M 0 2.5 
C 0.663008 2.5 1.29895 2.236584 1.767767 1.767767 
C 2.236584 1.29895 2.5 0.663008 2.5 -0 
C 2.5 -0.663008 2.236584 -1.29895 1.767767 -1.767767 
C 1.29895 -2.236584 0.663008 -2.5 0 -2.5 
C -0.663008 -2.5 -1.29895 -2.236584 -1.767767 -1.767767 
C -2.236584 -1.29895 -2.5 -0.663008 -2.5 0 
C -2.5 0.663008 -2.236584 1.29895 -1.767767 1.767767 
C -1.29895 2.236584 -0.663008 2.5 0 2.5 
z
"/>
    </defs>
    <g clip-path="url(#pf774788d5c)">
     <use xlink:href="#C0_0_77057b9605" x="109.784766" y="340.466915" style="fill: #808080; fill-opacity: 0.75"/>
    </g>
    <g clip-path="url(#pf774788d5c)">
     <use xlink:href="#C0_0_77057b9605" x="103.82295" y="340.466915" style="fill: #808080; fill-opacity: 0.75"/>
    </g>
    <g clip-path="url(#pf774788d5c)">
     <use xlink:href="#C0_0_77057b9605" x="115.746582" y="340.466915" style="fill: #808080; fill-opacity: 0.75"/>
    </g>
    <g clip-path="url(#pf774788d5c)">
     <use xlink:href="#C0_0_77057b9605" x="97.861134" y="340.466915" style="fill: #808080; fill-opacity: 0.75"/>
    </g>
    <g clip-path="url(#pf774788d5c)">
     <use xlink:href="#C0_0_77057b9605" x="109.784766" y="327.784619" style="fill: #808080; fill-opacity: 0.75"/>
    </g>
    <g clip-path="url(#pf774788d5c)">
     <use xlink:href="#C0_0_77057b9605" x="103.82295" y="327.784619" style="fill: #808080; fill-opacity: 0.75"/>
    </g>
    <g clip-path="url(#pf774788d5c)">
     <use xlink:href="#C0_0_77057b9605" x="115.746582" y="327.784619" style="fill: #808080; fill-opacity: 0.75"/>
    </g>
    <g clip-path="url(#pf774788d5c)">
     <use xlink:href="#C0_0_77057b9605" x="109.784766" y="321.443472" style="fill: #808080; fill-opacity: 0.75"/>
    </g>
    <g clip-path="url(#pf774788d5c)">
     <use xlink:href="#C0_0_77057b9605" x="109.784766" y="315.102324" style="fill: #808080; fill-opacity: 0.75"/>
    </g>
    <g clip-path="url(#pf774788d5c)">
     <use xlink:href="#C0_0_77057b9605" x="103.82295" y="315.102324" style="fill: #808080; fill-opacity: 0.75"/>
    </g>
    <g clip-path="url(#pf774788d5c)">
     <use xlink:href="#C0_0_77057b9605" x="115.746582" y="315.102324" style="fill: #808080; fill-opacity: 0.75"/>
    </g>
    <g clip-path="url(#pf774788d5c)">
     <use xlink:href="#C0_0_77057b9605" x="109.784766" y="302.420028" style="fill: #808080; fill-opacity: 0.75"/>
    </g>
    <g clip-path="url(#pf774788d5c)">
     <use xlink:href="#C0_0_77057b9605" x="103.82295" y="302.420028" style="fill: #808080; fill-opacity: 0.75"/>
    </g>
    <g clip-path="url(#pf774788d5c)">
     <use xlink:href="#C0_0_77057b9605" x="115.746582" y="302.420028" style="fill: #808080; fill-opacity: 0.75"/>
    </g>
    <g clip-path="url(#pf774788d5c)">
     <use xlink:href="#C0_0_77057b9605" x="109.784766" y="289.737733" style="fill: #808080; fill-opacity: 0.75"/>
    </g>
    <g clip-path="url(#pf774788d5c)">
     <use xlink:href="#C0_0_77057b9605" x="103.82295" y="289.737733" style="fill: #808080; fill-opacity: 0.75"/>
    </g>
    <g clip-path="url(#pf774788d5c)">
     <use xlink:href="#C0_0_77057b9605" x="115.746582" y="289.737733" style="fill: #808080; fill-opacity: 0.75"/>
    </g>
    <g clip-path="url(#pf774788d5c)">
     <use xlink:href="#C0_0_77057b9605" x="109.784766" y="277.055438" style="fill: #808080; fill-opacity: 0.75"/>
    </g>
    <g clip-path="url(#pf774788d5c)">
     <use xlink:href="#C0_0_77057b9605" x="103.82295" y="277.055438" style="fill: #808080; fill-opacity: 0.75"/>
    </g>
    <g clip-path="url(#pf774788d5c)">
     <use xlink:href="#C0_0_77057b9605" x="115.746582" y="277.055438" style="fill: #808080; fill-opacity: 0.75"/>
    </g>
    <g clip-path="url(#pf774788d5c)">
     <use xlink:href="#C0_0_77057b9605" x="97.861134" y="277.055438" style="fill: #808080; fill-opacity: 0.75"/>
    </g>
    <g clip-path="url(#pf774788d5c)">
     <use xlink:href="#C0_0_77057b9605" x="109.784766" y="264.373142" style="fill: #808080; fill-opacity: 0.75"/>
    </g>
    <g clip-path="url(#pf774788d5c)">
     <use xlink:href="#C0_0_77057b9605" x="103.82295" y="264.373142" style="fill: #808080; fill-opacity: 0.75"/>
    </g>
    <g clip-path="url(#pf774788d5c)">
     <use xlink:href="#C0_0_77057b9605" x="109.784766" y="239.008551" style="fill: #808080; fill-opacity: 0.75"/>
    </g>
    <g clip-path="url(#pf774788d5c)">
     <use xlink:href="#C0_0_77057b9605" x="103.82295" y="239.008551" style="fill: #808080; fill-opacity: 0.75"/>
    </g>
    <g clip-path="url(#pf774788d5c)">
     <use xlink:href="#C0_0_77057b9605" x="115.746582" y="239.008551" style="fill: #808080; fill-opacity: 0.75"/>
    </g>
    <g clip-path="url(#pf774788d5c)">
     <use xlink:href="#C0_0_77057b9605" x="97.861134" y="239.008551" style="fill: #808080; fill-opacity: 0.75"/>
    </g>
    <g clip-path="url(#pf774788d5c)">
     <use xlink:href="#C0_0_77057b9605" x="121.708397" y="239.008551" style="fill: #808080; fill-opacity: 0.75"/>
    </g>
    <g clip-path="url(#pf774788d5c)">
     <use xlink:href="#C0_0_77057b9605" x="91.899318" y="239.008551" style="fill: #808080; fill-opacity: 0.75"/>
    </g>
    <g clip-path="url(#pf774788d5c)">
     <use xlink:href="#C0_0_77057b9605" x="109.784766" y="213.64396" style="fill: #808080; fill-opacity: 0.75"/>
    </g>
    <g clip-path="url(#pf774788d5c)">
     <use xlink:href="#C0_0_77057b9605" x="109.784766" y="175.597074" style="fill: #808080; fill-opacity: 0.75"/>
    </g>
    <g clip-path="url(#pf774788d5c)">
     <use xlink:href="#C0_0_77057b9605" x="103.82295" y="175.597074" style="fill: #808080; fill-opacity: 0.75"/>
    </g>
    <g clip-path="url(#pf774788d5c)">
     <use xlink:href="#C0_0_77057b9605" x="115.746582" y="175.597074" style="fill: #808080; fill-opacity: 0.75"/>
    </g>
    <g clip-path="url(#pf774788d5c)">
     <use xlink:href="#C0_0_77057b9605" x="97.861134" y="175.597074" style="fill: #808080; fill-opacity: 0.75"/>
    </g>
    <g clip-path="url(#pf774788d5c)">
     <use xlink:href="#C0_0_77057b9605" x="121.708397" y="175.597074" style="fill: #808080; fill-opacity: 0.75"/>
    </g>
    <g clip-path="url(#pf774788d5c)">
     <use xlink:href="#C0_0_77057b9605" x="91.899318" y="175.597074" style="fill: #808080; fill-opacity: 0.75"/>
    </g>
    <g clip-path="url(#pf774788d5c)">
     <use xlink:href="#C0_0_77057b9605" x="127.670213" y="175.597074" style="fill: #808080; fill-opacity: 0.75"/>
    </g>
    <g clip-path="url(#pf774788d5c)">
     <use xlink:href="#C0_0_77057b9605" x="85.937502" y="175.597074" style="fill: #808080; fill-opacity: 0.75"/>
    </g>
    <g clip-path="url(#pf774788d5c)">
     <use xlink:href="#C0_0_77057b9605" x="133.632029" y="175.597074" style="fill: #808080; fill-opacity: 0.75"/>
    </g>
    <g clip-path="url(#pf774788d5c)">
     <use xlink:href="#C0_0_77057b9605" x="109.784766" y="150.232483" style="fill: #808080; fill-opacity: 0.75"/>
    </g>
    <g clip-path="url(#pf774788d5c)">
     <use xlink:href="#C0_0_77057b9605" x="109.784766" y="137.550187" style="fill: #808080; fill-opacity: 0.75"/>
    </g>
    <g clip-path="url(#pf774788d5c)">
     <use xlink:href="#C0_0_77057b9605" x="109.784766" y="112.185597" style="fill: #808080; fill-opacity: 0.75"/>
    </g>
    <g clip-path="url(#pf774788d5c)">
     <use xlink:href="#C0_0_77057b9605" x="103.82295" y="112.185597" style="fill: #808080; fill-opacity: 0.75"/>
    </g>
    <g clip-path="url(#pf774788d5c)">
     <use xlink:href="#C0_0_77057b9605" x="115.746582" y="112.185597" style="fill: #808080; fill-opacity: 0.75"/>
    </g>
    <g clip-path="url(#pf774788d5c)">
     <use xlink:href="#C0_0_77057b9605" x="97.861134" y="112.185597" style="fill: #808080; fill-opacity: 0.75"/>
    </g>
    <g clip-path="url(#pf774788d5c)">
     <use xlink:href="#C0_0_77057b9605" x="121.708397" y="112.185597" style="fill: #808080; fill-opacity: 0.75"/>
    </g>
    <g clip-path="url(#pf774788d5c)">
     <use xlink:href="#C0_0_77057b9605" x="91.899318" y="112.185597" style="fill: #808080; fill-opacity: 0.75"/>
    </g>
    <g clip-path="url(#pf774788d5c)">
     <use xlink:href="#C0_0_77057b9605" x="127.670213" y="112.185597" style="fill: #808080; fill-opacity: 0.75"/>
    </g>
    <g clip-path="url(#pf774788d5c)">
     <use xlink:href="#C0_0_77057b9605" x="85.937502" y="112.185597" style="fill: #808080; fill-opacity: 0.75"/>
    </g>
    <g clip-path="url(#pf774788d5c)">
     <use xlink:href="#C0_0_77057b9605" x="109.784766" y="86.821006" style="fill: #808080; fill-opacity: 0.75"/>
    </g>
    <g clip-path="url(#pf774788d5c)">
     <use xlink:href="#C0_0_77057b9605" x="109.784766" y="48.774119" style="fill: #808080; fill-opacity: 0.75"/>
    </g>
   </g>
   <g id="PathCollection_2">
    <defs>
     <path id="C1_0_77057b9605" d="M 0 2.5 
C 0.663008 2.5 1.29895 2.236584 1.767767 1.767767 
C 2.236584 1.29895 2.5 0.663008 2.5 -0 
C 2.5 -0.663008 2.236584 -1.29895 1.767767 -1.767767 
C 1.29895 -2.236584 0.663008 -2.5 0 -2.5 
C -0.663008 -2.5 -1.29895 -2.236584 -1.767767 -1.767767 
C -2.236584 -1.29895 -2.5 -0.663008 -2.5 0 
C -2.5 0.663008 -2.236584 1.29895 -1.767767 1.767767 
C -1.29895 2.236584 -0.663008 2.5 0 2.5 
z
"/>
    </defs>
    <g clip-path="url(#pf774788d5c)">
     <use xlink:href="#C1_0_77057b9605" x="224.994922" y="365.831506" style="fill: #808080; fill-opacity: 0.75"/>
    </g>
    <g clip-path="url(#pf774788d5c)">
     <use xlink:href="#C1_0_77057b9605" x="219.033106" y="365.831506" style="fill: #808080; fill-opacity: 0.75"/>
    </g>
    <g clip-path="url(#pf774788d5c)">
     <use xlink:href="#C1_0_77057b9605" x="224.994922" y="353.14921" style="fill: #808080; fill-opacity: 0.75"/>
    </g>
    <g clip-path="url(#pf774788d5c)">
     <use xlink:href="#C1_0_77057b9605" x="219.033106" y="353.14921" style="fill: #808080; fill-opacity: 0.75"/>
    </g>
    <g clip-path="url(#pf774788d5c)">
     <use xlink:href="#C1_0_77057b9605" x="224.994922" y="340.466915" style="fill: #808080; fill-opacity: 0.75"/>
    </g>
    <g clip-path="url(#pf774788d5c)">
     <use xlink:href="#C1_0_77057b9605" x="219.033106" y="340.466915" style="fill: #808080; fill-opacity: 0.75"/>
    </g>
    <g clip-path="url(#pf774788d5c)">
     <use xlink:href="#C1_0_77057b9605" x="230.956738" y="340.466915" style="fill: #808080; fill-opacity: 0.75"/>
    </g>
    <g clip-path="url(#pf774788d5c)">
     <use xlink:href="#C1_0_77057b9605" x="213.07129" y="340.466915" style="fill: #808080; fill-opacity: 0.75"/>
    </g>
    <g clip-path="url(#pf774788d5c)">
     <use xlink:href="#C1_0_77057b9605" x="236.918554" y="340.466915" style="fill: #808080; fill-opacity: 0.75"/>
    </g>
    <g clip-path="url(#pf774788d5c)">
     <use xlink:href="#C1_0_77057b9605" x="224.994922" y="327.784619" style="fill: #808080; fill-opacity: 0.75"/>
    </g>
    <g clip-path="url(#pf774788d5c)">
     <use xlink:href="#C1_0_77057b9605" x="219.033106" y="327.784619" style="fill: #808080; fill-opacity: 0.75"/>
    </g>
    <g clip-path="url(#pf774788d5c)">
     <use xlink:href="#C1_0_77057b9605" x="230.956738" y="327.784619" style="fill: #808080; fill-opacity: 0.75"/>
    </g>
    <g clip-path="url(#pf774788d5c)">
     <use xlink:href="#C1_0_77057b9605" x="213.07129" y="327.784619" style="fill: #808080; fill-opacity: 0.75"/>
    </g>
    <g clip-path="url(#pf774788d5c)">
     <use xlink:href="#C1_0_77057b9605" x="224.994922" y="315.102324" style="fill: #808080; fill-opacity: 0.75"/>
    </g>
    <g clip-path="url(#pf774788d5c)">
     <use xlink:href="#C1_0_77057b9605" x="219.033106" y="315.102324" style="fill: #808080; fill-opacity: 0.75"/>
    </g>
    <g clip-path="url(#pf774788d5c)">
     <use xlink:href="#C1_0_77057b9605" x="230.956738" y="315.102324" style="fill: #808080; fill-opacity: 0.75"/>
    </g>
    <g clip-path="url(#pf774788d5c)">
     <use xlink:href="#C1_0_77057b9605" x="213.07129" y="315.102324" style="fill: #808080; fill-opacity: 0.75"/>
    </g>
    <g clip-path="url(#pf774788d5c)">
     <use xlink:href="#C1_0_77057b9605" x="224.994922" y="302.420028" style="fill: #808080; fill-opacity: 0.75"/>
    </g>
    <g clip-path="url(#pf774788d5c)">
     <use xlink:href="#C1_0_77057b9605" x="219.033106" y="302.420028" style="fill: #808080; fill-opacity: 0.75"/>
    </g>
    <g clip-path="url(#pf774788d5c)">
     <use xlink:href="#C1_0_77057b9605" x="230.956738" y="302.420028" style="fill: #808080; fill-opacity: 0.75"/>
    </g>
    <g clip-path="url(#pf774788d5c)">
     <use xlink:href="#C1_0_77057b9605" x="213.07129" y="302.420028" style="fill: #808080; fill-opacity: 0.75"/>
    </g>
    <g clip-path="url(#pf774788d5c)">
     <use xlink:href="#C1_0_77057b9605" x="236.918554" y="302.420028" style="fill: #808080; fill-opacity: 0.75"/>
    </g>
    <g clip-path="url(#pf774788d5c)">
     <use xlink:href="#C1_0_77057b9605" x="224.994922" y="289.737733" style="fill: #808080; fill-opacity: 0.75"/>
    </g>
    <g clip-path="url(#pf774788d5c)">
     <use xlink:href="#C1_0_77057b9605" x="219.033106" y="289.737733" style="fill: #808080; fill-opacity: 0.75"/>
    </g>
    <g clip-path="url(#pf774788d5c)">
     <use xlink:href="#C1_0_77057b9605" x="230.956738" y="289.737733" style="fill: #808080; fill-opacity: 0.75"/>
    </g>
    <g clip-path="url(#pf774788d5c)">
     <use xlink:href="#C1_0_77057b9605" x="213.07129" y="289.737733" style="fill: #808080; fill-opacity: 0.75"/>
    </g>
    <g clip-path="url(#pf774788d5c)">
     <use xlink:href="#C1_0_77057b9605" x="224.994922" y="277.055438" style="fill: #808080; fill-opacity: 0.75"/>
    </g>
    <g clip-path="url(#pf774788d5c)">
     <use xlink:href="#C1_0_77057b9605" x="219.033106" y="277.055438" style="fill: #808080; fill-opacity: 0.75"/>
    </g>
    <g clip-path="url(#pf774788d5c)">
     <use xlink:href="#C1_0_77057b9605" x="230.956738" y="277.055438" style="fill: #808080; fill-opacity: 0.75"/>
    </g>
    <g clip-path="url(#pf774788d5c)">
     <use xlink:href="#C1_0_77057b9605" x="213.07129" y="277.055438" style="fill: #808080; fill-opacity: 0.75"/>
    </g>
    <g clip-path="url(#pf774788d5c)">
     <use xlink:href="#C1_0_77057b9605" x="236.918554" y="277.055438" style="fill: #808080; fill-opacity: 0.75"/>
    </g>
    <g clip-path="url(#pf774788d5c)">
     <use xlink:href="#C1_0_77057b9605" x="224.994922" y="239.008551" style="fill: #808080; fill-opacity: 0.75"/>
    </g>
    <g clip-path="url(#pf774788d5c)">
     <use xlink:href="#C1_0_77057b9605" x="219.033106" y="239.008551" style="fill: #808080; fill-opacity: 0.75"/>
    </g>
    <g clip-path="url(#pf774788d5c)">
     <use xlink:href="#C1_0_77057b9605" x="230.956738" y="239.008551" style="fill: #808080; fill-opacity: 0.75"/>
    </g>
    <g clip-path="url(#pf774788d5c)">
     <use xlink:href="#C1_0_77057b9605" x="213.07129" y="239.008551" style="fill: #808080; fill-opacity: 0.75"/>
    </g>
    <g clip-path="url(#pf774788d5c)">
     <use xlink:href="#C1_0_77057b9605" x="236.918554" y="239.008551" style="fill: #808080; fill-opacity: 0.75"/>
    </g>
    <g clip-path="url(#pf774788d5c)">
     <use xlink:href="#C1_0_77057b9605" x="207.109474" y="239.008551" style="fill: #808080; fill-opacity: 0.75"/>
    </g>
    <g clip-path="url(#pf774788d5c)">
     <use xlink:href="#C1_0_77057b9605" x="224.994922" y="213.64396" style="fill: #808080; fill-opacity: 0.75"/>
    </g>
    <g clip-path="url(#pf774788d5c)">
     <use xlink:href="#C1_0_77057b9605" x="224.994922" y="200.961665" style="fill: #808080; fill-opacity: 0.75"/>
    </g>
    <g clip-path="url(#pf774788d5c)">
     <use xlink:href="#C1_0_77057b9605" x="219.033106" y="200.961665" style="fill: #808080; fill-opacity: 0.75"/>
    </g>
    <g clip-path="url(#pf774788d5c)">
     <use xlink:href="#C1_0_77057b9605" x="224.994922" y="188.279369" style="fill: #808080; fill-opacity: 0.75"/>
    </g>
   </g>
  </g>
  <g id="axes_2">
   <g id="patch_7">
    <path d="M 334.779687 381.684375 
L 565.2 381.684375 
L 565.2 32.92125 
L 334.779687 32.92125 
z
" style="fill: #ffffff"/>
   </g>
   <g id="patch_8">
    <path d="M 358.345401 381.684375 
L 371.437464 381.684375 
L 371.437464 49.529018 
L 358.345401 49.529018 
z
" clip-path="url(#pec81f2675a)" style="fill: #2d1e3e; fill-opacity: 0.5; stroke: #000000; stroke-linejoin: miter"/>
   </g>
   <g id="patch_9">
    <path d="M 384.529528 381.684375 
L 397.621591 381.684375 
L 397.621591 49.529018 
L 384.529528 49.529018 
z
" clip-path="url(#pec81f2675a)" style="fill: #2d1e3e; fill-opacity: 0.5; stroke: #000000; stroke-linejoin: miter"/>
   </g>
   <g id="patch_10">
    <path d="M 410.713654 381.684375 
L 423.805717 381.684375 
L 423.805717 253.932315 
L 410.713654 253.932315 
z
" clip-path="url(#pec81f2675a)" style="fill: #2d1e3e; fill-opacity: 0.5; stroke: #000000; stroke-linejoin: miter"/>
   </g>
   <g id="patch_11">
    <path d="M 436.897781 381.684375 
L 449.989844 381.684375 
L 449.989844 202.83149 
L 436.897781 202.83149 
z
" clip-path="url(#pec81f2675a)" style="fill: #2d1e3e; fill-opacity: 0.5; stroke: #000000; stroke-linejoin: miter"/>
   </g>
   <g id="patch_12">
    <path d="M 463.081907 381.684375 
L 476.17397 381.684375 
L 476.17397 305.033139 
L 463.081907 305.033139 
z
" clip-path="url(#pec81f2675a)" style="fill: #2d1e3e; fill-opacity: 0.5; stroke: #000000; stroke-linejoin: miter"/>
   </g>
   <g id="patch_13">
    <path d="M 489.266033 381.684375 
L 502.358097 381.684375 
L 502.358097 381.684375 
L 489.266033 381.684375 
z
" clip-path="url(#pec81f2675a)" style="fill: #2d1e3e; fill-opacity: 0.5; stroke: #000000; stroke-linejoin: miter"/>
   </g>
   <g id="patch_14">
    <path d="M 515.45016 381.684375 
L 528.542223 381.684375 
L 528.542223 381.684375 
L 515.45016 381.684375 
z
" clip-path="url(#pec81f2675a)" style="fill: #2d1e3e; fill-opacity: 0.5; stroke: #000000; stroke-linejoin: miter"/>
   </g>
   <g id="patch_15">
    <path d="M 541.634286 381.684375 
L 554.726349 381.684375 
L 554.726349 381.684375 
L 541.634286 381.684375 
z
" clip-path="url(#pec81f2675a)" style="fill: #2d1e3e; fill-opacity: 0.5; stroke: #000000; stroke-linejoin: miter"/>
   </g>
   <g id="patch_16">
    <path d="M 345.253338 381.684375 
L 358.345401 381.684375 
L 358.345401 202.83149 
L 345.253338 202.83149 
z
" clip-path="url(#pec81f2675a)" style="fill: #edd1cb; fill-opacity: 0.5; stroke: #000000; stroke-linejoin: miter"/>
   </g>
   <g id="patch_17">
    <path d="M 371.437464 381.684375 
L 384.529528 381.684375 
L 384.529528 126.180254 
L 371.437464 126.180254 
z
" clip-path="url(#pec81f2675a)" style="fill: #edd1cb; fill-opacity: 0.5; stroke: #000000; stroke-linejoin: miter"/>
   </g>
   <g id="patch_18">
    <path d="M 397.621591 381.684375 
L 410.713654 381.684375 
L 410.713654 228.381902 
L 397.621591 228.381902 
z
" clip-path="url(#pec81f2675a)" style="fill: #edd1cb; fill-opacity: 0.5; stroke: #000000; stroke-linejoin: miter"/>
   </g>
   <g id="patch_19">
    <path d="M 423.805717 381.684375 
L 436.897781 381.684375 
L 436.897781 202.83149 
L 423.805717 202.83149 
z
" clip-path="url(#pec81f2675a)" style="fill: #edd1cb; fill-opacity: 0.5; stroke: #000000; stroke-linejoin: miter"/>
   </g>
   <g id="patch_20">
    <path d="M 449.989844 381.684375 
L 463.081907 381.684375 
L 463.081907 151.730666 
L 449.989844 151.730666 
z
" clip-path="url(#pec81f2675a)" style="fill: #edd1cb; fill-opacity: 0.5; stroke: #000000; stroke-linejoin: miter"/>
   </g>
   <g id="patch_21">
    <path d="M 476.17397 381.684375 
L 489.266033 381.684375 
L 489.266033 330.583551 
L 476.17397 330.583551 
z
" clip-path="url(#pec81f2675a)" style="fill: #edd1cb; fill-opacity: 0.5; stroke: #000000; stroke-linejoin: miter"/>
   </g>
   <g id="patch_22">
    <path d="M 502.358097 381.684375 
L 515.45016 381.684375 
L 515.45016 177.281078 
L 502.358097 177.281078 
z
" clip-path="url(#pec81f2675a)" style="fill: #edd1cb; fill-opacity: 0.5; stroke: #000000; stroke-linejoin: miter"/>
   </g>
   <g id="patch_23">
    <path d="M 528.542223 381.684375 
L 541.634286 381.684375 
L 541.634286 330.583551 
L 528.542223 330.583551 
z
" clip-path="url(#pec81f2675a)" style="fill: #edd1cb; fill-opacity: 0.5; stroke: #000000; stroke-linejoin: miter"/>
   </g>
   <g id="matplotlib.axis_3">
    <g id="xtick_3">
     <g id="line2d_21">
      <g>
       <use xlink:href="#m4c99cd72f3" x="345.253338" y="391.684375" style="stroke: #000000; stroke-width: 0.8"/>
      </g>
     </g>
     <g id="text_11">
      <text style="font: 10px 'sans-serif'; text-anchor: middle" x="345.253338" y="405.857813" transform="rotate(-0, 345.253338, 405.857813)">0</text>
     </g>
    </g>
    <g id="xtick_4">
     <g id="line2d_22">
      <g>
       <use xlink:href="#m4c99cd72f3" x="387.14794" y="391.684375" style="stroke: #000000; stroke-width: 0.8"/>
      </g>
     </g>
     <g id="text_12">
      <text style="font: 10px 'sans-serif'; text-anchor: middle" x="387.14794" y="405.857813" transform="rotate(-0, 387.14794, 405.857813)">5</text>
     </g>
    </g>
    <g id="xtick_5">
     <g id="line2d_23">
      <g>
       <use xlink:href="#m4c99cd72f3" x="429.042543" y="391.684375" style="stroke: #000000; stroke-width: 0.8"/>
      </g>
     </g>
     <g id="text_13">
      <text style="font: 10px 'sans-serif'; text-anchor: middle" x="429.042543" y="405.857813" transform="rotate(-0, 429.042543, 405.857813)">10</text>
     </g>
    </g>
    <g id="xtick_6">
     <g id="line2d_24">
      <g>
       <use xlink:href="#m4c99cd72f3" x="470.937145" y="391.684375" style="stroke: #000000; stroke-width: 0.8"/>
      </g>
     </g>
     <g id="text_14">
      <text style="font: 10px 'sans-serif'; text-anchor: middle" x="470.937145" y="405.857813" transform="rotate(-0, 470.937145, 405.857813)">15</text>
     </g>
    </g>
    <g id="xtick_7">
     <g id="line2d_25">
      <g>
       <use xlink:href="#m4c99cd72f3" x="512.831747" y="391.684375" style="stroke: #000000; stroke-width: 0.8"/>
      </g>
     </g>
     <g id="text_15">
      <text style="font: 10px 'sans-serif'; text-anchor: middle" x="512.831747" y="405.857813" transform="rotate(-0, 512.831747, 405.857813)">20</text>
     </g>
    </g>
    <g id="xtick_8">
     <g id="line2d_26">
      <g>
       <use xlink:href="#m4c99cd72f3" x="554.726349" y="391.684375" style="stroke: #000000; stroke-width: 0.8"/>
      </g>
     </g>
     <g id="text_16">
      <text style="font: 10px 'sans-serif'; text-anchor: middle" x="554.726349" y="405.857813" transform="rotate(-0, 554.726349, 405.857813)">25</text>
     </g>
    </g>
    <g id="text_17">
     <text style="font: 10px 'sans-serif'; text-anchor: middle" x="449.989844" y="419.115625" transform="rotate(-0, 449.989844, 419.115625)">Value</text>
    </g>
   </g>
   <g id="matplotlib.axis_4">
    <g id="ytick_7">
     <g id="line2d_27">
      <g>
       <use xlink:href="#m8e343aef83" x="324.779687" y="381.684375" style="stroke: #000000; stroke-width: 0.8"/>
      </g>
     </g>
     <g id="text_18">
      <text style="font: 10px 'sans-serif'; text-anchor: end" x="317.779687" y="385.271094" transform="rotate(-0, 317.779687, 385.271094)">0</text>
     </g>
    </g>
    <g id="ytick_8">
     <g id="line2d_28">
      <g>
       <use xlink:href="#m8e343aef83" x="324.779687" y="330.583551" style="stroke: #000000; stroke-width: 0.8"/>
      </g>
     </g>
     <g id="text_19">
      <text style="font: 10px 'sans-serif'; text-anchor: end" x="317.779687" y="334.17027" transform="rotate(-0, 317.779687, 334.17027)">2</text>
     </g>
    </g>
    <g id="ytick_9">
     <g id="line2d_29">
      <g>
       <use xlink:href="#m8e343aef83" x="324.779687" y="279.482727" style="stroke: #000000; stroke-width: 0.8"/>
      </g>
     </g>
     <g id="text_20">
      <text style="font: 10px 'sans-serif'; text-anchor: end" x="317.779687" y="283.069445" transform="rotate(-0, 317.779687, 283.069445)">4</text>
     </g>
    </g>
    <g id="ytick_10">
     <g id="line2d_30">
      <g>
       <use xlink:href="#m8e343aef83" x="324.779687" y="228.381902" style="stroke: #000000; stroke-width: 0.8"/>
      </g>
     </g>
     <g id="text_21">
      <text style="font: 10px 'sans-serif'; text-anchor: end" x="317.779687" y="231.968621" transform="rotate(-0, 317.779687, 231.968621)">6</text>
     </g>
    </g>
    <g id="ytick_11">
     <g id="line2d_31">
      <g>
       <use xlink:href="#m8e343aef83" x="324.779687" y="177.281078" style="stroke: #000000; stroke-width: 0.8"/>
      </g>
     </g>
     <g id="text_22">
      <text style="font: 10px 'sans-serif'; text-anchor: end" x="317.779687" y="180.867797" transform="rotate(-0, 317.779687, 180.867797)">8</text>
     </g>
    </g>
    <g id="ytick_12">
     <g id="line2d_32">
      <g>
       <use xlink:href="#m8e343aef83" x="324.779687" y="126.180254" style="stroke: #000000; stroke-width: 0.8"/>
      </g>
     </g>
     <g id="text_23">
      <text style="font: 10px 'sans-serif'; text-anchor: end" x="317.779687" y="129.766973" transform="rotate(-0, 317.779687, 129.766973)">10</text>
     </g>
    </g>
    <g id="ytick_13">
     <g id="line2d_33">
      <g>
       <use xlink:href="#m8e343aef83" x="324.779687" y="75.07943" style="stroke: #000000; stroke-width: 0.8"/>
      </g>
     </g>
     <g id="text_24">
      <text style="font: 10px 'sans-serif'; text-anchor: end" x="317.779687" y="78.666149" transform="rotate(-0, 317.779687, 78.666149)">12</text>
     </g>
    </g>
    <g id="text_25">
     <text style="font: 10px 'sans-serif'; text-anchor: middle" x="300.573437" y="207.302813" transform="rotate(-90, 300.573437, 207.302813)">Count</text>
    </g>
   </g>
   <g id="line2d_34">
    <path d="M 345.253338 242.787573 
L 351.569107 191.263299 
L 355.77962 157.759381 
L 358.937505 134.486598 
L 361.042761 120.236325 
L 363.148017 107.175988 
L 365.253274 95.412262 
L 367.35853 85.0131 
L 369.463787 76.013657 
L 371.569043 68.425191 
L 373.674299 62.245718 
L 374.726928 59.682814 
L 375.779556 57.470895 
L 376.832184 55.610601 
L 377.884812 54.103445 
L 378.93744 52.951916 
L 379.990069 52.159516 
L 381.042697 51.730698 
L 382.095325 51.670737 
L 383.147953 51.98551 
L 384.200581 52.681198 
L 385.25321 53.763918 
L 386.305838 55.239292 
L 387.358466 57.111964 
L 388.411094 59.385086 
L 389.463722 62.059784 
L 390.516351 65.134625 
L 391.568979 68.605109 
L 393.674235 76.696915 
L 395.779492 86.221815 
L 397.884748 96.995756 
L 401.042633 114.921789 
L 409.463658 164.675343 
L 411.568915 175.60038 
L 413.674171 185.372654 
L 415.779427 193.877331 
L 417.884684 201.110568 
L 419.98994 207.173929 
L 422.095197 212.256566 
L 424.200453 216.607753 
L 427.358337 222.366801 
L 431.56885 229.932268 
L 433.674107 234.079392 
L 435.779363 238.595216 
L 438.937248 246.081088 
L 442.095132 254.292534 
L 446.305645 265.982488 
L 451.568786 281.243128 
L 456.831927 297.091998 
L 463.147696 316.937402 
L 469.463465 336.671369 
L 472.62135 345.788513 
L 474.726606 351.375476 
L 476.831863 356.48254 
L 478.937119 361.058533 
L 481.042376 365.076111 
L 483.147632 368.531702 
L 485.252888 371.443214 
L 487.358145 373.846156 
L 489.463401 375.788854 
L 491.568658 377.327453 
L 493.673914 378.521248 
L 495.77917 379.428748 
L 497.884427 380.10468 
L 499.989683 380.597998 
L 503.147568 381.085722 
L 507.358081 381.430847 
L 512.621222 381.606388 
L 523.147503 381.679198 
L 554.726349 381.684375 
L 554.726349 381.684375 
" clip-path="url(#pec81f2675a)" style="fill: none; stroke: #2d1e3e; stroke-width: 1.5; stroke-linecap: square"/>
   </g>
   <g id="line2d_35">
    <path d="M 345.253338 293.83744 
L 349.463851 277.260224 
L 363.148017 222.288848 
L 366.305902 210.817747 
L 369.463787 200.292782 
L 371.569043 193.895724 
L 373.674299 188.04944 
L 375.779556 182.791982 
L 377.884812 178.152765 
L 379.990069 174.152378 
L 382.095325 170.80263 
L 384.200581 168.106788 
L 385.25321 167.00287 
L 386.305838 166.060007 
L 387.358466 165.276418 
L 388.411094 164.649893 
L 389.463722 164.177816 
L 390.516351 163.857188 
L 391.568979 163.684654 
L 392.621607 163.656525 
L 393.674235 163.768805 
L 394.726863 164.017217 
L 395.779492 164.397224 
L 397.884748 165.532735 
L 399.990004 167.134774 
L 402.095261 169.160083 
L 404.200517 171.563315 
L 406.305774 174.297568 
L 409.463658 178.914409 
L 412.621543 184.003209 
L 416.832056 191.235836 
L 425.253081 205.790574 
L 428.410966 210.810558 
L 431.56885 215.379379 
L 433.674107 218.118833 
L 435.779363 220.581004 
L 437.884619 222.7446 
L 439.989876 224.594561 
L 442.095132 226.122531 
L 444.200389 227.327174 
L 446.305645 228.214281 
L 448.410901 228.796644 
L 450.516158 229.093695 
L 452.621414 229.130888 
L 454.726671 228.938871 
L 456.831927 228.552451 
L 459.989812 227.691492 
L 464.200324 226.226797 
L 470.516094 223.970625 
L 473.673978 223.056974 
L 476.831863 222.401415 
L 478.937119 222.139023 
L 481.042376 222.033269 
L 483.147632 222.095663 
L 485.252888 222.33588 
L 487.358145 222.762561 
L 489.463401 223.384061 
L 491.568658 224.20909 
L 493.673914 225.247176 
L 495.77917 226.508904 
L 497.884427 228.005917 
L 499.989683 229.750654 
L 502.09494 231.755859 
L 504.200196 234.03388 
L 506.305452 236.595821 
L 508.410709 239.450603 
L 510.515965 242.604015 
L 512.621222 246.057814 
L 515.779106 251.793627 
L 518.936991 258.163882 
L 522.094875 265.10616 
L 525.25276 272.529879 
L 529.463273 282.975944 
L 543.147439 317.496748 
L 547.357952 327.152054 
L 550.515837 333.844433 
L 553.673721 340.008643 
L 554.726349 341.940902 
L 554.726349 341.940902 
" clip-path="url(#pec81f2675a)" style="fill: none; stroke: #edd1cb; stroke-width: 1.5; stroke-linecap: square"/>
   </g>
   <g id="patch_24">
    <path d="M 324.779687 381.684375 
L 324.779687 75.07943 
" style="fill: none; stroke: #000000; stroke-width: 0.8; stroke-linejoin: miter; stroke-linecap: square"/>
   </g>
   <g id="patch_25">
    <path d="M 345.253338 391.684375 
L 554.726349 391.684375 
" style="fill: none; stroke: #000000; stroke-width: 0.8; stroke-linejoin: miter; stroke-linecap: square"/>
   </g>
   <g id="legend_1">
    <g id="patch_26">
     <path d="M 503.95625 83.694688 
L 558.2 83.694688 
Q 560.2 83.694688 560.2 81.694688 
L 560.2 39.92125 
Q 560.2 37.92125 558.2 37.92125 
L 503.95625 37.92125 
Q 501.95625 37.92125 501.95625 39.92125 
L 501.95625 81.694688 
Q 501.95625 83.694688 503.95625 83.694688 
z
" style="fill: #ffffff; opacity: 0.8; stroke: #cccccc; stroke-linejoin: miter"/>
    </g>
    <g id="text_26">
     <text style="font: 10px 'sans-serif'; text-anchor: start" x="520.517187" y="49.094688" transform="rotate(-0, 520.517187, 49.094688)">Year</text>
    </g>
    <g id="patch_27">
     <path d="M 505.95625 63.3525 
L 525.95625 63.3525 
L 525.95625 56.3525 
L 505.95625 56.3525 
z
" style="fill: #edd1cb; fill-opacity: 0.5; stroke: #000000; stroke-linejoin: miter"/>
    </g>
    <g id="text_27">
     <text style="font: 10px 'sans-serif'; text-anchor: start" x="533.95625" y="63.3525" transform="rotate(-0, 533.95625, 63.3525)">2018</text>
    </g>
    <g id="patch_28">
     <path d="M 505.95625 77.610313 
L 525.95625 77.610313 
L 525.95625 70.610313 
L 505.95625 70.610313 
z
" style="fill: #2d1e3e; fill-opacity: 0.5; stroke: #000000; stroke-linejoin: miter"/>
    </g>
    <g id="text_28">
     <text style="font: 10px 'sans-serif'; text-anchor: start" x="533.95625" y="77.610313" transform="rotate(-0, 533.95625, 77.610313)">2022</text>
    </g>
   </g>
  </g>
  <g id="text_29">
   <text style="font: 12px 'sans-serif'; text-anchor: middle" x="288" y="17.38875" transform="rotate(-0, 288, 17.38875)">How many years of software development experience for Netherlands (without 95 percentile)</text>
  </g>
 </g>
 <defs>
  <clipPath id="pf774788d5c">
   <rect x="52.179688" y="32.92125" width="230.420313" height="348.763125"/>
  </clipPath>
  <clipPath id="pec81f2675a">
   <rect x="334.779687" y="32.92125" width="230.420313" height="348.763125"/>
  </clipPath>
 </defs>
</svg>
