<?xml version="1.0" encoding="utf-8" standalone="no"?>
<!DOCTYPE svg PUBLIC "-//W3C//DTD SVG 1.1//EN"
  "http://www.w3.org/Graphics/SVG/1.1/DTD/svg11.dtd">
<svg xmlns:xlink="http://www.w3.org/1999/xlink" width="576pt" height="432pt" viewBox="0 0 576 432" xmlns="http://www.w3.org/2000/svg" version="1.1">
 <metadata>
  <rdf:RDF xmlns:dc="http://purl.org/dc/elements/1.1/" xmlns:cc="http://creativecommons.org/ns#" xmlns:rdf="http://www.w3.org/1999/02/22-rdf-syntax-ns#">
   <cc:Work>
    <dc:type rdf:resource="http://purl.org/dc/dcmitype/StillImage"/>
    <dc:date>2022-03-21T11:55:59.225579</dc:date>
    <dc:format>image/svg+xml</dc:format>
    <dc:creator>
     <cc:Agent>
      <dc:title>Matplotlib v3.5.1, https://matplotlib.org/</dc:title>
     </cc:Agent>
    </dc:creator>
   </cc:Work>
  </rdf:RDF>
 </metadata>
 <defs>
  <style type="text/css">*{stroke-linejoin: round; stroke-linecap: butt}</style>
 </defs>
 <g id="figure_1">
  <g id="patch_1">
   <path d="M 0 432 
L 576 432 
L 576 0 
L 0 0 
z
" style="fill: #ffffff"/>
  </g>
  <g id="axes_1">
   <g id="patch_2">
    <path d="M 52.179688 381.684375 
L 278.430469 381.684375 
L 278.430469 32.92125 
L 52.179688 32.92125 
z
" style="fill: #ffffff"/>
   </g>
   <g id="patch_3">
    <path d="M 63.492227 309.214115 
L 153.992539 309.214115 
L 153.992539 139.361944 
L 63.492227 139.361944 
L 63.492227 309.214115 
z
" clip-path="url(#pf915be2ce2)" style="fill: #3274a1; stroke: #3f3f3f; stroke-width: 1.5; stroke-linejoin: miter"/>
   </g>
   <g id="patch_4">
    <path d="M 176.617617 329.030202 
L 267.11793 329.030202 
L 267.11793 266.751072 
L 176.617617 266.751072 
L 176.617617 329.030202 
z
" clip-path="url(#pf915be2ce2)" style="fill: #e1812c; stroke: #3f3f3f; stroke-width: 1.5; stroke-linejoin: miter"/>
   </g>
   <g id="matplotlib.axis_1">
    <g id="xtick_1">
     <g id="line2d_1">
      <defs>
       <path id="m4c99cd72f3" d="M 0 0 
L 0 3.5 
" style="stroke: #000000; stroke-width: 0.8"/>
      </defs>
      <g>
       <use xlink:href="#m4c99cd72f3" x="108.742383" y="391.684375" style="stroke: #000000; stroke-width: 0.8"/>
      </g>
     </g>
     <g id="text_1">
      <text style="font: 10px 'sans-serif'; text-anchor: middle" x="108.742383" y="405.857813" transform="rotate(-0, 108.742383, 405.857813)">2018</text>
     </g>
    </g>
    <g id="xtick_2">
     <g id="line2d_2">
      <g>
       <use xlink:href="#m4c99cd72f3" x="221.867773" y="391.684375" style="stroke: #000000; stroke-width: 0.8"/>
      </g>
     </g>
     <g id="text_2">
      <text style="font: 10px 'sans-serif'; text-anchor: middle" x="221.867773" y="405.857813" transform="rotate(-0, 221.867773, 405.857813)">2022</text>
     </g>
    </g>
    <g id="text_3">
     <text style="font: 10px 'sans-serif'; text-anchor: middle" x="165.305078" y="419.115625" transform="rotate(-0, 165.305078, 419.115625)">Year</text>
    </g>
   </g>
   <g id="matplotlib.axis_2">
    <g id="ytick_1">
     <g id="line2d_3">
      <defs>
       <path id="m8e343aef83" d="M 0 0 
L -3.5 0 
" style="stroke: #000000; stroke-width: 0.8"/>
      </defs>
      <g>
       <use xlink:href="#m8e343aef83" x="42.179688" y="365.831506" style="stroke: #000000; stroke-width: 0.8"/>
      </g>
     </g>
     <g id="text_4">
      <text style="font: 10px 'sans-serif'; text-anchor: end" x="35.179688" y="369.418224" transform="rotate(-0, 35.179688, 369.418224)">0</text>
     </g>
    </g>
    <g id="ytick_2">
     <g id="line2d_4">
      <g>
       <use xlink:href="#m8e343aef83" x="42.179688" y="309.214115" style="stroke: #000000; stroke-width: 0.8"/>
      </g>
     </g>
     <g id="text_5">
      <text style="font: 10px 'sans-serif'; text-anchor: end" x="35.179688" y="312.800834" transform="rotate(-0, 35.179688, 312.800834)">5</text>
     </g>
    </g>
    <g id="ytick_3">
     <g id="line2d_5">
      <g>
       <use xlink:href="#m8e343aef83" x="42.179688" y="252.596725" style="stroke: #000000; stroke-width: 0.8"/>
      </g>
     </g>
     <g id="text_6">
      <text style="font: 10px 'sans-serif'; text-anchor: end" x="35.179688" y="256.183444" transform="rotate(-0, 35.179688, 256.183444)">10</text>
     </g>
    </g>
    <g id="ytick_4">
     <g id="line2d_6">
      <g>
       <use xlink:href="#m8e343aef83" x="42.179688" y="195.979334" style="stroke: #000000; stroke-width: 0.8"/>
      </g>
     </g>
     <g id="text_7">
      <text style="font: 10px 'sans-serif'; text-anchor: end" x="35.179688" y="199.566053" transform="rotate(-0, 35.179688, 199.566053)">15</text>
     </g>
    </g>
    <g id="ytick_5">
     <g id="line2d_7">
      <g>
       <use xlink:href="#m8e343aef83" x="42.179688" y="139.361944" style="stroke: #000000; stroke-width: 0.8"/>
      </g>
     </g>
     <g id="text_8">
      <text style="font: 10px 'sans-serif'; text-anchor: end" x="35.179688" y="142.948663" transform="rotate(-0, 35.179688, 142.948663)">20</text>
     </g>
    </g>
    <g id="ytick_6">
     <g id="line2d_8">
      <g>
       <use xlink:href="#m8e343aef83" x="42.179688" y="82.744554" style="stroke: #000000; stroke-width: 0.8"/>
      </g>
     </g>
     <g id="text_9">
      <text style="font: 10px 'sans-serif'; text-anchor: end" x="35.179688" y="86.331272" transform="rotate(-0, 35.179688, 86.331272)">25</text>
     </g>
    </g>
    <g id="text_10">
     <text style="font: 10px 'sans-serif'; text-anchor: middle" x="17.973438" y="207.302813" transform="rotate(-90, 17.973438, 207.302813)">Value</text>
    </g>
   </g>
   <g id="line2d_9">
    <path d="M 108.742383 309.214115 
L 108.742383 365.831506 
" clip-path="url(#pf915be2ce2)" style="fill: none; stroke: #3f3f3f; stroke-width: 1.5; stroke-linecap: square"/>
   </g>
   <g id="line2d_10">
    <path d="M 108.742383 139.361944 
L 108.742383 48.774119 
" clip-path="url(#pf915be2ce2)" style="fill: none; stroke: #3f3f3f; stroke-width: 1.5; stroke-linecap: square"/>
   </g>
   <g id="line2d_11">
    <path d="M 86.117305 365.831506 
L 131.367461 365.831506 
" clip-path="url(#pf915be2ce2)" style="fill: none; stroke: #3f3f3f; stroke-width: 1.5; stroke-linecap: square"/>
   </g>
   <g id="line2d_12">
    <path d="M 86.117305 48.774119 
L 131.367461 48.774119 
" clip-path="url(#pf915be2ce2)" style="fill: none; stroke: #3f3f3f; stroke-width: 1.5; stroke-linecap: square"/>
   </g>
   <g id="line2d_13"/>
   <g id="line2d_14">
    <path d="M 221.867773 329.030202 
L 221.867773 343.18455 
" clip-path="url(#pf915be2ce2)" style="fill: none; stroke: #3f3f3f; stroke-width: 1.5; stroke-linecap: square"/>
   </g>
   <g id="line2d_15">
    <path d="M 221.867773 266.751072 
L 221.867773 229.949769 
" clip-path="url(#pf915be2ce2)" style="fill: none; stroke: #3f3f3f; stroke-width: 1.5; stroke-linecap: square"/>
   </g>
   <g id="line2d_16">
    <path d="M 199.242695 343.18455 
L 244.492852 343.18455 
" clip-path="url(#pf915be2ce2)" style="fill: none; stroke: #3f3f3f; stroke-width: 1.5; stroke-linecap: square"/>
   </g>
   <g id="line2d_17">
    <path d="M 199.242695 229.949769 
L 244.492852 229.949769 
" clip-path="url(#pf915be2ce2)" style="fill: none; stroke: #3f3f3f; stroke-width: 1.5; stroke-linecap: square"/>
   </g>
   <g id="line2d_18"/>
   <g id="line2d_19">
    <path d="M 63.492227 252.596725 
L 153.992539 252.596725 
" clip-path="url(#pf915be2ce2)" style="fill: none; stroke: #3f3f3f; stroke-width: 1.5; stroke-linecap: square"/>
   </g>
   <g id="line2d_20">
    <path d="M 176.617617 309.214115 
L 267.11793 309.214115 
" clip-path="url(#pf915be2ce2)" style="fill: none; stroke: #3f3f3f; stroke-width: 1.5; stroke-linecap: square"/>
   </g>
   <g id="patch_5">
    <path d="M 42.179688 365.831506 
L 42.179688 82.744554 
" style="fill: none; stroke: #000000; stroke-width: 0.8; stroke-linejoin: miter; stroke-linecap: square"/>
   </g>
   <g id="patch_6">
    <path d="M 108.742383 391.684375 
L 221.867773 391.684375 
" style="fill: none; stroke: #000000; stroke-width: 0.8; stroke-linejoin: miter; stroke-linecap: square"/>
   </g>
   <g id="PathCollection_1">
    <defs>
     <path id="C0_0_77057b9605" d="M 0 2.5 
C 0.663008 2.5 1.29895 2.236584 1.767767 1.767767 
C 2.236584 1.29895 2.5 0.663008 2.5 -0 
C 2.5 -0.663008 2.236584 -1.29895 1.767767 -1.767767 
C 1.29895 -2.236584 0.663008 -2.5 0 -2.5 
C -0.663008 -2.5 -1.29895 -2.236584 -1.767767 -1.767767 
C -2.236584 -1.29895 -2.5 -0.663008 -2.5 0 
C -2.5 0.663008 -2.236584 1.29895 -1.767767 1.767767 
C -1.29895 2.236584 -0.663008 2.5 0 2.5 
z
"/>
    </defs>
    <g clip-path="url(#pf915be2ce2)">
     <use xlink:href="#C0_0_77057b9605" x="108.742383" y="365.831506" style="fill: #808080; fill-opacity: 0.75"/>
    </g>
    <g clip-path="url(#pf915be2ce2)">
     <use xlink:href="#C0_0_77057b9605" x="104.28379" y="362.434462" style="fill: #808080; fill-opacity: 0.75"/>
    </g>
    <g clip-path="url(#pf915be2ce2)">
     <use xlink:href="#C0_0_77057b9605" x="109.563299" y="360.169767" style="fill: #808080; fill-opacity: 0.75"/>
    </g>
    <g clip-path="url(#pf915be2ce2)">
     <use xlink:href="#C0_0_77057b9605" x="108.742383" y="354.508028" style="fill: #808080; fill-opacity: 0.75"/>
    </g>
    <g clip-path="url(#pf915be2ce2)">
     <use xlink:href="#C0_0_77057b9605" x="102.888448" y="354.508028" style="fill: #808080; fill-opacity: 0.75"/>
    </g>
    <g clip-path="url(#pf915be2ce2)">
     <use xlink:href="#C0_0_77057b9605" x="114.596318" y="354.508028" style="fill: #808080; fill-opacity: 0.75"/>
    </g>
    <g clip-path="url(#pf915be2ce2)">
     <use xlink:href="#C0_0_77057b9605" x="97.034513" y="354.508028" style="fill: #808080; fill-opacity: 0.75"/>
    </g>
    <g clip-path="url(#pf915be2ce2)">
     <use xlink:href="#C0_0_77057b9605" x="108.742383" y="343.18455" style="fill: #808080; fill-opacity: 0.75"/>
    </g>
    <g clip-path="url(#pf915be2ce2)">
     <use xlink:href="#C0_0_77057b9605" x="102.888448" y="343.18455" style="fill: #808080; fill-opacity: 0.75"/>
    </g>
    <g clip-path="url(#pf915be2ce2)">
     <use xlink:href="#C0_0_77057b9605" x="114.596318" y="343.18455" style="fill: #808080; fill-opacity: 0.75"/>
    </g>
    <g clip-path="url(#pf915be2ce2)">
     <use xlink:href="#C0_0_77057b9605" x="97.034513" y="343.18455" style="fill: #808080; fill-opacity: 0.75"/>
    </g>
    <g clip-path="url(#pf915be2ce2)">
     <use xlink:href="#C0_0_77057b9605" x="120.450253" y="343.18455" style="fill: #808080; fill-opacity: 0.75"/>
    </g>
    <g clip-path="url(#pf915be2ce2)">
     <use xlink:href="#C0_0_77057b9605" x="91.180578" y="343.18455" style="fill: #808080; fill-opacity: 0.75"/>
    </g>
    <g clip-path="url(#pf915be2ce2)">
     <use xlink:href="#C0_0_77057b9605" x="126.304187" y="343.18455" style="fill: #808080; fill-opacity: 0.75"/>
    </g>
    <g clip-path="url(#pf915be2ce2)">
     <use xlink:href="#C0_0_77057b9605" x="108.742383" y="331.861071" style="fill: #808080; fill-opacity: 0.75"/>
    </g>
    <g clip-path="url(#pf915be2ce2)">
     <use xlink:href="#C0_0_77057b9605" x="102.888448" y="331.861071" style="fill: #808080; fill-opacity: 0.75"/>
    </g>
    <g clip-path="url(#pf915be2ce2)">
     <use xlink:href="#C0_0_77057b9605" x="108.742383" y="320.537593" style="fill: #808080; fill-opacity: 0.75"/>
    </g>
    <g clip-path="url(#pf915be2ce2)">
     <use xlink:href="#C0_0_77057b9605" x="102.888448" y="320.537593" style="fill: #808080; fill-opacity: 0.75"/>
    </g>
    <g clip-path="url(#pf915be2ce2)">
     <use xlink:href="#C0_0_77057b9605" x="108.742383" y="309.214115" style="fill: #808080; fill-opacity: 0.75"/>
    </g>
    <g clip-path="url(#pf915be2ce2)">
     <use xlink:href="#C0_0_77057b9605" x="102.888448" y="309.214115" style="fill: #808080; fill-opacity: 0.75"/>
    </g>
    <g clip-path="url(#pf915be2ce2)">
     <use xlink:href="#C0_0_77057b9605" x="114.596318" y="309.214115" style="fill: #808080; fill-opacity: 0.75"/>
    </g>
    <g clip-path="url(#pf915be2ce2)">
     <use xlink:href="#C0_0_77057b9605" x="97.034513" y="309.214115" style="fill: #808080; fill-opacity: 0.75"/>
    </g>
    <g clip-path="url(#pf915be2ce2)">
     <use xlink:href="#C0_0_77057b9605" x="120.450253" y="309.214115" style="fill: #808080; fill-opacity: 0.75"/>
    </g>
    <g clip-path="url(#pf915be2ce2)">
     <use xlink:href="#C0_0_77057b9605" x="91.180578" y="309.214115" style="fill: #808080; fill-opacity: 0.75"/>
    </g>
    <g clip-path="url(#pf915be2ce2)">
     <use xlink:href="#C0_0_77057b9605" x="126.304187" y="309.214115" style="fill: #808080; fill-opacity: 0.75"/>
    </g>
    <g clip-path="url(#pf915be2ce2)">
     <use xlink:href="#C0_0_77057b9605" x="85.326643" y="309.214115" style="fill: #808080; fill-opacity: 0.75"/>
    </g>
    <g clip-path="url(#pf915be2ce2)">
     <use xlink:href="#C0_0_77057b9605" x="108.742383" y="297.890637" style="fill: #808080; fill-opacity: 0.75"/>
    </g>
    <g clip-path="url(#pf915be2ce2)">
     <use xlink:href="#C0_0_77057b9605" x="102.888448" y="297.890637" style="fill: #808080; fill-opacity: 0.75"/>
    </g>
    <g clip-path="url(#pf915be2ce2)">
     <use xlink:href="#C0_0_77057b9605" x="108.742383" y="286.567159" style="fill: #808080; fill-opacity: 0.75"/>
    </g>
    <g clip-path="url(#pf915be2ce2)">
     <use xlink:href="#C0_0_77057b9605" x="102.888448" y="286.567159" style="fill: #808080; fill-opacity: 0.75"/>
    </g>
    <g clip-path="url(#pf915be2ce2)">
     <use xlink:href="#C0_0_77057b9605" x="108.742383" y="275.243681" style="fill: #808080; fill-opacity: 0.75"/>
    </g>
    <g clip-path="url(#pf915be2ce2)">
     <use xlink:href="#C0_0_77057b9605" x="102.888448" y="275.243681" style="fill: #808080; fill-opacity: 0.75"/>
    </g>
    <g clip-path="url(#pf915be2ce2)">
     <use xlink:href="#C0_0_77057b9605" x="114.596318" y="275.243681" style="fill: #808080; fill-opacity: 0.75"/>
    </g>
    <g clip-path="url(#pf915be2ce2)">
     <use xlink:href="#C0_0_77057b9605" x="108.742383" y="263.920203" style="fill: #808080; fill-opacity: 0.75"/>
    </g>
    <g clip-path="url(#pf915be2ce2)">
     <use xlink:href="#C0_0_77057b9605" x="102.888448" y="263.920203" style="fill: #808080; fill-opacity: 0.75"/>
    </g>
    <g clip-path="url(#pf915be2ce2)">
     <use xlink:href="#C0_0_77057b9605" x="114.596318" y="263.920203" style="fill: #808080; fill-opacity: 0.75"/>
    </g>
    <g clip-path="url(#pf915be2ce2)">
     <use xlink:href="#C0_0_77057b9605" x="108.742383" y="252.596725" style="fill: #808080; fill-opacity: 0.75"/>
    </g>
    <g clip-path="url(#pf915be2ce2)">
     <use xlink:href="#C0_0_77057b9605" x="102.888448" y="252.596725" style="fill: #808080; fill-opacity: 0.75"/>
    </g>
    <g clip-path="url(#pf915be2ce2)">
     <use xlink:href="#C0_0_77057b9605" x="114.596318" y="252.596725" style="fill: #808080; fill-opacity: 0.75"/>
    </g>
    <g clip-path="url(#pf915be2ce2)">
     <use xlink:href="#C0_0_77057b9605" x="97.034513" y="252.596725" style="fill: #808080; fill-opacity: 0.75"/>
    </g>
    <g clip-path="url(#pf915be2ce2)">
     <use xlink:href="#C0_0_77057b9605" x="120.450253" y="252.596725" style="fill: #808080; fill-opacity: 0.75"/>
    </g>
    <g clip-path="url(#pf915be2ce2)">
     <use xlink:href="#C0_0_77057b9605" x="91.180578" y="252.596725" style="fill: #808080; fill-opacity: 0.75"/>
    </g>
    <g clip-path="url(#pf915be2ce2)">
     <use xlink:href="#C0_0_77057b9605" x="126.304187" y="252.596725" style="fill: #808080; fill-opacity: 0.75"/>
    </g>
    <g clip-path="url(#pf915be2ce2)">
     <use xlink:href="#C0_0_77057b9605" x="85.326643" y="252.596725" style="fill: #808080; fill-opacity: 0.75"/>
    </g>
    <g clip-path="url(#pf915be2ce2)">
     <use xlink:href="#C0_0_77057b9605" x="132.158122" y="252.596725" style="fill: #808080; fill-opacity: 0.75"/>
    </g>
    <g clip-path="url(#pf915be2ce2)">
     <use xlink:href="#C0_0_77057b9605" x="79.472708" y="252.596725" style="fill: #808080; fill-opacity: 0.75"/>
    </g>
    <g clip-path="url(#pf915be2ce2)">
     <use xlink:href="#C0_0_77057b9605" x="138.012057" y="252.596725" style="fill: #808080; fill-opacity: 0.75"/>
    </g>
    <g clip-path="url(#pf915be2ce2)">
     <use xlink:href="#C0_0_77057b9605" x="143.865992" y="252.596725" style="fill: #808080; fill-opacity: 0.75"/>
    </g>
    <g clip-path="url(#pf915be2ce2)">
     <use xlink:href="#C0_0_77057b9605" x="108.742383" y="241.273247" style="fill: #808080; fill-opacity: 0.75"/>
    </g>
    <g clip-path="url(#pf915be2ce2)">
     <use xlink:href="#C0_0_77057b9605" x="102.888448" y="241.273247" style="fill: #808080; fill-opacity: 0.75"/>
    </g>
    <g clip-path="url(#pf915be2ce2)">
     <use xlink:href="#C0_0_77057b9605" x="108.742383" y="229.949769" style="fill: #808080; fill-opacity: 0.75"/>
    </g>
    <g clip-path="url(#pf915be2ce2)">
     <use xlink:href="#C0_0_77057b9605" x="102.888448" y="229.949769" style="fill: #808080; fill-opacity: 0.75"/>
    </g>
    <g clip-path="url(#pf915be2ce2)">
     <use xlink:href="#C0_0_77057b9605" x="114.596318" y="229.949769" style="fill: #808080; fill-opacity: 0.75"/>
    </g>
    <g clip-path="url(#pf915be2ce2)">
     <use xlink:href="#C0_0_77057b9605" x="108.742383" y="195.979334" style="fill: #808080; fill-opacity: 0.75"/>
    </g>
    <g clip-path="url(#pf915be2ce2)">
     <use xlink:href="#C0_0_77057b9605" x="102.888448" y="195.979334" style="fill: #808080; fill-opacity: 0.75"/>
    </g>
    <g clip-path="url(#pf915be2ce2)">
     <use xlink:href="#C0_0_77057b9605" x="114.596318" y="195.979334" style="fill: #808080; fill-opacity: 0.75"/>
    </g>
    <g clip-path="url(#pf915be2ce2)">
     <use xlink:href="#C0_0_77057b9605" x="97.034513" y="195.979334" style="fill: #808080; fill-opacity: 0.75"/>
    </g>
    <g clip-path="url(#pf915be2ce2)">
     <use xlink:href="#C0_0_77057b9605" x="108.742383" y="184.655856" style="fill: #808080; fill-opacity: 0.75"/>
    </g>
    <g clip-path="url(#pf915be2ce2)">
     <use xlink:href="#C0_0_77057b9605" x="108.742383" y="173.332378" style="fill: #808080; fill-opacity: 0.75"/>
    </g>
    <g clip-path="url(#pf915be2ce2)">
     <use xlink:href="#C0_0_77057b9605" x="102.888448" y="173.332378" style="fill: #808080; fill-opacity: 0.75"/>
    </g>
    <g clip-path="url(#pf915be2ce2)">
     <use xlink:href="#C0_0_77057b9605" x="108.742383" y="162.0089" style="fill: #808080; fill-opacity: 0.75"/>
    </g>
    <g clip-path="url(#pf915be2ce2)">
     <use xlink:href="#C0_0_77057b9605" x="102.888448" y="162.0089" style="fill: #808080; fill-opacity: 0.75"/>
    </g>
    <g clip-path="url(#pf915be2ce2)">
     <use xlink:href="#C0_0_77057b9605" x="114.596318" y="162.0089" style="fill: #808080; fill-opacity: 0.75"/>
    </g>
    <g clip-path="url(#pf915be2ce2)">
     <use xlink:href="#C0_0_77057b9605" x="108.742383" y="150.685422" style="fill: #808080; fill-opacity: 0.75"/>
    </g>
    <g clip-path="url(#pf915be2ce2)">
     <use xlink:href="#C0_0_77057b9605" x="108.742383" y="139.361944" style="fill: #808080; fill-opacity: 0.75"/>
    </g>
    <g clip-path="url(#pf915be2ce2)">
     <use xlink:href="#C0_0_77057b9605" x="102.888448" y="139.361944" style="fill: #808080; fill-opacity: 0.75"/>
    </g>
    <g clip-path="url(#pf915be2ce2)">
     <use xlink:href="#C0_0_77057b9605" x="114.596318" y="139.361944" style="fill: #808080; fill-opacity: 0.75"/>
    </g>
    <g clip-path="url(#pf915be2ce2)">
     <use xlink:href="#C0_0_77057b9605" x="97.034513" y="139.361944" style="fill: #808080; fill-opacity: 0.75"/>
    </g>
    <g clip-path="url(#pf915be2ce2)">
     <use xlink:href="#C0_0_77057b9605" x="120.450253" y="139.361944" style="fill: #808080; fill-opacity: 0.75"/>
    </g>
    <g clip-path="url(#pf915be2ce2)">
     <use xlink:href="#C0_0_77057b9605" x="91.180578" y="139.361944" style="fill: #808080; fill-opacity: 0.75"/>
    </g>
    <g clip-path="url(#pf915be2ce2)">
     <use xlink:href="#C0_0_77057b9605" x="126.304187" y="139.361944" style="fill: #808080; fill-opacity: 0.75"/>
    </g>
    <g clip-path="url(#pf915be2ce2)">
     <use xlink:href="#C0_0_77057b9605" x="85.326643" y="139.361944" style="fill: #808080; fill-opacity: 0.75"/>
    </g>
    <g clip-path="url(#pf915be2ce2)">
     <use xlink:href="#C0_0_77057b9605" x="132.158122" y="139.361944" style="fill: #808080; fill-opacity: 0.75"/>
    </g>
    <g clip-path="url(#pf915be2ce2)">
     <use xlink:href="#C0_0_77057b9605" x="79.472708" y="139.361944" style="fill: #808080; fill-opacity: 0.75"/>
    </g>
    <g clip-path="url(#pf915be2ce2)">
     <use xlink:href="#C0_0_77057b9605" x="138.012057" y="139.361944" style="fill: #808080; fill-opacity: 0.75"/>
    </g>
    <g clip-path="url(#pf915be2ce2)">
     <use xlink:href="#C0_0_77057b9605" x="143.865992" y="139.361944" style="fill: #808080; fill-opacity: 0.75"/>
    </g>
    <g clip-path="url(#pf915be2ce2)">
     <use xlink:href="#C0_0_77057b9605" x="108.742383" y="116.714988" style="fill: #808080; fill-opacity: 0.75"/>
    </g>
    <g clip-path="url(#pf915be2ce2)">
     <use xlink:href="#C0_0_77057b9605" x="102.888448" y="116.714988" style="fill: #808080; fill-opacity: 0.75"/>
    </g>
    <g clip-path="url(#pf915be2ce2)">
     <use xlink:href="#C0_0_77057b9605" x="114.596318" y="116.714988" style="fill: #808080; fill-opacity: 0.75"/>
    </g>
    <g clip-path="url(#pf915be2ce2)">
     <use xlink:href="#C0_0_77057b9605" x="108.742383" y="105.39151" style="fill: #808080; fill-opacity: 0.75"/>
    </g>
    <g clip-path="url(#pf915be2ce2)">
     <use xlink:href="#C0_0_77057b9605" x="108.742383" y="82.744554" style="fill: #808080; fill-opacity: 0.75"/>
    </g>
    <g clip-path="url(#pf915be2ce2)">
     <use xlink:href="#C0_0_77057b9605" x="102.888448" y="82.744554" style="fill: #808080; fill-opacity: 0.75"/>
    </g>
    <g clip-path="url(#pf915be2ce2)">
     <use xlink:href="#C0_0_77057b9605" x="114.596318" y="82.744554" style="fill: #808080; fill-opacity: 0.75"/>
    </g>
    <g clip-path="url(#pf915be2ce2)">
     <use xlink:href="#C0_0_77057b9605" x="97.034513" y="82.744554" style="fill: #808080; fill-opacity: 0.75"/>
    </g>
    <g clip-path="url(#pf915be2ce2)">
     <use xlink:href="#C0_0_77057b9605" x="120.450253" y="82.744554" style="fill: #808080; fill-opacity: 0.75"/>
    </g>
    <g clip-path="url(#pf915be2ce2)">
     <use xlink:href="#C0_0_77057b9605" x="91.180578" y="82.744554" style="fill: #808080; fill-opacity: 0.75"/>
    </g>
    <g clip-path="url(#pf915be2ce2)">
     <use xlink:href="#C0_0_77057b9605" x="126.304187" y="82.744554" style="fill: #808080; fill-opacity: 0.75"/>
    </g>
    <g clip-path="url(#pf915be2ce2)">
     <use xlink:href="#C0_0_77057b9605" x="108.742383" y="48.774119" style="fill: #808080; fill-opacity: 0.75"/>
    </g>
    <g clip-path="url(#pf915be2ce2)">
     <use xlink:href="#C0_0_77057b9605" x="102.888448" y="48.774119" style="fill: #808080; fill-opacity: 0.75"/>
    </g>
    <g clip-path="url(#pf915be2ce2)">
     <use xlink:href="#C0_0_77057b9605" x="114.596318" y="48.774119" style="fill: #808080; fill-opacity: 0.75"/>
    </g>
   </g>
   <g id="PathCollection_2">
    <defs>
     <path id="C1_0_77057b9605" d="M 0 2.5 
C 0.663008 2.5 1.29895 2.236584 1.767767 1.767767 
C 2.236584 1.29895 2.5 0.663008 2.5 -0 
C 2.5 -0.663008 2.236584 -1.29895 1.767767 -1.767767 
C 1.29895 -2.236584 0.663008 -2.5 0 -2.5 
C -0.663008 -2.5 -1.29895 -2.236584 -1.767767 -1.767767 
C -2.236584 -1.29895 -2.5 -0.663008 -2.5 0 
C -2.5 0.663008 -2.236584 1.29895 -1.767767 1.767767 
C -1.29895 2.236584 -0.663008 2.5 0 2.5 
z
"/>
    </defs>
    <g clip-path="url(#pf915be2ce2)">
     <use xlink:href="#C1_0_77057b9605" x="221.867773" y="343.18455" style="fill: #808080; fill-opacity: 0.75"/>
    </g>
    <g clip-path="url(#pf915be2ce2)">
     <use xlink:href="#C1_0_77057b9605" x="216.013839" y="343.18455" style="fill: #808080; fill-opacity: 0.75"/>
    </g>
    <g clip-path="url(#pf915be2ce2)">
     <use xlink:href="#C1_0_77057b9605" x="221.867773" y="331.861071" style="fill: #808080; fill-opacity: 0.75"/>
    </g>
    <g clip-path="url(#pf915be2ce2)">
     <use xlink:href="#C1_0_77057b9605" x="216.013839" y="331.861071" style="fill: #808080; fill-opacity: 0.75"/>
    </g>
    <g clip-path="url(#pf915be2ce2)">
     <use xlink:href="#C1_0_77057b9605" x="227.721708" y="331.861071" style="fill: #808080; fill-opacity: 0.75"/>
    </g>
    <g clip-path="url(#pf915be2ce2)">
     <use xlink:href="#C1_0_77057b9605" x="221.867773" y="320.537593" style="fill: #808080; fill-opacity: 0.75"/>
    </g>
    <g clip-path="url(#pf915be2ce2)">
     <use xlink:href="#C1_0_77057b9605" x="216.013839" y="320.537593" style="fill: #808080; fill-opacity: 0.75"/>
    </g>
    <g clip-path="url(#pf915be2ce2)">
     <use xlink:href="#C1_0_77057b9605" x="221.867773" y="309.214115" style="fill: #808080; fill-opacity: 0.75"/>
    </g>
    <g clip-path="url(#pf915be2ce2)">
     <use xlink:href="#C1_0_77057b9605" x="216.013839" y="309.214115" style="fill: #808080; fill-opacity: 0.75"/>
    </g>
    <g clip-path="url(#pf915be2ce2)">
     <use xlink:href="#C1_0_77057b9605" x="227.721708" y="309.214115" style="fill: #808080; fill-opacity: 0.75"/>
    </g>
    <g clip-path="url(#pf915be2ce2)">
     <use xlink:href="#C1_0_77057b9605" x="210.159904" y="309.214115" style="fill: #808080; fill-opacity: 0.75"/>
    </g>
    <g clip-path="url(#pf915be2ce2)">
     <use xlink:href="#C1_0_77057b9605" x="221.867773" y="297.890637" style="fill: #808080; fill-opacity: 0.75"/>
    </g>
    <g clip-path="url(#pf915be2ce2)">
     <use xlink:href="#C1_0_77057b9605" x="221.867773" y="275.243681" style="fill: #808080; fill-opacity: 0.75"/>
    </g>
    <g clip-path="url(#pf915be2ce2)">
     <use xlink:href="#C1_0_77057b9605" x="221.867773" y="263.920203" style="fill: #808080; fill-opacity: 0.75"/>
    </g>
    <g clip-path="url(#pf915be2ce2)">
     <use xlink:href="#C1_0_77057b9605" x="221.867773" y="252.596725" style="fill: #808080; fill-opacity: 0.75"/>
    </g>
    <g clip-path="url(#pf915be2ce2)">
     <use xlink:href="#C1_0_77057b9605" x="216.013839" y="252.596725" style="fill: #808080; fill-opacity: 0.75"/>
    </g>
    <g clip-path="url(#pf915be2ce2)">
     <use xlink:href="#C1_0_77057b9605" x="221.867773" y="241.273247" style="fill: #808080; fill-opacity: 0.75"/>
    </g>
    <g clip-path="url(#pf915be2ce2)">
     <use xlink:href="#C1_0_77057b9605" x="221.867773" y="229.949769" style="fill: #808080; fill-opacity: 0.75"/>
    </g>
   </g>
  </g>
  <g id="axes_2">
   <g id="patch_7">
    <path d="M 338.949219 381.684375 
L 565.2 381.684375 
L 565.2 32.92125 
L 338.949219 32.92125 
z
" style="fill: #ffffff"/>
   </g>
   <g id="patch_8">
    <path d="M 362.088503 381.684375 
L 374.943661 381.684375 
L 374.943661 298.645536 
L 362.088503 298.645536 
z
" clip-path="url(#p0fe1d24800)" style="fill: #2d1e3e; fill-opacity: 0.5; stroke: #000000; stroke-linejoin: miter"/>
   </g>
   <g id="patch_9">
    <path d="M 387.798819 381.684375 
L 400.653977 381.684375 
L 400.653977 265.43 
L 387.798819 265.43 
z
" clip-path="url(#p0fe1d24800)" style="fill: #2d1e3e; fill-opacity: 0.5; stroke: #000000; stroke-linejoin: miter"/>
   </g>
   <g id="patch_10">
    <path d="M 413.509135 381.684375 
L 426.364293 381.684375 
L 426.364293 315.253304 
L 413.509135 315.253304 
z
" clip-path="url(#p0fe1d24800)" style="fill: #2d1e3e; fill-opacity: 0.5; stroke: #000000; stroke-linejoin: miter"/>
   </g>
   <g id="patch_11">
    <path d="M 439.219451 381.684375 
L 452.074609 381.684375 
L 452.074609 348.468839 
L 439.219451 348.468839 
z
" clip-path="url(#p0fe1d24800)" style="fill: #2d1e3e; fill-opacity: 0.5; stroke: #000000; stroke-linejoin: miter"/>
   </g>
   <g id="patch_12">
    <path d="M 464.929767 381.684375 
L 477.784925 381.684375 
L 477.784925 381.684375 
L 464.929767 381.684375 
z
" clip-path="url(#p0fe1d24800)" style="fill: #2d1e3e; fill-opacity: 0.5; stroke: #000000; stroke-linejoin: miter"/>
   </g>
   <g id="patch_13">
    <path d="M 490.640083 381.684375 
L 503.495241 381.684375 
L 503.495241 381.684375 
L 490.640083 381.684375 
z
" clip-path="url(#p0fe1d24800)" style="fill: #2d1e3e; fill-opacity: 0.5; stroke: #000000; stroke-linejoin: miter"/>
   </g>
   <g id="patch_14">
    <path d="M 516.3504 381.684375 
L 529.205558 381.684375 
L 529.205558 381.684375 
L 516.3504 381.684375 
z
" clip-path="url(#p0fe1d24800)" style="fill: #2d1e3e; fill-opacity: 0.5; stroke: #000000; stroke-linejoin: miter"/>
   </g>
   <g id="patch_15">
    <path d="M 542.060716 381.684375 
L 554.915874 381.684375 
L 554.915874 381.684375 
L 542.060716 381.684375 
z
" clip-path="url(#p0fe1d24800)" style="fill: #2d1e3e; fill-opacity: 0.5; stroke: #000000; stroke-linejoin: miter"/>
   </g>
   <g id="patch_16">
    <path d="M 349.233345 381.684375 
L 362.088503 381.684375 
L 362.088503 115.960089 
L 349.233345 115.960089 
z
" clip-path="url(#p0fe1d24800)" style="fill: #edd1cb; fill-opacity: 0.5; stroke: #000000; stroke-linejoin: miter"/>
   </g>
   <g id="patch_17">
    <path d="M 374.943661 381.684375 
L 387.798819 381.684375 
L 387.798819 182.391161 
L 374.943661 182.391161 
z
" clip-path="url(#p0fe1d24800)" style="fill: #edd1cb; fill-opacity: 0.5; stroke: #000000; stroke-linejoin: miter"/>
   </g>
   <g id="patch_18">
    <path d="M 400.653977 381.684375 
L 413.509135 381.684375 
L 413.509135 49.529018 
L 400.653977 49.529018 
z
" clip-path="url(#p0fe1d24800)" style="fill: #edd1cb; fill-opacity: 0.5; stroke: #000000; stroke-linejoin: miter"/>
   </g>
   <g id="patch_19">
    <path d="M 426.364293 381.684375 
L 439.219451 381.684375 
L 439.219451 298.645536 
L 426.364293 298.645536 
z
" clip-path="url(#p0fe1d24800)" style="fill: #edd1cb; fill-opacity: 0.5; stroke: #000000; stroke-linejoin: miter"/>
   </g>
   <g id="patch_20">
    <path d="M 452.074609 381.684375 
L 464.929767 381.684375 
L 464.929767 265.43 
L 452.074609 265.43 
z
" clip-path="url(#p0fe1d24800)" style="fill: #edd1cb; fill-opacity: 0.5; stroke: #000000; stroke-linejoin: miter"/>
   </g>
   <g id="patch_21">
    <path d="M 477.784925 381.684375 
L 490.640083 381.684375 
L 490.640083 115.960089 
L 477.784925 115.960089 
z
" clip-path="url(#p0fe1d24800)" style="fill: #edd1cb; fill-opacity: 0.5; stroke: #000000; stroke-linejoin: miter"/>
   </g>
   <g id="patch_22">
    <path d="M 503.495241 381.684375 
L 516.3504 381.684375 
L 516.3504 315.253304 
L 503.495241 315.253304 
z
" clip-path="url(#p0fe1d24800)" style="fill: #edd1cb; fill-opacity: 0.5; stroke: #000000; stroke-linejoin: miter"/>
   </g>
   <g id="patch_23">
    <path d="M 529.205558 381.684375 
L 542.060716 381.684375 
L 542.060716 215.606696 
L 529.205558 215.606696 
z
" clip-path="url(#p0fe1d24800)" style="fill: #edd1cb; fill-opacity: 0.5; stroke: #000000; stroke-linejoin: miter"/>
   </g>
   <g id="matplotlib.axis_3">
    <g id="xtick_3">
     <g id="line2d_21">
      <g>
       <use xlink:href="#m4c99cd72f3" x="349.233345" y="391.684375" style="stroke: #000000; stroke-width: 0.8"/>
      </g>
     </g>
     <g id="text_11">
      <text style="font: 10px 'sans-serif'; text-anchor: middle" x="349.233345" y="405.857813" transform="rotate(-0, 349.233345, 405.857813)">0</text>
     </g>
    </g>
    <g id="xtick_4">
     <g id="line2d_22">
      <g>
       <use xlink:href="#m4c99cd72f3" x="422.691391" y="391.684375" style="stroke: #000000; stroke-width: 0.8"/>
      </g>
     </g>
     <g id="text_12">
      <text style="font: 10px 'sans-serif'; text-anchor: middle" x="422.691391" y="405.857813" transform="rotate(-0, 422.691391, 405.857813)">10</text>
     </g>
    </g>
    <g id="xtick_5">
     <g id="line2d_23">
      <g>
       <use xlink:href="#m4c99cd72f3" x="496.149437" y="391.684375" style="stroke: #000000; stroke-width: 0.8"/>
      </g>
     </g>
     <g id="text_13">
      <text style="font: 10px 'sans-serif'; text-anchor: middle" x="496.149437" y="405.857813" transform="rotate(-0, 496.149437, 405.857813)">20</text>
     </g>
    </g>
    <g id="text_14">
     <text style="font: 10px 'sans-serif'; text-anchor: middle" x="452.074609" y="419.115625" transform="rotate(-0, 452.074609, 419.115625)">Value</text>
    </g>
   </g>
   <g id="matplotlib.axis_4">
    <g id="ytick_7">
     <g id="line2d_24">
      <g>
       <use xlink:href="#m8e343aef83" x="328.949219" y="381.684375" style="stroke: #000000; stroke-width: 0.8"/>
      </g>
     </g>
     <g id="text_15">
      <text style="font: 10px 'sans-serif'; text-anchor: end" x="321.949219" y="385.271094" transform="rotate(-0, 321.949219, 385.271094)">0.0</text>
     </g>
    </g>
    <g id="ytick_8">
     <g id="line2d_25">
      <g>
       <use xlink:href="#m8e343aef83" x="328.949219" y="340.164955" style="stroke: #000000; stroke-width: 0.8"/>
      </g>
     </g>
     <g id="text_16">
      <text style="font: 10px 'sans-serif'; text-anchor: end" x="321.949219" y="343.751674" transform="rotate(-0, 321.949219, 343.751674)">2.5</text>
     </g>
    </g>
    <g id="ytick_9">
     <g id="line2d_26">
      <g>
       <use xlink:href="#m8e343aef83" x="328.949219" y="298.645536" style="stroke: #000000; stroke-width: 0.8"/>
      </g>
     </g>
     <g id="text_17">
      <text style="font: 10px 'sans-serif'; text-anchor: end" x="321.949219" y="302.232254" transform="rotate(-0, 321.949219, 302.232254)">5.0</text>
     </g>
    </g>
    <g id="ytick_10">
     <g id="line2d_27">
      <g>
       <use xlink:href="#m8e343aef83" x="328.949219" y="257.126116" style="stroke: #000000; stroke-width: 0.8"/>
      </g>
     </g>
     <g id="text_18">
      <text style="font: 10px 'sans-serif'; text-anchor: end" x="321.949219" y="260.712835" transform="rotate(-0, 321.949219, 260.712835)">7.5</text>
     </g>
    </g>
    <g id="ytick_11">
     <g id="line2d_28">
      <g>
       <use xlink:href="#m8e343aef83" x="328.949219" y="215.606696" style="stroke: #000000; stroke-width: 0.8"/>
      </g>
     </g>
     <g id="text_19">
      <text style="font: 10px 'sans-serif'; text-anchor: end" x="321.949219" y="219.193415" transform="rotate(-0, 321.949219, 219.193415)">10.0</text>
     </g>
    </g>
    <g id="ytick_12">
     <g id="line2d_29">
      <g>
       <use xlink:href="#m8e343aef83" x="328.949219" y="174.087277" style="stroke: #000000; stroke-width: 0.8"/>
      </g>
     </g>
     <g id="text_20">
      <text style="font: 10px 'sans-serif'; text-anchor: end" x="321.949219" y="177.673996" transform="rotate(-0, 321.949219, 177.673996)">12.5</text>
     </g>
    </g>
    <g id="ytick_13">
     <g id="line2d_30">
      <g>
       <use xlink:href="#m8e343aef83" x="328.949219" y="132.567857" style="stroke: #000000; stroke-width: 0.8"/>
      </g>
     </g>
     <g id="text_21">
      <text style="font: 10px 'sans-serif'; text-anchor: end" x="321.949219" y="136.154576" transform="rotate(-0, 321.949219, 136.154576)">15.0</text>
     </g>
    </g>
    <g id="ytick_14">
     <g id="line2d_31">
      <g>
       <use xlink:href="#m8e343aef83" x="328.949219" y="91.048438" style="stroke: #000000; stroke-width: 0.8"/>
      </g>
     </g>
     <g id="text_22">
      <text style="font: 10px 'sans-serif'; text-anchor: end" x="321.949219" y="94.635156" transform="rotate(-0, 321.949219, 94.635156)">17.5</text>
     </g>
    </g>
    <g id="ytick_15">
     <g id="line2d_32">
      <g>
       <use xlink:href="#m8e343aef83" x="328.949219" y="49.529018" style="stroke: #000000; stroke-width: 0.8"/>
      </g>
     </g>
     <g id="text_23">
      <text style="font: 10px 'sans-serif'; text-anchor: end" x="321.949219" y="53.115737" transform="rotate(-0, 321.949219, 53.115737)">20.0</text>
     </g>
    </g>
    <g id="text_24">
     <text style="font: 10px 'sans-serif'; text-anchor: middle" x="296.403906" y="207.302813" transform="rotate(-90, 296.403906, 207.302813)">Count</text>
    </g>
   </g>
   <g id="line2d_33">
    <path d="M 349.233345 354.628671 
L 351.300506 348.013321 
L 353.367667 340.561854 
L 355.434828 332.374461 
L 358.53557 319.058824 
L 365.770634 287.179191 
L 367.837795 279.076816 
L 369.904956 271.9191 
L 371.972117 265.942189 
L 373.005698 263.459512 
L 374.039278 261.341569 
L 375.072859 259.604717 
L 376.106439 258.261548 
L 377.14002 257.320659 
L 378.1736 256.78645 
L 379.207181 256.658964 
L 380.240762 256.93377 
L 381.274342 257.601894 
L 382.307923 258.649812 
L 383.341503 260.05951 
L 384.375084 261.808615 
L 385.408664 263.870609 
L 387.475825 268.808352 
L 389.542986 274.591233 
L 392.643728 284.145136 
L 395.74447 293.748974 
L 397.811631 299.659335 
L 399.878792 304.879634 
L 401.945953 309.233487 
L 402.979533 311.05257 
L 404.013114 312.6262 
L 405.046695 313.955836 
L 406.080275 315.048013 
L 407.113856 315.914023 
L 408.147436 316.569504 
L 409.181017 317.033932 
L 410.214597 317.330057 
L 411.248178 317.483285 
L 413.315339 317.472047 
L 418.483242 316.945413 
L 420.550403 317.105846 
L 421.583983 317.355797 
L 422.617564 317.740975 
L 423.651144 318.27402 
L 424.684725 318.964325 
L 425.718305 319.818016 
L 426.751886 320.837995 
L 428.819047 323.373003 
L 430.886208 326.533345 
L 432.953369 330.242953 
L 435.02053 334.394677 
L 438.121272 341.167822 
L 444.322755 354.979779 
L 447.423497 361.200962 
L 449.490658 364.894371 
L 451.557819 368.168903 
L 453.62498 371.004687 
L 455.692141 373.403977 
L 457.759302 375.387389 
L 459.826463 376.9894 
L 461.893625 378.253611 
L 463.960786 379.228239 
L 466.027947 379.962212 
L 468.095108 380.502089 
L 471.195849 381.038384 
L 474.296591 381.348299 
L 479.464494 381.583156 
L 487.733138 381.673323 
L 531.143521 381.684375 
L 554.915874 381.684375 
L 554.915874 381.684375 
" clip-path="url(#p0fe1d24800)" style="fill: none; stroke: #2d1e3e; stroke-width: 1.5; stroke-linecap: square"/>
   </g>
   <g id="line2d_34">
    <path d="M 349.233345 252.402482 
L 353.367667 236.924099 
L 356.468409 225.948506 
L 359.569151 215.707507 
L 362.669892 206.333484 
L 365.770634 197.915134 
L 367.837795 192.856759 
L 369.904956 188.244433 
L 371.972117 184.071296 
L 374.039278 180.323095 
L 376.106439 176.979355 
L 378.1736 174.014768 
L 380.240762 171.400748 
L 382.307923 169.107077 
L 384.375084 167.103587 
L 386.442245 165.361787 
L 388.509406 163.856377 
L 390.576567 162.566563 
L 392.643728 161.477122 
L 394.710889 160.579155 
L 396.77805 159.870483 
L 398.845211 159.355662 
L 400.912372 159.045607 
L 402.979533 158.956827 
L 405.046695 159.110298 
L 407.113856 159.530034 
L 409.181017 160.241391 
L 411.248178 161.269217 
L 413.315339 162.635905 
L 415.3825 164.359477 
L 417.449661 166.451768 
L 419.516822 168.916832 
L 421.583983 171.749645 
L 423.651144 174.935172 
L 425.718305 178.447875 
L 428.819047 184.24866 
L 431.919789 190.53853 
L 443.289175 214.167623 
L 445.356336 217.923211 
L 447.423497 221.338424 
L 449.490658 224.356602 
L 451.557819 226.93081 
L 453.62498 229.025247 
L 455.692141 230.616295 
L 456.725722 231.219167 
L 457.759302 231.693173 
L 458.792883 232.039012 
L 459.826463 232.2582 
L 460.860044 232.353049 
L 461.893625 232.326654 
L 462.927205 232.182864 
L 464.994366 231.562089 
L 467.061527 230.535365 
L 469.128688 229.157012 
L 471.195849 227.48944 
L 474.296591 224.597376 
L 483.598816 215.453067 
L 485.665977 213.790526 
L 487.733138 212.400649 
L 489.800299 211.33395 
L 491.86746 210.631926 
L 493.934621 210.326424 
L 496.001783 210.439349 
L 498.068944 210.982717 
L 500.136105 211.959044 
L 502.203266 213.362032 
L 504.270427 215.177524 
L 506.337588 217.384668 
L 508.404749 219.957226 
L 510.47191 222.864974 
L 512.539071 226.075108 
L 515.639813 231.382823 
L 518.740555 237.180736 
L 522.874877 245.492556 
L 528.042779 256.524271 
L 535.277843 272.642588 
L 554.915874 316.817265 
L 554.915874 316.817265 
" clip-path="url(#p0fe1d24800)" style="fill: none; stroke: #edd1cb; stroke-width: 1.5; stroke-linecap: square"/>
   </g>
   <g id="patch_24">
    <path d="M 328.949219 381.684375 
L 328.949219 49.529018 
" style="fill: none; stroke: #000000; stroke-width: 0.8; stroke-linejoin: miter; stroke-linecap: square"/>
   </g>
   <g id="patch_25">
    <path d="M 349.233345 391.684375 
L 496.149437 391.684375 
" style="fill: none; stroke: #000000; stroke-width: 0.8; stroke-linejoin: miter; stroke-linecap: square"/>
   </g>
   <g id="legend_1">
    <g id="patch_26">
     <path d="M 503.95625 83.694688 
L 558.2 83.694688 
Q 560.2 83.694688 560.2 81.694688 
L 560.2 39.92125 
Q 560.2 37.92125 558.2 37.92125 
L 503.95625 37.92125 
Q 501.95625 37.92125 501.95625 39.92125 
L 501.95625 81.694688 
Q 501.95625 83.694688 503.95625 83.694688 
z
" style="fill: #ffffff; opacity: 0.8; stroke: #cccccc; stroke-linejoin: miter"/>
    </g>
    <g id="text_25">
     <text style="font: 10px 'sans-serif'; text-anchor: start" x="520.517187" y="49.094688" transform="rotate(-0, 520.517187, 49.094688)">Year</text>
    </g>
    <g id="patch_27">
     <path d="M 505.95625 63.3525 
L 525.95625 63.3525 
L 525.95625 56.3525 
L 505.95625 56.3525 
z
" style="fill: #edd1cb; fill-opacity: 0.5; stroke: #000000; stroke-linejoin: miter"/>
    </g>
    <g id="text_26">
     <text style="font: 10px 'sans-serif'; text-anchor: start" x="533.95625" y="63.3525" transform="rotate(-0, 533.95625, 63.3525)">2018</text>
    </g>
    <g id="patch_28">
     <path d="M 505.95625 77.610313 
L 525.95625 77.610313 
L 525.95625 70.610313 
L 505.95625 70.610313 
z
" style="fill: #2d1e3e; fill-opacity: 0.5; stroke: #000000; stroke-linejoin: miter"/>
    </g>
    <g id="text_27">
     <text style="font: 10px 'sans-serif'; text-anchor: start" x="533.95625" y="77.610313" transform="rotate(-0, 533.95625, 77.610313)">2022</text>
    </g>
   </g>
  </g>
  <g id="text_28">
   <text style="font: 12px 'sans-serif'; text-anchor: middle" x="288" y="17.38875" transform="rotate(-0, 288, 17.38875)">How many years of software development experience for Australia (without 95 percentile)</text>
  </g>
 </g>
 <defs>
  <clipPath id="pf915be2ce2">
   <rect x="52.179688" y="32.92125" width="226.250781" height="348.763125"/>
  </clipPath>
  <clipPath id="p0fe1d24800">
   <rect x="338.949219" y="32.92125" width="226.250781" height="348.763125"/>
  </clipPath>
 </defs>
</svg>
