<?xml version="1.0" encoding="utf-8" standalone="no"?>
<!DOCTYPE svg PUBLIC "-//W3C//DTD SVG 1.1//EN"
  "http://www.w3.org/Graphics/SVG/1.1/DTD/svg11.dtd">
<svg height="432pt" version="1.1" viewBox="0 0 576 432" width="576pt" xmlns="http://www.w3.org/2000/svg" xmlns:xlink="http://www.w3.org/1999/xlink">
 <metadata>
  <rdf:RDF xmlns:cc="http://creativecommons.org/ns#" xmlns:dc="http://purl.org/dc/elements/1.1/" xmlns:rdf="http://www.w3.org/1999/02/22-rdf-syntax-ns#">
   <cc:Work>
    <dc:type rdf:resource="http://purl.org/dc/dcmitype/StillImage"/>
    <dc:date>2021-03-29T15:52:56.815757</dc:date>
    <dc:format>image/svg+xml</dc:format>
    <dc:creator>
     <cc:Agent>
      <dc:title>Matplotlib v3.4.0, https://matplotlib.org/</dc:title>
     </cc:Agent>
    </dc:creator>
   </cc:Work>
  </rdf:RDF>
 </metadata>
 <defs>
  <style type="text/css">*{stroke-linecap:butt;stroke-linejoin:round;}</style>
 </defs>
 <g id="figure_1">
  <g id="patch_1">
   <path d="M 0 432 
L 576 432 
L 576 0 
L 0 0 
z
" style="fill:#ffffff;"/>
  </g>
  <g id="axes_1">
   <g id="patch_2">
    <path d="M 54.203125 380.84375 
L 277.829688 380.84375 
L 277.829688 33.21375 
L 54.203125 33.21375 
z
" style="fill:#ffffff;"/>
   </g>
   <g id="patch_3">
    <path clip-path="url(#p6d0a55f1f8)" d="M 76.565781 316.003672 
L 255.467031 316.003672 
L 255.467031 147.092543 
L 76.565781 147.092543 
L 76.565781 316.003672 
z
" style="fill:#3274a1;stroke:#3f3f3f;stroke-linejoin:miter;stroke-width:1.5;"/>
   </g>
   <g id="matplotlib.axis_1">
    <g id="xtick_1">
     <g id="line2d_1">
      <defs>
       <path d="M 0 0 
L 0 3.5 
" id="mc3a356a46d" style="stroke:#000000;stroke-width:0.8;"/>
      </defs>
      <g>
       <use style="stroke:#000000;stroke-width:0.8;" x="166.016406" xlink:href="#mc3a356a46d" y="390.84375"/>
      </g>
     </g>
     <g id="text_1">
      <text style="font-family:DejaVu Sans;font-size:10px;font-stretch:normal;font-style:normal;font-weight:normal;text-anchor:middle;" transform="rotate(-0, 166.016406, 405.442187)" x="166.016406" y="405.442187">2018</text>
     </g>
    </g>
    <g id="text_2">
     <text style="font-family:DejaVu Sans;font-size:10px;font-stretch:normal;font-style:normal;font-weight:normal;text-anchor:middle;" transform="rotate(-0, 166.016406, 419.120313)" x="166.016406" y="419.120313">Year</text>
    </g>
   </g>
   <g id="matplotlib.axis_2">
    <g id="ytick_1">
     <g id="line2d_2">
      <defs>
       <path d="M 0 0 
L -3.5 0 
" id="m82278324de" style="stroke:#000000;stroke-width:0.8;"/>
      </defs>
      <g>
       <use style="stroke:#000000;stroke-width:0.8;" x="44.203125" xlink:href="#m82278324de" y="375.939879"/>
      </g>
     </g>
     <g id="text_3">
      <text style="font-family:DejaVu Sans;font-size:10px;font-stretch:normal;font-style:normal;font-weight:normal;text-anchor:end;" transform="rotate(-0, 37.203125, 379.739097)" x="37.203125" y="379.739097">0</text>
     </g>
    </g>
    <g id="ytick_2">
     <g id="line2d_3">
      <g>
       <use style="stroke:#000000;stroke-width:0.8;" x="44.203125" xlink:href="#m82278324de" y="321.452418"/>
      </g>
     </g>
     <g id="text_4">
      <text style="font-family:DejaVu Sans;font-size:10px;font-stretch:normal;font-style:normal;font-weight:normal;text-anchor:end;" transform="rotate(-0, 37.203125, 325.251636)" x="37.203125" y="325.251636">5</text>
     </g>
    </g>
    <g id="ytick_3">
     <g id="line2d_4">
      <g>
       <use style="stroke:#000000;stroke-width:0.8;" x="44.203125" xlink:href="#m82278324de" y="266.964957"/>
      </g>
     </g>
     <g id="text_5">
      <text style="font-family:DejaVu Sans;font-size:10px;font-stretch:normal;font-style:normal;font-weight:normal;text-anchor:end;" transform="rotate(-0, 37.203125, 270.764176)" x="37.203125" y="270.764176">10</text>
     </g>
    </g>
    <g id="ytick_4">
     <g id="line2d_5">
      <g>
       <use style="stroke:#000000;stroke-width:0.8;" x="44.203125" xlink:href="#m82278324de" y="212.477496"/>
      </g>
     </g>
     <g id="text_6">
      <text style="font-family:DejaVu Sans;font-size:10px;font-stretch:normal;font-style:normal;font-weight:normal;text-anchor:end;" transform="rotate(-0, 37.203125, 216.276715)" x="37.203125" y="216.276715">15</text>
     </g>
    </g>
    <g id="ytick_5">
     <g id="line2d_6">
      <g>
       <use style="stroke:#000000;stroke-width:0.8;" x="44.203125" xlink:href="#m82278324de" y="157.990035"/>
      </g>
     </g>
     <g id="text_7">
      <text style="font-family:DejaVu Sans;font-size:10px;font-stretch:normal;font-style:normal;font-weight:normal;text-anchor:end;" transform="rotate(-0, 37.203125, 161.789254)" x="37.203125" y="161.789254">20</text>
     </g>
    </g>
    <g id="ytick_6">
     <g id="line2d_7">
      <g>
       <use style="stroke:#000000;stroke-width:0.8;" x="44.203125" xlink:href="#m82278324de" y="103.502574"/>
      </g>
     </g>
     <g id="text_8">
      <text style="font-family:DejaVu Sans;font-size:10px;font-stretch:normal;font-style:normal;font-weight:normal;text-anchor:end;" transform="rotate(-0, 37.203125, 107.301793)" x="37.203125" y="107.301793">25</text>
     </g>
    </g>
    <g id="ytick_7">
     <g id="line2d_8">
      <g>
       <use style="stroke:#000000;stroke-width:0.8;" x="44.203125" xlink:href="#m82278324de" y="49.015114"/>
      </g>
     </g>
     <g id="text_9">
      <text style="font-family:DejaVu Sans;font-size:10px;font-stretch:normal;font-style:normal;font-weight:normal;text-anchor:end;" transform="rotate(-0, 37.203125, 52.814332)" x="37.203125" y="52.814332">30</text>
     </g>
    </g>
    <g id="text_10">
     <text style="font-family:DejaVu Sans;font-size:10px;font-stretch:normal;font-style:normal;font-weight:normal;text-anchor:middle;" transform="rotate(-90, 18.398438, 207.02875)" x="18.398438" y="207.02875">Value</text>
    </g>
   </g>
   <g id="line2d_9">
    <path clip-path="url(#p6d0a55f1f8)" d="M 166.016406 316.003672 
L 166.016406 365.042386 
" style="fill:none;stroke:#3f3f3f;stroke-linecap:square;stroke-width:1.5;"/>
   </g>
   <g id="line2d_10">
    <path clip-path="url(#p6d0a55f1f8)" d="M 166.016406 147.092543 
L 166.016406 49.015114 
" style="fill:none;stroke:#3f3f3f;stroke-linecap:square;stroke-width:1.5;"/>
   </g>
   <g id="line2d_11">
    <path clip-path="url(#p6d0a55f1f8)" d="M 121.291094 365.042386 
L 210.741719 365.042386 
" style="fill:none;stroke:#3f3f3f;stroke-linecap:square;stroke-width:1.5;"/>
   </g>
   <g id="line2d_12">
    <path clip-path="url(#p6d0a55f1f8)" d="M 121.291094 49.015114 
L 210.741719 49.015114 
" style="fill:none;stroke:#3f3f3f;stroke-linecap:square;stroke-width:1.5;"/>
   </g>
   <g id="line2d_13"/>
   <g id="line2d_14">
    <path clip-path="url(#p6d0a55f1f8)" d="M 76.565781 212.477496 
L 255.467031 212.477496 
" style="fill:none;stroke:#3f3f3f;stroke-linecap:square;stroke-width:1.5;"/>
   </g>
   <g id="patch_4">
    <path d="M 44.203125 375.939879 
L 44.203125 49.015114 
" style="fill:none;stroke:#000000;stroke-linecap:square;stroke-linejoin:miter;stroke-width:0.8;"/>
   </g>
   <g id="patch_5">
    <path d="M 166.016406 390.84375 
L 166.016406 390.84375 
" style="fill:none;stroke:#000000;stroke-linecap:square;stroke-linejoin:miter;stroke-width:0.8;"/>
   </g>
   <g id="PathCollection_1">
    <defs>
     <path d="M 0 2.5 
C 0.663008 2.5 1.29895 2.236584 1.767767 1.767767 
C 2.236584 1.29895 2.5 0.663008 2.5 -0 
C 2.5 -0.663008 2.236584 -1.29895 1.767767 -1.767767 
C 1.29895 -2.236584 0.663008 -2.5 0 -2.5 
C -0.663008 -2.5 -1.29895 -2.236584 -1.767767 -1.767767 
C -2.236584 -1.29895 -2.5 -0.663008 -2.5 0 
C -2.5 0.663008 -2.236584 1.29895 -1.767767 1.767767 
C -1.29895 2.236584 -0.663008 2.5 0 2.5 
z
" id="C0_0_77057b9605"/>
    </defs>
    <g clip-path="url(#p6d0a55f1f8)">
     <use style="fill:#808080;fill-opacity:0.75;" x="166.016406" xlink:href="#C0_0_77057b9605" y="365.042386"/>
    </g>
    <g clip-path="url(#p6d0a55f1f8)">
     <use style="fill:#808080;fill-opacity:0.75;" x="160.23037" xlink:href="#C0_0_77057b9605" y="365.042386"/>
    </g>
    <g clip-path="url(#p6d0a55f1f8)">
     <use style="fill:#808080;fill-opacity:0.75;" x="166.016406" xlink:href="#C0_0_77057b9605" y="354.144894"/>
    </g>
    <g clip-path="url(#p6d0a55f1f8)">
     <use style="fill:#808080;fill-opacity:0.75;" x="160.23037" xlink:href="#C0_0_77057b9605" y="354.144894"/>
    </g>
    <g clip-path="url(#p6d0a55f1f8)">
     <use style="fill:#808080;fill-opacity:0.75;" x="171.802443" xlink:href="#C0_0_77057b9605" y="354.144894"/>
    </g>
    <g clip-path="url(#p6d0a55f1f8)">
     <use style="fill:#808080;fill-opacity:0.75;" x="166.016406" xlink:href="#C0_0_77057b9605" y="343.247402"/>
    </g>
    <g clip-path="url(#p6d0a55f1f8)">
     <use style="fill:#808080;fill-opacity:0.75;" x="166.016406" xlink:href="#C0_0_77057b9605" y="332.34991"/>
    </g>
    <g clip-path="url(#p6d0a55f1f8)">
     <use style="fill:#808080;fill-opacity:0.75;" x="166.016406" xlink:href="#C0_0_77057b9605" y="321.452418"/>
    </g>
    <g clip-path="url(#p6d0a55f1f8)">
     <use style="fill:#808080;fill-opacity:0.75;" x="160.23037" xlink:href="#C0_0_77057b9605" y="321.452418"/>
    </g>
    <g clip-path="url(#p6d0a55f1f8)">
     <use style="fill:#808080;fill-opacity:0.75;" x="166.016406" xlink:href="#C0_0_77057b9605" y="310.554926"/>
    </g>
    <g clip-path="url(#p6d0a55f1f8)">
     <use style="fill:#808080;fill-opacity:0.75;" x="160.23037" xlink:href="#C0_0_77057b9605" y="310.554926"/>
    </g>
    <g clip-path="url(#p6d0a55f1f8)">
     <use style="fill:#808080;fill-opacity:0.75;" x="171.802443" xlink:href="#C0_0_77057b9605" y="310.554926"/>
    </g>
    <g clip-path="url(#p6d0a55f1f8)">
     <use style="fill:#808080;fill-opacity:0.75;" x="166.016406" xlink:href="#C0_0_77057b9605" y="266.964957"/>
    </g>
    <g clip-path="url(#p6d0a55f1f8)">
     <use style="fill:#808080;fill-opacity:0.75;" x="160.23037" xlink:href="#C0_0_77057b9605" y="266.964957"/>
    </g>
    <g clip-path="url(#p6d0a55f1f8)">
     <use style="fill:#808080;fill-opacity:0.75;" x="171.802443" xlink:href="#C0_0_77057b9605" y="266.964957"/>
    </g>
    <g clip-path="url(#p6d0a55f1f8)">
     <use style="fill:#808080;fill-opacity:0.75;" x="166.016406" xlink:href="#C0_0_77057b9605" y="245.169973"/>
    </g>
    <g clip-path="url(#p6d0a55f1f8)">
     <use style="fill:#808080;fill-opacity:0.75;" x="166.016406" xlink:href="#C0_0_77057b9605" y="223.374988"/>
    </g>
    <g clip-path="url(#p6d0a55f1f8)">
     <use style="fill:#808080;fill-opacity:0.75;" x="166.016406" xlink:href="#C0_0_77057b9605" y="212.477496"/>
    </g>
    <g clip-path="url(#p6d0a55f1f8)">
     <use style="fill:#808080;fill-opacity:0.75;" x="160.23037" xlink:href="#C0_0_77057b9605" y="212.477496"/>
    </g>
    <g clip-path="url(#p6d0a55f1f8)">
     <use style="fill:#808080;fill-opacity:0.75;" x="166.016406" xlink:href="#C0_0_77057b9605" y="190.682512"/>
    </g>
    <g clip-path="url(#p6d0a55f1f8)">
     <use style="fill:#808080;fill-opacity:0.75;" x="166.016406" xlink:href="#C0_0_77057b9605" y="179.78502"/>
    </g>
    <g clip-path="url(#p6d0a55f1f8)">
     <use style="fill:#808080;fill-opacity:0.75;" x="166.016406" xlink:href="#C0_0_77057b9605" y="157.990035"/>
    </g>
    <g clip-path="url(#p6d0a55f1f8)">
     <use style="fill:#808080;fill-opacity:0.75;" x="160.23037" xlink:href="#C0_0_77057b9605" y="157.990035"/>
    </g>
    <g clip-path="url(#p6d0a55f1f8)">
     <use style="fill:#808080;fill-opacity:0.75;" x="171.802443" xlink:href="#C0_0_77057b9605" y="157.990035"/>
    </g>
    <g clip-path="url(#p6d0a55f1f8)">
     <use style="fill:#808080;fill-opacity:0.75;" x="154.444333" xlink:href="#C0_0_77057b9605" y="157.990035"/>
    </g>
    <g clip-path="url(#p6d0a55f1f8)">
     <use style="fill:#808080;fill-opacity:0.75;" x="177.58848" xlink:href="#C0_0_77057b9605" y="157.990035"/>
    </g>
    <g clip-path="url(#p6d0a55f1f8)">
     <use style="fill:#808080;fill-opacity:0.75;" x="166.016406" xlink:href="#C0_0_77057b9605" y="136.195051"/>
    </g>
    <g clip-path="url(#p6d0a55f1f8)">
     <use style="fill:#808080;fill-opacity:0.75;" x="166.016406" xlink:href="#C0_0_77057b9605" y="125.297559"/>
    </g>
    <g clip-path="url(#p6d0a55f1f8)">
     <use style="fill:#808080;fill-opacity:0.75;" x="166.016406" xlink:href="#C0_0_77057b9605" y="103.502574"/>
    </g>
    <g clip-path="url(#p6d0a55f1f8)">
     <use style="fill:#808080;fill-opacity:0.75;" x="160.23037" xlink:href="#C0_0_77057b9605" y="103.502574"/>
    </g>
    <g clip-path="url(#p6d0a55f1f8)">
     <use style="fill:#808080;fill-opacity:0.75;" x="166.016406" xlink:href="#C0_0_77057b9605" y="59.912606"/>
    </g>
    <g clip-path="url(#p6d0a55f1f8)">
     <use style="fill:#808080;fill-opacity:0.75;" x="166.016406" xlink:href="#C0_0_77057b9605" y="49.015114"/>
    </g>
    <g clip-path="url(#p6d0a55f1f8)">
     <use style="fill:#808080;fill-opacity:0.75;" x="160.23037" xlink:href="#C0_0_77057b9605" y="49.015114"/>
    </g>
    <g clip-path="url(#p6d0a55f1f8)">
     <use style="fill:#808080;fill-opacity:0.75;" x="171.802443" xlink:href="#C0_0_77057b9605" y="49.015114"/>
    </g>
    <g clip-path="url(#p6d0a55f1f8)">
     <use style="fill:#808080;fill-opacity:0.75;" x="154.444333" xlink:href="#C0_0_77057b9605" y="49.015114"/>
    </g>
   </g>
  </g>
  <g id="axes_2">
   <g id="patch_6">
    <path d="M 341.573438 380.84375 
L 565.2 380.84375 
L 565.2 33.21375 
L 341.573438 33.21375 
z
" style="fill:#ffffff;"/>
   </g>
   <g id="patch_7">
    <path clip-path="url(#pc77d4886dd)" d="M 402.319751 380.84375 
L 408.32763 380.84375 
L 408.32763 49.76756 
L 402.319751 49.76756 
z
" style="fill:#1f77b4;opacity:0.4;"/>
   </g>
   <g id="patch_8">
    <path clip-path="url(#pc77d4886dd)" d="M 408.32763 380.84375 
L 414.335508 380.84375 
L 414.335508 248.413274 
L 408.32763 248.413274 
z
" style="fill:#1f77b4;opacity:0.4;"/>
   </g>
   <g id="patch_9">
    <path clip-path="url(#pc77d4886dd)" d="M 414.335508 380.84375 
L 420.343387 380.84375 
L 420.343387 49.76756 
L 414.335508 49.76756 
z
" style="fill:#1f77b4;opacity:0.4;"/>
   </g>
   <g id="patch_10">
    <path clip-path="url(#pc77d4886dd)" d="M 420.343387 380.84375 
L 426.351265 380.84375 
L 426.351265 380.84375 
L 420.343387 380.84375 
z
" style="fill:#1f77b4;opacity:0.4;"/>
   </g>
   <g id="patch_11">
    <path clip-path="url(#pc77d4886dd)" d="M 426.351265 380.84375 
L 432.359144 380.84375 
L 432.359144 380.84375 
L 426.351265 380.84375 
z
" style="fill:#1f77b4;opacity:0.4;"/>
   </g>
   <g id="patch_12">
    <path clip-path="url(#pc77d4886dd)" d="M 432.359144 380.84375 
L 438.367022 380.84375 
L 438.367022 182.198036 
L 432.359144 182.198036 
z
" style="fill:#1f77b4;opacity:0.4;"/>
   </g>
   <g id="patch_13">
    <path clip-path="url(#pc77d4886dd)" d="M 438.367022 380.84375 
L 444.374901 380.84375 
L 444.374901 314.628512 
L 438.367022 314.628512 
z
" style="fill:#1f77b4;opacity:0.4;"/>
   </g>
   <g id="patch_14">
    <path clip-path="url(#pc77d4886dd)" d="M 444.374901 380.84375 
L 450.382779 380.84375 
L 450.382779 314.628512 
L 444.374901 314.628512 
z
" style="fill:#1f77b4;opacity:0.4;"/>
   </g>
   <g id="patch_15">
    <path clip-path="url(#pc77d4886dd)" d="M 450.382779 380.84375 
L 456.390658 380.84375 
L 456.390658 248.413274 
L 450.382779 248.413274 
z
" style="fill:#1f77b4;opacity:0.4;"/>
   </g>
   <g id="patch_16">
    <path clip-path="url(#pc77d4886dd)" d="M 456.390658 380.84375 
L 462.398537 380.84375 
L 462.398537 248.413274 
L 456.390658 248.413274 
z
" style="fill:#1f77b4;opacity:0.4;"/>
   </g>
   <g id="patch_17">
    <path clip-path="url(#pc77d4886dd)" d="M 462.398537 380.84375 
L 468.406415 380.84375 
L 468.406415 380.84375 
L 462.398537 380.84375 
z
" style="fill:#1f77b4;opacity:0.4;"/>
   </g>
   <g id="patch_18">
    <path clip-path="url(#pc77d4886dd)" d="M 468.406415 380.84375 
L 474.414294 380.84375 
L 474.414294 49.76756 
L 468.406415 49.76756 
z
" style="fill:#1f77b4;opacity:0.4;"/>
   </g>
   <g id="patch_19">
    <path clip-path="url(#pc77d4886dd)" d="M 474.414294 380.84375 
L 480.422172 380.84375 
L 480.422172 248.413274 
L 474.414294 248.413274 
z
" style="fill:#1f77b4;opacity:0.4;"/>
   </g>
   <g id="patch_20">
    <path clip-path="url(#pc77d4886dd)" d="M 480.422172 380.84375 
L 486.430051 380.84375 
L 486.430051 380.84375 
L 480.422172 380.84375 
z
" style="fill:#1f77b4;opacity:0.4;"/>
   </g>
   <g id="patch_21">
    <path clip-path="url(#pc77d4886dd)" d="M 486.430051 380.84375 
L 492.437929 380.84375 
L 492.437929 248.413274 
L 486.430051 248.413274 
z
" style="fill:#1f77b4;opacity:0.4;"/>
   </g>
   <g id="patch_22">
    <path clip-path="url(#pc77d4886dd)" d="M 492.437929 380.84375 
L 498.445808 380.84375 
L 498.445808 380.84375 
L 492.437929 380.84375 
z
" style="fill:#1f77b4;opacity:0.4;"/>
   </g>
   <g id="patch_23">
    <path clip-path="url(#pc77d4886dd)" d="M 498.445808 380.84375 
L 504.453686 380.84375 
L 504.453686 49.76756 
L 498.445808 49.76756 
z
" style="fill:#1f77b4;opacity:0.4;"/>
   </g>
   <g id="matplotlib.axis_3">
    <g id="xtick_2">
     <g id="line2d_15">
      <g>
       <use style="stroke:#000000;stroke-width:0.8;" x="398.797892" xlink:href="#mc3a356a46d" y="390.84375"/>
      </g>
     </g>
     <g id="text_11">
      <text style="font-family:DejaVu Sans;font-size:10px;font-stretch:normal;font-style:normal;font-weight:normal;text-anchor:middle;" transform="rotate(-0, 398.797892, 405.442187)" x="398.797892" y="405.442187">0</text>
     </g>
    </g>
    <g id="xtick_3">
     <g id="line2d_16">
      <g>
       <use style="stroke:#000000;stroke-width:0.8;" x="469.235088" xlink:href="#mc3a356a46d" y="390.84375"/>
      </g>
     </g>
     <g id="text_12">
      <text style="font-family:DejaVu Sans;font-size:10px;font-stretch:normal;font-style:normal;font-weight:normal;text-anchor:middle;" transform="rotate(-0, 469.235088, 405.442187)" x="469.235088" y="405.442187">20</text>
     </g>
    </g>
    <g id="xtick_4">
     <g id="line2d_17">
      <g>
       <use style="stroke:#000000;stroke-width:0.8;" x="539.672284" xlink:href="#mc3a356a46d" y="390.84375"/>
      </g>
     </g>
     <g id="text_13">
      <text style="font-family:DejaVu Sans;font-size:10px;font-stretch:normal;font-style:normal;font-weight:normal;text-anchor:middle;" transform="rotate(-0, 539.672284, 405.442187)" x="539.672284" y="405.442187">40</text>
     </g>
    </g>
    <g id="text_14">
     <text style="font-family:DejaVu Sans;font-size:10px;font-stretch:normal;font-style:normal;font-weight:normal;text-anchor:middle;" transform="rotate(-0, 453.386719, 419.120313)" x="453.386719" y="419.120313">Value</text>
    </g>
   </g>
   <g id="matplotlib.axis_4">
    <g id="ytick_8">
     <g id="line2d_18">
      <g>
       <use style="stroke:#000000;stroke-width:0.8;" x="331.573438" xlink:href="#m82278324de" y="380.84375"/>
      </g>
     </g>
     <g id="text_15">
      <text style="font-family:DejaVu Sans;font-size:10px;font-stretch:normal;font-style:normal;font-weight:normal;text-anchor:end;" transform="rotate(-0, 324.573438, 384.642969)" x="324.573438" y="384.642969">0.00</text>
     </g>
    </g>
    <g id="ytick_9">
     <g id="line2d_19">
      <g>
       <use style="stroke:#000000;stroke-width:0.8;" x="331.573438" xlink:href="#m82278324de" y="341.309358"/>
      </g>
     </g>
     <g id="text_16">
      <text style="font-family:DejaVu Sans;font-size:10px;font-stretch:normal;font-style:normal;font-weight:normal;text-anchor:end;" transform="rotate(-0, 324.573438, 345.108577)" x="324.573438" y="345.108577">0.01</text>
     </g>
    </g>
    <g id="ytick_10">
     <g id="line2d_20">
      <g>
       <use style="stroke:#000000;stroke-width:0.8;" x="331.573438" xlink:href="#m82278324de" y="301.774966"/>
      </g>
     </g>
     <g id="text_17">
      <text style="font-family:DejaVu Sans;font-size:10px;font-stretch:normal;font-style:normal;font-weight:normal;text-anchor:end;" transform="rotate(-0, 324.573438, 305.574184)" x="324.573438" y="305.574184">0.02</text>
     </g>
    </g>
    <g id="ytick_11">
     <g id="line2d_21">
      <g>
       <use style="stroke:#000000;stroke-width:0.8;" x="331.573438" xlink:href="#m82278324de" y="262.240574"/>
      </g>
     </g>
     <g id="text_18">
      <text style="font-family:DejaVu Sans;font-size:10px;font-stretch:normal;font-style:normal;font-weight:normal;text-anchor:end;" transform="rotate(-0, 324.573438, 266.039792)" x="324.573438" y="266.039792">0.03</text>
     </g>
    </g>
    <g id="ytick_12">
     <g id="line2d_22">
      <g>
       <use style="stroke:#000000;stroke-width:0.8;" x="331.573438" xlink:href="#m82278324de" y="222.706181"/>
      </g>
     </g>
     <g id="text_19">
      <text style="font-family:DejaVu Sans;font-size:10px;font-stretch:normal;font-style:normal;font-weight:normal;text-anchor:end;" transform="rotate(-0, 324.573438, 226.5054)" x="324.573438" y="226.5054">0.04</text>
     </g>
    </g>
    <g id="ytick_13">
     <g id="line2d_23">
      <g>
       <use style="stroke:#000000;stroke-width:0.8;" x="331.573438" xlink:href="#m82278324de" y="183.171789"/>
      </g>
     </g>
     <g id="text_20">
      <text style="font-family:DejaVu Sans;font-size:10px;font-stretch:normal;font-style:normal;font-weight:normal;text-anchor:end;" transform="rotate(-0, 324.573438, 186.971008)" x="324.573438" y="186.971008">0.05</text>
     </g>
    </g>
    <g id="ytick_14">
     <g id="line2d_24">
      <g>
       <use style="stroke:#000000;stroke-width:0.8;" x="331.573438" xlink:href="#m82278324de" y="143.637397"/>
      </g>
     </g>
     <g id="text_21">
      <text style="font-family:DejaVu Sans;font-size:10px;font-stretch:normal;font-style:normal;font-weight:normal;text-anchor:end;" transform="rotate(-0, 324.573438, 147.436616)" x="324.573438" y="147.436616">0.06</text>
     </g>
    </g>
    <g id="ytick_15">
     <g id="line2d_25">
      <g>
       <use style="stroke:#000000;stroke-width:0.8;" x="331.573438" xlink:href="#m82278324de" y="104.103005"/>
      </g>
     </g>
     <g id="text_22">
      <text style="font-family:DejaVu Sans;font-size:10px;font-stretch:normal;font-style:normal;font-weight:normal;text-anchor:end;" transform="rotate(-0, 324.573438, 107.902224)" x="324.573438" y="107.902224">0.07</text>
     </g>
    </g>
    <g id="ytick_16">
     <g id="line2d_26">
      <g>
       <use style="stroke:#000000;stroke-width:0.8;" x="331.573438" xlink:href="#m82278324de" y="64.568613"/>
      </g>
     </g>
     <g id="text_23">
      <text style="font-family:DejaVu Sans;font-size:10px;font-stretch:normal;font-style:normal;font-weight:normal;text-anchor:end;" transform="rotate(-0, 324.573438, 68.367831)" x="324.573438" y="68.367831">0.08</text>
     </g>
    </g>
    <g id="text_24">
     <text style="font-family:DejaVu Sans;font-size:10px;font-stretch:normal;font-style:normal;font-weight:normal;text-anchor:middle;" transform="rotate(-90, 296.228125, 207.02875)" x="296.228125" y="207.02875">Density</text>
    </g>
   </g>
   <g id="line2d_27">
    <path clip-path="url(#pc77d4886dd)" d="M 351.738281 380.40997 
L 354.803058 380.084255 
L 357.867835 379.554761 
L 359.91102 379.041068 
L 361.954205 378.356994 
L 363.997389 377.459847 
L 366.040574 376.301182 
L 368.083759 374.827663 
L 370.126943 372.982555 
L 372.170128 370.707909 
L 374.213313 367.947434 
L 376.256497 364.650019 
L 378.299682 360.773741 
L 380.342867 356.290145 
L 382.386051 351.188491 
L 384.429236 345.479607 
L 386.472421 339.198949 
L 389.537198 328.848797 
L 393.623567 313.846772 
L 399.753121 291.058141 
L 402.817898 280.719692 
L 404.861083 274.574984 
L 406.904267 269.176713 
L 408.947452 264.620147 
L 410.990637 260.966583 
L 412.012229 259.487551 
L 413.033821 258.240519 
L 414.055414 257.222715 
L 415.077006 256.429123 
L 416.098598 255.852595 
L 417.120191 255.483984 
L 418.141783 255.312308 
L 419.163375 255.324938 
L 420.184968 255.5078 
L 421.20656 255.845597 
L 423.249745 256.92008 
L 425.292929 258.410419 
L 428.357707 261.114394 
L 433.465668 265.755653 
L 435.508853 267.32822 
L 437.552038 268.611344 
L 439.595222 269.551209 
L 441.638407 270.117731 
L 443.681592 270.304274 
L 445.724776 270.12654 
L 447.767961 269.620748 
L 449.811146 268.841155 
L 452.875923 267.313032 
L 459.005477 264.017168 
L 461.048661 263.17198 
L 463.091846 262.58777 
L 465.135031 262.327792 
L 467.178215 262.43874 
L 469.2214 262.948546 
L 471.264585 263.865578 
L 473.307769 265.179379 
L 475.350954 266.862945 
L 477.394139 268.876392 
L 479.437323 271.171682 
L 482.5021 275.032356 
L 485.566877 279.257514 
L 489.653247 285.278555 
L 493.739616 291.686455 
L 496.804393 296.811786 
L 499.86917 302.30563 
L 502.933947 308.245241 
L 505.998724 314.661728 
L 510.085093 323.877436 
L 521.322609 350.010264 
L 524.387386 356.284664 
L 526.430571 360.068981 
L 528.473755 363.494874 
L 530.51694 366.544566 
L 532.560125 369.214154 
L 534.60331 371.512214 
L 536.646494 373.457745 
L 538.689679 375.077726 
L 540.732864 376.404555 
L 542.776048 377.473589 
L 544.819233 378.320971 
L 546.862418 378.981841 
L 549.927195 379.694301 
L 552.991972 380.156604 
L 555.035156 380.364794 
L 555.035156 380.364794 
" style="fill:none;stroke:#1f77b4;stroke-linecap:square;stroke-width:1.5;"/>
   </g>
   <g id="patch_24">
    <path d="M 331.573438 380.84375 
L 331.573438 64.568613 
" style="fill:none;stroke:#000000;stroke-linecap:square;stroke-linejoin:miter;stroke-width:0.8;"/>
   </g>
   <g id="patch_25">
    <path d="M 398.797892 390.84375 
L 539.672284 390.84375 
" style="fill:none;stroke:#000000;stroke-linecap:square;stroke-linejoin:miter;stroke-width:0.8;"/>
   </g>
   <g id="legend_1">
    <g id="patch_26">
     <path d="M 500.75 55.891875 
L 558.2 55.891875 
Q 560.2 55.891875 560.2 53.891875 
L 560.2 40.21375 
Q 560.2 38.21375 558.2 38.21375 
L 500.75 38.21375 
Q 498.75 38.21375 498.75 40.21375 
L 498.75 53.891875 
Q 498.75 55.891875 500.75 55.891875 
z
" style="fill:#ffffff;opacity:0.8;stroke:#cccccc;stroke-linejoin:miter;"/>
    </g>
    <g id="patch_27">
     <path d="M 502.75 49.812188 
L 522.75 49.812188 
L 522.75 42.812188 
L 502.75 42.812188 
z
" style="fill:#1f77b4;opacity:0.4;"/>
    </g>
    <g id="text_25">
     <text style="font-family:DejaVu Sans;font-size:10px;font-stretch:normal;font-style:normal;font-weight:normal;text-anchor:start;" transform="rotate(-0, 530.75, 49.812188)" x="530.75" y="49.812188">2018</text>
    </g>
   </g>
  </g>
  <g id="text_26">
   <text style="font-family:DejaVu Sans;font-size:12px;font-stretch:normal;font-style:normal;font-weight:normal;text-anchor:middle;" transform="rotate(-0, 288, 17.758125)" x="288" y="17.758125">How many years of software development experience for New Zealand (without 95 percentile)</text>
  </g>
 </g>
 <defs>
  <clipPath id="p6d0a55f1f8">
   <rect height="347.63" width="223.626563" x="54.203125" y="33.21375"/>
  </clipPath>
  <clipPath id="pc77d4886dd">
   <rect height="347.63" width="223.626562" x="341.573438" y="33.21375"/>
  </clipPath>
 </defs>
</svg>
