<?xml version="1.0" encoding="utf-8" standalone="no"?>
<!DOCTYPE svg PUBLIC "-//W3C//DTD SVG 1.1//EN"
  "http://www.w3.org/Graphics/SVG/1.1/DTD/svg11.dtd">
<svg height="432pt" version="1.1" viewBox="0 0 576 432" width="576pt" xmlns="http://www.w3.org/2000/svg" xmlns:xlink="http://www.w3.org/1999/xlink">
 <metadata>
  <rdf:RDF xmlns:cc="http://creativecommons.org/ns#" xmlns:dc="http://purl.org/dc/elements/1.1/" xmlns:rdf="http://www.w3.org/1999/02/22-rdf-syntax-ns#">
   <cc:Work>
    <dc:type rdf:resource="http://purl.org/dc/dcmitype/StillImage"/>
    <dc:date>2021-03-29T15:52:50.990511</dc:date>
    <dc:format>image/svg+xml</dc:format>
    <dc:creator>
     <cc:Agent>
      <dc:title>Matplotlib v3.4.0, https://matplotlib.org/</dc:title>
     </cc:Agent>
    </dc:creator>
   </cc:Work>
  </rdf:RDF>
 </metadata>
 <defs>
  <style type="text/css">*{stroke-linecap:butt;stroke-linejoin:round;}</style>
 </defs>
 <g id="figure_1">
  <g id="patch_1">
   <path d="M 0 432 
L 576 432 
L 576 0 
L 0 0 
z
" style="fill:#ffffff;"/>
  </g>
  <g id="axes_1">
   <g id="patch_2">
    <path d="M 54.203125 380.84375 
L 275.310819 380.84375 
L 275.310819 33.21375 
L 54.203125 33.21375 
z
" style="fill:#ffffff;"/>
   </g>
   <g id="patch_3">
    <path clip-path="url(#p3db5f5ab96)" d="M 76.313894 308.608945 
L 253.20005 308.608945 
L 253.20005 139.30862 
L 76.313894 139.30862 
L 76.313894 308.608945 
z
" style="fill:#3274a1;stroke:#3f3f3f;stroke-linejoin:miter;stroke-width:1.5;"/>
   </g>
   <g id="matplotlib.axis_1">
    <g id="xtick_1">
     <g id="line2d_1">
      <defs>
       <path d="M 0 0 
L 0 3.5 
" id="mc3a356a46d" style="stroke:#000000;stroke-width:0.8;"/>
      </defs>
      <g>
       <use style="stroke:#000000;stroke-width:0.8;" x="164.756972" xlink:href="#mc3a356a46d" y="390.84375"/>
      </g>
     </g>
     <g id="text_1">
      <text style="font-family:DejaVu Sans;font-size:10px;font-stretch:normal;font-style:normal;font-weight:normal;text-anchor:middle;" transform="rotate(-0, 164.756972, 405.442187)" x="164.756972" y="405.442187">2018</text>
     </g>
    </g>
    <g id="text_2">
     <text style="font-family:DejaVu Sans;font-size:10px;font-stretch:normal;font-style:normal;font-weight:normal;text-anchor:middle;" transform="rotate(-0, 164.756972, 419.120313)" x="164.756972" y="419.120313">Year</text>
    </g>
   </g>
   <g id="matplotlib.axis_2">
    <g id="ytick_1">
     <g id="line2d_2">
      <defs>
       <path d="M 0 0 
L -3.5 0 
" id="m82278324de" style="stroke:#000000;stroke-width:0.8;"/>
      </defs>
      <g>
       <use style="stroke:#000000;stroke-width:0.8;" x="44.203125" xlink:href="#m82278324de" y="365.042386"/>
      </g>
     </g>
     <g id="text_3">
      <text style="font-family:DejaVu Sans;font-size:10px;font-stretch:normal;font-style:normal;font-weight:normal;text-anchor:end;" transform="rotate(-0, 37.203125, 368.841605)" x="37.203125" y="368.841605">0</text>
     </g>
    </g>
    <g id="ytick_2">
     <g id="line2d_3">
      <g>
       <use style="stroke:#000000;stroke-width:0.8;" x="44.203125" xlink:href="#m82278324de" y="308.608945"/>
      </g>
     </g>
     <g id="text_4">
      <text style="font-family:DejaVu Sans;font-size:10px;font-stretch:normal;font-style:normal;font-weight:normal;text-anchor:end;" transform="rotate(-0, 37.203125, 312.408164)" x="37.203125" y="312.408164">5</text>
     </g>
    </g>
    <g id="ytick_3">
     <g id="line2d_4">
      <g>
       <use style="stroke:#000000;stroke-width:0.8;" x="44.203125" xlink:href="#m82278324de" y="252.175503"/>
      </g>
     </g>
     <g id="text_5">
      <text style="font-family:DejaVu Sans;font-size:10px;font-stretch:normal;font-style:normal;font-weight:normal;text-anchor:end;" transform="rotate(-0, 37.203125, 255.974722)" x="37.203125" y="255.974722">10</text>
     </g>
    </g>
    <g id="ytick_4">
     <g id="line2d_5">
      <g>
       <use style="stroke:#000000;stroke-width:0.8;" x="44.203125" xlink:href="#m82278324de" y="195.742062"/>
      </g>
     </g>
     <g id="text_6">
      <text style="font-family:DejaVu Sans;font-size:10px;font-stretch:normal;font-style:normal;font-weight:normal;text-anchor:end;" transform="rotate(-0, 37.203125, 199.54128)" x="37.203125" y="199.54128">15</text>
     </g>
    </g>
    <g id="ytick_5">
     <g id="line2d_6">
      <g>
       <use style="stroke:#000000;stroke-width:0.8;" x="44.203125" xlink:href="#m82278324de" y="139.30862"/>
      </g>
     </g>
     <g id="text_7">
      <text style="font-family:DejaVu Sans;font-size:10px;font-stretch:normal;font-style:normal;font-weight:normal;text-anchor:end;" transform="rotate(-0, 37.203125, 143.107839)" x="37.203125" y="143.107839">20</text>
     </g>
    </g>
    <g id="ytick_6">
     <g id="line2d_7">
      <g>
       <use style="stroke:#000000;stroke-width:0.8;" x="44.203125" xlink:href="#m82278324de" y="82.875179"/>
      </g>
     </g>
     <g id="text_8">
      <text style="font-family:DejaVu Sans;font-size:10px;font-stretch:normal;font-style:normal;font-weight:normal;text-anchor:end;" transform="rotate(-0, 37.203125, 86.674397)" x="37.203125" y="86.674397">25</text>
     </g>
    </g>
    <g id="text_9">
     <text style="font-family:DejaVu Sans;font-size:10px;font-stretch:normal;font-style:normal;font-weight:normal;text-anchor:middle;" transform="rotate(-90, 18.398438, 207.02875)" x="18.398438" y="207.02875">Value</text>
    </g>
   </g>
   <g id="line2d_8">
    <path clip-path="url(#p3db5f5ab96)" d="M 164.756972 308.608945 
L 164.756972 365.042386 
" style="fill:none;stroke:#3f3f3f;stroke-linecap:square;stroke-width:1.5;"/>
   </g>
   <g id="line2d_9">
    <path clip-path="url(#p3db5f5ab96)" d="M 164.756972 139.30862 
L 164.756972 49.015114 
" style="fill:none;stroke:#3f3f3f;stroke-linecap:square;stroke-width:1.5;"/>
   </g>
   <g id="line2d_10">
    <path clip-path="url(#p3db5f5ab96)" d="M 120.535433 365.042386 
L 208.978511 365.042386 
" style="fill:none;stroke:#3f3f3f;stroke-linecap:square;stroke-width:1.5;"/>
   </g>
   <g id="line2d_11">
    <path clip-path="url(#p3db5f5ab96)" d="M 120.535433 49.015114 
L 208.978511 49.015114 
" style="fill:none;stroke:#3f3f3f;stroke-linecap:square;stroke-width:1.5;"/>
   </g>
   <g id="line2d_12"/>
   <g id="line2d_13">
    <path clip-path="url(#p3db5f5ab96)" d="M 76.313894 252.175503 
L 253.20005 252.175503 
" style="fill:none;stroke:#3f3f3f;stroke-linecap:square;stroke-width:1.5;"/>
   </g>
   <g id="patch_4">
    <path d="M 44.203125 365.042386 
L 44.203125 82.875179 
" style="fill:none;stroke:#000000;stroke-linecap:square;stroke-linejoin:miter;stroke-width:0.8;"/>
   </g>
   <g id="patch_5">
    <path d="M 164.756972 390.84375 
L 164.756972 390.84375 
" style="fill:none;stroke:#000000;stroke-linecap:square;stroke-linejoin:miter;stroke-width:0.8;"/>
   </g>
   <g id="PathCollection_1">
    <defs>
     <path d="M 0 2.5 
C 0.663008 2.5 1.29895 2.236584 1.767767 1.767767 
C 2.236584 1.29895 2.5 0.663008 2.5 -0 
C 2.5 -0.663008 2.236584 -1.29895 1.767767 -1.767767 
C 1.29895 -2.236584 0.663008 -2.5 0 -2.5 
C -0.663008 -2.5 -1.29895 -2.236584 -1.767767 -1.767767 
C -2.236584 -1.29895 -2.5 -0.663008 -2.5 0 
C -2.5 0.663008 -2.236584 1.29895 -1.767767 1.767767 
C -1.29895 2.236584 -0.663008 2.5 0 2.5 
z
" id="C0_0_77057b9605"/>
    </defs>
    <g clip-path="url(#p3db5f5ab96)">
     <use style="fill:#808080;fill-opacity:0.75;" x="164.756972" xlink:href="#C0_0_77057b9605" y="365.042386"/>
    </g>
    <g clip-path="url(#p3db5f5ab96)">
     <use style="fill:#808080;fill-opacity:0.75;" x="160.399731" xlink:href="#C0_0_77057b9605" y="361.65638"/>
    </g>
    <g clip-path="url(#p3db5f5ab96)">
     <use style="fill:#808080;fill-opacity:0.75;" x="165.559228" xlink:href="#C0_0_77057b9605" y="359.399042"/>
    </g>
    <g clip-path="url(#p3db5f5ab96)">
     <use style="fill:#808080;fill-opacity:0.75;" x="164.756972" xlink:href="#C0_0_77057b9605" y="353.755698"/>
    </g>
    <g clip-path="url(#p3db5f5ab96)">
     <use style="fill:#808080;fill-opacity:0.75;" x="159.036108" xlink:href="#C0_0_77057b9605" y="353.755698"/>
    </g>
    <g clip-path="url(#p3db5f5ab96)">
     <use style="fill:#808080;fill-opacity:0.75;" x="170.477837" xlink:href="#C0_0_77057b9605" y="353.755698"/>
    </g>
    <g clip-path="url(#p3db5f5ab96)">
     <use style="fill:#808080;fill-opacity:0.75;" x="153.315243" xlink:href="#C0_0_77057b9605" y="353.755698"/>
    </g>
    <g clip-path="url(#p3db5f5ab96)">
     <use style="fill:#808080;fill-opacity:0.75;" x="164.756972" xlink:href="#C0_0_77057b9605" y="342.46901"/>
    </g>
    <g clip-path="url(#p3db5f5ab96)">
     <use style="fill:#808080;fill-opacity:0.75;" x="159.036108" xlink:href="#C0_0_77057b9605" y="342.46901"/>
    </g>
    <g clip-path="url(#p3db5f5ab96)">
     <use style="fill:#808080;fill-opacity:0.75;" x="170.477837" xlink:href="#C0_0_77057b9605" y="342.46901"/>
    </g>
    <g clip-path="url(#p3db5f5ab96)">
     <use style="fill:#808080;fill-opacity:0.75;" x="153.315243" xlink:href="#C0_0_77057b9605" y="342.46901"/>
    </g>
    <g clip-path="url(#p3db5f5ab96)">
     <use style="fill:#808080;fill-opacity:0.75;" x="176.198701" xlink:href="#C0_0_77057b9605" y="342.46901"/>
    </g>
    <g clip-path="url(#p3db5f5ab96)">
     <use style="fill:#808080;fill-opacity:0.75;" x="147.594379" xlink:href="#C0_0_77057b9605" y="342.46901"/>
    </g>
    <g clip-path="url(#p3db5f5ab96)">
     <use style="fill:#808080;fill-opacity:0.75;" x="181.919565" xlink:href="#C0_0_77057b9605" y="342.46901"/>
    </g>
    <g clip-path="url(#p3db5f5ab96)">
     <use style="fill:#808080;fill-opacity:0.75;" x="164.756972" xlink:href="#C0_0_77057b9605" y="331.182321"/>
    </g>
    <g clip-path="url(#p3db5f5ab96)">
     <use style="fill:#808080;fill-opacity:0.75;" x="159.036108" xlink:href="#C0_0_77057b9605" y="331.182321"/>
    </g>
    <g clip-path="url(#p3db5f5ab96)">
     <use style="fill:#808080;fill-opacity:0.75;" x="164.756972" xlink:href="#C0_0_77057b9605" y="319.895633"/>
    </g>
    <g clip-path="url(#p3db5f5ab96)">
     <use style="fill:#808080;fill-opacity:0.75;" x="159.036108" xlink:href="#C0_0_77057b9605" y="319.895633"/>
    </g>
    <g clip-path="url(#p3db5f5ab96)">
     <use style="fill:#808080;fill-opacity:0.75;" x="164.756972" xlink:href="#C0_0_77057b9605" y="308.608945"/>
    </g>
    <g clip-path="url(#p3db5f5ab96)">
     <use style="fill:#808080;fill-opacity:0.75;" x="159.036108" xlink:href="#C0_0_77057b9605" y="308.608945"/>
    </g>
    <g clip-path="url(#p3db5f5ab96)">
     <use style="fill:#808080;fill-opacity:0.75;" x="170.477837" xlink:href="#C0_0_77057b9605" y="308.608945"/>
    </g>
    <g clip-path="url(#p3db5f5ab96)">
     <use style="fill:#808080;fill-opacity:0.75;" x="153.315243" xlink:href="#C0_0_77057b9605" y="308.608945"/>
    </g>
    <g clip-path="url(#p3db5f5ab96)">
     <use style="fill:#808080;fill-opacity:0.75;" x="176.198701" xlink:href="#C0_0_77057b9605" y="308.608945"/>
    </g>
    <g clip-path="url(#p3db5f5ab96)">
     <use style="fill:#808080;fill-opacity:0.75;" x="147.594379" xlink:href="#C0_0_77057b9605" y="308.608945"/>
    </g>
    <g clip-path="url(#p3db5f5ab96)">
     <use style="fill:#808080;fill-opacity:0.75;" x="181.919565" xlink:href="#C0_0_77057b9605" y="308.608945"/>
    </g>
    <g clip-path="url(#p3db5f5ab96)">
     <use style="fill:#808080;fill-opacity:0.75;" x="141.873515" xlink:href="#C0_0_77057b9605" y="308.608945"/>
    </g>
    <g clip-path="url(#p3db5f5ab96)">
     <use style="fill:#808080;fill-opacity:0.75;" x="164.756972" xlink:href="#C0_0_77057b9605" y="297.322256"/>
    </g>
    <g clip-path="url(#p3db5f5ab96)">
     <use style="fill:#808080;fill-opacity:0.75;" x="159.036108" xlink:href="#C0_0_77057b9605" y="297.322256"/>
    </g>
    <g clip-path="url(#p3db5f5ab96)">
     <use style="fill:#808080;fill-opacity:0.75;" x="164.756972" xlink:href="#C0_0_77057b9605" y="286.035568"/>
    </g>
    <g clip-path="url(#p3db5f5ab96)">
     <use style="fill:#808080;fill-opacity:0.75;" x="159.036108" xlink:href="#C0_0_77057b9605" y="286.035568"/>
    </g>
    <g clip-path="url(#p3db5f5ab96)">
     <use style="fill:#808080;fill-opacity:0.75;" x="164.756972" xlink:href="#C0_0_77057b9605" y="274.74888"/>
    </g>
    <g clip-path="url(#p3db5f5ab96)">
     <use style="fill:#808080;fill-opacity:0.75;" x="159.036108" xlink:href="#C0_0_77057b9605" y="274.74888"/>
    </g>
    <g clip-path="url(#p3db5f5ab96)">
     <use style="fill:#808080;fill-opacity:0.75;" x="170.477837" xlink:href="#C0_0_77057b9605" y="274.74888"/>
    </g>
    <g clip-path="url(#p3db5f5ab96)">
     <use style="fill:#808080;fill-opacity:0.75;" x="164.756972" xlink:href="#C0_0_77057b9605" y="263.462192"/>
    </g>
    <g clip-path="url(#p3db5f5ab96)">
     <use style="fill:#808080;fill-opacity:0.75;" x="159.036108" xlink:href="#C0_0_77057b9605" y="263.462192"/>
    </g>
    <g clip-path="url(#p3db5f5ab96)">
     <use style="fill:#808080;fill-opacity:0.75;" x="170.477837" xlink:href="#C0_0_77057b9605" y="263.462192"/>
    </g>
    <g clip-path="url(#p3db5f5ab96)">
     <use style="fill:#808080;fill-opacity:0.75;" x="164.756972" xlink:href="#C0_0_77057b9605" y="252.175503"/>
    </g>
    <g clip-path="url(#p3db5f5ab96)">
     <use style="fill:#808080;fill-opacity:0.75;" x="159.036108" xlink:href="#C0_0_77057b9605" y="252.175503"/>
    </g>
    <g clip-path="url(#p3db5f5ab96)">
     <use style="fill:#808080;fill-opacity:0.75;" x="170.477837" xlink:href="#C0_0_77057b9605" y="252.175503"/>
    </g>
    <g clip-path="url(#p3db5f5ab96)">
     <use style="fill:#808080;fill-opacity:0.75;" x="153.315243" xlink:href="#C0_0_77057b9605" y="252.175503"/>
    </g>
    <g clip-path="url(#p3db5f5ab96)">
     <use style="fill:#808080;fill-opacity:0.75;" x="176.198701" xlink:href="#C0_0_77057b9605" y="252.175503"/>
    </g>
    <g clip-path="url(#p3db5f5ab96)">
     <use style="fill:#808080;fill-opacity:0.75;" x="147.594379" xlink:href="#C0_0_77057b9605" y="252.175503"/>
    </g>
    <g clip-path="url(#p3db5f5ab96)">
     <use style="fill:#808080;fill-opacity:0.75;" x="181.919565" xlink:href="#C0_0_77057b9605" y="252.175503"/>
    </g>
    <g clip-path="url(#p3db5f5ab96)">
     <use style="fill:#808080;fill-opacity:0.75;" x="141.873515" xlink:href="#C0_0_77057b9605" y="252.175503"/>
    </g>
    <g clip-path="url(#p3db5f5ab96)">
     <use style="fill:#808080;fill-opacity:0.75;" x="187.64043" xlink:href="#C0_0_77057b9605" y="252.175503"/>
    </g>
    <g clip-path="url(#p3db5f5ab96)">
     <use style="fill:#808080;fill-opacity:0.75;" x="136.15265" xlink:href="#C0_0_77057b9605" y="252.175503"/>
    </g>
    <g clip-path="url(#p3db5f5ab96)">
     <use style="fill:#808080;fill-opacity:0.75;" x="193.361294" xlink:href="#C0_0_77057b9605" y="252.175503"/>
    </g>
    <g clip-path="url(#p3db5f5ab96)">
     <use style="fill:#808080;fill-opacity:0.75;" x="130.431786" xlink:href="#C0_0_77057b9605" y="252.175503"/>
    </g>
    <g clip-path="url(#p3db5f5ab96)">
     <use style="fill:#808080;fill-opacity:0.75;" x="164.756972" xlink:href="#C0_0_77057b9605" y="240.888815"/>
    </g>
    <g clip-path="url(#p3db5f5ab96)">
     <use style="fill:#808080;fill-opacity:0.75;" x="159.036108" xlink:href="#C0_0_77057b9605" y="240.888815"/>
    </g>
    <g clip-path="url(#p3db5f5ab96)">
     <use style="fill:#808080;fill-opacity:0.75;" x="164.756972" xlink:href="#C0_0_77057b9605" y="229.602127"/>
    </g>
    <g clip-path="url(#p3db5f5ab96)">
     <use style="fill:#808080;fill-opacity:0.75;" x="159.036108" xlink:href="#C0_0_77057b9605" y="229.602127"/>
    </g>
    <g clip-path="url(#p3db5f5ab96)">
     <use style="fill:#808080;fill-opacity:0.75;" x="170.477837" xlink:href="#C0_0_77057b9605" y="229.602127"/>
    </g>
    <g clip-path="url(#p3db5f5ab96)">
     <use style="fill:#808080;fill-opacity:0.75;" x="164.756972" xlink:href="#C0_0_77057b9605" y="195.742062"/>
    </g>
    <g clip-path="url(#p3db5f5ab96)">
     <use style="fill:#808080;fill-opacity:0.75;" x="159.036108" xlink:href="#C0_0_77057b9605" y="195.742062"/>
    </g>
    <g clip-path="url(#p3db5f5ab96)">
     <use style="fill:#808080;fill-opacity:0.75;" x="170.477837" xlink:href="#C0_0_77057b9605" y="195.742062"/>
    </g>
    <g clip-path="url(#p3db5f5ab96)">
     <use style="fill:#808080;fill-opacity:0.75;" x="153.315243" xlink:href="#C0_0_77057b9605" y="195.742062"/>
    </g>
    <g clip-path="url(#p3db5f5ab96)">
     <use style="fill:#808080;fill-opacity:0.75;" x="164.756972" xlink:href="#C0_0_77057b9605" y="184.455373"/>
    </g>
    <g clip-path="url(#p3db5f5ab96)">
     <use style="fill:#808080;fill-opacity:0.75;" x="164.756972" xlink:href="#C0_0_77057b9605" y="173.168685"/>
    </g>
    <g clip-path="url(#p3db5f5ab96)">
     <use style="fill:#808080;fill-opacity:0.75;" x="159.036108" xlink:href="#C0_0_77057b9605" y="173.168685"/>
    </g>
    <g clip-path="url(#p3db5f5ab96)">
     <use style="fill:#808080;fill-opacity:0.75;" x="164.756972" xlink:href="#C0_0_77057b9605" y="161.881997"/>
    </g>
    <g clip-path="url(#p3db5f5ab96)">
     <use style="fill:#808080;fill-opacity:0.75;" x="159.036108" xlink:href="#C0_0_77057b9605" y="161.881997"/>
    </g>
    <g clip-path="url(#p3db5f5ab96)">
     <use style="fill:#808080;fill-opacity:0.75;" x="170.477837" xlink:href="#C0_0_77057b9605" y="161.881997"/>
    </g>
    <g clip-path="url(#p3db5f5ab96)">
     <use style="fill:#808080;fill-opacity:0.75;" x="164.756972" xlink:href="#C0_0_77057b9605" y="150.595308"/>
    </g>
    <g clip-path="url(#p3db5f5ab96)">
     <use style="fill:#808080;fill-opacity:0.75;" x="164.756972" xlink:href="#C0_0_77057b9605" y="139.30862"/>
    </g>
    <g clip-path="url(#p3db5f5ab96)">
     <use style="fill:#808080;fill-opacity:0.75;" x="159.036108" xlink:href="#C0_0_77057b9605" y="139.30862"/>
    </g>
    <g clip-path="url(#p3db5f5ab96)">
     <use style="fill:#808080;fill-opacity:0.75;" x="170.477837" xlink:href="#C0_0_77057b9605" y="139.30862"/>
    </g>
    <g clip-path="url(#p3db5f5ab96)">
     <use style="fill:#808080;fill-opacity:0.75;" x="153.315243" xlink:href="#C0_0_77057b9605" y="139.30862"/>
    </g>
    <g clip-path="url(#p3db5f5ab96)">
     <use style="fill:#808080;fill-opacity:0.75;" x="176.198701" xlink:href="#C0_0_77057b9605" y="139.30862"/>
    </g>
    <g clip-path="url(#p3db5f5ab96)">
     <use style="fill:#808080;fill-opacity:0.75;" x="147.594379" xlink:href="#C0_0_77057b9605" y="139.30862"/>
    </g>
    <g clip-path="url(#p3db5f5ab96)">
     <use style="fill:#808080;fill-opacity:0.75;" x="181.919565" xlink:href="#C0_0_77057b9605" y="139.30862"/>
    </g>
    <g clip-path="url(#p3db5f5ab96)">
     <use style="fill:#808080;fill-opacity:0.75;" x="141.873515" xlink:href="#C0_0_77057b9605" y="139.30862"/>
    </g>
    <g clip-path="url(#p3db5f5ab96)">
     <use style="fill:#808080;fill-opacity:0.75;" x="187.64043" xlink:href="#C0_0_77057b9605" y="139.30862"/>
    </g>
    <g clip-path="url(#p3db5f5ab96)">
     <use style="fill:#808080;fill-opacity:0.75;" x="136.15265" xlink:href="#C0_0_77057b9605" y="139.30862"/>
    </g>
    <g clip-path="url(#p3db5f5ab96)">
     <use style="fill:#808080;fill-opacity:0.75;" x="193.361294" xlink:href="#C0_0_77057b9605" y="139.30862"/>
    </g>
    <g clip-path="url(#p3db5f5ab96)">
     <use style="fill:#808080;fill-opacity:0.75;" x="130.431786" xlink:href="#C0_0_77057b9605" y="139.30862"/>
    </g>
    <g clip-path="url(#p3db5f5ab96)">
     <use style="fill:#808080;fill-opacity:0.75;" x="164.756972" xlink:href="#C0_0_77057b9605" y="116.735244"/>
    </g>
    <g clip-path="url(#p3db5f5ab96)">
     <use style="fill:#808080;fill-opacity:0.75;" x="159.036108" xlink:href="#C0_0_77057b9605" y="116.735244"/>
    </g>
    <g clip-path="url(#p3db5f5ab96)">
     <use style="fill:#808080;fill-opacity:0.75;" x="170.477837" xlink:href="#C0_0_77057b9605" y="116.735244"/>
    </g>
    <g clip-path="url(#p3db5f5ab96)">
     <use style="fill:#808080;fill-opacity:0.75;" x="164.756972" xlink:href="#C0_0_77057b9605" y="105.448555"/>
    </g>
    <g clip-path="url(#p3db5f5ab96)">
     <use style="fill:#808080;fill-opacity:0.75;" x="164.756972" xlink:href="#C0_0_77057b9605" y="82.875179"/>
    </g>
    <g clip-path="url(#p3db5f5ab96)">
     <use style="fill:#808080;fill-opacity:0.75;" x="159.036108" xlink:href="#C0_0_77057b9605" y="82.875179"/>
    </g>
    <g clip-path="url(#p3db5f5ab96)">
     <use style="fill:#808080;fill-opacity:0.75;" x="170.477837" xlink:href="#C0_0_77057b9605" y="82.875179"/>
    </g>
    <g clip-path="url(#p3db5f5ab96)">
     <use style="fill:#808080;fill-opacity:0.75;" x="153.315243" xlink:href="#C0_0_77057b9605" y="82.875179"/>
    </g>
    <g clip-path="url(#p3db5f5ab96)">
     <use style="fill:#808080;fill-opacity:0.75;" x="176.198701" xlink:href="#C0_0_77057b9605" y="82.875179"/>
    </g>
    <g clip-path="url(#p3db5f5ab96)">
     <use style="fill:#808080;fill-opacity:0.75;" x="147.594379" xlink:href="#C0_0_77057b9605" y="82.875179"/>
    </g>
    <g clip-path="url(#p3db5f5ab96)">
     <use style="fill:#808080;fill-opacity:0.75;" x="181.919565" xlink:href="#C0_0_77057b9605" y="82.875179"/>
    </g>
    <g clip-path="url(#p3db5f5ab96)">
     <use style="fill:#808080;fill-opacity:0.75;" x="164.756972" xlink:href="#C0_0_77057b9605" y="49.015114"/>
    </g>
    <g clip-path="url(#p3db5f5ab96)">
     <use style="fill:#808080;fill-opacity:0.75;" x="159.036108" xlink:href="#C0_0_77057b9605" y="49.015114"/>
    </g>
    <g clip-path="url(#p3db5f5ab96)">
     <use style="fill:#808080;fill-opacity:0.75;" x="170.477837" xlink:href="#C0_0_77057b9605" y="49.015114"/>
    </g>
   </g>
  </g>
  <g id="axes_2">
   <g id="patch_6">
    <path d="M 339.054569 380.84375 
L 560.162264 380.84375 
L 560.162264 33.21375 
L 339.054569 33.21375 
z
" style="fill:#ffffff;"/>
   </g>
   <g id="patch_7">
    <path clip-path="url(#p5ca4917d8c)" d="M 390.856734 380.84375 
L 393.46792 380.84375 
L 393.46792 298.074702 
L 390.856734 298.074702 
z
" style="fill:#1f77b4;opacity:0.4;"/>
   </g>
   <g id="patch_8">
    <path clip-path="url(#p5ca4917d8c)" d="M 393.46792 380.84375 
L 396.079106 380.84375 
L 396.079106 270.48502 
L 393.46792 270.48502 
z
" style="fill:#1f77b4;opacity:0.4;"/>
   </g>
   <g id="patch_9">
    <path clip-path="url(#p5ca4917d8c)" d="M 396.079106 380.84375 
L 398.690292 380.84375 
L 398.690292 380.84375 
L 396.079106 380.84375 
z
" style="fill:#1f77b4;opacity:0.4;"/>
   </g>
   <g id="patch_10">
    <path clip-path="url(#p5ca4917d8c)" d="M 398.690292 380.84375 
L 401.301478 380.84375 
L 401.301478 187.715972 
L 398.690292 187.715972 
z
" style="fill:#1f77b4;opacity:0.4;"/>
   </g>
   <g id="patch_11">
    <path clip-path="url(#p5ca4917d8c)" d="M 401.301478 380.84375 
L 403.912664 380.84375 
L 403.912664 325.664385 
L 401.301478 325.664385 
z
" style="fill:#1f77b4;opacity:0.4;"/>
   </g>
   <g id="patch_12">
    <path clip-path="url(#p5ca4917d8c)" d="M 403.912664 380.84375 
L 406.523849 380.84375 
L 406.523849 380.84375 
L 403.912664 380.84375 
z
" style="fill:#1f77b4;opacity:0.4;"/>
   </g>
   <g id="patch_13">
    <path clip-path="url(#p5ca4917d8c)" d="M 406.523849 380.84375 
L 409.135035 380.84375 
L 409.135035 325.664385 
L 406.523849 325.664385 
z
" style="fill:#1f77b4;opacity:0.4;"/>
   </g>
   <g id="patch_14">
    <path clip-path="url(#p5ca4917d8c)" d="M 409.135035 380.84375 
L 411.746221 380.84375 
L 411.746221 380.84375 
L 409.135035 380.84375 
z
" style="fill:#1f77b4;opacity:0.4;"/>
   </g>
   <g id="patch_15">
    <path clip-path="url(#p5ca4917d8c)" d="M 411.746221 380.84375 
L 414.357407 380.84375 
L 414.357407 160.12629 
L 411.746221 160.12629 
z
" style="fill:#1f77b4;opacity:0.4;"/>
   </g>
   <g id="patch_16">
    <path clip-path="url(#p5ca4917d8c)" d="M 414.357407 380.84375 
L 416.968593 380.84375 
L 416.968593 325.664385 
L 414.357407 325.664385 
z
" style="fill:#1f77b4;opacity:0.4;"/>
   </g>
   <g id="patch_17">
    <path clip-path="url(#p5ca4917d8c)" d="M 416.968593 380.84375 
L 419.579779 380.84375 
L 419.579779 380.84375 
L 416.968593 380.84375 
z
" style="fill:#1f77b4;opacity:0.4;"/>
   </g>
   <g id="patch_18">
    <path clip-path="url(#p5ca4917d8c)" d="M 419.579779 380.84375 
L 422.190965 380.84375 
L 422.190965 325.664385 
L 419.579779 325.664385 
z
" style="fill:#1f77b4;opacity:0.4;"/>
   </g>
   <g id="patch_19">
    <path clip-path="url(#p5ca4917d8c)" d="M 422.190965 380.84375 
L 424.802151 380.84375 
L 424.802151 298.074702 
L 422.190965 298.074702 
z
" style="fill:#1f77b4;opacity:0.4;"/>
   </g>
   <g id="patch_20">
    <path clip-path="url(#p5ca4917d8c)" d="M 424.802151 380.84375 
L 427.413337 380.84375 
L 427.413337 380.84375 
L 424.802151 380.84375 
z
" style="fill:#1f77b4;opacity:0.4;"/>
   </g>
   <g id="patch_21">
    <path clip-path="url(#p5ca4917d8c)" d="M 427.413337 380.84375 
L 430.024522 380.84375 
L 430.024522 298.074702 
L 427.413337 298.074702 
z
" style="fill:#1f77b4;opacity:0.4;"/>
   </g>
   <g id="patch_22">
    <path clip-path="url(#p5ca4917d8c)" d="M 430.024522 380.84375 
L 432.635708 380.84375 
L 432.635708 380.84375 
L 430.024522 380.84375 
z
" style="fill:#1f77b4;opacity:0.4;"/>
   </g>
   <g id="patch_23">
    <path clip-path="url(#p5ca4917d8c)" d="M 432.635708 380.84375 
L 435.246894 380.84375 
L 435.246894 49.76756 
L 432.635708 49.76756 
z
" style="fill:#1f77b4;opacity:0.4;"/>
   </g>
   <g id="patch_24">
    <path clip-path="url(#p5ca4917d8c)" d="M 435.246894 380.84375 
L 437.85808 380.84375 
L 437.85808 325.664385 
L 435.246894 325.664385 
z
" style="fill:#1f77b4;opacity:0.4;"/>
   </g>
   <g id="patch_25">
    <path clip-path="url(#p5ca4917d8c)" d="M 437.85808 380.84375 
L 440.469266 380.84375 
L 440.469266 380.84375 
L 437.85808 380.84375 
z
" style="fill:#1f77b4;opacity:0.4;"/>
   </g>
   <g id="patch_26">
    <path clip-path="url(#p5ca4917d8c)" d="M 440.469266 380.84375 
L 443.080452 380.84375 
L 443.080452 298.074702 
L 440.469266 298.074702 
z
" style="fill:#1f77b4;opacity:0.4;"/>
   </g>
   <g id="patch_27">
    <path clip-path="url(#p5ca4917d8c)" d="M 443.080452 380.84375 
L 445.691638 380.84375 
L 445.691638 380.84375 
L 443.080452 380.84375 
z
" style="fill:#1f77b4;opacity:0.4;"/>
   </g>
   <g id="patch_28">
    <path clip-path="url(#p5ca4917d8c)" d="M 445.691638 380.84375 
L 448.302824 380.84375 
L 448.302824 380.84375 
L 445.691638 380.84375 
z
" style="fill:#1f77b4;opacity:0.4;"/>
   </g>
   <g id="patch_29">
    <path clip-path="url(#p5ca4917d8c)" d="M 448.302824 380.84375 
L 450.91401 380.84375 
L 450.91401 380.84375 
L 448.302824 380.84375 
z
" style="fill:#1f77b4;opacity:0.4;"/>
   </g>
   <g id="patch_30">
    <path clip-path="url(#p5ca4917d8c)" d="M 450.91401 380.84375 
L 453.525195 380.84375 
L 453.525195 380.84375 
L 450.91401 380.84375 
z
" style="fill:#1f77b4;opacity:0.4;"/>
   </g>
   <g id="patch_31">
    <path clip-path="url(#p5ca4917d8c)" d="M 453.525195 380.84375 
L 456.136381 380.84375 
L 456.136381 270.48502 
L 453.525195 270.48502 
z
" style="fill:#1f77b4;opacity:0.4;"/>
   </g>
   <g id="patch_32">
    <path clip-path="url(#p5ca4917d8c)" d="M 456.136381 380.84375 
L 458.747567 380.84375 
L 458.747567 353.254067 
L 456.136381 353.254067 
z
" style="fill:#1f77b4;opacity:0.4;"/>
   </g>
   <g id="patch_33">
    <path clip-path="url(#p5ca4917d8c)" d="M 458.747567 380.84375 
L 461.358753 380.84375 
L 461.358753 380.84375 
L 458.747567 380.84375 
z
" style="fill:#1f77b4;opacity:0.4;"/>
   </g>
   <g id="patch_34">
    <path clip-path="url(#p5ca4917d8c)" d="M 461.358753 380.84375 
L 463.969939 380.84375 
L 463.969939 325.664385 
L 461.358753 325.664385 
z
" style="fill:#1f77b4;opacity:0.4;"/>
   </g>
   <g id="patch_35">
    <path clip-path="url(#p5ca4917d8c)" d="M 463.969939 380.84375 
L 466.581125 380.84375 
L 466.581125 298.074702 
L 463.969939 298.074702 
z
" style="fill:#1f77b4;opacity:0.4;"/>
   </g>
   <g id="patch_36">
    <path clip-path="url(#p5ca4917d8c)" d="M 466.581125 380.84375 
L 469.192311 380.84375 
L 469.192311 380.84375 
L 466.581125 380.84375 
z
" style="fill:#1f77b4;opacity:0.4;"/>
   </g>
   <g id="patch_37">
    <path clip-path="url(#p5ca4917d8c)" d="M 469.192311 380.84375 
L 471.803497 380.84375 
L 471.803497 353.254067 
L 469.192311 353.254067 
z
" style="fill:#1f77b4;opacity:0.4;"/>
   </g>
   <g id="patch_38">
    <path clip-path="url(#p5ca4917d8c)" d="M 471.803497 380.84375 
L 474.414683 380.84375 
L 474.414683 380.84375 
L 471.803497 380.84375 
z
" style="fill:#1f77b4;opacity:0.4;"/>
   </g>
   <g id="patch_39">
    <path clip-path="url(#p5ca4917d8c)" d="M 474.414683 380.84375 
L 477.025868 380.84375 
L 477.025868 49.76756 
L 474.414683 49.76756 
z
" style="fill:#1f77b4;opacity:0.4;"/>
   </g>
   <g id="patch_40">
    <path clip-path="url(#p5ca4917d8c)" d="M 477.025868 380.84375 
L 479.637054 380.84375 
L 479.637054 380.84375 
L 477.025868 380.84375 
z
" style="fill:#1f77b4;opacity:0.4;"/>
   </g>
   <g id="patch_41">
    <path clip-path="url(#p5ca4917d8c)" d="M 479.637054 380.84375 
L 482.24824 380.84375 
L 482.24824 380.84375 
L 479.637054 380.84375 
z
" style="fill:#1f77b4;opacity:0.4;"/>
   </g>
   <g id="patch_42">
    <path clip-path="url(#p5ca4917d8c)" d="M 482.24824 380.84375 
L 484.859426 380.84375 
L 484.859426 298.074702 
L 482.24824 298.074702 
z
" style="fill:#1f77b4;opacity:0.4;"/>
   </g>
   <g id="patch_43">
    <path clip-path="url(#p5ca4917d8c)" d="M 484.859426 380.84375 
L 487.470612 380.84375 
L 487.470612 353.254067 
L 484.859426 353.254067 
z
" style="fill:#1f77b4;opacity:0.4;"/>
   </g>
   <g id="patch_44">
    <path clip-path="url(#p5ca4917d8c)" d="M 487.470612 380.84375 
L 490.081798 380.84375 
L 490.081798 380.84375 
L 487.470612 380.84375 
z
" style="fill:#1f77b4;opacity:0.4;"/>
   </g>
   <g id="patch_45">
    <path clip-path="url(#p5ca4917d8c)" d="M 490.081798 380.84375 
L 492.692984 380.84375 
L 492.692984 380.84375 
L 490.081798 380.84375 
z
" style="fill:#1f77b4;opacity:0.4;"/>
   </g>
   <g id="patch_46">
    <path clip-path="url(#p5ca4917d8c)" d="M 492.692984 380.84375 
L 495.30417 380.84375 
L 495.30417 380.84375 
L 492.692984 380.84375 
z
" style="fill:#1f77b4;opacity:0.4;"/>
   </g>
   <g id="patch_47">
    <path clip-path="url(#p5ca4917d8c)" d="M 495.30417 380.84375 
L 497.915355 380.84375 
L 497.915355 187.715972 
L 495.30417 187.715972 
z
" style="fill:#1f77b4;opacity:0.4;"/>
   </g>
   <g id="patch_48">
    <path clip-path="url(#p5ca4917d8c)" d="M 497.915355 380.84375 
L 500.526541 380.84375 
L 500.526541 380.84375 
L 497.915355 380.84375 
z
" style="fill:#1f77b4;opacity:0.4;"/>
   </g>
   <g id="patch_49">
    <path clip-path="url(#p5ca4917d8c)" d="M 500.526541 380.84375 
L 503.137727 380.84375 
L 503.137727 380.84375 
L 500.526541 380.84375 
z
" style="fill:#1f77b4;opacity:0.4;"/>
   </g>
   <g id="patch_50">
    <path clip-path="url(#p5ca4917d8c)" d="M 503.137727 380.84375 
L 505.748913 380.84375 
L 505.748913 380.84375 
L 503.137727 380.84375 
z
" style="fill:#1f77b4;opacity:0.4;"/>
   </g>
   <g id="patch_51">
    <path clip-path="url(#p5ca4917d8c)" d="M 505.748913 380.84375 
L 508.360099 380.84375 
L 508.360099 298.074702 
L 505.748913 298.074702 
z
" style="fill:#1f77b4;opacity:0.4;"/>
   </g>
   <g id="matplotlib.axis_3">
    <g id="xtick_2">
     <g id="line2d_14">
      <g>
       <use style="stroke:#000000;stroke-width:0.8;" x="348.891247" xlink:href="#mc3a356a46d" y="390.84375"/>
      </g>
     </g>
     <g id="text_10">
      <text style="font-family:DejaVu Sans;font-size:10px;font-stretch:normal;font-style:normal;font-weight:normal;text-anchor:middle;" transform="rotate(-0, 348.891247, 405.442187)" x="348.891247" y="405.442187">−10</text>
     </g>
    </g>
    <g id="xtick_3">
     <g id="line2d_15">
      <g>
       <use style="stroke:#000000;stroke-width:0.8;" x="390.856734" xlink:href="#mc3a356a46d" y="390.84375"/>
      </g>
     </g>
     <g id="text_11">
      <text style="font-family:DejaVu Sans;font-size:10px;font-stretch:normal;font-style:normal;font-weight:normal;text-anchor:middle;" transform="rotate(-0, 390.856734, 405.442187)" x="390.856734" y="405.442187">0</text>
     </g>
    </g>
    <g id="xtick_4">
     <g id="line2d_16">
      <g>
       <use style="stroke:#000000;stroke-width:0.8;" x="432.822222" xlink:href="#mc3a356a46d" y="390.84375"/>
      </g>
     </g>
     <g id="text_12">
      <text style="font-family:DejaVu Sans;font-size:10px;font-stretch:normal;font-style:normal;font-weight:normal;text-anchor:middle;" transform="rotate(-0, 432.822222, 405.442187)" x="432.822222" y="405.442187">10</text>
     </g>
    </g>
    <g id="xtick_5">
     <g id="line2d_17">
      <g>
       <use style="stroke:#000000;stroke-width:0.8;" x="474.787709" xlink:href="#mc3a356a46d" y="390.84375"/>
      </g>
     </g>
     <g id="text_13">
      <text style="font-family:DejaVu Sans;font-size:10px;font-stretch:normal;font-style:normal;font-weight:normal;text-anchor:middle;" transform="rotate(-0, 474.787709, 405.442187)" x="474.787709" y="405.442187">20</text>
     </g>
    </g>
    <g id="xtick_6">
     <g id="line2d_18">
      <g>
       <use style="stroke:#000000;stroke-width:0.8;" x="516.753197" xlink:href="#mc3a356a46d" y="390.84375"/>
      </g>
     </g>
     <g id="text_14">
      <text style="font-family:DejaVu Sans;font-size:10px;font-stretch:normal;font-style:normal;font-weight:normal;text-anchor:middle;" transform="rotate(-0, 516.753197, 405.442187)" x="516.753197" y="405.442187">30</text>
     </g>
    </g>
    <g id="xtick_7">
     <g id="line2d_19">
      <g>
       <use style="stroke:#000000;stroke-width:0.8;" x="558.718684" xlink:href="#mc3a356a46d" y="390.84375"/>
      </g>
     </g>
     <g id="text_15">
      <text style="font-family:DejaVu Sans;font-size:10px;font-stretch:normal;font-style:normal;font-weight:normal;text-anchor:middle;" transform="rotate(-0, 558.718684, 405.442187)" x="558.718684" y="405.442187">40</text>
     </g>
    </g>
    <g id="text_16">
     <text style="font-family:DejaVu Sans;font-size:10px;font-stretch:normal;font-style:normal;font-weight:normal;text-anchor:middle;" transform="rotate(-0, 449.608417, 419.120313)" x="449.608417" y="419.120313">Value</text>
    </g>
   </g>
   <g id="matplotlib.axis_4">
    <g id="ytick_7">
     <g id="line2d_20">
      <g>
       <use style="stroke:#000000;stroke-width:0.8;" x="329.054569" xlink:href="#m82278324de" y="380.84375"/>
      </g>
     </g>
     <g id="text_17">
      <text style="font-family:DejaVu Sans;font-size:10px;font-stretch:normal;font-style:normal;font-weight:normal;text-anchor:end;" transform="rotate(-0, 322.054569, 384.642969)" x="322.054569" y="384.642969">0.00</text>
     </g>
    </g>
    <g id="ytick_8">
     <g id="line2d_21">
      <g>
       <use style="stroke:#000000;stroke-width:0.8;" x="329.054569" xlink:href="#m82278324de" y="303.592639"/>
      </g>
     </g>
     <g id="text_18">
      <text style="font-family:DejaVu Sans;font-size:10px;font-stretch:normal;font-style:normal;font-weight:normal;text-anchor:end;" transform="rotate(-0, 322.054569, 307.391858)" x="322.054569" y="307.391858">0.05</text>
     </g>
    </g>
    <g id="ytick_9">
     <g id="line2d_22">
      <g>
       <use style="stroke:#000000;stroke-width:0.8;" x="329.054569" xlink:href="#m82278324de" y="226.341528"/>
      </g>
     </g>
     <g id="text_19">
      <text style="font-family:DejaVu Sans;font-size:10px;font-stretch:normal;font-style:normal;font-weight:normal;text-anchor:end;" transform="rotate(-0, 322.054569, 230.140747)" x="322.054569" y="230.140747">0.10</text>
     </g>
    </g>
    <g id="ytick_10">
     <g id="line2d_23">
      <g>
       <use style="stroke:#000000;stroke-width:0.8;" x="329.054569" xlink:href="#m82278324de" y="149.090417"/>
      </g>
     </g>
     <g id="text_20">
      <text style="font-family:DejaVu Sans;font-size:10px;font-stretch:normal;font-style:normal;font-weight:normal;text-anchor:end;" transform="rotate(-0, 322.054569, 152.889635)" x="322.054569" y="152.889635">0.15</text>
     </g>
    </g>
    <g id="ytick_11">
     <g id="line2d_24">
      <g>
       <use style="stroke:#000000;stroke-width:0.8;" x="329.054569" xlink:href="#m82278324de" y="71.839306"/>
      </g>
     </g>
     <g id="text_21">
      <text style="font-family:DejaVu Sans;font-size:10px;font-stretch:normal;font-style:normal;font-weight:normal;text-anchor:end;" transform="rotate(-0, 322.054569, 75.638524)" x="322.054569" y="75.638524">0.20</text>
     </g>
    </g>
    <g id="text_22">
     <text style="font-family:DejaVu Sans;font-size:10px;font-stretch:normal;font-style:normal;font-weight:normal;text-anchor:middle;" transform="rotate(-90, 293.709257, 207.02875)" x="293.709257" y="207.02875">Density</text>
    </g>
   </g>
   <g id="line2d_25">
    <path clip-path="url(#p5ca4917d8c)" d="M 349.104919 380.728241 
L 354.155346 380.487782 
L 357.185602 380.184254 
L 360.215859 379.674043 
L 362.236029 379.170547 
L 364.2562 378.495549 
L 366.276371 377.610044 
L 368.296542 376.473395 
L 370.316713 375.045934 
L 372.336883 373.292228 
L 374.357054 371.18481 
L 376.377225 368.708043 
L 378.397396 365.861675 
L 380.417567 362.663593 
L 383.447823 357.294384 
L 387.488164 349.411136 
L 393.548677 337.472914 
L 396.578933 332.125522 
L 398.599104 328.958519 
L 400.619275 326.159083 
L 402.639445 323.743751 
L 404.659616 321.707161 
L 406.679787 320.025416 
L 408.699958 318.661396 
L 410.720129 317.571388 
L 412.740299 316.712215 
L 414.76047 316.047965 
L 416.780641 315.555407 
L 418.800812 315.22734 
L 420.820983 315.073296 
L 422.841153 315.117415 
L 424.861324 315.393632 
L 426.881495 315.938775 
L 428.901666 316.784481 
L 430.921837 317.949095 
L 432.942007 319.430754 
L 434.962178 321.202769 
L 437.992434 324.282271 
L 445.063032 331.82613 
L 447.083203 333.593852 
L 449.103374 335.014842 
L 451.123545 336.027615 
L 453.143715 336.600778 
L 455.163886 336.735563 
L 457.184057 336.465438 
L 459.204228 335.852986 
L 461.224399 334.984447 
L 469.305082 331.072236 
L 471.325253 330.497914 
L 473.345424 330.241758 
L 475.365594 330.343558 
L 477.385765 330.818291 
L 479.405936 331.658024 
L 481.426107 332.835854 
L 483.446278 334.311272 
L 485.466448 336.036129 
L 488.496705 338.982339 
L 492.537046 343.349687 
L 498.597559 350.345974 
L 508.698413 362.06322 
L 512.738754 366.37637 
L 515.76901 369.311565 
L 518.799267 371.916351 
L 521.829523 374.146238 
L 524.859779 375.983525 
L 527.890035 377.43798 
L 530.920291 378.542716 
L 533.950548 379.346911 
L 536.980804 379.907429 
L 541.021145 380.373351 
L 546.071572 380.664485 
L 550.111914 380.767707 
L 550.111914 380.767707 
" style="fill:none;stroke:#1f77b4;stroke-linecap:square;stroke-width:1.5;"/>
   </g>
   <g id="patch_52">
    <path d="M 329.054569 380.84375 
L 329.054569 71.839306 
" style="fill:none;stroke:#000000;stroke-linecap:square;stroke-linejoin:miter;stroke-width:0.8;"/>
   </g>
   <g id="patch_53">
    <path d="M 348.891247 390.84375 
L 558.718684 390.84375 
" style="fill:none;stroke:#000000;stroke-linecap:square;stroke-linejoin:miter;stroke-width:0.8;"/>
   </g>
   <g id="legend_1">
    <g id="patch_54">
     <path d="M 495.712264 55.891875 
L 553.162264 55.891875 
Q 555.162264 55.891875 555.162264 53.891875 
L 555.162264 40.21375 
Q 555.162264 38.21375 553.162264 38.21375 
L 495.712264 38.21375 
Q 493.712264 38.21375 493.712264 40.21375 
L 493.712264 53.891875 
Q 493.712264 55.891875 495.712264 55.891875 
z
" style="fill:#ffffff;opacity:0.8;stroke:#cccccc;stroke-linejoin:miter;"/>
    </g>
    <g id="patch_55">
     <path d="M 497.712264 49.812188 
L 517.712264 49.812188 
L 517.712264 42.812188 
L 497.712264 42.812188 
z
" style="fill:#1f77b4;opacity:0.4;"/>
    </g>
    <g id="text_23">
     <text style="font-family:DejaVu Sans;font-size:10px;font-stretch:normal;font-style:normal;font-weight:normal;text-anchor:start;" transform="rotate(-0, 525.712264, 49.812188)" x="525.712264" y="49.812188">2018</text>
    </g>
   </g>
  </g>
  <g id="text_24">
   <text style="font-family:DejaVu Sans;font-size:12px;font-stretch:normal;font-style:normal;font-weight:normal;text-anchor:middle;" transform="rotate(-0, 288, 17.758125)" x="288" y="17.758125">How many years of software development experience for Australia (without 95 percentile)</text>
  </g>
 </g>
 <defs>
  <clipPath id="p3db5f5ab96">
   <rect height="347.63" width="221.107694" x="54.203125" y="33.21375"/>
  </clipPath>
  <clipPath id="p5ca4917d8c">
   <rect height="347.63" width="221.107694" x="339.054569" y="33.21375"/>
  </clipPath>
 </defs>
</svg>
