<?xml version="1.0" encoding="utf-8" standalone="no"?>
<!DOCTYPE svg PUBLIC "-//W3C//DTD SVG 1.1//EN"
  "http://www.w3.org/Graphics/SVG/1.1/DTD/svg11.dtd">
<svg height="432pt" version="1.1" viewBox="0 0 576 432" width="576pt" xmlns="http://www.w3.org/2000/svg" xmlns:xlink="http://www.w3.org/1999/xlink">
 <metadata>
  <rdf:RDF xmlns:cc="http://creativecommons.org/ns#" xmlns:dc="http://purl.org/dc/elements/1.1/" xmlns:rdf="http://www.w3.org/1999/02/22-rdf-syntax-ns#">
   <cc:Work>
    <dc:type rdf:resource="http://purl.org/dc/dcmitype/StillImage"/>
    <dc:date>2021-03-29T21:59:40.004795</dc:date>
    <dc:format>image/svg+xml</dc:format>
    <dc:creator>
     <cc:Agent>
      <dc:title>Matplotlib v3.4.0, https://matplotlib.org/</dc:title>
     </cc:Agent>
    </dc:creator>
   </cc:Work>
  </rdf:RDF>
 </metadata>
 <defs>
  <style type="text/css">*{stroke-linecap:butt;stroke-linejoin:round;}</style>
 </defs>
 <g id="figure_1">
  <g id="patch_1">
   <path d="M 0 432 
L 576 432 
L 576 0 
L 0 0 
z
" style="fill:#ffffff;"/>
  </g>
  <g id="axes_1">
   <g id="patch_2">
    <path d="M 54.203125 380.84375 
L 275.369469 380.84375 
L 275.369469 33.21375 
L 54.203125 33.21375 
z
" style="fill:#ffffff;"/>
   </g>
   <g id="patch_3">
    <path clip-path="url(#p069b5bb3f5)" d="M 76.319759 308.608945 
L 253.252835 308.608945 
L 253.252835 139.30862 
L 76.319759 139.30862 
L 76.319759 308.608945 
z
" style="fill:#3274a1;stroke:#3f3f3f;stroke-linejoin:miter;stroke-width:1.5;"/>
   </g>
   <g id="matplotlib.axis_1">
    <g id="xtick_1">
     <g id="line2d_1">
      <defs>
       <path d="M 0 0 
L 0 3.5 
" id="mc3a356a46d" style="stroke:#000000;stroke-width:0.8;"/>
      </defs>
      <g>
       <use style="stroke:#000000;stroke-width:0.8;" x="164.786297" xlink:href="#mc3a356a46d" y="390.84375"/>
      </g>
     </g>
     <g id="text_1">
      <text style="font-family:DejaVu Sans;font-size:10px;font-stretch:normal;font-style:normal;font-weight:normal;text-anchor:middle;" transform="rotate(-0, 164.786297, 405.442187)" x="164.786297" y="405.442187">2018</text>
     </g>
    </g>
    <g id="text_2">
     <text style="font-family:DejaVu Sans;font-size:10px;font-stretch:normal;font-style:normal;font-weight:normal;text-anchor:middle;" transform="rotate(-0, 164.786297, 419.120313)" x="164.786297" y="419.120313">Year</text>
    </g>
   </g>
   <g id="matplotlib.axis_2">
    <g id="ytick_1">
     <g id="line2d_2">
      <defs>
       <path d="M 0 0 
L -3.5 0 
" id="m82278324de" style="stroke:#000000;stroke-width:0.8;"/>
      </defs>
      <g>
       <use style="stroke:#000000;stroke-width:0.8;" x="44.203125" xlink:href="#m82278324de" y="365.042386"/>
      </g>
     </g>
     <g id="text_3">
      <text style="font-family:DejaVu Sans;font-size:10px;font-stretch:normal;font-style:normal;font-weight:normal;text-anchor:end;" transform="rotate(-0, 37.203125, 368.841605)" x="37.203125" y="368.841605">0</text>
     </g>
    </g>
    <g id="ytick_2">
     <g id="line2d_3">
      <g>
       <use style="stroke:#000000;stroke-width:0.8;" x="44.203125" xlink:href="#m82278324de" y="308.608945"/>
      </g>
     </g>
     <g id="text_4">
      <text style="font-family:DejaVu Sans;font-size:10px;font-stretch:normal;font-style:normal;font-weight:normal;text-anchor:end;" transform="rotate(-0, 37.203125, 312.408164)" x="37.203125" y="312.408164">5</text>
     </g>
    </g>
    <g id="ytick_3">
     <g id="line2d_4">
      <g>
       <use style="stroke:#000000;stroke-width:0.8;" x="44.203125" xlink:href="#m82278324de" y="252.175503"/>
      </g>
     </g>
     <g id="text_5">
      <text style="font-family:DejaVu Sans;font-size:10px;font-stretch:normal;font-style:normal;font-weight:normal;text-anchor:end;" transform="rotate(-0, 37.203125, 255.974722)" x="37.203125" y="255.974722">10</text>
     </g>
    </g>
    <g id="ytick_4">
     <g id="line2d_5">
      <g>
       <use style="stroke:#000000;stroke-width:0.8;" x="44.203125" xlink:href="#m82278324de" y="195.742062"/>
      </g>
     </g>
     <g id="text_6">
      <text style="font-family:DejaVu Sans;font-size:10px;font-stretch:normal;font-style:normal;font-weight:normal;text-anchor:end;" transform="rotate(-0, 37.203125, 199.54128)" x="37.203125" y="199.54128">15</text>
     </g>
    </g>
    <g id="ytick_5">
     <g id="line2d_6">
      <g>
       <use style="stroke:#000000;stroke-width:0.8;" x="44.203125" xlink:href="#m82278324de" y="139.30862"/>
      </g>
     </g>
     <g id="text_7">
      <text style="font-family:DejaVu Sans;font-size:10px;font-stretch:normal;font-style:normal;font-weight:normal;text-anchor:end;" transform="rotate(-0, 37.203125, 143.107839)" x="37.203125" y="143.107839">20</text>
     </g>
    </g>
    <g id="ytick_6">
     <g id="line2d_7">
      <g>
       <use style="stroke:#000000;stroke-width:0.8;" x="44.203125" xlink:href="#m82278324de" y="82.875179"/>
      </g>
     </g>
     <g id="text_8">
      <text style="font-family:DejaVu Sans;font-size:10px;font-stretch:normal;font-style:normal;font-weight:normal;text-anchor:end;" transform="rotate(-0, 37.203125, 86.674397)" x="37.203125" y="86.674397">25</text>
     </g>
    </g>
    <g id="text_9">
     <text style="font-family:DejaVu Sans;font-size:10px;font-stretch:normal;font-style:normal;font-weight:normal;text-anchor:middle;" transform="rotate(-90, 18.398438, 207.02875)" x="18.398438" y="207.02875">Value</text>
    </g>
   </g>
   <g id="line2d_8">
    <path clip-path="url(#p069b5bb3f5)" d="M 164.786297 308.608945 
L 164.786297 365.042386 
" style="fill:none;stroke:#3f3f3f;stroke-linecap:square;stroke-width:1.5;"/>
   </g>
   <g id="line2d_9">
    <path clip-path="url(#p069b5bb3f5)" d="M 164.786297 139.30862 
L 164.786297 49.015114 
" style="fill:none;stroke:#3f3f3f;stroke-linecap:square;stroke-width:1.5;"/>
   </g>
   <g id="line2d_10">
    <path clip-path="url(#p069b5bb3f5)" d="M 120.553028 365.042386 
L 209.019566 365.042386 
" style="fill:none;stroke:#3f3f3f;stroke-linecap:square;stroke-width:1.5;"/>
   </g>
   <g id="line2d_11">
    <path clip-path="url(#p069b5bb3f5)" d="M 120.553028 49.015114 
L 209.019566 49.015114 
" style="fill:none;stroke:#3f3f3f;stroke-linecap:square;stroke-width:1.5;"/>
   </g>
   <g id="line2d_12"/>
   <g id="line2d_13">
    <path clip-path="url(#p069b5bb3f5)" d="M 76.319759 252.175503 
L 253.252835 252.175503 
" style="fill:none;stroke:#3f3f3f;stroke-linecap:square;stroke-width:1.5;"/>
   </g>
   <g id="patch_4">
    <path d="M 44.203125 365.042386 
L 44.203125 82.875179 
" style="fill:none;stroke:#000000;stroke-linecap:square;stroke-linejoin:miter;stroke-width:0.8;"/>
   </g>
   <g id="patch_5">
    <path d="M 164.786297 390.84375 
L 164.786297 390.84375 
" style="fill:none;stroke:#000000;stroke-linecap:square;stroke-linejoin:miter;stroke-width:0.8;"/>
   </g>
   <g id="PathCollection_1">
    <defs>
     <path d="M 0 2.5 
C 0.663008 2.5 1.29895 2.236584 1.767767 1.767767 
C 2.236584 1.29895 2.5 0.663008 2.5 -0 
C 2.5 -0.663008 2.236584 -1.29895 1.767767 -1.767767 
C 1.29895 -2.236584 0.663008 -2.5 0 -2.5 
C -0.663008 -2.5 -1.29895 -2.236584 -1.767767 -1.767767 
C -2.236584 -1.29895 -2.5 -0.663008 -2.5 0 
C -2.5 0.663008 -2.236584 1.29895 -1.767767 1.767767 
C -1.29895 2.236584 -0.663008 2.5 0 2.5 
z
" id="C0_0_77057b9605"/>
    </defs>
    <g clip-path="url(#p069b5bb3f5)">
     <use style="fill:#808080;fill-opacity:0.75;" x="164.786297" xlink:href="#C0_0_77057b9605" y="365.042386"/>
    </g>
    <g clip-path="url(#p069b5bb3f5)">
     <use style="fill:#808080;fill-opacity:0.75;" x="160.4279" xlink:href="#C0_0_77057b9605" y="361.65638"/>
    </g>
    <g clip-path="url(#p069b5bb3f5)">
     <use style="fill:#808080;fill-opacity:0.75;" x="165.588766" xlink:href="#C0_0_77057b9605" y="359.399042"/>
    </g>
    <g clip-path="url(#p069b5bb3f5)">
     <use style="fill:#808080;fill-opacity:0.75;" x="164.786297" xlink:href="#C0_0_77057b9605" y="353.755698"/>
    </g>
    <g clip-path="url(#p069b5bb3f5)">
     <use style="fill:#808080;fill-opacity:0.75;" x="159.063915" xlink:href="#C0_0_77057b9605" y="353.755698"/>
    </g>
    <g clip-path="url(#p069b5bb3f5)">
     <use style="fill:#808080;fill-opacity:0.75;" x="170.508679" xlink:href="#C0_0_77057b9605" y="353.755698"/>
    </g>
    <g clip-path="url(#p069b5bb3f5)">
     <use style="fill:#808080;fill-opacity:0.75;" x="153.341533" xlink:href="#C0_0_77057b9605" y="353.755698"/>
    </g>
    <g clip-path="url(#p069b5bb3f5)">
     <use style="fill:#808080;fill-opacity:0.75;" x="164.786297" xlink:href="#C0_0_77057b9605" y="342.46901"/>
    </g>
    <g clip-path="url(#p069b5bb3f5)">
     <use style="fill:#808080;fill-opacity:0.75;" x="159.063915" xlink:href="#C0_0_77057b9605" y="342.46901"/>
    </g>
    <g clip-path="url(#p069b5bb3f5)">
     <use style="fill:#808080;fill-opacity:0.75;" x="170.508679" xlink:href="#C0_0_77057b9605" y="342.46901"/>
    </g>
    <g clip-path="url(#p069b5bb3f5)">
     <use style="fill:#808080;fill-opacity:0.75;" x="153.341533" xlink:href="#C0_0_77057b9605" y="342.46901"/>
    </g>
    <g clip-path="url(#p069b5bb3f5)">
     <use style="fill:#808080;fill-opacity:0.75;" x="176.231061" xlink:href="#C0_0_77057b9605" y="342.46901"/>
    </g>
    <g clip-path="url(#p069b5bb3f5)">
     <use style="fill:#808080;fill-opacity:0.75;" x="147.619152" xlink:href="#C0_0_77057b9605" y="342.46901"/>
    </g>
    <g clip-path="url(#p069b5bb3f5)">
     <use style="fill:#808080;fill-opacity:0.75;" x="181.953443" xlink:href="#C0_0_77057b9605" y="342.46901"/>
    </g>
    <g clip-path="url(#p069b5bb3f5)">
     <use style="fill:#808080;fill-opacity:0.75;" x="164.786297" xlink:href="#C0_0_77057b9605" y="331.182321"/>
    </g>
    <g clip-path="url(#p069b5bb3f5)">
     <use style="fill:#808080;fill-opacity:0.75;" x="159.063915" xlink:href="#C0_0_77057b9605" y="331.182321"/>
    </g>
    <g clip-path="url(#p069b5bb3f5)">
     <use style="fill:#808080;fill-opacity:0.75;" x="164.786297" xlink:href="#C0_0_77057b9605" y="319.895633"/>
    </g>
    <g clip-path="url(#p069b5bb3f5)">
     <use style="fill:#808080;fill-opacity:0.75;" x="159.063915" xlink:href="#C0_0_77057b9605" y="319.895633"/>
    </g>
    <g clip-path="url(#p069b5bb3f5)">
     <use style="fill:#808080;fill-opacity:0.75;" x="164.786297" xlink:href="#C0_0_77057b9605" y="308.608945"/>
    </g>
    <g clip-path="url(#p069b5bb3f5)">
     <use style="fill:#808080;fill-opacity:0.75;" x="159.063915" xlink:href="#C0_0_77057b9605" y="308.608945"/>
    </g>
    <g clip-path="url(#p069b5bb3f5)">
     <use style="fill:#808080;fill-opacity:0.75;" x="170.508679" xlink:href="#C0_0_77057b9605" y="308.608945"/>
    </g>
    <g clip-path="url(#p069b5bb3f5)">
     <use style="fill:#808080;fill-opacity:0.75;" x="153.341533" xlink:href="#C0_0_77057b9605" y="308.608945"/>
    </g>
    <g clip-path="url(#p069b5bb3f5)">
     <use style="fill:#808080;fill-opacity:0.75;" x="176.231061" xlink:href="#C0_0_77057b9605" y="308.608945"/>
    </g>
    <g clip-path="url(#p069b5bb3f5)">
     <use style="fill:#808080;fill-opacity:0.75;" x="147.619152" xlink:href="#C0_0_77057b9605" y="308.608945"/>
    </g>
    <g clip-path="url(#p069b5bb3f5)">
     <use style="fill:#808080;fill-opacity:0.75;" x="181.953443" xlink:href="#C0_0_77057b9605" y="308.608945"/>
    </g>
    <g clip-path="url(#p069b5bb3f5)">
     <use style="fill:#808080;fill-opacity:0.75;" x="141.89677" xlink:href="#C0_0_77057b9605" y="308.608945"/>
    </g>
    <g clip-path="url(#p069b5bb3f5)">
     <use style="fill:#808080;fill-opacity:0.75;" x="164.786297" xlink:href="#C0_0_77057b9605" y="297.322256"/>
    </g>
    <g clip-path="url(#p069b5bb3f5)">
     <use style="fill:#808080;fill-opacity:0.75;" x="159.063915" xlink:href="#C0_0_77057b9605" y="297.322256"/>
    </g>
    <g clip-path="url(#p069b5bb3f5)">
     <use style="fill:#808080;fill-opacity:0.75;" x="164.786297" xlink:href="#C0_0_77057b9605" y="286.035568"/>
    </g>
    <g clip-path="url(#p069b5bb3f5)">
     <use style="fill:#808080;fill-opacity:0.75;" x="159.063915" xlink:href="#C0_0_77057b9605" y="286.035568"/>
    </g>
    <g clip-path="url(#p069b5bb3f5)">
     <use style="fill:#808080;fill-opacity:0.75;" x="164.786297" xlink:href="#C0_0_77057b9605" y="274.74888"/>
    </g>
    <g clip-path="url(#p069b5bb3f5)">
     <use style="fill:#808080;fill-opacity:0.75;" x="159.063915" xlink:href="#C0_0_77057b9605" y="274.74888"/>
    </g>
    <g clip-path="url(#p069b5bb3f5)">
     <use style="fill:#808080;fill-opacity:0.75;" x="170.508679" xlink:href="#C0_0_77057b9605" y="274.74888"/>
    </g>
    <g clip-path="url(#p069b5bb3f5)">
     <use style="fill:#808080;fill-opacity:0.75;" x="164.786297" xlink:href="#C0_0_77057b9605" y="263.462192"/>
    </g>
    <g clip-path="url(#p069b5bb3f5)">
     <use style="fill:#808080;fill-opacity:0.75;" x="159.063915" xlink:href="#C0_0_77057b9605" y="263.462192"/>
    </g>
    <g clip-path="url(#p069b5bb3f5)">
     <use style="fill:#808080;fill-opacity:0.75;" x="170.508679" xlink:href="#C0_0_77057b9605" y="263.462192"/>
    </g>
    <g clip-path="url(#p069b5bb3f5)">
     <use style="fill:#808080;fill-opacity:0.75;" x="164.786297" xlink:href="#C0_0_77057b9605" y="252.175503"/>
    </g>
    <g clip-path="url(#p069b5bb3f5)">
     <use style="fill:#808080;fill-opacity:0.75;" x="159.063915" xlink:href="#C0_0_77057b9605" y="252.175503"/>
    </g>
    <g clip-path="url(#p069b5bb3f5)">
     <use style="fill:#808080;fill-opacity:0.75;" x="170.508679" xlink:href="#C0_0_77057b9605" y="252.175503"/>
    </g>
    <g clip-path="url(#p069b5bb3f5)">
     <use style="fill:#808080;fill-opacity:0.75;" x="153.341533" xlink:href="#C0_0_77057b9605" y="252.175503"/>
    </g>
    <g clip-path="url(#p069b5bb3f5)">
     <use style="fill:#808080;fill-opacity:0.75;" x="176.231061" xlink:href="#C0_0_77057b9605" y="252.175503"/>
    </g>
    <g clip-path="url(#p069b5bb3f5)">
     <use style="fill:#808080;fill-opacity:0.75;" x="147.619152" xlink:href="#C0_0_77057b9605" y="252.175503"/>
    </g>
    <g clip-path="url(#p069b5bb3f5)">
     <use style="fill:#808080;fill-opacity:0.75;" x="181.953443" xlink:href="#C0_0_77057b9605" y="252.175503"/>
    </g>
    <g clip-path="url(#p069b5bb3f5)">
     <use style="fill:#808080;fill-opacity:0.75;" x="141.89677" xlink:href="#C0_0_77057b9605" y="252.175503"/>
    </g>
    <g clip-path="url(#p069b5bb3f5)">
     <use style="fill:#808080;fill-opacity:0.75;" x="187.675825" xlink:href="#C0_0_77057b9605" y="252.175503"/>
    </g>
    <g clip-path="url(#p069b5bb3f5)">
     <use style="fill:#808080;fill-opacity:0.75;" x="136.174388" xlink:href="#C0_0_77057b9605" y="252.175503"/>
    </g>
    <g clip-path="url(#p069b5bb3f5)">
     <use style="fill:#808080;fill-opacity:0.75;" x="193.398207" xlink:href="#C0_0_77057b9605" y="252.175503"/>
    </g>
    <g clip-path="url(#p069b5bb3f5)">
     <use style="fill:#808080;fill-opacity:0.75;" x="130.452006" xlink:href="#C0_0_77057b9605" y="252.175503"/>
    </g>
    <g clip-path="url(#p069b5bb3f5)">
     <use style="fill:#808080;fill-opacity:0.75;" x="164.786297" xlink:href="#C0_0_77057b9605" y="240.888815"/>
    </g>
    <g clip-path="url(#p069b5bb3f5)">
     <use style="fill:#808080;fill-opacity:0.75;" x="159.063915" xlink:href="#C0_0_77057b9605" y="240.888815"/>
    </g>
    <g clip-path="url(#p069b5bb3f5)">
     <use style="fill:#808080;fill-opacity:0.75;" x="164.786297" xlink:href="#C0_0_77057b9605" y="229.602127"/>
    </g>
    <g clip-path="url(#p069b5bb3f5)">
     <use style="fill:#808080;fill-opacity:0.75;" x="159.063915" xlink:href="#C0_0_77057b9605" y="229.602127"/>
    </g>
    <g clip-path="url(#p069b5bb3f5)">
     <use style="fill:#808080;fill-opacity:0.75;" x="170.508679" xlink:href="#C0_0_77057b9605" y="229.602127"/>
    </g>
    <g clip-path="url(#p069b5bb3f5)">
     <use style="fill:#808080;fill-opacity:0.75;" x="164.786297" xlink:href="#C0_0_77057b9605" y="195.742062"/>
    </g>
    <g clip-path="url(#p069b5bb3f5)">
     <use style="fill:#808080;fill-opacity:0.75;" x="159.063915" xlink:href="#C0_0_77057b9605" y="195.742062"/>
    </g>
    <g clip-path="url(#p069b5bb3f5)">
     <use style="fill:#808080;fill-opacity:0.75;" x="170.508679" xlink:href="#C0_0_77057b9605" y="195.742062"/>
    </g>
    <g clip-path="url(#p069b5bb3f5)">
     <use style="fill:#808080;fill-opacity:0.75;" x="153.341533" xlink:href="#C0_0_77057b9605" y="195.742062"/>
    </g>
    <g clip-path="url(#p069b5bb3f5)">
     <use style="fill:#808080;fill-opacity:0.75;" x="164.786297" xlink:href="#C0_0_77057b9605" y="184.455373"/>
    </g>
    <g clip-path="url(#p069b5bb3f5)">
     <use style="fill:#808080;fill-opacity:0.75;" x="164.786297" xlink:href="#C0_0_77057b9605" y="173.168685"/>
    </g>
    <g clip-path="url(#p069b5bb3f5)">
     <use style="fill:#808080;fill-opacity:0.75;" x="159.063915" xlink:href="#C0_0_77057b9605" y="173.168685"/>
    </g>
    <g clip-path="url(#p069b5bb3f5)">
     <use style="fill:#808080;fill-opacity:0.75;" x="164.786297" xlink:href="#C0_0_77057b9605" y="161.881997"/>
    </g>
    <g clip-path="url(#p069b5bb3f5)">
     <use style="fill:#808080;fill-opacity:0.75;" x="159.063915" xlink:href="#C0_0_77057b9605" y="161.881997"/>
    </g>
    <g clip-path="url(#p069b5bb3f5)">
     <use style="fill:#808080;fill-opacity:0.75;" x="170.508679" xlink:href="#C0_0_77057b9605" y="161.881997"/>
    </g>
    <g clip-path="url(#p069b5bb3f5)">
     <use style="fill:#808080;fill-opacity:0.75;" x="164.786297" xlink:href="#C0_0_77057b9605" y="150.595308"/>
    </g>
    <g clip-path="url(#p069b5bb3f5)">
     <use style="fill:#808080;fill-opacity:0.75;" x="164.786297" xlink:href="#C0_0_77057b9605" y="139.30862"/>
    </g>
    <g clip-path="url(#p069b5bb3f5)">
     <use style="fill:#808080;fill-opacity:0.75;" x="159.063915" xlink:href="#C0_0_77057b9605" y="139.30862"/>
    </g>
    <g clip-path="url(#p069b5bb3f5)">
     <use style="fill:#808080;fill-opacity:0.75;" x="170.508679" xlink:href="#C0_0_77057b9605" y="139.30862"/>
    </g>
    <g clip-path="url(#p069b5bb3f5)">
     <use style="fill:#808080;fill-opacity:0.75;" x="153.341533" xlink:href="#C0_0_77057b9605" y="139.30862"/>
    </g>
    <g clip-path="url(#p069b5bb3f5)">
     <use style="fill:#808080;fill-opacity:0.75;" x="176.231061" xlink:href="#C0_0_77057b9605" y="139.30862"/>
    </g>
    <g clip-path="url(#p069b5bb3f5)">
     <use style="fill:#808080;fill-opacity:0.75;" x="147.619152" xlink:href="#C0_0_77057b9605" y="139.30862"/>
    </g>
    <g clip-path="url(#p069b5bb3f5)">
     <use style="fill:#808080;fill-opacity:0.75;" x="181.953443" xlink:href="#C0_0_77057b9605" y="139.30862"/>
    </g>
    <g clip-path="url(#p069b5bb3f5)">
     <use style="fill:#808080;fill-opacity:0.75;" x="141.89677" xlink:href="#C0_0_77057b9605" y="139.30862"/>
    </g>
    <g clip-path="url(#p069b5bb3f5)">
     <use style="fill:#808080;fill-opacity:0.75;" x="187.675825" xlink:href="#C0_0_77057b9605" y="139.30862"/>
    </g>
    <g clip-path="url(#p069b5bb3f5)">
     <use style="fill:#808080;fill-opacity:0.75;" x="136.174388" xlink:href="#C0_0_77057b9605" y="139.30862"/>
    </g>
    <g clip-path="url(#p069b5bb3f5)">
     <use style="fill:#808080;fill-opacity:0.75;" x="193.398207" xlink:href="#C0_0_77057b9605" y="139.30862"/>
    </g>
    <g clip-path="url(#p069b5bb3f5)">
     <use style="fill:#808080;fill-opacity:0.75;" x="130.452006" xlink:href="#C0_0_77057b9605" y="139.30862"/>
    </g>
    <g clip-path="url(#p069b5bb3f5)">
     <use style="fill:#808080;fill-opacity:0.75;" x="164.786297" xlink:href="#C0_0_77057b9605" y="116.735244"/>
    </g>
    <g clip-path="url(#p069b5bb3f5)">
     <use style="fill:#808080;fill-opacity:0.75;" x="159.063915" xlink:href="#C0_0_77057b9605" y="116.735244"/>
    </g>
    <g clip-path="url(#p069b5bb3f5)">
     <use style="fill:#808080;fill-opacity:0.75;" x="170.508679" xlink:href="#C0_0_77057b9605" y="116.735244"/>
    </g>
    <g clip-path="url(#p069b5bb3f5)">
     <use style="fill:#808080;fill-opacity:0.75;" x="164.786297" xlink:href="#C0_0_77057b9605" y="105.448555"/>
    </g>
    <g clip-path="url(#p069b5bb3f5)">
     <use style="fill:#808080;fill-opacity:0.75;" x="164.786297" xlink:href="#C0_0_77057b9605" y="82.875179"/>
    </g>
    <g clip-path="url(#p069b5bb3f5)">
     <use style="fill:#808080;fill-opacity:0.75;" x="159.063915" xlink:href="#C0_0_77057b9605" y="82.875179"/>
    </g>
    <g clip-path="url(#p069b5bb3f5)">
     <use style="fill:#808080;fill-opacity:0.75;" x="170.508679" xlink:href="#C0_0_77057b9605" y="82.875179"/>
    </g>
    <g clip-path="url(#p069b5bb3f5)">
     <use style="fill:#808080;fill-opacity:0.75;" x="153.341533" xlink:href="#C0_0_77057b9605" y="82.875179"/>
    </g>
    <g clip-path="url(#p069b5bb3f5)">
     <use style="fill:#808080;fill-opacity:0.75;" x="176.231061" xlink:href="#C0_0_77057b9605" y="82.875179"/>
    </g>
    <g clip-path="url(#p069b5bb3f5)">
     <use style="fill:#808080;fill-opacity:0.75;" x="147.619152" xlink:href="#C0_0_77057b9605" y="82.875179"/>
    </g>
    <g clip-path="url(#p069b5bb3f5)">
     <use style="fill:#808080;fill-opacity:0.75;" x="181.953443" xlink:href="#C0_0_77057b9605" y="82.875179"/>
    </g>
    <g clip-path="url(#p069b5bb3f5)">
     <use style="fill:#808080;fill-opacity:0.75;" x="164.786297" xlink:href="#C0_0_77057b9605" y="49.015114"/>
    </g>
    <g clip-path="url(#p069b5bb3f5)">
     <use style="fill:#808080;fill-opacity:0.75;" x="159.063915" xlink:href="#C0_0_77057b9605" y="49.015114"/>
    </g>
    <g clip-path="url(#p069b5bb3f5)">
     <use style="fill:#808080;fill-opacity:0.75;" x="170.508679" xlink:href="#C0_0_77057b9605" y="49.015114"/>
    </g>
   </g>
  </g>
  <g id="axes_2">
   <g id="patch_6">
    <path d="M 339.113219 380.84375 
L 560.279564 380.84375 
L 560.279564 33.21375 
L 339.113219 33.21375 
z
" style="fill:#ffffff;"/>
   </g>
   <g id="patch_7">
    <path clip-path="url(#p8326988715)" d="M 390.929125 380.84375 
L 393.541003 380.84375 
L 393.541003 298.074702 
L 390.929125 298.074702 
z
" style="fill:#1f77b4;opacity:0.4;"/>
   </g>
   <g id="patch_8">
    <path clip-path="url(#p8326988715)" d="M 393.541003 380.84375 
L 396.152882 380.84375 
L 396.152882 270.48502 
L 393.541003 270.48502 
z
" style="fill:#1f77b4;opacity:0.4;"/>
   </g>
   <g id="patch_9">
    <path clip-path="url(#p8326988715)" d="M 396.152882 380.84375 
L 398.764761 380.84375 
L 398.764761 380.84375 
L 396.152882 380.84375 
z
" style="fill:#1f77b4;opacity:0.4;"/>
   </g>
   <g id="patch_10">
    <path clip-path="url(#p8326988715)" d="M 398.764761 380.84375 
L 401.376639 380.84375 
L 401.376639 187.715972 
L 398.764761 187.715972 
z
" style="fill:#1f77b4;opacity:0.4;"/>
   </g>
   <g id="patch_11">
    <path clip-path="url(#p8326988715)" d="M 401.376639 380.84375 
L 403.988518 380.84375 
L 403.988518 325.664385 
L 401.376639 325.664385 
z
" style="fill:#1f77b4;opacity:0.4;"/>
   </g>
   <g id="patch_12">
    <path clip-path="url(#p8326988715)" d="M 403.988518 380.84375 
L 406.600396 380.84375 
L 406.600396 380.84375 
L 403.988518 380.84375 
z
" style="fill:#1f77b4;opacity:0.4;"/>
   </g>
   <g id="patch_13">
    <path clip-path="url(#p8326988715)" d="M 406.600396 380.84375 
L 409.212275 380.84375 
L 409.212275 325.664385 
L 406.600396 325.664385 
z
" style="fill:#1f77b4;opacity:0.4;"/>
   </g>
   <g id="patch_14">
    <path clip-path="url(#p8326988715)" d="M 409.212275 380.84375 
L 411.824153 380.84375 
L 411.824153 380.84375 
L 409.212275 380.84375 
z
" style="fill:#1f77b4;opacity:0.4;"/>
   </g>
   <g id="patch_15">
    <path clip-path="url(#p8326988715)" d="M 411.824153 380.84375 
L 414.436032 380.84375 
L 414.436032 160.12629 
L 411.824153 160.12629 
z
" style="fill:#1f77b4;opacity:0.4;"/>
   </g>
   <g id="patch_16">
    <path clip-path="url(#p8326988715)" d="M 414.436032 380.84375 
L 417.04791 380.84375 
L 417.04791 325.664385 
L 414.436032 325.664385 
z
" style="fill:#1f77b4;opacity:0.4;"/>
   </g>
   <g id="patch_17">
    <path clip-path="url(#p8326988715)" d="M 417.04791 380.84375 
L 419.659789 380.84375 
L 419.659789 380.84375 
L 417.04791 380.84375 
z
" style="fill:#1f77b4;opacity:0.4;"/>
   </g>
   <g id="patch_18">
    <path clip-path="url(#p8326988715)" d="M 419.659789 380.84375 
L 422.271667 380.84375 
L 422.271667 325.664385 
L 419.659789 325.664385 
z
" style="fill:#1f77b4;opacity:0.4;"/>
   </g>
   <g id="patch_19">
    <path clip-path="url(#p8326988715)" d="M 422.271667 380.84375 
L 424.883546 380.84375 
L 424.883546 298.074702 
L 422.271667 298.074702 
z
" style="fill:#1f77b4;opacity:0.4;"/>
   </g>
   <g id="patch_20">
    <path clip-path="url(#p8326988715)" d="M 424.883546 380.84375 
L 427.495424 380.84375 
L 427.495424 380.84375 
L 424.883546 380.84375 
z
" style="fill:#1f77b4;opacity:0.4;"/>
   </g>
   <g id="patch_21">
    <path clip-path="url(#p8326988715)" d="M 427.495424 380.84375 
L 430.107303 380.84375 
L 430.107303 298.074702 
L 427.495424 298.074702 
z
" style="fill:#1f77b4;opacity:0.4;"/>
   </g>
   <g id="patch_22">
    <path clip-path="url(#p8326988715)" d="M 430.107303 380.84375 
L 432.719181 380.84375 
L 432.719181 380.84375 
L 430.107303 380.84375 
z
" style="fill:#1f77b4;opacity:0.4;"/>
   </g>
   <g id="patch_23">
    <path clip-path="url(#p8326988715)" d="M 432.719181 380.84375 
L 435.33106 380.84375 
L 435.33106 49.76756 
L 432.719181 49.76756 
z
" style="fill:#1f77b4;opacity:0.4;"/>
   </g>
   <g id="patch_24">
    <path clip-path="url(#p8326988715)" d="M 435.33106 380.84375 
L 437.942938 380.84375 
L 437.942938 325.664385 
L 435.33106 325.664385 
z
" style="fill:#1f77b4;opacity:0.4;"/>
   </g>
   <g id="patch_25">
    <path clip-path="url(#p8326988715)" d="M 437.942938 380.84375 
L 440.554817 380.84375 
L 440.554817 380.84375 
L 437.942938 380.84375 
z
" style="fill:#1f77b4;opacity:0.4;"/>
   </g>
   <g id="patch_26">
    <path clip-path="url(#p8326988715)" d="M 440.554817 380.84375 
L 443.166695 380.84375 
L 443.166695 298.074702 
L 440.554817 298.074702 
z
" style="fill:#1f77b4;opacity:0.4;"/>
   </g>
   <g id="patch_27">
    <path clip-path="url(#p8326988715)" d="M 443.166695 380.84375 
L 445.778574 380.84375 
L 445.778574 380.84375 
L 443.166695 380.84375 
z
" style="fill:#1f77b4;opacity:0.4;"/>
   </g>
   <g id="patch_28">
    <path clip-path="url(#p8326988715)" d="M 445.778574 380.84375 
L 448.390452 380.84375 
L 448.390452 380.84375 
L 445.778574 380.84375 
z
" style="fill:#1f77b4;opacity:0.4;"/>
   </g>
   <g id="patch_29">
    <path clip-path="url(#p8326988715)" d="M 448.390452 380.84375 
L 451.002331 380.84375 
L 451.002331 380.84375 
L 448.390452 380.84375 
z
" style="fill:#1f77b4;opacity:0.4;"/>
   </g>
   <g id="patch_30">
    <path clip-path="url(#p8326988715)" d="M 451.002331 380.84375 
L 453.614209 380.84375 
L 453.614209 380.84375 
L 451.002331 380.84375 
z
" style="fill:#1f77b4;opacity:0.4;"/>
   </g>
   <g id="patch_31">
    <path clip-path="url(#p8326988715)" d="M 453.614209 380.84375 
L 456.226088 380.84375 
L 456.226088 270.48502 
L 453.614209 270.48502 
z
" style="fill:#1f77b4;opacity:0.4;"/>
   </g>
   <g id="patch_32">
    <path clip-path="url(#p8326988715)" d="M 456.226088 380.84375 
L 458.837966 380.84375 
L 458.837966 353.254067 
L 456.226088 353.254067 
z
" style="fill:#1f77b4;opacity:0.4;"/>
   </g>
   <g id="patch_33">
    <path clip-path="url(#p8326988715)" d="M 458.837966 380.84375 
L 461.449845 380.84375 
L 461.449845 380.84375 
L 458.837966 380.84375 
z
" style="fill:#1f77b4;opacity:0.4;"/>
   </g>
   <g id="patch_34">
    <path clip-path="url(#p8326988715)" d="M 461.449845 380.84375 
L 464.061723 380.84375 
L 464.061723 325.664385 
L 461.449845 325.664385 
z
" style="fill:#1f77b4;opacity:0.4;"/>
   </g>
   <g id="patch_35">
    <path clip-path="url(#p8326988715)" d="M 464.061723 380.84375 
L 466.673602 380.84375 
L 466.673602 298.074702 
L 464.061723 298.074702 
z
" style="fill:#1f77b4;opacity:0.4;"/>
   </g>
   <g id="patch_36">
    <path clip-path="url(#p8326988715)" d="M 466.673602 380.84375 
L 469.285481 380.84375 
L 469.285481 380.84375 
L 466.673602 380.84375 
z
" style="fill:#1f77b4;opacity:0.4;"/>
   </g>
   <g id="patch_37">
    <path clip-path="url(#p8326988715)" d="M 469.285481 380.84375 
L 471.897359 380.84375 
L 471.897359 353.254067 
L 469.285481 353.254067 
z
" style="fill:#1f77b4;opacity:0.4;"/>
   </g>
   <g id="patch_38">
    <path clip-path="url(#p8326988715)" d="M 471.897359 380.84375 
L 474.509238 380.84375 
L 474.509238 380.84375 
L 471.897359 380.84375 
z
" style="fill:#1f77b4;opacity:0.4;"/>
   </g>
   <g id="patch_39">
    <path clip-path="url(#p8326988715)" d="M 474.509238 380.84375 
L 477.121116 380.84375 
L 477.121116 49.76756 
L 474.509238 49.76756 
z
" style="fill:#1f77b4;opacity:0.4;"/>
   </g>
   <g id="patch_40">
    <path clip-path="url(#p8326988715)" d="M 477.121116 380.84375 
L 479.732995 380.84375 
L 479.732995 380.84375 
L 477.121116 380.84375 
z
" style="fill:#1f77b4;opacity:0.4;"/>
   </g>
   <g id="patch_41">
    <path clip-path="url(#p8326988715)" d="M 479.732995 380.84375 
L 482.344873 380.84375 
L 482.344873 380.84375 
L 479.732995 380.84375 
z
" style="fill:#1f77b4;opacity:0.4;"/>
   </g>
   <g id="patch_42">
    <path clip-path="url(#p8326988715)" d="M 482.344873 380.84375 
L 484.956752 380.84375 
L 484.956752 298.074702 
L 482.344873 298.074702 
z
" style="fill:#1f77b4;opacity:0.4;"/>
   </g>
   <g id="patch_43">
    <path clip-path="url(#p8326988715)" d="M 484.956752 380.84375 
L 487.56863 380.84375 
L 487.56863 353.254067 
L 484.956752 353.254067 
z
" style="fill:#1f77b4;opacity:0.4;"/>
   </g>
   <g id="patch_44">
    <path clip-path="url(#p8326988715)" d="M 487.56863 380.84375 
L 490.180509 380.84375 
L 490.180509 380.84375 
L 487.56863 380.84375 
z
" style="fill:#1f77b4;opacity:0.4;"/>
   </g>
   <g id="patch_45">
    <path clip-path="url(#p8326988715)" d="M 490.180509 380.84375 
L 492.792387 380.84375 
L 492.792387 380.84375 
L 490.180509 380.84375 
z
" style="fill:#1f77b4;opacity:0.4;"/>
   </g>
   <g id="patch_46">
    <path clip-path="url(#p8326988715)" d="M 492.792387 380.84375 
L 495.404266 380.84375 
L 495.404266 380.84375 
L 492.792387 380.84375 
z
" style="fill:#1f77b4;opacity:0.4;"/>
   </g>
   <g id="patch_47">
    <path clip-path="url(#p8326988715)" d="M 495.404266 380.84375 
L 498.016144 380.84375 
L 498.016144 187.715972 
L 495.404266 187.715972 
z
" style="fill:#1f77b4;opacity:0.4;"/>
   </g>
   <g id="patch_48">
    <path clip-path="url(#p8326988715)" d="M 498.016144 380.84375 
L 500.628023 380.84375 
L 500.628023 380.84375 
L 498.016144 380.84375 
z
" style="fill:#1f77b4;opacity:0.4;"/>
   </g>
   <g id="patch_49">
    <path clip-path="url(#p8326988715)" d="M 500.628023 380.84375 
L 503.239901 380.84375 
L 503.239901 380.84375 
L 500.628023 380.84375 
z
" style="fill:#1f77b4;opacity:0.4;"/>
   </g>
   <g id="patch_50">
    <path clip-path="url(#p8326988715)" d="M 503.239901 380.84375 
L 505.85178 380.84375 
L 505.85178 380.84375 
L 503.239901 380.84375 
z
" style="fill:#1f77b4;opacity:0.4;"/>
   </g>
   <g id="patch_51">
    <path clip-path="url(#p8326988715)" d="M 505.85178 380.84375 
L 508.463658 380.84375 
L 508.463658 298.074702 
L 505.85178 298.074702 
z
" style="fill:#1f77b4;opacity:0.4;"/>
   </g>
   <g id="matplotlib.axis_3">
    <g id="xtick_2">
     <g id="line2d_14">
      <g>
       <use style="stroke:#000000;stroke-width:0.8;" x="348.952506" xlink:href="#mc3a356a46d" y="390.84375"/>
      </g>
     </g>
     <g id="text_10">
      <text style="font-family:DejaVu Sans;font-size:10px;font-stretch:normal;font-style:normal;font-weight:normal;text-anchor:middle;" transform="rotate(-0, 348.952506, 405.442187)" x="348.952506" y="405.442187">−10</text>
     </g>
    </g>
    <g id="xtick_3">
     <g id="line2d_15">
      <g>
       <use style="stroke:#000000;stroke-width:0.8;" x="390.929125" xlink:href="#mc3a356a46d" y="390.84375"/>
      </g>
     </g>
     <g id="text_11">
      <text style="font-family:DejaVu Sans;font-size:10px;font-stretch:normal;font-style:normal;font-weight:normal;text-anchor:middle;" transform="rotate(-0, 390.929125, 405.442187)" x="390.929125" y="405.442187">0</text>
     </g>
    </g>
    <g id="xtick_4">
     <g id="line2d_16">
      <g>
       <use style="stroke:#000000;stroke-width:0.8;" x="432.905744" xlink:href="#mc3a356a46d" y="390.84375"/>
      </g>
     </g>
     <g id="text_12">
      <text style="font-family:DejaVu Sans;font-size:10px;font-stretch:normal;font-style:normal;font-weight:normal;text-anchor:middle;" transform="rotate(-0, 432.905744, 405.442187)" x="432.905744" y="405.442187">10</text>
     </g>
    </g>
    <g id="xtick_5">
     <g id="line2d_17">
      <g>
       <use style="stroke:#000000;stroke-width:0.8;" x="474.882363" xlink:href="#mc3a356a46d" y="390.84375"/>
      </g>
     </g>
     <g id="text_13">
      <text style="font-family:DejaVu Sans;font-size:10px;font-stretch:normal;font-style:normal;font-weight:normal;text-anchor:middle;" transform="rotate(-0, 474.882363, 405.442187)" x="474.882363" y="405.442187">20</text>
     </g>
    </g>
    <g id="xtick_6">
     <g id="line2d_18">
      <g>
       <use style="stroke:#000000;stroke-width:0.8;" x="516.858982" xlink:href="#mc3a356a46d" y="390.84375"/>
      </g>
     </g>
     <g id="text_14">
      <text style="font-family:DejaVu Sans;font-size:10px;font-stretch:normal;font-style:normal;font-weight:normal;text-anchor:middle;" transform="rotate(-0, 516.858982, 405.442187)" x="516.858982" y="405.442187">30</text>
     </g>
    </g>
    <g id="xtick_7">
     <g id="line2d_19">
      <g>
       <use style="stroke:#000000;stroke-width:0.8;" x="558.835601" xlink:href="#mc3a356a46d" y="390.84375"/>
      </g>
     </g>
     <g id="text_15">
      <text style="font-family:DejaVu Sans;font-size:10px;font-stretch:normal;font-style:normal;font-weight:normal;text-anchor:middle;" transform="rotate(-0, 558.835601, 405.442187)" x="558.835601" y="405.442187">40</text>
     </g>
    </g>
    <g id="text_16">
     <text style="font-family:DejaVu Sans;font-size:10px;font-stretch:normal;font-style:normal;font-weight:normal;text-anchor:middle;" transform="rotate(-0, 449.696392, 419.120313)" x="449.696392" y="419.120313">Value</text>
    </g>
   </g>
   <g id="matplotlib.axis_4">
    <g id="ytick_7">
     <g id="line2d_20">
      <g>
       <use style="stroke:#000000;stroke-width:0.8;" x="329.113219" xlink:href="#m82278324de" y="380.84375"/>
      </g>
     </g>
     <g id="text_17">
      <text style="font-family:DejaVu Sans;font-size:10px;font-stretch:normal;font-style:normal;font-weight:normal;text-anchor:end;" transform="rotate(-0, 322.113219, 384.642969)" x="322.113219" y="384.642969">0.00</text>
     </g>
    </g>
    <g id="ytick_8">
     <g id="line2d_21">
      <g>
       <use style="stroke:#000000;stroke-width:0.8;" x="329.113219" xlink:href="#m82278324de" y="303.592639"/>
      </g>
     </g>
     <g id="text_18">
      <text style="font-family:DejaVu Sans;font-size:10px;font-stretch:normal;font-style:normal;font-weight:normal;text-anchor:end;" transform="rotate(-0, 322.113219, 307.391858)" x="322.113219" y="307.391858">0.05</text>
     </g>
    </g>
    <g id="ytick_9">
     <g id="line2d_22">
      <g>
       <use style="stroke:#000000;stroke-width:0.8;" x="329.113219" xlink:href="#m82278324de" y="226.341528"/>
      </g>
     </g>
     <g id="text_19">
      <text style="font-family:DejaVu Sans;font-size:10px;font-stretch:normal;font-style:normal;font-weight:normal;text-anchor:end;" transform="rotate(-0, 322.113219, 230.140747)" x="322.113219" y="230.140747">0.10</text>
     </g>
    </g>
    <g id="ytick_10">
     <g id="line2d_23">
      <g>
       <use style="stroke:#000000;stroke-width:0.8;" x="329.113219" xlink:href="#m82278324de" y="149.090417"/>
      </g>
     </g>
     <g id="text_20">
      <text style="font-family:DejaVu Sans;font-size:10px;font-stretch:normal;font-style:normal;font-weight:normal;text-anchor:end;" transform="rotate(-0, 322.113219, 152.889635)" x="322.113219" y="152.889635">0.15</text>
     </g>
    </g>
    <g id="ytick_11">
     <g id="line2d_24">
      <g>
       <use style="stroke:#000000;stroke-width:0.8;" x="329.113219" xlink:href="#m82278324de" y="71.839306"/>
      </g>
     </g>
     <g id="text_21">
      <text style="font-family:DejaVu Sans;font-size:10px;font-stretch:normal;font-style:normal;font-weight:normal;text-anchor:end;" transform="rotate(-0, 322.113219, 75.638524)" x="322.113219" y="75.638524">0.20</text>
     </g>
    </g>
    <g id="text_22">
     <text style="font-family:DejaVu Sans;font-size:10px;font-stretch:normal;font-style:normal;font-weight:normal;text-anchor:middle;" transform="rotate(-90, 293.767907, 207.02875)" x="293.767907" y="207.02875">Density</text>
    </g>
   </g>
   <g id="line2d_25">
    <path clip-path="url(#p8326988715)" d="M 349.166235 380.728241 
L 354.218002 380.487782 
L 357.249062 380.184254 
L 360.280122 379.674043 
L 362.300828 379.170547 
L 364.321535 378.495549 
L 366.342242 377.610044 
L 368.362948 376.473395 
L 370.383655 375.045934 
L 372.404362 373.292228 
L 374.425068 371.18481 
L 376.445775 368.708043 
L 378.466482 365.861675 
L 380.487188 362.663593 
L 383.518248 357.294384 
L 387.559662 349.411136 
L 393.621782 337.472914 
L 396.652842 332.125522 
L 398.673548 328.958519 
L 400.694255 326.159083 
L 402.714962 323.743751 
L 404.735668 321.707161 
L 406.756375 320.025416 
L 408.777082 318.661396 
L 410.797788 317.571388 
L 412.818495 316.712215 
L 414.839202 316.047965 
L 416.859908 315.555407 
L 418.880615 315.22734 
L 420.901322 315.073296 
L 422.922028 315.117415 
L 424.942735 315.393632 
L 426.963442 315.938775 
L 428.984148 316.784481 
L 431.004855 317.949095 
L 433.025562 319.430754 
L 435.046268 321.202769 
L 438.077328 324.282271 
L 445.149802 331.82613 
L 447.170508 333.593852 
L 449.191215 335.014842 
L 451.211922 336.027615 
L 453.232628 336.600778 
L 455.253335 336.735563 
L 457.274042 336.465438 
L 459.294748 335.852986 
L 461.315455 334.984447 
L 469.398282 331.072236 
L 471.418988 330.497914 
L 473.439695 330.241758 
L 475.460402 330.343558 
L 477.481108 330.818291 
L 479.501815 331.658024 
L 481.522522 332.835854 
L 483.543228 334.311272 
L 485.563935 336.036129 
L 488.594995 338.982339 
L 492.636408 343.349687 
L 498.698528 350.345974 
L 508.802062 362.06322 
L 512.843475 366.37637 
L 515.874535 369.311565 
L 518.905595 371.916351 
L 521.936655 374.146238 
L 524.967715 375.983525 
L 527.998775 377.43798 
L 531.029835 378.542716 
L 534.060895 379.346911 
L 537.091955 379.907429 
L 541.133368 380.373351 
L 546.185135 380.664485 
L 550.226548 380.767707 
L 550.226548 380.767707 
" style="fill:none;stroke:#1f77b4;stroke-linecap:square;stroke-width:1.5;"/>
   </g>
   <g id="patch_52">
    <path d="M 329.113219 380.84375 
L 329.113219 71.839306 
" style="fill:none;stroke:#000000;stroke-linecap:square;stroke-linejoin:miter;stroke-width:0.8;"/>
   </g>
   <g id="patch_53">
    <path d="M 348.952506 390.84375 
L 558.835601 390.84375 
" style="fill:none;stroke:#000000;stroke-linecap:square;stroke-linejoin:miter;stroke-width:0.8;"/>
   </g>
   <g id="legend_1">
    <g id="patch_54">
     <path d="M 495.829564 55.891875 
L 553.279564 55.891875 
Q 555.279564 55.891875 555.279564 53.891875 
L 555.279564 40.21375 
Q 555.279564 38.21375 553.279564 38.21375 
L 495.829564 38.21375 
Q 493.829564 38.21375 493.829564 40.21375 
L 493.829564 53.891875 
Q 493.829564 55.891875 495.829564 55.891875 
z
" style="fill:#ffffff;opacity:0.8;stroke:#cccccc;stroke-linejoin:miter;"/>
    </g>
    <g id="patch_55">
     <path d="M 497.829564 49.812188 
L 517.829564 49.812188 
L 517.829564 42.812188 
L 497.829564 42.812188 
z
" style="fill:#1f77b4;opacity:0.4;"/>
    </g>
    <g id="text_23">
     <text style="font-family:DejaVu Sans;font-size:10px;font-stretch:normal;font-style:normal;font-weight:normal;text-anchor:start;" transform="rotate(-0, 525.829564, 49.812188)" x="525.829564" y="49.812188">2018</text>
    </g>
   </g>
  </g>
  <g id="text_24">
   <text style="font-family:DejaVu Sans;font-size:12px;font-stretch:normal;font-style:normal;font-weight:normal;text-anchor:middle;" transform="rotate(-0, 288, 17.758125)" x="288" y="17.758125">How many years of software development experience for Australia (without 95 percentile)</text>
  </g>
 </g>
 <defs>
  <clipPath id="p069b5bb3f5">
   <rect height="347.63" width="221.166344" x="54.203125" y="33.21375"/>
  </clipPath>
  <clipPath id="p8326988715">
   <rect height="347.63" width="221.166344" x="339.113219" y="33.21375"/>
  </clipPath>
 </defs>
</svg>
