<?xml version="1.0" encoding="utf-8" standalone="no"?>
<!DOCTYPE svg PUBLIC "-//W3C//DTD SVG 1.1//EN"
  "http://www.w3.org/Graphics/SVG/1.1/DTD/svg11.dtd">
<!-- Created with matplotlib (https://matplotlib.org/) -->
<svg height="432pt" version="1.1" viewBox="0 0 576 432" width="576pt" xmlns="http://www.w3.org/2000/svg" xmlns:xlink="http://www.w3.org/1999/xlink">
 <metadata>
  <rdf:RDF xmlns:cc="http://creativecommons.org/ns#" xmlns:dc="http://purl.org/dc/elements/1.1/" xmlns:rdf="http://www.w3.org/1999/02/22-rdf-syntax-ns#">
   <cc:Work>
    <dc:type rdf:resource="http://purl.org/dc/dcmitype/StillImage"/>
    <dc:date>2021-03-09T23:29:21.363643</dc:date>
    <dc:format>image/svg+xml</dc:format>
    <dc:creator>
     <cc:Agent>
      <dc:title>Matplotlib v3.3.4, https://matplotlib.org/</dc:title>
     </cc:Agent>
    </dc:creator>
   </cc:Work>
  </rdf:RDF>
 </metadata>
 <defs>
  <style type="text/css">*{stroke-linecap:butt;stroke-linejoin:round;}</style>
 </defs>
 <g id="figure_1">
  <g id="patch_1">
   <path d="M 0 432 
L 576 432 
L 576 0 
L 0 0 
z
" style="fill:#ffffff;"/>
  </g>
  <g id="axes_1">
   <g id="patch_2">
    <path d="M 52.571875 381.1375 
L 276.323319 381.1375 
L 276.323319 33.980625 
L 52.571875 33.980625 
z
" style="fill:#ffffff;"/>
   </g>
   <g id="patch_3">
    <path clip-path="url(#pcff4733bd3)" d="M 74.947019 309.001006 
L 253.948175 309.001006 
L 253.948175 139.9311 
L 74.947019 139.9311 
L 74.947019 309.001006 
z
" style="fill:#3274a1;stroke:#3f3f3f;stroke-linejoin:miter;stroke-width:1.5;"/>
   </g>
   <g id="matplotlib.axis_1">
    <g id="xtick_1">
     <g id="line2d_1">
      <defs>
       <path d="M 0 0 
L 0 3.5 
" id="mbfe2847428" style="stroke:#000000;stroke-width:0.8;"/>
      </defs>
      <g>
       <use style="stroke:#000000;stroke-width:0.8;" x="164.447597" xlink:href="#mbfe2847428" y="391.1375"/>
      </g>
     </g>
     <g id="text_1">
      <text style="font-family:Roboto;font-size:10px;font-stretch:normal;font-style:normal;font-weight:normal;text-anchor:middle;" transform="rotate(-0, 164.447597, 405.6375)" x="164.447597" y="405.6375">2018</text>
     </g>
    </g>
    <g id="text_2">
     <text style="font-family:Roboto;font-size:10px;font-stretch:normal;font-style:normal;font-weight:normal;text-anchor:middle;" transform="rotate(-0, 164.447597, 419.16875)" x="164.447597" y="419.16875">Year</text>
    </g>
   </g>
   <g id="matplotlib.axis_2">
    <g id="ytick_1">
     <g id="line2d_2">
      <defs>
       <path d="M 0 0 
L -3.5 0 
" id="md08448c087" style="stroke:#000000;stroke-width:0.8;"/>
      </defs>
      <g>
       <use style="stroke:#000000;stroke-width:0.8;" x="42.571875" xlink:href="#md08448c087" y="365.357642"/>
      </g>
     </g>
     <g id="text_3">
      <text style="font-family:Roboto;font-size:10px;font-stretch:normal;font-style:normal;font-weight:normal;text-anchor:end;" transform="rotate(-0, 35.571875, 369.107642)" x="35.571875" y="369.107642">0</text>
     </g>
    </g>
    <g id="ytick_2">
     <g id="line2d_3">
      <g>
       <use style="stroke:#000000;stroke-width:0.8;" x="42.571875" xlink:href="#md08448c087" y="309.001006"/>
      </g>
     </g>
     <g id="text_4">
      <text style="font-family:Roboto;font-size:10px;font-stretch:normal;font-style:normal;font-weight:normal;text-anchor:end;" transform="rotate(-0, 35.571875, 312.751006)" x="35.571875" y="312.751006">5</text>
     </g>
    </g>
    <g id="ytick_3">
     <g id="line2d_4">
      <g>
       <use style="stroke:#000000;stroke-width:0.8;" x="42.571875" xlink:href="#md08448c087" y="252.644371"/>
      </g>
     </g>
     <g id="text_5">
      <text style="font-family:Roboto;font-size:10px;font-stretch:normal;font-style:normal;font-weight:normal;text-anchor:end;" transform="rotate(-0, 35.571875, 256.394371)" x="35.571875" y="256.394371">10</text>
     </g>
    </g>
    <g id="ytick_4">
     <g id="line2d_5">
      <g>
       <use style="stroke:#000000;stroke-width:0.8;" x="42.571875" xlink:href="#md08448c087" y="196.287735"/>
      </g>
     </g>
     <g id="text_6">
      <text style="font-family:Roboto;font-size:10px;font-stretch:normal;font-style:normal;font-weight:normal;text-anchor:end;" transform="rotate(-0, 35.571875, 200.037735)" x="35.571875" y="200.037735">15</text>
     </g>
    </g>
    <g id="ytick_5">
     <g id="line2d_6">
      <g>
       <use style="stroke:#000000;stroke-width:0.8;" x="42.571875" xlink:href="#md08448c087" y="139.9311"/>
      </g>
     </g>
     <g id="text_7">
      <text style="font-family:Roboto;font-size:10px;font-stretch:normal;font-style:normal;font-weight:normal;text-anchor:end;" transform="rotate(-0, 35.571875, 143.6811)" x="35.571875" y="143.6811">20</text>
     </g>
    </g>
    <g id="ytick_6">
     <g id="line2d_7">
      <g>
       <use style="stroke:#000000;stroke-width:0.8;" x="42.571875" xlink:href="#md08448c087" y="83.574464"/>
      </g>
     </g>
     <g id="text_8">
      <text style="font-family:Roboto;font-size:10px;font-stretch:normal;font-style:normal;font-weight:normal;text-anchor:end;" transform="rotate(-0, 35.571875, 87.324464)" x="35.571875" y="87.324464">25</text>
     </g>
    </g>
    <g id="text_9">
     <text style="font-family:Roboto;font-size:10px;font-stretch:normal;font-style:normal;font-weight:normal;text-anchor:middle;" transform="rotate(-90, 18.3, 207.559063)" x="18.3" y="207.559063">Value</text>
    </g>
   </g>
   <g id="line2d_8">
    <path clip-path="url(#pcff4733bd3)" d="M 164.447597 309.001006 
L 164.447597 365.357642 
" style="fill:none;stroke:#3f3f3f;stroke-linecap:square;stroke-width:1.5;"/>
   </g>
   <g id="line2d_9">
    <path clip-path="url(#pcff4733bd3)" d="M 164.447597 139.9311 
L 164.447597 49.760483 
" style="fill:none;stroke:#3f3f3f;stroke-linecap:square;stroke-width:1.5;"/>
   </g>
   <g id="line2d_10">
    <path clip-path="url(#pcff4733bd3)" d="M 119.697308 365.357642 
L 209.197886 365.357642 
" style="fill:none;stroke:#3f3f3f;stroke-linecap:square;stroke-width:1.5;"/>
   </g>
   <g id="line2d_11">
    <path clip-path="url(#pcff4733bd3)" d="M 119.697308 49.760483 
L 209.197886 49.760483 
" style="fill:none;stroke:#3f3f3f;stroke-linecap:square;stroke-width:1.5;"/>
   </g>
   <g id="line2d_12"/>
   <g id="line2d_13">
    <path clip-path="url(#pcff4733bd3)" d="M 74.947019 252.644371 
L 253.948175 252.644371 
" style="fill:none;stroke:#3f3f3f;stroke-linecap:square;stroke-width:1.5;"/>
   </g>
   <g id="patch_4">
    <path d="M 42.571875 365.357642 
L 42.571875 83.574464 
" style="fill:none;stroke:#000000;stroke-linecap:square;stroke-linejoin:miter;stroke-width:0.8;"/>
   </g>
   <g id="patch_5">
    <path d="M 164.447597 391.1375 
L 164.447597 391.1375 
" style="fill:none;stroke:#000000;stroke-linecap:square;stroke-linejoin:miter;stroke-width:0.8;"/>
   </g>
   <g id="PathCollection_1">
    <defs>
     <path d="M 0 2.5 
C 0.663008 2.5 1.29895 2.236584 1.767767 1.767767 
C 2.236584 1.29895 2.5 0.663008 2.5 -0 
C 2.5 -0.663008 2.236584 -1.29895 1.767767 -1.767767 
C 1.29895 -2.236584 0.663008 -2.5 0 -2.5 
C -0.663008 -2.5 -1.29895 -2.236584 -1.767767 -1.767767 
C -2.236584 -1.29895 -2.5 -0.663008 -2.5 0 
C -2.5 0.663008 -2.236584 1.29895 -1.767767 1.767767 
C -1.29895 2.236584 -0.663008 2.5 0 2.5 
z
" id="C0_0_704835654a"/>
    </defs>
    <g clip-path="url(#pcff4733bd3)">
     <use style="fill:#808080;fill-opacity:0.75;" x="164.447597" xlink:href="#C0_0_704835654a" y="365.357642"/>
    </g>
    <g clip-path="url(#pcff4733bd3)">
     <use style="fill:#808080;fill-opacity:0.75;" x="160.038257" xlink:href="#C0_0_704835654a" y="361.976244"/>
    </g>
    <g clip-path="url(#pcff4733bd3)">
     <use style="fill:#808080;fill-opacity:0.75;" x="165.259445" xlink:href="#C0_0_704835654a" y="359.721978"/>
    </g>
    <g clip-path="url(#pcff4733bd3)">
     <use style="fill:#808080;fill-opacity:0.75;" x="164.447597" xlink:href="#C0_0_704835654a" y="354.086315"/>
    </g>
    <g clip-path="url(#pcff4733bd3)">
     <use style="fill:#808080;fill-opacity:0.75;" x="158.658329" xlink:href="#C0_0_704835654a" y="354.086315"/>
    </g>
    <g clip-path="url(#pcff4733bd3)">
     <use style="fill:#808080;fill-opacity:0.75;" x="170.236865" xlink:href="#C0_0_704835654a" y="354.086315"/>
    </g>
    <g clip-path="url(#pcff4733bd3)">
     <use style="fill:#808080;fill-opacity:0.75;" x="152.869061" xlink:href="#C0_0_704835654a" y="354.086315"/>
    </g>
    <g clip-path="url(#pcff4733bd3)">
     <use style="fill:#808080;fill-opacity:0.75;" x="164.447597" xlink:href="#C0_0_704835654a" y="342.814988"/>
    </g>
    <g clip-path="url(#pcff4733bd3)">
     <use style="fill:#808080;fill-opacity:0.75;" x="158.658329" xlink:href="#C0_0_704835654a" y="342.814988"/>
    </g>
    <g clip-path="url(#pcff4733bd3)">
     <use style="fill:#808080;fill-opacity:0.75;" x="170.236865" xlink:href="#C0_0_704835654a" y="342.814988"/>
    </g>
    <g clip-path="url(#pcff4733bd3)">
     <use style="fill:#808080;fill-opacity:0.75;" x="152.869061" xlink:href="#C0_0_704835654a" y="342.814988"/>
    </g>
    <g clip-path="url(#pcff4733bd3)">
     <use style="fill:#808080;fill-opacity:0.75;" x="176.026133" xlink:href="#C0_0_704835654a" y="342.814988"/>
    </g>
    <g clip-path="url(#pcff4733bd3)">
     <use style="fill:#808080;fill-opacity:0.75;" x="147.079794" xlink:href="#C0_0_704835654a" y="342.814988"/>
    </g>
    <g clip-path="url(#pcff4733bd3)">
     <use style="fill:#808080;fill-opacity:0.75;" x="181.815401" xlink:href="#C0_0_704835654a" y="342.814988"/>
    </g>
    <g clip-path="url(#pcff4733bd3)">
     <use style="fill:#808080;fill-opacity:0.75;" x="164.447597" xlink:href="#C0_0_704835654a" y="331.543661"/>
    </g>
    <g clip-path="url(#pcff4733bd3)">
     <use style="fill:#808080;fill-opacity:0.75;" x="158.658329" xlink:href="#C0_0_704835654a" y="331.543661"/>
    </g>
    <g clip-path="url(#pcff4733bd3)">
     <use style="fill:#808080;fill-opacity:0.75;" x="164.447597" xlink:href="#C0_0_704835654a" y="320.272334"/>
    </g>
    <g clip-path="url(#pcff4733bd3)">
     <use style="fill:#808080;fill-opacity:0.75;" x="158.658329" xlink:href="#C0_0_704835654a" y="320.272334"/>
    </g>
    <g clip-path="url(#pcff4733bd3)">
     <use style="fill:#808080;fill-opacity:0.75;" x="164.447597" xlink:href="#C0_0_704835654a" y="309.001006"/>
    </g>
    <g clip-path="url(#pcff4733bd3)">
     <use style="fill:#808080;fill-opacity:0.75;" x="158.658329" xlink:href="#C0_0_704835654a" y="309.001006"/>
    </g>
    <g clip-path="url(#pcff4733bd3)">
     <use style="fill:#808080;fill-opacity:0.75;" x="170.236865" xlink:href="#C0_0_704835654a" y="309.001006"/>
    </g>
    <g clip-path="url(#pcff4733bd3)">
     <use style="fill:#808080;fill-opacity:0.75;" x="152.869061" xlink:href="#C0_0_704835654a" y="309.001006"/>
    </g>
    <g clip-path="url(#pcff4733bd3)">
     <use style="fill:#808080;fill-opacity:0.75;" x="176.026133" xlink:href="#C0_0_704835654a" y="309.001006"/>
    </g>
    <g clip-path="url(#pcff4733bd3)">
     <use style="fill:#808080;fill-opacity:0.75;" x="147.079794" xlink:href="#C0_0_704835654a" y="309.001006"/>
    </g>
    <g clip-path="url(#pcff4733bd3)">
     <use style="fill:#808080;fill-opacity:0.75;" x="181.815401" xlink:href="#C0_0_704835654a" y="309.001006"/>
    </g>
    <g clip-path="url(#pcff4733bd3)">
     <use style="fill:#808080;fill-opacity:0.75;" x="141.290526" xlink:href="#C0_0_704835654a" y="309.001006"/>
    </g>
    <g clip-path="url(#pcff4733bd3)">
     <use style="fill:#808080;fill-opacity:0.75;" x="164.447597" xlink:href="#C0_0_704835654a" y="297.729679"/>
    </g>
    <g clip-path="url(#pcff4733bd3)">
     <use style="fill:#808080;fill-opacity:0.75;" x="158.658329" xlink:href="#C0_0_704835654a" y="297.729679"/>
    </g>
    <g clip-path="url(#pcff4733bd3)">
     <use style="fill:#808080;fill-opacity:0.75;" x="164.447597" xlink:href="#C0_0_704835654a" y="286.458352"/>
    </g>
    <g clip-path="url(#pcff4733bd3)">
     <use style="fill:#808080;fill-opacity:0.75;" x="158.658329" xlink:href="#C0_0_704835654a" y="286.458352"/>
    </g>
    <g clip-path="url(#pcff4733bd3)">
     <use style="fill:#808080;fill-opacity:0.75;" x="164.447597" xlink:href="#C0_0_704835654a" y="275.187025"/>
    </g>
    <g clip-path="url(#pcff4733bd3)">
     <use style="fill:#808080;fill-opacity:0.75;" x="158.658329" xlink:href="#C0_0_704835654a" y="275.187025"/>
    </g>
    <g clip-path="url(#pcff4733bd3)">
     <use style="fill:#808080;fill-opacity:0.75;" x="170.236865" xlink:href="#C0_0_704835654a" y="275.187025"/>
    </g>
    <g clip-path="url(#pcff4733bd3)">
     <use style="fill:#808080;fill-opacity:0.75;" x="164.447597" xlink:href="#C0_0_704835654a" y="263.915698"/>
    </g>
    <g clip-path="url(#pcff4733bd3)">
     <use style="fill:#808080;fill-opacity:0.75;" x="158.658329" xlink:href="#C0_0_704835654a" y="263.915698"/>
    </g>
    <g clip-path="url(#pcff4733bd3)">
     <use style="fill:#808080;fill-opacity:0.75;" x="170.236865" xlink:href="#C0_0_704835654a" y="263.915698"/>
    </g>
    <g clip-path="url(#pcff4733bd3)">
     <use style="fill:#808080;fill-opacity:0.75;" x="164.447597" xlink:href="#C0_0_704835654a" y="252.644371"/>
    </g>
    <g clip-path="url(#pcff4733bd3)">
     <use style="fill:#808080;fill-opacity:0.75;" x="158.658329" xlink:href="#C0_0_704835654a" y="252.644371"/>
    </g>
    <g clip-path="url(#pcff4733bd3)">
     <use style="fill:#808080;fill-opacity:0.75;" x="170.236865" xlink:href="#C0_0_704835654a" y="252.644371"/>
    </g>
    <g clip-path="url(#pcff4733bd3)">
     <use style="fill:#808080;fill-opacity:0.75;" x="152.869061" xlink:href="#C0_0_704835654a" y="252.644371"/>
    </g>
    <g clip-path="url(#pcff4733bd3)">
     <use style="fill:#808080;fill-opacity:0.75;" x="176.026133" xlink:href="#C0_0_704835654a" y="252.644371"/>
    </g>
    <g clip-path="url(#pcff4733bd3)">
     <use style="fill:#808080;fill-opacity:0.75;" x="147.079794" xlink:href="#C0_0_704835654a" y="252.644371"/>
    </g>
    <g clip-path="url(#pcff4733bd3)">
     <use style="fill:#808080;fill-opacity:0.75;" x="181.815401" xlink:href="#C0_0_704835654a" y="252.644371"/>
    </g>
    <g clip-path="url(#pcff4733bd3)">
     <use style="fill:#808080;fill-opacity:0.75;" x="141.290526" xlink:href="#C0_0_704835654a" y="252.644371"/>
    </g>
    <g clip-path="url(#pcff4733bd3)">
     <use style="fill:#808080;fill-opacity:0.75;" x="187.604669" xlink:href="#C0_0_704835654a" y="252.644371"/>
    </g>
    <g clip-path="url(#pcff4733bd3)">
     <use style="fill:#808080;fill-opacity:0.75;" x="135.501258" xlink:href="#C0_0_704835654a" y="252.644371"/>
    </g>
    <g clip-path="url(#pcff4733bd3)">
     <use style="fill:#808080;fill-opacity:0.75;" x="193.393937" xlink:href="#C0_0_704835654a" y="252.644371"/>
    </g>
    <g clip-path="url(#pcff4733bd3)">
     <use style="fill:#808080;fill-opacity:0.75;" x="129.71199" xlink:href="#C0_0_704835654a" y="252.644371"/>
    </g>
    <g clip-path="url(#pcff4733bd3)">
     <use style="fill:#808080;fill-opacity:0.75;" x="164.447597" xlink:href="#C0_0_704835654a" y="241.373044"/>
    </g>
    <g clip-path="url(#pcff4733bd3)">
     <use style="fill:#808080;fill-opacity:0.75;" x="158.658329" xlink:href="#C0_0_704835654a" y="241.373044"/>
    </g>
    <g clip-path="url(#pcff4733bd3)">
     <use style="fill:#808080;fill-opacity:0.75;" x="164.447597" xlink:href="#C0_0_704835654a" y="230.101717"/>
    </g>
    <g clip-path="url(#pcff4733bd3)">
     <use style="fill:#808080;fill-opacity:0.75;" x="158.658329" xlink:href="#C0_0_704835654a" y="230.101717"/>
    </g>
    <g clip-path="url(#pcff4733bd3)">
     <use style="fill:#808080;fill-opacity:0.75;" x="170.236865" xlink:href="#C0_0_704835654a" y="230.101717"/>
    </g>
    <g clip-path="url(#pcff4733bd3)">
     <use style="fill:#808080;fill-opacity:0.75;" x="164.447597" xlink:href="#C0_0_704835654a" y="196.287735"/>
    </g>
    <g clip-path="url(#pcff4733bd3)">
     <use style="fill:#808080;fill-opacity:0.75;" x="158.658329" xlink:href="#C0_0_704835654a" y="196.287735"/>
    </g>
    <g clip-path="url(#pcff4733bd3)">
     <use style="fill:#808080;fill-opacity:0.75;" x="170.236865" xlink:href="#C0_0_704835654a" y="196.287735"/>
    </g>
    <g clip-path="url(#pcff4733bd3)">
     <use style="fill:#808080;fill-opacity:0.75;" x="152.869061" xlink:href="#C0_0_704835654a" y="196.287735"/>
    </g>
    <g clip-path="url(#pcff4733bd3)">
     <use style="fill:#808080;fill-opacity:0.75;" x="164.447597" xlink:href="#C0_0_704835654a" y="185.016408"/>
    </g>
    <g clip-path="url(#pcff4733bd3)">
     <use style="fill:#808080;fill-opacity:0.75;" x="164.447597" xlink:href="#C0_0_704835654a" y="173.745081"/>
    </g>
    <g clip-path="url(#pcff4733bd3)">
     <use style="fill:#808080;fill-opacity:0.75;" x="158.658329" xlink:href="#C0_0_704835654a" y="173.745081"/>
    </g>
    <g clip-path="url(#pcff4733bd3)">
     <use style="fill:#808080;fill-opacity:0.75;" x="164.447597" xlink:href="#C0_0_704835654a" y="162.473754"/>
    </g>
    <g clip-path="url(#pcff4733bd3)">
     <use style="fill:#808080;fill-opacity:0.75;" x="158.658329" xlink:href="#C0_0_704835654a" y="162.473754"/>
    </g>
    <g clip-path="url(#pcff4733bd3)">
     <use style="fill:#808080;fill-opacity:0.75;" x="170.236865" xlink:href="#C0_0_704835654a" y="162.473754"/>
    </g>
    <g clip-path="url(#pcff4733bd3)">
     <use style="fill:#808080;fill-opacity:0.75;" x="164.447597" xlink:href="#C0_0_704835654a" y="151.202427"/>
    </g>
    <g clip-path="url(#pcff4733bd3)">
     <use style="fill:#808080;fill-opacity:0.75;" x="164.447597" xlink:href="#C0_0_704835654a" y="139.9311"/>
    </g>
    <g clip-path="url(#pcff4733bd3)">
     <use style="fill:#808080;fill-opacity:0.75;" x="158.658329" xlink:href="#C0_0_704835654a" y="139.9311"/>
    </g>
    <g clip-path="url(#pcff4733bd3)">
     <use style="fill:#808080;fill-opacity:0.75;" x="170.236865" xlink:href="#C0_0_704835654a" y="139.9311"/>
    </g>
    <g clip-path="url(#pcff4733bd3)">
     <use style="fill:#808080;fill-opacity:0.75;" x="152.869061" xlink:href="#C0_0_704835654a" y="139.9311"/>
    </g>
    <g clip-path="url(#pcff4733bd3)">
     <use style="fill:#808080;fill-opacity:0.75;" x="176.026133" xlink:href="#C0_0_704835654a" y="139.9311"/>
    </g>
    <g clip-path="url(#pcff4733bd3)">
     <use style="fill:#808080;fill-opacity:0.75;" x="147.079794" xlink:href="#C0_0_704835654a" y="139.9311"/>
    </g>
    <g clip-path="url(#pcff4733bd3)">
     <use style="fill:#808080;fill-opacity:0.75;" x="181.815401" xlink:href="#C0_0_704835654a" y="139.9311"/>
    </g>
    <g clip-path="url(#pcff4733bd3)">
     <use style="fill:#808080;fill-opacity:0.75;" x="141.290526" xlink:href="#C0_0_704835654a" y="139.9311"/>
    </g>
    <g clip-path="url(#pcff4733bd3)">
     <use style="fill:#808080;fill-opacity:0.75;" x="187.604669" xlink:href="#C0_0_704835654a" y="139.9311"/>
    </g>
    <g clip-path="url(#pcff4733bd3)">
     <use style="fill:#808080;fill-opacity:0.75;" x="135.501258" xlink:href="#C0_0_704835654a" y="139.9311"/>
    </g>
    <g clip-path="url(#pcff4733bd3)">
     <use style="fill:#808080;fill-opacity:0.75;" x="193.393937" xlink:href="#C0_0_704835654a" y="139.9311"/>
    </g>
    <g clip-path="url(#pcff4733bd3)">
     <use style="fill:#808080;fill-opacity:0.75;" x="129.71199" xlink:href="#C0_0_704835654a" y="139.9311"/>
    </g>
    <g clip-path="url(#pcff4733bd3)">
     <use style="fill:#808080;fill-opacity:0.75;" x="164.447597" xlink:href="#C0_0_704835654a" y="117.388446"/>
    </g>
    <g clip-path="url(#pcff4733bd3)">
     <use style="fill:#808080;fill-opacity:0.75;" x="158.658329" xlink:href="#C0_0_704835654a" y="117.388446"/>
    </g>
    <g clip-path="url(#pcff4733bd3)">
     <use style="fill:#808080;fill-opacity:0.75;" x="170.236865" xlink:href="#C0_0_704835654a" y="117.388446"/>
    </g>
    <g clip-path="url(#pcff4733bd3)">
     <use style="fill:#808080;fill-opacity:0.75;" x="164.447597" xlink:href="#C0_0_704835654a" y="106.117119"/>
    </g>
    <g clip-path="url(#pcff4733bd3)">
     <use style="fill:#808080;fill-opacity:0.75;" x="164.447597" xlink:href="#C0_0_704835654a" y="83.574464"/>
    </g>
    <g clip-path="url(#pcff4733bd3)">
     <use style="fill:#808080;fill-opacity:0.75;" x="158.658329" xlink:href="#C0_0_704835654a" y="83.574464"/>
    </g>
    <g clip-path="url(#pcff4733bd3)">
     <use style="fill:#808080;fill-opacity:0.75;" x="170.236865" xlink:href="#C0_0_704835654a" y="83.574464"/>
    </g>
    <g clip-path="url(#pcff4733bd3)">
     <use style="fill:#808080;fill-opacity:0.75;" x="152.869061" xlink:href="#C0_0_704835654a" y="83.574464"/>
    </g>
    <g clip-path="url(#pcff4733bd3)">
     <use style="fill:#808080;fill-opacity:0.75;" x="176.026133" xlink:href="#C0_0_704835654a" y="83.574464"/>
    </g>
    <g clip-path="url(#pcff4733bd3)">
     <use style="fill:#808080;fill-opacity:0.75;" x="147.079794" xlink:href="#C0_0_704835654a" y="83.574464"/>
    </g>
    <g clip-path="url(#pcff4733bd3)">
     <use style="fill:#808080;fill-opacity:0.75;" x="181.815401" xlink:href="#C0_0_704835654a" y="83.574464"/>
    </g>
    <g clip-path="url(#pcff4733bd3)">
     <use style="fill:#808080;fill-opacity:0.75;" x="164.447597" xlink:href="#C0_0_704835654a" y="49.760483"/>
    </g>
    <g clip-path="url(#pcff4733bd3)">
     <use style="fill:#808080;fill-opacity:0.75;" x="158.658329" xlink:href="#C0_0_704835654a" y="49.760483"/>
    </g>
    <g clip-path="url(#pcff4733bd3)">
     <use style="fill:#808080;fill-opacity:0.75;" x="170.236865" xlink:href="#C0_0_704835654a" y="49.760483"/>
    </g>
   </g>
  </g>
  <g id="axes_2">
   <g id="patch_6">
    <path d="M 337.153007 381.1375 
L 560.904451 381.1375 
L 560.904451 33.980625 
L 337.153007 33.980625 
z
" style="fill:#ffffff;"/>
   </g>
   <g id="patch_7">
    <path clip-path="url(#p4c24ef2aa3)" d="M 389.574562 381.1375 
L 392.216969 381.1375 
L 392.216969 298.481101 
L 389.574562 298.481101 
z
" style="fill:#1f77b4;opacity:0.4;"/>
   </g>
   <g id="patch_8">
    <path clip-path="url(#p4c24ef2aa3)" d="M 392.216969 381.1375 
L 394.859377 381.1375 
L 394.859377 270.928968 
L 392.216969 270.928968 
z
" style="fill:#1f77b4;opacity:0.4;"/>
   </g>
   <g id="patch_9">
    <path clip-path="url(#p4c24ef2aa3)" d="M 394.859377 381.1375 
L 397.501784 381.1375 
L 397.501784 381.1375 
L 394.859377 381.1375 
z
" style="fill:#1f77b4;opacity:0.4;"/>
   </g>
   <g id="patch_10">
    <path clip-path="url(#p4c24ef2aa3)" d="M 397.501784 381.1375 
L 400.144192 381.1375 
L 400.144192 188.272569 
L 397.501784 188.272569 
z
" style="fill:#1f77b4;opacity:0.4;"/>
   </g>
   <g id="patch_11">
    <path clip-path="url(#p4c24ef2aa3)" d="M 400.144192 381.1375 
L 402.786599 381.1375 
L 402.786599 326.033234 
L 400.144192 326.033234 
z
" style="fill:#1f77b4;opacity:0.4;"/>
   </g>
   <g id="patch_12">
    <path clip-path="url(#p4c24ef2aa3)" d="M 402.786599 381.1375 
L 405.429007 381.1375 
L 405.429007 381.1375 
L 402.786599 381.1375 
z
" style="fill:#1f77b4;opacity:0.4;"/>
   </g>
   <g id="patch_13">
    <path clip-path="url(#p4c24ef2aa3)" d="M 405.429007 381.1375 
L 408.071414 381.1375 
L 408.071414 326.033234 
L 405.429007 326.033234 
z
" style="fill:#1f77b4;opacity:0.4;"/>
   </g>
   <g id="patch_14">
    <path clip-path="url(#p4c24ef2aa3)" d="M 408.071414 381.1375 
L 410.713821 381.1375 
L 410.713821 381.1375 
L 408.071414 381.1375 
z
" style="fill:#1f77b4;opacity:0.4;"/>
   </g>
   <g id="patch_15">
    <path clip-path="url(#p4c24ef2aa3)" d="M 410.713821 381.1375 
L 413.356229 381.1375 
L 413.356229 160.720437 
L 410.713821 160.720437 
z
" style="fill:#1f77b4;opacity:0.4;"/>
   </g>
   <g id="patch_16">
    <path clip-path="url(#p4c24ef2aa3)" d="M 413.356229 381.1375 
L 415.998636 381.1375 
L 415.998636 326.033234 
L 413.356229 326.033234 
z
" style="fill:#1f77b4;opacity:0.4;"/>
   </g>
   <g id="patch_17">
    <path clip-path="url(#p4c24ef2aa3)" d="M 415.998636 381.1375 
L 418.641044 381.1375 
L 418.641044 381.1375 
L 415.998636 381.1375 
z
" style="fill:#1f77b4;opacity:0.4;"/>
   </g>
   <g id="patch_18">
    <path clip-path="url(#p4c24ef2aa3)" d="M 418.641044 381.1375 
L 421.283451 381.1375 
L 421.283451 326.033234 
L 418.641044 326.033234 
z
" style="fill:#1f77b4;opacity:0.4;"/>
   </g>
   <g id="patch_19">
    <path clip-path="url(#p4c24ef2aa3)" d="M 421.283451 381.1375 
L 423.925859 381.1375 
L 423.925859 298.481101 
L 421.283451 298.481101 
z
" style="fill:#1f77b4;opacity:0.4;"/>
   </g>
   <g id="patch_20">
    <path clip-path="url(#p4c24ef2aa3)" d="M 423.925859 381.1375 
L 426.568266 381.1375 
L 426.568266 381.1375 
L 423.925859 381.1375 
z
" style="fill:#1f77b4;opacity:0.4;"/>
   </g>
   <g id="patch_21">
    <path clip-path="url(#p4c24ef2aa3)" d="M 426.568266 381.1375 
L 429.210673 381.1375 
L 429.210673 298.481101 
L 426.568266 298.481101 
z
" style="fill:#1f77b4;opacity:0.4;"/>
   </g>
   <g id="patch_22">
    <path clip-path="url(#p4c24ef2aa3)" d="M 429.210673 381.1375 
L 431.853081 381.1375 
L 431.853081 381.1375 
L 429.210673 381.1375 
z
" style="fill:#1f77b4;opacity:0.4;"/>
   </g>
   <g id="patch_23">
    <path clip-path="url(#p4c24ef2aa3)" d="M 431.853081 381.1375 
L 434.495488 381.1375 
L 434.495488 50.511905 
L 431.853081 50.511905 
z
" style="fill:#1f77b4;opacity:0.4;"/>
   </g>
   <g id="patch_24">
    <path clip-path="url(#p4c24ef2aa3)" d="M 434.495488 381.1375 
L 437.137896 381.1375 
L 437.137896 326.033234 
L 434.495488 326.033234 
z
" style="fill:#1f77b4;opacity:0.4;"/>
   </g>
   <g id="patch_25">
    <path clip-path="url(#p4c24ef2aa3)" d="M 437.137896 381.1375 
L 439.780303 381.1375 
L 439.780303 381.1375 
L 437.137896 381.1375 
z
" style="fill:#1f77b4;opacity:0.4;"/>
   </g>
   <g id="patch_26">
    <path clip-path="url(#p4c24ef2aa3)" d="M 439.780303 381.1375 
L 442.422711 381.1375 
L 442.422711 298.481101 
L 439.780303 298.481101 
z
" style="fill:#1f77b4;opacity:0.4;"/>
   </g>
   <g id="patch_27">
    <path clip-path="url(#p4c24ef2aa3)" d="M 442.422711 381.1375 
L 445.065118 381.1375 
L 445.065118 381.1375 
L 442.422711 381.1375 
z
" style="fill:#1f77b4;opacity:0.4;"/>
   </g>
   <g id="patch_28">
    <path clip-path="url(#p4c24ef2aa3)" d="M 445.065118 381.1375 
L 447.707525 381.1375 
L 447.707525 381.1375 
L 445.065118 381.1375 
z
" style="fill:#1f77b4;opacity:0.4;"/>
   </g>
   <g id="patch_29">
    <path clip-path="url(#p4c24ef2aa3)" d="M 447.707525 381.1375 
L 450.349933 381.1375 
L 450.349933 381.1375 
L 447.707525 381.1375 
z
" style="fill:#1f77b4;opacity:0.4;"/>
   </g>
   <g id="patch_30">
    <path clip-path="url(#p4c24ef2aa3)" d="M 450.349933 381.1375 
L 452.99234 381.1375 
L 452.99234 381.1375 
L 450.349933 381.1375 
z
" style="fill:#1f77b4;opacity:0.4;"/>
   </g>
   <g id="patch_31">
    <path clip-path="url(#p4c24ef2aa3)" d="M 452.99234 381.1375 
L 455.634748 381.1375 
L 455.634748 270.928968 
L 452.99234 270.928968 
z
" style="fill:#1f77b4;opacity:0.4;"/>
   </g>
   <g id="patch_32">
    <path clip-path="url(#p4c24ef2aa3)" d="M 455.634748 381.1375 
L 458.277155 381.1375 
L 458.277155 353.585367 
L 455.634748 353.585367 
z
" style="fill:#1f77b4;opacity:0.4;"/>
   </g>
   <g id="patch_33">
    <path clip-path="url(#p4c24ef2aa3)" d="M 458.277155 381.1375 
L 460.919562 381.1375 
L 460.919562 381.1375 
L 458.277155 381.1375 
z
" style="fill:#1f77b4;opacity:0.4;"/>
   </g>
   <g id="patch_34">
    <path clip-path="url(#p4c24ef2aa3)" d="M 460.919562 381.1375 
L 463.56197 381.1375 
L 463.56197 326.033234 
L 460.919562 326.033234 
z
" style="fill:#1f77b4;opacity:0.4;"/>
   </g>
   <g id="patch_35">
    <path clip-path="url(#p4c24ef2aa3)" d="M 463.56197 381.1375 
L 466.204377 381.1375 
L 466.204377 298.481101 
L 463.56197 298.481101 
z
" style="fill:#1f77b4;opacity:0.4;"/>
   </g>
   <g id="patch_36">
    <path clip-path="url(#p4c24ef2aa3)" d="M 466.204377 381.1375 
L 468.846785 381.1375 
L 468.846785 381.1375 
L 466.204377 381.1375 
z
" style="fill:#1f77b4;opacity:0.4;"/>
   </g>
   <g id="patch_37">
    <path clip-path="url(#p4c24ef2aa3)" d="M 468.846785 381.1375 
L 471.489192 381.1375 
L 471.489192 353.585367 
L 468.846785 353.585367 
z
" style="fill:#1f77b4;opacity:0.4;"/>
   </g>
   <g id="patch_38">
    <path clip-path="url(#p4c24ef2aa3)" d="M 471.489192 381.1375 
L 474.1316 381.1375 
L 474.1316 381.1375 
L 471.489192 381.1375 
z
" style="fill:#1f77b4;opacity:0.4;"/>
   </g>
   <g id="patch_39">
    <path clip-path="url(#p4c24ef2aa3)" d="M 474.1316 381.1375 
L 476.774007 381.1375 
L 476.774007 50.511905 
L 474.1316 50.511905 
z
" style="fill:#1f77b4;opacity:0.4;"/>
   </g>
   <g id="patch_40">
    <path clip-path="url(#p4c24ef2aa3)" d="M 476.774007 381.1375 
L 479.416414 381.1375 
L 479.416414 381.1375 
L 476.774007 381.1375 
z
" style="fill:#1f77b4;opacity:0.4;"/>
   </g>
   <g id="patch_41">
    <path clip-path="url(#p4c24ef2aa3)" d="M 479.416414 381.1375 
L 482.058822 381.1375 
L 482.058822 381.1375 
L 479.416414 381.1375 
z
" style="fill:#1f77b4;opacity:0.4;"/>
   </g>
   <g id="patch_42">
    <path clip-path="url(#p4c24ef2aa3)" d="M 482.058822 381.1375 
L 484.701229 381.1375 
L 484.701229 298.481101 
L 482.058822 298.481101 
z
" style="fill:#1f77b4;opacity:0.4;"/>
   </g>
   <g id="patch_43">
    <path clip-path="url(#p4c24ef2aa3)" d="M 484.701229 381.1375 
L 487.343637 381.1375 
L 487.343637 353.585367 
L 484.701229 353.585367 
z
" style="fill:#1f77b4;opacity:0.4;"/>
   </g>
   <g id="patch_44">
    <path clip-path="url(#p4c24ef2aa3)" d="M 487.343637 381.1375 
L 489.986044 381.1375 
L 489.986044 381.1375 
L 487.343637 381.1375 
z
" style="fill:#1f77b4;opacity:0.4;"/>
   </g>
   <g id="patch_45">
    <path clip-path="url(#p4c24ef2aa3)" d="M 489.986044 381.1375 
L 492.628452 381.1375 
L 492.628452 381.1375 
L 489.986044 381.1375 
z
" style="fill:#1f77b4;opacity:0.4;"/>
   </g>
   <g id="patch_46">
    <path clip-path="url(#p4c24ef2aa3)" d="M 492.628452 381.1375 
L 495.270859 381.1375 
L 495.270859 381.1375 
L 492.628452 381.1375 
z
" style="fill:#1f77b4;opacity:0.4;"/>
   </g>
   <g id="patch_47">
    <path clip-path="url(#p4c24ef2aa3)" d="M 495.270859 381.1375 
L 497.913266 381.1375 
L 497.913266 188.272569 
L 495.270859 188.272569 
z
" style="fill:#1f77b4;opacity:0.4;"/>
   </g>
   <g id="patch_48">
    <path clip-path="url(#p4c24ef2aa3)" d="M 497.913266 381.1375 
L 500.555674 381.1375 
L 500.555674 381.1375 
L 497.913266 381.1375 
z
" style="fill:#1f77b4;opacity:0.4;"/>
   </g>
   <g id="patch_49">
    <path clip-path="url(#p4c24ef2aa3)" d="M 500.555674 381.1375 
L 503.198081 381.1375 
L 503.198081 381.1375 
L 500.555674 381.1375 
z
" style="fill:#1f77b4;opacity:0.4;"/>
   </g>
   <g id="patch_50">
    <path clip-path="url(#p4c24ef2aa3)" d="M 503.198081 381.1375 
L 505.840489 381.1375 
L 505.840489 381.1375 
L 503.198081 381.1375 
z
" style="fill:#1f77b4;opacity:0.4;"/>
   </g>
   <g id="patch_51">
    <path clip-path="url(#p4c24ef2aa3)" d="M 505.840489 381.1375 
L 508.482896 381.1375 
L 508.482896 298.481101 
L 505.840489 298.481101 
z
" style="fill:#1f77b4;opacity:0.4;"/>
   </g>
   <g id="matplotlib.axis_3">
    <g id="xtick_2">
     <g id="line2d_14">
      <g>
       <use style="stroke:#000000;stroke-width:0.8;" x="347.1073" xlink:href="#mbfe2847428" y="391.1375"/>
      </g>
     </g>
     <g id="text_10">
      <text style="font-family:Roboto;font-size:10px;font-stretch:normal;font-style:normal;font-weight:normal;text-anchor:middle;" transform="rotate(-0, 347.1073, 405.6375)" x="347.1073" y="405.6375">−10</text>
     </g>
    </g>
    <g id="xtick_3">
     <g id="line2d_15">
      <g>
       <use style="stroke:#000000;stroke-width:0.8;" x="389.574562" xlink:href="#mbfe2847428" y="391.1375"/>
      </g>
     </g>
     <g id="text_11">
      <text style="font-family:Roboto;font-size:10px;font-stretch:normal;font-style:normal;font-weight:normal;text-anchor:middle;" transform="rotate(-0, 389.574562, 405.6375)" x="389.574562" y="405.6375">0</text>
     </g>
    </g>
    <g id="xtick_4">
     <g id="line2d_16">
      <g>
       <use style="stroke:#000000;stroke-width:0.8;" x="432.041824" xlink:href="#mbfe2847428" y="391.1375"/>
      </g>
     </g>
     <g id="text_12">
      <text style="font-family:Roboto;font-size:10px;font-stretch:normal;font-style:normal;font-weight:normal;text-anchor:middle;" transform="rotate(-0, 432.041824, 405.6375)" x="432.041824" y="405.6375">10</text>
     </g>
    </g>
    <g id="xtick_5">
     <g id="line2d_17">
      <g>
       <use style="stroke:#000000;stroke-width:0.8;" x="474.509086" xlink:href="#mbfe2847428" y="391.1375"/>
      </g>
     </g>
     <g id="text_13">
      <text style="font-family:Roboto;font-size:10px;font-stretch:normal;font-style:normal;font-weight:normal;text-anchor:middle;" transform="rotate(-0, 474.509086, 405.6375)" x="474.509086" y="405.6375">20</text>
     </g>
    </g>
    <g id="xtick_6">
     <g id="line2d_18">
      <g>
       <use style="stroke:#000000;stroke-width:0.8;" x="516.976349" xlink:href="#mbfe2847428" y="391.1375"/>
      </g>
     </g>
     <g id="text_14">
      <text style="font-family:Roboto;font-size:10px;font-stretch:normal;font-style:normal;font-weight:normal;text-anchor:middle;" transform="rotate(-0, 516.976349, 405.6375)" x="516.976349" y="405.6375">30</text>
     </g>
    </g>
    <g id="xtick_7">
     <g id="line2d_19">
      <g>
       <use style="stroke:#000000;stroke-width:0.8;" x="559.443611" xlink:href="#mbfe2847428" y="391.1375"/>
      </g>
     </g>
     <g id="text_15">
      <text style="font-family:Roboto;font-size:10px;font-stretch:normal;font-style:normal;font-weight:normal;text-anchor:middle;" transform="rotate(-0, 559.443611, 405.6375)" x="559.443611" y="405.6375">40</text>
     </g>
    </g>
    <g id="text_16">
     <text style="font-family:Roboto;font-size:10px;font-stretch:normal;font-style:normal;font-weight:normal;text-anchor:middle;" transform="rotate(-0, 449.028729, 419.16875)" x="449.028729" y="419.16875">Value</text>
    </g>
   </g>
   <g id="matplotlib.axis_4">
    <g id="ytick_7">
     <g id="line2d_20">
      <g>
       <use style="stroke:#000000;stroke-width:0.8;" x="327.153007" xlink:href="#md08448c087" y="381.1375"/>
      </g>
     </g>
     <g id="text_17">
      <text style="font-family:Roboto;font-size:10px;font-stretch:normal;font-style:normal;font-weight:normal;text-anchor:end;" transform="rotate(-0, 320.153007, 384.8875)" x="320.153007" y="384.8875">0.00</text>
     </g>
    </g>
    <g id="ytick_8">
     <g id="line2d_21">
      <g>
       <use style="stroke:#000000;stroke-width:0.8;" x="327.153007" xlink:href="#md08448c087" y="303.991528"/>
      </g>
     </g>
     <g id="text_18">
      <text style="font-family:Roboto;font-size:10px;font-stretch:normal;font-style:normal;font-weight:normal;text-anchor:end;" transform="rotate(-0, 320.153007, 307.741528)" x="320.153007" y="307.741528">0.05</text>
     </g>
    </g>
    <g id="ytick_9">
     <g id="line2d_22">
      <g>
       <use style="stroke:#000000;stroke-width:0.8;" x="327.153007" xlink:href="#md08448c087" y="226.845556"/>
      </g>
     </g>
     <g id="text_19">
      <text style="font-family:Roboto;font-size:10px;font-stretch:normal;font-style:normal;font-weight:normal;text-anchor:end;" transform="rotate(-0, 320.153007, 230.595556)" x="320.153007" y="230.595556">0.10</text>
     </g>
    </g>
    <g id="ytick_10">
     <g id="line2d_23">
      <g>
       <use style="stroke:#000000;stroke-width:0.8;" x="327.153007" xlink:href="#md08448c087" y="149.699583"/>
      </g>
     </g>
     <g id="text_20">
      <text style="font-family:Roboto;font-size:10px;font-stretch:normal;font-style:normal;font-weight:normal;text-anchor:end;" transform="rotate(-0, 320.153007, 153.449583)" x="320.153007" y="153.449583">0.15</text>
     </g>
    </g>
    <g id="ytick_11">
     <g id="line2d_24">
      <g>
       <use style="stroke:#000000;stroke-width:0.8;" x="327.153007" xlink:href="#md08448c087" y="72.553611"/>
      </g>
     </g>
     <g id="text_21">
      <text style="font-family:Roboto;font-size:10px;font-stretch:normal;font-style:normal;font-weight:normal;text-anchor:end;" transform="rotate(-0, 320.153007, 76.303611)" x="320.153007" y="76.303611">0.20</text>
     </g>
    </g>
    <g id="text_22">
     <text style="font-family:Roboto;font-size:10px;font-stretch:normal;font-style:normal;font-weight:normal;text-anchor:middle;" transform="rotate(-90, 294.520194, 207.559063)" x="294.520194" y="207.559063">Density</text>
    </g>
   </g>
   <g id="line2d_25">
    <path clip-path="url(#p4c24ef2aa3)" d="M 347.323527 381.022149 
L 352.434341 380.782016 
L 355.50083 380.478901 
L 358.567318 379.969385 
L 360.611644 379.466574 
L 362.65597 378.792495 
L 364.700295 377.908195 
L 366.744621 376.773093 
L 368.788947 375.347575 
L 370.833272 373.596256 
L 372.877598 371.491706 
L 374.921924 369.01831 
L 376.966249 366.175816 
L 379.010575 362.982087 
L 382.077063 357.620184 
L 386.165715 349.747666 
L 392.298692 337.825692 
L 395.36518 332.485577 
L 397.409506 329.322885 
L 399.453832 326.527259 
L 401.498157 324.115214 
L 403.542483 322.081396 
L 405.586809 320.401939 
L 407.631134 319.039776 
L 409.67546 317.951252 
L 411.719786 317.093248 
L 413.764111 316.429902 
L 415.808437 315.938015 
L 417.852763 315.610394 
L 419.897088 315.45656 
L 421.941414 315.500618 
L 423.98574 315.776459 
L 426.030065 316.320861 
L 428.074391 317.165416 
L 430.118717 318.328444 
L 432.163042 319.808087 
L 434.207368 321.577691 
L 437.273856 324.653001 
L 444.428996 332.186593 
L 446.473322 333.951909 
L 448.517648 335.370965 
L 450.561973 336.38236 
L 452.606299 336.954743 
L 454.650625 337.089344 
L 456.69495 336.819586 
L 458.739276 336.207968 
L 460.783602 335.340611 
L 468.960904 331.433725 
L 471.00523 330.860185 
L 473.049556 330.604378 
L 475.093881 330.706039 
L 477.138207 331.180126 
L 479.182533 332.018716 
L 481.226858 333.194943 
L 483.271184 334.668353 
L 485.31551 336.390862 
L 488.381998 339.333063 
L 492.47065 343.694467 
L 498.603627 350.681232 
L 508.825255 362.382531 
L 512.913906 366.68981 
L 515.980395 369.621011 
L 519.046883 372.222252 
L 522.113372 374.449104 
L 525.17986 376.28389 
L 528.246349 377.736365 
L 531.312837 378.839598 
L 534.379326 379.642698 
L 537.445814 380.202453 
L 541.534466 380.667741 
L 546.64528 380.958479 
L 550.733931 381.06156 
L 550.733931 381.06156 
" style="fill:none;stroke:#1f77b4;stroke-linecap:square;stroke-width:1.5;"/>
   </g>
   <g id="patch_52">
    <path d="M 327.153007 381.1375 
L 327.153007 72.553611 
" style="fill:none;stroke:#000000;stroke-linecap:square;stroke-linejoin:miter;stroke-width:0.8;"/>
   </g>
   <g id="patch_53">
    <path d="M 347.1073 391.1375 
L 559.443611 391.1375 
" style="fill:none;stroke:#000000;stroke-linecap:square;stroke-linejoin:miter;stroke-width:0.8;"/>
   </g>
   <g id="legend_1">
    <g id="patch_54">
     <path d="M 499.423201 56.511875 
L 553.904451 56.511875 
Q 555.904451 56.511875 555.904451 54.511875 
L 555.904451 40.980625 
Q 555.904451 38.980625 553.904451 38.980625 
L 499.423201 38.980625 
Q 497.423201 38.980625 497.423201 40.980625 
L 497.423201 54.511875 
Q 497.423201 56.511875 499.423201 56.511875 
z
" style="fill:#ffffff;opacity:0.8;stroke:#cccccc;stroke-linejoin:miter;"/>
    </g>
    <g id="patch_55">
     <path d="M 501.423201 50.480625 
L 521.423201 50.480625 
L 521.423201 43.480625 
L 501.423201 43.480625 
z
" style="fill:#1f77b4;opacity:0.4;"/>
    </g>
    <g id="text_23">
     <text style="font-family:Roboto;font-size:10px;font-stretch:normal;font-style:normal;font-weight:normal;text-anchor:start;" transform="rotate(-0, 529.423201, 50.480625)" x="529.423201" y="50.480625">2018</text>
    </g>
   </g>
  </g>
  <g id="text_24">
   <text style="font-family:Roboto;font-size:12px;font-stretch:normal;font-style:normal;font-weight:normal;text-anchor:middle;" transform="rotate(-0, 288, 18.26625)" x="288" y="18.26625">How many years of software development experience for Australia (without 95 percentile)</text>
  </g>
 </g>
 <defs>
  <clipPath id="pcff4733bd3">
   <rect height="347.156875" width="223.751444" x="52.571875" y="33.980625"/>
  </clipPath>
  <clipPath id="p4c24ef2aa3">
   <rect height="347.156875" width="223.751444" x="337.153007" y="33.980625"/>
  </clipPath>
 </defs>
</svg>
