<?xml version="1.0" encoding="utf-8" standalone="no"?>
<!DOCTYPE svg PUBLIC "-//W3C//DTD SVG 1.1//EN"
  "http://www.w3.org/Graphics/SVG/1.1/DTD/svg11.dtd">
<svg xmlns:xlink="http://www.w3.org/1999/xlink" width="460.8pt" height="345.6pt" viewBox="0 0 460.8 345.6" xmlns="http://www.w3.org/2000/svg" version="1.1">
 <metadata>
  <rdf:RDF xmlns:dc="http://purl.org/dc/elements/1.1/" xmlns:cc="http://creativecommons.org/ns#" xmlns:rdf="http://www.w3.org/1999/02/22-rdf-syntax-ns#">
   <cc:Work>
    <dc:type rdf:resource="http://purl.org/dc/dcmitype/StillImage"/>
    <dc:date>2022-03-14T12:37:18.361598</dc:date>
    <dc:format>image/svg+xml</dc:format>
    <dc:creator>
     <cc:Agent>
      <dc:title>Matplotlib v3.5.1, https://matplotlib.org/</dc:title>
     </cc:Agent>
    </dc:creator>
   </cc:Work>
  </rdf:RDF>
 </metadata>
 <defs>
  <style type="text/css">*{stroke-linejoin: round; stroke-linecap: butt}</style>
 </defs>
 <g id="figure_1">
  <g id="patch_1">
   <path d="M 0 345.6 
L 460.8 345.6 
L 460.8 0 
L 0 0 
z
" style="fill: #ffffff"/>
  </g>
  <g id="axes_1">
   <g id="patch_2">
    <path d="M 92.16 302.4 
L 414.72 302.4 
L 414.72 41.472 
L 92.16 41.472 
z
" style="fill: #ffffff"/>
   </g>
   <g id="patch_3">
    <path d="M 139.943395 294.246 
L 244.607579 294.246 
L 244.607579 288.81 
L 139.943395 288.81 
z
" clip-path="url(#pfa5665cc0e)" style="fill: #1f77b4"/>
   </g>
   <g id="patch_4">
    <path d="M 139.943395 261.63 
L 183.663877 261.63 
L 183.663877 256.194 
L 139.943395 256.194 
z
" clip-path="url(#pfa5665cc0e)" style="fill: #1f77b4"/>
   </g>
   <g id="patch_5">
    <path d="M 139.943395 229.014 
L 287.003198 229.014 
L 287.003198 223.578 
L 139.943395 223.578 
z
" clip-path="url(#pfa5665cc0e)" style="fill: #1f77b4"/>
   </g>
   <g id="patch_6">
    <path d="M 139.943395 196.398 
L 156.283373 196.398 
L 156.283373 190.962 
L 139.943395 190.962 
z
" clip-path="url(#pfa5665cc0e)" style="fill: #1f77b4"/>
   </g>
   <g id="patch_7">
    <path d="M 139.943395 163.782 
L 204.861687 163.782 
L 204.861687 158.346 
L 139.943395 158.346 
z
" clip-path="url(#pfa5665cc0e)" style="fill: #1f77b4"/>
   </g>
   <g id="patch_8">
    <path d="M 139.943395 131.166 
L 164.232552 131.166 
L 164.232552 125.73 
L 139.943395 125.73 
z
" clip-path="url(#pfa5665cc0e)" style="fill: #1f77b4"/>
   </g>
   <g id="patch_9">
    <path d="M 139.943395 98.55 
L 150.100679 98.55 
L 150.100679 93.114 
L 139.943395 93.114 
z
" clip-path="url(#pfa5665cc0e)" style="fill: #1f77b4"/>
   </g>
   <g id="patch_10">
    <path d="M 139.943395 65.934 
L 163.790931 65.934 
L 163.790931 60.498 
L 139.943395 60.498 
z
" clip-path="url(#pfa5665cc0e)" style="fill: #1f77b4"/>
   </g>
   <g id="patch_11">
    <path d="M 139.943395 288.81 
L 217.668697 288.81 
L 217.668697 283.374 
L 139.943395 283.374 
z
" clip-path="url(#pfa5665cc0e)" style="fill: #ff7f0e"/>
   </g>
   <g id="patch_12">
    <path d="M 139.943395 256.194 
L 154.516889 256.194 
L 154.516889 250.758 
L 139.943395 250.758 
z
" clip-path="url(#pfa5665cc0e)" style="fill: #ff7f0e"/>
   </g>
   <g id="patch_13">
    <path d="M 139.943395 223.578 
L 253.881621 223.578 
L 253.881621 218.142 
L 139.943395 218.142 
z
" clip-path="url(#pfa5665cc0e)" style="fill: #ff7f0e"/>
   </g>
   <g id="patch_14">
    <path d="M 139.943395 190.962 
L 152.308784 190.962 
L 152.308784 185.526 
L 139.943395 185.526 
z
" clip-path="url(#pfa5665cc0e)" style="fill: #ff7f0e"/>
   </g>
   <g id="patch_15">
    <path d="M 139.943395 158.346 
L 211.044381 158.346 
L 211.044381 152.91 
L 139.943395 152.91 
z
" clip-path="url(#pfa5665cc0e)" style="fill: #ff7f0e"/>
   </g>
   <g id="patch_16">
    <path d="M 139.943395 125.73 
L 400.058182 125.73 
L 400.058182 120.294 
L 139.943395 120.294 
z
" clip-path="url(#pfa5665cc0e)" style="fill: #ff7f0e"/>
   </g>
   <g id="patch_17">
    <path d="M 139.943395 93.114 
L 140.826637 93.114 
L 140.826637 87.678 
L 139.943395 87.678 
z
" clip-path="url(#pfa5665cc0e)" style="fill: #ff7f0e"/>
   </g>
   <g id="patch_18">
    <path d="M 139.943395 60.498 
L 169.090383 60.498 
L 169.090383 55.062 
L 139.943395 55.062 
z
" clip-path="url(#pfa5665cc0e)" style="fill: #ff7f0e"/>
   </g>
   <g id="patch_19">
    <path d="M 139.943395 283.374 
L 113.004513 283.374 
L 113.004513 277.938 
L 139.943395 277.938 
z
" clip-path="url(#pfa5665cc0e)" style="fill: #2ca02c"/>
   </g>
   <g id="patch_20">
    <path d="M 139.943395 250.758 
L 110.796407 250.758 
L 110.796407 245.322 
L 139.943395 245.322 
z
" clip-path="url(#pfa5665cc0e)" style="fill: #2ca02c"/>
   </g>
   <g id="patch_21">
    <path d="M 139.943395 218.142 
L 106.821818 218.142 
L 106.821818 212.706 
L 139.943395 212.706 
z
" clip-path="url(#pfa5665cc0e)" style="fill: #2ca02c"/>
   </g>
   <g id="patch_22">
    <path d="M 139.943395 185.526 
L 135.968806 185.526 
L 135.968806 180.09 
L 139.943395 180.09 
z
" clip-path="url(#pfa5665cc0e)" style="fill: #2ca02c"/>
   </g>
   <g id="patch_23">
    <path d="M 139.943395 152.91 
L 146.12609 152.91 
L 146.12609 147.474 
L 139.943395 147.474 
z
" clip-path="url(#pfa5665cc0e)" style="fill: #2ca02c"/>
   </g>
   <g id="patch_24">
    <path d="M 139.943395 120.294 
L 375.769025 120.294 
L 375.769025 114.858 
L 139.943395 114.858 
z
" clip-path="url(#pfa5665cc0e)" style="fill: #2ca02c"/>
   </g>
   <g id="patch_25">
    <path d="M 139.943395 87.678 
L 130.669354 87.678 
L 130.669354 82.242 
L 139.943395 82.242 
z
" clip-path="url(#pfa5665cc0e)" style="fill: #2ca02c"/>
   </g>
   <g id="patch_26">
    <path d="M 139.943395 55.062 
L 145.242848 55.062 
L 145.242848 49.626 
L 139.943395 49.626 
z
" clip-path="url(#pfa5665cc0e)" style="fill: #2ca02c"/>
   </g>
   <g id="matplotlib.axis_1">
    <g id="xtick_1">
     <g id="line2d_1">
      <defs>
       <path id="m4c99cd72f3" d="M 0 0 
L 0 3.5 
" style="stroke: #000000; stroke-width: 0.8"/>
      </defs>
      <g>
       <use xlink:href="#m4c99cd72f3" x="95.781292" y="302.4" style="stroke: #000000; stroke-width: 0.8"/>
      </g>
     </g>
     <g id="text_1">
      <text style="font: 10px 'sans-serif'; text-anchor: middle" x="95.781292" y="316.573437" transform="rotate(-0, 95.781292, 316.573437)">−100</text>
     </g>
    </g>
    <g id="xtick_2">
     <g id="line2d_2">
      <g>
       <use xlink:href="#m4c99cd72f3" x="139.943395" y="302.4" style="stroke: #000000; stroke-width: 0.8"/>
      </g>
     </g>
     <g id="text_2">
      <text style="font: 10px 'sans-serif'; text-anchor: middle" x="139.943395" y="316.573437" transform="rotate(-0, 139.943395, 316.573437)">0</text>
     </g>
    </g>
    <g id="xtick_3">
     <g id="line2d_3">
      <g>
       <use xlink:href="#m4c99cd72f3" x="184.105498" y="302.4" style="stroke: #000000; stroke-width: 0.8"/>
      </g>
     </g>
     <g id="text_3">
      <text style="font: 10px 'sans-serif'; text-anchor: middle" x="184.105498" y="316.573437" transform="rotate(-0, 184.105498, 316.573437)">100</text>
     </g>
    </g>
    <g id="xtick_4">
     <g id="line2d_4">
      <g>
       <use xlink:href="#m4c99cd72f3" x="228.267601" y="302.4" style="stroke: #000000; stroke-width: 0.8"/>
      </g>
     </g>
     <g id="text_4">
      <text style="font: 10px 'sans-serif'; text-anchor: middle" x="228.267601" y="316.573437" transform="rotate(-0, 228.267601, 316.573437)">200</text>
     </g>
    </g>
    <g id="xtick_5">
     <g id="line2d_5">
      <g>
       <use xlink:href="#m4c99cd72f3" x="272.429704" y="302.4" style="stroke: #000000; stroke-width: 0.8"/>
      </g>
     </g>
     <g id="text_5">
      <text style="font: 10px 'sans-serif'; text-anchor: middle" x="272.429704" y="316.573437" transform="rotate(-0, 272.429704, 316.573437)">300</text>
     </g>
    </g>
    <g id="xtick_6">
     <g id="line2d_6">
      <g>
       <use xlink:href="#m4c99cd72f3" x="316.591807" y="302.4" style="stroke: #000000; stroke-width: 0.8"/>
      </g>
     </g>
     <g id="text_6">
      <text style="font: 10px 'sans-serif'; text-anchor: middle" x="316.591807" y="316.573437" transform="rotate(-0, 316.591807, 316.573437)">400</text>
     </g>
    </g>
    <g id="xtick_7">
     <g id="line2d_7">
      <g>
       <use xlink:href="#m4c99cd72f3" x="360.75391" y="302.4" style="stroke: #000000; stroke-width: 0.8"/>
      </g>
     </g>
     <g id="text_7">
      <text style="font: 10px 'sans-serif'; text-anchor: middle" x="360.75391" y="316.573437" transform="rotate(-0, 360.75391, 316.573437)">500</text>
     </g>
    </g>
    <g id="xtick_8">
     <g id="line2d_8">
      <g>
       <use xlink:href="#m4c99cd72f3" x="404.916013" y="302.4" style="stroke: #000000; stroke-width: 0.8"/>
      </g>
     </g>
     <g id="text_8">
      <text style="font: 10px 'sans-serif'; text-anchor: middle" x="404.916013" y="316.573437" transform="rotate(-0, 404.916013, 316.573437)">600</text>
     </g>
    </g>
   </g>
   <g id="matplotlib.axis_2">
    <g id="ytick_1">
     <g id="line2d_9">
      <defs>
       <path id="m8e343aef83" d="M 0 0 
L -3.5 0 
" style="stroke: #000000; stroke-width: 0.8"/>
      </defs>
      <g>
       <use xlink:href="#m8e343aef83" x="92.16" y="286.092" style="stroke: #000000; stroke-width: 0.8"/>
      </g>
     </g>
     <g id="text_9">
      <text style="font: 10px 'sans-serif'; text-anchor: end" x="85.16" y="289.690437" transform="rotate(-0, 85.16, 289.690437)">United Kingdom</text>
     </g>
    </g>
    <g id="ytick_2">
     <g id="line2d_10">
      <g>
       <use xlink:href="#m8e343aef83" x="92.16" y="253.476" style="stroke: #000000; stroke-width: 0.8"/>
      </g>
     </g>
     <g id="text_10">
      <text style="font: 10px 'sans-serif'; text-anchor: end" x="85.16" y="257.062719" transform="rotate(-0, 85.16, 257.062719)">Australia</text>
     </g>
    </g>
    <g id="ytick_3">
     <g id="line2d_11">
      <g>
       <use xlink:href="#m8e343aef83" x="92.16" y="220.86" style="stroke: #000000; stroke-width: 0.8"/>
      </g>
     </g>
     <g id="text_11">
      <text style="font: 10px 'sans-serif'; text-anchor: end" x="85.16" y="224.544375" transform="rotate(-0, 85.16, 224.544375)">Germany</text>
     </g>
    </g>
    <g id="ytick_4">
     <g id="line2d_12">
      <g>
       <use xlink:href="#m8e343aef83" x="92.16" y="188.244" style="stroke: #000000; stroke-width: 0.8"/>
      </g>
     </g>
     <g id="text_12">
      <text style="font: 10px 'sans-serif'; text-anchor: end" x="85.16" y="191.830719" transform="rotate(-0, 85.16, 191.830719)">New Zealand</text>
     </g>
    </g>
    <g id="ytick_5">
     <g id="line2d_13">
      <g>
       <use xlink:href="#m8e343aef83" x="92.16" y="155.628" style="stroke: #000000; stroke-width: 0.8"/>
      </g>
     </g>
     <g id="text_13">
      <text style="font: 10px 'sans-serif'; text-anchor: end" x="85.16" y="159.214719" transform="rotate(-0, 85.16, 159.214719)">United States</text>
     </g>
    </g>
    <g id="ytick_6">
     <g id="line2d_14">
      <g>
       <use xlink:href="#m8e343aef83" x="92.16" y="123.012" style="stroke: #000000; stroke-width: 0.8"/>
      </g>
     </g>
     <g id="text_14">
      <text style="font: 10px 'sans-serif'; text-anchor: end" x="85.16" y="126.598719" transform="rotate(-0, 85.16, 126.598719)">World</text>
     </g>
    </g>
    <g id="ytick_7">
     <g id="line2d_15">
      <g>
       <use xlink:href="#m8e343aef83" x="92.16" y="90.396" style="stroke: #000000; stroke-width: 0.8"/>
      </g>
     </g>
     <g id="text_15">
      <text style="font: 10px 'sans-serif'; text-anchor: end" x="85.16" y="93.982719" transform="rotate(-0, 85.16, 93.982719)">South Africa</text>
     </g>
    </g>
    <g id="ytick_8">
     <g id="line2d_16">
      <g>
       <use xlink:href="#m8e343aef83" x="92.16" y="57.78" style="stroke: #000000; stroke-width: 0.8"/>
      </g>
     </g>
     <g id="text_16">
      <text style="font: 10px 'sans-serif'; text-anchor: end" x="85.16" y="61.366719" transform="rotate(-0, 85.16, 61.366719)">Netherlands</text>
     </g>
    </g>
   </g>
   <g id="patch_27">
    <path d="M 92.16 302.4 
L 414.72 302.4 
" style="fill: none; stroke: #000000; stroke-width: 0.8; stroke-linejoin: miter; stroke-linecap: square"/>
   </g>
   <g id="legend_1">
    <g id="patch_28">
     <path d="M 89.365781 344.36704 
L 417.514219 344.36704 
Q 419.514219 344.36704 419.514219 342.36704 
L 419.514219 329.109227 
Q 419.514219 327.109227 417.514219 327.109227 
L 89.365781 327.109227 
Q 87.365781 327.109227 87.365781 329.109227 
L 87.365781 342.36704 
Q 87.365781 344.36704 89.365781 344.36704 
z
" style="fill: #ffffff; opacity: 0.8; stroke: #cccccc; stroke-linejoin: miter"/>
    </g>
    <g id="patch_29">
     <path d="M 91.365781 338.282665 
L 111.365781 338.282665 
L 111.365781 331.282665 
L 91.365781 331.282665 
z
" style="fill: #1f77b4"/>
    </g>
    <g id="text_17">
     <text style="font: 10px 'sans-serif'; text-anchor: start" x="119.365781" y="338.282665" transform="rotate(-0, 119.365781, 338.282665)">2018</text>
    </g>
    <g id="patch_30">
     <path d="M 161.609531 338.282665 
L 181.609531 338.282665 
L 181.609531 331.282665 
L 161.609531 331.282665 
z
" style="fill: #ff7f0e"/>
    </g>
    <g id="text_18">
     <text style="font: 10px 'sans-serif'; text-anchor: start" x="189.609531" y="338.282665" transform="rotate(-0, 189.609531, 338.282665)">2022</text>
    </g>
    <g id="patch_31">
     <path d="M 231.853281 338.282665 
L 251.853281 338.282665 
L 251.853281 331.282665 
L 231.853281 331.282665 
z
" style="fill: #2ca02c"/>
    </g>
    <g id="text_19">
     <text style="font: 10px 'sans-serif'; text-anchor: start" x="259.853281" y="338.282665" transform="rotate(-0, 259.853281, 338.282665)">Difference between 2018 and 2022</text>
    </g>
   </g>
  </g>
 </g>
 <defs>
  <clipPath id="pfa5665cc0e">
   <rect x="92.16" y="41.472" width="322.56" height="260.928"/>
  </clipPath>
 </defs>
</svg>
