<?xml version="1.0" encoding="utf-8" standalone="no"?>
<!DOCTYPE svg PUBLIC "-//W3C//DTD SVG 1.1//EN"
  "http://www.w3.org/Graphics/SVG/1.1/DTD/svg11.dtd">
<svg height="345.6pt" version="1.1" viewBox="0 0 460.8 345.6" width="460.8pt" xmlns="http://www.w3.org/2000/svg" xmlns:xlink="http://www.w3.org/1999/xlink">
 <metadata>
  <rdf:RDF xmlns:cc="http://creativecommons.org/ns#" xmlns:dc="http://purl.org/dc/elements/1.1/" xmlns:rdf="http://www.w3.org/1999/02/22-rdf-syntax-ns#">
   <cc:Work>
    <dc:type rdf:resource="http://purl.org/dc/dcmitype/StillImage"/>
    <dc:date>2021-06-09T14:59:29.206846</dc:date>
    <dc:format>image/svg+xml</dc:format>
    <dc:creator>
     <cc:Agent>
      <dc:title>Matplotlib v3.4.2, https://matplotlib.org/</dc:title>
     </cc:Agent>
    </dc:creator>
   </cc:Work>
  </rdf:RDF>
 </metadata>
 <defs>
  <style type="text/css">*{stroke-linecap:butt;stroke-linejoin:round;}</style>
 </defs>
 <g id="figure_1">
  <g id="patch_1">
   <path d="M 0 345.6 
L 460.8 345.6 
L 460.8 0 
L 0 0 
z
" style="fill:#ffffff;"/>
  </g>
  <g id="axes_1">
   <g id="patch_2">
    <path d="M 92.16 302.4 
L 414.72 302.4 
L 414.72 41.472 
L 92.16 41.472 
z
" style="fill:#ffffff;"/>
   </g>
   <g id="patch_3">
    <path clip-path="url(#pfa5665cc0e)" d="M 125.766864 289.3536 
L 260.853279 289.3536 
L 260.853279 280.656 
L 125.766864 280.656 
z
" style="fill:#1f77b4;"/>
   </g>
   <g id="patch_4">
    <path clip-path="url(#pfa5665cc0e)" d="M 125.766864 237.168 
L 393.468601 237.168 
L 393.468601 228.4704 
L 125.766864 228.4704 
z
" style="fill:#1f77b4;"/>
   </g>
   <g id="patch_5">
    <path clip-path="url(#pfa5665cc0e)" d="M 125.766864 184.9824 
L 189.191583 184.9824 
L 189.191583 176.2848 
L 125.766864 176.2848 
z
" style="fill:#1f77b4;"/>
   </g>
   <g id="patch_6">
    <path clip-path="url(#pfa5665cc0e)" d="M 125.766864 132.7968 
L 143.888212 132.7968 
L 143.888212 124.0992 
L 125.766864 124.0992 
z
" style="fill:#1f77b4;"/>
   </g>
   <g id="patch_7">
    <path clip-path="url(#pfa5665cc0e)" d="M 125.766864 80.6112 
L 334.16237 80.6112 
L 334.16237 71.9136 
L 125.766864 71.9136 
z
" style="fill:#1f77b4;"/>
   </g>
   <g id="patch_8">
    <path clip-path="url(#pfa5665cc0e)" d="M 125.766864 280.656 
L 246.850419 280.656 
L 246.850419 271.9584 
L 125.766864 271.9584 
z
" style="fill:#ff7f0e;"/>
   </g>
   <g id="patch_9">
    <path clip-path="url(#pfa5665cc0e)" d="M 125.766864 228.4704 
L 400.058182 228.4704 
L 400.058182 219.7728 
L 125.766864 219.7728 
z
" style="fill:#ff7f0e;"/>
   </g>
   <g id="patch_10">
    <path clip-path="url(#pfa5665cc0e)" d="M 125.766864 176.2848 
L 170.246537 176.2848 
L 170.246537 167.5872 
L 125.766864 167.5872 
z
" style="fill:#ff7f0e;"/>
   </g>
   <g id="patch_11">
    <path clip-path="url(#pfa5665cc0e)" d="M 125.766864 124.0992 
L 144.71191 124.0992 
L 144.71191 115.4016 
L 125.766864 115.4016 
z
" style="fill:#ff7f0e;"/>
   </g>
   <g id="patch_12">
    <path clip-path="url(#pfa5665cc0e)" d="M 125.766864 71.9136 
L 320.983207 71.9136 
L 320.983207 63.216 
L 125.766864 63.216 
z
" style="fill:#ff7f0e;"/>
   </g>
   <g id="patch_13">
    <path clip-path="url(#pfa5665cc0e)" d="M 125.766864 271.9584 
L 111.764004 271.9584 
L 111.764004 263.2608 
L 125.766864 263.2608 
z
" style="fill:#2ca02c;"/>
   </g>
   <g id="patch_14">
    <path clip-path="url(#pfa5665cc0e)" d="M 125.766864 219.7728 
L 132.356445 219.7728 
L 132.356445 211.0752 
L 125.766864 211.0752 
z
" style="fill:#2ca02c;"/>
   </g>
   <g id="patch_15">
    <path clip-path="url(#pfa5665cc0e)" d="M 125.766864 167.5872 
L 106.821818 167.5872 
L 106.821818 158.8896 
L 125.766864 158.8896 
z
" style="fill:#2ca02c;"/>
   </g>
   <g id="patch_16">
    <path clip-path="url(#pfa5665cc0e)" d="M 125.766864 115.4016 
L 126.590562 115.4016 
L 126.590562 106.704 
L 125.766864 106.704 
z
" style="fill:#2ca02c;"/>
   </g>
   <g id="patch_17">
    <path clip-path="url(#pfa5665cc0e)" d="M 125.766864 63.216 
L 112.587702 63.216 
L 112.587702 54.5184 
L 125.766864 54.5184 
z
" style="fill:#2ca02c;"/>
   </g>
   <g id="matplotlib.axis_1">
    <g id="xtick_1">
     <g id="line2d_1">
      <defs>
       <path d="M 0 0 
L 0 3.5 
" id="mc3a356a46d" style="stroke:#000000;stroke-width:0.8;"/>
      </defs>
      <g>
       <use style="stroke:#000000;stroke-width:0.8;" x="125.766864" xlink:href="#mc3a356a46d" y="302.4"/>
      </g>
     </g>
     <g id="text_1">
      <text style="font-family:Arial;font-size:10px;font-stretch:normal;font-style:normal;font-weight:normal;text-anchor:middle;" transform="rotate(-0, 125.766864, 316.557812)" x="125.766864" y="316.557812">0</text>
     </g>
    </g>
    <g id="xtick_2">
     <g id="line2d_2">
      <g>
       <use style="stroke:#000000;stroke-width:0.8;" x="166.951747" xlink:href="#mc3a356a46d" y="302.4"/>
      </g>
     </g>
     <g id="text_2">
      <text style="font-family:Arial;font-size:10px;font-stretch:normal;font-style:normal;font-weight:normal;text-anchor:middle;" transform="rotate(-0, 166.951747, 316.557812)" x="166.951747" y="316.557812">50</text>
     </g>
    </g>
    <g id="xtick_3">
     <g id="line2d_3">
      <g>
       <use style="stroke:#000000;stroke-width:0.8;" x="208.136629" xlink:href="#mc3a356a46d" y="302.4"/>
      </g>
     </g>
     <g id="text_3">
      <text style="font-family:Arial;font-size:10px;font-stretch:normal;font-style:normal;font-weight:normal;text-anchor:middle;" transform="rotate(-0, 208.136629, 316.557812)" x="208.136629" y="316.557812">100</text>
     </g>
    </g>
    <g id="xtick_4">
     <g id="line2d_4">
      <g>
       <use style="stroke:#000000;stroke-width:0.8;" x="249.321512" xlink:href="#mc3a356a46d" y="302.4"/>
      </g>
     </g>
     <g id="text_4">
      <text style="font-family:Arial;font-size:10px;font-stretch:normal;font-style:normal;font-weight:normal;text-anchor:middle;" transform="rotate(-0, 249.321512, 316.557812)" x="249.321512" y="316.557812">150</text>
     </g>
    </g>
    <g id="xtick_5">
     <g id="line2d_5">
      <g>
       <use style="stroke:#000000;stroke-width:0.8;" x="290.506394" xlink:href="#mc3a356a46d" y="302.4"/>
      </g>
     </g>
     <g id="text_5">
      <text style="font-family:Arial;font-size:10px;font-stretch:normal;font-style:normal;font-weight:normal;text-anchor:middle;" transform="rotate(-0, 290.506394, 316.557812)" x="290.506394" y="316.557812">200</text>
     </g>
    </g>
    <g id="xtick_6">
     <g id="line2d_6">
      <g>
       <use style="stroke:#000000;stroke-width:0.8;" x="331.691277" xlink:href="#mc3a356a46d" y="302.4"/>
      </g>
     </g>
     <g id="text_6">
      <text style="font-family:Arial;font-size:10px;font-stretch:normal;font-style:normal;font-weight:normal;text-anchor:middle;" transform="rotate(-0, 331.691277, 316.557812)" x="331.691277" y="316.557812">250</text>
     </g>
    </g>
    <g id="xtick_7">
     <g id="line2d_7">
      <g>
       <use style="stroke:#000000;stroke-width:0.8;" x="372.876159" xlink:href="#mc3a356a46d" y="302.4"/>
      </g>
     </g>
     <g id="text_7">
      <text style="font-family:Arial;font-size:10px;font-stretch:normal;font-style:normal;font-weight:normal;text-anchor:middle;" transform="rotate(-0, 372.876159, 316.557812)" x="372.876159" y="316.557812">300</text>
     </g>
    </g>
    <g id="xtick_8">
     <g id="line2d_8">
      <g>
       <use style="stroke:#000000;stroke-width:0.8;" x="414.061042" xlink:href="#mc3a356a46d" y="302.4"/>
      </g>
     </g>
     <g id="text_8">
      <text style="font-family:Arial;font-size:10px;font-stretch:normal;font-style:normal;font-weight:normal;text-anchor:middle;" transform="rotate(-0, 414.061042, 316.557812)" x="414.061042" y="316.557812">350</text>
     </g>
    </g>
   </g>
   <g id="matplotlib.axis_2">
    <g id="ytick_1">
     <g id="line2d_9">
      <defs>
       <path d="M 0 0 
L -3.5 0 
" id="m82278324de" style="stroke:#000000;stroke-width:0.8;"/>
      </defs>
      <g>
       <use style="stroke:#000000;stroke-width:0.8;" x="92.16" xlink:href="#m82278324de" y="276.3072"/>
      </g>
     </g>
     <g id="text_9">
      <text style="font-family:Arial;font-size:10px;font-stretch:normal;font-style:normal;font-weight:normal;text-anchor:end;" transform="rotate(-0, 85.16, 279.886106)" x="85.16" y="279.886106">United States</text>
     </g>
    </g>
    <g id="ytick_2">
     <g id="line2d_10">
      <g>
       <use style="stroke:#000000;stroke-width:0.8;" x="92.16" xlink:href="#m82278324de" y="224.1216"/>
      </g>
     </g>
     <g id="text_10">
      <text style="font-family:Arial;font-size:10px;font-stretch:normal;font-style:normal;font-weight:normal;text-anchor:end;" transform="rotate(-0, 85.16, 227.761444)" x="85.16" y="227.761444">Germany</text>
     </g>
    </g>
    <g id="ytick_3">
     <g id="line2d_11">
      <g>
       <use style="stroke:#000000;stroke-width:0.8;" x="92.16" xlink:href="#m82278324de" y="171.936"/>
      </g>
     </g>
     <g id="text_11">
      <text style="font-family:Arial;font-size:10px;font-stretch:normal;font-style:normal;font-weight:normal;text-anchor:end;" transform="rotate(-0, 85.16, 175.514906)" x="85.16" y="175.514906">Netherlands</text>
     </g>
    </g>
    <g id="ytick_4">
     <g id="line2d_12">
      <g>
       <use style="stroke:#000000;stroke-width:0.8;" x="92.16" xlink:href="#m82278324de" y="119.7504"/>
      </g>
     </g>
     <g id="text_12">
      <text style="font-family:Arial;font-size:10px;font-stretch:normal;font-style:normal;font-weight:normal;text-anchor:end;" transform="rotate(-0, 85.16, 123.329306)" x="85.16" y="123.329306">South Africa</text>
     </g>
    </g>
    <g id="ytick_5">
     <g id="line2d_13">
      <g>
       <use style="stroke:#000000;stroke-width:0.8;" x="92.16" xlink:href="#m82278324de" y="67.5648"/>
      </g>
     </g>
     <g id="text_13">
      <text style="font-family:Arial;font-size:10px;font-stretch:normal;font-style:normal;font-weight:normal;text-anchor:end;" transform="rotate(-0, 85.16, 71.143706)" x="85.16" y="71.143706">United Kingdom</text>
     </g>
    </g>
   </g>
   <g id="patch_18">
    <path d="M 92.16 302.4 
L 414.72 302.4 
" style="fill:none;stroke:#000000;stroke-linecap:square;stroke-linejoin:miter;stroke-width:0.8;"/>
   </g>
   <g id="legend_1">
    <g id="patch_19">
     <path d="M 89.453281 344.36704 
L 417.426719 344.36704 
Q 419.426719 344.36704 419.426719 342.36704 
L 419.426719 329.221727 
Q 419.426719 327.221727 417.426719 327.221727 
L 89.453281 327.221727 
Q 87.453281 327.221727 87.453281 329.221727 
L 87.453281 342.36704 
Q 87.453281 344.36704 89.453281 344.36704 
z
" style="fill:#ffffff;opacity:0.8;stroke:#cccccc;stroke-linejoin:miter;"/>
    </g>
    <g id="patch_20">
     <path d="M 91.453281 338.37954 
L 111.453281 338.37954 
L 111.453281 331.37954 
L 91.453281 331.37954 
z
" style="fill:#1f77b4;"/>
    </g>
    <g id="text_14">
     <text style="font-family:Arial;font-size:10px;font-stretch:normal;font-style:normal;font-weight:normal;text-anchor:start;" transform="rotate(-0, 119.453281, 338.37954)" x="119.453281" y="338.37954">2017</text>
    </g>
    <g id="patch_21">
     <path d="M 161.697031 338.37954 
L 181.697031 338.37954 
L 181.697031 331.37954 
L 161.697031 331.37954 
z
" style="fill:#ff7f0e;"/>
    </g>
    <g id="text_15">
     <text style="font-family:Arial;font-size:10px;font-stretch:normal;font-style:normal;font-weight:normal;text-anchor:start;" transform="rotate(-0, 189.697031, 338.37954)" x="189.697031" y="338.37954">2018</text>
    </g>
    <g id="patch_22">
     <path d="M 231.940781 338.37954 
L 251.940781 338.37954 
L 251.940781 331.37954 
L 231.940781 331.37954 
z
" style="fill:#2ca02c;"/>
    </g>
    <g id="text_16">
     <text style="font-family:Arial;font-size:10px;font-stretch:normal;font-style:normal;font-weight:normal;text-anchor:start;" transform="rotate(-0, 259.940781, 338.37954)" x="259.940781" y="338.37954">Difference between 2017 and 2018</text>
    </g>
   </g>
  </g>
 </g>
 <defs>
  <clipPath id="pfa5665cc0e">
   <rect height="260.928" width="322.56" x="92.16" y="41.472"/>
  </clipPath>
 </defs>
</svg>
