<?xml version="1.0" encoding="utf-8" standalone="no"?>
<!DOCTYPE svg PUBLIC "-//W3C//DTD SVG 1.1//EN"
  "http://www.w3.org/Graphics/SVG/1.1/DTD/svg11.dtd">
<svg xmlns:xlink="http://www.w3.org/1999/xlink" width="460.8pt" height="345.6pt" viewBox="0 0 460.8 345.6" xmlns="http://www.w3.org/2000/svg" version="1.1">
 <metadata>
  <rdf:RDF xmlns:dc="http://purl.org/dc/elements/1.1/" xmlns:cc="http://creativecommons.org/ns#" xmlns:rdf="http://www.w3.org/1999/02/22-rdf-syntax-ns#">
   <cc:Work>
    <dc:type rdf:resource="http://purl.org/dc/dcmitype/StillImage"/>
    <dc:date>2022-03-21T16:07:00.929357</dc:date>
    <dc:format>image/svg+xml</dc:format>
    <dc:creator>
     <cc:Agent>
      <dc:title>Matplotlib v3.5.1, https://matplotlib.org/</dc:title>
     </cc:Agent>
    </dc:creator>
   </cc:Work>
  </rdf:RDF>
 </metadata>
 <defs>
  <style type="text/css">*{stroke-linejoin: round; stroke-linecap: butt}</style>
 </defs>
 <g id="figure_1">
  <g id="patch_1">
   <path d="M 0 345.6 
L 460.8 345.6 
L 460.8 0 
L 0 0 
z
" style="fill: #ffffff"/>
  </g>
  <g id="axes_1">
   <g id="patch_2">
    <path d="M 88.99 289.034067 
L 450 289.034067 
L 450 10.8 
L 88.99 10.8 
z
" style="fill: #ffffff"/>
   </g>
   <g id="patch_3">
    <path d="M 142.469302 280.339253 
L 259.609732 280.339253 
L 259.609732 274.54271 
L 142.469302 274.54271 
z
" clip-path="url(#p76d3de1fc1)" style="fill: #1f77b4"/>
   </g>
   <g id="patch_4">
    <path d="M 142.469302 245.559994 
L 191.40138 245.559994 
L 191.40138 239.763451 
L 142.469302 239.763451 
z
" clip-path="url(#p76d3de1fc1)" style="fill: #1f77b4"/>
   </g>
   <g id="patch_5">
    <path d="M 142.469302 210.780736 
L 307.05902 210.780736 
L 307.05902 204.984193 
L 142.469302 204.984193 
z
" clip-path="url(#p76d3de1fc1)" style="fill: #1f77b4"/>
   </g>
   <g id="patch_6">
    <path d="M 142.469302 176.001477 
L 160.757048 176.001477 
L 160.757048 170.204934 
L 142.469302 170.204934 
z
" clip-path="url(#p76d3de1fc1)" style="fill: #1f77b4"/>
   </g>
   <g id="patch_7">
    <path d="M 142.469302 141.222219 
L 215.126024 141.222219 
L 215.126024 135.425676 
L 142.469302 135.425676 
z
" clip-path="url(#p76d3de1fc1)" style="fill: #1f77b4"/>
   </g>
   <g id="patch_8">
    <path d="M 142.469302 106.442961 
L 169.65379 106.442961 
L 169.65379 100.646418 
L 142.469302 100.646418 
z
" clip-path="url(#p76d3de1fc1)" style="fill: #1f77b4"/>
   </g>
   <g id="patch_9">
    <path d="M 142.469302 71.663702 
L 153.83736 71.663702 
L 153.83736 65.867159 
L 142.469302 65.867159 
z
" clip-path="url(#p76d3de1fc1)" style="fill: #1f77b4"/>
   </g>
   <g id="patch_10">
    <path d="M 142.469302 36.884444 
L 169.159526 36.884444 
L 169.159526 31.087901 
L 142.469302 31.087901 
z
" clip-path="url(#p76d3de1fc1)" style="fill: #1f77b4"/>
   </g>
   <g id="patch_11">
    <path d="M 142.469302 274.54271 
L 229.459663 274.54271 
L 229.459663 268.746166 
L 142.469302 268.746166 
z
" clip-path="url(#p76d3de1fc1)" style="fill: #ff7f0e"/>
   </g>
   <g id="patch_12">
    <path d="M 142.469302 239.763451 
L 158.779995 239.763451 
L 158.779995 233.966908 
L 142.469302 233.966908 
z
" clip-path="url(#p76d3de1fc1)" style="fill: #ff7f0e"/>
   </g>
   <g id="patch_13">
    <path d="M 142.469302 204.984193 
L 269.989263 204.984193 
L 269.989263 199.18765 
L 142.469302 199.18765 
z
" clip-path="url(#p76d3de1fc1)" style="fill: #ff7f0e"/>
   </g>
   <g id="patch_14">
    <path d="M 142.469302 170.204934 
L 156.308677 170.204934 
L 156.308677 164.408391 
L 142.469302 164.408391 
z
" clip-path="url(#p76d3de1fc1)" style="fill: #ff7f0e"/>
   </g>
   <g id="patch_15">
    <path d="M 142.469302 135.425676 
L 222.045712 135.425676 
L 222.045712 129.629133 
L 142.469302 129.629133 
z
" clip-path="url(#p76d3de1fc1)" style="fill: #ff7f0e"/>
   </g>
   <g id="patch_16">
    <path d="M 142.469302 100.646418 
L 433.590455 100.646418 
L 433.590455 94.849874 
L 142.469302 94.849874 
z
" clip-path="url(#p76d3de1fc1)" style="fill: #ff7f0e"/>
   </g>
   <g id="patch_17">
    <path d="M 142.469302 65.867159 
L 143.457829 65.867159 
L 143.457829 60.070616 
L 142.469302 60.070616 
z
" clip-path="url(#p76d3de1fc1)" style="fill: #ff7f0e"/>
   </g>
   <g id="patch_18">
    <path d="M 142.469302 31.087901 
L 175.090687 31.087901 
L 175.090687 25.291358 
L 142.469302 25.291358 
z
" clip-path="url(#p76d3de1fc1)" style="fill: #ff7f0e"/>
   </g>
   <g id="patch_19">
    <path d="M 142.469302 268.746166 
L 112.319233 268.746166 
L 112.319233 262.949623 
L 142.469302 262.949623 
z
" clip-path="url(#p76d3de1fc1)" style="fill: #2ca02c"/>
   </g>
   <g id="patch_20">
    <path d="M 142.469302 233.966908 
L 109.847916 233.966908 
L 109.847916 228.170365 
L 142.469302 228.170365 
z
" clip-path="url(#p76d3de1fc1)" style="fill: #2ca02c"/>
   </g>
   <g id="patch_21">
    <path d="M 142.469302 199.18765 
L 105.399545 199.18765 
L 105.399545 193.391107 
L 142.469302 193.391107 
z
" clip-path="url(#p76d3de1fc1)" style="fill: #2ca02c"/>
   </g>
   <g id="patch_22">
    <path d="M 142.469302 164.408391 
L 138.020931 164.408391 
L 138.020931 158.611848 
L 142.469302 158.611848 
z
" clip-path="url(#p76d3de1fc1)" style="fill: #2ca02c"/>
   </g>
   <g id="patch_23">
    <path d="M 142.469302 129.629133 
L 149.38899 129.629133 
L 149.38899 123.83259 
L 142.469302 123.83259 
z
" clip-path="url(#p76d3de1fc1)" style="fill: #2ca02c"/>
   </g>
   <g id="patch_24">
    <path d="M 142.469302 94.849874 
L 406.405967 94.849874 
L 406.405967 89.053331 
L 142.469302 89.053331 
z
" clip-path="url(#p76d3de1fc1)" style="fill: #2ca02c"/>
   </g>
   <g id="patch_25">
    <path d="M 142.469302 60.070616 
L 132.08977 60.070616 
L 132.08977 54.274073 
L 142.469302 54.274073 
z
" clip-path="url(#p76d3de1fc1)" style="fill: #2ca02c"/>
   </g>
   <g id="patch_26">
    <path d="M 142.469302 25.291358 
L 148.400463 25.291358 
L 148.400463 19.494815 
L 142.469302 19.494815 
z
" clip-path="url(#p76d3de1fc1)" style="fill: #2ca02c"/>
   </g>
   <g id="matplotlib.axis_1">
    <g id="xtick_1">
     <g id="line2d_1">
      <defs>
       <path id="m4c99cd72f3" d="M 0 0 
L 0 3.5 
" style="stroke: #000000; stroke-width: 0.8"/>
      </defs>
      <g>
       <use xlink:href="#m4c99cd72f3" x="93.04296" y="289.034067" style="stroke: #000000; stroke-width: 0.8"/>
      </g>
     </g>
     <g id="text_1">
      <text style="font: 10px 'sans-serif'; text-anchor: middle" x="93.04296" y="303.207505" transform="rotate(-0, 93.04296, 303.207505)">−100</text>
     </g>
    </g>
    <g id="xtick_2">
     <g id="line2d_2">
      <g>
       <use xlink:href="#m4c99cd72f3" x="142.469302" y="289.034067" style="stroke: #000000; stroke-width: 0.8"/>
      </g>
     </g>
     <g id="text_2">
      <text style="font: 10px 'sans-serif'; text-anchor: middle" x="142.469302" y="303.207505" transform="rotate(-0, 142.469302, 303.207505)">0</text>
     </g>
    </g>
    <g id="xtick_3">
     <g id="line2d_3">
      <g>
       <use xlink:href="#m4c99cd72f3" x="191.895643" y="289.034067" style="stroke: #000000; stroke-width: 0.8"/>
      </g>
     </g>
     <g id="text_3">
      <text style="font: 10px 'sans-serif'; text-anchor: middle" x="191.895643" y="303.207505" transform="rotate(-0, 191.895643, 303.207505)">100</text>
     </g>
    </g>
    <g id="xtick_4">
     <g id="line2d_4">
      <g>
       <use xlink:href="#m4c99cd72f3" x="241.321985" y="289.034067" style="stroke: #000000; stroke-width: 0.8"/>
      </g>
     </g>
     <g id="text_4">
      <text style="font: 10px 'sans-serif'; text-anchor: middle" x="241.321985" y="303.207505" transform="rotate(-0, 241.321985, 303.207505)">200</text>
     </g>
    </g>
    <g id="xtick_5">
     <g id="line2d_5">
      <g>
       <use xlink:href="#m4c99cd72f3" x="290.748327" y="289.034067" style="stroke: #000000; stroke-width: 0.8"/>
      </g>
     </g>
     <g id="text_5">
      <text style="font: 10px 'sans-serif'; text-anchor: middle" x="290.748327" y="303.207505" transform="rotate(-0, 290.748327, 303.207505)">300</text>
     </g>
    </g>
    <g id="xtick_6">
     <g id="line2d_6">
      <g>
       <use xlink:href="#m4c99cd72f3" x="340.174669" y="289.034067" style="stroke: #000000; stroke-width: 0.8"/>
      </g>
     </g>
     <g id="text_6">
      <text style="font: 10px 'sans-serif'; text-anchor: middle" x="340.174669" y="303.207505" transform="rotate(-0, 340.174669, 303.207505)">400</text>
     </g>
    </g>
    <g id="xtick_7">
     <g id="line2d_7">
      <g>
       <use xlink:href="#m4c99cd72f3" x="389.60101" y="289.034067" style="stroke: #000000; stroke-width: 0.8"/>
      </g>
     </g>
     <g id="text_7">
      <text style="font: 10px 'sans-serif'; text-anchor: middle" x="389.60101" y="303.207505" transform="rotate(-0, 389.60101, 303.207505)">500</text>
     </g>
    </g>
    <g id="xtick_8">
     <g id="line2d_8">
      <g>
       <use xlink:href="#m4c99cd72f3" x="439.027352" y="289.034067" style="stroke: #000000; stroke-width: 0.8"/>
      </g>
     </g>
     <g id="text_8">
      <text style="font: 10px 'sans-serif'; text-anchor: middle" x="439.027352" y="303.207505" transform="rotate(-0, 439.027352, 303.207505)">600</text>
     </g>
    </g>
   </g>
   <g id="matplotlib.axis_2">
    <g id="ytick_1">
     <g id="line2d_9">
      <defs>
       <path id="m8e343aef83" d="M 0 0 
L -3.5 0 
" style="stroke: #000000; stroke-width: 0.8"/>
      </defs>
      <g>
       <use xlink:href="#m8e343aef83" x="88.99" y="271.644438" style="stroke: #000000; stroke-width: 0.8"/>
      </g>
     </g>
     <g id="text_9">
      <text style="font: 10px 'sans-serif'; text-anchor: end" x="81.99" y="275.242875" transform="rotate(-0, 81.99, 275.242875)">United Kingdom</text>
     </g>
    </g>
    <g id="ytick_2">
     <g id="line2d_10">
      <g>
       <use xlink:href="#m8e343aef83" x="88.99" y="236.86518" style="stroke: #000000; stroke-width: 0.8"/>
      </g>
     </g>
     <g id="text_10">
      <text style="font: 10px 'sans-serif'; text-anchor: end" x="81.99" y="240.451898" transform="rotate(-0, 81.99, 240.451898)">Australia</text>
     </g>
    </g>
    <g id="ytick_3">
     <g id="line2d_11">
      <g>
       <use xlink:href="#m8e343aef83" x="88.99" y="202.085921" style="stroke: #000000; stroke-width: 0.8"/>
      </g>
     </g>
     <g id="text_11">
      <text style="font: 10px 'sans-serif'; text-anchor: end" x="81.99" y="205.770296" transform="rotate(-0, 81.99, 205.770296)">Germany</text>
     </g>
    </g>
    <g id="ytick_4">
     <g id="line2d_12">
      <g>
       <use xlink:href="#m8e343aef83" x="88.99" y="167.306663" style="stroke: #000000; stroke-width: 0.8"/>
      </g>
     </g>
     <g id="text_12">
      <text style="font: 10px 'sans-serif'; text-anchor: end" x="81.99" y="170.893382" transform="rotate(-0, 81.99, 170.893382)">New Zealand</text>
     </g>
    </g>
    <g id="ytick_5">
     <g id="line2d_13">
      <g>
       <use xlink:href="#m8e343aef83" x="88.99" y="132.527404" style="stroke: #000000; stroke-width: 0.8"/>
      </g>
     </g>
     <g id="text_13">
      <text style="font: 10px 'sans-serif'; text-anchor: end" x="81.99" y="136.114123" transform="rotate(-0, 81.99, 136.114123)">United States</text>
     </g>
    </g>
    <g id="ytick_6">
     <g id="line2d_14">
      <g>
       <use xlink:href="#m8e343aef83" x="88.99" y="97.748146" style="stroke: #000000; stroke-width: 0.8"/>
      </g>
     </g>
     <g id="text_14">
      <text style="font: 10px 'sans-serif'; text-anchor: end" x="81.99" y="101.334865" transform="rotate(-0, 81.99, 101.334865)">World</text>
     </g>
    </g>
    <g id="ytick_7">
     <g id="line2d_15">
      <g>
       <use xlink:href="#m8e343aef83" x="88.99" y="62.968888" style="stroke: #000000; stroke-width: 0.8"/>
      </g>
     </g>
     <g id="text_15">
      <text style="font: 10px 'sans-serif'; text-anchor: end" x="81.99" y="66.555606" transform="rotate(-0, 81.99, 66.555606)">South Africa</text>
     </g>
    </g>
    <g id="ytick_8">
     <g id="line2d_16">
      <g>
       <use xlink:href="#m8e343aef83" x="88.99" y="28.189629" style="stroke: #000000; stroke-width: 0.8"/>
      </g>
     </g>
     <g id="text_16">
      <text style="font: 10px 'sans-serif'; text-anchor: end" x="81.99" y="31.776348" transform="rotate(-0, 81.99, 31.776348)">Netherlands</text>
     </g>
    </g>
   </g>
   <g id="patch_27">
    <path d="M 88.99 289.034067 
L 450 289.034067 
" style="fill: none; stroke: #000000; stroke-width: 0.8; stroke-linejoin: miter; stroke-linecap: square"/>
   </g>
   <g id="legend_1">
    <g id="patch_28">
     <path d="M 105.420781 334.116199 
L 433.569219 334.116199 
Q 435.569219 334.116199 435.569219 332.116199 
L 435.569219 318.858387 
Q 435.569219 316.858387 433.569219 316.858387 
L 105.420781 316.858387 
Q 103.420781 316.858387 103.420781 318.858387 
L 103.420781 332.116199 
Q 103.420781 334.116199 105.420781 334.116199 
z
" style="fill: #ffffff; opacity: 0.8; stroke: #cccccc; stroke-linejoin: miter"/>
    </g>
    <g id="patch_29">
     <path d="M 107.420781 328.031824 
L 127.420781 328.031824 
L 127.420781 321.031824 
L 107.420781 321.031824 
z
" style="fill: #1f77b4"/>
    </g>
    <g id="text_17">
     <text style="font: 10px 'sans-serif'; text-anchor: start" x="135.420781" y="328.031824" transform="rotate(-0, 135.420781, 328.031824)">2018</text>
    </g>
    <g id="patch_30">
     <path d="M 177.664531 328.031824 
L 197.664531 328.031824 
L 197.664531 321.031824 
L 177.664531 321.031824 
z
" style="fill: #ff7f0e"/>
    </g>
    <g id="text_18">
     <text style="font: 10px 'sans-serif'; text-anchor: start" x="205.664531" y="328.031824" transform="rotate(-0, 205.664531, 328.031824)">2022</text>
    </g>
    <g id="patch_31">
     <path d="M 247.908281 328.031824 
L 267.908281 328.031824 
L 267.908281 321.031824 
L 247.908281 321.031824 
z
" style="fill: #2ca02c"/>
    </g>
    <g id="text_19">
     <text style="font: 10px 'sans-serif'; text-anchor: start" x="275.908281" y="328.031824" transform="rotate(-0, 275.908281, 328.031824)">Difference between 2018 and 2022</text>
    </g>
   </g>
  </g>
 </g>
 <defs>
  <clipPath id="p76d3de1fc1">
   <rect x="88.99" y="10.8" width="361.01" height="278.234067"/>
  </clipPath>
 </defs>
</svg>
