<?xml version="1.0" encoding="utf-8" standalone="no"?>
<!DOCTYPE svg PUBLIC "-//W3C//DTD SVG 1.1//EN"
  "http://www.w3.org/Graphics/SVG/1.1/DTD/svg11.dtd">
<svg xmlns:xlink="http://www.w3.org/1999/xlink" width="576pt" height="432pt" viewBox="0 0 576 432" xmlns="http://www.w3.org/2000/svg" version="1.1">
 <metadata>
  <rdf:RDF xmlns:dc="http://purl.org/dc/elements/1.1/" xmlns:cc="http://creativecommons.org/ns#" xmlns:rdf="http://www.w3.org/1999/02/22-rdf-syntax-ns#">
   <cc:Work>
    <dc:type rdf:resource="http://purl.org/dc/dcmitype/StillImage"/>
    <dc:date>2022-02-17T13:32:09.816625</dc:date>
    <dc:format>image/svg+xml</dc:format>
    <dc:creator>
     <cc:Agent>
      <dc:title>Matplotlib v3.5.1, https://matplotlib.org/</dc:title>
     </cc:Agent>
    </dc:creator>
   </cc:Work>
  </rdf:RDF>
 </metadata>
 <defs>
  <style type="text/css">*{stroke-linejoin: round; stroke-linecap: butt}</style>
 </defs>
 <g id="figure_1">
  <g id="patch_1">
   <path d="M 0 432 
L 576 432 
L 576 0 
L 0 0 
z
" style="fill: #ffffff"/>
  </g>
  <g id="axes_1">
   <g id="patch_2">
    <path d="M 52.179688 381.684375 
L 282.6 381.684375 
L 282.6 32.92125 
L 52.179688 32.92125 
z
" style="fill: #ffffff"/>
   </g>
   <g id="patch_3">
    <path d="M 75.221719 356.506288 
L 259.557969 356.506288 
L 259.557969 249.26629 
L 75.221719 249.26629 
L 75.221719 356.506288 
z
" clip-path="url(#pf774788d5c)" style="fill: #3274a1; stroke: #3f3f3f; stroke-width: 1.5; stroke-linejoin: miter"/>
   </g>
   <g id="matplotlib.axis_1">
    <g id="xtick_1">
     <g id="line2d_1">
      <defs>
       <path id="m4c99cd72f3" d="M 0 0 
L 0 3.5 
" style="stroke: #000000; stroke-width: 0.8"/>
      </defs>
      <g>
       <use xlink:href="#m4c99cd72f3" x="167.389844" y="391.684375" style="stroke: #000000; stroke-width: 0.8"/>
      </g>
     </g>
     <g id="text_1">
      <text style="font: 10px 'sans-serif'; text-anchor: middle" x="167.389844" y="405.857813" transform="rotate(-0, 167.389844, 405.857813)">2018</text>
     </g>
    </g>
    <g id="text_2">
     <text style="font: 10px 'sans-serif'; text-anchor: middle" x="167.389844" y="419.115625" transform="rotate(-0, 167.389844, 419.115625)">Year</text>
    </g>
   </g>
   <g id="matplotlib.axis_2">
    <g id="ytick_1">
     <g id="line2d_2">
      <defs>
       <path id="m8e343aef83" d="M 0 0 
L -3.5 0 
" style="stroke: #000000; stroke-width: 0.8"/>
      </defs>
      <g>
       <use xlink:href="#m8e343aef83" x="42.179688" y="375.156723" style="stroke: #000000; stroke-width: 0.8"/>
      </g>
     </g>
     <g id="text_3">
      <text style="font: 10px 'sans-serif'; text-anchor: end" x="35.179688" y="378.743442" transform="rotate(-0, 35.179688, 378.743442)">0</text>
     </g>
    </g>
    <g id="ytick_2">
     <g id="line2d_3">
      <g>
       <use xlink:href="#m8e343aef83" x="42.179688" y="328.530637" style="stroke: #000000; stroke-width: 0.8"/>
      </g>
     </g>
     <g id="text_4">
      <text style="font: 10px 'sans-serif'; text-anchor: end" x="35.179688" y="332.117355" transform="rotate(-0, 35.179688, 332.117355)">5</text>
     </g>
    </g>
    <g id="ytick_3">
     <g id="line2d_4">
      <g>
       <use xlink:href="#m8e343aef83" x="42.179688" y="281.90455" style="stroke: #000000; stroke-width: 0.8"/>
      </g>
     </g>
     <g id="text_5">
      <text style="font: 10px 'sans-serif'; text-anchor: end" x="35.179688" y="285.491269" transform="rotate(-0, 35.179688, 285.491269)">10</text>
     </g>
    </g>
    <g id="ytick_4">
     <g id="line2d_5">
      <g>
       <use xlink:href="#m8e343aef83" x="42.179688" y="235.278464" style="stroke: #000000; stroke-width: 0.8"/>
      </g>
     </g>
     <g id="text_6">
      <text style="font: 10px 'sans-serif'; text-anchor: end" x="35.179688" y="238.865183" transform="rotate(-0, 35.179688, 238.865183)">15</text>
     </g>
    </g>
    <g id="ytick_5">
     <g id="line2d_6">
      <g>
       <use xlink:href="#m8e343aef83" x="42.179688" y="188.652378" style="stroke: #000000; stroke-width: 0.8"/>
      </g>
     </g>
     <g id="text_7">
      <text style="font: 10px 'sans-serif'; text-anchor: end" x="35.179688" y="192.239097" transform="rotate(-0, 35.179688, 192.239097)">20</text>
     </g>
    </g>
    <g id="ytick_6">
     <g id="line2d_7">
      <g>
       <use xlink:href="#m8e343aef83" x="42.179688" y="142.026292" style="stroke: #000000; stroke-width: 0.8"/>
      </g>
     </g>
     <g id="text_8">
      <text style="font: 10px 'sans-serif'; text-anchor: end" x="35.179688" y="145.613011" transform="rotate(-0, 35.179688, 145.613011)">25</text>
     </g>
    </g>
    <g id="ytick_7">
     <g id="line2d_8">
      <g>
       <use xlink:href="#m8e343aef83" x="42.179688" y="95.400206" style="stroke: #000000; stroke-width: 0.8"/>
      </g>
     </g>
     <g id="text_9">
      <text style="font: 10px 'sans-serif'; text-anchor: end" x="35.179688" y="98.986924" transform="rotate(-0, 35.179688, 98.986924)">30</text>
     </g>
    </g>
    <g id="ytick_8">
     <g id="line2d_9">
      <g>
       <use xlink:href="#m8e343aef83" x="42.179688" y="48.774119" style="stroke: #000000; stroke-width: 0.8"/>
      </g>
     </g>
     <g id="text_10">
      <text style="font: 10px 'sans-serif'; text-anchor: end" x="35.179688" y="52.360838" transform="rotate(-0, 35.179688, 52.360838)">35</text>
     </g>
    </g>
    <g id="text_11">
     <text style="font: 10px 'sans-serif'; text-anchor: middle" x="17.973438" y="207.302813" transform="rotate(-90, 17.973438, 207.302813)">Value</text>
    </g>
   </g>
   <g id="line2d_10">
    <path d="M 167.389844 356.506288 
L 167.389844 365.831506 
" clip-path="url(#pf774788d5c)" style="fill: none; stroke: #3f3f3f; stroke-width: 1.5; stroke-linecap: square"/>
   </g>
   <g id="line2d_11">
    <path d="M 167.389844 249.26629 
L 167.389844 95.400206 
" clip-path="url(#pf774788d5c)" style="fill: none; stroke: #3f3f3f; stroke-width: 1.5; stroke-linecap: square"/>
   </g>
   <g id="line2d_12">
    <path d="M 121.305781 365.831506 
L 213.473906 365.831506 
" clip-path="url(#pf774788d5c)" style="fill: none; stroke: #3f3f3f; stroke-width: 1.5; stroke-linecap: square"/>
   </g>
   <g id="line2d_13">
    <path d="M 121.305781 95.400206 
L 213.473906 95.400206 
" clip-path="url(#pf774788d5c)" style="fill: none; stroke: #3f3f3f; stroke-width: 1.5; stroke-linecap: square"/>
   </g>
   <g id="line2d_14">
    <defs>
     <path id="m1b309634d9" d="M -0 3.535534 
L 2.12132 0 
L -0 -3.535534 
L -2.12132 -0 
z
" style="stroke: #3f3f3f; stroke-linejoin: miter"/>
    </defs>
    <g clip-path="url(#pf774788d5c)">
     <use xlink:href="#m1b309634d9" x="167.389844" y="48.774119" style="fill: #3f3f3f; stroke: #3f3f3f; stroke-linejoin: miter"/>
    </g>
   </g>
   <g id="line2d_15">
    <path d="M 75.221719 337.855854 
L 259.557969 337.855854 
" clip-path="url(#pf774788d5c)" style="fill: none; stroke: #3f3f3f; stroke-width: 1.5; stroke-linecap: square"/>
   </g>
   <g id="patch_4">
    <path d="M 42.179688 375.156723 
L 42.179688 48.774119 
" style="fill: none; stroke: #000000; stroke-width: 0.8; stroke-linejoin: miter; stroke-linecap: square"/>
   </g>
   <g id="patch_5">
    <path d="M 167.389844 391.684375 
L 167.389844 391.684375 
" style="fill: none; stroke: #000000; stroke-width: 0.8; stroke-linejoin: miter; stroke-linecap: square"/>
   </g>
   <g id="PathCollection_1">
    <defs>
     <path id="C0_0_77057b9605" d="M 0 2.5 
C 0.663008 2.5 1.29895 2.236584 1.767767 1.767767 
C 2.236584 1.29895 2.5 0.663008 2.5 -0 
C 2.5 -0.663008 2.236584 -1.29895 1.767767 -1.767767 
C 1.29895 -2.236584 0.663008 -2.5 0 -2.5 
C -0.663008 -2.5 -1.29895 -2.236584 -1.767767 -1.767767 
C -2.236584 -1.29895 -2.5 -0.663008 -2.5 0 
C -2.5 0.663008 -2.236584 1.29895 -1.767767 1.767767 
C -1.29895 2.236584 -0.663008 2.5 0 2.5 
z
"/>
    </defs>
    <g clip-path="url(#pf774788d5c)">
     <use xlink:href="#C0_0_77057b9605" x="167.389844" y="365.831506" style="fill: #808080; fill-opacity: 0.75"/>
    </g>
    <g clip-path="url(#pf774788d5c)">
     <use xlink:href="#C0_0_77057b9605" x="161.428028" y="365.831506" style="fill: #808080; fill-opacity: 0.75"/>
    </g>
    <g clip-path="url(#pf774788d5c)">
     <use xlink:href="#C0_0_77057b9605" x="173.35166" y="365.831506" style="fill: #808080; fill-opacity: 0.75"/>
    </g>
    <g clip-path="url(#pf774788d5c)">
     <use xlink:href="#C0_0_77057b9605" x="155.466212" y="365.831506" style="fill: #808080; fill-opacity: 0.75"/>
    </g>
    <g clip-path="url(#pf774788d5c)">
     <use xlink:href="#C0_0_77057b9605" x="179.313476" y="365.831506" style="fill: #808080; fill-opacity: 0.75"/>
    </g>
    <g clip-path="url(#pf774788d5c)">
     <use xlink:href="#C0_0_77057b9605" x="149.504396" y="365.831506" style="fill: #808080; fill-opacity: 0.75"/>
    </g>
    <g clip-path="url(#pf774788d5c)">
     <use xlink:href="#C0_0_77057b9605" x="185.275291" y="365.831506" style="fill: #808080; fill-opacity: 0.75"/>
    </g>
    <g clip-path="url(#pf774788d5c)">
     <use xlink:href="#C0_0_77057b9605" x="167.389844" y="356.506288" style="fill: #808080; fill-opacity: 0.75"/>
    </g>
    <g clip-path="url(#pf774788d5c)">
     <use xlink:href="#C0_0_77057b9605" x="161.428028" y="356.506288" style="fill: #808080; fill-opacity: 0.75"/>
    </g>
    <g clip-path="url(#pf774788d5c)">
     <use xlink:href="#C0_0_77057b9605" x="173.35166" y="356.506288" style="fill: #808080; fill-opacity: 0.75"/>
    </g>
    <g clip-path="url(#pf774788d5c)">
     <use xlink:href="#C0_0_77057b9605" x="155.466212" y="356.506288" style="fill: #808080; fill-opacity: 0.75"/>
    </g>
    <g clip-path="url(#pf774788d5c)">
     <use xlink:href="#C0_0_77057b9605" x="179.313476" y="356.506288" style="fill: #808080; fill-opacity: 0.75"/>
    </g>
    <g clip-path="url(#pf774788d5c)">
     <use xlink:href="#C0_0_77057b9605" x="167.389844" y="347.181071" style="fill: #808080; fill-opacity: 0.75"/>
    </g>
    <g clip-path="url(#pf774788d5c)">
     <use xlink:href="#C0_0_77057b9605" x="161.428028" y="347.181071" style="fill: #808080; fill-opacity: 0.75"/>
    </g>
    <g clip-path="url(#pf774788d5c)">
     <use xlink:href="#C0_0_77057b9605" x="173.35166" y="347.181071" style="fill: #808080; fill-opacity: 0.75"/>
    </g>
    <g clip-path="url(#pf774788d5c)">
     <use xlink:href="#C0_0_77057b9605" x="155.466212" y="347.181071" style="fill: #808080; fill-opacity: 0.75"/>
    </g>
    <g clip-path="url(#pf774788d5c)">
     <use xlink:href="#C0_0_77057b9605" x="179.313476" y="347.181071" style="fill: #808080; fill-opacity: 0.75"/>
    </g>
    <g clip-path="url(#pf774788d5c)">
     <use xlink:href="#C0_0_77057b9605" x="167.389844" y="337.855854" style="fill: #808080; fill-opacity: 0.75"/>
    </g>
    <g clip-path="url(#pf774788d5c)">
     <use xlink:href="#C0_0_77057b9605" x="161.428028" y="337.855854" style="fill: #808080; fill-opacity: 0.75"/>
    </g>
    <g clip-path="url(#pf774788d5c)">
     <use xlink:href="#C0_0_77057b9605" x="173.35166" y="337.855854" style="fill: #808080; fill-opacity: 0.75"/>
    </g>
    <g clip-path="url(#pf774788d5c)">
     <use xlink:href="#C0_0_77057b9605" x="155.466212" y="337.855854" style="fill: #808080; fill-opacity: 0.75"/>
    </g>
    <g clip-path="url(#pf774788d5c)">
     <use xlink:href="#C0_0_77057b9605" x="179.313476" y="337.855854" style="fill: #808080; fill-opacity: 0.75"/>
    </g>
    <g clip-path="url(#pf774788d5c)">
     <use xlink:href="#C0_0_77057b9605" x="149.504396" y="337.855854" style="fill: #808080; fill-opacity: 0.75"/>
    </g>
    <g clip-path="url(#pf774788d5c)">
     <use xlink:href="#C0_0_77057b9605" x="167.389844" y="328.530637" style="fill: #808080; fill-opacity: 0.75"/>
    </g>
    <g clip-path="url(#pf774788d5c)">
     <use xlink:href="#C0_0_77057b9605" x="161.428028" y="328.530637" style="fill: #808080; fill-opacity: 0.75"/>
    </g>
    <g clip-path="url(#pf774788d5c)">
     <use xlink:href="#C0_0_77057b9605" x="167.389844" y="300.554985" style="fill: #808080; fill-opacity: 0.75"/>
    </g>
    <g clip-path="url(#pf774788d5c)">
     <use xlink:href="#C0_0_77057b9605" x="167.389844" y="281.90455" style="fill: #808080; fill-opacity: 0.75"/>
    </g>
    <g clip-path="url(#pf774788d5c)">
     <use xlink:href="#C0_0_77057b9605" x="161.428028" y="281.90455" style="fill: #808080; fill-opacity: 0.75"/>
    </g>
    <g clip-path="url(#pf774788d5c)">
     <use xlink:href="#C0_0_77057b9605" x="167.389844" y="253.928899" style="fill: #808080; fill-opacity: 0.75"/>
    </g>
    <g clip-path="url(#pf774788d5c)">
     <use xlink:href="#C0_0_77057b9605" x="167.389844" y="244.603681" style="fill: #808080; fill-opacity: 0.75"/>
    </g>
    <g clip-path="url(#pf774788d5c)">
     <use xlink:href="#C0_0_77057b9605" x="167.389844" y="235.278464" style="fill: #808080; fill-opacity: 0.75"/>
    </g>
    <g clip-path="url(#pf774788d5c)">
     <use xlink:href="#C0_0_77057b9605" x="161.428028" y="235.278464" style="fill: #808080; fill-opacity: 0.75"/>
    </g>
    <g clip-path="url(#pf774788d5c)">
     <use xlink:href="#C0_0_77057b9605" x="167.389844" y="188.652378" style="fill: #808080; fill-opacity: 0.75"/>
    </g>
    <g clip-path="url(#pf774788d5c)">
     <use xlink:href="#C0_0_77057b9605" x="167.389844" y="142.026292" style="fill: #808080; fill-opacity: 0.75"/>
    </g>
    <g clip-path="url(#pf774788d5c)">
     <use xlink:href="#C0_0_77057b9605" x="167.389844" y="95.400206" style="fill: #808080; fill-opacity: 0.75"/>
    </g>
    <g clip-path="url(#pf774788d5c)">
     <use xlink:href="#C0_0_77057b9605" x="161.428028" y="95.400206" style="fill: #808080; fill-opacity: 0.75"/>
    </g>
    <g clip-path="url(#pf774788d5c)">
     <use xlink:href="#C0_0_77057b9605" x="173.35166" y="95.400206" style="fill: #808080; fill-opacity: 0.75"/>
    </g>
    <g clip-path="url(#pf774788d5c)">
     <use xlink:href="#C0_0_77057b9605" x="155.466212" y="95.400206" style="fill: #808080; fill-opacity: 0.75"/>
    </g>
    <g clip-path="url(#pf774788d5c)">
     <use xlink:href="#C0_0_77057b9605" x="167.389844" y="48.774119" style="fill: #808080; fill-opacity: 0.75"/>
    </g>
   </g>
  </g>
  <g id="axes_2">
   <g id="patch_6">
    <path d="M 334.779687 381.684375 
L 565.2 381.684375 
L 565.2 32.92125 
L 334.779687 32.92125 
z
" style="fill: #ffffff"/>
   </g>
   <g id="patch_7">
    <path d="M 345.253338 381.684375 
L 375.178054 381.684375 
L 375.178054 49.529018 
L 345.253338 49.529018 
z
" clip-path="url(#pec81f2675a)" style="fill: #edd1cb; fill-opacity: 0.5; stroke: #000000; stroke-linejoin: miter"/>
   </g>
   <g id="patch_8">
    <path d="M 375.178054 381.684375 
L 405.10277 381.684375 
L 405.10277 341.825732 
L 375.178054 341.825732 
z
" clip-path="url(#pec81f2675a)" style="fill: #edd1cb; fill-opacity: 0.5; stroke: #000000; stroke-linejoin: miter"/>
   </g>
   <g id="patch_9">
    <path d="M 405.10277 381.684375 
L 435.027486 381.684375 
L 435.027486 328.539518 
L 405.10277 328.539518 
z
" clip-path="url(#pec81f2675a)" style="fill: #edd1cb; fill-opacity: 0.5; stroke: #000000; stroke-linejoin: miter"/>
   </g>
   <g id="patch_10">
    <path d="M 435.027486 381.684375 
L 464.952202 381.684375 
L 464.952202 368.398161 
L 435.027486 368.398161 
z
" clip-path="url(#pec81f2675a)" style="fill: #edd1cb; fill-opacity: 0.5; stroke: #000000; stroke-linejoin: miter"/>
   </g>
   <g id="patch_11">
    <path d="M 464.952202 381.684375 
L 494.876918 381.684375 
L 494.876918 368.398161 
L 464.952202 368.398161 
z
" clip-path="url(#pec81f2675a)" style="fill: #edd1cb; fill-opacity: 0.5; stroke: #000000; stroke-linejoin: miter"/>
   </g>
   <g id="patch_12">
    <path d="M 494.876918 381.684375 
L 524.801634 381.684375 
L 524.801634 328.539518 
L 494.876918 328.539518 
z
" clip-path="url(#pec81f2675a)" style="fill: #edd1cb; fill-opacity: 0.5; stroke: #000000; stroke-linejoin: miter"/>
   </g>
   <g id="patch_13">
    <path d="M 524.801634 381.684375 
L 554.726349 381.684375 
L 554.726349 368.398161 
L 524.801634 368.398161 
z
" clip-path="url(#pec81f2675a)" style="fill: #edd1cb; fill-opacity: 0.5; stroke: #000000; stroke-linejoin: miter"/>
   </g>
   <g id="matplotlib.axis_3">
    <g id="xtick_2">
     <g id="line2d_16">
      <g>
       <use xlink:href="#m4c99cd72f3" x="339.092367" y="391.684375" style="stroke: #000000; stroke-width: 0.8"/>
      </g>
     </g>
     <g id="text_12">
      <text style="font: 10px 'sans-serif'; text-anchor: middle" x="339.092367" y="405.857813" transform="rotate(-0, 339.092367, 405.857813)">0</text>
     </g>
    </g>
    <g id="xtick_3">
     <g id="line2d_17">
      <g>
       <use xlink:href="#m4c99cd72f3" x="400.702076" y="391.684375" style="stroke: #000000; stroke-width: 0.8"/>
      </g>
     </g>
     <g id="text_13">
      <text style="font: 10px 'sans-serif'; text-anchor: middle" x="400.702076" y="405.857813" transform="rotate(-0, 400.702076, 405.857813)">10</text>
     </g>
    </g>
    <g id="xtick_4">
     <g id="line2d_18">
      <g>
       <use xlink:href="#m4c99cd72f3" x="462.311786" y="391.684375" style="stroke: #000000; stroke-width: 0.8"/>
      </g>
     </g>
     <g id="text_14">
      <text style="font: 10px 'sans-serif'; text-anchor: middle" x="462.311786" y="405.857813" transform="rotate(-0, 462.311786, 405.857813)">20</text>
     </g>
    </g>
    <g id="xtick_5">
     <g id="line2d_19">
      <g>
       <use xlink:href="#m4c99cd72f3" x="523.921495" y="391.684375" style="stroke: #000000; stroke-width: 0.8"/>
      </g>
     </g>
     <g id="text_15">
      <text style="font: 10px 'sans-serif'; text-anchor: middle" x="523.921495" y="405.857813" transform="rotate(-0, 523.921495, 405.857813)">30</text>
     </g>
    </g>
    <g id="text_16">
     <text style="font: 10px 'sans-serif'; text-anchor: middle" x="449.989844" y="419.115625" transform="rotate(-0, 449.989844, 419.115625)">Value</text>
    </g>
   </g>
   <g id="matplotlib.axis_4">
    <g id="ytick_9">
     <g id="line2d_20">
      <g>
       <use xlink:href="#m8e343aef83" x="324.779687" y="381.684375" style="stroke: #000000; stroke-width: 0.8"/>
      </g>
     </g>
     <g id="text_17">
      <text style="font: 10px 'sans-serif'; text-anchor: end" x="317.779687" y="385.271094" transform="rotate(-0, 317.779687, 385.271094)">0</text>
     </g>
    </g>
    <g id="ytick_10">
     <g id="line2d_21">
      <g>
       <use xlink:href="#m8e343aef83" x="324.779687" y="315.253304" style="stroke: #000000; stroke-width: 0.8"/>
      </g>
     </g>
     <g id="text_18">
      <text style="font: 10px 'sans-serif'; text-anchor: end" x="317.779687" y="318.840022" transform="rotate(-0, 317.779687, 318.840022)">5</text>
     </g>
    </g>
    <g id="ytick_11">
     <g id="line2d_22">
      <g>
       <use xlink:href="#m8e343aef83" x="324.779687" y="248.822232" style="stroke: #000000; stroke-width: 0.8"/>
      </g>
     </g>
     <g id="text_19">
      <text style="font: 10px 'sans-serif'; text-anchor: end" x="317.779687" y="252.408951" transform="rotate(-0, 317.779687, 252.408951)">10</text>
     </g>
    </g>
    <g id="ytick_12">
     <g id="line2d_23">
      <g>
       <use xlink:href="#m8e343aef83" x="324.779687" y="182.391161" style="stroke: #000000; stroke-width: 0.8"/>
      </g>
     </g>
     <g id="text_20">
      <text style="font: 10px 'sans-serif'; text-anchor: end" x="317.779687" y="185.977879" transform="rotate(-0, 317.779687, 185.977879)">15</text>
     </g>
    </g>
    <g id="ytick_13">
     <g id="line2d_24">
      <g>
       <use xlink:href="#m8e343aef83" x="324.779687" y="115.960089" style="stroke: #000000; stroke-width: 0.8"/>
      </g>
     </g>
     <g id="text_21">
      <text style="font: 10px 'sans-serif'; text-anchor: end" x="317.779687" y="119.546808" transform="rotate(-0, 317.779687, 119.546808)">20</text>
     </g>
    </g>
    <g id="ytick_14">
     <g id="line2d_25">
      <g>
       <use xlink:href="#m8e343aef83" x="324.779687" y="49.529018" style="stroke: #000000; stroke-width: 0.8"/>
      </g>
     </g>
     <g id="text_22">
      <text style="font: 10px 'sans-serif'; text-anchor: end" x="317.779687" y="53.115737" transform="rotate(-0, 317.779687, 53.115737)">25</text>
     </g>
    </g>
    <g id="text_23">
     <text style="font: 10px 'sans-serif'; text-anchor: middle" x="300.573437" y="207.302813" transform="rotate(-90, 300.573437, 207.302813)">Count</text>
    </g>
   </g>
   <g id="line2d_26">
    <path d="M 345.253338 257.333311 
L 347.358594 254.440317 
L 349.463851 252.009115 
L 351.569107 250.062306 
L 353.674364 248.616026 
L 354.726992 248.083778 
L 355.77962 247.67963 
L 356.832248 247.403667 
L 357.884876 247.255538 
L 358.937505 247.234462 
L 359.990133 247.339232 
L 361.042761 247.568227 
L 362.095389 247.919421 
L 364.200646 248.978355 
L 366.305902 250.492287 
L 368.411158 252.432058 
L 370.516415 254.763805 
L 372.621671 257.449745 
L 374.726928 260.449033 
L 377.884812 265.441038 
L 381.042697 270.891494 
L 385.25321 278.614941 
L 396.83212 300.133068 
L 401.042633 307.347691 
L 404.200517 312.394469 
L 407.358402 317.09635 
L 410.516286 321.442803 
L 413.674171 325.437824 
L 416.832056 329.096725 
L 419.98994 332.442792 
L 423.147825 335.50403 
L 426.305709 338.310188 
L 430.516222 341.704621 
L 434.726735 344.756934 
L 438.937248 347.513045 
L 443.14776 350.002069 
L 447.358273 352.236572 
L 451.568786 354.21499 
L 455.779299 355.92551 
L 459.989812 357.350734 
L 463.147696 358.221415 
L 466.305581 358.914913 
L 469.463465 359.426993 
L 472.62135 359.756433 
L 475.779235 359.905672 
L 478.937119 359.881293 
L 483.147632 359.598381 
L 487.358145 359.06539 
L 492.621286 358.127878 
L 501.042311 356.309625 
L 507.358081 355.005526 
L 511.568593 354.308691 
L 515.779106 353.830046 
L 519.989619 353.624848 
L 523.147503 353.674695 
L 526.305388 353.910661 
L 529.463273 354.336468 
L 532.621157 354.94974 
L 535.779042 355.742293 
L 539.989555 357.053997 
L 544.200067 358.616065 
L 549.463208 360.837547 
L 554.726349 363.247546 
L 554.726349 363.247546 
" clip-path="url(#pec81f2675a)" style="fill: none; stroke: #edd1cb; stroke-width: 1.5; stroke-linecap: square"/>
   </g>
   <g id="patch_14">
    <path d="M 324.779687 381.684375 
L 324.779687 49.529018 
" style="fill: none; stroke: #000000; stroke-width: 0.8; stroke-linejoin: miter; stroke-linecap: square"/>
   </g>
   <g id="patch_15">
    <path d="M 339.092367 391.684375 
L 523.921495 391.684375 
" style="fill: none; stroke: #000000; stroke-width: 0.8; stroke-linejoin: miter; stroke-linecap: square"/>
   </g>
   <g id="legend_1">
    <g id="patch_16">
     <path d="M 503.95625 69.436875 
L 558.2 69.436875 
Q 560.2 69.436875 560.2 67.436875 
L 560.2 39.92125 
Q 560.2 37.92125 558.2 37.92125 
L 503.95625 37.92125 
Q 501.95625 37.92125 501.95625 39.92125 
L 501.95625 67.436875 
Q 501.95625 69.436875 503.95625 69.436875 
z
" style="fill: #ffffff; opacity: 0.8; stroke: #cccccc; stroke-linejoin: miter"/>
    </g>
    <g id="text_24">
     <text style="font: 10px 'sans-serif'; text-anchor: start" x="520.517187" y="49.094688" transform="rotate(-0, 520.517187, 49.094688)">Year</text>
    </g>
    <g id="patch_17">
     <path d="M 505.95625 63.3525 
L 525.95625 63.3525 
L 525.95625 56.3525 
L 505.95625 56.3525 
z
" style="fill: #edd1cb; fill-opacity: 0.5; stroke: #000000; stroke-linejoin: miter"/>
    </g>
    <g id="text_25">
     <text style="font: 10px 'sans-serif'; text-anchor: start" x="533.95625" y="63.3525" transform="rotate(-0, 533.95625, 63.3525)">2018</text>
    </g>
   </g>
  </g>
  <g id="text_26">
   <text style="font: 12px 'sans-serif'; text-anchor: middle" x="288" y="17.38875" transform="rotate(-0, 288, 17.38875)">Duration of contract in year for World (without 95 percentile)</text>
  </g>
 </g>
 <defs>
  <clipPath id="pf774788d5c">
   <rect x="52.179688" y="32.92125" width="230.420313" height="348.763125"/>
  </clipPath>
  <clipPath id="pec81f2675a">
   <rect x="334.779687" y="32.92125" width="230.420313" height="348.763125"/>
  </clipPath>
 </defs>
</svg>
