<?xml version="1.0" encoding="utf-8" standalone="no"?>
<!DOCTYPE svg PUBLIC "-//W3C//DTD SVG 1.1//EN"
  "http://www.w3.org/Graphics/SVG/1.1/DTD/svg11.dtd">
<svg xmlns:xlink="http://www.w3.org/1999/xlink" width="576pt" height="432pt" viewBox="0 0 576 432" xmlns="http://www.w3.org/2000/svg" version="1.1">
 <metadata>
  <rdf:RDF xmlns:dc="http://purl.org/dc/elements/1.1/" xmlns:cc="http://creativecommons.org/ns#" xmlns:rdf="http://www.w3.org/1999/02/22-rdf-syntax-ns#">
   <cc:Work>
    <dc:type rdf:resource="http://purl.org/dc/dcmitype/StillImage"/>
    <dc:date>2022-03-21T16:10:04.979204</dc:date>
    <dc:format>image/svg+xml</dc:format>
    <dc:creator>
     <cc:Agent>
      <dc:title>Matplotlib v3.5.1, https://matplotlib.org/</dc:title>
     </cc:Agent>
    </dc:creator>
   </cc:Work>
  </rdf:RDF>
 </metadata>
 <defs>
  <style type="text/css">*{stroke-linejoin: round; stroke-linecap: butt}</style>
 </defs>
 <g id="figure_1">
  <g id="patch_1">
   <path d="M 0 432 
L 576 432 
L 576 0 
L 0 0 
z
" style="fill: #ffffff"/>
  </g>
  <g id="axes_1">
   <g id="patch_2">
    <path d="M 52.179688 381.684375 
L 281.379788 381.684375 
L 281.379788 33.015 
L 52.179688 33.015 
z
" style="fill: #ffffff"/>
   </g>
   <g id="patch_3">
    <path d="M 75.099698 299.799901 
L 258.459778 299.799901 
L 258.459778 101.692301 
L 75.099698 101.692301 
L 75.099698 299.799901 
z
" clip-path="url(#pb8358d1749)" style="fill: #3274a1; stroke: #3f3f3f; stroke-width: 1.5; stroke-linejoin: miter"/>
   </g>
   <g id="matplotlib.axis_1">
    <g id="xtick_1">
     <g id="line2d_1">
      <defs>
       <path id="m4c99cd72f3" d="M 0 0 
L 0 3.5 
" style="stroke: #000000; stroke-width: 0.8"/>
      </defs>
      <g>
       <use xlink:href="#m4c99cd72f3" x="166.779738" y="391.684375" style="stroke: #000000; stroke-width: 0.8"/>
      </g>
     </g>
     <g id="text_1">
      <text style="font: 10px 'sans-serif'; text-anchor: middle" x="166.779738" y="405.857813" transform="rotate(-0, 166.779738, 405.857813)">2018</text>
     </g>
    </g>
    <g id="text_2">
     <text style="font: 10px 'sans-serif'; text-anchor: middle" x="166.779738" y="419.115625" transform="rotate(-0, 166.779738, 419.115625)">Year</text>
    </g>
   </g>
   <g id="matplotlib.axis_2">
    <g id="ytick_1">
     <g id="line2d_2">
      <defs>
       <path id="m8e343aef83" d="M 0 0 
L -3.5 0 
" style="stroke: #000000; stroke-width: 0.8"/>
      </defs>
      <g>
       <use xlink:href="#m8e343aef83" x="42.179688" y="365.835767" style="stroke: #000000; stroke-width: 0.8"/>
      </g>
     </g>
     <g id="text_3">
      <text style="font: 10px 'sans-serif'; text-anchor: end" x="35.179688" y="369.422486" transform="rotate(-0, 35.179688, 369.422486)">0</text>
     </g>
    </g>
    <g id="ytick_2">
     <g id="line2d_3">
      <g>
       <use xlink:href="#m8e343aef83" x="42.179688" y="313.007074" style="stroke: #000000; stroke-width: 0.8"/>
      </g>
     </g>
     <g id="text_4">
      <text style="font: 10px 'sans-serif'; text-anchor: end" x="35.179688" y="316.593793" transform="rotate(-0, 35.179688, 316.593793)">2</text>
     </g>
    </g>
    <g id="ytick_3">
     <g id="line2d_4">
      <g>
       <use xlink:href="#m8e343aef83" x="42.179688" y="260.178381" style="stroke: #000000; stroke-width: 0.8"/>
      </g>
     </g>
     <g id="text_5">
      <text style="font: 10px 'sans-serif'; text-anchor: end" x="35.179688" y="263.765099" transform="rotate(-0, 35.179688, 263.765099)">4</text>
     </g>
    </g>
    <g id="ytick_4">
     <g id="line2d_5">
      <g>
       <use xlink:href="#m8e343aef83" x="42.179688" y="207.349688" style="stroke: #000000; stroke-width: 0.8"/>
      </g>
     </g>
     <g id="text_6">
      <text style="font: 10px 'sans-serif'; text-anchor: end" x="35.179688" y="210.936406" transform="rotate(-0, 35.179688, 210.936406)">6</text>
     </g>
    </g>
    <g id="ytick_5">
     <g id="line2d_6">
      <g>
       <use xlink:href="#m8e343aef83" x="42.179688" y="154.520994" style="stroke: #000000; stroke-width: 0.8"/>
      </g>
     </g>
     <g id="text_7">
      <text style="font: 10px 'sans-serif'; text-anchor: end" x="35.179688" y="158.107713" transform="rotate(-0, 35.179688, 158.107713)">8</text>
     </g>
    </g>
    <g id="ytick_6">
     <g id="line2d_7">
      <g>
       <use xlink:href="#m8e343aef83" x="42.179688" y="101.692301" style="stroke: #000000; stroke-width: 0.8"/>
      </g>
     </g>
     <g id="text_8">
      <text style="font: 10px 'sans-serif'; text-anchor: end" x="35.179688" y="105.27902" transform="rotate(-0, 35.179688, 105.27902)">10</text>
     </g>
    </g>
    <g id="ytick_7">
     <g id="line2d_8">
      <g>
       <use xlink:href="#m8e343aef83" x="42.179688" y="48.863608" style="stroke: #000000; stroke-width: 0.8"/>
      </g>
     </g>
     <g id="text_9">
      <text style="font: 10px 'sans-serif'; text-anchor: end" x="35.179688" y="52.450327" transform="rotate(-0, 35.179688, 52.450327)">12</text>
     </g>
    </g>
    <g id="text_10">
     <text style="font: 10px 'sans-serif'; text-anchor: middle" x="17.973438" y="207.349688" transform="rotate(-90, 17.973438, 207.349688)">Value</text>
    </g>
   </g>
   <g id="line2d_9">
    <path d="M 166.779738 299.799901 
L 166.779738 365.835767 
" clip-path="url(#pb8358d1749)" style="fill: none; stroke: #3f3f3f; stroke-width: 1.5; stroke-linecap: square"/>
   </g>
   <g id="line2d_10">
    <path d="M 166.779738 101.692301 
L 166.779738 48.863608 
" clip-path="url(#pb8358d1749)" style="fill: none; stroke: #3f3f3f; stroke-width: 1.5; stroke-linecap: square"/>
   </g>
   <g id="line2d_11">
    <path d="M 120.939718 365.835767 
L 212.619758 365.835767 
" clip-path="url(#pb8358d1749)" style="fill: none; stroke: #3f3f3f; stroke-width: 1.5; stroke-linecap: square"/>
   </g>
   <g id="line2d_12">
    <path d="M 120.939718 48.863608 
L 212.619758 48.863608 
" clip-path="url(#pb8358d1749)" style="fill: none; stroke: #3f3f3f; stroke-width: 1.5; stroke-linecap: square"/>
   </g>
   <g id="line2d_13"/>
   <g id="line2d_14">
    <path d="M 75.099698 233.764034 
L 258.459778 233.764034 
" clip-path="url(#pb8358d1749)" style="fill: none; stroke: #3f3f3f; stroke-width: 1.5; stroke-linecap: square"/>
   </g>
   <g id="patch_4">
    <path d="M 42.179688 365.835767 
L 42.179688 48.863608 
" style="fill: none; stroke: #000000; stroke-width: 0.8; stroke-linejoin: miter; stroke-linecap: square"/>
   </g>
   <g id="patch_5">
    <path d="M 166.779738 391.684375 
L 166.779738 391.684375 
" style="fill: none; stroke: #000000; stroke-width: 0.8; stroke-linejoin: miter; stroke-linecap: square"/>
   </g>
   <g id="PathCollection_1">
    <defs>
     <path id="C0_0_77057b9605" d="M 0 2.5 
C 0.663008 2.5 1.29895 2.236584 1.767767 1.767767 
C 2.236584 1.29895 2.5 0.663008 2.5 -0 
C 2.5 -0.663008 2.236584 -1.29895 1.767767 -1.767767 
C 1.29895 -2.236584 0.663008 -2.5 0 -2.5 
C -0.663008 -2.5 -1.29895 -2.236584 -1.767767 -1.767767 
C -2.236584 -1.29895 -2.5 -0.663008 -2.5 0 
C -2.5 0.663008 -2.236584 1.29895 -1.767767 1.767767 
C -1.29895 2.236584 -0.663008 2.5 0 2.5 
z
"/>
    </defs>
    <g clip-path="url(#pb8358d1749)">
     <use xlink:href="#C0_0_77057b9605" x="166.779738" y="365.835767" style="fill: #808080; fill-opacity: 0.75"/>
    </g>
    <g clip-path="url(#pb8358d1749)">
     <use xlink:href="#C0_0_77057b9605" x="166.779738" y="313.007074" style="fill: #808080; fill-opacity: 0.75"/>
    </g>
    <g clip-path="url(#pb8358d1749)">
     <use xlink:href="#C0_0_77057b9605" x="160.849493" y="313.007074" style="fill: #808080; fill-opacity: 0.75"/>
    </g>
    <g clip-path="url(#pb8358d1749)">
     <use xlink:href="#C0_0_77057b9605" x="172.709982" y="313.007074" style="fill: #808080; fill-opacity: 0.75"/>
    </g>
    <g clip-path="url(#pb8358d1749)">
     <use xlink:href="#C0_0_77057b9605" x="154.919249" y="313.007074" style="fill: #808080; fill-opacity: 0.75"/>
    </g>
    <g clip-path="url(#pb8358d1749)">
     <use xlink:href="#C0_0_77057b9605" x="166.779738" y="286.592727" style="fill: #808080; fill-opacity: 0.75"/>
    </g>
    <g clip-path="url(#pb8358d1749)">
     <use xlink:href="#C0_0_77057b9605" x="166.779738" y="233.764034" style="fill: #808080; fill-opacity: 0.75"/>
    </g>
    <g clip-path="url(#pb8358d1749)">
     <use xlink:href="#C0_0_77057b9605" x="160.849493" y="233.764034" style="fill: #808080; fill-opacity: 0.75"/>
    </g>
    <g clip-path="url(#pb8358d1749)">
     <use xlink:href="#C0_0_77057b9605" x="172.709982" y="233.764034" style="fill: #808080; fill-opacity: 0.75"/>
    </g>
    <g clip-path="url(#pb8358d1749)">
     <use xlink:href="#C0_0_77057b9605" x="154.919249" y="233.764034" style="fill: #808080; fill-opacity: 0.75"/>
    </g>
    <g clip-path="url(#pb8358d1749)">
     <use xlink:href="#C0_0_77057b9605" x="178.640227" y="233.764034" style="fill: #808080; fill-opacity: 0.75"/>
    </g>
    <g clip-path="url(#pb8358d1749)">
     <use xlink:href="#C0_0_77057b9605" x="148.989004" y="233.764034" style="fill: #808080; fill-opacity: 0.75"/>
    </g>
    <g clip-path="url(#pb8358d1749)">
     <use xlink:href="#C0_0_77057b9605" x="166.779738" y="154.520994" style="fill: #808080; fill-opacity: 0.75"/>
    </g>
    <g clip-path="url(#pb8358d1749)">
     <use xlink:href="#C0_0_77057b9605" x="166.779738" y="101.692301" style="fill: #808080; fill-opacity: 0.75"/>
    </g>
    <g clip-path="url(#pb8358d1749)">
     <use xlink:href="#C0_0_77057b9605" x="160.849493" y="101.692301" style="fill: #808080; fill-opacity: 0.75"/>
    </g>
    <g clip-path="url(#pb8358d1749)">
     <use xlink:href="#C0_0_77057b9605" x="172.709982" y="101.692301" style="fill: #808080; fill-opacity: 0.75"/>
    </g>
    <g clip-path="url(#pb8358d1749)">
     <use xlink:href="#C0_0_77057b9605" x="154.919249" y="101.692301" style="fill: #808080; fill-opacity: 0.75"/>
    </g>
    <g clip-path="url(#pb8358d1749)">
     <use xlink:href="#C0_0_77057b9605" x="166.779738" y="48.863608" style="fill: #808080; fill-opacity: 0.75"/>
    </g>
    <g clip-path="url(#pb8358d1749)">
     <use xlink:href="#C0_0_77057b9605" x="160.849493" y="48.863608" style="fill: #808080; fill-opacity: 0.75"/>
    </g>
   </g>
  </g>
  <g id="axes_2">
   <g id="patch_6">
    <path d="M 327.998538 381.684375 
L 557.198638 381.684375 
L 557.198638 33.015 
L 327.998538 33.015 
z
" style="fill: #ffffff"/>
   </g>
   <g id="patch_7">
    <path d="M 338.416724 381.684375 
L 373.144012 381.684375 
L 373.144012 326.34003 
L 338.416724 326.34003 
z
" clip-path="url(#pfe69edff99)" style="fill: #edd1cb; fill-opacity: 0.5; stroke: #000000; stroke-linejoin: miter"/>
   </g>
   <g id="patch_8">
    <path d="M 373.144012 381.684375 
L 407.8713 381.684375 
L 407.8713 104.962649 
L 373.144012 104.962649 
z
" clip-path="url(#pfe69edff99)" style="fill: #edd1cb; fill-opacity: 0.5; stroke: #000000; stroke-linejoin: miter"/>
   </g>
   <g id="patch_9">
    <path d="M 407.8713 381.684375 
L 442.598588 381.684375 
L 442.598588 49.618304 
L 407.8713 49.618304 
z
" clip-path="url(#pfe69edff99)" style="fill: #edd1cb; fill-opacity: 0.5; stroke: #000000; stroke-linejoin: miter"/>
   </g>
   <g id="patch_10">
    <path d="M 442.598588 381.684375 
L 477.325876 381.684375 
L 477.325876 381.684375 
L 442.598588 381.684375 
z
" clip-path="url(#pfe69edff99)" style="fill: #edd1cb; fill-opacity: 0.5; stroke: #000000; stroke-linejoin: miter"/>
   </g>
   <g id="patch_11">
    <path d="M 477.325876 381.684375 
L 512.053164 381.684375 
L 512.053164 326.34003 
L 477.325876 326.34003 
z
" clip-path="url(#pfe69edff99)" style="fill: #edd1cb; fill-opacity: 0.5; stroke: #000000; stroke-linejoin: miter"/>
   </g>
   <g id="patch_12">
    <path d="M 512.053164 381.684375 
L 546.780451 381.684375 
L 546.780451 49.618304 
L 512.053164 49.618304 
z
" clip-path="url(#pfe69edff99)" style="fill: #edd1cb; fill-opacity: 0.5; stroke: #000000; stroke-linejoin: miter"/>
   </g>
   <g id="matplotlib.axis_3">
    <g id="xtick_2">
     <g id="line2d_15">
      <g>
       <use xlink:href="#m4c99cd72f3" x="338.416724" y="391.684375" style="stroke: #000000; stroke-width: 0.8"/>
      </g>
     </g>
     <g id="text_11">
      <text style="font: 10px 'sans-serif'; text-anchor: middle" x="338.416724" y="405.857813" transform="rotate(-0, 338.416724, 405.857813)">0.0</text>
     </g>
    </g>
    <g id="xtick_3">
     <g id="line2d_16">
      <g>
       <use xlink:href="#m4c99cd72f3" x="381.825834" y="391.684375" style="stroke: #000000; stroke-width: 0.8"/>
      </g>
     </g>
     <g id="text_12">
      <text style="font: 10px 'sans-serif'; text-anchor: middle" x="381.825834" y="405.857813" transform="rotate(-0, 381.825834, 405.857813)">2.5</text>
     </g>
    </g>
    <g id="xtick_4">
     <g id="line2d_17">
      <g>
       <use xlink:href="#m4c99cd72f3" x="425.234944" y="391.684375" style="stroke: #000000; stroke-width: 0.8"/>
      </g>
     </g>
     <g id="text_13">
      <text style="font: 10px 'sans-serif'; text-anchor: middle" x="425.234944" y="405.857813" transform="rotate(-0, 425.234944, 405.857813)">5.0</text>
     </g>
    </g>
    <g id="xtick_5">
     <g id="line2d_18">
      <g>
       <use xlink:href="#m4c99cd72f3" x="468.644054" y="391.684375" style="stroke: #000000; stroke-width: 0.8"/>
      </g>
     </g>
     <g id="text_14">
      <text style="font: 10px 'sans-serif'; text-anchor: middle" x="468.644054" y="405.857813" transform="rotate(-0, 468.644054, 405.857813)">7.5</text>
     </g>
    </g>
    <g id="xtick_6">
     <g id="line2d_19">
      <g>
       <use xlink:href="#m4c99cd72f3" x="512.053164" y="391.684375" style="stroke: #000000; stroke-width: 0.8"/>
      </g>
     </g>
     <g id="text_15">
      <text style="font: 10px 'sans-serif'; text-anchor: middle" x="512.053164" y="405.857813" transform="rotate(-0, 512.053164, 405.857813)">10.0</text>
     </g>
    </g>
    <g id="xtick_7">
     <g id="line2d_20">
      <g>
       <use xlink:href="#m4c99cd72f3" x="555.462273" y="391.684375" style="stroke: #000000; stroke-width: 0.8"/>
      </g>
     </g>
     <g id="text_16">
      <text style="font: 10px 'sans-serif'; text-anchor: middle" x="555.462273" y="405.857813" transform="rotate(-0, 555.462273, 405.857813)">12.5</text>
     </g>
    </g>
    <g id="text_17">
     <text style="font: 10px 'sans-serif'; text-anchor: middle" x="442.598588" y="419.115625" transform="rotate(-0, 442.598588, 419.115625)">Value</text>
    </g>
   </g>
   <g id="matplotlib.axis_4">
    <g id="ytick_8">
     <g id="line2d_21">
      <g>
       <use xlink:href="#m8e343aef83" x="317.998538" y="381.684375" style="stroke: #000000; stroke-width: 0.8"/>
      </g>
     </g>
     <g id="text_18">
      <text style="font: 10px 'sans-serif'; text-anchor: end" x="310.998538" y="385.271094" transform="rotate(-0, 310.998538, 385.271094)">0</text>
     </g>
    </g>
    <g id="ytick_9">
     <g id="line2d_22">
      <g>
       <use xlink:href="#m8e343aef83" x="317.998538" y="326.34003" style="stroke: #000000; stroke-width: 0.8"/>
      </g>
     </g>
     <g id="text_19">
      <text style="font: 10px 'sans-serif'; text-anchor: end" x="310.998538" y="329.926749" transform="rotate(-0, 310.998538, 329.926749)">1</text>
     </g>
    </g>
    <g id="ytick_10">
     <g id="line2d_23">
      <g>
       <use xlink:href="#m8e343aef83" x="317.998538" y="270.995685" style="stroke: #000000; stroke-width: 0.8"/>
      </g>
     </g>
     <g id="text_20">
      <text style="font: 10px 'sans-serif'; text-anchor: end" x="310.998538" y="274.582403" transform="rotate(-0, 310.998538, 274.582403)">2</text>
     </g>
    </g>
    <g id="ytick_11">
     <g id="line2d_24">
      <g>
       <use xlink:href="#m8e343aef83" x="317.998538" y="215.651339" style="stroke: #000000; stroke-width: 0.8"/>
      </g>
     </g>
     <g id="text_21">
      <text style="font: 10px 'sans-serif'; text-anchor: end" x="310.998538" y="219.238058" transform="rotate(-0, 310.998538, 219.238058)">3</text>
     </g>
    </g>
    <g id="ytick_12">
     <g id="line2d_25">
      <g>
       <use xlink:href="#m8e343aef83" x="317.998538" y="160.306994" style="stroke: #000000; stroke-width: 0.8"/>
      </g>
     </g>
     <g id="text_22">
      <text style="font: 10px 'sans-serif'; text-anchor: end" x="310.998538" y="163.893713" transform="rotate(-0, 310.998538, 163.893713)">4</text>
     </g>
    </g>
    <g id="ytick_13">
     <g id="line2d_26">
      <g>
       <use xlink:href="#m8e343aef83" x="317.998538" y="104.962649" style="stroke: #000000; stroke-width: 0.8"/>
      </g>
     </g>
     <g id="text_23">
      <text style="font: 10px 'sans-serif'; text-anchor: end" x="310.998538" y="108.549368" transform="rotate(-0, 310.998538, 108.549368)">5</text>
     </g>
    </g>
    <g id="ytick_14">
     <g id="line2d_27">
      <g>
       <use xlink:href="#m8e343aef83" x="317.998538" y="49.618304" style="stroke: #000000; stroke-width: 0.8"/>
      </g>
     </g>
     <g id="text_24">
      <text style="font: 10px 'sans-serif'; text-anchor: end" x="310.998538" y="53.205022" transform="rotate(-0, 310.998538, 53.205022)">6</text>
     </g>
    </g>
    <g id="text_25">
     <text style="font: 10px 'sans-serif'; text-anchor: middle" x="299.353225" y="207.349688" transform="rotate(-90, 299.353225, 207.349688)">Count</text>
    </g>
   </g>
   <g id="line2d_28">
    <path d="M 338.416724 292.297438 
L 346.793155 273.660179 
L 356.21664 252.748072 
L 361.45191 241.618372 
L 365.640126 233.150525 
L 369.828341 225.178155 
L 372.969503 219.578824 
L 376.110665 214.344284 
L 379.251826 209.506913 
L 382.392988 205.096696 
L 385.53415 201.141438 
L 388.675312 197.666927 
L 390.769419 195.629507 
L 392.863527 193.822921 
L 394.957635 192.253264 
L 397.051743 190.926117 
L 399.145851 189.846477 
L 401.239958 189.018648 
L 403.334066 188.44613 
L 405.428174 188.131485 
L 407.522282 188.076186 
L 409.61639 188.280469 
L 411.710497 188.743171 
L 413.804605 189.46158 
L 415.898713 190.431283 
L 417.992821 191.646038 
L 420.086929 193.097662 
L 422.181037 194.77595 
L 424.275144 196.668618 
L 427.416306 199.877583 
L 430.557468 203.478963 
L 433.69863 207.405874 
L 437.886845 213.016608 
L 452.5456 233.217626 
L 455.686762 237.086834 
L 458.827923 240.62215 
L 461.969085 243.765028 
L 464.063193 245.619571 
L 466.157301 247.270055 
L 468.251408 248.710246 
L 470.345516 249.937234 
L 472.439624 250.951478 
L 474.533732 251.756789 
L 476.62784 252.360257 
L 478.721948 252.772121 
L 480.816055 253.005593 
L 482.910163 253.076628 
L 486.051325 252.919519 
L 489.192487 252.509845 
L 493.380702 251.708563 
L 501.757133 249.994759 
L 504.898295 249.57612 
L 508.039457 249.40411 
L 510.133565 249.461221 
L 512.227673 249.677323 
L 514.32178 250.06847 
L 516.415888 250.648381 
L 518.509996 251.428321 
L 520.604104 252.417015 
L 522.698212 253.620618 
L 524.792319 255.042708 
L 526.886427 256.684326 
L 528.980535 258.544041 
L 531.074643 260.618059 
L 534.215805 264.117124 
L 537.356966 268.055318 
L 540.498128 272.394466 
L 543.63929 277.088715 
L 546.780451 282.086154 
L 546.780451 282.086154 
" clip-path="url(#pfe69edff99)" style="fill: none; stroke: #edd1cb; stroke-width: 1.5; stroke-linecap: square"/>
   </g>
   <g id="patch_13">
    <path d="M 317.998538 381.684375 
L 317.998538 49.618304 
" style="fill: none; stroke: #000000; stroke-width: 0.8; stroke-linejoin: miter; stroke-linecap: square"/>
   </g>
   <g id="patch_14">
    <path d="M 338.416724 391.684375 
L 555.462273 391.684375 
" style="fill: none; stroke: #000000; stroke-width: 0.8; stroke-linejoin: miter; stroke-linecap: square"/>
   </g>
   <g id="legend_1">
    <g id="patch_15">
     <path d="M 334.998538 69.530625 
L 389.242288 69.530625 
Q 391.242288 69.530625 391.242288 67.530625 
L 391.242288 40.015 
Q 391.242288 38.015 389.242288 38.015 
L 334.998538 38.015 
Q 332.998538 38.015 332.998538 40.015 
L 332.998538 67.530625 
Q 332.998538 69.530625 334.998538 69.530625 
z
" style="fill: #ffffff; opacity: 0.8; stroke: #cccccc; stroke-linejoin: miter"/>
    </g>
    <g id="text_26">
     <text style="font: 10px 'sans-serif'; text-anchor: start" x="351.559475" y="49.188438" transform="rotate(-0, 351.559475, 49.188438)">Year</text>
    </g>
    <g id="patch_16">
     <path d="M 336.998538 63.44625 
L 356.998538 63.44625 
L 356.998538 56.44625 
L 336.998538 56.44625 
z
" style="fill: #edd1cb; fill-opacity: 0.5; stroke: #000000; stroke-linejoin: miter"/>
    </g>
    <g id="text_27">
     <text style="font: 10px 'sans-serif'; text-anchor: start" x="364.998538" y="63.44625" transform="rotate(-0, 364.998538, 63.44625)">2018</text>
    </g>
   </g>
  </g>
  <g id="text_28">
   <text style="font: 12px 'sans-serif'; text-anchor: middle" x="288" y="17.4825" transform="rotate(-0, 288, 17.4825)">Duration of contract in year for South Africa (without 95 percentile)</text>
  </g>
 </g>
 <defs>
  <clipPath id="pb8358d1749">
   <rect x="52.179688" y="33.015" width="229.2001" height="348.669375"/>
  </clipPath>
  <clipPath id="pfe69edff99">
   <rect x="327.998538" y="33.015" width="229.2001" height="348.669375"/>
  </clipPath>
 </defs>
</svg>
