<?xml version="1.0" encoding="utf-8" standalone="no"?>
<!DOCTYPE svg PUBLIC "-//W3C//DTD SVG 1.1//EN"
  "http://www.w3.org/Graphics/SVG/1.1/DTD/svg11.dtd">
<svg xmlns:xlink="http://www.w3.org/1999/xlink" width="576pt" height="432pt" viewBox="0 0 576 432" xmlns="http://www.w3.org/2000/svg" version="1.1">
 <metadata>
  <rdf:RDF xmlns:dc="http://purl.org/dc/elements/1.1/" xmlns:cc="http://creativecommons.org/ns#" xmlns:rdf="http://www.w3.org/1999/02/22-rdf-syntax-ns#">
   <cc:Work>
    <dc:type rdf:resource="http://purl.org/dc/dcmitype/StillImage"/>
    <dc:date>2022-03-21T16:09:26.411672</dc:date>
    <dc:format>image/svg+xml</dc:format>
    <dc:creator>
     <cc:Agent>
      <dc:title>Matplotlib v3.5.1, https://matplotlib.org/</dc:title>
     </cc:Agent>
    </dc:creator>
   </cc:Work>
  </rdf:RDF>
 </metadata>
 <defs>
  <style type="text/css">*{stroke-linejoin: round; stroke-linecap: butt}</style>
 </defs>
 <g id="figure_1">
  <g id="patch_1">
   <path d="M 0 432 
L 576 432 
L 576 0 
L 0 0 
z
" style="fill: #ffffff"/>
  </g>
  <g id="axes_1">
   <g id="patch_2">
    <path d="M 52.179688 381.684375 
L 282.6 381.684375 
L 282.6 32.92125 
L 52.179688 32.92125 
z
" style="fill: #ffffff"/>
   </g>
   <g id="patch_3">
    <path d="M 63.700703 344.694347 
L 155.868828 344.694347 
L 155.868828 302.420028 
L 63.700703 302.420028 
L 63.700703 344.694347 
z
" clip-path="url(#pf774788d5c)" style="fill: #3274a1; stroke: #3f3f3f; stroke-width: 1.5; stroke-linejoin: miter"/>
   </g>
   <g id="patch_4">
    <path d="M 178.910859 355.262926 
L 271.078984 355.262926 
L 271.078984 320.915043 
L 178.910859 320.915043 
L 178.910859 355.262926 
z
" clip-path="url(#pf774788d5c)" style="fill: #e1812c; stroke: #3f3f3f; stroke-width: 1.5; stroke-linejoin: miter"/>
   </g>
   <g id="matplotlib.axis_1">
    <g id="xtick_1">
     <g id="line2d_1">
      <defs>
       <path id="m4c99cd72f3" d="M 0 0 
L 0 3.5 
" style="stroke: #000000; stroke-width: 0.8"/>
      </defs>
      <g>
       <use xlink:href="#m4c99cd72f3" x="109.784766" y="391.684375" style="stroke: #000000; stroke-width: 0.8"/>
      </g>
     </g>
     <g id="text_1">
      <text style="font: 10px 'sans-serif'; text-anchor: middle" x="109.784766" y="405.857813" transform="rotate(-0, 109.784766, 405.857813)">2018</text>
     </g>
    </g>
    <g id="xtick_2">
     <g id="line2d_2">
      <g>
       <use xlink:href="#m4c99cd72f3" x="224.994922" y="391.684375" style="stroke: #000000; stroke-width: 0.8"/>
      </g>
     </g>
     <g id="text_2">
      <text style="font: 10px 'sans-serif'; text-anchor: middle" x="224.994922" y="405.857813" transform="rotate(-0, 224.994922, 405.857813)">2022</text>
     </g>
    </g>
    <g id="text_3">
     <text style="font: 10px 'sans-serif'; text-anchor: middle" x="167.389844" y="419.115625" transform="rotate(-0, 167.389844, 419.115625)">Year</text>
    </g>
   </g>
   <g id="matplotlib.axis_2">
    <g id="ytick_1">
     <g id="line2d_3">
      <defs>
       <path id="m8e343aef83" d="M 0 0 
L -3.5 0 
" style="stroke: #000000; stroke-width: 0.8"/>
      </defs>
      <g>
       <use xlink:href="#m8e343aef83" x="42.179688" y="365.831506" style="stroke: #000000; stroke-width: 0.8"/>
      </g>
     </g>
     <g id="text_4">
      <text style="font: 10px 'sans-serif'; text-anchor: end" x="35.179688" y="369.418224" transform="rotate(-0, 35.179688, 369.418224)">0</text>
     </g>
    </g>
    <g id="ytick_2">
     <g id="line2d_4">
      <g>
       <use xlink:href="#m8e343aef83" x="42.179688" y="312.988608" style="stroke: #000000; stroke-width: 0.8"/>
      </g>
     </g>
     <g id="text_5">
      <text style="font: 10px 'sans-serif'; text-anchor: end" x="35.179688" y="316.575327" transform="rotate(-0, 35.179688, 316.575327)">5</text>
     </g>
    </g>
    <g id="ytick_3">
     <g id="line2d_5">
      <g>
       <use xlink:href="#m8e343aef83" x="42.179688" y="260.14571" style="stroke: #000000; stroke-width: 0.8"/>
      </g>
     </g>
     <g id="text_6">
      <text style="font: 10px 'sans-serif'; text-anchor: end" x="35.179688" y="263.732429" transform="rotate(-0, 35.179688, 263.732429)">10</text>
     </g>
    </g>
    <g id="ytick_4">
     <g id="line2d_6">
      <g>
       <use xlink:href="#m8e343aef83" x="42.179688" y="207.302813" style="stroke: #000000; stroke-width: 0.8"/>
      </g>
     </g>
     <g id="text_7">
      <text style="font: 10px 'sans-serif'; text-anchor: end" x="35.179688" y="210.889531" transform="rotate(-0, 35.179688, 210.889531)">15</text>
     </g>
    </g>
    <g id="ytick_5">
     <g id="line2d_7">
      <g>
       <use xlink:href="#m8e343aef83" x="42.179688" y="154.459915" style="stroke: #000000; stroke-width: 0.8"/>
      </g>
     </g>
     <g id="text_8">
      <text style="font: 10px 'sans-serif'; text-anchor: end" x="35.179688" y="158.046634" transform="rotate(-0, 35.179688, 158.046634)">20</text>
     </g>
    </g>
    <g id="ytick_6">
     <g id="line2d_8">
      <g>
       <use xlink:href="#m8e343aef83" x="42.179688" y="101.617017" style="stroke: #000000; stroke-width: 0.8"/>
      </g>
     </g>
     <g id="text_9">
      <text style="font: 10px 'sans-serif'; text-anchor: end" x="35.179688" y="105.203736" transform="rotate(-0, 35.179688, 105.203736)">25</text>
     </g>
    </g>
    <g id="ytick_7">
     <g id="line2d_9">
      <g>
       <use xlink:href="#m8e343aef83" x="42.179688" y="48.774119" style="stroke: #000000; stroke-width: 0.8"/>
      </g>
     </g>
     <g id="text_10">
      <text style="font: 10px 'sans-serif'; text-anchor: end" x="35.179688" y="52.360838" transform="rotate(-0, 35.179688, 52.360838)">30</text>
     </g>
    </g>
    <g id="text_11">
     <text style="font: 10px 'sans-serif'; text-anchor: middle" x="17.973438" y="207.302813" transform="rotate(-90, 17.973438, 207.302813)">Value</text>
    </g>
   </g>
   <g id="line2d_10">
    <path d="M 109.784766 344.694347 
L 109.784766 360.547216 
" clip-path="url(#pf774788d5c)" style="fill: none; stroke: #3f3f3f; stroke-width: 1.5; stroke-linecap: square"/>
   </g>
   <g id="line2d_11">
    <path d="M 109.784766 302.420028 
L 109.784766 260.14571 
" clip-path="url(#pf774788d5c)" style="fill: none; stroke: #3f3f3f; stroke-width: 1.5; stroke-linecap: square"/>
   </g>
   <g id="line2d_12">
    <path d="M 86.742734 360.547216 
L 132.826797 360.547216 
" clip-path="url(#pf774788d5c)" style="fill: none; stroke: #3f3f3f; stroke-width: 1.5; stroke-linecap: square"/>
   </g>
   <g id="line2d_13">
    <path d="M 86.742734 260.14571 
L 132.826797 260.14571 
" clip-path="url(#pf774788d5c)" style="fill: none; stroke: #3f3f3f; stroke-width: 1.5; stroke-linecap: square"/>
   </g>
   <g id="line2d_14">
    <defs>
     <path id="m1b309634d9" d="M -0 3.535534 
L 2.12132 0 
L -0 -3.535534 
L -2.12132 -0 
z
" style="stroke: #3f3f3f; stroke-linejoin: miter"/>
    </defs>
    <g clip-path="url(#pf774788d5c)">
     <use xlink:href="#m1b309634d9" x="109.784766" y="48.774119" style="fill: #3f3f3f; stroke: #3f3f3f; stroke-linejoin: miter"/>
     <use xlink:href="#m1b309634d9" x="109.784766" y="175.597074" style="fill: #3f3f3f; stroke: #3f3f3f; stroke-linejoin: miter"/>
     <use xlink:href="#m1b309634d9" x="109.784766" y="154.459915" style="fill: #3f3f3f; stroke: #3f3f3f; stroke-linejoin: miter"/>
     <use xlink:href="#m1b309634d9" x="109.784766" y="101.617017" style="fill: #3f3f3f; stroke: #3f3f3f; stroke-linejoin: miter"/>
     <use xlink:href="#m1b309634d9" x="109.784766" y="101.617017" style="fill: #3f3f3f; stroke: #3f3f3f; stroke-linejoin: miter"/>
     <use xlink:href="#m1b309634d9" x="109.784766" y="101.617017" style="fill: #3f3f3f; stroke: #3f3f3f; stroke-linejoin: miter"/>
     <use xlink:href="#m1b309634d9" x="109.784766" y="175.597074" style="fill: #3f3f3f; stroke: #3f3f3f; stroke-linejoin: miter"/>
     <use xlink:href="#m1b309634d9" x="109.784766" y="207.302813" style="fill: #3f3f3f; stroke: #3f3f3f; stroke-linejoin: miter"/>
     <use xlink:href="#m1b309634d9" x="109.784766" y="48.774119" style="fill: #3f3f3f; stroke: #3f3f3f; stroke-linejoin: miter"/>
     <use xlink:href="#m1b309634d9" x="109.784766" y="101.617017" style="fill: #3f3f3f; stroke: #3f3f3f; stroke-linejoin: miter"/>
    </g>
   </g>
   <g id="line2d_15">
    <path d="M 224.994922 355.262926 
L 224.994922 365.831506 
" clip-path="url(#pf774788d5c)" style="fill: none; stroke: #3f3f3f; stroke-width: 1.5; stroke-linecap: square"/>
   </g>
   <g id="line2d_16">
    <path d="M 224.994922 320.915043 
L 224.994922 302.420028 
" clip-path="url(#pf774788d5c)" style="fill: none; stroke: #3f3f3f; stroke-width: 1.5; stroke-linecap: square"/>
   </g>
   <g id="line2d_17">
    <path d="M 201.952891 365.831506 
L 248.036953 365.831506 
" clip-path="url(#pf774788d5c)" style="fill: none; stroke: #3f3f3f; stroke-width: 1.5; stroke-linecap: square"/>
   </g>
   <g id="line2d_18">
    <path d="M 201.952891 302.420028 
L 248.036953 302.420028 
" clip-path="url(#pf774788d5c)" style="fill: none; stroke: #3f3f3f; stroke-width: 1.5; stroke-linecap: square"/>
   </g>
   <g id="line2d_19"/>
   <g id="line2d_20">
    <path d="M 63.700703 334.125767 
L 155.868828 334.125767 
" clip-path="url(#pf774788d5c)" style="fill: none; stroke: #3f3f3f; stroke-width: 1.5; stroke-linecap: square"/>
   </g>
   <g id="line2d_21">
    <path d="M 178.910859 334.125767 
L 271.078984 334.125767 
" clip-path="url(#pf774788d5c)" style="fill: none; stroke: #3f3f3f; stroke-width: 1.5; stroke-linecap: square"/>
   </g>
   <g id="patch_5">
    <path d="M 42.179688 365.831506 
L 42.179688 48.774119 
" style="fill: none; stroke: #000000; stroke-width: 0.8; stroke-linejoin: miter; stroke-linecap: square"/>
   </g>
   <g id="patch_6">
    <path d="M 109.784766 391.684375 
L 224.994922 391.684375 
" style="fill: none; stroke: #000000; stroke-width: 0.8; stroke-linejoin: miter; stroke-linecap: square"/>
   </g>
   <g id="PathCollection_1">
    <defs>
     <path id="C0_0_77057b9605" d="M 0 2.5 
C 0.663008 2.5 1.29895 2.236584 1.767767 1.767767 
C 2.236584 1.29895 2.5 0.663008 2.5 -0 
C 2.5 -0.663008 2.236584 -1.29895 1.767767 -1.767767 
C 1.29895 -2.236584 0.663008 -2.5 0 -2.5 
C -0.663008 -2.5 -1.29895 -2.236584 -1.767767 -1.767767 
C -2.236584 -1.29895 -2.5 -0.663008 -2.5 0 
C -2.5 0.663008 -2.236584 1.29895 -1.767767 1.767767 
C -1.29895 2.236584 -0.663008 2.5 0 2.5 
z
"/>
    </defs>
    <g clip-path="url(#pf774788d5c)">
     <use xlink:href="#C0_0_77057b9605" x="109.784766" y="360.547216" style="fill: #808080; fill-opacity: 0.75"/>
    </g>
    <g clip-path="url(#pf774788d5c)">
     <use xlink:href="#C0_0_77057b9605" x="104.635523" y="357.905071" style="fill: #808080; fill-opacity: 0.75"/>
    </g>
    <g clip-path="url(#pf774788d5c)">
     <use xlink:href="#C0_0_77057b9605" x="109.784766" y="355.262926" style="fill: #808080; fill-opacity: 0.75"/>
    </g>
    <g clip-path="url(#pf774788d5c)">
     <use xlink:href="#C0_0_77057b9605" x="115.746582" y="355.262926" style="fill: #808080; fill-opacity: 0.75"/>
    </g>
    <g clip-path="url(#pf774788d5c)">
     <use xlink:href="#C0_0_77057b9605" x="99.486281" y="355.262926" style="fill: #808080; fill-opacity: 0.75"/>
    </g>
    <g clip-path="url(#pf774788d5c)">
     <use xlink:href="#C0_0_77057b9605" x="121.708397" y="355.262926" style="fill: #808080; fill-opacity: 0.75"/>
    </g>
    <g clip-path="url(#pf774788d5c)">
     <use xlink:href="#C0_0_77057b9605" x="109.784766" y="344.694347" style="fill: #808080; fill-opacity: 0.75"/>
    </g>
    <g clip-path="url(#pf774788d5c)">
     <use xlink:href="#C0_0_77057b9605" x="103.82295" y="344.694347" style="fill: #808080; fill-opacity: 0.75"/>
    </g>
    <g clip-path="url(#pf774788d5c)">
     <use xlink:href="#C0_0_77057b9605" x="115.746582" y="344.694347" style="fill: #808080; fill-opacity: 0.75"/>
    </g>
    <g clip-path="url(#pf774788d5c)">
     <use xlink:href="#C0_0_77057b9605" x="97.861134" y="344.694347" style="fill: #808080; fill-opacity: 0.75"/>
    </g>
    <g clip-path="url(#pf774788d5c)">
     <use xlink:href="#C0_0_77057b9605" x="121.708397" y="344.694347" style="fill: #808080; fill-opacity: 0.75"/>
    </g>
    <g clip-path="url(#pf774788d5c)">
     <use xlink:href="#C0_0_77057b9605" x="91.899318" y="344.694347" style="fill: #808080; fill-opacity: 0.75"/>
    </g>
    <g clip-path="url(#pf774788d5c)">
     <use xlink:href="#C0_0_77057b9605" x="127.670213" y="344.694347" style="fill: #808080; fill-opacity: 0.75"/>
    </g>
    <g clip-path="url(#pf774788d5c)">
     <use xlink:href="#C0_0_77057b9605" x="85.937502" y="344.694347" style="fill: #808080; fill-opacity: 0.75"/>
    </g>
    <g clip-path="url(#pf774788d5c)">
     <use xlink:href="#C0_0_77057b9605" x="133.632029" y="344.694347" style="fill: #808080; fill-opacity: 0.75"/>
    </g>
    <g clip-path="url(#pf774788d5c)">
     <use xlink:href="#C0_0_77057b9605" x="79.975686" y="344.694347" style="fill: #808080; fill-opacity: 0.75"/>
    </g>
    <g clip-path="url(#pf774788d5c)">
     <use xlink:href="#C0_0_77057b9605" x="139.593845" y="344.694347" style="fill: #808080; fill-opacity: 0.75"/>
    </g>
    <g clip-path="url(#pf774788d5c)">
     <use xlink:href="#C0_0_77057b9605" x="145.555661" y="344.694347" style="fill: #808080; fill-opacity: 0.75"/>
    </g>
    <g clip-path="url(#pf774788d5c)">
     <use xlink:href="#C0_0_77057b9605" x="74.01387" y="344.694347" style="fill: #808080; fill-opacity: 0.75"/>
    </g>
    <g clip-path="url(#pf774788d5c)">
     <use xlink:href="#C0_0_77057b9605" x="151.517477" y="344.694347" style="fill: #808080; fill-opacity: 0.75"/>
    </g>
    <g clip-path="url(#pf774788d5c)">
     <use xlink:href="#C0_0_77057b9605" x="68.052054" y="344.694347" style="fill: #808080; fill-opacity: 0.75"/>
    </g>
    <g clip-path="url(#pf774788d5c)">
     <use xlink:href="#C0_0_77057b9605" x="109.784766" y="334.125767" style="fill: #808080; fill-opacity: 0.75"/>
    </g>
    <g clip-path="url(#pf774788d5c)">
     <use xlink:href="#C0_0_77057b9605" x="103.82295" y="334.125767" style="fill: #808080; fill-opacity: 0.75"/>
    </g>
    <g clip-path="url(#pf774788d5c)">
     <use xlink:href="#C0_0_77057b9605" x="115.746582" y="334.125767" style="fill: #808080; fill-opacity: 0.75"/>
    </g>
    <g clip-path="url(#pf774788d5c)">
     <use xlink:href="#C0_0_77057b9605" x="97.861134" y="334.125767" style="fill: #808080; fill-opacity: 0.75"/>
    </g>
    <g clip-path="url(#pf774788d5c)">
     <use xlink:href="#C0_0_77057b9605" x="121.708397" y="334.125767" style="fill: #808080; fill-opacity: 0.75"/>
    </g>
    <g clip-path="url(#pf774788d5c)">
     <use xlink:href="#C0_0_77057b9605" x="91.899318" y="334.125767" style="fill: #808080; fill-opacity: 0.75"/>
    </g>
    <g clip-path="url(#pf774788d5c)">
     <use xlink:href="#C0_0_77057b9605" x="127.670213" y="334.125767" style="fill: #808080; fill-opacity: 0.75"/>
    </g>
    <g clip-path="url(#pf774788d5c)">
     <use xlink:href="#C0_0_77057b9605" x="85.937502" y="334.125767" style="fill: #808080; fill-opacity: 0.75"/>
    </g>
    <g clip-path="url(#pf774788d5c)">
     <use xlink:href="#C0_0_77057b9605" x="133.632029" y="334.125767" style="fill: #808080; fill-opacity: 0.75"/>
    </g>
    <g clip-path="url(#pf774788d5c)">
     <use xlink:href="#C0_0_77057b9605" x="79.975686" y="334.125767" style="fill: #808080; fill-opacity: 0.75"/>
    </g>
    <g clip-path="url(#pf774788d5c)">
     <use xlink:href="#C0_0_77057b9605" x="139.593845" y="334.125767" style="fill: #808080; fill-opacity: 0.75"/>
    </g>
    <g clip-path="url(#pf774788d5c)">
     <use xlink:href="#C0_0_77057b9605" x="145.555661" y="334.125767" style="fill: #808080; fill-opacity: 0.75"/>
    </g>
    <g clip-path="url(#pf774788d5c)">
     <use xlink:href="#C0_0_77057b9605" x="74.01387" y="334.125767" style="fill: #808080; fill-opacity: 0.75"/>
    </g>
    <g clip-path="url(#pf774788d5c)">
     <use xlink:href="#C0_0_77057b9605" x="151.517477" y="334.125767" style="fill: #808080; fill-opacity: 0.75"/>
    </g>
    <g clip-path="url(#pf774788d5c)">
     <use xlink:href="#C0_0_77057b9605" x="68.052054" y="334.125767" style="fill: #808080; fill-opacity: 0.75"/>
    </g>
    <g clip-path="url(#pf774788d5c)">
     <use xlink:href="#C0_0_77057b9605" x="155.868828" y="334.125767" style="fill: #808080; fill-opacity: 0.75"/>
    </g>
    <g clip-path="url(#pf774788d5c)">
     <use xlink:href="#C0_0_77057b9605" x="63.700703" y="334.125767" style="fill: #808080; fill-opacity: 0.75"/>
    </g>
    <g clip-path="url(#pf774788d5c)">
     <use xlink:href="#C0_0_77057b9605" x="155.868828" y="334.125767" style="fill: #808080; fill-opacity: 0.75"/>
    </g>
    <g clip-path="url(#pf774788d5c)">
     <use xlink:href="#C0_0_77057b9605" x="63.700703" y="334.125767" style="fill: #808080; fill-opacity: 0.75"/>
    </g>
    <g clip-path="url(#pf774788d5c)">
     <use xlink:href="#C0_0_77057b9605" x="109.784766" y="328.841477" style="fill: #808080; fill-opacity: 0.75"/>
    </g>
    <g clip-path="url(#pf774788d5c)">
     <use xlink:href="#C0_0_77057b9605" x="109.784766" y="323.557187" style="fill: #808080; fill-opacity: 0.75"/>
    </g>
    <g clip-path="url(#pf774788d5c)">
     <use xlink:href="#C0_0_77057b9605" x="103.82295" y="323.557187" style="fill: #808080; fill-opacity: 0.75"/>
    </g>
    <g clip-path="url(#pf774788d5c)">
     <use xlink:href="#C0_0_77057b9605" x="115.746582" y="323.557187" style="fill: #808080; fill-opacity: 0.75"/>
    </g>
    <g clip-path="url(#pf774788d5c)">
     <use xlink:href="#C0_0_77057b9605" x="97.861134" y="323.557187" style="fill: #808080; fill-opacity: 0.75"/>
    </g>
    <g clip-path="url(#pf774788d5c)">
     <use xlink:href="#C0_0_77057b9605" x="121.708397" y="323.557187" style="fill: #808080; fill-opacity: 0.75"/>
    </g>
    <g clip-path="url(#pf774788d5c)">
     <use xlink:href="#C0_0_77057b9605" x="91.899318" y="323.557187" style="fill: #808080; fill-opacity: 0.75"/>
    </g>
    <g clip-path="url(#pf774788d5c)">
     <use xlink:href="#C0_0_77057b9605" x="109.784766" y="318.272898" style="fill: #808080; fill-opacity: 0.75"/>
    </g>
    <g clip-path="url(#pf774788d5c)">
     <use xlink:href="#C0_0_77057b9605" x="109.784766" y="312.988608" style="fill: #808080; fill-opacity: 0.75"/>
    </g>
    <g clip-path="url(#pf774788d5c)">
     <use xlink:href="#C0_0_77057b9605" x="103.82295" y="312.988608" style="fill: #808080; fill-opacity: 0.75"/>
    </g>
    <g clip-path="url(#pf774788d5c)">
     <use xlink:href="#C0_0_77057b9605" x="115.746582" y="312.988608" style="fill: #808080; fill-opacity: 0.75"/>
    </g>
    <g clip-path="url(#pf774788d5c)">
     <use xlink:href="#C0_0_77057b9605" x="97.861134" y="312.988608" style="fill: #808080; fill-opacity: 0.75"/>
    </g>
    <g clip-path="url(#pf774788d5c)">
     <use xlink:href="#C0_0_77057b9605" x="121.708397" y="312.988608" style="fill: #808080; fill-opacity: 0.75"/>
    </g>
    <g clip-path="url(#pf774788d5c)">
     <use xlink:href="#C0_0_77057b9605" x="91.899318" y="312.988608" style="fill: #808080; fill-opacity: 0.75"/>
    </g>
    <g clip-path="url(#pf774788d5c)">
     <use xlink:href="#C0_0_77057b9605" x="109.784766" y="302.420028" style="fill: #808080; fill-opacity: 0.75"/>
    </g>
    <g clip-path="url(#pf774788d5c)">
     <use xlink:href="#C0_0_77057b9605" x="103.82295" y="302.420028" style="fill: #808080; fill-opacity: 0.75"/>
    </g>
    <g clip-path="url(#pf774788d5c)">
     <use xlink:href="#C0_0_77057b9605" x="115.746582" y="302.420028" style="fill: #808080; fill-opacity: 0.75"/>
    </g>
    <g clip-path="url(#pf774788d5c)">
     <use xlink:href="#C0_0_77057b9605" x="109.784766" y="291.851449" style="fill: #808080; fill-opacity: 0.75"/>
    </g>
    <g clip-path="url(#pf774788d5c)">
     <use xlink:href="#C0_0_77057b9605" x="109.784766" y="260.14571" style="fill: #808080; fill-opacity: 0.75"/>
    </g>
    <g clip-path="url(#pf774788d5c)">
     <use xlink:href="#C0_0_77057b9605" x="103.82295" y="260.14571" style="fill: #808080; fill-opacity: 0.75"/>
    </g>
    <g clip-path="url(#pf774788d5c)">
     <use xlink:href="#C0_0_77057b9605" x="115.746582" y="260.14571" style="fill: #808080; fill-opacity: 0.75"/>
    </g>
    <g clip-path="url(#pf774788d5c)">
     <use xlink:href="#C0_0_77057b9605" x="97.861134" y="260.14571" style="fill: #808080; fill-opacity: 0.75"/>
    </g>
    <g clip-path="url(#pf774788d5c)">
     <use xlink:href="#C0_0_77057b9605" x="121.708397" y="260.14571" style="fill: #808080; fill-opacity: 0.75"/>
    </g>
    <g clip-path="url(#pf774788d5c)">
     <use xlink:href="#C0_0_77057b9605" x="91.899318" y="260.14571" style="fill: #808080; fill-opacity: 0.75"/>
    </g>
    <g clip-path="url(#pf774788d5c)">
     <use xlink:href="#C0_0_77057b9605" x="109.784766" y="207.302813" style="fill: #808080; fill-opacity: 0.75"/>
    </g>
    <g clip-path="url(#pf774788d5c)">
     <use xlink:href="#C0_0_77057b9605" x="109.784766" y="175.597074" style="fill: #808080; fill-opacity: 0.75"/>
    </g>
    <g clip-path="url(#pf774788d5c)">
     <use xlink:href="#C0_0_77057b9605" x="103.82295" y="175.597074" style="fill: #808080; fill-opacity: 0.75"/>
    </g>
    <g clip-path="url(#pf774788d5c)">
     <use xlink:href="#C0_0_77057b9605" x="109.784766" y="154.459915" style="fill: #808080; fill-opacity: 0.75"/>
    </g>
    <g clip-path="url(#pf774788d5c)">
     <use xlink:href="#C0_0_77057b9605" x="109.784766" y="101.617017" style="fill: #808080; fill-opacity: 0.75"/>
    </g>
    <g clip-path="url(#pf774788d5c)">
     <use xlink:href="#C0_0_77057b9605" x="103.82295" y="101.617017" style="fill: #808080; fill-opacity: 0.75"/>
    </g>
    <g clip-path="url(#pf774788d5c)">
     <use xlink:href="#C0_0_77057b9605" x="115.746582" y="101.617017" style="fill: #808080; fill-opacity: 0.75"/>
    </g>
    <g clip-path="url(#pf774788d5c)">
     <use xlink:href="#C0_0_77057b9605" x="97.861134" y="101.617017" style="fill: #808080; fill-opacity: 0.75"/>
    </g>
    <g clip-path="url(#pf774788d5c)">
     <use xlink:href="#C0_0_77057b9605" x="109.784766" y="48.774119" style="fill: #808080; fill-opacity: 0.75"/>
    </g>
    <g clip-path="url(#pf774788d5c)">
     <use xlink:href="#C0_0_77057b9605" x="103.82295" y="48.774119" style="fill: #808080; fill-opacity: 0.75"/>
    </g>
   </g>
   <g id="PathCollection_2">
    <defs>
     <path id="C1_0_77057b9605" d="M 0 2.5 
C 0.663008 2.5 1.29895 2.236584 1.767767 1.767767 
C 2.236584 1.29895 2.5 0.663008 2.5 -0 
C 2.5 -0.663008 2.236584 -1.29895 1.767767 -1.767767 
C 1.29895 -2.236584 0.663008 -2.5 0 -2.5 
C -0.663008 -2.5 -1.29895 -2.236584 -1.767767 -1.767767 
C -2.236584 -1.29895 -2.5 -0.663008 -2.5 0 
C -2.5 0.663008 -2.236584 1.29895 -1.767767 1.767767 
C -1.29895 2.236584 -0.663008 2.5 0 2.5 
z
"/>
    </defs>
    <g clip-path="url(#pf774788d5c)">
     <use xlink:href="#C1_0_77057b9605" x="224.994922" y="365.831506" style="fill: #808080; fill-opacity: 0.75"/>
    </g>
    <g clip-path="url(#pf774788d5c)">
     <use xlink:href="#C1_0_77057b9605" x="224.994922" y="360.547216" style="fill: #808080; fill-opacity: 0.75"/>
    </g>
    <g clip-path="url(#pf774788d5c)">
     <use xlink:href="#C1_0_77057b9605" x="224.994922" y="355.262926" style="fill: #808080; fill-opacity: 0.75"/>
    </g>
    <g clip-path="url(#pf774788d5c)">
     <use xlink:href="#C1_0_77057b9605" x="219.033106" y="355.262926" style="fill: #808080; fill-opacity: 0.75"/>
    </g>
    <g clip-path="url(#pf774788d5c)">
     <use xlink:href="#C1_0_77057b9605" x="230.956738" y="355.262926" style="fill: #808080; fill-opacity: 0.75"/>
    </g>
    <g clip-path="url(#pf774788d5c)">
     <use xlink:href="#C1_0_77057b9605" x="213.07129" y="355.262926" style="fill: #808080; fill-opacity: 0.75"/>
    </g>
    <g clip-path="url(#pf774788d5c)">
     <use xlink:href="#C1_0_77057b9605" x="224.994922" y="344.694347" style="fill: #808080; fill-opacity: 0.75"/>
    </g>
    <g clip-path="url(#pf774788d5c)">
     <use xlink:href="#C1_0_77057b9605" x="219.033106" y="344.694347" style="fill: #808080; fill-opacity: 0.75"/>
    </g>
    <g clip-path="url(#pf774788d5c)">
     <use xlink:href="#C1_0_77057b9605" x="224.994922" y="334.125767" style="fill: #808080; fill-opacity: 0.75"/>
    </g>
    <g clip-path="url(#pf774788d5c)">
     <use xlink:href="#C1_0_77057b9605" x="219.033106" y="334.125767" style="fill: #808080; fill-opacity: 0.75"/>
    </g>
    <g clip-path="url(#pf774788d5c)">
     <use xlink:href="#C1_0_77057b9605" x="230.956738" y="334.125767" style="fill: #808080; fill-opacity: 0.75"/>
    </g>
    <g clip-path="url(#pf774788d5c)">
     <use xlink:href="#C1_0_77057b9605" x="213.07129" y="334.125767" style="fill: #808080; fill-opacity: 0.75"/>
    </g>
    <g clip-path="url(#pf774788d5c)">
     <use xlink:href="#C1_0_77057b9605" x="236.918554" y="334.125767" style="fill: #808080; fill-opacity: 0.75"/>
    </g>
    <g clip-path="url(#pf774788d5c)">
     <use xlink:href="#C1_0_77057b9605" x="224.994922" y="328.841477" style="fill: #808080; fill-opacity: 0.75"/>
    </g>
    <g clip-path="url(#pf774788d5c)">
     <use xlink:href="#C1_0_77057b9605" x="224.994922" y="312.988608" style="fill: #808080; fill-opacity: 0.75"/>
    </g>
    <g clip-path="url(#pf774788d5c)">
     <use xlink:href="#C1_0_77057b9605" x="224.994922" y="302.420028" style="fill: #808080; fill-opacity: 0.75"/>
    </g>
    <g clip-path="url(#pf774788d5c)">
     <use xlink:href="#C1_0_77057b9605" x="219.033106" y="302.420028" style="fill: #808080; fill-opacity: 0.75"/>
    </g>
    <g clip-path="url(#pf774788d5c)">
     <use xlink:href="#C1_0_77057b9605" x="230.956738" y="302.420028" style="fill: #808080; fill-opacity: 0.75"/>
    </g>
    <g clip-path="url(#pf774788d5c)">
     <use xlink:href="#C1_0_77057b9605" x="213.07129" y="302.420028" style="fill: #808080; fill-opacity: 0.75"/>
    </g>
   </g>
  </g>
  <g id="axes_2">
   <g id="patch_7">
    <path d="M 334.779687 381.684375 
L 565.2 381.684375 
L 565.2 32.92125 
L 334.779687 32.92125 
z
" style="fill: #ffffff"/>
   </g>
   <g id="patch_8">
    <path d="M 351.414309 381.684375 
L 357.57528 381.684375 
L 357.57528 324.743457 
L 351.414309 324.743457 
z
" clip-path="url(#pec81f2675a)" style="fill: #2d1e3e; fill-opacity: 0.5; stroke: #000000; stroke-width: 0.542538; stroke-linejoin: miter"/>
   </g>
   <g id="patch_9">
    <path d="M 363.736251 381.684375 
L 369.897222 381.684375 
L 369.897222 305.763151 
L 363.736251 305.763151 
z
" clip-path="url(#pec81f2675a)" style="fill: #2d1e3e; fill-opacity: 0.5; stroke: #000000; stroke-width: 0.542538; stroke-linejoin: miter"/>
   </g>
   <g id="patch_10">
    <path d="M 376.058193 381.684375 
L 382.219164 381.684375 
L 382.219164 372.194222 
L 376.058193 372.194222 
z
" clip-path="url(#pec81f2675a)" style="fill: #2d1e3e; fill-opacity: 0.5; stroke: #000000; stroke-width: 0.542538; stroke-linejoin: miter"/>
   </g>
   <g id="patch_11">
    <path d="M 388.380135 381.684375 
L 394.541105 381.684375 
L 394.541105 343.723763 
L 388.380135 343.723763 
z
" clip-path="url(#pec81f2675a)" style="fill: #2d1e3e; fill-opacity: 0.5; stroke: #000000; stroke-width: 0.542538; stroke-linejoin: miter"/>
   </g>
   <g id="patch_12">
    <path d="M 400.702076 381.684375 
L 406.863047 381.684375 
L 406.863047 381.684375 
L 400.702076 381.684375 
z
" clip-path="url(#pec81f2675a)" style="fill: #2d1e3e; fill-opacity: 0.5; stroke: #000000; stroke-width: 0.542538; stroke-linejoin: miter"/>
   </g>
   <g id="patch_13">
    <path d="M 413.024018 381.684375 
L 419.184989 381.684375 
L 419.184989 381.684375 
L 413.024018 381.684375 
z
" clip-path="url(#pec81f2675a)" style="fill: #2d1e3e; fill-opacity: 0.5; stroke: #000000; stroke-width: 0.542538; stroke-linejoin: miter"/>
   </g>
   <g id="patch_14">
    <path d="M 425.34596 381.684375 
L 431.506931 381.684375 
L 431.506931 381.684375 
L 425.34596 381.684375 
z
" clip-path="url(#pec81f2675a)" style="fill: #2d1e3e; fill-opacity: 0.5; stroke: #000000; stroke-width: 0.542538; stroke-linejoin: miter"/>
   </g>
   <g id="patch_15">
    <path d="M 437.667902 381.684375 
L 443.828873 381.684375 
L 443.828873 381.684375 
L 437.667902 381.684375 
z
" clip-path="url(#pec81f2675a)" style="fill: #2d1e3e; fill-opacity: 0.5; stroke: #000000; stroke-width: 0.542538; stroke-linejoin: miter"/>
   </g>
   <g id="patch_16">
    <path d="M 449.989844 381.684375 
L 456.150815 381.684375 
L 456.150815 381.684375 
L 449.989844 381.684375 
z
" clip-path="url(#pec81f2675a)" style="fill: #2d1e3e; fill-opacity: 0.5; stroke: #000000; stroke-width: 0.542538; stroke-linejoin: miter"/>
   </g>
   <g id="patch_17">
    <path d="M 462.311786 381.684375 
L 468.472757 381.684375 
L 468.472757 381.684375 
L 462.311786 381.684375 
z
" clip-path="url(#pec81f2675a)" style="fill: #2d1e3e; fill-opacity: 0.5; stroke: #000000; stroke-width: 0.542538; stroke-linejoin: miter"/>
   </g>
   <g id="patch_18">
    <path d="M 474.633727 381.684375 
L 480.794698 381.684375 
L 480.794698 381.684375 
L 474.633727 381.684375 
z
" clip-path="url(#pec81f2675a)" style="fill: #2d1e3e; fill-opacity: 0.5; stroke: #000000; stroke-width: 0.542538; stroke-linejoin: miter"/>
   </g>
   <g id="patch_19">
    <path d="M 486.955669 381.684375 
L 493.11664 381.684375 
L 493.11664 381.684375 
L 486.955669 381.684375 
z
" clip-path="url(#pec81f2675a)" style="fill: #2d1e3e; fill-opacity: 0.5; stroke: #000000; stroke-width: 0.542538; stroke-linejoin: miter"/>
   </g>
   <g id="patch_20">
    <path d="M 499.277611 381.684375 
L 505.438582 381.684375 
L 505.438582 381.684375 
L 499.277611 381.684375 
z
" clip-path="url(#pec81f2675a)" style="fill: #2d1e3e; fill-opacity: 0.5; stroke: #000000; stroke-width: 0.542538; stroke-linejoin: miter"/>
   </g>
   <g id="patch_21">
    <path d="M 511.599553 381.684375 
L 517.760524 381.684375 
L 517.760524 381.684375 
L 511.599553 381.684375 
z
" clip-path="url(#pec81f2675a)" style="fill: #2d1e3e; fill-opacity: 0.5; stroke: #000000; stroke-width: 0.542538; stroke-linejoin: miter"/>
   </g>
   <g id="patch_22">
    <path d="M 523.921495 381.684375 
L 530.082466 381.684375 
L 530.082466 381.684375 
L 523.921495 381.684375 
z
" clip-path="url(#pec81f2675a)" style="fill: #2d1e3e; fill-opacity: 0.5; stroke: #000000; stroke-width: 0.542538; stroke-linejoin: miter"/>
   </g>
   <g id="patch_23">
    <path d="M 536.243437 381.684375 
L 542.404408 381.684375 
L 542.404408 381.684375 
L 536.243437 381.684375 
z
" clip-path="url(#pec81f2675a)" style="fill: #2d1e3e; fill-opacity: 0.5; stroke: #000000; stroke-width: 0.542538; stroke-linejoin: miter"/>
   </g>
   <g id="patch_24">
    <path d="M 548.565379 381.684375 
L 554.726349 381.684375 
L 554.726349 381.684375 
L 548.565379 381.684375 
z
" clip-path="url(#pec81f2675a)" style="fill: #2d1e3e; fill-opacity: 0.5; stroke: #000000; stroke-width: 0.542538; stroke-linejoin: miter"/>
   </g>
   <g id="patch_25">
    <path d="M 345.253338 381.684375 
L 351.414309 381.684375 
L 351.414309 324.743457 
L 345.253338 324.743457 
z
" clip-path="url(#pec81f2675a)" style="fill: #edd1cb; fill-opacity: 0.5; stroke: #000000; stroke-width: 0.542538; stroke-linejoin: miter"/>
   </g>
   <g id="patch_26">
    <path d="M 357.57528 381.684375 
L 363.736251 381.684375 
L 363.736251 49.529018 
L 357.57528 49.529018 
z
" clip-path="url(#pec81f2675a)" style="fill: #edd1cb; fill-opacity: 0.5; stroke: #000000; stroke-width: 0.542538; stroke-linejoin: miter"/>
   </g>
   <g id="patch_27">
    <path d="M 369.897222 381.684375 
L 376.058193 381.684375 
L 376.058193 258.312385 
L 369.897222 258.312385 
z
" clip-path="url(#pec81f2675a)" style="fill: #edd1cb; fill-opacity: 0.5; stroke: #000000; stroke-width: 0.542538; stroke-linejoin: miter"/>
   </g>
   <g id="patch_28">
    <path d="M 382.219164 381.684375 
L 388.380135 381.684375 
L 388.380135 343.723763 
L 382.219164 343.723763 
z
" clip-path="url(#pec81f2675a)" style="fill: #edd1cb; fill-opacity: 0.5; stroke: #000000; stroke-width: 0.542538; stroke-linejoin: miter"/>
   </g>
   <g id="patch_29">
    <path d="M 394.541105 381.684375 
L 400.702076 381.684375 
L 400.702076 381.684375 
L 394.541105 381.684375 
z
" clip-path="url(#pec81f2675a)" style="fill: #edd1cb; fill-opacity: 0.5; stroke: #000000; stroke-width: 0.542538; stroke-linejoin: miter"/>
   </g>
   <g id="patch_30">
    <path d="M 406.863047 381.684375 
L 413.024018 381.684375 
L 413.024018 324.743457 
L 406.863047 324.743457 
z
" clip-path="url(#pec81f2675a)" style="fill: #edd1cb; fill-opacity: 0.5; stroke: #000000; stroke-width: 0.542538; stroke-linejoin: miter"/>
   </g>
   <g id="patch_31">
    <path d="M 419.184989 381.684375 
L 425.34596 381.684375 
L 425.34596 381.684375 
L 419.184989 381.684375 
z
" clip-path="url(#pec81f2675a)" style="fill: #edd1cb; fill-opacity: 0.5; stroke: #000000; stroke-width: 0.542538; stroke-linejoin: miter"/>
   </g>
   <g id="patch_32">
    <path d="M 431.506931 381.684375 
L 437.667902 381.684375 
L 437.667902 381.684375 
L 431.506931 381.684375 
z
" clip-path="url(#pec81f2675a)" style="fill: #edd1cb; fill-opacity: 0.5; stroke: #000000; stroke-width: 0.542538; stroke-linejoin: miter"/>
   </g>
   <g id="patch_33">
    <path d="M 443.828873 381.684375 
L 449.989844 381.684375 
L 449.989844 372.194222 
L 443.828873 372.194222 
z
" clip-path="url(#pec81f2675a)" style="fill: #edd1cb; fill-opacity: 0.5; stroke: #000000; stroke-width: 0.542538; stroke-linejoin: miter"/>
   </g>
   <g id="patch_34">
    <path d="M 456.150815 381.684375 
L 462.311786 381.684375 
L 462.311786 381.684375 
L 456.150815 381.684375 
z
" clip-path="url(#pec81f2675a)" style="fill: #edd1cb; fill-opacity: 0.5; stroke: #000000; stroke-width: 0.542538; stroke-linejoin: miter"/>
   </g>
   <g id="patch_35">
    <path d="M 468.472757 381.684375 
L 474.633727 381.684375 
L 474.633727 362.704069 
L 468.472757 362.704069 
z
" clip-path="url(#pec81f2675a)" style="fill: #edd1cb; fill-opacity: 0.5; stroke: #000000; stroke-width: 0.542538; stroke-linejoin: miter"/>
   </g>
   <g id="patch_36">
    <path d="M 480.794698 381.684375 
L 486.955669 381.684375 
L 486.955669 372.194222 
L 480.794698 372.194222 
z
" clip-path="url(#pec81f2675a)" style="fill: #edd1cb; fill-opacity: 0.5; stroke: #000000; stroke-width: 0.542538; stroke-linejoin: miter"/>
   </g>
   <g id="patch_37">
    <path d="M 493.11664 381.684375 
L 499.277611 381.684375 
L 499.277611 381.684375 
L 493.11664 381.684375 
z
" clip-path="url(#pec81f2675a)" style="fill: #edd1cb; fill-opacity: 0.5; stroke: #000000; stroke-width: 0.542538; stroke-linejoin: miter"/>
   </g>
   <g id="patch_38">
    <path d="M 505.438582 381.684375 
L 511.599553 381.684375 
L 511.599553 381.684375 
L 505.438582 381.684375 
z
" clip-path="url(#pec81f2675a)" style="fill: #edd1cb; fill-opacity: 0.5; stroke: #000000; stroke-width: 0.542538; stroke-linejoin: miter"/>
   </g>
   <g id="patch_39">
    <path d="M 517.760524 381.684375 
L 523.921495 381.684375 
L 523.921495 343.723763 
L 517.760524 343.723763 
z
" clip-path="url(#pec81f2675a)" style="fill: #edd1cb; fill-opacity: 0.5; stroke: #000000; stroke-width: 0.542538; stroke-linejoin: miter"/>
   </g>
   <g id="patch_40">
    <path d="M 530.082466 381.684375 
L 536.243437 381.684375 
L 536.243437 381.684375 
L 530.082466 381.684375 
z
" clip-path="url(#pec81f2675a)" style="fill: #edd1cb; fill-opacity: 0.5; stroke: #000000; stroke-width: 0.542538; stroke-linejoin: miter"/>
   </g>
   <g id="patch_41">
    <path d="M 542.404408 381.684375 
L 548.565379 381.684375 
L 548.565379 362.704069 
L 542.404408 362.704069 
z
" clip-path="url(#pec81f2675a)" style="fill: #edd1cb; fill-opacity: 0.5; stroke: #000000; stroke-width: 0.542538; stroke-linejoin: miter"/>
   </g>
   <g id="matplotlib.axis_3">
    <g id="xtick_3">
     <g id="line2d_22">
      <g>
       <use xlink:href="#m4c99cd72f3" x="345.253338" y="391.684375" style="stroke: #000000; stroke-width: 0.8"/>
      </g>
     </g>
     <g id="text_12">
      <text style="font: 10px 'sans-serif'; text-anchor: middle" x="345.253338" y="405.857813" transform="rotate(-0, 345.253338, 405.857813)">0</text>
     </g>
    </g>
    <g id="xtick_4">
     <g id="line2d_23">
      <g>
       <use xlink:href="#m4c99cd72f3" x="415.077675" y="391.684375" style="stroke: #000000; stroke-width: 0.8"/>
      </g>
     </g>
     <g id="text_13">
      <text style="font: 10px 'sans-serif'; text-anchor: middle" x="415.077675" y="405.857813" transform="rotate(-0, 415.077675, 405.857813)">10</text>
     </g>
    </g>
    <g id="xtick_5">
     <g id="line2d_24">
      <g>
       <use xlink:href="#m4c99cd72f3" x="484.902012" y="391.684375" style="stroke: #000000; stroke-width: 0.8"/>
      </g>
     </g>
     <g id="text_14">
      <text style="font: 10px 'sans-serif'; text-anchor: middle" x="484.902012" y="405.857813" transform="rotate(-0, 484.902012, 405.857813)">20</text>
     </g>
    </g>
    <g id="xtick_6">
     <g id="line2d_25">
      <g>
       <use xlink:href="#m4c99cd72f3" x="554.726349" y="391.684375" style="stroke: #000000; stroke-width: 0.8"/>
      </g>
     </g>
     <g id="text_15">
      <text style="font: 10px 'sans-serif'; text-anchor: middle" x="554.726349" y="405.857813" transform="rotate(-0, 554.726349, 405.857813)">30</text>
     </g>
    </g>
    <g id="text_16">
     <text style="font: 10px 'sans-serif'; text-anchor: middle" x="449.989844" y="419.115625" transform="rotate(-0, 449.989844, 419.115625)">Value</text>
    </g>
   </g>
   <g id="matplotlib.axis_4">
    <g id="ytick_8">
     <g id="line2d_26">
      <g>
       <use xlink:href="#m8e343aef83" x="324.779687" y="381.684375" style="stroke: #000000; stroke-width: 0.8"/>
      </g>
     </g>
     <g id="text_17">
      <text style="font: 10px 'sans-serif'; text-anchor: end" x="317.779687" y="385.271094" transform="rotate(-0, 317.779687, 385.271094)">0</text>
     </g>
    </g>
    <g id="ytick_9">
     <g id="line2d_27">
      <g>
       <use xlink:href="#m8e343aef83" x="324.779687" y="334.23361" style="stroke: #000000; stroke-width: 0.8"/>
      </g>
     </g>
     <g id="text_18">
      <text style="font: 10px 'sans-serif'; text-anchor: end" x="317.779687" y="337.820328" transform="rotate(-0, 317.779687, 337.820328)">5</text>
     </g>
    </g>
    <g id="ytick_10">
     <g id="line2d_28">
      <g>
       <use xlink:href="#m8e343aef83" x="324.779687" y="286.782844" style="stroke: #000000; stroke-width: 0.8"/>
      </g>
     </g>
     <g id="text_19">
      <text style="font: 10px 'sans-serif'; text-anchor: end" x="317.779687" y="290.369563" transform="rotate(-0, 317.779687, 290.369563)">10</text>
     </g>
    </g>
    <g id="ytick_11">
     <g id="line2d_29">
      <g>
       <use xlink:href="#m8e343aef83" x="324.779687" y="239.332079" style="stroke: #000000; stroke-width: 0.8"/>
      </g>
     </g>
     <g id="text_20">
      <text style="font: 10px 'sans-serif'; text-anchor: end" x="317.779687" y="242.918798" transform="rotate(-0, 317.779687, 242.918798)">15</text>
     </g>
    </g>
    <g id="ytick_12">
     <g id="line2d_30">
      <g>
       <use xlink:href="#m8e343aef83" x="324.779687" y="191.881314" style="stroke: #000000; stroke-width: 0.8"/>
      </g>
     </g>
     <g id="text_21">
      <text style="font: 10px 'sans-serif'; text-anchor: end" x="317.779687" y="195.468033" transform="rotate(-0, 317.779687, 195.468033)">20</text>
     </g>
    </g>
    <g id="ytick_13">
     <g id="line2d_31">
      <g>
       <use xlink:href="#m8e343aef83" x="324.779687" y="144.430548" style="stroke: #000000; stroke-width: 0.8"/>
      </g>
     </g>
     <g id="text_22">
      <text style="font: 10px 'sans-serif'; text-anchor: end" x="317.779687" y="148.017267" transform="rotate(-0, 317.779687, 148.017267)">25</text>
     </g>
    </g>
    <g id="ytick_14">
     <g id="line2d_32">
      <g>
       <use xlink:href="#m8e343aef83" x="324.779687" y="96.979783" style="stroke: #000000; stroke-width: 0.8"/>
      </g>
     </g>
     <g id="text_23">
      <text style="font: 10px 'sans-serif'; text-anchor: end" x="317.779687" y="100.566502" transform="rotate(-0, 317.779687, 100.566502)">30</text>
     </g>
    </g>
    <g id="ytick_15">
     <g id="line2d_33">
      <g>
       <use xlink:href="#m8e343aef83" x="324.779687" y="49.529018" style="stroke: #000000; stroke-width: 0.8"/>
      </g>
     </g>
     <g id="text_24">
      <text style="font: 10px 'sans-serif'; text-anchor: end" x="317.779687" y="53.115737" transform="rotate(-0, 317.779687, 53.115737)">35</text>
     </g>
    </g>
    <g id="text_25">
     <text style="font: 10px 'sans-serif'; text-anchor: middle" x="300.573437" y="207.302813" transform="rotate(-90, 300.573437, 207.302813)">Count</text>
    </g>
   </g>
   <g id="line2d_34">
    <path d="M 345.253338 351.01138 
L 347.358594 344.905679 
L 349.463851 339.473531 
L 350.516479 337.119201 
L 351.569107 335.037278 
L 352.621735 333.233385 
L 353.674364 331.700928 
L 354.726992 330.424548 
L 355.77962 329.384591 
L 356.832248 328.561954 
L 357.884876 327.942549 
L 358.937505 327.520673 
L 359.990133 327.300671 
L 361.042761 327.296548 
L 362.095389 327.529476 
L 363.148017 328.023485 
L 364.200646 328.799938 
L 365.253274 329.871585 
L 366.305902 331.237133 
L 367.35853 332.877191 
L 369.463787 336.803482 
L 372.621671 343.212258 
L 373.674299 345.141446 
L 374.726928 346.835837 
L 375.779556 348.241531 
L 376.832184 349.329437 
L 377.884812 350.098256 
L 378.93744 350.57478 
L 379.990069 350.811494 
L 382.095325 350.873019 
L 384.200581 350.990907 
L 385.25321 351.290254 
L 386.305838 351.841404 
L 387.358466 352.687009 
L 388.411094 353.845227 
L 389.463722 355.309397 
L 390.516351 357.049974 
L 392.621607 361.152293 
L 396.83212 369.948457 
L 398.937376 373.670137 
L 399.990004 375.231627 
L 401.042633 376.578848 
L 402.095261 377.715072 
L 403.147889 378.652328 
L 404.200517 379.408859 
L 405.253145 380.006635 
L 407.358402 380.819719 
L 409.463658 381.26945 
L 412.621543 381.563774 
L 417.884684 381.673636 
L 446.305645 381.684375 
L 554.726349 381.684375 
L 554.726349 381.684375 
" clip-path="url(#pec81f2675a)" style="fill: none; stroke: #2d1e3e; stroke-width: 1.5; stroke-linecap: square"/>
   </g>
   <g id="line2d_35">
    <path d="M 345.253338 305.000231 
L 349.463851 292.929502 
L 352.621735 284.746071 
L 354.726992 279.91017 
L 356.832248 275.687052 
L 358.937505 272.163849 
L 359.990133 270.68782 
L 361.042761 269.412317 
L 362.095389 268.343454 
L 363.148017 267.486077 
L 364.200646 266.843722 
L 365.253274 266.418578 
L 366.305902 266.211475 
L 367.35853 266.221879 
L 368.411158 266.447903 
L 369.463787 266.886334 
L 370.516415 267.532672 
L 371.569043 268.381181 
L 372.621671 269.424956 
L 373.674299 270.656001 
L 375.779556 273.642976 
L 377.884812 277.259797 
L 379.990069 281.413069 
L 382.095325 286.002027 
L 385.25321 293.47417 
L 397.884748 324.377925 
L 401.042633 331.151445 
L 404.200517 337.275595 
L 407.358402 342.720299 
L 409.463658 345.978453 
L 411.568915 348.953166 
L 413.674171 351.661418 
L 415.779427 354.1228 
L 418.937312 357.397156 
L 422.095197 360.230219 
L 425.253081 362.681894 
L 428.410966 364.800637 
L 431.56885 366.622885 
L 434.726735 368.174831 
L 437.884619 369.475628 
L 441.042504 370.541111 
L 444.200389 371.387212 
L 447.358273 372.032493 
L 451.568786 372.620001 
L 455.779299 372.955027 
L 461.04244 373.127354 
L 469.463465 373.134399 
L 488.410773 372.925373 
L 495.77917 372.569689 
L 504.200196 371.888592 
L 513.67385 371.129231 
L 518.936991 370.926338 
L 524.200132 370.975343 
L 529.463273 371.290492 
L 534.726414 371.837374 
L 541.042183 372.713002 
L 550.515837 374.269644 
L 554.726349 375.008349 
L 554.726349 375.008349 
" clip-path="url(#pec81f2675a)" style="fill: none; stroke: #edd1cb; stroke-width: 1.5; stroke-linecap: square"/>
   </g>
   <g id="patch_42">
    <path d="M 324.779687 381.684375 
L 324.779687 49.529018 
" style="fill: none; stroke: #000000; stroke-width: 0.8; stroke-linejoin: miter; stroke-linecap: square"/>
   </g>
   <g id="patch_43">
    <path d="M 345.253338 391.684375 
L 554.726349 391.684375 
" style="fill: none; stroke: #000000; stroke-width: 0.8; stroke-linejoin: miter; stroke-linecap: square"/>
   </g>
   <g id="legend_1">
    <g id="patch_44">
     <path d="M 503.95625 83.694688 
L 558.2 83.694688 
Q 560.2 83.694688 560.2 81.694688 
L 560.2 39.92125 
Q 560.2 37.92125 558.2 37.92125 
L 503.95625 37.92125 
Q 501.95625 37.92125 501.95625 39.92125 
L 501.95625 81.694688 
Q 501.95625 83.694688 503.95625 83.694688 
z
" style="fill: #ffffff; opacity: 0.8; stroke: #cccccc; stroke-linejoin: miter"/>
    </g>
    <g id="text_26">
     <text style="font: 10px 'sans-serif'; text-anchor: start" x="520.517187" y="49.094688" transform="rotate(-0, 520.517187, 49.094688)">Year</text>
    </g>
    <g id="patch_45">
     <path d="M 505.95625 63.3525 
L 525.95625 63.3525 
L 525.95625 56.3525 
L 505.95625 56.3525 
z
" style="fill: #edd1cb; fill-opacity: 0.5; stroke: #000000; stroke-linejoin: miter"/>
    </g>
    <g id="text_27">
     <text style="font: 10px 'sans-serif'; text-anchor: start" x="533.95625" y="63.3525" transform="rotate(-0, 533.95625, 63.3525)">2018</text>
    </g>
    <g id="patch_46">
     <path d="M 505.95625 77.610313 
L 525.95625 77.610313 
L 525.95625 70.610313 
L 505.95625 70.610313 
z
" style="fill: #2d1e3e; fill-opacity: 0.5; stroke: #000000; stroke-linejoin: miter"/>
    </g>
    <g id="text_28">
     <text style="font: 10px 'sans-serif'; text-anchor: start" x="533.95625" y="77.610313" transform="rotate(-0, 533.95625, 77.610313)">2022</text>
    </g>
   </g>
  </g>
  <g id="text_29">
   <text style="font: 12px 'sans-serif'; text-anchor: middle" x="288" y="17.38875" transform="rotate(-0, 288, 17.38875)">Duration of contract in year for Australia (without 95 percentile)</text>
  </g>
 </g>
 <defs>
  <clipPath id="pf774788d5c">
   <rect x="52.179688" y="32.92125" width="230.420313" height="348.763125"/>
  </clipPath>
  <clipPath id="pec81f2675a">
   <rect x="334.779687" y="32.92125" width="230.420313" height="348.763125"/>
  </clipPath>
 </defs>
</svg>
