<?xml version="1.0" encoding="utf-8" standalone="no"?>
<!DOCTYPE svg PUBLIC "-//W3C//DTD SVG 1.1//EN"
  "http://www.w3.org/Graphics/SVG/1.1/DTD/svg11.dtd">
<svg xmlns:xlink="http://www.w3.org/1999/xlink" width="576pt" height="432pt" viewBox="0 0 576 432" xmlns="http://www.w3.org/2000/svg" version="1.1">
 <metadata>
  <rdf:RDF xmlns:dc="http://purl.org/dc/elements/1.1/" xmlns:cc="http://creativecommons.org/ns#" xmlns:rdf="http://www.w3.org/1999/02/22-rdf-syntax-ns#">
   <cc:Work>
    <dc:type rdf:resource="http://purl.org/dc/dcmitype/StillImage"/>
    <dc:date>2022-02-17T13:32:00.339100</dc:date>
    <dc:format>image/svg+xml</dc:format>
    <dc:creator>
     <cc:Agent>
      <dc:title>Matplotlib v3.5.1, https://matplotlib.org/</dc:title>
     </cc:Agent>
    </dc:creator>
   </cc:Work>
  </rdf:RDF>
 </metadata>
 <defs>
  <style type="text/css">*{stroke-linejoin: round; stroke-linecap: butt}</style>
 </defs>
 <g id="figure_1">
  <g id="patch_1">
   <path d="M 0 432 
L 576 432 
L 576 0 
L 0 0 
z
" style="fill: #ffffff"/>
  </g>
  <g id="axes_1">
   <g id="patch_2">
    <path d="M 52.179688 381.684375 
L 282.6 381.684375 
L 282.6 32.92125 
L 52.179688 32.92125 
z
" style="fill: #ffffff"/>
   </g>
   <g id="patch_3">
    <path d="M 75.221719 351.740066 
L 259.557969 351.740066 
L 259.557969 281.282869 
L 75.221719 281.282869 
L 75.221719 351.740066 
z
" clip-path="url(#pf774788d5c)" style="fill: #3274a1; stroke: #3f3f3f; stroke-width: 1.5; stroke-linejoin: miter"/>
   </g>
   <g id="matplotlib.axis_1">
    <g id="xtick_1">
     <g id="line2d_1">
      <defs>
       <path id="m4c99cd72f3" d="M 0 0 
L 0 3.5 
" style="stroke: #000000; stroke-width: 0.8"/>
      </defs>
      <g>
       <use xlink:href="#m4c99cd72f3" x="167.389844" y="391.684375" style="stroke: #000000; stroke-width: 0.8"/>
      </g>
     </g>
     <g id="text_1">
      <text style="font: 10px 'sans-serif'; text-anchor: middle" x="167.389844" y="405.857813" transform="rotate(-0, 167.389844, 405.857813)">2018</text>
     </g>
    </g>
    <g id="text_2">
     <text style="font: 10px 'sans-serif'; text-anchor: middle" x="167.389844" y="419.115625" transform="rotate(-0, 167.389844, 419.115625)">Year</text>
    </g>
   </g>
   <g id="matplotlib.axis_2">
    <g id="ytick_1">
     <g id="line2d_2">
      <defs>
       <path id="m8e343aef83" d="M 0 0 
L -3.5 0 
" style="stroke: #000000; stroke-width: 0.8"/>
      </defs>
      <g>
       <use xlink:href="#m8e343aef83" x="42.179688" y="365.831506" style="stroke: #000000; stroke-width: 0.8"/>
      </g>
     </g>
     <g id="text_3">
      <text style="font: 10px 'sans-serif'; text-anchor: end" x="35.179688" y="369.418224" transform="rotate(-0, 35.179688, 369.418224)">0</text>
     </g>
    </g>
    <g id="ytick_2">
     <g id="line2d_3">
      <g>
       <use xlink:href="#m8e343aef83" x="42.179688" y="295.374309" style="stroke: #000000; stroke-width: 0.8"/>
      </g>
     </g>
     <g id="text_4">
      <text style="font: 10px 'sans-serif'; text-anchor: end" x="35.179688" y="298.961027" transform="rotate(-0, 35.179688, 298.961027)">10</text>
     </g>
    </g>
    <g id="ytick_3">
     <g id="line2d_4">
      <g>
       <use xlink:href="#m8e343aef83" x="42.179688" y="224.917112" style="stroke: #000000; stroke-width: 0.8"/>
      </g>
     </g>
     <g id="text_5">
      <text style="font: 10px 'sans-serif'; text-anchor: end" x="35.179688" y="228.50383" transform="rotate(-0, 35.179688, 228.50383)">20</text>
     </g>
    </g>
    <g id="ytick_4">
     <g id="line2d_5">
      <g>
       <use xlink:href="#m8e343aef83" x="42.179688" y="154.459915" style="stroke: #000000; stroke-width: 0.8"/>
      </g>
     </g>
     <g id="text_6">
      <text style="font: 10px 'sans-serif'; text-anchor: end" x="35.179688" y="158.046634" transform="rotate(-0, 35.179688, 158.046634)">30</text>
     </g>
    </g>
    <g id="ytick_5">
     <g id="line2d_6">
      <g>
       <use xlink:href="#m8e343aef83" x="42.179688" y="84.002718" style="stroke: #000000; stroke-width: 0.8"/>
      </g>
     </g>
     <g id="text_7">
      <text style="font: 10px 'sans-serif'; text-anchor: end" x="35.179688" y="87.589437" transform="rotate(-0, 35.179688, 87.589437)">40</text>
     </g>
    </g>
    <g id="text_8">
     <text style="font: 10px 'sans-serif'; text-anchor: middle" x="17.973438" y="207.302813" transform="rotate(-90, 17.973438, 207.302813)">Value</text>
    </g>
   </g>
   <g id="line2d_7">
    <path d="M 167.389844 351.740066 
L 167.389844 365.831506 
" clip-path="url(#pf774788d5c)" style="fill: none; stroke: #3f3f3f; stroke-width: 1.5; stroke-linecap: square"/>
   </g>
   <g id="line2d_8">
    <path d="M 167.389844 281.282869 
L 167.389844 224.917112 
" clip-path="url(#pf774788d5c)" style="fill: none; stroke: #3f3f3f; stroke-width: 1.5; stroke-linecap: square"/>
   </g>
   <g id="line2d_9">
    <path d="M 121.305781 365.831506 
L 213.473906 365.831506 
" clip-path="url(#pf774788d5c)" style="fill: none; stroke: #3f3f3f; stroke-width: 1.5; stroke-linecap: square"/>
   </g>
   <g id="line2d_10">
    <path d="M 121.305781 224.917112 
L 213.473906 224.917112 
" clip-path="url(#pf774788d5c)" style="fill: none; stroke: #3f3f3f; stroke-width: 1.5; stroke-linecap: square"/>
   </g>
   <g id="line2d_11">
    <defs>
     <path id="m1b309634d9" d="M -0 3.535534 
L 2.12132 0 
L -0 -3.535534 
L -2.12132 -0 
z
" style="stroke: #3f3f3f; stroke-linejoin: miter"/>
    </defs>
    <g clip-path="url(#pf774788d5c)">
     <use xlink:href="#m1b309634d9" x="167.389844" y="98.094157" style="fill: #3f3f3f; stroke: #3f3f3f; stroke-linejoin: miter"/>
     <use xlink:href="#m1b309634d9" x="167.389844" y="48.774119" style="fill: #3f3f3f; stroke: #3f3f3f; stroke-linejoin: miter"/>
     <use xlink:href="#m1b309634d9" x="167.389844" y="154.459915" style="fill: #3f3f3f; stroke: #3f3f3f; stroke-linejoin: miter"/>
     <use xlink:href="#m1b309634d9" x="167.389844" y="55.819839" style="fill: #3f3f3f; stroke: #3f3f3f; stroke-linejoin: miter"/>
    </g>
   </g>
   <g id="line2d_12">
    <path d="M 75.221719 295.374309 
L 259.557969 295.374309 
" clip-path="url(#pf774788d5c)" style="fill: none; stroke: #3f3f3f; stroke-width: 1.5; stroke-linecap: square"/>
   </g>
   <g id="patch_4">
    <path d="M 42.179688 365.831506 
L 42.179688 84.002718 
" style="fill: none; stroke: #000000; stroke-width: 0.8; stroke-linejoin: miter; stroke-linecap: square"/>
   </g>
   <g id="patch_5">
    <path d="M 167.389844 391.684375 
L 167.389844 391.684375 
" style="fill: none; stroke: #000000; stroke-width: 0.8; stroke-linejoin: miter; stroke-linecap: square"/>
   </g>
   <g id="PathCollection_1">
    <defs>
     <path id="C0_0_77057b9605" d="M 0 2.5 
C 0.663008 2.5 1.29895 2.236584 1.767767 1.767767 
C 2.236584 1.29895 2.5 0.663008 2.5 -0 
C 2.5 -0.663008 2.236584 -1.29895 1.767767 -1.767767 
C 1.29895 -2.236584 0.663008 -2.5 0 -2.5 
C -0.663008 -2.5 -1.29895 -2.236584 -1.767767 -1.767767 
C -2.236584 -1.29895 -2.5 -0.663008 -2.5 0 
C -2.5 0.663008 -2.236584 1.29895 -1.767767 1.767767 
C -1.29895 2.236584 -0.663008 2.5 0 2.5 
z
"/>
    </defs>
    <g clip-path="url(#pf774788d5c)">
     <use xlink:href="#C0_0_77057b9605" x="167.389844" y="365.831506" style="fill: #808080; fill-opacity: 0.75"/>
    </g>
    <g clip-path="url(#pf774788d5c)">
     <use xlink:href="#C0_0_77057b9605" x="167.389844" y="360.19493" style="fill: #808080; fill-opacity: 0.75"/>
    </g>
    <g clip-path="url(#pf774788d5c)">
     <use xlink:href="#C0_0_77057b9605" x="161.647446" y="358.785786" style="fill: #808080; fill-opacity: 0.75"/>
    </g>
    <g clip-path="url(#pf774788d5c)">
     <use xlink:href="#C0_0_77057b9605" x="167.389844" y="351.740066" style="fill: #808080; fill-opacity: 0.75"/>
    </g>
    <g clip-path="url(#pf774788d5c)">
     <use xlink:href="#C0_0_77057b9605" x="161.428028" y="351.740066" style="fill: #808080; fill-opacity: 0.75"/>
    </g>
    <g clip-path="url(#pf774788d5c)">
     <use xlink:href="#C0_0_77057b9605" x="173.35166" y="351.740066" style="fill: #808080; fill-opacity: 0.75"/>
    </g>
    <g clip-path="url(#pf774788d5c)">
     <use xlink:href="#C0_0_77057b9605" x="155.466212" y="351.740066" style="fill: #808080; fill-opacity: 0.75"/>
    </g>
    <g clip-path="url(#pf774788d5c)">
     <use xlink:href="#C0_0_77057b9605" x="167.389844" y="344.694347" style="fill: #808080; fill-opacity: 0.75"/>
    </g>
    <g clip-path="url(#pf774788d5c)">
     <use xlink:href="#C0_0_77057b9605" x="161.428028" y="344.694347" style="fill: #808080; fill-opacity: 0.75"/>
    </g>
    <g clip-path="url(#pf774788d5c)">
     <use xlink:href="#C0_0_77057b9605" x="167.389844" y="330.602907" style="fill: #808080; fill-opacity: 0.75"/>
    </g>
    <g clip-path="url(#pf774788d5c)">
     <use xlink:href="#C0_0_77057b9605" x="161.428028" y="330.602907" style="fill: #808080; fill-opacity: 0.75"/>
    </g>
    <g clip-path="url(#pf774788d5c)">
     <use xlink:href="#C0_0_77057b9605" x="167.389844" y="316.511468" style="fill: #808080; fill-opacity: 0.75"/>
    </g>
    <g clip-path="url(#pf774788d5c)">
     <use xlink:href="#C0_0_77057b9605" x="167.389844" y="295.374309" style="fill: #808080; fill-opacity: 0.75"/>
    </g>
    <g clip-path="url(#pf774788d5c)">
     <use xlink:href="#C0_0_77057b9605" x="161.428028" y="295.374309" style="fill: #808080; fill-opacity: 0.75"/>
    </g>
    <g clip-path="url(#pf774788d5c)">
     <use xlink:href="#C0_0_77057b9605" x="173.35166" y="295.374309" style="fill: #808080; fill-opacity: 0.75"/>
    </g>
    <g clip-path="url(#pf774788d5c)">
     <use xlink:href="#C0_0_77057b9605" x="155.466212" y="295.374309" style="fill: #808080; fill-opacity: 0.75"/>
    </g>
    <g clip-path="url(#pf774788d5c)">
     <use xlink:href="#C0_0_77057b9605" x="179.313476" y="295.374309" style="fill: #808080; fill-opacity: 0.75"/>
    </g>
    <g clip-path="url(#pf774788d5c)">
     <use xlink:href="#C0_0_77057b9605" x="149.504396" y="295.374309" style="fill: #808080; fill-opacity: 0.75"/>
    </g>
    <g clip-path="url(#pf774788d5c)">
     <use xlink:href="#C0_0_77057b9605" x="167.389844" y="281.282869" style="fill: #808080; fill-opacity: 0.75"/>
    </g>
    <g clip-path="url(#pf774788d5c)">
     <use xlink:href="#C0_0_77057b9605" x="167.389844" y="260.14571" style="fill: #808080; fill-opacity: 0.75"/>
    </g>
    <g clip-path="url(#pf774788d5c)">
     <use xlink:href="#C0_0_77057b9605" x="167.389844" y="224.917112" style="fill: #808080; fill-opacity: 0.75"/>
    </g>
    <g clip-path="url(#pf774788d5c)">
     <use xlink:href="#C0_0_77057b9605" x="167.389844" y="154.459915" style="fill: #808080; fill-opacity: 0.75"/>
    </g>
    <g clip-path="url(#pf774788d5c)">
     <use xlink:href="#C0_0_77057b9605" x="167.389844" y="98.094157" style="fill: #808080; fill-opacity: 0.75"/>
    </g>
    <g clip-path="url(#pf774788d5c)">
     <use xlink:href="#C0_0_77057b9605" x="167.389844" y="55.819839" style="fill: #808080; fill-opacity: 0.75"/>
    </g>
    <g clip-path="url(#pf774788d5c)">
     <use xlink:href="#C0_0_77057b9605" x="167.389844" y="48.774119" style="fill: #808080; fill-opacity: 0.75"/>
    </g>
   </g>
  </g>
  <g id="axes_2">
   <g id="patch_6">
    <path d="M 334.779687 381.684375 
L 565.2 381.684375 
L 565.2 32.92125 
L 334.779687 32.92125 
z
" style="fill: #ffffff"/>
   </g>
   <g id="patch_7">
    <path d="M 345.253338 381.684375 
L 375.178054 381.684375 
L 375.178054 49.529018 
L 345.253338 49.529018 
z
" clip-path="url(#pec81f2675a)" style="fill: #edd1cb; fill-opacity: 0.5; stroke: #000000; stroke-linejoin: miter"/>
   </g>
   <g id="patch_8">
    <path d="M 375.178054 381.684375 
L 405.10277 381.684375 
L 405.10277 140.116843 
L 375.178054 140.116843 
z
" clip-path="url(#pec81f2675a)" style="fill: #edd1cb; fill-opacity: 0.5; stroke: #000000; stroke-linejoin: miter"/>
   </g>
   <g id="patch_9">
    <path d="M 405.10277 381.684375 
L 435.027486 381.684375 
L 435.027486 351.488433 
L 405.10277 351.488433 
z
" clip-path="url(#pec81f2675a)" style="fill: #edd1cb; fill-opacity: 0.5; stroke: #000000; stroke-linejoin: miter"/>
   </g>
   <g id="patch_10">
    <path d="M 435.027486 381.684375 
L 464.952202 381.684375 
L 464.952202 351.488433 
L 435.027486 351.488433 
z
" clip-path="url(#pec81f2675a)" style="fill: #edd1cb; fill-opacity: 0.5; stroke: #000000; stroke-linejoin: miter"/>
   </g>
   <g id="patch_11">
    <path d="M 464.952202 381.684375 
L 494.876918 381.684375 
L 494.876918 351.488433 
L 464.952202 351.488433 
z
" clip-path="url(#pec81f2675a)" style="fill: #edd1cb; fill-opacity: 0.5; stroke: #000000; stroke-linejoin: miter"/>
   </g>
   <g id="patch_12">
    <path d="M 494.876918 381.684375 
L 524.801634 381.684375 
L 524.801634 351.488433 
L 494.876918 351.488433 
z
" clip-path="url(#pec81f2675a)" style="fill: #edd1cb; fill-opacity: 0.5; stroke: #000000; stroke-linejoin: miter"/>
   </g>
   <g id="patch_13">
    <path d="M 524.801634 381.684375 
L 554.726349 381.684375 
L 554.726349 321.292492 
L 524.801634 321.292492 
z
" clip-path="url(#pec81f2675a)" style="fill: #edd1cb; fill-opacity: 0.5; stroke: #000000; stroke-linejoin: miter"/>
   </g>
   <g id="matplotlib.axis_3">
    <g id="xtick_2">
     <g id="line2d_13">
      <g>
       <use xlink:href="#m4c99cd72f3" x="345.253338" y="391.684375" style="stroke: #000000; stroke-width: 0.8"/>
      </g>
     </g>
     <g id="text_9">
      <text style="font: 10px 'sans-serif'; text-anchor: middle" x="345.253338" y="405.857813" transform="rotate(-0, 345.253338, 405.857813)">0</text>
     </g>
    </g>
    <g id="xtick_3">
     <g id="line2d_14">
      <g>
       <use xlink:href="#m4c99cd72f3" x="391.802896" y="391.684375" style="stroke: #000000; stroke-width: 0.8"/>
      </g>
     </g>
     <g id="text_10">
      <text style="font: 10px 'sans-serif'; text-anchor: middle" x="391.802896" y="405.857813" transform="rotate(-0, 391.802896, 405.857813)">10</text>
     </g>
    </g>
    <g id="xtick_4">
     <g id="line2d_15">
      <g>
       <use xlink:href="#m4c99cd72f3" x="438.352454" y="391.684375" style="stroke: #000000; stroke-width: 0.8"/>
      </g>
     </g>
     <g id="text_11">
      <text style="font: 10px 'sans-serif'; text-anchor: middle" x="438.352454" y="405.857813" transform="rotate(-0, 438.352454, 405.857813)">20</text>
     </g>
    </g>
    <g id="xtick_5">
     <g id="line2d_16">
      <g>
       <use xlink:href="#m4c99cd72f3" x="484.902012" y="391.684375" style="stroke: #000000; stroke-width: 0.8"/>
      </g>
     </g>
     <g id="text_12">
      <text style="font: 10px 'sans-serif'; text-anchor: middle" x="484.902012" y="405.857813" transform="rotate(-0, 484.902012, 405.857813)">30</text>
     </g>
    </g>
    <g id="xtick_6">
     <g id="line2d_17">
      <g>
       <use xlink:href="#m4c99cd72f3" x="531.45157" y="391.684375" style="stroke: #000000; stroke-width: 0.8"/>
      </g>
     </g>
     <g id="text_13">
      <text style="font: 10px 'sans-serif'; text-anchor: middle" x="531.45157" y="405.857813" transform="rotate(-0, 531.45157, 405.857813)">40</text>
     </g>
    </g>
    <g id="text_14">
     <text style="font: 10px 'sans-serif'; text-anchor: middle" x="449.989844" y="419.115625" transform="rotate(-0, 449.989844, 419.115625)">Value</text>
    </g>
   </g>
   <g id="matplotlib.axis_4">
    <g id="ytick_6">
     <g id="line2d_18">
      <g>
       <use xlink:href="#m8e343aef83" x="324.779687" y="381.684375" style="stroke: #000000; stroke-width: 0.8"/>
      </g>
     </g>
     <g id="text_15">
      <text style="font: 10px 'sans-serif'; text-anchor: end" x="317.779687" y="385.271094" transform="rotate(-0, 317.779687, 385.271094)">0</text>
     </g>
    </g>
    <g id="ytick_7">
     <g id="line2d_19">
      <g>
       <use xlink:href="#m8e343aef83" x="324.779687" y="321.292492" style="stroke: #000000; stroke-width: 0.8"/>
      </g>
     </g>
     <g id="text_16">
      <text style="font: 10px 'sans-serif'; text-anchor: end" x="317.779687" y="324.879211" transform="rotate(-0, 317.779687, 324.879211)">2</text>
     </g>
    </g>
    <g id="ytick_8">
     <g id="line2d_20">
      <g>
       <use xlink:href="#m8e343aef83" x="324.779687" y="260.900609" style="stroke: #000000; stroke-width: 0.8"/>
      </g>
     </g>
     <g id="text_17">
      <text style="font: 10px 'sans-serif'; text-anchor: end" x="317.779687" y="264.487328" transform="rotate(-0, 317.779687, 264.487328)">4</text>
     </g>
    </g>
    <g id="ytick_9">
     <g id="line2d_21">
      <g>
       <use xlink:href="#m8e343aef83" x="324.779687" y="200.508726" style="stroke: #000000; stroke-width: 0.8"/>
      </g>
     </g>
     <g id="text_18">
      <text style="font: 10px 'sans-serif'; text-anchor: end" x="317.779687" y="204.095444" transform="rotate(-0, 317.779687, 204.095444)">6</text>
     </g>
    </g>
    <g id="ytick_10">
     <g id="line2d_22">
      <g>
       <use xlink:href="#m8e343aef83" x="324.779687" y="140.116843" style="stroke: #000000; stroke-width: 0.8"/>
      </g>
     </g>
     <g id="text_19">
      <text style="font: 10px 'sans-serif'; text-anchor: end" x="317.779687" y="143.703561" transform="rotate(-0, 317.779687, 143.703561)">8</text>
     </g>
    </g>
    <g id="ytick_11">
     <g id="line2d_23">
      <g>
       <use xlink:href="#m8e343aef83" x="324.779687" y="79.724959" style="stroke: #000000; stroke-width: 0.8"/>
      </g>
     </g>
     <g id="text_20">
      <text style="font: 10px 'sans-serif'; text-anchor: end" x="317.779687" y="83.311678" transform="rotate(-0, 317.779687, 83.311678)">10</text>
     </g>
    </g>
    <g id="text_21">
     <text style="font: 10px 'sans-serif'; text-anchor: middle" x="300.573437" y="207.302813" transform="rotate(-90, 300.573437, 207.302813)">Count</text>
    </g>
   </g>
   <g id="line2d_24">
    <path d="M 345.253338 234.553049 
L 348.411223 226.753015 
L 351.569107 219.645944 
L 353.674364 215.347041 
L 355.77962 211.433394 
L 357.884876 207.930598 
L 359.990133 204.860853 
L 362.095389 202.242766 
L 364.200646 200.091203 
L 366.305902 198.417192 
L 368.411158 197.227887 
L 369.463787 196.816176 
L 370.516415 196.526575 
L 371.569043 196.3589 
L 372.621671 196.312734 
L 373.674299 196.387432 
L 374.726928 196.582128 
L 375.779556 196.895732 
L 377.884812 197.874265 
L 379.990069 199.310189 
L 382.095325 201.187565 
L 384.200581 203.487599 
L 386.305838 206.188888 
L 388.411094 209.267689 
L 390.516351 212.698202 
L 392.621607 216.452851 
L 395.779492 222.628681 
L 398.937376 229.365378 
L 403.147889 239.035629 
L 408.41103 251.869019 
L 423.147825 288.359787 
L 427.358337 298.037107 
L 431.56885 307.085727 
L 434.726735 313.393279 
L 437.884619 319.252634 
L 441.042504 324.641208 
L 444.200389 329.546301 
L 447.358273 333.964308 
L 450.516158 337.899766 
L 453.674042 341.364273 
L 456.831927 344.375336 
L 459.989812 346.955191 
L 463.147696 349.129645 
L 466.305581 350.926972 
L 469.463465 352.376912 
L 472.62135 353.509788 
L 475.779235 354.355767 
L 478.937119 354.944285 
L 482.095004 355.303634 
L 485.252888 355.460715 
L 489.463401 355.399241 
L 493.673914 355.079566 
L 497.884427 354.554319 
L 503.147568 353.684839 
L 511.568593 352.026755 
L 521.042247 350.206283 
L 526.305388 349.42148 
L 530.515901 348.99545 
L 534.726414 348.79855 
L 538.936926 348.869565 
L 542.094811 349.116663 
L 545.252696 349.539174 
L 548.41058 350.14088 
L 551.568465 350.921036 
L 554.726349 351.874253 
L 554.726349 351.874253 
" clip-path="url(#pec81f2675a)" style="fill: none; stroke: #edd1cb; stroke-width: 1.5; stroke-linecap: square"/>
   </g>
   <g id="patch_14">
    <path d="M 324.779687 381.684375 
L 324.779687 79.724959 
" style="fill: none; stroke: #000000; stroke-width: 0.8; stroke-linejoin: miter; stroke-linecap: square"/>
   </g>
   <g id="patch_15">
    <path d="M 345.253338 391.684375 
L 531.45157 391.684375 
" style="fill: none; stroke: #000000; stroke-width: 0.8; stroke-linejoin: miter; stroke-linecap: square"/>
   </g>
   <g id="legend_1">
    <g id="patch_16">
     <path d="M 503.95625 69.436875 
L 558.2 69.436875 
Q 560.2 69.436875 560.2 67.436875 
L 560.2 39.92125 
Q 560.2 37.92125 558.2 37.92125 
L 503.95625 37.92125 
Q 501.95625 37.92125 501.95625 39.92125 
L 501.95625 67.436875 
Q 501.95625 69.436875 503.95625 69.436875 
z
" style="fill: #ffffff; opacity: 0.8; stroke: #cccccc; stroke-linejoin: miter"/>
    </g>
    <g id="text_22">
     <text style="font: 10px 'sans-serif'; text-anchor: start" x="520.517187" y="49.094688" transform="rotate(-0, 520.517187, 49.094688)">Year</text>
    </g>
    <g id="patch_17">
     <path d="M 505.95625 63.3525 
L 525.95625 63.3525 
L 525.95625 56.3525 
L 505.95625 56.3525 
z
" style="fill: #edd1cb; fill-opacity: 0.5; stroke: #000000; stroke-linejoin: miter"/>
    </g>
    <g id="text_23">
     <text style="font: 10px 'sans-serif'; text-anchor: start" x="533.95625" y="63.3525" transform="rotate(-0, 533.95625, 63.3525)">2018</text>
    </g>
   </g>
  </g>
  <g id="text_24">
   <text style="font: 12px 'sans-serif'; text-anchor: middle" x="288" y="17.38875" transform="rotate(-0, 288, 17.38875)">Duration of contract in year for New Zealand (without 95 percentile)</text>
  </g>
 </g>
 <defs>
  <clipPath id="pf774788d5c">
   <rect x="52.179688" y="32.92125" width="230.420313" height="348.763125"/>
  </clipPath>
  <clipPath id="pec81f2675a">
   <rect x="334.779687" y="32.92125" width="230.420313" height="348.763125"/>
  </clipPath>
 </defs>
</svg>
