<?xml version="1.0" encoding="utf-8" standalone="no"?>
<!DOCTYPE svg PUBLIC "-//W3C//DTD SVG 1.1//EN"
  "http://www.w3.org/Graphics/SVG/1.1/DTD/svg11.dtd">
<svg xmlns:xlink="http://www.w3.org/1999/xlink" width="648pt" height="288pt" viewBox="0 0 648 288" xmlns="http://www.w3.org/2000/svg" version="1.1">
 <metadata>
  <rdf:RDF xmlns:dc="http://purl.org/dc/elements/1.1/" xmlns:cc="http://creativecommons.org/ns#" xmlns:rdf="http://www.w3.org/1999/02/22-rdf-syntax-ns#">
   <cc:Work>
    <dc:type rdf:resource="http://purl.org/dc/dcmitype/StillImage"/>
    <dc:date>2022-03-21T12:06:46.576073</dc:date>
    <dc:format>image/svg+xml</dc:format>
    <dc:creator>
     <cc:Agent>
      <dc:title>Matplotlib v3.5.1, https://matplotlib.org/</dc:title>
     </cc:Agent>
    </dc:creator>
   </cc:Work>
  </rdf:RDF>
 </metadata>
 <defs>
  <style type="text/css">*{stroke-linejoin: round; stroke-linecap: butt}</style>
 </defs>
 <g id="figure_1">
  <g id="patch_1">
   <path d="M 0 288 
L 648 288 
L 648 0 
L 0 0 
z
" style="fill: #ffffff"/>
  </g>
  <g id="axes_1">
   <g id="patch_2">
    <path d="M 81 256.32 
L 583.2 256.32 
L 583.2 34.56 
L 81 34.56 
z
" style="fill: #ffffff"/>
   </g>
   <g id="line2d_1">
    <path d="M 332.726185 256.32 
L 332.726185 34.56 
" clip-path="url(#p759a6061cf)" style="fill: none; stroke-dasharray: 5.55,2.4; stroke-dashoffset: 0; stroke: #000000; stroke-opacity: 0.5; stroke-width: 1.5"/>
   </g>
   <g id="line2d_2">
    <path d="M 332.726185 256.32 
L 332.726185 34.56 
" clip-path="url(#p759a6061cf)" style="fill: none; stroke-dasharray: 5.55,2.4; stroke-dashoffset: 0; stroke: #000000; stroke-opacity: 0.5; stroke-width: 1.5"/>
   </g>
   <g id="patch_3">
    <path d="M 265.933167 246.24 
L 265.933167 246.24 
L 265.933167 156.64 
L 265.933167 156.64 
z
" clip-path="url(#p759a6061cf)" style="fill: #67001f"/>
   </g>
   <g id="patch_4">
    <path d="M 232.536658 134.24 
L 240.885786 134.24 
L 240.885786 44.64 
L 232.536658 44.64 
z
" clip-path="url(#p759a6061cf)" style="fill: #67001f"/>
   </g>
   <g id="patch_5">
    <path d="M 265.933167 246.24 
L 265.933167 246.24 
L 265.933167 156.64 
L 265.933167 156.64 
z
" clip-path="url(#p759a6061cf)" style="fill: #b61f2e"/>
   </g>
   <g id="patch_6">
    <path d="M 240.885786 134.24 
L 249.234913 134.24 
L 249.234913 44.64 
L 240.885786 44.64 
z
" clip-path="url(#p759a6061cf)" style="fill: #b61f2e"/>
   </g>
   <g id="patch_7">
    <path d="M 265.933167 246.24 
L 282.631421 246.24 
L 282.631421 156.64 
L 265.933167 156.64 
z
" clip-path="url(#p759a6061cf)" style="fill: #dc6e57"/>
   </g>
   <g id="patch_8">
    <path d="M 249.234913 134.24 
L 257.58404 134.24 
L 257.58404 44.64 
L 249.234913 44.64 
z
" clip-path="url(#p759a6061cf)" style="fill: #dc6e57"/>
   </g>
   <g id="patch_9">
    <path d="M 282.631421 246.24 
L 290.980549 246.24 
L 290.980549 156.64 
L 282.631421 156.64 
z
" clip-path="url(#p759a6061cf)" style="fill: #f7b799"/>
   </g>
   <g id="patch_10">
    <path d="M 257.58404 134.24 
L 265.933167 134.24 
L 265.933167 44.64 
L 257.58404 44.64 
z
" clip-path="url(#p759a6061cf)" style="fill: #f7b799"/>
   </g>
   <g id="patch_11">
    <path d="M 290.980549 246.24 
L 332.726185 246.24 
L 332.726185 156.64 
L 290.980549 156.64 
z
" clip-path="url(#p759a6061cf)" style="fill: #fae7dc"/>
   </g>
   <g id="patch_12">
    <path d="M 265.933167 134.24 
L 332.726185 134.24 
L 332.726185 44.64 
L 265.933167 44.64 
z
" clip-path="url(#p759a6061cf)" style="fill: #fae7dc"/>
   </g>
   <g id="patch_13">
    <path d="M 332.726185 246.24 
L 349.424439 246.24 
L 349.424439 156.64 
L 332.726185 156.64 
z
" clip-path="url(#p759a6061cf)" style="fill: #e1edf3"/>
   </g>
   <g id="patch_14">
    <path d="M 332.726185 134.24 
L 391.170075 134.24 
L 391.170075 44.64 
L 332.726185 44.64 
z
" clip-path="url(#p759a6061cf)" style="fill: #e1edf3"/>
   </g>
   <g id="patch_15">
    <path d="M 349.424439 246.24 
L 407.868329 246.24 
L 407.868329 156.64 
L 349.424439 156.64 
z
" clip-path="url(#p759a6061cf)" style="fill: #a7d0e4"/>
   </g>
   <g id="patch_16">
    <path d="M 391.170075 134.24 
L 432.915711 134.24 
L 432.915711 44.64 
L 391.170075 44.64 
z
" clip-path="url(#p759a6061cf)" style="fill: #a7d0e4"/>
   </g>
   <g id="patch_17">
    <path d="M 407.868329 246.24 
L 457.963092 246.24 
L 457.963092 156.64 
L 407.868329 156.64 
z
" clip-path="url(#p759a6061cf)" style="fill: #529dc8"/>
   </g>
   <g id="patch_18">
    <path d="M 432.915711 134.24 
L 449.613965 134.24 
L 449.613965 44.64 
L 432.915711 44.64 
z
" clip-path="url(#p759a6061cf)" style="fill: #529dc8"/>
   </g>
   <g id="patch_19">
    <path d="M 457.963092 246.24 
L 516.406983 246.24 
L 516.406983 156.64 
L 457.963092 156.64 
z
" clip-path="url(#p759a6061cf)" style="fill: #246aae"/>
   </g>
   <g id="patch_20">
    <path d="M 449.613965 134.24 
L 483.010474 134.24 
L 483.010474 44.64 
L 449.613965 44.64 
z
" clip-path="url(#p759a6061cf)" style="fill: #246aae"/>
   </g>
   <g id="patch_21">
    <path d="M 516.406983 246.24 
L 516.406983 246.24 
L 516.406983 156.64 
L 516.406983 156.64 
z
" clip-path="url(#p759a6061cf)" style="fill: #053061"/>
   </g>
   <g id="patch_22">
    <path d="M 483.010474 134.24 
L 483.010474 134.24 
L 483.010474 44.64 
L 483.010474 44.64 
z
" clip-path="url(#p759a6061cf)" style="fill: #053061"/>
   </g>
   <g id="patch_23">
    <path d="M 265.933167 246.24 
L 265.933167 246.24 
L 265.933167 156.64 
L 265.933167 156.64 
z
" clip-path="url(#p759a6061cf)" style="fill: #67001f"/>
   </g>
   <g id="patch_24">
    <path d="M 232.536658 134.24 
L 240.885786 134.24 
L 240.885786 44.64 
L 232.536658 44.64 
z
" clip-path="url(#p759a6061cf)" style="fill: #67001f"/>
   </g>
   <g id="patch_25">
    <path d="M 265.933167 246.24 
L 265.933167 246.24 
L 265.933167 156.64 
L 265.933167 156.64 
z
" clip-path="url(#p759a6061cf)" style="fill: #b61f2e"/>
   </g>
   <g id="patch_26">
    <path d="M 240.885786 134.24 
L 249.234913 134.24 
L 249.234913 44.64 
L 240.885786 44.64 
z
" clip-path="url(#p759a6061cf)" style="fill: #b61f2e"/>
   </g>
   <g id="patch_27">
    <path d="M 265.933167 246.24 
L 282.631421 246.24 
L 282.631421 156.64 
L 265.933167 156.64 
z
" clip-path="url(#p759a6061cf)" style="fill: #dc6e57"/>
   </g>
   <g id="patch_28">
    <path d="M 249.234913 134.24 
L 257.58404 134.24 
L 257.58404 44.64 
L 249.234913 44.64 
z
" clip-path="url(#p759a6061cf)" style="fill: #dc6e57"/>
   </g>
   <g id="patch_29">
    <path d="M 282.631421 246.24 
L 290.980549 246.24 
L 290.980549 156.64 
L 282.631421 156.64 
z
" clip-path="url(#p759a6061cf)" style="fill: #f7b799"/>
   </g>
   <g id="patch_30">
    <path d="M 257.58404 134.24 
L 265.933167 134.24 
L 265.933167 44.64 
L 257.58404 44.64 
z
" clip-path="url(#p759a6061cf)" style="fill: #f7b799"/>
   </g>
   <g id="patch_31">
    <path d="M 290.980549 246.24 
L 332.726185 246.24 
L 332.726185 156.64 
L 290.980549 156.64 
z
" clip-path="url(#p759a6061cf)" style="fill: #fae7dc"/>
   </g>
   <g id="patch_32">
    <path d="M 265.933167 134.24 
L 332.726185 134.24 
L 332.726185 44.64 
L 265.933167 44.64 
z
" clip-path="url(#p759a6061cf)" style="fill: #fae7dc"/>
   </g>
   <g id="patch_33">
    <path d="M 332.726185 246.24 
L 349.424439 246.24 
L 349.424439 156.64 
L 332.726185 156.64 
z
" clip-path="url(#p759a6061cf)" style="fill: #e1edf3"/>
   </g>
   <g id="patch_34">
    <path d="M 332.726185 134.24 
L 391.170075 134.24 
L 391.170075 44.64 
L 332.726185 44.64 
z
" clip-path="url(#p759a6061cf)" style="fill: #e1edf3"/>
   </g>
   <g id="patch_35">
    <path d="M 349.424439 246.24 
L 407.868329 246.24 
L 407.868329 156.64 
L 349.424439 156.64 
z
" clip-path="url(#p759a6061cf)" style="fill: #a7d0e4"/>
   </g>
   <g id="patch_36">
    <path d="M 391.170075 134.24 
L 432.915711 134.24 
L 432.915711 44.64 
L 391.170075 44.64 
z
" clip-path="url(#p759a6061cf)" style="fill: #a7d0e4"/>
   </g>
   <g id="patch_37">
    <path d="M 407.868329 246.24 
L 457.963092 246.24 
L 457.963092 156.64 
L 407.868329 156.64 
z
" clip-path="url(#p759a6061cf)" style="fill: #529dc8"/>
   </g>
   <g id="patch_38">
    <path d="M 432.915711 134.24 
L 449.613965 134.24 
L 449.613965 44.64 
L 432.915711 44.64 
z
" clip-path="url(#p759a6061cf)" style="fill: #529dc8"/>
   </g>
   <g id="patch_39">
    <path d="M 457.963092 246.24 
L 516.406983 246.24 
L 516.406983 156.64 
L 457.963092 156.64 
z
" clip-path="url(#p759a6061cf)" style="fill: #246aae"/>
   </g>
   <g id="patch_40">
    <path d="M 449.613965 134.24 
L 483.010474 134.24 
L 483.010474 44.64 
L 449.613965 44.64 
z
" clip-path="url(#p759a6061cf)" style="fill: #246aae"/>
   </g>
   <g id="patch_41">
    <path d="M 516.406983 246.24 
L 516.406983 246.24 
L 516.406983 156.64 
L 516.406983 156.64 
z
" clip-path="url(#p759a6061cf)" style="fill: #053061"/>
   </g>
   <g id="patch_42">
    <path d="M 483.010474 134.24 
L 483.010474 134.24 
L 483.010474 44.64 
L 483.010474 44.64 
z
" clip-path="url(#p759a6061cf)" style="fill: #053061"/>
   </g>
   <g id="matplotlib.axis_1">
    <g id="xtick_1">
     <g id="line2d_3">
      <defs>
       <path id="m4c99cd72f3" d="M 0 0 
L 0 3.5 
" style="stroke: #000000; stroke-width: 0.8"/>
      </defs>
      <g>
       <use xlink:href="#m4c99cd72f3" x="82.252369" y="256.32" style="stroke: #000000; stroke-width: 0.8"/>
      </g>
     </g>
     <g id="text_1">
      <text style="font: 10px 'sans-serif'; text-anchor: middle" x="82.252369" y="270.493438" transform="rotate(-0, 82.252369, 270.493438)">100</text>
     </g>
    </g>
    <g id="xtick_2">
     <g id="line2d_4">
      <g>
       <use xlink:href="#m4c99cd72f3" x="107.299751" y="256.32" style="stroke: #000000; stroke-width: 0.8"/>
      </g>
     </g>
     <g id="text_2">
      <text style="font: 10px 'sans-serif'; text-anchor: middle" x="107.299751" y="270.493438" transform="rotate(-0, 107.299751, 270.493438)">90</text>
     </g>
    </g>
    <g id="xtick_3">
     <g id="line2d_5">
      <g>
       <use xlink:href="#m4c99cd72f3" x="132.347132" y="256.32" style="stroke: #000000; stroke-width: 0.8"/>
      </g>
     </g>
     <g id="text_3">
      <text style="font: 10px 'sans-serif'; text-anchor: middle" x="132.347132" y="270.493438" transform="rotate(-0, 132.347132, 270.493438)">80</text>
     </g>
    </g>
    <g id="xtick_4">
     <g id="line2d_6">
      <g>
       <use xlink:href="#m4c99cd72f3" x="157.394514" y="256.32" style="stroke: #000000; stroke-width: 0.8"/>
      </g>
     </g>
     <g id="text_4">
      <text style="font: 10px 'sans-serif'; text-anchor: middle" x="157.394514" y="270.493438" transform="rotate(-0, 157.394514, 270.493438)">70</text>
     </g>
    </g>
    <g id="xtick_5">
     <g id="line2d_7">
      <g>
       <use xlink:href="#m4c99cd72f3" x="182.441895" y="256.32" style="stroke: #000000; stroke-width: 0.8"/>
      </g>
     </g>
     <g id="text_5">
      <text style="font: 10px 'sans-serif'; text-anchor: middle" x="182.441895" y="270.493438" transform="rotate(-0, 182.441895, 270.493438)">60</text>
     </g>
    </g>
    <g id="xtick_6">
     <g id="line2d_8">
      <g>
       <use xlink:href="#m4c99cd72f3" x="207.489277" y="256.32" style="stroke: #000000; stroke-width: 0.8"/>
      </g>
     </g>
     <g id="text_6">
      <text style="font: 10px 'sans-serif'; text-anchor: middle" x="207.489277" y="270.493438" transform="rotate(-0, 207.489277, 270.493438)">50</text>
     </g>
    </g>
    <g id="xtick_7">
     <g id="line2d_9">
      <g>
       <use xlink:href="#m4c99cd72f3" x="232.536658" y="256.32" style="stroke: #000000; stroke-width: 0.8"/>
      </g>
     </g>
     <g id="text_7">
      <text style="font: 10px 'sans-serif'; text-anchor: middle" x="232.536658" y="270.493438" transform="rotate(-0, 232.536658, 270.493438)">40</text>
     </g>
    </g>
    <g id="xtick_8">
     <g id="line2d_10">
      <g>
       <use xlink:href="#m4c99cd72f3" x="257.58404" y="256.32" style="stroke: #000000; stroke-width: 0.8"/>
      </g>
     </g>
     <g id="text_8">
      <text style="font: 10px 'sans-serif'; text-anchor: middle" x="257.58404" y="270.493438" transform="rotate(-0, 257.58404, 270.493438)">30</text>
     </g>
    </g>
    <g id="xtick_9">
     <g id="line2d_11">
      <g>
       <use xlink:href="#m4c99cd72f3" x="282.631421" y="256.32" style="stroke: #000000; stroke-width: 0.8"/>
      </g>
     </g>
     <g id="text_9">
      <text style="font: 10px 'sans-serif'; text-anchor: middle" x="282.631421" y="270.493438" transform="rotate(-0, 282.631421, 270.493438)">20</text>
     </g>
    </g>
    <g id="xtick_10">
     <g id="line2d_12">
      <g>
       <use xlink:href="#m4c99cd72f3" x="307.678803" y="256.32" style="stroke: #000000; stroke-width: 0.8"/>
      </g>
     </g>
     <g id="text_10">
      <text style="font: 10px 'sans-serif'; text-anchor: middle" x="307.678803" y="270.493438" transform="rotate(-0, 307.678803, 270.493438)">10</text>
     </g>
    </g>
    <g id="xtick_11">
     <g id="line2d_13">
      <g>
       <use xlink:href="#m4c99cd72f3" x="332.726185" y="256.32" style="stroke: #000000; stroke-width: 0.8"/>
      </g>
     </g>
     <g id="text_11">
      <text style="font: 10px 'sans-serif'; text-anchor: middle" x="332.726185" y="270.493438" transform="rotate(-0, 332.726185, 270.493438)">0</text>
     </g>
    </g>
    <g id="xtick_12">
     <g id="line2d_14">
      <g>
       <use xlink:href="#m4c99cd72f3" x="357.773566" y="256.32" style="stroke: #000000; stroke-width: 0.8"/>
      </g>
     </g>
     <g id="text_12">
      <text style="font: 10px 'sans-serif'; text-anchor: middle" x="357.773566" y="270.493438" transform="rotate(-0, 357.773566, 270.493438)">10</text>
     </g>
    </g>
    <g id="xtick_13">
     <g id="line2d_15">
      <g>
       <use xlink:href="#m4c99cd72f3" x="382.820948" y="256.32" style="stroke: #000000; stroke-width: 0.8"/>
      </g>
     </g>
     <g id="text_13">
      <text style="font: 10px 'sans-serif'; text-anchor: middle" x="382.820948" y="270.493438" transform="rotate(-0, 382.820948, 270.493438)">20</text>
     </g>
    </g>
    <g id="xtick_14">
     <g id="line2d_16">
      <g>
       <use xlink:href="#m4c99cd72f3" x="407.868329" y="256.32" style="stroke: #000000; stroke-width: 0.8"/>
      </g>
     </g>
     <g id="text_14">
      <text style="font: 10px 'sans-serif'; text-anchor: middle" x="407.868329" y="270.493438" transform="rotate(-0, 407.868329, 270.493438)">30</text>
     </g>
    </g>
    <g id="xtick_15">
     <g id="line2d_17">
      <g>
       <use xlink:href="#m4c99cd72f3" x="432.915711" y="256.32" style="stroke: #000000; stroke-width: 0.8"/>
      </g>
     </g>
     <g id="text_15">
      <text style="font: 10px 'sans-serif'; text-anchor: middle" x="432.915711" y="270.493438" transform="rotate(-0, 432.915711, 270.493438)">40</text>
     </g>
    </g>
    <g id="xtick_16">
     <g id="line2d_18">
      <g>
       <use xlink:href="#m4c99cd72f3" x="457.963092" y="256.32" style="stroke: #000000; stroke-width: 0.8"/>
      </g>
     </g>
     <g id="text_16">
      <text style="font: 10px 'sans-serif'; text-anchor: middle" x="457.963092" y="270.493438" transform="rotate(-0, 457.963092, 270.493438)">50</text>
     </g>
    </g>
    <g id="xtick_17">
     <g id="line2d_19">
      <g>
       <use xlink:href="#m4c99cd72f3" x="483.010474" y="256.32" style="stroke: #000000; stroke-width: 0.8"/>
      </g>
     </g>
     <g id="text_17">
      <text style="font: 10px 'sans-serif'; text-anchor: middle" x="483.010474" y="270.493438" transform="rotate(-0, 483.010474, 270.493438)">60</text>
     </g>
    </g>
    <g id="xtick_18">
     <g id="line2d_20">
      <g>
       <use xlink:href="#m4c99cd72f3" x="508.057855" y="256.32" style="stroke: #000000; stroke-width: 0.8"/>
      </g>
     </g>
     <g id="text_18">
      <text style="font: 10px 'sans-serif'; text-anchor: middle" x="508.057855" y="270.493438" transform="rotate(-0, 508.057855, 270.493438)">70</text>
     </g>
    </g>
    <g id="xtick_19">
     <g id="line2d_21">
      <g>
       <use xlink:href="#m4c99cd72f3" x="533.105237" y="256.32" style="stroke: #000000; stroke-width: 0.8"/>
      </g>
     </g>
     <g id="text_19">
      <text style="font: 10px 'sans-serif'; text-anchor: middle" x="533.105237" y="270.493438" transform="rotate(-0, 533.105237, 270.493438)">80</text>
     </g>
    </g>
    <g id="xtick_20">
     <g id="line2d_22">
      <g>
       <use xlink:href="#m4c99cd72f3" x="558.152618" y="256.32" style="stroke: #000000; stroke-width: 0.8"/>
      </g>
     </g>
     <g id="text_20">
      <text style="font: 10px 'sans-serif'; text-anchor: middle" x="558.152618" y="270.493438" transform="rotate(-0, 558.152618, 270.493438)">90</text>
     </g>
    </g>
    <g id="xtick_21">
     <g id="line2d_23">
      <g>
       <use xlink:href="#m4c99cd72f3" x="583.2" y="256.32" style="stroke: #000000; stroke-width: 0.8"/>
      </g>
     </g>
     <g id="text_21">
      <text style="font: 10px 'sans-serif'; text-anchor: middle" x="583.2" y="270.493438" transform="rotate(-0, 583.2, 270.493438)">100</text>
     </g>
    </g>
    <g id="text_22">
     <text style="font: 10px 'sans-serif'; text-anchor: middle" x="332.1" y="283.75125" transform="rotate(-0, 332.1, 283.75125)">Percentage</text>
    </g>
   </g>
   <g id="matplotlib.axis_2">
    <g id="ytick_1">
     <g id="line2d_24">
      <defs>
       <path id="m8e343aef83" d="M 0 0 
L -3.5 0 
" style="stroke: #000000; stroke-width: 0.8"/>
      </defs>
      <g>
       <use xlink:href="#m8e343aef83" x="81" y="201.44" style="stroke: #000000; stroke-width: 0.8"/>
      </g>
     </g>
     <g id="text_23">
      <text style="font: 11px 'sans-serif'" transform="translate(-33.612656 194.337094)">satisGen1. In general,</text>
      <text style="font: 11px 'sans-serif'" transform="translate(-29.327813 206.373844)">how satisfied are you</text>
      <text style="font: 11px 'sans-serif'" transform="translate(-48.270156 218.231844)">with your current position</text>
     </g>
    </g>
    <g id="ytick_2">
     <g id="line2d_25">
      <g>
       <use xlink:href="#m8e343aef83" x="81" y="89.44" style="stroke: #000000; stroke-width: 0.8"/>
      </g>
     </g>
     <g id="text_24">
      <text style="font: 11px 'sans-serif'" transform="translate(-33.612656 82.337094)">satisGen2. In general,</text>
      <text style="font: 11px 'sans-serif'" transform="translate(-29.327813 94.373844)">how satisfied are you</text>
      <text style="font: 11px 'sans-serif'" transform="translate(-4.246094 106.231844)">with your career</text>
     </g>
    </g>
   </g>
   <g id="patch_43">
    <path d="M 81 256.32 
L 583.2 256.32 
" style="fill: none; stroke: #000000; stroke-width: 0.8; stroke-linejoin: miter; stroke-linecap: square"/>
   </g>
   <g id="text_25">
    <text style="font: 10px 'sans-serif'; text-anchor: middle" x="274.282294" y="201.44" transform="rotate(-0, 274.282294, 201.44)">7</text>
   </g>
   <g id="text_26">
    <text style="font: 10px 'sans-serif'; text-anchor: middle" x="311.853367" y="201.44" transform="rotate(-0, 311.853367, 201.44)">17</text>
   </g>
   <g id="text_27">
    <text style="font: 10px 'sans-serif'; text-anchor: middle" x="299.329676" y="89.44" transform="rotate(-0, 299.329676, 89.44)">27</text>
   </g>
   <g id="text_28">
    <text style="font: 10px 'sans-serif'; text-anchor: middle" x="341.075312" y="201.44" transform="rotate(-0, 341.075312, 201.44)">7</text>
   </g>
   <g id="text_29">
    <text style="font: 10px 'sans-serif'; text-anchor: middle" x="361.94813" y="89.44" transform="rotate(-0, 361.94813, 89.44)">23</text>
   </g>
   <g id="text_30">
    <text style="font: 10px 'sans-serif'; text-anchor: middle" x="378.646384" y="201.44" transform="rotate(-0, 378.646384, 201.44)">23</text>
   </g>
   <g id="text_31">
    <text style="font: 10px 'sans-serif'; text-anchor: middle" x="412.042893" y="89.44" transform="rotate(-0, 412.042893, 89.44)">17</text>
   </g>
   <g id="text_32">
    <text style="font: 10px 'sans-serif'; text-anchor: middle" x="432.915711" y="201.44" transform="rotate(-0, 432.915711, 201.44)">20</text>
   </g>
   <g id="text_33">
    <text style="font: 10px 'sans-serif'; text-anchor: middle" x="441.264838" y="89.44" transform="rotate(-0, 441.264838, 89.44)">7</text>
   </g>
   <g id="text_34">
    <text style="font: 10px 'sans-serif'; text-anchor: middle" x="487.185037" y="201.44" transform="rotate(-0, 487.185037, 201.44)">23</text>
   </g>
   <g id="text_35">
    <text style="font: 10px 'sans-serif'; text-anchor: middle" x="466.312219" y="89.44" transform="rotate(-0, 466.312219, 89.44)">13</text>
   </g>
   <g id="text_36">
    <text style="font: 10px 'sans-serif'; text-anchor: middle" x="274.282294" y="201.44" transform="rotate(-0, 274.282294, 201.44)">7</text>
   </g>
   <g id="text_37">
    <text style="font: 10px 'sans-serif'; text-anchor: middle" x="311.853367" y="201.44" transform="rotate(-0, 311.853367, 201.44)">17</text>
   </g>
   <g id="text_38">
    <text style="font: 10px 'sans-serif'; text-anchor: middle" x="299.329676" y="89.44" transform="rotate(-0, 299.329676, 89.44)">27</text>
   </g>
   <g id="text_39">
    <text style="font: 10px 'sans-serif'; text-anchor: middle" x="341.075312" y="201.44" transform="rotate(-0, 341.075312, 201.44)">7</text>
   </g>
   <g id="text_40">
    <text style="font: 10px 'sans-serif'; text-anchor: middle" x="361.94813" y="89.44" transform="rotate(-0, 361.94813, 89.44)">23</text>
   </g>
   <g id="text_41">
    <text style="font: 10px 'sans-serif'; text-anchor: middle" x="378.646384" y="201.44" transform="rotate(-0, 378.646384, 201.44)">23</text>
   </g>
   <g id="text_42">
    <text style="font: 10px 'sans-serif'; text-anchor: middle" x="412.042893" y="89.44" transform="rotate(-0, 412.042893, 89.44)">17</text>
   </g>
   <g id="text_43">
    <text style="font: 10px 'sans-serif'; text-anchor: middle" x="432.915711" y="201.44" transform="rotate(-0, 432.915711, 201.44)">20</text>
   </g>
   <g id="text_44">
    <text style="font: 10px 'sans-serif'; text-anchor: middle" x="441.264838" y="89.44" transform="rotate(-0, 441.264838, 89.44)">7</text>
   </g>
   <g id="text_45">
    <text style="font: 10px 'sans-serif'; text-anchor: middle" x="487.185037" y="201.44" transform="rotate(-0, 487.185037, 201.44)">23</text>
   </g>
   <g id="text_46">
    <text style="font: 10px 'sans-serif'; text-anchor: middle" x="466.312219" y="89.44" transform="rotate(-0, 466.312219, 89.44)">13</text>
   </g>
   <g id="text_47">
    <text style="font: 12px 'sans-serif'; text-anchor: middle" x="332.1" y="28.56" transform="rotate(-0, 332.1, 28.56)">Australia: General satisfaction</text>
   </g>
   <g id="legend_1">
    <g id="patch_44">
     <path d="M 88 251.32 
L 576.2 251.32 
Q 578.2 251.32 578.2 249.32 
L 578.2 236.062187 
Q 578.2 234.062187 576.2 234.062187 
L 88 234.062187 
Q 86 234.062187 86 236.062187 
L 86 249.32 
Q 86 251.32 88 251.32 
z
" style="fill: #ffffff; opacity: 0.8; stroke: #cccccc; stroke-linejoin: miter"/>
    </g>
    <g id="patch_45">
     <path d="M 90 245.235625 
L 110 245.235625 
L 110 238.235625 
L 90 238.235625 
z
" style="fill: #67001f"/>
    </g>
    <g id="text_48">
     <text style="font: 10px 'sans-serif'; text-anchor: start" x="118" y="245.235625" transform="rotate(-0, 118, 245.235625)">1</text>
    </g>
    <g id="patch_46">
     <path d="M 139.453125 245.235625 
L 159.453125 245.235625 
L 159.453125 238.235625 
L 139.453125 238.235625 
z
" style="fill: #b61f2e"/>
    </g>
    <g id="text_49">
     <text style="font: 10px 'sans-serif'; text-anchor: start" x="167.453125" y="245.235625" transform="rotate(-0, 167.453125, 245.235625)">2</text>
    </g>
    <g id="patch_47">
     <path d="M 188.90625 245.235625 
L 208.90625 245.235625 
L 208.90625 238.235625 
L 188.90625 238.235625 
z
" style="fill: #dc6e57"/>
    </g>
    <g id="text_50">
     <text style="font: 10px 'sans-serif'; text-anchor: start" x="216.90625" y="245.235625" transform="rotate(-0, 216.90625, 245.235625)">3</text>
    </g>
    <g id="patch_48">
     <path d="M 238.359375 245.235625 
L 258.359375 245.235625 
L 258.359375 238.235625 
L 238.359375 238.235625 
z
" style="fill: #f7b799"/>
    </g>
    <g id="text_51">
     <text style="font: 10px 'sans-serif'; text-anchor: start" x="266.359375" y="245.235625" transform="rotate(-0, 266.359375, 245.235625)">4</text>
    </g>
    <g id="patch_49">
     <path d="M 287.8125 245.235625 
L 307.8125 245.235625 
L 307.8125 238.235625 
L 287.8125 238.235625 
z
" style="fill: #fae7dc"/>
    </g>
    <g id="text_52">
     <text style="font: 10px 'sans-serif'; text-anchor: start" x="315.8125" y="245.235625" transform="rotate(-0, 315.8125, 245.235625)">5</text>
    </g>
    <g id="patch_50">
     <path d="M 337.265625 245.235625 
L 357.265625 245.235625 
L 357.265625 238.235625 
L 337.265625 238.235625 
z
" style="fill: #e1edf3"/>
    </g>
    <g id="text_53">
     <text style="font: 10px 'sans-serif'; text-anchor: start" x="365.265625" y="245.235625" transform="rotate(-0, 365.265625, 245.235625)">6</text>
    </g>
    <g id="patch_51">
     <path d="M 386.71875 245.235625 
L 406.71875 245.235625 
L 406.71875 238.235625 
L 386.71875 238.235625 
z
" style="fill: #a7d0e4"/>
    </g>
    <g id="text_54">
     <text style="font: 10px 'sans-serif'; text-anchor: start" x="414.71875" y="245.235625" transform="rotate(-0, 414.71875, 245.235625)">7</text>
    </g>
    <g id="patch_52">
     <path d="M 436.171875 245.235625 
L 456.171875 245.235625 
L 456.171875 238.235625 
L 436.171875 238.235625 
z
" style="fill: #529dc8"/>
    </g>
    <g id="text_55">
     <text style="font: 10px 'sans-serif'; text-anchor: start" x="464.171875" y="245.235625" transform="rotate(-0, 464.171875, 245.235625)">8</text>
    </g>
    <g id="patch_53">
     <path d="M 485.625 245.235625 
L 505.625 245.235625 
L 505.625 238.235625 
L 485.625 238.235625 
z
" style="fill: #246aae"/>
    </g>
    <g id="text_56">
     <text style="font: 10px 'sans-serif'; text-anchor: start" x="513.625" y="245.235625" transform="rotate(-0, 513.625, 245.235625)">9</text>
    </g>
    <g id="patch_54">
     <path d="M 535.078125 245.235625 
L 555.078125 245.235625 
L 555.078125 238.235625 
L 535.078125 238.235625 
z
" style="fill: #053061"/>
    </g>
    <g id="text_57">
     <text style="font: 10px 'sans-serif'; text-anchor: start" x="563.078125" y="245.235625" transform="rotate(-0, 563.078125, 245.235625)">10</text>
    </g>
   </g>
  </g>
 </g>
 <defs>
  <clipPath id="p759a6061cf">
   <rect x="81" y="34.56" width="502.2" height="221.76"/>
  </clipPath>
 </defs>
</svg>
