<?xml version="1.0" encoding="utf-8" standalone="no"?>
<!DOCTYPE svg PUBLIC "-//W3C//DTD SVG 1.1//EN"
  "http://www.w3.org/Graphics/SVG/1.1/DTD/svg11.dtd">
<svg xmlns:xlink="http://www.w3.org/1999/xlink" width="648pt" height="324pt" viewBox="0 0 648 324" xmlns="http://www.w3.org/2000/svg" version="1.1">
 <metadata>
  <rdf:RDF xmlns:dc="http://purl.org/dc/elements/1.1/" xmlns:cc="http://creativecommons.org/ns#" xmlns:rdf="http://www.w3.org/1999/02/22-rdf-syntax-ns#">
   <cc:Work>
    <dc:type rdf:resource="http://purl.org/dc/dcmitype/StillImage"/>
    <dc:date>2022-03-21T16:08:43.424343</dc:date>
    <dc:format>image/svg+xml</dc:format>
    <dc:creator>
     <cc:Agent>
      <dc:title>Matplotlib v3.5.1, https://matplotlib.org/</dc:title>
     </cc:Agent>
    </dc:creator>
   </cc:Work>
  </rdf:RDF>
 </metadata>
 <defs>
  <style type="text/css">*{stroke-linejoin: round; stroke-linecap: butt}</style>
 </defs>
 <g id="figure_1">
  <g id="patch_1">
   <path d="M 0 324 
L 648 324 
L 648 0 
L 0 0 
z
" style="fill: #ffffff"/>
  </g>
  <g id="axes_1">
   <g id="patch_2">
    <path d="M 211.006406 283.55625 
L 564.693194 283.55625 
L 564.693194 47.623125 
L 211.006406 47.623125 
z
" style="fill: #ffffff"/>
   </g>
   <g id="line2d_1">
    <path d="M 388.290806 283.55625 
L 388.290806 47.623125 
" clip-path="url(#p26410fd1a3)" style="fill: none; stroke-dasharray: 5.55,2.4; stroke-dashoffset: 0; stroke: #000000; stroke-opacity: 0.5; stroke-width: 1.5"/>
   </g>
   <g id="line2d_2">
    <path d="M 388.290806 283.55625 
L 388.290806 47.623125 
" clip-path="url(#p26410fd1a3)" style="fill: none; stroke-dasharray: 5.55,2.4; stroke-dashoffset: 0; stroke: #000000; stroke-opacity: 0.5; stroke-width: 1.5"/>
   </g>
   <g id="patch_3">
    <path d="M 360.24735 232.999152 
L 362.056605 232.999152 
L 362.056605 165.589688 
L 360.24735 165.589688 
z
" clip-path="url(#p26410fd1a3)" style="fill: #67001f"/>
   </g>
   <g id="patch_4">
    <path d="M 348.69027 148.737321 
L 349.590282 148.737321 
L 349.590282 81.327857 
L 348.69027 81.327857 
z
" clip-path="url(#p26410fd1a3)" style="fill: #67001f"/>
   </g>
   <g id="patch_5">
    <path d="M 362.056605 232.999152 
L 364.770488 232.999152 
L 364.770488 165.589688 
L 362.056605 165.589688 
z
" clip-path="url(#p26410fd1a3)" style="fill: #b61f2e"/>
   </g>
   <g id="patch_6">
    <path d="M 349.590282 148.737321 
L 354.090343 148.737321 
L 354.090343 81.327857 
L 349.590282 81.327857 
z
" clip-path="url(#p26410fd1a3)" style="fill: #b61f2e"/>
   </g>
   <g id="patch_7">
    <path d="M 364.770488 232.999152 
L 372.007509 232.999152 
L 372.007509 165.589688 
L 364.770488 165.589688 
z
" clip-path="url(#p26410fd1a3)" style="fill: #dc6e57"/>
   </g>
   <g id="patch_8">
    <path d="M 354.090343 148.737321 
L 363.990477 148.737321 
L 363.990477 81.327857 
L 354.090343 81.327857 
z
" clip-path="url(#p26410fd1a3)" style="fill: #dc6e57"/>
   </g>
   <g id="patch_9">
    <path d="M 372.007509 232.999152 
L 380.149158 232.999152 
L 380.149158 165.589688 
L 372.007509 165.589688 
z
" clip-path="url(#p26410fd1a3)" style="fill: #f7b799"/>
   </g>
   <g id="patch_10">
    <path d="M 363.990477 148.737321 
L 373.890611 148.737321 
L 373.890611 81.327857 
L 363.990477 81.327857 
z
" clip-path="url(#p26410fd1a3)" style="fill: #f7b799"/>
   </g>
   <g id="patch_11">
    <path d="M 380.149158 232.999152 
L 388.290806 232.999152 
L 388.290806 165.589688 
L 380.149158 165.589688 
z
" clip-path="url(#p26410fd1a3)" style="fill: #fae7dc"/>
   </g>
   <g id="patch_12">
    <path d="M 373.890611 148.737321 
L 388.290806 148.737321 
L 388.290806 81.327857 
L 373.890611 81.327857 
z
" clip-path="url(#p26410fd1a3)" style="fill: #fae7dc"/>
   </g>
   <g id="patch_13">
    <path d="M 388.290806 232.999152 
L 406.383359 232.999152 
L 406.383359 165.589688 
L 388.290806 165.589688 
z
" clip-path="url(#p26410fd1a3)" style="fill: #e1edf3"/>
   </g>
   <g id="patch_14">
    <path d="M 388.290806 148.737321 
L 423.391282 148.737321 
L 423.391282 81.327857 
L 388.290806 81.327857 
z
" clip-path="url(#p26410fd1a3)" style="fill: #e1edf3"/>
   </g>
   <g id="patch_15">
    <path d="M 406.383359 232.999152 
L 465.184155 232.999152 
L 465.184155 165.589688 
L 406.383359 165.589688 
z
" clip-path="url(#p26410fd1a3)" style="fill: #a7d0e4"/>
   </g>
   <g id="patch_16">
    <path d="M 423.391282 148.737321 
L 468.391891 148.737321 
L 468.391891 81.327857 
L 423.391282 81.327857 
z
" clip-path="url(#p26410fd1a3)" style="fill: #a7d0e4"/>
   </g>
   <g id="patch_17">
    <path d="M 465.184155 232.999152 
L 521.271068 232.999152 
L 521.271068 165.589688 
L 465.184155 165.589688 
z
" clip-path="url(#p26410fd1a3)" style="fill: #529dc8"/>
   </g>
   <g id="patch_18">
    <path d="M 468.391891 148.737321 
L 505.29239 148.737321 
L 505.29239 81.327857 
L 468.391891 81.327857 
z
" clip-path="url(#p26410fd1a3)" style="fill: #529dc8"/>
   </g>
   <g id="patch_19">
    <path d="M 521.271068 232.999152 
L 536.649738 232.999152 
L 536.649738 165.589688 
L 521.271068 165.589688 
z
" clip-path="url(#p26410fd1a3)" style="fill: #246aae"/>
   </g>
   <g id="patch_20">
    <path d="M 505.29239 148.737321 
L 525.092658 148.737321 
L 525.092658 81.327857 
L 505.29239 81.327857 
z
" clip-path="url(#p26410fd1a3)" style="fill: #246aae"/>
   </g>
   <g id="patch_21">
    <path d="M 536.649738 232.999152 
L 536.649738 232.999152 
L 536.649738 165.589688 
L 536.649738 165.589688 
z
" clip-path="url(#p26410fd1a3)" style="fill: #053061"/>
   </g>
   <g id="patch_22">
    <path d="M 525.092658 148.737321 
L 525.092658 148.737321 
L 525.092658 81.327857 
L 525.092658 81.327857 
z
" clip-path="url(#p26410fd1a3)" style="fill: #053061"/>
   </g>
   <g id="patch_23">
    <path d="M 360.24735 232.999152 
L 362.056605 232.999152 
L 362.056605 165.589688 
L 360.24735 165.589688 
z
" clip-path="url(#p26410fd1a3)" style="fill: #67001f"/>
   </g>
   <g id="patch_24">
    <path d="M 348.69027 148.737321 
L 349.590282 148.737321 
L 349.590282 81.327857 
L 348.69027 81.327857 
z
" clip-path="url(#p26410fd1a3)" style="fill: #67001f"/>
   </g>
   <g id="patch_25">
    <path d="M 362.056605 232.999152 
L 364.770488 232.999152 
L 364.770488 165.589688 
L 362.056605 165.589688 
z
" clip-path="url(#p26410fd1a3)" style="fill: #b61f2e"/>
   </g>
   <g id="patch_26">
    <path d="M 349.590282 148.737321 
L 354.090343 148.737321 
L 354.090343 81.327857 
L 349.590282 81.327857 
z
" clip-path="url(#p26410fd1a3)" style="fill: #b61f2e"/>
   </g>
   <g id="patch_27">
    <path d="M 364.770488 232.999152 
L 372.007509 232.999152 
L 372.007509 165.589688 
L 364.770488 165.589688 
z
" clip-path="url(#p26410fd1a3)" style="fill: #dc6e57"/>
   </g>
   <g id="patch_28">
    <path d="M 354.090343 148.737321 
L 363.990477 148.737321 
L 363.990477 81.327857 
L 354.090343 81.327857 
z
" clip-path="url(#p26410fd1a3)" style="fill: #dc6e57"/>
   </g>
   <g id="patch_29">
    <path d="M 372.007509 232.999152 
L 380.149158 232.999152 
L 380.149158 165.589688 
L 372.007509 165.589688 
z
" clip-path="url(#p26410fd1a3)" style="fill: #f7b799"/>
   </g>
   <g id="patch_30">
    <path d="M 363.990477 148.737321 
L 373.890611 148.737321 
L 373.890611 81.327857 
L 363.990477 81.327857 
z
" clip-path="url(#p26410fd1a3)" style="fill: #f7b799"/>
   </g>
   <g id="patch_31">
    <path d="M 380.149158 232.999152 
L 388.290806 232.999152 
L 388.290806 165.589688 
L 380.149158 165.589688 
z
" clip-path="url(#p26410fd1a3)" style="fill: #fae7dc"/>
   </g>
   <g id="patch_32">
    <path d="M 373.890611 148.737321 
L 388.290806 148.737321 
L 388.290806 81.327857 
L 373.890611 81.327857 
z
" clip-path="url(#p26410fd1a3)" style="fill: #fae7dc"/>
   </g>
   <g id="patch_33">
    <path d="M 388.290806 232.999152 
L 406.383359 232.999152 
L 406.383359 165.589688 
L 388.290806 165.589688 
z
" clip-path="url(#p26410fd1a3)" style="fill: #e1edf3"/>
   </g>
   <g id="patch_34">
    <path d="M 388.290806 148.737321 
L 423.391282 148.737321 
L 423.391282 81.327857 
L 388.290806 81.327857 
z
" clip-path="url(#p26410fd1a3)" style="fill: #e1edf3"/>
   </g>
   <g id="patch_35">
    <path d="M 406.383359 232.999152 
L 465.184155 232.999152 
L 465.184155 165.589688 
L 406.383359 165.589688 
z
" clip-path="url(#p26410fd1a3)" style="fill: #a7d0e4"/>
   </g>
   <g id="patch_36">
    <path d="M 423.391282 148.737321 
L 468.391891 148.737321 
L 468.391891 81.327857 
L 423.391282 81.327857 
z
" clip-path="url(#p26410fd1a3)" style="fill: #a7d0e4"/>
   </g>
   <g id="patch_37">
    <path d="M 465.184155 232.999152 
L 521.271068 232.999152 
L 521.271068 165.589688 
L 465.184155 165.589688 
z
" clip-path="url(#p26410fd1a3)" style="fill: #529dc8"/>
   </g>
   <g id="patch_38">
    <path d="M 468.391891 148.737321 
L 505.29239 148.737321 
L 505.29239 81.327857 
L 468.391891 81.327857 
z
" clip-path="url(#p26410fd1a3)" style="fill: #529dc8"/>
   </g>
   <g id="patch_39">
    <path d="M 521.271068 232.999152 
L 536.649738 232.999152 
L 536.649738 165.589688 
L 521.271068 165.589688 
z
" clip-path="url(#p26410fd1a3)" style="fill: #246aae"/>
   </g>
   <g id="patch_40">
    <path d="M 505.29239 148.737321 
L 525.092658 148.737321 
L 525.092658 81.327857 
L 505.29239 81.327857 
z
" clip-path="url(#p26410fd1a3)" style="fill: #246aae"/>
   </g>
   <g id="patch_41">
    <path d="M 536.649738 232.999152 
L 536.649738 232.999152 
L 536.649738 165.589688 
L 536.649738 165.589688 
z
" clip-path="url(#p26410fd1a3)" style="fill: #053061"/>
   </g>
   <g id="patch_42">
    <path d="M 525.092658 148.737321 
L 525.092658 148.737321 
L 525.092658 81.327857 
L 525.092658 81.327857 
z
" clip-path="url(#p26410fd1a3)" style="fill: #053061"/>
   </g>
   <g id="matplotlib.axis_1">
    <g id="xtick_1">
     <g id="line2d_3">
      <defs>
       <path id="m4c99cd72f3" d="M 0 0 
L 0 3.5 
" style="stroke: #000000; stroke-width: 0.8"/>
      </defs>
      <g>
       <use xlink:href="#m4c99cd72f3" x="211.888418" y="283.55625" style="stroke: #000000; stroke-width: 0.8"/>
      </g>
     </g>
     <g id="text_1">
      <text style="font: 10px 'sans-serif'; text-anchor: middle" x="211.888418" y="297.729688" transform="rotate(-0, 211.888418, 297.729688)">100</text>
     </g>
    </g>
    <g id="xtick_2">
     <g id="line2d_4">
      <g>
       <use xlink:href="#m4c99cd72f3" x="229.528657" y="283.55625" style="stroke: #000000; stroke-width: 0.8"/>
      </g>
     </g>
     <g id="text_2">
      <text style="font: 10px 'sans-serif'; text-anchor: middle" x="229.528657" y="297.729688" transform="rotate(-0, 229.528657, 297.729688)">90</text>
     </g>
    </g>
    <g id="xtick_3">
     <g id="line2d_5">
      <g>
       <use xlink:href="#m4c99cd72f3" x="247.168896" y="283.55625" style="stroke: #000000; stroke-width: 0.8"/>
      </g>
     </g>
     <g id="text_3">
      <text style="font: 10px 'sans-serif'; text-anchor: middle" x="247.168896" y="297.729688" transform="rotate(-0, 247.168896, 297.729688)">80</text>
     </g>
    </g>
    <g id="xtick_4">
     <g id="line2d_6">
      <g>
       <use xlink:href="#m4c99cd72f3" x="264.809135" y="283.55625" style="stroke: #000000; stroke-width: 0.8"/>
      </g>
     </g>
     <g id="text_4">
      <text style="font: 10px 'sans-serif'; text-anchor: middle" x="264.809135" y="297.729688" transform="rotate(-0, 264.809135, 297.729688)">70</text>
     </g>
    </g>
    <g id="xtick_5">
     <g id="line2d_7">
      <g>
       <use xlink:href="#m4c99cd72f3" x="282.449373" y="283.55625" style="stroke: #000000; stroke-width: 0.8"/>
      </g>
     </g>
     <g id="text_5">
      <text style="font: 10px 'sans-serif'; text-anchor: middle" x="282.449373" y="297.729688" transform="rotate(-0, 282.449373, 297.729688)">60</text>
     </g>
    </g>
    <g id="xtick_6">
     <g id="line2d_8">
      <g>
       <use xlink:href="#m4c99cd72f3" x="300.089612" y="283.55625" style="stroke: #000000; stroke-width: 0.8"/>
      </g>
     </g>
     <g id="text_6">
      <text style="font: 10px 'sans-serif'; text-anchor: middle" x="300.089612" y="297.729688" transform="rotate(-0, 300.089612, 297.729688)">50</text>
     </g>
    </g>
    <g id="xtick_7">
     <g id="line2d_9">
      <g>
       <use xlink:href="#m4c99cd72f3" x="317.729851" y="283.55625" style="stroke: #000000; stroke-width: 0.8"/>
      </g>
     </g>
     <g id="text_7">
      <text style="font: 10px 'sans-serif'; text-anchor: middle" x="317.729851" y="297.729688" transform="rotate(-0, 317.729851, 297.729688)">40</text>
     </g>
    </g>
    <g id="xtick_8">
     <g id="line2d_10">
      <g>
       <use xlink:href="#m4c99cd72f3" x="335.37009" y="283.55625" style="stroke: #000000; stroke-width: 0.8"/>
      </g>
     </g>
     <g id="text_8">
      <text style="font: 10px 'sans-serif'; text-anchor: middle" x="335.37009" y="297.729688" transform="rotate(-0, 335.37009, 297.729688)">30</text>
     </g>
    </g>
    <g id="xtick_9">
     <g id="line2d_11">
      <g>
       <use xlink:href="#m4c99cd72f3" x="353.010329" y="283.55625" style="stroke: #000000; stroke-width: 0.8"/>
      </g>
     </g>
     <g id="text_9">
      <text style="font: 10px 'sans-serif'; text-anchor: middle" x="353.010329" y="297.729688" transform="rotate(-0, 353.010329, 297.729688)">20</text>
     </g>
    </g>
    <g id="xtick_10">
     <g id="line2d_12">
      <g>
       <use xlink:href="#m4c99cd72f3" x="370.650568" y="283.55625" style="stroke: #000000; stroke-width: 0.8"/>
      </g>
     </g>
     <g id="text_10">
      <text style="font: 10px 'sans-serif'; text-anchor: middle" x="370.650568" y="297.729688" transform="rotate(-0, 370.650568, 297.729688)">10</text>
     </g>
    </g>
    <g id="xtick_11">
     <g id="line2d_13">
      <g>
       <use xlink:href="#m4c99cd72f3" x="388.290806" y="283.55625" style="stroke: #000000; stroke-width: 0.8"/>
      </g>
     </g>
     <g id="text_11">
      <text style="font: 10px 'sans-serif'; text-anchor: middle" x="388.290806" y="297.729688" transform="rotate(-0, 388.290806, 297.729688)">0</text>
     </g>
    </g>
    <g id="xtick_12">
     <g id="line2d_14">
      <g>
       <use xlink:href="#m4c99cd72f3" x="405.931045" y="283.55625" style="stroke: #000000; stroke-width: 0.8"/>
      </g>
     </g>
     <g id="text_12">
      <text style="font: 10px 'sans-serif'; text-anchor: middle" x="405.931045" y="297.729688" transform="rotate(-0, 405.931045, 297.729688)">10</text>
     </g>
    </g>
    <g id="xtick_13">
     <g id="line2d_15">
      <g>
       <use xlink:href="#m4c99cd72f3" x="423.571284" y="283.55625" style="stroke: #000000; stroke-width: 0.8"/>
      </g>
     </g>
     <g id="text_13">
      <text style="font: 10px 'sans-serif'; text-anchor: middle" x="423.571284" y="297.729688" transform="rotate(-0, 423.571284, 297.729688)">20</text>
     </g>
    </g>
    <g id="xtick_14">
     <g id="line2d_16">
      <g>
       <use xlink:href="#m4c99cd72f3" x="441.211523" y="283.55625" style="stroke: #000000; stroke-width: 0.8"/>
      </g>
     </g>
     <g id="text_14">
      <text style="font: 10px 'sans-serif'; text-anchor: middle" x="441.211523" y="297.729688" transform="rotate(-0, 441.211523, 297.729688)">30</text>
     </g>
    </g>
    <g id="xtick_15">
     <g id="line2d_17">
      <g>
       <use xlink:href="#m4c99cd72f3" x="458.851762" y="283.55625" style="stroke: #000000; stroke-width: 0.8"/>
      </g>
     </g>
     <g id="text_15">
      <text style="font: 10px 'sans-serif'; text-anchor: middle" x="458.851762" y="297.729688" transform="rotate(-0, 458.851762, 297.729688)">40</text>
     </g>
    </g>
    <g id="xtick_16">
     <g id="line2d_18">
      <g>
       <use xlink:href="#m4c99cd72f3" x="476.492" y="283.55625" style="stroke: #000000; stroke-width: 0.8"/>
      </g>
     </g>
     <g id="text_16">
      <text style="font: 10px 'sans-serif'; text-anchor: middle" x="476.492" y="297.729688" transform="rotate(-0, 476.492, 297.729688)">50</text>
     </g>
    </g>
    <g id="xtick_17">
     <g id="line2d_19">
      <g>
       <use xlink:href="#m4c99cd72f3" x="494.132239" y="283.55625" style="stroke: #000000; stroke-width: 0.8"/>
      </g>
     </g>
     <g id="text_17">
      <text style="font: 10px 'sans-serif'; text-anchor: middle" x="494.132239" y="297.729688" transform="rotate(-0, 494.132239, 297.729688)">60</text>
     </g>
    </g>
    <g id="xtick_18">
     <g id="line2d_20">
      <g>
       <use xlink:href="#m4c99cd72f3" x="511.772478" y="283.55625" style="stroke: #000000; stroke-width: 0.8"/>
      </g>
     </g>
     <g id="text_18">
      <text style="font: 10px 'sans-serif'; text-anchor: middle" x="511.772478" y="297.729688" transform="rotate(-0, 511.772478, 297.729688)">70</text>
     </g>
    </g>
    <g id="xtick_19">
     <g id="line2d_21">
      <g>
       <use xlink:href="#m4c99cd72f3" x="529.412717" y="283.55625" style="stroke: #000000; stroke-width: 0.8"/>
      </g>
     </g>
     <g id="text_19">
      <text style="font: 10px 'sans-serif'; text-anchor: middle" x="529.412717" y="297.729688" transform="rotate(-0, 529.412717, 297.729688)">80</text>
     </g>
    </g>
    <g id="xtick_20">
     <g id="line2d_22">
      <g>
       <use xlink:href="#m4c99cd72f3" x="547.052956" y="283.55625" style="stroke: #000000; stroke-width: 0.8"/>
      </g>
     </g>
     <g id="text_20">
      <text style="font: 10px 'sans-serif'; text-anchor: middle" x="547.052956" y="297.729688" transform="rotate(-0, 547.052956, 297.729688)">90</text>
     </g>
    </g>
    <g id="xtick_21">
     <g id="line2d_23">
      <g>
       <use xlink:href="#m4c99cd72f3" x="564.693194" y="283.55625" style="stroke: #000000; stroke-width: 0.8"/>
      </g>
     </g>
     <g id="text_21">
      <text style="font: 10px 'sans-serif'; text-anchor: middle" x="564.693194" y="297.729688" transform="rotate(-0, 564.693194, 297.729688)">100</text>
     </g>
    </g>
    <g id="text_22">
     <text style="font: 10px 'sans-serif'; text-anchor: middle" x="387.8498" y="310.9875" transform="rotate(-0, 387.8498, 310.9875)">Percentage</text>
    </g>
   </g>
   <g id="matplotlib.axis_2">
    <g id="ytick_1">
     <g id="line2d_24">
      <defs>
       <path id="m8e343aef83" d="M 0 0 
L -3.5 0 
" style="stroke: #000000; stroke-width: 0.8"/>
      </defs>
      <g>
       <use xlink:href="#m8e343aef83" x="211.006406" y="199.29442" style="stroke: #000000; stroke-width: 0.8"/>
      </g>
     </g>
     <g id="text_23">
      <text style="font: 11px 'sans-serif'" transform="translate(10.8 198.172076)">satisGen1. In general, how satisfied are</text>
      <text style="font: 11px 'sans-serif'" transform="translate(60.94625 210.105701)">you with your current position</text>
     </g>
    </g>
    <g id="ytick_2">
     <g id="line2d_25">
      <g>
       <use xlink:href="#m8e343aef83" x="211.006406" y="115.032589" style="stroke: #000000; stroke-width: 0.8"/>
      </g>
     </g>
     <g id="text_24">
      <text style="font: 11px 'sans-serif'" transform="translate(10.8 113.910246)">satisGen2. In general, how satisfied are</text>
      <text style="font: 11px 'sans-serif'" transform="translate(104.970313 125.843871)">you with your career</text>
     </g>
    </g>
   </g>
   <g id="patch_43">
    <path d="M 211.006406 283.55625 
L 564.693194 283.55625 
" style="fill: none; stroke: #000000; stroke-width: 0.8; stroke-linejoin: miter; stroke-linecap: square"/>
   </g>
   <g id="text_25">
    <text style="font: 10px 'sans-serif'; text-anchor: middle" x="359.04041" y="115.032589" transform="rotate(-0, 359.04041, 115.032589)">6</text>
   </g>
   <g id="text_26">
    <text style="font: 10px 'sans-serif'; text-anchor: middle" x="368.940544" y="115.032589" transform="rotate(-0, 368.940544, 115.032589)">6</text>
   </g>
   <g id="text_27">
    <text style="font: 10px 'sans-serif'; text-anchor: middle" x="381.090709" y="115.032589" transform="rotate(-0, 381.090709, 115.032589)">8</text>
   </g>
   <g id="text_28">
    <text style="font: 10px 'sans-serif'; text-anchor: middle" x="397.337083" y="199.29442" transform="rotate(-0, 397.337083, 199.29442)">10</text>
   </g>
   <g id="text_29">
    <text style="font: 10px 'sans-serif'; text-anchor: middle" x="405.841044" y="115.032589" transform="rotate(-0, 405.841044, 115.032589)">20</text>
   </g>
   <g id="text_30">
    <text style="font: 10px 'sans-serif'; text-anchor: middle" x="435.783757" y="199.29442" transform="rotate(-0, 435.783757, 199.29442)">33</text>
   </g>
   <g id="text_31">
    <text style="font: 10px 'sans-serif'; text-anchor: middle" x="445.891586" y="115.032589" transform="rotate(-0, 445.891586, 115.032589)">26</text>
   </g>
   <g id="text_32">
    <text style="font: 10px 'sans-serif'; text-anchor: middle" x="493.227612" y="199.29442" transform="rotate(-0, 493.227612, 199.29442)">32</text>
   </g>
   <g id="text_33">
    <text style="font: 10px 'sans-serif'; text-anchor: middle" x="486.842141" y="115.032589" transform="rotate(-0, 486.842141, 115.032589)">21</text>
   </g>
   <g id="text_34">
    <text style="font: 10px 'sans-serif'; text-anchor: middle" x="528.960403" y="199.29442" transform="rotate(-0, 528.960403, 199.29442)">9</text>
   </g>
   <g id="text_35">
    <text style="font: 10px 'sans-serif'; text-anchor: middle" x="515.192524" y="115.032589" transform="rotate(-0, 515.192524, 115.032589)">11</text>
   </g>
   <g id="text_36">
    <text style="font: 10px 'sans-serif'; text-anchor: middle" x="359.04041" y="115.032589" transform="rotate(-0, 359.04041, 115.032589)">6</text>
   </g>
   <g id="text_37">
    <text style="font: 10px 'sans-serif'; text-anchor: middle" x="368.940544" y="115.032589" transform="rotate(-0, 368.940544, 115.032589)">6</text>
   </g>
   <g id="text_38">
    <text style="font: 10px 'sans-serif'; text-anchor: middle" x="381.090709" y="115.032589" transform="rotate(-0, 381.090709, 115.032589)">8</text>
   </g>
   <g id="text_39">
    <text style="font: 10px 'sans-serif'; text-anchor: middle" x="397.337083" y="199.29442" transform="rotate(-0, 397.337083, 199.29442)">10</text>
   </g>
   <g id="text_40">
    <text style="font: 10px 'sans-serif'; text-anchor: middle" x="405.841044" y="115.032589" transform="rotate(-0, 405.841044, 115.032589)">20</text>
   </g>
   <g id="text_41">
    <text style="font: 10px 'sans-serif'; text-anchor: middle" x="435.783757" y="199.29442" transform="rotate(-0, 435.783757, 199.29442)">33</text>
   </g>
   <g id="text_42">
    <text style="font: 10px 'sans-serif'; text-anchor: middle" x="445.891586" y="115.032589" transform="rotate(-0, 445.891586, 115.032589)">26</text>
   </g>
   <g id="text_43">
    <text style="font: 10px 'sans-serif'; text-anchor: middle" x="493.227612" y="199.29442" transform="rotate(-0, 493.227612, 199.29442)">32</text>
   </g>
   <g id="text_44">
    <text style="font: 10px 'sans-serif'; text-anchor: middle" x="486.842141" y="115.032589" transform="rotate(-0, 486.842141, 115.032589)">21</text>
   </g>
   <g id="text_45">
    <text style="font: 10px 'sans-serif'; text-anchor: middle" x="528.960403" y="199.29442" transform="rotate(-0, 528.960403, 199.29442)">9</text>
   </g>
   <g id="text_46">
    <text style="font: 10px 'sans-serif'; text-anchor: middle" x="515.192524" y="115.032589" transform="rotate(-0, 515.192524, 115.032589)">11</text>
   </g>
   <g id="text_47">
    <text style="font: 12px 'sans-serif'; text-anchor: middle" x="387.8498" y="41.623125" transform="rotate(-0, 387.8498, 41.623125)">General satisfaction</text>
   </g>
   <g id="legend_1">
    <g id="patch_44">
     <path d="M 218.006406 278.55625 
L 557.693194 278.55625 
Q 559.693194 278.55625 559.693194 276.55625 
L 559.693194 263.298437 
Q 559.693194 261.298437 557.693194 261.298437 
L 218.006406 261.298437 
Q 216.006406 261.298437 216.006406 263.298437 
L 216.006406 276.55625 
Q 216.006406 278.55625 218.006406 278.55625 
z
" style="fill: #ffffff; opacity: 0.8; stroke: #cccccc; stroke-linejoin: miter"/>
    </g>
    <g id="patch_45">
     <path d="M 220.006406 272.471875 
L 240.006406 272.471875 
L 240.006406 265.471875 
L 220.006406 265.471875 
z
" style="fill: #67001f"/>
    </g>
    <g id="text_48">
     <text style="font: 10px 'sans-serif'; text-anchor: start" x="248.006406" y="272.471875" transform="rotate(-0, 248.006406, 272.471875)">1</text>
    </g>
    <g id="patch_46">
     <path d="M 252.958063 272.471875 
L 272.958063 272.471875 
L 272.958063 265.471875 
L 252.958063 265.471875 
z
" style="fill: #b61f2e"/>
    </g>
    <g id="text_49">
     <text style="font: 10px 'sans-serif'; text-anchor: start" x="280.958063" y="272.471875" transform="rotate(-0, 280.958063, 272.471875)">2</text>
    </g>
    <g id="patch_47">
     <path d="M 285.90972 272.471875 
L 305.90972 272.471875 
L 305.90972 265.471875 
L 285.90972 265.471875 
z
" style="fill: #dc6e57"/>
    </g>
    <g id="text_50">
     <text style="font: 10px 'sans-serif'; text-anchor: start" x="313.90972" y="272.471875" transform="rotate(-0, 313.90972, 272.471875)">3</text>
    </g>
    <g id="patch_48">
     <path d="M 318.861377 272.471875 
L 338.861377 272.471875 
L 338.861377 265.471875 
L 318.861377 265.471875 
z
" style="fill: #f7b799"/>
    </g>
    <g id="text_51">
     <text style="font: 10px 'sans-serif'; text-anchor: start" x="346.861377" y="272.471875" transform="rotate(-0, 346.861377, 272.471875)">4</text>
    </g>
    <g id="patch_49">
     <path d="M 351.813034 272.471875 
L 371.813034 272.471875 
L 371.813034 265.471875 
L 351.813034 265.471875 
z
" style="fill: #fae7dc"/>
    </g>
    <g id="text_52">
     <text style="font: 10px 'sans-serif'; text-anchor: start" x="379.813034" y="272.471875" transform="rotate(-0, 379.813034, 272.471875)">5</text>
    </g>
    <g id="patch_50">
     <path d="M 384.764691 272.471875 
L 404.764691 272.471875 
L 404.764691 265.471875 
L 384.764691 265.471875 
z
" style="fill: #e1edf3"/>
    </g>
    <g id="text_53">
     <text style="font: 10px 'sans-serif'; text-anchor: start" x="412.764691" y="272.471875" transform="rotate(-0, 412.764691, 272.471875)">6</text>
    </g>
    <g id="patch_51">
     <path d="M 417.716348 272.471875 
L 437.716348 272.471875 
L 437.716348 265.471875 
L 417.716348 265.471875 
z
" style="fill: #a7d0e4"/>
    </g>
    <g id="text_54">
     <text style="font: 10px 'sans-serif'; text-anchor: start" x="445.716348" y="272.471875" transform="rotate(-0, 445.716348, 272.471875)">7</text>
    </g>
    <g id="patch_52">
     <path d="M 450.668005 272.471875 
L 470.668005 272.471875 
L 470.668005 265.471875 
L 450.668005 265.471875 
z
" style="fill: #529dc8"/>
    </g>
    <g id="text_55">
     <text style="font: 10px 'sans-serif'; text-anchor: start" x="478.668005" y="272.471875" transform="rotate(-0, 478.668005, 272.471875)">8</text>
    </g>
    <g id="patch_53">
     <path d="M 483.619662 272.471875 
L 503.619662 272.471875 
L 503.619662 265.471875 
L 483.619662 265.471875 
z
" style="fill: #246aae"/>
    </g>
    <g id="text_56">
     <text style="font: 10px 'sans-serif'; text-anchor: start" x="511.619662" y="272.471875" transform="rotate(-0, 511.619662, 272.471875)">9</text>
    </g>
    <g id="patch_54">
     <path d="M 516.571319 272.471875 
L 536.571319 272.471875 
L 536.571319 265.471875 
L 516.571319 265.471875 
z
" style="fill: #053061"/>
    </g>
    <g id="text_57">
     <text style="font: 10px 'sans-serif'; text-anchor: start" x="544.571319" y="272.471875" transform="rotate(-0, 544.571319, 272.471875)">10</text>
    </g>
   </g>
  </g>
  <g id="text_58">
   <text style="font: 12px 'sans-serif'; text-anchor: middle" x="324" y="15.3225" transform="rotate(-0, 324, 15.3225)">General satisfaction: Germany</text>
  </g>
 </g>
 <defs>
  <clipPath id="p26410fd1a3">
   <rect x="211.006406" y="47.623125" width="353.686788" height="235.933125"/>
  </clipPath>
 </defs>
</svg>
