<?xml version="1.0" encoding="utf-8" standalone="no"?>
<!DOCTYPE svg PUBLIC "-//W3C//DTD SVG 1.1//EN"
  "http://www.w3.org/Graphics/SVG/1.1/DTD/svg11.dtd">
<svg height="288pt" version="1.1" viewBox="0 0 648 288" width="648pt" xmlns="http://www.w3.org/2000/svg" xmlns:xlink="http://www.w3.org/1999/xlink">
 <metadata>
  <rdf:RDF xmlns:cc="http://creativecommons.org/ns#" xmlns:dc="http://purl.org/dc/elements/1.1/" xmlns:rdf="http://www.w3.org/1999/02/22-rdf-syntax-ns#">
   <cc:Work>
    <dc:type rdf:resource="http://purl.org/dc/dcmitype/StillImage"/>
    <dc:date>2021-07-09T14:35:52.954203</dc:date>
    <dc:format>image/svg+xml</dc:format>
    <dc:creator>
     <cc:Agent>
      <dc:title>Matplotlib v3.4.2, https://matplotlib.org/</dc:title>
     </cc:Agent>
    </dc:creator>
   </cc:Work>
  </rdf:RDF>
 </metadata>
 <defs>
  <style type="text/css">*{stroke-linecap:butt;stroke-linejoin:round;}</style>
 </defs>
 <g id="figure_1">
  <g id="patch_1">
   <path d="M 0 288 
L 648 288 
L 648 0 
L 0 0 
z
" style="fill:#ffffff;"/>
  </g>
  <g id="axes_1">
   <g id="patch_2">
    <path d="M 357.1225 247.792188 
L 628.858594 247.792188 
L 628.858594 47.16375 
L 357.1225 47.16375 
z
" style="fill:#ffffff;"/>
   </g>
   <g id="line2d_1">
    <path clip-path="url(#p8123a81234)" d="M 493.32937 247.792188 
L 493.32937 47.16375 
" style="fill:none;stroke:#000000;stroke-dasharray:5.55,2.4;stroke-dashoffset:0;stroke-opacity:0.5;stroke-width:1.5;"/>
   </g>
   <g id="line2d_2">
    <path clip-path="url(#p8123a81234)" d="M 493.32937 247.792188 
L 493.32937 47.16375 
" style="fill:none;stroke:#000000;stroke-dasharray:5.55,2.4;stroke-dashoffset:0;stroke-opacity:0.5;stroke-width:1.5;"/>
   </g>
   <g id="patch_3">
    <path clip-path="url(#p8123a81234)" d="M 464.025754 238.672713 
L 464.025754 238.672713 
L 464.025754 157.610718 
L 464.025754 157.610718 
z
" style="fill:#67001f;"/>
   </g>
   <g id="patch_4">
    <path clip-path="url(#p8123a81234)" d="M 458.478998 137.345219 
L 458.478998 137.345219 
L 458.478998 56.283224 
L 458.478998 56.283224 
z
" style="fill:#67001f;"/>
   </g>
   <g id="patch_5">
    <path clip-path="url(#p8123a81234)" d="M 464.025754 238.672713 
L 471.351658 238.672713 
L 471.351658 157.610718 
L 464.025754 157.610718 
z
" style="fill:#b61f2e;"/>
   </g>
   <g id="patch_6">
    <path clip-path="url(#p8123a81234)" d="M 458.478998 137.345219 
L 466.223525 137.345219 
L 466.223525 56.283224 
L 458.478998 56.283224 
z
" style="fill:#b61f2e;"/>
   </g>
   <g id="patch_7">
    <path clip-path="url(#p8123a81234)" d="M 471.351658 238.672713 
L 471.351658 238.672713 
L 471.351658 157.610718 
L 471.351658 157.610718 
z
" style="fill:#dc6e57;"/>
   </g>
   <g id="patch_8">
    <path clip-path="url(#p8123a81234)" d="M 466.223525 137.345219 
L 477.840316 137.345219 
L 477.840316 56.283224 
L 466.223525 56.283224 
z
" style="fill:#dc6e57;"/>
   </g>
   <g id="patch_9">
    <path clip-path="url(#p8123a81234)" d="M 471.351658 238.672713 
L 471.351658 238.672713 
L 471.351658 157.610718 
L 471.351658 157.610718 
z
" style="fill:#f7b799;"/>
   </g>
   <g id="patch_10">
    <path clip-path="url(#p8123a81234)" d="M 477.840316 137.345219 
L 481.712579 137.345219 
L 481.712579 56.283224 
L 477.840316 56.283224 
z
" style="fill:#f7b799;"/>
   </g>
   <g id="patch_11">
    <path clip-path="url(#p8123a81234)" d="M 471.351658 238.672713 
L 493.32937 238.672713 
L 493.32937 157.610718 
L 471.351658 157.610718 
z
" style="fill:#fae7dc;"/>
   </g>
   <g id="patch_12">
    <path clip-path="url(#p8123a81234)" d="M 481.712579 137.345219 
L 493.32937 137.345219 
L 493.32937 56.283224 
L 481.712579 56.283224 
z
" style="fill:#fae7dc;"/>
   </g>
   <g id="patch_13">
    <path clip-path="url(#p8123a81234)" d="M 493.32937 238.672713 
L 507.981178 238.672713 
L 507.981178 157.610718 
L 493.32937 157.610718 
z
" style="fill:#e1edf3;"/>
   </g>
   <g id="patch_14">
    <path clip-path="url(#p8123a81234)" d="M 493.32937 137.345219 
L 524.307478 137.345219 
L 524.307478 56.283224 
L 493.32937 56.283224 
z
" style="fill:#e1edf3;"/>
   </g>
   <g id="patch_15">
    <path clip-path="url(#p8123a81234)" d="M 507.981178 238.672713 
L 540.947746 238.672713 
L 540.947746 157.610718 
L 507.981178 157.610718 
z
" style="fill:#a7d0e4;"/>
   </g>
   <g id="patch_16">
    <path clip-path="url(#p8123a81234)" d="M 524.307478 137.345219 
L 555.285587 137.345219 
L 555.285587 56.283224 
L 524.307478 56.283224 
z
" style="fill:#a7d0e4;"/>
   </g>
   <g id="patch_17">
    <path clip-path="url(#p8123a81234)" d="M 540.947746 238.672713 
L 581.240218 238.672713 
L 581.240218 157.610718 
L 540.947746 157.610718 
z
" style="fill:#529dc8;"/>
   </g>
   <g id="patch_18">
    <path clip-path="url(#p8123a81234)" d="M 555.285587 137.345219 
L 586.263695 137.345219 
L 586.263695 56.283224 
L 555.285587 56.283224 
z
" style="fill:#529dc8;"/>
   </g>
   <g id="patch_19">
    <path clip-path="url(#p8123a81234)" d="M 581.240218 238.672713 
L 599.554978 238.672713 
L 599.554978 157.610718 
L 581.240218 157.610718 
z
" style="fill:#246aae;"/>
   </g>
   <g id="patch_20">
    <path clip-path="url(#p8123a81234)" d="M 586.263695 137.345219 
L 594.008222 137.345219 
L 594.008222 56.283224 
L 586.263695 56.283224 
z
" style="fill:#246aae;"/>
   </g>
   <g id="patch_21">
    <path clip-path="url(#p8123a81234)" d="M 599.554978 238.672713 
L 599.554978 238.672713 
L 599.554978 157.610718 
L 599.554978 157.610718 
z
" style="fill:#053061;"/>
   </g>
   <g id="patch_22">
    <path clip-path="url(#p8123a81234)" d="M 594.008222 137.345219 
L 594.008222 137.345219 
L 594.008222 56.283224 
L 594.008222 56.283224 
z
" style="fill:#053061;"/>
   </g>
   <g id="patch_23">
    <path clip-path="url(#p8123a81234)" d="M 464.025754 238.672713 
L 464.025754 238.672713 
L 464.025754 157.610718 
L 464.025754 157.610718 
z
" style="fill:#67001f;"/>
   </g>
   <g id="patch_24">
    <path clip-path="url(#p8123a81234)" d="M 458.478998 137.345219 
L 458.478998 137.345219 
L 458.478998 56.283224 
L 458.478998 56.283224 
z
" style="fill:#67001f;"/>
   </g>
   <g id="patch_25">
    <path clip-path="url(#p8123a81234)" d="M 464.025754 238.672713 
L 471.351658 238.672713 
L 471.351658 157.610718 
L 464.025754 157.610718 
z
" style="fill:#b61f2e;"/>
   </g>
   <g id="patch_26">
    <path clip-path="url(#p8123a81234)" d="M 458.478998 137.345219 
L 466.223525 137.345219 
L 466.223525 56.283224 
L 458.478998 56.283224 
z
" style="fill:#b61f2e;"/>
   </g>
   <g id="patch_27">
    <path clip-path="url(#p8123a81234)" d="M 471.351658 238.672713 
L 471.351658 238.672713 
L 471.351658 157.610718 
L 471.351658 157.610718 
z
" style="fill:#dc6e57;"/>
   </g>
   <g id="patch_28">
    <path clip-path="url(#p8123a81234)" d="M 466.223525 137.345219 
L 477.840316 137.345219 
L 477.840316 56.283224 
L 466.223525 56.283224 
z
" style="fill:#dc6e57;"/>
   </g>
   <g id="patch_29">
    <path clip-path="url(#p8123a81234)" d="M 471.351658 238.672713 
L 471.351658 238.672713 
L 471.351658 157.610718 
L 471.351658 157.610718 
z
" style="fill:#f7b799;"/>
   </g>
   <g id="patch_30">
    <path clip-path="url(#p8123a81234)" d="M 477.840316 137.345219 
L 481.712579 137.345219 
L 481.712579 56.283224 
L 477.840316 56.283224 
z
" style="fill:#f7b799;"/>
   </g>
   <g id="patch_31">
    <path clip-path="url(#p8123a81234)" d="M 471.351658 238.672713 
L 493.32937 238.672713 
L 493.32937 157.610718 
L 471.351658 157.610718 
z
" style="fill:#fae7dc;"/>
   </g>
   <g id="patch_32">
    <path clip-path="url(#p8123a81234)" d="M 481.712579 137.345219 
L 493.32937 137.345219 
L 493.32937 56.283224 
L 481.712579 56.283224 
z
" style="fill:#fae7dc;"/>
   </g>
   <g id="patch_33">
    <path clip-path="url(#p8123a81234)" d="M 493.32937 238.672713 
L 507.981178 238.672713 
L 507.981178 157.610718 
L 493.32937 157.610718 
z
" style="fill:#e1edf3;"/>
   </g>
   <g id="patch_34">
    <path clip-path="url(#p8123a81234)" d="M 493.32937 137.345219 
L 524.307478 137.345219 
L 524.307478 56.283224 
L 493.32937 56.283224 
z
" style="fill:#e1edf3;"/>
   </g>
   <g id="patch_35">
    <path clip-path="url(#p8123a81234)" d="M 507.981178 238.672713 
L 540.947746 238.672713 
L 540.947746 157.610718 
L 507.981178 157.610718 
z
" style="fill:#a7d0e4;"/>
   </g>
   <g id="patch_36">
    <path clip-path="url(#p8123a81234)" d="M 524.307478 137.345219 
L 555.285587 137.345219 
L 555.285587 56.283224 
L 524.307478 56.283224 
z
" style="fill:#a7d0e4;"/>
   </g>
   <g id="patch_37">
    <path clip-path="url(#p8123a81234)" d="M 540.947746 238.672713 
L 581.240218 238.672713 
L 581.240218 157.610718 
L 540.947746 157.610718 
z
" style="fill:#529dc8;"/>
   </g>
   <g id="patch_38">
    <path clip-path="url(#p8123a81234)" d="M 555.285587 137.345219 
L 586.263695 137.345219 
L 586.263695 56.283224 
L 555.285587 56.283224 
z
" style="fill:#529dc8;"/>
   </g>
   <g id="patch_39">
    <path clip-path="url(#p8123a81234)" d="M 581.240218 238.672713 
L 599.554978 238.672713 
L 599.554978 157.610718 
L 581.240218 157.610718 
z
" style="fill:#246aae;"/>
   </g>
   <g id="patch_40">
    <path clip-path="url(#p8123a81234)" d="M 586.263695 137.345219 
L 594.008222 137.345219 
L 594.008222 56.283224 
L 586.263695 56.283224 
z
" style="fill:#246aae;"/>
   </g>
   <g id="patch_41">
    <path clip-path="url(#p8123a81234)" d="M 599.554978 238.672713 
L 599.554978 238.672713 
L 599.554978 157.610718 
L 599.554978 157.610718 
z
" style="fill:#053061;"/>
   </g>
   <g id="patch_42">
    <path clip-path="url(#p8123a81234)" d="M 594.008222 137.345219 
L 594.008222 137.345219 
L 594.008222 56.283224 
L 594.008222 56.283224 
z
" style="fill:#053061;"/>
   </g>
   <g id="matplotlib.axis_1">
    <g id="xtick_1">
     <g id="line2d_3">
      <defs>
       <path d="M 0 0 
L 0 3.5 
" id="mc3a356a46d" style="stroke:#000000;stroke-width:0.8;"/>
      </defs>
      <g>
       <use style="stroke:#000000;stroke-width:0.8;" x="357.800146" xlink:href="#mc3a356a46d" y="247.792188"/>
      </g>
     </g>
     <g id="text_1">
      <text style="font-family:Arial;font-size:10px;font-stretch:normal;font-style:normal;font-weight:normal;text-anchor:middle;" transform="rotate(-0, 357.800146, 261.95)" x="357.800146" y="261.95">100</text>
     </g>
    </g>
    <g id="xtick_2">
     <g id="line2d_4">
      <g>
       <use style="stroke:#000000;stroke-width:0.8;" x="371.353069" xlink:href="#mc3a356a46d" y="247.792188"/>
      </g>
     </g>
     <g id="text_2">
      <text style="font-family:Arial;font-size:10px;font-stretch:normal;font-style:normal;font-weight:normal;text-anchor:middle;" transform="rotate(-0, 371.353069, 261.95)" x="371.353069" y="261.95">90</text>
     </g>
    </g>
    <g id="xtick_3">
     <g id="line2d_5">
      <g>
       <use style="stroke:#000000;stroke-width:0.8;" x="384.905991" xlink:href="#mc3a356a46d" y="247.792188"/>
      </g>
     </g>
     <g id="text_3">
      <text style="font-family:Arial;font-size:10px;font-stretch:normal;font-style:normal;font-weight:normal;text-anchor:middle;" transform="rotate(-0, 384.905991, 261.95)" x="384.905991" y="261.95">80</text>
     </g>
    </g>
    <g id="xtick_4">
     <g id="line2d_6">
      <g>
       <use style="stroke:#000000;stroke-width:0.8;" x="398.458913" xlink:href="#mc3a356a46d" y="247.792188"/>
      </g>
     </g>
     <g id="text_4">
      <text style="font-family:Arial;font-size:10px;font-stretch:normal;font-style:normal;font-weight:normal;text-anchor:middle;" transform="rotate(-0, 398.458913, 261.95)" x="398.458913" y="261.95">70</text>
     </g>
    </g>
    <g id="xtick_5">
     <g id="line2d_7">
      <g>
       <use style="stroke:#000000;stroke-width:0.8;" x="412.011836" xlink:href="#mc3a356a46d" y="247.792188"/>
      </g>
     </g>
     <g id="text_5">
      <text style="font-family:Arial;font-size:10px;font-stretch:normal;font-style:normal;font-weight:normal;text-anchor:middle;" transform="rotate(-0, 412.011836, 261.95)" x="412.011836" y="261.95">60</text>
     </g>
    </g>
    <g id="xtick_6">
     <g id="line2d_8">
      <g>
       <use style="stroke:#000000;stroke-width:0.8;" x="425.564758" xlink:href="#mc3a356a46d" y="247.792188"/>
      </g>
     </g>
     <g id="text_6">
      <text style="font-family:Arial;font-size:10px;font-stretch:normal;font-style:normal;font-weight:normal;text-anchor:middle;" transform="rotate(-0, 425.564758, 261.95)" x="425.564758" y="261.95">50</text>
     </g>
    </g>
    <g id="xtick_7">
     <g id="line2d_9">
      <g>
       <use style="stroke:#000000;stroke-width:0.8;" x="439.11768" xlink:href="#mc3a356a46d" y="247.792188"/>
      </g>
     </g>
     <g id="text_7">
      <text style="font-family:Arial;font-size:10px;font-stretch:normal;font-style:normal;font-weight:normal;text-anchor:middle;" transform="rotate(-0, 439.11768, 261.95)" x="439.11768" y="261.95">40</text>
     </g>
    </g>
    <g id="xtick_8">
     <g id="line2d_10">
      <g>
       <use style="stroke:#000000;stroke-width:0.8;" x="452.670603" xlink:href="#mc3a356a46d" y="247.792188"/>
      </g>
     </g>
     <g id="text_8">
      <text style="font-family:Arial;font-size:10px;font-stretch:normal;font-style:normal;font-weight:normal;text-anchor:middle;" transform="rotate(-0, 452.670603, 261.95)" x="452.670603" y="261.95">30</text>
     </g>
    </g>
    <g id="xtick_9">
     <g id="line2d_11">
      <g>
       <use style="stroke:#000000;stroke-width:0.8;" x="466.223525" xlink:href="#mc3a356a46d" y="247.792188"/>
      </g>
     </g>
     <g id="text_9">
      <text style="font-family:Arial;font-size:10px;font-stretch:normal;font-style:normal;font-weight:normal;text-anchor:middle;" transform="rotate(-0, 466.223525, 261.95)" x="466.223525" y="261.95">20</text>
     </g>
    </g>
    <g id="xtick_10">
     <g id="line2d_12">
      <g>
       <use style="stroke:#000000;stroke-width:0.8;" x="479.776448" xlink:href="#mc3a356a46d" y="247.792188"/>
      </g>
     </g>
     <g id="text_10">
      <text style="font-family:Arial;font-size:10px;font-stretch:normal;font-style:normal;font-weight:normal;text-anchor:middle;" transform="rotate(-0, 479.776448, 261.95)" x="479.776448" y="261.95">10</text>
     </g>
    </g>
    <g id="xtick_11">
     <g id="line2d_13">
      <g>
       <use style="stroke:#000000;stroke-width:0.8;" x="493.32937" xlink:href="#mc3a356a46d" y="247.792188"/>
      </g>
     </g>
     <g id="text_11">
      <text style="font-family:Arial;font-size:10px;font-stretch:normal;font-style:normal;font-weight:normal;text-anchor:middle;" transform="rotate(-0, 493.32937, 261.95)" x="493.32937" y="261.95">0</text>
     </g>
    </g>
    <g id="xtick_12">
     <g id="line2d_14">
      <g>
       <use style="stroke:#000000;stroke-width:0.8;" x="506.882292" xlink:href="#mc3a356a46d" y="247.792188"/>
      </g>
     </g>
     <g id="text_12">
      <text style="font-family:Arial;font-size:10px;font-stretch:normal;font-style:normal;font-weight:normal;text-anchor:middle;" transform="rotate(-0, 506.882292, 261.95)" x="506.882292" y="261.95">10</text>
     </g>
    </g>
    <g id="xtick_13">
     <g id="line2d_15">
      <g>
       <use style="stroke:#000000;stroke-width:0.8;" x="520.435215" xlink:href="#mc3a356a46d" y="247.792188"/>
      </g>
     </g>
     <g id="text_13">
      <text style="font-family:Arial;font-size:10px;font-stretch:normal;font-style:normal;font-weight:normal;text-anchor:middle;" transform="rotate(-0, 520.435215, 261.95)" x="520.435215" y="261.95">20</text>
     </g>
    </g>
    <g id="xtick_14">
     <g id="line2d_16">
      <g>
       <use style="stroke:#000000;stroke-width:0.8;" x="533.988137" xlink:href="#mc3a356a46d" y="247.792188"/>
      </g>
     </g>
     <g id="text_14">
      <text style="font-family:Arial;font-size:10px;font-stretch:normal;font-style:normal;font-weight:normal;text-anchor:middle;" transform="rotate(-0, 533.988137, 261.95)" x="533.988137" y="261.95">30</text>
     </g>
    </g>
    <g id="xtick_15">
     <g id="line2d_17">
      <g>
       <use style="stroke:#000000;stroke-width:0.8;" x="547.541059" xlink:href="#mc3a356a46d" y="247.792188"/>
      </g>
     </g>
     <g id="text_15">
      <text style="font-family:Arial;font-size:10px;font-stretch:normal;font-style:normal;font-weight:normal;text-anchor:middle;" transform="rotate(-0, 547.541059, 261.95)" x="547.541059" y="261.95">40</text>
     </g>
    </g>
    <g id="xtick_16">
     <g id="line2d_18">
      <g>
       <use style="stroke:#000000;stroke-width:0.8;" x="561.093982" xlink:href="#mc3a356a46d" y="247.792188"/>
      </g>
     </g>
     <g id="text_16">
      <text style="font-family:Arial;font-size:10px;font-stretch:normal;font-style:normal;font-weight:normal;text-anchor:middle;" transform="rotate(-0, 561.093982, 261.95)" x="561.093982" y="261.95">50</text>
     </g>
    </g>
    <g id="xtick_17">
     <g id="line2d_19">
      <g>
       <use style="stroke:#000000;stroke-width:0.8;" x="574.646904" xlink:href="#mc3a356a46d" y="247.792188"/>
      </g>
     </g>
     <g id="text_17">
      <text style="font-family:Arial;font-size:10px;font-stretch:normal;font-style:normal;font-weight:normal;text-anchor:middle;" transform="rotate(-0, 574.646904, 261.95)" x="574.646904" y="261.95">60</text>
     </g>
    </g>
    <g id="xtick_18">
     <g id="line2d_20">
      <g>
       <use style="stroke:#000000;stroke-width:0.8;" x="588.199827" xlink:href="#mc3a356a46d" y="247.792188"/>
      </g>
     </g>
     <g id="text_18">
      <text style="font-family:Arial;font-size:10px;font-stretch:normal;font-style:normal;font-weight:normal;text-anchor:middle;" transform="rotate(-0, 588.199827, 261.95)" x="588.199827" y="261.95">70</text>
     </g>
    </g>
    <g id="xtick_19">
     <g id="line2d_21">
      <g>
       <use style="stroke:#000000;stroke-width:0.8;" x="601.752749" xlink:href="#mc3a356a46d" y="247.792188"/>
      </g>
     </g>
     <g id="text_19">
      <text style="font-family:Arial;font-size:10px;font-stretch:normal;font-style:normal;font-weight:normal;text-anchor:middle;" transform="rotate(-0, 601.752749, 261.95)" x="601.752749" y="261.95">80</text>
     </g>
    </g>
    <g id="xtick_20">
     <g id="line2d_22">
      <g>
       <use style="stroke:#000000;stroke-width:0.8;" x="615.305671" xlink:href="#mc3a356a46d" y="247.792188"/>
      </g>
     </g>
     <g id="text_20">
      <text style="font-family:Arial;font-size:10px;font-stretch:normal;font-style:normal;font-weight:normal;text-anchor:middle;" transform="rotate(-0, 615.305671, 261.95)" x="615.305671" y="261.95">90</text>
     </g>
    </g>
    <g id="xtick_21">
     <g id="line2d_23">
      <g>
       <use style="stroke:#000000;stroke-width:0.8;" x="628.858594" xlink:href="#mc3a356a46d" y="247.792188"/>
      </g>
     </g>
     <g id="text_21">
      <text style="font-family:Arial;font-size:10px;font-stretch:normal;font-style:normal;font-weight:normal;text-anchor:middle;" transform="rotate(-0, 628.858594, 261.95)" x="628.858594" y="261.95">100</text>
     </g>
    </g>
    <g id="text_22">
     <text style="font-family:Arial;font-size:10px;font-stretch:normal;font-style:normal;font-weight:normal;text-anchor:middle;" transform="rotate(-0, 492.990547, 275.095312)" x="492.990547" y="275.095312">Percentage</text>
    </g>
   </g>
   <g id="matplotlib.axis_2">
    <g id="ytick_1">
     <g id="line2d_24">
      <defs>
       <path d="M 0 0 
L -3.5 0 
" id="m82278324de" style="stroke:#000000;stroke-width:0.8;"/>
      </defs>
      <g>
       <use style="stroke:#000000;stroke-width:0.8;" x="357.1225" xlink:href="#m82278324de" y="198.141716"/>
      </g>
     </g>
     <g id="text_23">
      <text style="font-family:Arial;font-size:11px;font-stretch:normal;font-style:normal;font-weight:normal;text-anchor:end;" transform="rotate(-0, 350.1225, 202.145544)" x="350.1225" y="202.145544">satisGen1. In general, how satisfied are you with your current position</text>
     </g>
    </g>
    <g id="ytick_2">
     <g id="line2d_25">
      <g>
       <use style="stroke:#000000;stroke-width:0.8;" x="357.1225" xlink:href="#m82278324de" y="96.814222"/>
      </g>
     </g>
     <g id="text_24">
      <text style="font-family:Arial;font-size:11px;font-stretch:normal;font-style:normal;font-weight:normal;text-anchor:end;" transform="rotate(-0, 350.1225, 100.81805)" x="350.1225" y="100.81805">satisGen2. In general, how satisfied are you with your career</text>
     </g>
    </g>
   </g>
   <g id="patch_43">
    <path d="M 357.1225 247.792188 
L 628.858594 247.792188 
" style="fill:none;stroke:#000000;stroke-linecap:square;stroke-linejoin:miter;stroke-width:0.8;"/>
   </g>
   <g id="text_25">
    <text style="font-family:Arial;font-size:10px;font-stretch:normal;font-style:normal;font-weight:normal;text-anchor:middle;" transform="rotate(-0, 467.688706, 198.141716)" x="467.688706" y="198.141716">5</text>
   </g>
   <g id="text_26">
    <text style="font-family:Arial;font-size:10px;font-stretch:normal;font-style:normal;font-weight:normal;text-anchor:middle;" transform="rotate(-0, 462.351262, 96.814222)" x="462.351262" y="96.814222">6</text>
   </g>
   <g id="text_27">
    <text style="font-family:Arial;font-size:10px;font-stretch:normal;font-style:normal;font-weight:normal;text-anchor:middle;" transform="rotate(-0, 472.03192, 96.814222)" x="472.03192" y="96.814222">9</text>
   </g>
   <g id="text_28">
    <text style="font-family:Arial;font-size:10px;font-stretch:normal;font-style:normal;font-weight:normal;text-anchor:middle;" transform="rotate(-0, 482.340514, 198.141716)" x="482.340514" y="198.141716">16</text>
   </g>
   <g id="text_29">
    <text style="font-family:Arial;font-size:10px;font-stretch:normal;font-style:normal;font-weight:normal;text-anchor:middle;" transform="rotate(-0, 487.520975, 96.814222)" x="487.520975" y="96.814222">9</text>
   </g>
   <g id="text_30">
    <text style="font-family:Arial;font-size:10px;font-stretch:normal;font-style:normal;font-weight:normal;text-anchor:middle;" transform="rotate(-0, 500.655274, 198.141716)" x="500.655274" y="198.141716">11</text>
   </g>
   <g id="text_31">
    <text style="font-family:Arial;font-size:10px;font-stretch:normal;font-style:normal;font-weight:normal;text-anchor:middle;" transform="rotate(-0, 508.818424, 96.814222)" x="508.818424" y="96.814222">23</text>
   </g>
   <g id="text_32">
    <text style="font-family:Arial;font-size:10px;font-stretch:normal;font-style:normal;font-weight:normal;text-anchor:middle;" transform="rotate(-0, 524.464462, 198.141716)" x="524.464462" y="198.141716">24</text>
   </g>
   <g id="text_33">
    <text style="font-family:Arial;font-size:10px;font-stretch:normal;font-style:normal;font-weight:normal;text-anchor:middle;" transform="rotate(-0, 539.796532, 96.814222)" x="539.796532" y="96.814222">23</text>
   </g>
   <g id="text_34">
    <text style="font-family:Arial;font-size:10px;font-stretch:normal;font-style:normal;font-weight:normal;text-anchor:middle;" transform="rotate(-0, 561.093982, 198.141716)" x="561.093982" y="198.141716">30</text>
   </g>
   <g id="text_35">
    <text style="font-family:Arial;font-size:10px;font-stretch:normal;font-style:normal;font-weight:normal;text-anchor:middle;" transform="rotate(-0, 570.774641, 96.814222)" x="570.774641" y="96.814222">23</text>
   </g>
   <g id="text_36">
    <text style="font-family:Arial;font-size:10px;font-stretch:normal;font-style:normal;font-weight:normal;text-anchor:middle;" transform="rotate(-0, 590.397598, 198.141716)" x="590.397598" y="198.141716">14</text>
   </g>
   <g id="text_37">
    <text style="font-family:Arial;font-size:10px;font-stretch:normal;font-style:normal;font-weight:normal;text-anchor:middle;" transform="rotate(-0, 590.135958, 96.814222)" x="590.135958" y="96.814222">6</text>
   </g>
   <g id="text_38">
    <text style="font-family:Arial;font-size:10px;font-stretch:normal;font-style:normal;font-weight:normal;text-anchor:middle;" transform="rotate(-0, 467.688706, 198.141716)" x="467.688706" y="198.141716">5</text>
   </g>
   <g id="text_39">
    <text style="font-family:Arial;font-size:10px;font-stretch:normal;font-style:normal;font-weight:normal;text-anchor:middle;" transform="rotate(-0, 462.351262, 96.814222)" x="462.351262" y="96.814222">6</text>
   </g>
   <g id="text_40">
    <text style="font-family:Arial;font-size:10px;font-stretch:normal;font-style:normal;font-weight:normal;text-anchor:middle;" transform="rotate(-0, 472.03192, 96.814222)" x="472.03192" y="96.814222">9</text>
   </g>
   <g id="text_41">
    <text style="font-family:Arial;font-size:10px;font-stretch:normal;font-style:normal;font-weight:normal;text-anchor:middle;" transform="rotate(-0, 482.340514, 198.141716)" x="482.340514" y="198.141716">16</text>
   </g>
   <g id="text_42">
    <text style="font-family:Arial;font-size:10px;font-stretch:normal;font-style:normal;font-weight:normal;text-anchor:middle;" transform="rotate(-0, 487.520975, 96.814222)" x="487.520975" y="96.814222">9</text>
   </g>
   <g id="text_43">
    <text style="font-family:Arial;font-size:10px;font-stretch:normal;font-style:normal;font-weight:normal;text-anchor:middle;" transform="rotate(-0, 500.655274, 198.141716)" x="500.655274" y="198.141716">11</text>
   </g>
   <g id="text_44">
    <text style="font-family:Arial;font-size:10px;font-stretch:normal;font-style:normal;font-weight:normal;text-anchor:middle;" transform="rotate(-0, 508.818424, 96.814222)" x="508.818424" y="96.814222">23</text>
   </g>
   <g id="text_45">
    <text style="font-family:Arial;font-size:10px;font-stretch:normal;font-style:normal;font-weight:normal;text-anchor:middle;" transform="rotate(-0, 524.464462, 198.141716)" x="524.464462" y="198.141716">24</text>
   </g>
   <g id="text_46">
    <text style="font-family:Arial;font-size:10px;font-stretch:normal;font-style:normal;font-weight:normal;text-anchor:middle;" transform="rotate(-0, 539.796532, 96.814222)" x="539.796532" y="96.814222">23</text>
   </g>
   <g id="text_47">
    <text style="font-family:Arial;font-size:10px;font-stretch:normal;font-style:normal;font-weight:normal;text-anchor:middle;" transform="rotate(-0, 561.093982, 198.141716)" x="561.093982" y="198.141716">30</text>
   </g>
   <g id="text_48">
    <text style="font-family:Arial;font-size:10px;font-stretch:normal;font-style:normal;font-weight:normal;text-anchor:middle;" transform="rotate(-0, 570.774641, 96.814222)" x="570.774641" y="96.814222">23</text>
   </g>
   <g id="text_49">
    <text style="font-family:Arial;font-size:10px;font-stretch:normal;font-style:normal;font-weight:normal;text-anchor:middle;" transform="rotate(-0, 590.397598, 198.141716)" x="590.397598" y="198.141716">14</text>
   </g>
   <g id="text_50">
    <text style="font-family:Arial;font-size:10px;font-stretch:normal;font-style:normal;font-weight:normal;text-anchor:middle;" transform="rotate(-0, 590.135958, 96.814222)" x="590.135958" y="96.814222">6</text>
   </g>
   <g id="text_51">
    <text style="font-family:Arial;font-size:12px;font-stretch:normal;font-style:normal;font-weight:normal;text-anchor:middle;" transform="rotate(-0, 492.990547, 41.16375)" x="492.990547" y="41.16375">General satisfaction</text>
   </g>
   <g id="legend_1">
    <g id="patch_44">
     <path d="M 364.1225 242.792188 
L 621.858594 242.792188 
Q 623.858594 242.792188 623.858594 240.792188 
L 623.858594 227.646875 
Q 623.858594 225.646875 621.858594 225.646875 
L 364.1225 225.646875 
Q 362.1225 225.646875 362.1225 227.646875 
L 362.1225 240.792188 
Q 362.1225 242.792188 364.1225 242.792188 
z
" style="fill:#ffffff;opacity:0.8;stroke:#cccccc;stroke-linejoin:miter;"/>
    </g>
    <g id="patch_45">
     <path d="M 366.1225 236.804688 
L 386.1225 236.804688 
L 386.1225 229.804688 
L 366.1225 229.804688 
z
" style="fill:#67001f;"/>
    </g>
    <g id="text_52">
     <text style="font-family:Arial;font-size:10px;font-stretch:normal;font-style:normal;font-weight:normal;text-anchor:start;" transform="rotate(-0, 394.1225, 236.804688)" x="394.1225" y="236.804688">1</text>
    </g>
    <g id="patch_46">
     <path d="M 389.968524 236.804688 
L 409.968524 236.804688 
L 409.968524 229.804688 
L 389.968524 229.804688 
z
" style="fill:#b61f2e;"/>
    </g>
    <g id="text_53">
     <text style="font-family:Arial;font-size:10px;font-stretch:normal;font-style:normal;font-weight:normal;text-anchor:start;" transform="rotate(-0, 417.968524, 236.804688)" x="417.968524" y="236.804688">2</text>
    </g>
    <g id="patch_47">
     <path d="M 413.814549 236.804688 
L 433.814549 236.804688 
L 433.814549 229.804688 
L 413.814549 229.804688 
z
" style="fill:#dc6e57;"/>
    </g>
    <g id="text_54">
     <text style="font-family:Arial;font-size:10px;font-stretch:normal;font-style:normal;font-weight:normal;text-anchor:start;" transform="rotate(-0, 441.814549, 236.804688)" x="441.814549" y="236.804688">3</text>
    </g>
    <g id="patch_48">
     <path d="M 437.660573 236.804688 
L 457.660573 236.804688 
L 457.660573 229.804688 
L 437.660573 229.804688 
z
" style="fill:#f7b799;"/>
    </g>
    <g id="text_55">
     <text style="font-family:Arial;font-size:10px;font-stretch:normal;font-style:normal;font-weight:normal;text-anchor:start;" transform="rotate(-0, 465.660573, 236.804688)" x="465.660573" y="236.804688">4</text>
    </g>
    <g id="patch_49">
     <path d="M 461.506597 236.804688 
L 481.506597 236.804688 
L 481.506597 229.804688 
L 461.506597 229.804688 
z
" style="fill:#fae7dc;"/>
    </g>
    <g id="text_56">
     <text style="font-family:Arial;font-size:10px;font-stretch:normal;font-style:normal;font-weight:normal;text-anchor:start;" transform="rotate(-0, 489.506597, 236.804688)" x="489.506597" y="236.804688">5</text>
    </g>
    <g id="patch_50">
     <path d="M 485.352622 236.804688 
L 505.352622 236.804688 
L 505.352622 229.804688 
L 485.352622 229.804688 
z
" style="fill:#e1edf3;"/>
    </g>
    <g id="text_57">
     <text style="font-family:Arial;font-size:10px;font-stretch:normal;font-style:normal;font-weight:normal;text-anchor:start;" transform="rotate(-0, 513.352622, 236.804688)" x="513.352622" y="236.804688">6</text>
    </g>
    <g id="patch_51">
     <path d="M 509.198646 236.804688 
L 529.198646 236.804688 
L 529.198646 229.804688 
L 509.198646 229.804688 
z
" style="fill:#a7d0e4;"/>
    </g>
    <g id="text_58">
     <text style="font-family:Arial;font-size:10px;font-stretch:normal;font-style:normal;font-weight:normal;text-anchor:start;" transform="rotate(-0, 537.198646, 236.804688)" x="537.198646" y="236.804688">7</text>
    </g>
    <g id="patch_52">
     <path d="M 533.04467 236.804688 
L 553.04467 236.804688 
L 553.04467 229.804688 
L 533.04467 229.804688 
z
" style="fill:#529dc8;"/>
    </g>
    <g id="text_59">
     <text style="font-family:Arial;font-size:10px;font-stretch:normal;font-style:normal;font-weight:normal;text-anchor:start;" transform="rotate(-0, 561.04467, 236.804688)" x="561.04467" y="236.804688">8</text>
    </g>
    <g id="patch_53">
     <path d="M 556.890694 236.804688 
L 576.890694 236.804688 
L 576.890694 229.804688 
L 556.890694 229.804688 
z
" style="fill:#246aae;"/>
    </g>
    <g id="text_60">
     <text style="font-family:Arial;font-size:10px;font-stretch:normal;font-style:normal;font-weight:normal;text-anchor:start;" transform="rotate(-0, 584.890694, 236.804688)" x="584.890694" y="236.804688">9</text>
    </g>
    <g id="patch_54">
     <path d="M 580.736719 236.804688 
L 600.736719 236.804688 
L 600.736719 229.804688 
L 580.736719 229.804688 
z
" style="fill:#053061;"/>
    </g>
    <g id="text_61">
     <text style="font-family:Arial;font-size:10px;font-stretch:normal;font-style:normal;font-weight:normal;text-anchor:start;" transform="rotate(-0, 608.736719, 236.804688)" x="608.736719" y="236.804688">10</text>
    </g>
   </g>
  </g>
  <g id="text_62">
   <text style="font-family:Arial;font-size:12px;font-stretch:normal;font-style:normal;font-weight:normal;text-anchor:middle;" transform="rotate(-0, 324, 14.349375)" x="324" y="14.349375">General satisfaction: World</text>
  </g>
 </g>
 <defs>
  <clipPath id="p8123a81234">
   <rect height="200.628438" width="271.736094" x="357.1225" y="47.16375"/>
  </clipPath>
 </defs>
</svg>
