<?xml version="1.0" encoding="utf-8" standalone="no"?>
<!DOCTYPE svg PUBLIC "-//W3C//DTD SVG 1.1//EN"
  "http://www.w3.org/Graphics/SVG/1.1/DTD/svg11.dtd">
<svg xmlns:xlink="http://www.w3.org/1999/xlink" width="648pt" height="288pt" viewBox="0 0 648 288" xmlns="http://www.w3.org/2000/svg" version="1.1">
 <metadata>
  <rdf:RDF xmlns:dc="http://purl.org/dc/elements/1.1/" xmlns:cc="http://creativecommons.org/ns#" xmlns:rdf="http://www.w3.org/1999/02/22-rdf-syntax-ns#">
   <cc:Work>
    <dc:type rdf:resource="http://purl.org/dc/dcmitype/StillImage"/>
    <dc:date>2022-03-18T15:58:54.249798</dc:date>
    <dc:format>image/svg+xml</dc:format>
    <dc:creator>
     <cc:Agent>
      <dc:title>Matplotlib v3.5.1, https://matplotlib.org/</dc:title>
     </cc:Agent>
    </dc:creator>
   </cc:Work>
  </rdf:RDF>
 </metadata>
 <defs>
  <style type="text/css">*{stroke-linejoin: round; stroke-linecap: butt}</style>
 </defs>
 <g id="figure_1">
  <g id="patch_1">
   <path d="M 0 288 
L 648 288 
L 648 0 
L 0 0 
z
" style="fill: #ffffff"/>
  </g>
  <g id="axes_1">
   <g id="patch_2">
    <path d="M 140.29 246.04 
L 628.92 246.04 
L 628.92 25.44 
L 140.29 25.44 
z
" style="fill: #ffffff"/>
   </g>
   <g id="line2d_1">
    <path d="M 385.214264 246.04 
L 385.214264 25.44 
" clip-path="url(#pa96a26ebcf)" style="fill: none; stroke-dasharray: 5.55,2.4; stroke-dashoffset: 0; stroke: #000000; stroke-opacity: 0.5; stroke-width: 1.5"/>
   </g>
   <g id="line2d_2">
    <path d="M 385.214264 246.04 
L 385.214264 25.44 
" clip-path="url(#pa96a26ebcf)" style="fill: none; stroke-dasharray: 5.55,2.4; stroke-dashoffset: 0; stroke: #000000; stroke-opacity: 0.5; stroke-width: 1.5"/>
   </g>
   <g id="patch_3">
    <path d="M 326.090388 236.012727 
L 331.858571 236.012727 
L 331.858571 146.881414 
L 326.090388 146.881414 
z
" clip-path="url(#pa96a26ebcf)" style="fill: #67001f"/>
   </g>
   <g id="patch_4">
    <path d="M 314.96967 124.598586 
L 316.403233 124.598586 
L 316.403233 35.467273 
L 314.96967 35.467273 
z
" clip-path="url(#pa96a26ebcf)" style="fill: #67001f"/>
   </g>
   <g id="patch_5">
    <path d="M 331.858571 236.012727 
L 340.510845 236.012727 
L 340.510845 146.881414 
L 331.858571 146.881414 
z
" clip-path="url(#pa96a26ebcf)" style="fill: #b61f2e"/>
   </g>
   <g id="patch_6">
    <path d="M 316.403233 124.598586 
L 325.004612 124.598586 
L 325.004612 35.467273 
L 316.403233 35.467273 
z
" clip-path="url(#pa96a26ebcf)" style="fill: #b61f2e"/>
   </g>
   <g id="patch_7">
    <path d="M 340.510845 236.012727 
L 353.489257 236.012727 
L 353.489257 146.881414 
L 340.510845 146.881414 
z
" clip-path="url(#pa96a26ebcf)" style="fill: #dc6e57"/>
   </g>
   <g id="patch_8">
    <path d="M 325.004612 124.598586 
L 339.340244 124.598586 
L 339.340244 35.467273 
L 325.004612 35.467273 
z
" clip-path="url(#pa96a26ebcf)" style="fill: #dc6e57"/>
   </g>
   <g id="patch_9">
    <path d="M 353.489257 236.012727 
L 365.025624 236.012727 
L 365.025624 146.881414 
L 353.489257 146.881414 
z
" clip-path="url(#pa96a26ebcf)" style="fill: #f7b799"/>
   </g>
   <g id="patch_10">
    <path d="M 339.340244 124.598586 
L 352.242312 124.598586 
L 352.242312 35.467273 
L 339.340244 35.467273 
z
" clip-path="url(#pa96a26ebcf)" style="fill: #f7b799"/>
   </g>
   <g id="patch_11">
    <path d="M 365.025624 236.012727 
L 385.214264 236.012727 
L 385.214264 146.881414 
L 365.025624 146.881414 
z
" clip-path="url(#pa96a26ebcf)" style="fill: #fae7dc"/>
   </g>
   <g id="patch_12">
    <path d="M 352.242312 124.598586 
L 385.214264 124.598586 
L 385.214264 35.467273 
L 352.242312 35.467273 
z
" clip-path="url(#pa96a26ebcf)" style="fill: #fae7dc"/>
   </g>
   <g id="patch_13">
    <path d="M 385.214264 236.012727 
L 424.1495 236.012727 
L 424.1495 146.881414 
L 385.214264 146.881414 
z
" clip-path="url(#pa96a26ebcf)" style="fill: #e1edf3"/>
   </g>
   <g id="patch_14">
    <path d="M 385.214264 124.598586 
L 413.885527 124.598586 
L 413.885527 35.467273 
L 385.214264 35.467273 
z
" clip-path="url(#pa96a26ebcf)" style="fill: #e1edf3"/>
   </g>
   <g id="patch_15">
    <path d="M 424.1495 236.012727 
L 474.621102 236.012727 
L 474.621102 146.881414 
L 424.1495 146.881414 
z
" clip-path="url(#pa96a26ebcf)" style="fill: #a7d0e4"/>
   </g>
   <g id="patch_16">
    <path d="M 413.885527 124.598586 
L 468.360927 124.598586 
L 468.360927 35.467273 
L 413.885527 35.467273 
z
" clip-path="url(#pa96a26ebcf)" style="fill: #a7d0e4"/>
   </g>
   <g id="patch_17">
    <path d="M 474.621102 236.012727 
L 530.860887 236.012727 
L 530.860887 146.881414 
L 474.621102 146.881414 
z
" clip-path="url(#pa96a26ebcf)" style="fill: #529dc8"/>
   </g>
   <g id="patch_18">
    <path d="M 468.360927 124.598586 
L 527.137016 124.598586 
L 527.137016 35.467273 
L 468.360927 35.467273 
z
" clip-path="url(#pa96a26ebcf)" style="fill: #529dc8"/>
   </g>
   <g id="patch_19">
    <path d="M 530.860887 236.012727 
L 569.796123 236.012727 
L 569.796123 146.881414 
L 530.860887 146.881414 
z
" clip-path="url(#pa96a26ebcf)" style="fill: #246aae"/>
   </g>
   <g id="patch_20">
    <path d="M 527.137016 124.598586 
L 558.675406 124.598586 
L 558.675406 35.467273 
L 527.137016 35.467273 
z
" clip-path="url(#pa96a26ebcf)" style="fill: #246aae"/>
   </g>
   <g id="patch_21">
    <path d="M 569.796123 236.012727 
L 569.796123 236.012727 
L 569.796123 146.881414 
L 569.796123 146.881414 
z
" clip-path="url(#pa96a26ebcf)" style="fill: #053061"/>
   </g>
   <g id="patch_22">
    <path d="M 558.675406 124.598586 
L 558.675406 124.598586 
L 558.675406 35.467273 
L 558.675406 35.467273 
z
" clip-path="url(#pa96a26ebcf)" style="fill: #053061"/>
   </g>
   <g id="patch_23">
    <path d="M 326.090388 236.012727 
L 331.858571 236.012727 
L 331.858571 146.881414 
L 326.090388 146.881414 
z
" clip-path="url(#pa96a26ebcf)" style="fill: #67001f"/>
   </g>
   <g id="patch_24">
    <path d="M 314.96967 124.598586 
L 316.403233 124.598586 
L 316.403233 35.467273 
L 314.96967 35.467273 
z
" clip-path="url(#pa96a26ebcf)" style="fill: #67001f"/>
   </g>
   <g id="patch_25">
    <path d="M 331.858571 236.012727 
L 340.510845 236.012727 
L 340.510845 146.881414 
L 331.858571 146.881414 
z
" clip-path="url(#pa96a26ebcf)" style="fill: #b61f2e"/>
   </g>
   <g id="patch_26">
    <path d="M 316.403233 124.598586 
L 325.004612 124.598586 
L 325.004612 35.467273 
L 316.403233 35.467273 
z
" clip-path="url(#pa96a26ebcf)" style="fill: #b61f2e"/>
   </g>
   <g id="patch_27">
    <path d="M 340.510845 236.012727 
L 353.489257 236.012727 
L 353.489257 146.881414 
L 340.510845 146.881414 
z
" clip-path="url(#pa96a26ebcf)" style="fill: #dc6e57"/>
   </g>
   <g id="patch_28">
    <path d="M 325.004612 124.598586 
L 339.340244 124.598586 
L 339.340244 35.467273 
L 325.004612 35.467273 
z
" clip-path="url(#pa96a26ebcf)" style="fill: #dc6e57"/>
   </g>
   <g id="patch_29">
    <path d="M 353.489257 236.012727 
L 365.025624 236.012727 
L 365.025624 146.881414 
L 353.489257 146.881414 
z
" clip-path="url(#pa96a26ebcf)" style="fill: #f7b799"/>
   </g>
   <g id="patch_30">
    <path d="M 339.340244 124.598586 
L 352.242312 124.598586 
L 352.242312 35.467273 
L 339.340244 35.467273 
z
" clip-path="url(#pa96a26ebcf)" style="fill: #f7b799"/>
   </g>
   <g id="patch_31">
    <path d="M 365.025624 236.012727 
L 385.214264 236.012727 
L 385.214264 146.881414 
L 365.025624 146.881414 
z
" clip-path="url(#pa96a26ebcf)" style="fill: #fae7dc"/>
   </g>
   <g id="patch_32">
    <path d="M 352.242312 124.598586 
L 385.214264 124.598586 
L 385.214264 35.467273 
L 352.242312 35.467273 
z
" clip-path="url(#pa96a26ebcf)" style="fill: #fae7dc"/>
   </g>
   <g id="patch_33">
    <path d="M 385.214264 236.012727 
L 424.1495 236.012727 
L 424.1495 146.881414 
L 385.214264 146.881414 
z
" clip-path="url(#pa96a26ebcf)" style="fill: #e1edf3"/>
   </g>
   <g id="patch_34">
    <path d="M 385.214264 124.598586 
L 413.885527 124.598586 
L 413.885527 35.467273 
L 385.214264 35.467273 
z
" clip-path="url(#pa96a26ebcf)" style="fill: #e1edf3"/>
   </g>
   <g id="patch_35">
    <path d="M 424.1495 236.012727 
L 474.621102 236.012727 
L 474.621102 146.881414 
L 424.1495 146.881414 
z
" clip-path="url(#pa96a26ebcf)" style="fill: #a7d0e4"/>
   </g>
   <g id="patch_36">
    <path d="M 413.885527 124.598586 
L 468.360927 124.598586 
L 468.360927 35.467273 
L 413.885527 35.467273 
z
" clip-path="url(#pa96a26ebcf)" style="fill: #a7d0e4"/>
   </g>
   <g id="patch_37">
    <path d="M 474.621102 236.012727 
L 530.860887 236.012727 
L 530.860887 146.881414 
L 474.621102 146.881414 
z
" clip-path="url(#pa96a26ebcf)" style="fill: #529dc8"/>
   </g>
   <g id="patch_38">
    <path d="M 468.360927 124.598586 
L 527.137016 124.598586 
L 527.137016 35.467273 
L 468.360927 35.467273 
z
" clip-path="url(#pa96a26ebcf)" style="fill: #529dc8"/>
   </g>
   <g id="patch_39">
    <path d="M 530.860887 236.012727 
L 569.796123 236.012727 
L 569.796123 146.881414 
L 530.860887 146.881414 
z
" clip-path="url(#pa96a26ebcf)" style="fill: #246aae"/>
   </g>
   <g id="patch_40">
    <path d="M 527.137016 124.598586 
L 558.675406 124.598586 
L 558.675406 35.467273 
L 527.137016 35.467273 
z
" clip-path="url(#pa96a26ebcf)" style="fill: #246aae"/>
   </g>
   <g id="patch_41">
    <path d="M 569.796123 236.012727 
L 569.796123 236.012727 
L 569.796123 146.881414 
L 569.796123 146.881414 
z
" clip-path="url(#pa96a26ebcf)" style="fill: #053061"/>
   </g>
   <g id="patch_42">
    <path d="M 558.675406 124.598586 
L 558.675406 124.598586 
L 558.675406 35.467273 
L 558.675406 35.467273 
z
" clip-path="url(#pa96a26ebcf)" style="fill: #053061"/>
   </g>
   <g id="matplotlib.axis_1">
    <g id="xtick_1">
     <g id="line2d_3">
      <defs>
       <path id="m4c99cd72f3" d="M 0 0 
L 0 3.5 
" style="stroke: #000000; stroke-width: 0.8"/>
      </defs>
      <g>
       <use xlink:href="#m4c99cd72f3" x="141.508529" y="246.04" style="stroke: #000000; stroke-width: 0.8"/>
      </g>
     </g>
     <g id="text_1">
      <text style="font: 10px 'sans-serif'; text-anchor: middle" x="141.508529" y="260.213437" transform="rotate(-0, 141.508529, 260.213437)">100</text>
     </g>
    </g>
    <g id="xtick_2">
     <g id="line2d_4">
      <g>
       <use xlink:href="#m4c99cd72f3" x="165.879102" y="246.04" style="stroke: #000000; stroke-width: 0.8"/>
      </g>
     </g>
     <g id="text_2">
      <text style="font: 10px 'sans-serif'; text-anchor: middle" x="165.879102" y="260.213437" transform="rotate(-0, 165.879102, 260.213437)">90</text>
     </g>
    </g>
    <g id="xtick_3">
     <g id="line2d_5">
      <g>
       <use xlink:href="#m4c99cd72f3" x="190.249676" y="246.04" style="stroke: #000000; stroke-width: 0.8"/>
      </g>
     </g>
     <g id="text_3">
      <text style="font: 10px 'sans-serif'; text-anchor: middle" x="190.249676" y="260.213437" transform="rotate(-0, 190.249676, 260.213437)">80</text>
     </g>
    </g>
    <g id="xtick_4">
     <g id="line2d_6">
      <g>
       <use xlink:href="#m4c99cd72f3" x="214.620249" y="246.04" style="stroke: #000000; stroke-width: 0.8"/>
      </g>
     </g>
     <g id="text_4">
      <text style="font: 10px 'sans-serif'; text-anchor: middle" x="214.620249" y="260.213437" transform="rotate(-0, 214.620249, 260.213437)">70</text>
     </g>
    </g>
    <g id="xtick_5">
     <g id="line2d_7">
      <g>
       <use xlink:href="#m4c99cd72f3" x="238.990823" y="246.04" style="stroke: #000000; stroke-width: 0.8"/>
      </g>
     </g>
     <g id="text_5">
      <text style="font: 10px 'sans-serif'; text-anchor: middle" x="238.990823" y="260.213437" transform="rotate(-0, 238.990823, 260.213437)">60</text>
     </g>
    </g>
    <g id="xtick_6">
     <g id="line2d_8">
      <g>
       <use xlink:href="#m4c99cd72f3" x="263.361397" y="246.04" style="stroke: #000000; stroke-width: 0.8"/>
      </g>
     </g>
     <g id="text_6">
      <text style="font: 10px 'sans-serif'; text-anchor: middle" x="263.361397" y="260.213437" transform="rotate(-0, 263.361397, 260.213437)">50</text>
     </g>
    </g>
    <g id="xtick_7">
     <g id="line2d_9">
      <g>
       <use xlink:href="#m4c99cd72f3" x="287.73197" y="246.04" style="stroke: #000000; stroke-width: 0.8"/>
      </g>
     </g>
     <g id="text_7">
      <text style="font: 10px 'sans-serif'; text-anchor: middle" x="287.73197" y="260.213437" transform="rotate(-0, 287.73197, 260.213437)">40</text>
     </g>
    </g>
    <g id="xtick_8">
     <g id="line2d_10">
      <g>
       <use xlink:href="#m4c99cd72f3" x="312.102544" y="246.04" style="stroke: #000000; stroke-width: 0.8"/>
      </g>
     </g>
     <g id="text_8">
      <text style="font: 10px 'sans-serif'; text-anchor: middle" x="312.102544" y="260.213437" transform="rotate(-0, 312.102544, 260.213437)">30</text>
     </g>
    </g>
    <g id="xtick_9">
     <g id="line2d_11">
      <g>
       <use xlink:href="#m4c99cd72f3" x="336.473117" y="246.04" style="stroke: #000000; stroke-width: 0.8"/>
      </g>
     </g>
     <g id="text_9">
      <text style="font: 10px 'sans-serif'; text-anchor: middle" x="336.473117" y="260.213437" transform="rotate(-0, 336.473117, 260.213437)">20</text>
     </g>
    </g>
    <g id="xtick_10">
     <g id="line2d_12">
      <g>
       <use xlink:href="#m4c99cd72f3" x="360.843691" y="246.04" style="stroke: #000000; stroke-width: 0.8"/>
      </g>
     </g>
     <g id="text_10">
      <text style="font: 10px 'sans-serif'; text-anchor: middle" x="360.843691" y="260.213437" transform="rotate(-0, 360.843691, 260.213437)">10</text>
     </g>
    </g>
    <g id="xtick_11">
     <g id="line2d_13">
      <g>
       <use xlink:href="#m4c99cd72f3" x="385.214264" y="246.04" style="stroke: #000000; stroke-width: 0.8"/>
      </g>
     </g>
     <g id="text_11">
      <text style="font: 10px 'sans-serif'; text-anchor: middle" x="385.214264" y="260.213437" transform="rotate(-0, 385.214264, 260.213437)">0</text>
     </g>
    </g>
    <g id="xtick_12">
     <g id="line2d_14">
      <g>
       <use xlink:href="#m4c99cd72f3" x="409.584838" y="246.04" style="stroke: #000000; stroke-width: 0.8"/>
      </g>
     </g>
     <g id="text_12">
      <text style="font: 10px 'sans-serif'; text-anchor: middle" x="409.584838" y="260.213437" transform="rotate(-0, 409.584838, 260.213437)">10</text>
     </g>
    </g>
    <g id="xtick_13">
     <g id="line2d_15">
      <g>
       <use xlink:href="#m4c99cd72f3" x="433.955411" y="246.04" style="stroke: #000000; stroke-width: 0.8"/>
      </g>
     </g>
     <g id="text_13">
      <text style="font: 10px 'sans-serif'; text-anchor: middle" x="433.955411" y="260.213437" transform="rotate(-0, 433.955411, 260.213437)">20</text>
     </g>
    </g>
    <g id="xtick_14">
     <g id="line2d_16">
      <g>
       <use xlink:href="#m4c99cd72f3" x="458.325985" y="246.04" style="stroke: #000000; stroke-width: 0.8"/>
      </g>
     </g>
     <g id="text_14">
      <text style="font: 10px 'sans-serif'; text-anchor: middle" x="458.325985" y="260.213437" transform="rotate(-0, 458.325985, 260.213437)">30</text>
     </g>
    </g>
    <g id="xtick_15">
     <g id="line2d_17">
      <g>
       <use xlink:href="#m4c99cd72f3" x="482.696559" y="246.04" style="stroke: #000000; stroke-width: 0.8"/>
      </g>
     </g>
     <g id="text_15">
      <text style="font: 10px 'sans-serif'; text-anchor: middle" x="482.696559" y="260.213437" transform="rotate(-0, 482.696559, 260.213437)">40</text>
     </g>
    </g>
    <g id="xtick_16">
     <g id="line2d_18">
      <g>
       <use xlink:href="#m4c99cd72f3" x="507.067132" y="246.04" style="stroke: #000000; stroke-width: 0.8"/>
      </g>
     </g>
     <g id="text_16">
      <text style="font: 10px 'sans-serif'; text-anchor: middle" x="507.067132" y="260.213437" transform="rotate(-0, 507.067132, 260.213437)">50</text>
     </g>
    </g>
    <g id="xtick_17">
     <g id="line2d_19">
      <g>
       <use xlink:href="#m4c99cd72f3" x="531.437706" y="246.04" style="stroke: #000000; stroke-width: 0.8"/>
      </g>
     </g>
     <g id="text_17">
      <text style="font: 10px 'sans-serif'; text-anchor: middle" x="531.437706" y="260.213437" transform="rotate(-0, 531.437706, 260.213437)">60</text>
     </g>
    </g>
    <g id="xtick_18">
     <g id="line2d_20">
      <g>
       <use xlink:href="#m4c99cd72f3" x="555.808279" y="246.04" style="stroke: #000000; stroke-width: 0.8"/>
      </g>
     </g>
     <g id="text_18">
      <text style="font: 10px 'sans-serif'; text-anchor: middle" x="555.808279" y="260.213437" transform="rotate(-0, 555.808279, 260.213437)">70</text>
     </g>
    </g>
    <g id="xtick_19">
     <g id="line2d_21">
      <g>
       <use xlink:href="#m4c99cd72f3" x="580.178853" y="246.04" style="stroke: #000000; stroke-width: 0.8"/>
      </g>
     </g>
     <g id="text_19">
      <text style="font: 10px 'sans-serif'; text-anchor: middle" x="580.178853" y="260.213437" transform="rotate(-0, 580.178853, 260.213437)">80</text>
     </g>
    </g>
    <g id="xtick_20">
     <g id="line2d_22">
      <g>
       <use xlink:href="#m4c99cd72f3" x="604.549426" y="246.04" style="stroke: #000000; stroke-width: 0.8"/>
      </g>
     </g>
     <g id="text_20">
      <text style="font: 10px 'sans-serif'; text-anchor: middle" x="604.549426" y="260.213437" transform="rotate(-0, 604.549426, 260.213437)">90</text>
     </g>
    </g>
    <g id="xtick_21">
     <g id="line2d_23">
      <g>
       <use xlink:href="#m4c99cd72f3" x="628.92" y="246.04" style="stroke: #000000; stroke-width: 0.8"/>
      </g>
     </g>
     <g id="text_21">
      <text style="font: 10px 'sans-serif'; text-anchor: middle" x="628.92" y="260.213437" transform="rotate(-0, 628.92, 260.213437)">100</text>
     </g>
    </g>
    <g id="text_22">
     <text style="font: 10px 'sans-serif'; text-anchor: middle" x="384.605" y="273.47125" transform="rotate(-0, 384.605, 273.47125)">Percentage</text>
    </g>
   </g>
   <g id="matplotlib.axis_2">
    <g id="ytick_1">
     <g id="line2d_24">
      <defs>
       <path id="m8e343aef83" d="M 0 0 
L -3.5 0 
" style="stroke: #000000; stroke-width: 0.8"/>
      </defs>
      <g>
       <use xlink:href="#m8e343aef83" x="140.29" y="191.447071" style="stroke: #000000; stroke-width: 0.8"/>
      </g>
     </g>
     <g id="text_23">
      <text style="font: 11px 'sans-serif'" transform="translate(25.677344 184.344164)">satisGen1. In general,</text>
      <text style="font: 11px 'sans-serif'" transform="translate(29.962187 196.380914)">how satisfied are you</text>
      <text style="font: 11px 'sans-serif'" transform="translate(11.019844 208.238914)">with your current position</text>
     </g>
    </g>
    <g id="ytick_2">
     <g id="line2d_25">
      <g>
       <use xlink:href="#m8e343aef83" x="140.29" y="80.032929" style="stroke: #000000; stroke-width: 0.8"/>
      </g>
     </g>
     <g id="text_24">
      <text style="font: 11px 'sans-serif'" transform="translate(25.677344 72.930023)">satisGen2. In general,</text>
      <text style="font: 11px 'sans-serif'" transform="translate(29.962187 84.966773)">how satisfied are you</text>
      <text style="font: 11px 'sans-serif'" transform="translate(55.043906 96.824773)">with your career</text>
     </g>
    </g>
   </g>
   <g id="patch_43">
    <path d="M 140.29 246.04 
L 628.92 246.04 
" style="fill: none; stroke: #000000; stroke-width: 0.8; stroke-linejoin: miter; stroke-linecap: square"/>
   </g>
   <g id="text_25">
    <text style="font: 10px 'sans-serif'; text-anchor: middle" x="347.000051" y="191.447071" transform="rotate(-0, 347.000051, 191.447071)">5</text>
   </g>
   <g id="text_26">
    <text style="font: 10px 'sans-serif'; text-anchor: middle" x="332.172428" y="80.032929" transform="rotate(-0, 332.172428, 80.032929)">6</text>
   </g>
   <g id="text_27">
    <text style="font: 10px 'sans-serif'; text-anchor: middle" x="345.791278" y="80.032929" transform="rotate(-0, 345.791278, 80.032929)">5</text>
   </g>
   <g id="text_28">
    <text style="font: 10px 'sans-serif'; text-anchor: middle" x="375.119944" y="191.447071" transform="rotate(-0, 375.119944, 191.447071)">8</text>
   </g>
   <g id="text_29">
    <text style="font: 10px 'sans-serif'; text-anchor: middle" x="368.728288" y="80.032929" transform="rotate(-0, 368.728288, 80.032929)">14</text>
   </g>
   <g id="text_30">
    <text style="font: 10px 'sans-serif'; text-anchor: middle" x="404.681882" y="191.447071" transform="rotate(-0, 404.681882, 191.447071)">16</text>
   </g>
   <g id="text_31">
    <text style="font: 10px 'sans-serif'; text-anchor: middle" x="399.549896" y="80.032929" transform="rotate(-0, 399.549896, 80.032929)">12</text>
   </g>
   <g id="text_32">
    <text style="font: 10px 'sans-serif'; text-anchor: middle" x="449.385301" y="191.447071" transform="rotate(-0, 449.385301, 191.447071)">21</text>
   </g>
   <g id="text_33">
    <text style="font: 10px 'sans-serif'; text-anchor: middle" x="441.123227" y="80.032929" transform="rotate(-0, 441.123227, 80.032929)">22</text>
   </g>
   <g id="text_34">
    <text style="font: 10px 'sans-serif'; text-anchor: middle" x="502.740995" y="191.447071" transform="rotate(-0, 502.740995, 191.447071)">23</text>
   </g>
   <g id="text_35">
    <text style="font: 10px 'sans-serif'; text-anchor: middle" x="497.748972" y="80.032929" transform="rotate(-0, 497.748972, 80.032929)">24</text>
   </g>
   <g id="text_36">
    <text style="font: 10px 'sans-serif'; text-anchor: middle" x="550.328505" y="191.447071" transform="rotate(-0, 550.328505, 191.447071)">16</text>
   </g>
   <g id="text_37">
    <text style="font: 10px 'sans-serif'; text-anchor: middle" x="542.906211" y="80.032929" transform="rotate(-0, 542.906211, 80.032929)">13</text>
   </g>
   <g id="text_38">
    <text style="font: 10px 'sans-serif'; text-anchor: middle" x="347.000051" y="191.447071" transform="rotate(-0, 347.000051, 191.447071)">5</text>
   </g>
   <g id="text_39">
    <text style="font: 10px 'sans-serif'; text-anchor: middle" x="332.172428" y="80.032929" transform="rotate(-0, 332.172428, 80.032929)">6</text>
   </g>
   <g id="text_40">
    <text style="font: 10px 'sans-serif'; text-anchor: middle" x="345.791278" y="80.032929" transform="rotate(-0, 345.791278, 80.032929)">5</text>
   </g>
   <g id="text_41">
    <text style="font: 10px 'sans-serif'; text-anchor: middle" x="375.119944" y="191.447071" transform="rotate(-0, 375.119944, 191.447071)">8</text>
   </g>
   <g id="text_42">
    <text style="font: 10px 'sans-serif'; text-anchor: middle" x="368.728288" y="80.032929" transform="rotate(-0, 368.728288, 80.032929)">14</text>
   </g>
   <g id="text_43">
    <text style="font: 10px 'sans-serif'; text-anchor: middle" x="404.681882" y="191.447071" transform="rotate(-0, 404.681882, 191.447071)">16</text>
   </g>
   <g id="text_44">
    <text style="font: 10px 'sans-serif'; text-anchor: middle" x="399.549896" y="80.032929" transform="rotate(-0, 399.549896, 80.032929)">12</text>
   </g>
   <g id="text_45">
    <text style="font: 10px 'sans-serif'; text-anchor: middle" x="449.385301" y="191.447071" transform="rotate(-0, 449.385301, 191.447071)">21</text>
   </g>
   <g id="text_46">
    <text style="font: 10px 'sans-serif'; text-anchor: middle" x="441.123227" y="80.032929" transform="rotate(-0, 441.123227, 80.032929)">22</text>
   </g>
   <g id="text_47">
    <text style="font: 10px 'sans-serif'; text-anchor: middle" x="502.740995" y="191.447071" transform="rotate(-0, 502.740995, 191.447071)">23</text>
   </g>
   <g id="text_48">
    <text style="font: 10px 'sans-serif'; text-anchor: middle" x="497.748972" y="80.032929" transform="rotate(-0, 497.748972, 80.032929)">24</text>
   </g>
   <g id="text_49">
    <text style="font: 10px 'sans-serif'; text-anchor: middle" x="550.328505" y="191.447071" transform="rotate(-0, 550.328505, 191.447071)">16</text>
   </g>
   <g id="text_50">
    <text style="font: 10px 'sans-serif'; text-anchor: middle" x="542.906211" y="80.032929" transform="rotate(-0, 542.906211, 80.032929)">13</text>
   </g>
   <g id="text_51">
    <text style="font: 12px 'sans-serif'; text-anchor: middle" x="384.605" y="19.44" transform="rotate(-0, 384.605, 19.44)">General satisfaction</text>
   </g>
   <g id="legend_1">
    <g id="patch_44">
     <path d="M 147.29 241.04 
L 621.92 241.04 
Q 623.92 241.04 623.92 239.04 
L 623.92 225.782187 
Q 623.92 223.782187 621.92 223.782187 
L 147.29 223.782187 
Q 145.29 223.782187 145.29 225.782187 
L 145.29 239.04 
Q 145.29 241.04 147.29 241.04 
z
" style="fill: #ffffff; opacity: 0.8; stroke: #cccccc; stroke-linejoin: miter"/>
    </g>
    <g id="patch_45">
     <path d="M 149.29 234.955625 
L 169.29 234.955625 
L 169.29 227.955625 
L 149.29 227.955625 
z
" style="fill: #67001f"/>
    </g>
    <g id="text_52">
     <text style="font: 10px 'sans-serif'; text-anchor: start" x="177.29" y="234.955625" transform="rotate(-0, 177.29, 234.955625)">1</text>
    </g>
    <g id="patch_46">
     <path d="M 197.235347 234.955625 
L 217.235347 234.955625 
L 217.235347 227.955625 
L 197.235347 227.955625 
z
" style="fill: #b61f2e"/>
    </g>
    <g id="text_53">
     <text style="font: 10px 'sans-serif'; text-anchor: start" x="225.235347" y="234.955625" transform="rotate(-0, 225.235347, 234.955625)">2</text>
    </g>
    <g id="patch_47">
     <path d="M 245.180694 234.955625 
L 265.180694 234.955625 
L 265.180694 227.955625 
L 245.180694 227.955625 
z
" style="fill: #dc6e57"/>
    </g>
    <g id="text_54">
     <text style="font: 10px 'sans-serif'; text-anchor: start" x="273.180694" y="234.955625" transform="rotate(-0, 273.180694, 234.955625)">3</text>
    </g>
    <g id="patch_48">
     <path d="M 293.126042 234.955625 
L 313.126042 234.955625 
L 313.126042 227.955625 
L 293.126042 227.955625 
z
" style="fill: #f7b799"/>
    </g>
    <g id="text_55">
     <text style="font: 10px 'sans-serif'; text-anchor: start" x="321.126042" y="234.955625" transform="rotate(-0, 321.126042, 234.955625)">4</text>
    </g>
    <g id="patch_49">
     <path d="M 341.071389 234.955625 
L 361.071389 234.955625 
L 361.071389 227.955625 
L 341.071389 227.955625 
z
" style="fill: #fae7dc"/>
    </g>
    <g id="text_56">
     <text style="font: 10px 'sans-serif'; text-anchor: start" x="369.071389" y="234.955625" transform="rotate(-0, 369.071389, 234.955625)">5</text>
    </g>
    <g id="patch_50">
     <path d="M 389.016736 234.955625 
L 409.016736 234.955625 
L 409.016736 227.955625 
L 389.016736 227.955625 
z
" style="fill: #e1edf3"/>
    </g>
    <g id="text_57">
     <text style="font: 10px 'sans-serif'; text-anchor: start" x="417.016736" y="234.955625" transform="rotate(-0, 417.016736, 234.955625)">6</text>
    </g>
    <g id="patch_51">
     <path d="M 436.962083 234.955625 
L 456.962083 234.955625 
L 456.962083 227.955625 
L 436.962083 227.955625 
z
" style="fill: #a7d0e4"/>
    </g>
    <g id="text_58">
     <text style="font: 10px 'sans-serif'; text-anchor: start" x="464.962083" y="234.955625" transform="rotate(-0, 464.962083, 234.955625)">7</text>
    </g>
    <g id="patch_52">
     <path d="M 484.907431 234.955625 
L 504.907431 234.955625 
L 504.907431 227.955625 
L 484.907431 227.955625 
z
" style="fill: #529dc8"/>
    </g>
    <g id="text_59">
     <text style="font: 10px 'sans-serif'; text-anchor: start" x="512.907431" y="234.955625" transform="rotate(-0, 512.907431, 234.955625)">8</text>
    </g>
    <g id="patch_53">
     <path d="M 532.852778 234.955625 
L 552.852778 234.955625 
L 552.852778 227.955625 
L 532.852778 227.955625 
z
" style="fill: #246aae"/>
    </g>
    <g id="text_60">
     <text style="font: 10px 'sans-serif'; text-anchor: start" x="560.852778" y="234.955625" transform="rotate(-0, 560.852778, 234.955625)">9</text>
    </g>
    <g id="patch_54">
     <path d="M 580.798125 234.955625 
L 600.798125 234.955625 
L 600.798125 227.955625 
L 580.798125 227.955625 
z
" style="fill: #053061"/>
    </g>
    <g id="text_61">
     <text style="font: 10px 'sans-serif'; text-anchor: start" x="608.798125" y="234.955625" transform="rotate(-0, 608.798125, 234.955625)">10</text>
    </g>
   </g>
  </g>
 </g>
 <defs>
  <clipPath id="pa96a26ebcf">
   <rect x="140.29" y="25.44" width="488.63" height="220.6"/>
  </clipPath>
 </defs>
</svg>
