<?xml version="1.0" encoding="utf-8" standalone="no"?>
<!DOCTYPE svg PUBLIC "-//W3C//DTD SVG 1.1//EN"
  "http://www.w3.org/Graphics/SVG/1.1/DTD/svg11.dtd">
<svg xmlns:xlink="http://www.w3.org/1999/xlink" width="648pt" height="324pt" viewBox="0 0 648 324" xmlns="http://www.w3.org/2000/svg" version="1.1">
 <metadata>
  <rdf:RDF xmlns:dc="http://purl.org/dc/elements/1.1/" xmlns:cc="http://creativecommons.org/ns#" xmlns:rdf="http://www.w3.org/1999/02/22-rdf-syntax-ns#">
   <cc:Work>
    <dc:type rdf:resource="http://purl.org/dc/dcmitype/StillImage"/>
    <dc:date>2022-03-21T16:09:00.080350</dc:date>
    <dc:format>image/svg+xml</dc:format>
    <dc:creator>
     <cc:Agent>
      <dc:title>Matplotlib v3.5.1, https://matplotlib.org/</dc:title>
     </cc:Agent>
    </dc:creator>
   </cc:Work>
  </rdf:RDF>
 </metadata>
 <defs>
  <style type="text/css">*{stroke-linejoin: round; stroke-linecap: butt}</style>
 </defs>
 <g id="figure_1">
  <g id="patch_1">
   <path d="M 0 324 
L 648 324 
L 648 0 
L 0 0 
z
" style="fill: #ffffff"/>
  </g>
  <g id="axes_1">
   <g id="patch_2">
    <path d="M 211.006406 283.55625 
L 564.489532 283.55625 
L 564.489532 47.3175 
L 211.006406 47.3175 
z
" style="fill: #ffffff"/>
   </g>
   <g id="line2d_1">
    <path d="M 387.747969 283.55625 
L 387.747969 47.3175 
" clip-path="url(#p10aae10dab)" style="fill: none; stroke-dasharray: 5.55,2.4; stroke-dashoffset: 0; stroke: #000000; stroke-opacity: 0.5; stroke-width: 1.5"/>
   </g>
   <g id="line2d_2">
    <path d="M 387.747969 283.55625 
L 387.747969 47.3175 
" clip-path="url(#p10aae10dab)" style="fill: none; stroke-dasharray: 5.55,2.4; stroke-dashoffset: 0; stroke: #000000; stroke-opacity: 0.5; stroke-width: 1.5"/>
   </g>
   <g id="patch_3">
    <path d="M 387.747969 232.933661 
L 387.747969 232.933661 
L 387.747969 165.436875 
L 387.747969 165.436875 
z
" clip-path="url(#p10aae10dab)" style="fill: #67001f"/>
   </g>
   <g id="patch_4">
    <path d="M 299.816843 148.562679 
L 299.816843 148.562679 
L 299.816843 81.065893 
L 299.816843 81.065893 
z
" clip-path="url(#p10aae10dab)" style="fill: #67001f"/>
   </g>
   <g id="patch_5">
    <path d="M 387.747969 232.933661 
L 387.747969 232.933661 
L 387.747969 165.436875 
L 387.747969 165.436875 
z
" clip-path="url(#p10aae10dab)" style="fill: #b61f2e"/>
   </g>
   <g id="patch_6">
    <path d="M 299.816843 148.562679 
L 299.816843 148.562679 
L 299.816843 81.065893 
L 299.816843 81.065893 
z
" clip-path="url(#p10aae10dab)" style="fill: #b61f2e"/>
   </g>
   <g id="patch_7">
    <path d="M 387.747969 232.933661 
L 387.747969 232.933661 
L 387.747969 165.436875 
L 387.747969 165.436875 
z
" clip-path="url(#p10aae10dab)" style="fill: #dc6e57"/>
   </g>
   <g id="patch_8">
    <path d="M 299.816843 148.562679 
L 299.816843 148.562679 
L 299.816843 81.065893 
L 299.816843 81.065893 
z
" clip-path="url(#p10aae10dab)" style="fill: #dc6e57"/>
   </g>
   <g id="patch_9">
    <path d="M 387.747969 232.933661 
L 387.747969 232.933661 
L 387.747969 165.436875 
L 387.747969 165.436875 
z
" clip-path="url(#p10aae10dab)" style="fill: #f7b799"/>
   </g>
   <g id="patch_10">
    <path d="M 299.816843 148.562679 
L 299.816843 148.562679 
L 299.816843 81.065893 
L 299.816843 81.065893 
z
" clip-path="url(#p10aae10dab)" style="fill: #f7b799"/>
   </g>
   <g id="patch_11">
    <path d="M 387.747969 232.933661 
L 387.747969 232.933661 
L 387.747969 165.436875 
L 387.747969 165.436875 
z
" clip-path="url(#p10aae10dab)" style="fill: #fae7dc"/>
   </g>
   <g id="patch_12">
    <path d="M 299.816843 148.562679 
L 387.747969 148.562679 
L 387.747969 81.065893 
L 299.816843 81.065893 
z
" clip-path="url(#p10aae10dab)" style="fill: #fae7dc"/>
   </g>
   <g id="patch_13">
    <path d="M 387.747969 232.933661 
L 387.747969 232.933661 
L 387.747969 165.436875 
L 387.747969 165.436875 
z
" clip-path="url(#p10aae10dab)" style="fill: #e1edf3"/>
   </g>
   <g id="patch_14">
    <path d="M 387.747969 148.562679 
L 387.747969 148.562679 
L 387.747969 81.065893 
L 387.747969 81.065893 
z
" clip-path="url(#p10aae10dab)" style="fill: #e1edf3"/>
   </g>
   <g id="patch_15">
    <path d="M 387.747969 232.933661 
L 563.610221 232.933661 
L 563.610221 165.436875 
L 387.747969 165.436875 
z
" clip-path="url(#p10aae10dab)" style="fill: #a7d0e4"/>
   </g>
   <g id="patch_16">
    <path d="M 387.747969 148.562679 
L 475.679095 148.562679 
L 475.679095 81.065893 
L 387.747969 81.065893 
z
" clip-path="url(#p10aae10dab)" style="fill: #a7d0e4"/>
   </g>
   <g id="patch_17">
    <path d="M 563.610221 232.933661 
L 563.610221 232.933661 
L 563.610221 165.436875 
L 563.610221 165.436875 
z
" clip-path="url(#p10aae10dab)" style="fill: #529dc8"/>
   </g>
   <g id="patch_18">
    <path d="M 475.679095 148.562679 
L 475.679095 148.562679 
L 475.679095 81.065893 
L 475.679095 81.065893 
z
" clip-path="url(#p10aae10dab)" style="fill: #529dc8"/>
   </g>
   <g id="patch_19">
    <path d="M 563.610221 232.933661 
L 563.610221 232.933661 
L 563.610221 165.436875 
L 563.610221 165.436875 
z
" clip-path="url(#p10aae10dab)" style="fill: #246aae"/>
   </g>
   <g id="patch_20">
    <path d="M 475.679095 148.562679 
L 475.679095 148.562679 
L 475.679095 81.065893 
L 475.679095 81.065893 
z
" clip-path="url(#p10aae10dab)" style="fill: #246aae"/>
   </g>
   <g id="patch_21">
    <path d="M 563.610221 232.933661 
L 563.610221 232.933661 
L 563.610221 165.436875 
L 563.610221 165.436875 
z
" clip-path="url(#p10aae10dab)" style="fill: #053061"/>
   </g>
   <g id="patch_22">
    <path d="M 475.679095 148.562679 
L 475.679095 148.562679 
L 475.679095 81.065893 
L 475.679095 81.065893 
z
" clip-path="url(#p10aae10dab)" style="fill: #053061"/>
   </g>
   <g id="patch_23">
    <path d="M 387.747969 232.933661 
L 387.747969 232.933661 
L 387.747969 165.436875 
L 387.747969 165.436875 
z
" clip-path="url(#p10aae10dab)" style="fill: #67001f"/>
   </g>
   <g id="patch_24">
    <path d="M 299.816843 148.562679 
L 299.816843 148.562679 
L 299.816843 81.065893 
L 299.816843 81.065893 
z
" clip-path="url(#p10aae10dab)" style="fill: #67001f"/>
   </g>
   <g id="patch_25">
    <path d="M 387.747969 232.933661 
L 387.747969 232.933661 
L 387.747969 165.436875 
L 387.747969 165.436875 
z
" clip-path="url(#p10aae10dab)" style="fill: #b61f2e"/>
   </g>
   <g id="patch_26">
    <path d="M 299.816843 148.562679 
L 299.816843 148.562679 
L 299.816843 81.065893 
L 299.816843 81.065893 
z
" clip-path="url(#p10aae10dab)" style="fill: #b61f2e"/>
   </g>
   <g id="patch_27">
    <path d="M 387.747969 232.933661 
L 387.747969 232.933661 
L 387.747969 165.436875 
L 387.747969 165.436875 
z
" clip-path="url(#p10aae10dab)" style="fill: #dc6e57"/>
   </g>
   <g id="patch_28">
    <path d="M 299.816843 148.562679 
L 299.816843 148.562679 
L 299.816843 81.065893 
L 299.816843 81.065893 
z
" clip-path="url(#p10aae10dab)" style="fill: #dc6e57"/>
   </g>
   <g id="patch_29">
    <path d="M 387.747969 232.933661 
L 387.747969 232.933661 
L 387.747969 165.436875 
L 387.747969 165.436875 
z
" clip-path="url(#p10aae10dab)" style="fill: #f7b799"/>
   </g>
   <g id="patch_30">
    <path d="M 299.816843 148.562679 
L 299.816843 148.562679 
L 299.816843 81.065893 
L 299.816843 81.065893 
z
" clip-path="url(#p10aae10dab)" style="fill: #f7b799"/>
   </g>
   <g id="patch_31">
    <path d="M 387.747969 232.933661 
L 387.747969 232.933661 
L 387.747969 165.436875 
L 387.747969 165.436875 
z
" clip-path="url(#p10aae10dab)" style="fill: #fae7dc"/>
   </g>
   <g id="patch_32">
    <path d="M 299.816843 148.562679 
L 387.747969 148.562679 
L 387.747969 81.065893 
L 299.816843 81.065893 
z
" clip-path="url(#p10aae10dab)" style="fill: #fae7dc"/>
   </g>
   <g id="patch_33">
    <path d="M 387.747969 232.933661 
L 387.747969 232.933661 
L 387.747969 165.436875 
L 387.747969 165.436875 
z
" clip-path="url(#p10aae10dab)" style="fill: #e1edf3"/>
   </g>
   <g id="patch_34">
    <path d="M 387.747969 148.562679 
L 387.747969 148.562679 
L 387.747969 81.065893 
L 387.747969 81.065893 
z
" clip-path="url(#p10aae10dab)" style="fill: #e1edf3"/>
   </g>
   <g id="patch_35">
    <path d="M 387.747969 232.933661 
L 563.610221 232.933661 
L 563.610221 165.436875 
L 387.747969 165.436875 
z
" clip-path="url(#p10aae10dab)" style="fill: #a7d0e4"/>
   </g>
   <g id="patch_36">
    <path d="M 387.747969 148.562679 
L 475.679095 148.562679 
L 475.679095 81.065893 
L 387.747969 81.065893 
z
" clip-path="url(#p10aae10dab)" style="fill: #a7d0e4"/>
   </g>
   <g id="patch_37">
    <path d="M 563.610221 232.933661 
L 563.610221 232.933661 
L 563.610221 165.436875 
L 563.610221 165.436875 
z
" clip-path="url(#p10aae10dab)" style="fill: #529dc8"/>
   </g>
   <g id="patch_38">
    <path d="M 475.679095 148.562679 
L 475.679095 148.562679 
L 475.679095 81.065893 
L 475.679095 81.065893 
z
" clip-path="url(#p10aae10dab)" style="fill: #529dc8"/>
   </g>
   <g id="patch_39">
    <path d="M 563.610221 232.933661 
L 563.610221 232.933661 
L 563.610221 165.436875 
L 563.610221 165.436875 
z
" clip-path="url(#p10aae10dab)" style="fill: #246aae"/>
   </g>
   <g id="patch_40">
    <path d="M 475.679095 148.562679 
L 475.679095 148.562679 
L 475.679095 81.065893 
L 475.679095 81.065893 
z
" clip-path="url(#p10aae10dab)" style="fill: #246aae"/>
   </g>
   <g id="patch_41">
    <path d="M 563.610221 232.933661 
L 563.610221 232.933661 
L 563.610221 165.436875 
L 563.610221 165.436875 
z
" clip-path="url(#p10aae10dab)" style="fill: #053061"/>
   </g>
   <g id="patch_42">
    <path d="M 475.679095 148.562679 
L 475.679095 148.562679 
L 475.679095 81.065893 
L 475.679095 81.065893 
z
" clip-path="url(#p10aae10dab)" style="fill: #053061"/>
   </g>
   <g id="matplotlib.axis_1">
    <g id="xtick_1">
     <g id="line2d_3">
      <defs>
       <path id="m4c99cd72f3" d="M 0 0 
L 0 3.5 
" style="stroke: #000000; stroke-width: 0.8"/>
      </defs>
      <g>
       <use xlink:href="#m4c99cd72f3" x="211.885718" y="283.55625" style="stroke: #000000; stroke-width: 0.8"/>
      </g>
     </g>
     <g id="text_1">
      <text style="font: 10px 'sans-serif'; text-anchor: middle" x="211.885718" y="297.729688" transform="rotate(-0, 211.885718, 297.729688)">100</text>
     </g>
    </g>
    <g id="xtick_2">
     <g id="line2d_4">
      <g>
       <use xlink:href="#m4c99cd72f3" x="229.471943" y="283.55625" style="stroke: #000000; stroke-width: 0.8"/>
      </g>
     </g>
     <g id="text_2">
      <text style="font: 10px 'sans-serif'; text-anchor: middle" x="229.471943" y="297.729688" transform="rotate(-0, 229.471943, 297.729688)">90</text>
     </g>
    </g>
    <g id="xtick_3">
     <g id="line2d_5">
      <g>
       <use xlink:href="#m4c99cd72f3" x="247.058168" y="283.55625" style="stroke: #000000; stroke-width: 0.8"/>
      </g>
     </g>
     <g id="text_3">
      <text style="font: 10px 'sans-serif'; text-anchor: middle" x="247.058168" y="297.729688" transform="rotate(-0, 247.058168, 297.729688)">80</text>
     </g>
    </g>
    <g id="xtick_4">
     <g id="line2d_6">
      <g>
       <use xlink:href="#m4c99cd72f3" x="264.644393" y="283.55625" style="stroke: #000000; stroke-width: 0.8"/>
      </g>
     </g>
     <g id="text_4">
      <text style="font: 10px 'sans-serif'; text-anchor: middle" x="264.644393" y="297.729688" transform="rotate(-0, 264.644393, 297.729688)">70</text>
     </g>
    </g>
    <g id="xtick_5">
     <g id="line2d_7">
      <g>
       <use xlink:href="#m4c99cd72f3" x="282.230618" y="283.55625" style="stroke: #000000; stroke-width: 0.8"/>
      </g>
     </g>
     <g id="text_5">
      <text style="font: 10px 'sans-serif'; text-anchor: middle" x="282.230618" y="297.729688" transform="rotate(-0, 282.230618, 297.729688)">60</text>
     </g>
    </g>
    <g id="xtick_6">
     <g id="line2d_8">
      <g>
       <use xlink:href="#m4c99cd72f3" x="299.816843" y="283.55625" style="stroke: #000000; stroke-width: 0.8"/>
      </g>
     </g>
     <g id="text_6">
      <text style="font: 10px 'sans-serif'; text-anchor: middle" x="299.816843" y="297.729688" transform="rotate(-0, 299.816843, 297.729688)">50</text>
     </g>
    </g>
    <g id="xtick_7">
     <g id="line2d_9">
      <g>
       <use xlink:href="#m4c99cd72f3" x="317.403069" y="283.55625" style="stroke: #000000; stroke-width: 0.8"/>
      </g>
     </g>
     <g id="text_7">
      <text style="font: 10px 'sans-serif'; text-anchor: middle" x="317.403069" y="297.729688" transform="rotate(-0, 317.403069, 297.729688)">40</text>
     </g>
    </g>
    <g id="xtick_8">
     <g id="line2d_10">
      <g>
       <use xlink:href="#m4c99cd72f3" x="334.989294" y="283.55625" style="stroke: #000000; stroke-width: 0.8"/>
      </g>
     </g>
     <g id="text_8">
      <text style="font: 10px 'sans-serif'; text-anchor: middle" x="334.989294" y="297.729688" transform="rotate(-0, 334.989294, 297.729688)">30</text>
     </g>
    </g>
    <g id="xtick_9">
     <g id="line2d_11">
      <g>
       <use xlink:href="#m4c99cd72f3" x="352.575519" y="283.55625" style="stroke: #000000; stroke-width: 0.8"/>
      </g>
     </g>
     <g id="text_9">
      <text style="font: 10px 'sans-serif'; text-anchor: middle" x="352.575519" y="297.729688" transform="rotate(-0, 352.575519, 297.729688)">20</text>
     </g>
    </g>
    <g id="xtick_10">
     <g id="line2d_12">
      <g>
       <use xlink:href="#m4c99cd72f3" x="370.161744" y="283.55625" style="stroke: #000000; stroke-width: 0.8"/>
      </g>
     </g>
     <g id="text_10">
      <text style="font: 10px 'sans-serif'; text-anchor: middle" x="370.161744" y="297.729688" transform="rotate(-0, 370.161744, 297.729688)">10</text>
     </g>
    </g>
    <g id="xtick_11">
     <g id="line2d_13">
      <g>
       <use xlink:href="#m4c99cd72f3" x="387.747969" y="283.55625" style="stroke: #000000; stroke-width: 0.8"/>
      </g>
     </g>
     <g id="text_11">
      <text style="font: 10px 'sans-serif'; text-anchor: middle" x="387.747969" y="297.729688" transform="rotate(-0, 387.747969, 297.729688)">0</text>
     </g>
    </g>
    <g id="xtick_12">
     <g id="line2d_14">
      <g>
       <use xlink:href="#m4c99cd72f3" x="405.334194" y="283.55625" style="stroke: #000000; stroke-width: 0.8"/>
      </g>
     </g>
     <g id="text_12">
      <text style="font: 10px 'sans-serif'; text-anchor: middle" x="405.334194" y="297.729688" transform="rotate(-0, 405.334194, 297.729688)">10</text>
     </g>
    </g>
    <g id="xtick_13">
     <g id="line2d_15">
      <g>
       <use xlink:href="#m4c99cd72f3" x="422.920419" y="283.55625" style="stroke: #000000; stroke-width: 0.8"/>
      </g>
     </g>
     <g id="text_13">
      <text style="font: 10px 'sans-serif'; text-anchor: middle" x="422.920419" y="297.729688" transform="rotate(-0, 422.920419, 297.729688)">20</text>
     </g>
    </g>
    <g id="xtick_14">
     <g id="line2d_16">
      <g>
       <use xlink:href="#m4c99cd72f3" x="440.506645" y="283.55625" style="stroke: #000000; stroke-width: 0.8"/>
      </g>
     </g>
     <g id="text_14">
      <text style="font: 10px 'sans-serif'; text-anchor: middle" x="440.506645" y="297.729688" transform="rotate(-0, 440.506645, 297.729688)">30</text>
     </g>
    </g>
    <g id="xtick_15">
     <g id="line2d_17">
      <g>
       <use xlink:href="#m4c99cd72f3" x="458.09287" y="283.55625" style="stroke: #000000; stroke-width: 0.8"/>
      </g>
     </g>
     <g id="text_15">
      <text style="font: 10px 'sans-serif'; text-anchor: middle" x="458.09287" y="297.729688" transform="rotate(-0, 458.09287, 297.729688)">40</text>
     </g>
    </g>
    <g id="xtick_16">
     <g id="line2d_18">
      <g>
       <use xlink:href="#m4c99cd72f3" x="475.679095" y="283.55625" style="stroke: #000000; stroke-width: 0.8"/>
      </g>
     </g>
     <g id="text_16">
      <text style="font: 10px 'sans-serif'; text-anchor: middle" x="475.679095" y="297.729688" transform="rotate(-0, 475.679095, 297.729688)">50</text>
     </g>
    </g>
    <g id="xtick_17">
     <g id="line2d_19">
      <g>
       <use xlink:href="#m4c99cd72f3" x="493.26532" y="283.55625" style="stroke: #000000; stroke-width: 0.8"/>
      </g>
     </g>
     <g id="text_17">
      <text style="font: 10px 'sans-serif'; text-anchor: middle" x="493.26532" y="297.729688" transform="rotate(-0, 493.26532, 297.729688)">60</text>
     </g>
    </g>
    <g id="xtick_18">
     <g id="line2d_20">
      <g>
       <use xlink:href="#m4c99cd72f3" x="510.851545" y="283.55625" style="stroke: #000000; stroke-width: 0.8"/>
      </g>
     </g>
     <g id="text_18">
      <text style="font: 10px 'sans-serif'; text-anchor: middle" x="510.851545" y="297.729688" transform="rotate(-0, 510.851545, 297.729688)">70</text>
     </g>
    </g>
    <g id="xtick_19">
     <g id="line2d_21">
      <g>
       <use xlink:href="#m4c99cd72f3" x="528.43777" y="283.55625" style="stroke: #000000; stroke-width: 0.8"/>
      </g>
     </g>
     <g id="text_19">
      <text style="font: 10px 'sans-serif'; text-anchor: middle" x="528.43777" y="297.729688" transform="rotate(-0, 528.43777, 297.729688)">80</text>
     </g>
    </g>
    <g id="xtick_20">
     <g id="line2d_22">
      <g>
       <use xlink:href="#m4c99cd72f3" x="546.023996" y="283.55625" style="stroke: #000000; stroke-width: 0.8"/>
      </g>
     </g>
     <g id="text_20">
      <text style="font: 10px 'sans-serif'; text-anchor: middle" x="546.023996" y="297.729688" transform="rotate(-0, 546.023996, 297.729688)">90</text>
     </g>
    </g>
    <g id="xtick_21">
     <g id="line2d_23">
      <g>
       <use xlink:href="#m4c99cd72f3" x="563.610221" y="283.55625" style="stroke: #000000; stroke-width: 0.8"/>
      </g>
     </g>
     <g id="text_21">
      <text style="font: 10px 'sans-serif'; text-anchor: middle" x="563.610221" y="297.729688" transform="rotate(-0, 563.610221, 297.729688)">100</text>
     </g>
    </g>
    <g id="text_22">
     <text style="font: 10px 'sans-serif'; text-anchor: middle" x="387.747969" y="310.9875" transform="rotate(-0, 387.747969, 310.9875)">Percentage</text>
    </g>
   </g>
   <g id="matplotlib.axis_2">
    <g id="ytick_1">
     <g id="line2d_24">
      <defs>
       <path id="m8e343aef83" d="M 0 0 
L -3.5 0 
" style="stroke: #000000; stroke-width: 0.8"/>
      </defs>
      <g>
       <use xlink:href="#m8e343aef83" x="211.006406" y="199.185268" style="stroke: #000000; stroke-width: 0.8"/>
      </g>
     </g>
     <g id="text_23">
      <text style="font: 11px 'sans-serif'" transform="translate(10.8 198.062924)">satisGen1. In general, how satisfied are</text>
      <text style="font: 11px 'sans-serif'" transform="translate(60.94625 209.996549)">you with your current position</text>
     </g>
    </g>
    <g id="ytick_2">
     <g id="line2d_25">
      <g>
       <use xlink:href="#m8e343aef83" x="211.006406" y="114.814286" style="stroke: #000000; stroke-width: 0.8"/>
      </g>
     </g>
     <g id="text_24">
      <text style="font: 11px 'sans-serif'" transform="translate(10.8 113.691942)">satisGen2. In general, how satisfied are</text>
      <text style="font: 11px 'sans-serif'" transform="translate(104.970313 125.625567)">you with your career</text>
     </g>
    </g>
   </g>
   <g id="patch_43">
    <path d="M 211.006406 283.55625 
L 564.489532 283.55625 
" style="fill: none; stroke: #000000; stroke-width: 0.8; stroke-linejoin: miter; stroke-linecap: square"/>
   </g>
   <g id="text_25">
    <text style="font: 10px 'sans-serif'; text-anchor: middle" x="343.782406" y="114.814286" transform="rotate(-0, 343.782406, 114.814286)">50</text>
   </g>
   <g id="text_26">
    <text style="font: 10px 'sans-serif'; text-anchor: middle" x="475.679095" y="199.185268" transform="rotate(-0, 475.679095, 199.185268)">100</text>
   </g>
   <g id="text_27">
    <text style="font: 10px 'sans-serif'; text-anchor: middle" x="431.713532" y="114.814286" transform="rotate(-0, 431.713532, 114.814286)">50</text>
   </g>
   <g id="text_28">
    <text style="font: 10px 'sans-serif'; text-anchor: middle" x="343.782406" y="114.814286" transform="rotate(-0, 343.782406, 114.814286)">50</text>
   </g>
   <g id="text_29">
    <text style="font: 10px 'sans-serif'; text-anchor: middle" x="475.679095" y="199.185268" transform="rotate(-0, 475.679095, 199.185268)">100</text>
   </g>
   <g id="text_30">
    <text style="font: 10px 'sans-serif'; text-anchor: middle" x="431.713532" y="114.814286" transform="rotate(-0, 431.713532, 114.814286)">50</text>
   </g>
   <g id="text_31">
    <text style="font: 12px 'sans-serif'; text-anchor: middle" x="387.747969" y="41.3175" transform="rotate(-0, 387.747969, 41.3175)">General satisfaction</text>
   </g>
   <g id="legend_1">
    <g id="patch_44">
     <path d="M 218.006406 278.55625 
L 557.489532 278.55625 
Q 559.489532 278.55625 559.489532 276.55625 
L 559.489532 263.298437 
Q 559.489532 261.298437 557.489532 261.298437 
L 218.006406 261.298437 
Q 216.006406 261.298437 216.006406 263.298437 
L 216.006406 276.55625 
Q 216.006406 278.55625 218.006406 278.55625 
z
" style="fill: #ffffff; opacity: 0.8; stroke: #cccccc; stroke-linejoin: miter"/>
    </g>
    <g id="patch_45">
     <path d="M 220.006406 272.471875 
L 240.006406 272.471875 
L 240.006406 265.471875 
L 220.006406 265.471875 
z
" style="fill: #67001f"/>
    </g>
    <g id="text_32">
     <text style="font: 10px 'sans-serif'; text-anchor: start" x="248.006406" y="272.471875" transform="rotate(-0, 248.006406, 272.471875)">1</text>
    </g>
    <g id="patch_46">
     <path d="M 252.935434 272.471875 
L 272.935434 272.471875 
L 272.935434 265.471875 
L 252.935434 265.471875 
z
" style="fill: #b61f2e"/>
    </g>
    <g id="text_33">
     <text style="font: 10px 'sans-serif'; text-anchor: start" x="280.935434" y="272.471875" transform="rotate(-0, 280.935434, 272.471875)">2</text>
    </g>
    <g id="patch_47">
     <path d="M 285.864462 272.471875 
L 305.864462 272.471875 
L 305.864462 265.471875 
L 285.864462 265.471875 
z
" style="fill: #dc6e57"/>
    </g>
    <g id="text_34">
     <text style="font: 10px 'sans-serif'; text-anchor: start" x="313.864462" y="272.471875" transform="rotate(-0, 313.864462, 272.471875)">3</text>
    </g>
    <g id="patch_48">
     <path d="M 318.79349 272.471875 
L 338.79349 272.471875 
L 338.79349 265.471875 
L 318.79349 265.471875 
z
" style="fill: #f7b799"/>
    </g>
    <g id="text_35">
     <text style="font: 10px 'sans-serif'; text-anchor: start" x="346.79349" y="272.471875" transform="rotate(-0, 346.79349, 272.471875)">4</text>
    </g>
    <g id="patch_49">
     <path d="M 351.722518 272.471875 
L 371.722518 272.471875 
L 371.722518 265.471875 
L 351.722518 265.471875 
z
" style="fill: #fae7dc"/>
    </g>
    <g id="text_36">
     <text style="font: 10px 'sans-serif'; text-anchor: start" x="379.722518" y="272.471875" transform="rotate(-0, 379.722518, 272.471875)">5</text>
    </g>
    <g id="patch_50">
     <path d="M 384.651546 272.471875 
L 404.651546 272.471875 
L 404.651546 265.471875 
L 384.651546 265.471875 
z
" style="fill: #e1edf3"/>
    </g>
    <g id="text_37">
     <text style="font: 10px 'sans-serif'; text-anchor: start" x="412.651546" y="272.471875" transform="rotate(-0, 412.651546, 272.471875)">6</text>
    </g>
    <g id="patch_51">
     <path d="M 417.580573 272.471875 
L 437.580573 272.471875 
L 437.580573 265.471875 
L 417.580573 265.471875 
z
" style="fill: #a7d0e4"/>
    </g>
    <g id="text_38">
     <text style="font: 10px 'sans-serif'; text-anchor: start" x="445.580573" y="272.471875" transform="rotate(-0, 445.580573, 272.471875)">7</text>
    </g>
    <g id="patch_52">
     <path d="M 450.509601 272.471875 
L 470.509601 272.471875 
L 470.509601 265.471875 
L 450.509601 265.471875 
z
" style="fill: #529dc8"/>
    </g>
    <g id="text_39">
     <text style="font: 10px 'sans-serif'; text-anchor: start" x="478.509601" y="272.471875" transform="rotate(-0, 478.509601, 272.471875)">8</text>
    </g>
    <g id="patch_53">
     <path d="M 483.438629 272.471875 
L 503.438629 272.471875 
L 503.438629 265.471875 
L 483.438629 265.471875 
z
" style="fill: #246aae"/>
    </g>
    <g id="text_40">
     <text style="font: 10px 'sans-serif'; text-anchor: start" x="511.438629" y="272.471875" transform="rotate(-0, 511.438629, 272.471875)">9</text>
    </g>
    <g id="patch_54">
     <path d="M 516.367657 272.471875 
L 536.367657 272.471875 
L 536.367657 265.471875 
L 516.367657 265.471875 
z
" style="fill: #053061"/>
    </g>
    <g id="text_41">
     <text style="font: 10px 'sans-serif'; text-anchor: start" x="544.367657" y="272.471875" transform="rotate(-0, 544.367657, 272.471875)">10</text>
    </g>
   </g>
  </g>
  <g id="text_42">
   <text style="font: 12px 'sans-serif'; text-anchor: middle" x="324" y="15.088125" transform="rotate(-0, 324, 15.088125)">General satisfaction: South Africa</text>
  </g>
 </g>
 <defs>
  <clipPath id="p10aae10dab">
   <rect x="211.006406" y="47.3175" width="353.483126" height="236.23875"/>
  </clipPath>
 </defs>
</svg>
