<?xml version="1.0" encoding="utf-8" standalone="no"?>
<!DOCTYPE svg PUBLIC "-//W3C//DTD SVG 1.1//EN"
  "http://www.w3.org/Graphics/SVG/1.1/DTD/svg11.dtd">
<svg height="288pt" version="1.1" viewBox="0 0 648 288" width="648pt" xmlns="http://www.w3.org/2000/svg" xmlns:xlink="http://www.w3.org/1999/xlink">
 <metadata>
  <rdf:RDF xmlns:cc="http://creativecommons.org/ns#" xmlns:dc="http://purl.org/dc/elements/1.1/" xmlns:rdf="http://www.w3.org/1999/02/22-rdf-syntax-ns#">
   <cc:Work>
    <dc:type rdf:resource="http://purl.org/dc/dcmitype/StillImage"/>
    <dc:date>2021-08-04T21:04:59.251686</dc:date>
    <dc:format>image/svg+xml</dc:format>
    <dc:creator>
     <cc:Agent>
      <dc:title>Matplotlib v3.4.2, https://matplotlib.org/</dc:title>
     </cc:Agent>
    </dc:creator>
   </cc:Work>
  </rdf:RDF>
 </metadata>
 <defs>
  <style type="text/css">*{stroke-linecap:butt;stroke-linejoin:round;}</style>
 </defs>
 <g id="figure_1">
  <g id="patch_1">
   <path d="M 0 288 
L 648 288 
L 648 0 
L 0 0 
z
" style="fill:#ffffff;"/>
  </g>
  <g id="axes_1">
   <g id="patch_2">
    <path d="M 357.1225 247.792188 
L 628.858594 247.792188 
L 628.858594 47.450625 
L 357.1225 47.450625 
z
" style="fill:#ffffff;"/>
   </g>
   <g id="line2d_1">
    <path clip-path="url(#pefd4e51436)" d="M 493.32937 247.792188 
L 493.32937 47.450625 
" style="fill:none;stroke:#000000;stroke-dasharray:5.55,2.4;stroke-dashoffset:0;stroke-opacity:0.5;stroke-width:1.5;"/>
   </g>
   <g id="line2d_2">
    <path clip-path="url(#pefd4e51436)" d="M 493.32937 247.792188 
L 493.32937 47.450625 
" style="fill:none;stroke:#000000;stroke-dasharray:5.55,2.4;stroke-dashoffset:0;stroke-opacity:0.5;stroke-width:1.5;"/>
   </g>
   <g id="patch_3">
    <path clip-path="url(#pefd4e51436)" d="M 465.363022 238.685753 
L 466.438651 238.685753 
L 466.438651 157.739667 
L 465.363022 157.739667 
z
" style="fill:#67001f;"/>
   </g>
   <g id="patch_4">
    <path clip-path="url(#pefd4e51436)" d="M 467.097907 137.503146 
L 469.283862 137.503146 
L 469.283862 56.55706 
L 467.097907 56.55706 
z
" style="fill:#67001f;"/>
   </g>
   <g id="patch_5">
    <path clip-path="url(#pefd4e51436)" d="M 466.438651 238.685753 
L 470.741166 238.685753 
L 470.741166 157.739667 
L 466.438651 157.739667 
z
" style="fill:#b61f2e;"/>
   </g>
   <g id="patch_6">
    <path clip-path="url(#pefd4e51436)" d="M 469.283862 137.503146 
L 473.655773 137.503146 
L 473.655773 56.55706 
L 469.283862 56.55706 
z
" style="fill:#b61f2e;"/>
   </g>
   <g id="patch_7">
    <path clip-path="url(#pefd4e51436)" d="M 470.741166 238.685753 
L 475.043681 238.685753 
L 475.043681 157.739667 
L 470.741166 157.739667 
z
" style="fill:#dc6e57;"/>
   </g>
   <g id="patch_8">
    <path clip-path="url(#pefd4e51436)" d="M 473.655773 137.503146 
L 479.120661 137.503146 
L 479.120661 56.55706 
L 473.655773 56.55706 
z
" style="fill:#dc6e57;"/>
   </g>
   <g id="patch_9">
    <path clip-path="url(#pefd4e51436)" d="M 475.043681 238.685753 
L 485.799969 238.685753 
L 485.799969 157.739667 
L 475.043681 157.739667 
z
" style="fill:#f7b799;"/>
   </g>
   <g id="patch_10">
    <path clip-path="url(#pefd4e51436)" d="M 479.120661 137.503146 
L 484.585549 137.503146 
L 484.585549 56.55706 
L 479.120661 56.55706 
z
" style="fill:#f7b799;"/>
   </g>
   <g id="patch_11">
    <path clip-path="url(#pefd4e51436)" d="M 485.799969 238.685753 
L 493.32937 238.685753 
L 493.32937 157.739667 
L 485.799969 157.739667 
z
" style="fill:#fae7dc;"/>
   </g>
   <g id="patch_12">
    <path clip-path="url(#pefd4e51436)" d="M 484.585549 137.503146 
L 493.32937 137.503146 
L 493.32937 56.55706 
L 484.585549 56.55706 
z
" style="fill:#fae7dc;"/>
   </g>
   <g id="patch_13">
    <path clip-path="url(#pefd4e51436)" d="M 493.32937 238.685753 
L 506.236915 238.685753 
L 506.236915 157.739667 
L 493.32937 157.739667 
z
" style="fill:#e1edf3;"/>
   </g>
   <g id="patch_14">
    <path clip-path="url(#pefd4e51436)" d="M 493.32937 137.503146 
L 508.631056 137.503146 
L 508.631056 56.55706 
L 493.32937 56.55706 
z
" style="fill:#e1edf3;"/>
   </g>
   <g id="patch_15">
    <path clip-path="url(#pefd4e51436)" d="M 506.236915 238.685753 
L 539.581407 238.685753 
L 539.581407 157.739667 
L 506.236915 157.739667 
z
" style="fill:#a7d0e4;"/>
   </g>
   <g id="patch_16">
    <path clip-path="url(#pefd4e51436)" d="M 508.631056 137.503146 
L 547.978251 137.503146 
L 547.978251 56.55706 
L 508.631056 56.55706 
z
" style="fill:#a7d0e4;"/>
   </g>
   <g id="patch_17">
    <path clip-path="url(#pefd4e51436)" d="M 539.581407 238.685753 
L 575.077156 238.685753 
L 575.077156 157.739667 
L 539.581407 157.739667 
z
" style="fill:#529dc8;"/>
   </g>
   <g id="patch_18">
    <path clip-path="url(#pefd4e51436)" d="M 547.978251 137.503146 
L 578.581624 137.503146 
L 578.581624 56.55706 
L 547.978251 56.55706 
z
" style="fill:#529dc8;"/>
   </g>
   <g id="patch_19">
    <path clip-path="url(#pefd4e51436)" d="M 575.077156 238.685753 
L 600.892246 238.685753 
L 600.892246 157.739667 
L 575.077156 157.739667 
z
" style="fill:#246aae;"/>
   </g>
   <g id="patch_20">
    <path clip-path="url(#pefd4e51436)" d="M 578.581624 137.503146 
L 602.627131 137.503146 
L 602.627131 56.55706 
L 578.581624 56.55706 
z
" style="fill:#246aae;"/>
   </g>
   <g id="patch_21">
    <path clip-path="url(#pefd4e51436)" d="M 600.892246 238.685753 
L 600.892246 238.685753 
L 600.892246 157.739667 
L 600.892246 157.739667 
z
" style="fill:#053061;"/>
   </g>
   <g id="patch_22">
    <path clip-path="url(#pefd4e51436)" d="M 602.627131 137.503146 
L 602.627131 137.503146 
L 602.627131 56.55706 
L 602.627131 56.55706 
z
" style="fill:#053061;"/>
   </g>
   <g id="patch_23">
    <path clip-path="url(#pefd4e51436)" d="M 465.363022 238.685753 
L 466.438651 238.685753 
L 466.438651 157.739667 
L 465.363022 157.739667 
z
" style="fill:#67001f;"/>
   </g>
   <g id="patch_24">
    <path clip-path="url(#pefd4e51436)" d="M 467.097907 137.503146 
L 469.283862 137.503146 
L 469.283862 56.55706 
L 467.097907 56.55706 
z
" style="fill:#67001f;"/>
   </g>
   <g id="patch_25">
    <path clip-path="url(#pefd4e51436)" d="M 466.438651 238.685753 
L 470.741166 238.685753 
L 470.741166 157.739667 
L 466.438651 157.739667 
z
" style="fill:#b61f2e;"/>
   </g>
   <g id="patch_26">
    <path clip-path="url(#pefd4e51436)" d="M 469.283862 137.503146 
L 473.655773 137.503146 
L 473.655773 56.55706 
L 469.283862 56.55706 
z
" style="fill:#b61f2e;"/>
   </g>
   <g id="patch_27">
    <path clip-path="url(#pefd4e51436)" d="M 470.741166 238.685753 
L 475.043681 238.685753 
L 475.043681 157.739667 
L 470.741166 157.739667 
z
" style="fill:#dc6e57;"/>
   </g>
   <g id="patch_28">
    <path clip-path="url(#pefd4e51436)" d="M 473.655773 137.503146 
L 479.120661 137.503146 
L 479.120661 56.55706 
L 473.655773 56.55706 
z
" style="fill:#dc6e57;"/>
   </g>
   <g id="patch_29">
    <path clip-path="url(#pefd4e51436)" d="M 475.043681 238.685753 
L 485.799969 238.685753 
L 485.799969 157.739667 
L 475.043681 157.739667 
z
" style="fill:#f7b799;"/>
   </g>
   <g id="patch_30">
    <path clip-path="url(#pefd4e51436)" d="M 479.120661 137.503146 
L 484.585549 137.503146 
L 484.585549 56.55706 
L 479.120661 56.55706 
z
" style="fill:#f7b799;"/>
   </g>
   <g id="patch_31">
    <path clip-path="url(#pefd4e51436)" d="M 485.799969 238.685753 
L 493.32937 238.685753 
L 493.32937 157.739667 
L 485.799969 157.739667 
z
" style="fill:#fae7dc;"/>
   </g>
   <g id="patch_32">
    <path clip-path="url(#pefd4e51436)" d="M 484.585549 137.503146 
L 493.32937 137.503146 
L 493.32937 56.55706 
L 484.585549 56.55706 
z
" style="fill:#fae7dc;"/>
   </g>
   <g id="patch_33">
    <path clip-path="url(#pefd4e51436)" d="M 493.32937 238.685753 
L 506.236915 238.685753 
L 506.236915 157.739667 
L 493.32937 157.739667 
z
" style="fill:#e1edf3;"/>
   </g>
   <g id="patch_34">
    <path clip-path="url(#pefd4e51436)" d="M 493.32937 137.503146 
L 508.631056 137.503146 
L 508.631056 56.55706 
L 493.32937 56.55706 
z
" style="fill:#e1edf3;"/>
   </g>
   <g id="patch_35">
    <path clip-path="url(#pefd4e51436)" d="M 506.236915 238.685753 
L 539.581407 238.685753 
L 539.581407 157.739667 
L 506.236915 157.739667 
z
" style="fill:#a7d0e4;"/>
   </g>
   <g id="patch_36">
    <path clip-path="url(#pefd4e51436)" d="M 508.631056 137.503146 
L 547.978251 137.503146 
L 547.978251 56.55706 
L 508.631056 56.55706 
z
" style="fill:#a7d0e4;"/>
   </g>
   <g id="patch_37">
    <path clip-path="url(#pefd4e51436)" d="M 539.581407 238.685753 
L 575.077156 238.685753 
L 575.077156 157.739667 
L 539.581407 157.739667 
z
" style="fill:#529dc8;"/>
   </g>
   <g id="patch_38">
    <path clip-path="url(#pefd4e51436)" d="M 547.978251 137.503146 
L 578.581624 137.503146 
L 578.581624 56.55706 
L 547.978251 56.55706 
z
" style="fill:#529dc8;"/>
   </g>
   <g id="patch_39">
    <path clip-path="url(#pefd4e51436)" d="M 575.077156 238.685753 
L 600.892246 238.685753 
L 600.892246 157.739667 
L 575.077156 157.739667 
z
" style="fill:#246aae;"/>
   </g>
   <g id="patch_40">
    <path clip-path="url(#pefd4e51436)" d="M 578.581624 137.503146 
L 602.627131 137.503146 
L 602.627131 56.55706 
L 578.581624 56.55706 
z
" style="fill:#246aae;"/>
   </g>
   <g id="patch_41">
    <path clip-path="url(#pefd4e51436)" d="M 600.892246 238.685753 
L 600.892246 238.685753 
L 600.892246 157.739667 
L 600.892246 157.739667 
z
" style="fill:#053061;"/>
   </g>
   <g id="patch_42">
    <path clip-path="url(#pefd4e51436)" d="M 602.627131 137.503146 
L 602.627131 137.503146 
L 602.627131 56.55706 
L 602.627131 56.55706 
z
" style="fill:#053061;"/>
   </g>
   <g id="matplotlib.axis_1">
    <g id="xtick_1">
     <g id="line2d_3">
      <defs>
       <path d="M 0 0 
L 0 3.5 
" id="mc3a356a46d" style="stroke:#000000;stroke-width:0.8;"/>
      </defs>
      <g>
       <use style="stroke:#000000;stroke-width:0.8;" x="357.800146" xlink:href="#mc3a356a46d" y="247.792188"/>
      </g>
     </g>
     <g id="text_1">
      <text style="font-family:Arial;font-size:10px;font-stretch:normal;font-style:normal;font-weight:normal;text-anchor:middle;" transform="rotate(-0, 357.800146, 261.95)" x="357.800146" y="261.95">100</text>
     </g>
    </g>
    <g id="xtick_2">
     <g id="line2d_4">
      <g>
       <use style="stroke:#000000;stroke-width:0.8;" x="371.353069" xlink:href="#mc3a356a46d" y="247.792188"/>
      </g>
     </g>
     <g id="text_2">
      <text style="font-family:Arial;font-size:10px;font-stretch:normal;font-style:normal;font-weight:normal;text-anchor:middle;" transform="rotate(-0, 371.353069, 261.95)" x="371.353069" y="261.95">90</text>
     </g>
    </g>
    <g id="xtick_3">
     <g id="line2d_5">
      <g>
       <use style="stroke:#000000;stroke-width:0.8;" x="384.905991" xlink:href="#mc3a356a46d" y="247.792188"/>
      </g>
     </g>
     <g id="text_3">
      <text style="font-family:Arial;font-size:10px;font-stretch:normal;font-style:normal;font-weight:normal;text-anchor:middle;" transform="rotate(-0, 384.905991, 261.95)" x="384.905991" y="261.95">80</text>
     </g>
    </g>
    <g id="xtick_4">
     <g id="line2d_6">
      <g>
       <use style="stroke:#000000;stroke-width:0.8;" x="398.458913" xlink:href="#mc3a356a46d" y="247.792188"/>
      </g>
     </g>
     <g id="text_4">
      <text style="font-family:Arial;font-size:10px;font-stretch:normal;font-style:normal;font-weight:normal;text-anchor:middle;" transform="rotate(-0, 398.458913, 261.95)" x="398.458913" y="261.95">70</text>
     </g>
    </g>
    <g id="xtick_5">
     <g id="line2d_7">
      <g>
       <use style="stroke:#000000;stroke-width:0.8;" x="412.011836" xlink:href="#mc3a356a46d" y="247.792188"/>
      </g>
     </g>
     <g id="text_5">
      <text style="font-family:Arial;font-size:10px;font-stretch:normal;font-style:normal;font-weight:normal;text-anchor:middle;" transform="rotate(-0, 412.011836, 261.95)" x="412.011836" y="261.95">60</text>
     </g>
    </g>
    <g id="xtick_6">
     <g id="line2d_8">
      <g>
       <use style="stroke:#000000;stroke-width:0.8;" x="425.564758" xlink:href="#mc3a356a46d" y="247.792188"/>
      </g>
     </g>
     <g id="text_6">
      <text style="font-family:Arial;font-size:10px;font-stretch:normal;font-style:normal;font-weight:normal;text-anchor:middle;" transform="rotate(-0, 425.564758, 261.95)" x="425.564758" y="261.95">50</text>
     </g>
    </g>
    <g id="xtick_7">
     <g id="line2d_9">
      <g>
       <use style="stroke:#000000;stroke-width:0.8;" x="439.11768" xlink:href="#mc3a356a46d" y="247.792188"/>
      </g>
     </g>
     <g id="text_7">
      <text style="font-family:Arial;font-size:10px;font-stretch:normal;font-style:normal;font-weight:normal;text-anchor:middle;" transform="rotate(-0, 439.11768, 261.95)" x="439.11768" y="261.95">40</text>
     </g>
    </g>
    <g id="xtick_8">
     <g id="line2d_10">
      <g>
       <use style="stroke:#000000;stroke-width:0.8;" x="452.670603" xlink:href="#mc3a356a46d" y="247.792188"/>
      </g>
     </g>
     <g id="text_8">
      <text style="font-family:Arial;font-size:10px;font-stretch:normal;font-style:normal;font-weight:normal;text-anchor:middle;" transform="rotate(-0, 452.670603, 261.95)" x="452.670603" y="261.95">30</text>
     </g>
    </g>
    <g id="xtick_9">
     <g id="line2d_11">
      <g>
       <use style="stroke:#000000;stroke-width:0.8;" x="466.223525" xlink:href="#mc3a356a46d" y="247.792188"/>
      </g>
     </g>
     <g id="text_9">
      <text style="font-family:Arial;font-size:10px;font-stretch:normal;font-style:normal;font-weight:normal;text-anchor:middle;" transform="rotate(-0, 466.223525, 261.95)" x="466.223525" y="261.95">20</text>
     </g>
    </g>
    <g id="xtick_10">
     <g id="line2d_12">
      <g>
       <use style="stroke:#000000;stroke-width:0.8;" x="479.776448" xlink:href="#mc3a356a46d" y="247.792188"/>
      </g>
     </g>
     <g id="text_10">
      <text style="font-family:Arial;font-size:10px;font-stretch:normal;font-style:normal;font-weight:normal;text-anchor:middle;" transform="rotate(-0, 479.776448, 261.95)" x="479.776448" y="261.95">10</text>
     </g>
    </g>
    <g id="xtick_11">
     <g id="line2d_13">
      <g>
       <use style="stroke:#000000;stroke-width:0.8;" x="493.32937" xlink:href="#mc3a356a46d" y="247.792188"/>
      </g>
     </g>
     <g id="text_11">
      <text style="font-family:Arial;font-size:10px;font-stretch:normal;font-style:normal;font-weight:normal;text-anchor:middle;" transform="rotate(-0, 493.32937, 261.95)" x="493.32937" y="261.95">0</text>
     </g>
    </g>
    <g id="xtick_12">
     <g id="line2d_14">
      <g>
       <use style="stroke:#000000;stroke-width:0.8;" x="506.882292" xlink:href="#mc3a356a46d" y="247.792188"/>
      </g>
     </g>
     <g id="text_12">
      <text style="font-family:Arial;font-size:10px;font-stretch:normal;font-style:normal;font-weight:normal;text-anchor:middle;" transform="rotate(-0, 506.882292, 261.95)" x="506.882292" y="261.95">10</text>
     </g>
    </g>
    <g id="xtick_13">
     <g id="line2d_15">
      <g>
       <use style="stroke:#000000;stroke-width:0.8;" x="520.435215" xlink:href="#mc3a356a46d" y="247.792188"/>
      </g>
     </g>
     <g id="text_13">
      <text style="font-family:Arial;font-size:10px;font-stretch:normal;font-style:normal;font-weight:normal;text-anchor:middle;" transform="rotate(-0, 520.435215, 261.95)" x="520.435215" y="261.95">20</text>
     </g>
    </g>
    <g id="xtick_14">
     <g id="line2d_16">
      <g>
       <use style="stroke:#000000;stroke-width:0.8;" x="533.988137" xlink:href="#mc3a356a46d" y="247.792188"/>
      </g>
     </g>
     <g id="text_14">
      <text style="font-family:Arial;font-size:10px;font-stretch:normal;font-style:normal;font-weight:normal;text-anchor:middle;" transform="rotate(-0, 533.988137, 261.95)" x="533.988137" y="261.95">30</text>
     </g>
    </g>
    <g id="xtick_15">
     <g id="line2d_17">
      <g>
       <use style="stroke:#000000;stroke-width:0.8;" x="547.541059" xlink:href="#mc3a356a46d" y="247.792188"/>
      </g>
     </g>
     <g id="text_15">
      <text style="font-family:Arial;font-size:10px;font-stretch:normal;font-style:normal;font-weight:normal;text-anchor:middle;" transform="rotate(-0, 547.541059, 261.95)" x="547.541059" y="261.95">40</text>
     </g>
    </g>
    <g id="xtick_16">
     <g id="line2d_18">
      <g>
       <use style="stroke:#000000;stroke-width:0.8;" x="561.093982" xlink:href="#mc3a356a46d" y="247.792188"/>
      </g>
     </g>
     <g id="text_16">
      <text style="font-family:Arial;font-size:10px;font-stretch:normal;font-style:normal;font-weight:normal;text-anchor:middle;" transform="rotate(-0, 561.093982, 261.95)" x="561.093982" y="261.95">50</text>
     </g>
    </g>
    <g id="xtick_17">
     <g id="line2d_19">
      <g>
       <use style="stroke:#000000;stroke-width:0.8;" x="574.646904" xlink:href="#mc3a356a46d" y="247.792188"/>
      </g>
     </g>
     <g id="text_17">
      <text style="font-family:Arial;font-size:10px;font-stretch:normal;font-style:normal;font-weight:normal;text-anchor:middle;" transform="rotate(-0, 574.646904, 261.95)" x="574.646904" y="261.95">60</text>
     </g>
    </g>
    <g id="xtick_18">
     <g id="line2d_20">
      <g>
       <use style="stroke:#000000;stroke-width:0.8;" x="588.199827" xlink:href="#mc3a356a46d" y="247.792188"/>
      </g>
     </g>
     <g id="text_18">
      <text style="font-family:Arial;font-size:10px;font-stretch:normal;font-style:normal;font-weight:normal;text-anchor:middle;" transform="rotate(-0, 588.199827, 261.95)" x="588.199827" y="261.95">70</text>
     </g>
    </g>
    <g id="xtick_19">
     <g id="line2d_21">
      <g>
       <use style="stroke:#000000;stroke-width:0.8;" x="601.752749" xlink:href="#mc3a356a46d" y="247.792188"/>
      </g>
     </g>
     <g id="text_19">
      <text style="font-family:Arial;font-size:10px;font-stretch:normal;font-style:normal;font-weight:normal;text-anchor:middle;" transform="rotate(-0, 601.752749, 261.95)" x="601.752749" y="261.95">80</text>
     </g>
    </g>
    <g id="xtick_20">
     <g id="line2d_22">
      <g>
       <use style="stroke:#000000;stroke-width:0.8;" x="615.305671" xlink:href="#mc3a356a46d" y="247.792188"/>
      </g>
     </g>
     <g id="text_20">
      <text style="font-family:Arial;font-size:10px;font-stretch:normal;font-style:normal;font-weight:normal;text-anchor:middle;" transform="rotate(-0, 615.305671, 261.95)" x="615.305671" y="261.95">90</text>
     </g>
    </g>
    <g id="xtick_21">
     <g id="line2d_23">
      <g>
       <use style="stroke:#000000;stroke-width:0.8;" x="628.858594" xlink:href="#mc3a356a46d" y="247.792188"/>
      </g>
     </g>
     <g id="text_21">
      <text style="font-family:Arial;font-size:10px;font-stretch:normal;font-style:normal;font-weight:normal;text-anchor:middle;" transform="rotate(-0, 628.858594, 261.95)" x="628.858594" y="261.95">100</text>
     </g>
    </g>
    <g id="text_22">
     <text style="font-family:Arial;font-size:10px;font-stretch:normal;font-style:normal;font-weight:normal;text-anchor:middle;" transform="rotate(-0, 492.990547, 275.095312)" x="492.990547" y="275.095312">Percentage</text>
    </g>
   </g>
   <g id="matplotlib.axis_2">
    <g id="ytick_1">
     <g id="line2d_24">
      <defs>
       <path d="M 0 0 
L -3.5 0 
" id="m82278324de" style="stroke:#000000;stroke-width:0.8;"/>
      </defs>
      <g>
       <use style="stroke:#000000;stroke-width:0.8;" x="357.1225" xlink:href="#m82278324de" y="198.21271"/>
      </g>
     </g>
     <g id="text_23">
      <text style="font-family:Arial;font-size:11px;font-stretch:normal;font-style:normal;font-weight:normal;text-anchor:end;" transform="rotate(-0, 350.1225, 202.216538)" x="350.1225" y="202.216538">satisGen1. In general, how satisfied are you with your current position</text>
     </g>
    </g>
    <g id="ytick_2">
     <g id="line2d_25">
      <g>
       <use style="stroke:#000000;stroke-width:0.8;" x="357.1225" xlink:href="#m82278324de" y="97.030103"/>
      </g>
     </g>
     <g id="text_24">
      <text style="font-family:Arial;font-size:11px;font-stretch:normal;font-style:normal;font-weight:normal;text-anchor:end;" transform="rotate(-0, 350.1225, 101.033931)" x="350.1225" y="101.033931">satisGen2. In general, how satisfied are you with your career</text>
     </g>
    </g>
   </g>
   <g id="patch_43">
    <path d="M 357.1225 247.792188 
L 628.858594 247.792188 
" style="fill:none;stroke:#000000;stroke-linecap:square;stroke-linejoin:miter;stroke-width:0.8;"/>
   </g>
   <g id="text_25">
    <text style="font-family:Arial;font-size:10px;font-stretch:normal;font-style:normal;font-weight:normal;text-anchor:middle;" transform="rotate(-0, 480.421825, 198.21271)" x="480.421825" y="198.21271">8</text>
   </g>
   <g id="text_26">
    <text style="font-family:Arial;font-size:10px;font-stretch:normal;font-style:normal;font-weight:normal;text-anchor:middle;" transform="rotate(-0, 489.564669, 198.21271)" x="489.564669" y="198.21271">6</text>
   </g>
   <g id="text_27">
    <text style="font-family:Arial;font-size:10px;font-stretch:normal;font-style:normal;font-weight:normal;text-anchor:middle;" transform="rotate(-0, 488.957459, 97.030103)" x="488.957459" y="97.030103">6</text>
   </g>
   <g id="text_28">
    <text style="font-family:Arial;font-size:10px;font-stretch:normal;font-style:normal;font-weight:normal;text-anchor:middle;" transform="rotate(-0, 499.783142, 198.21271)" x="499.783142" y="198.21271">10</text>
   </g>
   <g id="text_29">
    <text style="font-family:Arial;font-size:10px;font-stretch:normal;font-style:normal;font-weight:normal;text-anchor:middle;" transform="rotate(-0, 500.980213, 97.030103)" x="500.980213" y="97.030103">11</text>
   </g>
   <g id="text_30">
    <text style="font-family:Arial;font-size:10px;font-stretch:normal;font-style:normal;font-weight:normal;text-anchor:middle;" transform="rotate(-0, 522.909161, 198.21271)" x="522.909161" y="198.21271">25</text>
   </g>
   <g id="text_31">
    <text style="font-family:Arial;font-size:10px;font-stretch:normal;font-style:normal;font-weight:normal;text-anchor:middle;" transform="rotate(-0, 528.304653, 97.030103)" x="528.304653" y="97.030103">29</text>
   </g>
   <g id="text_32">
    <text style="font-family:Arial;font-size:10px;font-stretch:normal;font-style:normal;font-weight:normal;text-anchor:middle;" transform="rotate(-0, 557.329281, 198.21271)" x="557.329281" y="198.21271">26</text>
   </g>
   <g id="text_33">
    <text style="font-family:Arial;font-size:10px;font-stretch:normal;font-style:normal;font-weight:normal;text-anchor:middle;" transform="rotate(-0, 563.279937, 97.030103)" x="563.279937" y="97.030103">23</text>
   </g>
   <g id="text_34">
    <text style="font-family:Arial;font-size:10px;font-stretch:normal;font-style:normal;font-weight:normal;text-anchor:middle;" transform="rotate(-0, 587.984701, 198.21271)" x="587.984701" y="198.21271">19</text>
   </g>
   <g id="text_35">
    <text style="font-family:Arial;font-size:10px;font-stretch:normal;font-style:normal;font-weight:normal;text-anchor:middle;" transform="rotate(-0, 590.604377, 97.030103)" x="590.604377" y="97.030103">18</text>
   </g>
   <g id="text_36">
    <text style="font-family:Arial;font-size:10px;font-stretch:normal;font-style:normal;font-weight:normal;text-anchor:middle;" transform="rotate(-0, 480.421825, 198.21271)" x="480.421825" y="198.21271">8</text>
   </g>
   <g id="text_37">
    <text style="font-family:Arial;font-size:10px;font-stretch:normal;font-style:normal;font-weight:normal;text-anchor:middle;" transform="rotate(-0, 489.564669, 198.21271)" x="489.564669" y="198.21271">6</text>
   </g>
   <g id="text_38">
    <text style="font-family:Arial;font-size:10px;font-stretch:normal;font-style:normal;font-weight:normal;text-anchor:middle;" transform="rotate(-0, 488.957459, 97.030103)" x="488.957459" y="97.030103">6</text>
   </g>
   <g id="text_39">
    <text style="font-family:Arial;font-size:10px;font-stretch:normal;font-style:normal;font-weight:normal;text-anchor:middle;" transform="rotate(-0, 499.783142, 198.21271)" x="499.783142" y="198.21271">10</text>
   </g>
   <g id="text_40">
    <text style="font-family:Arial;font-size:10px;font-stretch:normal;font-style:normal;font-weight:normal;text-anchor:middle;" transform="rotate(-0, 500.980213, 97.030103)" x="500.980213" y="97.030103">11</text>
   </g>
   <g id="text_41">
    <text style="font-family:Arial;font-size:10px;font-stretch:normal;font-style:normal;font-weight:normal;text-anchor:middle;" transform="rotate(-0, 522.909161, 198.21271)" x="522.909161" y="198.21271">25</text>
   </g>
   <g id="text_42">
    <text style="font-family:Arial;font-size:10px;font-stretch:normal;font-style:normal;font-weight:normal;text-anchor:middle;" transform="rotate(-0, 528.304653, 97.030103)" x="528.304653" y="97.030103">29</text>
   </g>
   <g id="text_43">
    <text style="font-family:Arial;font-size:10px;font-stretch:normal;font-style:normal;font-weight:normal;text-anchor:middle;" transform="rotate(-0, 557.329281, 198.21271)" x="557.329281" y="198.21271">26</text>
   </g>
   <g id="text_44">
    <text style="font-family:Arial;font-size:10px;font-stretch:normal;font-style:normal;font-weight:normal;text-anchor:middle;" transform="rotate(-0, 563.279937, 97.030103)" x="563.279937" y="97.030103">23</text>
   </g>
   <g id="text_45">
    <text style="font-family:Arial;font-size:10px;font-stretch:normal;font-style:normal;font-weight:normal;text-anchor:middle;" transform="rotate(-0, 587.984701, 198.21271)" x="587.984701" y="198.21271">19</text>
   </g>
   <g id="text_46">
    <text style="font-family:Arial;font-size:10px;font-stretch:normal;font-style:normal;font-weight:normal;text-anchor:middle;" transform="rotate(-0, 590.604377, 97.030103)" x="590.604377" y="97.030103">18</text>
   </g>
   <g id="text_47">
    <text style="font-family:Arial;font-size:12px;font-stretch:normal;font-style:normal;font-weight:normal;text-anchor:middle;" transform="rotate(-0, 492.990547, 41.450625)" x="492.990547" y="41.450625">Perceived employability</text>
   </g>
   <g id="legend_1">
    <g id="patch_44">
     <path d="M 364.1225 242.792188 
L 621.858594 242.792188 
Q 623.858594 242.792188 623.858594 240.792188 
L 623.858594 227.646875 
Q 623.858594 225.646875 621.858594 225.646875 
L 364.1225 225.646875 
Q 362.1225 225.646875 362.1225 227.646875 
L 362.1225 240.792188 
Q 362.1225 242.792188 364.1225 242.792188 
z
" style="fill:#ffffff;opacity:0.8;stroke:#cccccc;stroke-linejoin:miter;"/>
    </g>
    <g id="patch_45">
     <path d="M 366.1225 236.804688 
L 386.1225 236.804688 
L 386.1225 229.804688 
L 366.1225 229.804688 
z
" style="fill:#67001f;"/>
    </g>
    <g id="text_48">
     <text style="font-family:Arial;font-size:10px;font-stretch:normal;font-style:normal;font-weight:normal;text-anchor:start;" transform="rotate(-0, 394.1225, 236.804688)" x="394.1225" y="236.804688">1</text>
    </g>
    <g id="patch_46">
     <path d="M 389.968524 236.804688 
L 409.968524 236.804688 
L 409.968524 229.804688 
L 389.968524 229.804688 
z
" style="fill:#b61f2e;"/>
    </g>
    <g id="text_49">
     <text style="font-family:Arial;font-size:10px;font-stretch:normal;font-style:normal;font-weight:normal;text-anchor:start;" transform="rotate(-0, 417.968524, 236.804688)" x="417.968524" y="236.804688">2</text>
    </g>
    <g id="patch_47">
     <path d="M 413.814549 236.804688 
L 433.814549 236.804688 
L 433.814549 229.804688 
L 413.814549 229.804688 
z
" style="fill:#dc6e57;"/>
    </g>
    <g id="text_50">
     <text style="font-family:Arial;font-size:10px;font-stretch:normal;font-style:normal;font-weight:normal;text-anchor:start;" transform="rotate(-0, 441.814549, 236.804688)" x="441.814549" y="236.804688">3</text>
    </g>
    <g id="patch_48">
     <path d="M 437.660573 236.804688 
L 457.660573 236.804688 
L 457.660573 229.804688 
L 437.660573 229.804688 
z
" style="fill:#f7b799;"/>
    </g>
    <g id="text_51">
     <text style="font-family:Arial;font-size:10px;font-stretch:normal;font-style:normal;font-weight:normal;text-anchor:start;" transform="rotate(-0, 465.660573, 236.804688)" x="465.660573" y="236.804688">4</text>
    </g>
    <g id="patch_49">
     <path d="M 461.506597 236.804688 
L 481.506597 236.804688 
L 481.506597 229.804688 
L 461.506597 229.804688 
z
" style="fill:#fae7dc;"/>
    </g>
    <g id="text_52">
     <text style="font-family:Arial;font-size:10px;font-stretch:normal;font-style:normal;font-weight:normal;text-anchor:start;" transform="rotate(-0, 489.506597, 236.804688)" x="489.506597" y="236.804688">5</text>
    </g>
    <g id="patch_50">
     <path d="M 485.352622 236.804688 
L 505.352622 236.804688 
L 505.352622 229.804688 
L 485.352622 229.804688 
z
" style="fill:#e1edf3;"/>
    </g>
    <g id="text_53">
     <text style="font-family:Arial;font-size:10px;font-stretch:normal;font-style:normal;font-weight:normal;text-anchor:start;" transform="rotate(-0, 513.352622, 236.804688)" x="513.352622" y="236.804688">6</text>
    </g>
    <g id="patch_51">
     <path d="M 509.198646 236.804688 
L 529.198646 236.804688 
L 529.198646 229.804688 
L 509.198646 229.804688 
z
" style="fill:#a7d0e4;"/>
    </g>
    <g id="text_54">
     <text style="font-family:Arial;font-size:10px;font-stretch:normal;font-style:normal;font-weight:normal;text-anchor:start;" transform="rotate(-0, 537.198646, 236.804688)" x="537.198646" y="236.804688">7</text>
    </g>
    <g id="patch_52">
     <path d="M 533.04467 236.804688 
L 553.04467 236.804688 
L 553.04467 229.804688 
L 533.04467 229.804688 
z
" style="fill:#529dc8;"/>
    </g>
    <g id="text_55">
     <text style="font-family:Arial;font-size:10px;font-stretch:normal;font-style:normal;font-weight:normal;text-anchor:start;" transform="rotate(-0, 561.04467, 236.804688)" x="561.04467" y="236.804688">8</text>
    </g>
    <g id="patch_53">
     <path d="M 556.890694 236.804688 
L 576.890694 236.804688 
L 576.890694 229.804688 
L 556.890694 229.804688 
z
" style="fill:#246aae;"/>
    </g>
    <g id="text_56">
     <text style="font-family:Arial;font-size:10px;font-stretch:normal;font-style:normal;font-weight:normal;text-anchor:start;" transform="rotate(-0, 584.890694, 236.804688)" x="584.890694" y="236.804688">9</text>
    </g>
    <g id="patch_54">
     <path d="M 580.736719 236.804688 
L 600.736719 236.804688 
L 600.736719 229.804688 
L 580.736719 229.804688 
z
" style="fill:#053061;"/>
    </g>
    <g id="text_57">
     <text style="font-family:Arial;font-size:10px;font-stretch:normal;font-style:normal;font-weight:normal;text-anchor:start;" transform="rotate(-0, 608.736719, 236.804688)" x="608.736719" y="236.804688">10</text>
    </g>
   </g>
  </g>
  <g id="text_58">
   <text style="font-family:Arial;font-size:12px;font-stretch:normal;font-style:normal;font-weight:normal;text-anchor:middle;" transform="rotate(-0, 324, 14.495625)" x="324" y="14.495625">Perceived employability: United States</text>
  </g>
 </g>
 <defs>
  <clipPath id="pefd4e51436">
   <rect height="200.341563" width="271.736094" x="357.1225" y="47.450625"/>
  </clipPath>
 </defs>
</svg>
