<?xml version="1.0" encoding="utf-8" standalone="no"?>
<!DOCTYPE svg PUBLIC "-//W3C//DTD SVG 1.1//EN"
  "http://www.w3.org/Graphics/SVG/1.1/DTD/svg11.dtd">
<svg xmlns:xlink="http://www.w3.org/1999/xlink" width="648pt" height="288pt" viewBox="0 0 648 288" xmlns="http://www.w3.org/2000/svg" version="1.1">
 <metadata>
  <rdf:RDF xmlns:dc="http://purl.org/dc/elements/1.1/" xmlns:cc="http://creativecommons.org/ns#" xmlns:rdf="http://www.w3.org/1999/02/22-rdf-syntax-ns#">
   <cc:Work>
    <dc:type rdf:resource="http://purl.org/dc/dcmitype/StillImage"/>
    <dc:date>2022-03-21T12:06:53.462302</dc:date>
    <dc:format>image/svg+xml</dc:format>
    <dc:creator>
     <cc:Agent>
      <dc:title>Matplotlib v3.5.1, https://matplotlib.org/</dc:title>
     </cc:Agent>
    </dc:creator>
   </cc:Work>
  </rdf:RDF>
 </metadata>
 <defs>
  <style type="text/css">*{stroke-linejoin: round; stroke-linecap: butt}</style>
 </defs>
 <g id="figure_1">
  <g id="patch_1">
   <path d="M 0 288 
L 648 288 
L 648 0 
L 0 0 
z
" style="fill: #ffffff"/>
  </g>
  <g id="axes_1">
   <g id="patch_2">
    <path d="M 81 256.32 
L 583.2 256.32 
L 583.2 34.56 
L 81 34.56 
z
" style="fill: #ffffff"/>
   </g>
   <g id="line2d_1">
    <path d="M 332.726185 256.32 
L 332.726185 34.56 
" clip-path="url(#p759a6061cf)" style="fill: none; stroke-dasharray: 5.55,2.4; stroke-dashoffset: 0; stroke: #000000; stroke-opacity: 0.5; stroke-width: 1.5"/>
   </g>
   <g id="line2d_2">
    <path d="M 332.726185 256.32 
L 332.726185 34.56 
" clip-path="url(#p759a6061cf)" style="fill: none; stroke-dasharray: 5.55,2.4; stroke-dashoffset: 0; stroke: #000000; stroke-opacity: 0.5; stroke-width: 1.5"/>
   </g>
   <g id="patch_3">
    <path d="M 236.773529 246.24 
L 259.20402 246.24 
L 259.20402 156.64 
L 236.773529 156.64 
z
" clip-path="url(#p759a6061cf)" style="fill: #67001f"/>
   </g>
   <g id="patch_4">
    <path d="M 303.630741 134.24 
L 304.895761 134.24 
L 304.895761 44.64 
L 303.630741 44.64 
z
" clip-path="url(#p759a6061cf)" style="fill: #67001f"/>
   </g>
   <g id="patch_5">
    <path d="M 259.20402 246.24 
L 305.31114 246.24 
L 305.31114 156.64 
L 259.20402 156.64 
z
" clip-path="url(#p759a6061cf)" style="fill: #e58368"/>
   </g>
   <g id="patch_6">
    <path d="M 304.895761 134.24 
L 311.220857 134.24 
L 311.220857 44.64 
L 304.895761 44.64 
z
" clip-path="url(#p759a6061cf)" style="fill: #e58368"/>
   </g>
   <g id="patch_7">
    <path d="M 305.31114 246.24 
L 360.141229 246.24 
L 360.141229 156.64 
L 305.31114 156.64 
z
" clip-path="url(#p759a6061cf)" style="fill: #f6f7f7"/>
   </g>
   <g id="patch_8">
    <path d="M 311.220857 134.24 
L 354.231512 134.24 
L 354.231512 44.64 
L 311.220857 44.64 
z
" clip-path="url(#p759a6061cf)" style="fill: #f6f7f7"/>
   </g>
   <g id="patch_9">
    <path d="M 360.141229 246.24 
L 444.878639 246.24 
L 444.878639 156.64 
L 360.141229 156.64 
z
" clip-path="url(#p759a6061cf)" style="fill: #68abd0"/>
   </g>
   <g id="patch_10">
    <path d="M 354.231512 134.24 
L 475.673362 134.24 
L 475.673362 44.64 
L 354.231512 44.64 
z
" clip-path="url(#p759a6061cf)" style="fill: #68abd0"/>
   </g>
   <g id="patch_11">
    <path d="M 444.878639 246.24 
L 487.247344 246.24 
L 487.247344 156.64 
L 444.878639 156.64 
z
" clip-path="url(#p759a6061cf)" style="fill: #053061"/>
   </g>
   <g id="patch_12">
    <path d="M 475.673362 134.24 
L 554.104557 134.24 
L 554.104557 44.64 
L 475.673362 44.64 
z
" clip-path="url(#p759a6061cf)" style="fill: #053061"/>
   </g>
   <g id="patch_13">
    <path d="M 236.773529 246.24 
L 259.20402 246.24 
L 259.20402 156.64 
L 236.773529 156.64 
z
" clip-path="url(#p759a6061cf)" style="fill: #67001f"/>
   </g>
   <g id="patch_14">
    <path d="M 303.630741 134.24 
L 304.895761 134.24 
L 304.895761 44.64 
L 303.630741 44.64 
z
" clip-path="url(#p759a6061cf)" style="fill: #67001f"/>
   </g>
   <g id="patch_15">
    <path d="M 259.20402 246.24 
L 305.31114 246.24 
L 305.31114 156.64 
L 259.20402 156.64 
z
" clip-path="url(#p759a6061cf)" style="fill: #e58368"/>
   </g>
   <g id="patch_16">
    <path d="M 304.895761 134.24 
L 311.220857 134.24 
L 311.220857 44.64 
L 304.895761 44.64 
z
" clip-path="url(#p759a6061cf)" style="fill: #e58368"/>
   </g>
   <g id="patch_17">
    <path d="M 305.31114 246.24 
L 360.141229 246.24 
L 360.141229 156.64 
L 305.31114 156.64 
z
" clip-path="url(#p759a6061cf)" style="fill: #f6f7f7"/>
   </g>
   <g id="patch_18">
    <path d="M 311.220857 134.24 
L 354.231512 134.24 
L 354.231512 44.64 
L 311.220857 44.64 
z
" clip-path="url(#p759a6061cf)" style="fill: #f6f7f7"/>
   </g>
   <g id="patch_19">
    <path d="M 360.141229 246.24 
L 444.878639 246.24 
L 444.878639 156.64 
L 360.141229 156.64 
z
" clip-path="url(#p759a6061cf)" style="fill: #68abd0"/>
   </g>
   <g id="patch_20">
    <path d="M 354.231512 134.24 
L 475.673362 134.24 
L 475.673362 44.64 
L 354.231512 44.64 
z
" clip-path="url(#p759a6061cf)" style="fill: #68abd0"/>
   </g>
   <g id="patch_21">
    <path d="M 444.878639 246.24 
L 487.247344 246.24 
L 487.247344 156.64 
L 444.878639 156.64 
z
" clip-path="url(#p759a6061cf)" style="fill: #053061"/>
   </g>
   <g id="patch_22">
    <path d="M 475.673362 134.24 
L 554.104557 134.24 
L 554.104557 44.64 
L 475.673362 44.64 
z
" clip-path="url(#p759a6061cf)" style="fill: #053061"/>
   </g>
   <g id="matplotlib.axis_1">
    <g id="xtick_1">
     <g id="line2d_3">
      <defs>
       <path id="m4c99cd72f3" d="M 0 0 
L 0 3.5 
" style="stroke: #000000; stroke-width: 0.8"/>
      </defs>
      <g>
       <use xlink:href="#m4c99cd72f3" x="82.252369" y="256.32" style="stroke: #000000; stroke-width: 0.8"/>
      </g>
     </g>
     <g id="text_1">
      <text style="font: 10px 'sans-serif'; text-anchor: middle" x="82.252369" y="270.493438" transform="rotate(-0, 82.252369, 270.493438)">100</text>
     </g>
    </g>
    <g id="xtick_2">
     <g id="line2d_4">
      <g>
       <use xlink:href="#m4c99cd72f3" x="107.299751" y="256.32" style="stroke: #000000; stroke-width: 0.8"/>
      </g>
     </g>
     <g id="text_2">
      <text style="font: 10px 'sans-serif'; text-anchor: middle" x="107.299751" y="270.493438" transform="rotate(-0, 107.299751, 270.493438)">90</text>
     </g>
    </g>
    <g id="xtick_3">
     <g id="line2d_5">
      <g>
       <use xlink:href="#m4c99cd72f3" x="132.347132" y="256.32" style="stroke: #000000; stroke-width: 0.8"/>
      </g>
     </g>
     <g id="text_3">
      <text style="font: 10px 'sans-serif'; text-anchor: middle" x="132.347132" y="270.493438" transform="rotate(-0, 132.347132, 270.493438)">80</text>
     </g>
    </g>
    <g id="xtick_4">
     <g id="line2d_6">
      <g>
       <use xlink:href="#m4c99cd72f3" x="157.394514" y="256.32" style="stroke: #000000; stroke-width: 0.8"/>
      </g>
     </g>
     <g id="text_4">
      <text style="font: 10px 'sans-serif'; text-anchor: middle" x="157.394514" y="270.493438" transform="rotate(-0, 157.394514, 270.493438)">70</text>
     </g>
    </g>
    <g id="xtick_5">
     <g id="line2d_7">
      <g>
       <use xlink:href="#m4c99cd72f3" x="182.441895" y="256.32" style="stroke: #000000; stroke-width: 0.8"/>
      </g>
     </g>
     <g id="text_5">
      <text style="font: 10px 'sans-serif'; text-anchor: middle" x="182.441895" y="270.493438" transform="rotate(-0, 182.441895, 270.493438)">60</text>
     </g>
    </g>
    <g id="xtick_6">
     <g id="line2d_8">
      <g>
       <use xlink:href="#m4c99cd72f3" x="207.489277" y="256.32" style="stroke: #000000; stroke-width: 0.8"/>
      </g>
     </g>
     <g id="text_6">
      <text style="font: 10px 'sans-serif'; text-anchor: middle" x="207.489277" y="270.493438" transform="rotate(-0, 207.489277, 270.493438)">50</text>
     </g>
    </g>
    <g id="xtick_7">
     <g id="line2d_9">
      <g>
       <use xlink:href="#m4c99cd72f3" x="232.536658" y="256.32" style="stroke: #000000; stroke-width: 0.8"/>
      </g>
     </g>
     <g id="text_7">
      <text style="font: 10px 'sans-serif'; text-anchor: middle" x="232.536658" y="270.493438" transform="rotate(-0, 232.536658, 270.493438)">40</text>
     </g>
    </g>
    <g id="xtick_8">
     <g id="line2d_10">
      <g>
       <use xlink:href="#m4c99cd72f3" x="257.58404" y="256.32" style="stroke: #000000; stroke-width: 0.8"/>
      </g>
     </g>
     <g id="text_8">
      <text style="font: 10px 'sans-serif'; text-anchor: middle" x="257.58404" y="270.493438" transform="rotate(-0, 257.58404, 270.493438)">30</text>
     </g>
    </g>
    <g id="xtick_9">
     <g id="line2d_11">
      <g>
       <use xlink:href="#m4c99cd72f3" x="282.631421" y="256.32" style="stroke: #000000; stroke-width: 0.8"/>
      </g>
     </g>
     <g id="text_9">
      <text style="font: 10px 'sans-serif'; text-anchor: middle" x="282.631421" y="270.493438" transform="rotate(-0, 282.631421, 270.493438)">20</text>
     </g>
    </g>
    <g id="xtick_10">
     <g id="line2d_12">
      <g>
       <use xlink:href="#m4c99cd72f3" x="307.678803" y="256.32" style="stroke: #000000; stroke-width: 0.8"/>
      </g>
     </g>
     <g id="text_10">
      <text style="font: 10px 'sans-serif'; text-anchor: middle" x="307.678803" y="270.493438" transform="rotate(-0, 307.678803, 270.493438)">10</text>
     </g>
    </g>
    <g id="xtick_11">
     <g id="line2d_13">
      <g>
       <use xlink:href="#m4c99cd72f3" x="332.726185" y="256.32" style="stroke: #000000; stroke-width: 0.8"/>
      </g>
     </g>
     <g id="text_11">
      <text style="font: 10px 'sans-serif'; text-anchor: middle" x="332.726185" y="270.493438" transform="rotate(-0, 332.726185, 270.493438)">0</text>
     </g>
    </g>
    <g id="xtick_12">
     <g id="line2d_14">
      <g>
       <use xlink:href="#m4c99cd72f3" x="357.773566" y="256.32" style="stroke: #000000; stroke-width: 0.8"/>
      </g>
     </g>
     <g id="text_12">
      <text style="font: 10px 'sans-serif'; text-anchor: middle" x="357.773566" y="270.493438" transform="rotate(-0, 357.773566, 270.493438)">10</text>
     </g>
    </g>
    <g id="xtick_13">
     <g id="line2d_15">
      <g>
       <use xlink:href="#m4c99cd72f3" x="382.820948" y="256.32" style="stroke: #000000; stroke-width: 0.8"/>
      </g>
     </g>
     <g id="text_13">
      <text style="font: 10px 'sans-serif'; text-anchor: middle" x="382.820948" y="270.493438" transform="rotate(-0, 382.820948, 270.493438)">20</text>
     </g>
    </g>
    <g id="xtick_14">
     <g id="line2d_16">
      <g>
       <use xlink:href="#m4c99cd72f3" x="407.868329" y="256.32" style="stroke: #000000; stroke-width: 0.8"/>
      </g>
     </g>
     <g id="text_14">
      <text style="font: 10px 'sans-serif'; text-anchor: middle" x="407.868329" y="270.493438" transform="rotate(-0, 407.868329, 270.493438)">30</text>
     </g>
    </g>
    <g id="xtick_15">
     <g id="line2d_17">
      <g>
       <use xlink:href="#m4c99cd72f3" x="432.915711" y="256.32" style="stroke: #000000; stroke-width: 0.8"/>
      </g>
     </g>
     <g id="text_15">
      <text style="font: 10px 'sans-serif'; text-anchor: middle" x="432.915711" y="270.493438" transform="rotate(-0, 432.915711, 270.493438)">40</text>
     </g>
    </g>
    <g id="xtick_16">
     <g id="line2d_18">
      <g>
       <use xlink:href="#m4c99cd72f3" x="457.963092" y="256.32" style="stroke: #000000; stroke-width: 0.8"/>
      </g>
     </g>
     <g id="text_16">
      <text style="font: 10px 'sans-serif'; text-anchor: middle" x="457.963092" y="270.493438" transform="rotate(-0, 457.963092, 270.493438)">50</text>
     </g>
    </g>
    <g id="xtick_17">
     <g id="line2d_19">
      <g>
       <use xlink:href="#m4c99cd72f3" x="483.010474" y="256.32" style="stroke: #000000; stroke-width: 0.8"/>
      </g>
     </g>
     <g id="text_17">
      <text style="font: 10px 'sans-serif'; text-anchor: middle" x="483.010474" y="270.493438" transform="rotate(-0, 483.010474, 270.493438)">60</text>
     </g>
    </g>
    <g id="xtick_18">
     <g id="line2d_20">
      <g>
       <use xlink:href="#m4c99cd72f3" x="508.057855" y="256.32" style="stroke: #000000; stroke-width: 0.8"/>
      </g>
     </g>
     <g id="text_18">
      <text style="font: 10px 'sans-serif'; text-anchor: middle" x="508.057855" y="270.493438" transform="rotate(-0, 508.057855, 270.493438)">70</text>
     </g>
    </g>
    <g id="xtick_19">
     <g id="line2d_21">
      <g>
       <use xlink:href="#m4c99cd72f3" x="533.105237" y="256.32" style="stroke: #000000; stroke-width: 0.8"/>
      </g>
     </g>
     <g id="text_19">
      <text style="font: 10px 'sans-serif'; text-anchor: middle" x="533.105237" y="270.493438" transform="rotate(-0, 533.105237, 270.493438)">80</text>
     </g>
    </g>
    <g id="xtick_20">
     <g id="line2d_22">
      <g>
       <use xlink:href="#m4c99cd72f3" x="558.152618" y="256.32" style="stroke: #000000; stroke-width: 0.8"/>
      </g>
     </g>
     <g id="text_20">
      <text style="font: 10px 'sans-serif'; text-anchor: middle" x="558.152618" y="270.493438" transform="rotate(-0, 558.152618, 270.493438)">90</text>
     </g>
    </g>
    <g id="xtick_21">
     <g id="line2d_23">
      <g>
       <use xlink:href="#m4c99cd72f3" x="583.2" y="256.32" style="stroke: #000000; stroke-width: 0.8"/>
      </g>
     </g>
     <g id="text_21">
      <text style="font: 10px 'sans-serif'; text-anchor: middle" x="583.2" y="270.493438" transform="rotate(-0, 583.2, 270.493438)">100</text>
     </g>
    </g>
    <g id="text_22">
     <text style="font: 10px 'sans-serif'; text-anchor: middle" x="332.1" y="283.75125" transform="rotate(-0, 332.1, 283.75125)">Percentage</text>
    </g>
   </g>
   <g id="matplotlib.axis_2">
    <g id="ytick_1">
     <g id="line2d_24">
      <defs>
       <path id="m8e343aef83" d="M 0 0 
L -3.5 0 
" style="stroke: #000000; stroke-width: 0.8"/>
      </defs>
      <g>
       <use xlink:href="#m8e343aef83" x="81" y="201.44" style="stroke: #000000; stroke-width: 0.8"/>
      </g>
     </g>
     <g id="text_23">
      <text style="font: 11px 'sans-serif'" transform="translate(-38.495625 188.318719)">percEmp1. It would not</text>
      <text style="font: 11px 'sans-serif'" transform="translate(-15.25125 200.214531)">be very difficult for</text>
      <text style="font: 11px 'sans-serif'" transform="translate(-40.346719 212.041594)">me to get an equivalent</text>
      <text style="font: 11px 'sans-serif'" transform="translate(-53.790781 224.078344)">job in a different institution</text>
     </g>
    </g>
    <g id="ytick_2">
     <g id="line2d_25">
      <g>
       <use xlink:href="#m8e343aef83" x="81" y="89.44" style="stroke: #000000; stroke-width: 0.8"/>
      </g>
     </g>
     <g id="text_24">
      <text style="font: 11px 'sans-serif'" transform="translate(-53.770156 82.380063)">percEmp3. My experience</text>
      <text style="font: 11px 'sans-serif'" transform="translate(-22.000781 94.207125)">is in demand on the</text>
      <text style="font: 11px 'sans-serif'" transform="translate(6.753906 105.968875)">labour market</text>
     </g>
    </g>
   </g>
   <g id="patch_23">
    <path d="M 81 256.32 
L 583.2 256.32 
" style="fill: none; stroke: #000000; stroke-width: 0.8; stroke-linejoin: miter; stroke-linecap: square"/>
   </g>
   <g id="text_25">
    <text style="font: 10px 'sans-serif'; text-anchor: middle" x="247.988774" y="201.44" transform="rotate(-0, 247.988774, 201.44)">9</text>
   </g>
   <g id="text_26">
    <text style="font: 10px 'sans-serif'; text-anchor: middle" x="282.25758" y="201.44" transform="rotate(-0, 282.25758, 201.44)">18</text>
   </g>
   <g id="text_27">
    <text style="font: 10px 'sans-serif'; text-anchor: middle" x="332.726185" y="201.44" transform="rotate(-0, 332.726185, 201.44)">22</text>
   </g>
   <g id="text_28">
    <text style="font: 10px 'sans-serif'; text-anchor: middle" x="332.726185" y="89.44" transform="rotate(-0, 332.726185, 89.44)">17</text>
   </g>
   <g id="text_29">
    <text style="font: 10px 'sans-serif'; text-anchor: middle" x="402.509934" y="201.44" transform="rotate(-0, 402.509934, 201.44)">34</text>
   </g>
   <g id="text_30">
    <text style="font: 10px 'sans-serif'; text-anchor: middle" x="414.952437" y="89.44" transform="rotate(-0, 414.952437, 89.44)">48</text>
   </g>
   <g id="text_31">
    <text style="font: 10px 'sans-serif'; text-anchor: middle" x="466.062992" y="201.44" transform="rotate(-0, 466.062992, 201.44)">17</text>
   </g>
   <g id="text_32">
    <text style="font: 10px 'sans-serif'; text-anchor: middle" x="514.888959" y="89.44" transform="rotate(-0, 514.888959, 89.44)">31</text>
   </g>
   <g id="text_33">
    <text style="font: 10px 'sans-serif'; text-anchor: middle" x="247.988774" y="201.44" transform="rotate(-0, 247.988774, 201.44)">9</text>
   </g>
   <g id="text_34">
    <text style="font: 10px 'sans-serif'; text-anchor: middle" x="282.25758" y="201.44" transform="rotate(-0, 282.25758, 201.44)">18</text>
   </g>
   <g id="text_35">
    <text style="font: 10px 'sans-serif'; text-anchor: middle" x="332.726185" y="201.44" transform="rotate(-0, 332.726185, 201.44)">22</text>
   </g>
   <g id="text_36">
    <text style="font: 10px 'sans-serif'; text-anchor: middle" x="332.726185" y="89.44" transform="rotate(-0, 332.726185, 89.44)">17</text>
   </g>
   <g id="text_37">
    <text style="font: 10px 'sans-serif'; text-anchor: middle" x="402.509934" y="201.44" transform="rotate(-0, 402.509934, 201.44)">34</text>
   </g>
   <g id="text_38">
    <text style="font: 10px 'sans-serif'; text-anchor: middle" x="414.952437" y="89.44" transform="rotate(-0, 414.952437, 89.44)">48</text>
   </g>
   <g id="text_39">
    <text style="font: 10px 'sans-serif'; text-anchor: middle" x="466.062992" y="201.44" transform="rotate(-0, 466.062992, 201.44)">17</text>
   </g>
   <g id="text_40">
    <text style="font: 10px 'sans-serif'; text-anchor: middle" x="514.888959" y="89.44" transform="rotate(-0, 514.888959, 89.44)">31</text>
   </g>
   <g id="text_41">
    <text style="font: 12px 'sans-serif'; text-anchor: middle" x="332.1" y="28.56" transform="rotate(-0, 332.1, 28.56)">Germany: Perceived employability</text>
   </g>
   <g id="legend_1">
    <g id="patch_24">
     <path d="M 88 251.32 
L 576.2 251.32 
Q 578.2 251.32 578.2 249.32 
L 578.2 235.73875 
Q 578.2 233.73875 576.2 233.73875 
L 88 233.73875 
Q 86 233.73875 86 235.73875 
L 86 249.32 
Q 86 251.32 88 251.32 
z
" style="fill: #ffffff; opacity: 0.8; stroke: #cccccc; stroke-linejoin: miter"/>
    </g>
    <g id="patch_25">
     <path d="M 90 245.1075 
L 110 245.1075 
L 110 238.1075 
L 90 238.1075 
z
" style="fill: #67001f"/>
    </g>
    <g id="text_42">
     <text style="font: 10px 'sans-serif'; text-anchor: start" x="118" y="245.1075" transform="rotate(-0, 118, 245.1075)">Strongly disagree</text>
    </g>
    <g id="patch_26">
     <path d="M 200.854688 245.1075 
L 220.854688 245.1075 
L 220.854688 238.1075 
L 200.854688 238.1075 
z
" style="fill: #e58368"/>
    </g>
    <g id="text_43">
     <text style="font: 10px 'sans-serif'; text-anchor: start" x="228.854688" y="245.1075" transform="rotate(-0, 228.854688, 245.1075)">Disagree</text>
    </g>
    <g id="patch_27">
     <path d="M 273.909375 245.1075 
L 293.909375 245.1075 
L 293.909375 238.1075 
L 273.909375 238.1075 
z
" style="fill: #f6f7f7"/>
    </g>
    <g id="text_44">
     <text style="font: 10px 'sans-serif'; text-anchor: start" x="301.909375" y="245.1075" transform="rotate(-0, 301.909375, 245.1075)">Neither agree or disagree</text>
    </g>
    <g id="patch_28">
     <path d="M 420.335938 245.1075 
L 440.335938 245.1075 
L 440.335938 238.1075 
L 420.335938 238.1075 
z
" style="fill: #68abd0"/>
    </g>
    <g id="text_45">
     <text style="font: 10px 'sans-serif'; text-anchor: start" x="448.335938" y="245.1075" transform="rotate(-0, 448.335938, 245.1075)">Agree</text>
    </g>
    <g id="patch_29">
     <path d="M 480.05625 245.1075 
L 500.05625 245.1075 
L 500.05625 238.1075 
L 480.05625 238.1075 
z
" style="fill: #053061"/>
    </g>
    <g id="text_46">
     <text style="font: 10px 'sans-serif'; text-anchor: start" x="508.05625" y="245.1075" transform="rotate(-0, 508.05625, 245.1075)">Strongly Agree</text>
    </g>
   </g>
  </g>
 </g>
 <defs>
  <clipPath id="p759a6061cf">
   <rect x="81" y="34.56" width="502.2" height="221.76"/>
  </clipPath>
 </defs>
</svg>
