<?xml version="1.0" encoding="utf-8" standalone="no"?>
<!DOCTYPE svg PUBLIC "-//W3C//DTD SVG 1.1//EN"
  "http://www.w3.org/Graphics/SVG/1.1/DTD/svg11.dtd">
<svg xmlns:xlink="http://www.w3.org/1999/xlink" width="648pt" height="324pt" viewBox="0 0 648 324" xmlns="http://www.w3.org/2000/svg" version="1.1">
 <metadata>
  <rdf:RDF xmlns:dc="http://purl.org/dc/elements/1.1/" xmlns:cc="http://creativecommons.org/ns#" xmlns:rdf="http://www.w3.org/1999/02/22-rdf-syntax-ns#">
   <cc:Work>
    <dc:type rdf:resource="http://purl.org/dc/dcmitype/StillImage"/>
    <dc:date>2022-03-21T16:08:52.267809</dc:date>
    <dc:format>image/svg+xml</dc:format>
    <dc:creator>
     <cc:Agent>
      <dc:title>Matplotlib v3.5.1, https://matplotlib.org/</dc:title>
     </cc:Agent>
    </dc:creator>
   </cc:Work>
  </rdf:RDF>
 </metadata>
 <defs>
  <style type="text/css">*{stroke-linejoin: round; stroke-linecap: butt}</style>
 </defs>
 <g id="figure_1">
  <g id="patch_1">
   <path d="M 0 324 
L 648 324 
L 648 0 
L 0 0 
z
" style="fill: #ffffff"/>
  </g>
  <g id="axes_1">
   <g id="patch_2">
    <path d="M 229.360937 283.55625 
L 568.391528 283.55625 
L 568.391528 47.445 
L 229.360937 47.445 
z
" style="fill: #ffffff"/>
   </g>
   <g id="line2d_1">
    <path d="M 399.298964 283.55625 
L 399.298964 47.445 
" clip-path="url(#paa210f1db5)" style="fill: none; stroke-dasharray: 5.55,2.4; stroke-dashoffset: 0; stroke: #000000; stroke-opacity: 0.5; stroke-width: 1.5"/>
   </g>
   <g id="line2d_2">
    <path d="M 399.298964 283.55625 
L 399.298964 47.445 
" clip-path="url(#paa210f1db5)" style="fill: none; stroke-dasharray: 5.55,2.4; stroke-dashoffset: 0; stroke: #000000; stroke-opacity: 0.5; stroke-width: 1.5"/>
   </g>
   <g id="patch_3">
    <path d="M 342.934776 232.960982 
L 354.800921 232.960982 
L 354.800921 165.500625 
L 342.934776 165.500625 
z
" clip-path="url(#paa210f1db5)" style="fill: #67001f"/>
   </g>
   <g id="patch_4">
    <path d="M 389.095102 148.635536 
L 392.010491 148.635536 
L 392.010491 81.175179 
L 389.095102 81.175179 
z
" clip-path="url(#paa210f1db5)" style="fill: #67001f"/>
   </g>
   <g id="patch_5">
    <path d="M 354.800921 232.960982 
L 381.499747 232.960982 
L 381.499747 165.500625 
L 354.800921 165.500625 
z
" clip-path="url(#paa210f1db5)" style="fill: #e58368"/>
   </g>
   <g id="patch_6">
    <path d="M 392.010491 148.635536 
L 392.010491 148.635536 
L 392.010491 81.175179 
L 392.010491 81.175179 
z
" clip-path="url(#paa210f1db5)" style="fill: #e58368"/>
   </g>
   <g id="patch_7">
    <path d="M 381.499747 232.960982 
L 417.098181 232.960982 
L 417.098181 165.500625 
L 381.499747 165.500625 
z
" clip-path="url(#paa210f1db5)" style="fill: #f6f7f7"/>
   </g>
   <g id="patch_8">
    <path d="M 392.010491 148.635536 
L 406.587437 148.635536 
L 406.587437 81.175179 
L 392.010491 81.175179 
z
" clip-path="url(#paa210f1db5)" style="fill: #f6f7f7"/>
   </g>
   <g id="patch_9">
    <path d="M 417.098181 232.960982 
L 476.428905 232.960982 
L 476.428905 165.500625 
L 417.098181 165.500625 
z
" clip-path="url(#paa210f1db5)" style="fill: #68abd0"/>
   </g>
   <g id="patch_10">
    <path d="M 406.587437 148.635536 
L 508.626053 148.635536 
L 508.626053 81.175179 
L 406.587437 81.175179 
z
" clip-path="url(#paa210f1db5)" style="fill: #68abd0"/>
   </g>
   <g id="patch_11">
    <path d="M 476.428905 232.960982 
L 512.02734 232.960982 
L 512.02734 165.500625 
L 476.428905 165.500625 
z
" clip-path="url(#paa210f1db5)" style="fill: #053061"/>
   </g>
   <g id="patch_12">
    <path d="M 508.626053 148.635536 
L 558.187666 148.635536 
L 558.187666 81.175179 
L 508.626053 81.175179 
z
" clip-path="url(#paa210f1db5)" style="fill: #053061"/>
   </g>
   <g id="patch_13">
    <path d="M 342.934776 232.960982 
L 354.800921 232.960982 
L 354.800921 165.500625 
L 342.934776 165.500625 
z
" clip-path="url(#paa210f1db5)" style="fill: #67001f"/>
   </g>
   <g id="patch_14">
    <path d="M 389.095102 148.635536 
L 392.010491 148.635536 
L 392.010491 81.175179 
L 389.095102 81.175179 
z
" clip-path="url(#paa210f1db5)" style="fill: #67001f"/>
   </g>
   <g id="patch_15">
    <path d="M 354.800921 232.960982 
L 381.499747 232.960982 
L 381.499747 165.500625 
L 354.800921 165.500625 
z
" clip-path="url(#paa210f1db5)" style="fill: #e58368"/>
   </g>
   <g id="patch_16">
    <path d="M 392.010491 148.635536 
L 392.010491 148.635536 
L 392.010491 81.175179 
L 392.010491 81.175179 
z
" clip-path="url(#paa210f1db5)" style="fill: #e58368"/>
   </g>
   <g id="patch_17">
    <path d="M 381.499747 232.960982 
L 417.098181 232.960982 
L 417.098181 165.500625 
L 381.499747 165.500625 
z
" clip-path="url(#paa210f1db5)" style="fill: #f6f7f7"/>
   </g>
   <g id="patch_18">
    <path d="M 392.010491 148.635536 
L 406.587437 148.635536 
L 406.587437 81.175179 
L 392.010491 81.175179 
z
" clip-path="url(#paa210f1db5)" style="fill: #f6f7f7"/>
   </g>
   <g id="patch_19">
    <path d="M 417.098181 232.960982 
L 476.428905 232.960982 
L 476.428905 165.500625 
L 417.098181 165.500625 
z
" clip-path="url(#paa210f1db5)" style="fill: #68abd0"/>
   </g>
   <g id="patch_20">
    <path d="M 406.587437 148.635536 
L 508.626053 148.635536 
L 508.626053 81.175179 
L 406.587437 81.175179 
z
" clip-path="url(#paa210f1db5)" style="fill: #68abd0"/>
   </g>
   <g id="patch_21">
    <path d="M 476.428905 232.960982 
L 512.02734 232.960982 
L 512.02734 165.500625 
L 476.428905 165.500625 
z
" clip-path="url(#paa210f1db5)" style="fill: #053061"/>
   </g>
   <g id="patch_22">
    <path d="M 508.626053 148.635536 
L 558.187666 148.635536 
L 558.187666 81.175179 
L 508.626053 81.175179 
z
" clip-path="url(#paa210f1db5)" style="fill: #053061"/>
   </g>
   <g id="matplotlib.axis_1">
    <g id="xtick_1">
     <g id="line2d_3">
      <defs>
       <path id="m4c99cd72f3" d="M 0 0 
L 0 3.5 
" style="stroke: #000000; stroke-width: 0.8"/>
      </defs>
      <g>
       <use xlink:href="#m4c99cd72f3" x="230.2064" y="283.55625" style="stroke: #000000; stroke-width: 0.8"/>
      </g>
     </g>
     <g id="text_1">
      <text style="font: 10px 'sans-serif'; text-anchor: middle" x="230.2064" y="297.729688" transform="rotate(-0, 230.2064, 297.729688)">100</text>
     </g>
    </g>
    <g id="xtick_2">
     <g id="line2d_4">
      <g>
       <use xlink:href="#m4c99cd72f3" x="247.115657" y="283.55625" style="stroke: #000000; stroke-width: 0.8"/>
      </g>
     </g>
     <g id="text_2">
      <text style="font: 10px 'sans-serif'; text-anchor: middle" x="247.115657" y="297.729688" transform="rotate(-0, 247.115657, 297.729688)">90</text>
     </g>
    </g>
    <g id="xtick_3">
     <g id="line2d_5">
      <g>
       <use xlink:href="#m4c99cd72f3" x="264.024913" y="283.55625" style="stroke: #000000; stroke-width: 0.8"/>
      </g>
     </g>
     <g id="text_3">
      <text style="font: 10px 'sans-serif'; text-anchor: middle" x="264.024913" y="297.729688" transform="rotate(-0, 264.024913, 297.729688)">80</text>
     </g>
    </g>
    <g id="xtick_4">
     <g id="line2d_6">
      <g>
       <use xlink:href="#m4c99cd72f3" x="280.934169" y="283.55625" style="stroke: #000000; stroke-width: 0.8"/>
      </g>
     </g>
     <g id="text_4">
      <text style="font: 10px 'sans-serif'; text-anchor: middle" x="280.934169" y="297.729688" transform="rotate(-0, 280.934169, 297.729688)">70</text>
     </g>
    </g>
    <g id="xtick_5">
     <g id="line2d_7">
      <g>
       <use xlink:href="#m4c99cd72f3" x="297.843426" y="283.55625" style="stroke: #000000; stroke-width: 0.8"/>
      </g>
     </g>
     <g id="text_5">
      <text style="font: 10px 'sans-serif'; text-anchor: middle" x="297.843426" y="297.729688" transform="rotate(-0, 297.843426, 297.729688)">60</text>
     </g>
    </g>
    <g id="xtick_6">
     <g id="line2d_8">
      <g>
       <use xlink:href="#m4c99cd72f3" x="314.752682" y="283.55625" style="stroke: #000000; stroke-width: 0.8"/>
      </g>
     </g>
     <g id="text_6">
      <text style="font: 10px 'sans-serif'; text-anchor: middle" x="314.752682" y="297.729688" transform="rotate(-0, 314.752682, 297.729688)">50</text>
     </g>
    </g>
    <g id="xtick_7">
     <g id="line2d_9">
      <g>
       <use xlink:href="#m4c99cd72f3" x="331.661939" y="283.55625" style="stroke: #000000; stroke-width: 0.8"/>
      </g>
     </g>
     <g id="text_7">
      <text style="font: 10px 'sans-serif'; text-anchor: middle" x="331.661939" y="297.729688" transform="rotate(-0, 331.661939, 297.729688)">40</text>
     </g>
    </g>
    <g id="xtick_8">
     <g id="line2d_10">
      <g>
       <use xlink:href="#m4c99cd72f3" x="348.571195" y="283.55625" style="stroke: #000000; stroke-width: 0.8"/>
      </g>
     </g>
     <g id="text_8">
      <text style="font: 10px 'sans-serif'; text-anchor: middle" x="348.571195" y="297.729688" transform="rotate(-0, 348.571195, 297.729688)">30</text>
     </g>
    </g>
    <g id="xtick_9">
     <g id="line2d_11">
      <g>
       <use xlink:href="#m4c99cd72f3" x="365.480451" y="283.55625" style="stroke: #000000; stroke-width: 0.8"/>
      </g>
     </g>
     <g id="text_9">
      <text style="font: 10px 'sans-serif'; text-anchor: middle" x="365.480451" y="297.729688" transform="rotate(-0, 365.480451, 297.729688)">20</text>
     </g>
    </g>
    <g id="xtick_10">
     <g id="line2d_12">
      <g>
       <use xlink:href="#m4c99cd72f3" x="382.389708" y="283.55625" style="stroke: #000000; stroke-width: 0.8"/>
      </g>
     </g>
     <g id="text_10">
      <text style="font: 10px 'sans-serif'; text-anchor: middle" x="382.389708" y="297.729688" transform="rotate(-0, 382.389708, 297.729688)">10</text>
     </g>
    </g>
    <g id="xtick_11">
     <g id="line2d_13">
      <g>
       <use xlink:href="#m4c99cd72f3" x="399.298964" y="283.55625" style="stroke: #000000; stroke-width: 0.8"/>
      </g>
     </g>
     <g id="text_11">
      <text style="font: 10px 'sans-serif'; text-anchor: middle" x="399.298964" y="297.729688" transform="rotate(-0, 399.298964, 297.729688)">0</text>
     </g>
    </g>
    <g id="xtick_12">
     <g id="line2d_14">
      <g>
       <use xlink:href="#m4c99cd72f3" x="416.20822" y="283.55625" style="stroke: #000000; stroke-width: 0.8"/>
      </g>
     </g>
     <g id="text_12">
      <text style="font: 10px 'sans-serif'; text-anchor: middle" x="416.20822" y="297.729688" transform="rotate(-0, 416.20822, 297.729688)">10</text>
     </g>
    </g>
    <g id="xtick_13">
     <g id="line2d_15">
      <g>
       <use xlink:href="#m4c99cd72f3" x="433.117477" y="283.55625" style="stroke: #000000; stroke-width: 0.8"/>
      </g>
     </g>
     <g id="text_13">
      <text style="font: 10px 'sans-serif'; text-anchor: middle" x="433.117477" y="297.729688" transform="rotate(-0, 433.117477, 297.729688)">20</text>
     </g>
    </g>
    <g id="xtick_14">
     <g id="line2d_16">
      <g>
       <use xlink:href="#m4c99cd72f3" x="450.026733" y="283.55625" style="stroke: #000000; stroke-width: 0.8"/>
      </g>
     </g>
     <g id="text_14">
      <text style="font: 10px 'sans-serif'; text-anchor: middle" x="450.026733" y="297.729688" transform="rotate(-0, 450.026733, 297.729688)">30</text>
     </g>
    </g>
    <g id="xtick_15">
     <g id="line2d_17">
      <g>
       <use xlink:href="#m4c99cd72f3" x="466.93599" y="283.55625" style="stroke: #000000; stroke-width: 0.8"/>
      </g>
     </g>
     <g id="text_15">
      <text style="font: 10px 'sans-serif'; text-anchor: middle" x="466.93599" y="297.729688" transform="rotate(-0, 466.93599, 297.729688)">40</text>
     </g>
    </g>
    <g id="xtick_16">
     <g id="line2d_18">
      <g>
       <use xlink:href="#m4c99cd72f3" x="483.845246" y="283.55625" style="stroke: #000000; stroke-width: 0.8"/>
      </g>
     </g>
     <g id="text_16">
      <text style="font: 10px 'sans-serif'; text-anchor: middle" x="483.845246" y="297.729688" transform="rotate(-0, 483.845246, 297.729688)">50</text>
     </g>
    </g>
    <g id="xtick_17">
     <g id="line2d_19">
      <g>
       <use xlink:href="#m4c99cd72f3" x="500.754502" y="283.55625" style="stroke: #000000; stroke-width: 0.8"/>
      </g>
     </g>
     <g id="text_17">
      <text style="font: 10px 'sans-serif'; text-anchor: middle" x="500.754502" y="297.729688" transform="rotate(-0, 500.754502, 297.729688)">60</text>
     </g>
    </g>
    <g id="xtick_18">
     <g id="line2d_20">
      <g>
       <use xlink:href="#m4c99cd72f3" x="517.663759" y="283.55625" style="stroke: #000000; stroke-width: 0.8"/>
      </g>
     </g>
     <g id="text_18">
      <text style="font: 10px 'sans-serif'; text-anchor: middle" x="517.663759" y="297.729688" transform="rotate(-0, 517.663759, 297.729688)">70</text>
     </g>
    </g>
    <g id="xtick_19">
     <g id="line2d_21">
      <g>
       <use xlink:href="#m4c99cd72f3" x="534.573015" y="283.55625" style="stroke: #000000; stroke-width: 0.8"/>
      </g>
     </g>
     <g id="text_19">
      <text style="font: 10px 'sans-serif'; text-anchor: middle" x="534.573015" y="297.729688" transform="rotate(-0, 534.573015, 297.729688)">80</text>
     </g>
    </g>
    <g id="xtick_20">
     <g id="line2d_22">
      <g>
       <use xlink:href="#m4c99cd72f3" x="551.482271" y="283.55625" style="stroke: #000000; stroke-width: 0.8"/>
      </g>
     </g>
     <g id="text_20">
      <text style="font: 10px 'sans-serif'; text-anchor: middle" x="551.482271" y="297.729688" transform="rotate(-0, 551.482271, 297.729688)">90</text>
     </g>
    </g>
    <g id="xtick_21">
     <g id="line2d_23">
      <g>
       <use xlink:href="#m4c99cd72f3" x="568.391528" y="283.55625" style="stroke: #000000; stroke-width: 0.8"/>
      </g>
     </g>
     <g id="text_21">
      <text style="font: 10px 'sans-serif'; text-anchor: middle" x="568.391528" y="297.729688" transform="rotate(-0, 568.391528, 297.729688)">100</text>
     </g>
    </g>
    <g id="text_22">
     <text style="font: 10px 'sans-serif'; text-anchor: middle" x="398.876233" y="310.9875" transform="rotate(-0, 398.876233, 310.9875)">Percentage</text>
    </g>
   </g>
   <g id="matplotlib.axis_2">
    <g id="ytick_1">
     <g id="line2d_24">
      <defs>
       <path id="m8e343aef83" d="M 0 0 
L -3.5 0 
" style="stroke: #000000; stroke-width: 0.8"/>
      </defs>
      <g>
       <use xlink:href="#m8e343aef83" x="229.360937" y="199.230804" style="stroke: #000000; stroke-width: 0.8"/>
      </g>
     </g>
     <g id="text_23">
      <text style="font: 11px 'sans-serif'" transform="translate(33.449687 192.089225)">percEmp1. It would not be very difficult</text>
      <text style="font: 11px 'sans-serif'" transform="translate(10.8 204.05035)">for me to get an equivalent job in a different</text>
      <text style="font: 11px 'sans-serif'" transform="translate(175.892812 215.953038)">institution</text>
     </g>
    </g>
    <g id="ytick_2">
     <g id="line2d_25">
      <g>
       <use xlink:href="#m8e343aef83" x="229.360937" y="114.905357" style="stroke: #000000; stroke-width: 0.8"/>
      </g>
     </g>
     <g id="text_24">
      <text style="font: 11px 'sans-serif'" transform="translate(13.88 113.739185)">percEmp3. My experience is in demand on</text>
      <text style="font: 11px 'sans-serif'" transform="translate(136.768906 125.566248)">the labour market</text>
     </g>
    </g>
   </g>
   <g id="patch_23">
    <path d="M 229.360937 283.55625 
L 568.391528 283.55625 
" style="fill: none; stroke: #000000; stroke-width: 0.8; stroke-linejoin: miter; stroke-linecap: square"/>
   </g>
   <g id="text_25">
    <text style="font: 10px 'sans-serif'; text-anchor: middle" x="348.867849" y="199.230804" transform="rotate(-0, 348.867849, 199.230804)">7</text>
   </g>
   <g id="text_26">
    <text style="font: 10px 'sans-serif'; text-anchor: middle" x="368.150334" y="199.230804" transform="rotate(-0, 368.150334, 199.230804)">16</text>
   </g>
   <g id="text_27">
    <text style="font: 10px 'sans-serif'; text-anchor: middle" x="399.298964" y="199.230804" transform="rotate(-0, 399.298964, 199.230804)">21</text>
   </g>
   <g id="text_28">
    <text style="font: 10px 'sans-serif'; text-anchor: middle" x="399.298964" y="114.905357" transform="rotate(-0, 399.298964, 114.905357)">9</text>
   </g>
   <g id="text_29">
    <text style="font: 10px 'sans-serif'; text-anchor: middle" x="446.763543" y="199.230804" transform="rotate(-0, 446.763543, 199.230804)">35</text>
   </g>
   <g id="text_30">
    <text style="font: 10px 'sans-serif'; text-anchor: middle" x="457.606745" y="114.905357" transform="rotate(-0, 457.606745, 114.905357)">60</text>
   </g>
   <g id="text_31">
    <text style="font: 10px 'sans-serif'; text-anchor: middle" x="494.228123" y="199.230804" transform="rotate(-0, 494.228123, 199.230804)">21</text>
   </g>
   <g id="text_32">
    <text style="font: 10px 'sans-serif'; text-anchor: middle" x="533.406859" y="114.905357" transform="rotate(-0, 533.406859, 114.905357)">29</text>
   </g>
   <g id="text_33">
    <text style="font: 10px 'sans-serif'; text-anchor: middle" x="348.867849" y="199.230804" transform="rotate(-0, 348.867849, 199.230804)">7</text>
   </g>
   <g id="text_34">
    <text style="font: 10px 'sans-serif'; text-anchor: middle" x="368.150334" y="199.230804" transform="rotate(-0, 368.150334, 199.230804)">16</text>
   </g>
   <g id="text_35">
    <text style="font: 10px 'sans-serif'; text-anchor: middle" x="399.298964" y="199.230804" transform="rotate(-0, 399.298964, 199.230804)">21</text>
   </g>
   <g id="text_36">
    <text style="font: 10px 'sans-serif'; text-anchor: middle" x="399.298964" y="114.905357" transform="rotate(-0, 399.298964, 114.905357)">9</text>
   </g>
   <g id="text_37">
    <text style="font: 10px 'sans-serif'; text-anchor: middle" x="446.763543" y="199.230804" transform="rotate(-0, 446.763543, 199.230804)">35</text>
   </g>
   <g id="text_38">
    <text style="font: 10px 'sans-serif'; text-anchor: middle" x="457.606745" y="114.905357" transform="rotate(-0, 457.606745, 114.905357)">60</text>
   </g>
   <g id="text_39">
    <text style="font: 10px 'sans-serif'; text-anchor: middle" x="494.228123" y="199.230804" transform="rotate(-0, 494.228123, 199.230804)">21</text>
   </g>
   <g id="text_40">
    <text style="font: 10px 'sans-serif'; text-anchor: middle" x="533.406859" y="114.905357" transform="rotate(-0, 533.406859, 114.905357)">29</text>
   </g>
   <g id="text_41">
    <text style="font: 12px 'sans-serif'; text-anchor: middle" x="398.876233" y="41.445" transform="rotate(-0, 398.876233, 41.445)">Perceived employability</text>
   </g>
   <g id="legend_1">
    <g id="patch_24">
     <path d="M 236.360937 278.55625 
L 561.391528 278.55625 
Q 563.391528 278.55625 563.391528 276.55625 
L 563.391528 241.629063 
Q 563.391528 239.629063 561.391528 239.629063 
L 236.360937 239.629063 
Q 234.360937 239.629063 234.360937 241.629063 
L 234.360937 276.55625 
Q 234.360937 278.55625 236.360937 278.55625 
z
" style="fill: #ffffff; opacity: 0.8; stroke: #cccccc; stroke-linejoin: miter"/>
    </g>
    <g id="patch_25">
     <path d="M 238.360937 262.679375 
L 258.360937 262.679375 
L 258.360937 255.679375 
L 238.360937 255.679375 
z
" style="fill: #67001f"/>
    </g>
    <g id="text_42">
     <text style="font: 10px 'sans-serif'" transform="translate(266.360937 256.246406)">Strongly</text>
     <text style="font: 10px 'sans-serif'" transform="translate(266.360937 267.095156)">disagree</text>
    </g>
    <g id="patch_26">
     <path d="M 302.033819 262.679375 
L 322.033819 262.679375 
L 322.033819 255.679375 
L 302.033819 255.679375 
z
" style="fill: #e58368"/>
    </g>
    <g id="text_43">
     <text style="font: 10px 'sans-serif'; text-anchor: start" x="330.033819" y="262.679375" transform="rotate(-0, 330.033819, 262.679375)">Disagree</text>
    </g>
    <g id="patch_27">
     <path d="M 367.367639 262.679375 
L 387.367639 262.679375 
L 387.367639 255.679375 
L 367.367639 255.679375 
z
" style="fill: #f6f7f7"/>
    </g>
    <g id="text_44">
     <text style="font: 10px 'sans-serif'" transform="translate(395.367639 250.8025)">Neither</text>
     <text style="font: 10px 'sans-serif'" transform="translate(395.367639 261.495)">agree</text>
     <text style="font: 10px 'sans-serif'" transform="translate(395.367639 272.34375)">or disagree</text>
    </g>
    <g id="patch_28">
     <path d="M 442.709271 262.679375 
L 462.709271 262.679375 
L 462.709271 255.679375 
L 442.709271 255.679375 
z
" style="fill: #68abd0"/>
    </g>
    <g id="text_45">
     <text style="font: 10px 'sans-serif'; text-anchor: start" x="470.709271" y="262.679375" transform="rotate(-0, 470.709271, 262.679375)">Agree</text>
    </g>
    <g id="patch_29">
     <path d="M 494.708715 262.679375 
L 514.708715 262.679375 
L 514.708715 255.679375 
L 494.708715 255.679375 
z
" style="fill: #053061"/>
    </g>
    <g id="text_46">
     <text style="font: 10px 'sans-serif'" transform="translate(522.708715 256.260469)">Strongly</text>
     <text style="font: 10px 'sans-serif'" transform="translate(522.708715 267.081094)">Agree</text>
    </g>
   </g>
  </g>
  <g id="text_47">
   <text style="font: 12px 'sans-serif'; text-anchor: middle" x="324" y="15.11625" transform="rotate(-0, 324, 15.11625)">Perceived employability: Netherlands</text>
  </g>
 </g>
 <defs>
  <clipPath id="paa210f1db5">
   <rect x="229.360937" y="47.445" width="339.03059" height="236.11125"/>
  </clipPath>
 </defs>
</svg>
