<?xml version="1.0" encoding="utf-8" standalone="no"?>
<!DOCTYPE svg PUBLIC "-//W3C//DTD SVG 1.1//EN"
  "http://www.w3.org/Graphics/SVG/1.1/DTD/svg11.dtd">
<svg xmlns:xlink="http://www.w3.org/1999/xlink" width="648pt" height="288pt" viewBox="0 0 648 288" xmlns="http://www.w3.org/2000/svg" version="1.1">
 <metadata>
  <rdf:RDF xmlns:dc="http://purl.org/dc/elements/1.1/" xmlns:cc="http://creativecommons.org/ns#" xmlns:rdf="http://www.w3.org/1999/02/22-rdf-syntax-ns#">
   <cc:Work>
    <dc:type rdf:resource="http://purl.org/dc/dcmitype/StillImage"/>
    <dc:date>2022-03-18T15:58:47.346056</dc:date>
    <dc:format>image/svg+xml</dc:format>
    <dc:creator>
     <cc:Agent>
      <dc:title>Matplotlib v3.5.1, https://matplotlib.org/</dc:title>
     </cc:Agent>
    </dc:creator>
   </cc:Work>
  </rdf:RDF>
 </metadata>
 <defs>
  <style type="text/css">*{stroke-linejoin: round; stroke-linecap: butt}</style>
 </defs>
 <g id="figure_1">
  <g id="patch_1">
   <path d="M 0 288 
L 648 288 
L 648 0 
L 0 0 
z
" style="fill: #ffffff"/>
  </g>
  <g id="axes_1">
   <g id="patch_2">
    <path d="M 145.6 246.04 
L 628.92 246.04 
L 628.92 25.44 
L 145.6 25.44 
z
" style="fill: #ffffff"/>
   </g>
   <g id="line2d_1">
    <path d="M 387.862643 246.04 
L 387.862643 25.44 
" clip-path="url(#p10605901d0)" style="fill: none; stroke-dasharray: 5.55,2.4; stroke-dashoffset: 0; stroke: #000000; stroke-opacity: 0.5; stroke-width: 1.5"/>
   </g>
   <g id="line2d_2">
    <path d="M 387.862643 246.04 
L 387.862643 25.44 
" clip-path="url(#p10605901d0)" style="fill: none; stroke-dasharray: 5.55,2.4; stroke-dashoffset: 0; stroke: #000000; stroke-opacity: 0.5; stroke-width: 1.5"/>
   </g>
   <g id="patch_3">
    <path d="M 307.510191 236.012727 
L 324.426497 236.012727 
L 324.426497 146.881414 
L 307.510191 146.881414 
z
" clip-path="url(#p10605901d0)" style="fill: #67001f"/>
   </g>
   <g id="patch_4">
    <path d="M 373.316079 124.598586 
L 377.47224 124.598586 
L 377.47224 35.467273 
L 373.316079 35.467273 
z
" clip-path="url(#p10605901d0)" style="fill: #67001f"/>
   </g>
   <g id="patch_5">
    <path d="M 324.426497 236.012727 
L 362.488185 236.012727 
L 362.488185 146.881414 
L 324.426497 146.881414 
z
" clip-path="url(#p10605901d0)" style="fill: #e58368"/>
   </g>
   <g id="patch_6">
    <path d="M 377.47224 124.598586 
L 377.47224 124.598586 
L 377.47224 35.467273 
L 377.47224 35.467273 
z
" clip-path="url(#p10605901d0)" style="fill: #e58368"/>
   </g>
   <g id="patch_7">
    <path d="M 362.488185 236.012727 
L 413.237102 236.012727 
L 413.237102 146.881414 
L 362.488185 146.881414 
z
" clip-path="url(#p10605901d0)" style="fill: #f6f7f7"/>
   </g>
   <g id="patch_8">
    <path d="M 377.47224 124.598586 
L 398.253047 124.598586 
L 398.253047 35.467273 
L 377.47224 35.467273 
z
" clip-path="url(#p10605901d0)" style="fill: #f6f7f7"/>
   </g>
   <g id="patch_9">
    <path d="M 413.237102 236.012727 
L 497.818631 236.012727 
L 497.818631 146.881414 
L 413.237102 146.881414 
z
" clip-path="url(#p10605901d0)" style="fill: #68abd0"/>
   </g>
   <g id="patch_10">
    <path d="M 398.253047 124.598586 
L 543.718693 124.598586 
L 543.718693 35.467273 
L 398.253047 35.467273 
z
" clip-path="url(#p10605901d0)" style="fill: #68abd0"/>
   </g>
   <g id="patch_11">
    <path d="M 497.818631 236.012727 
L 548.567548 236.012727 
L 548.567548 146.881414 
L 497.818631 146.881414 
z
" clip-path="url(#p10605901d0)" style="fill: #053061"/>
   </g>
   <g id="patch_12">
    <path d="M 543.718693 124.598586 
L 614.373435 124.598586 
L 614.373435 35.467273 
L 543.718693 35.467273 
z
" clip-path="url(#p10605901d0)" style="fill: #053061"/>
   </g>
   <g id="patch_13">
    <path d="M 307.510191 236.012727 
L 324.426497 236.012727 
L 324.426497 146.881414 
L 307.510191 146.881414 
z
" clip-path="url(#p10605901d0)" style="fill: #67001f"/>
   </g>
   <g id="patch_14">
    <path d="M 373.316079 124.598586 
L 377.47224 124.598586 
L 377.47224 35.467273 
L 373.316079 35.467273 
z
" clip-path="url(#p10605901d0)" style="fill: #67001f"/>
   </g>
   <g id="patch_15">
    <path d="M 324.426497 236.012727 
L 362.488185 236.012727 
L 362.488185 146.881414 
L 324.426497 146.881414 
z
" clip-path="url(#p10605901d0)" style="fill: #e58368"/>
   </g>
   <g id="patch_16">
    <path d="M 377.47224 124.598586 
L 377.47224 124.598586 
L 377.47224 35.467273 
L 377.47224 35.467273 
z
" clip-path="url(#p10605901d0)" style="fill: #e58368"/>
   </g>
   <g id="patch_17">
    <path d="M 362.488185 236.012727 
L 413.237102 236.012727 
L 413.237102 146.881414 
L 362.488185 146.881414 
z
" clip-path="url(#p10605901d0)" style="fill: #f6f7f7"/>
   </g>
   <g id="patch_18">
    <path d="M 377.47224 124.598586 
L 398.253047 124.598586 
L 398.253047 35.467273 
L 377.47224 35.467273 
z
" clip-path="url(#p10605901d0)" style="fill: #f6f7f7"/>
   </g>
   <g id="patch_19">
    <path d="M 413.237102 236.012727 
L 497.818631 236.012727 
L 497.818631 146.881414 
L 413.237102 146.881414 
z
" clip-path="url(#p10605901d0)" style="fill: #68abd0"/>
   </g>
   <g id="patch_20">
    <path d="M 398.253047 124.598586 
L 543.718693 124.598586 
L 543.718693 35.467273 
L 398.253047 35.467273 
z
" clip-path="url(#p10605901d0)" style="fill: #68abd0"/>
   </g>
   <g id="patch_21">
    <path d="M 497.818631 236.012727 
L 548.567548 236.012727 
L 548.567548 146.881414 
L 497.818631 146.881414 
z
" clip-path="url(#p10605901d0)" style="fill: #053061"/>
   </g>
   <g id="patch_22">
    <path d="M 543.718693 124.598586 
L 614.373435 124.598586 
L 614.373435 35.467273 
L 543.718693 35.467273 
z
" clip-path="url(#p10605901d0)" style="fill: #053061"/>
   </g>
   <g id="matplotlib.axis_1">
    <g id="xtick_1">
     <g id="line2d_3">
      <defs>
       <path id="m4c99cd72f3" d="M 0 0 
L 0 3.5 
" style="stroke: #000000; stroke-width: 0.8"/>
      </defs>
      <g>
       <use xlink:href="#m4c99cd72f3" x="146.805287" y="246.04" style="stroke: #000000; stroke-width: 0.8"/>
      </g>
     </g>
     <g id="text_1">
      <text style="font: 10px 'sans-serif'; text-anchor: middle" x="146.805287" y="260.213437" transform="rotate(-0, 146.805287, 260.213437)">100</text>
     </g>
    </g>
    <g id="xtick_2">
     <g id="line2d_4">
      <g>
       <use xlink:href="#m4c99cd72f3" x="170.911022" y="246.04" style="stroke: #000000; stroke-width: 0.8"/>
      </g>
     </g>
     <g id="text_2">
      <text style="font: 10px 'sans-serif'; text-anchor: middle" x="170.911022" y="260.213437" transform="rotate(-0, 170.911022, 260.213437)">90</text>
     </g>
    </g>
    <g id="xtick_3">
     <g id="line2d_5">
      <g>
       <use xlink:href="#m4c99cd72f3" x="195.016758" y="246.04" style="stroke: #000000; stroke-width: 0.8"/>
      </g>
     </g>
     <g id="text_3">
      <text style="font: 10px 'sans-serif'; text-anchor: middle" x="195.016758" y="260.213437" transform="rotate(-0, 195.016758, 260.213437)">80</text>
     </g>
    </g>
    <g id="xtick_4">
     <g id="line2d_6">
      <g>
       <use xlink:href="#m4c99cd72f3" x="219.122494" y="246.04" style="stroke: #000000; stroke-width: 0.8"/>
      </g>
     </g>
     <g id="text_4">
      <text style="font: 10px 'sans-serif'; text-anchor: middle" x="219.122494" y="260.213437" transform="rotate(-0, 219.122494, 260.213437)">70</text>
     </g>
    </g>
    <g id="xtick_5">
     <g id="line2d_7">
      <g>
       <use xlink:href="#m4c99cd72f3" x="243.228229" y="246.04" style="stroke: #000000; stroke-width: 0.8"/>
      </g>
     </g>
     <g id="text_5">
      <text style="font: 10px 'sans-serif'; text-anchor: middle" x="243.228229" y="260.213437" transform="rotate(-0, 243.228229, 260.213437)">60</text>
     </g>
    </g>
    <g id="xtick_6">
     <g id="line2d_8">
      <g>
       <use xlink:href="#m4c99cd72f3" x="267.333965" y="246.04" style="stroke: #000000; stroke-width: 0.8"/>
      </g>
     </g>
     <g id="text_6">
      <text style="font: 10px 'sans-serif'; text-anchor: middle" x="267.333965" y="260.213437" transform="rotate(-0, 267.333965, 260.213437)">50</text>
     </g>
    </g>
    <g id="xtick_7">
     <g id="line2d_9">
      <g>
       <use xlink:href="#m4c99cd72f3" x="291.439701" y="246.04" style="stroke: #000000; stroke-width: 0.8"/>
      </g>
     </g>
     <g id="text_7">
      <text style="font: 10px 'sans-serif'; text-anchor: middle" x="291.439701" y="260.213437" transform="rotate(-0, 291.439701, 260.213437)">40</text>
     </g>
    </g>
    <g id="xtick_8">
     <g id="line2d_10">
      <g>
       <use xlink:href="#m4c99cd72f3" x="315.545436" y="246.04" style="stroke: #000000; stroke-width: 0.8"/>
      </g>
     </g>
     <g id="text_8">
      <text style="font: 10px 'sans-serif'; text-anchor: middle" x="315.545436" y="260.213437" transform="rotate(-0, 315.545436, 260.213437)">30</text>
     </g>
    </g>
    <g id="xtick_9">
     <g id="line2d_11">
      <g>
       <use xlink:href="#m4c99cd72f3" x="339.651172" y="246.04" style="stroke: #000000; stroke-width: 0.8"/>
      </g>
     </g>
     <g id="text_9">
      <text style="font: 10px 'sans-serif'; text-anchor: middle" x="339.651172" y="260.213437" transform="rotate(-0, 339.651172, 260.213437)">20</text>
     </g>
    </g>
    <g id="xtick_10">
     <g id="line2d_12">
      <g>
       <use xlink:href="#m4c99cd72f3" x="363.756908" y="246.04" style="stroke: #000000; stroke-width: 0.8"/>
      </g>
     </g>
     <g id="text_10">
      <text style="font: 10px 'sans-serif'; text-anchor: middle" x="363.756908" y="260.213437" transform="rotate(-0, 363.756908, 260.213437)">10</text>
     </g>
    </g>
    <g id="xtick_11">
     <g id="line2d_13">
      <g>
       <use xlink:href="#m4c99cd72f3" x="387.862643" y="246.04" style="stroke: #000000; stroke-width: 0.8"/>
      </g>
     </g>
     <g id="text_11">
      <text style="font: 10px 'sans-serif'; text-anchor: middle" x="387.862643" y="260.213437" transform="rotate(-0, 387.862643, 260.213437)">0</text>
     </g>
    </g>
    <g id="xtick_12">
     <g id="line2d_14">
      <g>
       <use xlink:href="#m4c99cd72f3" x="411.968379" y="246.04" style="stroke: #000000; stroke-width: 0.8"/>
      </g>
     </g>
     <g id="text_12">
      <text style="font: 10px 'sans-serif'; text-anchor: middle" x="411.968379" y="260.213437" transform="rotate(-0, 411.968379, 260.213437)">10</text>
     </g>
    </g>
    <g id="xtick_13">
     <g id="line2d_15">
      <g>
       <use xlink:href="#m4c99cd72f3" x="436.074115" y="246.04" style="stroke: #000000; stroke-width: 0.8"/>
      </g>
     </g>
     <g id="text_13">
      <text style="font: 10px 'sans-serif'; text-anchor: middle" x="436.074115" y="260.213437" transform="rotate(-0, 436.074115, 260.213437)">20</text>
     </g>
    </g>
    <g id="xtick_14">
     <g id="line2d_16">
      <g>
       <use xlink:href="#m4c99cd72f3" x="460.17985" y="246.04" style="stroke: #000000; stroke-width: 0.8"/>
      </g>
     </g>
     <g id="text_14">
      <text style="font: 10px 'sans-serif'; text-anchor: middle" x="460.17985" y="260.213437" transform="rotate(-0, 460.17985, 260.213437)">30</text>
     </g>
    </g>
    <g id="xtick_15">
     <g id="line2d_17">
      <g>
       <use xlink:href="#m4c99cd72f3" x="484.285586" y="246.04" style="stroke: #000000; stroke-width: 0.8"/>
      </g>
     </g>
     <g id="text_15">
      <text style="font: 10px 'sans-serif'; text-anchor: middle" x="484.285586" y="260.213437" transform="rotate(-0, 484.285586, 260.213437)">40</text>
     </g>
    </g>
    <g id="xtick_16">
     <g id="line2d_18">
      <g>
       <use xlink:href="#m4c99cd72f3" x="508.391322" y="246.04" style="stroke: #000000; stroke-width: 0.8"/>
      </g>
     </g>
     <g id="text_16">
      <text style="font: 10px 'sans-serif'; text-anchor: middle" x="508.391322" y="260.213437" transform="rotate(-0, 508.391322, 260.213437)">50</text>
     </g>
    </g>
    <g id="xtick_17">
     <g id="line2d_19">
      <g>
       <use xlink:href="#m4c99cd72f3" x="532.497057" y="246.04" style="stroke: #000000; stroke-width: 0.8"/>
      </g>
     </g>
     <g id="text_17">
      <text style="font: 10px 'sans-serif'; text-anchor: middle" x="532.497057" y="260.213437" transform="rotate(-0, 532.497057, 260.213437)">60</text>
     </g>
    </g>
    <g id="xtick_18">
     <g id="line2d_20">
      <g>
       <use xlink:href="#m4c99cd72f3" x="556.602793" y="246.04" style="stroke: #000000; stroke-width: 0.8"/>
      </g>
     </g>
     <g id="text_18">
      <text style="font: 10px 'sans-serif'; text-anchor: middle" x="556.602793" y="260.213437" transform="rotate(-0, 556.602793, 260.213437)">70</text>
     </g>
    </g>
    <g id="xtick_19">
     <g id="line2d_21">
      <g>
       <use xlink:href="#m4c99cd72f3" x="580.708529" y="246.04" style="stroke: #000000; stroke-width: 0.8"/>
      </g>
     </g>
     <g id="text_19">
      <text style="font: 10px 'sans-serif'; text-anchor: middle" x="580.708529" y="260.213437" transform="rotate(-0, 580.708529, 260.213437)">80</text>
     </g>
    </g>
    <g id="xtick_20">
     <g id="line2d_22">
      <g>
       <use xlink:href="#m4c99cd72f3" x="604.814264" y="246.04" style="stroke: #000000; stroke-width: 0.8"/>
      </g>
     </g>
     <g id="text_20">
      <text style="font: 10px 'sans-serif'; text-anchor: middle" x="604.814264" y="260.213437" transform="rotate(-0, 604.814264, 260.213437)">90</text>
     </g>
    </g>
    <g id="xtick_21">
     <g id="line2d_23">
      <g>
       <use xlink:href="#m4c99cd72f3" x="628.92" y="246.04" style="stroke: #000000; stroke-width: 0.8"/>
      </g>
     </g>
     <g id="text_21">
      <text style="font: 10px 'sans-serif'; text-anchor: middle" x="628.92" y="260.213437" transform="rotate(-0, 628.92, 260.213437)">100</text>
     </g>
    </g>
    <g id="text_22">
     <text style="font: 10px 'sans-serif'; text-anchor: middle" x="387.26" y="273.47125" transform="rotate(-0, 387.26, 273.47125)">Percentage</text>
    </g>
   </g>
   <g id="matplotlib.axis_2">
    <g id="ytick_1">
     <g id="line2d_24">
      <defs>
       <path id="m8e343aef83" d="M 0 0 
L -3.5 0 
" style="stroke: #000000; stroke-width: 0.8"/>
      </defs>
      <g>
       <use xlink:href="#m8e343aef83" x="145.6" y="191.447071" style="stroke: #000000; stroke-width: 0.8"/>
      </g>
     </g>
     <g id="text_23">
      <text style="font: 11px 'sans-serif'" transform="translate(26.104375 178.325789)">percEmp1. It would not</text>
      <text style="font: 11px 'sans-serif'" transform="translate(49.34875 190.221602)">be very difficult for</text>
      <text style="font: 11px 'sans-serif'" transform="translate(24.253281 202.048664)">me to get an equivalent</text>
      <text style="font: 11px 'sans-serif'" transform="translate(10.809219 214.085414)">job in a different institution</text>
     </g>
    </g>
    <g id="ytick_2">
     <g id="line2d_25">
      <g>
       <use xlink:href="#m8e343aef83" x="145.6" y="80.032929" style="stroke: #000000; stroke-width: 0.8"/>
      </g>
     </g>
     <g id="text_24">
      <text style="font: 11px 'sans-serif'" transform="translate(10.829844 72.972992)">percEmp3. My experience</text>
      <text style="font: 11px 'sans-serif'" transform="translate(42.599219 84.800054)">is in demand on the</text>
      <text style="font: 11px 'sans-serif'" transform="translate(71.353906 96.561804)">labour market</text>
     </g>
    </g>
   </g>
   <g id="patch_23">
    <path d="M 145.6 246.04 
L 628.92 246.04 
" style="fill: none; stroke: #000000; stroke-width: 0.8; stroke-linejoin: miter; stroke-linecap: square"/>
   </g>
   <g id="text_25">
    <text style="font: 10px 'sans-serif'; text-anchor: middle" x="315.968344" y="191.447071" transform="rotate(-0, 315.968344, 191.447071)">7</text>
   </g>
   <g id="text_26">
    <text style="font: 10px 'sans-serif'; text-anchor: middle" x="343.457341" y="191.447071" transform="rotate(-0, 343.457341, 191.447071)">16</text>
   </g>
   <g id="text_27">
    <text style="font: 10px 'sans-serif'; text-anchor: middle" x="387.862643" y="191.447071" transform="rotate(-0, 387.862643, 191.447071)">21</text>
   </g>
   <g id="text_28">
    <text style="font: 10px 'sans-serif'; text-anchor: middle" x="387.862643" y="80.032929" transform="rotate(-0, 387.862643, 80.032929)">9</text>
   </g>
   <g id="text_29">
    <text style="font: 10px 'sans-serif'; text-anchor: middle" x="455.527866" y="191.447071" transform="rotate(-0, 455.527866, 191.447071)">35</text>
   </g>
   <g id="text_30">
    <text style="font: 10px 'sans-serif'; text-anchor: middle" x="470.98587" y="80.032929" transform="rotate(-0, 470.98587, 80.032929)">60</text>
   </g>
   <g id="text_31">
    <text style="font: 10px 'sans-serif'; text-anchor: middle" x="523.193089" y="191.447071" transform="rotate(-0, 523.193089, 191.447071)">21</text>
   </g>
   <g id="text_32">
    <text style="font: 10px 'sans-serif'; text-anchor: middle" x="579.046064" y="80.032929" transform="rotate(-0, 579.046064, 80.032929)">29</text>
   </g>
   <g id="text_33">
    <text style="font: 10px 'sans-serif'; text-anchor: middle" x="315.968344" y="191.447071" transform="rotate(-0, 315.968344, 191.447071)">7</text>
   </g>
   <g id="text_34">
    <text style="font: 10px 'sans-serif'; text-anchor: middle" x="343.457341" y="191.447071" transform="rotate(-0, 343.457341, 191.447071)">16</text>
   </g>
   <g id="text_35">
    <text style="font: 10px 'sans-serif'; text-anchor: middle" x="387.862643" y="191.447071" transform="rotate(-0, 387.862643, 191.447071)">21</text>
   </g>
   <g id="text_36">
    <text style="font: 10px 'sans-serif'; text-anchor: middle" x="387.862643" y="80.032929" transform="rotate(-0, 387.862643, 80.032929)">9</text>
   </g>
   <g id="text_37">
    <text style="font: 10px 'sans-serif'; text-anchor: middle" x="455.527866" y="191.447071" transform="rotate(-0, 455.527866, 191.447071)">35</text>
   </g>
   <g id="text_38">
    <text style="font: 10px 'sans-serif'; text-anchor: middle" x="470.98587" y="80.032929" transform="rotate(-0, 470.98587, 80.032929)">60</text>
   </g>
   <g id="text_39">
    <text style="font: 10px 'sans-serif'; text-anchor: middle" x="523.193089" y="191.447071" transform="rotate(-0, 523.193089, 191.447071)">21</text>
   </g>
   <g id="text_40">
    <text style="font: 10px 'sans-serif'; text-anchor: middle" x="579.046064" y="80.032929" transform="rotate(-0, 579.046064, 80.032929)">29</text>
   </g>
   <g id="text_41">
    <text style="font: 12px 'sans-serif'; text-anchor: middle" x="387.26" y="19.44" transform="rotate(-0, 387.26, 19.44)">Perceived employability</text>
   </g>
   <g id="legend_1">
    <g id="patch_24">
     <path d="M 152.6 241.04 
L 621.92 241.04 
Q 623.92 241.04 623.92 239.04 
L 623.92 225.45875 
Q 623.92 223.45875 621.92 223.45875 
L 152.6 223.45875 
Q 150.6 223.45875 150.6 225.45875 
L 150.6 239.04 
Q 150.6 241.04 152.6 241.04 
z
" style="fill: #ffffff; opacity: 0.8; stroke: #cccccc; stroke-linejoin: miter"/>
    </g>
    <g id="patch_25">
     <path d="M 154.6 234.8275 
L 174.6 234.8275 
L 174.6 227.8275 
L 154.6 227.8275 
z
" style="fill: #67001f"/>
    </g>
    <g id="text_42">
     <text style="font: 10px 'sans-serif'; text-anchor: start" x="182.6" y="234.8275" transform="rotate(-0, 182.6, 234.8275)">Strongly disagree</text>
    </g>
    <g id="patch_26">
     <path d="M 260.734688 234.8275 
L 280.734688 234.8275 
L 280.734688 227.8275 
L 260.734688 227.8275 
z
" style="fill: #e58368"/>
    </g>
    <g id="text_43">
     <text style="font: 10px 'sans-serif'; text-anchor: start" x="288.734688" y="234.8275" transform="rotate(-0, 288.734688, 234.8275)">Disagree</text>
    </g>
    <g id="patch_27">
     <path d="M 329.069375 234.8275 
L 349.069375 234.8275 
L 349.069375 227.8275 
L 329.069375 227.8275 
z
" style="fill: #f6f7f7"/>
    </g>
    <g id="text_44">
     <text style="font: 10px 'sans-serif'; text-anchor: start" x="357.069375" y="234.8275" transform="rotate(-0, 357.069375, 234.8275)">Neither agree or disagree</text>
    </g>
    <g id="patch_28">
     <path d="M 470.775938 234.8275 
L 490.775938 234.8275 
L 490.775938 227.8275 
L 470.775938 227.8275 
z
" style="fill: #68abd0"/>
    </g>
    <g id="text_45">
     <text style="font: 10px 'sans-serif'; text-anchor: start" x="498.775938" y="234.8275" transform="rotate(-0, 498.775938, 234.8275)">Agree</text>
    </g>
    <g id="patch_29">
     <path d="M 525.77625 234.8275 
L 545.77625 234.8275 
L 545.77625 227.8275 
L 525.77625 227.8275 
z
" style="fill: #053061"/>
    </g>
    <g id="text_46">
     <text style="font: 10px 'sans-serif'; text-anchor: start" x="553.77625" y="234.8275" transform="rotate(-0, 553.77625, 234.8275)">Strongly Agree</text>
    </g>
   </g>
  </g>
 </g>
 <defs>
  <clipPath id="p10605901d0">
   <rect x="145.6" y="25.44" width="483.32" height="220.6"/>
  </clipPath>
 </defs>
</svg>
