<?xml version="1.0" encoding="utf-8" standalone="no"?>
<!DOCTYPE svg PUBLIC "-//W3C//DTD SVG 1.1//EN"
  "http://www.w3.org/Graphics/SVG/1.1/DTD/svg11.dtd">
<svg xmlns:xlink="http://www.w3.org/1999/xlink" width="648pt" height="288pt" viewBox="0 0 648 288" xmlns="http://www.w3.org/2000/svg" version="1.1">
 <metadata>
  <rdf:RDF xmlns:dc="http://purl.org/dc/elements/1.1/" xmlns:cc="http://creativecommons.org/ns#" xmlns:rdf="http://www.w3.org/1999/02/22-rdf-syntax-ns#">
   <cc:Work>
    <dc:type rdf:resource="http://purl.org/dc/dcmitype/StillImage"/>
    <dc:date>2022-03-08T15:12:44.779092</dc:date>
    <dc:format>image/svg+xml</dc:format>
    <dc:creator>
     <cc:Agent>
      <dc:title>Matplotlib v3.5.1, https://matplotlib.org/</dc:title>
     </cc:Agent>
    </dc:creator>
   </cc:Work>
  </rdf:RDF>
 </metadata>
 <defs>
  <style type="text/css">*{stroke-linejoin: round; stroke-linecap: butt}</style>
 </defs>
 <g id="figure_1">
  <g id="patch_1">
   <path d="M 0 288 
L 648 288 
L 648 0 
L 0 0 
z
" style="fill: #ffffff"/>
  </g>
  <g id="axes_1">
   <g id="patch_2">
    <path d="M 357.1225 247.55625 
L 630.107847 247.55625 
L 630.107847 47.65125 
L 357.1225 47.65125 
z
" style="fill: #ffffff"/>
   </g>
   <g id="line2d_1">
    <path d="M 493.615174 247.55625 
L 493.615174 47.65125 
" clip-path="url(#p630afd5460)" style="fill: none; stroke-dasharray: 5.55,2.4; stroke-dashoffset: 0; stroke: #000000; stroke-opacity: 0.5; stroke-width: 1.5"/>
   </g>
   <g id="line2d_2">
    <path d="M 493.615174 247.55625 
L 493.615174 47.65125 
" clip-path="url(#p630afd5460)" style="fill: none; stroke-dasharray: 5.55,2.4; stroke-dashoffset: 0; stroke: #000000; stroke-opacity: 0.5; stroke-width: 1.5"/>
   </g>
   <g id="patch_3">
    <path d="M 493.615174 238.469659 
L 493.615174 238.469659 
L 493.615174 157.699962 
L 493.615174 157.699962 
z
" clip-path="url(#p630afd5460)" style="fill: #67001f"/>
   </g>
   <g id="patch_4">
    <path d="M 425.708371 137.507538 
L 425.708371 137.507538 
L 425.708371 56.737841 
L 425.708371 56.737841 
z
" clip-path="url(#p630afd5460)" style="fill: #67001f"/>
   </g>
   <g id="patch_5">
    <path d="M 493.615174 238.469659 
L 493.615174 238.469659 
L 493.615174 157.699962 
L 493.615174 157.699962 
z
" clip-path="url(#p630afd5460)" style="fill: #b61f2e"/>
   </g>
   <g id="patch_6">
    <path d="M 425.708371 137.507538 
L 425.708371 137.507538 
L 425.708371 56.737841 
L 425.708371 56.737841 
z
" clip-path="url(#p630afd5460)" style="fill: #b61f2e"/>
   </g>
   <g id="patch_7">
    <path d="M 493.615174 238.469659 
L 493.615174 238.469659 
L 493.615174 157.699962 
L 493.615174 157.699962 
z
" clip-path="url(#p630afd5460)" style="fill: #dc6e57"/>
   </g>
   <g id="patch_8">
    <path d="M 425.708371 137.507538 
L 425.708371 137.507538 
L 425.708371 56.737841 
L 425.708371 56.737841 
z
" clip-path="url(#p630afd5460)" style="fill: #dc6e57"/>
   </g>
   <g id="patch_9">
    <path d="M 493.615174 238.469659 
L 493.615174 238.469659 
L 493.615174 157.699962 
L 493.615174 157.699962 
z
" clip-path="url(#p630afd5460)" style="fill: #f7b799"/>
   </g>
   <g id="patch_10">
    <path d="M 425.708371 137.507538 
L 425.708371 137.507538 
L 425.708371 56.737841 
L 425.708371 56.737841 
z
" clip-path="url(#p630afd5460)" style="fill: #f7b799"/>
   </g>
   <g id="patch_11">
    <path d="M 493.615174 238.469659 
L 493.615174 238.469659 
L 493.615174 157.699962 
L 493.615174 157.699962 
z
" clip-path="url(#p630afd5460)" style="fill: #fae7dc"/>
   </g>
   <g id="patch_12">
    <path d="M 425.708371 137.507538 
L 493.615174 137.507538 
L 493.615174 56.737841 
L 425.708371 56.737841 
z
" clip-path="url(#p630afd5460)" style="fill: #fae7dc"/>
   </g>
   <g id="patch_13">
    <path d="M 493.615174 238.469659 
L 493.615174 238.469659 
L 493.615174 157.699962 
L 493.615174 157.699962 
z
" clip-path="url(#p630afd5460)" style="fill: #e1edf3"/>
   </g>
   <g id="patch_14">
    <path d="M 493.615174 137.507538 
L 493.615174 137.507538 
L 493.615174 56.737841 
L 493.615174 56.737841 
z
" clip-path="url(#p630afd5460)" style="fill: #e1edf3"/>
   </g>
   <g id="patch_15">
    <path d="M 493.615174 238.469659 
L 629.428779 238.469659 
L 629.428779 157.699962 
L 493.615174 157.699962 
z
" clip-path="url(#p630afd5460)" style="fill: #a7d0e4"/>
   </g>
   <g id="patch_16">
    <path d="M 493.615174 137.507538 
L 561.521977 137.507538 
L 561.521977 56.737841 
L 493.615174 56.737841 
z
" clip-path="url(#p630afd5460)" style="fill: #a7d0e4"/>
   </g>
   <g id="patch_17">
    <path d="M 629.428779 238.469659 
L 629.428779 238.469659 
L 629.428779 157.699962 
L 629.428779 157.699962 
z
" clip-path="url(#p630afd5460)" style="fill: #529dc8"/>
   </g>
   <g id="patch_18">
    <path d="M 561.521977 137.507538 
L 561.521977 137.507538 
L 561.521977 56.737841 
L 561.521977 56.737841 
z
" clip-path="url(#p630afd5460)" style="fill: #529dc8"/>
   </g>
   <g id="patch_19">
    <path d="M 629.428779 238.469659 
L 629.428779 238.469659 
L 629.428779 157.699962 
L 629.428779 157.699962 
z
" clip-path="url(#p630afd5460)" style="fill: #246aae"/>
   </g>
   <g id="patch_20">
    <path d="M 561.521977 137.507538 
L 561.521977 137.507538 
L 561.521977 56.737841 
L 561.521977 56.737841 
z
" clip-path="url(#p630afd5460)" style="fill: #246aae"/>
   </g>
   <g id="patch_21">
    <path d="M 629.428779 238.469659 
L 629.428779 238.469659 
L 629.428779 157.699962 
L 629.428779 157.699962 
z
" clip-path="url(#p630afd5460)" style="fill: #053061"/>
   </g>
   <g id="patch_22">
    <path d="M 561.521977 137.507538 
L 561.521977 137.507538 
L 561.521977 56.737841 
L 561.521977 56.737841 
z
" clip-path="url(#p630afd5460)" style="fill: #053061"/>
   </g>
   <g id="patch_23">
    <path d="M 493.615174 238.469659 
L 493.615174 238.469659 
L 493.615174 157.699962 
L 493.615174 157.699962 
z
" clip-path="url(#p630afd5460)" style="fill: #67001f"/>
   </g>
   <g id="patch_24">
    <path d="M 425.708371 137.507538 
L 425.708371 137.507538 
L 425.708371 56.737841 
L 425.708371 56.737841 
z
" clip-path="url(#p630afd5460)" style="fill: #67001f"/>
   </g>
   <g id="patch_25">
    <path d="M 493.615174 238.469659 
L 493.615174 238.469659 
L 493.615174 157.699962 
L 493.615174 157.699962 
z
" clip-path="url(#p630afd5460)" style="fill: #b61f2e"/>
   </g>
   <g id="patch_26">
    <path d="M 425.708371 137.507538 
L 425.708371 137.507538 
L 425.708371 56.737841 
L 425.708371 56.737841 
z
" clip-path="url(#p630afd5460)" style="fill: #b61f2e"/>
   </g>
   <g id="patch_27">
    <path d="M 493.615174 238.469659 
L 493.615174 238.469659 
L 493.615174 157.699962 
L 493.615174 157.699962 
z
" clip-path="url(#p630afd5460)" style="fill: #dc6e57"/>
   </g>
   <g id="patch_28">
    <path d="M 425.708371 137.507538 
L 425.708371 137.507538 
L 425.708371 56.737841 
L 425.708371 56.737841 
z
" clip-path="url(#p630afd5460)" style="fill: #dc6e57"/>
   </g>
   <g id="patch_29">
    <path d="M 493.615174 238.469659 
L 493.615174 238.469659 
L 493.615174 157.699962 
L 493.615174 157.699962 
z
" clip-path="url(#p630afd5460)" style="fill: #f7b799"/>
   </g>
   <g id="patch_30">
    <path d="M 425.708371 137.507538 
L 425.708371 137.507538 
L 425.708371 56.737841 
L 425.708371 56.737841 
z
" clip-path="url(#p630afd5460)" style="fill: #f7b799"/>
   </g>
   <g id="patch_31">
    <path d="M 493.615174 238.469659 
L 493.615174 238.469659 
L 493.615174 157.699962 
L 493.615174 157.699962 
z
" clip-path="url(#p630afd5460)" style="fill: #fae7dc"/>
   </g>
   <g id="patch_32">
    <path d="M 425.708371 137.507538 
L 493.615174 137.507538 
L 493.615174 56.737841 
L 425.708371 56.737841 
z
" clip-path="url(#p630afd5460)" style="fill: #fae7dc"/>
   </g>
   <g id="patch_33">
    <path d="M 493.615174 238.469659 
L 493.615174 238.469659 
L 493.615174 157.699962 
L 493.615174 157.699962 
z
" clip-path="url(#p630afd5460)" style="fill: #e1edf3"/>
   </g>
   <g id="patch_34">
    <path d="M 493.615174 137.507538 
L 493.615174 137.507538 
L 493.615174 56.737841 
L 493.615174 56.737841 
z
" clip-path="url(#p630afd5460)" style="fill: #e1edf3"/>
   </g>
   <g id="patch_35">
    <path d="M 493.615174 238.469659 
L 629.428779 238.469659 
L 629.428779 157.699962 
L 493.615174 157.699962 
z
" clip-path="url(#p630afd5460)" style="fill: #a7d0e4"/>
   </g>
   <g id="patch_36">
    <path d="M 493.615174 137.507538 
L 561.521977 137.507538 
L 561.521977 56.737841 
L 493.615174 56.737841 
z
" clip-path="url(#p630afd5460)" style="fill: #a7d0e4"/>
   </g>
   <g id="patch_37">
    <path d="M 629.428779 238.469659 
L 629.428779 238.469659 
L 629.428779 157.699962 
L 629.428779 157.699962 
z
" clip-path="url(#p630afd5460)" style="fill: #529dc8"/>
   </g>
   <g id="patch_38">
    <path d="M 561.521977 137.507538 
L 561.521977 137.507538 
L 561.521977 56.737841 
L 561.521977 56.737841 
z
" clip-path="url(#p630afd5460)" style="fill: #529dc8"/>
   </g>
   <g id="patch_39">
    <path d="M 629.428779 238.469659 
L 629.428779 238.469659 
L 629.428779 157.699962 
L 629.428779 157.699962 
z
" clip-path="url(#p630afd5460)" style="fill: #246aae"/>
   </g>
   <g id="patch_40">
    <path d="M 561.521977 137.507538 
L 561.521977 137.507538 
L 561.521977 56.737841 
L 561.521977 56.737841 
z
" clip-path="url(#p630afd5460)" style="fill: #246aae"/>
   </g>
   <g id="patch_41">
    <path d="M 629.428779 238.469659 
L 629.428779 238.469659 
L 629.428779 157.699962 
L 629.428779 157.699962 
z
" clip-path="url(#p630afd5460)" style="fill: #053061"/>
   </g>
   <g id="patch_42">
    <path d="M 561.521977 137.507538 
L 561.521977 137.507538 
L 561.521977 56.737841 
L 561.521977 56.737841 
z
" clip-path="url(#p630afd5460)" style="fill: #053061"/>
   </g>
   <g id="matplotlib.axis_1">
    <g id="xtick_1">
     <g id="line2d_3">
      <defs>
       <path id="m4c99cd72f3" d="M 0 0 
L 0 3.5 
" style="stroke: #000000; stroke-width: 0.8"/>
      </defs>
      <g>
       <use xlink:href="#m4c99cd72f3" x="357.801568" y="247.55625" style="stroke: #000000; stroke-width: 0.8"/>
      </g>
     </g>
     <g id="text_1">
      <text style="font: 10px 'sans-serif'; text-anchor: middle" x="357.801568" y="261.729688" transform="rotate(-0, 357.801568, 261.729688)">100</text>
     </g>
    </g>
    <g id="xtick_2">
     <g id="line2d_4">
      <g>
       <use xlink:href="#m4c99cd72f3" x="371.382929" y="247.55625" style="stroke: #000000; stroke-width: 0.8"/>
      </g>
     </g>
     <g id="text_2">
      <text style="font: 10px 'sans-serif'; text-anchor: middle" x="371.382929" y="261.729688" transform="rotate(-0, 371.382929, 261.729688)">90</text>
     </g>
    </g>
    <g id="xtick_3">
     <g id="line2d_5">
      <g>
       <use xlink:href="#m4c99cd72f3" x="384.964289" y="247.55625" style="stroke: #000000; stroke-width: 0.8"/>
      </g>
     </g>
     <g id="text_3">
      <text style="font: 10px 'sans-serif'; text-anchor: middle" x="384.964289" y="261.729688" transform="rotate(-0, 384.964289, 261.729688)">80</text>
     </g>
    </g>
    <g id="xtick_4">
     <g id="line2d_6">
      <g>
       <use xlink:href="#m4c99cd72f3" x="398.54565" y="247.55625" style="stroke: #000000; stroke-width: 0.8"/>
      </g>
     </g>
     <g id="text_4">
      <text style="font: 10px 'sans-serif'; text-anchor: middle" x="398.54565" y="261.729688" transform="rotate(-0, 398.54565, 261.729688)">70</text>
     </g>
    </g>
    <g id="xtick_5">
     <g id="line2d_7">
      <g>
       <use xlink:href="#m4c99cd72f3" x="412.12701" y="247.55625" style="stroke: #000000; stroke-width: 0.8"/>
      </g>
     </g>
     <g id="text_5">
      <text style="font: 10px 'sans-serif'; text-anchor: middle" x="412.12701" y="261.729688" transform="rotate(-0, 412.12701, 261.729688)">60</text>
     </g>
    </g>
    <g id="xtick_6">
     <g id="line2d_8">
      <g>
       <use xlink:href="#m4c99cd72f3" x="425.708371" y="247.55625" style="stroke: #000000; stroke-width: 0.8"/>
      </g>
     </g>
     <g id="text_6">
      <text style="font: 10px 'sans-serif'; text-anchor: middle" x="425.708371" y="261.729688" transform="rotate(-0, 425.708371, 261.729688)">50</text>
     </g>
    </g>
    <g id="xtick_7">
     <g id="line2d_9">
      <g>
       <use xlink:href="#m4c99cd72f3" x="439.289731" y="247.55625" style="stroke: #000000; stroke-width: 0.8"/>
      </g>
     </g>
     <g id="text_7">
      <text style="font: 10px 'sans-serif'; text-anchor: middle" x="439.289731" y="261.729688" transform="rotate(-0, 439.289731, 261.729688)">40</text>
     </g>
    </g>
    <g id="xtick_8">
     <g id="line2d_10">
      <g>
       <use xlink:href="#m4c99cd72f3" x="452.871092" y="247.55625" style="stroke: #000000; stroke-width: 0.8"/>
      </g>
     </g>
     <g id="text_8">
      <text style="font: 10px 'sans-serif'; text-anchor: middle" x="452.871092" y="261.729688" transform="rotate(-0, 452.871092, 261.729688)">30</text>
     </g>
    </g>
    <g id="xtick_9">
     <g id="line2d_11">
      <g>
       <use xlink:href="#m4c99cd72f3" x="466.452453" y="247.55625" style="stroke: #000000; stroke-width: 0.8"/>
      </g>
     </g>
     <g id="text_9">
      <text style="font: 10px 'sans-serif'; text-anchor: middle" x="466.452453" y="261.729688" transform="rotate(-0, 466.452453, 261.729688)">20</text>
     </g>
    </g>
    <g id="xtick_10">
     <g id="line2d_12">
      <g>
       <use xlink:href="#m4c99cd72f3" x="480.033813" y="247.55625" style="stroke: #000000; stroke-width: 0.8"/>
      </g>
     </g>
     <g id="text_10">
      <text style="font: 10px 'sans-serif'; text-anchor: middle" x="480.033813" y="261.729688" transform="rotate(-0, 480.033813, 261.729688)">10</text>
     </g>
    </g>
    <g id="xtick_11">
     <g id="line2d_13">
      <g>
       <use xlink:href="#m4c99cd72f3" x="493.615174" y="247.55625" style="stroke: #000000; stroke-width: 0.8"/>
      </g>
     </g>
     <g id="text_11">
      <text style="font: 10px 'sans-serif'; text-anchor: middle" x="493.615174" y="261.729688" transform="rotate(-0, 493.615174, 261.729688)">0</text>
     </g>
    </g>
    <g id="xtick_12">
     <g id="line2d_14">
      <g>
       <use xlink:href="#m4c99cd72f3" x="507.196534" y="247.55625" style="stroke: #000000; stroke-width: 0.8"/>
      </g>
     </g>
     <g id="text_12">
      <text style="font: 10px 'sans-serif'; text-anchor: middle" x="507.196534" y="261.729688" transform="rotate(-0, 507.196534, 261.729688)">10</text>
     </g>
    </g>
    <g id="xtick_13">
     <g id="line2d_15">
      <g>
       <use xlink:href="#m4c99cd72f3" x="520.777895" y="247.55625" style="stroke: #000000; stroke-width: 0.8"/>
      </g>
     </g>
     <g id="text_13">
      <text style="font: 10px 'sans-serif'; text-anchor: middle" x="520.777895" y="261.729688" transform="rotate(-0, 520.777895, 261.729688)">20</text>
     </g>
    </g>
    <g id="xtick_14">
     <g id="line2d_16">
      <g>
       <use xlink:href="#m4c99cd72f3" x="534.359255" y="247.55625" style="stroke: #000000; stroke-width: 0.8"/>
      </g>
     </g>
     <g id="text_14">
      <text style="font: 10px 'sans-serif'; text-anchor: middle" x="534.359255" y="261.729688" transform="rotate(-0, 534.359255, 261.729688)">30</text>
     </g>
    </g>
    <g id="xtick_15">
     <g id="line2d_17">
      <g>
       <use xlink:href="#m4c99cd72f3" x="547.940616" y="247.55625" style="stroke: #000000; stroke-width: 0.8"/>
      </g>
     </g>
     <g id="text_15">
      <text style="font: 10px 'sans-serif'; text-anchor: middle" x="547.940616" y="261.729688" transform="rotate(-0, 547.940616, 261.729688)">40</text>
     </g>
    </g>
    <g id="xtick_16">
     <g id="line2d_18">
      <g>
       <use xlink:href="#m4c99cd72f3" x="561.521977" y="247.55625" style="stroke: #000000; stroke-width: 0.8"/>
      </g>
     </g>
     <g id="text_16">
      <text style="font: 10px 'sans-serif'; text-anchor: middle" x="561.521977" y="261.729688" transform="rotate(-0, 561.521977, 261.729688)">50</text>
     </g>
    </g>
    <g id="xtick_17">
     <g id="line2d_19">
      <g>
       <use xlink:href="#m4c99cd72f3" x="575.103337" y="247.55625" style="stroke: #000000; stroke-width: 0.8"/>
      </g>
     </g>
     <g id="text_17">
      <text style="font: 10px 'sans-serif'; text-anchor: middle" x="575.103337" y="261.729688" transform="rotate(-0, 575.103337, 261.729688)">60</text>
     </g>
    </g>
    <g id="xtick_18">
     <g id="line2d_20">
      <g>
       <use xlink:href="#m4c99cd72f3" x="588.684698" y="247.55625" style="stroke: #000000; stroke-width: 0.8"/>
      </g>
     </g>
     <g id="text_18">
      <text style="font: 10px 'sans-serif'; text-anchor: middle" x="588.684698" y="261.729688" transform="rotate(-0, 588.684698, 261.729688)">70</text>
     </g>
    </g>
    <g id="xtick_19">
     <g id="line2d_21">
      <g>
       <use xlink:href="#m4c99cd72f3" x="602.266058" y="247.55625" style="stroke: #000000; stroke-width: 0.8"/>
      </g>
     </g>
     <g id="text_19">
      <text style="font: 10px 'sans-serif'; text-anchor: middle" x="602.266058" y="261.729688" transform="rotate(-0, 602.266058, 261.729688)">80</text>
     </g>
    </g>
    <g id="xtick_20">
     <g id="line2d_22">
      <g>
       <use xlink:href="#m4c99cd72f3" x="615.847419" y="247.55625" style="stroke: #000000; stroke-width: 0.8"/>
      </g>
     </g>
     <g id="text_20">
      <text style="font: 10px 'sans-serif'; text-anchor: middle" x="615.847419" y="261.729688" transform="rotate(-0, 615.847419, 261.729688)">90</text>
     </g>
    </g>
    <g id="xtick_21">
     <g id="line2d_23">
      <g>
       <use xlink:href="#m4c99cd72f3" x="629.428779" y="247.55625" style="stroke: #000000; stroke-width: 0.8"/>
      </g>
     </g>
     <g id="text_21">
      <text style="font: 10px 'sans-serif'; text-anchor: middle" x="629.428779" y="261.729688" transform="rotate(-0, 629.428779, 261.729688)">100</text>
     </g>
    </g>
    <g id="text_22">
     <text style="font: 10px 'sans-serif'; text-anchor: middle" x="493.615174" y="274.9875" transform="rotate(-0, 493.615174, 274.9875)">Percentage</text>
    </g>
   </g>
   <g id="matplotlib.axis_2">
    <g id="ytick_1">
     <g id="line2d_24">
      <defs>
       <path id="m8e343aef83" d="M 0 0 
L -3.5 0 
" style="stroke: #000000; stroke-width: 0.8"/>
      </defs>
      <g>
       <use xlink:href="#m8e343aef83" x="357.1225" y="198.084811" style="stroke: #000000; stroke-width: 0.8"/>
      </g>
     </g>
     <g id="text_23">
      <text style="font: 11px 'sans-serif'; text-anchor: end" x="350.1225" y="202.137623" transform="rotate(-0, 350.1225, 202.137623)">satisGen1. In general, how satisfied are you with your current position</text>
     </g>
    </g>
    <g id="ytick_2">
     <g id="line2d_25">
      <g>
       <use xlink:href="#m8e343aef83" x="357.1225" y="97.122689" style="stroke: #000000; stroke-width: 0.8"/>
      </g>
     </g>
     <g id="text_24">
      <text style="font: 11px 'sans-serif'; text-anchor: end" x="350.1225" y="101.175502" transform="rotate(-0, 350.1225, 101.175502)">satisGen2. In general, how satisfied are you with your career</text>
     </g>
    </g>
   </g>
   <g id="patch_43">
    <path d="M 357.1225 247.55625 
L 630.107847 247.55625 
" style="fill: none; stroke: #000000; stroke-width: 0.8; stroke-linejoin: miter; stroke-linecap: square"/>
   </g>
   <g id="text_25">
    <text style="font: 10px 'sans-serif'; text-anchor: middle" x="459.661772" y="97.122689" transform="rotate(-0, 459.661772, 97.122689)">50</text>
   </g>
   <g id="text_26">
    <text style="font: 10px 'sans-serif'; text-anchor: middle" x="561.521977" y="198.084811" transform="rotate(-0, 561.521977, 198.084811)">100</text>
   </g>
   <g id="text_27">
    <text style="font: 10px 'sans-serif'; text-anchor: middle" x="527.568575" y="97.122689" transform="rotate(-0, 527.568575, 97.122689)">50</text>
   </g>
   <g id="text_28">
    <text style="font: 10px 'sans-serif'; text-anchor: middle" x="459.661772" y="97.122689" transform="rotate(-0, 459.661772, 97.122689)">50</text>
   </g>
   <g id="text_29">
    <text style="font: 10px 'sans-serif'; text-anchor: middle" x="561.521977" y="198.084811" transform="rotate(-0, 561.521977, 198.084811)">100</text>
   </g>
   <g id="text_30">
    <text style="font: 10px 'sans-serif'; text-anchor: middle" x="527.568575" y="97.122689" transform="rotate(-0, 527.568575, 97.122689)">50</text>
   </g>
   <g id="text_31">
    <text style="font: 12px 'sans-serif'; text-anchor: middle" x="493.615174" y="41.65125" transform="rotate(-0, 493.615174, 41.65125)">Perceived employability</text>
   </g>
   <g id="legend_1">
    <g id="patch_44">
     <path d="M 364.1225 242.55625 
L 623.107847 242.55625 
Q 625.107847 242.55625 625.107847 240.55625 
L 625.107847 227.298438 
Q 625.107847 225.298438 623.107847 225.298438 
L 364.1225 225.298438 
Q 362.1225 225.298438 362.1225 227.298438 
L 362.1225 240.55625 
Q 362.1225 242.55625 364.1225 242.55625 
z
" style="fill: #ffffff; opacity: 0.8; stroke: #cccccc; stroke-linejoin: miter"/>
    </g>
    <g id="patch_45">
     <path d="M 366.1225 236.471875 
L 386.1225 236.471875 
L 386.1225 229.471875 
L 366.1225 229.471875 
z
" style="fill: #67001f"/>
    </g>
    <g id="text_32">
     <text style="font: 10px 'sans-serif'; text-anchor: start" x="394.1225" y="236.471875" transform="rotate(-0, 394.1225, 236.471875)">1</text>
    </g>
    <g id="patch_46">
     <path d="M 390.10733 236.471875 
L 410.10733 236.471875 
L 410.10733 229.471875 
L 390.10733 229.471875 
z
" style="fill: #b61f2e"/>
    </g>
    <g id="text_33">
     <text style="font: 10px 'sans-serif'; text-anchor: start" x="418.10733" y="236.471875" transform="rotate(-0, 418.10733, 236.471875)">2</text>
    </g>
    <g id="patch_47">
     <path d="M 414.092161 236.471875 
L 434.092161 236.471875 
L 434.092161 229.471875 
L 414.092161 229.471875 
z
" style="fill: #dc6e57"/>
    </g>
    <g id="text_34">
     <text style="font: 10px 'sans-serif'; text-anchor: start" x="442.092161" y="236.471875" transform="rotate(-0, 442.092161, 236.471875)">3</text>
    </g>
    <g id="patch_48">
     <path d="M 438.076991 236.471875 
L 458.076991 236.471875 
L 458.076991 229.471875 
L 438.076991 229.471875 
z
" style="fill: #f7b799"/>
    </g>
    <g id="text_35">
     <text style="font: 10px 'sans-serif'; text-anchor: start" x="466.076991" y="236.471875" transform="rotate(-0, 466.076991, 236.471875)">4</text>
    </g>
    <g id="patch_49">
     <path d="M 462.061821 236.471875 
L 482.061821 236.471875 
L 482.061821 229.471875 
L 462.061821 229.471875 
z
" style="fill: #fae7dc"/>
    </g>
    <g id="text_36">
     <text style="font: 10px 'sans-serif'; text-anchor: start" x="490.061821" y="236.471875" transform="rotate(-0, 490.061821, 236.471875)">5</text>
    </g>
    <g id="patch_50">
     <path d="M 486.046651 236.471875 
L 506.046651 236.471875 
L 506.046651 229.471875 
L 486.046651 229.471875 
z
" style="fill: #e1edf3"/>
    </g>
    <g id="text_37">
     <text style="font: 10px 'sans-serif'; text-anchor: start" x="514.046651" y="236.471875" transform="rotate(-0, 514.046651, 236.471875)">6</text>
    </g>
    <g id="patch_51">
     <path d="M 510.031482 236.471875 
L 530.031482 236.471875 
L 530.031482 229.471875 
L 510.031482 229.471875 
z
" style="fill: #a7d0e4"/>
    </g>
    <g id="text_38">
     <text style="font: 10px 'sans-serif'; text-anchor: start" x="538.031482" y="236.471875" transform="rotate(-0, 538.031482, 236.471875)">7</text>
    </g>
    <g id="patch_52">
     <path d="M 534.016312 236.471875 
L 554.016312 236.471875 
L 554.016312 229.471875 
L 534.016312 229.471875 
z
" style="fill: #529dc8"/>
    </g>
    <g id="text_39">
     <text style="font: 10px 'sans-serif'; text-anchor: start" x="562.016312" y="236.471875" transform="rotate(-0, 562.016312, 236.471875)">8</text>
    </g>
    <g id="patch_53">
     <path d="M 558.001142 236.471875 
L 578.001142 236.471875 
L 578.001142 229.471875 
L 558.001142 229.471875 
z
" style="fill: #246aae"/>
    </g>
    <g id="text_40">
     <text style="font: 10px 'sans-serif'; text-anchor: start" x="586.001142" y="236.471875" transform="rotate(-0, 586.001142, 236.471875)">9</text>
    </g>
    <g id="patch_54">
     <path d="M 581.985972 236.471875 
L 601.985972 236.471875 
L 601.985972 229.471875 
L 581.985972 229.471875 
z
" style="fill: #053061"/>
    </g>
    <g id="text_41">
     <text style="font: 10px 'sans-serif'; text-anchor: start" x="609.985972" y="236.471875" transform="rotate(-0, 609.985972, 236.471875)">10</text>
    </g>
   </g>
  </g>
  <g id="text_42">
   <text style="font: 12px 'sans-serif'; text-anchor: middle" x="324" y="14.6025" transform="rotate(-0, 324, 14.6025)">Perceived employability: South Africa</text>
  </g>
 </g>
 <defs>
  <clipPath id="p630afd5460">
   <rect x="357.1225" y="47.65125" width="272.985347" height="199.905"/>
  </clipPath>
 </defs>
</svg>
