<?xml version="1.0" encoding="utf-8" standalone="no"?>
<!DOCTYPE svg PUBLIC "-//W3C//DTD SVG 1.1//EN"
  "http://www.w3.org/Graphics/SVG/1.1/DTD/svg11.dtd">
<svg xmlns:xlink="http://www.w3.org/1999/xlink" width="648pt" height="468pt" viewBox="0 0 648 468" xmlns="http://www.w3.org/2000/svg" version="1.1">
 <metadata>
  <rdf:RDF xmlns:dc="http://purl.org/dc/elements/1.1/" xmlns:cc="http://creativecommons.org/ns#" xmlns:rdf="http://www.w3.org/1999/02/22-rdf-syntax-ns#">
   <cc:Work>
    <dc:type rdf:resource="http://purl.org/dc/dcmitype/StillImage"/>
    <dc:date>2022-03-21T16:08:47.844027</dc:date>
    <dc:format>image/svg+xml</dc:format>
    <dc:creator>
     <cc:Agent>
      <dc:title>Matplotlib v3.5.1, https://matplotlib.org/</dc:title>
     </cc:Agent>
    </dc:creator>
   </cc:Work>
  </rdf:RDF>
 </metadata>
 <defs>
  <style type="text/css">*{stroke-linejoin: round; stroke-linecap: butt}</style>
 </defs>
 <g id="figure_1">
  <g id="patch_1">
   <path d="M 0 468 
L 648 468 
L 648 0 
L 0 0 
z
" style="fill: #ffffff"/>
  </g>
  <g id="axes_1">
   <g id="patch_2">
    <path d="M 250.156094 427.55625 
L 572.344028 427.55625 
L 572.344028 47.73375 
L 250.156094 47.73375 
z
" style="fill: #ffffff"/>
   </g>
   <g id="line2d_1">
    <path d="M 411.651791 427.55625 
L 411.651791 47.73375 
" clip-path="url(#pd116c376d2)" style="fill: none; stroke-dasharray: 5.55,2.4; stroke-dashoffset: 0; stroke: #000000; stroke-opacity: 0.5; stroke-width: 1.5"/>
   </g>
   <g id="line2d_2">
    <path d="M 411.651791 427.55625 
L 411.651791 47.73375 
" clip-path="url(#pd116c376d2)" style="fill: none; stroke-dasharray: 5.55,2.4; stroke-dashoffset: 0; stroke: #000000; stroke-opacity: 0.5; stroke-width: 1.5"/>
   </g>
   <g id="line2d_3">
    <path d="M 411.651791 427.55625 
L 411.651791 47.73375 
" clip-path="url(#pd116c376d2)" style="fill: none; stroke-dasharray: 5.55,2.4; stroke-dashoffset: 0; stroke: #000000; stroke-opacity: 0.5; stroke-width: 1.5"/>
   </g>
   <g id="line2d_4">
    <path d="M 411.651791 427.55625 
L 411.651791 47.73375 
" clip-path="url(#pd116c376d2)" style="fill: none; stroke-dasharray: 5.55,2.4; stroke-dashoffset: 0; stroke: #000000; stroke-opacity: 0.5; stroke-width: 1.5"/>
   </g>
   <g id="patch_3">
    <path d="M 286.394253 378.014185 
L 347.374897 378.014185 
L 347.374897 311.958098 
L 286.394253 311.958098 
z
" clip-path="url(#pd116c376d2)" style="fill: #67001f"/>
   </g>
   <g id="patch_4">
    <path d="M 295.499251 295.444076 
L 350.518875 295.444076 
L 350.518875 229.387989 
L 295.499251 229.387989 
z
" clip-path="url(#pd116c376d2)" style="fill: #67001f"/>
   </g>
   <g id="patch_5">
    <path d="M 307.284669 212.873967 
L 347.871883 212.873967 
L 347.871883 146.81788 
L 307.284669 146.81788 
z
" clip-path="url(#pd116c376d2)" style="fill: #67001f"/>
   </g>
   <g id="patch_6">
    <path d="M 350.288547 130.303859 
L 371.478732 130.303859 
L 371.478732 64.247772 
L 350.288547 64.247772 
z
" clip-path="url(#pd116c376d2)" style="fill: #67001f"/>
   </g>
   <g id="patch_7">
    <path d="M 347.374897 378.014185 
L 394.346474 378.014185 
L 394.346474 311.958098 
L 347.374897 311.958098 
z
" clip-path="url(#pd116c376d2)" style="fill: #e58368"/>
   </g>
   <g id="patch_8">
    <path d="M 350.518875 295.444076 
L 396.805226 295.444076 
L 396.805226 229.387989 
L 350.518875 229.387989 
z
" clip-path="url(#pd116c376d2)" style="fill: #e58368"/>
   </g>
   <g id="patch_9">
    <path d="M 347.871883 212.873967 
L 394.257271 212.873967 
L 394.257271 146.81788 
L 347.871883 146.81788 
z
" clip-path="url(#pd116c376d2)" style="fill: #e58368"/>
   </g>
   <g id="patch_10">
    <path d="M 371.478732 130.303859 
L 392.668917 130.303859 
L 392.668917 64.247772 
L 371.478732 64.247772 
z
" clip-path="url(#pd116c376d2)" style="fill: #e58368"/>
   </g>
   <g id="patch_11">
    <path d="M 394.346474 378.014185 
L 428.957109 378.014185 
L 428.957109 311.958098 
L 394.346474 311.958098 
z
" clip-path="url(#pd116c376d2)" style="fill: #f6f7f7"/>
   </g>
   <g id="patch_12">
    <path d="M 396.805226 295.444076 
L 426.498357 295.444076 
L 426.498357 229.387989 
L 396.805226 229.387989 
z
" clip-path="url(#pd116c376d2)" style="fill: #f6f7f7"/>
   </g>
   <g id="patch_13">
    <path d="M 394.257271 212.873967 
L 429.046312 212.873967 
L 429.046312 146.81788 
L 394.257271 146.81788 
z
" clip-path="url(#pd116c376d2)" style="fill: #f6f7f7"/>
   </g>
   <g id="patch_14">
    <path d="M 392.668917 130.303859 
L 430.634665 130.303859 
L 430.634665 64.247772 
L 392.668917 64.247772 
z
" clip-path="url(#pd116c376d2)" style="fill: #f6f7f7"/>
   </g>
   <g id="patch_15">
    <path d="M 428.957109 378.014185 
L 444.614301 378.014185 
L 444.614301 311.958098 
L 428.957109 311.958098 
z
" clip-path="url(#pd116c376d2)" style="fill: #68abd0"/>
   </g>
   <g id="patch_16">
    <path d="M 426.498357 295.444076 
L 443.091577 295.444076 
L 443.091577 229.387989 
L 426.498357 229.387989 
z
" clip-path="url(#pd116c376d2)" style="fill: #68abd0"/>
   </g>
   <g id="patch_17">
    <path d="M 429.046312 212.873967 
L 460.522111 212.873967 
L 460.522111 146.81788 
L 429.046312 146.81788 
z
" clip-path="url(#pd116c376d2)" style="fill: #68abd0"/>
   </g>
   <g id="patch_18">
    <path d="M 430.634665 130.303859 
L 495.971069 130.303859 
L 495.971069 64.247772 
L 430.634665 64.247772 
z
" clip-path="url(#pd116c376d2)" style="fill: #68abd0"/>
   </g>
   <g id="patch_19">
    <path d="M 444.614301 378.014185 
L 447.08649 378.014185 
L 447.08649 311.958098 
L 444.614301 311.958098 
z
" clip-path="url(#pd116c376d2)" style="fill: #053061"/>
   </g>
   <g id="patch_20">
    <path d="M 443.091577 295.444076 
L 456.191487 295.444076 
L 456.191487 229.387989 
L 443.091577 229.387989 
z
" clip-path="url(#pd116c376d2)" style="fill: #053061"/>
   </g>
   <g id="patch_21">
    <path d="M 460.522111 212.873967 
L 467.976905 212.873967 
L 467.976905 146.81788 
L 460.522111 146.81788 
z
" clip-path="url(#pd116c376d2)" style="fill: #053061"/>
   </g>
   <g id="patch_22">
    <path d="M 495.971069 130.303859 
L 510.980784 130.303859 
L 510.980784 64.247772 
L 495.971069 64.247772 
z
" clip-path="url(#pd116c376d2)" style="fill: #053061"/>
   </g>
   <g id="patch_23">
    <path d="M 286.394253 378.014185 
L 347.374897 378.014185 
L 347.374897 311.958098 
L 286.394253 311.958098 
z
" clip-path="url(#pd116c376d2)" style="fill: #67001f"/>
   </g>
   <g id="patch_24">
    <path d="M 295.499251 295.444076 
L 350.518875 295.444076 
L 350.518875 229.387989 
L 295.499251 229.387989 
z
" clip-path="url(#pd116c376d2)" style="fill: #67001f"/>
   </g>
   <g id="patch_25">
    <path d="M 307.284669 212.873967 
L 347.871883 212.873967 
L 347.871883 146.81788 
L 307.284669 146.81788 
z
" clip-path="url(#pd116c376d2)" style="fill: #67001f"/>
   </g>
   <g id="patch_26">
    <path d="M 350.288547 130.303859 
L 371.478732 130.303859 
L 371.478732 64.247772 
L 350.288547 64.247772 
z
" clip-path="url(#pd116c376d2)" style="fill: #67001f"/>
   </g>
   <g id="patch_27">
    <path d="M 347.374897 378.014185 
L 394.346474 378.014185 
L 394.346474 311.958098 
L 347.374897 311.958098 
z
" clip-path="url(#pd116c376d2)" style="fill: #e58368"/>
   </g>
   <g id="patch_28">
    <path d="M 350.518875 295.444076 
L 396.805226 295.444076 
L 396.805226 229.387989 
L 350.518875 229.387989 
z
" clip-path="url(#pd116c376d2)" style="fill: #e58368"/>
   </g>
   <g id="patch_29">
    <path d="M 347.871883 212.873967 
L 394.257271 212.873967 
L 394.257271 146.81788 
L 347.871883 146.81788 
z
" clip-path="url(#pd116c376d2)" style="fill: #e58368"/>
   </g>
   <g id="patch_30">
    <path d="M 371.478732 130.303859 
L 392.668917 130.303859 
L 392.668917 64.247772 
L 371.478732 64.247772 
z
" clip-path="url(#pd116c376d2)" style="fill: #e58368"/>
   </g>
   <g id="patch_31">
    <path d="M 394.346474 378.014185 
L 428.957109 378.014185 
L 428.957109 311.958098 
L 394.346474 311.958098 
z
" clip-path="url(#pd116c376d2)" style="fill: #f6f7f7"/>
   </g>
   <g id="patch_32">
    <path d="M 396.805226 295.444076 
L 426.498357 295.444076 
L 426.498357 229.387989 
L 396.805226 229.387989 
z
" clip-path="url(#pd116c376d2)" style="fill: #f6f7f7"/>
   </g>
   <g id="patch_33">
    <path d="M 394.257271 212.873967 
L 429.046312 212.873967 
L 429.046312 146.81788 
L 394.257271 146.81788 
z
" clip-path="url(#pd116c376d2)" style="fill: #f6f7f7"/>
   </g>
   <g id="patch_34">
    <path d="M 392.668917 130.303859 
L 430.634665 130.303859 
L 430.634665 64.247772 
L 392.668917 64.247772 
z
" clip-path="url(#pd116c376d2)" style="fill: #f6f7f7"/>
   </g>
   <g id="patch_35">
    <path d="M 428.957109 378.014185 
L 444.614301 378.014185 
L 444.614301 311.958098 
L 428.957109 311.958098 
z
" clip-path="url(#pd116c376d2)" style="fill: #68abd0"/>
   </g>
   <g id="patch_36">
    <path d="M 426.498357 295.444076 
L 443.091577 295.444076 
L 443.091577 229.387989 
L 426.498357 229.387989 
z
" clip-path="url(#pd116c376d2)" style="fill: #68abd0"/>
   </g>
   <g id="patch_37">
    <path d="M 429.046312 212.873967 
L 460.522111 212.873967 
L 460.522111 146.81788 
L 429.046312 146.81788 
z
" clip-path="url(#pd116c376d2)" style="fill: #68abd0"/>
   </g>
   <g id="patch_38">
    <path d="M 430.634665 130.303859 
L 495.971069 130.303859 
L 495.971069 64.247772 
L 430.634665 64.247772 
z
" clip-path="url(#pd116c376d2)" style="fill: #68abd0"/>
   </g>
   <g id="patch_39">
    <path d="M 444.614301 378.014185 
L 447.08649 378.014185 
L 447.08649 311.958098 
L 444.614301 311.958098 
z
" clip-path="url(#pd116c376d2)" style="fill: #053061"/>
   </g>
   <g id="patch_40">
    <path d="M 443.091577 295.444076 
L 456.191487 295.444076 
L 456.191487 229.387989 
L 443.091577 229.387989 
z
" clip-path="url(#pd116c376d2)" style="fill: #053061"/>
   </g>
   <g id="patch_41">
    <path d="M 460.522111 212.873967 
L 467.976905 212.873967 
L 467.976905 146.81788 
L 460.522111 146.81788 
z
" clip-path="url(#pd116c376d2)" style="fill: #053061"/>
   </g>
   <g id="patch_42">
    <path d="M 495.971069 130.303859 
L 510.980784 130.303859 
L 510.980784 64.247772 
L 495.971069 64.247772 
z
" clip-path="url(#pd116c376d2)" style="fill: #053061"/>
   </g>
   <g id="patch_43">
    <path d="M 286.394253 378.014185 
L 347.374897 378.014185 
L 347.374897 311.958098 
L 286.394253 311.958098 
z
" clip-path="url(#pd116c376d2)" style="fill: #67001f"/>
   </g>
   <g id="patch_44">
    <path d="M 295.499251 295.444076 
L 350.518875 295.444076 
L 350.518875 229.387989 
L 295.499251 229.387989 
z
" clip-path="url(#pd116c376d2)" style="fill: #67001f"/>
   </g>
   <g id="patch_45">
    <path d="M 307.284669 212.873967 
L 347.871883 212.873967 
L 347.871883 146.81788 
L 307.284669 146.81788 
z
" clip-path="url(#pd116c376d2)" style="fill: #67001f"/>
   </g>
   <g id="patch_46">
    <path d="M 350.288547 130.303859 
L 371.478732 130.303859 
L 371.478732 64.247772 
L 350.288547 64.247772 
z
" clip-path="url(#pd116c376d2)" style="fill: #67001f"/>
   </g>
   <g id="patch_47">
    <path d="M 347.374897 378.014185 
L 394.346474 378.014185 
L 394.346474 311.958098 
L 347.374897 311.958098 
z
" clip-path="url(#pd116c376d2)" style="fill: #e58368"/>
   </g>
   <g id="patch_48">
    <path d="M 350.518875 295.444076 
L 396.805226 295.444076 
L 396.805226 229.387989 
L 350.518875 229.387989 
z
" clip-path="url(#pd116c376d2)" style="fill: #e58368"/>
   </g>
   <g id="patch_49">
    <path d="M 347.871883 212.873967 
L 394.257271 212.873967 
L 394.257271 146.81788 
L 347.871883 146.81788 
z
" clip-path="url(#pd116c376d2)" style="fill: #e58368"/>
   </g>
   <g id="patch_50">
    <path d="M 371.478732 130.303859 
L 392.668917 130.303859 
L 392.668917 64.247772 
L 371.478732 64.247772 
z
" clip-path="url(#pd116c376d2)" style="fill: #e58368"/>
   </g>
   <g id="patch_51">
    <path d="M 394.346474 378.014185 
L 428.957109 378.014185 
L 428.957109 311.958098 
L 394.346474 311.958098 
z
" clip-path="url(#pd116c376d2)" style="fill: #f6f7f7"/>
   </g>
   <g id="patch_52">
    <path d="M 396.805226 295.444076 
L 426.498357 295.444076 
L 426.498357 229.387989 
L 396.805226 229.387989 
z
" clip-path="url(#pd116c376d2)" style="fill: #f6f7f7"/>
   </g>
   <g id="patch_53">
    <path d="M 394.257271 212.873967 
L 429.046312 212.873967 
L 429.046312 146.81788 
L 394.257271 146.81788 
z
" clip-path="url(#pd116c376d2)" style="fill: #f6f7f7"/>
   </g>
   <g id="patch_54">
    <path d="M 392.668917 130.303859 
L 430.634665 130.303859 
L 430.634665 64.247772 
L 392.668917 64.247772 
z
" clip-path="url(#pd116c376d2)" style="fill: #f6f7f7"/>
   </g>
   <g id="patch_55">
    <path d="M 428.957109 378.014185 
L 444.614301 378.014185 
L 444.614301 311.958098 
L 428.957109 311.958098 
z
" clip-path="url(#pd116c376d2)" style="fill: #68abd0"/>
   </g>
   <g id="patch_56">
    <path d="M 426.498357 295.444076 
L 443.091577 295.444076 
L 443.091577 229.387989 
L 426.498357 229.387989 
z
" clip-path="url(#pd116c376d2)" style="fill: #68abd0"/>
   </g>
   <g id="patch_57">
    <path d="M 429.046312 212.873967 
L 460.522111 212.873967 
L 460.522111 146.81788 
L 429.046312 146.81788 
z
" clip-path="url(#pd116c376d2)" style="fill: #68abd0"/>
   </g>
   <g id="patch_58">
    <path d="M 430.634665 130.303859 
L 495.971069 130.303859 
L 495.971069 64.247772 
L 430.634665 64.247772 
z
" clip-path="url(#pd116c376d2)" style="fill: #68abd0"/>
   </g>
   <g id="patch_59">
    <path d="M 444.614301 378.014185 
L 447.08649 378.014185 
L 447.08649 311.958098 
L 444.614301 311.958098 
z
" clip-path="url(#pd116c376d2)" style="fill: #053061"/>
   </g>
   <g id="patch_60">
    <path d="M 443.091577 295.444076 
L 456.191487 295.444076 
L 456.191487 229.387989 
L 443.091577 229.387989 
z
" clip-path="url(#pd116c376d2)" style="fill: #053061"/>
   </g>
   <g id="patch_61">
    <path d="M 460.522111 212.873967 
L 467.976905 212.873967 
L 467.976905 146.81788 
L 460.522111 146.81788 
z
" clip-path="url(#pd116c376d2)" style="fill: #053061"/>
   </g>
   <g id="patch_62">
    <path d="M 495.971069 130.303859 
L 510.980784 130.303859 
L 510.980784 64.247772 
L 495.971069 64.247772 
z
" clip-path="url(#pd116c376d2)" style="fill: #053061"/>
   </g>
   <g id="patch_63">
    <path d="M 286.394253 378.014185 
L 347.374897 378.014185 
L 347.374897 311.958098 
L 286.394253 311.958098 
z
" clip-path="url(#pd116c376d2)" style="fill: #67001f"/>
   </g>
   <g id="patch_64">
    <path d="M 295.499251 295.444076 
L 350.518875 295.444076 
L 350.518875 229.387989 
L 295.499251 229.387989 
z
" clip-path="url(#pd116c376d2)" style="fill: #67001f"/>
   </g>
   <g id="patch_65">
    <path d="M 307.284669 212.873967 
L 347.871883 212.873967 
L 347.871883 146.81788 
L 307.284669 146.81788 
z
" clip-path="url(#pd116c376d2)" style="fill: #67001f"/>
   </g>
   <g id="patch_66">
    <path d="M 350.288547 130.303859 
L 371.478732 130.303859 
L 371.478732 64.247772 
L 350.288547 64.247772 
z
" clip-path="url(#pd116c376d2)" style="fill: #67001f"/>
   </g>
   <g id="patch_67">
    <path d="M 347.374897 378.014185 
L 394.346474 378.014185 
L 394.346474 311.958098 
L 347.374897 311.958098 
z
" clip-path="url(#pd116c376d2)" style="fill: #e58368"/>
   </g>
   <g id="patch_68">
    <path d="M 350.518875 295.444076 
L 396.805226 295.444076 
L 396.805226 229.387989 
L 350.518875 229.387989 
z
" clip-path="url(#pd116c376d2)" style="fill: #e58368"/>
   </g>
   <g id="patch_69">
    <path d="M 347.871883 212.873967 
L 394.257271 212.873967 
L 394.257271 146.81788 
L 347.871883 146.81788 
z
" clip-path="url(#pd116c376d2)" style="fill: #e58368"/>
   </g>
   <g id="patch_70">
    <path d="M 371.478732 130.303859 
L 392.668917 130.303859 
L 392.668917 64.247772 
L 371.478732 64.247772 
z
" clip-path="url(#pd116c376d2)" style="fill: #e58368"/>
   </g>
   <g id="patch_71">
    <path d="M 394.346474 378.014185 
L 428.957109 378.014185 
L 428.957109 311.958098 
L 394.346474 311.958098 
z
" clip-path="url(#pd116c376d2)" style="fill: #f6f7f7"/>
   </g>
   <g id="patch_72">
    <path d="M 396.805226 295.444076 
L 426.498357 295.444076 
L 426.498357 229.387989 
L 396.805226 229.387989 
z
" clip-path="url(#pd116c376d2)" style="fill: #f6f7f7"/>
   </g>
   <g id="patch_73">
    <path d="M 394.257271 212.873967 
L 429.046312 212.873967 
L 429.046312 146.81788 
L 394.257271 146.81788 
z
" clip-path="url(#pd116c376d2)" style="fill: #f6f7f7"/>
   </g>
   <g id="patch_74">
    <path d="M 392.668917 130.303859 
L 430.634665 130.303859 
L 430.634665 64.247772 
L 392.668917 64.247772 
z
" clip-path="url(#pd116c376d2)" style="fill: #f6f7f7"/>
   </g>
   <g id="patch_75">
    <path d="M 428.957109 378.014185 
L 444.614301 378.014185 
L 444.614301 311.958098 
L 428.957109 311.958098 
z
" clip-path="url(#pd116c376d2)" style="fill: #68abd0"/>
   </g>
   <g id="patch_76">
    <path d="M 426.498357 295.444076 
L 443.091577 295.444076 
L 443.091577 229.387989 
L 426.498357 229.387989 
z
" clip-path="url(#pd116c376d2)" style="fill: #68abd0"/>
   </g>
   <g id="patch_77">
    <path d="M 429.046312 212.873967 
L 460.522111 212.873967 
L 460.522111 146.81788 
L 429.046312 146.81788 
z
" clip-path="url(#pd116c376d2)" style="fill: #68abd0"/>
   </g>
   <g id="patch_78">
    <path d="M 430.634665 130.303859 
L 495.971069 130.303859 
L 495.971069 64.247772 
L 430.634665 64.247772 
z
" clip-path="url(#pd116c376d2)" style="fill: #68abd0"/>
   </g>
   <g id="patch_79">
    <path d="M 444.614301 378.014185 
L 447.08649 378.014185 
L 447.08649 311.958098 
L 444.614301 311.958098 
z
" clip-path="url(#pd116c376d2)" style="fill: #053061"/>
   </g>
   <g id="patch_80">
    <path d="M 443.091577 295.444076 
L 456.191487 295.444076 
L 456.191487 229.387989 
L 443.091577 229.387989 
z
" clip-path="url(#pd116c376d2)" style="fill: #053061"/>
   </g>
   <g id="patch_81">
    <path d="M 460.522111 212.873967 
L 467.976905 212.873967 
L 467.976905 146.81788 
L 460.522111 146.81788 
z
" clip-path="url(#pd116c376d2)" style="fill: #053061"/>
   </g>
   <g id="patch_82">
    <path d="M 495.971069 130.303859 
L 510.980784 130.303859 
L 510.980784 64.247772 
L 495.971069 64.247772 
z
" clip-path="url(#pd116c376d2)" style="fill: #053061"/>
   </g>
   <g id="matplotlib.axis_1">
    <g id="xtick_1">
     <g id="line2d_5">
      <defs>
       <path id="m4c99cd72f3" d="M 0 0 
L 0 3.5 
" style="stroke: #000000; stroke-width: 0.8"/>
      </defs>
      <g>
       <use xlink:href="#m4c99cd72f3" x="250.959555" y="427.55625" style="stroke: #000000; stroke-width: 0.8"/>
      </g>
     </g>
     <g id="text_1">
      <text style="font: 10px 'sans-serif'; text-anchor: middle" x="250.959555" y="441.729688" transform="rotate(-0, 250.959555, 441.729688)">100</text>
     </g>
    </g>
    <g id="xtick_2">
     <g id="line2d_6">
      <g>
       <use xlink:href="#m4c99cd72f3" x="267.028779" y="427.55625" style="stroke: #000000; stroke-width: 0.8"/>
      </g>
     </g>
     <g id="text_2">
      <text style="font: 10px 'sans-serif'; text-anchor: middle" x="267.028779" y="441.729688" transform="rotate(-0, 267.028779, 441.729688)">90</text>
     </g>
    </g>
    <g id="xtick_3">
     <g id="line2d_7">
      <g>
       <use xlink:href="#m4c99cd72f3" x="283.098002" y="427.55625" style="stroke: #000000; stroke-width: 0.8"/>
      </g>
     </g>
     <g id="text_3">
      <text style="font: 10px 'sans-serif'; text-anchor: middle" x="283.098002" y="441.729688" transform="rotate(-0, 283.098002, 441.729688)">80</text>
     </g>
    </g>
    <g id="xtick_4">
     <g id="line2d_8">
      <g>
       <use xlink:href="#m4c99cd72f3" x="299.167226" y="427.55625" style="stroke: #000000; stroke-width: 0.8"/>
      </g>
     </g>
     <g id="text_4">
      <text style="font: 10px 'sans-serif'; text-anchor: middle" x="299.167226" y="441.729688" transform="rotate(-0, 299.167226, 441.729688)">70</text>
     </g>
    </g>
    <g id="xtick_5">
     <g id="line2d_9">
      <g>
       <use xlink:href="#m4c99cd72f3" x="315.23645" y="427.55625" style="stroke: #000000; stroke-width: 0.8"/>
      </g>
     </g>
     <g id="text_5">
      <text style="font: 10px 'sans-serif'; text-anchor: middle" x="315.23645" y="441.729688" transform="rotate(-0, 315.23645, 441.729688)">60</text>
     </g>
    </g>
    <g id="xtick_6">
     <g id="line2d_10">
      <g>
       <use xlink:href="#m4c99cd72f3" x="331.305673" y="427.55625" style="stroke: #000000; stroke-width: 0.8"/>
      </g>
     </g>
     <g id="text_6">
      <text style="font: 10px 'sans-serif'; text-anchor: middle" x="331.305673" y="441.729688" transform="rotate(-0, 331.305673, 441.729688)">50</text>
     </g>
    </g>
    <g id="xtick_7">
     <g id="line2d_11">
      <g>
       <use xlink:href="#m4c99cd72f3" x="347.374897" y="427.55625" style="stroke: #000000; stroke-width: 0.8"/>
      </g>
     </g>
     <g id="text_7">
      <text style="font: 10px 'sans-serif'; text-anchor: middle" x="347.374897" y="441.729688" transform="rotate(-0, 347.374897, 441.729688)">40</text>
     </g>
    </g>
    <g id="xtick_8">
     <g id="line2d_12">
      <g>
       <use xlink:href="#m4c99cd72f3" x="363.44412" y="427.55625" style="stroke: #000000; stroke-width: 0.8"/>
      </g>
     </g>
     <g id="text_8">
      <text style="font: 10px 'sans-serif'; text-anchor: middle" x="363.44412" y="441.729688" transform="rotate(-0, 363.44412, 441.729688)">30</text>
     </g>
    </g>
    <g id="xtick_9">
     <g id="line2d_13">
      <g>
       <use xlink:href="#m4c99cd72f3" x="379.513344" y="427.55625" style="stroke: #000000; stroke-width: 0.8"/>
      </g>
     </g>
     <g id="text_9">
      <text style="font: 10px 'sans-serif'; text-anchor: middle" x="379.513344" y="441.729688" transform="rotate(-0, 379.513344, 441.729688)">20</text>
     </g>
    </g>
    <g id="xtick_10">
     <g id="line2d_14">
      <g>
       <use xlink:href="#m4c99cd72f3" x="395.582568" y="427.55625" style="stroke: #000000; stroke-width: 0.8"/>
      </g>
     </g>
     <g id="text_10">
      <text style="font: 10px 'sans-serif'; text-anchor: middle" x="395.582568" y="441.729688" transform="rotate(-0, 395.582568, 441.729688)">10</text>
     </g>
    </g>
    <g id="xtick_11">
     <g id="line2d_15">
      <g>
       <use xlink:href="#m4c99cd72f3" x="411.651791" y="427.55625" style="stroke: #000000; stroke-width: 0.8"/>
      </g>
     </g>
     <g id="text_11">
      <text style="font: 10px 'sans-serif'; text-anchor: middle" x="411.651791" y="441.729688" transform="rotate(-0, 411.651791, 441.729688)">0</text>
     </g>
    </g>
    <g id="xtick_12">
     <g id="line2d_16">
      <g>
       <use xlink:href="#m4c99cd72f3" x="427.721015" y="427.55625" style="stroke: #000000; stroke-width: 0.8"/>
      </g>
     </g>
     <g id="text_12">
      <text style="font: 10px 'sans-serif'; text-anchor: middle" x="427.721015" y="441.729688" transform="rotate(-0, 427.721015, 441.729688)">10</text>
     </g>
    </g>
    <g id="xtick_13">
     <g id="line2d_17">
      <g>
       <use xlink:href="#m4c99cd72f3" x="443.790239" y="427.55625" style="stroke: #000000; stroke-width: 0.8"/>
      </g>
     </g>
     <g id="text_13">
      <text style="font: 10px 'sans-serif'; text-anchor: middle" x="443.790239" y="441.729688" transform="rotate(-0, 443.790239, 441.729688)">20</text>
     </g>
    </g>
    <g id="xtick_14">
     <g id="line2d_18">
      <g>
       <use xlink:href="#m4c99cd72f3" x="459.859462" y="427.55625" style="stroke: #000000; stroke-width: 0.8"/>
      </g>
     </g>
     <g id="text_14">
      <text style="font: 10px 'sans-serif'; text-anchor: middle" x="459.859462" y="441.729688" transform="rotate(-0, 459.859462, 441.729688)">30</text>
     </g>
    </g>
    <g id="xtick_15">
     <g id="line2d_19">
      <g>
       <use xlink:href="#m4c99cd72f3" x="475.928686" y="427.55625" style="stroke: #000000; stroke-width: 0.8"/>
      </g>
     </g>
     <g id="text_15">
      <text style="font: 10px 'sans-serif'; text-anchor: middle" x="475.928686" y="441.729688" transform="rotate(-0, 475.928686, 441.729688)">40</text>
     </g>
    </g>
    <g id="xtick_16">
     <g id="line2d_20">
      <g>
       <use xlink:href="#m4c99cd72f3" x="491.99791" y="427.55625" style="stroke: #000000; stroke-width: 0.8"/>
      </g>
     </g>
     <g id="text_16">
      <text style="font: 10px 'sans-serif'; text-anchor: middle" x="491.99791" y="441.729688" transform="rotate(-0, 491.99791, 441.729688)">50</text>
     </g>
    </g>
    <g id="xtick_17">
     <g id="line2d_21">
      <g>
       <use xlink:href="#m4c99cd72f3" x="508.067133" y="427.55625" style="stroke: #000000; stroke-width: 0.8"/>
      </g>
     </g>
     <g id="text_17">
      <text style="font: 10px 'sans-serif'; text-anchor: middle" x="508.067133" y="441.729688" transform="rotate(-0, 508.067133, 441.729688)">60</text>
     </g>
    </g>
    <g id="xtick_18">
     <g id="line2d_22">
      <g>
       <use xlink:href="#m4c99cd72f3" x="524.136357" y="427.55625" style="stroke: #000000; stroke-width: 0.8"/>
      </g>
     </g>
     <g id="text_18">
      <text style="font: 10px 'sans-serif'; text-anchor: middle" x="524.136357" y="441.729688" transform="rotate(-0, 524.136357, 441.729688)">70</text>
     </g>
    </g>
    <g id="xtick_19">
     <g id="line2d_23">
      <g>
       <use xlink:href="#m4c99cd72f3" x="540.20558" y="427.55625" style="stroke: #000000; stroke-width: 0.8"/>
      </g>
     </g>
     <g id="text_19">
      <text style="font: 10px 'sans-serif'; text-anchor: middle" x="540.20558" y="441.729688" transform="rotate(-0, 540.20558, 441.729688)">80</text>
     </g>
    </g>
    <g id="xtick_20">
     <g id="line2d_24">
      <g>
       <use xlink:href="#m4c99cd72f3" x="556.274804" y="427.55625" style="stroke: #000000; stroke-width: 0.8"/>
      </g>
     </g>
     <g id="text_20">
      <text style="font: 10px 'sans-serif'; text-anchor: middle" x="556.274804" y="441.729688" transform="rotate(-0, 556.274804, 441.729688)">90</text>
     </g>
    </g>
    <g id="xtick_21">
     <g id="line2d_25">
      <g>
       <use xlink:href="#m4c99cd72f3" x="572.344028" y="427.55625" style="stroke: #000000; stroke-width: 0.8"/>
      </g>
     </g>
     <g id="text_21">
      <text style="font: 10px 'sans-serif'; text-anchor: middle" x="572.344028" y="441.729688" transform="rotate(-0, 572.344028, 441.729688)">100</text>
     </g>
    </g>
    <g id="text_22">
     <text style="font: 10px 'sans-serif'; text-anchor: middle" x="411.250061" y="454.9875" transform="rotate(-0, 411.250061, 454.9875)">Percentage</text>
    </g>
   </g>
   <g id="matplotlib.axis_2">
    <g id="ytick_1">
     <g id="line2d_26">
      <defs>
       <path id="m8e343aef83" d="M 0 0 
L -3.5 0 
" style="stroke: #000000; stroke-width: 0.8"/>
      </defs>
      <g>
       <use xlink:href="#m8e343aef83" x="250.156094" y="344.986141" style="stroke: #000000; stroke-width: 0.8"/>
      </g>
     </g>
     <g id="text_23">
      <text style="font: 11px 'sans-serif'" transform="translate(71.980625 343.863798)">progRSE1. It is likely that I will gain</text>
      <text style="font: 11px 'sans-serif'" transform="translate(67.700938 355.797423)">a promotion within my current group</text>
     </g>
    </g>
    <g id="ytick_2">
     <g id="line2d_27">
      <g>
       <use xlink:href="#m8e343aef83" x="250.156094" y="262.416033" style="stroke: #000000; stroke-width: 0.8"/>
      </g>
     </g>
     <g id="text_24">
      <text style="font: 11px 'sans-serif'" transform="translate(32.837812 261.293689)">progRSE2. The process I have to complete</text>
      <text style="font: 11px 'sans-serif'" transform="translate(10.8 273.227314)">to gain a promotion is clear and understandable</text>
     </g>
    </g>
    <g id="ytick_3">
     <g id="line2d_28">
      <g>
       <use xlink:href="#m8e343aef83" x="250.156094" y="179.845924" style="stroke: #000000; stroke-width: 0.8"/>
      </g>
     </g>
     <g id="text_25">
      <text style="font: 11px 'sans-serif'" transform="translate(11.441094 178.72358)">progRSE3. There are many opportunities within</text>
      <text style="font: 11px 'sans-serif'" transform="translate(131.885938 190.657205)">my chosen career plan</text>
     </g>
    </g>
    <g id="ytick_4">
     <g id="line2d_29">
      <g>
       <use xlink:href="#m8e343aef83" x="250.156094" y="97.275815" style="stroke: #000000; stroke-width: 0.8"/>
      </g>
     </g>
     <g id="text_26">
      <text style="font: 11px 'sans-serif'" transform="translate(37.743125 89.97869)">progRSE5. It is likely that my next position</text>
      <text style="font: 11px 'sans-serif'" transform="translate(47.509062 102.13919)">will be an Research Software Engineer /</text>
      <text style="font: 11px 'sans-serif'" transform="translate(75.029687 114.29969)">Research Software Developer role</text>
     </g>
    </g>
   </g>
   <g id="patch_83">
    <path d="M 250.156094 427.55625 
L 572.344028 427.55625 
" style="fill: none; stroke: #000000; stroke-width: 0.8; stroke-linejoin: miter; stroke-linecap: square"/>
   </g>
   <g id="text_27">
    <text style="font: 10px 'sans-serif'; text-anchor: middle" x="316.884575" y="344.986141" transform="rotate(-0, 316.884575, 344.986141)">38</text>
   </g>
   <g id="text_28">
    <text style="font: 10px 'sans-serif'; text-anchor: middle" x="323.009063" y="262.416033" transform="rotate(-0, 323.009063, 262.416033)">34</text>
   </g>
   <g id="text_29">
    <text style="font: 10px 'sans-serif'; text-anchor: middle" x="327.578276" y="179.845924" transform="rotate(-0, 327.578276, 179.845924)">25</text>
   </g>
   <g id="text_30">
    <text style="font: 10px 'sans-serif'; text-anchor: middle" x="360.88364" y="97.275815" transform="rotate(-0, 360.88364, 97.275815)">13</text>
   </g>
   <g id="text_31">
    <text style="font: 10px 'sans-serif'; text-anchor: middle" x="370.860685" y="344.986141" transform="rotate(-0, 370.860685, 344.986141)">29</text>
   </g>
   <g id="text_32">
    <text style="font: 10px 'sans-serif'; text-anchor: middle" x="373.662051" y="262.416033" transform="rotate(-0, 373.662051, 262.416033)">29</text>
   </g>
   <g id="text_33">
    <text style="font: 10px 'sans-serif'; text-anchor: middle" x="371.064577" y="179.845924" transform="rotate(-0, 371.064577, 179.845924)">29</text>
   </g>
   <g id="text_34">
    <text style="font: 10px 'sans-serif'; text-anchor: middle" x="382.073825" y="97.275815" transform="rotate(-0, 382.073825, 97.275815)">13</text>
   </g>
   <g id="text_35">
    <text style="font: 10px 'sans-serif'; text-anchor: middle" x="411.651791" y="344.986141" transform="rotate(-0, 411.651791, 344.986141)">22</text>
   </g>
   <g id="text_36">
    <text style="font: 10px 'sans-serif'; text-anchor: middle" x="411.651791" y="262.416033" transform="rotate(-0, 411.651791, 262.416033)">18</text>
   </g>
   <g id="text_37">
    <text style="font: 10px 'sans-serif'; text-anchor: middle" x="411.651791" y="179.845924" transform="rotate(-0, 411.651791, 179.845924)">22</text>
   </g>
   <g id="text_38">
    <text style="font: 10px 'sans-serif'; text-anchor: middle" x="411.651791" y="97.275815" transform="rotate(-0, 411.651791, 97.275815)">24</text>
   </g>
   <g id="text_39">
    <text style="font: 10px 'sans-serif'; text-anchor: middle" x="436.785705" y="344.986141" transform="rotate(-0, 436.785705, 344.986141)">10</text>
   </g>
   <g id="text_40">
    <text style="font: 10px 'sans-serif'; text-anchor: middle" x="434.794967" y="262.416033" transform="rotate(-0, 434.794967, 262.416033)">10</text>
   </g>
   <g id="text_41">
    <text style="font: 10px 'sans-serif'; text-anchor: middle" x="444.784211" y="179.845924" transform="rotate(-0, 444.784211, 179.845924)">20</text>
   </g>
   <g id="text_42">
    <text style="font: 10px 'sans-serif'; text-anchor: middle" x="463.302867" y="97.275815" transform="rotate(-0, 463.302867, 97.275815)">41</text>
   </g>
   <g id="text_43">
    <text style="font: 10px 'sans-serif'; text-anchor: middle" x="449.641532" y="262.416033" transform="rotate(-0, 449.641532, 262.416033)">8</text>
   </g>
   <g id="text_44">
    <text style="font: 10px 'sans-serif'; text-anchor: middle" x="503.475926" y="97.275815" transform="rotate(-0, 503.475926, 97.275815)">9</text>
   </g>
   <g id="text_45">
    <text style="font: 10px 'sans-serif'; text-anchor: middle" x="316.884575" y="344.986141" transform="rotate(-0, 316.884575, 344.986141)">38</text>
   </g>
   <g id="text_46">
    <text style="font: 10px 'sans-serif'; text-anchor: middle" x="323.009063" y="262.416033" transform="rotate(-0, 323.009063, 262.416033)">34</text>
   </g>
   <g id="text_47">
    <text style="font: 10px 'sans-serif'; text-anchor: middle" x="327.578276" y="179.845924" transform="rotate(-0, 327.578276, 179.845924)">25</text>
   </g>
   <g id="text_48">
    <text style="font: 10px 'sans-serif'; text-anchor: middle" x="360.88364" y="97.275815" transform="rotate(-0, 360.88364, 97.275815)">13</text>
   </g>
   <g id="text_49">
    <text style="font: 10px 'sans-serif'; text-anchor: middle" x="370.860685" y="344.986141" transform="rotate(-0, 370.860685, 344.986141)">29</text>
   </g>
   <g id="text_50">
    <text style="font: 10px 'sans-serif'; text-anchor: middle" x="373.662051" y="262.416033" transform="rotate(-0, 373.662051, 262.416033)">29</text>
   </g>
   <g id="text_51">
    <text style="font: 10px 'sans-serif'; text-anchor: middle" x="371.064577" y="179.845924" transform="rotate(-0, 371.064577, 179.845924)">29</text>
   </g>
   <g id="text_52">
    <text style="font: 10px 'sans-serif'; text-anchor: middle" x="382.073825" y="97.275815" transform="rotate(-0, 382.073825, 97.275815)">13</text>
   </g>
   <g id="text_53">
    <text style="font: 10px 'sans-serif'; text-anchor: middle" x="411.651791" y="344.986141" transform="rotate(-0, 411.651791, 344.986141)">22</text>
   </g>
   <g id="text_54">
    <text style="font: 10px 'sans-serif'; text-anchor: middle" x="411.651791" y="262.416033" transform="rotate(-0, 411.651791, 262.416033)">18</text>
   </g>
   <g id="text_55">
    <text style="font: 10px 'sans-serif'; text-anchor: middle" x="411.651791" y="179.845924" transform="rotate(-0, 411.651791, 179.845924)">22</text>
   </g>
   <g id="text_56">
    <text style="font: 10px 'sans-serif'; text-anchor: middle" x="411.651791" y="97.275815" transform="rotate(-0, 411.651791, 97.275815)">24</text>
   </g>
   <g id="text_57">
    <text style="font: 10px 'sans-serif'; text-anchor: middle" x="436.785705" y="344.986141" transform="rotate(-0, 436.785705, 344.986141)">10</text>
   </g>
   <g id="text_58">
    <text style="font: 10px 'sans-serif'; text-anchor: middle" x="434.794967" y="262.416033" transform="rotate(-0, 434.794967, 262.416033)">10</text>
   </g>
   <g id="text_59">
    <text style="font: 10px 'sans-serif'; text-anchor: middle" x="444.784211" y="179.845924" transform="rotate(-0, 444.784211, 179.845924)">20</text>
   </g>
   <g id="text_60">
    <text style="font: 10px 'sans-serif'; text-anchor: middle" x="463.302867" y="97.275815" transform="rotate(-0, 463.302867, 97.275815)">41</text>
   </g>
   <g id="text_61">
    <text style="font: 10px 'sans-serif'; text-anchor: middle" x="449.641532" y="262.416033" transform="rotate(-0, 449.641532, 262.416033)">8</text>
   </g>
   <g id="text_62">
    <text style="font: 10px 'sans-serif'; text-anchor: middle" x="503.475926" y="97.275815" transform="rotate(-0, 503.475926, 97.275815)">9</text>
   </g>
   <g id="text_63">
    <text style="font: 10px 'sans-serif'; text-anchor: middle" x="316.884575" y="344.986141" transform="rotate(-0, 316.884575, 344.986141)">38</text>
   </g>
   <g id="text_64">
    <text style="font: 10px 'sans-serif'; text-anchor: middle" x="323.009063" y="262.416033" transform="rotate(-0, 323.009063, 262.416033)">34</text>
   </g>
   <g id="text_65">
    <text style="font: 10px 'sans-serif'; text-anchor: middle" x="327.578276" y="179.845924" transform="rotate(-0, 327.578276, 179.845924)">25</text>
   </g>
   <g id="text_66">
    <text style="font: 10px 'sans-serif'; text-anchor: middle" x="360.88364" y="97.275815" transform="rotate(-0, 360.88364, 97.275815)">13</text>
   </g>
   <g id="text_67">
    <text style="font: 10px 'sans-serif'; text-anchor: middle" x="370.860685" y="344.986141" transform="rotate(-0, 370.860685, 344.986141)">29</text>
   </g>
   <g id="text_68">
    <text style="font: 10px 'sans-serif'; text-anchor: middle" x="373.662051" y="262.416033" transform="rotate(-0, 373.662051, 262.416033)">29</text>
   </g>
   <g id="text_69">
    <text style="font: 10px 'sans-serif'; text-anchor: middle" x="371.064577" y="179.845924" transform="rotate(-0, 371.064577, 179.845924)">29</text>
   </g>
   <g id="text_70">
    <text style="font: 10px 'sans-serif'; text-anchor: middle" x="382.073825" y="97.275815" transform="rotate(-0, 382.073825, 97.275815)">13</text>
   </g>
   <g id="text_71">
    <text style="font: 10px 'sans-serif'; text-anchor: middle" x="411.651791" y="344.986141" transform="rotate(-0, 411.651791, 344.986141)">22</text>
   </g>
   <g id="text_72">
    <text style="font: 10px 'sans-serif'; text-anchor: middle" x="411.651791" y="262.416033" transform="rotate(-0, 411.651791, 262.416033)">18</text>
   </g>
   <g id="text_73">
    <text style="font: 10px 'sans-serif'; text-anchor: middle" x="411.651791" y="179.845924" transform="rotate(-0, 411.651791, 179.845924)">22</text>
   </g>
   <g id="text_74">
    <text style="font: 10px 'sans-serif'; text-anchor: middle" x="411.651791" y="97.275815" transform="rotate(-0, 411.651791, 97.275815)">24</text>
   </g>
   <g id="text_75">
    <text style="font: 10px 'sans-serif'; text-anchor: middle" x="436.785705" y="344.986141" transform="rotate(-0, 436.785705, 344.986141)">10</text>
   </g>
   <g id="text_76">
    <text style="font: 10px 'sans-serif'; text-anchor: middle" x="434.794967" y="262.416033" transform="rotate(-0, 434.794967, 262.416033)">10</text>
   </g>
   <g id="text_77">
    <text style="font: 10px 'sans-serif'; text-anchor: middle" x="444.784211" y="179.845924" transform="rotate(-0, 444.784211, 179.845924)">20</text>
   </g>
   <g id="text_78">
    <text style="font: 10px 'sans-serif'; text-anchor: middle" x="463.302867" y="97.275815" transform="rotate(-0, 463.302867, 97.275815)">41</text>
   </g>
   <g id="text_79">
    <text style="font: 10px 'sans-serif'; text-anchor: middle" x="449.641532" y="262.416033" transform="rotate(-0, 449.641532, 262.416033)">8</text>
   </g>
   <g id="text_80">
    <text style="font: 10px 'sans-serif'; text-anchor: middle" x="503.475926" y="97.275815" transform="rotate(-0, 503.475926, 97.275815)">9</text>
   </g>
   <g id="text_81">
    <text style="font: 10px 'sans-serif'; text-anchor: middle" x="316.884575" y="344.986141" transform="rotate(-0, 316.884575, 344.986141)">38</text>
   </g>
   <g id="text_82">
    <text style="font: 10px 'sans-serif'; text-anchor: middle" x="323.009063" y="262.416033" transform="rotate(-0, 323.009063, 262.416033)">34</text>
   </g>
   <g id="text_83">
    <text style="font: 10px 'sans-serif'; text-anchor: middle" x="327.578276" y="179.845924" transform="rotate(-0, 327.578276, 179.845924)">25</text>
   </g>
   <g id="text_84">
    <text style="font: 10px 'sans-serif'; text-anchor: middle" x="360.88364" y="97.275815" transform="rotate(-0, 360.88364, 97.275815)">13</text>
   </g>
   <g id="text_85">
    <text style="font: 10px 'sans-serif'; text-anchor: middle" x="370.860685" y="344.986141" transform="rotate(-0, 370.860685, 344.986141)">29</text>
   </g>
   <g id="text_86">
    <text style="font: 10px 'sans-serif'; text-anchor: middle" x="373.662051" y="262.416033" transform="rotate(-0, 373.662051, 262.416033)">29</text>
   </g>
   <g id="text_87">
    <text style="font: 10px 'sans-serif'; text-anchor: middle" x="371.064577" y="179.845924" transform="rotate(-0, 371.064577, 179.845924)">29</text>
   </g>
   <g id="text_88">
    <text style="font: 10px 'sans-serif'; text-anchor: middle" x="382.073825" y="97.275815" transform="rotate(-0, 382.073825, 97.275815)">13</text>
   </g>
   <g id="text_89">
    <text style="font: 10px 'sans-serif'; text-anchor: middle" x="411.651791" y="344.986141" transform="rotate(-0, 411.651791, 344.986141)">22</text>
   </g>
   <g id="text_90">
    <text style="font: 10px 'sans-serif'; text-anchor: middle" x="411.651791" y="262.416033" transform="rotate(-0, 411.651791, 262.416033)">18</text>
   </g>
   <g id="text_91">
    <text style="font: 10px 'sans-serif'; text-anchor: middle" x="411.651791" y="179.845924" transform="rotate(-0, 411.651791, 179.845924)">22</text>
   </g>
   <g id="text_92">
    <text style="font: 10px 'sans-serif'; text-anchor: middle" x="411.651791" y="97.275815" transform="rotate(-0, 411.651791, 97.275815)">24</text>
   </g>
   <g id="text_93">
    <text style="font: 10px 'sans-serif'; text-anchor: middle" x="436.785705" y="344.986141" transform="rotate(-0, 436.785705, 344.986141)">10</text>
   </g>
   <g id="text_94">
    <text style="font: 10px 'sans-serif'; text-anchor: middle" x="434.794967" y="262.416033" transform="rotate(-0, 434.794967, 262.416033)">10</text>
   </g>
   <g id="text_95">
    <text style="font: 10px 'sans-serif'; text-anchor: middle" x="444.784211" y="179.845924" transform="rotate(-0, 444.784211, 179.845924)">20</text>
   </g>
   <g id="text_96">
    <text style="font: 10px 'sans-serif'; text-anchor: middle" x="463.302867" y="97.275815" transform="rotate(-0, 463.302867, 97.275815)">41</text>
   </g>
   <g id="text_97">
    <text style="font: 10px 'sans-serif'; text-anchor: middle" x="449.641532" y="262.416033" transform="rotate(-0, 449.641532, 262.416033)">8</text>
   </g>
   <g id="text_98">
    <text style="font: 10px 'sans-serif'; text-anchor: middle" x="503.475926" y="97.275815" transform="rotate(-0, 503.475926, 97.275815)">9</text>
   </g>
   <g id="text_99">
    <text style="font: 12px 'sans-serif'; text-anchor: middle" x="411.250061" y="41.73375" transform="rotate(-0, 411.250061, 41.73375)">Progression in the current role</text>
   </g>
   <g id="legend_1">
    <g id="patch_84">
     <path d="M 257.156094 422.55625 
L 565.344028 422.55625 
Q 567.344028 422.55625 567.344028 420.55625 
L 567.344028 385.629062 
Q 567.344028 383.629062 565.344028 383.629062 
L 257.156094 383.629062 
Q 255.156094 383.629062 255.156094 385.629062 
L 255.156094 420.55625 
Q 255.156094 422.55625 257.156094 422.55625 
z
" style="fill: #ffffff; opacity: 0.8; stroke: #cccccc; stroke-linejoin: miter"/>
    </g>
    <g id="patch_85">
     <path d="M 259.156094 406.679375 
L 279.156094 406.679375 
L 279.156094 399.679375 
L 259.156094 399.679375 
z
" style="fill: #67001f"/>
    </g>
    <g id="text_100">
     <text style="font: 10px 'sans-serif'" transform="translate(287.156094 400.246406)">Strongly</text>
     <text style="font: 10px 'sans-serif'" transform="translate(287.156094 411.095156)">disagree</text>
    </g>
    <g id="patch_86">
     <path d="M 318.618312 406.679375 
L 338.618312 406.679375 
L 338.618312 399.679375 
L 318.618312 399.679375 
z
" style="fill: #e58368"/>
    </g>
    <g id="text_101">
     <text style="font: 10px 'sans-serif'; text-anchor: start" x="346.618312" y="406.679375" transform="rotate(-0, 346.618312, 406.679375)">Disagree</text>
    </g>
    <g id="patch_87">
     <path d="M 379.741467 406.679375 
L 399.741467 406.679375 
L 399.741467 399.679375 
L 379.741467 399.679375 
z
" style="fill: #f6f7f7"/>
    </g>
    <g id="text_102">
     <text style="font: 10px 'sans-serif'" transform="translate(407.741467 394.8025)">Neither</text>
     <text style="font: 10px 'sans-serif'" transform="translate(407.741467 405.495)">agree</text>
     <text style="font: 10px 'sans-serif'" transform="translate(407.741467 416.34375)">or disagree</text>
    </g>
    <g id="patch_88">
     <path d="M 450.872435 406.679375 
L 470.872435 406.679375 
L 470.872435 399.679375 
L 450.872435 399.679375 
z
" style="fill: #68abd0"/>
    </g>
    <g id="text_103">
     <text style="font: 10px 'sans-serif'; text-anchor: start" x="478.872435" y="406.679375" transform="rotate(-0, 478.872435, 406.679375)">Agree</text>
    </g>
    <g id="patch_89">
     <path d="M 498.661215 406.679375 
L 518.661215 406.679375 
L 518.661215 399.679375 
L 498.661215 399.679375 
z
" style="fill: #053061"/>
    </g>
    <g id="text_104">
     <text style="font: 10px 'sans-serif'" transform="translate(526.661215 400.260469)">Strongly</text>
     <text style="font: 10px 'sans-serif'" transform="translate(526.661215 411.081094)">Agree</text>
    </g>
   </g>
  </g>
  <g id="text_105">
   <text style="font: 12px 'sans-serif'; text-anchor: middle" x="324" y="18.2025" transform="rotate(-0, 324, 18.2025)">Progression in the current role: Germany</text>
  </g>
 </g>
 <defs>
  <clipPath id="pd116c376d2">
   <rect x="250.156094" y="47.73375" width="322.187934" height="379.8225"/>
  </clipPath>
 </defs>
</svg>
