<?xml version="1.0" encoding="utf-8" standalone="no"?>
<!DOCTYPE svg PUBLIC "-//W3C//DTD SVG 1.1//EN"
  "http://www.w3.org/Graphics/SVG/1.1/DTD/svg11.dtd">
<svg xmlns:xlink="http://www.w3.org/1999/xlink" width="648pt" height="288pt" viewBox="0 0 648 288" xmlns="http://www.w3.org/2000/svg" version="1.1">
 <metadata>
  <rdf:RDF xmlns:dc="http://purl.org/dc/elements/1.1/" xmlns:cc="http://creativecommons.org/ns#" xmlns:rdf="http://www.w3.org/1999/02/22-rdf-syntax-ns#">
   <cc:Work>
    <dc:type rdf:resource="http://purl.org/dc/dcmitype/StillImage"/>
    <dc:date>2022-03-21T12:06:50.031073</dc:date>
    <dc:format>image/svg+xml</dc:format>
    <dc:creator>
     <cc:Agent>
      <dc:title>Matplotlib v3.5.1, https://matplotlib.org/</dc:title>
     </cc:Agent>
    </dc:creator>
   </cc:Work>
  </rdf:RDF>
 </metadata>
 <defs>
  <style type="text/css">*{stroke-linejoin: round; stroke-linecap: butt}</style>
 </defs>
 <g id="figure_1">
  <g id="patch_1">
   <path d="M 0 288 
L 648 288 
L 648 0 
L 0 0 
z
" style="fill: #ffffff"/>
  </g>
  <g id="axes_1">
   <g id="patch_2">
    <path d="M 81 256.32 
L 583.2 256.32 
L 583.2 34.56 
L 81 34.56 
z
" style="fill: #ffffff"/>
   </g>
   <g id="line2d_1">
    <path d="M 332.726185 256.32 
L 332.726185 34.56 
" clip-path="url(#p759a6061cf)" style="fill: none; stroke-dasharray: 5.55,2.4; stroke-dashoffset: 0; stroke: #000000; stroke-opacity: 0.5; stroke-width: 1.5"/>
   </g>
   <g id="line2d_2">
    <path d="M 332.726185 256.32 
L 332.726185 34.56 
" clip-path="url(#p759a6061cf)" style="fill: none; stroke-dasharray: 5.55,2.4; stroke-dashoffset: 0; stroke: #000000; stroke-opacity: 0.5; stroke-width: 1.5"/>
   </g>
   <g id="line2d_3">
    <path d="M 332.726185 256.32 
L 332.726185 34.56 
" clip-path="url(#p759a6061cf)" style="fill: none; stroke-dasharray: 5.55,2.4; stroke-dashoffset: 0; stroke: #000000; stroke-opacity: 0.5; stroke-width: 1.5"/>
   </g>
   <g id="line2d_4">
    <path d="M 332.726185 256.32 
L 332.726185 34.56 
" clip-path="url(#p759a6061cf)" style="fill: none; stroke-dasharray: 5.55,2.4; stroke-dashoffset: 0; stroke: #000000; stroke-opacity: 0.5; stroke-width: 1.5"/>
   </g>
   <g id="patch_3">
    <path d="M 174.092768 246.24 
L 224.187531 246.24 
L 224.187531 203.797895 
L 174.092768 203.797895 
z
" clip-path="url(#p759a6061cf)" style="fill: #67001f"/>
   </g>
   <g id="patch_4">
    <path d="M 159.985622 193.187368 
L 229.081847 193.187368 
L 229.081847 150.745263 
L 159.985622 150.745263 
z
" clip-path="url(#p759a6061cf)" style="fill: #67001f"/>
   </g>
   <g id="patch_5">
    <path d="M 198.852249 140.134737 
L 250.674417 140.134737 
L 250.674417 97.692632 
L 198.852249 97.692632 
z
" clip-path="url(#p759a6061cf)" style="fill: #67001f"/>
   </g>
   <g id="patch_6">
    <path d="M 207.489277 87.082105 
L 250.674417 87.082105 
L 250.674417 44.64 
L 207.489277 44.64 
z
" clip-path="url(#p759a6061cf)" style="fill: #67001f"/>
   </g>
   <g id="patch_7">
    <path d="M 224.187531 246.24 
L 299.329676 246.24 
L 299.329676 203.797895 
L 224.187531 203.797895 
z
" clip-path="url(#p759a6061cf)" style="fill: #e58368"/>
   </g>
   <g id="patch_8">
    <path d="M 229.081847 193.187368 
L 306.8151 193.187368 
L 306.8151 150.745263 
L 229.081847 150.745263 
z
" clip-path="url(#p759a6061cf)" style="fill: #e58368"/>
   </g>
   <g id="patch_9">
    <path d="M 250.674417 140.134737 
L 285.22253 140.134737 
L 285.22253 97.692632 
L 250.674417 97.692632 
z
" clip-path="url(#p759a6061cf)" style="fill: #e58368"/>
   </g>
   <g id="patch_10">
    <path d="M 250.674417 87.082105 
L 267.948474 87.082105 
L 267.948474 44.64 
L 250.674417 44.64 
z
" clip-path="url(#p759a6061cf)" style="fill: #e58368"/>
   </g>
   <g id="patch_11">
    <path d="M 299.329676 246.24 
L 366.122693 246.24 
L 366.122693 203.797895 
L 299.329676 203.797895 
z
" clip-path="url(#p759a6061cf)" style="fill: #f6f7f7"/>
   </g>
   <g id="patch_12">
    <path d="M 306.8151 193.187368 
L 358.637269 193.187368 
L 358.637269 150.745263 
L 306.8151 150.745263 
z
" clip-path="url(#p759a6061cf)" style="fill: #f6f7f7"/>
   </g>
   <g id="patch_13">
    <path d="M 285.22253 140.134737 
L 380.229839 140.134737 
L 380.229839 97.692632 
L 285.22253 97.692632 
z
" clip-path="url(#p759a6061cf)" style="fill: #f6f7f7"/>
   </g>
   <g id="patch_14">
    <path d="M 267.948474 87.082105 
L 397.503895 87.082105 
L 397.503895 44.64 
L 267.948474 44.64 
z
" clip-path="url(#p759a6061cf)" style="fill: #f6f7f7"/>
   </g>
   <g id="patch_15">
    <path d="M 366.122693 246.24 
L 424.566584 246.24 
L 424.566584 203.797895 
L 366.122693 203.797895 
z
" clip-path="url(#p759a6061cf)" style="fill: #68abd0"/>
   </g>
   <g id="patch_16">
    <path d="M 358.637269 193.187368 
L 410.459438 193.187368 
L 410.459438 150.745263 
L 358.637269 150.745263 
z
" clip-path="url(#p759a6061cf)" style="fill: #68abd0"/>
   </g>
   <g id="patch_17">
    <path d="M 380.229839 140.134737 
L 440.689036 140.134737 
L 440.689036 97.692632 
L 380.229839 97.692632 
z
" clip-path="url(#p759a6061cf)" style="fill: #68abd0"/>
   </g>
   <g id="patch_18">
    <path d="M 397.503895 87.082105 
L 423.41498 87.082105 
L 423.41498 44.64 
L 397.503895 44.64 
z
" clip-path="url(#p759a6061cf)" style="fill: #68abd0"/>
   </g>
   <g id="patch_19">
    <path d="M 424.566584 246.24 
L 424.566584 246.24 
L 424.566584 203.797895 
L 424.566584 203.797895 
z
" clip-path="url(#p759a6061cf)" style="fill: #053061"/>
   </g>
   <g id="patch_20">
    <path d="M 410.459438 193.187368 
L 410.459438 193.187368 
L 410.459438 150.745263 
L 410.459438 150.745263 
z
" clip-path="url(#p759a6061cf)" style="fill: #053061"/>
   </g>
   <g id="patch_21">
    <path d="M 440.689036 140.134737 
L 449.326064 140.134737 
L 449.326064 97.692632 
L 440.689036 97.692632 
z
" clip-path="url(#p759a6061cf)" style="fill: #053061"/>
   </g>
   <g id="patch_22">
    <path d="M 423.41498 87.082105 
L 457.963092 87.082105 
L 457.963092 44.64 
L 423.41498 44.64 
z
" clip-path="url(#p759a6061cf)" style="fill: #053061"/>
   </g>
   <g id="patch_23">
    <path d="M 174.092768 246.24 
L 224.187531 246.24 
L 224.187531 203.797895 
L 174.092768 203.797895 
z
" clip-path="url(#p759a6061cf)" style="fill: #67001f"/>
   </g>
   <g id="patch_24">
    <path d="M 159.985622 193.187368 
L 229.081847 193.187368 
L 229.081847 150.745263 
L 159.985622 150.745263 
z
" clip-path="url(#p759a6061cf)" style="fill: #67001f"/>
   </g>
   <g id="patch_25">
    <path d="M 198.852249 140.134737 
L 250.674417 140.134737 
L 250.674417 97.692632 
L 198.852249 97.692632 
z
" clip-path="url(#p759a6061cf)" style="fill: #67001f"/>
   </g>
   <g id="patch_26">
    <path d="M 207.489277 87.082105 
L 250.674417 87.082105 
L 250.674417 44.64 
L 207.489277 44.64 
z
" clip-path="url(#p759a6061cf)" style="fill: #67001f"/>
   </g>
   <g id="patch_27">
    <path d="M 224.187531 246.24 
L 299.329676 246.24 
L 299.329676 203.797895 
L 224.187531 203.797895 
z
" clip-path="url(#p759a6061cf)" style="fill: #e58368"/>
   </g>
   <g id="patch_28">
    <path d="M 229.081847 193.187368 
L 306.8151 193.187368 
L 306.8151 150.745263 
L 229.081847 150.745263 
z
" clip-path="url(#p759a6061cf)" style="fill: #e58368"/>
   </g>
   <g id="patch_29">
    <path d="M 250.674417 140.134737 
L 285.22253 140.134737 
L 285.22253 97.692632 
L 250.674417 97.692632 
z
" clip-path="url(#p759a6061cf)" style="fill: #e58368"/>
   </g>
   <g id="patch_30">
    <path d="M 250.674417 87.082105 
L 267.948474 87.082105 
L 267.948474 44.64 
L 250.674417 44.64 
z
" clip-path="url(#p759a6061cf)" style="fill: #e58368"/>
   </g>
   <g id="patch_31">
    <path d="M 299.329676 246.24 
L 366.122693 246.24 
L 366.122693 203.797895 
L 299.329676 203.797895 
z
" clip-path="url(#p759a6061cf)" style="fill: #f6f7f7"/>
   </g>
   <g id="patch_32">
    <path d="M 306.8151 193.187368 
L 358.637269 193.187368 
L 358.637269 150.745263 
L 306.8151 150.745263 
z
" clip-path="url(#p759a6061cf)" style="fill: #f6f7f7"/>
   </g>
   <g id="patch_33">
    <path d="M 285.22253 140.134737 
L 380.229839 140.134737 
L 380.229839 97.692632 
L 285.22253 97.692632 
z
" clip-path="url(#p759a6061cf)" style="fill: #f6f7f7"/>
   </g>
   <g id="patch_34">
    <path d="M 267.948474 87.082105 
L 397.503895 87.082105 
L 397.503895 44.64 
L 267.948474 44.64 
z
" clip-path="url(#p759a6061cf)" style="fill: #f6f7f7"/>
   </g>
   <g id="patch_35">
    <path d="M 366.122693 246.24 
L 424.566584 246.24 
L 424.566584 203.797895 
L 366.122693 203.797895 
z
" clip-path="url(#p759a6061cf)" style="fill: #68abd0"/>
   </g>
   <g id="patch_36">
    <path d="M 358.637269 193.187368 
L 410.459438 193.187368 
L 410.459438 150.745263 
L 358.637269 150.745263 
z
" clip-path="url(#p759a6061cf)" style="fill: #68abd0"/>
   </g>
   <g id="patch_37">
    <path d="M 380.229839 140.134737 
L 440.689036 140.134737 
L 440.689036 97.692632 
L 380.229839 97.692632 
z
" clip-path="url(#p759a6061cf)" style="fill: #68abd0"/>
   </g>
   <g id="patch_38">
    <path d="M 397.503895 87.082105 
L 423.41498 87.082105 
L 423.41498 44.64 
L 397.503895 44.64 
z
" clip-path="url(#p759a6061cf)" style="fill: #68abd0"/>
   </g>
   <g id="patch_39">
    <path d="M 424.566584 246.24 
L 424.566584 246.24 
L 424.566584 203.797895 
L 424.566584 203.797895 
z
" clip-path="url(#p759a6061cf)" style="fill: #053061"/>
   </g>
   <g id="patch_40">
    <path d="M 410.459438 193.187368 
L 410.459438 193.187368 
L 410.459438 150.745263 
L 410.459438 150.745263 
z
" clip-path="url(#p759a6061cf)" style="fill: #053061"/>
   </g>
   <g id="patch_41">
    <path d="M 440.689036 140.134737 
L 449.326064 140.134737 
L 449.326064 97.692632 
L 440.689036 97.692632 
z
" clip-path="url(#p759a6061cf)" style="fill: #053061"/>
   </g>
   <g id="patch_42">
    <path d="M 423.41498 87.082105 
L 457.963092 87.082105 
L 457.963092 44.64 
L 423.41498 44.64 
z
" clip-path="url(#p759a6061cf)" style="fill: #053061"/>
   </g>
   <g id="patch_43">
    <path d="M 174.092768 246.24 
L 224.187531 246.24 
L 224.187531 203.797895 
L 174.092768 203.797895 
z
" clip-path="url(#p759a6061cf)" style="fill: #67001f"/>
   </g>
   <g id="patch_44">
    <path d="M 159.985622 193.187368 
L 229.081847 193.187368 
L 229.081847 150.745263 
L 159.985622 150.745263 
z
" clip-path="url(#p759a6061cf)" style="fill: #67001f"/>
   </g>
   <g id="patch_45">
    <path d="M 198.852249 140.134737 
L 250.674417 140.134737 
L 250.674417 97.692632 
L 198.852249 97.692632 
z
" clip-path="url(#p759a6061cf)" style="fill: #67001f"/>
   </g>
   <g id="patch_46">
    <path d="M 207.489277 87.082105 
L 250.674417 87.082105 
L 250.674417 44.64 
L 207.489277 44.64 
z
" clip-path="url(#p759a6061cf)" style="fill: #67001f"/>
   </g>
   <g id="patch_47">
    <path d="M 224.187531 246.24 
L 299.329676 246.24 
L 299.329676 203.797895 
L 224.187531 203.797895 
z
" clip-path="url(#p759a6061cf)" style="fill: #e58368"/>
   </g>
   <g id="patch_48">
    <path d="M 229.081847 193.187368 
L 306.8151 193.187368 
L 306.8151 150.745263 
L 229.081847 150.745263 
z
" clip-path="url(#p759a6061cf)" style="fill: #e58368"/>
   </g>
   <g id="patch_49">
    <path d="M 250.674417 140.134737 
L 285.22253 140.134737 
L 285.22253 97.692632 
L 250.674417 97.692632 
z
" clip-path="url(#p759a6061cf)" style="fill: #e58368"/>
   </g>
   <g id="patch_50">
    <path d="M 250.674417 87.082105 
L 267.948474 87.082105 
L 267.948474 44.64 
L 250.674417 44.64 
z
" clip-path="url(#p759a6061cf)" style="fill: #e58368"/>
   </g>
   <g id="patch_51">
    <path d="M 299.329676 246.24 
L 366.122693 246.24 
L 366.122693 203.797895 
L 299.329676 203.797895 
z
" clip-path="url(#p759a6061cf)" style="fill: #f6f7f7"/>
   </g>
   <g id="patch_52">
    <path d="M 306.8151 193.187368 
L 358.637269 193.187368 
L 358.637269 150.745263 
L 306.8151 150.745263 
z
" clip-path="url(#p759a6061cf)" style="fill: #f6f7f7"/>
   </g>
   <g id="patch_53">
    <path d="M 285.22253 140.134737 
L 380.229839 140.134737 
L 380.229839 97.692632 
L 285.22253 97.692632 
z
" clip-path="url(#p759a6061cf)" style="fill: #f6f7f7"/>
   </g>
   <g id="patch_54">
    <path d="M 267.948474 87.082105 
L 397.503895 87.082105 
L 397.503895 44.64 
L 267.948474 44.64 
z
" clip-path="url(#p759a6061cf)" style="fill: #f6f7f7"/>
   </g>
   <g id="patch_55">
    <path d="M 366.122693 246.24 
L 424.566584 246.24 
L 424.566584 203.797895 
L 366.122693 203.797895 
z
" clip-path="url(#p759a6061cf)" style="fill: #68abd0"/>
   </g>
   <g id="patch_56">
    <path d="M 358.637269 193.187368 
L 410.459438 193.187368 
L 410.459438 150.745263 
L 358.637269 150.745263 
z
" clip-path="url(#p759a6061cf)" style="fill: #68abd0"/>
   </g>
   <g id="patch_57">
    <path d="M 380.229839 140.134737 
L 440.689036 140.134737 
L 440.689036 97.692632 
L 380.229839 97.692632 
z
" clip-path="url(#p759a6061cf)" style="fill: #68abd0"/>
   </g>
   <g id="patch_58">
    <path d="M 397.503895 87.082105 
L 423.41498 87.082105 
L 423.41498 44.64 
L 397.503895 44.64 
z
" clip-path="url(#p759a6061cf)" style="fill: #68abd0"/>
   </g>
   <g id="patch_59">
    <path d="M 424.566584 246.24 
L 424.566584 246.24 
L 424.566584 203.797895 
L 424.566584 203.797895 
z
" clip-path="url(#p759a6061cf)" style="fill: #053061"/>
   </g>
   <g id="patch_60">
    <path d="M 410.459438 193.187368 
L 410.459438 193.187368 
L 410.459438 150.745263 
L 410.459438 150.745263 
z
" clip-path="url(#p759a6061cf)" style="fill: #053061"/>
   </g>
   <g id="patch_61">
    <path d="M 440.689036 140.134737 
L 449.326064 140.134737 
L 449.326064 97.692632 
L 440.689036 97.692632 
z
" clip-path="url(#p759a6061cf)" style="fill: #053061"/>
   </g>
   <g id="patch_62">
    <path d="M 423.41498 87.082105 
L 457.963092 87.082105 
L 457.963092 44.64 
L 423.41498 44.64 
z
" clip-path="url(#p759a6061cf)" style="fill: #053061"/>
   </g>
   <g id="patch_63">
    <path d="M 174.092768 246.24 
L 224.187531 246.24 
L 224.187531 203.797895 
L 174.092768 203.797895 
z
" clip-path="url(#p759a6061cf)" style="fill: #67001f"/>
   </g>
   <g id="patch_64">
    <path d="M 159.985622 193.187368 
L 229.081847 193.187368 
L 229.081847 150.745263 
L 159.985622 150.745263 
z
" clip-path="url(#p759a6061cf)" style="fill: #67001f"/>
   </g>
   <g id="patch_65">
    <path d="M 198.852249 140.134737 
L 250.674417 140.134737 
L 250.674417 97.692632 
L 198.852249 97.692632 
z
" clip-path="url(#p759a6061cf)" style="fill: #67001f"/>
   </g>
   <g id="patch_66">
    <path d="M 207.489277 87.082105 
L 250.674417 87.082105 
L 250.674417 44.64 
L 207.489277 44.64 
z
" clip-path="url(#p759a6061cf)" style="fill: #67001f"/>
   </g>
   <g id="patch_67">
    <path d="M 224.187531 246.24 
L 299.329676 246.24 
L 299.329676 203.797895 
L 224.187531 203.797895 
z
" clip-path="url(#p759a6061cf)" style="fill: #e58368"/>
   </g>
   <g id="patch_68">
    <path d="M 229.081847 193.187368 
L 306.8151 193.187368 
L 306.8151 150.745263 
L 229.081847 150.745263 
z
" clip-path="url(#p759a6061cf)" style="fill: #e58368"/>
   </g>
   <g id="patch_69">
    <path d="M 250.674417 140.134737 
L 285.22253 140.134737 
L 285.22253 97.692632 
L 250.674417 97.692632 
z
" clip-path="url(#p759a6061cf)" style="fill: #e58368"/>
   </g>
   <g id="patch_70">
    <path d="M 250.674417 87.082105 
L 267.948474 87.082105 
L 267.948474 44.64 
L 250.674417 44.64 
z
" clip-path="url(#p759a6061cf)" style="fill: #e58368"/>
   </g>
   <g id="patch_71">
    <path d="M 299.329676 246.24 
L 366.122693 246.24 
L 366.122693 203.797895 
L 299.329676 203.797895 
z
" clip-path="url(#p759a6061cf)" style="fill: #f6f7f7"/>
   </g>
   <g id="patch_72">
    <path d="M 306.8151 193.187368 
L 358.637269 193.187368 
L 358.637269 150.745263 
L 306.8151 150.745263 
z
" clip-path="url(#p759a6061cf)" style="fill: #f6f7f7"/>
   </g>
   <g id="patch_73">
    <path d="M 285.22253 140.134737 
L 380.229839 140.134737 
L 380.229839 97.692632 
L 285.22253 97.692632 
z
" clip-path="url(#p759a6061cf)" style="fill: #f6f7f7"/>
   </g>
   <g id="patch_74">
    <path d="M 267.948474 87.082105 
L 397.503895 87.082105 
L 397.503895 44.64 
L 267.948474 44.64 
z
" clip-path="url(#p759a6061cf)" style="fill: #f6f7f7"/>
   </g>
   <g id="patch_75">
    <path d="M 366.122693 246.24 
L 424.566584 246.24 
L 424.566584 203.797895 
L 366.122693 203.797895 
z
" clip-path="url(#p759a6061cf)" style="fill: #68abd0"/>
   </g>
   <g id="patch_76">
    <path d="M 358.637269 193.187368 
L 410.459438 193.187368 
L 410.459438 150.745263 
L 358.637269 150.745263 
z
" clip-path="url(#p759a6061cf)" style="fill: #68abd0"/>
   </g>
   <g id="patch_77">
    <path d="M 380.229839 140.134737 
L 440.689036 140.134737 
L 440.689036 97.692632 
L 380.229839 97.692632 
z
" clip-path="url(#p759a6061cf)" style="fill: #68abd0"/>
   </g>
   <g id="patch_78">
    <path d="M 397.503895 87.082105 
L 423.41498 87.082105 
L 423.41498 44.64 
L 397.503895 44.64 
z
" clip-path="url(#p759a6061cf)" style="fill: #68abd0"/>
   </g>
   <g id="patch_79">
    <path d="M 424.566584 246.24 
L 424.566584 246.24 
L 424.566584 203.797895 
L 424.566584 203.797895 
z
" clip-path="url(#p759a6061cf)" style="fill: #053061"/>
   </g>
   <g id="patch_80">
    <path d="M 410.459438 193.187368 
L 410.459438 193.187368 
L 410.459438 150.745263 
L 410.459438 150.745263 
z
" clip-path="url(#p759a6061cf)" style="fill: #053061"/>
   </g>
   <g id="patch_81">
    <path d="M 440.689036 140.134737 
L 449.326064 140.134737 
L 449.326064 97.692632 
L 440.689036 97.692632 
z
" clip-path="url(#p759a6061cf)" style="fill: #053061"/>
   </g>
   <g id="patch_82">
    <path d="M 423.41498 87.082105 
L 457.963092 87.082105 
L 457.963092 44.64 
L 423.41498 44.64 
z
" clip-path="url(#p759a6061cf)" style="fill: #053061"/>
   </g>
   <g id="matplotlib.axis_1">
    <g id="xtick_1">
     <g id="line2d_5">
      <defs>
       <path id="m4c99cd72f3" d="M 0 0 
L 0 3.5 
" style="stroke: #000000; stroke-width: 0.8"/>
      </defs>
      <g>
       <use xlink:href="#m4c99cd72f3" x="82.252369" y="256.32" style="stroke: #000000; stroke-width: 0.8"/>
      </g>
     </g>
     <g id="text_1">
      <text style="font: 10px 'sans-serif'; text-anchor: middle" x="82.252369" y="270.493438" transform="rotate(-0, 82.252369, 270.493438)">100</text>
     </g>
    </g>
    <g id="xtick_2">
     <g id="line2d_6">
      <g>
       <use xlink:href="#m4c99cd72f3" x="107.299751" y="256.32" style="stroke: #000000; stroke-width: 0.8"/>
      </g>
     </g>
     <g id="text_2">
      <text style="font: 10px 'sans-serif'; text-anchor: middle" x="107.299751" y="270.493438" transform="rotate(-0, 107.299751, 270.493438)">90</text>
     </g>
    </g>
    <g id="xtick_3">
     <g id="line2d_7">
      <g>
       <use xlink:href="#m4c99cd72f3" x="132.347132" y="256.32" style="stroke: #000000; stroke-width: 0.8"/>
      </g>
     </g>
     <g id="text_3">
      <text style="font: 10px 'sans-serif'; text-anchor: middle" x="132.347132" y="270.493438" transform="rotate(-0, 132.347132, 270.493438)">80</text>
     </g>
    </g>
    <g id="xtick_4">
     <g id="line2d_8">
      <g>
       <use xlink:href="#m4c99cd72f3" x="157.394514" y="256.32" style="stroke: #000000; stroke-width: 0.8"/>
      </g>
     </g>
     <g id="text_4">
      <text style="font: 10px 'sans-serif'; text-anchor: middle" x="157.394514" y="270.493438" transform="rotate(-0, 157.394514, 270.493438)">70</text>
     </g>
    </g>
    <g id="xtick_5">
     <g id="line2d_9">
      <g>
       <use xlink:href="#m4c99cd72f3" x="182.441895" y="256.32" style="stroke: #000000; stroke-width: 0.8"/>
      </g>
     </g>
     <g id="text_5">
      <text style="font: 10px 'sans-serif'; text-anchor: middle" x="182.441895" y="270.493438" transform="rotate(-0, 182.441895, 270.493438)">60</text>
     </g>
    </g>
    <g id="xtick_6">
     <g id="line2d_10">
      <g>
       <use xlink:href="#m4c99cd72f3" x="207.489277" y="256.32" style="stroke: #000000; stroke-width: 0.8"/>
      </g>
     </g>
     <g id="text_6">
      <text style="font: 10px 'sans-serif'; text-anchor: middle" x="207.489277" y="270.493438" transform="rotate(-0, 207.489277, 270.493438)">50</text>
     </g>
    </g>
    <g id="xtick_7">
     <g id="line2d_11">
      <g>
       <use xlink:href="#m4c99cd72f3" x="232.536658" y="256.32" style="stroke: #000000; stroke-width: 0.8"/>
      </g>
     </g>
     <g id="text_7">
      <text style="font: 10px 'sans-serif'; text-anchor: middle" x="232.536658" y="270.493438" transform="rotate(-0, 232.536658, 270.493438)">40</text>
     </g>
    </g>
    <g id="xtick_8">
     <g id="line2d_12">
      <g>
       <use xlink:href="#m4c99cd72f3" x="257.58404" y="256.32" style="stroke: #000000; stroke-width: 0.8"/>
      </g>
     </g>
     <g id="text_8">
      <text style="font: 10px 'sans-serif'; text-anchor: middle" x="257.58404" y="270.493438" transform="rotate(-0, 257.58404, 270.493438)">30</text>
     </g>
    </g>
    <g id="xtick_9">
     <g id="line2d_13">
      <g>
       <use xlink:href="#m4c99cd72f3" x="282.631421" y="256.32" style="stroke: #000000; stroke-width: 0.8"/>
      </g>
     </g>
     <g id="text_9">
      <text style="font: 10px 'sans-serif'; text-anchor: middle" x="282.631421" y="270.493438" transform="rotate(-0, 282.631421, 270.493438)">20</text>
     </g>
    </g>
    <g id="xtick_10">
     <g id="line2d_14">
      <g>
       <use xlink:href="#m4c99cd72f3" x="307.678803" y="256.32" style="stroke: #000000; stroke-width: 0.8"/>
      </g>
     </g>
     <g id="text_10">
      <text style="font: 10px 'sans-serif'; text-anchor: middle" x="307.678803" y="270.493438" transform="rotate(-0, 307.678803, 270.493438)">10</text>
     </g>
    </g>
    <g id="xtick_11">
     <g id="line2d_15">
      <g>
       <use xlink:href="#m4c99cd72f3" x="332.726185" y="256.32" style="stroke: #000000; stroke-width: 0.8"/>
      </g>
     </g>
     <g id="text_11">
      <text style="font: 10px 'sans-serif'; text-anchor: middle" x="332.726185" y="270.493438" transform="rotate(-0, 332.726185, 270.493438)">0</text>
     </g>
    </g>
    <g id="xtick_12">
     <g id="line2d_16">
      <g>
       <use xlink:href="#m4c99cd72f3" x="357.773566" y="256.32" style="stroke: #000000; stroke-width: 0.8"/>
      </g>
     </g>
     <g id="text_12">
      <text style="font: 10px 'sans-serif'; text-anchor: middle" x="357.773566" y="270.493438" transform="rotate(-0, 357.773566, 270.493438)">10</text>
     </g>
    </g>
    <g id="xtick_13">
     <g id="line2d_17">
      <g>
       <use xlink:href="#m4c99cd72f3" x="382.820948" y="256.32" style="stroke: #000000; stroke-width: 0.8"/>
      </g>
     </g>
     <g id="text_13">
      <text style="font: 10px 'sans-serif'; text-anchor: middle" x="382.820948" y="270.493438" transform="rotate(-0, 382.820948, 270.493438)">20</text>
     </g>
    </g>
    <g id="xtick_14">
     <g id="line2d_18">
      <g>
       <use xlink:href="#m4c99cd72f3" x="407.868329" y="256.32" style="stroke: #000000; stroke-width: 0.8"/>
      </g>
     </g>
     <g id="text_14">
      <text style="font: 10px 'sans-serif'; text-anchor: middle" x="407.868329" y="270.493438" transform="rotate(-0, 407.868329, 270.493438)">30</text>
     </g>
    </g>
    <g id="xtick_15">
     <g id="line2d_19">
      <g>
       <use xlink:href="#m4c99cd72f3" x="432.915711" y="256.32" style="stroke: #000000; stroke-width: 0.8"/>
      </g>
     </g>
     <g id="text_15">
      <text style="font: 10px 'sans-serif'; text-anchor: middle" x="432.915711" y="270.493438" transform="rotate(-0, 432.915711, 270.493438)">40</text>
     </g>
    </g>
    <g id="xtick_16">
     <g id="line2d_20">
      <g>
       <use xlink:href="#m4c99cd72f3" x="457.963092" y="256.32" style="stroke: #000000; stroke-width: 0.8"/>
      </g>
     </g>
     <g id="text_16">
      <text style="font: 10px 'sans-serif'; text-anchor: middle" x="457.963092" y="270.493438" transform="rotate(-0, 457.963092, 270.493438)">50</text>
     </g>
    </g>
    <g id="xtick_17">
     <g id="line2d_21">
      <g>
       <use xlink:href="#m4c99cd72f3" x="483.010474" y="256.32" style="stroke: #000000; stroke-width: 0.8"/>
      </g>
     </g>
     <g id="text_17">
      <text style="font: 10px 'sans-serif'; text-anchor: middle" x="483.010474" y="270.493438" transform="rotate(-0, 483.010474, 270.493438)">60</text>
     </g>
    </g>
    <g id="xtick_18">
     <g id="line2d_22">
      <g>
       <use xlink:href="#m4c99cd72f3" x="508.057855" y="256.32" style="stroke: #000000; stroke-width: 0.8"/>
      </g>
     </g>
     <g id="text_18">
      <text style="font: 10px 'sans-serif'; text-anchor: middle" x="508.057855" y="270.493438" transform="rotate(-0, 508.057855, 270.493438)">70</text>
     </g>
    </g>
    <g id="xtick_19">
     <g id="line2d_23">
      <g>
       <use xlink:href="#m4c99cd72f3" x="533.105237" y="256.32" style="stroke: #000000; stroke-width: 0.8"/>
      </g>
     </g>
     <g id="text_19">
      <text style="font: 10px 'sans-serif'; text-anchor: middle" x="533.105237" y="270.493438" transform="rotate(-0, 533.105237, 270.493438)">80</text>
     </g>
    </g>
    <g id="xtick_20">
     <g id="line2d_24">
      <g>
       <use xlink:href="#m4c99cd72f3" x="558.152618" y="256.32" style="stroke: #000000; stroke-width: 0.8"/>
      </g>
     </g>
     <g id="text_20">
      <text style="font: 10px 'sans-serif'; text-anchor: middle" x="558.152618" y="270.493438" transform="rotate(-0, 558.152618, 270.493438)">90</text>
     </g>
    </g>
    <g id="xtick_21">
     <g id="line2d_25">
      <g>
       <use xlink:href="#m4c99cd72f3" x="583.2" y="256.32" style="stroke: #000000; stroke-width: 0.8"/>
      </g>
     </g>
     <g id="text_21">
      <text style="font: 10px 'sans-serif'; text-anchor: middle" x="583.2" y="270.493438" transform="rotate(-0, 583.2, 270.493438)">100</text>
     </g>
    </g>
    <g id="text_22">
     <text style="font: 10px 'sans-serif'; text-anchor: middle" x="332.1" y="283.75125" transform="rotate(-0, 332.1, 283.75125)">Percentage</text>
    </g>
   </g>
   <g id="matplotlib.axis_2">
    <g id="ytick_1">
     <g id="line2d_26">
      <defs>
       <path id="m8e343aef83" d="M 0 0 
L -3.5 0 
" style="stroke: #000000; stroke-width: 0.8"/>
      </defs>
      <g>
       <use xlink:href="#m8e343aef83" x="81" y="225.018947" style="stroke: #000000; stroke-width: 0.8"/>
      </g>
     </g>
     <g id="text_23">
      <text style="font: 11px 'sans-serif'" transform="translate(-27.478437 217.929791)">progRSE1. It is likely</text>
      <text style="font: 11px 'sans-serif'" transform="translate(-53.780469 229.863416)">that I will gain a promotion</text>
      <text style="font: 11px 'sans-serif'" transform="translate(-40.315781 241.797041)">within my current group</text>
     </g>
    </g>
    <g id="ytick_2">
     <g id="line2d_27">
      <g>
       <use xlink:href="#m8e343aef83" x="81" y="171.966316" style="stroke: #000000; stroke-width: 0.8"/>
      </g>
     </g>
     <g id="text_24">
      <text style="font: 11px 'sans-serif'" transform="translate(-43.38375 159.009175)">progRSE2. The process</text>
      <text style="font: 11px 'sans-serif'" transform="translate(-28.1075 170.9428)">I have to complete to</text>
      <text style="font: 11px 'sans-serif'" transform="translate(-18.934531 182.70455)">gain a promotion is</text>
      <text style="font: 11px 'sans-serif'" transform="translate(-50.136719 194.607238)">clear and understandable</text>
     </g>
    </g>
    <g id="ytick_3">
     <g id="line2d_28">
      <g>
       <use xlink:href="#m8e343aef83" x="81" y="118.913684" style="stroke: #000000; stroke-width: 0.8"/>
      </g>
     </g>
     <g id="text_25">
      <text style="font: 11px 'sans-serif'" transform="translate(-30.546406 111.86234)">progRSE3. There are</text>
      <text style="font: 11px 'sans-serif'" transform="translate(-50.112656 123.795965)">many opportunities within</text>
      <text style="font: 11px 'sans-serif'" transform="translate(-37.270156 135.653965)">my chosen career plan</text>
     </g>
    </g>
    <g id="ytick_4">
     <g id="line2d_29">
      <g>
       <use xlink:href="#m8e343aef83" x="81" y="65.861053" style="stroke: #000000; stroke-width: 0.8"/>
      </g>
     </g>
     <g id="text_26">
      <text style="font: 11px 'sans-serif'" transform="translate(-27.478437 40.851693)">progRSE5. It is likely</text>
      <text style="font: 11px 'sans-serif'" transform="translate(-26.878594 52.785318)">that my next position</text>
      <text style="font: 11px 'sans-serif'" transform="translate(-21.987031 64.612381)">will be an Research</text>
      <text style="font: 11px 'sans-serif'" transform="translate(-22.604062 76.631943)">Software Engineer /</text>
      <text style="font: 11px 'sans-serif'" transform="translate(-72.729688 88.792443)">Research Software Developer</text>
      <text style="font: 11px 'sans-serif'" transform="translate(55.659219 100.554193)">role</text>
     </g>
    </g>
   </g>
   <g id="patch_83">
    <path d="M 81 256.32 
L 583.2 256.32 
" style="fill: none; stroke: #000000; stroke-width: 0.8; stroke-linejoin: miter; stroke-linecap: square"/>
   </g>
   <g id="text_27">
    <text style="font: 10px 'sans-serif'; text-anchor: middle" x="199.14015" y="225.018947" transform="rotate(-0, 199.14015, 225.018947)">20</text>
   </g>
   <g id="text_28">
    <text style="font: 10px 'sans-serif'; text-anchor: middle" x="194.533735" y="171.966316" transform="rotate(-0, 194.533735, 171.966316)">28</text>
   </g>
   <g id="text_29">
    <text style="font: 10px 'sans-serif'; text-anchor: middle" x="224.763333" y="118.913684" transform="rotate(-0, 224.763333, 118.913684)">21</text>
   </g>
   <g id="text_30">
    <text style="font: 10px 'sans-serif'; text-anchor: middle" x="229.081847" y="65.861053" transform="rotate(-0, 229.081847, 65.861053)">17</text>
   </g>
   <g id="text_31">
    <text style="font: 10px 'sans-serif'; text-anchor: middle" x="261.758603" y="225.018947" transform="rotate(-0, 261.758603, 225.018947)">30</text>
   </g>
   <g id="text_32">
    <text style="font: 10px 'sans-serif'; text-anchor: middle" x="267.948474" y="171.966316" transform="rotate(-0, 267.948474, 171.966316)">31</text>
   </g>
   <g id="text_33">
    <text style="font: 10px 'sans-serif'; text-anchor: middle" x="267.948474" y="118.913684" transform="rotate(-0, 267.948474, 118.913684)">14</text>
   </g>
   <g id="text_34">
    <text style="font: 10px 'sans-serif'; text-anchor: middle" x="259.311446" y="65.861053" transform="rotate(-0, 259.311446, 65.861053)">7</text>
   </g>
   <g id="text_35">
    <text style="font: 10px 'sans-serif'; text-anchor: middle" x="332.726185" y="225.018947" transform="rotate(-0, 332.726185, 225.018947)">27</text>
   </g>
   <g id="text_36">
    <text style="font: 10px 'sans-serif'; text-anchor: middle" x="332.726185" y="171.966316" transform="rotate(-0, 332.726185, 171.966316)">21</text>
   </g>
   <g id="text_37">
    <text style="font: 10px 'sans-serif'; text-anchor: middle" x="332.726185" y="118.913684" transform="rotate(-0, 332.726185, 118.913684)">38</text>
   </g>
   <g id="text_38">
    <text style="font: 10px 'sans-serif'; text-anchor: middle" x="332.726185" y="65.861053" transform="rotate(-0, 332.726185, 65.861053)">52</text>
   </g>
   <g id="text_39">
    <text style="font: 10px 'sans-serif'; text-anchor: middle" x="395.344638" y="225.018947" transform="rotate(-0, 395.344638, 225.018947)">23</text>
   </g>
   <g id="text_40">
    <text style="font: 10px 'sans-serif'; text-anchor: middle" x="384.548353" y="171.966316" transform="rotate(-0, 384.548353, 171.966316)">21</text>
   </g>
   <g id="text_41">
    <text style="font: 10px 'sans-serif'; text-anchor: middle" x="410.459438" y="118.913684" transform="rotate(-0, 410.459438, 118.913684)">24</text>
   </g>
   <g id="text_42">
    <text style="font: 10px 'sans-serif'; text-anchor: middle" x="410.459438" y="65.861053" transform="rotate(-0, 410.459438, 65.861053)">10</text>
   </g>
   <g id="text_43">
    <text style="font: 10px 'sans-serif'; text-anchor: middle" x="440.689036" y="65.861053" transform="rotate(-0, 440.689036, 65.861053)">14</text>
   </g>
   <g id="text_44">
    <text style="font: 10px 'sans-serif'; text-anchor: middle" x="199.14015" y="225.018947" transform="rotate(-0, 199.14015, 225.018947)">20</text>
   </g>
   <g id="text_45">
    <text style="font: 10px 'sans-serif'; text-anchor: middle" x="194.533735" y="171.966316" transform="rotate(-0, 194.533735, 171.966316)">28</text>
   </g>
   <g id="text_46">
    <text style="font: 10px 'sans-serif'; text-anchor: middle" x="224.763333" y="118.913684" transform="rotate(-0, 224.763333, 118.913684)">21</text>
   </g>
   <g id="text_47">
    <text style="font: 10px 'sans-serif'; text-anchor: middle" x="229.081847" y="65.861053" transform="rotate(-0, 229.081847, 65.861053)">17</text>
   </g>
   <g id="text_48">
    <text style="font: 10px 'sans-serif'; text-anchor: middle" x="261.758603" y="225.018947" transform="rotate(-0, 261.758603, 225.018947)">30</text>
   </g>
   <g id="text_49">
    <text style="font: 10px 'sans-serif'; text-anchor: middle" x="267.948474" y="171.966316" transform="rotate(-0, 267.948474, 171.966316)">31</text>
   </g>
   <g id="text_50">
    <text style="font: 10px 'sans-serif'; text-anchor: middle" x="267.948474" y="118.913684" transform="rotate(-0, 267.948474, 118.913684)">14</text>
   </g>
   <g id="text_51">
    <text style="font: 10px 'sans-serif'; text-anchor: middle" x="259.311446" y="65.861053" transform="rotate(-0, 259.311446, 65.861053)">7</text>
   </g>
   <g id="text_52">
    <text style="font: 10px 'sans-serif'; text-anchor: middle" x="332.726185" y="225.018947" transform="rotate(-0, 332.726185, 225.018947)">27</text>
   </g>
   <g id="text_53">
    <text style="font: 10px 'sans-serif'; text-anchor: middle" x="332.726185" y="171.966316" transform="rotate(-0, 332.726185, 171.966316)">21</text>
   </g>
   <g id="text_54">
    <text style="font: 10px 'sans-serif'; text-anchor: middle" x="332.726185" y="118.913684" transform="rotate(-0, 332.726185, 118.913684)">38</text>
   </g>
   <g id="text_55">
    <text style="font: 10px 'sans-serif'; text-anchor: middle" x="332.726185" y="65.861053" transform="rotate(-0, 332.726185, 65.861053)">52</text>
   </g>
   <g id="text_56">
    <text style="font: 10px 'sans-serif'; text-anchor: middle" x="395.344638" y="225.018947" transform="rotate(-0, 395.344638, 225.018947)">23</text>
   </g>
   <g id="text_57">
    <text style="font: 10px 'sans-serif'; text-anchor: middle" x="384.548353" y="171.966316" transform="rotate(-0, 384.548353, 171.966316)">21</text>
   </g>
   <g id="text_58">
    <text style="font: 10px 'sans-serif'; text-anchor: middle" x="410.459438" y="118.913684" transform="rotate(-0, 410.459438, 118.913684)">24</text>
   </g>
   <g id="text_59">
    <text style="font: 10px 'sans-serif'; text-anchor: middle" x="410.459438" y="65.861053" transform="rotate(-0, 410.459438, 65.861053)">10</text>
   </g>
   <g id="text_60">
    <text style="font: 10px 'sans-serif'; text-anchor: middle" x="440.689036" y="65.861053" transform="rotate(-0, 440.689036, 65.861053)">14</text>
   </g>
   <g id="text_61">
    <text style="font: 10px 'sans-serif'; text-anchor: middle" x="199.14015" y="225.018947" transform="rotate(-0, 199.14015, 225.018947)">20</text>
   </g>
   <g id="text_62">
    <text style="font: 10px 'sans-serif'; text-anchor: middle" x="194.533735" y="171.966316" transform="rotate(-0, 194.533735, 171.966316)">28</text>
   </g>
   <g id="text_63">
    <text style="font: 10px 'sans-serif'; text-anchor: middle" x="224.763333" y="118.913684" transform="rotate(-0, 224.763333, 118.913684)">21</text>
   </g>
   <g id="text_64">
    <text style="font: 10px 'sans-serif'; text-anchor: middle" x="229.081847" y="65.861053" transform="rotate(-0, 229.081847, 65.861053)">17</text>
   </g>
   <g id="text_65">
    <text style="font: 10px 'sans-serif'; text-anchor: middle" x="261.758603" y="225.018947" transform="rotate(-0, 261.758603, 225.018947)">30</text>
   </g>
   <g id="text_66">
    <text style="font: 10px 'sans-serif'; text-anchor: middle" x="267.948474" y="171.966316" transform="rotate(-0, 267.948474, 171.966316)">31</text>
   </g>
   <g id="text_67">
    <text style="font: 10px 'sans-serif'; text-anchor: middle" x="267.948474" y="118.913684" transform="rotate(-0, 267.948474, 118.913684)">14</text>
   </g>
   <g id="text_68">
    <text style="font: 10px 'sans-serif'; text-anchor: middle" x="259.311446" y="65.861053" transform="rotate(-0, 259.311446, 65.861053)">7</text>
   </g>
   <g id="text_69">
    <text style="font: 10px 'sans-serif'; text-anchor: middle" x="332.726185" y="225.018947" transform="rotate(-0, 332.726185, 225.018947)">27</text>
   </g>
   <g id="text_70">
    <text style="font: 10px 'sans-serif'; text-anchor: middle" x="332.726185" y="171.966316" transform="rotate(-0, 332.726185, 171.966316)">21</text>
   </g>
   <g id="text_71">
    <text style="font: 10px 'sans-serif'; text-anchor: middle" x="332.726185" y="118.913684" transform="rotate(-0, 332.726185, 118.913684)">38</text>
   </g>
   <g id="text_72">
    <text style="font: 10px 'sans-serif'; text-anchor: middle" x="332.726185" y="65.861053" transform="rotate(-0, 332.726185, 65.861053)">52</text>
   </g>
   <g id="text_73">
    <text style="font: 10px 'sans-serif'; text-anchor: middle" x="395.344638" y="225.018947" transform="rotate(-0, 395.344638, 225.018947)">23</text>
   </g>
   <g id="text_74">
    <text style="font: 10px 'sans-serif'; text-anchor: middle" x="384.548353" y="171.966316" transform="rotate(-0, 384.548353, 171.966316)">21</text>
   </g>
   <g id="text_75">
    <text style="font: 10px 'sans-serif'; text-anchor: middle" x="410.459438" y="118.913684" transform="rotate(-0, 410.459438, 118.913684)">24</text>
   </g>
   <g id="text_76">
    <text style="font: 10px 'sans-serif'; text-anchor: middle" x="410.459438" y="65.861053" transform="rotate(-0, 410.459438, 65.861053)">10</text>
   </g>
   <g id="text_77">
    <text style="font: 10px 'sans-serif'; text-anchor: middle" x="440.689036" y="65.861053" transform="rotate(-0, 440.689036, 65.861053)">14</text>
   </g>
   <g id="text_78">
    <text style="font: 10px 'sans-serif'; text-anchor: middle" x="199.14015" y="225.018947" transform="rotate(-0, 199.14015, 225.018947)">20</text>
   </g>
   <g id="text_79">
    <text style="font: 10px 'sans-serif'; text-anchor: middle" x="194.533735" y="171.966316" transform="rotate(-0, 194.533735, 171.966316)">28</text>
   </g>
   <g id="text_80">
    <text style="font: 10px 'sans-serif'; text-anchor: middle" x="224.763333" y="118.913684" transform="rotate(-0, 224.763333, 118.913684)">21</text>
   </g>
   <g id="text_81">
    <text style="font: 10px 'sans-serif'; text-anchor: middle" x="229.081847" y="65.861053" transform="rotate(-0, 229.081847, 65.861053)">17</text>
   </g>
   <g id="text_82">
    <text style="font: 10px 'sans-serif'; text-anchor: middle" x="261.758603" y="225.018947" transform="rotate(-0, 261.758603, 225.018947)">30</text>
   </g>
   <g id="text_83">
    <text style="font: 10px 'sans-serif'; text-anchor: middle" x="267.948474" y="171.966316" transform="rotate(-0, 267.948474, 171.966316)">31</text>
   </g>
   <g id="text_84">
    <text style="font: 10px 'sans-serif'; text-anchor: middle" x="267.948474" y="118.913684" transform="rotate(-0, 267.948474, 118.913684)">14</text>
   </g>
   <g id="text_85">
    <text style="font: 10px 'sans-serif'; text-anchor: middle" x="259.311446" y="65.861053" transform="rotate(-0, 259.311446, 65.861053)">7</text>
   </g>
   <g id="text_86">
    <text style="font: 10px 'sans-serif'; text-anchor: middle" x="332.726185" y="225.018947" transform="rotate(-0, 332.726185, 225.018947)">27</text>
   </g>
   <g id="text_87">
    <text style="font: 10px 'sans-serif'; text-anchor: middle" x="332.726185" y="171.966316" transform="rotate(-0, 332.726185, 171.966316)">21</text>
   </g>
   <g id="text_88">
    <text style="font: 10px 'sans-serif'; text-anchor: middle" x="332.726185" y="118.913684" transform="rotate(-0, 332.726185, 118.913684)">38</text>
   </g>
   <g id="text_89">
    <text style="font: 10px 'sans-serif'; text-anchor: middle" x="332.726185" y="65.861053" transform="rotate(-0, 332.726185, 65.861053)">52</text>
   </g>
   <g id="text_90">
    <text style="font: 10px 'sans-serif'; text-anchor: middle" x="395.344638" y="225.018947" transform="rotate(-0, 395.344638, 225.018947)">23</text>
   </g>
   <g id="text_91">
    <text style="font: 10px 'sans-serif'; text-anchor: middle" x="384.548353" y="171.966316" transform="rotate(-0, 384.548353, 171.966316)">21</text>
   </g>
   <g id="text_92">
    <text style="font: 10px 'sans-serif'; text-anchor: middle" x="410.459438" y="118.913684" transform="rotate(-0, 410.459438, 118.913684)">24</text>
   </g>
   <g id="text_93">
    <text style="font: 10px 'sans-serif'; text-anchor: middle" x="410.459438" y="65.861053" transform="rotate(-0, 410.459438, 65.861053)">10</text>
   </g>
   <g id="text_94">
    <text style="font: 10px 'sans-serif'; text-anchor: middle" x="440.689036" y="65.861053" transform="rotate(-0, 440.689036, 65.861053)">14</text>
   </g>
   <g id="text_95">
    <text style="font: 12px 'sans-serif'; text-anchor: middle" x="332.1" y="28.56" transform="rotate(-0, 332.1, 28.56)">Australia: Progression in the current role</text>
   </g>
   <g id="legend_1">
    <g id="patch_84">
     <path d="M 88 251.32 
L 576.2 251.32 
Q 578.2 251.32 578.2 249.32 
L 578.2 235.73875 
Q 578.2 233.73875 576.2 233.73875 
L 88 233.73875 
Q 86 233.73875 86 235.73875 
L 86 249.32 
Q 86 251.32 88 251.32 
z
" style="fill: #ffffff; opacity: 0.8; stroke: #cccccc; stroke-linejoin: miter"/>
    </g>
    <g id="patch_85">
     <path d="M 90 245.1075 
L 110 245.1075 
L 110 238.1075 
L 90 238.1075 
z
" style="fill: #67001f"/>
    </g>
    <g id="text_96">
     <text style="font: 10px 'sans-serif'; text-anchor: start" x="118" y="245.1075" transform="rotate(-0, 118, 245.1075)">Strongly disagree</text>
    </g>
    <g id="patch_86">
     <path d="M 200.854688 245.1075 
L 220.854688 245.1075 
L 220.854688 238.1075 
L 200.854688 238.1075 
z
" style="fill: #e58368"/>
    </g>
    <g id="text_97">
     <text style="font: 10px 'sans-serif'; text-anchor: start" x="228.854688" y="245.1075" transform="rotate(-0, 228.854688, 245.1075)">Disagree</text>
    </g>
    <g id="patch_87">
     <path d="M 273.909375 245.1075 
L 293.909375 245.1075 
L 293.909375 238.1075 
L 273.909375 238.1075 
z
" style="fill: #f6f7f7"/>
    </g>
    <g id="text_98">
     <text style="font: 10px 'sans-serif'; text-anchor: start" x="301.909375" y="245.1075" transform="rotate(-0, 301.909375, 245.1075)">Neither agree or disagree</text>
    </g>
    <g id="patch_88">
     <path d="M 420.335938 245.1075 
L 440.335938 245.1075 
L 440.335938 238.1075 
L 420.335938 238.1075 
z
" style="fill: #68abd0"/>
    </g>
    <g id="text_99">
     <text style="font: 10px 'sans-serif'; text-anchor: start" x="448.335938" y="245.1075" transform="rotate(-0, 448.335938, 245.1075)">Agree</text>
    </g>
    <g id="patch_89">
     <path d="M 480.05625 245.1075 
L 500.05625 245.1075 
L 500.05625 238.1075 
L 480.05625 238.1075 
z
" style="fill: #053061"/>
    </g>
    <g id="text_100">
     <text style="font: 10px 'sans-serif'; text-anchor: start" x="508.05625" y="245.1075" transform="rotate(-0, 508.05625, 245.1075)">Strongly Agree</text>
    </g>
   </g>
  </g>
 </g>
 <defs>
  <clipPath id="p759a6061cf">
   <rect x="81" y="34.56" width="502.2" height="221.76"/>
  </clipPath>
 </defs>
</svg>
