<?xml version="1.0" encoding="utf-8" standalone="no"?>
<!DOCTYPE svg PUBLIC "-//W3C//DTD SVG 1.1//EN"
  "http://www.w3.org/Graphics/SVG/1.1/DTD/svg11.dtd">
<svg xmlns:xlink="http://www.w3.org/1999/xlink" width="648pt" height="288pt" viewBox="0 0 648 288" xmlns="http://www.w3.org/2000/svg" version="1.1">
 <metadata>
  <rdf:RDF xmlns:dc="http://purl.org/dc/elements/1.1/" xmlns:cc="http://creativecommons.org/ns#" xmlns:rdf="http://www.w3.org/1999/02/22-rdf-syntax-ns#">
   <cc:Work>
    <dc:type rdf:resource="http://purl.org/dc/dcmitype/StillImage"/>
    <dc:date>2022-03-08T15:12:50.788789</dc:date>
    <dc:format>image/svg+xml</dc:format>
    <dc:creator>
     <cc:Agent>
      <dc:title>Matplotlib v3.5.1, https://matplotlib.org/</dc:title>
     </cc:Agent>
    </dc:creator>
   </cc:Work>
  </rdf:RDF>
 </metadata>
 <defs>
  <style type="text/css">*{stroke-linejoin: round; stroke-linecap: butt}</style>
 </defs>
 <g id="figure_1">
  <g id="patch_1">
   <path d="M 0 288 
L 648 288 
L 648 0 
L 0 0 
z
" style="fill: #ffffff"/>
  </g>
  <g id="axes_1">
   <g id="patch_2">
    <path d="M 357.1225 247.55625 
L 628.858594 247.55625 
L 628.858594 47.5275 
L 357.1225 47.5275 
z
" style="fill: #ffffff"/>
   </g>
   <g id="line2d_1">
    <path d="M 493.32937 247.55625 
L 493.32937 47.5275 
" clip-path="url(#pe283a00830)" style="fill: none; stroke-dasharray: 5.55,2.4; stroke-dashoffset: 0; stroke: #000000; stroke-opacity: 0.5; stroke-width: 1.5"/>
   </g>
   <g id="line2d_2">
    <path d="M 493.32937 247.55625 
L 493.32937 47.5275 
" clip-path="url(#pe283a00830)" style="fill: none; stroke-dasharray: 5.55,2.4; stroke-dashoffset: 0; stroke: #000000; stroke-opacity: 0.5; stroke-width: 1.5"/>
   </g>
   <g id="patch_3">
    <path d="M 460.449499 238.464034 
L 463.657291 238.464034 
L 463.657291 157.644337 
L 460.449499 157.644337 
z
" clip-path="url(#pe283a00830)" style="fill: #67001f"/>
   </g>
   <g id="patch_4">
    <path d="M 454.265064 137.439413 
L 455.062295 137.439413 
L 455.062295 56.619716 
L 454.265064 56.619716 
z
" clip-path="url(#pe283a00830)" style="fill: #67001f"/>
   </g>
   <g id="patch_5">
    <path d="M 463.657291 238.464034 
L 468.46898 238.464034 
L 468.46898 157.644337 
L 463.657291 157.644337 
z
" clip-path="url(#pe283a00830)" style="fill: #b61f2e"/>
   </g>
   <g id="patch_6">
    <path d="M 455.062295 137.439413 
L 459.845679 137.439413 
L 459.845679 56.619716 
L 455.062295 56.619716 
z
" clip-path="url(#pe283a00830)" style="fill: #b61f2e"/>
   </g>
   <g id="patch_7">
    <path d="M 468.46898 238.464034 
L 475.686512 238.464034 
L 475.686512 157.644337 
L 468.46898 157.644337 
z
" clip-path="url(#pe283a00830)" style="fill: #dc6e57"/>
   </g>
   <g id="patch_8">
    <path d="M 459.845679 137.439413 
L 467.817987 137.439413 
L 467.817987 56.619716 
L 459.845679 56.619716 
z
" clip-path="url(#pe283a00830)" style="fill: #dc6e57"/>
   </g>
   <g id="patch_9">
    <path d="M 475.686512 238.464034 
L 482.102097 238.464034 
L 482.102097 157.644337 
L 475.686512 157.644337 
z
" clip-path="url(#pe283a00830)" style="fill: #f7b799"/>
   </g>
   <g id="patch_10">
    <path d="M 467.817987 137.439413 
L 474.993063 137.439413 
L 474.993063 56.619716 
L 467.817987 56.619716 
z
" clip-path="url(#pe283a00830)" style="fill: #f7b799"/>
   </g>
   <g id="patch_11">
    <path d="M 482.102097 238.464034 
L 493.32937 238.464034 
L 493.32937 157.644337 
L 482.102097 157.644337 
z
" clip-path="url(#pe283a00830)" style="fill: #fae7dc"/>
   </g>
   <g id="patch_12">
    <path d="M 474.993063 137.439413 
L 493.32937 137.439413 
L 493.32937 56.619716 
L 474.993063 56.619716 
z
" clip-path="url(#pe283a00830)" style="fill: #fae7dc"/>
   </g>
   <g id="patch_13">
    <path d="M 493.32937 238.464034 
L 514.981968 238.464034 
L 514.981968 157.644337 
L 493.32937 157.644337 
z
" clip-path="url(#pe283a00830)" style="fill: #e1edf3"/>
   </g>
   <g id="patch_14">
    <path d="M 493.32937 137.439413 
L 509.273985 137.439413 
L 509.273985 56.619716 
L 493.32937 56.619716 
z
" clip-path="url(#pe283a00830)" style="fill: #e1edf3"/>
   </g>
   <g id="patch_15">
    <path d="M 514.981968 238.464034 
L 543.05015 238.464034 
L 543.05015 157.644337 
L 514.981968 157.644337 
z
" clip-path="url(#pe283a00830)" style="fill: #a7d0e4"/>
   </g>
   <g id="patch_16">
    <path d="M 509.273985 137.439413 
L 539.568752 137.439413 
L 539.568752 56.619716 
L 509.273985 56.619716 
z
" clip-path="url(#pe283a00830)" style="fill: #a7d0e4"/>
   </g>
   <g id="patch_17">
    <path d="M 543.05015 238.464034 
L 574.326125 238.464034 
L 574.326125 157.644337 
L 543.05015 157.644337 
z
" clip-path="url(#pe283a00830)" style="fill: #529dc8"/>
   </g>
   <g id="patch_18">
    <path d="M 539.568752 137.439413 
L 572.255212 137.439413 
L 572.255212 56.619716 
L 539.568752 56.619716 
z
" clip-path="url(#pe283a00830)" style="fill: #529dc8"/>
   </g>
   <g id="patch_19">
    <path d="M 574.326125 238.464034 
L 595.978723 238.464034 
L 595.978723 157.644337 
L 574.326125 157.644337 
z
" clip-path="url(#pe283a00830)" style="fill: #246aae"/>
   </g>
   <g id="patch_20">
    <path d="M 572.255212 137.439413 
L 589.794288 137.439413 
L 589.794288 56.619716 
L 572.255212 56.619716 
z
" clip-path="url(#pe283a00830)" style="fill: #246aae"/>
   </g>
   <g id="patch_21">
    <path d="M 595.978723 238.464034 
L 595.978723 238.464034 
L 595.978723 157.644337 
L 595.978723 157.644337 
z
" clip-path="url(#pe283a00830)" style="fill: #053061"/>
   </g>
   <g id="patch_22">
    <path d="M 589.794288 137.439413 
L 589.794288 137.439413 
L 589.794288 56.619716 
L 589.794288 56.619716 
z
" clip-path="url(#pe283a00830)" style="fill: #053061"/>
   </g>
   <g id="patch_23">
    <path d="M 460.449499 238.464034 
L 463.657291 238.464034 
L 463.657291 157.644337 
L 460.449499 157.644337 
z
" clip-path="url(#pe283a00830)" style="fill: #67001f"/>
   </g>
   <g id="patch_24">
    <path d="M 454.265064 137.439413 
L 455.062295 137.439413 
L 455.062295 56.619716 
L 454.265064 56.619716 
z
" clip-path="url(#pe283a00830)" style="fill: #67001f"/>
   </g>
   <g id="patch_25">
    <path d="M 463.657291 238.464034 
L 468.46898 238.464034 
L 468.46898 157.644337 
L 463.657291 157.644337 
z
" clip-path="url(#pe283a00830)" style="fill: #b61f2e"/>
   </g>
   <g id="patch_26">
    <path d="M 455.062295 137.439413 
L 459.845679 137.439413 
L 459.845679 56.619716 
L 455.062295 56.619716 
z
" clip-path="url(#pe283a00830)" style="fill: #b61f2e"/>
   </g>
   <g id="patch_27">
    <path d="M 468.46898 238.464034 
L 475.686512 238.464034 
L 475.686512 157.644337 
L 468.46898 157.644337 
z
" clip-path="url(#pe283a00830)" style="fill: #dc6e57"/>
   </g>
   <g id="patch_28">
    <path d="M 459.845679 137.439413 
L 467.817987 137.439413 
L 467.817987 56.619716 
L 459.845679 56.619716 
z
" clip-path="url(#pe283a00830)" style="fill: #dc6e57"/>
   </g>
   <g id="patch_29">
    <path d="M 475.686512 238.464034 
L 482.102097 238.464034 
L 482.102097 157.644337 
L 475.686512 157.644337 
z
" clip-path="url(#pe283a00830)" style="fill: #f7b799"/>
   </g>
   <g id="patch_30">
    <path d="M 467.817987 137.439413 
L 474.993063 137.439413 
L 474.993063 56.619716 
L 467.817987 56.619716 
z
" clip-path="url(#pe283a00830)" style="fill: #f7b799"/>
   </g>
   <g id="patch_31">
    <path d="M 482.102097 238.464034 
L 493.32937 238.464034 
L 493.32937 157.644337 
L 482.102097 157.644337 
z
" clip-path="url(#pe283a00830)" style="fill: #fae7dc"/>
   </g>
   <g id="patch_32">
    <path d="M 474.993063 137.439413 
L 493.32937 137.439413 
L 493.32937 56.619716 
L 474.993063 56.619716 
z
" clip-path="url(#pe283a00830)" style="fill: #fae7dc"/>
   </g>
   <g id="patch_33">
    <path d="M 493.32937 238.464034 
L 514.981968 238.464034 
L 514.981968 157.644337 
L 493.32937 157.644337 
z
" clip-path="url(#pe283a00830)" style="fill: #e1edf3"/>
   </g>
   <g id="patch_34">
    <path d="M 493.32937 137.439413 
L 509.273985 137.439413 
L 509.273985 56.619716 
L 493.32937 56.619716 
z
" clip-path="url(#pe283a00830)" style="fill: #e1edf3"/>
   </g>
   <g id="patch_35">
    <path d="M 514.981968 238.464034 
L 543.05015 238.464034 
L 543.05015 157.644337 
L 514.981968 157.644337 
z
" clip-path="url(#pe283a00830)" style="fill: #a7d0e4"/>
   </g>
   <g id="patch_36">
    <path d="M 509.273985 137.439413 
L 539.568752 137.439413 
L 539.568752 56.619716 
L 509.273985 56.619716 
z
" clip-path="url(#pe283a00830)" style="fill: #a7d0e4"/>
   </g>
   <g id="patch_37">
    <path d="M 543.05015 238.464034 
L 574.326125 238.464034 
L 574.326125 157.644337 
L 543.05015 157.644337 
z
" clip-path="url(#pe283a00830)" style="fill: #529dc8"/>
   </g>
   <g id="patch_38">
    <path d="M 539.568752 137.439413 
L 572.255212 137.439413 
L 572.255212 56.619716 
L 539.568752 56.619716 
z
" clip-path="url(#pe283a00830)" style="fill: #529dc8"/>
   </g>
   <g id="patch_39">
    <path d="M 574.326125 238.464034 
L 595.978723 238.464034 
L 595.978723 157.644337 
L 574.326125 157.644337 
z
" clip-path="url(#pe283a00830)" style="fill: #246aae"/>
   </g>
   <g id="patch_40">
    <path d="M 572.255212 137.439413 
L 589.794288 137.439413 
L 589.794288 56.619716 
L 572.255212 56.619716 
z
" clip-path="url(#pe283a00830)" style="fill: #246aae"/>
   </g>
   <g id="patch_41">
    <path d="M 595.978723 238.464034 
L 595.978723 238.464034 
L 595.978723 157.644337 
L 595.978723 157.644337 
z
" clip-path="url(#pe283a00830)" style="fill: #053061"/>
   </g>
   <g id="patch_42">
    <path d="M 589.794288 137.439413 
L 589.794288 137.439413 
L 589.794288 56.619716 
L 589.794288 56.619716 
z
" clip-path="url(#pe283a00830)" style="fill: #053061"/>
   </g>
   <g id="matplotlib.axis_1">
    <g id="xtick_1">
     <g id="line2d_3">
      <defs>
       <path id="m4c99cd72f3" d="M 0 0 
L 0 3.5 
" style="stroke: #000000; stroke-width: 0.8"/>
      </defs>
      <g>
       <use xlink:href="#m4c99cd72f3" x="357.800146" y="247.55625" style="stroke: #000000; stroke-width: 0.8"/>
      </g>
     </g>
     <g id="text_1">
      <text style="font: 10px 'sans-serif'; text-anchor: middle" x="357.800146" y="261.729688" transform="rotate(-0, 357.800146, 261.729688)">100</text>
     </g>
    </g>
    <g id="xtick_2">
     <g id="line2d_4">
      <g>
       <use xlink:href="#m4c99cd72f3" x="371.353069" y="247.55625" style="stroke: #000000; stroke-width: 0.8"/>
      </g>
     </g>
     <g id="text_2">
      <text style="font: 10px 'sans-serif'; text-anchor: middle" x="371.353069" y="261.729688" transform="rotate(-0, 371.353069, 261.729688)">90</text>
     </g>
    </g>
    <g id="xtick_3">
     <g id="line2d_5">
      <g>
       <use xlink:href="#m4c99cd72f3" x="384.905991" y="247.55625" style="stroke: #000000; stroke-width: 0.8"/>
      </g>
     </g>
     <g id="text_3">
      <text style="font: 10px 'sans-serif'; text-anchor: middle" x="384.905991" y="261.729688" transform="rotate(-0, 384.905991, 261.729688)">80</text>
     </g>
    </g>
    <g id="xtick_4">
     <g id="line2d_6">
      <g>
       <use xlink:href="#m4c99cd72f3" x="398.458913" y="247.55625" style="stroke: #000000; stroke-width: 0.8"/>
      </g>
     </g>
     <g id="text_4">
      <text style="font: 10px 'sans-serif'; text-anchor: middle" x="398.458913" y="261.729688" transform="rotate(-0, 398.458913, 261.729688)">70</text>
     </g>
    </g>
    <g id="xtick_5">
     <g id="line2d_7">
      <g>
       <use xlink:href="#m4c99cd72f3" x="412.011836" y="247.55625" style="stroke: #000000; stroke-width: 0.8"/>
      </g>
     </g>
     <g id="text_5">
      <text style="font: 10px 'sans-serif'; text-anchor: middle" x="412.011836" y="261.729688" transform="rotate(-0, 412.011836, 261.729688)">60</text>
     </g>
    </g>
    <g id="xtick_6">
     <g id="line2d_8">
      <g>
       <use xlink:href="#m4c99cd72f3" x="425.564758" y="247.55625" style="stroke: #000000; stroke-width: 0.8"/>
      </g>
     </g>
     <g id="text_6">
      <text style="font: 10px 'sans-serif'; text-anchor: middle" x="425.564758" y="261.729688" transform="rotate(-0, 425.564758, 261.729688)">50</text>
     </g>
    </g>
    <g id="xtick_7">
     <g id="line2d_9">
      <g>
       <use xlink:href="#m4c99cd72f3" x="439.11768" y="247.55625" style="stroke: #000000; stroke-width: 0.8"/>
      </g>
     </g>
     <g id="text_7">
      <text style="font: 10px 'sans-serif'; text-anchor: middle" x="439.11768" y="261.729688" transform="rotate(-0, 439.11768, 261.729688)">40</text>
     </g>
    </g>
    <g id="xtick_8">
     <g id="line2d_10">
      <g>
       <use xlink:href="#m4c99cd72f3" x="452.670603" y="247.55625" style="stroke: #000000; stroke-width: 0.8"/>
      </g>
     </g>
     <g id="text_8">
      <text style="font: 10px 'sans-serif'; text-anchor: middle" x="452.670603" y="261.729688" transform="rotate(-0, 452.670603, 261.729688)">30</text>
     </g>
    </g>
    <g id="xtick_9">
     <g id="line2d_11">
      <g>
       <use xlink:href="#m4c99cd72f3" x="466.223525" y="247.55625" style="stroke: #000000; stroke-width: 0.8"/>
      </g>
     </g>
     <g id="text_9">
      <text style="font: 10px 'sans-serif'; text-anchor: middle" x="466.223525" y="261.729688" transform="rotate(-0, 466.223525, 261.729688)">20</text>
     </g>
    </g>
    <g id="xtick_10">
     <g id="line2d_12">
      <g>
       <use xlink:href="#m4c99cd72f3" x="479.776448" y="247.55625" style="stroke: #000000; stroke-width: 0.8"/>
      </g>
     </g>
     <g id="text_10">
      <text style="font: 10px 'sans-serif'; text-anchor: middle" x="479.776448" y="261.729688" transform="rotate(-0, 479.776448, 261.729688)">10</text>
     </g>
    </g>
    <g id="xtick_11">
     <g id="line2d_13">
      <g>
       <use xlink:href="#m4c99cd72f3" x="493.32937" y="247.55625" style="stroke: #000000; stroke-width: 0.8"/>
      </g>
     </g>
     <g id="text_11">
      <text style="font: 10px 'sans-serif'; text-anchor: middle" x="493.32937" y="261.729688" transform="rotate(-0, 493.32937, 261.729688)">0</text>
     </g>
    </g>
    <g id="xtick_12">
     <g id="line2d_14">
      <g>
       <use xlink:href="#m4c99cd72f3" x="506.882292" y="247.55625" style="stroke: #000000; stroke-width: 0.8"/>
      </g>
     </g>
     <g id="text_12">
      <text style="font: 10px 'sans-serif'; text-anchor: middle" x="506.882292" y="261.729688" transform="rotate(-0, 506.882292, 261.729688)">10</text>
     </g>
    </g>
    <g id="xtick_13">
     <g id="line2d_15">
      <g>
       <use xlink:href="#m4c99cd72f3" x="520.435215" y="247.55625" style="stroke: #000000; stroke-width: 0.8"/>
      </g>
     </g>
     <g id="text_13">
      <text style="font: 10px 'sans-serif'; text-anchor: middle" x="520.435215" y="261.729688" transform="rotate(-0, 520.435215, 261.729688)">20</text>
     </g>
    </g>
    <g id="xtick_14">
     <g id="line2d_16">
      <g>
       <use xlink:href="#m4c99cd72f3" x="533.988137" y="247.55625" style="stroke: #000000; stroke-width: 0.8"/>
      </g>
     </g>
     <g id="text_14">
      <text style="font: 10px 'sans-serif'; text-anchor: middle" x="533.988137" y="261.729688" transform="rotate(-0, 533.988137, 261.729688)">30</text>
     </g>
    </g>
    <g id="xtick_15">
     <g id="line2d_17">
      <g>
       <use xlink:href="#m4c99cd72f3" x="547.541059" y="247.55625" style="stroke: #000000; stroke-width: 0.8"/>
      </g>
     </g>
     <g id="text_15">
      <text style="font: 10px 'sans-serif'; text-anchor: middle" x="547.541059" y="261.729688" transform="rotate(-0, 547.541059, 261.729688)">40</text>
     </g>
    </g>
    <g id="xtick_16">
     <g id="line2d_18">
      <g>
       <use xlink:href="#m4c99cd72f3" x="561.093982" y="247.55625" style="stroke: #000000; stroke-width: 0.8"/>
      </g>
     </g>
     <g id="text_16">
      <text style="font: 10px 'sans-serif'; text-anchor: middle" x="561.093982" y="261.729688" transform="rotate(-0, 561.093982, 261.729688)">50</text>
     </g>
    </g>
    <g id="xtick_17">
     <g id="line2d_19">
      <g>
       <use xlink:href="#m4c99cd72f3" x="574.646904" y="247.55625" style="stroke: #000000; stroke-width: 0.8"/>
      </g>
     </g>
     <g id="text_17">
      <text style="font: 10px 'sans-serif'; text-anchor: middle" x="574.646904" y="261.729688" transform="rotate(-0, 574.646904, 261.729688)">60</text>
     </g>
    </g>
    <g id="xtick_18">
     <g id="line2d_20">
      <g>
       <use xlink:href="#m4c99cd72f3" x="588.199827" y="247.55625" style="stroke: #000000; stroke-width: 0.8"/>
      </g>
     </g>
     <g id="text_18">
      <text style="font: 10px 'sans-serif'; text-anchor: middle" x="588.199827" y="261.729688" transform="rotate(-0, 588.199827, 261.729688)">70</text>
     </g>
    </g>
    <g id="xtick_19">
     <g id="line2d_21">
      <g>
       <use xlink:href="#m4c99cd72f3" x="601.752749" y="247.55625" style="stroke: #000000; stroke-width: 0.8"/>
      </g>
     </g>
     <g id="text_19">
      <text style="font: 10px 'sans-serif'; text-anchor: middle" x="601.752749" y="261.729688" transform="rotate(-0, 601.752749, 261.729688)">80</text>
     </g>
    </g>
    <g id="xtick_20">
     <g id="line2d_22">
      <g>
       <use xlink:href="#m4c99cd72f3" x="615.305671" y="247.55625" style="stroke: #000000; stroke-width: 0.8"/>
      </g>
     </g>
     <g id="text_20">
      <text style="font: 10px 'sans-serif'; text-anchor: middle" x="615.305671" y="261.729688" transform="rotate(-0, 615.305671, 261.729688)">90</text>
     </g>
    </g>
    <g id="xtick_21">
     <g id="line2d_23">
      <g>
       <use xlink:href="#m4c99cd72f3" x="628.858594" y="247.55625" style="stroke: #000000; stroke-width: 0.8"/>
      </g>
     </g>
     <g id="text_21">
      <text style="font: 10px 'sans-serif'; text-anchor: middle" x="628.858594" y="261.729688" transform="rotate(-0, 628.858594, 261.729688)">100</text>
     </g>
    </g>
    <g id="text_22">
     <text style="font: 10px 'sans-serif'; text-anchor: middle" x="492.990547" y="274.9875" transform="rotate(-0, 492.990547, 274.9875)">Percentage</text>
    </g>
   </g>
   <g id="matplotlib.axis_2">
    <g id="ytick_1">
     <g id="line2d_24">
      <defs>
       <path id="m8e343aef83" d="M 0 0 
L -3.5 0 
" style="stroke: #000000; stroke-width: 0.8"/>
      </defs>
      <g>
       <use xlink:href="#m8e343aef83" x="357.1225" y="198.054186" style="stroke: #000000; stroke-width: 0.8"/>
      </g>
     </g>
     <g id="text_23">
      <text style="font: 11px 'sans-serif'; text-anchor: end" x="350.1225" y="202.106998" transform="rotate(-0, 350.1225, 202.106998)">satisGen1. In general, how satisfied are you with your current position</text>
     </g>
    </g>
    <g id="ytick_2">
     <g id="line2d_25">
      <g>
       <use xlink:href="#m8e343aef83" x="357.1225" y="97.029564" style="stroke: #000000; stroke-width: 0.8"/>
      </g>
     </g>
     <g id="text_24">
      <text style="font: 11px 'sans-serif'; text-anchor: end" x="350.1225" y="101.082377" transform="rotate(-0, 350.1225, 101.082377)">satisGen2. In general, how satisfied are you with your career</text>
     </g>
    </g>
   </g>
   <g id="patch_43">
    <path d="M 357.1225 247.55625 
L 628.858594 247.55625 
" style="fill: none; stroke: #000000; stroke-width: 0.8; stroke-linejoin: miter; stroke-linecap: square"/>
   </g>
   <g id="text_25">
    <text style="font: 10px 'sans-serif'; text-anchor: middle" x="472.077746" y="198.054186" transform="rotate(-0, 472.077746, 198.054186)">5</text>
   </g>
   <g id="text_26">
    <text style="font: 10px 'sans-serif'; text-anchor: middle" x="463.831833" y="97.029564" transform="rotate(-0, 463.831833, 97.029564)">6</text>
   </g>
   <g id="text_27">
    <text style="font: 10px 'sans-serif'; text-anchor: middle" x="471.405525" y="97.029564" transform="rotate(-0, 471.405525, 97.029564)">5</text>
   </g>
   <g id="text_28">
    <text style="font: 10px 'sans-serif'; text-anchor: middle" x="487.715733" y="198.054186" transform="rotate(-0, 487.715733, 198.054186)">8</text>
   </g>
   <g id="text_29">
    <text style="font: 10px 'sans-serif'; text-anchor: middle" x="484.161217" y="97.029564" transform="rotate(-0, 484.161217, 97.029564)">14</text>
   </g>
   <g id="text_30">
    <text style="font: 10px 'sans-serif'; text-anchor: middle" x="504.155669" y="198.054186" transform="rotate(-0, 504.155669, 198.054186)">16</text>
   </g>
   <g id="text_31">
    <text style="font: 10px 'sans-serif'; text-anchor: middle" x="501.301677" y="97.029564" transform="rotate(-0, 501.301677, 97.029564)">12</text>
   </g>
   <g id="text_32">
    <text style="font: 10px 'sans-serif'; text-anchor: middle" x="529.016059" y="198.054186" transform="rotate(-0, 529.016059, 198.054186)">21</text>
   </g>
   <g id="text_33">
    <text style="font: 10px 'sans-serif'; text-anchor: middle" x="524.421368" y="97.029564" transform="rotate(-0, 524.421368, 97.029564)">22</text>
   </g>
   <g id="text_34">
    <text style="font: 10px 'sans-serif'; text-anchor: middle" x="558.688138" y="198.054186" transform="rotate(-0, 558.688138, 198.054186)">23</text>
   </g>
   <g id="text_35">
    <text style="font: 10px 'sans-serif'; text-anchor: middle" x="555.911982" y="97.029564" transform="rotate(-0, 555.911982, 97.029564)">24</text>
   </g>
   <g id="text_36">
    <text style="font: 10px 'sans-serif'; text-anchor: middle" x="585.152424" y="198.054186" transform="rotate(-0, 585.152424, 198.054186)">16</text>
   </g>
   <g id="text_37">
    <text style="font: 10px 'sans-serif'; text-anchor: middle" x="581.02475" y="97.029564" transform="rotate(-0, 581.02475, 97.029564)">13</text>
   </g>
   <g id="text_38">
    <text style="font: 10px 'sans-serif'; text-anchor: middle" x="472.077746" y="198.054186" transform="rotate(-0, 472.077746, 198.054186)">5</text>
   </g>
   <g id="text_39">
    <text style="font: 10px 'sans-serif'; text-anchor: middle" x="463.831833" y="97.029564" transform="rotate(-0, 463.831833, 97.029564)">6</text>
   </g>
   <g id="text_40">
    <text style="font: 10px 'sans-serif'; text-anchor: middle" x="471.405525" y="97.029564" transform="rotate(-0, 471.405525, 97.029564)">5</text>
   </g>
   <g id="text_41">
    <text style="font: 10px 'sans-serif'; text-anchor: middle" x="487.715733" y="198.054186" transform="rotate(-0, 487.715733, 198.054186)">8</text>
   </g>
   <g id="text_42">
    <text style="font: 10px 'sans-serif'; text-anchor: middle" x="484.161217" y="97.029564" transform="rotate(-0, 484.161217, 97.029564)">14</text>
   </g>
   <g id="text_43">
    <text style="font: 10px 'sans-serif'; text-anchor: middle" x="504.155669" y="198.054186" transform="rotate(-0, 504.155669, 198.054186)">16</text>
   </g>
   <g id="text_44">
    <text style="font: 10px 'sans-serif'; text-anchor: middle" x="501.301677" y="97.029564" transform="rotate(-0, 501.301677, 97.029564)">12</text>
   </g>
   <g id="text_45">
    <text style="font: 10px 'sans-serif'; text-anchor: middle" x="529.016059" y="198.054186" transform="rotate(-0, 529.016059, 198.054186)">21</text>
   </g>
   <g id="text_46">
    <text style="font: 10px 'sans-serif'; text-anchor: middle" x="524.421368" y="97.029564" transform="rotate(-0, 524.421368, 97.029564)">22</text>
   </g>
   <g id="text_47">
    <text style="font: 10px 'sans-serif'; text-anchor: middle" x="558.688138" y="198.054186" transform="rotate(-0, 558.688138, 198.054186)">23</text>
   </g>
   <g id="text_48">
    <text style="font: 10px 'sans-serif'; text-anchor: middle" x="555.911982" y="97.029564" transform="rotate(-0, 555.911982, 97.029564)">24</text>
   </g>
   <g id="text_49">
    <text style="font: 10px 'sans-serif'; text-anchor: middle" x="585.152424" y="198.054186" transform="rotate(-0, 585.152424, 198.054186)">16</text>
   </g>
   <g id="text_50">
    <text style="font: 10px 'sans-serif'; text-anchor: middle" x="581.02475" y="97.029564" transform="rotate(-0, 581.02475, 97.029564)">13</text>
   </g>
   <g id="text_51">
    <text style="font: 12px 'sans-serif'; text-anchor: middle" x="492.990547" y="41.5275" transform="rotate(-0, 492.990547, 41.5275)">Progression in the current role</text>
   </g>
   <g id="legend_1">
    <g id="patch_44">
     <path d="M 364.1225 242.55625 
L 621.858594 242.55625 
Q 623.858594 242.55625 623.858594 240.55625 
L 623.858594 227.298438 
Q 623.858594 225.298438 621.858594 225.298438 
L 364.1225 225.298438 
Q 362.1225 225.298438 362.1225 227.298438 
L 362.1225 240.55625 
Q 362.1225 242.55625 364.1225 242.55625 
z
" style="fill: #ffffff; opacity: 0.8; stroke: #cccccc; stroke-linejoin: miter"/>
    </g>
    <g id="patch_45">
     <path d="M 366.1225 236.471875 
L 386.1225 236.471875 
L 386.1225 229.471875 
L 366.1225 229.471875 
z
" style="fill: #67001f"/>
    </g>
    <g id="text_52">
     <text style="font: 10px 'sans-serif'; text-anchor: start" x="394.1225" y="236.471875" transform="rotate(-0, 394.1225, 236.471875)">1</text>
    </g>
    <g id="patch_46">
     <path d="M 389.968524 236.471875 
L 409.968524 236.471875 
L 409.968524 229.471875 
L 389.968524 229.471875 
z
" style="fill: #b61f2e"/>
    </g>
    <g id="text_53">
     <text style="font: 10px 'sans-serif'; text-anchor: start" x="417.968524" y="236.471875" transform="rotate(-0, 417.968524, 236.471875)">2</text>
    </g>
    <g id="patch_47">
     <path d="M 413.814549 236.471875 
L 433.814549 236.471875 
L 433.814549 229.471875 
L 413.814549 229.471875 
z
" style="fill: #dc6e57"/>
    </g>
    <g id="text_54">
     <text style="font: 10px 'sans-serif'; text-anchor: start" x="441.814549" y="236.471875" transform="rotate(-0, 441.814549, 236.471875)">3</text>
    </g>
    <g id="patch_48">
     <path d="M 437.660573 236.471875 
L 457.660573 236.471875 
L 457.660573 229.471875 
L 437.660573 229.471875 
z
" style="fill: #f7b799"/>
    </g>
    <g id="text_55">
     <text style="font: 10px 'sans-serif'; text-anchor: start" x="465.660573" y="236.471875" transform="rotate(-0, 465.660573, 236.471875)">4</text>
    </g>
    <g id="patch_49">
     <path d="M 461.506597 236.471875 
L 481.506597 236.471875 
L 481.506597 229.471875 
L 461.506597 229.471875 
z
" style="fill: #fae7dc"/>
    </g>
    <g id="text_56">
     <text style="font: 10px 'sans-serif'; text-anchor: start" x="489.506597" y="236.471875" transform="rotate(-0, 489.506597, 236.471875)">5</text>
    </g>
    <g id="patch_50">
     <path d="M 485.352622 236.471875 
L 505.352622 236.471875 
L 505.352622 229.471875 
L 485.352622 229.471875 
z
" style="fill: #e1edf3"/>
    </g>
    <g id="text_57">
     <text style="font: 10px 'sans-serif'; text-anchor: start" x="513.352622" y="236.471875" transform="rotate(-0, 513.352622, 236.471875)">6</text>
    </g>
    <g id="patch_51">
     <path d="M 509.198646 236.471875 
L 529.198646 236.471875 
L 529.198646 229.471875 
L 509.198646 229.471875 
z
" style="fill: #a7d0e4"/>
    </g>
    <g id="text_58">
     <text style="font: 10px 'sans-serif'; text-anchor: start" x="537.198646" y="236.471875" transform="rotate(-0, 537.198646, 236.471875)">7</text>
    </g>
    <g id="patch_52">
     <path d="M 533.04467 236.471875 
L 553.04467 236.471875 
L 553.04467 229.471875 
L 533.04467 229.471875 
z
" style="fill: #529dc8"/>
    </g>
    <g id="text_59">
     <text style="font: 10px 'sans-serif'; text-anchor: start" x="561.04467" y="236.471875" transform="rotate(-0, 561.04467, 236.471875)">8</text>
    </g>
    <g id="patch_53">
     <path d="M 556.890694 236.471875 
L 576.890694 236.471875 
L 576.890694 229.471875 
L 556.890694 229.471875 
z
" style="fill: #246aae"/>
    </g>
    <g id="text_60">
     <text style="font: 10px 'sans-serif'; text-anchor: start" x="584.890694" y="236.471875" transform="rotate(-0, 584.890694, 236.471875)">9</text>
    </g>
    <g id="patch_54">
     <path d="M 580.736719 236.471875 
L 600.736719 236.471875 
L 600.736719 229.471875 
L 580.736719 229.471875 
z
" style="fill: #053061"/>
    </g>
    <g id="text_61">
     <text style="font: 10px 'sans-serif'; text-anchor: start" x="608.736719" y="236.471875" transform="rotate(-0, 608.736719, 236.471875)">10</text>
    </g>
   </g>
  </g>
  <g id="text_62">
   <text style="font: 12px 'sans-serif'; text-anchor: middle" x="324" y="14.39625" transform="rotate(-0, 324, 14.39625)">Progression in the current role: World</text>
  </g>
 </g>
 <defs>
  <clipPath id="pe283a00830">
   <rect x="357.1225" y="47.5275" width="271.736094" height="200.02875"/>
  </clipPath>
 </defs>
</svg>
