<?xml version="1.0" encoding="utf-8" standalone="no"?>
<!DOCTYPE svg PUBLIC "-//W3C//DTD SVG 1.1//EN"
  "http://www.w3.org/Graphics/SVG/1.1/DTD/svg11.dtd">
<svg xmlns:xlink="http://www.w3.org/1999/xlink" width="648pt" height="468pt" viewBox="0 0 648 468" xmlns="http://www.w3.org/2000/svg" version="1.1">
 <metadata>
  <rdf:RDF xmlns:dc="http://purl.org/dc/elements/1.1/" xmlns:cc="http://creativecommons.org/ns#" xmlns:rdf="http://www.w3.org/1999/02/22-rdf-syntax-ns#">
   <cc:Work>
    <dc:type rdf:resource="http://purl.org/dc/dcmitype/StillImage"/>
    <dc:date>2022-03-21T16:08:59.134133</dc:date>
    <dc:format>image/svg+xml</dc:format>
    <dc:creator>
     <cc:Agent>
      <dc:title>Matplotlib v3.5.1, https://matplotlib.org/</dc:title>
     </cc:Agent>
    </dc:creator>
   </cc:Work>
  </rdf:RDF>
 </metadata>
 <defs>
  <style type="text/css">*{stroke-linejoin: round; stroke-linecap: butt}</style>
 </defs>
 <g id="figure_1">
  <g id="patch_1">
   <path d="M 0 468 
L 648 468 
L 648 0 
L 0 0 
z
" style="fill: #ffffff"/>
  </g>
  <g id="axes_1">
   <g id="patch_2">
    <path d="M 250.156094 427.55625 
L 572.344028 427.55625 
L 572.344028 47.5275 
L 250.156094 47.5275 
z
" style="fill: #ffffff"/>
   </g>
   <g id="line2d_1">
    <path d="M 411.651791 427.55625 
L 411.651791 47.5275 
" clip-path="url(#pc5590ce09e)" style="fill: none; stroke-dasharray: 5.55,2.4; stroke-dashoffset: 0; stroke: #000000; stroke-opacity: 0.5; stroke-width: 1.5"/>
   </g>
   <g id="line2d_2">
    <path d="M 411.651791 427.55625 
L 411.651791 47.5275 
" clip-path="url(#pc5590ce09e)" style="fill: none; stroke-dasharray: 5.55,2.4; stroke-dashoffset: 0; stroke: #000000; stroke-opacity: 0.5; stroke-width: 1.5"/>
   </g>
   <g id="line2d_3">
    <path d="M 411.651791 427.55625 
L 411.651791 47.5275 
" clip-path="url(#pc5590ce09e)" style="fill: none; stroke-dasharray: 5.55,2.4; stroke-dashoffset: 0; stroke: #000000; stroke-opacity: 0.5; stroke-width: 1.5"/>
   </g>
   <g id="line2d_4">
    <path d="M 411.651791 427.55625 
L 411.651791 47.5275 
" clip-path="url(#pc5590ce09e)" style="fill: none; stroke-dasharray: 5.55,2.4; stroke-dashoffset: 0; stroke: #000000; stroke-opacity: 0.5; stroke-width: 1.5"/>
   </g>
   <g id="patch_3">
    <path d="M 305.594915 377.987283 
L 344.161052 377.987283 
L 344.161052 311.895326 
L 305.594915 311.895326 
z
" clip-path="url(#pc5590ce09e)" style="fill: #67001f"/>
   </g>
   <g id="patch_4">
    <path d="M 304.523634 295.372337 
L 344.696693 295.372337 
L 344.696693 229.28038 
L 304.523634 229.28038 
z
" clip-path="url(#pc5590ce09e)" style="fill: #67001f"/>
   </g>
   <g id="patch_5">
    <path d="M 318.450294 212.757391 
L 337.733363 212.757391 
L 337.733363 146.665435 
L 318.450294 146.665435 
z
" clip-path="url(#pc5590ce09e)" style="fill: #67001f"/>
   </g>
   <g id="patch_6">
    <path d="M 348.044448 130.142446 
L 368.130977 130.142446 
L 368.130977 64.050489 
L 348.044448 64.050489 
z
" clip-path="url(#pc5590ce09e)" style="fill: #67001f"/>
   </g>
   <g id="patch_7">
    <path d="M 344.161052 377.987283 
L 389.154878 377.987283 
L 389.154878 311.895326 
L 344.161052 311.895326 
z
" clip-path="url(#pc5590ce09e)" style="fill: #e58368"/>
   </g>
   <g id="patch_8">
    <path d="M 344.696693 295.372337 
L 391.565262 295.372337 
L 391.565262 229.28038 
L 344.696693 229.28038 
z
" clip-path="url(#pc5590ce09e)" style="fill: #e58368"/>
   </g>
   <g id="patch_9">
    <path d="M 337.733363 212.757391 
L 382.727189 212.757391 
L 382.727189 146.665435 
L 337.733363 146.665435 
z
" clip-path="url(#pc5590ce09e)" style="fill: #e58368"/>
   </g>
   <g id="patch_10">
    <path d="M 368.130977 130.142446 
L 381.521997 130.142446 
L 381.521997 64.050489 
L 368.130977 64.050489 
z
" clip-path="url(#pc5590ce09e)" style="fill: #e58368"/>
   </g>
   <g id="patch_11">
    <path d="M 389.154878 377.987283 
L 434.148704 377.987283 
L 434.148704 311.895326 
L 389.154878 311.895326 
z
" clip-path="url(#pc5590ce09e)" style="fill: #f6f7f7"/>
   </g>
   <g id="patch_12">
    <path d="M 391.565262 295.372337 
L 431.738321 295.372337 
L 431.738321 229.28038 
L 391.565262 229.28038 
z
" clip-path="url(#pc5590ce09e)" style="fill: #f6f7f7"/>
   </g>
   <g id="patch_13">
    <path d="M 382.727189 212.757391 
L 440.576394 212.757391 
L 440.576394 146.665435 
L 382.727189 146.665435 
z
" clip-path="url(#pc5590ce09e)" style="fill: #f6f7f7"/>
   </g>
   <g id="patch_14">
    <path d="M 381.521997 130.142446 
L 441.781586 130.142446 
L 441.781586 64.050489 
L 381.521997 64.050489 
z
" clip-path="url(#pc5590ce09e)" style="fill: #f6f7f7"/>
   </g>
   <g id="patch_15">
    <path d="M 434.148704 377.987283 
L 466.287152 377.987283 
L 466.287152 311.895326 
L 434.148704 311.895326 
z
" clip-path="url(#pc5590ce09e)" style="fill: #68abd0"/>
   </g>
   <g id="patch_16">
    <path d="M 431.738321 295.372337 
L 458.52036 295.372337 
L 458.52036 229.28038 
L 431.738321 229.28038 
z
" clip-path="url(#pc5590ce09e)" style="fill: #68abd0"/>
   </g>
   <g id="patch_17">
    <path d="M 440.576394 212.757391 
L 472.714841 212.757391 
L 472.714841 146.665435 
L 440.576394 146.665435 
z
" clip-path="url(#pc5590ce09e)" style="fill: #68abd0"/>
   </g>
   <g id="patch_18">
    <path d="M 441.781586 130.142446 
L 475.259135 130.142446 
L 475.259135 64.050489 
L 441.781586 64.050489 
z
" clip-path="url(#pc5590ce09e)" style="fill: #68abd0"/>
   </g>
   <g id="patch_19">
    <path d="M 466.287152 377.987283 
L 466.287152 377.987283 
L 466.287152 311.895326 
L 466.287152 311.895326 
z
" clip-path="url(#pc5590ce09e)" style="fill: #053061"/>
   </g>
   <g id="patch_20">
    <path d="M 458.52036 295.372337 
L 465.21587 295.372337 
L 465.21587 229.28038 
L 458.52036 229.28038 
z
" clip-path="url(#pc5590ce09e)" style="fill: #053061"/>
   </g>
   <g id="patch_21">
    <path d="M 472.714841 212.757391 
L 479.142531 212.757391 
L 479.142531 146.665435 
L 472.714841 146.665435 
z
" clip-path="url(#pc5590ce09e)" style="fill: #053061"/>
   </g>
   <g id="patch_22">
    <path d="M 475.259135 130.142446 
L 508.736684 130.142446 
L 508.736684 64.050489 
L 475.259135 64.050489 
z
" clip-path="url(#pc5590ce09e)" style="fill: #053061"/>
   </g>
   <g id="patch_23">
    <path d="M 305.594915 377.987283 
L 344.161052 377.987283 
L 344.161052 311.895326 
L 305.594915 311.895326 
z
" clip-path="url(#pc5590ce09e)" style="fill: #67001f"/>
   </g>
   <g id="patch_24">
    <path d="M 304.523634 295.372337 
L 344.696693 295.372337 
L 344.696693 229.28038 
L 304.523634 229.28038 
z
" clip-path="url(#pc5590ce09e)" style="fill: #67001f"/>
   </g>
   <g id="patch_25">
    <path d="M 318.450294 212.757391 
L 337.733363 212.757391 
L 337.733363 146.665435 
L 318.450294 146.665435 
z
" clip-path="url(#pc5590ce09e)" style="fill: #67001f"/>
   </g>
   <g id="patch_26">
    <path d="M 348.044448 130.142446 
L 368.130977 130.142446 
L 368.130977 64.050489 
L 348.044448 64.050489 
z
" clip-path="url(#pc5590ce09e)" style="fill: #67001f"/>
   </g>
   <g id="patch_27">
    <path d="M 344.161052 377.987283 
L 389.154878 377.987283 
L 389.154878 311.895326 
L 344.161052 311.895326 
z
" clip-path="url(#pc5590ce09e)" style="fill: #e58368"/>
   </g>
   <g id="patch_28">
    <path d="M 344.696693 295.372337 
L 391.565262 295.372337 
L 391.565262 229.28038 
L 344.696693 229.28038 
z
" clip-path="url(#pc5590ce09e)" style="fill: #e58368"/>
   </g>
   <g id="patch_29">
    <path d="M 337.733363 212.757391 
L 382.727189 212.757391 
L 382.727189 146.665435 
L 337.733363 146.665435 
z
" clip-path="url(#pc5590ce09e)" style="fill: #e58368"/>
   </g>
   <g id="patch_30">
    <path d="M 368.130977 130.142446 
L 381.521997 130.142446 
L 381.521997 64.050489 
L 368.130977 64.050489 
z
" clip-path="url(#pc5590ce09e)" style="fill: #e58368"/>
   </g>
   <g id="patch_31">
    <path d="M 389.154878 377.987283 
L 434.148704 377.987283 
L 434.148704 311.895326 
L 389.154878 311.895326 
z
" clip-path="url(#pc5590ce09e)" style="fill: #f6f7f7"/>
   </g>
   <g id="patch_32">
    <path d="M 391.565262 295.372337 
L 431.738321 295.372337 
L 431.738321 229.28038 
L 391.565262 229.28038 
z
" clip-path="url(#pc5590ce09e)" style="fill: #f6f7f7"/>
   </g>
   <g id="patch_33">
    <path d="M 382.727189 212.757391 
L 440.576394 212.757391 
L 440.576394 146.665435 
L 382.727189 146.665435 
z
" clip-path="url(#pc5590ce09e)" style="fill: #f6f7f7"/>
   </g>
   <g id="patch_34">
    <path d="M 381.521997 130.142446 
L 441.781586 130.142446 
L 441.781586 64.050489 
L 381.521997 64.050489 
z
" clip-path="url(#pc5590ce09e)" style="fill: #f6f7f7"/>
   </g>
   <g id="patch_35">
    <path d="M 434.148704 377.987283 
L 466.287152 377.987283 
L 466.287152 311.895326 
L 434.148704 311.895326 
z
" clip-path="url(#pc5590ce09e)" style="fill: #68abd0"/>
   </g>
   <g id="patch_36">
    <path d="M 431.738321 295.372337 
L 458.52036 295.372337 
L 458.52036 229.28038 
L 431.738321 229.28038 
z
" clip-path="url(#pc5590ce09e)" style="fill: #68abd0"/>
   </g>
   <g id="patch_37">
    <path d="M 440.576394 212.757391 
L 472.714841 212.757391 
L 472.714841 146.665435 
L 440.576394 146.665435 
z
" clip-path="url(#pc5590ce09e)" style="fill: #68abd0"/>
   </g>
   <g id="patch_38">
    <path d="M 441.781586 130.142446 
L 475.259135 130.142446 
L 475.259135 64.050489 
L 441.781586 64.050489 
z
" clip-path="url(#pc5590ce09e)" style="fill: #68abd0"/>
   </g>
   <g id="patch_39">
    <path d="M 466.287152 377.987283 
L 466.287152 377.987283 
L 466.287152 311.895326 
L 466.287152 311.895326 
z
" clip-path="url(#pc5590ce09e)" style="fill: #053061"/>
   </g>
   <g id="patch_40">
    <path d="M 458.52036 295.372337 
L 465.21587 295.372337 
L 465.21587 229.28038 
L 458.52036 229.28038 
z
" clip-path="url(#pc5590ce09e)" style="fill: #053061"/>
   </g>
   <g id="patch_41">
    <path d="M 472.714841 212.757391 
L 479.142531 212.757391 
L 479.142531 146.665435 
L 472.714841 146.665435 
z
" clip-path="url(#pc5590ce09e)" style="fill: #053061"/>
   </g>
   <g id="patch_42">
    <path d="M 475.259135 130.142446 
L 508.736684 130.142446 
L 508.736684 64.050489 
L 475.259135 64.050489 
z
" clip-path="url(#pc5590ce09e)" style="fill: #053061"/>
   </g>
   <g id="patch_43">
    <path d="M 305.594915 377.987283 
L 344.161052 377.987283 
L 344.161052 311.895326 
L 305.594915 311.895326 
z
" clip-path="url(#pc5590ce09e)" style="fill: #67001f"/>
   </g>
   <g id="patch_44">
    <path d="M 304.523634 295.372337 
L 344.696693 295.372337 
L 344.696693 229.28038 
L 304.523634 229.28038 
z
" clip-path="url(#pc5590ce09e)" style="fill: #67001f"/>
   </g>
   <g id="patch_45">
    <path d="M 318.450294 212.757391 
L 337.733363 212.757391 
L 337.733363 146.665435 
L 318.450294 146.665435 
z
" clip-path="url(#pc5590ce09e)" style="fill: #67001f"/>
   </g>
   <g id="patch_46">
    <path d="M 348.044448 130.142446 
L 368.130977 130.142446 
L 368.130977 64.050489 
L 348.044448 64.050489 
z
" clip-path="url(#pc5590ce09e)" style="fill: #67001f"/>
   </g>
   <g id="patch_47">
    <path d="M 344.161052 377.987283 
L 389.154878 377.987283 
L 389.154878 311.895326 
L 344.161052 311.895326 
z
" clip-path="url(#pc5590ce09e)" style="fill: #e58368"/>
   </g>
   <g id="patch_48">
    <path d="M 344.696693 295.372337 
L 391.565262 295.372337 
L 391.565262 229.28038 
L 344.696693 229.28038 
z
" clip-path="url(#pc5590ce09e)" style="fill: #e58368"/>
   </g>
   <g id="patch_49">
    <path d="M 337.733363 212.757391 
L 382.727189 212.757391 
L 382.727189 146.665435 
L 337.733363 146.665435 
z
" clip-path="url(#pc5590ce09e)" style="fill: #e58368"/>
   </g>
   <g id="patch_50">
    <path d="M 368.130977 130.142446 
L 381.521997 130.142446 
L 381.521997 64.050489 
L 368.130977 64.050489 
z
" clip-path="url(#pc5590ce09e)" style="fill: #e58368"/>
   </g>
   <g id="patch_51">
    <path d="M 389.154878 377.987283 
L 434.148704 377.987283 
L 434.148704 311.895326 
L 389.154878 311.895326 
z
" clip-path="url(#pc5590ce09e)" style="fill: #f6f7f7"/>
   </g>
   <g id="patch_52">
    <path d="M 391.565262 295.372337 
L 431.738321 295.372337 
L 431.738321 229.28038 
L 391.565262 229.28038 
z
" clip-path="url(#pc5590ce09e)" style="fill: #f6f7f7"/>
   </g>
   <g id="patch_53">
    <path d="M 382.727189 212.757391 
L 440.576394 212.757391 
L 440.576394 146.665435 
L 382.727189 146.665435 
z
" clip-path="url(#pc5590ce09e)" style="fill: #f6f7f7"/>
   </g>
   <g id="patch_54">
    <path d="M 381.521997 130.142446 
L 441.781586 130.142446 
L 441.781586 64.050489 
L 381.521997 64.050489 
z
" clip-path="url(#pc5590ce09e)" style="fill: #f6f7f7"/>
   </g>
   <g id="patch_55">
    <path d="M 434.148704 377.987283 
L 466.287152 377.987283 
L 466.287152 311.895326 
L 434.148704 311.895326 
z
" clip-path="url(#pc5590ce09e)" style="fill: #68abd0"/>
   </g>
   <g id="patch_56">
    <path d="M 431.738321 295.372337 
L 458.52036 295.372337 
L 458.52036 229.28038 
L 431.738321 229.28038 
z
" clip-path="url(#pc5590ce09e)" style="fill: #68abd0"/>
   </g>
   <g id="patch_57">
    <path d="M 440.576394 212.757391 
L 472.714841 212.757391 
L 472.714841 146.665435 
L 440.576394 146.665435 
z
" clip-path="url(#pc5590ce09e)" style="fill: #68abd0"/>
   </g>
   <g id="patch_58">
    <path d="M 441.781586 130.142446 
L 475.259135 130.142446 
L 475.259135 64.050489 
L 441.781586 64.050489 
z
" clip-path="url(#pc5590ce09e)" style="fill: #68abd0"/>
   </g>
   <g id="patch_59">
    <path d="M 466.287152 377.987283 
L 466.287152 377.987283 
L 466.287152 311.895326 
L 466.287152 311.895326 
z
" clip-path="url(#pc5590ce09e)" style="fill: #053061"/>
   </g>
   <g id="patch_60">
    <path d="M 458.52036 295.372337 
L 465.21587 295.372337 
L 465.21587 229.28038 
L 458.52036 229.28038 
z
" clip-path="url(#pc5590ce09e)" style="fill: #053061"/>
   </g>
   <g id="patch_61">
    <path d="M 472.714841 212.757391 
L 479.142531 212.757391 
L 479.142531 146.665435 
L 472.714841 146.665435 
z
" clip-path="url(#pc5590ce09e)" style="fill: #053061"/>
   </g>
   <g id="patch_62">
    <path d="M 475.259135 130.142446 
L 508.736684 130.142446 
L 508.736684 64.050489 
L 475.259135 64.050489 
z
" clip-path="url(#pc5590ce09e)" style="fill: #053061"/>
   </g>
   <g id="patch_63">
    <path d="M 305.594915 377.987283 
L 344.161052 377.987283 
L 344.161052 311.895326 
L 305.594915 311.895326 
z
" clip-path="url(#pc5590ce09e)" style="fill: #67001f"/>
   </g>
   <g id="patch_64">
    <path d="M 304.523634 295.372337 
L 344.696693 295.372337 
L 344.696693 229.28038 
L 304.523634 229.28038 
z
" clip-path="url(#pc5590ce09e)" style="fill: #67001f"/>
   </g>
   <g id="patch_65">
    <path d="M 318.450294 212.757391 
L 337.733363 212.757391 
L 337.733363 146.665435 
L 318.450294 146.665435 
z
" clip-path="url(#pc5590ce09e)" style="fill: #67001f"/>
   </g>
   <g id="patch_66">
    <path d="M 348.044448 130.142446 
L 368.130977 130.142446 
L 368.130977 64.050489 
L 348.044448 64.050489 
z
" clip-path="url(#pc5590ce09e)" style="fill: #67001f"/>
   </g>
   <g id="patch_67">
    <path d="M 344.161052 377.987283 
L 389.154878 377.987283 
L 389.154878 311.895326 
L 344.161052 311.895326 
z
" clip-path="url(#pc5590ce09e)" style="fill: #e58368"/>
   </g>
   <g id="patch_68">
    <path d="M 344.696693 295.372337 
L 391.565262 295.372337 
L 391.565262 229.28038 
L 344.696693 229.28038 
z
" clip-path="url(#pc5590ce09e)" style="fill: #e58368"/>
   </g>
   <g id="patch_69">
    <path d="M 337.733363 212.757391 
L 382.727189 212.757391 
L 382.727189 146.665435 
L 337.733363 146.665435 
z
" clip-path="url(#pc5590ce09e)" style="fill: #e58368"/>
   </g>
   <g id="patch_70">
    <path d="M 368.130977 130.142446 
L 381.521997 130.142446 
L 381.521997 64.050489 
L 368.130977 64.050489 
z
" clip-path="url(#pc5590ce09e)" style="fill: #e58368"/>
   </g>
   <g id="patch_71">
    <path d="M 389.154878 377.987283 
L 434.148704 377.987283 
L 434.148704 311.895326 
L 389.154878 311.895326 
z
" clip-path="url(#pc5590ce09e)" style="fill: #f6f7f7"/>
   </g>
   <g id="patch_72">
    <path d="M 391.565262 295.372337 
L 431.738321 295.372337 
L 431.738321 229.28038 
L 391.565262 229.28038 
z
" clip-path="url(#pc5590ce09e)" style="fill: #f6f7f7"/>
   </g>
   <g id="patch_73">
    <path d="M 382.727189 212.757391 
L 440.576394 212.757391 
L 440.576394 146.665435 
L 382.727189 146.665435 
z
" clip-path="url(#pc5590ce09e)" style="fill: #f6f7f7"/>
   </g>
   <g id="patch_74">
    <path d="M 381.521997 130.142446 
L 441.781586 130.142446 
L 441.781586 64.050489 
L 381.521997 64.050489 
z
" clip-path="url(#pc5590ce09e)" style="fill: #f6f7f7"/>
   </g>
   <g id="patch_75">
    <path d="M 434.148704 377.987283 
L 466.287152 377.987283 
L 466.287152 311.895326 
L 434.148704 311.895326 
z
" clip-path="url(#pc5590ce09e)" style="fill: #68abd0"/>
   </g>
   <g id="patch_76">
    <path d="M 431.738321 295.372337 
L 458.52036 295.372337 
L 458.52036 229.28038 
L 431.738321 229.28038 
z
" clip-path="url(#pc5590ce09e)" style="fill: #68abd0"/>
   </g>
   <g id="patch_77">
    <path d="M 440.576394 212.757391 
L 472.714841 212.757391 
L 472.714841 146.665435 
L 440.576394 146.665435 
z
" clip-path="url(#pc5590ce09e)" style="fill: #68abd0"/>
   </g>
   <g id="patch_78">
    <path d="M 441.781586 130.142446 
L 475.259135 130.142446 
L 475.259135 64.050489 
L 441.781586 64.050489 
z
" clip-path="url(#pc5590ce09e)" style="fill: #68abd0"/>
   </g>
   <g id="patch_79">
    <path d="M 466.287152 377.987283 
L 466.287152 377.987283 
L 466.287152 311.895326 
L 466.287152 311.895326 
z
" clip-path="url(#pc5590ce09e)" style="fill: #053061"/>
   </g>
   <g id="patch_80">
    <path d="M 458.52036 295.372337 
L 465.21587 295.372337 
L 465.21587 229.28038 
L 458.52036 229.28038 
z
" clip-path="url(#pc5590ce09e)" style="fill: #053061"/>
   </g>
   <g id="patch_81">
    <path d="M 472.714841 212.757391 
L 479.142531 212.757391 
L 479.142531 146.665435 
L 472.714841 146.665435 
z
" clip-path="url(#pc5590ce09e)" style="fill: #053061"/>
   </g>
   <g id="patch_82">
    <path d="M 475.259135 130.142446 
L 508.736684 130.142446 
L 508.736684 64.050489 
L 475.259135 64.050489 
z
" clip-path="url(#pc5590ce09e)" style="fill: #053061"/>
   </g>
   <g id="matplotlib.axis_1">
    <g id="xtick_1">
     <g id="line2d_5">
      <defs>
       <path id="m4c99cd72f3" d="M 0 0 
L 0 3.5 
" style="stroke: #000000; stroke-width: 0.8"/>
      </defs>
      <g>
       <use xlink:href="#m4c99cd72f3" x="250.959555" y="427.55625" style="stroke: #000000; stroke-width: 0.8"/>
      </g>
     </g>
     <g id="text_1">
      <text style="font: 10px 'sans-serif'; text-anchor: middle" x="250.959555" y="441.729688" transform="rotate(-0, 250.959555, 441.729688)">100</text>
     </g>
    </g>
    <g id="xtick_2">
     <g id="line2d_6">
      <g>
       <use xlink:href="#m4c99cd72f3" x="267.028779" y="427.55625" style="stroke: #000000; stroke-width: 0.8"/>
      </g>
     </g>
     <g id="text_2">
      <text style="font: 10px 'sans-serif'; text-anchor: middle" x="267.028779" y="441.729688" transform="rotate(-0, 267.028779, 441.729688)">90</text>
     </g>
    </g>
    <g id="xtick_3">
     <g id="line2d_7">
      <g>
       <use xlink:href="#m4c99cd72f3" x="283.098002" y="427.55625" style="stroke: #000000; stroke-width: 0.8"/>
      </g>
     </g>
     <g id="text_3">
      <text style="font: 10px 'sans-serif'; text-anchor: middle" x="283.098002" y="441.729688" transform="rotate(-0, 283.098002, 441.729688)">80</text>
     </g>
    </g>
    <g id="xtick_4">
     <g id="line2d_8">
      <g>
       <use xlink:href="#m4c99cd72f3" x="299.167226" y="427.55625" style="stroke: #000000; stroke-width: 0.8"/>
      </g>
     </g>
     <g id="text_4">
      <text style="font: 10px 'sans-serif'; text-anchor: middle" x="299.167226" y="441.729688" transform="rotate(-0, 299.167226, 441.729688)">70</text>
     </g>
    </g>
    <g id="xtick_5">
     <g id="line2d_9">
      <g>
       <use xlink:href="#m4c99cd72f3" x="315.23645" y="427.55625" style="stroke: #000000; stroke-width: 0.8"/>
      </g>
     </g>
     <g id="text_5">
      <text style="font: 10px 'sans-serif'; text-anchor: middle" x="315.23645" y="441.729688" transform="rotate(-0, 315.23645, 441.729688)">60</text>
     </g>
    </g>
    <g id="xtick_6">
     <g id="line2d_10">
      <g>
       <use xlink:href="#m4c99cd72f3" x="331.305673" y="427.55625" style="stroke: #000000; stroke-width: 0.8"/>
      </g>
     </g>
     <g id="text_6">
      <text style="font: 10px 'sans-serif'; text-anchor: middle" x="331.305673" y="441.729688" transform="rotate(-0, 331.305673, 441.729688)">50</text>
     </g>
    </g>
    <g id="xtick_7">
     <g id="line2d_11">
      <g>
       <use xlink:href="#m4c99cd72f3" x="347.374897" y="427.55625" style="stroke: #000000; stroke-width: 0.8"/>
      </g>
     </g>
     <g id="text_7">
      <text style="font: 10px 'sans-serif'; text-anchor: middle" x="347.374897" y="441.729688" transform="rotate(-0, 347.374897, 441.729688)">40</text>
     </g>
    </g>
    <g id="xtick_8">
     <g id="line2d_12">
      <g>
       <use xlink:href="#m4c99cd72f3" x="363.44412" y="427.55625" style="stroke: #000000; stroke-width: 0.8"/>
      </g>
     </g>
     <g id="text_8">
      <text style="font: 10px 'sans-serif'; text-anchor: middle" x="363.44412" y="441.729688" transform="rotate(-0, 363.44412, 441.729688)">30</text>
     </g>
    </g>
    <g id="xtick_9">
     <g id="line2d_13">
      <g>
       <use xlink:href="#m4c99cd72f3" x="379.513344" y="427.55625" style="stroke: #000000; stroke-width: 0.8"/>
      </g>
     </g>
     <g id="text_9">
      <text style="font: 10px 'sans-serif'; text-anchor: middle" x="379.513344" y="441.729688" transform="rotate(-0, 379.513344, 441.729688)">20</text>
     </g>
    </g>
    <g id="xtick_10">
     <g id="line2d_14">
      <g>
       <use xlink:href="#m4c99cd72f3" x="395.582568" y="427.55625" style="stroke: #000000; stroke-width: 0.8"/>
      </g>
     </g>
     <g id="text_10">
      <text style="font: 10px 'sans-serif'; text-anchor: middle" x="395.582568" y="441.729688" transform="rotate(-0, 395.582568, 441.729688)">10</text>
     </g>
    </g>
    <g id="xtick_11">
     <g id="line2d_15">
      <g>
       <use xlink:href="#m4c99cd72f3" x="411.651791" y="427.55625" style="stroke: #000000; stroke-width: 0.8"/>
      </g>
     </g>
     <g id="text_11">
      <text style="font: 10px 'sans-serif'; text-anchor: middle" x="411.651791" y="441.729688" transform="rotate(-0, 411.651791, 441.729688)">0</text>
     </g>
    </g>
    <g id="xtick_12">
     <g id="line2d_16">
      <g>
       <use xlink:href="#m4c99cd72f3" x="427.721015" y="427.55625" style="stroke: #000000; stroke-width: 0.8"/>
      </g>
     </g>
     <g id="text_12">
      <text style="font: 10px 'sans-serif'; text-anchor: middle" x="427.721015" y="441.729688" transform="rotate(-0, 427.721015, 441.729688)">10</text>
     </g>
    </g>
    <g id="xtick_13">
     <g id="line2d_17">
      <g>
       <use xlink:href="#m4c99cd72f3" x="443.790239" y="427.55625" style="stroke: #000000; stroke-width: 0.8"/>
      </g>
     </g>
     <g id="text_13">
      <text style="font: 10px 'sans-serif'; text-anchor: middle" x="443.790239" y="441.729688" transform="rotate(-0, 443.790239, 441.729688)">20</text>
     </g>
    </g>
    <g id="xtick_14">
     <g id="line2d_18">
      <g>
       <use xlink:href="#m4c99cd72f3" x="459.859462" y="427.55625" style="stroke: #000000; stroke-width: 0.8"/>
      </g>
     </g>
     <g id="text_14">
      <text style="font: 10px 'sans-serif'; text-anchor: middle" x="459.859462" y="441.729688" transform="rotate(-0, 459.859462, 441.729688)">30</text>
     </g>
    </g>
    <g id="xtick_15">
     <g id="line2d_19">
      <g>
       <use xlink:href="#m4c99cd72f3" x="475.928686" y="427.55625" style="stroke: #000000; stroke-width: 0.8"/>
      </g>
     </g>
     <g id="text_15">
      <text style="font: 10px 'sans-serif'; text-anchor: middle" x="475.928686" y="441.729688" transform="rotate(-0, 475.928686, 441.729688)">40</text>
     </g>
    </g>
    <g id="xtick_16">
     <g id="line2d_20">
      <g>
       <use xlink:href="#m4c99cd72f3" x="491.99791" y="427.55625" style="stroke: #000000; stroke-width: 0.8"/>
      </g>
     </g>
     <g id="text_16">
      <text style="font: 10px 'sans-serif'; text-anchor: middle" x="491.99791" y="441.729688" transform="rotate(-0, 491.99791, 441.729688)">50</text>
     </g>
    </g>
    <g id="xtick_17">
     <g id="line2d_21">
      <g>
       <use xlink:href="#m4c99cd72f3" x="508.067133" y="427.55625" style="stroke: #000000; stroke-width: 0.8"/>
      </g>
     </g>
     <g id="text_17">
      <text style="font: 10px 'sans-serif'; text-anchor: middle" x="508.067133" y="441.729688" transform="rotate(-0, 508.067133, 441.729688)">60</text>
     </g>
    </g>
    <g id="xtick_18">
     <g id="line2d_22">
      <g>
       <use xlink:href="#m4c99cd72f3" x="524.136357" y="427.55625" style="stroke: #000000; stroke-width: 0.8"/>
      </g>
     </g>
     <g id="text_18">
      <text style="font: 10px 'sans-serif'; text-anchor: middle" x="524.136357" y="441.729688" transform="rotate(-0, 524.136357, 441.729688)">70</text>
     </g>
    </g>
    <g id="xtick_19">
     <g id="line2d_23">
      <g>
       <use xlink:href="#m4c99cd72f3" x="540.20558" y="427.55625" style="stroke: #000000; stroke-width: 0.8"/>
      </g>
     </g>
     <g id="text_19">
      <text style="font: 10px 'sans-serif'; text-anchor: middle" x="540.20558" y="441.729688" transform="rotate(-0, 540.20558, 441.729688)">80</text>
     </g>
    </g>
    <g id="xtick_20">
     <g id="line2d_24">
      <g>
       <use xlink:href="#m4c99cd72f3" x="556.274804" y="427.55625" style="stroke: #000000; stroke-width: 0.8"/>
      </g>
     </g>
     <g id="text_20">
      <text style="font: 10px 'sans-serif'; text-anchor: middle" x="556.274804" y="441.729688" transform="rotate(-0, 556.274804, 441.729688)">90</text>
     </g>
    </g>
    <g id="xtick_21">
     <g id="line2d_25">
      <g>
       <use xlink:href="#m4c99cd72f3" x="572.344028" y="427.55625" style="stroke: #000000; stroke-width: 0.8"/>
      </g>
     </g>
     <g id="text_21">
      <text style="font: 10px 'sans-serif'; text-anchor: middle" x="572.344028" y="441.729688" transform="rotate(-0, 572.344028, 441.729688)">100</text>
     </g>
    </g>
    <g id="text_22">
     <text style="font: 10px 'sans-serif'; text-anchor: middle" x="411.250061" y="454.9875" transform="rotate(-0, 411.250061, 454.9875)">Percentage</text>
    </g>
   </g>
   <g id="matplotlib.axis_2">
    <g id="ytick_1">
     <g id="line2d_26">
      <defs>
       <path id="m8e343aef83" d="M 0 0 
L -3.5 0 
" style="stroke: #000000; stroke-width: 0.8"/>
      </defs>
      <g>
       <use xlink:href="#m8e343aef83" x="250.156094" y="344.941304" style="stroke: #000000; stroke-width: 0.8"/>
      </g>
     </g>
     <g id="text_23">
      <text style="font: 11px 'sans-serif'" transform="translate(71.980625 343.818961)">progRSE1. It is likely that I will gain</text>
      <text style="font: 11px 'sans-serif'" transform="translate(67.700938 355.752586)">a promotion within my current group</text>
     </g>
    </g>
    <g id="ytick_2">
     <g id="line2d_27">
      <g>
       <use xlink:href="#m8e343aef83" x="250.156094" y="262.326359" style="stroke: #000000; stroke-width: 0.8"/>
      </g>
     </g>
     <g id="text_24">
      <text style="font: 11px 'sans-serif'" transform="translate(32.837812 261.204015)">progRSE2. The process I have to complete</text>
      <text style="font: 11px 'sans-serif'" transform="translate(10.8 273.13764)">to gain a promotion is clear and understandable</text>
     </g>
    </g>
    <g id="ytick_3">
     <g id="line2d_28">
      <g>
       <use xlink:href="#m8e343aef83" x="250.156094" y="179.711413" style="stroke: #000000; stroke-width: 0.8"/>
      </g>
     </g>
     <g id="text_25">
      <text style="font: 11px 'sans-serif'" transform="translate(11.441094 178.589069)">progRSE3. There are many opportunities within</text>
      <text style="font: 11px 'sans-serif'" transform="translate(131.885938 190.522694)">my chosen career plan</text>
     </g>
    </g>
    <g id="ytick_4">
     <g id="line2d_29">
      <g>
       <use xlink:href="#m8e343aef83" x="250.156094" y="97.096467" style="stroke: #000000; stroke-width: 0.8"/>
      </g>
     </g>
     <g id="text_26">
      <text style="font: 11px 'sans-serif'" transform="translate(37.743125 89.799342)">progRSE5. It is likely that my next position</text>
      <text style="font: 11px 'sans-serif'" transform="translate(47.509062 101.959842)">will be an Research Software Engineer /</text>
      <text style="font: 11px 'sans-serif'" transform="translate(75.029687 114.120342)">Research Software Developer role</text>
     </g>
    </g>
   </g>
   <g id="patch_83">
    <path d="M 250.156094 427.55625 
L 572.344028 427.55625 
" style="fill: none; stroke: #000000; stroke-width: 0.8; stroke-linejoin: miter; stroke-linecap: square"/>
   </g>
   <g id="text_27">
    <text style="font: 10px 'sans-serif'; text-anchor: middle" x="324.877984" y="344.941304" transform="rotate(-0, 324.877984, 344.941304)">24</text>
   </g>
   <g id="text_28">
    <text style="font: 10px 'sans-serif'; text-anchor: middle" x="324.610163" y="262.326359" transform="rotate(-0, 324.610163, 262.326359)">25</text>
   </g>
   <g id="text_29">
    <text style="font: 10px 'sans-serif'; text-anchor: middle" x="328.091828" y="179.711413" transform="rotate(-0, 328.091828, 179.711413)">12</text>
   </g>
   <g id="text_30">
    <text style="font: 10px 'sans-serif'; text-anchor: middle" x="358.087713" y="97.096467" transform="rotate(-0, 358.087713, 97.096467)">12</text>
   </g>
   <g id="text_31">
    <text style="font: 10px 'sans-serif'; text-anchor: middle" x="366.657965" y="344.941304" transform="rotate(-0, 366.657965, 344.941304)">28</text>
   </g>
   <g id="text_32">
    <text style="font: 10px 'sans-serif'; text-anchor: middle" x="368.130977" y="262.326359" transform="rotate(-0, 368.130977, 262.326359)">29</text>
   </g>
   <g id="text_33">
    <text style="font: 10px 'sans-serif'; text-anchor: middle" x="360.230276" y="179.711413" transform="rotate(-0, 360.230276, 179.711413)">28</text>
   </g>
   <g id="text_34">
    <text style="font: 10px 'sans-serif'; text-anchor: middle" x="374.826487" y="97.096467" transform="rotate(-0, 374.826487, 97.096467)">8</text>
   </g>
   <g id="text_35">
    <text style="font: 10px 'sans-serif'; text-anchor: middle" x="411.651791" y="344.941304" transform="rotate(-0, 411.651791, 344.941304)">28</text>
   </g>
   <g id="text_36">
    <text style="font: 10px 'sans-serif'; text-anchor: middle" x="411.651791" y="262.326359" transform="rotate(-0, 411.651791, 262.326359)">25</text>
   </g>
   <g id="text_37">
    <text style="font: 10px 'sans-serif'; text-anchor: middle" x="411.651791" y="179.711413" transform="rotate(-0, 411.651791, 179.711413)">36</text>
   </g>
   <g id="text_38">
    <text style="font: 10px 'sans-serif'; text-anchor: middle" x="411.651791" y="97.096467" transform="rotate(-0, 411.651791, 97.096467)">38</text>
   </g>
   <g id="text_39">
    <text style="font: 10px 'sans-serif'; text-anchor: middle" x="450.217928" y="344.941304" transform="rotate(-0, 450.217928, 344.941304)">20</text>
   </g>
   <g id="text_40">
    <text style="font: 10px 'sans-serif'; text-anchor: middle" x="445.129341" y="262.326359" transform="rotate(-0, 445.129341, 262.326359)">17</text>
   </g>
   <g id="text_41">
    <text style="font: 10px 'sans-serif'; text-anchor: middle" x="456.645618" y="179.711413" transform="rotate(-0, 456.645618, 179.711413)">20</text>
   </g>
   <g id="text_42">
    <text style="font: 10px 'sans-serif'; text-anchor: middle" x="458.52036" y="97.096467" transform="rotate(-0, 458.52036, 97.096467)">21</text>
   </g>
   <g id="text_43">
    <text style="font: 10px 'sans-serif'; text-anchor: middle" x="491.99791" y="97.096467" transform="rotate(-0, 491.99791, 97.096467)">21</text>
   </g>
   <g id="text_44">
    <text style="font: 10px 'sans-serif'; text-anchor: middle" x="324.877984" y="344.941304" transform="rotate(-0, 324.877984, 344.941304)">24</text>
   </g>
   <g id="text_45">
    <text style="font: 10px 'sans-serif'; text-anchor: middle" x="324.610163" y="262.326359" transform="rotate(-0, 324.610163, 262.326359)">25</text>
   </g>
   <g id="text_46">
    <text style="font: 10px 'sans-serif'; text-anchor: middle" x="328.091828" y="179.711413" transform="rotate(-0, 328.091828, 179.711413)">12</text>
   </g>
   <g id="text_47">
    <text style="font: 10px 'sans-serif'; text-anchor: middle" x="358.087713" y="97.096467" transform="rotate(-0, 358.087713, 97.096467)">12</text>
   </g>
   <g id="text_48">
    <text style="font: 10px 'sans-serif'; text-anchor: middle" x="366.657965" y="344.941304" transform="rotate(-0, 366.657965, 344.941304)">28</text>
   </g>
   <g id="text_49">
    <text style="font: 10px 'sans-serif'; text-anchor: middle" x="368.130977" y="262.326359" transform="rotate(-0, 368.130977, 262.326359)">29</text>
   </g>
   <g id="text_50">
    <text style="font: 10px 'sans-serif'; text-anchor: middle" x="360.230276" y="179.711413" transform="rotate(-0, 360.230276, 179.711413)">28</text>
   </g>
   <g id="text_51">
    <text style="font: 10px 'sans-serif'; text-anchor: middle" x="374.826487" y="97.096467" transform="rotate(-0, 374.826487, 97.096467)">8</text>
   </g>
   <g id="text_52">
    <text style="font: 10px 'sans-serif'; text-anchor: middle" x="411.651791" y="344.941304" transform="rotate(-0, 411.651791, 344.941304)">28</text>
   </g>
   <g id="text_53">
    <text style="font: 10px 'sans-serif'; text-anchor: middle" x="411.651791" y="262.326359" transform="rotate(-0, 411.651791, 262.326359)">25</text>
   </g>
   <g id="text_54">
    <text style="font: 10px 'sans-serif'; text-anchor: middle" x="411.651791" y="179.711413" transform="rotate(-0, 411.651791, 179.711413)">36</text>
   </g>
   <g id="text_55">
    <text style="font: 10px 'sans-serif'; text-anchor: middle" x="411.651791" y="97.096467" transform="rotate(-0, 411.651791, 97.096467)">38</text>
   </g>
   <g id="text_56">
    <text style="font: 10px 'sans-serif'; text-anchor: middle" x="450.217928" y="344.941304" transform="rotate(-0, 450.217928, 344.941304)">20</text>
   </g>
   <g id="text_57">
    <text style="font: 10px 'sans-serif'; text-anchor: middle" x="445.129341" y="262.326359" transform="rotate(-0, 445.129341, 262.326359)">17</text>
   </g>
   <g id="text_58">
    <text style="font: 10px 'sans-serif'; text-anchor: middle" x="456.645618" y="179.711413" transform="rotate(-0, 456.645618, 179.711413)">20</text>
   </g>
   <g id="text_59">
    <text style="font: 10px 'sans-serif'; text-anchor: middle" x="458.52036" y="97.096467" transform="rotate(-0, 458.52036, 97.096467)">21</text>
   </g>
   <g id="text_60">
    <text style="font: 10px 'sans-serif'; text-anchor: middle" x="491.99791" y="97.096467" transform="rotate(-0, 491.99791, 97.096467)">21</text>
   </g>
   <g id="text_61">
    <text style="font: 10px 'sans-serif'; text-anchor: middle" x="324.877984" y="344.941304" transform="rotate(-0, 324.877984, 344.941304)">24</text>
   </g>
   <g id="text_62">
    <text style="font: 10px 'sans-serif'; text-anchor: middle" x="324.610163" y="262.326359" transform="rotate(-0, 324.610163, 262.326359)">25</text>
   </g>
   <g id="text_63">
    <text style="font: 10px 'sans-serif'; text-anchor: middle" x="328.091828" y="179.711413" transform="rotate(-0, 328.091828, 179.711413)">12</text>
   </g>
   <g id="text_64">
    <text style="font: 10px 'sans-serif'; text-anchor: middle" x="358.087713" y="97.096467" transform="rotate(-0, 358.087713, 97.096467)">12</text>
   </g>
   <g id="text_65">
    <text style="font: 10px 'sans-serif'; text-anchor: middle" x="366.657965" y="344.941304" transform="rotate(-0, 366.657965, 344.941304)">28</text>
   </g>
   <g id="text_66">
    <text style="font: 10px 'sans-serif'; text-anchor: middle" x="368.130977" y="262.326359" transform="rotate(-0, 368.130977, 262.326359)">29</text>
   </g>
   <g id="text_67">
    <text style="font: 10px 'sans-serif'; text-anchor: middle" x="360.230276" y="179.711413" transform="rotate(-0, 360.230276, 179.711413)">28</text>
   </g>
   <g id="text_68">
    <text style="font: 10px 'sans-serif'; text-anchor: middle" x="374.826487" y="97.096467" transform="rotate(-0, 374.826487, 97.096467)">8</text>
   </g>
   <g id="text_69">
    <text style="font: 10px 'sans-serif'; text-anchor: middle" x="411.651791" y="344.941304" transform="rotate(-0, 411.651791, 344.941304)">28</text>
   </g>
   <g id="text_70">
    <text style="font: 10px 'sans-serif'; text-anchor: middle" x="411.651791" y="262.326359" transform="rotate(-0, 411.651791, 262.326359)">25</text>
   </g>
   <g id="text_71">
    <text style="font: 10px 'sans-serif'; text-anchor: middle" x="411.651791" y="179.711413" transform="rotate(-0, 411.651791, 179.711413)">36</text>
   </g>
   <g id="text_72">
    <text style="font: 10px 'sans-serif'; text-anchor: middle" x="411.651791" y="97.096467" transform="rotate(-0, 411.651791, 97.096467)">38</text>
   </g>
   <g id="text_73">
    <text style="font: 10px 'sans-serif'; text-anchor: middle" x="450.217928" y="344.941304" transform="rotate(-0, 450.217928, 344.941304)">20</text>
   </g>
   <g id="text_74">
    <text style="font: 10px 'sans-serif'; text-anchor: middle" x="445.129341" y="262.326359" transform="rotate(-0, 445.129341, 262.326359)">17</text>
   </g>
   <g id="text_75">
    <text style="font: 10px 'sans-serif'; text-anchor: middle" x="456.645618" y="179.711413" transform="rotate(-0, 456.645618, 179.711413)">20</text>
   </g>
   <g id="text_76">
    <text style="font: 10px 'sans-serif'; text-anchor: middle" x="458.52036" y="97.096467" transform="rotate(-0, 458.52036, 97.096467)">21</text>
   </g>
   <g id="text_77">
    <text style="font: 10px 'sans-serif'; text-anchor: middle" x="491.99791" y="97.096467" transform="rotate(-0, 491.99791, 97.096467)">21</text>
   </g>
   <g id="text_78">
    <text style="font: 10px 'sans-serif'; text-anchor: middle" x="324.877984" y="344.941304" transform="rotate(-0, 324.877984, 344.941304)">24</text>
   </g>
   <g id="text_79">
    <text style="font: 10px 'sans-serif'; text-anchor: middle" x="324.610163" y="262.326359" transform="rotate(-0, 324.610163, 262.326359)">25</text>
   </g>
   <g id="text_80">
    <text style="font: 10px 'sans-serif'; text-anchor: middle" x="328.091828" y="179.711413" transform="rotate(-0, 328.091828, 179.711413)">12</text>
   </g>
   <g id="text_81">
    <text style="font: 10px 'sans-serif'; text-anchor: middle" x="358.087713" y="97.096467" transform="rotate(-0, 358.087713, 97.096467)">12</text>
   </g>
   <g id="text_82">
    <text style="font: 10px 'sans-serif'; text-anchor: middle" x="366.657965" y="344.941304" transform="rotate(-0, 366.657965, 344.941304)">28</text>
   </g>
   <g id="text_83">
    <text style="font: 10px 'sans-serif'; text-anchor: middle" x="368.130977" y="262.326359" transform="rotate(-0, 368.130977, 262.326359)">29</text>
   </g>
   <g id="text_84">
    <text style="font: 10px 'sans-serif'; text-anchor: middle" x="360.230276" y="179.711413" transform="rotate(-0, 360.230276, 179.711413)">28</text>
   </g>
   <g id="text_85">
    <text style="font: 10px 'sans-serif'; text-anchor: middle" x="374.826487" y="97.096467" transform="rotate(-0, 374.826487, 97.096467)">8</text>
   </g>
   <g id="text_86">
    <text style="font: 10px 'sans-serif'; text-anchor: middle" x="411.651791" y="344.941304" transform="rotate(-0, 411.651791, 344.941304)">28</text>
   </g>
   <g id="text_87">
    <text style="font: 10px 'sans-serif'; text-anchor: middle" x="411.651791" y="262.326359" transform="rotate(-0, 411.651791, 262.326359)">25</text>
   </g>
   <g id="text_88">
    <text style="font: 10px 'sans-serif'; text-anchor: middle" x="411.651791" y="179.711413" transform="rotate(-0, 411.651791, 179.711413)">36</text>
   </g>
   <g id="text_89">
    <text style="font: 10px 'sans-serif'; text-anchor: middle" x="411.651791" y="97.096467" transform="rotate(-0, 411.651791, 97.096467)">38</text>
   </g>
   <g id="text_90">
    <text style="font: 10px 'sans-serif'; text-anchor: middle" x="450.217928" y="344.941304" transform="rotate(-0, 450.217928, 344.941304)">20</text>
   </g>
   <g id="text_91">
    <text style="font: 10px 'sans-serif'; text-anchor: middle" x="445.129341" y="262.326359" transform="rotate(-0, 445.129341, 262.326359)">17</text>
   </g>
   <g id="text_92">
    <text style="font: 10px 'sans-serif'; text-anchor: middle" x="456.645618" y="179.711413" transform="rotate(-0, 456.645618, 179.711413)">20</text>
   </g>
   <g id="text_93">
    <text style="font: 10px 'sans-serif'; text-anchor: middle" x="458.52036" y="97.096467" transform="rotate(-0, 458.52036, 97.096467)">21</text>
   </g>
   <g id="text_94">
    <text style="font: 10px 'sans-serif'; text-anchor: middle" x="491.99791" y="97.096467" transform="rotate(-0, 491.99791, 97.096467)">21</text>
   </g>
   <g id="text_95">
    <text style="font: 12px 'sans-serif'; text-anchor: middle" x="411.250061" y="41.5275" transform="rotate(-0, 411.250061, 41.5275)">Progression in the current role</text>
   </g>
   <g id="legend_1">
    <g id="patch_84">
     <path d="M 257.156094 422.55625 
L 565.344028 422.55625 
Q 567.344028 422.55625 567.344028 420.55625 
L 567.344028 385.629062 
Q 567.344028 383.629062 565.344028 383.629062 
L 257.156094 383.629062 
Q 255.156094 383.629062 255.156094 385.629062 
L 255.156094 420.55625 
Q 255.156094 422.55625 257.156094 422.55625 
z
" style="fill: #ffffff; opacity: 0.8; stroke: #cccccc; stroke-linejoin: miter"/>
    </g>
    <g id="patch_85">
     <path d="M 259.156094 406.679375 
L 279.156094 406.679375 
L 279.156094 399.679375 
L 259.156094 399.679375 
z
" style="fill: #67001f"/>
    </g>
    <g id="text_96">
     <text style="font: 10px 'sans-serif'" transform="translate(287.156094 400.246406)">Strongly</text>
     <text style="font: 10px 'sans-serif'" transform="translate(287.156094 411.095156)">disagree</text>
    </g>
    <g id="patch_86">
     <path d="M 318.618312 406.679375 
L 338.618312 406.679375 
L 338.618312 399.679375 
L 318.618312 399.679375 
z
" style="fill: #e58368"/>
    </g>
    <g id="text_97">
     <text style="font: 10px 'sans-serif'; text-anchor: start" x="346.618312" y="406.679375" transform="rotate(-0, 346.618312, 406.679375)">Disagree</text>
    </g>
    <g id="patch_87">
     <path d="M 379.741467 406.679375 
L 399.741467 406.679375 
L 399.741467 399.679375 
L 379.741467 399.679375 
z
" style="fill: #f6f7f7"/>
    </g>
    <g id="text_98">
     <text style="font: 10px 'sans-serif'" transform="translate(407.741467 394.8025)">Neither</text>
     <text style="font: 10px 'sans-serif'" transform="translate(407.741467 405.495)">agree</text>
     <text style="font: 10px 'sans-serif'" transform="translate(407.741467 416.34375)">or disagree</text>
    </g>
    <g id="patch_88">
     <path d="M 450.872435 406.679375 
L 470.872435 406.679375 
L 470.872435 399.679375 
L 450.872435 399.679375 
z
" style="fill: #68abd0"/>
    </g>
    <g id="text_99">
     <text style="font: 10px 'sans-serif'; text-anchor: start" x="478.872435" y="406.679375" transform="rotate(-0, 478.872435, 406.679375)">Agree</text>
    </g>
    <g id="patch_89">
     <path d="M 498.661215 406.679375 
L 518.661215 406.679375 
L 518.661215 399.679375 
L 498.661215 399.679375 
z
" style="fill: #053061"/>
    </g>
    <g id="text_100">
     <text style="font: 10px 'sans-serif'" transform="translate(526.661215 400.260469)">Strongly</text>
     <text style="font: 10px 'sans-serif'" transform="translate(526.661215 411.081094)">Agree</text>
    </g>
   </g>
  </g>
  <g id="text_101">
   <text style="font: 12px 'sans-serif'; text-anchor: middle" x="324" y="17.99625" transform="rotate(-0, 324, 17.99625)">Progression in the current role: New Zealand</text>
  </g>
 </g>
 <defs>
  <clipPath id="pc5590ce09e">
   <rect x="250.156094" y="47.5275" width="322.187934" height="380.02875"/>
  </clipPath>
 </defs>
</svg>
