<?xml version="1.0" encoding="utf-8" standalone="no"?>
<!DOCTYPE svg PUBLIC "-//W3C//DTD SVG 1.1//EN"
  "http://www.w3.org/Graphics/SVG/1.1/DTD/svg11.dtd">
<svg xmlns:xlink="http://www.w3.org/1999/xlink" width="648pt" height="288pt" viewBox="0 0 648 288" xmlns="http://www.w3.org/2000/svg" version="1.1">
 <metadata>
  <rdf:RDF xmlns:dc="http://purl.org/dc/elements/1.1/" xmlns:cc="http://creativecommons.org/ns#" xmlns:rdf="http://www.w3.org/1999/02/22-rdf-syntax-ns#">
   <cc:Work>
    <dc:type rdf:resource="http://purl.org/dc/dcmitype/StillImage"/>
    <dc:date>2022-03-18T15:58:50.771348</dc:date>
    <dc:format>image/svg+xml</dc:format>
    <dc:creator>
     <cc:Agent>
      <dc:title>Matplotlib v3.5.1, https://matplotlib.org/</dc:title>
     </cc:Agent>
    </dc:creator>
   </cc:Work>
  </rdf:RDF>
 </metadata>
 <defs>
  <style type="text/css">*{stroke-linejoin: round; stroke-linecap: butt}</style>
 </defs>
 <g id="figure_1">
  <g id="patch_1">
   <path d="M 0 288 
L 648 288 
L 648 0 
L 0 0 
z
" style="fill: #ffffff"/>
  </g>
  <g id="axes_1">
   <g id="patch_2">
    <path d="M 164.14 246.04 
L 630.169254 246.04 
L 630.169254 25.44 
L 164.14 25.44 
z
" style="fill: #ffffff"/>
   </g>
   <g id="line2d_1">
    <path d="M 397.154627 246.04 
L 397.154627 25.44 
" clip-path="url(#pf96e22c8e6)" style="fill: none; stroke-dasharray: 5.55,2.4; stroke-dashoffset: 0; stroke: #000000; stroke-opacity: 0.5; stroke-width: 1.5"/>
   </g>
   <g id="line2d_2">
    <path d="M 397.154627 246.04 
L 397.154627 25.44 
" clip-path="url(#pf96e22c8e6)" style="fill: none; stroke-dasharray: 5.55,2.4; stroke-dashoffset: 0; stroke: #000000; stroke-opacity: 0.5; stroke-width: 1.5"/>
   </g>
   <g id="line2d_3">
    <path d="M 397.154627 246.04 
L 397.154627 25.44 
" clip-path="url(#pf96e22c8e6)" style="fill: none; stroke-dasharray: 5.55,2.4; stroke-dashoffset: 0; stroke: #000000; stroke-opacity: 0.5; stroke-width: 1.5"/>
   </g>
   <g id="line2d_4">
    <path d="M 397.154627 246.04 
L 397.154627 25.44 
" clip-path="url(#pf96e22c8e6)" style="fill: none; stroke-dasharray: 5.55,2.4; stroke-dashoffset: 0; stroke: #000000; stroke-opacity: 0.5; stroke-width: 1.5"/>
   </g>
   <g id="patch_3">
    <path d="M 165.299277 236.012727 
L 165.299277 236.012727 
L 165.299277 193.792632 
L 165.299277 193.792632 
z
" clip-path="url(#pf96e22c8e6)" style="fill: #67001f"/>
   </g>
   <g id="patch_4">
    <path d="M 165.299277 183.237608 
L 165.299277 183.237608 
L 165.299277 141.017512 
L 165.299277 141.017512 
z
" clip-path="url(#pf96e22c8e6)" style="fill: #67001f"/>
   </g>
   <g id="patch_5">
    <path d="M 397.154627 130.462488 
L 397.154627 130.462488 
L 397.154627 88.242392 
L 397.154627 88.242392 
z
" clip-path="url(#pf96e22c8e6)" style="fill: #67001f"/>
   </g>
   <g id="patch_6">
    <path d="M 397.154627 77.687368 
L 397.154627 77.687368 
L 397.154627 35.467273 
L 397.154627 35.467273 
z
" clip-path="url(#pf96e22c8e6)" style="fill: #67001f"/>
   </g>
   <g id="patch_7">
    <path d="M 165.299277 236.012727 
L 397.154627 236.012727 
L 397.154627 193.792632 
L 165.299277 193.792632 
z
" clip-path="url(#pf96e22c8e6)" style="fill: #e58368"/>
   </g>
   <g id="patch_8">
    <path d="M 165.299277 183.237608 
L 397.154627 183.237608 
L 397.154627 141.017512 
L 165.299277 141.017512 
z
" clip-path="url(#pf96e22c8e6)" style="fill: #e58368"/>
   </g>
   <g id="patch_9">
    <path d="M 397.154627 130.462488 
L 397.154627 130.462488 
L 397.154627 88.242392 
L 397.154627 88.242392 
z
" clip-path="url(#pf96e22c8e6)" style="fill: #e58368"/>
   </g>
   <g id="patch_10">
    <path d="M 397.154627 77.687368 
L 397.154627 77.687368 
L 397.154627 35.467273 
L 397.154627 35.467273 
z
" clip-path="url(#pf96e22c8e6)" style="fill: #e58368"/>
   </g>
   <g id="patch_11">
    <path d="M 397.154627 236.012727 
L 397.154627 236.012727 
L 397.154627 193.792632 
L 397.154627 193.792632 
z
" clip-path="url(#pf96e22c8e6)" style="fill: #f6f7f7"/>
   </g>
   <g id="patch_12">
    <path d="M 397.154627 183.237608 
L 397.154627 183.237608 
L 397.154627 141.017512 
L 397.154627 141.017512 
z
" clip-path="url(#pf96e22c8e6)" style="fill: #f6f7f7"/>
   </g>
   <g id="patch_13">
    <path d="M 397.154627 130.462488 
L 397.154627 130.462488 
L 397.154627 88.242392 
L 397.154627 88.242392 
z
" clip-path="url(#pf96e22c8e6)" style="fill: #f6f7f7"/>
   </g>
   <g id="patch_14">
    <path d="M 397.154627 77.687368 
L 397.154627 77.687368 
L 397.154627 35.467273 
L 397.154627 35.467273 
z
" clip-path="url(#pf96e22c8e6)" style="fill: #f6f7f7"/>
   </g>
   <g id="patch_15">
    <path d="M 397.154627 236.012727 
L 397.154627 236.012727 
L 397.154627 193.792632 
L 397.154627 193.792632 
z
" clip-path="url(#pf96e22c8e6)" style="fill: #68abd0"/>
   </g>
   <g id="patch_16">
    <path d="M 397.154627 183.237608 
L 397.154627 183.237608 
L 397.154627 141.017512 
L 397.154627 141.017512 
z
" clip-path="url(#pf96e22c8e6)" style="fill: #68abd0"/>
   </g>
   <g id="patch_17">
    <path d="M 397.154627 130.462488 
L 629.009977 130.462488 
L 629.009977 88.242392 
L 397.154627 88.242392 
z
" clip-path="url(#pf96e22c8e6)" style="fill: #68abd0"/>
   </g>
   <g id="patch_18">
    <path d="M 397.154627 77.687368 
L 629.009977 77.687368 
L 629.009977 35.467273 
L 397.154627 35.467273 
z
" clip-path="url(#pf96e22c8e6)" style="fill: #68abd0"/>
   </g>
   <g id="patch_19">
    <path d="M 397.154627 236.012727 
L 397.154627 236.012727 
L 397.154627 193.792632 
L 397.154627 193.792632 
z
" clip-path="url(#pf96e22c8e6)" style="fill: #053061"/>
   </g>
   <g id="patch_20">
    <path d="M 397.154627 183.237608 
L 397.154627 183.237608 
L 397.154627 141.017512 
L 397.154627 141.017512 
z
" clip-path="url(#pf96e22c8e6)" style="fill: #053061"/>
   </g>
   <g id="patch_21">
    <path d="M 629.009977 130.462488 
L 629.009977 130.462488 
L 629.009977 88.242392 
L 629.009977 88.242392 
z
" clip-path="url(#pf96e22c8e6)" style="fill: #053061"/>
   </g>
   <g id="patch_22">
    <path d="M 629.009977 77.687368 
L 629.009977 77.687368 
L 629.009977 35.467273 
L 629.009977 35.467273 
z
" clip-path="url(#pf96e22c8e6)" style="fill: #053061"/>
   </g>
   <g id="patch_23">
    <path d="M 165.299277 236.012727 
L 165.299277 236.012727 
L 165.299277 193.792632 
L 165.299277 193.792632 
z
" clip-path="url(#pf96e22c8e6)" style="fill: #67001f"/>
   </g>
   <g id="patch_24">
    <path d="M 165.299277 183.237608 
L 165.299277 183.237608 
L 165.299277 141.017512 
L 165.299277 141.017512 
z
" clip-path="url(#pf96e22c8e6)" style="fill: #67001f"/>
   </g>
   <g id="patch_25">
    <path d="M 397.154627 130.462488 
L 397.154627 130.462488 
L 397.154627 88.242392 
L 397.154627 88.242392 
z
" clip-path="url(#pf96e22c8e6)" style="fill: #67001f"/>
   </g>
   <g id="patch_26">
    <path d="M 397.154627 77.687368 
L 397.154627 77.687368 
L 397.154627 35.467273 
L 397.154627 35.467273 
z
" clip-path="url(#pf96e22c8e6)" style="fill: #67001f"/>
   </g>
   <g id="patch_27">
    <path d="M 165.299277 236.012727 
L 397.154627 236.012727 
L 397.154627 193.792632 
L 165.299277 193.792632 
z
" clip-path="url(#pf96e22c8e6)" style="fill: #e58368"/>
   </g>
   <g id="patch_28">
    <path d="M 165.299277 183.237608 
L 397.154627 183.237608 
L 397.154627 141.017512 
L 165.299277 141.017512 
z
" clip-path="url(#pf96e22c8e6)" style="fill: #e58368"/>
   </g>
   <g id="patch_29">
    <path d="M 397.154627 130.462488 
L 397.154627 130.462488 
L 397.154627 88.242392 
L 397.154627 88.242392 
z
" clip-path="url(#pf96e22c8e6)" style="fill: #e58368"/>
   </g>
   <g id="patch_30">
    <path d="M 397.154627 77.687368 
L 397.154627 77.687368 
L 397.154627 35.467273 
L 397.154627 35.467273 
z
" clip-path="url(#pf96e22c8e6)" style="fill: #e58368"/>
   </g>
   <g id="patch_31">
    <path d="M 397.154627 236.012727 
L 397.154627 236.012727 
L 397.154627 193.792632 
L 397.154627 193.792632 
z
" clip-path="url(#pf96e22c8e6)" style="fill: #f6f7f7"/>
   </g>
   <g id="patch_32">
    <path d="M 397.154627 183.237608 
L 397.154627 183.237608 
L 397.154627 141.017512 
L 397.154627 141.017512 
z
" clip-path="url(#pf96e22c8e6)" style="fill: #f6f7f7"/>
   </g>
   <g id="patch_33">
    <path d="M 397.154627 130.462488 
L 397.154627 130.462488 
L 397.154627 88.242392 
L 397.154627 88.242392 
z
" clip-path="url(#pf96e22c8e6)" style="fill: #f6f7f7"/>
   </g>
   <g id="patch_34">
    <path d="M 397.154627 77.687368 
L 397.154627 77.687368 
L 397.154627 35.467273 
L 397.154627 35.467273 
z
" clip-path="url(#pf96e22c8e6)" style="fill: #f6f7f7"/>
   </g>
   <g id="patch_35">
    <path d="M 397.154627 236.012727 
L 397.154627 236.012727 
L 397.154627 193.792632 
L 397.154627 193.792632 
z
" clip-path="url(#pf96e22c8e6)" style="fill: #68abd0"/>
   </g>
   <g id="patch_36">
    <path d="M 397.154627 183.237608 
L 397.154627 183.237608 
L 397.154627 141.017512 
L 397.154627 141.017512 
z
" clip-path="url(#pf96e22c8e6)" style="fill: #68abd0"/>
   </g>
   <g id="patch_37">
    <path d="M 397.154627 130.462488 
L 629.009977 130.462488 
L 629.009977 88.242392 
L 397.154627 88.242392 
z
" clip-path="url(#pf96e22c8e6)" style="fill: #68abd0"/>
   </g>
   <g id="patch_38">
    <path d="M 397.154627 77.687368 
L 629.009977 77.687368 
L 629.009977 35.467273 
L 397.154627 35.467273 
z
" clip-path="url(#pf96e22c8e6)" style="fill: #68abd0"/>
   </g>
   <g id="patch_39">
    <path d="M 397.154627 236.012727 
L 397.154627 236.012727 
L 397.154627 193.792632 
L 397.154627 193.792632 
z
" clip-path="url(#pf96e22c8e6)" style="fill: #053061"/>
   </g>
   <g id="patch_40">
    <path d="M 397.154627 183.237608 
L 397.154627 183.237608 
L 397.154627 141.017512 
L 397.154627 141.017512 
z
" clip-path="url(#pf96e22c8e6)" style="fill: #053061"/>
   </g>
   <g id="patch_41">
    <path d="M 629.009977 130.462488 
L 629.009977 130.462488 
L 629.009977 88.242392 
L 629.009977 88.242392 
z
" clip-path="url(#pf96e22c8e6)" style="fill: #053061"/>
   </g>
   <g id="patch_42">
    <path d="M 629.009977 77.687368 
L 629.009977 77.687368 
L 629.009977 35.467273 
L 629.009977 35.467273 
z
" clip-path="url(#pf96e22c8e6)" style="fill: #053061"/>
   </g>
   <g id="patch_43">
    <path d="M 165.299277 236.012727 
L 165.299277 236.012727 
L 165.299277 193.792632 
L 165.299277 193.792632 
z
" clip-path="url(#pf96e22c8e6)" style="fill: #67001f"/>
   </g>
   <g id="patch_44">
    <path d="M 165.299277 183.237608 
L 165.299277 183.237608 
L 165.299277 141.017512 
L 165.299277 141.017512 
z
" clip-path="url(#pf96e22c8e6)" style="fill: #67001f"/>
   </g>
   <g id="patch_45">
    <path d="M 397.154627 130.462488 
L 397.154627 130.462488 
L 397.154627 88.242392 
L 397.154627 88.242392 
z
" clip-path="url(#pf96e22c8e6)" style="fill: #67001f"/>
   </g>
   <g id="patch_46">
    <path d="M 397.154627 77.687368 
L 397.154627 77.687368 
L 397.154627 35.467273 
L 397.154627 35.467273 
z
" clip-path="url(#pf96e22c8e6)" style="fill: #67001f"/>
   </g>
   <g id="patch_47">
    <path d="M 165.299277 236.012727 
L 397.154627 236.012727 
L 397.154627 193.792632 
L 165.299277 193.792632 
z
" clip-path="url(#pf96e22c8e6)" style="fill: #e58368"/>
   </g>
   <g id="patch_48">
    <path d="M 165.299277 183.237608 
L 397.154627 183.237608 
L 397.154627 141.017512 
L 165.299277 141.017512 
z
" clip-path="url(#pf96e22c8e6)" style="fill: #e58368"/>
   </g>
   <g id="patch_49">
    <path d="M 397.154627 130.462488 
L 397.154627 130.462488 
L 397.154627 88.242392 
L 397.154627 88.242392 
z
" clip-path="url(#pf96e22c8e6)" style="fill: #e58368"/>
   </g>
   <g id="patch_50">
    <path d="M 397.154627 77.687368 
L 397.154627 77.687368 
L 397.154627 35.467273 
L 397.154627 35.467273 
z
" clip-path="url(#pf96e22c8e6)" style="fill: #e58368"/>
   </g>
   <g id="patch_51">
    <path d="M 397.154627 236.012727 
L 397.154627 236.012727 
L 397.154627 193.792632 
L 397.154627 193.792632 
z
" clip-path="url(#pf96e22c8e6)" style="fill: #f6f7f7"/>
   </g>
   <g id="patch_52">
    <path d="M 397.154627 183.237608 
L 397.154627 183.237608 
L 397.154627 141.017512 
L 397.154627 141.017512 
z
" clip-path="url(#pf96e22c8e6)" style="fill: #f6f7f7"/>
   </g>
   <g id="patch_53">
    <path d="M 397.154627 130.462488 
L 397.154627 130.462488 
L 397.154627 88.242392 
L 397.154627 88.242392 
z
" clip-path="url(#pf96e22c8e6)" style="fill: #f6f7f7"/>
   </g>
   <g id="patch_54">
    <path d="M 397.154627 77.687368 
L 397.154627 77.687368 
L 397.154627 35.467273 
L 397.154627 35.467273 
z
" clip-path="url(#pf96e22c8e6)" style="fill: #f6f7f7"/>
   </g>
   <g id="patch_55">
    <path d="M 397.154627 236.012727 
L 397.154627 236.012727 
L 397.154627 193.792632 
L 397.154627 193.792632 
z
" clip-path="url(#pf96e22c8e6)" style="fill: #68abd0"/>
   </g>
   <g id="patch_56">
    <path d="M 397.154627 183.237608 
L 397.154627 183.237608 
L 397.154627 141.017512 
L 397.154627 141.017512 
z
" clip-path="url(#pf96e22c8e6)" style="fill: #68abd0"/>
   </g>
   <g id="patch_57">
    <path d="M 397.154627 130.462488 
L 629.009977 130.462488 
L 629.009977 88.242392 
L 397.154627 88.242392 
z
" clip-path="url(#pf96e22c8e6)" style="fill: #68abd0"/>
   </g>
   <g id="patch_58">
    <path d="M 397.154627 77.687368 
L 629.009977 77.687368 
L 629.009977 35.467273 
L 397.154627 35.467273 
z
" clip-path="url(#pf96e22c8e6)" style="fill: #68abd0"/>
   </g>
   <g id="patch_59">
    <path d="M 397.154627 236.012727 
L 397.154627 236.012727 
L 397.154627 193.792632 
L 397.154627 193.792632 
z
" clip-path="url(#pf96e22c8e6)" style="fill: #053061"/>
   </g>
   <g id="patch_60">
    <path d="M 397.154627 183.237608 
L 397.154627 183.237608 
L 397.154627 141.017512 
L 397.154627 141.017512 
z
" clip-path="url(#pf96e22c8e6)" style="fill: #053061"/>
   </g>
   <g id="patch_61">
    <path d="M 629.009977 130.462488 
L 629.009977 130.462488 
L 629.009977 88.242392 
L 629.009977 88.242392 
z
" clip-path="url(#pf96e22c8e6)" style="fill: #053061"/>
   </g>
   <g id="patch_62">
    <path d="M 629.009977 77.687368 
L 629.009977 77.687368 
L 629.009977 35.467273 
L 629.009977 35.467273 
z
" clip-path="url(#pf96e22c8e6)" style="fill: #053061"/>
   </g>
   <g id="patch_63">
    <path d="M 165.299277 236.012727 
L 165.299277 236.012727 
L 165.299277 193.792632 
L 165.299277 193.792632 
z
" clip-path="url(#pf96e22c8e6)" style="fill: #67001f"/>
   </g>
   <g id="patch_64">
    <path d="M 165.299277 183.237608 
L 165.299277 183.237608 
L 165.299277 141.017512 
L 165.299277 141.017512 
z
" clip-path="url(#pf96e22c8e6)" style="fill: #67001f"/>
   </g>
   <g id="patch_65">
    <path d="M 397.154627 130.462488 
L 397.154627 130.462488 
L 397.154627 88.242392 
L 397.154627 88.242392 
z
" clip-path="url(#pf96e22c8e6)" style="fill: #67001f"/>
   </g>
   <g id="patch_66">
    <path d="M 397.154627 77.687368 
L 397.154627 77.687368 
L 397.154627 35.467273 
L 397.154627 35.467273 
z
" clip-path="url(#pf96e22c8e6)" style="fill: #67001f"/>
   </g>
   <g id="patch_67">
    <path d="M 165.299277 236.012727 
L 397.154627 236.012727 
L 397.154627 193.792632 
L 165.299277 193.792632 
z
" clip-path="url(#pf96e22c8e6)" style="fill: #e58368"/>
   </g>
   <g id="patch_68">
    <path d="M 165.299277 183.237608 
L 397.154627 183.237608 
L 397.154627 141.017512 
L 165.299277 141.017512 
z
" clip-path="url(#pf96e22c8e6)" style="fill: #e58368"/>
   </g>
   <g id="patch_69">
    <path d="M 397.154627 130.462488 
L 397.154627 130.462488 
L 397.154627 88.242392 
L 397.154627 88.242392 
z
" clip-path="url(#pf96e22c8e6)" style="fill: #e58368"/>
   </g>
   <g id="patch_70">
    <path d="M 397.154627 77.687368 
L 397.154627 77.687368 
L 397.154627 35.467273 
L 397.154627 35.467273 
z
" clip-path="url(#pf96e22c8e6)" style="fill: #e58368"/>
   </g>
   <g id="patch_71">
    <path d="M 397.154627 236.012727 
L 397.154627 236.012727 
L 397.154627 193.792632 
L 397.154627 193.792632 
z
" clip-path="url(#pf96e22c8e6)" style="fill: #f6f7f7"/>
   </g>
   <g id="patch_72">
    <path d="M 397.154627 183.237608 
L 397.154627 183.237608 
L 397.154627 141.017512 
L 397.154627 141.017512 
z
" clip-path="url(#pf96e22c8e6)" style="fill: #f6f7f7"/>
   </g>
   <g id="patch_73">
    <path d="M 397.154627 130.462488 
L 397.154627 130.462488 
L 397.154627 88.242392 
L 397.154627 88.242392 
z
" clip-path="url(#pf96e22c8e6)" style="fill: #f6f7f7"/>
   </g>
   <g id="patch_74">
    <path d="M 397.154627 77.687368 
L 397.154627 77.687368 
L 397.154627 35.467273 
L 397.154627 35.467273 
z
" clip-path="url(#pf96e22c8e6)" style="fill: #f6f7f7"/>
   </g>
   <g id="patch_75">
    <path d="M 397.154627 236.012727 
L 397.154627 236.012727 
L 397.154627 193.792632 
L 397.154627 193.792632 
z
" clip-path="url(#pf96e22c8e6)" style="fill: #68abd0"/>
   </g>
   <g id="patch_76">
    <path d="M 397.154627 183.237608 
L 397.154627 183.237608 
L 397.154627 141.017512 
L 397.154627 141.017512 
z
" clip-path="url(#pf96e22c8e6)" style="fill: #68abd0"/>
   </g>
   <g id="patch_77">
    <path d="M 397.154627 130.462488 
L 629.009977 130.462488 
L 629.009977 88.242392 
L 397.154627 88.242392 
z
" clip-path="url(#pf96e22c8e6)" style="fill: #68abd0"/>
   </g>
   <g id="patch_78">
    <path d="M 397.154627 77.687368 
L 629.009977 77.687368 
L 629.009977 35.467273 
L 397.154627 35.467273 
z
" clip-path="url(#pf96e22c8e6)" style="fill: #68abd0"/>
   </g>
   <g id="patch_79">
    <path d="M 397.154627 236.012727 
L 397.154627 236.012727 
L 397.154627 193.792632 
L 397.154627 193.792632 
z
" clip-path="url(#pf96e22c8e6)" style="fill: #053061"/>
   </g>
   <g id="patch_80">
    <path d="M 397.154627 183.237608 
L 397.154627 183.237608 
L 397.154627 141.017512 
L 397.154627 141.017512 
z
" clip-path="url(#pf96e22c8e6)" style="fill: #053061"/>
   </g>
   <g id="patch_81">
    <path d="M 629.009977 130.462488 
L 629.009977 130.462488 
L 629.009977 88.242392 
L 629.009977 88.242392 
z
" clip-path="url(#pf96e22c8e6)" style="fill: #053061"/>
   </g>
   <g id="patch_82">
    <path d="M 629.009977 77.687368 
L 629.009977 77.687368 
L 629.009977 35.467273 
L 629.009977 35.467273 
z
" clip-path="url(#pf96e22c8e6)" style="fill: #053061"/>
   </g>
   <g id="matplotlib.axis_1">
    <g id="xtick_1">
     <g id="line2d_5">
      <defs>
       <path id="m4c99cd72f3" d="M 0 0 
L 0 3.5 
" style="stroke: #000000; stroke-width: 0.8"/>
      </defs>
      <g>
       <use xlink:href="#m4c99cd72f3" x="165.299277" y="246.04" style="stroke: #000000; stroke-width: 0.8"/>
      </g>
     </g>
     <g id="text_1">
      <text style="font: 10px 'sans-serif'; text-anchor: middle" x="165.299277" y="260.213437" transform="rotate(-0, 165.299277, 260.213437)">100</text>
     </g>
    </g>
    <g id="xtick_2">
     <g id="line2d_6">
      <g>
       <use xlink:href="#m4c99cd72f3" x="188.484812" y="246.04" style="stroke: #000000; stroke-width: 0.8"/>
      </g>
     </g>
     <g id="text_2">
      <text style="font: 10px 'sans-serif'; text-anchor: middle" x="188.484812" y="260.213437" transform="rotate(-0, 188.484812, 260.213437)">90</text>
     </g>
    </g>
    <g id="xtick_3">
     <g id="line2d_7">
      <g>
       <use xlink:href="#m4c99cd72f3" x="211.670347" y="246.04" style="stroke: #000000; stroke-width: 0.8"/>
      </g>
     </g>
     <g id="text_3">
      <text style="font: 10px 'sans-serif'; text-anchor: middle" x="211.670347" y="260.213437" transform="rotate(-0, 211.670347, 260.213437)">80</text>
     </g>
    </g>
    <g id="xtick_4">
     <g id="line2d_8">
      <g>
       <use xlink:href="#m4c99cd72f3" x="234.855882" y="246.04" style="stroke: #000000; stroke-width: 0.8"/>
      </g>
     </g>
     <g id="text_4">
      <text style="font: 10px 'sans-serif'; text-anchor: middle" x="234.855882" y="260.213437" transform="rotate(-0, 234.855882, 260.213437)">70</text>
     </g>
    </g>
    <g id="xtick_5">
     <g id="line2d_9">
      <g>
       <use xlink:href="#m4c99cd72f3" x="258.041417" y="246.04" style="stroke: #000000; stroke-width: 0.8"/>
      </g>
     </g>
     <g id="text_5">
      <text style="font: 10px 'sans-serif'; text-anchor: middle" x="258.041417" y="260.213437" transform="rotate(-0, 258.041417, 260.213437)">60</text>
     </g>
    </g>
    <g id="xtick_6">
     <g id="line2d_10">
      <g>
       <use xlink:href="#m4c99cd72f3" x="281.226952" y="246.04" style="stroke: #000000; stroke-width: 0.8"/>
      </g>
     </g>
     <g id="text_6">
      <text style="font: 10px 'sans-serif'; text-anchor: middle" x="281.226952" y="260.213437" transform="rotate(-0, 281.226952, 260.213437)">50</text>
     </g>
    </g>
    <g id="xtick_7">
     <g id="line2d_11">
      <g>
       <use xlink:href="#m4c99cd72f3" x="304.412487" y="246.04" style="stroke: #000000; stroke-width: 0.8"/>
      </g>
     </g>
     <g id="text_7">
      <text style="font: 10px 'sans-serif'; text-anchor: middle" x="304.412487" y="260.213437" transform="rotate(-0, 304.412487, 260.213437)">40</text>
     </g>
    </g>
    <g id="xtick_8">
     <g id="line2d_12">
      <g>
       <use xlink:href="#m4c99cd72f3" x="327.598022" y="246.04" style="stroke: #000000; stroke-width: 0.8"/>
      </g>
     </g>
     <g id="text_8">
      <text style="font: 10px 'sans-serif'; text-anchor: middle" x="327.598022" y="260.213437" transform="rotate(-0, 327.598022, 260.213437)">30</text>
     </g>
    </g>
    <g id="xtick_9">
     <g id="line2d_13">
      <g>
       <use xlink:href="#m4c99cd72f3" x="350.783557" y="246.04" style="stroke: #000000; stroke-width: 0.8"/>
      </g>
     </g>
     <g id="text_9">
      <text style="font: 10px 'sans-serif'; text-anchor: middle" x="350.783557" y="260.213437" transform="rotate(-0, 350.783557, 260.213437)">20</text>
     </g>
    </g>
    <g id="xtick_10">
     <g id="line2d_14">
      <g>
       <use xlink:href="#m4c99cd72f3" x="373.969092" y="246.04" style="stroke: #000000; stroke-width: 0.8"/>
      </g>
     </g>
     <g id="text_10">
      <text style="font: 10px 'sans-serif'; text-anchor: middle" x="373.969092" y="260.213437" transform="rotate(-0, 373.969092, 260.213437)">10</text>
     </g>
    </g>
    <g id="xtick_11">
     <g id="line2d_15">
      <g>
       <use xlink:href="#m4c99cd72f3" x="397.154627" y="246.04" style="stroke: #000000; stroke-width: 0.8"/>
      </g>
     </g>
     <g id="text_11">
      <text style="font: 10px 'sans-serif'; text-anchor: middle" x="397.154627" y="260.213437" transform="rotate(-0, 397.154627, 260.213437)">0</text>
     </g>
    </g>
    <g id="xtick_12">
     <g id="line2d_16">
      <g>
       <use xlink:href="#m4c99cd72f3" x="420.340162" y="246.04" style="stroke: #000000; stroke-width: 0.8"/>
      </g>
     </g>
     <g id="text_12">
      <text style="font: 10px 'sans-serif'; text-anchor: middle" x="420.340162" y="260.213437" transform="rotate(-0, 420.340162, 260.213437)">10</text>
     </g>
    </g>
    <g id="xtick_13">
     <g id="line2d_17">
      <g>
       <use xlink:href="#m4c99cd72f3" x="443.525697" y="246.04" style="stroke: #000000; stroke-width: 0.8"/>
      </g>
     </g>
     <g id="text_13">
      <text style="font: 10px 'sans-serif'; text-anchor: middle" x="443.525697" y="260.213437" transform="rotate(-0, 443.525697, 260.213437)">20</text>
     </g>
    </g>
    <g id="xtick_14">
     <g id="line2d_18">
      <g>
       <use xlink:href="#m4c99cd72f3" x="466.711232" y="246.04" style="stroke: #000000; stroke-width: 0.8"/>
      </g>
     </g>
     <g id="text_14">
      <text style="font: 10px 'sans-serif'; text-anchor: middle" x="466.711232" y="260.213437" transform="rotate(-0, 466.711232, 260.213437)">30</text>
     </g>
    </g>
    <g id="xtick_15">
     <g id="line2d_19">
      <g>
       <use xlink:href="#m4c99cd72f3" x="489.896767" y="246.04" style="stroke: #000000; stroke-width: 0.8"/>
      </g>
     </g>
     <g id="text_15">
      <text style="font: 10px 'sans-serif'; text-anchor: middle" x="489.896767" y="260.213437" transform="rotate(-0, 489.896767, 260.213437)">40</text>
     </g>
    </g>
    <g id="xtick_16">
     <g id="line2d_20">
      <g>
       <use xlink:href="#m4c99cd72f3" x="513.082302" y="246.04" style="stroke: #000000; stroke-width: 0.8"/>
      </g>
     </g>
     <g id="text_16">
      <text style="font: 10px 'sans-serif'; text-anchor: middle" x="513.082302" y="260.213437" transform="rotate(-0, 513.082302, 260.213437)">50</text>
     </g>
    </g>
    <g id="xtick_17">
     <g id="line2d_21">
      <g>
       <use xlink:href="#m4c99cd72f3" x="536.267837" y="246.04" style="stroke: #000000; stroke-width: 0.8"/>
      </g>
     </g>
     <g id="text_17">
      <text style="font: 10px 'sans-serif'; text-anchor: middle" x="536.267837" y="260.213437" transform="rotate(-0, 536.267837, 260.213437)">60</text>
     </g>
    </g>
    <g id="xtick_18">
     <g id="line2d_22">
      <g>
       <use xlink:href="#m4c99cd72f3" x="559.453372" y="246.04" style="stroke: #000000; stroke-width: 0.8"/>
      </g>
     </g>
     <g id="text_18">
      <text style="font: 10px 'sans-serif'; text-anchor: middle" x="559.453372" y="260.213437" transform="rotate(-0, 559.453372, 260.213437)">70</text>
     </g>
    </g>
    <g id="xtick_19">
     <g id="line2d_23">
      <g>
       <use xlink:href="#m4c99cd72f3" x="582.638907" y="246.04" style="stroke: #000000; stroke-width: 0.8"/>
      </g>
     </g>
     <g id="text_19">
      <text style="font: 10px 'sans-serif'; text-anchor: middle" x="582.638907" y="260.213437" transform="rotate(-0, 582.638907, 260.213437)">80</text>
     </g>
    </g>
    <g id="xtick_20">
     <g id="line2d_24">
      <g>
       <use xlink:href="#m4c99cd72f3" x="605.824442" y="246.04" style="stroke: #000000; stroke-width: 0.8"/>
      </g>
     </g>
     <g id="text_20">
      <text style="font: 10px 'sans-serif'; text-anchor: middle" x="605.824442" y="260.213437" transform="rotate(-0, 605.824442, 260.213437)">90</text>
     </g>
    </g>
    <g id="xtick_21">
     <g id="line2d_25">
      <g>
       <use xlink:href="#m4c99cd72f3" x="629.009977" y="246.04" style="stroke: #000000; stroke-width: 0.8"/>
      </g>
     </g>
     <g id="text_21">
      <text style="font: 10px 'sans-serif'; text-anchor: middle" x="629.009977" y="260.213437" transform="rotate(-0, 629.009977, 260.213437)">100</text>
     </g>
    </g>
    <g id="text_22">
     <text style="font: 10px 'sans-serif'; text-anchor: middle" x="397.154627" y="273.47125" transform="rotate(-0, 397.154627, 273.47125)">Percentage</text>
    </g>
   </g>
   <g id="matplotlib.axis_2">
    <g id="ytick_1">
     <g id="line2d_26">
      <defs>
       <path id="m8e343aef83" d="M 0 0 
L -3.5 0 
" style="stroke: #000000; stroke-width: 0.8"/>
      </defs>
      <g>
       <use xlink:href="#m8e343aef83" x="164.14" y="214.902679" style="stroke: #000000; stroke-width: 0.8"/>
      </g>
     </g>
     <g id="text_23">
      <text style="font: 11px 'sans-serif'" transform="translate(55.661562 207.813523)">progRSE1. It is likely</text>
      <text style="font: 11px 'sans-serif'" transform="translate(29.359531 219.747148)">that I will gain a promotion</text>
      <text style="font: 11px 'sans-serif'" transform="translate(42.824219 231.680773)">within my current group</text>
     </g>
    </g>
    <g id="ytick_2">
     <g id="line2d_27">
      <g>
       <use xlink:href="#m8e343aef83" x="164.14" y="162.12756" style="stroke: #000000; stroke-width: 0.8"/>
      </g>
     </g>
     <g id="text_24">
      <text style="font: 11px 'sans-serif'" transform="translate(39.75625 149.170419)">progRSE2. The process</text>
      <text style="font: 11px 'sans-serif'" transform="translate(55.0325 161.104044)">I have to complete to</text>
      <text style="font: 11px 'sans-serif'" transform="translate(64.205469 172.865794)">gain a promotion is</text>
      <text style="font: 11px 'sans-serif'" transform="translate(33.003281 184.768482)">clear and understandable</text>
     </g>
    </g>
    <g id="ytick_3">
     <g id="line2d_28">
      <g>
       <use xlink:href="#m8e343aef83" x="164.14" y="109.35244" style="stroke: #000000; stroke-width: 0.8"/>
      </g>
     </g>
     <g id="text_25">
      <text style="font: 11px 'sans-serif'" transform="translate(52.593594 102.301096)">progRSE3. There are</text>
      <text style="font: 11px 'sans-serif'" transform="translate(33.027344 114.234721)">many opportunities within</text>
      <text style="font: 11px 'sans-serif'" transform="translate(45.869844 126.092721)">my chosen career plan</text>
     </g>
    </g>
    <g id="ytick_4">
     <g id="line2d_29">
      <g>
       <use xlink:href="#m8e343aef83" x="164.14" y="56.577321" style="stroke: #000000; stroke-width: 0.8"/>
      </g>
     </g>
     <g id="text_26">
      <text style="font: 11px 'sans-serif'" transform="translate(55.661562 31.567961)">progRSE5. It is likely</text>
      <text style="font: 11px 'sans-serif'" transform="translate(56.261406 43.501586)">that my next position</text>
      <text style="font: 11px 'sans-serif'" transform="translate(61.152969 55.328649)">will be an Research</text>
      <text style="font: 11px 'sans-serif'" transform="translate(60.535937 67.348211)">Software Engineer /</text>
      <text style="font: 11px 'sans-serif'" transform="translate(10.410312 79.508711)">Research Software Developer</text>
      <text style="font: 11px 'sans-serif'" transform="translate(138.799219 91.270461)">role</text>
     </g>
    </g>
   </g>
   <g id="patch_83">
    <path d="M 164.14 246.04 
L 630.169254 246.04 
" style="fill: none; stroke: #000000; stroke-width: 0.8; stroke-linejoin: miter; stroke-linecap: square"/>
   </g>
   <g id="text_27">
    <text style="font: 10px 'sans-serif'; text-anchor: middle" x="281.226952" y="214.902679" transform="rotate(-0, 281.226952, 214.902679)">100</text>
   </g>
   <g id="text_28">
    <text style="font: 10px 'sans-serif'; text-anchor: middle" x="281.226952" y="162.12756" transform="rotate(-0, 281.226952, 162.12756)">100</text>
   </g>
   <g id="text_29">
    <text style="font: 10px 'sans-serif'; text-anchor: middle" x="513.082302" y="109.35244" transform="rotate(-0, 513.082302, 109.35244)">100</text>
   </g>
   <g id="text_30">
    <text style="font: 10px 'sans-serif'; text-anchor: middle" x="513.082302" y="56.577321" transform="rotate(-0, 513.082302, 56.577321)">100</text>
   </g>
   <g id="text_31">
    <text style="font: 10px 'sans-serif'; text-anchor: middle" x="281.226952" y="214.902679" transform="rotate(-0, 281.226952, 214.902679)">100</text>
   </g>
   <g id="text_32">
    <text style="font: 10px 'sans-serif'; text-anchor: middle" x="281.226952" y="162.12756" transform="rotate(-0, 281.226952, 162.12756)">100</text>
   </g>
   <g id="text_33">
    <text style="font: 10px 'sans-serif'; text-anchor: middle" x="513.082302" y="109.35244" transform="rotate(-0, 513.082302, 109.35244)">100</text>
   </g>
   <g id="text_34">
    <text style="font: 10px 'sans-serif'; text-anchor: middle" x="513.082302" y="56.577321" transform="rotate(-0, 513.082302, 56.577321)">100</text>
   </g>
   <g id="text_35">
    <text style="font: 10px 'sans-serif'; text-anchor: middle" x="281.226952" y="214.902679" transform="rotate(-0, 281.226952, 214.902679)">100</text>
   </g>
   <g id="text_36">
    <text style="font: 10px 'sans-serif'; text-anchor: middle" x="281.226952" y="162.12756" transform="rotate(-0, 281.226952, 162.12756)">100</text>
   </g>
   <g id="text_37">
    <text style="font: 10px 'sans-serif'; text-anchor: middle" x="513.082302" y="109.35244" transform="rotate(-0, 513.082302, 109.35244)">100</text>
   </g>
   <g id="text_38">
    <text style="font: 10px 'sans-serif'; text-anchor: middle" x="513.082302" y="56.577321" transform="rotate(-0, 513.082302, 56.577321)">100</text>
   </g>
   <g id="text_39">
    <text style="font: 10px 'sans-serif'; text-anchor: middle" x="281.226952" y="214.902679" transform="rotate(-0, 281.226952, 214.902679)">100</text>
   </g>
   <g id="text_40">
    <text style="font: 10px 'sans-serif'; text-anchor: middle" x="281.226952" y="162.12756" transform="rotate(-0, 281.226952, 162.12756)">100</text>
   </g>
   <g id="text_41">
    <text style="font: 10px 'sans-serif'; text-anchor: middle" x="513.082302" y="109.35244" transform="rotate(-0, 513.082302, 109.35244)">100</text>
   </g>
   <g id="text_42">
    <text style="font: 10px 'sans-serif'; text-anchor: middle" x="513.082302" y="56.577321" transform="rotate(-0, 513.082302, 56.577321)">100</text>
   </g>
   <g id="text_43">
    <text style="font: 12px 'sans-serif'; text-anchor: middle" x="397.154627" y="19.44" transform="rotate(-0, 397.154627, 19.44)">Progression in the current role</text>
   </g>
   <g id="legend_1">
    <g id="patch_84">
     <path d="M 171.14 241.04 
L 623.169254 241.04 
Q 625.169254 241.04 625.169254 239.04 
L 625.169254 225.45875 
Q 625.169254 223.45875 623.169254 223.45875 
L 171.14 223.45875 
Q 169.14 223.45875 169.14 225.45875 
L 169.14 239.04 
Q 169.14 241.04 171.14 241.04 
z
" style="fill: #ffffff; opacity: 0.8; stroke: #cccccc; stroke-linejoin: miter"/>
    </g>
    <g id="patch_85">
     <path d="M 173.14 234.8275 
L 193.14 234.8275 
L 193.14 227.8275 
L 173.14 227.8275 
z
" style="fill: #67001f"/>
    </g>
    <g id="text_44">
     <text style="font: 10px 'sans-serif'; text-anchor: start" x="201.14" y="234.8275" transform="rotate(-0, 201.14, 234.8275)">Strongly disagree</text>
    </g>
    <g id="patch_86">
     <path d="M 274.952001 234.8275 
L 294.952001 234.8275 
L 294.952001 227.8275 
L 274.952001 227.8275 
z
" style="fill: #e58368"/>
    </g>
    <g id="text_45">
     <text style="font: 10px 'sans-serif'; text-anchor: start" x="302.952001" y="234.8275" transform="rotate(-0, 302.952001, 234.8275)">Disagree</text>
    </g>
    <g id="patch_87">
     <path d="M 338.964002 234.8275 
L 358.964002 234.8275 
L 358.964002 227.8275 
L 338.964002 227.8275 
z
" style="fill: #f6f7f7"/>
    </g>
    <g id="text_46">
     <text style="font: 10px 'sans-serif'; text-anchor: start" x="366.964002" y="234.8275" transform="rotate(-0, 366.964002, 234.8275)">Neither agree or disagree</text>
    </g>
    <g id="patch_88">
     <path d="M 476.347878 234.8275 
L 496.347878 234.8275 
L 496.347878 227.8275 
L 476.347878 227.8275 
z
" style="fill: #68abd0"/>
    </g>
    <g id="text_47">
     <text style="font: 10px 'sans-serif'; text-anchor: start" x="504.347878" y="234.8275" transform="rotate(-0, 504.347878, 234.8275)">Agree</text>
    </g>
    <g id="patch_89">
     <path d="M 527.025504 234.8275 
L 547.025504 234.8275 
L 547.025504 227.8275 
L 527.025504 227.8275 
z
" style="fill: #053061"/>
    </g>
    <g id="text_48">
     <text style="font: 10px 'sans-serif'; text-anchor: start" x="555.025504" y="234.8275" transform="rotate(-0, 555.025504, 234.8275)">Strongly Agree</text>
    </g>
   </g>
  </g>
 </g>
 <defs>
  <clipPath id="pf96e22c8e6">
   <rect x="164.14" y="25.44" width="466.029254" height="220.6"/>
  </clipPath>
 </defs>
</svg>
