<?xml version="1.0" encoding="utf-8" standalone="no"?>
<!DOCTYPE svg PUBLIC "-//W3C//DTD SVG 1.1//EN"
  "http://www.w3.org/Graphics/SVG/1.1/DTD/svg11.dtd">
<svg xmlns:xlink="http://www.w3.org/1999/xlink" width="648pt" height="288pt" viewBox="0 0 648 288" xmlns="http://www.w3.org/2000/svg" version="1.1">
 <metadata>
  <rdf:RDF xmlns:dc="http://purl.org/dc/elements/1.1/" xmlns:cc="http://creativecommons.org/ns#" xmlns:rdf="http://www.w3.org/1999/02/22-rdf-syntax-ns#">
   <cc:Work>
    <dc:type rdf:resource="http://purl.org/dc/dcmitype/StillImage"/>
    <dc:date>2022-03-21T12:07:20.411006</dc:date>
    <dc:format>image/svg+xml</dc:format>
    <dc:creator>
     <cc:Agent>
      <dc:title>Matplotlib v3.5.1, https://matplotlib.org/</dc:title>
     </cc:Agent>
    </dc:creator>
   </cc:Work>
  </rdf:RDF>
 </metadata>
 <defs>
  <style type="text/css">*{stroke-linejoin: round; stroke-linecap: butt}</style>
 </defs>
 <g id="figure_1">
  <g id="patch_1">
   <path d="M 0 288 
L 648 288 
L 648 0 
L 0 0 
z
" style="fill: #ffffff"/>
  </g>
  <g id="axes_1">
   <g id="patch_2">
    <path d="M 81 256.32 
L 583.2 256.32 
L 583.2 34.56 
L 81 34.56 
z
" style="fill: #ffffff"/>
   </g>
   <g id="line2d_1">
    <path d="M 332.726185 256.32 
L 332.726185 34.56 
" clip-path="url(#p759a6061cf)" style="fill: none; stroke-dasharray: 5.55,2.4; stroke-dashoffset: 0; stroke: #000000; stroke-opacity: 0.5; stroke-width: 1.5"/>
   </g>
   <g id="line2d_2">
    <path d="M 332.726185 256.32 
L 332.726185 34.56 
" clip-path="url(#p759a6061cf)" style="fill: none; stroke-dasharray: 5.55,2.4; stroke-dashoffset: 0; stroke: #000000; stroke-opacity: 0.5; stroke-width: 1.5"/>
   </g>
   <g id="line2d_3">
    <path d="M 332.726185 256.32 
L 332.726185 34.56 
" clip-path="url(#p759a6061cf)" style="fill: none; stroke-dasharray: 5.55,2.4; stroke-dashoffset: 0; stroke: #000000; stroke-opacity: 0.5; stroke-width: 1.5"/>
   </g>
   <g id="line2d_4">
    <path d="M 332.726185 256.32 
L 332.726185 34.56 
" clip-path="url(#p759a6061cf)" style="fill: none; stroke-dasharray: 5.55,2.4; stroke-dashoffset: 0; stroke: #000000; stroke-opacity: 0.5; stroke-width: 1.5"/>
   </g>
   <g id="patch_3">
    <path d="M 162.205875 246.24 
L 217.395021 246.24 
L 217.395021 203.797895 
L 162.205875 203.797895 
z
" clip-path="url(#p759a6061cf)" style="fill: #67001f"/>
   </g>
   <g id="patch_4">
    <path d="M 172.221412 193.187368 
L 238.438628 193.187368 
L 238.438628 150.745263 
L 172.221412 150.745263 
z
" clip-path="url(#p759a6061cf)" style="fill: #67001f"/>
   </g>
   <g id="patch_5">
    <path d="M 185.678355 140.134737 
L 229.300199 140.134737 
L 229.300199 97.692632 
L 185.678355 97.692632 
z
" clip-path="url(#p759a6061cf)" style="fill: #67001f"/>
   </g>
   <g id="patch_6">
    <path d="M 225.380264 87.082105 
L 255.198575 87.082105 
L 255.198575 44.64 
L 225.380264 44.64 
z
" clip-path="url(#p759a6061cf)" style="fill: #67001f"/>
   </g>
   <g id="patch_7">
    <path d="M 217.395021 246.24 
L 306.546718 246.24 
L 306.546718 203.797895 
L 217.395021 203.797895 
z
" clip-path="url(#p759a6061cf)" style="fill: #e58368"/>
   </g>
   <g id="patch_8">
    <path d="M 238.438628 193.187368 
L 310.413862 193.187368 
L 310.413862 150.745263 
L 238.438628 150.745263 
z
" clip-path="url(#p759a6061cf)" style="fill: #e58368"/>
   </g>
   <g id="patch_9">
    <path d="M 229.300199 140.134737 
L 301.065169 140.134737 
L 301.065169 97.692632 
L 229.300199 97.692632 
z
" clip-path="url(#p759a6061cf)" style="fill: #e58368"/>
   </g>
   <g id="patch_10">
    <path d="M 255.198575 87.082105 
L 293.96238 87.082105 
L 293.96238 44.64 
L 255.198575 44.64 
z
" clip-path="url(#p759a6061cf)" style="fill: #e58368"/>
   </g>
   <g id="patch_11">
    <path d="M 306.546718 246.24 
L 358.905651 246.24 
L 358.905651 203.797895 
L 306.546718 203.797895 
z
" clip-path="url(#p759a6061cf)" style="fill: #f6f7f7"/>
   </g>
   <g id="patch_12">
    <path d="M 310.413862 193.187368 
L 355.038507 193.187368 
L 355.038507 150.745263 
L 310.413862 150.745263 
z
" clip-path="url(#p759a6061cf)" style="fill: #f6f7f7"/>
   </g>
   <g id="patch_13">
    <path d="M 301.065169 140.134737 
L 364.387201 140.134737 
L 364.387201 97.692632 
L 301.065169 97.692632 
z
" clip-path="url(#p759a6061cf)" style="fill: #f6f7f7"/>
   </g>
   <g id="patch_14">
    <path d="M 293.96238 87.082105 
L 371.489989 87.082105 
L 371.489989 44.64 
L 293.96238 44.64 
z
" clip-path="url(#p759a6061cf)" style="fill: #f6f7f7"/>
   </g>
   <g id="patch_15">
    <path d="M 358.905651 246.24 
L 402.773946 246.24 
L 402.773946 203.797895 
L 358.905651 203.797895 
z
" clip-path="url(#p759a6061cf)" style="fill: #68abd0"/>
   </g>
   <g id="patch_16">
    <path d="M 355.038507 193.187368 
L 406.860676 193.187368 
L 406.860676 150.745263 
L 355.038507 150.745263 
z
" clip-path="url(#p759a6061cf)" style="fill: #68abd0"/>
   </g>
   <g id="patch_17">
    <path d="M 364.387201 140.134737 
L 417.859139 140.134737 
L 417.859139 97.692632 
L 364.387201 97.692632 
z
" clip-path="url(#p759a6061cf)" style="fill: #68abd0"/>
   </g>
   <g id="patch_18">
    <path d="M 371.489989 87.082105 
L 422.181119 87.082105 
L 422.181119 44.64 
L 371.489989 44.64 
z
" clip-path="url(#p759a6061cf)" style="fill: #68abd0"/>
   </g>
   <g id="patch_19">
    <path d="M 402.773946 246.24 
L 412.679691 246.24 
L 412.679691 203.797895 
L 402.773946 203.797895 
z
" clip-path="url(#p759a6061cf)" style="fill: #053061"/>
   </g>
   <g id="patch_20">
    <path d="M 406.860676 193.187368 
L 422.695227 193.187368 
L 422.695227 150.745263 
L 406.860676 150.745263 
z
" clip-path="url(#p759a6061cf)" style="fill: #053061"/>
   </g>
   <g id="patch_21">
    <path d="M 417.859139 140.134737 
L 436.15217 140.134737 
L 436.15217 97.692632 
L 417.859139 97.692632 
z
" clip-path="url(#p759a6061cf)" style="fill: #053061"/>
   </g>
   <g id="patch_22">
    <path d="M 422.181119 87.082105 
L 475.854079 87.082105 
L 475.854079 44.64 
L 422.181119 44.64 
z
" clip-path="url(#p759a6061cf)" style="fill: #053061"/>
   </g>
   <g id="patch_23">
    <path d="M 162.205875 246.24 
L 217.395021 246.24 
L 217.395021 203.797895 
L 162.205875 203.797895 
z
" clip-path="url(#p759a6061cf)" style="fill: #67001f"/>
   </g>
   <g id="patch_24">
    <path d="M 172.221412 193.187368 
L 238.438628 193.187368 
L 238.438628 150.745263 
L 172.221412 150.745263 
z
" clip-path="url(#p759a6061cf)" style="fill: #67001f"/>
   </g>
   <g id="patch_25">
    <path d="M 185.678355 140.134737 
L 229.300199 140.134737 
L 229.300199 97.692632 
L 185.678355 97.692632 
z
" clip-path="url(#p759a6061cf)" style="fill: #67001f"/>
   </g>
   <g id="patch_26">
    <path d="M 225.380264 87.082105 
L 255.198575 87.082105 
L 255.198575 44.64 
L 225.380264 44.64 
z
" clip-path="url(#p759a6061cf)" style="fill: #67001f"/>
   </g>
   <g id="patch_27">
    <path d="M 217.395021 246.24 
L 306.546718 246.24 
L 306.546718 203.797895 
L 217.395021 203.797895 
z
" clip-path="url(#p759a6061cf)" style="fill: #e58368"/>
   </g>
   <g id="patch_28">
    <path d="M 238.438628 193.187368 
L 310.413862 193.187368 
L 310.413862 150.745263 
L 238.438628 150.745263 
z
" clip-path="url(#p759a6061cf)" style="fill: #e58368"/>
   </g>
   <g id="patch_29">
    <path d="M 229.300199 140.134737 
L 301.065169 140.134737 
L 301.065169 97.692632 
L 229.300199 97.692632 
z
" clip-path="url(#p759a6061cf)" style="fill: #e58368"/>
   </g>
   <g id="patch_30">
    <path d="M 255.198575 87.082105 
L 293.96238 87.082105 
L 293.96238 44.64 
L 255.198575 44.64 
z
" clip-path="url(#p759a6061cf)" style="fill: #e58368"/>
   </g>
   <g id="patch_31">
    <path d="M 306.546718 246.24 
L 358.905651 246.24 
L 358.905651 203.797895 
L 306.546718 203.797895 
z
" clip-path="url(#p759a6061cf)" style="fill: #f6f7f7"/>
   </g>
   <g id="patch_32">
    <path d="M 310.413862 193.187368 
L 355.038507 193.187368 
L 355.038507 150.745263 
L 310.413862 150.745263 
z
" clip-path="url(#p759a6061cf)" style="fill: #f6f7f7"/>
   </g>
   <g id="patch_33">
    <path d="M 301.065169 140.134737 
L 364.387201 140.134737 
L 364.387201 97.692632 
L 301.065169 97.692632 
z
" clip-path="url(#p759a6061cf)" style="fill: #f6f7f7"/>
   </g>
   <g id="patch_34">
    <path d="M 293.96238 87.082105 
L 371.489989 87.082105 
L 371.489989 44.64 
L 293.96238 44.64 
z
" clip-path="url(#p759a6061cf)" style="fill: #f6f7f7"/>
   </g>
   <g id="patch_35">
    <path d="M 358.905651 246.24 
L 402.773946 246.24 
L 402.773946 203.797895 
L 358.905651 203.797895 
z
" clip-path="url(#p759a6061cf)" style="fill: #68abd0"/>
   </g>
   <g id="patch_36">
    <path d="M 355.038507 193.187368 
L 406.860676 193.187368 
L 406.860676 150.745263 
L 355.038507 150.745263 
z
" clip-path="url(#p759a6061cf)" style="fill: #68abd0"/>
   </g>
   <g id="patch_37">
    <path d="M 364.387201 140.134737 
L 417.859139 140.134737 
L 417.859139 97.692632 
L 364.387201 97.692632 
z
" clip-path="url(#p759a6061cf)" style="fill: #68abd0"/>
   </g>
   <g id="patch_38">
    <path d="M 371.489989 87.082105 
L 422.181119 87.082105 
L 422.181119 44.64 
L 371.489989 44.64 
z
" clip-path="url(#p759a6061cf)" style="fill: #68abd0"/>
   </g>
   <g id="patch_39">
    <path d="M 402.773946 246.24 
L 412.679691 246.24 
L 412.679691 203.797895 
L 402.773946 203.797895 
z
" clip-path="url(#p759a6061cf)" style="fill: #053061"/>
   </g>
   <g id="patch_40">
    <path d="M 406.860676 193.187368 
L 422.695227 193.187368 
L 422.695227 150.745263 
L 406.860676 150.745263 
z
" clip-path="url(#p759a6061cf)" style="fill: #053061"/>
   </g>
   <g id="patch_41">
    <path d="M 417.859139 140.134737 
L 436.15217 140.134737 
L 436.15217 97.692632 
L 417.859139 97.692632 
z
" clip-path="url(#p759a6061cf)" style="fill: #053061"/>
   </g>
   <g id="patch_42">
    <path d="M 422.181119 87.082105 
L 475.854079 87.082105 
L 475.854079 44.64 
L 422.181119 44.64 
z
" clip-path="url(#p759a6061cf)" style="fill: #053061"/>
   </g>
   <g id="patch_43">
    <path d="M 162.205875 246.24 
L 217.395021 246.24 
L 217.395021 203.797895 
L 162.205875 203.797895 
z
" clip-path="url(#p759a6061cf)" style="fill: #67001f"/>
   </g>
   <g id="patch_44">
    <path d="M 172.221412 193.187368 
L 238.438628 193.187368 
L 238.438628 150.745263 
L 172.221412 150.745263 
z
" clip-path="url(#p759a6061cf)" style="fill: #67001f"/>
   </g>
   <g id="patch_45">
    <path d="M 185.678355 140.134737 
L 229.300199 140.134737 
L 229.300199 97.692632 
L 185.678355 97.692632 
z
" clip-path="url(#p759a6061cf)" style="fill: #67001f"/>
   </g>
   <g id="patch_46">
    <path d="M 225.380264 87.082105 
L 255.198575 87.082105 
L 255.198575 44.64 
L 225.380264 44.64 
z
" clip-path="url(#p759a6061cf)" style="fill: #67001f"/>
   </g>
   <g id="patch_47">
    <path d="M 217.395021 246.24 
L 306.546718 246.24 
L 306.546718 203.797895 
L 217.395021 203.797895 
z
" clip-path="url(#p759a6061cf)" style="fill: #e58368"/>
   </g>
   <g id="patch_48">
    <path d="M 238.438628 193.187368 
L 310.413862 193.187368 
L 310.413862 150.745263 
L 238.438628 150.745263 
z
" clip-path="url(#p759a6061cf)" style="fill: #e58368"/>
   </g>
   <g id="patch_49">
    <path d="M 229.300199 140.134737 
L 301.065169 140.134737 
L 301.065169 97.692632 
L 229.300199 97.692632 
z
" clip-path="url(#p759a6061cf)" style="fill: #e58368"/>
   </g>
   <g id="patch_50">
    <path d="M 255.198575 87.082105 
L 293.96238 87.082105 
L 293.96238 44.64 
L 255.198575 44.64 
z
" clip-path="url(#p759a6061cf)" style="fill: #e58368"/>
   </g>
   <g id="patch_51">
    <path d="M 306.546718 246.24 
L 358.905651 246.24 
L 358.905651 203.797895 
L 306.546718 203.797895 
z
" clip-path="url(#p759a6061cf)" style="fill: #f6f7f7"/>
   </g>
   <g id="patch_52">
    <path d="M 310.413862 193.187368 
L 355.038507 193.187368 
L 355.038507 150.745263 
L 310.413862 150.745263 
z
" clip-path="url(#p759a6061cf)" style="fill: #f6f7f7"/>
   </g>
   <g id="patch_53">
    <path d="M 301.065169 140.134737 
L 364.387201 140.134737 
L 364.387201 97.692632 
L 301.065169 97.692632 
z
" clip-path="url(#p759a6061cf)" style="fill: #f6f7f7"/>
   </g>
   <g id="patch_54">
    <path d="M 293.96238 87.082105 
L 371.489989 87.082105 
L 371.489989 44.64 
L 293.96238 44.64 
z
" clip-path="url(#p759a6061cf)" style="fill: #f6f7f7"/>
   </g>
   <g id="patch_55">
    <path d="M 358.905651 246.24 
L 402.773946 246.24 
L 402.773946 203.797895 
L 358.905651 203.797895 
z
" clip-path="url(#p759a6061cf)" style="fill: #68abd0"/>
   </g>
   <g id="patch_56">
    <path d="M 355.038507 193.187368 
L 406.860676 193.187368 
L 406.860676 150.745263 
L 355.038507 150.745263 
z
" clip-path="url(#p759a6061cf)" style="fill: #68abd0"/>
   </g>
   <g id="patch_57">
    <path d="M 364.387201 140.134737 
L 417.859139 140.134737 
L 417.859139 97.692632 
L 364.387201 97.692632 
z
" clip-path="url(#p759a6061cf)" style="fill: #68abd0"/>
   </g>
   <g id="patch_58">
    <path d="M 371.489989 87.082105 
L 422.181119 87.082105 
L 422.181119 44.64 
L 371.489989 44.64 
z
" clip-path="url(#p759a6061cf)" style="fill: #68abd0"/>
   </g>
   <g id="patch_59">
    <path d="M 402.773946 246.24 
L 412.679691 246.24 
L 412.679691 203.797895 
L 402.773946 203.797895 
z
" clip-path="url(#p759a6061cf)" style="fill: #053061"/>
   </g>
   <g id="patch_60">
    <path d="M 406.860676 193.187368 
L 422.695227 193.187368 
L 422.695227 150.745263 
L 406.860676 150.745263 
z
" clip-path="url(#p759a6061cf)" style="fill: #053061"/>
   </g>
   <g id="patch_61">
    <path d="M 417.859139 140.134737 
L 436.15217 140.134737 
L 436.15217 97.692632 
L 417.859139 97.692632 
z
" clip-path="url(#p759a6061cf)" style="fill: #053061"/>
   </g>
   <g id="patch_62">
    <path d="M 422.181119 87.082105 
L 475.854079 87.082105 
L 475.854079 44.64 
L 422.181119 44.64 
z
" clip-path="url(#p759a6061cf)" style="fill: #053061"/>
   </g>
   <g id="patch_63">
    <path d="M 162.205875 246.24 
L 217.395021 246.24 
L 217.395021 203.797895 
L 162.205875 203.797895 
z
" clip-path="url(#p759a6061cf)" style="fill: #67001f"/>
   </g>
   <g id="patch_64">
    <path d="M 172.221412 193.187368 
L 238.438628 193.187368 
L 238.438628 150.745263 
L 172.221412 150.745263 
z
" clip-path="url(#p759a6061cf)" style="fill: #67001f"/>
   </g>
   <g id="patch_65">
    <path d="M 185.678355 140.134737 
L 229.300199 140.134737 
L 229.300199 97.692632 
L 185.678355 97.692632 
z
" clip-path="url(#p759a6061cf)" style="fill: #67001f"/>
   </g>
   <g id="patch_66">
    <path d="M 225.380264 87.082105 
L 255.198575 87.082105 
L 255.198575 44.64 
L 225.380264 44.64 
z
" clip-path="url(#p759a6061cf)" style="fill: #67001f"/>
   </g>
   <g id="patch_67">
    <path d="M 217.395021 246.24 
L 306.546718 246.24 
L 306.546718 203.797895 
L 217.395021 203.797895 
z
" clip-path="url(#p759a6061cf)" style="fill: #e58368"/>
   </g>
   <g id="patch_68">
    <path d="M 238.438628 193.187368 
L 310.413862 193.187368 
L 310.413862 150.745263 
L 238.438628 150.745263 
z
" clip-path="url(#p759a6061cf)" style="fill: #e58368"/>
   </g>
   <g id="patch_69">
    <path d="M 229.300199 140.134737 
L 301.065169 140.134737 
L 301.065169 97.692632 
L 229.300199 97.692632 
z
" clip-path="url(#p759a6061cf)" style="fill: #e58368"/>
   </g>
   <g id="patch_70">
    <path d="M 255.198575 87.082105 
L 293.96238 87.082105 
L 293.96238 44.64 
L 255.198575 44.64 
z
" clip-path="url(#p759a6061cf)" style="fill: #e58368"/>
   </g>
   <g id="patch_71">
    <path d="M 306.546718 246.24 
L 358.905651 246.24 
L 358.905651 203.797895 
L 306.546718 203.797895 
z
" clip-path="url(#p759a6061cf)" style="fill: #f6f7f7"/>
   </g>
   <g id="patch_72">
    <path d="M 310.413862 193.187368 
L 355.038507 193.187368 
L 355.038507 150.745263 
L 310.413862 150.745263 
z
" clip-path="url(#p759a6061cf)" style="fill: #f6f7f7"/>
   </g>
   <g id="patch_73">
    <path d="M 301.065169 140.134737 
L 364.387201 140.134737 
L 364.387201 97.692632 
L 301.065169 97.692632 
z
" clip-path="url(#p759a6061cf)" style="fill: #f6f7f7"/>
   </g>
   <g id="patch_74">
    <path d="M 293.96238 87.082105 
L 371.489989 87.082105 
L 371.489989 44.64 
L 293.96238 44.64 
z
" clip-path="url(#p759a6061cf)" style="fill: #f6f7f7"/>
   </g>
   <g id="patch_75">
    <path d="M 358.905651 246.24 
L 402.773946 246.24 
L 402.773946 203.797895 
L 358.905651 203.797895 
z
" clip-path="url(#p759a6061cf)" style="fill: #68abd0"/>
   </g>
   <g id="patch_76">
    <path d="M 355.038507 193.187368 
L 406.860676 193.187368 
L 406.860676 150.745263 
L 355.038507 150.745263 
z
" clip-path="url(#p759a6061cf)" style="fill: #68abd0"/>
   </g>
   <g id="patch_77">
    <path d="M 364.387201 140.134737 
L 417.859139 140.134737 
L 417.859139 97.692632 
L 364.387201 97.692632 
z
" clip-path="url(#p759a6061cf)" style="fill: #68abd0"/>
   </g>
   <g id="patch_78">
    <path d="M 371.489989 87.082105 
L 422.181119 87.082105 
L 422.181119 44.64 
L 371.489989 44.64 
z
" clip-path="url(#p759a6061cf)" style="fill: #68abd0"/>
   </g>
   <g id="patch_79">
    <path d="M 402.773946 246.24 
L 412.679691 246.24 
L 412.679691 203.797895 
L 402.773946 203.797895 
z
" clip-path="url(#p759a6061cf)" style="fill: #053061"/>
   </g>
   <g id="patch_80">
    <path d="M 406.860676 193.187368 
L 422.695227 193.187368 
L 422.695227 150.745263 
L 406.860676 150.745263 
z
" clip-path="url(#p759a6061cf)" style="fill: #053061"/>
   </g>
   <g id="patch_81">
    <path d="M 417.859139 140.134737 
L 436.15217 140.134737 
L 436.15217 97.692632 
L 417.859139 97.692632 
z
" clip-path="url(#p759a6061cf)" style="fill: #053061"/>
   </g>
   <g id="patch_82">
    <path d="M 422.181119 87.082105 
L 475.854079 87.082105 
L 475.854079 44.64 
L 422.181119 44.64 
z
" clip-path="url(#p759a6061cf)" style="fill: #053061"/>
   </g>
   <g id="matplotlib.axis_1">
    <g id="xtick_1">
     <g id="line2d_5">
      <defs>
       <path id="m4c99cd72f3" d="M 0 0 
L 0 3.5 
" style="stroke: #000000; stroke-width: 0.8"/>
      </defs>
      <g>
       <use xlink:href="#m4c99cd72f3" x="82.252369" y="256.32" style="stroke: #000000; stroke-width: 0.8"/>
      </g>
     </g>
     <g id="text_1">
      <text style="font: 10px 'sans-serif'; text-anchor: middle" x="82.252369" y="270.493438" transform="rotate(-0, 82.252369, 270.493438)">100</text>
     </g>
    </g>
    <g id="xtick_2">
     <g id="line2d_6">
      <g>
       <use xlink:href="#m4c99cd72f3" x="107.299751" y="256.32" style="stroke: #000000; stroke-width: 0.8"/>
      </g>
     </g>
     <g id="text_2">
      <text style="font: 10px 'sans-serif'; text-anchor: middle" x="107.299751" y="270.493438" transform="rotate(-0, 107.299751, 270.493438)">90</text>
     </g>
    </g>
    <g id="xtick_3">
     <g id="line2d_7">
      <g>
       <use xlink:href="#m4c99cd72f3" x="132.347132" y="256.32" style="stroke: #000000; stroke-width: 0.8"/>
      </g>
     </g>
     <g id="text_3">
      <text style="font: 10px 'sans-serif'; text-anchor: middle" x="132.347132" y="270.493438" transform="rotate(-0, 132.347132, 270.493438)">80</text>
     </g>
    </g>
    <g id="xtick_4">
     <g id="line2d_8">
      <g>
       <use xlink:href="#m4c99cd72f3" x="157.394514" y="256.32" style="stroke: #000000; stroke-width: 0.8"/>
      </g>
     </g>
     <g id="text_4">
      <text style="font: 10px 'sans-serif'; text-anchor: middle" x="157.394514" y="270.493438" transform="rotate(-0, 157.394514, 270.493438)">70</text>
     </g>
    </g>
    <g id="xtick_5">
     <g id="line2d_9">
      <g>
       <use xlink:href="#m4c99cd72f3" x="182.441895" y="256.32" style="stroke: #000000; stroke-width: 0.8"/>
      </g>
     </g>
     <g id="text_5">
      <text style="font: 10px 'sans-serif'; text-anchor: middle" x="182.441895" y="270.493438" transform="rotate(-0, 182.441895, 270.493438)">60</text>
     </g>
    </g>
    <g id="xtick_6">
     <g id="line2d_10">
      <g>
       <use xlink:href="#m4c99cd72f3" x="207.489277" y="256.32" style="stroke: #000000; stroke-width: 0.8"/>
      </g>
     </g>
     <g id="text_6">
      <text style="font: 10px 'sans-serif'; text-anchor: middle" x="207.489277" y="270.493438" transform="rotate(-0, 207.489277, 270.493438)">50</text>
     </g>
    </g>
    <g id="xtick_7">
     <g id="line2d_11">
      <g>
       <use xlink:href="#m4c99cd72f3" x="232.536658" y="256.32" style="stroke: #000000; stroke-width: 0.8"/>
      </g>
     </g>
     <g id="text_7">
      <text style="font: 10px 'sans-serif'; text-anchor: middle" x="232.536658" y="270.493438" transform="rotate(-0, 232.536658, 270.493438)">40</text>
     </g>
    </g>
    <g id="xtick_8">
     <g id="line2d_12">
      <g>
       <use xlink:href="#m4c99cd72f3" x="257.58404" y="256.32" style="stroke: #000000; stroke-width: 0.8"/>
      </g>
     </g>
     <g id="text_8">
      <text style="font: 10px 'sans-serif'; text-anchor: middle" x="257.58404" y="270.493438" transform="rotate(-0, 257.58404, 270.493438)">30</text>
     </g>
    </g>
    <g id="xtick_9">
     <g id="line2d_13">
      <g>
       <use xlink:href="#m4c99cd72f3" x="282.631421" y="256.32" style="stroke: #000000; stroke-width: 0.8"/>
      </g>
     </g>
     <g id="text_9">
      <text style="font: 10px 'sans-serif'; text-anchor: middle" x="282.631421" y="270.493438" transform="rotate(-0, 282.631421, 270.493438)">20</text>
     </g>
    </g>
    <g id="xtick_10">
     <g id="line2d_14">
      <g>
       <use xlink:href="#m4c99cd72f3" x="307.678803" y="256.32" style="stroke: #000000; stroke-width: 0.8"/>
      </g>
     </g>
     <g id="text_10">
      <text style="font: 10px 'sans-serif'; text-anchor: middle" x="307.678803" y="270.493438" transform="rotate(-0, 307.678803, 270.493438)">10</text>
     </g>
    </g>
    <g id="xtick_11">
     <g id="line2d_15">
      <g>
       <use xlink:href="#m4c99cd72f3" x="332.726185" y="256.32" style="stroke: #000000; stroke-width: 0.8"/>
      </g>
     </g>
     <g id="text_11">
      <text style="font: 10px 'sans-serif'; text-anchor: middle" x="332.726185" y="270.493438" transform="rotate(-0, 332.726185, 270.493438)">0</text>
     </g>
    </g>
    <g id="xtick_12">
     <g id="line2d_16">
      <g>
       <use xlink:href="#m4c99cd72f3" x="357.773566" y="256.32" style="stroke: #000000; stroke-width: 0.8"/>
      </g>
     </g>
     <g id="text_12">
      <text style="font: 10px 'sans-serif'; text-anchor: middle" x="357.773566" y="270.493438" transform="rotate(-0, 357.773566, 270.493438)">10</text>
     </g>
    </g>
    <g id="xtick_13">
     <g id="line2d_17">
      <g>
       <use xlink:href="#m4c99cd72f3" x="382.820948" y="256.32" style="stroke: #000000; stroke-width: 0.8"/>
      </g>
     </g>
     <g id="text_13">
      <text style="font: 10px 'sans-serif'; text-anchor: middle" x="382.820948" y="270.493438" transform="rotate(-0, 382.820948, 270.493438)">20</text>
     </g>
    </g>
    <g id="xtick_14">
     <g id="line2d_18">
      <g>
       <use xlink:href="#m4c99cd72f3" x="407.868329" y="256.32" style="stroke: #000000; stroke-width: 0.8"/>
      </g>
     </g>
     <g id="text_14">
      <text style="font: 10px 'sans-serif'; text-anchor: middle" x="407.868329" y="270.493438" transform="rotate(-0, 407.868329, 270.493438)">30</text>
     </g>
    </g>
    <g id="xtick_15">
     <g id="line2d_19">
      <g>
       <use xlink:href="#m4c99cd72f3" x="432.915711" y="256.32" style="stroke: #000000; stroke-width: 0.8"/>
      </g>
     </g>
     <g id="text_15">
      <text style="font: 10px 'sans-serif'; text-anchor: middle" x="432.915711" y="270.493438" transform="rotate(-0, 432.915711, 270.493438)">40</text>
     </g>
    </g>
    <g id="xtick_16">
     <g id="line2d_20">
      <g>
       <use xlink:href="#m4c99cd72f3" x="457.963092" y="256.32" style="stroke: #000000; stroke-width: 0.8"/>
      </g>
     </g>
     <g id="text_16">
      <text style="font: 10px 'sans-serif'; text-anchor: middle" x="457.963092" y="270.493438" transform="rotate(-0, 457.963092, 270.493438)">50</text>
     </g>
    </g>
    <g id="xtick_17">
     <g id="line2d_21">
      <g>
       <use xlink:href="#m4c99cd72f3" x="483.010474" y="256.32" style="stroke: #000000; stroke-width: 0.8"/>
      </g>
     </g>
     <g id="text_17">
      <text style="font: 10px 'sans-serif'; text-anchor: middle" x="483.010474" y="270.493438" transform="rotate(-0, 483.010474, 270.493438)">60</text>
     </g>
    </g>
    <g id="xtick_18">
     <g id="line2d_22">
      <g>
       <use xlink:href="#m4c99cd72f3" x="508.057855" y="256.32" style="stroke: #000000; stroke-width: 0.8"/>
      </g>
     </g>
     <g id="text_18">
      <text style="font: 10px 'sans-serif'; text-anchor: middle" x="508.057855" y="270.493438" transform="rotate(-0, 508.057855, 270.493438)">70</text>
     </g>
    </g>
    <g id="xtick_19">
     <g id="line2d_23">
      <g>
       <use xlink:href="#m4c99cd72f3" x="533.105237" y="256.32" style="stroke: #000000; stroke-width: 0.8"/>
      </g>
     </g>
     <g id="text_19">
      <text style="font: 10px 'sans-serif'; text-anchor: middle" x="533.105237" y="270.493438" transform="rotate(-0, 533.105237, 270.493438)">80</text>
     </g>
    </g>
    <g id="xtick_20">
     <g id="line2d_24">
      <g>
       <use xlink:href="#m4c99cd72f3" x="558.152618" y="256.32" style="stroke: #000000; stroke-width: 0.8"/>
      </g>
     </g>
     <g id="text_20">
      <text style="font: 10px 'sans-serif'; text-anchor: middle" x="558.152618" y="270.493438" transform="rotate(-0, 558.152618, 270.493438)">90</text>
     </g>
    </g>
    <g id="xtick_21">
     <g id="line2d_25">
      <g>
       <use xlink:href="#m4c99cd72f3" x="583.2" y="256.32" style="stroke: #000000; stroke-width: 0.8"/>
      </g>
     </g>
     <g id="text_21">
      <text style="font: 10px 'sans-serif'; text-anchor: middle" x="583.2" y="270.493438" transform="rotate(-0, 583.2, 270.493438)">100</text>
     </g>
    </g>
    <g id="text_22">
     <text style="font: 10px 'sans-serif'; text-anchor: middle" x="332.1" y="283.75125" transform="rotate(-0, 332.1, 283.75125)">Percentage</text>
    </g>
   </g>
   <g id="matplotlib.axis_2">
    <g id="ytick_1">
     <g id="line2d_26">
      <defs>
       <path id="m8e343aef83" d="M 0 0 
L -3.5 0 
" style="stroke: #000000; stroke-width: 0.8"/>
      </defs>
      <g>
       <use xlink:href="#m8e343aef83" x="81" y="225.018947" style="stroke: #000000; stroke-width: 0.8"/>
      </g>
     </g>
     <g id="text_23">
      <text style="font: 11px 'sans-serif'" transform="translate(-27.478437 217.929791)">progRSE1. It is likely</text>
      <text style="font: 11px 'sans-serif'" transform="translate(-53.780469 229.863416)">that I will gain a promotion</text>
      <text style="font: 11px 'sans-serif'" transform="translate(-40.315781 241.797041)">within my current group</text>
     </g>
    </g>
    <g id="ytick_2">
     <g id="line2d_27">
      <g>
       <use xlink:href="#m8e343aef83" x="81" y="171.966316" style="stroke: #000000; stroke-width: 0.8"/>
      </g>
     </g>
     <g id="text_24">
      <text style="font: 11px 'sans-serif'" transform="translate(-43.38375 159.009175)">progRSE2. The process</text>
      <text style="font: 11px 'sans-serif'" transform="translate(-28.1075 170.9428)">I have to complete to</text>
      <text style="font: 11px 'sans-serif'" transform="translate(-18.934531 182.70455)">gain a promotion is</text>
      <text style="font: 11px 'sans-serif'" transform="translate(-50.136719 194.607238)">clear and understandable</text>
     </g>
    </g>
    <g id="ytick_3">
     <g id="line2d_28">
      <g>
       <use xlink:href="#m8e343aef83" x="81" y="118.913684" style="stroke: #000000; stroke-width: 0.8"/>
      </g>
     </g>
     <g id="text_25">
      <text style="font: 11px 'sans-serif'" transform="translate(-30.546406 111.86234)">progRSE3. There are</text>
      <text style="font: 11px 'sans-serif'" transform="translate(-50.112656 123.795965)">many opportunities within</text>
      <text style="font: 11px 'sans-serif'" transform="translate(-37.270156 135.653965)">my chosen career plan</text>
     </g>
    </g>
    <g id="ytick_4">
     <g id="line2d_29">
      <g>
       <use xlink:href="#m8e343aef83" x="81" y="65.861053" style="stroke: #000000; stroke-width: 0.8"/>
      </g>
     </g>
     <g id="text_26">
      <text style="font: 11px 'sans-serif'" transform="translate(-27.478437 40.851693)">progRSE5. It is likely</text>
      <text style="font: 11px 'sans-serif'" transform="translate(-26.878594 52.785318)">that my next position</text>
      <text style="font: 11px 'sans-serif'" transform="translate(-21.987031 64.612381)">will be an Research</text>
      <text style="font: 11px 'sans-serif'" transform="translate(-22.604062 76.631943)">Software Engineer /</text>
      <text style="font: 11px 'sans-serif'" transform="translate(-72.729688 88.792443)">Research Software Developer</text>
      <text style="font: 11px 'sans-serif'" transform="translate(55.659219 100.554193)">role</text>
     </g>
    </g>
   </g>
   <g id="patch_83">
    <path d="M 81 256.32 
L 583.2 256.32 
" style="fill: none; stroke: #000000; stroke-width: 0.8; stroke-linejoin: miter; stroke-linecap: square"/>
   </g>
   <g id="text_27">
    <text style="font: 10px 'sans-serif'; text-anchor: middle" x="189.800448" y="225.018947" transform="rotate(-0, 189.800448, 225.018947)">22</text>
   </g>
   <g id="text_28">
    <text style="font: 10px 'sans-serif'; text-anchor: middle" x="205.33002" y="171.966316" transform="rotate(-0, 205.33002, 171.966316)">26</text>
   </g>
   <g id="text_29">
    <text style="font: 10px 'sans-serif'; text-anchor: middle" x="207.489277" y="118.913684" transform="rotate(-0, 207.489277, 118.913684)">17</text>
   </g>
   <g id="text_30">
    <text style="font: 10px 'sans-serif'; text-anchor: middle" x="240.289419" y="65.861053" transform="rotate(-0, 240.289419, 65.861053)">12</text>
   </g>
   <g id="text_31">
    <text style="font: 10px 'sans-serif'; text-anchor: middle" x="261.970869" y="225.018947" transform="rotate(-0, 261.970869, 225.018947)">36</text>
   </g>
   <g id="text_32">
    <text style="font: 10px 'sans-serif'; text-anchor: middle" x="274.426245" y="171.966316" transform="rotate(-0, 274.426245, 171.966316)">29</text>
   </g>
   <g id="text_33">
    <text style="font: 10px 'sans-serif'; text-anchor: middle" x="265.182684" y="118.913684" transform="rotate(-0, 265.182684, 118.913684)">29</text>
   </g>
   <g id="text_34">
    <text style="font: 10px 'sans-serif'; text-anchor: middle" x="274.580477" y="65.861053" transform="rotate(-0, 274.580477, 65.861053)">15</text>
   </g>
   <g id="text_35">
    <text style="font: 10px 'sans-serif'; text-anchor: middle" x="332.726185" y="225.018947" transform="rotate(-0, 332.726185, 225.018947)">21</text>
   </g>
   <g id="text_36">
    <text style="font: 10px 'sans-serif'; text-anchor: middle" x="332.726185" y="171.966316" transform="rotate(-0, 332.726185, 171.966316)">18</text>
   </g>
   <g id="text_37">
    <text style="font: 10px 'sans-serif'; text-anchor: middle" x="332.726185" y="118.913684" transform="rotate(-0, 332.726185, 118.913684)">25</text>
   </g>
   <g id="text_38">
    <text style="font: 10px 'sans-serif'; text-anchor: middle" x="332.726185" y="65.861053" transform="rotate(-0, 332.726185, 65.861053)">31</text>
   </g>
   <g id="text_39">
    <text style="font: 10px 'sans-serif'; text-anchor: middle" x="380.839799" y="225.018947" transform="rotate(-0, 380.839799, 225.018947)">18</text>
   </g>
   <g id="text_40">
    <text style="font: 10px 'sans-serif'; text-anchor: middle" x="380.949592" y="171.966316" transform="rotate(-0, 380.949592, 171.966316)">21</text>
   </g>
   <g id="text_41">
    <text style="font: 10px 'sans-serif'; text-anchor: middle" x="391.12317" y="118.913684" transform="rotate(-0, 391.12317, 118.913684)">21</text>
   </g>
   <g id="text_42">
    <text style="font: 10px 'sans-serif'; text-anchor: middle" x="396.835554" y="65.861053" transform="rotate(-0, 396.835554, 65.861053)">20</text>
   </g>
   <g id="text_43">
    <text style="font: 10px 'sans-serif'; text-anchor: middle" x="414.777952" y="171.966316" transform="rotate(-0, 414.777952, 171.966316)">6</text>
   </g>
   <g id="text_44">
    <text style="font: 10px 'sans-serif'; text-anchor: middle" x="427.005654" y="118.913684" transform="rotate(-0, 427.005654, 118.913684)">7</text>
   </g>
   <g id="text_45">
    <text style="font: 10px 'sans-serif'; text-anchor: middle" x="449.017599" y="65.861053" transform="rotate(-0, 449.017599, 65.861053)">21</text>
   </g>
   <g id="text_46">
    <text style="font: 10px 'sans-serif'; text-anchor: middle" x="189.800448" y="225.018947" transform="rotate(-0, 189.800448, 225.018947)">22</text>
   </g>
   <g id="text_47">
    <text style="font: 10px 'sans-serif'; text-anchor: middle" x="205.33002" y="171.966316" transform="rotate(-0, 205.33002, 171.966316)">26</text>
   </g>
   <g id="text_48">
    <text style="font: 10px 'sans-serif'; text-anchor: middle" x="207.489277" y="118.913684" transform="rotate(-0, 207.489277, 118.913684)">17</text>
   </g>
   <g id="text_49">
    <text style="font: 10px 'sans-serif'; text-anchor: middle" x="240.289419" y="65.861053" transform="rotate(-0, 240.289419, 65.861053)">12</text>
   </g>
   <g id="text_50">
    <text style="font: 10px 'sans-serif'; text-anchor: middle" x="261.970869" y="225.018947" transform="rotate(-0, 261.970869, 225.018947)">36</text>
   </g>
   <g id="text_51">
    <text style="font: 10px 'sans-serif'; text-anchor: middle" x="274.426245" y="171.966316" transform="rotate(-0, 274.426245, 171.966316)">29</text>
   </g>
   <g id="text_52">
    <text style="font: 10px 'sans-serif'; text-anchor: middle" x="265.182684" y="118.913684" transform="rotate(-0, 265.182684, 118.913684)">29</text>
   </g>
   <g id="text_53">
    <text style="font: 10px 'sans-serif'; text-anchor: middle" x="274.580477" y="65.861053" transform="rotate(-0, 274.580477, 65.861053)">15</text>
   </g>
   <g id="text_54">
    <text style="font: 10px 'sans-serif'; text-anchor: middle" x="332.726185" y="225.018947" transform="rotate(-0, 332.726185, 225.018947)">21</text>
   </g>
   <g id="text_55">
    <text style="font: 10px 'sans-serif'; text-anchor: middle" x="332.726185" y="171.966316" transform="rotate(-0, 332.726185, 171.966316)">18</text>
   </g>
   <g id="text_56">
    <text style="font: 10px 'sans-serif'; text-anchor: middle" x="332.726185" y="118.913684" transform="rotate(-0, 332.726185, 118.913684)">25</text>
   </g>
   <g id="text_57">
    <text style="font: 10px 'sans-serif'; text-anchor: middle" x="332.726185" y="65.861053" transform="rotate(-0, 332.726185, 65.861053)">31</text>
   </g>
   <g id="text_58">
    <text style="font: 10px 'sans-serif'; text-anchor: middle" x="380.839799" y="225.018947" transform="rotate(-0, 380.839799, 225.018947)">18</text>
   </g>
   <g id="text_59">
    <text style="font: 10px 'sans-serif'; text-anchor: middle" x="380.949592" y="171.966316" transform="rotate(-0, 380.949592, 171.966316)">21</text>
   </g>
   <g id="text_60">
    <text style="font: 10px 'sans-serif'; text-anchor: middle" x="391.12317" y="118.913684" transform="rotate(-0, 391.12317, 118.913684)">21</text>
   </g>
   <g id="text_61">
    <text style="font: 10px 'sans-serif'; text-anchor: middle" x="396.835554" y="65.861053" transform="rotate(-0, 396.835554, 65.861053)">20</text>
   </g>
   <g id="text_62">
    <text style="font: 10px 'sans-serif'; text-anchor: middle" x="414.777952" y="171.966316" transform="rotate(-0, 414.777952, 171.966316)">6</text>
   </g>
   <g id="text_63">
    <text style="font: 10px 'sans-serif'; text-anchor: middle" x="427.005654" y="118.913684" transform="rotate(-0, 427.005654, 118.913684)">7</text>
   </g>
   <g id="text_64">
    <text style="font: 10px 'sans-serif'; text-anchor: middle" x="449.017599" y="65.861053" transform="rotate(-0, 449.017599, 65.861053)">21</text>
   </g>
   <g id="text_65">
    <text style="font: 10px 'sans-serif'; text-anchor: middle" x="189.800448" y="225.018947" transform="rotate(-0, 189.800448, 225.018947)">22</text>
   </g>
   <g id="text_66">
    <text style="font: 10px 'sans-serif'; text-anchor: middle" x="205.33002" y="171.966316" transform="rotate(-0, 205.33002, 171.966316)">26</text>
   </g>
   <g id="text_67">
    <text style="font: 10px 'sans-serif'; text-anchor: middle" x="207.489277" y="118.913684" transform="rotate(-0, 207.489277, 118.913684)">17</text>
   </g>
   <g id="text_68">
    <text style="font: 10px 'sans-serif'; text-anchor: middle" x="240.289419" y="65.861053" transform="rotate(-0, 240.289419, 65.861053)">12</text>
   </g>
   <g id="text_69">
    <text style="font: 10px 'sans-serif'; text-anchor: middle" x="261.970869" y="225.018947" transform="rotate(-0, 261.970869, 225.018947)">36</text>
   </g>
   <g id="text_70">
    <text style="font: 10px 'sans-serif'; text-anchor: middle" x="274.426245" y="171.966316" transform="rotate(-0, 274.426245, 171.966316)">29</text>
   </g>
   <g id="text_71">
    <text style="font: 10px 'sans-serif'; text-anchor: middle" x="265.182684" y="118.913684" transform="rotate(-0, 265.182684, 118.913684)">29</text>
   </g>
   <g id="text_72">
    <text style="font: 10px 'sans-serif'; text-anchor: middle" x="274.580477" y="65.861053" transform="rotate(-0, 274.580477, 65.861053)">15</text>
   </g>
   <g id="text_73">
    <text style="font: 10px 'sans-serif'; text-anchor: middle" x="332.726185" y="225.018947" transform="rotate(-0, 332.726185, 225.018947)">21</text>
   </g>
   <g id="text_74">
    <text style="font: 10px 'sans-serif'; text-anchor: middle" x="332.726185" y="171.966316" transform="rotate(-0, 332.726185, 171.966316)">18</text>
   </g>
   <g id="text_75">
    <text style="font: 10px 'sans-serif'; text-anchor: middle" x="332.726185" y="118.913684" transform="rotate(-0, 332.726185, 118.913684)">25</text>
   </g>
   <g id="text_76">
    <text style="font: 10px 'sans-serif'; text-anchor: middle" x="332.726185" y="65.861053" transform="rotate(-0, 332.726185, 65.861053)">31</text>
   </g>
   <g id="text_77">
    <text style="font: 10px 'sans-serif'; text-anchor: middle" x="380.839799" y="225.018947" transform="rotate(-0, 380.839799, 225.018947)">18</text>
   </g>
   <g id="text_78">
    <text style="font: 10px 'sans-serif'; text-anchor: middle" x="380.949592" y="171.966316" transform="rotate(-0, 380.949592, 171.966316)">21</text>
   </g>
   <g id="text_79">
    <text style="font: 10px 'sans-serif'; text-anchor: middle" x="391.12317" y="118.913684" transform="rotate(-0, 391.12317, 118.913684)">21</text>
   </g>
   <g id="text_80">
    <text style="font: 10px 'sans-serif'; text-anchor: middle" x="396.835554" y="65.861053" transform="rotate(-0, 396.835554, 65.861053)">20</text>
   </g>
   <g id="text_81">
    <text style="font: 10px 'sans-serif'; text-anchor: middle" x="414.777952" y="171.966316" transform="rotate(-0, 414.777952, 171.966316)">6</text>
   </g>
   <g id="text_82">
    <text style="font: 10px 'sans-serif'; text-anchor: middle" x="427.005654" y="118.913684" transform="rotate(-0, 427.005654, 118.913684)">7</text>
   </g>
   <g id="text_83">
    <text style="font: 10px 'sans-serif'; text-anchor: middle" x="449.017599" y="65.861053" transform="rotate(-0, 449.017599, 65.861053)">21</text>
   </g>
   <g id="text_84">
    <text style="font: 10px 'sans-serif'; text-anchor: middle" x="189.800448" y="225.018947" transform="rotate(-0, 189.800448, 225.018947)">22</text>
   </g>
   <g id="text_85">
    <text style="font: 10px 'sans-serif'; text-anchor: middle" x="205.33002" y="171.966316" transform="rotate(-0, 205.33002, 171.966316)">26</text>
   </g>
   <g id="text_86">
    <text style="font: 10px 'sans-serif'; text-anchor: middle" x="207.489277" y="118.913684" transform="rotate(-0, 207.489277, 118.913684)">17</text>
   </g>
   <g id="text_87">
    <text style="font: 10px 'sans-serif'; text-anchor: middle" x="240.289419" y="65.861053" transform="rotate(-0, 240.289419, 65.861053)">12</text>
   </g>
   <g id="text_88">
    <text style="font: 10px 'sans-serif'; text-anchor: middle" x="261.970869" y="225.018947" transform="rotate(-0, 261.970869, 225.018947)">36</text>
   </g>
   <g id="text_89">
    <text style="font: 10px 'sans-serif'; text-anchor: middle" x="274.426245" y="171.966316" transform="rotate(-0, 274.426245, 171.966316)">29</text>
   </g>
   <g id="text_90">
    <text style="font: 10px 'sans-serif'; text-anchor: middle" x="265.182684" y="118.913684" transform="rotate(-0, 265.182684, 118.913684)">29</text>
   </g>
   <g id="text_91">
    <text style="font: 10px 'sans-serif'; text-anchor: middle" x="274.580477" y="65.861053" transform="rotate(-0, 274.580477, 65.861053)">15</text>
   </g>
   <g id="text_92">
    <text style="font: 10px 'sans-serif'; text-anchor: middle" x="332.726185" y="225.018947" transform="rotate(-0, 332.726185, 225.018947)">21</text>
   </g>
   <g id="text_93">
    <text style="font: 10px 'sans-serif'; text-anchor: middle" x="332.726185" y="171.966316" transform="rotate(-0, 332.726185, 171.966316)">18</text>
   </g>
   <g id="text_94">
    <text style="font: 10px 'sans-serif'; text-anchor: middle" x="332.726185" y="118.913684" transform="rotate(-0, 332.726185, 118.913684)">25</text>
   </g>
   <g id="text_95">
    <text style="font: 10px 'sans-serif'; text-anchor: middle" x="332.726185" y="65.861053" transform="rotate(-0, 332.726185, 65.861053)">31</text>
   </g>
   <g id="text_96">
    <text style="font: 10px 'sans-serif'; text-anchor: middle" x="380.839799" y="225.018947" transform="rotate(-0, 380.839799, 225.018947)">18</text>
   </g>
   <g id="text_97">
    <text style="font: 10px 'sans-serif'; text-anchor: middle" x="380.949592" y="171.966316" transform="rotate(-0, 380.949592, 171.966316)">21</text>
   </g>
   <g id="text_98">
    <text style="font: 10px 'sans-serif'; text-anchor: middle" x="391.12317" y="118.913684" transform="rotate(-0, 391.12317, 118.913684)">21</text>
   </g>
   <g id="text_99">
    <text style="font: 10px 'sans-serif'; text-anchor: middle" x="396.835554" y="65.861053" transform="rotate(-0, 396.835554, 65.861053)">20</text>
   </g>
   <g id="text_100">
    <text style="font: 10px 'sans-serif'; text-anchor: middle" x="414.777952" y="171.966316" transform="rotate(-0, 414.777952, 171.966316)">6</text>
   </g>
   <g id="text_101">
    <text style="font: 10px 'sans-serif'; text-anchor: middle" x="427.005654" y="118.913684" transform="rotate(-0, 427.005654, 118.913684)">7</text>
   </g>
   <g id="text_102">
    <text style="font: 10px 'sans-serif'; text-anchor: middle" x="449.017599" y="65.861053" transform="rotate(-0, 449.017599, 65.861053)">21</text>
   </g>
   <g id="text_103">
    <text style="font: 12px 'sans-serif'; text-anchor: middle" x="332.1" y="28.56" transform="rotate(-0, 332.1, 28.56)">World: Progression in the current role</text>
   </g>
   <g id="legend_1">
    <g id="patch_84">
     <path d="M 88 251.32 
L 576.2 251.32 
Q 578.2 251.32 578.2 249.32 
L 578.2 235.73875 
Q 578.2 233.73875 576.2 233.73875 
L 88 233.73875 
Q 86 233.73875 86 235.73875 
L 86 249.32 
Q 86 251.32 88 251.32 
z
" style="fill: #ffffff; opacity: 0.8; stroke: #cccccc; stroke-linejoin: miter"/>
    </g>
    <g id="patch_85">
     <path d="M 90 245.1075 
L 110 245.1075 
L 110 238.1075 
L 90 238.1075 
z
" style="fill: #67001f"/>
    </g>
    <g id="text_104">
     <text style="font: 10px 'sans-serif'; text-anchor: start" x="118" y="245.1075" transform="rotate(-0, 118, 245.1075)">Strongly disagree</text>
    </g>
    <g id="patch_86">
     <path d="M 200.854688 245.1075 
L 220.854688 245.1075 
L 220.854688 238.1075 
L 200.854688 238.1075 
z
" style="fill: #e58368"/>
    </g>
    <g id="text_105">
     <text style="font: 10px 'sans-serif'; text-anchor: start" x="228.854688" y="245.1075" transform="rotate(-0, 228.854688, 245.1075)">Disagree</text>
    </g>
    <g id="patch_87">
     <path d="M 273.909375 245.1075 
L 293.909375 245.1075 
L 293.909375 238.1075 
L 273.909375 238.1075 
z
" style="fill: #f6f7f7"/>
    </g>
    <g id="text_106">
     <text style="font: 10px 'sans-serif'; text-anchor: start" x="301.909375" y="245.1075" transform="rotate(-0, 301.909375, 245.1075)">Neither agree or disagree</text>
    </g>
    <g id="patch_88">
     <path d="M 420.335938 245.1075 
L 440.335938 245.1075 
L 440.335938 238.1075 
L 420.335938 238.1075 
z
" style="fill: #68abd0"/>
    </g>
    <g id="text_107">
     <text style="font: 10px 'sans-serif'; text-anchor: start" x="448.335938" y="245.1075" transform="rotate(-0, 448.335938, 245.1075)">Agree</text>
    </g>
    <g id="patch_89">
     <path d="M 480.05625 245.1075 
L 500.05625 245.1075 
L 500.05625 238.1075 
L 480.05625 238.1075 
z
" style="fill: #053061"/>
    </g>
    <g id="text_108">
     <text style="font: 10px 'sans-serif'; text-anchor: start" x="508.05625" y="245.1075" transform="rotate(-0, 508.05625, 245.1075)">Strongly Agree</text>
    </g>
   </g>
  </g>
 </g>
 <defs>
  <clipPath id="p759a6061cf">
   <rect x="81" y="34.56" width="502.2" height="221.76"/>
  </clipPath>
 </defs>
</svg>
