<?xml version="1.0" encoding="utf-8" standalone="no"?>
<!DOCTYPE svg PUBLIC "-//W3C//DTD SVG 1.1//EN"
  "http://www.w3.org/Graphics/SVG/1.1/DTD/svg11.dtd">
<svg xmlns:xlink="http://www.w3.org/1999/xlink" width="504pt" height="360pt" viewBox="0 0 504 360" xmlns="http://www.w3.org/2000/svg" version="1.1">
 <metadata>
  <rdf:RDF xmlns:dc="http://purl.org/dc/elements/1.1/" xmlns:cc="http://creativecommons.org/ns#" xmlns:rdf="http://www.w3.org/1999/02/22-rdf-syntax-ns#">
   <cc:Work>
    <dc:type rdf:resource="http://purl.org/dc/dcmitype/StillImage"/>
    <dc:date>2022-03-21T16:07:45.006232</dc:date>
    <dc:format>image/svg+xml</dc:format>
    <dc:creator>
     <cc:Agent>
      <dc:title>Matplotlib v3.5.1, https://matplotlib.org/</dc:title>
     </cc:Agent>
    </dc:creator>
   </cc:Work>
  </rdf:RDF>
 </metadata>
 <defs>
  <style type="text/css">*{stroke-linejoin: round; stroke-linecap: butt}</style>
 </defs>
 <g id="figure_1">
  <g id="patch_1">
   <path d="M 0 360 
L 504 360 
L 504 0 
L 0 0 
z
" style="fill: #ffffff"/>
  </g>
  <g id="axes_1">
   <g id="patch_2">
    <path d="M 62.86875 237.858259 
L 493.2 237.858259 
L 493.2 25.43625 
L 62.86875 25.43625 
z
" style="fill: #ffffff"/>
   </g>
   <g id="patch_3">
    <path d="M 62.86875 227.237158 
L 160.20558 227.237158 
L 160.20558 205.994958 
L 62.86875 205.994958 
z
" clip-path="url(#pf7cffc568b)" style="fill: #1f77b4"/>
   </g>
   <g id="patch_4">
    <path d="M 62.86875 184.752757 
L 139.713616 184.752757 
L 139.713616 163.510556 
L 62.86875 163.510556 
z
" clip-path="url(#pf7cffc568b)" style="fill: #1f77b4"/>
   </g>
   <g id="patch_5">
    <path d="M 62.86875 142.268355 
L 109.559302 142.268355 
L 109.559302 121.026154 
L 62.86875 121.026154 
z
" clip-path="url(#pf7cffc568b)" style="fill: #1f77b4"/>
   </g>
   <g id="patch_6">
    <path d="M 62.86875 99.783953 
L 102.714236 99.783953 
L 102.714236 78.541752 
L 62.86875 78.541752 
z
" clip-path="url(#pf7cffc568b)" style="fill: #1f77b4"/>
   </g>
   <g id="patch_7">
    <path d="M 62.86875 57.299551 
L 109.391047 57.299551 
L 109.391047 36.05735 
L 62.86875 36.05735 
z
" clip-path="url(#pf7cffc568b)" style="fill: #1f77b4"/>
   </g>
   <g id="patch_8">
    <path d="M 160.20558 227.237158 
L 247.296429 227.237158 
L 247.296429 205.994958 
L 160.20558 205.994958 
z
" clip-path="url(#pf7cffc568b)" style="fill: #ff7f0e"/>
   </g>
   <g id="patch_9">
    <path d="M 139.713616 184.752757 
L 182.405208 184.752757 
L 182.405208 163.510556 
L 139.713616 163.510556 
z
" clip-path="url(#pf7cffc568b)" style="fill: #ff7f0e"/>
   </g>
   <g id="patch_10">
    <path d="M 109.559302 142.268355 
L 168.354811 142.268355 
L 168.354811 121.026154 
L 109.559302 121.026154 
z
" clip-path="url(#pf7cffc568b)" style="fill: #ff7f0e"/>
   </g>
   <g id="patch_11">
    <path d="M 102.714236 99.783953 
L 161.533763 99.783953 
L 161.533763 78.541752 
L 102.714236 78.541752 
z
" clip-path="url(#pf7cffc568b)" style="fill: #ff7f0e"/>
   </g>
   <g id="patch_12">
    <path d="M 109.391047 57.299551 
L 149.267302 57.299551 
L 149.267302 36.05735 
L 109.391047 36.05735 
z
" clip-path="url(#pf7cffc568b)" style="fill: #ff7f0e"/>
   </g>
   <g id="patch_13">
    <path d="M 247.296429 227.237158 
L 332.679613 227.237158 
L 332.679613 205.994958 
L 247.296429 205.994958 
z
" clip-path="url(#pf7cffc568b)" style="fill: #2ca02c"/>
   </g>
   <g id="patch_14">
    <path d="M 182.405208 184.752757 
L 260.957738 184.752757 
L 260.957738 163.510556 
L 182.405208 163.510556 
z
" clip-path="url(#pf7cffc568b)" style="fill: #2ca02c"/>
   </g>
   <g id="patch_15">
    <path d="M 168.354811 142.268355 
L 218.503922 142.268355 
L 218.503922 121.026154 
L 168.354811 121.026154 
z
" clip-path="url(#pf7cffc568b)" style="fill: #2ca02c"/>
   </g>
   <g id="patch_16">
    <path d="M 161.533763 99.783953 
L 205.174058 99.783953 
L 205.174058 78.541752 
L 161.533763 78.541752 
z
" clip-path="url(#pf7cffc568b)" style="fill: #2ca02c"/>
   </g>
   <g id="patch_17">
    <path d="M 149.267302 57.299551 
L 171.420777 57.299551 
L 171.420777 36.05735 
L 149.267302 36.05735 
z
" clip-path="url(#pf7cffc568b)" style="fill: #2ca02c"/>
   </g>
   <g id="patch_18">
    <path d="M 332.679613 227.237158 
L 378.786533 227.237158 
L 378.786533 205.994958 
L 332.679613 205.994958 
z
" clip-path="url(#pf7cffc568b)" style="fill: #d62728"/>
   </g>
   <g id="patch_19">
    <path d="M 260.957738 184.752757 
L 305.356994 184.752757 
L 305.356994 163.510556 
L 260.957738 163.510556 
z
" clip-path="url(#pf7cffc568b)" style="fill: #d62728"/>
   </g>
   <g id="patch_20">
    <path d="M 218.503922 142.268355 
L 275.570151 142.268355 
L 275.570151 121.026154 
L 218.503922 121.026154 
z
" clip-path="url(#pf7cffc568b)" style="fill: #d62728"/>
   </g>
   <g id="patch_21">
    <path d="M 205.174058 99.783953 
L 263.993585 99.783953 
L 263.993585 78.541752 
L 205.174058 78.541752 
z
" clip-path="url(#pf7cffc568b)" style="fill: #d62728"/>
   </g>
   <g id="patch_22">
    <path d="M 171.420777 57.299551 
L 213.512379 57.299551 
L 213.512379 36.05735 
L 171.420777 36.05735 
z
" clip-path="url(#pf7cffc568b)" style="fill: #d62728"/>
   </g>
   <g id="patch_23">
    <path d="M 378.786533 227.237158 
L 402.693824 227.237158 
L 402.693824 205.994958 
L 378.786533 205.994958 
z
" clip-path="url(#pf7cffc568b)" style="fill: #9467bd"/>
   </g>
   <g id="patch_24">
    <path d="M 305.356994 184.752757 
L 322.433631 184.752757 
L 322.433631 163.510556 
L 305.356994 163.510556 
z
" clip-path="url(#pf7cffc568b)" style="fill: #9467bd"/>
   </g>
   <g id="patch_25">
    <path d="M 275.570151 142.268355 
L 306.697186 142.268355 
L 306.697186 121.026154 
L 275.570151 121.026154 
z
" clip-path="url(#pf7cffc568b)" style="fill: #9467bd"/>
   </g>
   <g id="patch_26">
    <path d="M 263.993585 99.783953 
L 294.35205 99.783953 
L 294.35205 78.541752 
L 263.993585 78.541752 
z
" clip-path="url(#pf7cffc568b)" style="fill: #9467bd"/>
   </g>
   <g id="patch_27">
    <path d="M 213.512379 57.299551 
L 240.096549 57.299551 
L 240.096549 36.05735 
L 213.512379 36.05735 
z
" clip-path="url(#pf7cffc568b)" style="fill: #9467bd"/>
   </g>
   <g id="patch_28">
    <path d="M 402.693824 227.237158 
L 424.893452 227.237158 
L 424.893452 205.994958 
L 402.693824 205.994958 
z
" clip-path="url(#pf7cffc568b)" style="fill: #8c564b"/>
   </g>
   <g id="patch_29">
    <path d="M 322.433631 184.752757 
L 373.663542 184.752757 
L 373.663542 163.510556 
L 322.433631 163.510556 
z
" clip-path="url(#pf7cffc568b)" style="fill: #8c564b"/>
   </g>
   <g id="patch_30">
    <path d="M 306.697186 142.268355 
L 346.470619 142.268355 
L 346.470619 121.026154 
L 306.697186 121.026154 
z
" clip-path="url(#pf7cffc568b)" style="fill: #8c564b"/>
   </g>
   <g id="patch_31">
    <path d="M 294.35205 99.783953 
L 347.479365 99.783953 
L 347.479365 78.541752 
L 294.35205 78.541752 
z
" clip-path="url(#pf7cffc568b)" style="fill: #8c564b"/>
   </g>
   <g id="patch_32">
    <path d="M 240.096549 57.299551 
L 293.264889 57.299551 
L 293.264889 36.05735 
L 240.096549 36.05735 
z
" clip-path="url(#pf7cffc568b)" style="fill: #8c564b"/>
   </g>
   <g id="patch_33">
    <path d="M 424.893452 227.237158 
L 445.385417 227.237158 
L 445.385417 205.994958 
L 424.893452 205.994958 
z
" clip-path="url(#pf7cffc568b)" style="fill: #e377c2"/>
   </g>
   <g id="patch_34">
    <path d="M 373.663542 184.752757 
L 426.601116 184.752757 
L 426.601116 163.510556 
L 373.663542 163.510556 
z
" clip-path="url(#pf7cffc568b)" style="fill: #e377c2"/>
   </g>
   <g id="patch_35">
    <path d="M 346.470619 142.268355 
L 394.89045 142.268355 
L 394.89045 121.026154 
L 346.470619 121.026154 
z
" clip-path="url(#pf7cffc568b)" style="fill: #e377c2"/>
   </g>
   <g id="patch_36">
    <path d="M 347.479365 99.783953 
L 398.709276 99.783953 
L 398.709276 78.541752 
L 347.479365 78.541752 
z
" clip-path="url(#pf7cffc568b)" style="fill: #e377c2"/>
   </g>
   <g id="patch_37">
    <path d="M 293.264889 57.299551 
L 353.079271 57.299551 
L 353.079271 36.05735 
L 293.264889 36.05735 
z
" clip-path="url(#pf7cffc568b)" style="fill: #e377c2"/>
   </g>
   <g id="patch_38">
    <path d="M 445.385417 227.237158 
L 464.169717 227.237158 
L 464.169717 205.994958 
L 445.385417 205.994958 
z
" clip-path="url(#pf7cffc568b)" style="fill: #7f7f7f"/>
   </g>
   <g id="patch_39">
    <path d="M 426.601116 184.752757 
L 452.216071 184.752757 
L 452.216071 163.510556 
L 426.601116 163.510556 
z
" clip-path="url(#pf7cffc568b)" style="fill: #7f7f7f"/>
   </g>
   <g id="patch_40">
    <path d="M 394.89045 142.268355 
L 457.144519 142.268355 
L 457.144519 121.026154 
L 394.89045 121.026154 
z
" clip-path="url(#pf7cffc568b)" style="fill: #7f7f7f"/>
   </g>
   <g id="patch_41">
    <path d="M 398.709276 99.783953 
L 442.34957 99.783953 
L 442.34957 78.541752 
L 398.709276 78.541752 
z
" clip-path="url(#pf7cffc568b)" style="fill: #7f7f7f"/>
   </g>
   <g id="patch_42">
    <path d="M 353.079271 57.299551 
L 437.262476 57.299551 
L 437.262476 36.05735 
L 353.079271 36.05735 
z
" clip-path="url(#pf7cffc568b)" style="fill: #7f7f7f"/>
   </g>
   <g id="patch_43">
    <path d="M 464.169717 227.237158 
L 472.708036 227.237158 
L 472.708036 205.994958 
L 464.169717 205.994958 
z
" clip-path="url(#pf7cffc568b)" style="fill: #bcbd22"/>
   </g>
   <g id="patch_44">
    <path d="M 452.216071 184.752757 
L 472.708036 184.752757 
L 472.708036 163.510556 
L 452.216071 163.510556 
z
" clip-path="url(#pf7cffc568b)" style="fill: #bcbd22"/>
   </g>
   <g id="patch_45">
    <path d="M 457.144519 142.268355 
L 472.708036 142.268355 
L 472.708036 121.026154 
L 457.144519 121.026154 
z
" clip-path="url(#pf7cffc568b)" style="fill: #bcbd22"/>
   </g>
   <g id="patch_46">
    <path d="M 442.34957 99.783953 
L 472.708036 99.783953 
L 472.708036 78.541752 
L 442.34957 78.541752 
z
" clip-path="url(#pf7cffc568b)" style="fill: #bcbd22"/>
   </g>
   <g id="patch_47">
    <path d="M 437.262476 57.299551 
L 472.708036 57.299551 
L 472.708036 36.05735 
L 437.262476 36.05735 
z
" clip-path="url(#pf7cffc568b)" style="fill: #bcbd22"/>
   </g>
   <g id="matplotlib.axis_1">
    <g id="xtick_1">
     <g id="line2d_1">
      <defs>
       <path id="m4c99cd72f3" d="M 0 0 
L 0 3.5 
" style="stroke: #000000; stroke-width: 0.8"/>
      </defs>
      <g>
       <use xlink:href="#m4c99cd72f3" x="62.86875" y="237.858259" style="stroke: #000000; stroke-width: 0.8"/>
      </g>
     </g>
     <g id="text_1">
      <text style="font: 10px 'sans-serif'; text-anchor: middle" x="62.86875" y="252.031696" transform="rotate(-0, 62.86875, 252.031696)">0</text>
     </g>
    </g>
    <g id="xtick_2">
     <g id="line2d_2">
      <g>
       <use xlink:href="#m4c99cd72f3" x="144.836607" y="237.858259" style="stroke: #000000; stroke-width: 0.8"/>
      </g>
     </g>
     <g id="text_2">
      <text style="font: 10px 'sans-serif'; text-anchor: middle" x="144.836607" y="252.031696" transform="rotate(-0, 144.836607, 252.031696)">20</text>
     </g>
    </g>
    <g id="xtick_3">
     <g id="line2d_3">
      <g>
       <use xlink:href="#m4c99cd72f3" x="226.804464" y="237.858259" style="stroke: #000000; stroke-width: 0.8"/>
      </g>
     </g>
     <g id="text_3">
      <text style="font: 10px 'sans-serif'; text-anchor: middle" x="226.804464" y="252.031696" transform="rotate(-0, 226.804464, 252.031696)">40</text>
     </g>
    </g>
    <g id="xtick_4">
     <g id="line2d_4">
      <g>
       <use xlink:href="#m4c99cd72f3" x="308.772321" y="237.858259" style="stroke: #000000; stroke-width: 0.8"/>
      </g>
     </g>
     <g id="text_4">
      <text style="font: 10px 'sans-serif'; text-anchor: middle" x="308.772321" y="252.031696" transform="rotate(-0, 308.772321, 252.031696)">60</text>
     </g>
    </g>
    <g id="xtick_5">
     <g id="line2d_5">
      <g>
       <use xlink:href="#m4c99cd72f3" x="390.740179" y="237.858259" style="stroke: #000000; stroke-width: 0.8"/>
      </g>
     </g>
     <g id="text_5">
      <text style="font: 10px 'sans-serif'; text-anchor: middle" x="390.740179" y="252.031696" transform="rotate(-0, 390.740179, 252.031696)">80</text>
     </g>
    </g>
    <g id="xtick_6">
     <g id="line2d_6">
      <g>
       <use xlink:href="#m4c99cd72f3" x="472.708036" y="237.858259" style="stroke: #000000; stroke-width: 0.8"/>
      </g>
     </g>
     <g id="text_6">
      <text style="font: 10px 'sans-serif'; text-anchor: middle" x="472.708036" y="252.031696" transform="rotate(-0, 472.708036, 252.031696)">100</text>
     </g>
    </g>
    <g id="text_7">
     <text style="font: 10px 'sans-serif'; text-anchor: middle" x="278.034375" y="265.391071" transform="rotate(-0, 278.034375, 265.391071)">Ranking of importance</text>
    </g>
   </g>
   <g id="matplotlib.axis_2">
    <g id="ytick_1">
     <g id="line2d_7">
      <defs>
       <path id="m8e343aef83" d="M 0 0 
L -3.5 0 
" style="stroke: #000000; stroke-width: 0.8"/>
      </defs>
      <g>
       <use xlink:href="#m8e343aef83" x="62.86875" y="216.616058" style="stroke: #000000; stroke-width: 0.8"/>
      </g>
     </g>
     <g id="text_8">
      <text style="font: 10px 'sans-serif'; text-anchor: end" x="55.86875" y="220.202777" transform="rotate(-0, 55.86875, 220.202777)">Rank 1</text>
     </g>
    </g>
    <g id="ytick_2">
     <g id="line2d_8">
      <g>
       <use xlink:href="#m8e343aef83" x="62.86875" y="174.131656" style="stroke: #000000; stroke-width: 0.8"/>
      </g>
     </g>
     <g id="text_9">
      <text style="font: 10px 'sans-serif'; text-anchor: end" x="55.86875" y="177.718375" transform="rotate(-0, 55.86875, 177.718375)">Rank 2</text>
     </g>
    </g>
    <g id="ytick_3">
     <g id="line2d_9">
      <g>
       <use xlink:href="#m8e343aef83" x="62.86875" y="131.647254" style="stroke: #000000; stroke-width: 0.8"/>
      </g>
     </g>
     <g id="text_10">
      <text style="font: 10px 'sans-serif'; text-anchor: end" x="55.86875" y="135.233973" transform="rotate(-0, 55.86875, 135.233973)">Rank 3</text>
     </g>
    </g>
    <g id="ytick_4">
     <g id="line2d_10">
      <g>
       <use xlink:href="#m8e343aef83" x="62.86875" y="89.162853" style="stroke: #000000; stroke-width: 0.8"/>
      </g>
     </g>
     <g id="text_11">
      <text style="font: 10px 'sans-serif'; text-anchor: end" x="55.86875" y="92.749571" transform="rotate(-0, 55.86875, 92.749571)">Rank 4</text>
     </g>
    </g>
    <g id="ytick_5">
     <g id="line2d_11">
      <g>
       <use xlink:href="#m8e343aef83" x="62.86875" y="46.678451" style="stroke: #000000; stroke-width: 0.8"/>
      </g>
     </g>
     <g id="text_12">
      <text style="font: 10px 'sans-serif'; text-anchor: end" x="55.86875" y="50.26517" transform="rotate(-0, 55.86875, 50.26517)">Rank 5</text>
     </g>
    </g>
    <g id="text_13">
     <text style="font: 10px 'sans-serif'; text-anchor: middle" x="17.973438" y="131.647254" transform="rotate(-90, 17.973438, 131.647254)">Percentage</text>
    </g>
   </g>
   <g id="patch_48">
    <path d="M 62.86875 237.858259 
L 493.2 237.858259 
" style="fill: none; stroke: #000000; stroke-width: 0.8; stroke-linejoin: miter; stroke-linecap: square"/>
   </g>
   <g id="text_14">
    <text style="font: 10px 'sans-serif'; text-anchor: middle" x="111.537165" y="220.864498" transform="rotate(-0, 111.537165, 220.864498)">24</text>
   </g>
   <g id="text_15">
    <text style="font: 10px 'sans-serif'; text-anchor: middle" x="101.291183" y="178.380096" transform="rotate(-0, 101.291183, 178.380096)">19</text>
   </g>
   <g id="text_16">
    <text style="font: 10px 'sans-serif'; text-anchor: middle" x="86.214026" y="135.895695" transform="rotate(-0, 86.214026, 135.895695)">11</text>
   </g>
   <g id="text_17">
    <text style="font: 10px 'sans-serif'; text-anchor: middle" x="82.791493" y="93.411293" transform="rotate(-0, 82.791493, 93.411293)">10</text>
   </g>
   <g id="text_18">
    <text style="font: 10px 'sans-serif'; text-anchor: middle" x="86.129899" y="50.926891" transform="rotate(-0, 86.129899, 50.926891)">11</text>
   </g>
   <g id="text_19">
    <text style="font: 10px 'sans-serif'; text-anchor: middle" x="203.751004" y="220.864498" transform="rotate(-0, 203.751004, 220.864498)">21</text>
   </g>
   <g id="text_20">
    <text style="font: 10px 'sans-serif'; text-anchor: middle" x="161.059412" y="178.380096" transform="rotate(-0, 161.059412, 178.380096)">10</text>
   </g>
   <g id="text_21">
    <text style="font: 10px 'sans-serif'; text-anchor: middle" x="138.957056" y="135.895695" transform="rotate(-0, 138.957056, 135.895695)">14</text>
   </g>
   <g id="text_22">
    <text style="font: 10px 'sans-serif'; text-anchor: middle" x="132.124" y="93.411293" transform="rotate(-0, 132.124, 93.411293)">14</text>
   </g>
   <g id="text_23">
    <text style="font: 10px 'sans-serif'; text-anchor: middle" x="129.329175" y="50.926891" transform="rotate(-0, 129.329175, 50.926891)">10</text>
   </g>
   <g id="text_24">
    <text style="font: 10px 'sans-serif'; text-anchor: middle" x="289.988021" y="220.864498" transform="rotate(-0, 289.988021, 220.864498)">21</text>
   </g>
   <g id="text_25">
    <text style="font: 10px 'sans-serif'; text-anchor: middle" x="221.681473" y="178.380096" transform="rotate(-0, 221.681473, 178.380096)">19</text>
   </g>
   <g id="text_26">
    <text style="font: 10px 'sans-serif'; text-anchor: middle" x="193.429366" y="135.895695" transform="rotate(-0, 193.429366, 135.895695)">12</text>
   </g>
   <g id="text_27">
    <text style="font: 10px 'sans-serif'; text-anchor: middle" x="183.35391" y="93.411293" transform="rotate(-0, 183.35391, 93.411293)">11</text>
   </g>
   <g id="text_28">
    <text style="font: 10px 'sans-serif'; text-anchor: middle" x="160.34404" y="50.926891" transform="rotate(-0, 160.34404, 50.926891)">5</text>
   </g>
   <g id="text_29">
    <text style="font: 10px 'sans-serif'; text-anchor: middle" x="355.733073" y="220.864498" transform="rotate(-0, 355.733073, 220.864498)">11</text>
   </g>
   <g id="text_30">
    <text style="font: 10px 'sans-serif'; text-anchor: middle" x="283.157366" y="178.380096" transform="rotate(-0, 283.157366, 178.380096)">11</text>
   </g>
   <g id="text_31">
    <text style="font: 10px 'sans-serif'; text-anchor: middle" x="247.037037" y="135.895695" transform="rotate(-0, 247.037037, 135.895695)">14</text>
   </g>
   <g id="text_32">
    <text style="font: 10px 'sans-serif'; text-anchor: middle" x="234.583821" y="93.411293" transform="rotate(-0, 234.583821, 93.411293)">14</text>
   </g>
   <g id="text_33">
    <text style="font: 10px 'sans-serif'; text-anchor: middle" x="192.466578" y="50.926891" transform="rotate(-0, 192.466578, 50.926891)">10</text>
   </g>
   <g id="text_34">
    <text style="font: 10px 'sans-serif'; text-anchor: middle" x="390.740179" y="220.864498" transform="rotate(-0, 390.740179, 220.864498)">6</text>
   </g>
   <g id="text_35">
    <text style="font: 10px 'sans-serif'; text-anchor: middle" x="291.133669" y="135.895695" transform="rotate(-0, 291.133669, 135.895695)">8</text>
   </g>
   <g id="text_36">
    <text style="font: 10px 'sans-serif'; text-anchor: middle" x="279.172817" y="93.411293" transform="rotate(-0, 279.172817, 93.411293)">7</text>
   </g>
   <g id="text_37">
    <text style="font: 10px 'sans-serif'; text-anchor: middle" x="226.804464" y="50.926891" transform="rotate(-0, 226.804464, 50.926891)">6</text>
   </g>
   <g id="text_38">
    <text style="font: 10px 'sans-serif'; text-anchor: middle" x="413.793638" y="220.864498" transform="rotate(-0, 413.793638, 220.864498)">5</text>
   </g>
   <g id="text_39">
    <text style="font: 10px 'sans-serif'; text-anchor: middle" x="348.048586" y="178.380096" transform="rotate(-0, 348.048586, 178.380096)">12</text>
   </g>
   <g id="text_40">
    <text style="font: 10px 'sans-serif'; text-anchor: middle" x="326.583902" y="135.895695" transform="rotate(-0, 326.583902, 135.895695)">10</text>
   </g>
   <g id="text_41">
    <text style="font: 10px 'sans-serif'; text-anchor: middle" x="320.915708" y="93.411293" transform="rotate(-0, 320.915708, 93.411293)">13</text>
   </g>
   <g id="text_42">
    <text style="font: 10px 'sans-serif'; text-anchor: middle" x="266.680719" y="50.926891" transform="rotate(-0, 266.680719, 50.926891)">13</text>
   </g>
   <g id="text_43">
    <text style="font: 10px 'sans-serif'; text-anchor: middle" x="435.139435" y="220.864498" transform="rotate(-0, 435.139435, 220.864498)">5</text>
   </g>
   <g id="text_44">
    <text style="font: 10px 'sans-serif'; text-anchor: middle" x="400.132329" y="178.380096" transform="rotate(-0, 400.132329, 178.380096)">13</text>
   </g>
   <g id="text_45">
    <text style="font: 10px 'sans-serif'; text-anchor: middle" x="370.680534" y="135.895695" transform="rotate(-0, 370.680534, 135.895695)">12</text>
   </g>
   <g id="text_46">
    <text style="font: 10px 'sans-serif'; text-anchor: middle" x="373.09432" y="93.411293" transform="rotate(-0, 373.09432, 93.411293)">12</text>
   </g>
   <g id="text_47">
    <text style="font: 10px 'sans-serif'; text-anchor: middle" x="323.17208" y="50.926891" transform="rotate(-0, 323.17208, 50.926891)">15</text>
   </g>
   <g id="text_48">
    <text style="font: 10px 'sans-serif'; text-anchor: middle" x="454.777567" y="220.864498" transform="rotate(-0, 454.777567, 220.864498)">5</text>
   </g>
   <g id="text_49">
    <text style="font: 10px 'sans-serif'; text-anchor: middle" x="439.408594" y="178.380096" transform="rotate(-0, 439.408594, 178.380096)">6</text>
   </g>
   <g id="text_50">
    <text style="font: 10px 'sans-serif'; text-anchor: middle" x="426.017484" y="135.895695" transform="rotate(-0, 426.017484, 135.895695)">15</text>
   </g>
   <g id="text_51">
    <text style="font: 10px 'sans-serif'; text-anchor: middle" x="420.529423" y="93.411293" transform="rotate(-0, 420.529423, 93.411293)">11</text>
   </g>
   <g id="text_52">
    <text style="font: 10px 'sans-serif'; text-anchor: middle" x="395.170874" y="50.926891" transform="rotate(-0, 395.170874, 50.926891)">21</text>
   </g>
   <g id="text_53">
    <text style="font: 10px 'sans-serif'; text-anchor: middle" x="462.462054" y="178.380096" transform="rotate(-0, 462.462054, 178.380096)">5</text>
   </g>
   <g id="text_54">
    <text style="font: 10px 'sans-serif'; text-anchor: middle" x="457.528803" y="93.411293" transform="rotate(-0, 457.528803, 93.411293)">7</text>
   </g>
   <g id="text_55">
    <text style="font: 10px 'sans-serif'; text-anchor: middle" x="454.985256" y="50.926891" transform="rotate(-0, 454.985256, 50.926891)">9</text>
   </g>
   <g id="text_56">
    <text style="font: 12px 'sans-serif'; text-anchor: middle" x="278.034375" y="19.43625" transform="rotate(-0, 278.034375, 19.43625)">Reasons to choose current job: World</text>
   </g>
   <g id="legend_1">
    <g id="patch_49">
     <path d="M 72.975 349.694998 
L 483.09375 349.694998 
Q 485.09375 349.694998 485.09375 347.694998 
L 485.09375 276.72156 
Q 485.09375 274.72156 483.09375 274.72156 
L 72.975 274.72156 
Q 70.975 274.72156 70.975 276.72156 
L 70.975 347.694998 
Q 70.975 349.694998 72.975 349.694998 
z
" style="fill: #ffffff; opacity: 0.8; stroke: #cccccc; stroke-linejoin: miter"/>
    </g>
    <g id="patch_50">
     <path d="M 74.975 285.918435 
L 94.975 285.918435 
L 94.975 278.918435 
L 74.975 278.918435 
z
" style="fill: #1f77b4"/>
    </g>
    <g id="text_57">
     <text style="font: 10px 'sans-serif'; text-anchor: start" x="102.975" y="285.918435" transform="rotate(-0, 102.975, 285.918435)">Desire to work in a research environment</text>
    </g>
    <g id="patch_51">
     <path d="M 74.975 300.199685 
L 94.975 300.199685 
L 94.975 293.199685 
L 74.975 293.199685 
z
" style="fill: #ff7f0e"/>
    </g>
    <g id="text_58">
     <text style="font: 10px 'sans-serif'; text-anchor: start" x="102.975" y="300.199685" transform="rotate(-0, 102.975, 300.199685)">Freedom to choose own working practices</text>
    </g>
    <g id="patch_52">
     <path d="M 74.975 314.585623 
L 94.975 314.585623 
L 94.975 307.585623 
L 74.975 307.585623 
z
" style="fill: #2ca02c"/>
    </g>
    <g id="text_59">
     <text style="font: 10px 'sans-serif'; text-anchor: start" x="102.975" y="314.585623" transform="rotate(-0, 102.975, 314.585623)">Desire to advance research</text>
    </g>
    <g id="patch_53">
     <path d="M 74.975 329.038748 
L 94.975 329.038748 
L 94.975 322.038748 
L 74.975 322.038748 
z
" style="fill: #d62728"/>
    </g>
    <g id="text_60">
     <text style="font: 10px 'sans-serif'; text-anchor: start" x="102.975" y="329.038748" transform="rotate(-0, 102.975, 329.038748)">Opportunity to develop software</text>
    </g>
    <g id="patch_54">
     <path d="M 74.975 343.551248 
L 94.975 343.551248 
L 94.975 336.551248 
L 74.975 336.551248 
z
" style="fill: #9467bd"/>
    </g>
    <g id="text_61">
     <text style="font: 10px 'sans-serif'; text-anchor: start" x="102.975" y="343.551248" transform="rotate(-0, 102.975, 343.551248)">Opportunity for career advancement</text>
    </g>
    <g id="patch_55">
     <path d="M 310.271875 285.918435 
L 330.271875 285.918435 
L 330.271875 278.918435 
L 310.271875 278.918435 
z
" style="fill: #8c564b"/>
    </g>
    <g id="text_62">
     <text style="font: 10px 'sans-serif'; text-anchor: start" x="338.271875" y="285.918435" transform="rotate(-0, 338.271875, 285.918435)">Ability to work across disciplines</text>
    </g>
    <g id="patch_56">
     <path d="M 310.271875 300.235623 
L 330.271875 300.235623 
L 330.271875 293.235623 
L 310.271875 293.235623 
z
" style="fill: #e377c2"/>
    </g>
    <g id="text_63">
     <text style="font: 10px 'sans-serif'; text-anchor: start" x="338.271875" y="300.235623" transform="rotate(-0, 338.271875, 300.235623)">I want to learn new skills</text>
    </g>
    <g id="patch_57">
     <path d="M 310.271875 314.516873 
L 330.271875 314.516873 
L 330.271875 307.516873 
L 310.271875 307.516873 
z
" style="fill: #7f7f7f"/>
    </g>
    <g id="text_64">
     <text style="font: 10px 'sans-serif'; text-anchor: start" x="338.271875" y="314.516873" transform="rotate(-0, 338.271875, 314.516873)">Flexible working hours</text>
    </g>
    <g id="patch_58">
     <path d="M 310.271875 328.926248 
L 330.271875 328.926248 
L 330.271875 321.926248 
L 310.271875 321.926248 
z
" style="fill: #bcbd22"/>
    </g>
    <g id="text_65">
     <text style="font: 10px 'sans-serif'; text-anchor: start" x="338.271875" y="328.926248" transform="rotate(-0, 338.271875, 328.926248)">The salary</text>
    </g>
   </g>
  </g>
 </g>
 <defs>
  <clipPath id="pf7cffc568b">
   <rect x="62.86875" y="25.43625" width="430.33125" height="212.422009"/>
  </clipPath>
 </defs>
</svg>
