<?xml version="1.0" encoding="utf-8" standalone="no"?>
<!DOCTYPE svg PUBLIC "-//W3C//DTD SVG 1.1//EN"
  "http://www.w3.org/Graphics/SVG/1.1/DTD/svg11.dtd">
<svg xmlns:xlink="http://www.w3.org/1999/xlink" width="504pt" height="360pt" viewBox="0 0 504 360" xmlns="http://www.w3.org/2000/svg" version="1.1">
 <metadata>
  <rdf:RDF xmlns:dc="http://purl.org/dc/elements/1.1/" xmlns:cc="http://creativecommons.org/ns#" xmlns:rdf="http://www.w3.org/1999/02/22-rdf-syntax-ns#">
   <cc:Work>
    <dc:type rdf:resource="http://purl.org/dc/dcmitype/StillImage"/>
    <dc:date>2022-03-07T11:41:11.024199</dc:date>
    <dc:format>image/svg+xml</dc:format>
    <dc:creator>
     <cc:Agent>
      <dc:title>Matplotlib v3.5.1, https://matplotlib.org/</dc:title>
     </cc:Agent>
    </dc:creator>
   </cc:Work>
  </rdf:RDF>
 </metadata>
 <defs>
  <style type="text/css">*{stroke-linejoin: round; stroke-linecap: butt}</style>
 </defs>
 <g id="figure_1">
  <g id="patch_1">
   <path d="M 0 360 
L 504 360 
L 504 0 
L 0 0 
z
" style="fill: #ffffff"/>
  </g>
  <g id="axes_1">
   <g id="patch_2">
    <path d="M 62.86875 227.841875 
L 472.816406 227.841875 
L 472.816406 25.6425 
L 62.86875 25.6425 
z
" style="fill: #ffffff"/>
   </g>
   <g id="patch_3">
    <path d="M 62.86875 217.731906 
L 155.827402 217.731906 
L 155.827402 197.511969 
L 62.86875 197.511969 
z
" clip-path="url(#p4bb68c1837)" style="fill: #1f77b4"/>
   </g>
   <g id="patch_4">
    <path d="M 62.86875 177.292031 
L 121.090222 177.292031 
L 121.090222 157.072094 
L 62.86875 157.072094 
z
" clip-path="url(#p4bb68c1837)" style="fill: #1f77b4"/>
   </g>
   <g id="patch_5">
    <path d="M 62.86875 136.852156 
L 96.283617 136.852156 
L 96.283617 116.632219 
L 62.86875 116.632219 
z
" clip-path="url(#p4bb68c1837)" style="fill: #1f77b4"/>
   </g>
   <g id="patch_6">
    <path d="M 62.86875 96.412281 
L 125.967956 96.412281 
L 125.967956 76.192344 
L 62.86875 76.192344 
z
" clip-path="url(#p4bb68c1837)" style="fill: #1f77b4"/>
   </g>
   <g id="patch_7">
    <path d="M 62.86875 55.972406 
L 107.826935 55.972406 
L 107.826935 35.752469 
L 62.86875 35.752469 
z
" clip-path="url(#p4bb68c1837)" style="fill: #1f77b4"/>
   </g>
   <g id="patch_8">
    <path d="M 155.827402 217.731906 
L 247.095897 217.731906 
L 247.095897 197.511969 
L 155.827402 197.511969 
z
" clip-path="url(#p4bb68c1837)" style="fill: #ff7f0e"/>
   </g>
   <g id="patch_9">
    <path d="M 121.090222 177.292031 
L 204.997637 177.292031 
L 204.997637 157.072094 
L 121.090222 157.072094 
z
" clip-path="url(#p4bb68c1837)" style="fill: #ff7f0e"/>
   </g>
   <g id="patch_10">
    <path d="M 96.283617 136.852156 
L 136.733193 136.852156 
L 136.733193 116.632219 
L 96.283617 116.632219 
z
" clip-path="url(#p4bb68c1837)" style="fill: #ff7f0e"/>
   </g>
   <g id="patch_11">
    <path d="M 125.967956 96.412281 
L 165.40496 96.412281 
L 165.40496 76.192344 
L 125.967956 76.192344 
z
" clip-path="url(#p4bb68c1837)" style="fill: #ff7f0e"/>
   </g>
   <g id="patch_12">
    <path d="M 107.826935 55.972406 
L 136.221577 55.972406 
L 136.221577 35.752469 
L 107.826935 35.752469 
z
" clip-path="url(#p4bb68c1837)" style="fill: #ff7f0e"/>
   </g>
   <g id="patch_13">
    <path d="M 247.095897 217.731906 
L 319.772662 217.731906 
L 319.772662 197.511969 
L 247.095897 197.511969 
z
" clip-path="url(#p4bb68c1837)" style="fill: #2ca02c"/>
   </g>
   <g id="patch_14">
    <path d="M 204.997637 177.292031 
L 251.232335 177.292031 
L 251.232335 157.072094 
L 204.997637 157.072094 
z
" clip-path="url(#p4bb68c1837)" style="fill: #2ca02c"/>
   </g>
   <g id="patch_15">
    <path d="M 136.733193 136.852156 
L 159.595996 136.852156 
L 159.595996 116.632219 
L 136.733193 116.632219 
z
" clip-path="url(#p4bb68c1837)" style="fill: #2ca02c"/>
   </g>
   <g id="patch_16">
    <path d="M 165.40496 96.412281 
L 175.264211 96.412281 
L 175.264211 76.192344 
L 165.40496 76.192344 
z
" clip-path="url(#p4bb68c1837)" style="fill: #2ca02c"/>
   </g>
   <g id="patch_17">
    <path d="M 136.221577 55.972406 
L 150.418899 55.972406 
L 150.418899 35.752469 
L 136.221577 35.752469 
z
" clip-path="url(#p4bb68c1837)" style="fill: #2ca02c"/>
   </g>
   <g id="patch_18">
    <path d="M 319.772662 217.731906 
L 355.265965 217.731906 
L 355.265965 197.511969 
L 319.772662 197.511969 
z
" clip-path="url(#p4bb68c1837)" style="fill: #d62728"/>
   </g>
   <g id="patch_19">
    <path d="M 251.232335 177.292031 
L 299.179429 177.292031 
L 299.179429 157.072094 
L 251.232335 157.072094 
z
" clip-path="url(#p4bb68c1837)" style="fill: #d62728"/>
   </g>
   <g id="patch_20">
    <path d="M 159.595996 136.852156 
L 214.11499 136.852156 
L 214.11499 116.632219 
L 159.595996 116.632219 
z
" clip-path="url(#p4bb68c1837)" style="fill: #d62728"/>
   </g>
   <g id="patch_21">
    <path d="M 175.264211 96.412281 
L 238.363418 96.412281 
L 238.363418 76.192344 
L 175.264211 76.192344 
z
" clip-path="url(#p4bb68c1837)" style="fill: #d62728"/>
   </g>
   <g id="patch_22">
    <path d="M 150.418899 55.972406 
L 183.545982 55.972406 
L 183.545982 35.752469 
L 150.418899 35.752469 
z
" clip-path="url(#p4bb68c1837)" style="fill: #d62728"/>
   </g>
   <g id="patch_23">
    <path d="M 355.265965 217.731906 
L 385.688797 217.731906 
L 385.688797 197.511969 
L 355.265965 197.511969 
z
" clip-path="url(#p4bb68c1837)" style="fill: #9467bd"/>
   </g>
   <g id="patch_24">
    <path d="M 299.179429 177.292031 
L 338.564542 177.292031 
L 338.564542 157.072094 
L 299.179429 157.072094 
z
" clip-path="url(#p4bb68c1837)" style="fill: #9467bd"/>
   </g>
   <g id="patch_25">
    <path d="M 214.11499 136.852156 
L 266.875306 136.852156 
L 266.875306 116.632219 
L 214.11499 116.632219 
z
" clip-path="url(#p4bb68c1837)" style="fill: #9467bd"/>
   </g>
   <g id="patch_26">
    <path d="M 238.363418 96.412281 
L 303.434474 96.412281 
L 303.434474 76.192344 
L 238.363418 76.192344 
z
" clip-path="url(#p4bb68c1837)" style="fill: #9467bd"/>
   </g>
   <g id="patch_27">
    <path d="M 183.545982 55.972406 
L 235.602827 55.972406 
L 235.602827 35.752469 
L 183.545982 35.752469 
z
" clip-path="url(#p4bb68c1837)" style="fill: #9467bd"/>
   </g>
   <g id="patch_28">
    <path d="M 385.688797 217.731906 
L 414.421471 217.731906 
L 414.421471 197.511969 
L 385.688797 197.511969 
z
" clip-path="url(#p4bb68c1837)" style="fill: #8c564b"/>
   </g>
   <g id="patch_29">
    <path d="M 338.564542 177.292031 
L 396.786014 177.292031 
L 396.786014 157.072094 
L 338.564542 157.072094 
z
" clip-path="url(#p4bb68c1837)" style="fill: #8c564b"/>
   </g>
   <g id="patch_30">
    <path d="M 266.875306 136.852156 
L 342.498425 136.852156 
L 342.498425 116.632219 
L 266.875306 116.632219 
z
" clip-path="url(#p4bb68c1837)" style="fill: #8c564b"/>
   </g>
   <g id="patch_31">
    <path d="M 303.434474 96.412281 
L 372.449231 96.412281 
L 372.449231 76.192344 
L 303.434474 76.192344 
z
" clip-path="url(#p4bb68c1837)" style="fill: #8c564b"/>
   </g>
   <g id="patch_32">
    <path d="M 235.602827 55.972406 
L 297.124554 55.972406 
L 297.124554 35.752469 
L 235.602827 35.752469 
z
" clip-path="url(#p4bb68c1837)" style="fill: #8c564b"/>
   </g>
   <g id="patch_33">
    <path d="M 414.421471 217.731906 
L 436.393516 217.731906 
L 436.393516 197.511969 
L 414.421471 197.511969 
z
" clip-path="url(#p4bb68c1837)" style="fill: #e377c2"/>
   </g>
   <g id="patch_34">
    <path d="M 396.786014 177.292031 
L 407.060391 177.292031 
L 407.060391 157.072094 
L 396.786014 157.072094 
z
" clip-path="url(#p4bb68c1837)" style="fill: #e377c2"/>
   </g>
   <g id="patch_35">
    <path d="M 342.498425 136.852156 
L 381.189324 136.852156 
L 381.189324 116.632219 
L 342.498425 116.632219 
z
" clip-path="url(#p4bb68c1837)" style="fill: #e377c2"/>
   </g>
   <g id="patch_36">
    <path d="M 372.449231 96.412281 
L 390.195883 96.412281 
L 390.195883 76.192344 
L 372.449231 76.192344 
z
" clip-path="url(#p4bb68c1837)" style="fill: #e377c2"/>
   </g>
   <g id="patch_37">
    <path d="M 297.124554 55.972406 
L 339.716518 55.972406 
L 339.716518 35.752469 
L 297.124554 35.752469 
z
" clip-path="url(#p4bb68c1837)" style="fill: #e377c2"/>
   </g>
   <g id="patch_38">
    <path d="M 436.393516 217.731906 
L 448.224617 217.731906 
L 448.224617 197.511969 
L 436.393516 197.511969 
z
" clip-path="url(#p4bb68c1837)" style="fill: #7f7f7f"/>
   </g>
   <g id="patch_39">
    <path d="M 407.060391 177.292031 
L 443.020712 177.292031 
L 443.020712 157.072094 
L 407.060391 157.072094 
z
" clip-path="url(#p4bb68c1837)" style="fill: #7f7f7f"/>
   </g>
   <g id="patch_40">
    <path d="M 381.189324 136.852156 
L 435.708317 136.852156 
L 435.708317 116.632219 
L 381.189324 116.632219 
z
" clip-path="url(#p4bb68c1837)" style="fill: #7f7f7f"/>
   </g>
   <g id="patch_41">
    <path d="M 390.195883 96.412281 
L 425.689187 96.412281 
L 425.689187 76.192344 
L 390.195883 76.192344 
z
" clip-path="url(#p4bb68c1837)" style="fill: #7f7f7f"/>
   </g>
   <g id="patch_42">
    <path d="M 339.716518 55.972406 
L 408.336905 55.972406 
L 408.336905 35.752469 
L 339.716518 35.752469 
z
" clip-path="url(#p4bb68c1837)" style="fill: #7f7f7f"/>
   </g>
   <g id="patch_43">
    <path d="M 448.224617 217.731906 
L 453.295089 217.731906 
L 453.295089 197.511969 
L 448.224617 197.511969 
z
" clip-path="url(#p4bb68c1837)" style="fill: #bcbd22"/>
   </g>
   <g id="patch_44">
    <path d="M 443.020712 177.292031 
L 453.295089 177.292031 
L 453.295089 157.072094 
L 443.020712 157.072094 
z
" clip-path="url(#p4bb68c1837)" style="fill: #bcbd22"/>
   </g>
   <g id="patch_45">
    <path d="M 435.708317 136.852156 
L 453.295089 136.852156 
L 453.295089 116.632219 
L 435.708317 116.632219 
z
" clip-path="url(#p4bb68c1837)" style="fill: #bcbd22"/>
   </g>
   <g id="patch_46">
    <path d="M 425.689187 96.412281 
L 453.295089 96.412281 
L 453.295089 76.192344 
L 425.689187 76.192344 
z
" clip-path="url(#p4bb68c1837)" style="fill: #bcbd22"/>
   </g>
   <g id="patch_47">
    <path d="M 408.336905 55.972406 
L 453.295089 55.972406 
L 453.295089 35.752469 
L 408.336905 35.752469 
z
" clip-path="url(#p4bb68c1837)" style="fill: #bcbd22"/>
   </g>
   <g id="matplotlib.axis_1">
    <g id="xtick_1">
     <g id="line2d_1">
      <defs>
       <path id="m4c99cd72f3" d="M 0 0 
L 0 3.5 
" style="stroke: #000000; stroke-width: 0.8"/>
      </defs>
      <g>
       <use xlink:href="#m4c99cd72f3" x="62.86875" y="227.841875" style="stroke: #000000; stroke-width: 0.8"/>
      </g>
     </g>
     <g id="text_1">
      <text style="font: 10px 'sans-serif'; text-anchor: middle" x="62.86875" y="242.015313" transform="rotate(-0, 62.86875, 242.015313)">0</text>
     </g>
    </g>
    <g id="xtick_2">
     <g id="line2d_2">
      <g>
       <use xlink:href="#m4c99cd72f3" x="140.954018" y="227.841875" style="stroke: #000000; stroke-width: 0.8"/>
      </g>
     </g>
     <g id="text_2">
      <text style="font: 10px 'sans-serif'; text-anchor: middle" x="140.954018" y="242.015313" transform="rotate(-0, 140.954018, 242.015313)">20</text>
     </g>
    </g>
    <g id="xtick_3">
     <g id="line2d_3">
      <g>
       <use xlink:href="#m4c99cd72f3" x="219.039286" y="227.841875" style="stroke: #000000; stroke-width: 0.8"/>
      </g>
     </g>
     <g id="text_3">
      <text style="font: 10px 'sans-serif'; text-anchor: middle" x="219.039286" y="242.015313" transform="rotate(-0, 219.039286, 242.015313)">40</text>
     </g>
    </g>
    <g id="xtick_4">
     <g id="line2d_4">
      <g>
       <use xlink:href="#m4c99cd72f3" x="297.124554" y="227.841875" style="stroke: #000000; stroke-width: 0.8"/>
      </g>
     </g>
     <g id="text_4">
      <text style="font: 10px 'sans-serif'; text-anchor: middle" x="297.124554" y="242.015313" transform="rotate(-0, 297.124554, 242.015313)">60</text>
     </g>
    </g>
    <g id="xtick_5">
     <g id="line2d_5">
      <g>
       <use xlink:href="#m4c99cd72f3" x="375.209821" y="227.841875" style="stroke: #000000; stroke-width: 0.8"/>
      </g>
     </g>
     <g id="text_5">
      <text style="font: 10px 'sans-serif'; text-anchor: middle" x="375.209821" y="242.015313" transform="rotate(-0, 375.209821, 242.015313)">80</text>
     </g>
    </g>
    <g id="xtick_6">
     <g id="line2d_6">
      <g>
       <use xlink:href="#m4c99cd72f3" x="453.295089" y="227.841875" style="stroke: #000000; stroke-width: 0.8"/>
      </g>
     </g>
     <g id="text_6">
      <text style="font: 10px 'sans-serif'; text-anchor: middle" x="453.295089" y="242.015313" transform="rotate(-0, 453.295089, 242.015313)">100</text>
     </g>
    </g>
    <g id="text_7">
     <text style="font: 10px 'sans-serif'; text-anchor: middle" x="267.842578" y="255.374688" transform="rotate(-0, 267.842578, 255.374688)">Ranking of importance</text>
    </g>
   </g>
   <g id="matplotlib.axis_2">
    <g id="ytick_1">
     <g id="line2d_7">
      <defs>
       <path id="m8e343aef83" d="M 0 0 
L -3.5 0 
" style="stroke: #000000; stroke-width: 0.8"/>
      </defs>
      <g>
       <use xlink:href="#m8e343aef83" x="62.86875" y="207.621938" style="stroke: #000000; stroke-width: 0.8"/>
      </g>
     </g>
     <g id="text_8">
      <text style="font: 10px 'sans-serif'; text-anchor: end" x="55.86875" y="211.208656" transform="rotate(-0, 55.86875, 211.208656)">Rank 1</text>
     </g>
    </g>
    <g id="ytick_2">
     <g id="line2d_8">
      <g>
       <use xlink:href="#m8e343aef83" x="62.86875" y="167.182063" style="stroke: #000000; stroke-width: 0.8"/>
      </g>
     </g>
     <g id="text_9">
      <text style="font: 10px 'sans-serif'; text-anchor: end" x="55.86875" y="170.768781" transform="rotate(-0, 55.86875, 170.768781)">Rank 2</text>
     </g>
    </g>
    <g id="ytick_3">
     <g id="line2d_9">
      <g>
       <use xlink:href="#m8e343aef83" x="62.86875" y="126.742188" style="stroke: #000000; stroke-width: 0.8"/>
      </g>
     </g>
     <g id="text_10">
      <text style="font: 10px 'sans-serif'; text-anchor: end" x="55.86875" y="130.328906" transform="rotate(-0, 55.86875, 130.328906)">Rank 3</text>
     </g>
    </g>
    <g id="ytick_4">
     <g id="line2d_10">
      <g>
       <use xlink:href="#m8e343aef83" x="62.86875" y="86.302312" style="stroke: #000000; stroke-width: 0.8"/>
      </g>
     </g>
     <g id="text_11">
      <text style="font: 10px 'sans-serif'; text-anchor: end" x="55.86875" y="89.889031" transform="rotate(-0, 55.86875, 89.889031)">Rank 4</text>
     </g>
    </g>
    <g id="ytick_5">
     <g id="line2d_11">
      <g>
       <use xlink:href="#m8e343aef83" x="62.86875" y="45.862437" style="stroke: #000000; stroke-width: 0.8"/>
      </g>
     </g>
     <g id="text_12">
      <text style="font: 10px 'sans-serif'; text-anchor: end" x="55.86875" y="49.449156" transform="rotate(-0, 55.86875, 49.449156)">Rank 5</text>
     </g>
    </g>
    <g id="text_13">
     <text style="font: 10px 'sans-serif'; text-anchor: middle" x="17.973438" y="126.742188" transform="rotate(-90, 17.973438, 126.742188)">Percentage</text>
    </g>
   </g>
   <g id="patch_48">
    <path d="M 62.86875 227.841875 
L 472.816406 227.841875 
" style="fill: none; stroke: #000000; stroke-width: 0.8; stroke-linejoin: miter; stroke-linecap: square"/>
   </g>
   <g id="text_14">
    <text style="font: 10px 'sans-serif'; text-anchor: middle" x="109.348076" y="211.665925" transform="rotate(-0, 109.348076, 211.665925)">24</text>
   </g>
   <g id="text_15">
    <text style="font: 10px 'sans-serif'; text-anchor: middle" x="91.979486" y="171.22605" transform="rotate(-0, 91.979486, 171.22605)">15</text>
   </g>
   <g id="text_16">
    <text style="font: 10px 'sans-serif'; text-anchor: middle" x="79.576183" y="130.786175" transform="rotate(-0, 79.576183, 130.786175)">9</text>
   </g>
   <g id="text_17">
    <text style="font: 10px 'sans-serif'; text-anchor: middle" x="94.418353" y="90.3463" transform="rotate(-0, 94.418353, 90.3463)">16</text>
   </g>
   <g id="text_18">
    <text style="font: 10px 'sans-serif'; text-anchor: middle" x="85.347842" y="49.906425" transform="rotate(-0, 85.347842, 49.906425)">12</text>
   </g>
   <g id="text_19">
    <text style="font: 10px 'sans-serif'; text-anchor: middle" x="201.46165" y="211.665925" transform="rotate(-0, 201.46165, 211.665925)">23</text>
   </g>
   <g id="text_20">
    <text style="font: 10px 'sans-serif'; text-anchor: middle" x="163.043929" y="171.22605" transform="rotate(-0, 163.043929, 171.22605)">21</text>
   </g>
   <g id="text_21">
    <text style="font: 10px 'sans-serif'; text-anchor: middle" x="116.508405" y="130.786175" transform="rotate(-0, 116.508405, 130.786175)">10</text>
   </g>
   <g id="text_22">
    <text style="font: 10px 'sans-serif'; text-anchor: middle" x="145.686458" y="90.3463" transform="rotate(-0, 145.686458, 90.3463)">10</text>
   </g>
   <g id="text_23">
    <text style="font: 10px 'sans-serif'; text-anchor: middle" x="122.024256" y="49.906425" transform="rotate(-0, 122.024256, 49.906425)">7</text>
   </g>
   <g id="text_24">
    <text style="font: 10px 'sans-serif'; text-anchor: middle" x="283.434279" y="211.665925" transform="rotate(-0, 283.434279, 211.665925)">19</text>
   </g>
   <g id="text_25">
    <text style="font: 10px 'sans-serif'; text-anchor: middle" x="228.114986" y="171.22605" transform="rotate(-0, 228.114986, 171.22605)">12</text>
   </g>
   <g id="text_26">
    <text style="font: 10px 'sans-serif'; text-anchor: middle" x="148.164594" y="130.786175" transform="rotate(-0, 148.164594, 130.786175)">6</text>
   </g>
   <g id="text_27">
    <text style="font: 10px 'sans-serif'; text-anchor: middle" x="337.519313" y="211.665925" transform="rotate(-0, 337.519313, 211.665925)">9</text>
   </g>
   <g id="text_28">
    <text style="font: 10px 'sans-serif'; text-anchor: middle" x="275.205882" y="171.22605" transform="rotate(-0, 275.205882, 171.22605)">12</text>
   </g>
   <g id="text_29">
    <text style="font: 10px 'sans-serif'; text-anchor: middle" x="186.855493" y="130.786175" transform="rotate(-0, 186.855493, 130.786175)">14</text>
   </g>
   <g id="text_30">
    <text style="font: 10px 'sans-serif'; text-anchor: middle" x="206.813814" y="90.3463" transform="rotate(-0, 206.813814, 90.3463)">16</text>
   </g>
   <g id="text_31">
    <text style="font: 10px 'sans-serif'; text-anchor: middle" x="166.98244" y="49.906425" transform="rotate(-0, 166.98244, 49.906425)">8</text>
   </g>
   <g id="text_32">
    <text style="font: 10px 'sans-serif'; text-anchor: middle" x="370.477381" y="211.665925" transform="rotate(-0, 370.477381, 211.665925)">8</text>
   </g>
   <g id="text_33">
    <text style="font: 10px 'sans-serif'; text-anchor: middle" x="318.871986" y="171.22605" transform="rotate(-0, 318.871986, 171.22605)">10</text>
   </g>
   <g id="text_34">
    <text style="font: 10px 'sans-serif'; text-anchor: middle" x="240.495148" y="130.786175" transform="rotate(-0, 240.495148, 130.786175)">14</text>
   </g>
   <g id="text_35">
    <text style="font: 10px 'sans-serif'; text-anchor: middle" x="270.898946" y="90.3463" transform="rotate(-0, 270.898946, 90.3463)">17</text>
   </g>
   <g id="text_36">
    <text style="font: 10px 'sans-serif'; text-anchor: middle" x="209.574405" y="49.906425" transform="rotate(-0, 209.574405, 49.906425)">13</text>
   </g>
   <g id="text_37">
    <text style="font: 10px 'sans-serif'; text-anchor: middle" x="400.055134" y="211.665925" transform="rotate(-0, 400.055134, 211.665925)">7</text>
   </g>
   <g id="text_38">
    <text style="font: 10px 'sans-serif'; text-anchor: middle" x="367.675278" y="171.22605" transform="rotate(-0, 367.675278, 171.22605)">15</text>
   </g>
   <g id="text_39">
    <text style="font: 10px 'sans-serif'; text-anchor: middle" x="304.686866" y="130.786175" transform="rotate(-0, 304.686866, 130.786175)">19</text>
   </g>
   <g id="text_40">
    <text style="font: 10px 'sans-serif'; text-anchor: middle" x="337.941853" y="90.3463" transform="rotate(-0, 337.941853, 90.3463)">18</text>
   </g>
   <g id="text_41">
    <text style="font: 10px 'sans-serif'; text-anchor: middle" x="266.36369" y="49.906425" transform="rotate(-0, 266.36369, 49.906425)">16</text>
   </g>
   <g id="text_42">
    <text style="font: 10px 'sans-serif'; text-anchor: middle" x="425.407494" y="211.665925" transform="rotate(-0, 425.407494, 211.665925)">6</text>
   </g>
   <g id="text_43">
    <text style="font: 10px 'sans-serif'; text-anchor: middle" x="361.843875" y="130.786175" transform="rotate(-0, 361.843875, 130.786175)">10</text>
   </g>
   <g id="text_44">
    <text style="font: 10px 'sans-serif'; text-anchor: middle" x="381.322557" y="90.3463" transform="rotate(-0, 381.322557, 90.3463)">5</text>
   </g>
   <g id="text_45">
    <text style="font: 10px 'sans-serif'; text-anchor: middle" x="318.420536" y="49.906425" transform="rotate(-0, 318.420536, 49.906425)">11</text>
   </g>
   <g id="text_46">
    <text style="font: 10px 'sans-serif'; text-anchor: middle" x="425.040552" y="171.22605" transform="rotate(-0, 425.040552, 171.22605)">9</text>
   </g>
   <g id="text_47">
    <text style="font: 10px 'sans-serif'; text-anchor: middle" x="408.448821" y="130.786175" transform="rotate(-0, 408.448821, 130.786175)">14</text>
   </g>
   <g id="text_48">
    <text style="font: 10px 'sans-serif'; text-anchor: middle" x="407.942535" y="90.3463" transform="rotate(-0, 407.942535, 90.3463)">9</text>
   </g>
   <g id="text_49">
    <text style="font: 10px 'sans-serif'; text-anchor: middle" x="374.026711" y="49.906425" transform="rotate(-0, 374.026711, 49.906425)">18</text>
   </g>
   <g id="text_50">
    <text style="font: 10px 'sans-serif'; text-anchor: middle" x="444.501703" y="130.786175" transform="rotate(-0, 444.501703, 130.786175)">5</text>
   </g>
   <g id="text_51">
    <text style="font: 10px 'sans-serif'; text-anchor: middle" x="439.492138" y="90.3463" transform="rotate(-0, 439.492138, 90.3463)">7</text>
   </g>
   <g id="text_52">
    <text style="font: 10px 'sans-serif'; text-anchor: middle" x="430.815997" y="49.906425" transform="rotate(-0, 430.815997, 49.906425)">12</text>
   </g>
   <g id="text_53">
    <text style="font: 12px 'sans-serif'; text-anchor: middle" x="267.842578" y="19.6425" transform="rotate(-0, 267.842578, 19.6425)">Reasons to choose current job: Germany</text>
   </g>
   <g id="legend_1">
    <g id="patch_49">
     <path d="M 54.158984 337.949906 
L 481.526172 337.949906 
Q 483.526172 337.949906 483.526172 335.949906 
L 483.526172 265.171781 
Q 483.526172 263.171781 481.526172 263.171781 
L 54.158984 263.171781 
Q 52.158984 263.171781 52.158984 265.171781 
L 52.158984 335.949906 
Q 52.158984 337.949906 54.158984 337.949906 
z
" style="fill: #ffffff; opacity: 0.8; stroke: #cccccc; stroke-linejoin: miter"/>
    </g>
    <g id="patch_50">
     <path d="M 56.158984 274.368656 
L 76.158984 274.368656 
L 76.158984 267.368656 
L 56.158984 267.368656 
z
" style="fill: #1f77b4"/>
    </g>
    <g id="text_54">
     <text style="font: 10px 'sans-serif'; text-anchor: start" x="84.158984" y="274.368656" transform="rotate(-0, 84.158984, 274.368656)">Freedom to choose own working practices</text>
    </g>
    <g id="patch_51">
     <path d="M 56.158984 288.754594 
L 76.158984 288.754594 
L 76.158984 281.754594 
L 56.158984 281.754594 
z
" style="fill: #ff7f0e"/>
    </g>
    <g id="text_55">
     <text style="font: 10px 'sans-serif'; text-anchor: start" x="84.158984" y="288.754594" transform="rotate(-0, 84.158984, 288.754594)">Desire to work in a research environment</text>
    </g>
    <g id="patch_52">
     <path d="M 56.158984 303.012406 
L 76.158984 303.012406 
L 76.158984 296.012406 
L 56.158984 296.012406 
z
" style="fill: #2ca02c"/>
    </g>
    <g id="text_56">
     <text style="font: 10px 'sans-serif'; text-anchor: start" x="84.158984" y="303.012406" transform="rotate(-0, 84.158984, 303.012406)">Desire to advance research</text>
    </g>
    <g id="patch_53">
     <path d="M 56.158984 317.465531 
L 76.158984 317.465531 
L 76.158984 310.465531 
L 56.158984 310.465531 
z
" style="fill: #d62728"/>
    </g>
    <g id="text_57">
     <text style="font: 10px 'sans-serif'; text-anchor: start" x="84.158984" y="317.465531" transform="rotate(-0, 84.158984, 317.465531)">Opportunity to develop software</text>
    </g>
    <g id="patch_54">
     <path d="M 56.158984 331.806156 
L 76.158984 331.806156 
L 76.158984 324.806156 
L 56.158984 324.806156 
z
" style="fill: #9467bd"/>
    </g>
    <g id="text_58">
     <text style="font: 10px 'sans-serif'; text-anchor: start" x="84.158984" y="331.806156" transform="rotate(-0, 84.158984, 331.806156)">Ability to work across disciplines</text>
    </g>
    <g id="patch_55">
     <path d="M 291.455859 274.368656 
L 311.455859 274.368656 
L 311.455859 267.368656 
L 291.455859 267.368656 
z
" style="fill: #8c564b"/>
    </g>
    <g id="text_59">
     <text style="font: 10px 'sans-serif'; text-anchor: start" x="319.455859" y="274.368656" transform="rotate(-0, 319.455859, 274.368656)">I want to learn new skills</text>
    </g>
    <g id="patch_56">
     <path d="M 291.455859 288.821781 
L 311.455859 288.821781 
L 311.455859 281.821781 
L 291.455859 281.821781 
z
" style="fill: #e377c2"/>
    </g>
    <g id="text_60">
     <text style="font: 10px 'sans-serif'; text-anchor: start" x="319.455859" y="288.821781" transform="rotate(-0, 319.455859, 288.821781)">Opportunity for career advancement</text>
    </g>
    <g id="patch_57">
     <path d="M 291.455859 303.162406 
L 311.455859 303.162406 
L 311.455859 296.162406 
L 291.455859 296.162406 
z
" style="fill: #7f7f7f"/>
    </g>
    <g id="text_61">
     <text style="font: 10px 'sans-serif'; text-anchor: start" x="319.455859" y="303.162406" transform="rotate(-0, 319.455859, 303.162406)">Flexible working hours</text>
    </g>
    <g id="patch_58">
     <path d="M 291.455859 317.571781 
L 311.455859 317.571781 
L 311.455859 310.571781 
L 291.455859 310.571781 
z
" style="fill: #bcbd22"/>
    </g>
    <g id="text_62">
     <text style="font: 10px 'sans-serif'; text-anchor: start" x="319.455859" y="317.571781" transform="rotate(-0, 319.455859, 317.571781)">The salary</text>
    </g>
   </g>
  </g>
 </g>
 <defs>
  <clipPath id="p4bb68c1837">
   <rect x="62.86875" y="25.6425" width="409.947656" height="202.199375"/>
  </clipPath>
 </defs>
</svg>
