<?xml version="1.0" encoding="utf-8" standalone="no"?>
<!DOCTYPE svg PUBLIC "-//W3C//DTD SVG 1.1//EN"
  "http://www.w3.org/Graphics/SVG/1.1/DTD/svg11.dtd">
<!-- Created with matplotlib (https://matplotlib.org/) -->
<svg height="360pt" version="1.1" viewBox="0 0 504 360" width="504pt" xmlns="http://www.w3.org/2000/svg" xmlns:xlink="http://www.w3.org/1999/xlink">
 <metadata>
  <rdf:RDF xmlns:cc="http://creativecommons.org/ns#" xmlns:dc="http://purl.org/dc/elements/1.1/" xmlns:rdf="http://www.w3.org/1999/02/22-rdf-syntax-ns#">
   <cc:Work>
    <dc:type rdf:resource="http://purl.org/dc/dcmitype/StillImage"/>
    <dc:date>2021-03-09T23:29:15.490838</dc:date>
    <dc:format>image/svg+xml</dc:format>
    <dc:creator>
     <cc:Agent>
      <dc:title>Matplotlib v3.3.4, https://matplotlib.org/</dc:title>
     </cc:Agent>
    </dc:creator>
   </cc:Work>
  </rdf:RDF>
 </metadata>
 <defs>
  <style type="text/css">*{stroke-linecap:butt;stroke-linejoin:round;}</style>
 </defs>
 <g id="figure_1">
  <g id="patch_1">
   <path d="M 0 360 
L 504 360 
L 504 0 
L 0 0 
z
" style="fill:#ffffff;"/>
  </g>
  <g id="axes_1">
   <g id="patch_2">
    <path d="M 61.625 226.60125 
L 472.003125 226.60125 
L 472.003125 25.8 
L 61.625 25.8 
z
" style="fill:#ffffff;"/>
   </g>
   <g id="patch_3">
    <path clip-path="url(#pec8a930790)" d="M 61.625 216.561187 
L 156.299634 216.561187 
L 156.299634 196.481063 
L 61.625 196.481063 
z
" style="fill:#1f77b4;"/>
   </g>
   <g id="patch_4">
    <path clip-path="url(#pec8a930790)" d="M 61.625 176.400937 
L 122.313868 176.400937 
L 122.313868 156.320813 
L 61.625 156.320813 
z
" style="fill:#1f77b4;"/>
   </g>
   <g id="patch_5">
    <path clip-path="url(#pec8a930790)" d="M 61.625 136.240688 
L 120.067813 136.240688 
L 120.067813 116.160563 
L 61.625 116.160563 
z
" style="fill:#1f77b4;"/>
   </g>
   <g id="patch_6">
    <path clip-path="url(#pec8a930790)" d="M 61.625 96.080438 
L 93.281524 96.080438 
L 93.281524 76.000313 
L 61.625 76.000313 
z
" style="fill:#1f77b4;"/>
   </g>
   <g id="patch_7">
    <path clip-path="url(#pec8a930790)" d="M 61.625 55.920188 
L 89.71636 55.920188 
L 89.71636 35.840063 
L 61.625 35.840063 
z
" style="fill:#1f77b4;"/>
   </g>
   <g id="patch_8">
    <path clip-path="url(#pec8a930790)" d="M 156.299634 216.561187 
L 249.760491 216.561187 
L 249.760491 196.481063 
L 156.299634 196.481063 
z
" style="fill:#ff7f0e;"/>
   </g>
   <g id="patch_9">
    <path clip-path="url(#pec8a930790)" d="M 122.313868 176.400937 
L 187.857845 176.400937 
L 187.857845 156.320813 
L 122.313868 156.320813 
z
" style="fill:#ff7f0e;"/>
   </g>
   <g id="patch_10">
    <path clip-path="url(#pec8a930790)" d="M 120.067813 136.240688 
L 178.510625 136.240688 
L 178.510625 116.160563 
L 120.067813 116.160563 
z
" style="fill:#ff7f0e;"/>
   </g>
   <g id="patch_11">
    <path clip-path="url(#pec8a930790)" d="M 93.281524 96.080438 
L 128.590723 96.080438 
L 128.590723 76.000313 
L 93.281524 76.000313 
z
" style="fill:#ff7f0e;"/>
   </g>
   <g id="patch_12">
    <path clip-path="url(#pec8a930790)" d="M 89.71636 55.920188 
L 142.234989 55.920188 
L 142.234989 35.840063 
L 89.71636 35.840063 
z
" style="fill:#ff7f0e;"/>
   </g>
   <g id="patch_13">
    <path clip-path="url(#pec8a930790)" d="M 249.760491 216.561187 
L 314.090691 216.561187 
L 314.090691 196.481063 
L 249.760491 196.481063 
z
" style="fill:#2ca02c;"/>
   </g>
   <g id="patch_14">
    <path clip-path="url(#pec8a930790)" d="M 187.857845 176.400937 
L 237.622717 176.400937 
L 237.622717 156.320813 
L 187.857845 156.320813 
z
" style="fill:#2ca02c;"/>
   </g>
   <g id="patch_15">
    <path clip-path="url(#pec8a930790)" d="M 178.510625 136.240688 
L 210.167149 136.240688 
L 210.167149 116.160563 
L 178.510625 116.160563 
z
" style="fill:#2ca02c;"/>
   </g>
   <g id="patch_16">
    <path clip-path="url(#pec8a930790)" d="M 128.590723 96.080438 
L 165.117481 96.080438 
L 165.117481 76.000313 
L 128.590723 76.000313 
z
" style="fill:#2ca02c;"/>
   </g>
   <g id="patch_17">
    <path clip-path="url(#pec8a930790)" d="M 142.234989 55.920188 
L 170.326349 55.920188 
L 170.326349 35.840063 
L 142.234989 35.840063 
z
" style="fill:#2ca02c;"/>
   </g>
   <g id="patch_18">
    <path clip-path="url(#pec8a930790)" d="M 314.090691 216.561187 
L 363.855562 216.561187 
L 363.855562 196.481063 
L 314.090691 196.481063 
z
" style="fill:#d62728;"/>
   </g>
   <g id="patch_19">
    <path clip-path="url(#pec8a930790)" d="M 237.622717 176.400937 
L 289.815143 176.400937 
L 289.815143 156.320813 
L 237.622717 156.320813 
z
" style="fill:#d62728;"/>
   </g>
   <g id="patch_20">
    <path clip-path="url(#pec8a930790)" d="M 210.167149 136.240688 
L 269.82752 136.240688 
L 269.82752 116.160563 
L 210.167149 116.160563 
z
" style="fill:#d62728;"/>
   </g>
   <g id="patch_21">
    <path clip-path="url(#pec8a930790)" d="M 165.117481 96.080438 
L 225.995411 96.080438 
L 225.995411 76.000313 
L 165.117481 76.000313 
z
" style="fill:#d62728;"/>
   </g>
   <g id="patch_22">
    <path clip-path="url(#pec8a930790)" d="M 170.326349 55.920188 
L 227.730432 55.920188 
L 227.730432 35.840063 
L 170.326349 35.840063 
z
" style="fill:#d62728;"/>
   </g>
   <g id="patch_23">
    <path clip-path="url(#pec8a930790)" d="M 363.855562 216.561187 
L 396.627551 216.561187 
L 396.627551 196.481063 
L 363.855562 196.481063 
z
" style="fill:#9467bd;"/>
   </g>
   <g id="patch_24">
    <path clip-path="url(#pec8a930790)" d="M 289.815143 176.400937 
L 344.435125 176.400937 
L 344.435125 156.320813 
L 289.815143 156.320813 
z
" style="fill:#9467bd;"/>
   </g>
   <g id="patch_25">
    <path clip-path="url(#pec8a930790)" d="M 269.82752 136.240688 
L 328.270333 136.240688 
L 328.270333 116.160563 
L 269.82752 116.160563 
z
" style="fill:#9467bd;"/>
   </g>
   <g id="patch_26">
    <path clip-path="url(#pec8a930790)" d="M 225.995411 96.080438 
L 267.392403 96.080438 
L 267.392403 76.000313 
L 225.995411 76.000313 
z
" style="fill:#9467bd;"/>
   </g>
   <g id="patch_27">
    <path clip-path="url(#pec8a930790)" d="M 227.730432 55.920188 
L 265.592699 55.920188 
L 265.592699 35.840063 
L 227.730432 35.840063 
z
" style="fill:#9467bd;"/>
   </g>
   <g id="patch_28">
    <path clip-path="url(#pec8a930790)" d="M 396.627551 216.561187 
L 414.834211 216.561187 
L 414.834211 196.481063 
L 396.627551 196.481063 
z
" style="fill:#8c564b;"/>
   </g>
   <g id="patch_29">
    <path clip-path="url(#pec8a930790)" d="M 344.435125 176.400937 
L 360.21423 176.400937 
L 360.21423 156.320813 
L 344.435125 156.320813 
z
" style="fill:#8c564b;"/>
   </g>
   <g id="patch_30">
    <path clip-path="url(#pec8a930790)" d="M 328.270333 136.240688 
L 357.491739 136.240688 
L 357.491739 116.160563 
L 328.270333 116.160563 
z
" style="fill:#8c564b;"/>
   </g>
   <g id="patch_31">
    <path clip-path="url(#pec8a930790)" d="M 267.392403 96.080438 
L 296.613809 96.080438 
L 296.613809 76.000313 
L 267.392403 76.000313 
z
" style="fill:#8c564b;"/>
   </g>
   <g id="patch_32">
    <path clip-path="url(#pec8a930790)" d="M 265.592699 55.920188 
L 293.684059 55.920188 
L 293.684059 35.840063 
L 265.592699 35.840063 
z
" style="fill:#8c564b;"/>
   </g>
   <g id="patch_33">
    <path clip-path="url(#pec8a930790)" d="M 414.834211 216.561187 
L 428.185762 216.561187 
L 428.185762 196.481063 
L 414.834211 196.481063 
z
" style="fill:#e377c2;"/>
   </g>
   <g id="patch_34">
    <path clip-path="url(#pec8a930790)" d="M 360.21423 176.400937 
L 406.33777 176.400937 
L 406.33777 156.320813 
L 360.21423 156.320813 
z
" style="fill:#e377c2;"/>
   </g>
   <g id="patch_35">
    <path clip-path="url(#pec8a930790)" d="M 357.491739 136.240688 
L 392.800938 136.240688 
L 392.800938 116.160563 
L 357.491739 116.160563 
z
" style="fill:#e377c2;"/>
   </g>
   <g id="patch_36">
    <path clip-path="url(#pec8a930790)" d="M 296.613809 96.080438 
L 355.056622 96.080438 
L 355.056622 76.000313 
L 296.613809 76.000313 
z
" style="fill:#e377c2;"/>
   </g>
   <g id="patch_37">
    <path clip-path="url(#pec8a930790)" d="M 293.684059 55.920188 
L 342.538597 55.920188 
L 342.538597 35.840063 
L 293.684059 35.840063 
z
" style="fill:#e377c2;"/>
   </g>
   <g id="patch_38">
    <path clip-path="url(#pec8a930790)" d="M 428.185762 216.561187 
L 441.537313 216.561187 
L 441.537313 196.481063 
L 428.185762 196.481063 
z
" style="fill:#7f7f7f;"/>
   </g>
   <g id="patch_39">
    <path clip-path="url(#pec8a930790)" d="M 406.33777 176.400937 
L 443.964868 176.400937 
L 443.964868 156.320813 
L 406.33777 156.320813 
z
" style="fill:#7f7f7f;"/>
   </g>
   <g id="patch_40">
    <path clip-path="url(#pec8a930790)" d="M 392.800938 136.240688 
L 439.068165 136.240688 
L 439.068165 116.160563 
L 392.800938 116.160563 
z
" style="fill:#7f7f7f;"/>
   </g>
   <g id="patch_41">
    <path clip-path="url(#pec8a930790)" d="M 355.056622 96.080438 
L 423.239903 96.080438 
L 423.239903 76.000313 
L 355.056622 76.000313 
z
" style="fill:#7f7f7f;"/>
   </g>
   <g id="patch_42">
    <path clip-path="url(#pec8a930790)" d="M 342.538597 55.920188 
L 414.599042 55.920188 
L 414.599042 35.840063 
L 342.538597 35.840063 
z
" style="fill:#7f7f7f;"/>
   </g>
   <g id="patch_43">
    <path clip-path="url(#pec8a930790)" d="M 441.537313 216.561187 
L 452.46131 216.561187 
L 452.46131 196.481063 
L 441.537313 196.481063 
z
" style="fill:#bcbd22;"/>
   </g>
   <g id="patch_44">
    <path clip-path="url(#pec8a930790)" d="M 443.964868 176.400937 
L 452.46131 176.400937 
L 452.46131 156.320813 
L 443.964868 156.320813 
z
" style="fill:#bcbd22;"/>
   </g>
   <g id="patch_45">
    <path clip-path="url(#pec8a930790)" d="M 439.068165 136.240688 
L 452.46131 136.240688 
L 452.46131 116.160563 
L 439.068165 116.160563 
z
" style="fill:#bcbd22;"/>
   </g>
   <g id="patch_46">
    <path clip-path="url(#pec8a930790)" d="M 423.239903 96.080438 
L 452.46131 96.080438 
L 452.46131 76.000313 
L 423.239903 76.000313 
z
" style="fill:#bcbd22;"/>
   </g>
   <g id="patch_47">
    <path clip-path="url(#pec8a930790)" d="M 414.599042 55.920188 
L 452.46131 55.920188 
L 452.46131 35.840063 
L 414.599042 35.840063 
z
" style="fill:#bcbd22;"/>
   </g>
   <g id="matplotlib.axis_1">
    <g id="xtick_1">
     <g id="line2d_1">
      <defs>
       <path d="M 0 0 
L 0 3.5 
" id="m2ebcb4627a" style="stroke:#000000;stroke-width:0.8;"/>
      </defs>
      <g>
       <use style="stroke:#000000;stroke-width:0.8;" x="61.625" xlink:href="#m2ebcb4627a" y="226.60125"/>
      </g>
     </g>
     <g id="text_1">
      <text style="font-family:Roboto;font-size:10px;font-stretch:normal;font-style:normal;font-weight:normal;text-anchor:middle;" transform="rotate(-0, 61.625, 241.10125)" x="61.625" y="241.10125">0</text>
     </g>
    </g>
    <g id="xtick_2">
     <g id="line2d_2">
      <g>
       <use style="stroke:#000000;stroke-width:0.8;" x="139.792262" xlink:href="#m2ebcb4627a" y="226.60125"/>
      </g>
     </g>
     <g id="text_2">
      <text style="font-family:Roboto;font-size:10px;font-stretch:normal;font-style:normal;font-weight:normal;text-anchor:middle;" transform="rotate(-0, 139.792262, 241.10125)" x="139.792262" y="241.10125">20</text>
     </g>
    </g>
    <g id="xtick_3">
     <g id="line2d_3">
      <g>
       <use style="stroke:#000000;stroke-width:0.8;" x="217.959524" xlink:href="#m2ebcb4627a" y="226.60125"/>
      </g>
     </g>
     <g id="text_3">
      <text style="font-family:Roboto;font-size:10px;font-stretch:normal;font-style:normal;font-weight:normal;text-anchor:middle;" transform="rotate(-0, 217.959524, 241.10125)" x="217.959524" y="241.10125">40</text>
     </g>
    </g>
    <g id="xtick_4">
     <g id="line2d_4">
      <g>
       <use style="stroke:#000000;stroke-width:0.8;" x="296.126786" xlink:href="#m2ebcb4627a" y="226.60125"/>
      </g>
     </g>
     <g id="text_4">
      <text style="font-family:Roboto;font-size:10px;font-stretch:normal;font-style:normal;font-weight:normal;text-anchor:middle;" transform="rotate(-0, 296.126786, 241.10125)" x="296.126786" y="241.10125">60</text>
     </g>
    </g>
    <g id="xtick_5">
     <g id="line2d_5">
      <g>
       <use style="stroke:#000000;stroke-width:0.8;" x="374.294048" xlink:href="#m2ebcb4627a" y="226.60125"/>
      </g>
     </g>
     <g id="text_5">
      <text style="font-family:Roboto;font-size:10px;font-stretch:normal;font-style:normal;font-weight:normal;text-anchor:middle;" transform="rotate(-0, 374.294048, 241.10125)" x="374.294048" y="241.10125">80</text>
     </g>
    </g>
    <g id="xtick_6">
     <g id="line2d_6">
      <g>
       <use style="stroke:#000000;stroke-width:0.8;" x="452.46131" xlink:href="#m2ebcb4627a" y="226.60125"/>
      </g>
     </g>
     <g id="text_6">
      <text style="font-family:Roboto;font-size:10px;font-stretch:normal;font-style:normal;font-weight:normal;text-anchor:middle;" transform="rotate(-0, 452.46131, 241.10125)" x="452.46131" y="241.10125">100</text>
     </g>
    </g>
    <g id="text_7">
     <text style="font-family:Roboto;font-size:10px;font-stretch:normal;font-style:normal;font-weight:normal;text-anchor:middle;" transform="rotate(-0, 266.814062, 254.735625)" x="266.814062" y="254.735625">Ranking of importance</text>
    </g>
   </g>
   <g id="matplotlib.axis_2">
    <g id="ytick_1">
     <g id="line2d_7">
      <defs>
       <path d="M 0 0 
L -3.5 0 
" id="m3fb6bfbada" style="stroke:#000000;stroke-width:0.8;"/>
      </defs>
      <g>
       <use style="stroke:#000000;stroke-width:0.8;" x="61.625" xlink:href="#m3fb6bfbada" y="206.521125"/>
      </g>
     </g>
     <g id="text_8">
      <text style="font-family:Roboto;font-size:10px;font-stretch:normal;font-style:normal;font-weight:normal;text-anchor:end;" transform="rotate(-0, 54.625, 210.271125)" x="54.625" y="210.271125">Rank 1</text>
     </g>
    </g>
    <g id="ytick_2">
     <g id="line2d_8">
      <g>
       <use style="stroke:#000000;stroke-width:0.8;" x="61.625" xlink:href="#m3fb6bfbada" y="166.360875"/>
      </g>
     </g>
     <g id="text_9">
      <text style="font-family:Roboto;font-size:10px;font-stretch:normal;font-style:normal;font-weight:normal;text-anchor:end;" transform="rotate(-0, 54.625, 170.110875)" x="54.625" y="170.110875">Rank 2</text>
     </g>
    </g>
    <g id="ytick_3">
     <g id="line2d_9">
      <g>
       <use style="stroke:#000000;stroke-width:0.8;" x="61.625" xlink:href="#m3fb6bfbada" y="126.200625"/>
      </g>
     </g>
     <g id="text_10">
      <text style="font-family:Roboto;font-size:10px;font-stretch:normal;font-style:normal;font-weight:normal;text-anchor:end;" transform="rotate(-0, 54.625, 129.950625)" x="54.625" y="129.950625">Rank 3</text>
     </g>
    </g>
    <g id="ytick_4">
     <g id="line2d_10">
      <g>
       <use style="stroke:#000000;stroke-width:0.8;" x="61.625" xlink:href="#m3fb6bfbada" y="86.040375"/>
      </g>
     </g>
     <g id="text_11">
      <text style="font-family:Roboto;font-size:10px;font-stretch:normal;font-style:normal;font-weight:normal;text-anchor:end;" transform="rotate(-0, 54.625, 89.790375)" x="54.625" y="89.790375">Rank 4</text>
     </g>
    </g>
    <g id="ytick_5">
     <g id="line2d_11">
      <g>
       <use style="stroke:#000000;stroke-width:0.8;" x="61.625" xlink:href="#m3fb6bfbada" y="45.880125"/>
      </g>
     </g>
     <g id="text_12">
      <text style="font-family:Roboto;font-size:10px;font-stretch:normal;font-style:normal;font-weight:normal;text-anchor:end;" transform="rotate(-0, 54.625, 49.630125)" x="54.625" y="49.630125">Rank 5</text>
     </g>
    </g>
    <g id="text_13">
     <text style="font-family:Roboto;font-size:10px;font-stretch:normal;font-style:normal;font-weight:normal;text-anchor:middle;" transform="rotate(-90, 18.246875, 126.200625)" x="18.246875" y="126.200625">Percentage</text>
    </g>
   </g>
   <g id="patch_48">
    <path d="M 61.625 226.60125 
L 472.003125 226.60125 
" style="fill:none;stroke:#000000;stroke-linecap:square;stroke-linejoin:miter;stroke-width:0.8;"/>
   </g>
   <g id="text_14">
    <text style="font-family:Roboto;font-size:10px;font-stretch:normal;font-style:normal;font-weight:normal;text-anchor:middle;" transform="rotate(-0, 108.962317, 210.53715)" x="108.962317" y="210.53715">24</text>
   </g>
   <g id="text_15">
    <text style="font-family:Roboto;font-size:10px;font-stretch:normal;font-style:normal;font-weight:normal;text-anchor:middle;" transform="rotate(-0, 91.969434, 170.3769)" x="91.969434" y="170.3769">16</text>
   </g>
   <g id="text_16">
    <text style="font-family:Roboto;font-size:10px;font-stretch:normal;font-style:normal;font-weight:normal;text-anchor:middle;" transform="rotate(-0, 90.846406, 130.21665)" x="90.846406" y="130.21665">15</text>
   </g>
   <g id="text_17">
    <text style="font-family:Roboto;font-size:10px;font-stretch:normal;font-style:normal;font-weight:normal;text-anchor:middle;" transform="rotate(-0, 77.453262, 90.0564)" x="77.453262" y="90.0564">8</text>
   </g>
   <g id="text_18">
    <text style="font-family:Roboto;font-size:10px;font-stretch:normal;font-style:normal;font-weight:normal;text-anchor:middle;" transform="rotate(-0, 75.67068, 49.89615)" x="75.67068" y="49.89615">7</text>
   </g>
   <g id="text_19">
    <text style="font-family:Roboto;font-size:10px;font-stretch:normal;font-style:normal;font-weight:normal;text-anchor:middle;" transform="rotate(-0, 203.030062, 210.53715)" x="203.030062" y="210.53715">24</text>
   </g>
   <g id="text_20">
    <text style="font-family:Roboto;font-size:10px;font-stretch:normal;font-style:normal;font-weight:normal;text-anchor:middle;" transform="rotate(-0, 155.085857, 170.3769)" x="155.085857" y="170.3769">17</text>
   </g>
   <g id="text_21">
    <text style="font-family:Roboto;font-size:10px;font-stretch:normal;font-style:normal;font-weight:normal;text-anchor:middle;" transform="rotate(-0, 149.289219, 130.21665)" x="149.289219" y="130.21665">15</text>
   </g>
   <g id="text_22">
    <text style="font-family:Roboto;font-size:10px;font-stretch:normal;font-style:normal;font-weight:normal;text-anchor:middle;" transform="rotate(-0, 110.936123, 90.0564)" x="110.936123" y="90.0564">9</text>
   </g>
   <g id="text_23">
    <text style="font-family:Roboto;font-size:10px;font-stretch:normal;font-style:normal;font-weight:normal;text-anchor:middle;" transform="rotate(-0, 115.975674, 49.89615)" x="115.975674" y="49.89615">13</text>
   </g>
   <g id="text_24">
    <text style="font-family:Roboto;font-size:10px;font-stretch:normal;font-style:normal;font-weight:normal;text-anchor:middle;" transform="rotate(-0, 281.925591, 210.53715)" x="281.925591" y="210.53715">16</text>
   </g>
   <g id="text_25">
    <text style="font-family:Roboto;font-size:10px;font-stretch:normal;font-style:normal;font-weight:normal;text-anchor:middle;" transform="rotate(-0, 212.740281, 170.3769)" x="212.740281" y="170.3769">13</text>
   </g>
   <g id="text_26">
    <text style="font-family:Roboto;font-size:10px;font-stretch:normal;font-style:normal;font-weight:normal;text-anchor:middle;" transform="rotate(-0, 194.338887, 130.21665)" x="194.338887" y="130.21665">8</text>
   </g>
   <g id="text_27">
    <text style="font-family:Roboto;font-size:10px;font-stretch:normal;font-style:normal;font-weight:normal;text-anchor:middle;" transform="rotate(-0, 146.854102, 90.0564)" x="146.854102" y="90.0564">9</text>
   </g>
   <g id="text_28">
    <text style="font-family:Roboto;font-size:10px;font-stretch:normal;font-style:normal;font-weight:normal;text-anchor:middle;" transform="rotate(-0, 156.280669, 49.89615)" x="156.280669" y="49.89615">7</text>
   </g>
   <g id="text_29">
    <text style="font-family:Roboto;font-size:10px;font-stretch:normal;font-style:normal;font-weight:normal;text-anchor:middle;" transform="rotate(-0, 338.973126, 210.53715)" x="338.973126" y="210.53715">13</text>
   </g>
   <g id="text_30">
    <text style="font-family:Roboto;font-size:10px;font-stretch:normal;font-style:normal;font-weight:normal;text-anchor:middle;" transform="rotate(-0, 263.71893, 170.3769)" x="263.71893" y="170.3769">13</text>
   </g>
   <g id="text_31">
    <text style="font-family:Roboto;font-size:10px;font-stretch:normal;font-style:normal;font-weight:normal;text-anchor:middle;" transform="rotate(-0, 239.997334, 130.21665)" x="239.997334" y="130.21665">15</text>
   </g>
   <g id="text_32">
    <text style="font-family:Roboto;font-size:10px;font-stretch:normal;font-style:normal;font-weight:normal;text-anchor:middle;" transform="rotate(-0, 195.556446, 90.0564)" x="195.556446" y="90.0564">16</text>
   </g>
   <g id="text_33">
    <text style="font-family:Roboto;font-size:10px;font-stretch:normal;font-style:normal;font-weight:normal;text-anchor:middle;" transform="rotate(-0, 199.02839, 49.89615)" x="199.02839" y="49.89615">15</text>
   </g>
   <g id="text_34">
    <text style="font-family:Roboto;font-size:10px;font-stretch:normal;font-style:normal;font-weight:normal;text-anchor:middle;" transform="rotate(-0, 380.241557, 210.53715)" x="380.241557" y="210.53715">8</text>
   </g>
   <g id="text_35">
    <text style="font-family:Roboto;font-size:10px;font-stretch:normal;font-style:normal;font-weight:normal;text-anchor:middle;" transform="rotate(-0, 317.125134, 170.3769)" x="317.125134" y="170.3769">14</text>
   </g>
   <g id="text_36">
    <text style="font-family:Roboto;font-size:10px;font-stretch:normal;font-style:normal;font-weight:normal;text-anchor:middle;" transform="rotate(-0, 299.048926, 130.21665)" x="299.048926" y="130.21665">15</text>
   </g>
   <g id="text_37">
    <text style="font-family:Roboto;font-size:10px;font-stretch:normal;font-style:normal;font-weight:normal;text-anchor:middle;" transform="rotate(-0, 246.693907, 90.0564)" x="246.693907" y="90.0564">11</text>
   </g>
   <g id="text_38">
    <text style="font-family:Roboto;font-size:10px;font-stretch:normal;font-style:normal;font-weight:normal;text-anchor:middle;" transform="rotate(-0, 246.661565, 49.89615)" x="246.661565" y="49.89615">10</text>
   </g>
   <g id="text_39">
    <text style="font-family:Roboto;font-size:10px;font-stretch:normal;font-style:normal;font-weight:normal;text-anchor:middle;" transform="rotate(-0, 405.730881, 210.53715)" x="405.730881" y="210.53715">5</text>
   </g>
   <g id="text_40">
    <text style="font-family:Roboto;font-size:10px;font-stretch:normal;font-style:normal;font-weight:normal;text-anchor:middle;" transform="rotate(-0, 342.881036, 130.21665)" x="342.881036" y="130.21665">7</text>
   </g>
   <g id="text_41">
    <text style="font-family:Roboto;font-size:10px;font-stretch:normal;font-style:normal;font-weight:normal;text-anchor:middle;" transform="rotate(-0, 282.003106, 90.0564)" x="282.003106" y="90.0564">7</text>
   </g>
   <g id="text_42">
    <text style="font-family:Roboto;font-size:10px;font-stretch:normal;font-style:normal;font-weight:normal;text-anchor:middle;" transform="rotate(-0, 279.638379, 49.89615)" x="279.638379" y="49.89615">7</text>
   </g>
   <g id="text_43">
    <text style="font-family:Roboto;font-size:10px;font-stretch:normal;font-style:normal;font-weight:normal;text-anchor:middle;" transform="rotate(-0, 383.276, 170.3769)" x="383.276" y="170.3769">12</text>
   </g>
   <g id="text_44">
    <text style="font-family:Roboto;font-size:10px;font-stretch:normal;font-style:normal;font-weight:normal;text-anchor:middle;" transform="rotate(-0, 375.146339, 130.21665)" x="375.146339" y="130.21665">9</text>
   </g>
   <g id="text_45">
    <text style="font-family:Roboto;font-size:10px;font-stretch:normal;font-style:normal;font-weight:normal;text-anchor:middle;" transform="rotate(-0, 325.835215, 90.0564)" x="325.835215" y="90.0564">15</text>
   </g>
   <g id="text_46">
    <text style="font-family:Roboto;font-size:10px;font-stretch:normal;font-style:normal;font-weight:normal;text-anchor:middle;" transform="rotate(-0, 318.111328, 49.89615)" x="318.111328" y="49.89615">12</text>
   </g>
   <g id="text_47">
    <text style="font-family:Roboto;font-size:10px;font-stretch:normal;font-style:normal;font-weight:normal;text-anchor:middle;" transform="rotate(-0, 425.151319, 170.3769)" x="425.151319" y="170.3769">10</text>
   </g>
   <g id="text_48">
    <text style="font-family:Roboto;font-size:10px;font-stretch:normal;font-style:normal;font-weight:normal;text-anchor:middle;" transform="rotate(-0, 415.934552, 130.21665)" x="415.934552" y="130.21665">12</text>
   </g>
   <g id="text_49">
    <text style="font-family:Roboto;font-size:10px;font-stretch:normal;font-style:normal;font-weight:normal;text-anchor:middle;" transform="rotate(-0, 389.148262, 90.0564)" x="389.148262" y="90.0564">17</text>
   </g>
   <g id="text_50">
    <text style="font-family:Roboto;font-size:10px;font-stretch:normal;font-style:normal;font-weight:normal;text-anchor:middle;" transform="rotate(-0, 378.56882, 49.89615)" x="378.56882" y="49.89615">18</text>
   </g>
   <g id="text_51">
    <text style="font-family:Roboto;font-size:10px;font-stretch:normal;font-style:normal;font-weight:normal;text-anchor:middle;" transform="rotate(-0, 437.850606, 90.0564)" x="437.850606" y="90.0564">7</text>
   </g>
   <g id="text_52">
    <text style="font-family:Roboto;font-size:10px;font-stretch:normal;font-style:normal;font-weight:normal;text-anchor:middle;" transform="rotate(-0, 433.530176, 49.89615)" x="433.530176" y="49.89615">10</text>
   </g>
   <g id="text_53">
    <text style="font-family:Roboto;font-size:12px;font-stretch:normal;font-style:normal;font-weight:normal;text-anchor:middle;" transform="rotate(-0, 266.814062, 19.8)" x="266.814062" y="19.8">Reasons to choose current job: Germany</text>
   </g>
   <g id="legend_1">
    <g id="patch_49">
     <path d="M 52.317187 337.740187 
L 481.310938 337.740187 
Q 483.310938 337.740187 483.310938 335.740187 
L 483.310938 263.721437 
Q 483.310938 261.721437 481.310938 261.721437 
L 52.317187 261.721437 
Q 50.317187 261.721437 50.317187 263.721437 
L 50.317187 335.740187 
Q 50.317187 337.740187 52.317187 337.740187 
z
" style="fill:#ffffff;opacity:0.8;stroke:#cccccc;stroke-linejoin:miter;"/>
    </g>
    <g id="patch_50">
     <path d="M 54.317187 273.324562 
L 74.317187 273.324562 
L 74.317187 266.324562 
L 54.317187 266.324562 
z
" style="fill:#1f77b4;"/>
    </g>
    <g id="text_54">
     <text style="font-family:Roboto;font-size:10px;font-stretch:normal;font-style:normal;font-weight:normal;text-anchor:start;" transform="rotate(-0, 82.317187, 273.324562)" x="82.317187" y="273.324562">Desire to work in a research environment</text>
    </g>
    <g id="patch_51">
     <path d="M 54.317187 287.855812 
L 74.317187 287.855812 
L 74.317187 280.855812 
L 54.317187 280.855812 
z
" style="fill:#ff7f0e;"/>
    </g>
    <g id="text_55">
     <text style="font-family:Roboto;font-size:10px;font-stretch:normal;font-style:normal;font-weight:normal;text-anchor:start;" transform="rotate(-0, 82.317187, 287.855812)" x="82.317187" y="287.855812">Freedom to choose own working practices</text>
    </g>
    <g id="patch_52">
     <path d="M 54.317187 302.440187 
L 74.317187 302.440187 
L 74.317187 295.440187 
L 54.317187 295.440187 
z
" style="fill:#2ca02c;"/>
    </g>
    <g id="text_56">
     <text style="font-family:Roboto;font-size:10px;font-stretch:normal;font-style:normal;font-weight:normal;text-anchor:start;" transform="rotate(-0, 82.317187, 302.440187)" x="82.317187" y="302.440187">Desire to advance research</text>
    </g>
    <g id="patch_53">
     <path d="M 54.317187 316.971437 
L 74.317187 316.971437 
L 74.317187 309.971437 
L 54.317187 309.971437 
z
" style="fill:#d62728;"/>
    </g>
    <g id="text_57">
     <text style="font-family:Roboto;font-size:10px;font-stretch:normal;font-style:normal;font-weight:normal;text-anchor:start;" transform="rotate(-0, 82.317187, 316.971437)" x="82.317187" y="316.971437">I want to learn new skills</text>
    </g>
    <g id="patch_54">
     <path d="M 54.317187 331.605812 
L 74.317187 331.605812 
L 74.317187 324.605812 
L 54.317187 324.605812 
z
" style="fill:#9467bd;"/>
    </g>
    <g id="text_58">
     <text style="font-family:Roboto;font-size:10px;font-stretch:normal;font-style:normal;font-weight:normal;text-anchor:start;" transform="rotate(-0, 82.317187, 331.605812)" x="82.317187" y="331.605812">Opportunity to develop software</text>
    </g>
    <g id="patch_55">
     <path d="M 291.009375 273.324562 
L 311.009375 273.324562 
L 311.009375 266.324562 
L 291.009375 266.324562 
z
" style="fill:#8c564b;"/>
    </g>
    <g id="text_59">
     <text style="font-family:Roboto;font-size:10px;font-stretch:normal;font-style:normal;font-weight:normal;text-anchor:start;" transform="rotate(-0, 319.009375, 273.324562)" x="319.009375" y="273.324562">Opportunity for career advancement</text>
    </g>
    <g id="patch_56">
     <path d="M 291.009375 287.958937 
L 311.009375 287.958937 
L 311.009375 280.958937 
L 291.009375 280.958937 
z
" style="fill:#e377c2;"/>
    </g>
    <g id="text_60">
     <text style="font-family:Roboto;font-size:10px;font-stretch:normal;font-style:normal;font-weight:normal;text-anchor:start;" transform="rotate(-0, 319.009375, 287.958937)" x="319.009375" y="287.958937">Ability to work across disciplines</text>
    </g>
    <g id="patch_57">
     <path d="M 291.009375 302.593312 
L 311.009375 302.593312 
L 311.009375 295.593312 
L 291.009375 295.593312 
z
" style="fill:#7f7f7f;"/>
    </g>
    <g id="text_61">
     <text style="font-family:Roboto;font-size:10px;font-stretch:normal;font-style:normal;font-weight:normal;text-anchor:start;" transform="rotate(-0, 319.009375, 302.593312)" x="319.009375" y="302.593312">Flexible working hours</text>
    </g>
    <g id="patch_58">
     <path d="M 291.009375 317.177687 
L 311.009375 317.177687 
L 311.009375 310.177687 
L 291.009375 310.177687 
z
" style="fill:#bcbd22;"/>
    </g>
    <g id="text_62">
     <text style="font-family:Roboto;font-size:10px;font-stretch:normal;font-style:normal;font-weight:normal;text-anchor:start;" transform="rotate(-0, 319.009375, 317.177687)" x="319.009375" y="317.177687">The salary</text>
    </g>
   </g>
  </g>
 </g>
 <defs>
  <clipPath id="pec8a930790">
   <rect height="200.80125" width="410.378125" x="61.625" y="25.8"/>
  </clipPath>
 </defs>
</svg>
