<?xml version="1.0" encoding="utf-8" standalone="no"?>
<!DOCTYPE svg PUBLIC "-//W3C//DTD SVG 1.1//EN"
  "http://www.w3.org/Graphics/SVG/1.1/DTD/svg11.dtd">
<svg height="360pt" version="1.1" viewBox="0 0 504 360" width="504pt" xmlns="http://www.w3.org/2000/svg" xmlns:xlink="http://www.w3.org/1999/xlink">
 <metadata>
  <rdf:RDF xmlns:cc="http://creativecommons.org/ns#" xmlns:dc="http://purl.org/dc/elements/1.1/" xmlns:rdf="http://www.w3.org/1999/02/22-rdf-syntax-ns#">
   <cc:Work>
    <dc:type rdf:resource="http://purl.org/dc/dcmitype/StillImage"/>
    <dc:date>2021-03-29T15:54:37.100808</dc:date>
    <dc:format>image/svg+xml</dc:format>
    <dc:creator>
     <cc:Agent>
      <dc:title>Matplotlib v3.4.0, https://matplotlib.org/</dc:title>
     </cc:Agent>
    </dc:creator>
   </cc:Work>
  </rdf:RDF>
 </metadata>
 <defs>
  <style type="text/css">*{stroke-linecap:butt;stroke-linejoin:round;}</style>
 </defs>
 <g id="figure_1">
  <g id="patch_1">
   <path d="M 0 360 
L 504 360 
L 504 0 
L 0 0 
z
" style="fill:#ffffff;"/>
  </g>
  <g id="axes_1">
   <g id="patch_2">
    <path d="M 65.998438 226.229375 
L 449.188281 226.229375 
L 449.188281 25.918125 
L 65.998438 25.918125 
z
" style="fill:#ffffff;"/>
   </g>
   <g id="patch_3">
    <path clip-path="url(#pba05bf810c)" d="M 65.998438 216.213813 
L 170.267783 216.213813 
L 170.267783 196.182688 
L 65.998438 196.182688 
z
" style="fill:#1f77b4;"/>
   </g>
   <g id="patch_4">
    <path clip-path="url(#pba05bf810c)" d="M 65.998438 176.151563 
L 121.857015 176.151563 
L 121.857015 156.120438 
L 65.998438 156.120438 
z
" style="fill:#1f77b4;"/>
   </g>
   <g id="patch_5">
    <path clip-path="url(#pba05bf810c)" d="M 65.998438 136.089313 
L 111.145989 136.089313 
L 111.145989 116.058188 
L 65.998438 116.058188 
z
" style="fill:#1f77b4;"/>
   </g>
   <g id="patch_6">
    <path clip-path="url(#pba05bf810c)" d="M 65.998438 96.027063 
L 103.621397 96.027063 
L 103.621397 75.995938 
L 65.998438 75.995938 
z
" style="fill:#1f77b4;"/>
   </g>
   <g id="patch_7">
    <path clip-path="url(#pba05bf810c)" d="M 65.998438 55.964813 
L 99.859101 55.964813 
L 99.859101 35.933688 
L 65.998438 35.933688 
z
" style="fill:#1f77b4;"/>
   </g>
   <g id="patch_8">
    <path clip-path="url(#pba05bf810c)" d="M 170.267783 216.213813 
L 233.574171 216.213813 
L 233.574171 196.182688 
L 170.267783 196.182688 
z
" style="fill:#ff7f0e;"/>
   </g>
   <g id="patch_9">
    <path clip-path="url(#pba05bf810c)" d="M 121.857015 176.151563 
L 162.819972 176.151563 
L 162.819972 156.120438 
L 121.857015 156.120438 
z
" style="fill:#ff7f0e;"/>
   </g>
   <g id="patch_10">
    <path clip-path="url(#pba05bf810c)" d="M 111.145989 136.089313 
L 145.006653 136.089313 
L 145.006653 116.058188 
L 111.145989 116.058188 
z
" style="fill:#ff7f0e;"/>
   </g>
   <g id="patch_11">
    <path clip-path="url(#pba05bf810c)" d="M 103.621397 96.027063 
L 152.531245 96.027063 
L 152.531245 75.995938 
L 103.621397 75.995938 
z
" style="fill:#ff7f0e;"/>
   </g>
   <g id="patch_12">
    <path clip-path="url(#pba05bf810c)" d="M 99.859101 55.964813 
L 129.957469 55.964813 
L 129.957469 35.933688 
L 99.859101 35.933688 
z
" style="fill:#ff7f0e;"/>
   </g>
   <g id="patch_13">
    <path clip-path="url(#pba05bf810c)" d="M 233.574171 216.213813 
L 289.432749 216.213813 
L 289.432749 196.182688 
L 233.574171 196.182688 
z
" style="fill:#2ca02c;"/>
   </g>
   <g id="patch_14">
    <path clip-path="url(#pba05bf810c)" d="M 162.819972 176.151563 
L 214.954645 176.151563 
L 214.954645 156.120438 
L 162.819972 156.120438 
z
" style="fill:#2ca02c;"/>
   </g>
   <g id="patch_15">
    <path clip-path="url(#pba05bf810c)" d="M 145.006653 136.089313 
L 205.203388 136.089313 
L 205.203388 116.058188 
L 145.006653 116.058188 
z
" style="fill:#2ca02c;"/>
   </g>
   <g id="patch_16">
    <path clip-path="url(#pba05bf810c)" d="M 152.531245 96.027063 
L 197.678796 96.027063 
L 197.678796 75.995938 
L 152.531245 75.995938 
z
" style="fill:#2ca02c;"/>
   </g>
   <g id="patch_17">
    <path clip-path="url(#pba05bf810c)" d="M 129.957469 55.964813 
L 167.580428 55.964813 
L 167.580428 35.933688 
L 129.957469 35.933688 
z
" style="fill:#2ca02c;"/>
   </g>
   <g id="patch_18">
    <path clip-path="url(#pba05bf810c)" d="M 289.432749 216.213813 
L 334.119611 216.213813 
L 334.119611 196.182688 
L 289.432749 196.182688 
z
" style="fill:#d62728;"/>
   </g>
   <g id="patch_19">
    <path clip-path="url(#pba05bf810c)" d="M 214.954645 176.151563 
L 255.917602 176.151563 
L 255.917602 156.120438 
L 214.954645 156.120438 
z
" style="fill:#d62728;"/>
   </g>
   <g id="patch_20">
    <path clip-path="url(#pba05bf810c)" d="M 205.203388 136.089313 
L 250.35094 136.089313 
L 250.35094 116.058188 
L 205.203388 116.058188 
z
" style="fill:#d62728;"/>
   </g>
   <g id="patch_21">
    <path clip-path="url(#pba05bf810c)" d="M 197.678796 96.027063 
L 235.301756 96.027063 
L 235.301756 75.995938 
L 197.678796 75.995938 
z
" style="fill:#d62728;"/>
   </g>
   <g id="patch_22">
    <path clip-path="url(#pba05bf810c)" d="M 167.580428 55.964813 
L 208.965684 55.964813 
L 208.965684 35.933688 
L 167.580428 35.933688 
z
" style="fill:#d62728;"/>
   </g>
   <g id="patch_23">
    <path clip-path="url(#pba05bf810c)" d="M 334.119611 216.213813 
L 360.186947 216.213813 
L 360.186947 196.182688 
L 334.119611 196.182688 
z
" style="fill:#9467bd;"/>
   </g>
   <g id="patch_24">
    <path clip-path="url(#pba05bf810c)" d="M 255.917602 176.151563 
L 296.880559 176.151563 
L 296.880559 156.120438 
L 255.917602 156.120438 
z
" style="fill:#9467bd;"/>
   </g>
   <g id="patch_25">
    <path clip-path="url(#pba05bf810c)" d="M 250.35094 136.089313 
L 280.449307 136.089313 
L 280.449307 116.058188 
L 250.35094 116.058188 
z
" style="fill:#9467bd;"/>
   </g>
   <g id="patch_26">
    <path clip-path="url(#pba05bf810c)" d="M 235.301756 96.027063 
L 261.637828 96.027063 
L 261.637828 75.995938 
L 235.301756 75.995938 
z
" style="fill:#9467bd;"/>
   </g>
   <g id="patch_27">
    <path clip-path="url(#pba05bf810c)" d="M 208.965684 55.964813 
L 246.588644 55.964813 
L 246.588644 35.933688 
L 208.965684 35.933688 
z
" style="fill:#9467bd;"/>
   </g>
   <g id="patch_28">
    <path clip-path="url(#pba05bf810c)" d="M 360.186947 216.213813 
L 386.254284 216.213813 
L 386.254284 196.182688 
L 360.186947 196.182688 
z
" style="fill:#8c564b;"/>
   </g>
   <g id="patch_29">
    <path clip-path="url(#pba05bf810c)" d="M 296.880559 176.151563 
L 345.291327 176.151563 
L 345.291327 156.120438 
L 296.880559 156.120438 
z
" style="fill:#8c564b;"/>
   </g>
   <g id="patch_30">
    <path clip-path="url(#pba05bf810c)" d="M 280.449307 136.089313 
L 314.309971 136.089313 
L 314.309971 116.058188 
L 280.449307 116.058188 
z
" style="fill:#8c564b;"/>
   </g>
   <g id="patch_31">
    <path clip-path="url(#pba05bf810c)" d="M 261.637828 96.027063 
L 310.547675 96.027063 
L 310.547675 75.995938 
L 261.637828 75.995938 
z
" style="fill:#8c564b;"/>
   </g>
   <g id="patch_32">
    <path clip-path="url(#pba05bf810c)" d="M 246.588644 55.964813 
L 299.260787 55.964813 
L 299.260787 35.933688 
L 246.588644 35.933688 
z
" style="fill:#8c564b;"/>
   </g>
   <g id="patch_33">
    <path clip-path="url(#pba05bf810c)" d="M 386.254284 216.213813 
L 408.597715 216.213813 
L 408.597715 196.182688 
L 386.254284 196.182688 
z
" style="fill:#e377c2;"/>
   </g>
   <g id="patch_34">
    <path clip-path="url(#pba05bf810c)" d="M 345.291327 176.151563 
L 367.634758 176.151563 
L 367.634758 156.120438 
L 345.291327 156.120438 
z
" style="fill:#e377c2;"/>
   </g>
   <g id="patch_35">
    <path clip-path="url(#pba05bf810c)" d="M 314.309971 136.089313 
L 351.932931 136.089313 
L 351.932931 116.058188 
L 314.309971 116.058188 
z
" style="fill:#e377c2;"/>
   </g>
   <g id="patch_36">
    <path clip-path="url(#pba05bf810c)" d="M 310.547675 96.027063 
L 344.408339 96.027063 
L 344.408339 75.995938 
L 310.547675 75.995938 
z
" style="fill:#e377c2;"/>
   </g>
   <g id="patch_37">
    <path clip-path="url(#pba05bf810c)" d="M 299.260787 55.964813 
L 348.170635 55.964813 
L 348.170635 35.933688 
L 299.260787 35.933688 
z
" style="fill:#e377c2;"/>
   </g>
   <g id="patch_38">
    <path clip-path="url(#pba05bf810c)" d="M 408.597715 216.213813 
L 427.217241 216.213813 
L 427.217241 196.182688 
L 408.597715 196.182688 
z
" style="fill:#7f7f7f;"/>
   </g>
   <g id="patch_39">
    <path clip-path="url(#pba05bf810c)" d="M 367.634758 176.151563 
L 412.32162 176.151563 
L 412.32162 156.120438 
L 367.634758 156.120438 
z
" style="fill:#7f7f7f;"/>
   </g>
   <g id="patch_40">
    <path clip-path="url(#pba05bf810c)" d="M 351.932931 136.089313 
L 389.55589 136.089313 
L 389.55589 116.058188 
L 351.932931 116.058188 
z
" style="fill:#7f7f7f;"/>
   </g>
   <g id="patch_41">
    <path clip-path="url(#pba05bf810c)" d="M 344.408339 96.027063 
L 385.793594 96.027063 
L 385.793594 75.995938 
L 344.408339 75.995938 
z
" style="fill:#7f7f7f;"/>
   </g>
   <g id="patch_42">
    <path clip-path="url(#pba05bf810c)" d="M 348.170635 55.964813 
L 397.080482 55.964813 
L 397.080482 35.933688 
L 348.170635 35.933688 
z
" style="fill:#7f7f7f;"/>
   </g>
   <g id="patch_43">
    <path clip-path="url(#pba05bf810c)" d="M 427.217241 216.213813 
L 430.941146 216.213813 
L 430.941146 196.182688 
L 427.217241 196.182688 
z
" style="fill:#bcbd22;"/>
   </g>
   <g id="patch_44">
    <path clip-path="url(#pba05bf810c)" d="M 412.32162 176.151563 
L 430.941146 176.151563 
L 430.941146 156.120438 
L 412.32162 156.120438 
z
" style="fill:#bcbd22;"/>
   </g>
   <g id="patch_45">
    <path clip-path="url(#pba05bf810c)" d="M 389.55589 136.089313 
L 430.941146 136.089313 
L 430.941146 116.058188 
L 389.55589 116.058188 
z
" style="fill:#bcbd22;"/>
   </g>
   <g id="patch_46">
    <path clip-path="url(#pba05bf810c)" d="M 385.793594 96.027063 
L 430.941146 96.027063 
L 430.941146 75.995938 
L 385.793594 75.995938 
z
" style="fill:#bcbd22;"/>
   </g>
   <g id="patch_47">
    <path clip-path="url(#pba05bf810c)" d="M 397.080482 55.964813 
L 430.941146 55.964813 
L 430.941146 35.933688 
L 397.080482 35.933688 
z
" style="fill:#bcbd22;"/>
   </g>
   <g id="matplotlib.axis_1">
    <g id="xtick_1">
     <g id="line2d_1">
      <defs>
       <path d="M 0 0 
L 0 3.5 
" id="mc3a356a46d" style="stroke:#000000;stroke-width:0.8;"/>
      </defs>
      <g>
       <use style="stroke:#000000;stroke-width:0.8;" x="65.998438" xlink:href="#mc3a356a46d" y="226.229375"/>
      </g>
     </g>
     <g id="text_1">
      <text style="font-family:DejaVu Sans;font-size:10px;font-stretch:normal;font-style:normal;font-weight:normal;text-anchor:middle;" transform="rotate(-0, 65.998438, 240.827812)" x="65.998438" y="240.827812">0</text>
     </g>
    </g>
    <g id="xtick_2">
     <g id="line2d_2">
      <g>
       <use style="stroke:#000000;stroke-width:0.8;" x="138.986979" xlink:href="#mc3a356a46d" y="226.229375"/>
      </g>
     </g>
     <g id="text_2">
      <text style="font-family:DejaVu Sans;font-size:10px;font-stretch:normal;font-style:normal;font-weight:normal;text-anchor:middle;" transform="rotate(-0, 138.986979, 240.827812)" x="138.986979" y="240.827812">20</text>
     </g>
    </g>
    <g id="xtick_3">
     <g id="line2d_3">
      <g>
       <use style="stroke:#000000;stroke-width:0.8;" x="211.975521" xlink:href="#mc3a356a46d" y="226.229375"/>
      </g>
     </g>
     <g id="text_3">
      <text style="font-family:DejaVu Sans;font-size:10px;font-stretch:normal;font-style:normal;font-weight:normal;text-anchor:middle;" transform="rotate(-0, 211.975521, 240.827812)" x="211.975521" y="240.827812">40</text>
     </g>
    </g>
    <g id="xtick_4">
     <g id="line2d_4">
      <g>
       <use style="stroke:#000000;stroke-width:0.8;" x="284.964063" xlink:href="#mc3a356a46d" y="226.229375"/>
      </g>
     </g>
     <g id="text_4">
      <text style="font-family:DejaVu Sans;font-size:10px;font-stretch:normal;font-style:normal;font-weight:normal;text-anchor:middle;" transform="rotate(-0, 284.964063, 240.827812)" x="284.964063" y="240.827812">60</text>
     </g>
    </g>
    <g id="xtick_5">
     <g id="line2d_5">
      <g>
       <use style="stroke:#000000;stroke-width:0.8;" x="357.952604" xlink:href="#mc3a356a46d" y="226.229375"/>
      </g>
     </g>
     <g id="text_5">
      <text style="font-family:DejaVu Sans;font-size:10px;font-stretch:normal;font-style:normal;font-weight:normal;text-anchor:middle;" transform="rotate(-0, 357.952604, 240.827812)" x="357.952604" y="240.827812">80</text>
     </g>
    </g>
    <g id="xtick_6">
     <g id="line2d_6">
      <g>
       <use style="stroke:#000000;stroke-width:0.8;" x="430.941146" xlink:href="#mc3a356a46d" y="226.229375"/>
      </g>
     </g>
     <g id="text_6">
      <text style="font-family:DejaVu Sans;font-size:10px;font-stretch:normal;font-style:normal;font-weight:normal;text-anchor:middle;" transform="rotate(-0, 430.941146, 240.827812)" x="430.941146" y="240.827812">100</text>
     </g>
    </g>
    <g id="text_7">
     <text style="font-family:DejaVu Sans;font-size:10px;font-stretch:normal;font-style:normal;font-weight:normal;text-anchor:middle;" transform="rotate(-0, 257.593359, 254.505938)" x="257.593359" y="254.505938">Ranking of importance</text>
    </g>
   </g>
   <g id="matplotlib.axis_2">
    <g id="ytick_1">
     <g id="line2d_7">
      <defs>
       <path d="M 0 0 
L -3.5 0 
" id="m82278324de" style="stroke:#000000;stroke-width:0.8;"/>
      </defs>
      <g>
       <use style="stroke:#000000;stroke-width:0.8;" x="65.998438" xlink:href="#m82278324de" y="206.19825"/>
      </g>
     </g>
     <g id="text_8">
      <text style="font-family:DejaVu Sans;font-size:10px;font-stretch:normal;font-style:normal;font-weight:normal;text-anchor:end;" transform="rotate(-0, 58.998438, 209.997469)" x="58.998438" y="209.997469">Rank 1</text>
     </g>
    </g>
    <g id="ytick_2">
     <g id="line2d_8">
      <g>
       <use style="stroke:#000000;stroke-width:0.8;" x="65.998438" xlink:href="#m82278324de" y="166.136"/>
      </g>
     </g>
     <g id="text_9">
      <text style="font-family:DejaVu Sans;font-size:10px;font-stretch:normal;font-style:normal;font-weight:normal;text-anchor:end;" transform="rotate(-0, 58.998438, 169.935219)" x="58.998438" y="169.935219">Rank 2</text>
     </g>
    </g>
    <g id="ytick_3">
     <g id="line2d_9">
      <g>
       <use style="stroke:#000000;stroke-width:0.8;" x="65.998438" xlink:href="#m82278324de" y="126.07375"/>
      </g>
     </g>
     <g id="text_10">
      <text style="font-family:DejaVu Sans;font-size:10px;font-stretch:normal;font-style:normal;font-weight:normal;text-anchor:end;" transform="rotate(-0, 58.998438, 129.872969)" x="58.998438" y="129.872969">Rank 3</text>
     </g>
    </g>
    <g id="ytick_4">
     <g id="line2d_10">
      <g>
       <use style="stroke:#000000;stroke-width:0.8;" x="65.998438" xlink:href="#m82278324de" y="86.0115"/>
      </g>
     </g>
     <g id="text_11">
      <text style="font-family:DejaVu Sans;font-size:10px;font-stretch:normal;font-style:normal;font-weight:normal;text-anchor:end;" transform="rotate(-0, 58.998438, 89.810719)" x="58.998438" y="89.810719">Rank 4</text>
     </g>
    </g>
    <g id="ytick_5">
     <g id="line2d_11">
      <g>
       <use style="stroke:#000000;stroke-width:0.8;" x="65.998438" xlink:href="#m82278324de" y="45.94925"/>
      </g>
     </g>
     <g id="text_12">
      <text style="font-family:DejaVu Sans;font-size:10px;font-stretch:normal;font-style:normal;font-weight:normal;text-anchor:end;" transform="rotate(-0, 58.998438, 49.748469)" x="58.998438" y="49.748469">Rank 5</text>
     </g>
    </g>
    <g id="text_13">
     <text style="font-family:DejaVu Sans;font-size:10px;font-stretch:normal;font-style:normal;font-weight:normal;text-anchor:middle;" transform="rotate(-90, 18.398438, 126.07375)" x="18.398438" y="126.07375">Percentage</text>
    </g>
   </g>
   <g id="patch_48">
    <path d="M 65.998438 226.229375 
L 449.188281 226.229375 
" style="fill:none;stroke:#000000;stroke-linecap:square;stroke-linejoin:miter;stroke-width:0.8;"/>
   </g>
   <g id="text_14">
    <text style="font-family:DejaVu Sans;font-size:10px;font-stretch:normal;font-style:normal;font-weight:normal;text-anchor:middle;" transform="rotate(-0, 118.13311, 210.204475)" x="118.13311" y="210.204475">29</text>
   </g>
   <g id="text_15">
    <text style="font-family:DejaVu Sans;font-size:10px;font-stretch:normal;font-style:normal;font-weight:normal;text-anchor:middle;" transform="rotate(-0, 93.927726, 170.142225)" x="93.927726" y="170.142225">15</text>
   </g>
   <g id="text_16">
    <text style="font-family:DejaVu Sans;font-size:10px;font-stretch:normal;font-style:normal;font-weight:normal;text-anchor:middle;" transform="rotate(-0, 88.572213, 130.079975)" x="88.572213" y="130.079975">12</text>
   </g>
   <g id="text_17">
    <text style="font-family:DejaVu Sans;font-size:10px;font-stretch:normal;font-style:normal;font-weight:normal;text-anchor:middle;" transform="rotate(-0, 84.809917, 90.017725)" x="84.809917" y="90.017725">10</text>
   </g>
   <g id="text_18">
    <text style="font-family:DejaVu Sans;font-size:10px;font-stretch:normal;font-style:normal;font-weight:normal;text-anchor:middle;" transform="rotate(-0, 82.928769, 49.955475)" x="82.928769" y="49.955475">9</text>
   </g>
   <g id="text_19">
    <text style="font-family:DejaVu Sans;font-size:10px;font-stretch:normal;font-style:normal;font-weight:normal;text-anchor:middle;" transform="rotate(-0, 201.920977, 210.204475)" x="201.920977" y="210.204475">17</text>
   </g>
   <g id="text_20">
    <text style="font-family:DejaVu Sans;font-size:10px;font-stretch:normal;font-style:normal;font-weight:normal;text-anchor:middle;" transform="rotate(-0, 142.338494, 170.142225)" x="142.338494" y="170.142225">11</text>
   </g>
   <g id="text_21">
    <text style="font-family:DejaVu Sans;font-size:10px;font-stretch:normal;font-style:normal;font-weight:normal;text-anchor:middle;" transform="rotate(-0, 128.076321, 130.079975)" x="128.076321" y="130.079975">9</text>
   </g>
   <g id="text_22">
    <text style="font-family:DejaVu Sans;font-size:10px;font-stretch:normal;font-style:normal;font-weight:normal;text-anchor:middle;" transform="rotate(-0, 128.076321, 90.017725)" x="128.076321" y="90.017725">13</text>
   </g>
   <g id="text_23">
    <text style="font-family:DejaVu Sans;font-size:10px;font-stretch:normal;font-style:normal;font-weight:normal;text-anchor:middle;" transform="rotate(-0, 114.908285, 49.955475)" x="114.908285" y="49.955475">8</text>
   </g>
   <g id="text_24">
    <text style="font-family:DejaVu Sans;font-size:10px;font-stretch:normal;font-style:normal;font-weight:normal;text-anchor:middle;" transform="rotate(-0, 261.50346, 210.204475)" x="261.50346" y="210.204475">15</text>
   </g>
   <g id="text_25">
    <text style="font-family:DejaVu Sans;font-size:10px;font-stretch:normal;font-style:normal;font-weight:normal;text-anchor:middle;" transform="rotate(-0, 188.887309, 170.142225)" x="188.887309" y="170.142225">14</text>
   </g>
   <g id="text_26">
    <text style="font-family:DejaVu Sans;font-size:10px;font-stretch:normal;font-style:normal;font-weight:normal;text-anchor:middle;" transform="rotate(-0, 175.10502, 130.079975)" x="175.10502" y="130.079975">16</text>
   </g>
   <g id="text_27">
    <text style="font-family:DejaVu Sans;font-size:10px;font-stretch:normal;font-style:normal;font-weight:normal;text-anchor:middle;" transform="rotate(-0, 175.10502, 90.017725)" x="175.10502" y="90.017725">12</text>
   </g>
   <g id="text_28">
    <text style="font-family:DejaVu Sans;font-size:10px;font-stretch:normal;font-style:normal;font-weight:normal;text-anchor:middle;" transform="rotate(-0, 148.768949, 49.955475)" x="148.768949" y="49.955475">10</text>
   </g>
   <g id="text_29">
    <text style="font-family:DejaVu Sans;font-size:10px;font-stretch:normal;font-style:normal;font-weight:normal;text-anchor:middle;" transform="rotate(-0, 311.77618, 210.204475)" x="311.77618" y="210.204475">12</text>
   </g>
   <g id="text_30">
    <text style="font-family:DejaVu Sans;font-size:10px;font-stretch:normal;font-style:normal;font-weight:normal;text-anchor:middle;" transform="rotate(-0, 235.436124, 170.142225)" x="235.436124" y="170.142225">11</text>
   </g>
   <g id="text_31">
    <text style="font-family:DejaVu Sans;font-size:10px;font-stretch:normal;font-style:normal;font-weight:normal;text-anchor:middle;" transform="rotate(-0, 227.777164, 130.079975)" x="227.777164" y="130.079975">12</text>
   </g>
   <g id="text_32">
    <text style="font-family:DejaVu Sans;font-size:10px;font-stretch:normal;font-style:normal;font-weight:normal;text-anchor:middle;" transform="rotate(-0, 216.490276, 90.017725)" x="216.490276" y="90.017725">10</text>
   </g>
   <g id="text_33">
    <text style="font-family:DejaVu Sans;font-size:10px;font-stretch:normal;font-style:normal;font-weight:normal;text-anchor:middle;" transform="rotate(-0, 188.273056, 49.955475)" x="188.273056" y="49.955475">11</text>
   </g>
   <g id="text_34">
    <text style="font-family:DejaVu Sans;font-size:10px;font-stretch:normal;font-style:normal;font-weight:normal;text-anchor:middle;" transform="rotate(-0, 347.153279, 210.204475)" x="347.153279" y="210.204475">7</text>
   </g>
   <g id="text_35">
    <text style="font-family:DejaVu Sans;font-size:10px;font-stretch:normal;font-style:normal;font-weight:normal;text-anchor:middle;" transform="rotate(-0, 276.399081, 170.142225)" x="276.399081" y="170.142225">11</text>
   </g>
   <g id="text_36">
    <text style="font-family:DejaVu Sans;font-size:10px;font-stretch:normal;font-style:normal;font-weight:normal;text-anchor:middle;" transform="rotate(-0, 265.400123, 130.079975)" x="265.400123" y="130.079975">8</text>
   </g>
   <g id="text_37">
    <text style="font-family:DejaVu Sans;font-size:10px;font-stretch:normal;font-style:normal;font-weight:normal;text-anchor:middle;" transform="rotate(-0, 248.469792, 90.017725)" x="248.469792" y="90.017725">7</text>
   </g>
   <g id="text_38">
    <text style="font-family:DejaVu Sans;font-size:10px;font-stretch:normal;font-style:normal;font-weight:normal;text-anchor:middle;" transform="rotate(-0, 227.777164, 49.955475)" x="227.777164" y="49.955475">10</text>
   </g>
   <g id="text_39">
    <text style="font-family:DejaVu Sans;font-size:10px;font-stretch:normal;font-style:normal;font-weight:normal;text-anchor:middle;" transform="rotate(-0, 373.220615, 210.204475)" x="373.220615" y="210.204475">7</text>
   </g>
   <g id="text_40">
    <text style="font-family:DejaVu Sans;font-size:10px;font-stretch:normal;font-style:normal;font-weight:normal;text-anchor:middle;" transform="rotate(-0, 321.085943, 170.142225)" x="321.085943" y="170.142225">13</text>
   </g>
   <g id="text_41">
    <text style="font-family:DejaVu Sans;font-size:10px;font-stretch:normal;font-style:normal;font-weight:normal;text-anchor:middle;" transform="rotate(-0, 297.379639, 130.079975)" x="297.379639" y="130.079975">9</text>
   </g>
   <g id="text_42">
    <text style="font-family:DejaVu Sans;font-size:10px;font-stretch:normal;font-style:normal;font-weight:normal;text-anchor:middle;" transform="rotate(-0, 286.092751, 90.017725)" x="286.092751" y="90.017725">13</text>
   </g>
   <g id="text_43">
    <text style="font-family:DejaVu Sans;font-size:10px;font-stretch:normal;font-style:normal;font-weight:normal;text-anchor:middle;" transform="rotate(-0, 272.924715, 49.955475)" x="272.924715" y="49.955475">14</text>
   </g>
   <g id="text_44">
    <text style="font-family:DejaVu Sans;font-size:10px;font-stretch:normal;font-style:normal;font-weight:normal;text-anchor:middle;" transform="rotate(-0, 397.425999, 210.204475)" x="397.425999" y="210.204475">6</text>
   </g>
   <g id="text_45">
    <text style="font-family:DejaVu Sans;font-size:10px;font-stretch:normal;font-style:normal;font-weight:normal;text-anchor:middle;" transform="rotate(-0, 356.463042, 170.142225)" x="356.463042" y="170.142225">6</text>
   </g>
   <g id="text_46">
    <text style="font-family:DejaVu Sans;font-size:10px;font-stretch:normal;font-style:normal;font-weight:normal;text-anchor:middle;" transform="rotate(-0, 333.121451, 130.079975)" x="333.121451" y="130.079975">10</text>
   </g>
   <g id="text_47">
    <text style="font-family:DejaVu Sans;font-size:10px;font-stretch:normal;font-style:normal;font-weight:normal;text-anchor:middle;" transform="rotate(-0, 327.478007, 90.017725)" x="327.478007" y="90.017725">9</text>
   </g>
   <g id="text_48">
    <text style="font-family:DejaVu Sans;font-size:10px;font-stretch:normal;font-style:normal;font-weight:normal;text-anchor:middle;" transform="rotate(-0, 323.715711, 49.955475)" x="323.715711" y="49.955475">13</text>
   </g>
   <g id="text_49">
    <text style="font-family:DejaVu Sans;font-size:10px;font-stretch:normal;font-style:normal;font-weight:normal;text-anchor:middle;" transform="rotate(-0, 417.907478, 210.204475)" x="417.907478" y="210.204475">5</text>
   </g>
   <g id="text_50">
    <text style="font-family:DejaVu Sans;font-size:10px;font-stretch:normal;font-style:normal;font-weight:normal;text-anchor:middle;" transform="rotate(-0, 389.978189, 170.142225)" x="389.978189" y="170.142225">12</text>
   </g>
   <g id="text_51">
    <text style="font-family:DejaVu Sans;font-size:10px;font-stretch:normal;font-style:normal;font-weight:normal;text-anchor:middle;" transform="rotate(-0, 370.74441, 130.079975)" x="370.74441" y="130.079975">10</text>
   </g>
   <g id="text_52">
    <text style="font-family:DejaVu Sans;font-size:10px;font-stretch:normal;font-style:normal;font-weight:normal;text-anchor:middle;" transform="rotate(-0, 365.100966, 90.017725)" x="365.100966" y="90.017725">11</text>
   </g>
   <g id="text_53">
    <text style="font-family:DejaVu Sans;font-size:10px;font-stretch:normal;font-style:normal;font-weight:normal;text-anchor:middle;" transform="rotate(-0, 372.625558, 49.955475)" x="372.625558" y="49.955475">13</text>
   </g>
   <g id="text_54">
    <text style="font-family:DejaVu Sans;font-size:10px;font-stretch:normal;font-style:normal;font-weight:normal;text-anchor:middle;" transform="rotate(-0, 421.631383, 170.142225)" x="421.631383" y="170.142225">5</text>
   </g>
   <g id="text_55">
    <text style="font-family:DejaVu Sans;font-size:10px;font-stretch:normal;font-style:normal;font-weight:normal;text-anchor:middle;" transform="rotate(-0, 410.248518, 130.079975)" x="410.248518" y="130.079975">11</text>
   </g>
   <g id="text_56">
    <text style="font-family:DejaVu Sans;font-size:10px;font-stretch:normal;font-style:normal;font-weight:normal;text-anchor:middle;" transform="rotate(-0, 408.36737, 90.017725)" x="408.36737" y="90.017725">12</text>
   </g>
   <g id="text_57">
    <text style="font-family:DejaVu Sans;font-size:10px;font-stretch:normal;font-style:normal;font-weight:normal;text-anchor:middle;" transform="rotate(-0, 414.010814, 49.955475)" x="414.010814" y="49.955475">9</text>
   </g>
   <g id="text_58">
    <text style="font-family:DejaVu Sans;font-size:12px;font-stretch:normal;font-style:normal;font-weight:normal;text-anchor:middle;" transform="rotate(-0, 257.593359, 19.918125)" x="257.593359" y="19.918125">Reasons to choose current job: Australia</text>
   </g>
   <g id="legend_1">
    <g id="patch_49">
     <path d="M 20.281641 337.666687 
L 494.905078 337.666687 
Q 496.905078 337.666687 496.905078 335.666687 
L 496.905078 263.276062 
Q 496.905078 261.276062 494.905078 261.276062 
L 20.281641 261.276062 
Q 18.281641 261.276062 18.281641 263.276062 
L 18.281641 335.666687 
Q 18.281641 337.666687 20.281641 337.666687 
z
" style="fill:#ffffff;opacity:0.8;stroke:#cccccc;stroke-linejoin:miter;"/>
    </g>
    <g id="patch_50">
     <path d="M 22.281641 272.8745 
L 42.281641 272.8745 
L 42.281641 265.8745 
L 22.281641 265.8745 
z
" style="fill:#1f77b4;"/>
    </g>
    <g id="text_59">
     <text style="font-family:DejaVu Sans;font-size:10px;font-stretch:normal;font-style:normal;font-weight:normal;text-anchor:start;" transform="rotate(-0, 50.281641, 272.8745)" x="50.281641" y="272.8745">Desire to work in a research environment</text>
    </g>
    <g id="patch_51">
     <path d="M 22.281641 287.552625 
L 42.281641 287.552625 
L 42.281641 280.552625 
L 22.281641 280.552625 
z
" style="fill:#ff7f0e;"/>
    </g>
    <g id="text_60">
     <text style="font-family:DejaVu Sans;font-size:10px;font-stretch:normal;font-style:normal;font-weight:normal;text-anchor:start;" transform="rotate(-0, 50.281641, 287.552625)" x="50.281641" y="287.552625">Freedom to choose own working practices</text>
    </g>
    <g id="patch_52">
     <path d="M 22.281641 302.23075 
L 42.281641 302.23075 
L 42.281641 295.23075 
L 22.281641 295.23075 
z
" style="fill:#2ca02c;"/>
    </g>
    <g id="text_61">
     <text style="font-family:DejaVu Sans;font-size:10px;font-stretch:normal;font-style:normal;font-weight:normal;text-anchor:start;" transform="rotate(-0, 50.281641, 302.23075)" x="50.281641" y="302.23075">Desire to advance research</text>
    </g>
    <g id="patch_53">
     <path d="M 22.281641 316.908875 
L 42.281641 316.908875 
L 42.281641 309.908875 
L 22.281641 309.908875 
z
" style="fill:#d62728;"/>
    </g>
    <g id="text_62">
     <text style="font-family:DejaVu Sans;font-size:10px;font-stretch:normal;font-style:normal;font-weight:normal;text-anchor:start;" transform="rotate(-0, 50.281641, 316.908875)" x="50.281641" y="316.908875">Opportunity to develop software</text>
    </g>
    <g id="patch_54">
     <path d="M 22.281641 331.587 
L 42.281641 331.587 
L 42.281641 324.587 
L 22.281641 324.587 
z
" style="fill:#9467bd;"/>
    </g>
    <g id="text_63">
     <text style="font-family:DejaVu Sans;font-size:10px;font-stretch:normal;font-style:normal;font-weight:normal;text-anchor:start;" transform="rotate(-0, 50.281641, 331.587)" x="50.281641" y="331.587">Ability to work across disciplines</text>
    </g>
    <g id="patch_55">
     <path d="M 281.016016 272.8745 
L 301.016016 272.8745 
L 301.016016 265.8745 
L 281.016016 265.8745 
z
" style="fill:#8c564b;"/>
    </g>
    <g id="text_64">
     <text style="font-family:DejaVu Sans;font-size:10px;font-stretch:normal;font-style:normal;font-weight:normal;text-anchor:start;" transform="rotate(-0, 309.016016, 272.8745)" x="309.016016" y="272.8745">I want to learn new skills</text>
    </g>
    <g id="patch_56">
     <path d="M 281.016016 287.552625 
L 301.016016 287.552625 
L 301.016016 280.552625 
L 281.016016 280.552625 
z
" style="fill:#e377c2;"/>
    </g>
    <g id="text_65">
     <text style="font-family:DejaVu Sans;font-size:10px;font-stretch:normal;font-style:normal;font-weight:normal;text-anchor:start;" transform="rotate(-0, 309.016016, 287.552625)" x="309.016016" y="287.552625">Opportunity for career advancement</text>
    </g>
    <g id="patch_57">
     <path d="M 281.016016 302.23075 
L 301.016016 302.23075 
L 301.016016 295.23075 
L 281.016016 295.23075 
z
" style="fill:#7f7f7f;"/>
    </g>
    <g id="text_66">
     <text style="font-family:DejaVu Sans;font-size:10px;font-stretch:normal;font-style:normal;font-weight:normal;text-anchor:start;" transform="rotate(-0, 309.016016, 302.23075)" x="309.016016" y="302.23075">Flexible working hours</text>
    </g>
    <g id="patch_58">
     <path d="M 281.016016 316.908875 
L 301.016016 316.908875 
L 301.016016 309.908875 
L 281.016016 309.908875 
z
" style="fill:#bcbd22;"/>
    </g>
    <g id="text_67">
     <text style="font-family:DejaVu Sans;font-size:10px;font-stretch:normal;font-style:normal;font-weight:normal;text-anchor:start;" transform="rotate(-0, 309.016016, 316.908875)" x="309.016016" y="316.908875">The salary</text>
    </g>
   </g>
  </g>
 </g>
 <defs>
  <clipPath id="pba05bf810c">
   <rect height="200.31125" width="383.189844" x="65.998438" y="25.918125"/>
  </clipPath>
 </defs>
</svg>
