<?xml version="1.0" encoding="utf-8" standalone="no"?>
<!DOCTYPE svg PUBLIC "-//W3C//DTD SVG 1.1//EN"
  "http://www.w3.org/Graphics/SVG/1.1/DTD/svg11.dtd">
<svg height="360pt" version="1.1" viewBox="0 0 504 360" width="504pt" xmlns="http://www.w3.org/2000/svg" xmlns:xlink="http://www.w3.org/1999/xlink">
 <metadata>
  <rdf:RDF xmlns:cc="http://creativecommons.org/ns#" xmlns:dc="http://purl.org/dc/elements/1.1/" xmlns:rdf="http://www.w3.org/1999/02/22-rdf-syntax-ns#">
   <cc:Work>
    <dc:type rdf:resource="http://purl.org/dc/dcmitype/StillImage"/>
    <dc:date>2021-08-04T21:05:26.879614</dc:date>
    <dc:format>image/svg+xml</dc:format>
    <dc:creator>
     <cc:Agent>
      <dc:title>Matplotlib v3.4.2, https://matplotlib.org/</dc:title>
     </cc:Agent>
    </dc:creator>
   </cc:Work>
  </rdf:RDF>
 </metadata>
 <defs>
  <style type="text/css">*{stroke-linecap:butt;stroke-linejoin:round;}</style>
 </defs>
 <g id="figure_1">
  <g id="patch_1">
   <path d="M 0 360 
L 504 360 
L 504 0 
L 0 0 
z
" style="fill:#ffffff;"/>
  </g>
  <g id="axes_1">
   <g id="patch_2">
    <path d="M 62.745313 238.643225 
L 487.025156 238.643225 
L 487.025156 25.389375 
L 62.745313 25.389375 
z
" style="fill:#ffffff;"/>
   </g>
   <g id="patch_3">
    <path clip-path="url(#p6b13f76b8e)" d="M 62.745313 227.980532 
L 183.968125 227.980532 
L 183.968125 206.655147 
L 62.745313 206.655147 
z
" style="fill:#1f77b4;"/>
   </g>
   <g id="patch_4">
    <path clip-path="url(#p6b13f76b8e)" d="M 62.745313 185.329762 
L 119.315958 185.329762 
L 119.315958 164.004377 
L 62.745313 164.004377 
z
" style="fill:#1f77b4;"/>
   </g>
   <g id="patch_5">
    <path clip-path="url(#p6b13f76b8e)" d="M 62.745313 142.678992 
L 86.989875 142.678992 
L 86.989875 121.353607 
L 62.745313 121.353607 
z
" style="fill:#1f77b4;"/>
   </g>
   <g id="patch_6">
    <path clip-path="url(#p6b13f76b8e)" d="M 62.745313 100.028222 
L 103.152917 100.028222 
L 103.152917 78.702837 
L 62.745313 78.702837 
z
" style="fill:#1f77b4;"/>
   </g>
   <g id="patch_7">
    <path clip-path="url(#p6b13f76b8e)" d="M 62.745313 57.377453 
L 86.989875 57.377453 
L 86.989875 36.052068 
L 62.745313 36.052068 
z
" style="fill:#1f77b4;"/>
   </g>
   <g id="patch_8">
    <path clip-path="url(#p6b13f76b8e)" d="M 183.968125 227.980532 
L 272.864854 227.980532 
L 272.864854 206.655147 
L 183.968125 206.655147 
z
" style="fill:#ff7f0e;"/>
   </g>
   <g id="patch_9">
    <path clip-path="url(#p6b13f76b8e)" d="M 119.315958 185.329762 
L 159.723562 185.329762 
L 159.723562 164.004377 
L 119.315958 164.004377 
z
" style="fill:#ff7f0e;"/>
   </g>
   <g id="patch_10">
    <path clip-path="url(#p6b13f76b8e)" d="M 86.989875 142.678992 
L 135.479 142.678992 
L 135.479 121.353607 
L 86.989875 121.353607 
z
" style="fill:#ff7f0e;"/>
   </g>
   <g id="patch_11">
    <path clip-path="url(#p6b13f76b8e)" d="M 103.152917 100.028222 
L 143.560521 100.028222 
L 143.560521 78.702837 
L 103.152917 78.702837 
z
" style="fill:#ff7f0e;"/>
   </g>
   <g id="patch_12">
    <path clip-path="url(#p6b13f76b8e)" d="M 86.989875 57.377453 
L 119.315958 57.377453 
L 119.315958 36.052068 
L 86.989875 36.052068 
z
" style="fill:#ff7f0e;"/>
   </g>
   <g id="patch_13">
    <path clip-path="url(#p6b13f76b8e)" d="M 272.864854 227.980532 
L 345.598542 227.980532 
L 345.598542 206.655147 
L 272.864854 206.655147 
z
" style="fill:#2ca02c;"/>
   </g>
   <g id="patch_14">
    <path clip-path="url(#p6b13f76b8e)" d="M 159.723562 185.329762 
L 256.701812 185.329762 
L 256.701812 164.004377 
L 159.723562 164.004377 
z
" style="fill:#2ca02c;"/>
   </g>
   <g id="patch_15">
    <path clip-path="url(#p6b13f76b8e)" d="M 135.479 142.678992 
L 200.131167 142.678992 
L 200.131167 121.353607 
L 135.479 121.353607 
z
" style="fill:#2ca02c;"/>
   </g>
   <g id="patch_16">
    <path clip-path="url(#p6b13f76b8e)" d="M 143.560521 100.028222 
L 192.049646 100.028222 
L 192.049646 78.702837 
L 143.560521 78.702837 
z
" style="fill:#2ca02c;"/>
   </g>
   <g id="patch_17">
    <path clip-path="url(#p6b13f76b8e)" d="M 119.315958 57.377453 
L 159.723562 57.377453 
L 159.723562 36.052068 
L 119.315958 36.052068 
z
" style="fill:#2ca02c;"/>
   </g>
   <g id="patch_18">
    <path clip-path="url(#p6b13f76b8e)" d="M 345.598542 227.980532 
L 377.924625 227.980532 
L 377.924625 206.655147 
L 345.598542 206.655147 
z
" style="fill:#d62728;"/>
   </g>
   <g id="patch_19">
    <path clip-path="url(#p6b13f76b8e)" d="M 256.701812 185.329762 
L 305.190937 185.329762 
L 305.190937 164.004377 
L 256.701812 164.004377 
z
" style="fill:#d62728;"/>
   </g>
   <g id="patch_20">
    <path clip-path="url(#p6b13f76b8e)" d="M 200.131167 142.678992 
L 248.620292 142.678992 
L 248.620292 121.353607 
L 200.131167 121.353607 
z
" style="fill:#d62728;"/>
   </g>
   <g id="patch_21">
    <path clip-path="url(#p6b13f76b8e)" d="M 192.049646 100.028222 
L 248.620292 100.028222 
L 248.620292 78.702837 
L 192.049646 78.702837 
z
" style="fill:#d62728;"/>
   </g>
   <g id="patch_22">
    <path clip-path="url(#p6b13f76b8e)" d="M 159.723562 57.377453 
L 224.375729 57.377453 
L 224.375729 36.052068 
L 159.723562 36.052068 
z
" style="fill:#d62728;"/>
   </g>
   <g id="patch_23">
    <path clip-path="url(#p6b13f76b8e)" d="M 377.924625 227.980532 
L 402.169187 227.980532 
L 402.169187 206.655147 
L 377.924625 206.655147 
z
" style="fill:#9467bd;"/>
   </g>
   <g id="patch_24">
    <path clip-path="url(#p6b13f76b8e)" d="M 305.190937 185.329762 
L 321.353979 185.329762 
L 321.353979 164.004377 
L 305.190937 164.004377 
z
" style="fill:#9467bd;"/>
   </g>
   <g id="patch_25">
    <path clip-path="url(#p6b13f76b8e)" d="M 248.620292 142.678992 
L 305.190937 142.678992 
L 305.190937 121.353607 
L 248.620292 121.353607 
z
" style="fill:#9467bd;"/>
   </g>
   <g id="patch_26">
    <path clip-path="url(#p6b13f76b8e)" d="M 248.620292 100.028222 
L 305.190937 100.028222 
L 305.190937 78.702837 
L 248.620292 78.702837 
z
" style="fill:#9467bd;"/>
   </g>
   <g id="patch_27">
    <path clip-path="url(#p6b13f76b8e)" d="M 224.375729 57.377453 
L 297.109417 57.377453 
L 297.109417 36.052068 
L 224.375729 36.052068 
z
" style="fill:#9467bd;"/>
   </g>
   <g id="patch_28">
    <path clip-path="url(#p6b13f76b8e)" d="M 402.169187 227.980532 
L 426.41375 227.980532 
L 426.41375 206.655147 
L 402.169187 206.655147 
z
" style="fill:#8c564b;"/>
   </g>
   <g id="patch_29">
    <path clip-path="url(#p6b13f76b8e)" d="M 321.353979 185.329762 
L 361.761583 185.329762 
L 361.761583 164.004377 
L 321.353979 164.004377 
z
" style="fill:#8c564b;"/>
   </g>
   <g id="patch_30">
    <path clip-path="url(#p6b13f76b8e)" d="M 305.190937 142.678992 
L 321.353979 142.678992 
L 321.353979 121.353607 
L 305.190937 121.353607 
z
" style="fill:#8c564b;"/>
   </g>
   <g id="patch_31">
    <path clip-path="url(#p6b13f76b8e)" d="M 305.190937 100.028222 
L 321.353979 100.028222 
L 321.353979 78.702837 
L 305.190937 78.702837 
z
" style="fill:#8c564b;"/>
   </g>
   <g id="patch_32">
    <path clip-path="url(#p6b13f76b8e)" d="M 297.109417 57.377453 
L 329.4355 57.377453 
L 329.4355 36.052068 
L 297.109417 36.052068 
z
" style="fill:#8c564b;"/>
   </g>
   <g id="patch_33">
    <path clip-path="url(#p6b13f76b8e)" d="M 426.41375 227.980532 
L 450.658312 227.980532 
L 450.658312 206.655147 
L 426.41375 206.655147 
z
" style="fill:#e377c2;"/>
   </g>
   <g id="patch_34">
    <path clip-path="url(#p6b13f76b8e)" d="M 361.761583 185.329762 
L 426.41375 185.329762 
L 426.41375 164.004377 
L 361.761583 164.004377 
z
" style="fill:#e377c2;"/>
   </g>
   <g id="patch_35">
    <path clip-path="url(#p6b13f76b8e)" d="M 321.353979 142.678992 
L 353.680062 142.678992 
L 353.680062 121.353607 
L 321.353979 121.353607 
z
" style="fill:#e377c2;"/>
   </g>
   <g id="patch_36">
    <path clip-path="url(#p6b13f76b8e)" d="M 321.353979 100.028222 
L 386.006146 100.028222 
L 386.006146 78.702837 
L 321.353979 78.702837 
z
" style="fill:#e377c2;"/>
   </g>
   <g id="patch_37">
    <path clip-path="url(#p6b13f76b8e)" d="M 329.4355 57.377453 
L 369.843104 57.377453 
L 369.843104 36.052068 
L 329.4355 36.052068 
z
" style="fill:#e377c2;"/>
   </g>
   <g id="patch_38">
    <path clip-path="url(#p6b13f76b8e)" d="M 450.658312 227.980532 
L 466.821354 227.980532 
L 466.821354 206.655147 
L 450.658312 206.655147 
z
" style="fill:#7f7f7f;"/>
   </g>
   <g id="patch_39">
    <path clip-path="url(#p6b13f76b8e)" d="M 426.41375 185.329762 
L 442.576792 185.329762 
L 442.576792 164.004377 
L 426.41375 164.004377 
z
" style="fill:#7f7f7f;"/>
   </g>
   <g id="patch_40">
    <path clip-path="url(#p6b13f76b8e)" d="M 353.680062 142.678992 
L 386.006146 142.678992 
L 386.006146 121.353607 
L 353.680062 121.353607 
z
" style="fill:#7f7f7f;"/>
   </g>
   <g id="patch_41">
    <path clip-path="url(#p6b13f76b8e)" d="M 386.006146 100.028222 
L 410.250708 100.028222 
L 410.250708 78.702837 
L 386.006146 78.702837 
z
" style="fill:#7f7f7f;"/>
   </g>
   <g id="patch_42">
    <path clip-path="url(#p6b13f76b8e)" d="M 369.843104 57.377453 
L 418.332229 57.377453 
L 418.332229 36.052068 
L 369.843104 36.052068 
z
" style="fill:#7f7f7f;"/>
   </g>
   <g id="patch_43">
    <path clip-path="url(#p6b13f76b8e)" d="M 62.745313 227.980532 
L 62.745313 227.980532 
L 62.745313 206.655147 
L 62.745313 206.655147 
z
" style="fill:#bcbd22;"/>
   </g>
   <g id="patch_44">
    <path clip-path="url(#p6b13f76b8e)" d="M 442.576792 185.329762 
L 466.821354 185.329762 
L 466.821354 164.004377 
L 442.576792 164.004377 
z
" style="fill:#bcbd22;"/>
   </g>
   <g id="patch_45">
    <path clip-path="url(#p6b13f76b8e)" d="M 386.006146 142.678992 
L 466.821354 142.678992 
L 466.821354 121.353607 
L 386.006146 121.353607 
z
" style="fill:#bcbd22;"/>
   </g>
   <g id="patch_46">
    <path clip-path="url(#p6b13f76b8e)" d="M 410.250708 100.028222 
L 466.821354 100.028222 
L 466.821354 78.702837 
L 410.250708 78.702837 
z
" style="fill:#bcbd22;"/>
   </g>
   <g id="patch_47">
    <path clip-path="url(#p6b13f76b8e)" d="M 418.332229 57.377453 
L 466.821354 57.377453 
L 466.821354 36.052068 
L 418.332229 36.052068 
z
" style="fill:#bcbd22;"/>
   </g>
   <g id="matplotlib.axis_1">
    <g id="xtick_1">
     <g id="line2d_1">
      <defs>
       <path d="M 0 0 
L 0 3.5 
" id="mc3a356a46d" style="stroke:#000000;stroke-width:0.8;"/>
      </defs>
      <g>
       <use style="stroke:#000000;stroke-width:0.8;" x="62.745313" xlink:href="#mc3a356a46d" y="238.643225"/>
      </g>
     </g>
     <g id="text_1">
      <text style="font-family:Arial;font-size:10px;font-stretch:normal;font-style:normal;font-weight:normal;text-anchor:middle;" transform="rotate(-0, 62.745313, 252.801037)" x="62.745313" y="252.801037">0</text>
     </g>
    </g>
    <g id="xtick_2">
     <g id="line2d_2">
      <g>
       <use style="stroke:#000000;stroke-width:0.8;" x="143.560521" xlink:href="#mc3a356a46d" y="238.643225"/>
      </g>
     </g>
     <g id="text_2">
      <text style="font-family:Arial;font-size:10px;font-stretch:normal;font-style:normal;font-weight:normal;text-anchor:middle;" transform="rotate(-0, 143.560521, 252.801037)" x="143.560521" y="252.801037">20</text>
     </g>
    </g>
    <g id="xtick_3">
     <g id="line2d_3">
      <g>
       <use style="stroke:#000000;stroke-width:0.8;" x="224.375729" xlink:href="#mc3a356a46d" y="238.643225"/>
      </g>
     </g>
     <g id="text_3">
      <text style="font-family:Arial;font-size:10px;font-stretch:normal;font-style:normal;font-weight:normal;text-anchor:middle;" transform="rotate(-0, 224.375729, 252.801037)" x="224.375729" y="252.801037">40</text>
     </g>
    </g>
    <g id="xtick_4">
     <g id="line2d_4">
      <g>
       <use style="stroke:#000000;stroke-width:0.8;" x="305.190937" xlink:href="#mc3a356a46d" y="238.643225"/>
      </g>
     </g>
     <g id="text_4">
      <text style="font-family:Arial;font-size:10px;font-stretch:normal;font-style:normal;font-weight:normal;text-anchor:middle;" transform="rotate(-0, 305.190937, 252.801037)" x="305.190937" y="252.801037">60</text>
     </g>
    </g>
    <g id="xtick_5">
     <g id="line2d_5">
      <g>
       <use style="stroke:#000000;stroke-width:0.8;" x="386.006146" xlink:href="#mc3a356a46d" y="238.643225"/>
      </g>
     </g>
     <g id="text_5">
      <text style="font-family:Arial;font-size:10px;font-stretch:normal;font-style:normal;font-weight:normal;text-anchor:middle;" transform="rotate(-0, 386.006146, 252.801037)" x="386.006146" y="252.801037">80</text>
     </g>
    </g>
    <g id="xtick_6">
     <g id="line2d_6">
      <g>
       <use style="stroke:#000000;stroke-width:0.8;" x="466.821354" xlink:href="#mc3a356a46d" y="238.643225"/>
      </g>
     </g>
     <g id="text_6">
      <text style="font-family:Arial;font-size:10px;font-stretch:normal;font-style:normal;font-weight:normal;text-anchor:middle;" transform="rotate(-0, 466.821354, 252.801037)" x="466.821354" y="252.801037">100</text>
     </g>
    </g>
    <g id="text_7">
     <text style="font-family:Arial;font-size:10px;font-stretch:normal;font-style:normal;font-weight:normal;text-anchor:middle;" transform="rotate(-0, 274.885234, 266.068225)" x="274.885234" y="266.068225">Ranking of importance</text>
    </g>
   </g>
   <g id="matplotlib.axis_2">
    <g id="ytick_1">
     <g id="line2d_7">
      <defs>
       <path d="M 0 0 
L -3.5 0 
" id="m82278324de" style="stroke:#000000;stroke-width:0.8;"/>
      </defs>
      <g>
       <use style="stroke:#000000;stroke-width:0.8;" x="62.745313" xlink:href="#m82278324de" y="217.31784"/>
      </g>
     </g>
     <g id="text_8">
      <text style="font-family:Arial;font-size:10px;font-stretch:normal;font-style:normal;font-weight:normal;text-anchor:end;" transform="rotate(-0, 55.745313, 220.896746)" x="55.745313" y="220.896746">Rank 1</text>
     </g>
    </g>
    <g id="ytick_2">
     <g id="line2d_8">
      <g>
       <use style="stroke:#000000;stroke-width:0.8;" x="62.745313" xlink:href="#m82278324de" y="174.66707"/>
      </g>
     </g>
     <g id="text_9">
      <text style="font-family:Arial;font-size:10px;font-stretch:normal;font-style:normal;font-weight:normal;text-anchor:end;" transform="rotate(-0, 55.745313, 178.245976)" x="55.745313" y="178.245976">Rank 2</text>
     </g>
    </g>
    <g id="ytick_3">
     <g id="line2d_9">
      <g>
       <use style="stroke:#000000;stroke-width:0.8;" x="62.745313" xlink:href="#m82278324de" y="132.0163"/>
      </g>
     </g>
     <g id="text_10">
      <text style="font-family:Arial;font-size:10px;font-stretch:normal;font-style:normal;font-weight:normal;text-anchor:end;" transform="rotate(-0, 55.745313, 135.595206)" x="55.745313" y="135.595206">Rank 3</text>
     </g>
    </g>
    <g id="ytick_4">
     <g id="line2d_10">
      <g>
       <use style="stroke:#000000;stroke-width:0.8;" x="62.745313" xlink:href="#m82278324de" y="89.36553"/>
      </g>
     </g>
     <g id="text_11">
      <text style="font-family:Arial;font-size:10px;font-stretch:normal;font-style:normal;font-weight:normal;text-anchor:end;" transform="rotate(-0, 55.745313, 92.944436)" x="55.745313" y="92.944436">Rank 4</text>
     </g>
    </g>
    <g id="ytick_5">
     <g id="line2d_11">
      <g>
       <use style="stroke:#000000;stroke-width:0.8;" x="62.745313" xlink:href="#m82278324de" y="46.71476"/>
      </g>
     </g>
     <g id="text_12">
      <text style="font-family:Arial;font-size:10px;font-stretch:normal;font-style:normal;font-weight:normal;text-anchor:end;" transform="rotate(-0, 55.745313, 50.293666)" x="55.745313" y="50.293666">Rank 5</text>
     </g>
    </g>
    <g id="text_13">
     <text style="font-family:Arial;font-size:10px;font-stretch:normal;font-style:normal;font-weight:normal;text-anchor:middle;" transform="rotate(-90, 17.957813, 132.0163)" x="17.957813" y="132.0163">Percentage</text>
    </g>
   </g>
   <g id="patch_48">
    <path d="M 62.745313 238.643225 
L 487.025156 238.643225 
" style="fill:none;stroke:#000000;stroke-linecap:square;stroke-linejoin:miter;stroke-width:0.8;"/>
   </g>
   <g id="text_14">
    <text style="font-family:Arial;font-size:10px;font-stretch:normal;font-style:normal;font-weight:normal;text-anchor:middle;" transform="rotate(-0, 123.356719, 221.582917)" x="123.356719" y="221.582917">30</text>
   </g>
   <g id="text_15">
    <text style="font-family:Arial;font-size:10px;font-stretch:normal;font-style:normal;font-weight:normal;text-anchor:middle;" transform="rotate(-0, 91.030635, 178.932147)" x="91.030635" y="178.932147">14</text>
   </g>
   <g id="text_16">
    <text style="font-family:Arial;font-size:10px;font-stretch:normal;font-style:normal;font-weight:normal;text-anchor:middle;" transform="rotate(-0, 74.867594, 136.281377)" x="74.867594" y="136.281377">6</text>
   </g>
   <g id="text_17">
    <text style="font-family:Arial;font-size:10px;font-stretch:normal;font-style:normal;font-weight:normal;text-anchor:middle;" transform="rotate(-0, 82.949115, 93.630607)" x="82.949115" y="93.630607">10</text>
   </g>
   <g id="text_18">
    <text style="font-family:Arial;font-size:10px;font-stretch:normal;font-style:normal;font-weight:normal;text-anchor:middle;" transform="rotate(-0, 74.867594, 50.979837)" x="74.867594" y="50.979837">6</text>
   </g>
   <g id="text_19">
    <text style="font-family:Arial;font-size:10px;font-stretch:normal;font-style:normal;font-weight:normal;text-anchor:middle;" transform="rotate(-0, 228.41649, 221.582917)" x="228.41649" y="221.582917">22</text>
   </g>
   <g id="text_20">
    <text style="font-family:Arial;font-size:10px;font-stretch:normal;font-style:normal;font-weight:normal;text-anchor:middle;" transform="rotate(-0, 139.51976, 178.932147)" x="139.51976" y="178.932147">10</text>
   </g>
   <g id="text_21">
    <text style="font-family:Arial;font-size:10px;font-stretch:normal;font-style:normal;font-weight:normal;text-anchor:middle;" transform="rotate(-0, 111.234437, 136.281377)" x="111.234437" y="136.281377">12</text>
   </g>
   <g id="text_22">
    <text style="font-family:Arial;font-size:10px;font-stretch:normal;font-style:normal;font-weight:normal;text-anchor:middle;" transform="rotate(-0, 123.356719, 93.630607)" x="123.356719" y="93.630607">10</text>
   </g>
   <g id="text_23">
    <text style="font-family:Arial;font-size:10px;font-stretch:normal;font-style:normal;font-weight:normal;text-anchor:middle;" transform="rotate(-0, 103.152917, 50.979837)" x="103.152917" y="50.979837">8</text>
   </g>
   <g id="text_24">
    <text style="font-family:Arial;font-size:10px;font-stretch:normal;font-style:normal;font-weight:normal;text-anchor:middle;" transform="rotate(-0, 309.231698, 221.582917)" x="309.231698" y="221.582917">18</text>
   </g>
   <g id="text_25">
    <text style="font-family:Arial;font-size:10px;font-stretch:normal;font-style:normal;font-weight:normal;text-anchor:middle;" transform="rotate(-0, 208.212687, 178.932147)" x="208.212687" y="178.932147">24</text>
   </g>
   <g id="text_26">
    <text style="font-family:Arial;font-size:10px;font-stretch:normal;font-style:normal;font-weight:normal;text-anchor:middle;" transform="rotate(-0, 167.805083, 136.281377)" x="167.805083" y="136.281377">16</text>
   </g>
   <g id="text_27">
    <text style="font-family:Arial;font-size:10px;font-stretch:normal;font-style:normal;font-weight:normal;text-anchor:middle;" transform="rotate(-0, 167.805083, 93.630607)" x="167.805083" y="93.630607">12</text>
   </g>
   <g id="text_28">
    <text style="font-family:Arial;font-size:10px;font-stretch:normal;font-style:normal;font-weight:normal;text-anchor:middle;" transform="rotate(-0, 139.51976, 50.979837)" x="139.51976" y="50.979837">10</text>
   </g>
   <g id="text_29">
    <text style="font-family:Arial;font-size:10px;font-stretch:normal;font-style:normal;font-weight:normal;text-anchor:middle;" transform="rotate(-0, 361.761583, 221.582917)" x="361.761583" y="221.582917">8</text>
   </g>
   <g id="text_30">
    <text style="font-family:Arial;font-size:10px;font-stretch:normal;font-style:normal;font-weight:normal;text-anchor:middle;" transform="rotate(-0, 280.946375, 178.932147)" x="280.946375" y="178.932147">12</text>
   </g>
   <g id="text_31">
    <text style="font-family:Arial;font-size:10px;font-stretch:normal;font-style:normal;font-weight:normal;text-anchor:middle;" transform="rotate(-0, 224.375729, 136.281377)" x="224.375729" y="136.281377">12</text>
   </g>
   <g id="text_32">
    <text style="font-family:Arial;font-size:10px;font-stretch:normal;font-style:normal;font-weight:normal;text-anchor:middle;" transform="rotate(-0, 220.334969, 93.630607)" x="220.334969" y="93.630607">14</text>
   </g>
   <g id="text_33">
    <text style="font-family:Arial;font-size:10px;font-stretch:normal;font-style:normal;font-weight:normal;text-anchor:middle;" transform="rotate(-0, 192.049646, 50.979837)" x="192.049646" y="50.979837">16</text>
   </g>
   <g id="text_34">
    <text style="font-family:Arial;font-size:10px;font-stretch:normal;font-style:normal;font-weight:normal;text-anchor:middle;" transform="rotate(-0, 390.046906, 221.582917)" x="390.046906" y="221.582917">6</text>
   </g>
   <g id="text_35">
    <text style="font-family:Arial;font-size:10px;font-stretch:normal;font-style:normal;font-weight:normal;text-anchor:middle;" transform="rotate(-0, 276.905615, 136.281377)" x="276.905615" y="136.281377">14</text>
   </g>
   <g id="text_36">
    <text style="font-family:Arial;font-size:10px;font-stretch:normal;font-style:normal;font-weight:normal;text-anchor:middle;" transform="rotate(-0, 276.905615, 93.630607)" x="276.905615" y="93.630607">14</text>
   </g>
   <g id="text_37">
    <text style="font-family:Arial;font-size:10px;font-stretch:normal;font-style:normal;font-weight:normal;text-anchor:middle;" transform="rotate(-0, 260.742573, 50.979837)" x="260.742573" y="50.979837">18</text>
   </g>
   <g id="text_38">
    <text style="font-family:Arial;font-size:10px;font-stretch:normal;font-style:normal;font-weight:normal;text-anchor:middle;" transform="rotate(-0, 414.291469, 221.582917)" x="414.291469" y="221.582917">6</text>
   </g>
   <g id="text_39">
    <text style="font-family:Arial;font-size:10px;font-stretch:normal;font-style:normal;font-weight:normal;text-anchor:middle;" transform="rotate(-0, 341.557781, 178.932147)" x="341.557781" y="178.932147">10</text>
   </g>
   <g id="text_40">
    <text style="font-family:Arial;font-size:10px;font-stretch:normal;font-style:normal;font-weight:normal;text-anchor:middle;" transform="rotate(-0, 313.272458, 50.979837)" x="313.272458" y="50.979837">8</text>
   </g>
   <g id="text_41">
    <text style="font-family:Arial;font-size:10px;font-stretch:normal;font-style:normal;font-weight:normal;text-anchor:middle;" transform="rotate(-0, 438.536031, 221.582917)" x="438.536031" y="221.582917">6</text>
   </g>
   <g id="text_42">
    <text style="font-family:Arial;font-size:10px;font-stretch:normal;font-style:normal;font-weight:normal;text-anchor:middle;" transform="rotate(-0, 394.087667, 178.932147)" x="394.087667" y="178.932147">16</text>
   </g>
   <g id="text_43">
    <text style="font-family:Arial;font-size:10px;font-stretch:normal;font-style:normal;font-weight:normal;text-anchor:middle;" transform="rotate(-0, 337.517021, 136.281377)" x="337.517021" y="136.281377">8</text>
   </g>
   <g id="text_44">
    <text style="font-family:Arial;font-size:10px;font-stretch:normal;font-style:normal;font-weight:normal;text-anchor:middle;" transform="rotate(-0, 353.680062, 93.630607)" x="353.680062" y="93.630607">16</text>
   </g>
   <g id="text_45">
    <text style="font-family:Arial;font-size:10px;font-stretch:normal;font-style:normal;font-weight:normal;text-anchor:middle;" transform="rotate(-0, 349.639302, 50.979837)" x="349.639302" y="50.979837">10</text>
   </g>
   <g id="text_46">
    <text style="font-family:Arial;font-size:10px;font-stretch:normal;font-style:normal;font-weight:normal;text-anchor:middle;" transform="rotate(-0, 369.843104, 136.281377)" x="369.843104" y="136.281377">8</text>
   </g>
   <g id="text_47">
    <text style="font-family:Arial;font-size:10px;font-stretch:normal;font-style:normal;font-weight:normal;text-anchor:middle;" transform="rotate(-0, 398.128427, 93.630607)" x="398.128427" y="93.630607">6</text>
   </g>
   <g id="text_48">
    <text style="font-family:Arial;font-size:10px;font-stretch:normal;font-style:normal;font-weight:normal;text-anchor:middle;" transform="rotate(-0, 394.087667, 50.979837)" x="394.087667" y="50.979837">12</text>
   </g>
   <g id="text_49">
    <text style="font-family:Arial;font-size:10px;font-stretch:normal;font-style:normal;font-weight:normal;text-anchor:middle;" transform="rotate(-0, 454.699073, 178.932147)" x="454.699073" y="178.932147">6</text>
   </g>
   <g id="text_50">
    <text style="font-family:Arial;font-size:10px;font-stretch:normal;font-style:normal;font-weight:normal;text-anchor:middle;" transform="rotate(-0, 426.41375, 136.281377)" x="426.41375" y="136.281377">20</text>
   </g>
   <g id="text_51">
    <text style="font-family:Arial;font-size:10px;font-stretch:normal;font-style:normal;font-weight:normal;text-anchor:middle;" transform="rotate(-0, 438.536031, 93.630607)" x="438.536031" y="93.630607">14</text>
   </g>
   <g id="text_52">
    <text style="font-family:Arial;font-size:10px;font-stretch:normal;font-style:normal;font-weight:normal;text-anchor:middle;" transform="rotate(-0, 442.576792, 50.979837)" x="442.576792" y="50.979837">12</text>
   </g>
   <g id="text_53">
    <text style="font-family:Arial;font-size:12px;font-stretch:normal;font-style:normal;font-weight:normal;text-anchor:middle;" transform="rotate(-0, 274.885234, 19.389375)" x="274.885234" y="19.389375">Reasons to choose current job: World</text>
   </g>
   <g id="legend_1">
    <g id="patch_49">
     <path d="M 61.201641 349.720365 
L 488.568828 349.720365 
Q 490.568828 349.720365 490.568828 347.720365 
L 490.568828 277.631302 
Q 490.568828 275.631302 488.568828 275.631302 
L 61.201641 275.631302 
Q 59.201641 275.631302 59.201641 277.631302 
L 59.201641 347.720365 
Q 59.201641 349.720365 61.201641 349.720365 
z
" style="fill:#ffffff;opacity:0.8;stroke:#cccccc;stroke-linejoin:miter;"/>
    </g>
    <g id="patch_50">
     <path d="M 63.201641 286.91724 
L 83.201641 286.91724 
L 83.201641 279.91724 
L 63.201641 279.91724 
z
" style="fill:#1f77b4;"/>
    </g>
    <g id="text_54">
     <text style="font-family:Arial;font-size:10px;font-stretch:normal;font-style:normal;font-weight:normal;text-anchor:start;" transform="rotate(-0, 91.201641, 286.91724)" x="91.201641" y="286.91724">Freedom to choose own working practices</text>
    </g>
    <g id="patch_51">
     <path d="M 63.201641 301.17974 
L 83.201641 301.17974 
L 83.201641 294.17974 
L 63.201641 294.17974 
z
" style="fill:#ff7f0e;"/>
    </g>
    <g id="text_55">
     <text style="font-family:Arial;font-size:10px;font-stretch:normal;font-style:normal;font-weight:normal;text-anchor:start;" transform="rotate(-0, 91.201641, 301.17974)" x="91.201641" y="301.17974">Desire to advance research</text>
    </g>
    <g id="patch_52">
     <path d="M 63.201641 315.325052 
L 83.201641 315.325052 
L 83.201641 308.325052 
L 63.201641 308.325052 
z
" style="fill:#2ca02c;"/>
    </g>
    <g id="text_56">
     <text style="font-family:Arial;font-size:10px;font-stretch:normal;font-style:normal;font-weight:normal;text-anchor:start;" transform="rotate(-0, 91.201641, 315.325052)" x="91.201641" y="315.325052">Desire to work in a research environment</text>
    </g>
    <g id="patch_53">
     <path d="M 63.201641 329.470365 
L 83.201641 329.470365 
L 83.201641 322.470365 
L 63.201641 322.470365 
z
" style="fill:#d62728;"/>
    </g>
    <g id="text_57">
     <text style="font-family:Arial;font-size:10px;font-stretch:normal;font-style:normal;font-weight:normal;text-anchor:start;" transform="rotate(-0, 91.201641, 329.470365)" x="91.201641" y="329.470365">Flexible working hours</text>
    </g>
    <g id="patch_54">
     <path d="M 63.201641 343.732865 
L 83.201641 343.732865 
L 83.201641 336.732865 
L 63.201641 336.732865 
z
" style="fill:#9467bd;"/>
    </g>
    <g id="text_58">
     <text style="font-family:Arial;font-size:10px;font-stretch:normal;font-style:normal;font-weight:normal;text-anchor:start;" transform="rotate(-0, 91.201641, 343.732865)" x="91.201641" y="343.732865">I want to learn new skills</text>
    </g>
    <g id="patch_55">
     <path d="M 298.498516 286.91724 
L 318.498516 286.91724 
L 318.498516 279.91724 
L 298.498516 279.91724 
z
" style="fill:#8c564b;"/>
    </g>
    <g id="text_59">
     <text style="font-family:Arial;font-size:10px;font-stretch:normal;font-style:normal;font-weight:normal;text-anchor:start;" transform="rotate(-0, 326.498516, 286.91724)" x="326.498516" y="286.91724">Opportunity for career advancement</text>
    </g>
    <g id="patch_56">
     <path d="M 298.498516 301.307865 
L 318.498516 301.307865 
L 318.498516 294.307865 
L 298.498516 294.307865 
z
" style="fill:#e377c2;"/>
    </g>
    <g id="text_60">
     <text style="font-family:Arial;font-size:10px;font-stretch:normal;font-style:normal;font-weight:normal;text-anchor:start;" transform="rotate(-0, 326.498516, 301.307865)" x="326.498516" y="301.307865">Opportunity to develop software</text>
    </g>
    <g id="patch_57">
     <path d="M 298.498516 315.570365 
L 318.498516 315.570365 
L 318.498516 308.570365 
L 298.498516 308.570365 
z
" style="fill:#7f7f7f;"/>
    </g>
    <g id="text_61">
     <text style="font-family:Arial;font-size:10px;font-stretch:normal;font-style:normal;font-weight:normal;text-anchor:start;" transform="rotate(-0, 326.498516, 315.570365)" x="326.498516" y="315.570365">The salary</text>
    </g>
    <g id="patch_58">
     <path d="M 298.498516 329.832865 
L 318.498516 329.832865 
L 318.498516 322.832865 
L 298.498516 322.832865 
z
" style="fill:#bcbd22;"/>
    </g>
    <g id="text_62">
     <text style="font-family:Arial;font-size:10px;font-stretch:normal;font-style:normal;font-weight:normal;text-anchor:start;" transform="rotate(-0, 326.498516, 329.832865)" x="326.498516" y="329.832865">Ability to work across disciplines</text>
    </g>
   </g>
  </g>
 </g>
 <defs>
  <clipPath id="p6b13f76b8e">
   <rect height="213.25385" width="424.279844" x="62.745313" y="25.389375"/>
  </clipPath>
 </defs>
</svg>
