<?xml version="1.0" encoding="utf-8" standalone="no"?>
<!DOCTYPE svg PUBLIC "-//W3C//DTD SVG 1.1//EN"
  "http://www.w3.org/Graphics/SVG/1.1/DTD/svg11.dtd">
<svg height="360pt" version="1.1" viewBox="0 0 504 360" width="504pt" xmlns="http://www.w3.org/2000/svg" xmlns:xlink="http://www.w3.org/1999/xlink">
 <metadata>
  <rdf:RDF xmlns:cc="http://creativecommons.org/ns#" xmlns:dc="http://purl.org/dc/elements/1.1/" xmlns:rdf="http://www.w3.org/1999/02/22-rdf-syntax-ns#">
   <cc:Work>
    <dc:type rdf:resource="http://purl.org/dc/dcmitype/StillImage"/>
    <dc:date>2021-07-09T14:36:14.644318</dc:date>
    <dc:format>image/svg+xml</dc:format>
    <dc:creator>
     <cc:Agent>
      <dc:title>Matplotlib v3.4.2, https://matplotlib.org/</dc:title>
     </cc:Agent>
    </dc:creator>
   </cc:Work>
  </rdf:RDF>
 </metadata>
 <defs>
  <style type="text/css">*{stroke-linecap:butt;stroke-linejoin:round;}</style>
 </defs>
 <g id="figure_1">
  <g id="patch_1">
   <path d="M 0 360 
L 504 360 
L 504 0 
L 0 0 
z
" style="fill:#ffffff;"/>
  </g>
  <g id="axes_1">
   <g id="patch_2">
    <path d="M 62.745313 238.5097 
L 487.025156 238.5097 
L 487.025156 25.535625 
L 62.745313 25.535625 
z
" style="fill:#ffffff;"/>
   </g>
   <g id="patch_3">
    <path clip-path="url(#pca7a573696)" d="M 62.745313 227.860996 
L 160.627087 227.860996 
L 160.627087 206.563589 
L 62.745313 206.563589 
z
" style="fill:#1f77b4;"/>
   </g>
   <g id="patch_4">
    <path clip-path="url(#pca7a573696)" d="M 62.745313 185.266181 
L 125.490039 185.266181 
L 125.490039 163.968774 
L 62.745313 163.968774 
z
" style="fill:#1f77b4;"/>
   </g>
   <g id="patch_5">
    <path clip-path="url(#pca7a573696)" d="M 62.745313 142.671366 
L 123.167898 142.671366 
L 123.167898 121.373959 
L 62.745313 121.373959 
z
" style="fill:#1f77b4;"/>
   </g>
   <g id="patch_6">
    <path clip-path="url(#pca7a573696)" d="M 62.745313 100.076551 
L 95.474213 100.076551 
L 95.474213 78.779144 
L 62.745313 78.779144 
z
" style="fill:#1f77b4;"/>
   </g>
   <g id="patch_7">
    <path clip-path="url(#pca7a573696)" d="M 62.745313 57.481736 
L 91.788278 57.481736 
L 91.788278 36.184329 
L 62.745313 36.184329 
z
" style="fill:#1f77b4;"/>
   </g>
   <g id="patch_8">
    <path clip-path="url(#pca7a573696)" d="M 160.627087 227.860996 
L 257.253966 227.860996 
L 257.253966 206.563589 
L 160.627087 206.563589 
z
" style="fill:#ff7f0e;"/>
   </g>
   <g id="patch_9">
    <path clip-path="url(#pca7a573696)" d="M 125.490039 185.266181 
L 193.254345 185.266181 
L 193.254345 163.968774 
L 125.490039 163.968774 
z
" style="fill:#ff7f0e;"/>
   </g>
   <g id="patch_10">
    <path clip-path="url(#pca7a573696)" d="M 123.167898 142.671366 
L 183.590484 142.671366 
L 183.590484 121.373959 
L 123.167898 121.373959 
z
" style="fill:#ff7f0e;"/>
   </g>
   <g id="patch_11">
    <path clip-path="url(#pca7a573696)" d="M 95.474213 100.076551 
L 131.979525 100.076551 
L 131.979525 78.779144 
L 95.474213 78.779144 
z
" style="fill:#ff7f0e;"/>
   </g>
   <g id="patch_12">
    <path clip-path="url(#pca7a573696)" d="M 91.788278 57.481736 
L 146.085996 57.481736 
L 146.085996 36.184329 
L 91.788278 36.184329 
z
" style="fill:#ff7f0e;"/>
   </g>
   <g id="patch_13">
    <path clip-path="url(#pca7a573696)" d="M 257.253966 227.860996 
L 323.763377 227.860996 
L 323.763377 206.563589 
L 257.253966 206.563589 
z
" style="fill:#2ca02c;"/>
   </g>
   <g id="patch_14">
    <path clip-path="url(#pca7a573696)" d="M 193.254345 185.266181 
L 244.705021 185.266181 
L 244.705021 163.968774 
L 193.254345 163.968774 
z
" style="fill:#2ca02c;"/>
   </g>
   <g id="patch_15">
    <path clip-path="url(#pca7a573696)" d="M 183.590484 142.671366 
L 216.319384 142.671366 
L 216.319384 121.373959 
L 183.590484 121.373959 
z
" style="fill:#2ca02c;"/>
   </g>
   <g id="patch_16">
    <path clip-path="url(#pca7a573696)" d="M 131.979525 100.076551 
L 169.743641 100.076551 
L 169.743641 78.779144 
L 131.979525 78.779144 
z
" style="fill:#2ca02c;"/>
   </g>
   <g id="patch_17">
    <path clip-path="url(#pca7a573696)" d="M 146.085996 57.481736 
L 175.128962 57.481736 
L 175.128962 36.184329 
L 146.085996 36.184329 
z
" style="fill:#2ca02c;"/>
   </g>
   <g id="patch_18">
    <path clip-path="url(#pca7a573696)" d="M 323.763377 227.860996 
L 375.214053 227.860996 
L 375.214053 206.563589 
L 323.763377 206.563589 
z
" style="fill:#d62728;"/>
   </g>
   <g id="patch_19">
    <path clip-path="url(#pca7a573696)" d="M 244.705021 185.266181 
L 298.665486 185.266181 
L 298.665486 163.968774 
L 244.705021 163.968774 
z
" style="fill:#d62728;"/>
   </g>
   <g id="patch_20">
    <path clip-path="url(#pca7a573696)" d="M 216.319384 142.671366 
L 278.000774 142.671366 
L 278.000774 121.373959 
L 216.319384 121.373959 
z
" style="fill:#d62728;"/>
   </g>
   <g id="patch_21">
    <path clip-path="url(#pca7a573696)" d="M 169.743641 100.076551 
L 232.683835 100.076551 
L 232.683835 78.779144 
L 169.743641 78.779144 
z
" style="fill:#d62728;"/>
   </g>
   <g id="patch_22">
    <path clip-path="url(#pca7a573696)" d="M 175.128962 57.481736 
L 234.47763 57.481736 
L 234.47763 36.184329 
L 175.128962 36.184329 
z
" style="fill:#d62728;"/>
   </g>
   <g id="patch_23">
    <path clip-path="url(#pca7a573696)" d="M 375.214053 227.860996 
L 409.096205 227.860996 
L 409.096205 206.563589 
L 375.214053 206.563589 
z
" style="fill:#9467bd;"/>
   </g>
   <g id="patch_24">
    <path clip-path="url(#pca7a573696)" d="M 298.665486 185.266181 
L 355.13574 185.266181 
L 355.13574 163.968774 
L 298.665486 163.968774 
z
" style="fill:#9467bd;"/>
   </g>
   <g id="patch_25">
    <path clip-path="url(#pca7a573696)" d="M 278.000774 142.671366 
L 338.42336 142.671366 
L 338.42336 121.373959 
L 278.000774 121.373959 
z
" style="fill:#9467bd;"/>
   </g>
   <g id="patch_26">
    <path clip-path="url(#pca7a573696)" d="M 232.683835 100.076551 
L 275.483166 100.076551 
L 275.483166 78.779144 
L 232.683835 78.779144 
z
" style="fill:#9467bd;"/>
   </g>
   <g id="patch_27">
    <path clip-path="url(#pca7a573696)" d="M 234.47763 57.481736 
L 273.622497 57.481736 
L 273.622497 36.184329 
L 234.47763 36.184329 
z
" style="fill:#9467bd;"/>
   </g>
   <g id="patch_28">
    <path clip-path="url(#pca7a573696)" d="M 409.096205 227.860996 
L 427.919623 227.860996 
L 427.919623 206.563589 
L 409.096205 206.563589 
z
" style="fill:#8c564b;"/>
   </g>
   <g id="patch_29">
    <path clip-path="url(#pca7a573696)" d="M 355.13574 185.266181 
L 371.449369 185.266181 
L 371.449369 163.968774 
L 355.13574 163.968774 
z
" style="fill:#8c564b;"/>
   </g>
   <g id="patch_30">
    <path clip-path="url(#pca7a573696)" d="M 338.42336 142.671366 
L 368.634652 142.671366 
L 368.634652 121.373959 
L 338.42336 121.373959 
z
" style="fill:#8c564b;"/>
   </g>
   <g id="patch_31">
    <path clip-path="url(#pca7a573696)" d="M 275.483166 100.076551 
L 305.694459 100.076551 
L 305.694459 78.779144 
L 275.483166 78.779144 
z
" style="fill:#8c564b;"/>
   </g>
   <g id="patch_32">
    <path clip-path="url(#pca7a573696)" d="M 273.622497 57.481736 
L 302.665462 57.481736 
L 302.665462 36.184329 
L 273.622497 36.184329 
z
" style="fill:#8c564b;"/>
   </g>
   <g id="patch_33">
    <path clip-path="url(#pca7a573696)" d="M 427.919623 227.860996 
L 441.723463 227.860996 
L 441.723463 206.563589 
L 427.919623 206.563589 
z
" style="fill:#e377c2;"/>
   </g>
   <g id="patch_34">
    <path clip-path="url(#pca7a573696)" d="M 371.449369 185.266181 
L 419.135362 185.266181 
L 419.135362 163.968774 
L 371.449369 163.968774 
z
" style="fill:#e377c2;"/>
   </g>
   <g id="patch_35">
    <path clip-path="url(#pca7a573696)" d="M 368.634652 142.671366 
L 405.139965 142.671366 
L 405.139965 121.373959 
L 368.634652 121.373959 
z
" style="fill:#e377c2;"/>
   </g>
   <g id="patch_36">
    <path clip-path="url(#pca7a573696)" d="M 305.694459 100.076551 
L 366.117045 100.076551 
L 366.117045 78.779144 
L 305.694459 78.779144 
z
" style="fill:#e377c2;"/>
   </g>
   <g id="patch_37">
    <path clip-path="url(#pca7a573696)" d="M 302.665462 57.481736 
L 353.174967 57.481736 
L 353.174967 36.184329 
L 302.665462 36.184329 
z
" style="fill:#e377c2;"/>
   </g>
   <g id="patch_38">
    <path clip-path="url(#pca7a573696)" d="M 441.723463 227.860996 
L 455.527303 227.860996 
L 455.527303 206.563589 
L 441.723463 206.563589 
z
" style="fill:#7f7f7f;"/>
   </g>
   <g id="patch_39">
    <path clip-path="url(#pca7a573696)" d="M 419.135362 185.266181 
L 458.037092 185.266181 
L 458.037092 163.968774 
L 419.135362 163.968774 
z
" style="fill:#7f7f7f;"/>
   </g>
   <g id="patch_40">
    <path clip-path="url(#pca7a573696)" d="M 405.139965 142.671366 
L 452.974512 142.671366 
L 452.974512 121.373959 
L 405.139965 121.373959 
z
" style="fill:#7f7f7f;"/>
   </g>
   <g id="patch_41">
    <path clip-path="url(#pca7a573696)" d="M 366.117045 100.076551 
L 436.610061 100.076551 
L 436.610061 78.779144 
L 366.117045 78.779144 
z
" style="fill:#7f7f7f;"/>
   </g>
   <g id="patch_42">
    <path clip-path="url(#pca7a573696)" d="M 353.174967 57.481736 
L 427.676488 57.481736 
L 427.676488 36.184329 
L 353.174967 36.184329 
z
" style="fill:#7f7f7f;"/>
   </g>
   <g id="patch_43">
    <path clip-path="url(#pca7a573696)" d="M 455.527303 227.860996 
L 466.821354 227.860996 
L 466.821354 206.563589 
L 455.527303 206.563589 
z
" style="fill:#bcbd22;"/>
   </g>
   <g id="patch_44">
    <path clip-path="url(#pca7a573696)" d="M 458.037092 185.266181 
L 466.821354 185.266181 
L 466.821354 163.968774 
L 458.037092 163.968774 
z
" style="fill:#bcbd22;"/>
   </g>
   <g id="patch_45">
    <path clip-path="url(#pca7a573696)" d="M 452.974512 142.671366 
L 466.821354 142.671366 
L 466.821354 121.373959 
L 452.974512 121.373959 
z
" style="fill:#bcbd22;"/>
   </g>
   <g id="patch_46">
    <path clip-path="url(#pca7a573696)" d="M 436.610061 100.076551 
L 466.821354 100.076551 
L 466.821354 78.779144 
L 436.610061 78.779144 
z
" style="fill:#bcbd22;"/>
   </g>
   <g id="patch_47">
    <path clip-path="url(#pca7a573696)" d="M 427.676488 57.481736 
L 466.821354 57.481736 
L 466.821354 36.184329 
L 427.676488 36.184329 
z
" style="fill:#bcbd22;"/>
   </g>
   <g id="matplotlib.axis_1">
    <g id="xtick_1">
     <g id="line2d_1">
      <defs>
       <path d="M 0 0 
L 0 3.5 
" id="mc3a356a46d" style="stroke:#000000;stroke-width:0.8;"/>
      </defs>
      <g>
       <use style="stroke:#000000;stroke-width:0.8;" x="62.745313" xlink:href="#mc3a356a46d" y="238.5097"/>
      </g>
     </g>
     <g id="text_1">
      <text style="font-family:Arial;font-size:10px;font-stretch:normal;font-style:normal;font-weight:normal;text-anchor:middle;" transform="rotate(-0, 62.745313, 252.667512)" x="62.745313" y="252.667512">0</text>
     </g>
    </g>
    <g id="xtick_2">
     <g id="line2d_2">
      <g>
       <use style="stroke:#000000;stroke-width:0.8;" x="143.560521" xlink:href="#mc3a356a46d" y="238.5097"/>
      </g>
     </g>
     <g id="text_2">
      <text style="font-family:Arial;font-size:10px;font-stretch:normal;font-style:normal;font-weight:normal;text-anchor:middle;" transform="rotate(-0, 143.560521, 252.667512)" x="143.560521" y="252.667512">20</text>
     </g>
    </g>
    <g id="xtick_3">
     <g id="line2d_3">
      <g>
       <use style="stroke:#000000;stroke-width:0.8;" x="224.375729" xlink:href="#mc3a356a46d" y="238.5097"/>
      </g>
     </g>
     <g id="text_3">
      <text style="font-family:Arial;font-size:10px;font-stretch:normal;font-style:normal;font-weight:normal;text-anchor:middle;" transform="rotate(-0, 224.375729, 252.667512)" x="224.375729" y="252.667512">40</text>
     </g>
    </g>
    <g id="xtick_4">
     <g id="line2d_4">
      <g>
       <use style="stroke:#000000;stroke-width:0.8;" x="305.190937" xlink:href="#mc3a356a46d" y="238.5097"/>
      </g>
     </g>
     <g id="text_4">
      <text style="font-family:Arial;font-size:10px;font-stretch:normal;font-style:normal;font-weight:normal;text-anchor:middle;" transform="rotate(-0, 305.190937, 252.667512)" x="305.190937" y="252.667512">60</text>
     </g>
    </g>
    <g id="xtick_5">
     <g id="line2d_5">
      <g>
       <use style="stroke:#000000;stroke-width:0.8;" x="386.006146" xlink:href="#mc3a356a46d" y="238.5097"/>
      </g>
     </g>
     <g id="text_5">
      <text style="font-family:Arial;font-size:10px;font-stretch:normal;font-style:normal;font-weight:normal;text-anchor:middle;" transform="rotate(-0, 386.006146, 252.667512)" x="386.006146" y="252.667512">80</text>
     </g>
    </g>
    <g id="xtick_6">
     <g id="line2d_6">
      <g>
       <use style="stroke:#000000;stroke-width:0.8;" x="466.821354" xlink:href="#mc3a356a46d" y="238.5097"/>
      </g>
     </g>
     <g id="text_6">
      <text style="font-family:Arial;font-size:10px;font-stretch:normal;font-style:normal;font-weight:normal;text-anchor:middle;" transform="rotate(-0, 466.821354, 252.667512)" x="466.821354" y="252.667512">100</text>
     </g>
    </g>
    <g id="text_7">
     <text style="font-family:Arial;font-size:10px;font-stretch:normal;font-style:normal;font-weight:normal;text-anchor:middle;" transform="rotate(-0, 274.885234, 265.9347)" x="274.885234" y="265.9347">Ranking of importance</text>
    </g>
   </g>
   <g id="matplotlib.axis_2">
    <g id="ytick_1">
     <g id="line2d_7">
      <defs>
       <path d="M 0 0 
L -3.5 0 
" id="m82278324de" style="stroke:#000000;stroke-width:0.8;"/>
      </defs>
      <g>
       <use style="stroke:#000000;stroke-width:0.8;" x="62.745313" xlink:href="#m82278324de" y="217.212292"/>
      </g>
     </g>
     <g id="text_8">
      <text style="font-family:Arial;font-size:10px;font-stretch:normal;font-style:normal;font-weight:normal;text-anchor:end;" transform="rotate(-0, 55.745313, 220.791199)" x="55.745313" y="220.791199">Rank 1</text>
     </g>
    </g>
    <g id="ytick_2">
     <g id="line2d_8">
      <g>
       <use style="stroke:#000000;stroke-width:0.8;" x="62.745313" xlink:href="#m82278324de" y="174.617478"/>
      </g>
     </g>
     <g id="text_9">
      <text style="font-family:Arial;font-size:10px;font-stretch:normal;font-style:normal;font-weight:normal;text-anchor:end;" transform="rotate(-0, 55.745313, 178.196384)" x="55.745313" y="178.196384">Rank 2</text>
     </g>
    </g>
    <g id="ytick_3">
     <g id="line2d_9">
      <g>
       <use style="stroke:#000000;stroke-width:0.8;" x="62.745313" xlink:href="#m82278324de" y="132.022663"/>
      </g>
     </g>
     <g id="text_10">
      <text style="font-family:Arial;font-size:10px;font-stretch:normal;font-style:normal;font-weight:normal;text-anchor:end;" transform="rotate(-0, 55.745313, 135.601569)" x="55.745313" y="135.601569">Rank 3</text>
     </g>
    </g>
    <g id="ytick_4">
     <g id="line2d_10">
      <g>
       <use style="stroke:#000000;stroke-width:0.8;" x="62.745313" xlink:href="#m82278324de" y="89.427848"/>
      </g>
     </g>
     <g id="text_11">
      <text style="font-family:Arial;font-size:10px;font-stretch:normal;font-style:normal;font-weight:normal;text-anchor:end;" transform="rotate(-0, 55.745313, 93.006754)" x="55.745313" y="93.006754">Rank 4</text>
     </g>
    </g>
    <g id="ytick_5">
     <g id="line2d_11">
      <g>
       <use style="stroke:#000000;stroke-width:0.8;" x="62.745313" xlink:href="#m82278324de" y="46.833033"/>
      </g>
     </g>
     <g id="text_12">
      <text style="font-family:Arial;font-size:10px;font-stretch:normal;font-style:normal;font-weight:normal;text-anchor:end;" transform="rotate(-0, 55.745313, 50.411939)" x="55.745313" y="50.411939">Rank 5</text>
     </g>
    </g>
    <g id="text_13">
     <text style="font-family:Arial;font-size:10px;font-stretch:normal;font-style:normal;font-weight:normal;text-anchor:middle;" transform="rotate(-90, 17.957813, 132.022663)" x="17.957813" y="132.022663">Percentage</text>
    </g>
   </g>
   <g id="patch_48">
    <path d="M 62.745313 238.5097 
L 487.025156 238.5097 
" style="fill:none;stroke:#000000;stroke-linecap:square;stroke-linejoin:miter;stroke-width:0.8;"/>
   </g>
   <g id="text_14">
    <text style="font-family:Arial;font-size:10px;font-stretch:normal;font-style:normal;font-weight:normal;text-anchor:middle;" transform="rotate(-0, 111.6862, 221.471774)" x="111.6862" y="221.471774">24</text>
   </g>
   <g id="text_15">
    <text style="font-family:Arial;font-size:10px;font-stretch:normal;font-style:normal;font-weight:normal;text-anchor:middle;" transform="rotate(-0, 94.117676, 178.876959)" x="94.117676" y="178.876959">16</text>
   </g>
   <g id="text_16">
    <text style="font-family:Arial;font-size:10px;font-stretch:normal;font-style:normal;font-weight:normal;text-anchor:middle;" transform="rotate(-0, 92.956605, 136.282144)" x="92.956605" y="136.282144">15</text>
   </g>
   <g id="text_17">
    <text style="font-family:Arial;font-size:10px;font-stretch:normal;font-style:normal;font-weight:normal;text-anchor:middle;" transform="rotate(-0, 79.109763, 93.687329)" x="79.109763" y="93.687329">8</text>
   </g>
   <g id="text_18">
    <text style="font-family:Arial;font-size:10px;font-stretch:normal;font-style:normal;font-weight:normal;text-anchor:middle;" transform="rotate(-0, 77.266795, 51.092514)" x="77.266795" y="51.092514">7</text>
   </g>
   <g id="text_19">
    <text style="font-family:Arial;font-size:10px;font-stretch:normal;font-style:normal;font-weight:normal;text-anchor:middle;" transform="rotate(-0, 208.940526, 221.471774)" x="208.940526" y="221.471774">24</text>
   </g>
   <g id="text_20">
    <text style="font-family:Arial;font-size:10px;font-stretch:normal;font-style:normal;font-weight:normal;text-anchor:middle;" transform="rotate(-0, 159.372192, 178.876959)" x="159.372192" y="178.876959">17</text>
   </g>
   <g id="text_21">
    <text style="font-family:Arial;font-size:10px;font-stretch:normal;font-style:normal;font-weight:normal;text-anchor:middle;" transform="rotate(-0, 153.379191, 136.282144)" x="153.379191" y="136.282144">15</text>
   </g>
   <g id="text_22">
    <text style="font-family:Arial;font-size:10px;font-stretch:normal;font-style:normal;font-weight:normal;text-anchor:middle;" transform="rotate(-0, 113.726869, 93.687329)" x="113.726869" y="93.687329">9</text>
   </g>
   <g id="text_23">
    <text style="font-family:Arial;font-size:10px;font-stretch:normal;font-style:normal;font-weight:normal;text-anchor:middle;" transform="rotate(-0, 118.937137, 51.092514)" x="118.937137" y="51.092514">13</text>
   </g>
   <g id="text_24">
    <text style="font-family:Arial;font-size:10px;font-stretch:normal;font-style:normal;font-weight:normal;text-anchor:middle;" transform="rotate(-0, 290.508671, 221.471774)" x="290.508671" y="221.471774">16</text>
   </g>
   <g id="text_25">
    <text style="font-family:Arial;font-size:10px;font-stretch:normal;font-style:normal;font-weight:normal;text-anchor:middle;" transform="rotate(-0, 218.979683, 178.876959)" x="218.979683" y="178.876959">13</text>
   </g>
   <g id="text_26">
    <text style="font-family:Arial;font-size:10px;font-stretch:normal;font-style:normal;font-weight:normal;text-anchor:middle;" transform="rotate(-0, 199.954934, 136.282144)" x="199.954934" y="136.282144">8</text>
   </g>
   <g id="text_27">
    <text style="font-family:Arial;font-size:10px;font-stretch:normal;font-style:normal;font-weight:normal;text-anchor:middle;" transform="rotate(-0, 150.861583, 93.687329)" x="150.861583" y="93.687329">9</text>
   </g>
   <g id="text_28">
    <text style="font-family:Arial;font-size:10px;font-stretch:normal;font-style:normal;font-weight:normal;text-anchor:middle;" transform="rotate(-0, 160.607479, 51.092514)" x="160.607479" y="51.092514">7</text>
   </g>
   <g id="text_29">
    <text style="font-family:Arial;font-size:10px;font-stretch:normal;font-style:normal;font-weight:normal;text-anchor:middle;" transform="rotate(-0, 349.488715, 221.471774)" x="349.488715" y="221.471774">13</text>
   </g>
   <g id="text_30">
    <text style="font-family:Arial;font-size:10px;font-stretch:normal;font-style:normal;font-weight:normal;text-anchor:middle;" transform="rotate(-0, 271.685253, 178.876959)" x="271.685253" y="178.876959">13</text>
   </g>
   <g id="text_31">
    <text style="font-family:Arial;font-size:10px;font-stretch:normal;font-style:normal;font-weight:normal;text-anchor:middle;" transform="rotate(-0, 247.160079, 136.282144)" x="247.160079" y="136.282144">15</text>
   </g>
   <g id="text_32">
    <text style="font-family:Arial;font-size:10px;font-stretch:normal;font-style:normal;font-weight:normal;text-anchor:middle;" transform="rotate(-0, 201.213738, 93.687329)" x="201.213738" y="93.687329">16</text>
   </g>
   <g id="text_33">
    <text style="font-family:Arial;font-size:10px;font-stretch:normal;font-style:normal;font-weight:normal;text-anchor:middle;" transform="rotate(-0, 204.803296, 51.092514)" x="204.803296" y="51.092514">15</text>
   </g>
   <g id="text_34">
    <text style="font-family:Arial;font-size:10px;font-stretch:normal;font-style:normal;font-weight:normal;text-anchor:middle;" transform="rotate(-0, 392.155129, 221.471774)" x="392.155129" y="221.471774">8</text>
   </g>
   <g id="text_35">
    <text style="font-family:Arial;font-size:10px;font-stretch:normal;font-style:normal;font-weight:normal;text-anchor:middle;" transform="rotate(-0, 326.900613, 178.876959)" x="326.900613" y="178.876959">14</text>
   </g>
   <g id="text_36">
    <text style="font-family:Arial;font-size:10px;font-stretch:normal;font-style:normal;font-weight:normal;text-anchor:middle;" transform="rotate(-0, 308.212067, 136.282144)" x="308.212067" y="136.282144">15</text>
   </g>
   <g id="text_37">
    <text style="font-family:Arial;font-size:10px;font-stretch:normal;font-style:normal;font-weight:normal;text-anchor:middle;" transform="rotate(-0, 254.0835, 93.687329)" x="254.0835" y="93.687329">11</text>
   </g>
   <g id="text_38">
    <text style="font-family:Arial;font-size:10px;font-stretch:normal;font-style:normal;font-weight:normal;text-anchor:middle;" transform="rotate(-0, 254.050063, 51.092514)" x="254.050063" y="51.092514">10</text>
   </g>
   <g id="text_39">
    <text style="font-family:Arial;font-size:10px;font-stretch:normal;font-style:normal;font-weight:normal;text-anchor:middle;" transform="rotate(-0, 418.507914, 221.471774)" x="418.507914" y="221.471774">5</text>
   </g>
   <g id="text_40">
    <text style="font-family:Arial;font-size:10px;font-stretch:normal;font-style:normal;font-weight:normal;text-anchor:middle;" transform="rotate(-0, 353.529006, 136.282144)" x="353.529006" y="136.282144">7</text>
   </g>
   <g id="text_41">
    <text style="font-family:Arial;font-size:10px;font-stretch:normal;font-style:normal;font-weight:normal;text-anchor:middle;" transform="rotate(-0, 290.588813, 93.687329)" x="290.588813" y="93.687329">7</text>
   </g>
   <g id="text_42">
    <text style="font-family:Arial;font-size:10px;font-stretch:normal;font-style:normal;font-weight:normal;text-anchor:middle;" transform="rotate(-0, 288.143979, 51.092514)" x="288.143979" y="51.092514">7</text>
   </g>
   <g id="text_43">
    <text style="font-family:Arial;font-size:10px;font-stretch:normal;font-style:normal;font-weight:normal;text-anchor:middle;" transform="rotate(-0, 395.292365, 178.876959)" x="395.292365" y="178.876959">12</text>
   </g>
   <g id="text_44">
    <text style="font-family:Arial;font-size:10px;font-stretch:normal;font-style:normal;font-weight:normal;text-anchor:middle;" transform="rotate(-0, 386.887309, 136.282144)" x="386.887309" y="136.282144">9</text>
   </g>
   <g id="text_45">
    <text style="font-family:Arial;font-size:10px;font-stretch:normal;font-style:normal;font-weight:normal;text-anchor:middle;" transform="rotate(-0, 335.905752, 93.687329)" x="335.905752" y="93.687329">15</text>
   </g>
   <g id="text_46">
    <text style="font-family:Arial;font-size:10px;font-stretch:normal;font-style:normal;font-weight:normal;text-anchor:middle;" transform="rotate(-0, 327.920215, 51.092514)" x="327.920215" y="51.092514">12</text>
   </g>
   <g id="text_47">
    <text style="font-family:Arial;font-size:10px;font-stretch:normal;font-style:normal;font-weight:normal;text-anchor:middle;" transform="rotate(-0, 438.586227, 178.876959)" x="438.586227" y="178.876959">10</text>
   </g>
   <g id="text_48">
    <text style="font-family:Arial;font-size:10px;font-stretch:normal;font-style:normal;font-weight:normal;text-anchor:middle;" transform="rotate(-0, 429.057238, 136.282144)" x="429.057238" y="136.282144">12</text>
   </g>
   <g id="text_49">
    <text style="font-family:Arial;font-size:10px;font-stretch:normal;font-style:normal;font-weight:normal;text-anchor:middle;" transform="rotate(-0, 401.363553, 93.687329)" x="401.363553" y="93.687329">17</text>
   </g>
   <g id="text_50">
    <text style="font-family:Arial;font-size:10px;font-stretch:normal;font-style:normal;font-weight:normal;text-anchor:middle;" transform="rotate(-0, 390.425728, 51.092514)" x="390.425728" y="51.092514">18</text>
   </g>
   <g id="text_51">
    <text style="font-family:Arial;font-size:10px;font-stretch:normal;font-style:normal;font-weight:normal;text-anchor:middle;" transform="rotate(-0, 451.715708, 93.687329)" x="451.715708" y="93.687329">7</text>
   </g>
   <g id="text_52">
    <text style="font-family:Arial;font-size:10px;font-stretch:normal;font-style:normal;font-weight:normal;text-anchor:middle;" transform="rotate(-0, 447.248921, 51.092514)" x="447.248921" y="51.092514">10</text>
   </g>
   <g id="text_53">
    <text style="font-family:Arial;font-size:12px;font-stretch:normal;font-style:normal;font-weight:normal;text-anchor:middle;" transform="rotate(-0, 274.885234, 19.535625)" x="274.885234" y="19.535625">Reasons to choose current job: Germany</text>
   </g>
   <g id="legend_1">
    <g id="patch_49">
     <path d="M 61.201641 349.672999 
L 488.568828 349.672999 
Q 490.568828 349.672999 490.568828 347.672999 
L 490.568828 277.455811 
Q 490.568828 275.455811 488.568828 275.455811 
L 61.201641 275.455811 
Q 59.201641 275.455811 59.201641 277.455811 
L 59.201641 347.672999 
Q 59.201641 349.672999 61.201641 349.672999 
z
" style="fill:#ffffff;opacity:0.8;stroke:#cccccc;stroke-linejoin:miter;"/>
    </g>
    <g id="patch_50">
     <path d="M 63.201641 286.741749 
L 83.201641 286.741749 
L 83.201641 279.741749 
L 63.201641 279.741749 
z
" style="fill:#1f77b4;"/>
    </g>
    <g id="text_54">
     <text style="font-family:Arial;font-size:10px;font-stretch:normal;font-style:normal;font-weight:normal;text-anchor:start;" transform="rotate(-0, 91.201641, 286.741749)" x="91.201641" y="286.741749">Desire to work in a research environment</text>
    </g>
    <g id="patch_51">
     <path d="M 63.201641 300.887061 
L 83.201641 300.887061 
L 83.201641 293.887061 
L 63.201641 293.887061 
z
" style="fill:#ff7f0e;"/>
    </g>
    <g id="text_55">
     <text style="font-family:Arial;font-size:10px;font-stretch:normal;font-style:normal;font-weight:normal;text-anchor:start;" transform="rotate(-0, 91.201641, 300.887061)" x="91.201641" y="300.887061">Freedom to choose own working practices</text>
    </g>
    <g id="patch_52">
     <path d="M 63.201641 315.149561 
L 83.201641 315.149561 
L 83.201641 308.149561 
L 63.201641 308.149561 
z
" style="fill:#2ca02c;"/>
    </g>
    <g id="text_56">
     <text style="font-family:Arial;font-size:10px;font-stretch:normal;font-style:normal;font-weight:normal;text-anchor:start;" transform="rotate(-0, 91.201641, 315.149561)" x="91.201641" y="315.149561">Desire to advance research</text>
    </g>
    <g id="patch_53">
     <path d="M 63.201641 329.294874 
L 83.201641 329.294874 
L 83.201641 322.294874 
L 63.201641 322.294874 
z
" style="fill:#d62728;"/>
    </g>
    <g id="text_57">
     <text style="font-family:Arial;font-size:10px;font-stretch:normal;font-style:normal;font-weight:normal;text-anchor:start;" transform="rotate(-0, 91.201641, 329.294874)" x="91.201641" y="329.294874">I want to learn new skills</text>
    </g>
    <g id="patch_54">
     <path d="M 63.201641 343.568311 
L 83.201641 343.568311 
L 83.201641 336.568311 
L 63.201641 336.568311 
z
" style="fill:#9467bd;"/>
    </g>
    <g id="text_58">
     <text style="font-family:Arial;font-size:10px;font-stretch:normal;font-style:normal;font-weight:normal;text-anchor:start;" transform="rotate(-0, 91.201641, 343.568311)" x="91.201641" y="343.568311">Opportunity to develop software</text>
    </g>
    <g id="patch_55">
     <path d="M 298.498516 286.741749 
L 318.498516 286.741749 
L 318.498516 279.741749 
L 298.498516 279.741749 
z
" style="fill:#8c564b;"/>
    </g>
    <g id="text_59">
     <text style="font-family:Arial;font-size:10px;font-stretch:normal;font-style:normal;font-weight:normal;text-anchor:start;" transform="rotate(-0, 326.498516, 286.741749)" x="326.498516" y="286.741749">Opportunity for career advancement</text>
    </g>
    <g id="patch_56">
     <path d="M 298.498516 301.004249 
L 318.498516 301.004249 
L 318.498516 294.004249 
L 298.498516 294.004249 
z
" style="fill:#e377c2;"/>
    </g>
    <g id="text_60">
     <text style="font-family:Arial;font-size:10px;font-stretch:normal;font-style:normal;font-weight:normal;text-anchor:start;" transform="rotate(-0, 326.498516, 301.004249)" x="326.498516" y="301.004249">Ability to work across disciplines</text>
    </g>
    <g id="patch_57">
     <path d="M 298.498516 315.266749 
L 318.498516 315.266749 
L 318.498516 308.266749 
L 298.498516 308.266749 
z
" style="fill:#7f7f7f;"/>
    </g>
    <g id="text_61">
     <text style="font-family:Arial;font-size:10px;font-stretch:normal;font-style:normal;font-weight:normal;text-anchor:start;" transform="rotate(-0, 326.498516, 315.266749)" x="326.498516" y="315.266749">Flexible working hours</text>
    </g>
    <g id="patch_58">
     <path d="M 298.498516 329.529249 
L 318.498516 329.529249 
L 318.498516 322.529249 
L 298.498516 322.529249 
z
" style="fill:#bcbd22;"/>
    </g>
    <g id="text_62">
     <text style="font-family:Arial;font-size:10px;font-stretch:normal;font-style:normal;font-weight:normal;text-anchor:start;" transform="rotate(-0, 326.498516, 329.529249)" x="326.498516" y="329.529249">The salary</text>
    </g>
   </g>
  </g>
 </g>
 <defs>
  <clipPath id="pca7a573696">
   <rect height="212.974075" width="424.279844" x="62.745313" y="25.535625"/>
  </clipPath>
 </defs>
</svg>
