<?xml version="1.0" encoding="utf-8" standalone="no"?>
<!DOCTYPE svg PUBLIC "-//W3C//DTD SVG 1.1//EN"
  "http://www.w3.org/Graphics/SVG/1.1/DTD/svg11.dtd">
<svg height="360pt" version="1.1" viewBox="0 0 504 360" width="504pt" xmlns="http://www.w3.org/2000/svg" xmlns:xlink="http://www.w3.org/1999/xlink">
 <metadata>
  <rdf:RDF xmlns:cc="http://creativecommons.org/ns#" xmlns:dc="http://purl.org/dc/elements/1.1/" xmlns:rdf="http://www.w3.org/1999/02/22-rdf-syntax-ns#">
   <cc:Work>
    <dc:type rdf:resource="http://purl.org/dc/dcmitype/StillImage"/>
    <dc:date>2021-03-29T15:54:46.169482</dc:date>
    <dc:format>image/svg+xml</dc:format>
    <dc:creator>
     <cc:Agent>
      <dc:title>Matplotlib v3.4.0, https://matplotlib.org/</dc:title>
     </cc:Agent>
    </dc:creator>
   </cc:Work>
  </rdf:RDF>
 </metadata>
 <defs>
  <style type="text/css">*{stroke-linecap:butt;stroke-linejoin:round;}</style>
 </defs>
 <g id="figure_1">
  <g id="patch_1">
   <path d="M 0 360 
L 504 360 
L 504 0 
L 0 0 
z
" style="fill:#ffffff;"/>
  </g>
  <g id="axes_1">
   <g id="patch_2">
    <path d="M 66.548437 226.229375 
L 437.451563 226.229375 
L 437.451563 25.918125 
L 66.548437 25.918125 
z
" style="fill:#ffffff;"/>
   </g>
   <g id="patch_3">
    <path clip-path="url(#p5f15265631)" d="M 66.548437 216.213813 
L 164.670957 216.213813 
L 164.670957 196.182688 
L 66.548437 196.182688 
z
" style="fill:#1f77b4;"/>
   </g>
   <g id="patch_4">
    <path clip-path="url(#p5f15265631)" d="M 66.548437 176.151563 
L 137.687264 176.151563 
L 137.687264 156.120438 
L 66.548437 156.120438 
z
" style="fill:#1f77b4;"/>
   </g>
   <g id="patch_5">
    <path clip-path="url(#p5f15265631)" d="M 66.548437 136.089313 
L 108.250508 136.089313 
L 108.250508 116.058188 
L 66.548437 116.058188 
z
" style="fill:#1f77b4;"/>
   </g>
   <g id="patch_6">
    <path clip-path="url(#p5f15265631)" d="M 66.548437 96.027063 
L 108.542131 96.027063 
L 108.542131 75.995938 
L 66.548437 75.995938 
z
" style="fill:#1f77b4;"/>
   </g>
   <g id="patch_7">
    <path clip-path="url(#p5f15265631)" d="M 66.548437 55.964813 
L 101.131479 55.964813 
L 101.131479 35.933688 
L 66.548437 35.933688 
z
" style="fill:#1f77b4;"/>
   </g>
   <g id="patch_8">
    <path clip-path="url(#p5f15265631)" d="M 164.670957 216.213813 
L 245.622036 216.213813 
L 245.622036 196.182688 
L 164.670957 196.182688 
z
" style="fill:#ff7f0e;"/>
   </g>
   <g id="patch_9">
    <path clip-path="url(#p5f15265631)" d="M 137.687264 176.151563 
L 184.295461 176.151563 
L 184.295461 156.120438 
L 137.687264 156.120438 
z
" style="fill:#ff7f0e;"/>
   </g>
   <g id="patch_10">
    <path clip-path="url(#p5f15265631)" d="M 108.250508 136.089313 
L 154.858705 136.089313 
L 154.858705 116.058188 
L 108.250508 116.058188 
z
" style="fill:#ff7f0e;"/>
   </g>
   <g id="patch_11">
    <path clip-path="url(#p5f15265631)" d="M 108.542131 96.027063 
L 135.714521 96.027063 
L 135.714521 75.995938 
L 108.542131 75.995938 
z
" style="fill:#ff7f0e;"/>
   </g>
   <g id="patch_12">
    <path clip-path="url(#p5f15265631)" d="M 101.131479 55.964813 
L 123.363435 55.964813 
L 123.363435 35.933688 
L 101.131479 35.933688 
z
" style="fill:#ff7f0e;"/>
   </g>
   <g id="patch_13">
    <path clip-path="url(#p5f15265631)" d="M 245.622036 216.213813 
L 289.77717 216.213813 
L 289.77717 196.182688 
L 245.622036 196.182688 
z
" style="fill:#2ca02c;"/>
   </g>
   <g id="patch_14">
    <path clip-path="url(#p5f15265631)" d="M 184.295461 176.151563 
L 211.279154 176.151563 
L 211.279154 156.120438 
L 184.295461 156.120438 
z
" style="fill:#2ca02c;"/>
   </g>
   <g id="patch_15">
    <path clip-path="url(#p5f15265631)" d="M 154.858705 136.089313 
L 199.013839 136.089313 
L 199.013839 116.058188 
L 154.858705 116.058188 
z
" style="fill:#2ca02c;"/>
   </g>
   <g id="patch_16">
    <path clip-path="url(#p5f15265631)" d="M 135.714521 96.027063 
L 197.469953 96.027063 
L 197.469953 75.995938 
L 135.714521 75.995938 
z
" style="fill:#2ca02c;"/>
   </g>
   <g id="patch_17">
    <path clip-path="url(#p5f15265631)" d="M 123.363435 55.964813 
L 167.827346 55.964813 
L 167.827346 35.933688 
L 123.363435 35.933688 
z
" style="fill:#2ca02c;"/>
   </g>
   <g id="patch_18">
    <path clip-path="url(#p5f15265631)" d="M 289.77717 216.213813 
L 321.666989 216.213813 
L 321.666989 196.182688 
L 289.77717 196.182688 
z
" style="fill:#d62728;"/>
   </g>
   <g id="patch_19">
    <path clip-path="url(#p5f15265631)" d="M 211.279154 176.151563 
L 240.71591 176.151563 
L 240.71591 156.120438 
L 211.279154 156.120438 
z
" style="fill:#d62728;"/>
   </g>
   <g id="patch_20">
    <path clip-path="url(#p5f15265631)" d="M 199.013839 136.089313 
L 240.71591 136.089313 
L 240.71591 116.058188 
L 199.013839 116.058188 
z
" style="fill:#d62728;"/>
   </g>
   <g id="patch_21">
    <path clip-path="url(#p5f15265631)" d="M 197.469953 96.027063 
L 239.463647 96.027063 
L 239.463647 75.995938 
L 197.469953 75.995938 
z
" style="fill:#d62728;"/>
   </g>
   <g id="patch_22">
    <path clip-path="url(#p5f15265631)" d="M 167.827346 55.964813 
L 222.172126 55.964813 
L 222.172126 35.933688 
L 167.827346 35.933688 
z
" style="fill:#d62728;"/>
   </g>
   <g id="patch_23">
    <path clip-path="url(#p5f15265631)" d="M 321.666989 216.213813 
L 351.103745 216.213813 
L 351.103745 196.182688 
L 321.666989 196.182688 
z
" style="fill:#9467bd;"/>
   </g>
   <g id="patch_24">
    <path clip-path="url(#p5f15265631)" d="M 240.71591 176.151563 
L 275.058792 176.151563 
L 275.058792 156.120438 
L 240.71591 156.120438 
z
" style="fill:#9467bd;"/>
   </g>
   <g id="patch_25">
    <path clip-path="url(#p5f15265631)" d="M 240.71591 136.089313 
L 262.793477 136.089313 
L 262.793477 116.058188 
L 240.71591 116.058188 
z
" style="fill:#9467bd;"/>
   </g>
   <g id="patch_26">
    <path clip-path="url(#p5f15265631)" d="M 239.463647 96.027063 
L 261.695603 96.027063 
L 261.695603 75.995938 
L 239.463647 75.995938 
z
" style="fill:#9467bd;"/>
   </g>
   <g id="patch_27">
    <path clip-path="url(#p5f15265631)" d="M 222.172126 55.964813 
L 251.814734 55.964813 
L 251.814734 35.933688 
L 222.172126 35.933688 
z
" style="fill:#9467bd;"/>
   </g>
   <g id="patch_28">
    <path clip-path="url(#p5f15265631)" d="M 351.103745 216.213813 
L 378.087438 216.213813 
L 378.087438 196.182688 
L 351.103745 196.182688 
z
" style="fill:#8c564b;"/>
   </g>
   <g id="patch_29">
    <path clip-path="url(#p5f15265631)" d="M 275.058792 176.151563 
L 316.760863 176.151563 
L 316.760863 156.120438 
L 275.058792 156.120438 
z
" style="fill:#8c564b;"/>
   </g>
   <g id="patch_30">
    <path clip-path="url(#p5f15265631)" d="M 262.793477 136.089313 
L 316.760863 136.089313 
L 316.760863 116.058188 
L 262.793477 116.058188 
z
" style="fill:#8c564b;"/>
   </g>
   <g id="patch_31">
    <path clip-path="url(#p5f15265631)" d="M 261.695603 96.027063 
L 306.159514 96.027063 
L 306.159514 75.995938 
L 261.695603 75.995938 
z
" style="fill:#8c564b;"/>
   </g>
   <g id="patch_32">
    <path clip-path="url(#p5f15265631)" d="M 251.814734 55.964813 
L 286.397776 55.964813 
L 286.397776 35.933688 
L 251.814734 35.933688 
z
" style="fill:#8c564b;"/>
   </g>
   <g id="patch_33">
    <path clip-path="url(#p5f15265631)" d="M 378.087438 216.213813 
L 405.071131 216.213813 
L 405.071131 196.182688 
L 378.087438 196.182688 
z
" style="fill:#e377c2;"/>
   </g>
   <g id="patch_34">
    <path clip-path="url(#p5f15265631)" d="M 316.760863 176.151563 
L 360.915997 176.151563 
L 360.915997 156.120438 
L 316.760863 156.120438 
z
" style="fill:#e377c2;"/>
   </g>
   <g id="patch_35">
    <path clip-path="url(#p5f15265631)" d="M 316.760863 136.089313 
L 348.650682 136.089313 
L 348.650682 116.058188 
L 316.760863 116.058188 
z
" style="fill:#e377c2;"/>
   </g>
   <g id="patch_36">
    <path clip-path="url(#p5f15265631)" d="M 306.159514 96.027063 
L 330.861687 96.027063 
L 330.861687 75.995938 
L 306.159514 75.995938 
z
" style="fill:#e377c2;"/>
   </g>
   <g id="patch_37">
    <path clip-path="url(#p5f15265631)" d="M 286.397776 55.964813 
L 308.629731 55.964813 
L 308.629731 35.933688 
L 286.397776 35.933688 
z
" style="fill:#e377c2;"/>
   </g>
   <g id="patch_38">
    <path clip-path="url(#p5f15265631)" d="M 405.071131 216.213813 
L 414.883383 216.213813 
L 414.883383 196.182688 
L 405.071131 196.182688 
z
" style="fill:#7f7f7f;"/>
   </g>
   <g id="patch_39">
    <path clip-path="url(#p5f15265631)" d="M 360.915997 176.151563 
L 382.993564 176.151563 
L 382.993564 156.120438 
L 360.915997 156.120438 
z
" style="fill:#7f7f7f;"/>
   </g>
   <g id="patch_40">
    <path clip-path="url(#p5f15265631)" d="M 348.650682 136.089313 
L 385.446627 136.089313 
L 385.446627 116.058188 
L 348.650682 116.058188 
z
" style="fill:#7f7f7f;"/>
   </g>
   <g id="patch_41">
    <path clip-path="url(#p5f15265631)" d="M 330.861687 96.027063 
L 387.676684 96.027063 
L 387.676684 75.995938 
L 330.861687 75.995938 
z
" style="fill:#7f7f7f;"/>
   </g>
   <g id="patch_42">
    <path clip-path="url(#p5f15265631)" d="M 308.629731 55.964813 
L 370.385163 55.964813 
L 370.385163 35.933688 
L 308.629731 35.933688 
z
" style="fill:#7f7f7f;"/>
   </g>
   <g id="patch_43">
    <path clip-path="url(#p5f15265631)" d="M 414.883383 216.213813 
L 419.789509 216.213813 
L 419.789509 196.182688 
L 414.883383 196.182688 
z
" style="fill:#bcbd22;"/>
   </g>
   <g id="patch_44">
    <path clip-path="url(#p5f15265631)" d="M 382.993564 176.151563 
L 419.789509 176.151563 
L 419.789509 156.120438 
L 382.993564 156.120438 
z
" style="fill:#bcbd22;"/>
   </g>
   <g id="patch_45">
    <path clip-path="url(#p5f15265631)" d="M 385.446627 136.089313 
L 419.789509 136.089313 
L 419.789509 116.058188 
L 385.446627 116.058188 
z
" style="fill:#bcbd22;"/>
   </g>
   <g id="patch_46">
    <path clip-path="url(#p5f15265631)" d="M 387.676684 96.027063 
L 419.789509 96.027063 
L 419.789509 75.995938 
L 387.676684 75.995938 
z
" style="fill:#bcbd22;"/>
   </g>
   <g id="patch_47">
    <path clip-path="url(#p5f15265631)" d="M 370.385163 55.964813 
L 419.789509 55.964813 
L 419.789509 35.933688 
L 370.385163 35.933688 
z
" style="fill:#bcbd22;"/>
   </g>
   <g id="matplotlib.axis_1">
    <g id="xtick_1">
     <g id="line2d_1">
      <defs>
       <path d="M 0 0 
L 0 3.5 
" id="mc3a356a46d" style="stroke:#000000;stroke-width:0.8;"/>
      </defs>
      <g>
       <use style="stroke:#000000;stroke-width:0.8;" x="66.548437" xlink:href="#mc3a356a46d" y="226.229375"/>
      </g>
     </g>
     <g id="text_1">
      <text style="font-family:DejaVu Sans;font-size:10px;font-stretch:normal;font-style:normal;font-weight:normal;text-anchor:middle;" transform="rotate(-0, 66.548437, 240.827812)" x="66.548437" y="240.827812">0</text>
     </g>
    </g>
    <g id="xtick_2">
     <g id="line2d_2">
      <g>
       <use style="stroke:#000000;stroke-width:0.8;" x="137.196652" xlink:href="#mc3a356a46d" y="226.229375"/>
      </g>
     </g>
     <g id="text_2">
      <text style="font-family:DejaVu Sans;font-size:10px;font-stretch:normal;font-style:normal;font-weight:normal;text-anchor:middle;" transform="rotate(-0, 137.196652, 240.827812)" x="137.196652" y="240.827812">20</text>
     </g>
    </g>
    <g id="xtick_3">
     <g id="line2d_3">
      <g>
       <use style="stroke:#000000;stroke-width:0.8;" x="207.844866" xlink:href="#mc3a356a46d" y="226.229375"/>
      </g>
     </g>
     <g id="text_3">
      <text style="font-family:DejaVu Sans;font-size:10px;font-stretch:normal;font-style:normal;font-weight:normal;text-anchor:middle;" transform="rotate(-0, 207.844866, 240.827812)" x="207.844866" y="240.827812">40</text>
     </g>
    </g>
    <g id="xtick_4">
     <g id="line2d_4">
      <g>
       <use style="stroke:#000000;stroke-width:0.8;" x="278.49308" xlink:href="#mc3a356a46d" y="226.229375"/>
      </g>
     </g>
     <g id="text_4">
      <text style="font-family:DejaVu Sans;font-size:10px;font-stretch:normal;font-style:normal;font-weight:normal;text-anchor:middle;" transform="rotate(-0, 278.49308, 240.827812)" x="278.49308" y="240.827812">60</text>
     </g>
    </g>
    <g id="xtick_5">
     <g id="line2d_5">
      <g>
       <use style="stroke:#000000;stroke-width:0.8;" x="349.141295" xlink:href="#mc3a356a46d" y="226.229375"/>
      </g>
     </g>
     <g id="text_5">
      <text style="font-family:DejaVu Sans;font-size:10px;font-stretch:normal;font-style:normal;font-weight:normal;text-anchor:middle;" transform="rotate(-0, 349.141295, 240.827812)" x="349.141295" y="240.827812">80</text>
     </g>
    </g>
    <g id="xtick_6">
     <g id="line2d_6">
      <g>
       <use style="stroke:#000000;stroke-width:0.8;" x="419.789509" xlink:href="#mc3a356a46d" y="226.229375"/>
      </g>
     </g>
     <g id="text_6">
      <text style="font-family:DejaVu Sans;font-size:10px;font-stretch:normal;font-style:normal;font-weight:normal;text-anchor:middle;" transform="rotate(-0, 419.789509, 240.827812)" x="419.789509" y="240.827812">100</text>
     </g>
    </g>
    <g id="text_7">
     <text style="font-family:DejaVu Sans;font-size:10px;font-stretch:normal;font-style:normal;font-weight:normal;text-anchor:middle;" transform="rotate(-0, 252, 254.505938)" x="252" y="254.505938">Ranking of importance</text>
    </g>
   </g>
   <g id="matplotlib.axis_2">
    <g id="ytick_1">
     <g id="line2d_7">
      <defs>
       <path d="M 0 0 
L -3.5 0 
" id="m82278324de" style="stroke:#000000;stroke-width:0.8;"/>
      </defs>
      <g>
       <use style="stroke:#000000;stroke-width:0.8;" x="66.548437" xlink:href="#m82278324de" y="206.19825"/>
      </g>
     </g>
     <g id="text_8">
      <text style="font-family:DejaVu Sans;font-size:10px;font-stretch:normal;font-style:normal;font-weight:normal;text-anchor:end;" transform="rotate(-0, 59.548437, 209.997469)" x="59.548437" y="209.997469">Rank 1</text>
     </g>
    </g>
    <g id="ytick_2">
     <g id="line2d_8">
      <g>
       <use style="stroke:#000000;stroke-width:0.8;" x="66.548437" xlink:href="#m82278324de" y="166.136"/>
      </g>
     </g>
     <g id="text_9">
      <text style="font-family:DejaVu Sans;font-size:10px;font-stretch:normal;font-style:normal;font-weight:normal;text-anchor:end;" transform="rotate(-0, 59.548437, 169.935219)" x="59.548437" y="169.935219">Rank 2</text>
     </g>
    </g>
    <g id="ytick_3">
     <g id="line2d_9">
      <g>
       <use style="stroke:#000000;stroke-width:0.8;" x="66.548437" xlink:href="#m82278324de" y="126.07375"/>
      </g>
     </g>
     <g id="text_10">
      <text style="font-family:DejaVu Sans;font-size:10px;font-stretch:normal;font-style:normal;font-weight:normal;text-anchor:end;" transform="rotate(-0, 59.548437, 129.872969)" x="59.548437" y="129.872969">Rank 3</text>
     </g>
    </g>
    <g id="ytick_4">
     <g id="line2d_10">
      <g>
       <use style="stroke:#000000;stroke-width:0.8;" x="66.548437" xlink:href="#m82278324de" y="86.0115"/>
      </g>
     </g>
     <g id="text_11">
      <text style="font-family:DejaVu Sans;font-size:10px;font-stretch:normal;font-style:normal;font-weight:normal;text-anchor:end;" transform="rotate(-0, 59.548437, 89.810719)" x="59.548437" y="89.810719">Rank 4</text>
     </g>
    </g>
    <g id="ytick_5">
     <g id="line2d_11">
      <g>
       <use style="stroke:#000000;stroke-width:0.8;" x="66.548437" xlink:href="#m82278324de" y="45.94925"/>
      </g>
     </g>
     <g id="text_12">
      <text style="font-family:DejaVu Sans;font-size:10px;font-stretch:normal;font-style:normal;font-weight:normal;text-anchor:end;" transform="rotate(-0, 59.548437, 49.748469)" x="59.548437" y="49.748469">Rank 5</text>
     </g>
    </g>
    <g id="text_13">
     <text style="font-family:DejaVu Sans;font-size:10px;font-stretch:normal;font-style:normal;font-weight:normal;text-anchor:middle;" transform="rotate(-90, 18.948437, 126.07375)" x="18.948437" y="126.07375">Percentage</text>
    </g>
   </g>
   <g id="patch_48">
    <path d="M 66.548437 226.229375 
L 437.451563 226.229375 
" style="fill:none;stroke:#000000;stroke-linecap:square;stroke-linejoin:miter;stroke-width:0.8;"/>
   </g>
   <g id="text_14">
    <text style="font-family:DejaVu Sans;font-size:10px;font-stretch:normal;font-style:normal;font-weight:normal;text-anchor:middle;" transform="rotate(-0, 115.609697, 210.204475)" x="115.609697" y="210.204475">28</text>
   </g>
   <g id="text_15">
    <text style="font-family:DejaVu Sans;font-size:10px;font-stretch:normal;font-style:normal;font-weight:normal;text-anchor:middle;" transform="rotate(-0, 102.117851, 170.142225)" x="102.117851" y="170.142225">20</text>
   </g>
   <g id="text_16">
    <text style="font-family:DejaVu Sans;font-size:10px;font-stretch:normal;font-style:normal;font-weight:normal;text-anchor:middle;" transform="rotate(-0, 87.399473, 130.079975)" x="87.399473" y="130.079975">12</text>
   </g>
   <g id="text_17">
    <text style="font-family:DejaVu Sans;font-size:10px;font-stretch:normal;font-style:normal;font-weight:normal;text-anchor:middle;" transform="rotate(-0, 87.545284, 90.017725)" x="87.545284" y="90.017725">12</text>
   </g>
   <g id="text_18">
    <text style="font-family:DejaVu Sans;font-size:10px;font-stretch:normal;font-style:normal;font-weight:normal;text-anchor:middle;" transform="rotate(-0, 83.839958, 49.955475)" x="83.839958" y="49.955475">10</text>
   </g>
   <g id="text_19">
    <text style="font-family:DejaVu Sans;font-size:10px;font-stretch:normal;font-style:normal;font-weight:normal;text-anchor:middle;" transform="rotate(-0, 205.146497, 210.204475)" x="205.146497" y="210.204475">23</text>
   </g>
   <g id="text_20">
    <text style="font-family:DejaVu Sans;font-size:10px;font-stretch:normal;font-style:normal;font-weight:normal;text-anchor:middle;" transform="rotate(-0, 160.991363, 170.142225)" x="160.991363" y="170.142225">13</text>
   </g>
   <g id="text_21">
    <text style="font-family:DejaVu Sans;font-size:10px;font-stretch:normal;font-style:normal;font-weight:normal;text-anchor:middle;" transform="rotate(-0, 131.554607, 130.079975)" x="131.554607" y="130.079975">13</text>
   </g>
   <g id="text_22">
    <text style="font-family:DejaVu Sans;font-size:10px;font-stretch:normal;font-style:normal;font-weight:normal;text-anchor:middle;" transform="rotate(-0, 122.128326, 90.017725)" x="122.128326" y="90.017725">8</text>
   </g>
   <g id="text_23">
    <text style="font-family:DejaVu Sans;font-size:10px;font-stretch:normal;font-style:normal;font-weight:normal;text-anchor:middle;" transform="rotate(-0, 112.247457, 49.955475)" x="112.247457" y="49.955475">6</text>
   </g>
   <g id="text_24">
    <text style="font-family:DejaVu Sans;font-size:10px;font-stretch:normal;font-style:normal;font-weight:normal;text-anchor:middle;" transform="rotate(-0, 267.699603, 210.204475)" x="267.699603" y="210.204475">12</text>
   </g>
   <g id="text_25">
    <text style="font-family:DejaVu Sans;font-size:10px;font-stretch:normal;font-style:normal;font-weight:normal;text-anchor:middle;" transform="rotate(-0, 197.787308, 170.142225)" x="197.787308" y="170.142225">8</text>
   </g>
   <g id="text_26">
    <text style="font-family:DejaVu Sans;font-size:10px;font-stretch:normal;font-style:normal;font-weight:normal;text-anchor:middle;" transform="rotate(-0, 176.936272, 130.079975)" x="176.936272" y="130.079975">12</text>
   </g>
   <g id="text_27">
    <text style="font-family:DejaVu Sans;font-size:10px;font-stretch:normal;font-style:normal;font-weight:normal;text-anchor:middle;" transform="rotate(-0, 166.592237, 90.017725)" x="166.592237" y="90.017725">17</text>
   </g>
   <g id="text_28">
    <text style="font-family:DejaVu Sans;font-size:10px;font-stretch:normal;font-style:normal;font-weight:normal;text-anchor:middle;" transform="rotate(-0, 145.595391, 49.955475)" x="145.595391" y="49.955475">13</text>
   </g>
   <g id="text_29">
    <text style="font-family:DejaVu Sans;font-size:10px;font-stretch:normal;font-style:normal;font-weight:normal;text-anchor:middle;" transform="rotate(-0, 305.72208, 210.204475)" x="305.72208" y="210.204475">9</text>
   </g>
   <g id="text_30">
    <text style="font-family:DejaVu Sans;font-size:10px;font-stretch:normal;font-style:normal;font-weight:normal;text-anchor:middle;" transform="rotate(-0, 225.997532, 170.142225)" x="225.997532" y="170.142225">8</text>
   </g>
   <g id="text_31">
    <text style="font-family:DejaVu Sans;font-size:10px;font-stretch:normal;font-style:normal;font-weight:normal;text-anchor:middle;" transform="rotate(-0, 219.864875, 130.079975)" x="219.864875" y="130.079975">12</text>
   </g>
   <g id="text_32">
    <text style="font-family:DejaVu Sans;font-size:10px;font-stretch:normal;font-style:normal;font-weight:normal;text-anchor:middle;" transform="rotate(-0, 218.4668, 90.017725)" x="218.4668" y="90.017725">12</text>
   </g>
   <g id="text_33">
    <text style="font-family:DejaVu Sans;font-size:10px;font-stretch:normal;font-style:normal;font-weight:normal;text-anchor:middle;" transform="rotate(-0, 194.999736, 49.955475)" x="194.999736" y="49.955475">15</text>
   </g>
   <g id="text_34">
    <text style="font-family:DejaVu Sans;font-size:10px;font-stretch:normal;font-style:normal;font-weight:normal;text-anchor:middle;" transform="rotate(-0, 336.385367, 210.204475)" x="336.385367" y="210.204475">8</text>
   </g>
   <g id="text_35">
    <text style="font-family:DejaVu Sans;font-size:10px;font-stretch:normal;font-style:normal;font-weight:normal;text-anchor:middle;" transform="rotate(-0, 257.887351, 170.142225)" x="257.887351" y="170.142225">10</text>
   </g>
   <g id="text_36">
    <text style="font-family:DejaVu Sans;font-size:10px;font-stretch:normal;font-style:normal;font-weight:normal;text-anchor:middle;" transform="rotate(-0, 251.754694, 130.079975)" x="251.754694" y="130.079975">6</text>
   </g>
   <g id="text_37">
    <text style="font-family:DejaVu Sans;font-size:10px;font-stretch:normal;font-style:normal;font-weight:normal;text-anchor:middle;" transform="rotate(-0, 250.579625, 90.017725)" x="250.579625" y="90.017725">6</text>
   </g>
   <g id="text_38">
    <text style="font-family:DejaVu Sans;font-size:10px;font-stretch:normal;font-style:normal;font-weight:normal;text-anchor:middle;" transform="rotate(-0, 236.99343, 49.955475)" x="236.99343" y="49.955475">8</text>
   </g>
   <g id="text_39">
    <text style="font-family:DejaVu Sans;font-size:10px;font-stretch:normal;font-style:normal;font-weight:normal;text-anchor:middle;" transform="rotate(-0, 364.595592, 210.204475)" x="364.595592" y="210.204475">8</text>
   </g>
   <g id="text_40">
    <text style="font-family:DejaVu Sans;font-size:10px;font-stretch:normal;font-style:normal;font-weight:normal;text-anchor:middle;" transform="rotate(-0, 295.909828, 170.142225)" x="295.909828" y="170.142225">12</text>
   </g>
   <g id="text_41">
    <text style="font-family:DejaVu Sans;font-size:10px;font-stretch:normal;font-style:normal;font-weight:normal;text-anchor:middle;" transform="rotate(-0, 289.77717, 130.079975)" x="289.77717" y="130.079975">15</text>
   </g>
   <g id="text_42">
    <text style="font-family:DejaVu Sans;font-size:10px;font-stretch:normal;font-style:normal;font-weight:normal;text-anchor:middle;" transform="rotate(-0, 283.927558, 90.017725)" x="283.927558" y="90.017725">13</text>
   </g>
   <g id="text_43">
    <text style="font-family:DejaVu Sans;font-size:10px;font-stretch:normal;font-style:normal;font-weight:normal;text-anchor:middle;" transform="rotate(-0, 269.106255, 49.955475)" x="269.106255" y="49.955475">10</text>
   </g>
   <g id="text_44">
    <text style="font-family:DejaVu Sans;font-size:10px;font-stretch:normal;font-style:normal;font-weight:normal;text-anchor:middle;" transform="rotate(-0, 391.579284, 210.204475)" x="391.579284" y="210.204475">8</text>
   </g>
   <g id="text_45">
    <text style="font-family:DejaVu Sans;font-size:10px;font-stretch:normal;font-style:normal;font-weight:normal;text-anchor:middle;" transform="rotate(-0, 338.83843, 170.142225)" x="338.83843" y="170.142225">12</text>
   </g>
   <g id="text_46">
    <text style="font-family:DejaVu Sans;font-size:10px;font-stretch:normal;font-style:normal;font-weight:normal;text-anchor:middle;" transform="rotate(-0, 332.705773, 130.079975)" x="332.705773" y="130.079975">9</text>
   </g>
   <g id="text_47">
    <text style="font-family:DejaVu Sans;font-size:10px;font-stretch:normal;font-style:normal;font-weight:normal;text-anchor:middle;" transform="rotate(-0, 318.5106, 90.017725)" x="318.5106" y="90.017725">7</text>
   </g>
   <g id="text_48">
    <text style="font-family:DejaVu Sans;font-size:10px;font-stretch:normal;font-style:normal;font-weight:normal;text-anchor:middle;" transform="rotate(-0, 297.513753, 49.955475)" x="297.513753" y="49.955475">6</text>
   </g>
   <g id="text_49">
    <text style="font-family:DejaVu Sans;font-size:10px;font-stretch:normal;font-style:normal;font-weight:normal;text-anchor:middle;" transform="rotate(-0, 371.954781, 170.142225)" x="371.954781" y="170.142225">6</text>
   </g>
   <g id="text_50">
    <text style="font-family:DejaVu Sans;font-size:10px;font-stretch:normal;font-style:normal;font-weight:normal;text-anchor:middle;" transform="rotate(-0, 367.048655, 130.079975)" x="367.048655" y="130.079975">10</text>
   </g>
   <g id="text_51">
    <text style="font-family:DejaVu Sans;font-size:10px;font-stretch:normal;font-style:normal;font-weight:normal;text-anchor:middle;" transform="rotate(-0, 359.269186, 90.017725)" x="359.269186" y="90.017725">16</text>
   </g>
   <g id="text_52">
    <text style="font-family:DejaVu Sans;font-size:10px;font-stretch:normal;font-style:normal;font-weight:normal;text-anchor:middle;" transform="rotate(-0, 339.507447, 49.955475)" x="339.507447" y="49.955475">17</text>
   </g>
   <g id="text_53">
    <text style="font-family:DejaVu Sans;font-size:10px;font-stretch:normal;font-style:normal;font-weight:normal;text-anchor:middle;" transform="rotate(-0, 401.391536, 170.142225)" x="401.391536" y="170.142225">10</text>
   </g>
   <g id="text_54">
    <text style="font-family:DejaVu Sans;font-size:10px;font-stretch:normal;font-style:normal;font-weight:normal;text-anchor:middle;" transform="rotate(-0, 402.618068, 130.079975)" x="402.618068" y="130.079975">10</text>
   </g>
   <g id="text_55">
    <text style="font-family:DejaVu Sans;font-size:10px;font-stretch:normal;font-style:normal;font-weight:normal;text-anchor:middle;" transform="rotate(-0, 403.733097, 90.017725)" x="403.733097" y="90.017725">9</text>
   </g>
   <g id="text_56">
    <text style="font-family:DejaVu Sans;font-size:10px;font-stretch:normal;font-style:normal;font-weight:normal;text-anchor:middle;" transform="rotate(-0, 395.087336, 49.955475)" x="395.087336" y="49.955475">14</text>
   </g>
   <g id="text_57">
    <text style="font-family:DejaVu Sans;font-size:12px;font-stretch:normal;font-style:normal;font-weight:normal;text-anchor:middle;" transform="rotate(-0, 252, 19.918125)" x="252" y="19.918125">Reasons to choose current job: United States</text>
   </g>
   <g id="legend_1">
    <g id="patch_49">
     <path d="M 2.951563 337.666687 
L 501.048437 337.666687 
Q 503.048437 337.666687 503.048437 335.666687 
L 503.048437 263.276062 
Q 503.048437 261.276062 501.048437 261.276062 
L 2.951563 261.276062 
Q 0.951563 261.276062 0.951563 263.276062 
L 0.951563 335.666687 
Q 0.951563 337.666687 2.951563 337.666687 
z
" style="fill:#ffffff;opacity:0.8;stroke:#cccccc;stroke-linejoin:miter;"/>
    </g>
    <g id="patch_50">
     <path d="M 4.951563 272.8745 
L 24.951563 272.8745 
L 24.951563 265.8745 
L 4.951563 265.8745 
z
" style="fill:#1f77b4;"/>
    </g>
    <g id="text_58">
     <text style="font-family:DejaVu Sans;font-size:10px;font-stretch:normal;font-style:normal;font-weight:normal;text-anchor:start;" transform="rotate(-0, 32.951563, 272.8745)" x="32.951563" y="272.8745">Desire to work in a research environment</text>
    </g>
    <g id="patch_51">
     <path d="M 4.951563 287.552625 
L 24.951563 287.552625 
L 24.951563 280.552625 
L 4.951563 280.552625 
z
" style="fill:#ff7f0e;"/>
    </g>
    <g id="text_59">
     <text style="font-family:DejaVu Sans;font-size:10px;font-stretch:normal;font-style:normal;font-weight:normal;text-anchor:start;" transform="rotate(-0, 32.951563, 287.552625)" x="32.951563" y="287.552625">Desire to advance research</text>
    </g>
    <g id="patch_52">
     <path d="M 4.951563 302.23075 
L 24.951563 302.23075 
L 24.951563 295.23075 
L 4.951563 295.23075 
z
" style="fill:#2ca02c;"/>
    </g>
    <g id="text_60">
     <text style="font-family:DejaVu Sans;font-size:10px;font-stretch:normal;font-style:normal;font-weight:normal;text-anchor:start;" transform="rotate(-0, 32.951563, 302.23075)" x="32.951563" y="302.23075">Opportunity to develop software</text>
    </g>
    <g id="patch_53">
     <path d="M 4.951563 316.908875 
L 24.951563 316.908875 
L 24.951563 309.908875 
L 4.951563 309.908875 
z
" style="fill:#d62728;"/>
    </g>
    <g id="text_61">
     <text style="font-family:DejaVu Sans;font-size:10px;font-stretch:normal;font-style:normal;font-weight:normal;text-anchor:start;" transform="rotate(-0, 32.951563, 316.908875)" x="32.951563" y="316.908875">I want to learn new skills</text>
    </g>
    <g id="patch_54">
     <path d="M 4.951563 331.587 
L 24.951563 331.587 
L 24.951563 324.587 
L 4.951563 324.587 
z
" style="fill:#9467bd;"/>
    </g>
    <g id="text_62">
     <text style="font-family:DejaVu Sans;font-size:10px;font-stretch:normal;font-style:normal;font-weight:normal;text-anchor:start;" transform="rotate(-0, 32.951563, 331.587)" x="32.951563" y="331.587">The salary</text>
    </g>
    <g id="patch_55">
     <path d="M 260.314063 272.8745 
L 280.314063 272.8745 
L 280.314063 265.8745 
L 260.314063 265.8745 
z
" style="fill:#8c564b;"/>
    </g>
    <g id="text_63">
     <text style="font-family:DejaVu Sans;font-size:10px;font-stretch:normal;font-style:normal;font-weight:normal;text-anchor:start;" transform="rotate(-0, 288.314063, 272.8745)" x="288.314063" y="272.8745">Freedom to choose own working practices</text>
    </g>
    <g id="patch_56">
     <path d="M 260.314063 287.552625 
L 280.314063 287.552625 
L 280.314063 280.552625 
L 260.314063 280.552625 
z
" style="fill:#e377c2;"/>
    </g>
    <g id="text_64">
     <text style="font-family:DejaVu Sans;font-size:10px;font-stretch:normal;font-style:normal;font-weight:normal;text-anchor:start;" transform="rotate(-0, 288.314063, 287.552625)" x="288.314063" y="287.552625">Opportunity for career advancement</text>
    </g>
    <g id="patch_57">
     <path d="M 260.314063 302.23075 
L 280.314063 302.23075 
L 280.314063 295.23075 
L 260.314063 295.23075 
z
" style="fill:#7f7f7f;"/>
    </g>
    <g id="text_65">
     <text style="font-family:DejaVu Sans;font-size:10px;font-stretch:normal;font-style:normal;font-weight:normal;text-anchor:start;" transform="rotate(-0, 288.314063, 302.23075)" x="288.314063" y="302.23075">Flexible working hours</text>
    </g>
    <g id="patch_58">
     <path d="M 260.314063 316.908875 
L 280.314063 316.908875 
L 280.314063 309.908875 
L 260.314063 309.908875 
z
" style="fill:#bcbd22;"/>
    </g>
    <g id="text_66">
     <text style="font-family:DejaVu Sans;font-size:10px;font-stretch:normal;font-style:normal;font-weight:normal;text-anchor:start;" transform="rotate(-0, 288.314063, 316.908875)" x="288.314063" y="316.908875">Ability to work across disciplines</text>
    </g>
   </g>
  </g>
 </g>
 <defs>
  <clipPath id="p5f15265631">
   <rect height="200.31125" width="370.903125" x="66.548437" y="25.918125"/>
  </clipPath>
 </defs>
</svg>
