<?xml version="1.0" encoding="utf-8" standalone="no"?>
<!DOCTYPE svg PUBLIC "-//W3C//DTD SVG 1.1//EN"
  "http://www.w3.org/Graphics/SVG/1.1/DTD/svg11.dtd">
<svg height="360pt" version="1.1" viewBox="0 0 504 360" width="504pt" xmlns="http://www.w3.org/2000/svg" xmlns:xlink="http://www.w3.org/1999/xlink">
 <metadata>
  <rdf:RDF xmlns:cc="http://creativecommons.org/ns#" xmlns:dc="http://purl.org/dc/elements/1.1/" xmlns:rdf="http://www.w3.org/1999/02/22-rdf-syntax-ns#">
   <cc:Work>
    <dc:type rdf:resource="http://purl.org/dc/dcmitype/StillImage"/>
    <dc:date>2021-03-29T22:00:54.633861</dc:date>
    <dc:format>image/svg+xml</dc:format>
    <dc:creator>
     <cc:Agent>
      <dc:title>Matplotlib v3.4.0, https://matplotlib.org/</dc:title>
     </cc:Agent>
    </dc:creator>
   </cc:Work>
  </rdf:RDF>
 </metadata>
 <defs>
  <style type="text/css">*{stroke-linecap:butt;stroke-linejoin:round;}</style>
 </defs>
 <g id="figure_1">
  <g id="patch_1">
   <path d="M 0 360 
L 504 360 
L 504 0 
L 0 0 
z
" style="fill:#ffffff;"/>
  </g>
  <g id="axes_1">
   <g id="patch_2">
    <path d="M 65.998438 236.433125 
L 461.969219 236.433125 
L 461.969219 25.918125 
L 65.998438 25.918125 
z
" style="fill:#ffffff;"/>
   </g>
   <g id="patch_3">
    <path clip-path="url(#p38c71bf153)" d="M 65.998438 225.907375 
L 162.35382 225.907375 
L 162.35382 204.855875 
L 65.998438 204.855875 
z
" style="fill:#1f77b4;"/>
   </g>
   <g id="patch_4">
    <path clip-path="url(#p38c71bf153)" d="M 65.998438 183.804375 
L 131.07581 183.804375 
L 131.07581 162.752875 
L 65.998438 162.752875 
z
" style="fill:#1f77b4;"/>
   </g>
   <g id="patch_5">
    <path clip-path="url(#p38c71bf153)" d="M 65.998438 141.701375 
L 122.732557 141.701375 
L 122.732557 120.649875 
L 65.998438 120.649875 
z
" style="fill:#1f77b4;"/>
   </g>
   <g id="patch_6">
    <path clip-path="url(#p38c71bf153)" d="M 65.998438 99.598375 
L 104.377401 99.598375 
L 104.377401 78.546875 
L 65.998438 78.546875 
z
" style="fill:#1f77b4;"/>
   </g>
   <g id="patch_7">
    <path clip-path="url(#p38c71bf153)" d="M 65.998438 57.495375 
L 104.377401 57.495375 
L 104.377401 36.443875 
L 65.998438 36.443875 
z
" style="fill:#1f77b4;"/>
   </g>
   <g id="patch_8">
    <path clip-path="url(#p38c71bf153)" d="M 162.35382 225.907375 
L 247.080104 225.907375 
L 247.080104 204.855875 
L 162.35382 204.855875 
z
" style="fill:#ff7f0e;"/>
   </g>
   <g id="patch_9">
    <path clip-path="url(#p38c71bf153)" d="M 131.07581 183.804375 
L 201.159134 183.804375 
L 201.159134 162.752875 
L 131.07581 162.752875 
z
" style="fill:#ff7f0e;"/>
   </g>
   <g id="patch_10">
    <path clip-path="url(#p38c71bf153)" d="M 122.732557 141.701375 
L 161.11152 141.701375 
L 161.11152 120.649875 
L 122.732557 120.649875 
z
" style="fill:#ff7f0e;"/>
   </g>
   <g id="patch_11">
    <path clip-path="url(#p38c71bf153)" d="M 104.377401 99.598375 
L 147.762316 99.598375 
L 147.762316 78.546875 
L 104.377401 78.546875 
z
" style="fill:#ff7f0e;"/>
   </g>
   <g id="patch_12">
    <path clip-path="url(#p38c71bf153)" d="M 104.377401 57.495375 
L 126.069858 57.495375 
L 126.069858 36.443875 
L 104.377401 36.443875 
z
" style="fill:#ff7f0e;"/>
   </g>
   <g id="patch_13">
    <path clip-path="url(#p38c71bf153)" d="M 247.080104 225.907375 
L 308.548192 225.907375 
L 308.548192 204.855875 
L 247.080104 204.855875 
z
" style="fill:#2ca02c;"/>
   </g>
   <g id="patch_14">
    <path clip-path="url(#p38c71bf153)" d="M 201.159134 183.804375 
L 266.236506 183.804375 
L 266.236506 162.752875 
L 201.159134 162.752875 
z
" style="fill:#2ca02c;"/>
   </g>
   <g id="patch_15">
    <path clip-path="url(#p38c71bf153)" d="M 161.11152 141.701375 
L 219.51429 141.701375 
L 219.51429 120.649875 
L 161.11152 120.649875 
z
" style="fill:#2ca02c;"/>
   </g>
   <g id="patch_16">
    <path clip-path="url(#p38c71bf153)" d="M 147.762316 99.598375 
L 184.472628 99.598375 
L 184.472628 78.546875 
L 147.762316 78.546875 
z
" style="fill:#2ca02c;"/>
   </g>
   <g id="patch_17">
    <path clip-path="url(#p38c71bf153)" d="M 126.069858 57.495375 
L 156.105569 57.495375 
L 156.105569 36.443875 
L 126.069858 36.443875 
z
" style="fill:#2ca02c;"/>
   </g>
   <g id="patch_18">
    <path clip-path="url(#p38c71bf153)" d="M 308.548192 225.907375 
L 341.774186 225.907375 
L 341.774186 204.855875 
L 308.548192 204.855875 
z
" style="fill:#d62728;"/>
   </g>
   <g id="patch_19">
    <path clip-path="url(#p38c71bf153)" d="M 266.236506 183.804375 
L 296.272217 183.804375 
L 296.272217 162.752875 
L 266.236506 162.752875 
z
" style="fill:#d62728;"/>
   </g>
   <g id="patch_20">
    <path clip-path="url(#p38c71bf153)" d="M 219.51429 141.701375 
L 262.899205 141.701375 
L 262.899205 120.649875 
L 219.51429 120.649875 
z
" style="fill:#d62728;"/>
   </g>
   <g id="patch_21">
    <path clip-path="url(#p38c71bf153)" d="M 184.472628 99.598375 
L 232.863495 99.598375 
L 232.863495 78.546875 
L 184.472628 78.546875 
z
" style="fill:#d62728;"/>
   </g>
   <g id="patch_22">
    <path clip-path="url(#p38c71bf153)" d="M 156.105569 57.495375 
L 216.176989 57.495375 
L 216.176989 36.443875 
L 156.105569 36.443875 
z
" style="fill:#d62728;"/>
   </g>
   <g id="patch_23">
    <path clip-path="url(#p38c71bf153)" d="M 341.774186 225.907375 
L 375.00018 225.907375 
L 375.00018 204.855875 
L 341.774186 204.855875 
z
" style="fill:#9467bd;"/>
   </g>
   <g id="patch_24">
    <path clip-path="url(#p38c71bf153)" d="M 296.272217 183.804375 
L 332.982529 183.804375 
L 332.982529 162.752875 
L 296.272217 162.752875 
z
" style="fill:#9467bd;"/>
   </g>
   <g id="patch_25">
    <path clip-path="url(#p38c71bf153)" d="M 262.899205 141.701375 
L 296.272217 141.701375 
L 296.272217 120.649875 
L 262.899205 120.649875 
z
" style="fill:#9467bd;"/>
   </g>
   <g id="patch_26">
    <path clip-path="url(#p38c71bf153)" d="M 232.863495 99.598375 
L 259.561904 99.598375 
L 259.561904 78.546875 
L 232.863495 78.546875 
z
" style="fill:#9467bd;"/>
   </g>
   <g id="patch_27">
    <path clip-path="url(#p38c71bf153)" d="M 216.176989 57.495375 
L 251.218651 57.495375 
L 251.218651 36.443875 
L 216.176989 36.443875 
z
" style="fill:#9467bd;"/>
   </g>
   <g id="patch_28">
    <path clip-path="url(#p38c71bf153)" d="M 375.00018 225.907375 
L 403.242275 225.907375 
L 403.242275 204.855875 
L 375.00018 204.855875 
z
" style="fill:#8c564b;"/>
   </g>
   <g id="patch_29">
    <path clip-path="url(#p38c71bf153)" d="M 332.982529 183.804375 
L 373.030143 183.804375 
L 373.030143 162.752875 
L 332.982529 162.752875 
z
" style="fill:#8c564b;"/>
   </g>
   <g id="patch_30">
    <path clip-path="url(#p38c71bf153)" d="M 296.272217 141.701375 
L 336.319831 141.701375 
L 336.319831 120.649875 
L 296.272217 120.649875 
z
" style="fill:#8c564b;"/>
   </g>
   <g id="patch_31">
    <path clip-path="url(#p38c71bf153)" d="M 259.561904 99.598375 
L 312.958722 99.598375 
L 312.958722 78.546875 
L 259.561904 78.546875 
z
" style="fill:#8c564b;"/>
   </g>
   <g id="patch_32">
    <path clip-path="url(#p38c71bf153)" d="M 251.218651 57.495375 
L 312.958722 57.495375 
L 312.958722 36.443875 
L 251.218651 36.443875 
z
" style="fill:#8c564b;"/>
   </g>
   <g id="patch_33">
    <path clip-path="url(#p38c71bf153)" d="M 403.242275 225.907375 
L 423.177871 225.907375 
L 423.177871 204.855875 
L 403.242275 204.855875 
z
" style="fill:#e377c2;"/>
   </g>
   <g id="patch_34">
    <path clip-path="url(#p38c71bf153)" d="M 373.030143 183.804375 
L 401.397203 183.804375 
L 401.397203 162.752875 
L 373.030143 162.752875 
z
" style="fill:#e377c2;"/>
   </g>
   <g id="patch_35">
    <path clip-path="url(#p38c71bf153)" d="M 336.319831 141.701375 
L 373.030143 141.701375 
L 373.030143 120.649875 
L 336.319831 120.649875 
z
" style="fill:#e377c2;"/>
   </g>
   <g id="patch_36">
    <path clip-path="url(#p38c71bf153)" d="M 312.958722 99.598375 
L 356.343637 99.598375 
L 356.343637 78.546875 
L 312.958722 78.546875 
z
" style="fill:#e377c2;"/>
   </g>
   <g id="patch_37">
    <path clip-path="url(#p38c71bf153)" d="M 312.958722 57.495375 
L 371.361493 57.495375 
L 371.361493 36.443875 
L 312.958722 36.443875 
z
" style="fill:#e377c2;"/>
   </g>
   <g id="patch_38">
    <path clip-path="url(#p38c71bf153)" d="M 423.177871 225.907375 
L 433.145669 225.907375 
L 433.145669 204.855875 
L 423.177871 204.855875 
z
" style="fill:#7f7f7f;"/>
   </g>
   <g id="patch_39">
    <path clip-path="url(#p38c71bf153)" d="M 401.397203 183.804375 
L 429.764263 183.804375 
L 429.764263 162.752875 
L 401.397203 162.752875 
z
" style="fill:#7f7f7f;"/>
   </g>
   <g id="patch_40">
    <path clip-path="url(#p38c71bf153)" d="M 373.030143 141.701375 
L 413.077757 141.701375 
L 413.077757 120.649875 
L 373.030143 120.649875 
z
" style="fill:#7f7f7f;"/>
   </g>
   <g id="patch_41">
    <path clip-path="url(#p38c71bf153)" d="M 356.343637 99.598375 
L 416.415058 99.598375 
L 416.415058 78.546875 
L 356.343637 78.546875 
z
" style="fill:#7f7f7f;"/>
   </g>
   <g id="patch_42">
    <path clip-path="url(#p38c71bf153)" d="M 371.361493 57.495375 
L 411.409106 57.495375 
L 411.409106 36.443875 
L 371.361493 36.443875 
z
" style="fill:#7f7f7f;"/>
   </g>
   <g id="patch_43">
    <path clip-path="url(#p38c71bf153)" d="M 433.145669 225.907375 
L 443.113467 225.907375 
L 443.113467 204.855875 
L 433.145669 204.855875 
z
" style="fill:#bcbd22;"/>
   </g>
   <g id="patch_44">
    <path clip-path="url(#p38c71bf153)" d="M 429.764263 183.804375 
L 443.113467 183.804375 
L 443.113467 162.752875 
L 429.764263 162.752875 
z
" style="fill:#bcbd22;"/>
   </g>
   <g id="patch_45">
    <path clip-path="url(#p38c71bf153)" d="M 413.077757 141.701375 
L 443.113467 141.701375 
L 443.113467 120.649875 
L 413.077757 120.649875 
z
" style="fill:#bcbd22;"/>
   </g>
   <g id="patch_46">
    <path clip-path="url(#p38c71bf153)" d="M 416.415058 99.598375 
L 443.113467 99.598375 
L 443.113467 78.546875 
L 416.415058 78.546875 
z
" style="fill:#bcbd22;"/>
   </g>
   <g id="patch_47">
    <path clip-path="url(#p38c71bf153)" d="M 411.409106 57.495375 
L 443.113467 57.495375 
L 443.113467 36.443875 
L 411.409106 36.443875 
z
" style="fill:#bcbd22;"/>
   </g>
   <g id="matplotlib.axis_1">
    <g id="xtick_1">
     <g id="line2d_1">
      <defs>
       <path d="M 0 0 
L 0 3.5 
" id="mc3a356a46d" style="stroke:#000000;stroke-width:0.8;"/>
      </defs>
      <g>
       <use style="stroke:#000000;stroke-width:0.8;" x="65.998438" xlink:href="#mc3a356a46d" y="236.433125"/>
      </g>
     </g>
     <g id="text_1">
      <text style="font-family:DejaVu Sans;font-size:10px;font-stretch:normal;font-style:normal;font-weight:normal;text-anchor:middle;" transform="rotate(-0, 65.998438, 251.031563)" x="65.998438" y="251.031563">0</text>
     </g>
    </g>
    <g id="xtick_2">
     <g id="line2d_2">
      <g>
       <use style="stroke:#000000;stroke-width:0.8;" x="141.421443" xlink:href="#mc3a356a46d" y="236.433125"/>
      </g>
     </g>
     <g id="text_2">
      <text style="font-family:DejaVu Sans;font-size:10px;font-stretch:normal;font-style:normal;font-weight:normal;text-anchor:middle;" transform="rotate(-0, 141.421443, 251.031563)" x="141.421443" y="251.031563">20</text>
     </g>
    </g>
    <g id="xtick_3">
     <g id="line2d_3">
      <g>
       <use style="stroke:#000000;stroke-width:0.8;" x="216.844449" xlink:href="#mc3a356a46d" y="236.433125"/>
      </g>
     </g>
     <g id="text_3">
      <text style="font-family:DejaVu Sans;font-size:10px;font-stretch:normal;font-style:normal;font-weight:normal;text-anchor:middle;" transform="rotate(-0, 216.844449, 251.031563)" x="216.844449" y="251.031563">40</text>
     </g>
    </g>
    <g id="xtick_4">
     <g id="line2d_4">
      <g>
       <use style="stroke:#000000;stroke-width:0.8;" x="292.267455" xlink:href="#mc3a356a46d" y="236.433125"/>
      </g>
     </g>
     <g id="text_4">
      <text style="font-family:DejaVu Sans;font-size:10px;font-stretch:normal;font-style:normal;font-weight:normal;text-anchor:middle;" transform="rotate(-0, 292.267455, 251.031563)" x="292.267455" y="251.031563">60</text>
     </g>
    </g>
    <g id="xtick_5">
     <g id="line2d_5">
      <g>
       <use style="stroke:#000000;stroke-width:0.8;" x="367.690461" xlink:href="#mc3a356a46d" y="236.433125"/>
      </g>
     </g>
     <g id="text_5">
      <text style="font-family:DejaVu Sans;font-size:10px;font-stretch:normal;font-style:normal;font-weight:normal;text-anchor:middle;" transform="rotate(-0, 367.690461, 251.031563)" x="367.690461" y="251.031563">80</text>
     </g>
    </g>
    <g id="xtick_6">
     <g id="line2d_6">
      <g>
       <use style="stroke:#000000;stroke-width:0.8;" x="443.113467" xlink:href="#mc3a356a46d" y="236.433125"/>
      </g>
     </g>
     <g id="text_6">
      <text style="font-family:DejaVu Sans;font-size:10px;font-stretch:normal;font-style:normal;font-weight:normal;text-anchor:middle;" transform="rotate(-0, 443.113467, 251.031563)" x="443.113467" y="251.031563">100</text>
     </g>
    </g>
    <g id="text_7">
     <text style="font-family:DejaVu Sans;font-size:10px;font-stretch:normal;font-style:normal;font-weight:normal;text-anchor:middle;" transform="rotate(-0, 263.983828, 264.709688)" x="263.983828" y="264.709688">Ranking of importance</text>
    </g>
   </g>
   <g id="matplotlib.axis_2">
    <g id="ytick_1">
     <g id="line2d_7">
      <defs>
       <path d="M 0 0 
L -3.5 0 
" id="m82278324de" style="stroke:#000000;stroke-width:0.8;"/>
      </defs>
      <g>
       <use style="stroke:#000000;stroke-width:0.8;" x="65.998438" xlink:href="#m82278324de" y="215.381625"/>
      </g>
     </g>
     <g id="text_8">
      <text style="font-family:DejaVu Sans;font-size:10px;font-stretch:normal;font-style:normal;font-weight:normal;text-anchor:end;" transform="rotate(-0, 58.998438, 219.180844)" x="58.998438" y="219.180844">Rank 1</text>
     </g>
    </g>
    <g id="ytick_2">
     <g id="line2d_8">
      <g>
       <use style="stroke:#000000;stroke-width:0.8;" x="65.998438" xlink:href="#m82278324de" y="173.278625"/>
      </g>
     </g>
     <g id="text_9">
      <text style="font-family:DejaVu Sans;font-size:10px;font-stretch:normal;font-style:normal;font-weight:normal;text-anchor:end;" transform="rotate(-0, 58.998438, 177.077844)" x="58.998438" y="177.077844">Rank 2</text>
     </g>
    </g>
    <g id="ytick_3">
     <g id="line2d_9">
      <g>
       <use style="stroke:#000000;stroke-width:0.8;" x="65.998438" xlink:href="#m82278324de" y="131.175625"/>
      </g>
     </g>
     <g id="text_10">
      <text style="font-family:DejaVu Sans;font-size:10px;font-stretch:normal;font-style:normal;font-weight:normal;text-anchor:end;" transform="rotate(-0, 58.998438, 134.974844)" x="58.998438" y="134.974844">Rank 3</text>
     </g>
    </g>
    <g id="ytick_4">
     <g id="line2d_10">
      <g>
       <use style="stroke:#000000;stroke-width:0.8;" x="65.998438" xlink:href="#m82278324de" y="89.072625"/>
      </g>
     </g>
     <g id="text_11">
      <text style="font-family:DejaVu Sans;font-size:10px;font-stretch:normal;font-style:normal;font-weight:normal;text-anchor:end;" transform="rotate(-0, 58.998438, 92.871844)" x="58.998438" y="92.871844">Rank 4</text>
     </g>
    </g>
    <g id="ytick_5">
     <g id="line2d_11">
      <g>
       <use style="stroke:#000000;stroke-width:0.8;" x="65.998438" xlink:href="#m82278324de" y="46.969625"/>
      </g>
     </g>
     <g id="text_12">
      <text style="font-family:DejaVu Sans;font-size:10px;font-stretch:normal;font-style:normal;font-weight:normal;text-anchor:end;" transform="rotate(-0, 58.998438, 50.768844)" x="58.998438" y="50.768844">Rank 5</text>
     </g>
    </g>
    <g id="text_13">
     <text style="font-family:DejaVu Sans;font-size:10px;font-stretch:normal;font-style:normal;font-weight:normal;text-anchor:middle;" transform="rotate(-90, 18.398438, 131.175625)" x="18.398438" y="131.175625">Percentage</text>
    </g>
   </g>
   <g id="patch_48">
    <path d="M 65.998438 236.433125 
L 461.969219 236.433125 
" style="fill:none;stroke:#000000;stroke-linecap:square;stroke-linejoin:miter;stroke-width:0.8;"/>
   </g>
   <g id="text_14">
    <text style="font-family:DejaVu Sans;font-size:10px;font-stretch:normal;font-style:normal;font-weight:normal;text-anchor:middle;" transform="rotate(-0, 114.176129, 219.591925)" x="114.176129" y="219.591925">26</text>
   </g>
   <g id="text_15">
    <text style="font-family:DejaVu Sans;font-size:10px;font-stretch:normal;font-style:normal;font-weight:normal;text-anchor:middle;" transform="rotate(-0, 98.537124, 177.488925)" x="98.537124" y="177.488925">17</text>
   </g>
   <g id="text_16">
    <text style="font-family:DejaVu Sans;font-size:10px;font-stretch:normal;font-style:normal;font-weight:normal;text-anchor:middle;" transform="rotate(-0, 94.365497, 135.385925)" x="94.365497" y="135.385925">15</text>
   </g>
   <g id="text_17">
    <text style="font-family:DejaVu Sans;font-size:10px;font-stretch:normal;font-style:normal;font-weight:normal;text-anchor:middle;" transform="rotate(-0, 85.187919, 93.282925)" x="85.187919" y="93.282925">10</text>
   </g>
   <g id="text_18">
    <text style="font-family:DejaVu Sans;font-size:10px;font-stretch:normal;font-style:normal;font-weight:normal;text-anchor:middle;" transform="rotate(-0, 85.187919, 51.179925)" x="85.187919" y="51.179925">10</text>
   </g>
   <g id="text_19">
    <text style="font-family:DejaVu Sans;font-size:10px;font-stretch:normal;font-style:normal;font-weight:normal;text-anchor:middle;" transform="rotate(-0, 204.716962, 219.591925)" x="204.716962" y="219.591925">22</text>
   </g>
   <g id="text_20">
    <text style="font-family:DejaVu Sans;font-size:10px;font-stretch:normal;font-style:normal;font-weight:normal;text-anchor:middle;" transform="rotate(-0, 166.117472, 177.488925)" x="166.117472" y="177.488925">19</text>
   </g>
   <g id="text_21">
    <text style="font-family:DejaVu Sans;font-size:10px;font-stretch:normal;font-style:normal;font-weight:normal;text-anchor:middle;" transform="rotate(-0, 141.922039, 135.385925)" x="141.922039" y="135.385925">10</text>
   </g>
   <g id="text_22">
    <text style="font-family:DejaVu Sans;font-size:10px;font-stretch:normal;font-style:normal;font-weight:normal;text-anchor:middle;" transform="rotate(-0, 126.069858, 93.282925)" x="126.069858" y="93.282925">12</text>
   </g>
   <g id="text_23">
    <text style="font-family:DejaVu Sans;font-size:10px;font-stretch:normal;font-style:normal;font-weight:normal;text-anchor:middle;" transform="rotate(-0, 115.223629, 51.179925)" x="115.223629" y="51.179925">6</text>
   </g>
   <g id="text_24">
    <text style="font-family:DejaVu Sans;font-size:10px;font-stretch:normal;font-style:normal;font-weight:normal;text-anchor:middle;" transform="rotate(-0, 277.814148, 219.591925)" x="277.814148" y="219.591925">16</text>
   </g>
   <g id="text_25">
    <text style="font-family:DejaVu Sans;font-size:10px;font-stretch:normal;font-style:normal;font-weight:normal;text-anchor:middle;" transform="rotate(-0, 233.69782, 177.488925)" x="233.69782" y="177.488925">17</text>
   </g>
   <g id="text_26">
    <text style="font-family:DejaVu Sans;font-size:10px;font-stretch:normal;font-style:normal;font-weight:normal;text-anchor:middle;" transform="rotate(-0, 190.312905, 135.385925)" x="190.312905" y="135.385925">15</text>
   </g>
   <g id="text_27">
    <text style="font-family:DejaVu Sans;font-size:10px;font-stretch:normal;font-style:normal;font-weight:normal;text-anchor:middle;" transform="rotate(-0, 166.117472, 93.282925)" x="166.117472" y="93.282925">10</text>
   </g>
   <g id="text_28">
    <text style="font-family:DejaVu Sans;font-size:10px;font-stretch:normal;font-style:normal;font-weight:normal;text-anchor:middle;" transform="rotate(-0, 141.087713, 51.179925)" x="141.087713" y="51.179925">8</text>
   </g>
   <g id="text_29">
    <text style="font-family:DejaVu Sans;font-size:10px;font-stretch:normal;font-style:normal;font-weight:normal;text-anchor:middle;" transform="rotate(-0, 325.161189, 219.591925)" x="325.161189" y="219.591925">9</text>
   </g>
   <g id="text_30">
    <text style="font-family:DejaVu Sans;font-size:10px;font-stretch:normal;font-style:normal;font-weight:normal;text-anchor:middle;" transform="rotate(-0, 281.254362, 177.488925)" x="281.254362" y="177.488925">8</text>
   </g>
   <g id="text_31">
    <text style="font-family:DejaVu Sans;font-size:10px;font-stretch:normal;font-style:normal;font-weight:normal;text-anchor:middle;" transform="rotate(-0, 241.206748, 135.385925)" x="241.206748" y="135.385925">12</text>
   </g>
   <g id="text_32">
    <text style="font-family:DejaVu Sans;font-size:10px;font-stretch:normal;font-style:normal;font-weight:normal;text-anchor:middle;" transform="rotate(-0, 208.668062, 93.282925)" x="208.668062" y="93.282925">13</text>
   </g>
   <g id="text_33">
    <text style="font-family:DejaVu Sans;font-size:10px;font-stretch:normal;font-style:normal;font-weight:normal;text-anchor:middle;" transform="rotate(-0, 186.141279, 51.179925)" x="186.141279" y="51.179925">16</text>
   </g>
   <g id="text_34">
    <text style="font-family:DejaVu Sans;font-size:10px;font-stretch:normal;font-style:normal;font-weight:normal;text-anchor:middle;" transform="rotate(-0, 358.387183, 219.591925)" x="358.387183" y="219.591925">9</text>
   </g>
   <g id="text_35">
    <text style="font-family:DejaVu Sans;font-size:10px;font-stretch:normal;font-style:normal;font-weight:normal;text-anchor:middle;" transform="rotate(-0, 314.627373, 177.488925)" x="314.627373" y="177.488925">10</text>
   </g>
   <g id="text_36">
    <text style="font-family:DejaVu Sans;font-size:10px;font-stretch:normal;font-style:normal;font-weight:normal;text-anchor:middle;" transform="rotate(-0, 279.585711, 135.385925)" x="279.585711" y="135.385925">9</text>
   </g>
   <g id="text_37">
    <text style="font-family:DejaVu Sans;font-size:10px;font-stretch:normal;font-style:normal;font-weight:normal;text-anchor:middle;" transform="rotate(-0, 246.2127, 93.282925)" x="246.2127" y="93.282925">7</text>
   </g>
   <g id="text_38">
    <text style="font-family:DejaVu Sans;font-size:10px;font-stretch:normal;font-style:normal;font-weight:normal;text-anchor:middle;" transform="rotate(-0, 233.69782, 51.179925)" x="233.69782" y="51.179925">9</text>
   </g>
   <g id="text_39">
    <text style="font-family:DejaVu Sans;font-size:10px;font-stretch:normal;font-style:normal;font-weight:normal;text-anchor:middle;" transform="rotate(-0, 389.121227, 219.591925)" x="389.121227" y="219.591925">7</text>
   </g>
   <g id="text_40">
    <text style="font-family:DejaVu Sans;font-size:10px;font-stretch:normal;font-style:normal;font-weight:normal;text-anchor:middle;" transform="rotate(-0, 353.006336, 177.488925)" x="353.006336" y="177.488925">11</text>
   </g>
   <g id="text_41">
    <text style="font-family:DejaVu Sans;font-size:10px;font-stretch:normal;font-style:normal;font-weight:normal;text-anchor:middle;" transform="rotate(-0, 316.296024, 135.385925)" x="316.296024" y="135.385925">11</text>
   </g>
   <g id="text_42">
    <text style="font-family:DejaVu Sans;font-size:10px;font-stretch:normal;font-style:normal;font-weight:normal;text-anchor:middle;" transform="rotate(-0, 286.260313, 93.282925)" x="286.260313" y="93.282925">14</text>
   </g>
   <g id="text_43">
    <text style="font-family:DejaVu Sans;font-size:10px;font-stretch:normal;font-style:normal;font-weight:normal;text-anchor:middle;" transform="rotate(-0, 282.088687, 51.179925)" x="282.088687" y="51.179925">16</text>
   </g>
   <g id="text_44">
    <text style="font-family:DejaVu Sans;font-size:10px;font-stretch:normal;font-style:normal;font-weight:normal;text-anchor:middle;" transform="rotate(-0, 413.210073, 219.591925)" x="413.210073" y="219.591925">5</text>
   </g>
   <g id="text_45">
    <text style="font-family:DejaVu Sans;font-size:10px;font-stretch:normal;font-style:normal;font-weight:normal;text-anchor:middle;" transform="rotate(-0, 387.213673, 177.488925)" x="387.213673" y="177.488925">8</text>
   </g>
   <g id="text_46">
    <text style="font-family:DejaVu Sans;font-size:10px;font-stretch:normal;font-style:normal;font-weight:normal;text-anchor:middle;" transform="rotate(-0, 354.674987, 135.385925)" x="354.674987" y="135.385925">10</text>
   </g>
   <g id="text_47">
    <text style="font-family:DejaVu Sans;font-size:10px;font-stretch:normal;font-style:normal;font-weight:normal;text-anchor:middle;" transform="rotate(-0, 334.65118, 93.282925)" x="334.65118" y="93.282925">12</text>
   </g>
   <g id="text_48">
    <text style="font-family:DejaVu Sans;font-size:10px;font-stretch:normal;font-style:normal;font-weight:normal;text-anchor:middle;" transform="rotate(-0, 342.160108, 51.179925)" x="342.160108" y="51.179925">15</text>
   </g>
   <g id="text_49">
    <text style="font-family:DejaVu Sans;font-size:10px;font-stretch:normal;font-style:normal;font-weight:normal;text-anchor:middle;" transform="rotate(-0, 415.580733, 177.488925)" x="415.580733" y="177.488925">8</text>
   </g>
   <g id="text_50">
    <text style="font-family:DejaVu Sans;font-size:10px;font-stretch:normal;font-style:normal;font-weight:normal;text-anchor:middle;" transform="rotate(-0, 393.05395, 135.385925)" x="393.05395" y="135.385925">11</text>
   </g>
   <g id="text_51">
    <text style="font-family:DejaVu Sans;font-size:10px;font-stretch:normal;font-style:normal;font-weight:normal;text-anchor:middle;" transform="rotate(-0, 386.379348, 93.282925)" x="386.379348" y="93.282925">16</text>
   </g>
   <g id="text_52">
    <text style="font-family:DejaVu Sans;font-size:10px;font-stretch:normal;font-style:normal;font-weight:normal;text-anchor:middle;" transform="rotate(-0, 391.385299, 51.179925)" x="391.385299" y="51.179925">11</text>
   </g>
   <g id="text_53">
    <text style="font-family:DejaVu Sans;font-size:10px;font-stretch:normal;font-style:normal;font-weight:normal;text-anchor:middle;" transform="rotate(-0, 428.095612, 135.385925)" x="428.095612" y="135.385925">8</text>
   </g>
   <g id="text_54">
    <text style="font-family:DejaVu Sans;font-size:10px;font-stretch:normal;font-style:normal;font-weight:normal;text-anchor:middle;" transform="rotate(-0, 429.764263, 93.282925)" x="429.764263" y="93.282925">7</text>
   </g>
   <g id="text_55">
    <text style="font-family:DejaVu Sans;font-size:10px;font-stretch:normal;font-style:normal;font-weight:normal;text-anchor:middle;" transform="rotate(-0, 427.261287, 51.179925)" x="427.261287" y="51.179925">8</text>
   </g>
   <g id="text_56">
    <text style="font-family:DejaVu Sans;font-size:12px;font-stretch:normal;font-style:normal;font-weight:normal;text-anchor:middle;" transform="rotate(-0, 263.983828, 19.918125)" x="263.983828" y="19.918125">Reasons to choose current job: United Kingdom</text>
   </g>
   <g id="legend_1">
    <g id="patch_49">
     <path d="M 37.326797 349.401 
L 490.640859 349.401 
Q 492.640859 349.401 492.640859 347.401 
L 492.640859 275.010375 
Q 492.640859 273.010375 490.640859 273.010375 
L 37.326797 273.010375 
Q 35.326797 273.010375 35.326797 275.010375 
L 35.326797 347.401 
Q 35.326797 349.401 37.326797 349.401 
z
" style="fill:#ffffff;opacity:0.8;stroke:#cccccc;stroke-linejoin:miter;"/>
    </g>
    <g id="patch_50">
     <path d="M 39.326797 284.608812 
L 59.326797 284.608812 
L 59.326797 277.608812 
L 39.326797 277.608812 
z
" style="fill:#1f77b4;"/>
    </g>
    <g id="text_57">
     <text style="font-family:DejaVu Sans;font-size:10px;font-stretch:normal;font-style:normal;font-weight:normal;text-anchor:start;" transform="rotate(-0, 67.326797, 284.608812)" x="67.326797" y="284.608812">Desire to work in a research environment</text>
    </g>
    <g id="patch_51">
     <path d="M 39.326797 299.286938 
L 59.326797 299.286938 
L 59.326797 292.286938 
L 39.326797 292.286938 
z
" style="fill:#ff7f0e;"/>
    </g>
    <g id="text_58">
     <text style="font-family:DejaVu Sans;font-size:10px;font-stretch:normal;font-style:normal;font-weight:normal;text-anchor:start;" transform="rotate(-0, 67.326797, 299.286938)" x="67.326797" y="299.286938">Desire to advance research</text>
    </g>
    <g id="patch_52">
     <path d="M 39.326797 313.965063 
L 59.326797 313.965063 
L 59.326797 306.965063 
L 39.326797 306.965063 
z
" style="fill:#2ca02c;"/>
    </g>
    <g id="text_59">
     <text style="font-family:DejaVu Sans;font-size:10px;font-stretch:normal;font-style:normal;font-weight:normal;text-anchor:start;" transform="rotate(-0, 67.326797, 313.965063)" x="67.326797" y="313.965063">Opportunity to develop software</text>
    </g>
    <g id="patch_53">
     <path d="M 39.326797 328.643188 
L 59.326797 328.643188 
L 59.326797 321.643188 
L 39.326797 321.643188 
z
" style="fill:#d62728;"/>
    </g>
    <g id="text_60">
     <text style="font-family:DejaVu Sans;font-size:10px;font-stretch:normal;font-style:normal;font-weight:normal;text-anchor:start;" transform="rotate(-0, 67.326797, 328.643188)" x="67.326797" y="328.643188">Freedom to choose own working practices</text>
    </g>
    <g id="patch_54">
     <path d="M 39.326797 343.321313 
L 59.326797 343.321313 
L 59.326797 336.321313 
L 39.326797 336.321313 
z
" style="fill:#9467bd;"/>
    </g>
    <g id="text_61">
     <text style="font-family:DejaVu Sans;font-size:10px;font-stretch:normal;font-style:normal;font-weight:normal;text-anchor:start;" transform="rotate(-0, 67.326797, 343.321313)" x="67.326797" y="343.321313">Opportunity for career advancement</text>
    </g>
    <g id="patch_55">
     <path d="M 298.061172 284.608812 
L 318.061172 284.608812 
L 318.061172 277.608812 
L 298.061172 277.608812 
z
" style="fill:#8c564b;"/>
    </g>
    <g id="text_62">
     <text style="font-family:DejaVu Sans;font-size:10px;font-stretch:normal;font-style:normal;font-weight:normal;text-anchor:start;" transform="rotate(-0, 326.061172, 284.608812)" x="326.061172" y="284.608812">I want to learn new skills</text>
    </g>
    <g id="patch_56">
     <path d="M 298.061172 299.286938 
L 318.061172 299.286938 
L 318.061172 292.286938 
L 298.061172 292.286938 
z
" style="fill:#e377c2;"/>
    </g>
    <g id="text_63">
     <text style="font-family:DejaVu Sans;font-size:10px;font-stretch:normal;font-style:normal;font-weight:normal;text-anchor:start;" transform="rotate(-0, 326.061172, 299.286938)" x="326.061172" y="299.286938">Flexible working hours</text>
    </g>
    <g id="patch_57">
     <path d="M 298.061172 313.965063 
L 318.061172 313.965063 
L 318.061172 306.965063 
L 298.061172 306.965063 
z
" style="fill:#7f7f7f;"/>
    </g>
    <g id="text_64">
     <text style="font-family:DejaVu Sans;font-size:10px;font-stretch:normal;font-style:normal;font-weight:normal;text-anchor:start;" transform="rotate(-0, 326.061172, 313.965063)" x="326.061172" y="313.965063">Ability to work across disciplines</text>
    </g>
    <g id="patch_58">
     <path d="M 298.061172 328.643188 
L 318.061172 328.643188 
L 318.061172 321.643188 
L 298.061172 321.643188 
z
" style="fill:#bcbd22;"/>
    </g>
    <g id="text_65">
     <text style="font-family:DejaVu Sans;font-size:10px;font-stretch:normal;font-style:normal;font-weight:normal;text-anchor:start;" transform="rotate(-0, 326.061172, 328.643188)" x="326.061172" y="328.643188">The salary</text>
    </g>
   </g>
  </g>
 </g>
 <defs>
  <clipPath id="p38c71bf153">
   <rect height="210.515" width="395.970781" x="65.998438" y="25.918125"/>
  </clipPath>
 </defs>
</svg>
