<?xml version="1.0" encoding="utf-8" standalone="no"?>
<!DOCTYPE svg PUBLIC "-//W3C//DTD SVG 1.1//EN"
  "http://www.w3.org/Graphics/SVG/1.1/DTD/svg11.dtd">
<svg xmlns:xlink="http://www.w3.org/1999/xlink" width="504pt" height="360pt" viewBox="0 0 504 360" xmlns="http://www.w3.org/2000/svg" version="1.1">
 <metadata>
  <rdf:RDF xmlns:dc="http://purl.org/dc/elements/1.1/" xmlns:cc="http://creativecommons.org/ns#" xmlns:rdf="http://www.w3.org/1999/02/22-rdf-syntax-ns#">
   <cc:Work>
    <dc:type rdf:resource="http://purl.org/dc/dcmitype/StillImage"/>
    <dc:date>2022-03-21T11:49:12.840493</dc:date>
    <dc:format>image/svg+xml</dc:format>
    <dc:creator>
     <cc:Agent>
      <dc:title>Matplotlib v3.5.1, https://matplotlib.org/</dc:title>
     </cc:Agent>
    </dc:creator>
   </cc:Work>
  </rdf:RDF>
 </metadata>
 <defs>
  <style type="text/css">*{stroke-linejoin: round; stroke-linecap: butt}</style>
 </defs>
 <g id="figure_1">
  <g id="patch_1">
   <path d="M 0 360 
L 504 360 
L 504 0 
L 0 0 
z
" style="fill: #ffffff"/>
  </g>
  <g id="axes_1">
   <g id="patch_2">
    <path d="M 62.86875 237.852759 
L 487.347656 237.852759 
L 487.347656 25.43625 
L 62.86875 25.43625 
z
" style="fill: #ffffff"/>
   </g>
   <g id="patch_3">
    <path d="M 62.86875 227.231934 
L 162.687423 227.231934 
L 162.687423 205.990283 
L 62.86875 205.990283 
z
" clip-path="url(#pca3f368d91)" style="fill: #1f77b4"/>
   </g>
   <g id="patch_4">
    <path d="M 62.86875 184.748632 
L 160.796448 184.748632 
L 160.796448 163.506981 
L 62.86875 163.506981 
z
" clip-path="url(#pca3f368d91)" style="fill: #1f77b4"/>
   </g>
   <g id="patch_5">
    <path d="M 62.86875 142.26533 
L 117.995881 142.26533 
L 117.995881 121.023679 
L 62.86875 121.023679 
z
" clip-path="url(#pca3f368d91)" style="fill: #1f77b4"/>
   </g>
   <g id="patch_6">
    <path d="M 62.86875 99.782028 
L 109.402923 99.782028 
L 109.402923 78.540377 
L 62.86875 78.540377 
z
" clip-path="url(#pca3f368d91)" style="fill: #1f77b4"/>
   </g>
   <g id="patch_7">
    <path d="M 62.86875 57.298726 
L 101.99123 57.298726 
L 101.99123 36.057075 
L 62.86875 36.057075 
z
" clip-path="url(#pca3f368d91)" style="fill: #1f77b4"/>
   </g>
   <g id="patch_8">
    <path d="M 162.687423 227.231934 
L 247.533295 227.231934 
L 247.533295 205.990283 
L 162.687423 205.990283 
z
" clip-path="url(#pca3f368d91)" style="fill: #ff7f0e"/>
   </g>
   <g id="patch_9">
    <path d="M 160.796448 184.748632 
L 211.01578 184.748632 
L 211.01578 163.506981 
L 160.796448 163.506981 
z
" clip-path="url(#pca3f368d91)" style="fill: #ff7f0e"/>
   </g>
   <g id="patch_10">
    <path d="M 117.995881 142.26533 
L 180.998316 142.26533 
L 180.998316 121.023679 
L 117.995881 121.023679 
z
" clip-path="url(#pca3f368d91)" style="fill: #ff7f0e"/>
   </g>
   <g id="patch_11">
    <path d="M 109.402923 99.782028 
L 141.395166 99.782028 
L 141.395166 78.540377 
L 109.402923 78.540377 
z
" clip-path="url(#pca3f368d91)" style="fill: #ff7f0e"/>
   </g>
   <g id="patch_12">
    <path d="M 101.99123 57.298726 
L 131.33309 57.298726 
L 131.33309 36.057075 
L 101.99123 36.057075 
z
" clip-path="url(#pca3f368d91)" style="fill: #ff7f0e"/>
   </g>
   <g id="patch_13">
    <path d="M 247.533295 227.231934 
L 312.415432 227.231934 
L 312.415432 205.990283 
L 247.533295 205.990283 
z
" clip-path="url(#pca3f368d91)" style="fill: #2ca02c"/>
   </g>
   <g id="patch_14">
    <path d="M 211.01578 184.748632 
L 273.789946 184.748632 
L 273.789946 163.506981 
L 211.01578 163.506981 
z
" clip-path="url(#pca3f368d91)" style="fill: #2ca02c"/>
   </g>
   <g id="patch_15">
    <path d="M 180.998316 142.26533 
L 244.000751 142.26533 
L 244.000751 121.023679 
L 180.998316 121.023679 
z
" clip-path="url(#pca3f368d91)" style="fill: #2ca02c"/>
   </g>
   <g id="patch_16">
    <path d="M 141.395166 99.782028 
L 193.746111 99.782028 
L 193.746111 78.540377 
L 141.395166 78.540377 
z
" clip-path="url(#pca3f368d91)" style="fill: #2ca02c"/>
   </g>
   <g id="patch_17">
    <path d="M 131.33309 57.298726 
L 163.935156 57.298726 
L 163.935156 36.057075 
L 131.33309 36.057075 
z
" clip-path="url(#pca3f368d91)" style="fill: #2ca02c"/>
   </g>
   <g id="patch_18">
    <path d="M 312.415432 227.231934 
L 364.820235 227.231934 
L 364.820235 205.990283 
L 312.415432 205.990283 
z
" clip-path="url(#pca3f368d91)" style="fill: #d62728"/>
   </g>
   <g id="patch_19">
    <path d="M 273.789946 184.748632 
L 321.498311 184.748632 
L 321.498311 163.506981 
L 273.789946 163.506981 
z
" clip-path="url(#pca3f368d91)" style="fill: #d62728"/>
   </g>
   <g id="patch_20">
    <path d="M 244.000751 142.26533 
L 293.877679 142.26533 
L 293.877679 121.023679 
L 244.000751 121.023679 
z
" clip-path="url(#pca3f368d91)" style="fill: #d62728"/>
   </g>
   <g id="patch_21">
    <path d="M 193.746111 99.782028 
L 246.097055 99.782028 
L 246.097055 78.540377 
L 193.746111 78.540377 
z
" clip-path="url(#pca3f368d91)" style="fill: #d62728"/>
   </g>
   <g id="patch_22">
    <path d="M 163.935156 57.298726 
L 193.277016 57.298726 
L 193.277016 36.057075 
L 163.935156 36.057075 
z
" clip-path="url(#pca3f368d91)" style="fill: #d62728"/>
   </g>
   <g id="patch_23">
    <path d="M 364.820235 227.231934 
L 394.765837 227.231934 
L 394.765837 205.990283 
L 364.820235 205.990283 
z
" clip-path="url(#pca3f368d91)" style="fill: #9467bd"/>
   </g>
   <g id="patch_24">
    <path d="M 321.498311 184.748632 
L 354.140877 184.748632 
L 354.140877 163.506981 
L 321.498311 163.506981 
z
" clip-path="url(#pca3f368d91)" style="fill: #9467bd"/>
   </g>
   <g id="patch_25">
    <path d="M 293.877679 142.26533 
L 307.003186 142.26533 
L 307.003186 121.023679 
L 293.877679 121.023679 
z
" clip-path="url(#pca3f368d91)" style="fill: #9467bd"/>
   </g>
   <g id="patch_26">
    <path d="M 246.097055 99.782028 
L 310.081542 99.782028 
L 310.081542 78.540377 
L 246.097055 78.540377 
z
" clip-path="url(#pca3f368d91)" style="fill: #9467bd"/>
   </g>
   <g id="patch_27">
    <path d="M 193.277016 57.298726 
L 255.220943 57.298726 
L 255.220943 36.057075 
L 193.277016 36.057075 
z
" clip-path="url(#pca3f368d91)" style="fill: #9467bd"/>
   </g>
   <g id="patch_28">
    <path d="M 394.765837 227.231934 
L 422.215972 227.231934 
L 422.215972 205.990283 
L 394.765837 205.990283 
z
" clip-path="url(#pca3f368d91)" style="fill: #8c564b"/>
   </g>
   <g id="patch_29">
    <path d="M 354.140877 184.748632 
L 394.316343 184.748632 
L 394.316343 163.506981 
L 354.140877 163.506981 
z
" clip-path="url(#pca3f368d91)" style="fill: #8c564b"/>
   </g>
   <g id="patch_30">
    <path d="M 307.003186 142.26533 
L 362.130317 142.26533 
L 362.130317 121.023679 
L 307.003186 121.023679 
z
" clip-path="url(#pca3f368d91)" style="fill: #8c564b"/>
   </g>
   <g id="patch_31">
    <path d="M 310.081542 99.782028 
L 362.432487 99.782028 
L 362.432487 78.540377 
L 310.081542 78.540377 
z
" clip-path="url(#pca3f368d91)" style="fill: #8c564b"/>
   </g>
   <g id="patch_32">
    <path d="M 255.220943 57.298726 
L 304.124042 57.298726 
L 304.124042 36.057075 
L 255.220943 36.057075 
z
" clip-path="url(#pca3f368d91)" style="fill: #8c564b"/>
   </g>
   <g id="patch_33">
    <path d="M 422.215972 227.231934 
L 449.666107 227.231934 
L 449.666107 205.990283 
L 422.215972 205.990283 
z
" clip-path="url(#pca3f368d91)" style="fill: #e377c2"/>
   </g>
   <g id="patch_34">
    <path d="M 394.316343 184.748632 
L 421.936976 184.748632 
L 421.936976 163.506981 
L 394.316343 163.506981 
z
" clip-path="url(#pca3f368d91)" style="fill: #e377c2"/>
   </g>
   <g id="patch_35">
    <path d="M 362.130317 142.26533 
L 388.381331 142.26533 
L 388.381331 121.023679 
L 362.130317 121.023679 
z
" clip-path="url(#pca3f368d91)" style="fill: #e377c2"/>
   </g>
   <g id="patch_36">
    <path d="M 362.432487 99.782028 
L 391.516344 99.782028 
L 391.516344 78.540377 
L 362.432487 78.540377 
z
" clip-path="url(#pca3f368d91)" style="fill: #e377c2"/>
   </g>
   <g id="patch_37">
    <path d="M 304.124042 57.298726 
L 346.506729 57.298726 
L 346.506729 36.057075 
L 304.124042 36.057075 
z
" clip-path="url(#pca3f368d91)" style="fill: #e377c2"/>
   </g>
   <g id="patch_38">
    <path d="M 449.666107 227.231934 
L 462.143441 227.231934 
L 462.143441 205.990283 
L 449.666107 205.990283 
z
" clip-path="url(#pca3f368d91)" style="fill: #7f7f7f"/>
   </g>
   <g id="patch_39">
    <path d="M 421.936976 184.748632 
L 459.601475 184.748632 
L 459.601475 163.506981 
L 421.936976 163.506981 
z
" clip-path="url(#pca3f368d91)" style="fill: #7f7f7f"/>
   </g>
   <g id="patch_40">
    <path d="M 388.381331 142.26533 
L 448.758665 142.26533 
L 448.758665 121.023679 
L 388.381331 121.023679 
z
" clip-path="url(#pca3f368d91)" style="fill: #7f7f7f"/>
   </g>
   <g id="patch_41">
    <path d="M 391.516344 99.782028 
L 438.050517 99.782028 
L 438.050517 78.540377 
L 391.516344 78.540377 
z
" clip-path="url(#pca3f368d91)" style="fill: #7f7f7f"/>
   </g>
   <g id="patch_42">
    <path d="M 346.506729 57.298726 
L 424.751689 57.298726 
L 424.751689 36.057075 
L 346.506729 36.057075 
z
" clip-path="url(#pca3f368d91)" style="fill: #7f7f7f"/>
   </g>
   <g id="patch_43">
    <path d="M 462.143441 227.231934 
L 467.134375 227.231934 
L 467.134375 205.990283 
L 462.143441 205.990283 
z
" clip-path="url(#pca3f368d91)" style="fill: #bcbd22"/>
   </g>
   <g id="patch_44">
    <path d="M 459.601475 184.748632 
L 467.134375 184.748632 
L 467.134375 163.506981 
L 459.601475 163.506981 
z
" clip-path="url(#pca3f368d91)" style="fill: #bcbd22"/>
   </g>
   <g id="patch_45">
    <path d="M 448.758665 142.26533 
L 467.134375 142.26533 
L 467.134375 121.023679 
L 448.758665 121.023679 
z
" clip-path="url(#pca3f368d91)" style="fill: #bcbd22"/>
   </g>
   <g id="patch_46">
    <path d="M 438.050517 99.782028 
L 467.134375 99.782028 
L 467.134375 78.540377 
L 438.050517 78.540377 
z
" clip-path="url(#pca3f368d91)" style="fill: #bcbd22"/>
   </g>
   <g id="patch_47">
    <path d="M 424.751689 57.298726 
L 467.134375 57.298726 
L 467.134375 36.057075 
L 424.751689 36.057075 
z
" clip-path="url(#pca3f368d91)" style="fill: #bcbd22"/>
   </g>
   <g id="matplotlib.axis_1">
    <g id="xtick_1">
     <g id="line2d_1">
      <defs>
       <path id="m4c99cd72f3" d="M 0 0 
L 0 3.5 
" style="stroke: #000000; stroke-width: 0.8"/>
      </defs>
      <g>
       <use xlink:href="#m4c99cd72f3" x="62.86875" y="237.852759" style="stroke: #000000; stroke-width: 0.8"/>
      </g>
     </g>
     <g id="text_1">
      <text style="font: 10px 'sans-serif'; text-anchor: middle" x="62.86875" y="252.026197" transform="rotate(-0, 62.86875, 252.026197)">0</text>
     </g>
    </g>
    <g id="xtick_2">
     <g id="line2d_2">
      <g>
       <use xlink:href="#m4c99cd72f3" x="143.721875" y="237.852759" style="stroke: #000000; stroke-width: 0.8"/>
      </g>
     </g>
     <g id="text_2">
      <text style="font: 10px 'sans-serif'; text-anchor: middle" x="143.721875" y="252.026197" transform="rotate(-0, 143.721875, 252.026197)">20</text>
     </g>
    </g>
    <g id="xtick_3">
     <g id="line2d_3">
      <g>
       <use xlink:href="#m4c99cd72f3" x="224.575" y="237.852759" style="stroke: #000000; stroke-width: 0.8"/>
      </g>
     </g>
     <g id="text_3">
      <text style="font: 10px 'sans-serif'; text-anchor: middle" x="224.575" y="252.026197" transform="rotate(-0, 224.575, 252.026197)">40</text>
     </g>
    </g>
    <g id="xtick_4">
     <g id="line2d_4">
      <g>
       <use xlink:href="#m4c99cd72f3" x="305.428125" y="237.852759" style="stroke: #000000; stroke-width: 0.8"/>
      </g>
     </g>
     <g id="text_4">
      <text style="font: 10px 'sans-serif'; text-anchor: middle" x="305.428125" y="252.026197" transform="rotate(-0, 305.428125, 252.026197)">60</text>
     </g>
    </g>
    <g id="xtick_5">
     <g id="line2d_5">
      <g>
       <use xlink:href="#m4c99cd72f3" x="386.28125" y="237.852759" style="stroke: #000000; stroke-width: 0.8"/>
      </g>
     </g>
     <g id="text_5">
      <text style="font: 10px 'sans-serif'; text-anchor: middle" x="386.28125" y="252.026197" transform="rotate(-0, 386.28125, 252.026197)">80</text>
     </g>
    </g>
    <g id="xtick_6">
     <g id="line2d_6">
      <g>
       <use xlink:href="#m4c99cd72f3" x="467.134375" y="237.852759" style="stroke: #000000; stroke-width: 0.8"/>
      </g>
     </g>
     <g id="text_6">
      <text style="font: 10px 'sans-serif'; text-anchor: middle" x="467.134375" y="252.026197" transform="rotate(-0, 467.134375, 252.026197)">100</text>
     </g>
    </g>
    <g id="text_7">
     <text style="font: 10px 'sans-serif'; text-anchor: middle" x="275.108203" y="265.385572" transform="rotate(-0, 275.108203, 265.385572)">Ranking of importance</text>
    </g>
   </g>
   <g id="matplotlib.axis_2">
    <g id="ytick_1">
     <g id="line2d_7">
      <defs>
       <path id="m8e343aef83" d="M 0 0 
L -3.5 0 
" style="stroke: #000000; stroke-width: 0.8"/>
      </defs>
      <g>
       <use xlink:href="#m8e343aef83" x="62.86875" y="216.611108" style="stroke: #000000; stroke-width: 0.8"/>
      </g>
     </g>
     <g id="text_8">
      <text style="font: 10px 'sans-serif'; text-anchor: end" x="55.86875" y="220.197827" transform="rotate(-0, 55.86875, 220.197827)">Rank 1</text>
     </g>
    </g>
    <g id="ytick_2">
     <g id="line2d_8">
      <g>
       <use xlink:href="#m8e343aef83" x="62.86875" y="174.127807" style="stroke: #000000; stroke-width: 0.8"/>
      </g>
     </g>
     <g id="text_9">
      <text style="font: 10px 'sans-serif'; text-anchor: end" x="55.86875" y="177.714525" transform="rotate(-0, 55.86875, 177.714525)">Rank 2</text>
     </g>
    </g>
    <g id="ytick_3">
     <g id="line2d_9">
      <g>
       <use xlink:href="#m8e343aef83" x="62.86875" y="131.644505" style="stroke: #000000; stroke-width: 0.8"/>
      </g>
     </g>
     <g id="text_10">
      <text style="font: 10px 'sans-serif'; text-anchor: end" x="55.86875" y="135.231223" transform="rotate(-0, 55.86875, 135.231223)">Rank 3</text>
     </g>
    </g>
    <g id="ytick_4">
     <g id="line2d_10">
      <g>
       <use xlink:href="#m8e343aef83" x="62.86875" y="89.161203" style="stroke: #000000; stroke-width: 0.8"/>
      </g>
     </g>
     <g id="text_11">
      <text style="font: 10px 'sans-serif'; text-anchor: end" x="55.86875" y="92.747922" transform="rotate(-0, 55.86875, 92.747922)">Rank 4</text>
     </g>
    </g>
    <g id="ytick_5">
     <g id="line2d_11">
      <g>
       <use xlink:href="#m8e343aef83" x="62.86875" y="46.677901" style="stroke: #000000; stroke-width: 0.8"/>
      </g>
     </g>
     <g id="text_12">
      <text style="font: 10px 'sans-serif'; text-anchor: end" x="55.86875" y="50.26462" transform="rotate(-0, 55.86875, 50.26462)">Rank 5</text>
     </g>
    </g>
    <g id="text_13">
     <text style="font: 10px 'sans-serif'; text-anchor: middle" x="17.973438" y="131.644505" transform="rotate(-90, 17.973438, 131.644505)">Percentage</text>
    </g>
   </g>
   <g id="patch_48">
    <path d="M 62.86875 237.852759 
L 487.347656 237.852759 
" style="fill: none; stroke: #000000; stroke-width: 0.8; stroke-linejoin: miter; stroke-linecap: square"/>
   </g>
   <g id="text_14">
    <text style="font: 10px 'sans-serif'; text-anchor: middle" x="112.778086" y="220.859439" transform="rotate(-0, 112.778086, 220.859439)">25</text>
   </g>
   <g id="text_15">
    <text style="font: 10px 'sans-serif'; text-anchor: middle" x="111.832599" y="178.376137" transform="rotate(-0, 111.832599, 178.376137)">24</text>
   </g>
   <g id="text_16">
    <text style="font: 10px 'sans-serif'; text-anchor: middle" x="90.432315" y="135.892835" transform="rotate(-0, 90.432315, 135.892835)">14</text>
   </g>
   <g id="text_17">
    <text style="font: 10px 'sans-serif'; text-anchor: middle" x="86.135836" y="93.409533" transform="rotate(-0, 86.135836, 93.409533)">12</text>
   </g>
   <g id="text_18">
    <text style="font: 10px 'sans-serif'; text-anchor: middle" x="82.42999" y="50.926231" transform="rotate(-0, 82.42999, 50.926231)">10</text>
   </g>
   <g id="text_19">
    <text style="font: 10px 'sans-serif'; text-anchor: middle" x="205.110359" y="220.859439" transform="rotate(-0, 205.110359, 220.859439)">21</text>
   </g>
   <g id="text_20">
    <text style="font: 10px 'sans-serif'; text-anchor: middle" x="185.906114" y="178.376137" transform="rotate(-0, 185.906114, 178.376137)">12</text>
   </g>
   <g id="text_21">
    <text style="font: 10px 'sans-serif'; text-anchor: middle" x="149.497098" y="135.892835" transform="rotate(-0, 149.497098, 135.892835)">16</text>
   </g>
   <g id="text_22">
    <text style="font: 10px 'sans-serif'; text-anchor: middle" x="125.399045" y="93.409533" transform="rotate(-0, 125.399045, 93.409533)">8</text>
   </g>
   <g id="text_23">
    <text style="font: 10px 'sans-serif'; text-anchor: middle" x="116.66216" y="50.926231" transform="rotate(-0, 116.66216, 50.926231)">7</text>
   </g>
   <g id="text_24">
    <text style="font: 10px 'sans-serif'; text-anchor: middle" x="279.974363" y="220.859439" transform="rotate(-0, 279.974363, 220.859439)">16</text>
   </g>
   <g id="text_25">
    <text style="font: 10px 'sans-serif'; text-anchor: middle" x="242.402863" y="178.376137" transform="rotate(-0, 242.402863, 178.376137)">16</text>
   </g>
   <g id="text_26">
    <text style="font: 10px 'sans-serif'; text-anchor: middle" x="212.499533" y="135.892835" transform="rotate(-0, 212.499533, 135.892835)">16</text>
   </g>
   <g id="text_27">
    <text style="font: 10px 'sans-serif'; text-anchor: middle" x="167.570638" y="93.409533" transform="rotate(-0, 167.570638, 93.409533)">13</text>
   </g>
   <g id="text_28">
    <text style="font: 10px 'sans-serif'; text-anchor: middle" x="147.634123" y="50.926231" transform="rotate(-0, 147.634123, 50.926231)">8</text>
   </g>
   <g id="text_29">
    <text style="font: 10px 'sans-serif'; text-anchor: middle" x="338.617834" y="220.859439" transform="rotate(-0, 338.617834, 220.859439)">13</text>
   </g>
   <g id="text_30">
    <text style="font: 10px 'sans-serif'; text-anchor: middle" x="297.644128" y="178.376137" transform="rotate(-0, 297.644128, 178.376137)">12</text>
   </g>
   <g id="text_31">
    <text style="font: 10px 'sans-serif'; text-anchor: middle" x="268.939215" y="135.892835" transform="rotate(-0, 268.939215, 135.892835)">12</text>
   </g>
   <g id="text_32">
    <text style="font: 10px 'sans-serif'; text-anchor: middle" x="219.921583" y="93.409533" transform="rotate(-0, 219.921583, 93.409533)">13</text>
   </g>
   <g id="text_33">
    <text style="font: 10px 'sans-serif'; text-anchor: middle" x="178.606086" y="50.926231" transform="rotate(-0, 178.606086, 50.926231)">7</text>
   </g>
   <g id="text_34">
    <text style="font: 10px 'sans-serif'; text-anchor: middle" x="379.793036" y="220.859439" transform="rotate(-0, 379.793036, 220.859439)">7</text>
   </g>
   <g id="text_35">
    <text style="font: 10px 'sans-serif'; text-anchor: middle" x="337.819594" y="178.376137" transform="rotate(-0, 337.819594, 178.376137)">8</text>
   </g>
   <g id="text_36">
    <text style="font: 10px 'sans-serif'; text-anchor: middle" x="278.089299" y="93.409533" transform="rotate(-0, 278.089299, 93.409533)">16</text>
   </g>
   <g id="text_37">
    <text style="font: 10px 'sans-serif'; text-anchor: middle" x="224.248979" y="50.926231" transform="rotate(-0, 224.248979, 50.926231)">15</text>
   </g>
   <g id="text_38">
    <text style="font: 10px 'sans-serif'; text-anchor: middle" x="408.490905" y="220.859439" transform="rotate(-0, 408.490905, 220.859439)">7</text>
   </g>
   <g id="text_39">
    <text style="font: 10px 'sans-serif'; text-anchor: middle" x="374.22861" y="178.376137" transform="rotate(-0, 374.22861, 178.376137)">10</text>
   </g>
   <g id="text_40">
    <text style="font: 10px 'sans-serif'; text-anchor: middle" x="334.566751" y="135.892835" transform="rotate(-0, 334.566751, 135.892835)">14</text>
   </g>
   <g id="text_41">
    <text style="font: 10px 'sans-serif'; text-anchor: middle" x="336.257014" y="93.409533" transform="rotate(-0, 336.257014, 93.409533)">13</text>
   </g>
   <g id="text_42">
    <text style="font: 10px 'sans-serif'; text-anchor: middle" x="279.672492" y="50.926231" transform="rotate(-0, 279.672492, 50.926231)">12</text>
   </g>
   <g id="text_43">
    <text style="font: 10px 'sans-serif'; text-anchor: middle" x="435.94104" y="220.859439" transform="rotate(-0, 435.94104, 220.859439)">7</text>
   </g>
   <g id="text_44">
    <text style="font: 10px 'sans-serif'; text-anchor: middle" x="408.12666" y="178.376137" transform="rotate(-0, 408.12666, 178.376137)">7</text>
   </g>
   <g id="text_45">
    <text style="font: 10px 'sans-serif'; text-anchor: middle" x="375.255824" y="135.892835" transform="rotate(-0, 375.255824, 135.892835)">6</text>
   </g>
   <g id="text_46">
    <text style="font: 10px 'sans-serif'; text-anchor: middle" x="376.974415" y="93.409533" transform="rotate(-0, 376.974415, 93.409533)">7</text>
   </g>
   <g id="text_47">
    <text style="font: 10px 'sans-serif'; text-anchor: middle" x="325.315386" y="50.926231" transform="rotate(-0, 325.315386, 50.926231)">10</text>
   </g>
   <g id="text_48">
    <text style="font: 10px 'sans-serif'; text-anchor: middle" x="440.769226" y="178.376137" transform="rotate(-0, 440.769226, 178.376137)">9</text>
   </g>
   <g id="text_49">
    <text style="font: 10px 'sans-serif'; text-anchor: middle" x="418.569998" y="135.892835" transform="rotate(-0, 418.569998, 135.892835)">15</text>
   </g>
   <g id="text_50">
    <text style="font: 10px 'sans-serif'; text-anchor: middle" x="414.783431" y="93.409533" transform="rotate(-0, 414.783431, 93.409533)">12</text>
   </g>
   <g id="text_51">
    <text style="font: 10px 'sans-serif'; text-anchor: middle" x="385.629209" y="50.926231" transform="rotate(-0, 385.629209, 50.926231)">19</text>
   </g>
   <g id="text_52">
    <text style="font: 10px 'sans-serif'; text-anchor: middle" x="457.94652" y="135.892835" transform="rotate(-0, 457.94652, 135.892835)">5</text>
   </g>
   <g id="text_53">
    <text style="font: 10px 'sans-serif'; text-anchor: middle" x="452.592446" y="93.409533" transform="rotate(-0, 452.592446, 93.409533)">7</text>
   </g>
   <g id="text_54">
    <text style="font: 10px 'sans-serif'; text-anchor: middle" x="445.943032" y="50.926231" transform="rotate(-0, 445.943032, 50.926231)">10</text>
   </g>
   <g id="text_55">
    <text style="font: 12px 'sans-serif'; text-anchor: middle" x="275.108203" y="19.43625" transform="rotate(-0, 275.108203, 19.43625)">Reasons to choose current job: United Kingdom</text>
   </g>
   <g id="legend_1">
    <g id="patch_49">
     <path d="M 61.424609 349.562111 
L 488.791797 349.562111 
Q 490.791797 349.562111 490.791797 347.562111 
L 490.791797 276.715236 
Q 490.791797 274.715236 488.791797 274.715236 
L 61.424609 274.715236 
Q 59.424609 274.715236 59.424609 276.715236 
L 59.424609 347.562111 
Q 59.424609 349.562111 61.424609 349.562111 
z
" style="fill: #ffffff; opacity: 0.8; stroke: #cccccc; stroke-linejoin: miter"/>
    </g>
    <g id="patch_50">
     <path d="M 63.424609 285.888673 
L 83.424609 285.888673 
L 83.424609 278.888673 
L 63.424609 278.888673 
z
" style="fill: #1f77b4"/>
    </g>
    <g id="text_56">
     <text style="font: 10px 'sans-serif'; text-anchor: start" x="91.424609" y="285.888673" transform="rotate(-0, 91.424609, 285.888673)">Desire to work in a research environment</text>
    </g>
    <g id="patch_51">
     <path d="M 63.424609 300.341798 
L 83.424609 300.341798 
L 83.424609 293.341798 
L 63.424609 293.341798 
z
" style="fill: #ff7f0e"/>
    </g>
    <g id="text_57">
     <text style="font: 10px 'sans-serif'; text-anchor: start" x="91.424609" y="300.341798" transform="rotate(-0, 91.424609, 300.341798)">Opportunity to develop software</text>
    </g>
    <g id="patch_52">
     <path d="M 63.424609 314.658986 
L 83.424609 314.658986 
L 83.424609 307.658986 
L 63.424609 307.658986 
z
" style="fill: #2ca02c"/>
    </g>
    <g id="text_58">
     <text style="font: 10px 'sans-serif'; text-anchor: start" x="91.424609" y="314.658986" transform="rotate(-0, 91.424609, 314.658986)">Desire to advance research</text>
    </g>
    <g id="patch_53">
     <path d="M 63.424609 328.940236 
L 83.424609 328.940236 
L 83.424609 321.940236 
L 63.424609 321.940236 
z
" style="fill: #d62728"/>
    </g>
    <g id="text_59">
     <text style="font: 10px 'sans-serif'; text-anchor: start" x="91.424609" y="328.940236" transform="rotate(-0, 91.424609, 328.940236)">Freedom to choose own working practices</text>
    </g>
    <g id="patch_54">
     <path d="M 63.424609 343.349611 
L 83.424609 343.349611 
L 83.424609 336.349611 
L 63.424609 336.349611 
z
" style="fill: #9467bd"/>
    </g>
    <g id="text_60">
     <text style="font: 10px 'sans-serif'; text-anchor: start" x="91.424609" y="343.349611" transform="rotate(-0, 91.424609, 343.349611)">Flexible working hours</text>
    </g>
    <g id="patch_55">
     <path d="M 298.721484 285.888673 
L 318.721484 285.888673 
L 318.721484 278.888673 
L 298.721484 278.888673 
z
" style="fill: #8c564b"/>
    </g>
    <g id="text_61">
     <text style="font: 10px 'sans-serif'; text-anchor: start" x="326.721484" y="285.888673" transform="rotate(-0, 326.721484, 285.888673)">I want to learn new skills</text>
    </g>
    <g id="patch_56">
     <path d="M 298.721484 300.341798 
L 318.721484 300.341798 
L 318.721484 293.341798 
L 298.721484 293.341798 
z
" style="fill: #e377c2"/>
    </g>
    <g id="text_62">
     <text style="font: 10px 'sans-serif'; text-anchor: start" x="326.721484" y="300.341798" transform="rotate(-0, 326.721484, 300.341798)">Opportunity for career advancement</text>
    </g>
    <g id="patch_57">
     <path d="M 298.721484 314.682423 
L 318.721484 314.682423 
L 318.721484 307.682423 
L 298.721484 307.682423 
z
" style="fill: #7f7f7f"/>
    </g>
    <g id="text_63">
     <text style="font: 10px 'sans-serif'; text-anchor: start" x="326.721484" y="314.682423" transform="rotate(-0, 326.721484, 314.682423)">Ability to work across disciplines</text>
    </g>
    <g id="patch_58">
     <path d="M 298.721484 329.023048 
L 318.721484 329.023048 
L 318.721484 322.023048 
L 298.721484 322.023048 
z
" style="fill: #bcbd22"/>
    </g>
    <g id="text_64">
     <text style="font: 10px 'sans-serif'; text-anchor: start" x="326.721484" y="329.023048" transform="rotate(-0, 326.721484, 329.023048)">The salary</text>
    </g>
   </g>
  </g>
 </g>
 <defs>
  <clipPath id="pca3f368d91">
   <rect x="62.86875" y="25.43625" width="424.478906" height="212.416509"/>
  </clipPath>
 </defs>
</svg>
