<?xml version="1.0" encoding="utf-8" standalone="no"?>
<!DOCTYPE svg PUBLIC "-//W3C//DTD SVG 1.1//EN"
  "http://www.w3.org/Graphics/SVG/1.1/DTD/svg11.dtd">
<svg height="360pt" version="1.1" viewBox="0 0 504 360" width="504pt" xmlns="http://www.w3.org/2000/svg" xmlns:xlink="http://www.w3.org/1999/xlink">
 <metadata>
  <rdf:RDF xmlns:cc="http://creativecommons.org/ns#" xmlns:dc="http://purl.org/dc/elements/1.1/" xmlns:rdf="http://www.w3.org/1999/02/22-rdf-syntax-ns#">
   <cc:Work>
    <dc:type rdf:resource="http://purl.org/dc/dcmitype/StillImage"/>
    <dc:date>2021-08-04T21:05:19.175210</dc:date>
    <dc:format>image/svg+xml</dc:format>
    <dc:creator>
     <cc:Agent>
      <dc:title>Matplotlib v3.4.2, https://matplotlib.org/</dc:title>
     </cc:Agent>
    </dc:creator>
   </cc:Work>
  </rdf:RDF>
 </metadata>
 <defs>
  <style type="text/css">*{stroke-linecap:butt;stroke-linejoin:round;}</style>
 </defs>
 <g id="figure_1">
  <g id="patch_1">
   <path d="M 0 360 
L 504 360 
L 504 0 
L 0 0 
z
" style="fill:#ffffff;"/>
  </g>
  <g id="axes_1">
   <g id="patch_2">
    <path d="M 62.745313 238.526037 
L 487.025156 238.526037 
L 487.025156 25.389375 
L 62.745313 25.389375 
z
" style="fill:#ffffff;"/>
   </g>
   <g id="patch_3">
    <path clip-path="url(#pd7fc2d7990)" d="M 62.745313 227.869204 
L 178.19561 227.869204 
L 178.19561 206.555538 
L 62.745313 206.555538 
z
" style="fill:#1f77b4;"/>
   </g>
   <g id="patch_4">
    <path clip-path="url(#pd7fc2d7990)" d="M 62.745313 185.241872 
L 124.593686 185.241872 
L 124.593686 163.928206 
L 62.745313 163.928206 
z
" style="fill:#1f77b4;"/>
   </g>
   <g id="patch_5">
    <path clip-path="url(#pd7fc2d7990)" d="M 62.745313 142.614539 
L 112.734101 142.614539 
L 112.734101 121.300873 
L 62.745313 121.300873 
z
" style="fill:#1f77b4;"/>
   </g>
   <g id="patch_6">
    <path clip-path="url(#pd7fc2d7990)" d="M 62.745313 99.987207 
L 104.402636 99.987207 
L 104.402636 78.673541 
L 62.745313 78.673541 
z
" style="fill:#1f77b4;"/>
   </g>
   <g id="patch_7">
    <path clip-path="url(#pd7fc2d7990)" d="M 62.745313 57.359874 
L 100.236904 57.359874 
L 100.236904 36.046208 
L 62.745313 36.046208 
z
" style="fill:#1f77b4;"/>
   </g>
   <g id="patch_8">
    <path clip-path="url(#pd7fc2d7990)" d="M 178.19561 227.869204 
L 248.290434 227.869204 
L 248.290434 206.555538 
L 178.19561 206.555538 
z
" style="fill:#ff7f0e;"/>
   </g>
   <g id="patch_9">
    <path clip-path="url(#pd7fc2d7990)" d="M 124.593686 185.241872 
L 169.94916 185.241872 
L 169.94916 163.928206 
L 124.593686 163.928206 
z
" style="fill:#ff7f0e;"/>
   </g>
   <g id="patch_10">
    <path clip-path="url(#pd7fc2d7990)" d="M 112.734101 142.614539 
L 150.225693 142.614539 
L 150.225693 121.300873 
L 112.734101 121.300873 
z
" style="fill:#ff7f0e;"/>
   </g>
   <g id="patch_11">
    <path clip-path="url(#pd7fc2d7990)" d="M 104.402636 99.987207 
L 158.557157 99.987207 
L 158.557157 78.673541 
L 104.402636 78.673541 
z
" style="fill:#ff7f0e;"/>
   </g>
   <g id="patch_12">
    <path clip-path="url(#pd7fc2d7990)" d="M 100.236904 57.359874 
L 133.562763 57.359874 
L 133.562763 36.046208 
L 100.236904 36.046208 
z
" style="fill:#ff7f0e;"/>
   </g>
   <g id="patch_13">
    <path clip-path="url(#pd7fc2d7990)" d="M 248.290434 227.869204 
L 310.138807 227.869204 
L 310.138807 206.555538 
L 248.290434 206.555538 
z
" style="fill:#2ca02c;"/>
   </g>
   <g id="patch_14">
    <path clip-path="url(#pd7fc2d7990)" d="M 169.94916 185.241872 
L 227.674309 185.241872 
L 227.674309 163.928206 
L 169.94916 163.928206 
z
" style="fill:#2ca02c;"/>
   </g>
   <g id="patch_15">
    <path clip-path="url(#pd7fc2d7990)" d="M 150.225693 142.614539 
L 216.877411 142.614539 
L 216.877411 121.300873 
L 150.225693 121.300873 
z
" style="fill:#2ca02c;"/>
   </g>
   <g id="patch_16">
    <path clip-path="url(#pd7fc2d7990)" d="M 158.557157 99.987207 
L 208.545946 99.987207 
L 208.545946 78.673541 
L 158.557157 78.673541 
z
" style="fill:#2ca02c;"/>
   </g>
   <g id="patch_17">
    <path clip-path="url(#pd7fc2d7990)" d="M 133.562763 57.359874 
L 175.220087 57.359874 
L 175.220087 36.046208 
L 133.562763 36.046208 
z
" style="fill:#2ca02c;"/>
   </g>
   <g id="patch_18">
    <path clip-path="url(#pd7fc2d7990)" d="M 310.138807 227.869204 
L 359.617506 227.869204 
L 359.617506 206.555538 
L 310.138807 206.555538 
z
" style="fill:#d62728;"/>
   </g>
   <g id="patch_19">
    <path clip-path="url(#pd7fc2d7990)" d="M 227.674309 185.241872 
L 273.029783 185.241872 
L 273.029783 163.928206 
L 227.674309 163.928206 
z
" style="fill:#d62728;"/>
   </g>
   <g id="patch_20">
    <path clip-path="url(#pd7fc2d7990)" d="M 216.877411 142.614539 
L 266.8662 142.614539 
L 266.8662 121.300873 
L 216.877411 121.300873 
z
" style="fill:#d62728;"/>
   </g>
   <g id="patch_21">
    <path clip-path="url(#pd7fc2d7990)" d="M 208.545946 99.987207 
L 250.20327 99.987207 
L 250.20327 78.673541 
L 208.545946 78.673541 
z
" style="fill:#d62728;"/>
   </g>
   <g id="patch_22">
    <path clip-path="url(#pd7fc2d7990)" d="M 175.220087 57.359874 
L 221.043143 57.359874 
L 221.043143 36.046208 
L 175.220087 36.046208 
z
" style="fill:#d62728;"/>
   </g>
   <g id="patch_23">
    <path clip-path="url(#pd7fc2d7990)" d="M 359.617506 227.869204 
L 388.480081 227.869204 
L 388.480081 206.555538 
L 359.617506 206.555538 
z
" style="fill:#9467bd;"/>
   </g>
   <g id="patch_24">
    <path clip-path="url(#pd7fc2d7990)" d="M 273.029783 185.241872 
L 318.385257 185.241872 
L 318.385257 163.928206 
L 273.029783 163.928206 
z
" style="fill:#9467bd;"/>
   </g>
   <g id="patch_25">
    <path clip-path="url(#pd7fc2d7990)" d="M 266.8662 142.614539 
L 300.192059 142.614539 
L 300.192059 121.300873 
L 266.8662 121.300873 
z
" style="fill:#9467bd;"/>
   </g>
   <g id="patch_26">
    <path clip-path="url(#pd7fc2d7990)" d="M 250.20327 99.987207 
L 279.363397 99.987207 
L 279.363397 78.673541 
L 250.20327 78.673541 
z
" style="fill:#9467bd;"/>
   </g>
   <g id="patch_27">
    <path clip-path="url(#pd7fc2d7990)" d="M 221.043143 57.359874 
L 262.700467 57.359874 
L 262.700467 36.046208 
L 221.043143 36.046208 
z
" style="fill:#9467bd;"/>
   </g>
   <g id="patch_28">
    <path clip-path="url(#pd7fc2d7990)" d="M 388.480081 227.869204 
L 417.342655 227.869204 
L 417.342655 206.555538 
L 388.480081 206.555538 
z
" style="fill:#8c564b;"/>
   </g>
   <g id="patch_29">
    <path clip-path="url(#pd7fc2d7990)" d="M 318.385257 185.241872 
L 371.987181 185.241872 
L 371.987181 163.928206 
L 318.385257 163.928206 
z
" style="fill:#8c564b;"/>
   </g>
   <g id="patch_30">
    <path clip-path="url(#pd7fc2d7990)" d="M 300.192059 142.614539 
L 337.68365 142.614539 
L 337.68365 121.300873 
L 300.192059 121.300873 
z
" style="fill:#8c564b;"/>
   </g>
   <g id="patch_31">
    <path clip-path="url(#pd7fc2d7990)" d="M 279.363397 99.987207 
L 333.517918 99.987207 
L 333.517918 78.673541 
L 279.363397 78.673541 
z
" style="fill:#8c564b;"/>
   </g>
   <g id="patch_32">
    <path clip-path="url(#pd7fc2d7990)" d="M 262.700467 57.359874 
L 321.020721 57.359874 
L 321.020721 36.046208 
L 262.700467 36.046208 
z
" style="fill:#8c564b;"/>
   </g>
   <g id="patch_33">
    <path clip-path="url(#pd7fc2d7990)" d="M 417.342655 227.869204 
L 442.082005 227.869204 
L 442.082005 206.555538 
L 417.342655 206.555538 
z
" style="fill:#e377c2;"/>
   </g>
   <g id="patch_34">
    <path clip-path="url(#pd7fc2d7990)" d="M 371.987181 185.241872 
L 396.726531 185.241872 
L 396.726531 163.928206 
L 371.987181 163.928206 
z
" style="fill:#e377c2;"/>
   </g>
   <g id="patch_35">
    <path clip-path="url(#pd7fc2d7990)" d="M 337.68365 142.614539 
L 379.340974 142.614539 
L 379.340974 121.300873 
L 337.68365 121.300873 
z
" style="fill:#e377c2;"/>
   </g>
   <g id="patch_36">
    <path clip-path="url(#pd7fc2d7990)" d="M 333.517918 99.987207 
L 371.009509 99.987207 
L 371.009509 78.673541 
L 333.517918 78.673541 
z
" style="fill:#e377c2;"/>
   </g>
   <g id="patch_37">
    <path clip-path="url(#pd7fc2d7990)" d="M 321.020721 57.359874 
L 375.175242 57.359874 
L 375.175242 36.046208 
L 321.020721 36.046208 
z
" style="fill:#e377c2;"/>
   </g>
   <g id="patch_38">
    <path clip-path="url(#pd7fc2d7990)" d="M 442.082005 227.869204 
L 462.698129 227.869204 
L 462.698129 206.555538 
L 442.082005 206.555538 
z
" style="fill:#7f7f7f;"/>
   </g>
   <g id="patch_39">
    <path clip-path="url(#pd7fc2d7990)" d="M 396.726531 185.241872 
L 446.20523 185.241872 
L 446.20523 163.928206 
L 396.726531 163.928206 
z
" style="fill:#7f7f7f;"/>
   </g>
   <g id="patch_40">
    <path clip-path="url(#pd7fc2d7990)" d="M 379.340974 142.614539 
L 420.998298 142.614539 
L 420.998298 121.300873 
L 379.340974 121.300873 
z
" style="fill:#7f7f7f;"/>
   </g>
   <g id="patch_41">
    <path clip-path="url(#pd7fc2d7990)" d="M 371.009509 99.987207 
L 416.832566 99.987207 
L 416.832566 78.673541 
L 371.009509 78.673541 
z
" style="fill:#7f7f7f;"/>
   </g>
   <g id="patch_42">
    <path clip-path="url(#pd7fc2d7990)" d="M 375.175242 57.359874 
L 429.329763 57.359874 
L 429.329763 36.046208 
L 375.175242 36.046208 
z
" style="fill:#7f7f7f;"/>
   </g>
   <g id="patch_43">
    <path clip-path="url(#pd7fc2d7990)" d="M 462.698129 227.869204 
L 466.821354 227.869204 
L 466.821354 206.555538 
L 462.698129 206.555538 
z
" style="fill:#bcbd22;"/>
   </g>
   <g id="patch_44">
    <path clip-path="url(#pd7fc2d7990)" d="M 446.20523 185.241872 
L 466.821354 185.241872 
L 466.821354 163.928206 
L 446.20523 163.928206 
z
" style="fill:#bcbd22;"/>
   </g>
   <g id="patch_45">
    <path clip-path="url(#pd7fc2d7990)" d="M 420.998298 142.614539 
L 466.821354 142.614539 
L 466.821354 121.300873 
L 420.998298 121.300873 
z
" style="fill:#bcbd22;"/>
   </g>
   <g id="patch_46">
    <path clip-path="url(#pd7fc2d7990)" d="M 416.832566 99.987207 
L 466.821354 99.987207 
L 466.821354 78.673541 
L 416.832566 78.673541 
z
" style="fill:#bcbd22;"/>
   </g>
   <g id="patch_47">
    <path clip-path="url(#pd7fc2d7990)" d="M 429.329763 57.359874 
L 466.821354 57.359874 
L 466.821354 36.046208 
L 429.329763 36.046208 
z
" style="fill:#bcbd22;"/>
   </g>
   <g id="matplotlib.axis_1">
    <g id="xtick_1">
     <g id="line2d_1">
      <defs>
       <path d="M 0 0 
L 0 3.5 
" id="mc3a356a46d" style="stroke:#000000;stroke-width:0.8;"/>
      </defs>
      <g>
       <use style="stroke:#000000;stroke-width:0.8;" x="62.745313" xlink:href="#mc3a356a46d" y="238.526037"/>
      </g>
     </g>
     <g id="text_1">
      <text style="font-family:Arial;font-size:10px;font-stretch:normal;font-style:normal;font-weight:normal;text-anchor:middle;" transform="rotate(-0, 62.745313, 252.68385)" x="62.745313" y="252.68385">0</text>
     </g>
    </g>
    <g id="xtick_2">
     <g id="line2d_2">
      <g>
       <use style="stroke:#000000;stroke-width:0.8;" x="143.560521" xlink:href="#mc3a356a46d" y="238.526037"/>
      </g>
     </g>
     <g id="text_2">
      <text style="font-family:Arial;font-size:10px;font-stretch:normal;font-style:normal;font-weight:normal;text-anchor:middle;" transform="rotate(-0, 143.560521, 252.68385)" x="143.560521" y="252.68385">20</text>
     </g>
    </g>
    <g id="xtick_3">
     <g id="line2d_3">
      <g>
       <use style="stroke:#000000;stroke-width:0.8;" x="224.375729" xlink:href="#mc3a356a46d" y="238.526037"/>
      </g>
     </g>
     <g id="text_3">
      <text style="font-family:Arial;font-size:10px;font-stretch:normal;font-style:normal;font-weight:normal;text-anchor:middle;" transform="rotate(-0, 224.375729, 252.68385)" x="224.375729" y="252.68385">40</text>
     </g>
    </g>
    <g id="xtick_4">
     <g id="line2d_4">
      <g>
       <use style="stroke:#000000;stroke-width:0.8;" x="305.190937" xlink:href="#mc3a356a46d" y="238.526037"/>
      </g>
     </g>
     <g id="text_4">
      <text style="font-family:Arial;font-size:10px;font-stretch:normal;font-style:normal;font-weight:normal;text-anchor:middle;" transform="rotate(-0, 305.190937, 252.68385)" x="305.190937" y="252.68385">60</text>
     </g>
    </g>
    <g id="xtick_5">
     <g id="line2d_5">
      <g>
       <use style="stroke:#000000;stroke-width:0.8;" x="386.006146" xlink:href="#mc3a356a46d" y="238.526037"/>
      </g>
     </g>
     <g id="text_5">
      <text style="font-family:Arial;font-size:10px;font-stretch:normal;font-style:normal;font-weight:normal;text-anchor:middle;" transform="rotate(-0, 386.006146, 252.68385)" x="386.006146" y="252.68385">80</text>
     </g>
    </g>
    <g id="xtick_6">
     <g id="line2d_6">
      <g>
       <use style="stroke:#000000;stroke-width:0.8;" x="466.821354" xlink:href="#mc3a356a46d" y="238.526037"/>
      </g>
     </g>
     <g id="text_6">
      <text style="font-family:Arial;font-size:10px;font-stretch:normal;font-style:normal;font-weight:normal;text-anchor:middle;" transform="rotate(-0, 466.821354, 252.68385)" x="466.821354" y="252.68385">100</text>
     </g>
    </g>
    <g id="text_7">
     <text style="font-family:Arial;font-size:10px;font-stretch:normal;font-style:normal;font-weight:normal;text-anchor:middle;" transform="rotate(-0, 274.885234, 265.951037)" x="274.885234" y="265.951037">Ranking of importance</text>
    </g>
   </g>
   <g id="matplotlib.axis_2">
    <g id="ytick_1">
     <g id="line2d_7">
      <defs>
       <path d="M 0 0 
L -3.5 0 
" id="m82278324de" style="stroke:#000000;stroke-width:0.8;"/>
      </defs>
      <g>
       <use style="stroke:#000000;stroke-width:0.8;" x="62.745313" xlink:href="#m82278324de" y="217.212371"/>
      </g>
     </g>
     <g id="text_8">
      <text style="font-family:Arial;font-size:10px;font-stretch:normal;font-style:normal;font-weight:normal;text-anchor:end;" transform="rotate(-0, 55.745313, 220.791277)" x="55.745313" y="220.791277">Rank 1</text>
     </g>
    </g>
    <g id="ytick_2">
     <g id="line2d_8">
      <g>
       <use style="stroke:#000000;stroke-width:0.8;" x="62.745313" xlink:href="#m82278324de" y="174.585039"/>
      </g>
     </g>
     <g id="text_9">
      <text style="font-family:Arial;font-size:10px;font-stretch:normal;font-style:normal;font-weight:normal;text-anchor:end;" transform="rotate(-0, 55.745313, 178.163945)" x="55.745313" y="178.163945">Rank 2</text>
     </g>
    </g>
    <g id="ytick_3">
     <g id="line2d_9">
      <g>
       <use style="stroke:#000000;stroke-width:0.8;" x="62.745313" xlink:href="#m82278324de" y="131.957706"/>
      </g>
     </g>
     <g id="text_10">
      <text style="font-family:Arial;font-size:10px;font-stretch:normal;font-style:normal;font-weight:normal;text-anchor:end;" transform="rotate(-0, 55.745313, 135.536612)" x="55.745313" y="135.536612">Rank 3</text>
     </g>
    </g>
    <g id="ytick_4">
     <g id="line2d_10">
      <g>
       <use style="stroke:#000000;stroke-width:0.8;" x="62.745313" xlink:href="#m82278324de" y="89.330374"/>
      </g>
     </g>
     <g id="text_11">
      <text style="font-family:Arial;font-size:10px;font-stretch:normal;font-style:normal;font-weight:normal;text-anchor:end;" transform="rotate(-0, 55.745313, 92.90928)" x="55.745313" y="92.90928">Rank 4</text>
     </g>
    </g>
    <g id="ytick_5">
     <g id="line2d_11">
      <g>
       <use style="stroke:#000000;stroke-width:0.8;" x="62.745313" xlink:href="#m82278324de" y="46.703041"/>
      </g>
     </g>
     <g id="text_12">
      <text style="font-family:Arial;font-size:10px;font-stretch:normal;font-style:normal;font-weight:normal;text-anchor:end;" transform="rotate(-0, 55.745313, 50.281948)" x="55.745313" y="50.281948">Rank 5</text>
     </g>
    </g>
    <g id="text_13">
     <text style="font-family:Arial;font-size:10px;font-stretch:normal;font-style:normal;font-weight:normal;text-anchor:middle;" transform="rotate(-90, 17.957813, 131.957706)" x="17.957813" y="131.957706">Percentage</text>
    </g>
   </g>
   <g id="patch_48">
    <path d="M 62.745313 238.526037 
L 487.025156 238.526037 
" style="fill:none;stroke:#000000;stroke-linecap:square;stroke-linejoin:miter;stroke-width:0.8;"/>
   </g>
   <g id="text_14">
    <text style="font-family:Arial;font-size:10px;font-stretch:normal;font-style:normal;font-weight:normal;text-anchor:middle;" transform="rotate(-0, 120.470461, 221.475104)" x="120.470461" y="221.475104">29</text>
   </g>
   <g id="text_15">
    <text style="font-family:Arial;font-size:10px;font-stretch:normal;font-style:normal;font-weight:normal;text-anchor:middle;" transform="rotate(-0, 93.669499, 178.847772)" x="93.669499" y="178.847772">15</text>
   </g>
   <g id="text_16">
    <text style="font-family:Arial;font-size:10px;font-stretch:normal;font-style:normal;font-weight:normal;text-anchor:middle;" transform="rotate(-0, 87.739707, 136.220439)" x="87.739707" y="136.220439">12</text>
   </g>
   <g id="text_17">
    <text style="font-family:Arial;font-size:10px;font-stretch:normal;font-style:normal;font-weight:normal;text-anchor:middle;" transform="rotate(-0, 83.573974, 93.593107)" x="83.573974" y="93.593107">10</text>
   </g>
   <g id="text_18">
    <text style="font-family:Arial;font-size:10px;font-stretch:normal;font-style:normal;font-weight:normal;text-anchor:middle;" transform="rotate(-0, 81.491108, 50.965775)" x="81.491108" y="50.965775">9</text>
   </g>
   <g id="text_19">
    <text style="font-family:Arial;font-size:10px;font-stretch:normal;font-style:normal;font-weight:normal;text-anchor:middle;" transform="rotate(-0, 213.243022, 221.475104)" x="213.243022" y="221.475104">17</text>
   </g>
   <g id="text_20">
    <text style="font-family:Arial;font-size:10px;font-stretch:normal;font-style:normal;font-weight:normal;text-anchor:middle;" transform="rotate(-0, 147.271423, 178.847772)" x="147.271423" y="178.847772">11</text>
   </g>
   <g id="text_21">
    <text style="font-family:Arial;font-size:10px;font-stretch:normal;font-style:normal;font-weight:normal;text-anchor:middle;" transform="rotate(-0, 131.479897, 136.220439)" x="131.479897" y="136.220439">9</text>
   </g>
   <g id="text_22">
    <text style="font-family:Arial;font-size:10px;font-stretch:normal;font-style:normal;font-weight:normal;text-anchor:middle;" transform="rotate(-0, 131.479897, 93.593107)" x="131.479897" y="93.593107">13</text>
   </g>
   <g id="text_23">
    <text style="font-family:Arial;font-size:10px;font-stretch:normal;font-style:normal;font-weight:normal;text-anchor:middle;" transform="rotate(-0, 116.899834, 50.965775)" x="116.899834" y="50.965775">8</text>
   </g>
   <g id="text_24">
    <text style="font-family:Arial;font-size:10px;font-stretch:normal;font-style:normal;font-weight:normal;text-anchor:middle;" transform="rotate(-0, 279.214621, 221.475104)" x="279.214621" y="221.475104">15</text>
   </g>
   <g id="text_25">
    <text style="font-family:Arial;font-size:10px;font-stretch:normal;font-style:normal;font-weight:normal;text-anchor:middle;" transform="rotate(-0, 198.811735, 178.847772)" x="198.811735" y="178.847772">14</text>
   </g>
   <g id="text_26">
    <text style="font-family:Arial;font-size:10px;font-stretch:normal;font-style:normal;font-weight:normal;text-anchor:middle;" transform="rotate(-0, 183.551552, 136.220439)" x="183.551552" y="136.220439">16</text>
   </g>
   <g id="text_27">
    <text style="font-family:Arial;font-size:10px;font-stretch:normal;font-style:normal;font-weight:normal;text-anchor:middle;" transform="rotate(-0, 183.551552, 93.593107)" x="183.551552" y="93.593107">12</text>
   </g>
   <g id="text_28">
    <text style="font-family:Arial;font-size:10px;font-stretch:normal;font-style:normal;font-weight:normal;text-anchor:middle;" transform="rotate(-0, 154.391425, 50.965775)" x="154.391425" y="50.965775">10</text>
   </g>
   <g id="text_29">
    <text style="font-family:Arial;font-size:10px;font-stretch:normal;font-style:normal;font-weight:normal;text-anchor:middle;" transform="rotate(-0, 334.878157, 221.475104)" x="334.878157" y="221.475104">12</text>
   </g>
   <g id="text_30">
    <text style="font-family:Arial;font-size:10px;font-stretch:normal;font-style:normal;font-weight:normal;text-anchor:middle;" transform="rotate(-0, 250.352046, 178.847772)" x="250.352046" y="178.847772">11</text>
   </g>
   <g id="text_31">
    <text style="font-family:Arial;font-size:10px;font-stretch:normal;font-style:normal;font-weight:normal;text-anchor:middle;" transform="rotate(-0, 241.871805, 136.220439)" x="241.871805" y="136.220439">12</text>
   </g>
   <g id="text_32">
    <text style="font-family:Arial;font-size:10px;font-stretch:normal;font-style:normal;font-weight:normal;text-anchor:middle;" transform="rotate(-0, 229.374608, 93.593107)" x="229.374608" y="93.593107">10</text>
   </g>
   <g id="text_33">
    <text style="font-family:Arial;font-size:10px;font-stretch:normal;font-style:normal;font-weight:normal;text-anchor:middle;" transform="rotate(-0, 198.131615, 50.965775)" x="198.131615" y="50.965775">11</text>
   </g>
   <g id="text_34">
    <text style="font-family:Arial;font-size:10px;font-stretch:normal;font-style:normal;font-weight:normal;text-anchor:middle;" transform="rotate(-0, 374.048794, 221.475104)" x="374.048794" y="221.475104">7</text>
   </g>
   <g id="text_35">
    <text style="font-family:Arial;font-size:10px;font-stretch:normal;font-style:normal;font-weight:normal;text-anchor:middle;" transform="rotate(-0, 295.70752, 178.847772)" x="295.70752" y="178.847772">11</text>
   </g>
   <g id="text_36">
    <text style="font-family:Arial;font-size:10px;font-stretch:normal;font-style:normal;font-weight:normal;text-anchor:middle;" transform="rotate(-0, 283.529129, 136.220439)" x="283.529129" y="136.220439">8</text>
   </g>
   <g id="text_37">
    <text style="font-family:Arial;font-size:10px;font-stretch:normal;font-style:normal;font-weight:normal;text-anchor:middle;" transform="rotate(-0, 264.783333, 93.593107)" x="264.783333" y="93.593107">7</text>
   </g>
   <g id="text_38">
    <text style="font-family:Arial;font-size:10px;font-stretch:normal;font-style:normal;font-weight:normal;text-anchor:middle;" transform="rotate(-0, 241.871805, 50.965775)" x="241.871805" y="50.965775">10</text>
   </g>
   <g id="text_39">
    <text style="font-family:Arial;font-size:10px;font-stretch:normal;font-style:normal;font-weight:normal;text-anchor:middle;" transform="rotate(-0, 402.911368, 221.475104)" x="402.911368" y="221.475104">7</text>
   </g>
   <g id="text_40">
    <text style="font-family:Arial;font-size:10px;font-stretch:normal;font-style:normal;font-weight:normal;text-anchor:middle;" transform="rotate(-0, 345.186219, 178.847772)" x="345.186219" y="178.847772">13</text>
   </g>
   <g id="text_41">
    <text style="font-family:Arial;font-size:10px;font-stretch:normal;font-style:normal;font-weight:normal;text-anchor:middle;" transform="rotate(-0, 318.937854, 136.220439)" x="318.937854" y="136.220439">9</text>
   </g>
   <g id="text_42">
    <text style="font-family:Arial;font-size:10px;font-stretch:normal;font-style:normal;font-weight:normal;text-anchor:middle;" transform="rotate(-0, 306.440657, 93.593107)" x="306.440657" y="93.593107">13</text>
   </g>
   <g id="text_43">
    <text style="font-family:Arial;font-size:10px;font-stretch:normal;font-style:normal;font-weight:normal;text-anchor:middle;" transform="rotate(-0, 291.860594, 50.965775)" x="291.860594" y="50.965775">14</text>
   </g>
   <g id="text_44">
    <text style="font-family:Arial;font-size:10px;font-stretch:normal;font-style:normal;font-weight:normal;text-anchor:middle;" transform="rotate(-0, 429.71233, 221.475104)" x="429.71233" y="221.475104">6</text>
   </g>
   <g id="text_45">
    <text style="font-family:Arial;font-size:10px;font-stretch:normal;font-style:normal;font-weight:normal;text-anchor:middle;" transform="rotate(-0, 384.356856, 178.847772)" x="384.356856" y="178.847772">6</text>
   </g>
   <g id="text_46">
    <text style="font-family:Arial;font-size:10px;font-stretch:normal;font-style:normal;font-weight:normal;text-anchor:middle;" transform="rotate(-0, 358.512312, 136.220439)" x="358.512312" y="136.220439">10</text>
   </g>
   <g id="text_47">
    <text style="font-family:Arial;font-size:10px;font-stretch:normal;font-style:normal;font-weight:normal;text-anchor:middle;" transform="rotate(-0, 352.263713, 93.593107)" x="352.263713" y="93.593107">9</text>
   </g>
   <g id="text_48">
    <text style="font-family:Arial;font-size:10px;font-stretch:normal;font-style:normal;font-weight:normal;text-anchor:middle;" transform="rotate(-0, 348.097981, 50.965775)" x="348.097981" y="50.965775">13</text>
   </g>
   <g id="text_49">
    <text style="font-family:Arial;font-size:10px;font-stretch:normal;font-style:normal;font-weight:normal;text-anchor:middle;" transform="rotate(-0, 452.390067, 221.475104)" x="452.390067" y="221.475104">5</text>
   </g>
   <g id="text_50">
    <text style="font-family:Arial;font-size:10px;font-stretch:normal;font-style:normal;font-weight:normal;text-anchor:middle;" transform="rotate(-0, 421.46588, 178.847772)" x="421.46588" y="178.847772">12</text>
   </g>
   <g id="text_51">
    <text style="font-family:Arial;font-size:10px;font-stretch:normal;font-style:normal;font-weight:normal;text-anchor:middle;" transform="rotate(-0, 400.169636, 136.220439)" x="400.169636" y="136.220439">10</text>
   </g>
   <g id="text_52">
    <text style="font-family:Arial;font-size:10px;font-stretch:normal;font-style:normal;font-weight:normal;text-anchor:middle;" transform="rotate(-0, 393.921037, 93.593107)" x="393.921037" y="93.593107">11</text>
   </g>
   <g id="text_53">
    <text style="font-family:Arial;font-size:10px;font-stretch:normal;font-style:normal;font-weight:normal;text-anchor:middle;" transform="rotate(-0, 402.252502, 50.965775)" x="402.252502" y="50.965775">13</text>
   </g>
   <g id="text_54">
    <text style="font-family:Arial;font-size:10px;font-stretch:normal;font-style:normal;font-weight:normal;text-anchor:middle;" transform="rotate(-0, 456.513292, 178.847772)" x="456.513292" y="178.847772">5</text>
   </g>
   <g id="text_55">
    <text style="font-family:Arial;font-size:10px;font-stretch:normal;font-style:normal;font-weight:normal;text-anchor:middle;" transform="rotate(-0, 443.909826, 136.220439)" x="443.909826" y="136.220439">11</text>
   </g>
   <g id="text_56">
    <text style="font-family:Arial;font-size:10px;font-stretch:normal;font-style:normal;font-weight:normal;text-anchor:middle;" transform="rotate(-0, 441.82696, 93.593107)" x="441.82696" y="93.593107">12</text>
   </g>
   <g id="text_57">
    <text style="font-family:Arial;font-size:10px;font-stretch:normal;font-style:normal;font-weight:normal;text-anchor:middle;" transform="rotate(-0, 448.075558, 50.965775)" x="448.075558" y="50.965775">9</text>
   </g>
   <g id="text_58">
    <text style="font-family:Arial;font-size:12px;font-stretch:normal;font-style:normal;font-weight:normal;text-anchor:middle;" transform="rotate(-0, 274.885234, 19.389375)" x="274.885234" y="19.389375">Reasons to choose current job: Australia</text>
   </g>
   <g id="legend_1">
    <g id="patch_49">
     <path d="M 61.201641 349.702787 
L 488.568828 349.702787 
Q 490.568828 349.702787 490.568828 347.702787 
L 490.568828 277.496537 
Q 490.568828 275.496537 488.568828 275.496537 
L 61.201641 275.496537 
Q 59.201641 275.496537 59.201641 277.496537 
L 59.201641 347.702787 
Q 59.201641 349.702787 61.201641 349.702787 
z
" style="fill:#ffffff;opacity:0.8;stroke:#cccccc;stroke-linejoin:miter;"/>
    </g>
    <g id="patch_50">
     <path d="M 63.201641 286.654349 
L 83.201641 286.654349 
L 83.201641 279.654349 
L 63.201641 279.654349 
z
" style="fill:#1f77b4;"/>
    </g>
    <g id="text_59">
     <text style="font-family:Arial;font-size:10px;font-stretch:normal;font-style:normal;font-weight:normal;text-anchor:start;" transform="rotate(-0, 91.201641, 286.654349)" x="91.201641" y="286.654349">Desire to work in a research environment</text>
    </g>
    <g id="patch_51">
     <path d="M 63.201641 300.799662 
L 83.201641 300.799662 
L 83.201641 293.799662 
L 63.201641 293.799662 
z
" style="fill:#ff7f0e;"/>
    </g>
    <g id="text_60">
     <text style="font-family:Arial;font-size:10px;font-stretch:normal;font-style:normal;font-weight:normal;text-anchor:start;" transform="rotate(-0, 91.201641, 300.799662)" x="91.201641" y="300.799662">Freedom to choose own working practices</text>
    </g>
    <g id="patch_52">
     <path d="M 63.201641 315.062162 
L 83.201641 315.062162 
L 83.201641 308.062162 
L 63.201641 308.062162 
z
" style="fill:#2ca02c;"/>
    </g>
    <g id="text_61">
     <text style="font-family:Arial;font-size:10px;font-stretch:normal;font-style:normal;font-weight:normal;text-anchor:start;" transform="rotate(-0, 91.201641, 315.062162)" x="91.201641" y="315.062162">Desire to advance research</text>
    </g>
    <g id="patch_53">
     <path d="M 63.201641 329.335599 
L 83.201641 329.335599 
L 83.201641 322.335599 
L 63.201641 322.335599 
z
" style="fill:#d62728;"/>
    </g>
    <g id="text_62">
     <text style="font-family:Arial;font-size:10px;font-stretch:normal;font-style:normal;font-weight:normal;text-anchor:start;" transform="rotate(-0, 91.201641, 329.335599)" x="91.201641" y="329.335599">Opportunity to develop software</text>
    </g>
    <g id="patch_54">
     <path d="M 63.201641 343.598099 
L 83.201641 343.598099 
L 83.201641 336.598099 
L 63.201641 336.598099 
z
" style="fill:#9467bd;"/>
    </g>
    <g id="text_63">
     <text style="font-family:Arial;font-size:10px;font-stretch:normal;font-style:normal;font-weight:normal;text-anchor:start;" transform="rotate(-0, 91.201641, 343.598099)" x="91.201641" y="343.598099">Ability to work across disciplines</text>
    </g>
    <g id="patch_55">
     <path d="M 298.498516 286.654349 
L 318.498516 286.654349 
L 318.498516 279.654349 
L 298.498516 279.654349 
z
" style="fill:#8c564b;"/>
    </g>
    <g id="text_64">
     <text style="font-family:Arial;font-size:10px;font-stretch:normal;font-style:normal;font-weight:normal;text-anchor:start;" transform="rotate(-0, 326.498516, 286.654349)" x="326.498516" y="286.654349">I want to learn new skills</text>
    </g>
    <g id="patch_56">
     <path d="M 298.498516 300.927787 
L 318.498516 300.927787 
L 318.498516 293.927787 
L 298.498516 293.927787 
z
" style="fill:#e377c2;"/>
    </g>
    <g id="text_65">
     <text style="font-family:Arial;font-size:10px;font-stretch:normal;font-style:normal;font-weight:normal;text-anchor:start;" transform="rotate(-0, 326.498516, 300.927787)" x="326.498516" y="300.927787">Opportunity for career advancement</text>
    </g>
    <g id="patch_57">
     <path d="M 298.498516 315.190287 
L 318.498516 315.190287 
L 318.498516 308.190287 
L 298.498516 308.190287 
z
" style="fill:#7f7f7f;"/>
    </g>
    <g id="text_66">
     <text style="font-family:Arial;font-size:10px;font-stretch:normal;font-style:normal;font-weight:normal;text-anchor:start;" transform="rotate(-0, 326.498516, 315.190287)" x="326.498516" y="315.190287">Flexible working hours</text>
    </g>
    <g id="patch_58">
     <path d="M 298.498516 329.452787 
L 318.498516 329.452787 
L 318.498516 322.452787 
L 298.498516 322.452787 
z
" style="fill:#bcbd22;"/>
    </g>
    <g id="text_67">
     <text style="font-family:Arial;font-size:10px;font-stretch:normal;font-style:normal;font-weight:normal;text-anchor:start;" transform="rotate(-0, 326.498516, 329.452787)" x="326.498516" y="329.452787">The salary</text>
    </g>
   </g>
  </g>
 </g>
 <defs>
  <clipPath id="pd7fc2d7990">
   <rect height="213.136662" width="424.279844" x="62.745313" y="25.389375"/>
  </clipPath>
 </defs>
</svg>
