<?xml version="1.0" encoding="utf-8" standalone="no"?>
<!DOCTYPE svg PUBLIC "-//W3C//DTD SVG 1.1//EN"
  "http://www.w3.org/Graphics/SVG/1.1/DTD/svg11.dtd">
<svg height="360pt" version="1.1" viewBox="0 0 504 360" width="504pt" xmlns="http://www.w3.org/2000/svg" xmlns:xlink="http://www.w3.org/1999/xlink">
 <metadata>
  <rdf:RDF xmlns:cc="http://creativecommons.org/ns#" xmlns:dc="http://purl.org/dc/elements/1.1/" xmlns:rdf="http://www.w3.org/1999/02/22-rdf-syntax-ns#">
   <cc:Work>
    <dc:type rdf:resource="http://purl.org/dc/dcmitype/StillImage"/>
    <dc:date>2021-03-29T15:54:40.667912</dc:date>
    <dc:format>image/svg+xml</dc:format>
    <dc:creator>
     <cc:Agent>
      <dc:title>Matplotlib v3.4.0, https://matplotlib.org/</dc:title>
     </cc:Agent>
    </dc:creator>
   </cc:Work>
  </rdf:RDF>
 </metadata>
 <defs>
  <style type="text/css">*{stroke-linecap:butt;stroke-linejoin:round;}</style>
 </defs>
 <g id="figure_1">
  <g id="patch_1">
   <path d="M 0 360 
L 504 360 
L 504 0 
L 0 0 
z
" style="fill:#ffffff;"/>
  </g>
  <g id="axes_1">
   <g id="patch_2">
    <path d="M 65.998438 226.229375 
L 449.188281 226.229375 
L 449.188281 25.918125 
L 65.998438 25.918125 
z
" style="fill:#ffffff;"/>
   </g>
   <g id="patch_3">
    <path clip-path="url(#pba05bf810c)" d="M 65.998438 216.213813 
L 147.096817 216.213813 
L 147.096817 196.182688 
L 65.998438 196.182688 
z
" style="fill:#1f77b4;"/>
   </g>
   <g id="patch_4">
    <path clip-path="url(#pba05bf810c)" d="M 65.998438 176.151563 
L 116.684925 176.151563 
L 116.684925 156.120438 
L 65.998438 156.120438 
z
" style="fill:#1f77b4;"/>
   </g>
   <g id="patch_5">
    <path clip-path="url(#pba05bf810c)" d="M 65.998438 136.089313 
L 136.95952 136.089313 
L 136.95952 116.058188 
L 65.998438 116.058188 
z
" style="fill:#1f77b4;"/>
   </g>
   <g id="patch_6">
    <path clip-path="url(#pba05bf810c)" d="M 65.998438 96.027063 
L 65.998438 96.027063 
L 65.998438 75.995938 
L 65.998438 75.995938 
z
" style="fill:#1f77b4;"/>
   </g>
   <g id="patch_7">
    <path clip-path="url(#pba05bf810c)" d="M 65.998438 55.964813 
L 106.547627 55.964813 
L 106.547627 35.933688 
L 65.998438 35.933688 
z
" style="fill:#1f77b4;"/>
   </g>
   <g id="patch_8">
    <path clip-path="url(#pba05bf810c)" d="M 147.096817 216.213813 
L 228.195197 216.213813 
L 228.195197 196.182688 
L 147.096817 196.182688 
z
" style="fill:#ff7f0e;"/>
   </g>
   <g id="patch_9">
    <path clip-path="url(#pba05bf810c)" d="M 116.684925 176.151563 
L 136.95952 176.151563 
L 136.95952 156.120438 
L 116.684925 156.120438 
z
" style="fill:#ff7f0e;"/>
   </g>
   <g id="patch_10">
    <path clip-path="url(#pba05bf810c)" d="M 65.998438 136.089313 
L 65.998438 136.089313 
L 65.998438 116.058188 
L 65.998438 116.058188 
z
" style="fill:#ff7f0e;"/>
   </g>
   <g id="patch_11">
    <path clip-path="url(#pba05bf810c)" d="M 65.998438 96.027063 
L 106.547627 96.027063 
L 106.547627 75.995938 
L 65.998438 75.995938 
z
" style="fill:#ff7f0e;"/>
   </g>
   <g id="patch_12">
    <path clip-path="url(#pba05bf810c)" d="M 106.547627 55.964813 
L 157.234115 55.964813 
L 157.234115 35.933688 
L 106.547627 35.933688 
z
" style="fill:#ff7f0e;"/>
   </g>
   <g id="patch_13">
    <path clip-path="url(#pba05bf810c)" d="M 228.195197 216.213813 
L 278.881684 216.213813 
L 278.881684 196.182688 
L 228.195197 196.182688 
z
" style="fill:#2ca02c;"/>
   </g>
   <g id="patch_14">
    <path clip-path="url(#pba05bf810c)" d="M 136.95952 176.151563 
L 157.234115 176.151563 
L 157.234115 156.120438 
L 136.95952 156.120438 
z
" style="fill:#2ca02c;"/>
   </g>
   <g id="patch_15">
    <path clip-path="url(#pba05bf810c)" d="M 136.95952 136.089313 
L 207.920602 136.089313 
L 207.920602 116.058188 
L 136.95952 116.058188 
z
" style="fill:#2ca02c;"/>
   </g>
   <g id="patch_16">
    <path clip-path="url(#pba05bf810c)" d="M 106.547627 96.027063 
L 136.95952 96.027063 
L 136.95952 75.995938 
L 106.547627 75.995938 
z
" style="fill:#2ca02c;"/>
   </g>
   <g id="patch_17">
    <path clip-path="url(#pba05bf810c)" d="M 157.234115 55.964813 
L 197.783304 55.964813 
L 197.783304 35.933688 
L 157.234115 35.933688 
z
" style="fill:#2ca02c;"/>
   </g>
   <g id="patch_18">
    <path clip-path="url(#pba05bf810c)" d="M 278.881684 216.213813 
L 329.568171 216.213813 
L 329.568171 196.182688 
L 278.881684 196.182688 
z
" style="fill:#d62728;"/>
   </g>
   <g id="patch_19">
    <path clip-path="url(#pba05bf810c)" d="M 157.234115 176.151563 
L 238.332494 176.151563 
L 238.332494 156.120438 
L 157.234115 156.120438 
z
" style="fill:#d62728;"/>
   </g>
   <g id="patch_20">
    <path clip-path="url(#pba05bf810c)" d="M 207.920602 136.089313 
L 248.469792 136.089313 
L 248.469792 116.058188 
L 207.920602 116.058188 
z
" style="fill:#d62728;"/>
   </g>
   <g id="patch_21">
    <path clip-path="url(#pba05bf810c)" d="M 136.95952 96.027063 
L 207.920602 96.027063 
L 207.920602 75.995938 
L 136.95952 75.995938 
z
" style="fill:#d62728;"/>
   </g>
   <g id="patch_22">
    <path clip-path="url(#pba05bf810c)" d="M 197.783304 55.964813 
L 228.195197 55.964813 
L 228.195197 35.933688 
L 197.783304 35.933688 
z
" style="fill:#d62728;"/>
   </g>
   <g id="patch_23">
    <path clip-path="url(#pba05bf810c)" d="M 329.568171 216.213813 
L 359.980064 216.213813 
L 359.980064 196.182688 
L 329.568171 196.182688 
z
" style="fill:#9467bd;"/>
   </g>
   <g id="patch_24">
    <path clip-path="url(#pba05bf810c)" d="M 238.332494 176.151563 
L 258.607089 176.151563 
L 258.607089 156.120438 
L 238.332494 156.120438 
z
" style="fill:#9467bd;"/>
   </g>
   <g id="patch_25">
    <path clip-path="url(#pba05bf810c)" d="M 248.469792 136.089313 
L 258.607089 136.089313 
L 258.607089 116.058188 
L 248.469792 116.058188 
z
" style="fill:#9467bd;"/>
   </g>
   <g id="patch_26">
    <path clip-path="url(#pba05bf810c)" d="M 207.920602 96.027063 
L 268.744387 96.027063 
L 268.744387 75.995938 
L 207.920602 75.995938 
z
" style="fill:#9467bd;"/>
   </g>
   <g id="patch_27">
    <path clip-path="url(#pba05bf810c)" d="M 228.195197 55.964813 
L 238.332494 55.964813 
L 238.332494 35.933688 
L 228.195197 35.933688 
z
" style="fill:#9467bd;"/>
   </g>
   <g id="patch_28">
    <path clip-path="url(#pba05bf810c)" d="M 359.980064 216.213813 
L 380.254659 216.213813 
L 380.254659 196.182688 
L 359.980064 196.182688 
z
" style="fill:#8c564b;"/>
   </g>
   <g id="patch_29">
    <path clip-path="url(#pba05bf810c)" d="M 258.607089 176.151563 
L 289.018981 176.151563 
L 289.018981 156.120438 
L 258.607089 156.120438 
z
" style="fill:#8c564b;"/>
   </g>
   <g id="patch_30">
    <path clip-path="url(#pba05bf810c)" d="M 258.607089 136.089313 
L 309.293576 136.089313 
L 309.293576 116.058188 
L 258.607089 116.058188 
z
" style="fill:#8c564b;"/>
   </g>
   <g id="patch_31">
    <path clip-path="url(#pba05bf810c)" d="M 268.744387 96.027063 
L 319.430874 96.027063 
L 319.430874 75.995938 
L 268.744387 75.995938 
z
" style="fill:#8c564b;"/>
   </g>
   <g id="patch_32">
    <path clip-path="url(#pba05bf810c)" d="M 238.332494 55.964813 
L 258.607089 55.964813 
L 258.607089 35.933688 
L 238.332494 35.933688 
z
" style="fill:#8c564b;"/>
   </g>
   <g id="patch_33">
    <path clip-path="url(#pba05bf810c)" d="M 380.254659 216.213813 
L 400.529253 216.213813 
L 400.529253 196.182688 
L 380.254659 196.182688 
z
" style="fill:#e377c2;"/>
   </g>
   <g id="patch_34">
    <path clip-path="url(#pba05bf810c)" d="M 289.018981 176.151563 
L 339.705469 176.151563 
L 339.705469 156.120438 
L 289.018981 156.120438 
z
" style="fill:#e377c2;"/>
   </g>
   <g id="patch_35">
    <path clip-path="url(#pba05bf810c)" d="M 309.293576 136.089313 
L 349.842766 136.089313 
L 349.842766 116.058188 
L 309.293576 116.058188 
z
" style="fill:#e377c2;"/>
   </g>
   <g id="patch_36">
    <path clip-path="url(#pba05bf810c)" d="M 319.430874 96.027063 
L 380.254659 96.027063 
L 380.254659 75.995938 
L 319.430874 75.995938 
z
" style="fill:#e377c2;"/>
   </g>
   <g id="patch_37">
    <path clip-path="url(#pba05bf810c)" d="M 258.607089 55.964813 
L 329.568171 55.964813 
L 329.568171 35.933688 
L 258.607089 35.933688 
z
" style="fill:#e377c2;"/>
   </g>
   <g id="patch_38">
    <path clip-path="url(#pba05bf810c)" d="M 400.529253 216.213813 
L 420.803848 216.213813 
L 420.803848 196.182688 
L 400.529253 196.182688 
z
" style="fill:#7f7f7f;"/>
   </g>
   <g id="patch_39">
    <path clip-path="url(#pba05bf810c)" d="M 339.705469 176.151563 
L 359.980064 176.151563 
L 359.980064 156.120438 
L 339.705469 156.120438 
z
" style="fill:#7f7f7f;"/>
   </g>
   <g id="patch_40">
    <path clip-path="url(#pba05bf810c)" d="M 349.842766 136.089313 
L 359.980064 136.089313 
L 359.980064 116.058188 
L 349.842766 116.058188 
z
" style="fill:#7f7f7f;"/>
   </g>
   <g id="patch_41">
    <path clip-path="url(#pba05bf810c)" d="M 380.254659 96.027063 
L 400.529253 96.027063 
L 400.529253 75.995938 
L 380.254659 75.995938 
z
" style="fill:#7f7f7f;"/>
   </g>
   <g id="patch_42">
    <path clip-path="url(#pba05bf810c)" d="M 329.568171 55.964813 
L 390.391956 55.964813 
L 390.391956 35.933688 
L 329.568171 35.933688 
z
" style="fill:#7f7f7f;"/>
   </g>
   <g id="patch_43">
    <path clip-path="url(#pba05bf810c)" d="M 420.803848 216.213813 
L 430.941146 216.213813 
L 430.941146 196.182688 
L 420.803848 196.182688 
z
" style="fill:#bcbd22;"/>
   </g>
   <g id="patch_44">
    <path clip-path="url(#pba05bf810c)" d="M 359.980064 176.151563 
L 430.941146 176.151563 
L 430.941146 156.120438 
L 359.980064 156.120438 
z
" style="fill:#bcbd22;"/>
   </g>
   <g id="patch_45">
    <path clip-path="url(#pba05bf810c)" d="M 359.980064 136.089313 
L 430.941146 136.089313 
L 430.941146 116.058188 
L 359.980064 116.058188 
z
" style="fill:#bcbd22;"/>
   </g>
   <g id="patch_46">
    <path clip-path="url(#pba05bf810c)" d="M 400.529253 96.027063 
L 430.941146 96.027063 
L 430.941146 75.995938 
L 400.529253 75.995938 
z
" style="fill:#bcbd22;"/>
   </g>
   <g id="patch_47">
    <path clip-path="url(#pba05bf810c)" d="M 390.391956 55.964813 
L 430.941146 55.964813 
L 430.941146 35.933688 
L 390.391956 35.933688 
z
" style="fill:#bcbd22;"/>
   </g>
   <g id="matplotlib.axis_1">
    <g id="xtick_1">
     <g id="line2d_1">
      <defs>
       <path d="M 0 0 
L 0 3.5 
" id="mc3a356a46d" style="stroke:#000000;stroke-width:0.8;"/>
      </defs>
      <g>
       <use style="stroke:#000000;stroke-width:0.8;" x="65.998438" xlink:href="#mc3a356a46d" y="226.229375"/>
      </g>
     </g>
     <g id="text_1">
      <text style="font-family:DejaVu Sans;font-size:10px;font-stretch:normal;font-style:normal;font-weight:normal;text-anchor:middle;" transform="rotate(-0, 65.998438, 240.827812)" x="65.998438" y="240.827812">0</text>
     </g>
    </g>
    <g id="xtick_2">
     <g id="line2d_2">
      <g>
       <use style="stroke:#000000;stroke-width:0.8;" x="138.986979" xlink:href="#mc3a356a46d" y="226.229375"/>
      </g>
     </g>
     <g id="text_2">
      <text style="font-family:DejaVu Sans;font-size:10px;font-stretch:normal;font-style:normal;font-weight:normal;text-anchor:middle;" transform="rotate(-0, 138.986979, 240.827812)" x="138.986979" y="240.827812">20</text>
     </g>
    </g>
    <g id="xtick_3">
     <g id="line2d_3">
      <g>
       <use style="stroke:#000000;stroke-width:0.8;" x="211.975521" xlink:href="#mc3a356a46d" y="226.229375"/>
      </g>
     </g>
     <g id="text_3">
      <text style="font-family:DejaVu Sans;font-size:10px;font-stretch:normal;font-style:normal;font-weight:normal;text-anchor:middle;" transform="rotate(-0, 211.975521, 240.827812)" x="211.975521" y="240.827812">40</text>
     </g>
    </g>
    <g id="xtick_4">
     <g id="line2d_4">
      <g>
       <use style="stroke:#000000;stroke-width:0.8;" x="284.964063" xlink:href="#mc3a356a46d" y="226.229375"/>
      </g>
     </g>
     <g id="text_4">
      <text style="font-family:DejaVu Sans;font-size:10px;font-stretch:normal;font-style:normal;font-weight:normal;text-anchor:middle;" transform="rotate(-0, 284.964063, 240.827812)" x="284.964063" y="240.827812">60</text>
     </g>
    </g>
    <g id="xtick_5">
     <g id="line2d_5">
      <g>
       <use style="stroke:#000000;stroke-width:0.8;" x="357.952604" xlink:href="#mc3a356a46d" y="226.229375"/>
      </g>
     </g>
     <g id="text_5">
      <text style="font-family:DejaVu Sans;font-size:10px;font-stretch:normal;font-style:normal;font-weight:normal;text-anchor:middle;" transform="rotate(-0, 357.952604, 240.827812)" x="357.952604" y="240.827812">80</text>
     </g>
    </g>
    <g id="xtick_6">
     <g id="line2d_6">
      <g>
       <use style="stroke:#000000;stroke-width:0.8;" x="430.941146" xlink:href="#mc3a356a46d" y="226.229375"/>
      </g>
     </g>
     <g id="text_6">
      <text style="font-family:DejaVu Sans;font-size:10px;font-stretch:normal;font-style:normal;font-weight:normal;text-anchor:middle;" transform="rotate(-0, 430.941146, 240.827812)" x="430.941146" y="240.827812">100</text>
     </g>
    </g>
    <g id="text_7">
     <text style="font-family:DejaVu Sans;font-size:10px;font-stretch:normal;font-style:normal;font-weight:normal;text-anchor:middle;" transform="rotate(-0, 257.593359, 254.505938)" x="257.593359" y="254.505938">Ranking of importance</text>
    </g>
   </g>
   <g id="matplotlib.axis_2">
    <g id="ytick_1">
     <g id="line2d_7">
      <defs>
       <path d="M 0 0 
L -3.5 0 
" id="m82278324de" style="stroke:#000000;stroke-width:0.8;"/>
      </defs>
      <g>
       <use style="stroke:#000000;stroke-width:0.8;" x="65.998438" xlink:href="#m82278324de" y="206.19825"/>
      </g>
     </g>
     <g id="text_8">
      <text style="font-family:DejaVu Sans;font-size:10px;font-stretch:normal;font-style:normal;font-weight:normal;text-anchor:end;" transform="rotate(-0, 58.998438, 209.997469)" x="58.998438" y="209.997469">Rank 1</text>
     </g>
    </g>
    <g id="ytick_2">
     <g id="line2d_8">
      <g>
       <use style="stroke:#000000;stroke-width:0.8;" x="65.998438" xlink:href="#m82278324de" y="166.136"/>
      </g>
     </g>
     <g id="text_9">
      <text style="font-family:DejaVu Sans;font-size:10px;font-stretch:normal;font-style:normal;font-weight:normal;text-anchor:end;" transform="rotate(-0, 58.998438, 169.935219)" x="58.998438" y="169.935219">Rank 2</text>
     </g>
    </g>
    <g id="ytick_3">
     <g id="line2d_9">
      <g>
       <use style="stroke:#000000;stroke-width:0.8;" x="65.998438" xlink:href="#m82278324de" y="126.07375"/>
      </g>
     </g>
     <g id="text_10">
      <text style="font-family:DejaVu Sans;font-size:10px;font-stretch:normal;font-style:normal;font-weight:normal;text-anchor:end;" transform="rotate(-0, 58.998438, 129.872969)" x="58.998438" y="129.872969">Rank 3</text>
     </g>
    </g>
    <g id="ytick_4">
     <g id="line2d_10">
      <g>
       <use style="stroke:#000000;stroke-width:0.8;" x="65.998438" xlink:href="#m82278324de" y="86.0115"/>
      </g>
     </g>
     <g id="text_11">
      <text style="font-family:DejaVu Sans;font-size:10px;font-stretch:normal;font-style:normal;font-weight:normal;text-anchor:end;" transform="rotate(-0, 58.998438, 89.810719)" x="58.998438" y="89.810719">Rank 4</text>
     </g>
    </g>
    <g id="ytick_5">
     <g id="line2d_11">
      <g>
       <use style="stroke:#000000;stroke-width:0.8;" x="65.998438" xlink:href="#m82278324de" y="45.94925"/>
      </g>
     </g>
     <g id="text_12">
      <text style="font-family:DejaVu Sans;font-size:10px;font-stretch:normal;font-style:normal;font-weight:normal;text-anchor:end;" transform="rotate(-0, 58.998438, 49.748469)" x="58.998438" y="49.748469">Rank 5</text>
     </g>
    </g>
    <g id="text_13">
     <text style="font-family:DejaVu Sans;font-size:10px;font-stretch:normal;font-style:normal;font-weight:normal;text-anchor:middle;" transform="rotate(-90, 18.398438, 126.07375)" x="18.398438" y="126.07375">Percentage</text>
    </g>
   </g>
   <g id="patch_48">
    <path d="M 65.998438 226.229375 
L 449.188281 226.229375 
" style="fill:none;stroke:#000000;stroke-linecap:square;stroke-linejoin:miter;stroke-width:0.8;"/>
   </g>
   <g id="text_14">
    <text style="font-family:DejaVu Sans;font-size:10px;font-stretch:normal;font-style:normal;font-weight:normal;text-anchor:middle;" transform="rotate(-0, 106.547627, 210.204475)" x="106.547627" y="210.204475">22</text>
   </g>
   <g id="text_15">
    <text style="font-family:DejaVu Sans;font-size:10px;font-stretch:normal;font-style:normal;font-weight:normal;text-anchor:middle;" transform="rotate(-0, 91.341681, 170.142225)" x="91.341681" y="170.142225">14</text>
   </g>
   <g id="text_16">
    <text style="font-family:DejaVu Sans;font-size:10px;font-stretch:normal;font-style:normal;font-weight:normal;text-anchor:middle;" transform="rotate(-0, 101.478979, 130.079975)" x="101.478979" y="130.079975">19</text>
   </g>
   <g id="text_17">
    <text style="font-family:DejaVu Sans;font-size:10px;font-stretch:normal;font-style:normal;font-weight:normal;text-anchor:middle;" transform="rotate(-0, 86.273032, 49.955475)" x="86.273032" y="49.955475">11</text>
   </g>
   <g id="text_18">
    <text style="font-family:DejaVu Sans;font-size:10px;font-stretch:normal;font-style:normal;font-weight:normal;text-anchor:middle;" transform="rotate(-0, 187.646007, 210.204475)" x="187.646007" y="210.204475">22</text>
   </g>
   <g id="text_19">
    <text style="font-family:DejaVu Sans;font-size:10px;font-stretch:normal;font-style:normal;font-weight:normal;text-anchor:middle;" transform="rotate(-0, 126.822222, 170.142225)" x="126.822222" y="170.142225">6</text>
   </g>
   <g id="text_20">
    <text style="font-family:DejaVu Sans;font-size:10px;font-stretch:normal;font-style:normal;font-weight:normal;text-anchor:middle;" transform="rotate(-0, 86.273032, 90.017725)" x="86.273032" y="90.017725">11</text>
   </g>
   <g id="text_21">
    <text style="font-family:DejaVu Sans;font-size:10px;font-stretch:normal;font-style:normal;font-weight:normal;text-anchor:middle;" transform="rotate(-0, 131.890871, 49.955475)" x="131.890871" y="49.955475">14</text>
   </g>
   <g id="text_22">
    <text style="font-family:DejaVu Sans;font-size:10px;font-stretch:normal;font-style:normal;font-weight:normal;text-anchor:middle;" transform="rotate(-0, 253.53844, 210.204475)" x="253.53844" y="210.204475">14</text>
   </g>
   <g id="text_23">
    <text style="font-family:DejaVu Sans;font-size:10px;font-stretch:normal;font-style:normal;font-weight:normal;text-anchor:middle;" transform="rotate(-0, 147.096817, 170.142225)" x="147.096817" y="170.142225">6</text>
   </g>
   <g id="text_24">
    <text style="font-family:DejaVu Sans;font-size:10px;font-stretch:normal;font-style:normal;font-weight:normal;text-anchor:middle;" transform="rotate(-0, 172.440061, 130.079975)" x="172.440061" y="130.079975">19</text>
   </g>
   <g id="text_25">
    <text style="font-family:DejaVu Sans;font-size:10px;font-stretch:normal;font-style:normal;font-weight:normal;text-anchor:middle;" transform="rotate(-0, 121.753573, 90.017725)" x="121.753573" y="90.017725">8</text>
   </g>
   <g id="text_26">
    <text style="font-family:DejaVu Sans;font-size:10px;font-stretch:normal;font-style:normal;font-weight:normal;text-anchor:middle;" transform="rotate(-0, 177.508709, 49.955475)" x="177.508709" y="49.955475">11</text>
   </g>
   <g id="text_27">
    <text style="font-family:DejaVu Sans;font-size:10px;font-stretch:normal;font-style:normal;font-weight:normal;text-anchor:middle;" transform="rotate(-0, 304.224928, 210.204475)" x="304.224928" y="210.204475">14</text>
   </g>
   <g id="text_28">
    <text style="font-family:DejaVu Sans;font-size:10px;font-stretch:normal;font-style:normal;font-weight:normal;text-anchor:middle;" transform="rotate(-0, 197.783304, 170.142225)" x="197.783304" y="170.142225">22</text>
   </g>
   <g id="text_29">
    <text style="font-family:DejaVu Sans;font-size:10px;font-stretch:normal;font-style:normal;font-weight:normal;text-anchor:middle;" transform="rotate(-0, 228.195197, 130.079975)" x="228.195197" y="130.079975">11</text>
   </g>
   <g id="text_30">
    <text style="font-family:DejaVu Sans;font-size:10px;font-stretch:normal;font-style:normal;font-weight:normal;text-anchor:middle;" transform="rotate(-0, 172.440061, 90.017725)" x="172.440061" y="90.017725">19</text>
   </g>
   <g id="text_31">
    <text style="font-family:DejaVu Sans;font-size:10px;font-stretch:normal;font-style:normal;font-weight:normal;text-anchor:middle;" transform="rotate(-0, 212.989251, 49.955475)" x="212.989251" y="49.955475">8</text>
   </g>
   <g id="text_32">
    <text style="font-family:DejaVu Sans;font-size:10px;font-stretch:normal;font-style:normal;font-weight:normal;text-anchor:middle;" transform="rotate(-0, 344.774117, 210.204475)" x="344.774117" y="210.204475">8</text>
   </g>
   <g id="text_33">
    <text style="font-family:DejaVu Sans;font-size:10px;font-stretch:normal;font-style:normal;font-weight:normal;text-anchor:middle;" transform="rotate(-0, 248.469792, 170.142225)" x="248.469792" y="170.142225">6</text>
   </g>
   <g id="text_34">
    <text style="font-family:DejaVu Sans;font-size:10px;font-stretch:normal;font-style:normal;font-weight:normal;text-anchor:middle;" transform="rotate(-0, 238.332494, 90.017725)" x="238.332494" y="90.017725">17</text>
   </g>
   <g id="text_35">
    <text style="font-family:DejaVu Sans;font-size:10px;font-stretch:normal;font-style:normal;font-weight:normal;text-anchor:middle;" transform="rotate(-0, 370.117361, 210.204475)" x="370.117361" y="210.204475">6</text>
   </g>
   <g id="text_36">
    <text style="font-family:DejaVu Sans;font-size:10px;font-stretch:normal;font-style:normal;font-weight:normal;text-anchor:middle;" transform="rotate(-0, 273.813035, 170.142225)" x="273.813035" y="170.142225">8</text>
   </g>
   <g id="text_37">
    <text style="font-family:DejaVu Sans;font-size:10px;font-stretch:normal;font-style:normal;font-weight:normal;text-anchor:middle;" transform="rotate(-0, 283.950333, 130.079975)" x="283.950333" y="130.079975">14</text>
   </g>
   <g id="text_38">
    <text style="font-family:DejaVu Sans;font-size:10px;font-stretch:normal;font-style:normal;font-weight:normal;text-anchor:middle;" transform="rotate(-0, 294.08763, 90.017725)" x="294.08763" y="90.017725">14</text>
   </g>
   <g id="text_39">
    <text style="font-family:DejaVu Sans;font-size:10px;font-stretch:normal;font-style:normal;font-weight:normal;text-anchor:middle;" transform="rotate(-0, 248.469792, 49.955475)" x="248.469792" y="49.955475">6</text>
   </g>
   <g id="text_40">
    <text style="font-family:DejaVu Sans;font-size:10px;font-stretch:normal;font-style:normal;font-weight:normal;text-anchor:middle;" transform="rotate(-0, 390.391956, 210.204475)" x="390.391956" y="210.204475">6</text>
   </g>
   <g id="text_41">
    <text style="font-family:DejaVu Sans;font-size:10px;font-stretch:normal;font-style:normal;font-weight:normal;text-anchor:middle;" transform="rotate(-0, 314.362225, 170.142225)" x="314.362225" y="170.142225">14</text>
   </g>
   <g id="text_42">
    <text style="font-family:DejaVu Sans;font-size:10px;font-stretch:normal;font-style:normal;font-weight:normal;text-anchor:middle;" transform="rotate(-0, 329.568171, 130.079975)" x="329.568171" y="130.079975">11</text>
   </g>
   <g id="text_43">
    <text style="font-family:DejaVu Sans;font-size:10px;font-stretch:normal;font-style:normal;font-weight:normal;text-anchor:middle;" transform="rotate(-0, 349.842766, 90.017725)" x="349.842766" y="90.017725">17</text>
   </g>
   <g id="text_44">
    <text style="font-family:DejaVu Sans;font-size:10px;font-stretch:normal;font-style:normal;font-weight:normal;text-anchor:middle;" transform="rotate(-0, 294.08763, 49.955475)" x="294.08763" y="49.955475">19</text>
   </g>
   <g id="text_45">
    <text style="font-family:DejaVu Sans;font-size:10px;font-stretch:normal;font-style:normal;font-weight:normal;text-anchor:middle;" transform="rotate(-0, 410.666551, 210.204475)" x="410.666551" y="210.204475">6</text>
   </g>
   <g id="text_46">
    <text style="font-family:DejaVu Sans;font-size:10px;font-stretch:normal;font-style:normal;font-weight:normal;text-anchor:middle;" transform="rotate(-0, 349.842766, 170.142225)" x="349.842766" y="170.142225">6</text>
   </g>
   <g id="text_47">
    <text style="font-family:DejaVu Sans;font-size:10px;font-stretch:normal;font-style:normal;font-weight:normal;text-anchor:middle;" transform="rotate(-0, 390.391956, 90.017725)" x="390.391956" y="90.017725">6</text>
   </g>
   <g id="text_48">
    <text style="font-family:DejaVu Sans;font-size:10px;font-stretch:normal;font-style:normal;font-weight:normal;text-anchor:middle;" transform="rotate(-0, 359.980064, 49.955475)" x="359.980064" y="49.955475">17</text>
   </g>
   <g id="text_49">
    <text style="font-family:DejaVu Sans;font-size:10px;font-stretch:normal;font-style:normal;font-weight:normal;text-anchor:middle;" transform="rotate(-0, 395.460605, 170.142225)" x="395.460605" y="170.142225">19</text>
   </g>
   <g id="text_50">
    <text style="font-family:DejaVu Sans;font-size:10px;font-stretch:normal;font-style:normal;font-weight:normal;text-anchor:middle;" transform="rotate(-0, 395.460605, 130.079975)" x="395.460605" y="130.079975">19</text>
   </g>
   <g id="text_51">
    <text style="font-family:DejaVu Sans;font-size:10px;font-stretch:normal;font-style:normal;font-weight:normal;text-anchor:middle;" transform="rotate(-0, 415.7352, 90.017725)" x="415.7352" y="90.017725">8</text>
   </g>
   <g id="text_52">
    <text style="font-family:DejaVu Sans;font-size:10px;font-stretch:normal;font-style:normal;font-weight:normal;text-anchor:middle;" transform="rotate(-0, 410.666551, 49.955475)" x="410.666551" y="49.955475">11</text>
   </g>
   <g id="text_53">
    <text style="font-family:DejaVu Sans;font-size:12px;font-stretch:normal;font-style:normal;font-weight:normal;text-anchor:middle;" transform="rotate(-0, 257.593359, 19.918125)" x="257.593359" y="19.918125">Reasons to choose current job: New Zealand</text>
   </g>
   <g id="legend_1">
    <g id="patch_49">
     <path d="M 20.281641 337.666687 
L 494.905078 337.666687 
Q 496.905078 337.666687 496.905078 335.666687 
L 496.905078 263.276062 
Q 496.905078 261.276062 494.905078 261.276062 
L 20.281641 261.276062 
Q 18.281641 261.276062 18.281641 263.276062 
L 18.281641 335.666687 
Q 18.281641 337.666687 20.281641 337.666687 
z
" style="fill:#ffffff;opacity:0.8;stroke:#cccccc;stroke-linejoin:miter;"/>
    </g>
    <g id="patch_50">
     <path d="M 22.281641 272.8745 
L 42.281641 272.8745 
L 42.281641 265.8745 
L 22.281641 265.8745 
z
" style="fill:#1f77b4;"/>
    </g>
    <g id="text_54">
     <text style="font-family:DejaVu Sans;font-size:10px;font-stretch:normal;font-style:normal;font-weight:normal;text-anchor:start;" transform="rotate(-0, 50.281641, 272.8745)" x="50.281641" y="272.8745">Desire to work in a research environment</text>
    </g>
    <g id="patch_51">
     <path d="M 22.281641 287.552625 
L 42.281641 287.552625 
L 42.281641 280.552625 
L 22.281641 280.552625 
z
" style="fill:#ff7f0e;"/>
    </g>
    <g id="text_55">
     <text style="font-family:DejaVu Sans;font-size:10px;font-stretch:normal;font-style:normal;font-weight:normal;text-anchor:start;" transform="rotate(-0, 50.281641, 287.552625)" x="50.281641" y="287.552625">Freedom to choose own working practices</text>
    </g>
    <g id="patch_52">
     <path d="M 22.281641 302.23075 
L 42.281641 302.23075 
L 42.281641 295.23075 
L 22.281641 295.23075 
z
" style="fill:#2ca02c;"/>
    </g>
    <g id="text_56">
     <text style="font-family:DejaVu Sans;font-size:10px;font-stretch:normal;font-style:normal;font-weight:normal;text-anchor:start;" transform="rotate(-0, 50.281641, 302.23075)" x="50.281641" y="302.23075">Desire to advance research</text>
    </g>
    <g id="patch_53">
     <path d="M 22.281641 316.908875 
L 42.281641 316.908875 
L 42.281641 309.908875 
L 22.281641 309.908875 
z
" style="fill:#d62728;"/>
    </g>
    <g id="text_57">
     <text style="font-family:DejaVu Sans;font-size:10px;font-stretch:normal;font-style:normal;font-weight:normal;text-anchor:start;" transform="rotate(-0, 50.281641, 316.908875)" x="50.281641" y="316.908875">Opportunity to develop software</text>
    </g>
    <g id="patch_54">
     <path d="M 22.281641 331.587 
L 42.281641 331.587 
L 42.281641 324.587 
L 22.281641 324.587 
z
" style="fill:#9467bd;"/>
    </g>
    <g id="text_58">
     <text style="font-family:DejaVu Sans;font-size:10px;font-stretch:normal;font-style:normal;font-weight:normal;text-anchor:start;" transform="rotate(-0, 50.281641, 331.587)" x="50.281641" y="331.587">The salary</text>
    </g>
    <g id="patch_55">
     <path d="M 281.016016 272.8745 
L 301.016016 272.8745 
L 301.016016 265.8745 
L 281.016016 265.8745 
z
" style="fill:#8c564b;"/>
    </g>
    <g id="text_59">
     <text style="font-family:DejaVu Sans;font-size:10px;font-stretch:normal;font-style:normal;font-weight:normal;text-anchor:start;" transform="rotate(-0, 309.016016, 272.8745)" x="309.016016" y="272.8745">Ability to work across disciplines</text>
    </g>
    <g id="patch_56">
     <path d="M 281.016016 287.552625 
L 301.016016 287.552625 
L 301.016016 280.552625 
L 281.016016 280.552625 
z
" style="fill:#e377c2;"/>
    </g>
    <g id="text_60">
     <text style="font-family:DejaVu Sans;font-size:10px;font-stretch:normal;font-style:normal;font-weight:normal;text-anchor:start;" transform="rotate(-0, 309.016016, 287.552625)" x="309.016016" y="287.552625">I want to learn new skills</text>
    </g>
    <g id="patch_57">
     <path d="M 281.016016 302.23075 
L 301.016016 302.23075 
L 301.016016 295.23075 
L 281.016016 295.23075 
z
" style="fill:#7f7f7f;"/>
    </g>
    <g id="text_61">
     <text style="font-family:DejaVu Sans;font-size:10px;font-stretch:normal;font-style:normal;font-weight:normal;text-anchor:start;" transform="rotate(-0, 309.016016, 302.23075)" x="309.016016" y="302.23075">Opportunity for career advancement</text>
    </g>
    <g id="patch_58">
     <path d="M 281.016016 316.908875 
L 301.016016 316.908875 
L 301.016016 309.908875 
L 281.016016 309.908875 
z
" style="fill:#bcbd22;"/>
    </g>
    <g id="text_62">
     <text style="font-family:DejaVu Sans;font-size:10px;font-stretch:normal;font-style:normal;font-weight:normal;text-anchor:start;" transform="rotate(-0, 309.016016, 316.908875)" x="309.016016" y="316.908875">Flexible working hours</text>
    </g>
   </g>
  </g>
 </g>
 <defs>
  <clipPath id="pba05bf810c">
   <rect height="200.31125" width="383.189844" x="65.998438" y="25.918125"/>
  </clipPath>
 </defs>
</svg>
