<?xml version="1.0" encoding="utf-8" standalone="no"?>
<!DOCTYPE svg PUBLIC "-//W3C//DTD SVG 1.1//EN"
  "http://www.w3.org/Graphics/SVG/1.1/DTD/svg11.dtd">
<svg xmlns:xlink="http://www.w3.org/1999/xlink" width="504pt" height="360pt" viewBox="0 0 504 360" xmlns="http://www.w3.org/2000/svg" version="1.1">
 <metadata>
  <rdf:RDF xmlns:dc="http://purl.org/dc/elements/1.1/" xmlns:cc="http://creativecommons.org/ns#" xmlns:rdf="http://www.w3.org/1999/02/22-rdf-syntax-ns#">
   <cc:Work>
    <dc:type rdf:resource="http://purl.org/dc/dcmitype/StillImage"/>
    <dc:date>2022-03-21T11:49:14.355185</dc:date>
    <dc:format>image/svg+xml</dc:format>
    <dc:creator>
     <cc:Agent>
      <dc:title>Matplotlib v3.5.1, https://matplotlib.org/</dc:title>
     </cc:Agent>
    </dc:creator>
   </cc:Work>
  </rdf:RDF>
 </metadata>
 <defs>
  <style type="text/css">*{stroke-linejoin: round; stroke-linecap: butt}</style>
 </defs>
 <g id="figure_1">
  <g id="patch_1">
   <path d="M 0 360 
L 504 360 
L 504 0 
L 0 0 
z
" style="fill: #ffffff"/>
  </g>
  <g id="axes_1">
   <g id="patch_2">
    <path d="M 62.86875 237.755222 
L 493.2 237.755222 
L 493.2 25.6425 
L 62.86875 25.6425 
z
" style="fill: #ffffff"/>
   </g>
   <g id="patch_3">
    <path d="M 62.86875 227.149586 
L 183.895116 227.149586 
L 183.895116 205.938314 
L 62.86875 205.938314 
z
" clip-path="url(#p56a49acf62)" style="fill: #1f77b4"/>
   </g>
   <g id="patch_4">
    <path d="M 62.86875 184.727041 
L 115.483253 184.727041 
L 115.483253 163.515769 
L 62.86875 163.515769 
z
" clip-path="url(#p56a49acf62)" style="fill: #1f77b4"/>
   </g>
   <g id="patch_5">
    <path d="M 62.86875 142.304497 
L 103.27544 142.304497 
L 103.27544 121.093225 
L 62.86875 121.093225 
z
" clip-path="url(#p56a49acf62)" style="fill: #1f77b4"/>
   </g>
   <g id="patch_6">
    <path d="M 62.86875 99.881953 
L 106.336553 99.881953 
L 106.336553 78.67068 
L 62.86875 78.67068 
z
" clip-path="url(#p56a49acf62)" style="fill: #1f77b4"/>
   </g>
   <g id="patch_7">
    <path d="M 62.86875 57.459408 
L 120.929315 57.459408 
L 120.929315 36.248136 
L 62.86875 36.248136 
z
" clip-path="url(#p56a49acf62)" style="fill: #1f77b4"/>
   </g>
   <g id="patch_8">
    <path d="M 183.895116 227.149586 
L 249.909498 227.149586 
L 249.909498 205.938314 
L 183.895116 205.938314 
z
" clip-path="url(#p56a49acf62)" style="fill: #ff7f0e"/>
   </g>
   <g id="patch_9">
    <path d="M 115.483253 184.727041 
L 201.327968 184.727041 
L 201.327968 163.515769 
L 115.483253 163.515769 
z
" clip-path="url(#p56a49acf62)" style="fill: #ff7f0e"/>
   </g>
   <g id="patch_10">
    <path d="M 103.27544 142.304497 
L 160.999283 142.304497 
L 160.999283 121.093225 
L 103.27544 121.093225 
z
" clip-path="url(#p56a49acf62)" style="fill: #ff7f0e"/>
   </g>
   <g id="patch_11">
    <path d="M 106.336553 99.881953 
L 134.280141 99.881953 
L 134.280141 78.67068 
L 106.336553 78.67068 
z
" clip-path="url(#p56a49acf62)" style="fill: #ff7f0e"/>
   </g>
   <g id="patch_12">
    <path d="M 120.929315 57.459408 
L 168.743899 57.459408 
L 168.743899 36.248136 
L 120.929315 36.248136 
z
" clip-path="url(#p56a49acf62)" style="fill: #ff7f0e"/>
   </g>
   <g id="patch_13">
    <path d="M 249.909498 227.149586 
L 315.923879 227.149586 
L 315.923879 205.938314 
L 249.909498 205.938314 
z
" clip-path="url(#p56a49acf62)" style="fill: #2ca02c"/>
   </g>
   <g id="patch_14">
    <path d="M 201.327968 184.727041 
L 259.48084 184.727041 
L 259.48084 163.515769 
L 201.327968 163.515769 
z
" clip-path="url(#p56a49acf62)" style="fill: #2ca02c"/>
   </g>
   <g id="patch_15">
    <path d="M 160.999283 142.304497 
L 201.405973 142.304497 
L 201.405973 121.093225 
L 160.999283 121.093225 
z
" clip-path="url(#p56a49acf62)" style="fill: #2ca02c"/>
   </g>
   <g id="patch_16">
    <path d="M 134.280141 99.881953 
L 190.167316 99.881953 
L 190.167316 78.67068 
L 134.280141 78.67068 
z
" clip-path="url(#p56a49acf62)" style="fill: #2ca02c"/>
   </g>
   <g id="patch_17">
    <path d="M 168.743899 57.459408 
L 209.727827 57.459408 
L 209.727827 36.248136 
L 168.743899 36.248136 
z
" clip-path="url(#p56a49acf62)" style="fill: #2ca02c"/>
   </g>
   <g id="patch_18">
    <path d="M 315.923879 227.149586 
L 365.434666 227.149586 
L 365.434666 205.938314 
L 315.923879 205.938314 
z
" clip-path="url(#p56a49acf62)" style="fill: #d62728"/>
   </g>
   <g id="patch_19">
    <path d="M 259.48084 184.727041 
L 289.941868 184.727041 
L 289.941868 163.515769 
L 259.48084 163.515769 
z
" clip-path="url(#p56a49acf62)" style="fill: #d62728"/>
   </g>
   <g id="patch_20">
    <path d="M 201.405973 142.304497 
L 247.585048 142.304497 
L 247.585048 121.093225 
L 201.405973 121.093225 
z
" clip-path="url(#p56a49acf62)" style="fill: #d62728"/>
   </g>
   <g id="patch_21">
    <path d="M 190.167316 99.881953 
L 246.054491 99.881953 
L 246.054491 78.67068 
L 190.167316 78.67068 
z
" clip-path="url(#p56a49acf62)" style="fill: #d62728"/>
   </g>
   <g id="patch_22">
    <path d="M 209.727827 57.459408 
L 250.711756 57.459408 
L 250.711756 36.248136 
L 209.727827 36.248136 
z
" clip-path="url(#p56a49acf62)" style="fill: #d62728"/>
   </g>
   <g id="patch_23">
    <path d="M 365.434666 227.149586 
L 406.693654 227.149586 
L 406.693654 205.938314 
L 365.434666 205.938314 
z
" clip-path="url(#p56a49acf62)" style="fill: #9467bd"/>
   </g>
   <g id="patch_24">
    <path d="M 289.941868 184.727041 
L 323.17208 184.727041 
L 323.17208 163.515769 
L 289.941868 163.515769 
z
" clip-path="url(#p56a49acf62)" style="fill: #9467bd"/>
   </g>
   <g id="patch_25">
    <path d="M 247.585048 142.304497 
L 259.129816 142.304497 
L 259.129816 121.093225 
L 247.585048 121.093225 
z
" clip-path="url(#p56a49acf62)" style="fill: #9467bd"/>
   </g>
   <g id="patch_26">
    <path d="M 246.054491 99.881953 
L 267.788393 99.881953 
L 267.788393 78.67068 
L 246.054491 78.67068 
z
" clip-path="url(#p56a49acf62)" style="fill: #9467bd"/>
   </g>
   <g id="patch_27">
    <path d="M 250.711756 57.459408 
L 288.280357 57.459408 
L 288.280357 36.248136 
L 250.711756 36.248136 
z
" clip-path="url(#p56a49acf62)" style="fill: #9467bd"/>
   </g>
   <g id="patch_28">
    <path d="M 406.693654 227.149586 
L 428.698448 227.149586 
L 428.698448 205.938314 
L 406.693654 205.938314 
z
" clip-path="url(#p56a49acf62)" style="fill: #8c564b"/>
   </g>
   <g id="patch_29">
    <path d="M 323.17208 184.727041 
L 353.633108 184.727041 
L 353.633108 163.515769 
L 323.17208 163.515769 
z
" clip-path="url(#p56a49acf62)" style="fill: #8c564b"/>
   </g>
   <g id="patch_30">
    <path d="M 259.129816 142.304497 
L 325.512236 142.304497 
L 325.512236 121.093225 
L 259.129816 121.093225 
z
" clip-path="url(#p56a49acf62)" style="fill: #8c564b"/>
   </g>
   <g id="patch_31">
    <path d="M 267.788393 99.881953 
L 326.780411 99.881953 
L 326.780411 78.67068 
L 267.788393 78.67068 
z
" clip-path="url(#p56a49acf62)" style="fill: #8c564b"/>
   </g>
   <g id="patch_32">
    <path d="M 288.280357 57.459408 
L 339.510268 57.459408 
L 339.510268 36.248136 
L 288.280357 36.248136 
z
" clip-path="url(#p56a49acf62)" style="fill: #8c564b"/>
   </g>
   <g id="patch_33">
    <path d="M 428.698448 227.149586 
L 447.952643 227.149586 
L 447.952643 205.938314 
L 428.698448 205.938314 
z
" clip-path="url(#p56a49acf62)" style="fill: #e377c2"/>
   </g>
   <g id="patch_34">
    <path d="M 353.633108 184.727041 
L 389.632505 184.727041 
L 389.632505 163.515769 
L 353.633108 163.515769 
z
" clip-path="url(#p56a49acf62)" style="fill: #e377c2"/>
   </g>
   <g id="patch_35">
    <path d="M 325.512236 142.304497 
L 351.487965 142.304497 
L 351.487965 121.093225 
L 325.512236 121.093225 
z
" clip-path="url(#p56a49acf62)" style="fill: #e377c2"/>
   </g>
   <g id="patch_36">
    <path d="M 326.780411 99.881953 
L 370.248214 99.881953 
L 370.248214 78.67068 
L 326.780411 78.67068 
z
" clip-path="url(#p56a49acf62)" style="fill: #e377c2"/>
   </g>
   <g id="patch_37">
    <path d="M 339.510268 57.459408 
L 363.41756 57.459408 
L 363.41756 36.248136 
L 339.510268 36.248136 
z
" clip-path="url(#p56a49acf62)" style="fill: #e377c2"/>
   </g>
   <g id="patch_38">
    <path d="M 447.952643 227.149586 
L 464.456238 227.149586 
L 464.456238 205.938314 
L 447.952643 205.938314 
z
" clip-path="url(#p56a49acf62)" style="fill: #7f7f7f"/>
   </g>
   <g id="patch_39">
    <path d="M 389.632505 184.727041 
L 456.09293 184.727041 
L 456.09293 163.515769 
L 389.632505 163.515769 
z
" clip-path="url(#p56a49acf62)" style="fill: #7f7f7f"/>
   </g>
   <g id="patch_40">
    <path d="M 351.487965 142.304497 
L 409.211808 142.304497 
L 409.211808 121.093225 
L 351.487965 121.093225 
z
" clip-path="url(#p56a49acf62)" style="fill: #7f7f7f"/>
   </g>
   <g id="patch_41">
    <path d="M 370.248214 99.881953 
L 432.345076 99.881953 
L 432.345076 78.67068 
L 370.248214 78.67068 
z
" clip-path="url(#p56a49acf62)" style="fill: #7f7f7f"/>
   </g>
   <g id="patch_42">
    <path d="M 363.41756 57.459408 
L 414.64747 57.459408 
L 414.64747 36.248136 
L 363.41756 36.248136 
z
" clip-path="url(#p56a49acf62)" style="fill: #7f7f7f"/>
   </g>
   <g id="patch_43">
    <path d="M 464.456238 227.149586 
L 472.708036 227.149586 
L 472.708036 205.938314 
L 464.456238 205.938314 
z
" clip-path="url(#p56a49acf62)" style="fill: #bcbd22"/>
   </g>
   <g id="patch_44">
    <path d="M 456.09293 184.727041 
L 472.708036 184.727041 
L 472.708036 163.515769 
L 456.09293 163.515769 
z
" clip-path="url(#p56a49acf62)" style="fill: #bcbd22"/>
   </g>
   <g id="patch_45">
    <path d="M 409.211808 142.304497 
L 472.708036 142.304497 
L 472.708036 121.093225 
L 409.211808 121.093225 
z
" clip-path="url(#p56a49acf62)" style="fill: #bcbd22"/>
   </g>
   <g id="patch_46">
    <path d="M 432.345076 99.881953 
L 472.708036 99.881953 
L 472.708036 78.67068 
L 432.345076 78.67068 
z
" clip-path="url(#p56a49acf62)" style="fill: #bcbd22"/>
   </g>
   <g id="patch_47">
    <path d="M 414.64747 57.459408 
L 472.708036 57.459408 
L 472.708036 36.248136 
L 414.64747 36.248136 
z
" clip-path="url(#p56a49acf62)" style="fill: #bcbd22"/>
   </g>
   <g id="matplotlib.axis_1">
    <g id="xtick_1">
     <g id="line2d_1">
      <defs>
       <path id="m4c99cd72f3" d="M 0 0 
L 0 3.5 
" style="stroke: #000000; stroke-width: 0.8"/>
      </defs>
      <g>
       <use xlink:href="#m4c99cd72f3" x="62.86875" y="237.755222" style="stroke: #000000; stroke-width: 0.8"/>
      </g>
     </g>
     <g id="text_1">
      <text style="font: 10px 'sans-serif'; text-anchor: middle" x="62.86875" y="251.928659" transform="rotate(-0, 62.86875, 251.928659)">0</text>
     </g>
    </g>
    <g id="xtick_2">
     <g id="line2d_2">
      <g>
       <use xlink:href="#m4c99cd72f3" x="144.836607" y="237.755222" style="stroke: #000000; stroke-width: 0.8"/>
      </g>
     </g>
     <g id="text_2">
      <text style="font: 10px 'sans-serif'; text-anchor: middle" x="144.836607" y="251.928659" transform="rotate(-0, 144.836607, 251.928659)">20</text>
     </g>
    </g>
    <g id="xtick_3">
     <g id="line2d_3">
      <g>
       <use xlink:href="#m4c99cd72f3" x="226.804464" y="237.755222" style="stroke: #000000; stroke-width: 0.8"/>
      </g>
     </g>
     <g id="text_3">
      <text style="font: 10px 'sans-serif'; text-anchor: middle" x="226.804464" y="251.928659" transform="rotate(-0, 226.804464, 251.928659)">40</text>
     </g>
    </g>
    <g id="xtick_4">
     <g id="line2d_4">
      <g>
       <use xlink:href="#m4c99cd72f3" x="308.772321" y="237.755222" style="stroke: #000000; stroke-width: 0.8"/>
      </g>
     </g>
     <g id="text_4">
      <text style="font: 10px 'sans-serif'; text-anchor: middle" x="308.772321" y="251.928659" transform="rotate(-0, 308.772321, 251.928659)">60</text>
     </g>
    </g>
    <g id="xtick_5">
     <g id="line2d_5">
      <g>
       <use xlink:href="#m4c99cd72f3" x="390.740179" y="237.755222" style="stroke: #000000; stroke-width: 0.8"/>
      </g>
     </g>
     <g id="text_5">
      <text style="font: 10px 'sans-serif'; text-anchor: middle" x="390.740179" y="251.928659" transform="rotate(-0, 390.740179, 251.928659)">80</text>
     </g>
    </g>
    <g id="xtick_6">
     <g id="line2d_6">
      <g>
       <use xlink:href="#m4c99cd72f3" x="472.708036" y="237.755222" style="stroke: #000000; stroke-width: 0.8"/>
      </g>
     </g>
     <g id="text_6">
      <text style="font: 10px 'sans-serif'; text-anchor: middle" x="472.708036" y="251.928659" transform="rotate(-0, 472.708036, 251.928659)">100</text>
     </g>
    </g>
    <g id="text_7">
     <text style="font: 10px 'sans-serif'; text-anchor: middle" x="278.034375" y="265.288034" transform="rotate(-0, 278.034375, 265.288034)">Ranking of importance</text>
    </g>
   </g>
   <g id="matplotlib.axis_2">
    <g id="ytick_1">
     <g id="line2d_7">
      <defs>
       <path id="m8e343aef83" d="M 0 0 
L -3.5 0 
" style="stroke: #000000; stroke-width: 0.8"/>
      </defs>
      <g>
       <use xlink:href="#m8e343aef83" x="62.86875" y="216.54395" style="stroke: #000000; stroke-width: 0.8"/>
      </g>
     </g>
     <g id="text_8">
      <text style="font: 10px 'sans-serif'; text-anchor: end" x="55.86875" y="220.130668" transform="rotate(-0, 55.86875, 220.130668)">Rank 1</text>
     </g>
    </g>
    <g id="ytick_2">
     <g id="line2d_8">
      <g>
       <use xlink:href="#m8e343aef83" x="62.86875" y="174.121405" style="stroke: #000000; stroke-width: 0.8"/>
      </g>
     </g>
     <g id="text_9">
      <text style="font: 10px 'sans-serif'; text-anchor: end" x="55.86875" y="177.708124" transform="rotate(-0, 55.86875, 177.708124)">Rank 2</text>
     </g>
    </g>
    <g id="ytick_3">
     <g id="line2d_9">
      <g>
       <use xlink:href="#m8e343aef83" x="62.86875" y="131.698861" style="stroke: #000000; stroke-width: 0.8"/>
      </g>
     </g>
     <g id="text_10">
      <text style="font: 10px 'sans-serif'; text-anchor: end" x="55.86875" y="135.28558" transform="rotate(-0, 55.86875, 135.28558)">Rank 3</text>
     </g>
    </g>
    <g id="ytick_4">
     <g id="line2d_10">
      <g>
       <use xlink:href="#m8e343aef83" x="62.86875" y="89.276317" style="stroke: #000000; stroke-width: 0.8"/>
      </g>
     </g>
     <g id="text_11">
      <text style="font: 10px 'sans-serif'; text-anchor: end" x="55.86875" y="92.863035" transform="rotate(-0, 55.86875, 92.863035)">Rank 4</text>
     </g>
    </g>
    <g id="ytick_5">
     <g id="line2d_11">
      <g>
       <use xlink:href="#m8e343aef83" x="62.86875" y="46.853772" style="stroke: #000000; stroke-width: 0.8"/>
      </g>
     </g>
     <g id="text_12">
      <text style="font: 10px 'sans-serif'; text-anchor: end" x="55.86875" y="50.440491" transform="rotate(-0, 55.86875, 50.440491)">Rank 5</text>
     </g>
    </g>
    <g id="text_13">
     <text style="font: 10px 'sans-serif'; text-anchor: middle" x="17.973438" y="131.698861" transform="rotate(-90, 17.973438, 131.698861)">Percentage</text>
    </g>
   </g>
   <g id="patch_48">
    <path d="M 62.86875 237.755222 
L 493.2 237.755222 
" style="fill: none; stroke: #000000; stroke-width: 0.8; stroke-linejoin: miter; stroke-linecap: square"/>
   </g>
   <g id="text_14">
    <text style="font: 10px 'sans-serif'; text-anchor: middle" x="123.381933" y="220.786204" transform="rotate(-0, 123.381933, 220.786204)">30</text>
   </g>
   <g id="text_15">
    <text style="font: 10px 'sans-serif'; text-anchor: middle" x="89.176001" y="178.36366" transform="rotate(-0, 89.176001, 178.36366)">13</text>
   </g>
   <g id="text_16">
    <text style="font: 10px 'sans-serif'; text-anchor: middle" x="83.072095" y="135.941115" transform="rotate(-0, 83.072095, 135.941115)">10</text>
   </g>
   <g id="text_17">
    <text style="font: 10px 'sans-serif'; text-anchor: middle" x="84.602652" y="93.518571" transform="rotate(-0, 84.602652, 93.518571)">11</text>
   </g>
   <g id="text_18">
    <text style="font: 10px 'sans-serif'; text-anchor: middle" x="91.899033" y="51.096027" transform="rotate(-0, 91.899033, 51.096027)">14</text>
   </g>
   <g id="text_19">
    <text style="font: 10px 'sans-serif'; text-anchor: middle" x="216.902307" y="220.786204" transform="rotate(-0, 216.902307, 220.786204)">16</text>
   </g>
   <g id="text_20">
    <text style="font: 10px 'sans-serif'; text-anchor: middle" x="158.405611" y="178.36366" transform="rotate(-0, 158.405611, 178.36366)">21</text>
   </g>
   <g id="text_21">
    <text style="font: 10px 'sans-serif'; text-anchor: middle" x="132.137362" y="135.941115" transform="rotate(-0, 132.137362, 135.941115)">14</text>
   </g>
   <g id="text_22">
    <text style="font: 10px 'sans-serif'; text-anchor: middle" x="120.308347" y="93.518571" transform="rotate(-0, 120.308347, 93.518571)">7</text>
   </g>
   <g id="text_23">
    <text style="font: 10px 'sans-serif'; text-anchor: middle" x="144.836607" y="51.096027" transform="rotate(-0, 144.836607, 51.096027)">12</text>
   </g>
   <g id="text_24">
    <text style="font: 10px 'sans-serif'; text-anchor: middle" x="282.916689" y="220.786204" transform="rotate(-0, 282.916689, 220.786204)">16</text>
   </g>
   <g id="text_25">
    <text style="font: 10px 'sans-serif'; text-anchor: middle" x="230.404404" y="178.36366" transform="rotate(-0, 230.404404, 178.36366)">14</text>
   </g>
   <g id="text_26">
    <text style="font: 10px 'sans-serif'; text-anchor: middle" x="181.202628" y="135.941115" transform="rotate(-0, 181.202628, 135.941115)">10</text>
   </g>
   <g id="text_27">
    <text style="font: 10px 'sans-serif'; text-anchor: middle" x="162.223728" y="93.518571" transform="rotate(-0, 162.223728, 93.518571)">14</text>
   </g>
   <g id="text_28">
    <text style="font: 10px 'sans-serif'; text-anchor: middle" x="189.235863" y="51.096027" transform="rotate(-0, 189.235863, 51.096027)">10</text>
   </g>
   <g id="text_29">
    <text style="font: 10px 'sans-serif'; text-anchor: middle" x="340.679273" y="220.786204" transform="rotate(-0, 340.679273, 220.786204)">12</text>
   </g>
   <g id="text_30">
    <text style="font: 10px 'sans-serif'; text-anchor: middle" x="274.711354" y="178.36366" transform="rotate(-0, 274.711354, 178.36366)">7</text>
   </g>
   <g id="text_31">
    <text style="font: 10px 'sans-serif'; text-anchor: middle" x="224.495511" y="135.941115" transform="rotate(-0, 224.495511, 135.941115)">11</text>
   </g>
   <g id="text_32">
    <text style="font: 10px 'sans-serif'; text-anchor: middle" x="218.110904" y="93.518571" transform="rotate(-0, 218.110904, 93.518571)">14</text>
   </g>
   <g id="text_33">
    <text style="font: 10px 'sans-serif'; text-anchor: middle" x="230.219792" y="51.096027" transform="rotate(-0, 230.219792, 51.096027)">10</text>
   </g>
   <g id="text_34">
    <text style="font: 10px 'sans-serif'; text-anchor: middle" x="386.06416" y="220.786204" transform="rotate(-0, 386.06416, 220.786204)">10</text>
   </g>
   <g id="text_35">
    <text style="font: 10px 'sans-serif'; text-anchor: middle" x="306.556974" y="178.36366" transform="rotate(-0, 306.556974, 178.36366)">8</text>
   </g>
   <g id="text_36">
    <text style="font: 10px 'sans-serif'; text-anchor: middle" x="256.921442" y="93.518571" transform="rotate(-0, 256.921442, 93.518571)">5</text>
   </g>
   <g id="text_37">
    <text style="font: 10px 'sans-serif'; text-anchor: middle" x="269.496057" y="51.096027" transform="rotate(-0, 269.496057, 51.096027)">9</text>
   </g>
   <g id="text_38">
    <text style="font: 10px 'sans-serif'; text-anchor: middle" x="417.696051" y="220.786204" transform="rotate(-0, 417.696051, 220.786204)">5</text>
   </g>
   <g id="text_39">
    <text style="font: 10px 'sans-serif'; text-anchor: middle" x="338.402594" y="178.36366" transform="rotate(-0, 338.402594, 178.36366)">7</text>
   </g>
   <g id="text_40">
    <text style="font: 10px 'sans-serif'; text-anchor: middle" x="292.321026" y="135.941115" transform="rotate(-0, 292.321026, 135.941115)">16</text>
   </g>
   <g id="text_41">
    <text style="font: 10px 'sans-serif'; text-anchor: middle" x="297.284402" y="93.518571" transform="rotate(-0, 297.284402, 93.518571)">14</text>
   </g>
   <g id="text_42">
    <text style="font: 10px 'sans-serif'; text-anchor: middle" x="313.895312" y="51.096027" transform="rotate(-0, 313.895312, 51.096027)">12</text>
   </g>
   <g id="text_43">
    <text style="font: 10px 'sans-serif'; text-anchor: middle" x="438.325545" y="220.786204" transform="rotate(-0, 438.325545, 220.786204)">5</text>
   </g>
   <g id="text_44">
    <text style="font: 10px 'sans-serif'; text-anchor: middle" x="371.632806" y="178.36366" transform="rotate(-0, 371.632806, 178.36366)">9</text>
   </g>
   <g id="text_45">
    <text style="font: 10px 'sans-serif'; text-anchor: middle" x="338.500101" y="135.941115" transform="rotate(-0, 338.500101, 135.941115)">6</text>
   </g>
   <g id="text_46">
    <text style="font: 10px 'sans-serif'; text-anchor: middle" x="348.514313" y="93.518571" transform="rotate(-0, 348.514313, 93.518571)">11</text>
   </g>
   <g id="text_47">
    <text style="font: 10px 'sans-serif'; text-anchor: middle" x="351.463914" y="51.096027" transform="rotate(-0, 351.463914, 51.096027)">6</text>
   </g>
   <g id="text_48">
    <text style="font: 10px 'sans-serif'; text-anchor: middle" x="422.862717" y="178.36366" transform="rotate(-0, 422.862717, 178.36366)">16</text>
   </g>
   <g id="text_49">
    <text style="font: 10px 'sans-serif'; text-anchor: middle" x="380.349887" y="135.941115" transform="rotate(-0, 380.349887, 135.941115)">14</text>
   </g>
   <g id="text_50">
    <text style="font: 10px 'sans-serif'; text-anchor: middle" x="401.296645" y="93.518571" transform="rotate(-0, 401.296645, 93.518571)">15</text>
   </g>
   <g id="text_51">
    <text style="font: 10px 'sans-serif'; text-anchor: middle" x="389.032515" y="51.096027" transform="rotate(-0, 389.032515, 51.096027)">12</text>
   </g>
   <g id="text_52">
    <text style="font: 10px 'sans-serif'; text-anchor: middle" x="440.959922" y="135.941115" transform="rotate(-0, 440.959922, 135.941115)">15</text>
   </g>
   <g id="text_53">
    <text style="font: 10px 'sans-serif'; text-anchor: middle" x="452.526556" y="93.518571" transform="rotate(-0, 452.526556, 93.518571)">10</text>
   </g>
   <g id="text_54">
    <text style="font: 10px 'sans-serif'; text-anchor: middle" x="443.677753" y="51.096027" transform="rotate(-0, 443.677753, 51.096027)">14</text>
   </g>
   <g id="text_55">
    <text style="font: 12px 'sans-serif'; text-anchor: middle" x="278.034375" y="19.6425" transform="rotate(-0, 278.034375, 19.6425)">Reasons to choose current job: United States</text>
   </g>
   <g id="legend_1">
    <g id="patch_49">
     <path d="M 72.975 349.545568 
L 483.09375 349.545568 
Q 485.09375 349.545568 485.09375 347.545568 
L 485.09375 276.57213 
Q 485.09375 274.57213 483.09375 274.57213 
L 72.975 274.57213 
Q 70.975 274.57213 70.975 276.57213 
L 70.975 347.545568 
Q 70.975 349.545568 72.975 349.545568 
z
" style="fill: #ffffff; opacity: 0.8; stroke: #cccccc; stroke-linejoin: miter"/>
    </g>
    <g id="patch_50">
     <path d="M 74.975 285.769005 
L 94.975 285.769005 
L 94.975 278.769005 
L 74.975 278.769005 
z
" style="fill: #1f77b4"/>
    </g>
    <g id="text_56">
     <text style="font: 10px 'sans-serif'; text-anchor: start" x="102.975" y="285.769005" transform="rotate(-0, 102.975, 285.769005)">Desire to work in a research environment</text>
    </g>
    <g id="patch_51">
     <path d="M 74.975 300.026818 
L 94.975 300.026818 
L 94.975 293.026818 
L 74.975 293.026818 
z
" style="fill: #ff7f0e"/>
    </g>
    <g id="text_57">
     <text style="font: 10px 'sans-serif'; text-anchor: start" x="102.975" y="300.026818" transform="rotate(-0, 102.975, 300.026818)">Desire to advance research</text>
    </g>
    <g id="patch_52">
     <path d="M 74.975 314.479943 
L 94.975 314.479943 
L 94.975 307.479943 
L 74.975 307.479943 
z
" style="fill: #2ca02c"/>
    </g>
    <g id="text_58">
     <text style="font: 10px 'sans-serif'; text-anchor: start" x="102.975" y="314.479943" transform="rotate(-0, 102.975, 314.479943)">Opportunity to develop software</text>
    </g>
    <g id="patch_53">
     <path d="M 74.975 328.820568 
L 94.975 328.820568 
L 94.975 321.820568 
L 74.975 321.820568 
z
" style="fill: #d62728"/>
    </g>
    <g id="text_59">
     <text style="font: 10px 'sans-serif'; text-anchor: start" x="102.975" y="328.820568" transform="rotate(-0, 102.975, 328.820568)">Freedom to choose own working practices</text>
    </g>
    <g id="patch_54">
     <path d="M 74.975 343.401818 
L 94.975 343.401818 
L 94.975 336.401818 
L 74.975 336.401818 
z
" style="fill: #9467bd"/>
    </g>
    <g id="text_60">
     <text style="font: 10px 'sans-serif'; text-anchor: start" x="102.975" y="343.401818" transform="rotate(-0, 102.975, 343.401818)">Opportunity for career advancement</text>
    </g>
    <g id="patch_55">
     <path d="M 310.271875 285.769005 
L 330.271875 285.769005 
L 330.271875 278.769005 
L 310.271875 278.769005 
z
" style="fill: #8c564b"/>
    </g>
    <g id="text_61">
     <text style="font: 10px 'sans-serif'; text-anchor: start" x="338.271875" y="285.769005" transform="rotate(-0, 338.271875, 285.769005)">Ability to work across disciplines</text>
    </g>
    <g id="patch_56">
     <path d="M 310.271875 300.10963 
L 330.271875 300.10963 
L 330.271875 293.10963 
L 310.271875 293.10963 
z
" style="fill: #e377c2"/>
    </g>
    <g id="text_62">
     <text style="font: 10px 'sans-serif'; text-anchor: start" x="338.271875" y="300.10963" transform="rotate(-0, 338.271875, 300.10963)">The salary</text>
    </g>
    <g id="patch_57">
     <path d="M 310.271875 314.426818 
L 330.271875 314.426818 
L 330.271875 307.426818 
L 310.271875 307.426818 
z
" style="fill: #7f7f7f"/>
    </g>
    <g id="text_63">
     <text style="font: 10px 'sans-serif'; text-anchor: start" x="338.271875" y="314.426818" transform="rotate(-0, 338.271875, 314.426818)">I want to learn new skills</text>
    </g>
    <g id="patch_58">
     <path d="M 310.271875 328.708068 
L 330.271875 328.708068 
L 330.271875 321.708068 
L 310.271875 321.708068 
z
" style="fill: #bcbd22"/>
    </g>
    <g id="text_64">
     <text style="font: 10px 'sans-serif'; text-anchor: start" x="338.271875" y="328.708068" transform="rotate(-0, 338.271875, 328.708068)">Flexible working hours</text>
    </g>
   </g>
  </g>
 </g>
 <defs>
  <clipPath id="p56a49acf62">
   <rect x="62.86875" y="25.6425" width="430.33125" height="212.112722"/>
  </clipPath>
 </defs>
</svg>
