<?xml version="1.0" encoding="utf-8" standalone="no"?>
<!DOCTYPE svg PUBLIC "-//W3C//DTD SVG 1.1//EN"
  "http://www.w3.org/Graphics/SVG/1.1/DTD/svg11.dtd">
<svg height="360pt" version="1.1" viewBox="0 0 504 360" width="504pt" xmlns="http://www.w3.org/2000/svg" xmlns:xlink="http://www.w3.org/1999/xlink">
 <metadata>
  <rdf:RDF xmlns:cc="http://creativecommons.org/ns#" xmlns:dc="http://purl.org/dc/elements/1.1/" xmlns:rdf="http://www.w3.org/1999/02/22-rdf-syntax-ns#">
   <cc:Work>
    <dc:type rdf:resource="http://purl.org/dc/dcmitype/StillImage"/>
    <dc:date>2021-03-29T22:00:56.979595</dc:date>
    <dc:format>image/svg+xml</dc:format>
    <dc:creator>
     <cc:Agent>
      <dc:title>Matplotlib v3.4.0, https://matplotlib.org/</dc:title>
     </cc:Agent>
    </dc:creator>
   </cc:Work>
  </rdf:RDF>
 </metadata>
 <defs>
  <style type="text/css">*{stroke-linecap:butt;stroke-linejoin:round;}</style>
 </defs>
 <g id="figure_1">
  <g id="patch_1">
   <path d="M 0 360 
L 504 360 
L 504 0 
L 0 0 
z
" style="fill:#ffffff;"/>
  </g>
  <g id="axes_1">
   <g id="patch_2">
    <path d="M 65.998438 236.433125 
L 443.240781 236.433125 
L 443.240781 25.918125 
L 65.998438 25.918125 
z
" style="fill:#ffffff;"/>
   </g>
   <g id="patch_3">
    <path clip-path="url(#p10665914bd)" d="M 65.998438 225.907375 
L 173.781964 225.907375 
L 173.781964 204.855875 
L 65.998438 204.855875 
z
" style="fill:#1f77b4;"/>
   </g>
   <g id="patch_4">
    <path clip-path="url(#p10665914bd)" d="M 65.998438 183.804375 
L 116.297417 183.804375 
L 116.297417 162.752875 
L 65.998438 162.752875 
z
" style="fill:#1f77b4;"/>
   </g>
   <g id="patch_5">
    <path clip-path="url(#p10665914bd)" d="M 65.998438 141.701375 
L 87.555143 141.701375 
L 87.555143 120.649875 
L 65.998438 120.649875 
z
" style="fill:#1f77b4;"/>
   </g>
   <g id="patch_6">
    <path clip-path="url(#p10665914bd)" d="M 65.998438 99.598375 
L 101.92628 99.598375 
L 101.92628 78.546875 
L 65.998438 78.546875 
z
" style="fill:#1f77b4;"/>
   </g>
   <g id="patch_7">
    <path clip-path="url(#p10665914bd)" d="M 65.998438 57.495375 
L 87.555143 57.495375 
L 87.555143 36.443875 
L 65.998438 36.443875 
z
" style="fill:#1f77b4;"/>
   </g>
   <g id="patch_8">
    <path clip-path="url(#p10665914bd)" d="M 173.781964 225.907375 
L 252.823217 225.907375 
L 252.823217 204.855875 
L 173.781964 204.855875 
z
" style="fill:#ff7f0e;"/>
   </g>
   <g id="patch_9">
    <path clip-path="url(#p10665914bd)" d="M 116.297417 183.804375 
L 152.225259 183.804375 
L 152.225259 162.752875 
L 116.297417 162.752875 
z
" style="fill:#ff7f0e;"/>
   </g>
   <g id="patch_10">
    <path clip-path="url(#p10665914bd)" d="M 87.555143 141.701375 
L 130.668554 141.701375 
L 130.668554 120.649875 
L 87.555143 120.649875 
z
" style="fill:#ff7f0e;"/>
   </g>
   <g id="patch_11">
    <path clip-path="url(#p10665914bd)" d="M 101.92628 99.598375 
L 137.854122 99.598375 
L 137.854122 78.546875 
L 101.92628 78.546875 
z
" style="fill:#ff7f0e;"/>
   </g>
   <g id="patch_12">
    <path clip-path="url(#p10665914bd)" d="M 87.555143 57.495375 
L 116.297417 57.495375 
L 116.297417 36.443875 
L 87.555143 36.443875 
z
" style="fill:#ff7f0e;"/>
   </g>
   <g id="patch_13">
    <path clip-path="url(#p10665914bd)" d="M 252.823217 225.907375 
L 317.493333 225.907375 
L 317.493333 204.855875 
L 252.823217 204.855875 
z
" style="fill:#2ca02c;"/>
   </g>
   <g id="patch_14">
    <path clip-path="url(#p10665914bd)" d="M 152.225259 183.804375 
L 238.45208 183.804375 
L 238.45208 162.752875 
L 152.225259 162.752875 
z
" style="fill:#2ca02c;"/>
   </g>
   <g id="patch_15">
    <path clip-path="url(#p10665914bd)" d="M 130.668554 141.701375 
L 188.153101 141.701375 
L 188.153101 120.649875 
L 130.668554 120.649875 
z
" style="fill:#2ca02c;"/>
   </g>
   <g id="patch_16">
    <path clip-path="url(#p10665914bd)" d="M 137.854122 99.598375 
L 180.967533 99.598375 
L 180.967533 78.546875 
L 137.854122 78.546875 
z
" style="fill:#2ca02c;"/>
   </g>
   <g id="patch_17">
    <path clip-path="url(#p10665914bd)" d="M 116.297417 57.495375 
L 152.225259 57.495375 
L 152.225259 36.443875 
L 116.297417 36.443875 
z
" style="fill:#2ca02c;"/>
   </g>
   <g id="patch_18">
    <path clip-path="url(#p10665914bd)" d="M 317.493333 225.907375 
L 346.235607 225.907375 
L 346.235607 204.855875 
L 317.493333 204.855875 
z
" style="fill:#d62728;"/>
   </g>
   <g id="patch_19">
    <path clip-path="url(#p10665914bd)" d="M 238.45208 183.804375 
L 281.565491 183.804375 
L 281.565491 162.752875 
L 238.45208 162.752875 
z
" style="fill:#d62728;"/>
   </g>
   <g id="patch_20">
    <path clip-path="url(#p10665914bd)" d="M 188.153101 141.701375 
L 231.266512 141.701375 
L 231.266512 120.649875 
L 188.153101 120.649875 
z
" style="fill:#d62728;"/>
   </g>
   <g id="patch_21">
    <path clip-path="url(#p10665914bd)" d="M 180.967533 99.598375 
L 231.266512 99.598375 
L 231.266512 78.546875 
L 180.967533 78.546875 
z
" style="fill:#d62728;"/>
   </g>
   <g id="patch_22">
    <path clip-path="url(#p10665914bd)" d="M 152.225259 57.495375 
L 209.709807 57.495375 
L 209.709807 36.443875 
L 152.225259 36.443875 
z
" style="fill:#d62728;"/>
   </g>
   <g id="patch_23">
    <path clip-path="url(#p10665914bd)" d="M 346.235607 225.907375 
L 367.792312 225.907375 
L 367.792312 204.855875 
L 346.235607 204.855875 
z
" style="fill:#9467bd;"/>
   </g>
   <g id="patch_24">
    <path clip-path="url(#p10665914bd)" d="M 281.565491 183.804375 
L 295.936628 183.804375 
L 295.936628 162.752875 
L 281.565491 162.752875 
z
" style="fill:#9467bd;"/>
   </g>
   <g id="patch_25">
    <path clip-path="url(#p10665914bd)" d="M 231.266512 141.701375 
L 281.565491 141.701375 
L 281.565491 120.649875 
L 231.266512 120.649875 
z
" style="fill:#9467bd;"/>
   </g>
   <g id="patch_26">
    <path clip-path="url(#p10665914bd)" d="M 231.266512 99.598375 
L 281.565491 99.598375 
L 281.565491 78.546875 
L 231.266512 78.546875 
z
" style="fill:#9467bd;"/>
   </g>
   <g id="patch_27">
    <path clip-path="url(#p10665914bd)" d="M 209.709807 57.495375 
L 274.379923 57.495375 
L 274.379923 36.443875 
L 209.709807 36.443875 
z
" style="fill:#9467bd;"/>
   </g>
   <g id="patch_28">
    <path clip-path="url(#p10665914bd)" d="M 367.792312 225.907375 
L 389.349018 225.907375 
L 389.349018 204.855875 
L 367.792312 204.855875 
z
" style="fill:#8c564b;"/>
   </g>
   <g id="patch_29">
    <path clip-path="url(#p10665914bd)" d="M 295.936628 183.804375 
L 331.86447 183.804375 
L 331.86447 162.752875 
L 295.936628 162.752875 
z
" style="fill:#8c564b;"/>
   </g>
   <g id="patch_30">
    <path clip-path="url(#p10665914bd)" d="M 281.565491 141.701375 
L 295.936628 141.701375 
L 295.936628 120.649875 
L 281.565491 120.649875 
z
" style="fill:#8c564b;"/>
   </g>
   <g id="patch_31">
    <path clip-path="url(#p10665914bd)" d="M 281.565491 99.598375 
L 295.936628 99.598375 
L 295.936628 78.546875 
L 281.565491 78.546875 
z
" style="fill:#8c564b;"/>
   </g>
   <g id="patch_32">
    <path clip-path="url(#p10665914bd)" d="M 274.379923 57.495375 
L 303.122196 57.495375 
L 303.122196 36.443875 
L 274.379923 36.443875 
z
" style="fill:#8c564b;"/>
   </g>
   <g id="patch_33">
    <path clip-path="url(#p10665914bd)" d="M 389.349018 225.907375 
L 410.905723 225.907375 
L 410.905723 204.855875 
L 389.349018 204.855875 
z
" style="fill:#e377c2;"/>
   </g>
   <g id="patch_34">
    <path clip-path="url(#p10665914bd)" d="M 331.86447 183.804375 
L 389.349018 183.804375 
L 389.349018 162.752875 
L 331.86447 162.752875 
z
" style="fill:#e377c2;"/>
   </g>
   <g id="patch_35">
    <path clip-path="url(#p10665914bd)" d="M 295.936628 141.701375 
L 324.678902 141.701375 
L 324.678902 120.649875 
L 295.936628 120.649875 
z
" style="fill:#e377c2;"/>
   </g>
   <g id="patch_36">
    <path clip-path="url(#p10665914bd)" d="M 295.936628 99.598375 
L 353.421176 99.598375 
L 353.421176 78.546875 
L 295.936628 78.546875 
z
" style="fill:#e377c2;"/>
   </g>
   <g id="patch_37">
    <path clip-path="url(#p10665914bd)" d="M 303.122196 57.495375 
L 339.050039 57.495375 
L 339.050039 36.443875 
L 303.122196 36.443875 
z
" style="fill:#e377c2;"/>
   </g>
   <g id="patch_38">
    <path clip-path="url(#p10665914bd)" d="M 410.905723 225.907375 
L 425.27686 225.907375 
L 425.27686 204.855875 
L 410.905723 204.855875 
z
" style="fill:#7f7f7f;"/>
   </g>
   <g id="patch_39">
    <path clip-path="url(#p10665914bd)" d="M 389.349018 183.804375 
L 403.720155 183.804375 
L 403.720155 162.752875 
L 389.349018 162.752875 
z
" style="fill:#7f7f7f;"/>
   </g>
   <g id="patch_40">
    <path clip-path="url(#p10665914bd)" d="M 324.678902 141.701375 
L 353.421176 141.701375 
L 353.421176 120.649875 
L 324.678902 120.649875 
z
" style="fill:#7f7f7f;"/>
   </g>
   <g id="patch_41">
    <path clip-path="url(#p10665914bd)" d="M 353.421176 99.598375 
L 374.977881 99.598375 
L 374.977881 78.546875 
L 353.421176 78.546875 
z
" style="fill:#7f7f7f;"/>
   </g>
   <g id="patch_42">
    <path clip-path="url(#p10665914bd)" d="M 339.050039 57.495375 
L 382.163449 57.495375 
L 382.163449 36.443875 
L 339.050039 36.443875 
z
" style="fill:#7f7f7f;"/>
   </g>
   <g id="patch_43">
    <path clip-path="url(#p10665914bd)" d="M 65.998438 225.907375 
L 65.998438 225.907375 
L 65.998438 204.855875 
L 65.998438 204.855875 
z
" style="fill:#bcbd22;"/>
   </g>
   <g id="patch_44">
    <path clip-path="url(#p10665914bd)" d="M 403.720155 183.804375 
L 425.27686 183.804375 
L 425.27686 162.752875 
L 403.720155 162.752875 
z
" style="fill:#bcbd22;"/>
   </g>
   <g id="patch_45">
    <path clip-path="url(#p10665914bd)" d="M 353.421176 141.701375 
L 425.27686 141.701375 
L 425.27686 120.649875 
L 353.421176 120.649875 
z
" style="fill:#bcbd22;"/>
   </g>
   <g id="patch_46">
    <path clip-path="url(#p10665914bd)" d="M 374.977881 99.598375 
L 425.27686 99.598375 
L 425.27686 78.546875 
L 374.977881 78.546875 
z
" style="fill:#bcbd22;"/>
   </g>
   <g id="patch_47">
    <path clip-path="url(#p10665914bd)" d="M 382.163449 57.495375 
L 425.27686 57.495375 
L 425.27686 36.443875 
L 382.163449 36.443875 
z
" style="fill:#bcbd22;"/>
   </g>
   <g id="matplotlib.axis_1">
    <g id="xtick_1">
     <g id="line2d_1">
      <defs>
       <path d="M 0 0 
L 0 3.5 
" id="mc3a356a46d" style="stroke:#000000;stroke-width:0.8;"/>
      </defs>
      <g>
       <use style="stroke:#000000;stroke-width:0.8;" x="65.998438" xlink:href="#mc3a356a46d" y="236.433125"/>
      </g>
     </g>
     <g id="text_1">
      <text style="font-family:DejaVu Sans;font-size:10px;font-stretch:normal;font-style:normal;font-weight:normal;text-anchor:middle;" transform="rotate(-0, 65.998438, 251.031563)" x="65.998438" y="251.031563">0</text>
     </g>
    </g>
    <g id="xtick_2">
     <g id="line2d_2">
      <g>
       <use style="stroke:#000000;stroke-width:0.8;" x="137.854122" xlink:href="#mc3a356a46d" y="236.433125"/>
      </g>
     </g>
     <g id="text_2">
      <text style="font-family:DejaVu Sans;font-size:10px;font-stretch:normal;font-style:normal;font-weight:normal;text-anchor:middle;" transform="rotate(-0, 137.854122, 251.031563)" x="137.854122" y="251.031563">20</text>
     </g>
    </g>
    <g id="xtick_3">
     <g id="line2d_3">
      <g>
       <use style="stroke:#000000;stroke-width:0.8;" x="209.709807" xlink:href="#mc3a356a46d" y="236.433125"/>
      </g>
     </g>
     <g id="text_3">
      <text style="font-family:DejaVu Sans;font-size:10px;font-stretch:normal;font-style:normal;font-weight:normal;text-anchor:middle;" transform="rotate(-0, 209.709807, 251.031563)" x="209.709807" y="251.031563">40</text>
     </g>
    </g>
    <g id="xtick_4">
     <g id="line2d_4">
      <g>
       <use style="stroke:#000000;stroke-width:0.8;" x="281.565491" xlink:href="#mc3a356a46d" y="236.433125"/>
      </g>
     </g>
     <g id="text_4">
      <text style="font-family:DejaVu Sans;font-size:10px;font-stretch:normal;font-style:normal;font-weight:normal;text-anchor:middle;" transform="rotate(-0, 281.565491, 251.031563)" x="281.565491" y="251.031563">60</text>
     </g>
    </g>
    <g id="xtick_5">
     <g id="line2d_5">
      <g>
       <use style="stroke:#000000;stroke-width:0.8;" x="353.421176" xlink:href="#mc3a356a46d" y="236.433125"/>
      </g>
     </g>
     <g id="text_5">
      <text style="font-family:DejaVu Sans;font-size:10px;font-stretch:normal;font-style:normal;font-weight:normal;text-anchor:middle;" transform="rotate(-0, 353.421176, 251.031563)" x="353.421176" y="251.031563">80</text>
     </g>
    </g>
    <g id="xtick_6">
     <g id="line2d_6">
      <g>
       <use style="stroke:#000000;stroke-width:0.8;" x="425.27686" xlink:href="#mc3a356a46d" y="236.433125"/>
      </g>
     </g>
     <g id="text_6">
      <text style="font-family:DejaVu Sans;font-size:10px;font-stretch:normal;font-style:normal;font-weight:normal;text-anchor:middle;" transform="rotate(-0, 425.27686, 251.031563)" x="425.27686" y="251.031563">100</text>
     </g>
    </g>
    <g id="text_7">
     <text style="font-family:DejaVu Sans;font-size:10px;font-stretch:normal;font-style:normal;font-weight:normal;text-anchor:middle;" transform="rotate(-0, 254.619609, 264.709688)" x="254.619609" y="264.709688">Ranking of importance</text>
    </g>
   </g>
   <g id="matplotlib.axis_2">
    <g id="ytick_1">
     <g id="line2d_7">
      <defs>
       <path d="M 0 0 
L -3.5 0 
" id="m82278324de" style="stroke:#000000;stroke-width:0.8;"/>
      </defs>
      <g>
       <use style="stroke:#000000;stroke-width:0.8;" x="65.998438" xlink:href="#m82278324de" y="215.381625"/>
      </g>
     </g>
     <g id="text_8">
      <text style="font-family:DejaVu Sans;font-size:10px;font-stretch:normal;font-style:normal;font-weight:normal;text-anchor:end;" transform="rotate(-0, 58.998438, 219.180844)" x="58.998438" y="219.180844">Rank 1</text>
     </g>
    </g>
    <g id="ytick_2">
     <g id="line2d_8">
      <g>
       <use style="stroke:#000000;stroke-width:0.8;" x="65.998438" xlink:href="#m82278324de" y="173.278625"/>
      </g>
     </g>
     <g id="text_9">
      <text style="font-family:DejaVu Sans;font-size:10px;font-stretch:normal;font-style:normal;font-weight:normal;text-anchor:end;" transform="rotate(-0, 58.998438, 177.077844)" x="58.998438" y="177.077844">Rank 2</text>
     </g>
    </g>
    <g id="ytick_3">
     <g id="line2d_9">
      <g>
       <use style="stroke:#000000;stroke-width:0.8;" x="65.998438" xlink:href="#m82278324de" y="131.175625"/>
      </g>
     </g>
     <g id="text_10">
      <text style="font-family:DejaVu Sans;font-size:10px;font-stretch:normal;font-style:normal;font-weight:normal;text-anchor:end;" transform="rotate(-0, 58.998438, 134.974844)" x="58.998438" y="134.974844">Rank 3</text>
     </g>
    </g>
    <g id="ytick_4">
     <g id="line2d_10">
      <g>
       <use style="stroke:#000000;stroke-width:0.8;" x="65.998438" xlink:href="#m82278324de" y="89.072625"/>
      </g>
     </g>
     <g id="text_11">
      <text style="font-family:DejaVu Sans;font-size:10px;font-stretch:normal;font-style:normal;font-weight:normal;text-anchor:end;" transform="rotate(-0, 58.998438, 92.871844)" x="58.998438" y="92.871844">Rank 4</text>
     </g>
    </g>
    <g id="ytick_5">
     <g id="line2d_11">
      <g>
       <use style="stroke:#000000;stroke-width:0.8;" x="65.998438" xlink:href="#m82278324de" y="46.969625"/>
      </g>
     </g>
     <g id="text_12">
      <text style="font-family:DejaVu Sans;font-size:10px;font-stretch:normal;font-style:normal;font-weight:normal;text-anchor:end;" transform="rotate(-0, 58.998438, 50.768844)" x="58.998438" y="50.768844">Rank 5</text>
     </g>
    </g>
    <g id="text_13">
     <text style="font-family:DejaVu Sans;font-size:10px;font-stretch:normal;font-style:normal;font-weight:normal;text-anchor:middle;" transform="rotate(-90, 18.398438, 131.175625)" x="18.398438" y="131.175625">Percentage</text>
    </g>
   </g>
   <g id="patch_48">
    <path d="M 65.998438 236.433125 
L 443.240781 236.433125 
" style="fill:none;stroke:#000000;stroke-linecap:square;stroke-linejoin:miter;stroke-width:0.8;"/>
   </g>
   <g id="text_14">
    <text style="font-family:DejaVu Sans;font-size:10px;font-stretch:normal;font-style:normal;font-weight:normal;text-anchor:middle;" transform="rotate(-0, 119.890201, 219.591925)" x="119.890201" y="219.591925">30</text>
   </g>
   <g id="text_15">
    <text style="font-family:DejaVu Sans;font-size:10px;font-stretch:normal;font-style:normal;font-weight:normal;text-anchor:middle;" transform="rotate(-0, 91.147927, 177.488925)" x="91.147927" y="177.488925">14</text>
   </g>
   <g id="text_16">
    <text style="font-family:DejaVu Sans;font-size:10px;font-stretch:normal;font-style:normal;font-weight:normal;text-anchor:middle;" transform="rotate(-0, 76.77679, 135.385925)" x="76.77679" y="135.385925">6</text>
   </g>
   <g id="text_17">
    <text style="font-family:DejaVu Sans;font-size:10px;font-stretch:normal;font-style:normal;font-weight:normal;text-anchor:middle;" transform="rotate(-0, 83.962359, 93.282925)" x="83.962359" y="93.282925">10</text>
   </g>
   <g id="text_18">
    <text style="font-family:DejaVu Sans;font-size:10px;font-stretch:normal;font-style:normal;font-weight:normal;text-anchor:middle;" transform="rotate(-0, 76.77679, 51.179925)" x="76.77679" y="51.179925">6</text>
   </g>
   <g id="text_19">
    <text style="font-family:DejaVu Sans;font-size:10px;font-stretch:normal;font-style:normal;font-weight:normal;text-anchor:middle;" transform="rotate(-0, 213.302591, 219.591925)" x="213.302591" y="219.591925">22</text>
   </g>
   <g id="text_20">
    <text style="font-family:DejaVu Sans;font-size:10px;font-stretch:normal;font-style:normal;font-weight:normal;text-anchor:middle;" transform="rotate(-0, 134.261338, 177.488925)" x="134.261338" y="177.488925">10</text>
   </g>
   <g id="text_21">
    <text style="font-family:DejaVu Sans;font-size:10px;font-stretch:normal;font-style:normal;font-weight:normal;text-anchor:middle;" transform="rotate(-0, 109.111848, 135.385925)" x="109.111848" y="135.385925">12</text>
   </g>
   <g id="text_22">
    <text style="font-family:DejaVu Sans;font-size:10px;font-stretch:normal;font-style:normal;font-weight:normal;text-anchor:middle;" transform="rotate(-0, 119.890201, 93.282925)" x="119.890201" y="93.282925">10</text>
   </g>
   <g id="text_23">
    <text style="font-family:DejaVu Sans;font-size:10px;font-stretch:normal;font-style:normal;font-weight:normal;text-anchor:middle;" transform="rotate(-0, 101.92628, 51.179925)" x="101.92628" y="51.179925">8</text>
   </g>
   <g id="text_24">
    <text style="font-family:DejaVu Sans;font-size:10px;font-stretch:normal;font-style:normal;font-weight:normal;text-anchor:middle;" transform="rotate(-0, 285.158275, 219.591925)" x="285.158275" y="219.591925">18</text>
   </g>
   <g id="text_25">
    <text style="font-family:DejaVu Sans;font-size:10px;font-stretch:normal;font-style:normal;font-weight:normal;text-anchor:middle;" transform="rotate(-0, 195.33867, 177.488925)" x="195.33867" y="177.488925">24</text>
   </g>
   <g id="text_26">
    <text style="font-family:DejaVu Sans;font-size:10px;font-stretch:normal;font-style:normal;font-weight:normal;text-anchor:middle;" transform="rotate(-0, 159.410827, 135.385925)" x="159.410827" y="135.385925">16</text>
   </g>
   <g id="text_27">
    <text style="font-family:DejaVu Sans;font-size:10px;font-stretch:normal;font-style:normal;font-weight:normal;text-anchor:middle;" transform="rotate(-0, 159.410827, 93.282925)" x="159.410827" y="93.282925">12</text>
   </g>
   <g id="text_28">
    <text style="font-family:DejaVu Sans;font-size:10px;font-stretch:normal;font-style:normal;font-weight:normal;text-anchor:middle;" transform="rotate(-0, 134.261338, 51.179925)" x="134.261338" y="51.179925">10</text>
   </g>
   <g id="text_29">
    <text style="font-family:DejaVu Sans;font-size:10px;font-stretch:normal;font-style:normal;font-weight:normal;text-anchor:middle;" transform="rotate(-0, 331.86447, 219.591925)" x="331.86447" y="219.591925">8</text>
   </g>
   <g id="text_30">
    <text style="font-family:DejaVu Sans;font-size:10px;font-stretch:normal;font-style:normal;font-weight:normal;text-anchor:middle;" transform="rotate(-0, 260.008786, 177.488925)" x="260.008786" y="177.488925">12</text>
   </g>
   <g id="text_31">
    <text style="font-family:DejaVu Sans;font-size:10px;font-stretch:normal;font-style:normal;font-weight:normal;text-anchor:middle;" transform="rotate(-0, 209.709807, 135.385925)" x="209.709807" y="135.385925">12</text>
   </g>
   <g id="text_32">
    <text style="font-family:DejaVu Sans;font-size:10px;font-stretch:normal;font-style:normal;font-weight:normal;text-anchor:middle;" transform="rotate(-0, 206.117022, 93.282925)" x="206.117022" y="93.282925">14</text>
   </g>
   <g id="text_33">
    <text style="font-family:DejaVu Sans;font-size:10px;font-stretch:normal;font-style:normal;font-weight:normal;text-anchor:middle;" transform="rotate(-0, 180.967533, 51.179925)" x="180.967533" y="51.179925">16</text>
   </g>
   <g id="text_34">
    <text style="font-family:DejaVu Sans;font-size:10px;font-stretch:normal;font-style:normal;font-weight:normal;text-anchor:middle;" transform="rotate(-0, 357.01396, 219.591925)" x="357.01396" y="219.591925">6</text>
   </g>
   <g id="text_35">
    <text style="font-family:DejaVu Sans;font-size:10px;font-stretch:normal;font-style:normal;font-weight:normal;text-anchor:middle;" transform="rotate(-0, 256.416001, 135.385925)" x="256.416001" y="135.385925">14</text>
   </g>
   <g id="text_36">
    <text style="font-family:DejaVu Sans;font-size:10px;font-stretch:normal;font-style:normal;font-weight:normal;text-anchor:middle;" transform="rotate(-0, 256.416001, 93.282925)" x="256.416001" y="93.282925">14</text>
   </g>
   <g id="text_37">
    <text style="font-family:DejaVu Sans;font-size:10px;font-stretch:normal;font-style:normal;font-weight:normal;text-anchor:middle;" transform="rotate(-0, 242.044865, 51.179925)" x="242.044865" y="51.179925">18</text>
   </g>
   <g id="text_38">
    <text style="font-family:DejaVu Sans;font-size:10px;font-stretch:normal;font-style:normal;font-weight:normal;text-anchor:middle;" transform="rotate(-0, 378.570665, 219.591925)" x="378.570665" y="219.591925">6</text>
   </g>
   <g id="text_39">
    <text style="font-family:DejaVu Sans;font-size:10px;font-stretch:normal;font-style:normal;font-weight:normal;text-anchor:middle;" transform="rotate(-0, 313.900549, 177.488925)" x="313.900549" y="177.488925">10</text>
   </g>
   <g id="text_40">
    <text style="font-family:DejaVu Sans;font-size:10px;font-stretch:normal;font-style:normal;font-weight:normal;text-anchor:middle;" transform="rotate(-0, 288.75106, 51.179925)" x="288.75106" y="51.179925">8</text>
   </g>
   <g id="text_41">
    <text style="font-family:DejaVu Sans;font-size:10px;font-stretch:normal;font-style:normal;font-weight:normal;text-anchor:middle;" transform="rotate(-0, 400.127371, 219.591925)" x="400.127371" y="219.591925">6</text>
   </g>
   <g id="text_42">
    <text style="font-family:DejaVu Sans;font-size:10px;font-stretch:normal;font-style:normal;font-weight:normal;text-anchor:middle;" transform="rotate(-0, 360.606744, 177.488925)" x="360.606744" y="177.488925">16</text>
   </g>
   <g id="text_43">
    <text style="font-family:DejaVu Sans;font-size:10px;font-stretch:normal;font-style:normal;font-weight:normal;text-anchor:middle;" transform="rotate(-0, 310.307765, 135.385925)" x="310.307765" y="135.385925">8</text>
   </g>
   <g id="text_44">
    <text style="font-family:DejaVu Sans;font-size:10px;font-stretch:normal;font-style:normal;font-weight:normal;text-anchor:middle;" transform="rotate(-0, 324.678902, 93.282925)" x="324.678902" y="93.282925">16</text>
   </g>
   <g id="text_45">
    <text style="font-family:DejaVu Sans;font-size:10px;font-stretch:normal;font-style:normal;font-weight:normal;text-anchor:middle;" transform="rotate(-0, 321.086118, 51.179925)" x="321.086118" y="51.179925">10</text>
   </g>
   <g id="text_46">
    <text style="font-family:DejaVu Sans;font-size:10px;font-stretch:normal;font-style:normal;font-weight:normal;text-anchor:middle;" transform="rotate(-0, 339.050039, 135.385925)" x="339.050039" y="135.385925">8</text>
   </g>
   <g id="text_47">
    <text style="font-family:DejaVu Sans;font-size:10px;font-stretch:normal;font-style:normal;font-weight:normal;text-anchor:middle;" transform="rotate(-0, 364.199528, 93.282925)" x="364.199528" y="93.282925">6</text>
   </g>
   <g id="text_48">
    <text style="font-family:DejaVu Sans;font-size:10px;font-stretch:normal;font-style:normal;font-weight:normal;text-anchor:middle;" transform="rotate(-0, 360.606744, 51.179925)" x="360.606744" y="51.179925">12</text>
   </g>
   <g id="text_49">
    <text style="font-family:DejaVu Sans;font-size:10px;font-stretch:normal;font-style:normal;font-weight:normal;text-anchor:middle;" transform="rotate(-0, 414.498507, 177.488925)" x="414.498507" y="177.488925">6</text>
   </g>
   <g id="text_50">
    <text style="font-family:DejaVu Sans;font-size:10px;font-stretch:normal;font-style:normal;font-weight:normal;text-anchor:middle;" transform="rotate(-0, 389.349018, 135.385925)" x="389.349018" y="135.385925">20</text>
   </g>
   <g id="text_51">
    <text style="font-family:DejaVu Sans;font-size:10px;font-stretch:normal;font-style:normal;font-weight:normal;text-anchor:middle;" transform="rotate(-0, 400.127371, 93.282925)" x="400.127371" y="93.282925">14</text>
   </g>
   <g id="text_52">
    <text style="font-family:DejaVu Sans;font-size:10px;font-stretch:normal;font-style:normal;font-weight:normal;text-anchor:middle;" transform="rotate(-0, 403.720155, 51.179925)" x="403.720155" y="51.179925">12</text>
   </g>
   <g id="text_53">
    <text style="font-family:DejaVu Sans;font-size:12px;font-stretch:normal;font-style:normal;font-weight:normal;text-anchor:middle;" transform="rotate(-0, 254.619609, 19.918125)" x="254.619609" y="19.918125">Reasons to choose current job: World</text>
   </g>
   <g id="legend_1">
    <g id="patch_49">
     <path d="M 17.307891 349.401 
L 491.931328 349.401 
Q 493.931328 349.401 493.931328 347.401 
L 493.931328 275.010375 
Q 493.931328 273.010375 491.931328 273.010375 
L 17.307891 273.010375 
Q 15.307891 273.010375 15.307891 275.010375 
L 15.307891 347.401 
Q 15.307891 349.401 17.307891 349.401 
z
" style="fill:#ffffff;opacity:0.8;stroke:#cccccc;stroke-linejoin:miter;"/>
    </g>
    <g id="patch_50">
     <path d="M 19.307891 284.608812 
L 39.307891 284.608812 
L 39.307891 277.608812 
L 19.307891 277.608812 
z
" style="fill:#1f77b4;"/>
    </g>
    <g id="text_54">
     <text style="font-family:DejaVu Sans;font-size:10px;font-stretch:normal;font-style:normal;font-weight:normal;text-anchor:start;" transform="rotate(-0, 47.307891, 284.608812)" x="47.307891" y="284.608812">Freedom to choose own working practices</text>
    </g>
    <g id="patch_51">
     <path d="M 19.307891 299.286938 
L 39.307891 299.286938 
L 39.307891 292.286938 
L 19.307891 292.286938 
z
" style="fill:#ff7f0e;"/>
    </g>
    <g id="text_55">
     <text style="font-family:DejaVu Sans;font-size:10px;font-stretch:normal;font-style:normal;font-weight:normal;text-anchor:start;" transform="rotate(-0, 47.307891, 299.286938)" x="47.307891" y="299.286938">Desire to advance research</text>
    </g>
    <g id="patch_52">
     <path d="M 19.307891 313.965063 
L 39.307891 313.965063 
L 39.307891 306.965063 
L 19.307891 306.965063 
z
" style="fill:#2ca02c;"/>
    </g>
    <g id="text_56">
     <text style="font-family:DejaVu Sans;font-size:10px;font-stretch:normal;font-style:normal;font-weight:normal;text-anchor:start;" transform="rotate(-0, 47.307891, 313.965063)" x="47.307891" y="313.965063">Desire to work in a research environment</text>
    </g>
    <g id="patch_53">
     <path d="M 19.307891 328.643188 
L 39.307891 328.643188 
L 39.307891 321.643188 
L 19.307891 321.643188 
z
" style="fill:#d62728;"/>
    </g>
    <g id="text_57">
     <text style="font-family:DejaVu Sans;font-size:10px;font-stretch:normal;font-style:normal;font-weight:normal;text-anchor:start;" transform="rotate(-0, 47.307891, 328.643188)" x="47.307891" y="328.643188">Flexible working hours</text>
    </g>
    <g id="patch_54">
     <path d="M 19.307891 343.321313 
L 39.307891 343.321313 
L 39.307891 336.321313 
L 19.307891 336.321313 
z
" style="fill:#9467bd;"/>
    </g>
    <g id="text_58">
     <text style="font-family:DejaVu Sans;font-size:10px;font-stretch:normal;font-style:normal;font-weight:normal;text-anchor:start;" transform="rotate(-0, 47.307891, 343.321313)" x="47.307891" y="343.321313">I want to learn new skills</text>
    </g>
    <g id="patch_55">
     <path d="M 278.042266 284.608812 
L 298.042266 284.608812 
L 298.042266 277.608812 
L 278.042266 277.608812 
z
" style="fill:#8c564b;"/>
    </g>
    <g id="text_59">
     <text style="font-family:DejaVu Sans;font-size:10px;font-stretch:normal;font-style:normal;font-weight:normal;text-anchor:start;" transform="rotate(-0, 306.042266, 284.608812)" x="306.042266" y="284.608812">Opportunity for career advancement</text>
    </g>
    <g id="patch_56">
     <path d="M 278.042266 299.286938 
L 298.042266 299.286938 
L 298.042266 292.286938 
L 278.042266 292.286938 
z
" style="fill:#e377c2;"/>
    </g>
    <g id="text_60">
     <text style="font-family:DejaVu Sans;font-size:10px;font-stretch:normal;font-style:normal;font-weight:normal;text-anchor:start;" transform="rotate(-0, 306.042266, 299.286938)" x="306.042266" y="299.286938">Opportunity to develop software</text>
    </g>
    <g id="patch_57">
     <path d="M 278.042266 313.965063 
L 298.042266 313.965063 
L 298.042266 306.965063 
L 278.042266 306.965063 
z
" style="fill:#7f7f7f;"/>
    </g>
    <g id="text_61">
     <text style="font-family:DejaVu Sans;font-size:10px;font-stretch:normal;font-style:normal;font-weight:normal;text-anchor:start;" transform="rotate(-0, 306.042266, 313.965063)" x="306.042266" y="313.965063">The salary</text>
    </g>
    <g id="patch_58">
     <path d="M 278.042266 328.643188 
L 298.042266 328.643188 
L 298.042266 321.643188 
L 278.042266 321.643188 
z
" style="fill:#bcbd22;"/>
    </g>
    <g id="text_62">
     <text style="font-family:DejaVu Sans;font-size:10px;font-stretch:normal;font-style:normal;font-weight:normal;text-anchor:start;" transform="rotate(-0, 306.042266, 328.643188)" x="306.042266" y="328.643188">Ability to work across disciplines</text>
    </g>
   </g>
  </g>
 </g>
 <defs>
  <clipPath id="p10665914bd">
   <rect height="210.515" width="377.242344" x="65.998438" y="25.918125"/>
  </clipPath>
 </defs>
</svg>
