<?xml version="1.0" encoding="utf-8" standalone="no"?>
<!DOCTYPE svg PUBLIC "-//W3C//DTD SVG 1.1//EN"
  "http://www.w3.org/Graphics/SVG/1.1/DTD/svg11.dtd">
<svg xmlns:xlink="http://www.w3.org/1999/xlink" width="504pt" height="360pt" viewBox="0 0 504 360" xmlns="http://www.w3.org/2000/svg" version="1.1">
 <metadata>
  <rdf:RDF xmlns:dc="http://purl.org/dc/elements/1.1/" xmlns:cc="http://creativecommons.org/ns#" xmlns:rdf="http://www.w3.org/1999/02/22-rdf-syntax-ns#">
   <cc:Work>
    <dc:type rdf:resource="http://purl.org/dc/dcmitype/StillImage"/>
    <dc:date>2022-03-21T16:07:43.148040</dc:date>
    <dc:format>image/svg+xml</dc:format>
    <dc:creator>
     <cc:Agent>
      <dc:title>Matplotlib v3.5.1, https://matplotlib.org/</dc:title>
     </cc:Agent>
    </dc:creator>
   </cc:Work>
  </rdf:RDF>
 </metadata>
 <defs>
  <style type="text/css">*{stroke-linejoin: round; stroke-linecap: butt}</style>
 </defs>
 <g id="figure_1">
  <g id="patch_1">
   <path d="M 0 360 
L 504 360 
L 504 0 
L 0 0 
z
" style="fill: #ffffff"/>
  </g>
  <g id="axes_1">
   <g id="patch_2">
    <path d="M 62.86875 237.890563 
L 493.2 237.890563 
L 493.2 25.6425 
L 62.86875 25.6425 
z
" style="fill: #ffffff"/>
   </g>
   <g id="patch_3">
    <path d="M 62.86875 227.27816 
L 183.895116 227.27816 
L 183.895116 206.053354 
L 62.86875 206.053354 
z
" clip-path="url(#p6d9098386a)" style="fill: #1f77b4"/>
   </g>
   <g id="patch_4">
    <path d="M 62.86875 184.828547 
L 115.483253 184.828547 
L 115.483253 163.603741 
L 62.86875 163.603741 
z
" clip-path="url(#p6d9098386a)" style="fill: #1f77b4"/>
   </g>
   <g id="patch_5">
    <path d="M 62.86875 142.378935 
L 103.27544 142.378935 
L 103.27544 121.154128 
L 62.86875 121.154128 
z
" clip-path="url(#p6d9098386a)" style="fill: #1f77b4"/>
   </g>
   <g id="patch_6">
    <path d="M 62.86875 99.929322 
L 106.336553 99.929322 
L 106.336553 78.704516 
L 62.86875 78.704516 
z
" clip-path="url(#p6d9098386a)" style="fill: #1f77b4"/>
   </g>
   <g id="patch_7">
    <path d="M 62.86875 57.479709 
L 120.929315 57.479709 
L 120.929315 36.254903 
L 62.86875 36.254903 
z
" clip-path="url(#p6d9098386a)" style="fill: #1f77b4"/>
   </g>
   <g id="patch_8">
    <path d="M 183.895116 227.27816 
L 249.909498 227.27816 
L 249.909498 206.053354 
L 183.895116 206.053354 
z
" clip-path="url(#p6d9098386a)" style="fill: #ff7f0e"/>
   </g>
   <g id="patch_9">
    <path d="M 115.483253 184.828547 
L 201.327968 184.828547 
L 201.327968 163.603741 
L 115.483253 163.603741 
z
" clip-path="url(#p6d9098386a)" style="fill: #ff7f0e"/>
   </g>
   <g id="patch_10">
    <path d="M 103.27544 142.378935 
L 160.999283 142.378935 
L 160.999283 121.154128 
L 103.27544 121.154128 
z
" clip-path="url(#p6d9098386a)" style="fill: #ff7f0e"/>
   </g>
   <g id="patch_11">
    <path d="M 106.336553 99.929322 
L 134.280141 99.929322 
L 134.280141 78.704516 
L 106.336553 78.704516 
z
" clip-path="url(#p6d9098386a)" style="fill: #ff7f0e"/>
   </g>
   <g id="patch_12">
    <path d="M 120.929315 57.479709 
L 168.743899 57.479709 
L 168.743899 36.254903 
L 120.929315 36.254903 
z
" clip-path="url(#p6d9098386a)" style="fill: #ff7f0e"/>
   </g>
   <g id="patch_13">
    <path d="M 249.909498 227.27816 
L 315.923879 227.27816 
L 315.923879 206.053354 
L 249.909498 206.053354 
z
" clip-path="url(#p6d9098386a)" style="fill: #2ca02c"/>
   </g>
   <g id="patch_14">
    <path d="M 201.327968 184.828547 
L 259.48084 184.828547 
L 259.48084 163.603741 
L 201.327968 163.603741 
z
" clip-path="url(#p6d9098386a)" style="fill: #2ca02c"/>
   </g>
   <g id="patch_15">
    <path d="M 160.999283 142.378935 
L 201.405973 142.378935 
L 201.405973 121.154128 
L 160.999283 121.154128 
z
" clip-path="url(#p6d9098386a)" style="fill: #2ca02c"/>
   </g>
   <g id="patch_16">
    <path d="M 134.280141 99.929322 
L 190.167316 99.929322 
L 190.167316 78.704516 
L 134.280141 78.704516 
z
" clip-path="url(#p6d9098386a)" style="fill: #2ca02c"/>
   </g>
   <g id="patch_17">
    <path d="M 168.743899 57.479709 
L 209.727827 57.479709 
L 209.727827 36.254903 
L 168.743899 36.254903 
z
" clip-path="url(#p6d9098386a)" style="fill: #2ca02c"/>
   </g>
   <g id="patch_18">
    <path d="M 315.923879 227.27816 
L 365.434666 227.27816 
L 365.434666 206.053354 
L 315.923879 206.053354 
z
" clip-path="url(#p6d9098386a)" style="fill: #d62728"/>
   </g>
   <g id="patch_19">
    <path d="M 259.48084 184.828547 
L 289.941868 184.828547 
L 289.941868 163.603741 
L 259.48084 163.603741 
z
" clip-path="url(#p6d9098386a)" style="fill: #d62728"/>
   </g>
   <g id="patch_20">
    <path d="M 201.405973 142.378935 
L 247.585048 142.378935 
L 247.585048 121.154128 
L 201.405973 121.154128 
z
" clip-path="url(#p6d9098386a)" style="fill: #d62728"/>
   </g>
   <g id="patch_21">
    <path d="M 190.167316 99.929322 
L 246.054491 99.929322 
L 246.054491 78.704516 
L 190.167316 78.704516 
z
" clip-path="url(#p6d9098386a)" style="fill: #d62728"/>
   </g>
   <g id="patch_22">
    <path d="M 209.727827 57.479709 
L 250.711756 57.479709 
L 250.711756 36.254903 
L 209.727827 36.254903 
z
" clip-path="url(#p6d9098386a)" style="fill: #d62728"/>
   </g>
   <g id="patch_23">
    <path d="M 365.434666 227.27816 
L 406.693654 227.27816 
L 406.693654 206.053354 
L 365.434666 206.053354 
z
" clip-path="url(#p6d9098386a)" style="fill: #9467bd"/>
   </g>
   <g id="patch_24">
    <path d="M 289.941868 184.828547 
L 323.17208 184.828547 
L 323.17208 163.603741 
L 289.941868 163.603741 
z
" clip-path="url(#p6d9098386a)" style="fill: #9467bd"/>
   </g>
   <g id="patch_25">
    <path d="M 247.585048 142.378935 
L 259.129816 142.378935 
L 259.129816 121.154128 
L 247.585048 121.154128 
z
" clip-path="url(#p6d9098386a)" style="fill: #9467bd"/>
   </g>
   <g id="patch_26">
    <path d="M 246.054491 99.929322 
L 267.788393 99.929322 
L 267.788393 78.704516 
L 246.054491 78.704516 
z
" clip-path="url(#p6d9098386a)" style="fill: #9467bd"/>
   </g>
   <g id="patch_27">
    <path d="M 250.711756 57.479709 
L 288.280357 57.479709 
L 288.280357 36.254903 
L 250.711756 36.254903 
z
" clip-path="url(#p6d9098386a)" style="fill: #9467bd"/>
   </g>
   <g id="patch_28">
    <path d="M 406.693654 227.27816 
L 428.698448 227.27816 
L 428.698448 206.053354 
L 406.693654 206.053354 
z
" clip-path="url(#p6d9098386a)" style="fill: #8c564b"/>
   </g>
   <g id="patch_29">
    <path d="M 323.17208 184.828547 
L 353.633108 184.828547 
L 353.633108 163.603741 
L 323.17208 163.603741 
z
" clip-path="url(#p6d9098386a)" style="fill: #8c564b"/>
   </g>
   <g id="patch_30">
    <path d="M 259.129816 142.378935 
L 325.512236 142.378935 
L 325.512236 121.154128 
L 259.129816 121.154128 
z
" clip-path="url(#p6d9098386a)" style="fill: #8c564b"/>
   </g>
   <g id="patch_31">
    <path d="M 267.788393 99.929322 
L 326.780411 99.929322 
L 326.780411 78.704516 
L 267.788393 78.704516 
z
" clip-path="url(#p6d9098386a)" style="fill: #8c564b"/>
   </g>
   <g id="patch_32">
    <path d="M 288.280357 57.479709 
L 339.510268 57.479709 
L 339.510268 36.254903 
L 288.280357 36.254903 
z
" clip-path="url(#p6d9098386a)" style="fill: #8c564b"/>
   </g>
   <g id="patch_33">
    <path d="M 428.698448 227.27816 
L 447.952643 227.27816 
L 447.952643 206.053354 
L 428.698448 206.053354 
z
" clip-path="url(#p6d9098386a)" style="fill: #e377c2"/>
   </g>
   <g id="patch_34">
    <path d="M 353.633108 184.828547 
L 389.632505 184.828547 
L 389.632505 163.603741 
L 353.633108 163.603741 
z
" clip-path="url(#p6d9098386a)" style="fill: #e377c2"/>
   </g>
   <g id="patch_35">
    <path d="M 325.512236 142.378935 
L 351.487965 142.378935 
L 351.487965 121.154128 
L 325.512236 121.154128 
z
" clip-path="url(#p6d9098386a)" style="fill: #e377c2"/>
   </g>
   <g id="patch_36">
    <path d="M 326.780411 99.929322 
L 370.248214 99.929322 
L 370.248214 78.704516 
L 326.780411 78.704516 
z
" clip-path="url(#p6d9098386a)" style="fill: #e377c2"/>
   </g>
   <g id="patch_37">
    <path d="M 339.510268 57.479709 
L 363.41756 57.479709 
L 363.41756 36.254903 
L 339.510268 36.254903 
z
" clip-path="url(#p6d9098386a)" style="fill: #e377c2"/>
   </g>
   <g id="patch_38">
    <path d="M 447.952643 227.27816 
L 464.456238 227.27816 
L 464.456238 206.053354 
L 447.952643 206.053354 
z
" clip-path="url(#p6d9098386a)" style="fill: #7f7f7f"/>
   </g>
   <g id="patch_39">
    <path d="M 389.632505 184.828547 
L 456.09293 184.828547 
L 456.09293 163.603741 
L 389.632505 163.603741 
z
" clip-path="url(#p6d9098386a)" style="fill: #7f7f7f"/>
   </g>
   <g id="patch_40">
    <path d="M 351.487965 142.378935 
L 409.211808 142.378935 
L 409.211808 121.154128 
L 351.487965 121.154128 
z
" clip-path="url(#p6d9098386a)" style="fill: #7f7f7f"/>
   </g>
   <g id="patch_41">
    <path d="M 370.248214 99.929322 
L 432.345076 99.929322 
L 432.345076 78.704516 
L 370.248214 78.704516 
z
" clip-path="url(#p6d9098386a)" style="fill: #7f7f7f"/>
   </g>
   <g id="patch_42">
    <path d="M 363.41756 57.479709 
L 414.64747 57.479709 
L 414.64747 36.254903 
L 363.41756 36.254903 
z
" clip-path="url(#p6d9098386a)" style="fill: #7f7f7f"/>
   </g>
   <g id="patch_43">
    <path d="M 464.456238 227.27816 
L 472.708036 227.27816 
L 472.708036 206.053354 
L 464.456238 206.053354 
z
" clip-path="url(#p6d9098386a)" style="fill: #bcbd22"/>
   </g>
   <g id="patch_44">
    <path d="M 456.09293 184.828547 
L 472.708036 184.828547 
L 472.708036 163.603741 
L 456.09293 163.603741 
z
" clip-path="url(#p6d9098386a)" style="fill: #bcbd22"/>
   </g>
   <g id="patch_45">
    <path d="M 409.211808 142.378935 
L 472.708036 142.378935 
L 472.708036 121.154128 
L 409.211808 121.154128 
z
" clip-path="url(#p6d9098386a)" style="fill: #bcbd22"/>
   </g>
   <g id="patch_46">
    <path d="M 432.345076 99.929322 
L 472.708036 99.929322 
L 472.708036 78.704516 
L 432.345076 78.704516 
z
" clip-path="url(#p6d9098386a)" style="fill: #bcbd22"/>
   </g>
   <g id="patch_47">
    <path d="M 414.64747 57.479709 
L 472.708036 57.479709 
L 472.708036 36.254903 
L 414.64747 36.254903 
z
" clip-path="url(#p6d9098386a)" style="fill: #bcbd22"/>
   </g>
   <g id="matplotlib.axis_1">
    <g id="xtick_1">
     <g id="line2d_1">
      <defs>
       <path id="m4c99cd72f3" d="M 0 0 
L 0 3.5 
" style="stroke: #000000; stroke-width: 0.8"/>
      </defs>
      <g>
       <use xlink:href="#m4c99cd72f3" x="62.86875" y="237.890563" style="stroke: #000000; stroke-width: 0.8"/>
      </g>
     </g>
     <g id="text_1">
      <text style="font: 10px 'sans-serif'; text-anchor: middle" x="62.86875" y="252.064001" transform="rotate(-0, 62.86875, 252.064001)">0</text>
     </g>
    </g>
    <g id="xtick_2">
     <g id="line2d_2">
      <g>
       <use xlink:href="#m4c99cd72f3" x="144.836607" y="237.890563" style="stroke: #000000; stroke-width: 0.8"/>
      </g>
     </g>
     <g id="text_2">
      <text style="font: 10px 'sans-serif'; text-anchor: middle" x="144.836607" y="252.064001" transform="rotate(-0, 144.836607, 252.064001)">20</text>
     </g>
    </g>
    <g id="xtick_3">
     <g id="line2d_3">
      <g>
       <use xlink:href="#m4c99cd72f3" x="226.804464" y="237.890563" style="stroke: #000000; stroke-width: 0.8"/>
      </g>
     </g>
     <g id="text_3">
      <text style="font: 10px 'sans-serif'; text-anchor: middle" x="226.804464" y="252.064001" transform="rotate(-0, 226.804464, 252.064001)">40</text>
     </g>
    </g>
    <g id="xtick_4">
     <g id="line2d_4">
      <g>
       <use xlink:href="#m4c99cd72f3" x="308.772321" y="237.890563" style="stroke: #000000; stroke-width: 0.8"/>
      </g>
     </g>
     <g id="text_4">
      <text style="font: 10px 'sans-serif'; text-anchor: middle" x="308.772321" y="252.064001" transform="rotate(-0, 308.772321, 252.064001)">60</text>
     </g>
    </g>
    <g id="xtick_5">
     <g id="line2d_5">
      <g>
       <use xlink:href="#m4c99cd72f3" x="390.740179" y="237.890563" style="stroke: #000000; stroke-width: 0.8"/>
      </g>
     </g>
     <g id="text_5">
      <text style="font: 10px 'sans-serif'; text-anchor: middle" x="390.740179" y="252.064001" transform="rotate(-0, 390.740179, 252.064001)">80</text>
     </g>
    </g>
    <g id="xtick_6">
     <g id="line2d_6">
      <g>
       <use xlink:href="#m4c99cd72f3" x="472.708036" y="237.890563" style="stroke: #000000; stroke-width: 0.8"/>
      </g>
     </g>
     <g id="text_6">
      <text style="font: 10px 'sans-serif'; text-anchor: middle" x="472.708036" y="252.064001" transform="rotate(-0, 472.708036, 252.064001)">100</text>
     </g>
    </g>
    <g id="text_7">
     <text style="font: 10px 'sans-serif'; text-anchor: middle" x="278.034375" y="265.423376" transform="rotate(-0, 278.034375, 265.423376)">Ranking of importance</text>
    </g>
   </g>
   <g id="matplotlib.axis_2">
    <g id="ytick_1">
     <g id="line2d_7">
      <defs>
       <path id="m8e343aef83" d="M 0 0 
L -3.5 0 
" style="stroke: #000000; stroke-width: 0.8"/>
      </defs>
      <g>
       <use xlink:href="#m8e343aef83" x="62.86875" y="216.665757" style="stroke: #000000; stroke-width: 0.8"/>
      </g>
     </g>
     <g id="text_8">
      <text style="font: 10px 'sans-serif'; text-anchor: end" x="55.86875" y="220.252476" transform="rotate(-0, 55.86875, 220.252476)">Rank 1</text>
     </g>
    </g>
    <g id="ytick_2">
     <g id="line2d_8">
      <g>
       <use xlink:href="#m8e343aef83" x="62.86875" y="174.216144" style="stroke: #000000; stroke-width: 0.8"/>
      </g>
     </g>
     <g id="text_9">
      <text style="font: 10px 'sans-serif'; text-anchor: end" x="55.86875" y="177.802863" transform="rotate(-0, 55.86875, 177.802863)">Rank 2</text>
     </g>
    </g>
    <g id="ytick_3">
     <g id="line2d_9">
      <g>
       <use xlink:href="#m8e343aef83" x="62.86875" y="131.766532" style="stroke: #000000; stroke-width: 0.8"/>
      </g>
     </g>
     <g id="text_10">
      <text style="font: 10px 'sans-serif'; text-anchor: end" x="55.86875" y="135.35325" transform="rotate(-0, 55.86875, 135.35325)">Rank 3</text>
     </g>
    </g>
    <g id="ytick_4">
     <g id="line2d_10">
      <g>
       <use xlink:href="#m8e343aef83" x="62.86875" y="89.316919" style="stroke: #000000; stroke-width: 0.8"/>
      </g>
     </g>
     <g id="text_11">
      <text style="font: 10px 'sans-serif'; text-anchor: end" x="55.86875" y="92.903638" transform="rotate(-0, 55.86875, 92.903638)">Rank 4</text>
     </g>
    </g>
    <g id="ytick_5">
     <g id="line2d_11">
      <g>
       <use xlink:href="#m8e343aef83" x="62.86875" y="46.867306" style="stroke: #000000; stroke-width: 0.8"/>
      </g>
     </g>
     <g id="text_12">
      <text style="font: 10px 'sans-serif'; text-anchor: end" x="55.86875" y="50.454025" transform="rotate(-0, 55.86875, 50.454025)">Rank 5</text>
     </g>
    </g>
    <g id="text_13">
     <text style="font: 10px 'sans-serif'; text-anchor: middle" x="17.973438" y="131.766532" transform="rotate(-90, 17.973438, 131.766532)">Percentage</text>
    </g>
   </g>
   <g id="patch_48">
    <path d="M 62.86875 237.890563 
L 493.2 237.890563 
" style="fill: none; stroke: #000000; stroke-width: 0.8; stroke-linejoin: miter; stroke-linecap: square"/>
   </g>
   <g id="text_14">
    <text style="font: 10px 'sans-serif'; text-anchor: middle" x="123.381933" y="220.910718" transform="rotate(-0, 123.381933, 220.910718)">30</text>
   </g>
   <g id="text_15">
    <text style="font: 10px 'sans-serif'; text-anchor: middle" x="89.176001" y="178.461105" transform="rotate(-0, 89.176001, 178.461105)">13</text>
   </g>
   <g id="text_16">
    <text style="font: 10px 'sans-serif'; text-anchor: middle" x="83.072095" y="136.011493" transform="rotate(-0, 83.072095, 136.011493)">10</text>
   </g>
   <g id="text_17">
    <text style="font: 10px 'sans-serif'; text-anchor: middle" x="84.602652" y="93.56188" transform="rotate(-0, 84.602652, 93.56188)">11</text>
   </g>
   <g id="text_18">
    <text style="font: 10px 'sans-serif'; text-anchor: middle" x="91.899033" y="51.112268" transform="rotate(-0, 91.899033, 51.112268)">14</text>
   </g>
   <g id="text_19">
    <text style="font: 10px 'sans-serif'; text-anchor: middle" x="216.902307" y="220.910718" transform="rotate(-0, 216.902307, 220.910718)">16</text>
   </g>
   <g id="text_20">
    <text style="font: 10px 'sans-serif'; text-anchor: middle" x="158.405611" y="178.461105" transform="rotate(-0, 158.405611, 178.461105)">21</text>
   </g>
   <g id="text_21">
    <text style="font: 10px 'sans-serif'; text-anchor: middle" x="132.137362" y="136.011493" transform="rotate(-0, 132.137362, 136.011493)">14</text>
   </g>
   <g id="text_22">
    <text style="font: 10px 'sans-serif'; text-anchor: middle" x="120.308347" y="93.56188" transform="rotate(-0, 120.308347, 93.56188)">7</text>
   </g>
   <g id="text_23">
    <text style="font: 10px 'sans-serif'; text-anchor: middle" x="144.836607" y="51.112268" transform="rotate(-0, 144.836607, 51.112268)">12</text>
   </g>
   <g id="text_24">
    <text style="font: 10px 'sans-serif'; text-anchor: middle" x="282.916689" y="220.910718" transform="rotate(-0, 282.916689, 220.910718)">16</text>
   </g>
   <g id="text_25">
    <text style="font: 10px 'sans-serif'; text-anchor: middle" x="230.404404" y="178.461105" transform="rotate(-0, 230.404404, 178.461105)">14</text>
   </g>
   <g id="text_26">
    <text style="font: 10px 'sans-serif'; text-anchor: middle" x="181.202628" y="136.011493" transform="rotate(-0, 181.202628, 136.011493)">10</text>
   </g>
   <g id="text_27">
    <text style="font: 10px 'sans-serif'; text-anchor: middle" x="162.223728" y="93.56188" transform="rotate(-0, 162.223728, 93.56188)">14</text>
   </g>
   <g id="text_28">
    <text style="font: 10px 'sans-serif'; text-anchor: middle" x="189.235863" y="51.112268" transform="rotate(-0, 189.235863, 51.112268)">10</text>
   </g>
   <g id="text_29">
    <text style="font: 10px 'sans-serif'; text-anchor: middle" x="340.679273" y="220.910718" transform="rotate(-0, 340.679273, 220.910718)">12</text>
   </g>
   <g id="text_30">
    <text style="font: 10px 'sans-serif'; text-anchor: middle" x="274.711354" y="178.461105" transform="rotate(-0, 274.711354, 178.461105)">7</text>
   </g>
   <g id="text_31">
    <text style="font: 10px 'sans-serif'; text-anchor: middle" x="224.495511" y="136.011493" transform="rotate(-0, 224.495511, 136.011493)">11</text>
   </g>
   <g id="text_32">
    <text style="font: 10px 'sans-serif'; text-anchor: middle" x="218.110904" y="93.56188" transform="rotate(-0, 218.110904, 93.56188)">14</text>
   </g>
   <g id="text_33">
    <text style="font: 10px 'sans-serif'; text-anchor: middle" x="230.219792" y="51.112268" transform="rotate(-0, 230.219792, 51.112268)">10</text>
   </g>
   <g id="text_34">
    <text style="font: 10px 'sans-serif'; text-anchor: middle" x="386.06416" y="220.910718" transform="rotate(-0, 386.06416, 220.910718)">10</text>
   </g>
   <g id="text_35">
    <text style="font: 10px 'sans-serif'; text-anchor: middle" x="306.556974" y="178.461105" transform="rotate(-0, 306.556974, 178.461105)">8</text>
   </g>
   <g id="text_36">
    <text style="font: 10px 'sans-serif'; text-anchor: middle" x="256.921442" y="93.56188" transform="rotate(-0, 256.921442, 93.56188)">5</text>
   </g>
   <g id="text_37">
    <text style="font: 10px 'sans-serif'; text-anchor: middle" x="269.496057" y="51.112268" transform="rotate(-0, 269.496057, 51.112268)">9</text>
   </g>
   <g id="text_38">
    <text style="font: 10px 'sans-serif'; text-anchor: middle" x="417.696051" y="220.910718" transform="rotate(-0, 417.696051, 220.910718)">5</text>
   </g>
   <g id="text_39">
    <text style="font: 10px 'sans-serif'; text-anchor: middle" x="338.402594" y="178.461105" transform="rotate(-0, 338.402594, 178.461105)">7</text>
   </g>
   <g id="text_40">
    <text style="font: 10px 'sans-serif'; text-anchor: middle" x="292.321026" y="136.011493" transform="rotate(-0, 292.321026, 136.011493)">16</text>
   </g>
   <g id="text_41">
    <text style="font: 10px 'sans-serif'; text-anchor: middle" x="297.284402" y="93.56188" transform="rotate(-0, 297.284402, 93.56188)">14</text>
   </g>
   <g id="text_42">
    <text style="font: 10px 'sans-serif'; text-anchor: middle" x="313.895312" y="51.112268" transform="rotate(-0, 313.895312, 51.112268)">12</text>
   </g>
   <g id="text_43">
    <text style="font: 10px 'sans-serif'; text-anchor: middle" x="438.325545" y="220.910718" transform="rotate(-0, 438.325545, 220.910718)">5</text>
   </g>
   <g id="text_44">
    <text style="font: 10px 'sans-serif'; text-anchor: middle" x="371.632806" y="178.461105" transform="rotate(-0, 371.632806, 178.461105)">9</text>
   </g>
   <g id="text_45">
    <text style="font: 10px 'sans-serif'; text-anchor: middle" x="338.500101" y="136.011493" transform="rotate(-0, 338.500101, 136.011493)">6</text>
   </g>
   <g id="text_46">
    <text style="font: 10px 'sans-serif'; text-anchor: middle" x="348.514313" y="93.56188" transform="rotate(-0, 348.514313, 93.56188)">11</text>
   </g>
   <g id="text_47">
    <text style="font: 10px 'sans-serif'; text-anchor: middle" x="351.463914" y="51.112268" transform="rotate(-0, 351.463914, 51.112268)">6</text>
   </g>
   <g id="text_48">
    <text style="font: 10px 'sans-serif'; text-anchor: middle" x="422.862717" y="178.461105" transform="rotate(-0, 422.862717, 178.461105)">16</text>
   </g>
   <g id="text_49">
    <text style="font: 10px 'sans-serif'; text-anchor: middle" x="380.349887" y="136.011493" transform="rotate(-0, 380.349887, 136.011493)">14</text>
   </g>
   <g id="text_50">
    <text style="font: 10px 'sans-serif'; text-anchor: middle" x="401.296645" y="93.56188" transform="rotate(-0, 401.296645, 93.56188)">15</text>
   </g>
   <g id="text_51">
    <text style="font: 10px 'sans-serif'; text-anchor: middle" x="389.032515" y="51.112268" transform="rotate(-0, 389.032515, 51.112268)">12</text>
   </g>
   <g id="text_52">
    <text style="font: 10px 'sans-serif'; text-anchor: middle" x="440.959922" y="136.011493" transform="rotate(-0, 440.959922, 136.011493)">15</text>
   </g>
   <g id="text_53">
    <text style="font: 10px 'sans-serif'; text-anchor: middle" x="452.526556" y="93.56188" transform="rotate(-0, 452.526556, 93.56188)">10</text>
   </g>
   <g id="text_54">
    <text style="font: 10px 'sans-serif'; text-anchor: middle" x="443.677753" y="51.112268" transform="rotate(-0, 443.677753, 51.112268)">14</text>
   </g>
   <g id="text_55">
    <text style="font: 12px 'sans-serif'; text-anchor: middle" x="278.034375" y="19.6425" transform="rotate(-0, 278.034375, 19.6425)">Reasons to choose current job: United States</text>
   </g>
   <g id="legend_1">
    <g id="patch_49">
     <path d="M 72.975 349.70121 
L 483.09375 349.70121 
Q 485.09375 349.70121 485.09375 347.70121 
L 485.09375 276.727773 
Q 485.09375 274.727773 483.09375 274.727773 
L 72.975 274.727773 
Q 70.975 274.727773 70.975 276.727773 
L 70.975 347.70121 
Q 70.975 349.70121 72.975 349.70121 
z
" style="fill: #ffffff; opacity: 0.8; stroke: #cccccc; stroke-linejoin: miter"/>
    </g>
    <g id="patch_50">
     <path d="M 74.975 285.924648 
L 94.975 285.924648 
L 94.975 278.924648 
L 74.975 278.924648 
z
" style="fill: #1f77b4"/>
    </g>
    <g id="text_56">
     <text style="font: 10px 'sans-serif'; text-anchor: start" x="102.975" y="285.924648" transform="rotate(-0, 102.975, 285.924648)">Desire to work in a research environment</text>
    </g>
    <g id="patch_51">
     <path d="M 74.975 300.18246 
L 94.975 300.18246 
L 94.975 293.18246 
L 74.975 293.18246 
z
" style="fill: #ff7f0e"/>
    </g>
    <g id="text_57">
     <text style="font: 10px 'sans-serif'; text-anchor: start" x="102.975" y="300.18246" transform="rotate(-0, 102.975, 300.18246)">Desire to advance research</text>
    </g>
    <g id="patch_52">
     <path d="M 74.975 314.635585 
L 94.975 314.635585 
L 94.975 307.635585 
L 74.975 307.635585 
z
" style="fill: #2ca02c"/>
    </g>
    <g id="text_58">
     <text style="font: 10px 'sans-serif'; text-anchor: start" x="102.975" y="314.635585" transform="rotate(-0, 102.975, 314.635585)">Opportunity to develop software</text>
    </g>
    <g id="patch_53">
     <path d="M 74.975 328.97621 
L 94.975 328.97621 
L 94.975 321.97621 
L 74.975 321.97621 
z
" style="fill: #d62728"/>
    </g>
    <g id="text_59">
     <text style="font: 10px 'sans-serif'; text-anchor: start" x="102.975" y="328.97621" transform="rotate(-0, 102.975, 328.97621)">Freedom to choose own working practices</text>
    </g>
    <g id="patch_54">
     <path d="M 74.975 343.55746 
L 94.975 343.55746 
L 94.975 336.55746 
L 74.975 336.55746 
z
" style="fill: #9467bd"/>
    </g>
    <g id="text_60">
     <text style="font: 10px 'sans-serif'; text-anchor: start" x="102.975" y="343.55746" transform="rotate(-0, 102.975, 343.55746)">Opportunity for career advancement</text>
    </g>
    <g id="patch_55">
     <path d="M 310.271875 285.924648 
L 330.271875 285.924648 
L 330.271875 278.924648 
L 310.271875 278.924648 
z
" style="fill: #8c564b"/>
    </g>
    <g id="text_61">
     <text style="font: 10px 'sans-serif'; text-anchor: start" x="338.271875" y="285.924648" transform="rotate(-0, 338.271875, 285.924648)">Ability to work across disciplines</text>
    </g>
    <g id="patch_56">
     <path d="M 310.271875 300.265273 
L 330.271875 300.265273 
L 330.271875 293.265273 
L 310.271875 293.265273 
z
" style="fill: #e377c2"/>
    </g>
    <g id="text_62">
     <text style="font: 10px 'sans-serif'; text-anchor: start" x="338.271875" y="300.265273" transform="rotate(-0, 338.271875, 300.265273)">The salary</text>
    </g>
    <g id="patch_57">
     <path d="M 310.271875 314.58246 
L 330.271875 314.58246 
L 330.271875 307.58246 
L 310.271875 307.58246 
z
" style="fill: #7f7f7f"/>
    </g>
    <g id="text_63">
     <text style="font: 10px 'sans-serif'; text-anchor: start" x="338.271875" y="314.58246" transform="rotate(-0, 338.271875, 314.58246)">I want to learn new skills</text>
    </g>
    <g id="patch_58">
     <path d="M 310.271875 328.86371 
L 330.271875 328.86371 
L 330.271875 321.86371 
L 310.271875 321.86371 
z
" style="fill: #bcbd22"/>
    </g>
    <g id="text_64">
     <text style="font: 10px 'sans-serif'; text-anchor: start" x="338.271875" y="328.86371" transform="rotate(-0, 338.271875, 328.86371)">Flexible working hours</text>
    </g>
   </g>
  </g>
 </g>
 <defs>
  <clipPath id="p6d9098386a">
   <rect x="62.86875" y="25.6425" width="430.33125" height="212.248063"/>
  </clipPath>
 </defs>
</svg>
