<?xml version="1.0" encoding="utf-8" standalone="no"?>
<!DOCTYPE svg PUBLIC "-//W3C//DTD SVG 1.1//EN"
  "http://www.w3.org/Graphics/SVG/1.1/DTD/svg11.dtd">
<svg xmlns:xlink="http://www.w3.org/1999/xlink" width="504pt" height="360pt" viewBox="0 0 504 360" xmlns="http://www.w3.org/2000/svg" version="1.1">
 <metadata>
  <rdf:RDF xmlns:dc="http://purl.org/dc/elements/1.1/" xmlns:cc="http://creativecommons.org/ns#" xmlns:rdf="http://www.w3.org/1999/02/22-rdf-syntax-ns#">
   <cc:Work>
    <dc:type rdf:resource="http://purl.org/dc/dcmitype/StillImage"/>
    <dc:date>2022-03-21T16:07:36.920127</dc:date>
    <dc:format>image/svg+xml</dc:format>
    <dc:creator>
     <cc:Agent>
      <dc:title>Matplotlib v3.5.1, https://matplotlib.org/</dc:title>
     </cc:Agent>
    </dc:creator>
   </cc:Work>
  </rdf:RDF>
 </metadata>
 <defs>
  <style type="text/css">*{stroke-linejoin: round; stroke-linecap: butt}</style>
 </defs>
 <g id="figure_1">
  <g id="patch_1">
   <path d="M 0 360 
L 504 360 
L 504 0 
L 0 0 
z
" style="fill: #ffffff"/>
  </g>
  <g id="axes_1">
   <g id="patch_2">
    <path d="M 62.86875 238.085711 
L 491.022656 238.085711 
L 491.022656 25.6425 
L 62.86875 25.6425 
z
" style="fill: #ffffff"/>
   </g>
   <g id="patch_3">
    <path d="M 62.86875 227.463551 
L 159.955804 227.463551 
L 159.955804 206.219229 
L 62.86875 206.219229 
z
" clip-path="url(#pf1f4ca8957)" style="fill: #1f77b4"/>
   </g>
   <g id="patch_4">
    <path d="M 62.86875 184.974908 
L 123.675905 184.974908 
L 123.675905 163.730587 
L 62.86875 163.730587 
z
" clip-path="url(#pf1f4ca8957)" style="fill: #1f77b4"/>
   </g>
   <g id="patch_5">
    <path d="M 62.86875 142.486266 
L 97.76761 142.486266 
L 97.76761 121.241945 
L 62.86875 121.241945 
z
" clip-path="url(#pf1f4ca8957)" style="fill: #1f77b4"/>
   </g>
   <g id="patch_6">
    <path d="M 62.86875 99.997624 
L 128.770265 99.997624 
L 128.770265 78.753303 
L 62.86875 78.753303 
z
" clip-path="url(#pf1f4ca8957)" style="fill: #1f77b4"/>
   </g>
   <g id="patch_7">
    <path d="M 62.86875 57.508982 
L 109.82358 57.508982 
L 109.82358 36.264661 
L 62.86875 36.264661 
z
" clip-path="url(#pf1f4ca8957)" style="fill: #1f77b4"/>
   </g>
   <g id="patch_8">
    <path d="M 159.955804 227.463551 
L 255.277638 227.463551 
L 255.277638 206.219229 
L 159.955804 206.219229 
z
" clip-path="url(#pf1f4ca8957)" style="fill: #ff7f0e"/>
   </g>
   <g id="patch_9">
    <path d="M 123.675905 184.974908 
L 211.309745 184.974908 
L 211.309745 163.730587 
L 123.675905 163.730587 
z
" clip-path="url(#pf1f4ca8957)" style="fill: #ff7f0e"/>
   </g>
   <g id="patch_10">
    <path d="M 97.76761 142.486266 
L 140.013598 142.486266 
L 140.013598 121.241945 
L 97.76761 121.241945 
z
" clip-path="url(#pf1f4ca8957)" style="fill: #ff7f0e"/>
   </g>
   <g id="patch_11">
    <path d="M 128.770265 99.997624 
L 169.958712 99.997624 
L 169.958712 78.753303 
L 128.770265 78.753303 
z
" clip-path="url(#pf1f4ca8957)" style="fill: #ff7f0e"/>
   </g>
   <g id="patch_12">
    <path d="M 109.82358 57.508982 
L 139.479261 57.508982 
L 139.479261 36.264661 
L 109.82358 36.264661 
z
" clip-path="url(#pf1f4ca8957)" style="fill: #ff7f0e"/>
   </g>
   <g id="patch_13">
    <path d="M 255.277638 227.463551 
L 331.182062 227.463551 
L 331.182062 206.219229 
L 255.277638 206.219229 
z
" clip-path="url(#pf1f4ca8957)" style="fill: #2ca02c"/>
   </g>
   <g id="patch_14">
    <path d="M 211.309745 184.974908 
L 259.59778 184.974908 
L 259.59778 163.730587 
L 211.309745 163.730587 
z
" clip-path="url(#pf1f4ca8957)" style="fill: #2ca02c"/>
   </g>
   <g id="patch_15">
    <path d="M 140.013598 142.486266 
L 163.891765 142.486266 
L 163.891765 121.241945 
L 140.013598 121.241945 
z
" clip-path="url(#pf1f4ca8957)" style="fill: #2ca02c"/>
   </g>
   <g id="patch_16">
    <path d="M 169.958712 99.997624 
L 180.255824 99.997624 
L 180.255824 78.753303 
L 169.958712 78.753303 
z
" clip-path="url(#pf1f4ca8957)" style="fill: #2ca02c"/>
   </g>
   <g id="patch_17">
    <path d="M 139.479261 57.508982 
L 154.307102 57.508982 
L 154.307102 36.264661 
L 139.479261 36.264661 
z
" clip-path="url(#pf1f4ca8957)" style="fill: #2ca02c"/>
   </g>
   <g id="patch_18">
    <path d="M 331.182062 227.463551 
L 368.251664 227.463551 
L 368.251664 206.219229 
L 331.182062 206.219229 
z
" clip-path="url(#pf1f4ca8957)" style="fill: #d62728"/>
   </g>
   <g id="patch_19">
    <path d="M 259.59778 184.974908 
L 309.67426 184.974908 
L 309.67426 163.730587 
L 259.59778 163.730587 
z
" clip-path="url(#pf1f4ca8957)" style="fill: #d62728"/>
   </g>
   <g id="patch_20">
    <path d="M 163.891765 142.486266 
L 220.83201 142.486266 
L 220.83201 121.241945 
L 163.891765 121.241945 
z
" clip-path="url(#pf1f4ca8957)" style="fill: #d62728"/>
   </g>
   <g id="patch_21">
    <path d="M 180.255824 99.997624 
L 246.157339 99.997624 
L 246.157339 78.753303 
L 180.255824 78.753303 
z
" clip-path="url(#pf1f4ca8957)" style="fill: #d62728"/>
   </g>
   <g id="patch_22">
    <path d="M 154.307102 57.508982 
L 188.905398 57.508982 
L 188.905398 36.264661 
L 154.307102 36.264661 
z
" clip-path="url(#pf1f4ca8957)" style="fill: #d62728"/>
   </g>
   <g id="patch_23">
    <path d="M 368.251664 227.463551 
L 400.025609 227.463551 
L 400.025609 206.219229 
L 368.251664 206.219229 
z
" clip-path="url(#pf1f4ca8957)" style="fill: #9467bd"/>
   </g>
   <g id="patch_24">
    <path d="M 309.67426 184.974908 
L 350.808512 184.974908 
L 350.808512 163.730587 
L 309.67426 163.730587 
z
" clip-path="url(#pf1f4ca8957)" style="fill: #9467bd"/>
   </g>
   <g id="patch_25">
    <path d="M 220.83201 142.486266 
L 275.935473 142.486266 
L 275.935473 121.241945 
L 220.83201 121.241945 
z
" clip-path="url(#pf1f4ca8957)" style="fill: #9467bd"/>
   </g>
   <g id="patch_26">
    <path d="M 246.157339 99.997624 
L 314.118277 99.997624 
L 314.118277 78.753303 
L 246.157339 78.753303 
z
" clip-path="url(#pf1f4ca8957)" style="fill: #9467bd"/>
   </g>
   <g id="patch_27">
    <path d="M 188.905398 57.508982 
L 243.274148 57.508982 
L 243.274148 36.264661 
L 188.905398 36.264661 
z
" clip-path="url(#pf1f4ca8957)" style="fill: #9467bd"/>
   </g>
   <g id="patch_28">
    <path d="M 400.025609 227.463551 
L 430.034334 227.463551 
L 430.034334 206.219229 
L 400.025609 206.219229 
z
" clip-path="url(#pf1f4ca8957)" style="fill: #8c564b"/>
   </g>
   <g id="patch_29">
    <path d="M 350.808512 184.974908 
L 411.615666 184.974908 
L 411.615666 163.730587 
L 350.808512 163.730587 
z
" clip-path="url(#pf1f4ca8957)" style="fill: #8c564b"/>
   </g>
   <g id="patch_30">
    <path d="M 275.935473 142.486266 
L 354.917103 142.486266 
L 354.917103 121.241945 
L 275.935473 121.241945 
z
" clip-path="url(#pf1f4ca8957)" style="fill: #8c564b"/>
   </g>
   <g id="patch_31">
    <path d="M 314.118277 99.997624 
L 386.198059 99.997624 
L 386.198059 78.753303 
L 314.118277 78.753303 
z
" clip-path="url(#pf1f4ca8957)" style="fill: #8c564b"/>
   </g>
   <g id="patch_32">
    <path d="M 243.274148 57.508982 
L 307.528125 57.508982 
L 307.528125 36.264661 
L 243.274148 36.264661 
z
" clip-path="url(#pf1f4ca8957)" style="fill: #8c564b"/>
   </g>
   <g id="patch_33">
    <path d="M 430.034334 227.463551 
L 452.982183 227.463551 
L 452.982183 206.219229 
L 430.034334 206.219229 
z
" clip-path="url(#pf1f4ca8957)" style="fill: #e377c2"/>
   </g>
   <g id="patch_34">
    <path d="M 411.615666 184.974908 
L 422.34634 184.974908 
L 422.34634 163.730587 
L 411.615666 163.730587 
z
" clip-path="url(#pf1f4ca8957)" style="fill: #e377c2"/>
   </g>
   <g id="patch_35">
    <path d="M 354.917103 142.486266 
L 395.326309 142.486266 
L 395.326309 121.241945 
L 354.917103 121.241945 
z
" clip-path="url(#pf1f4ca8957)" style="fill: #e377c2"/>
   </g>
   <g id="patch_36">
    <path d="M 386.198059 99.997624 
L 404.73286 99.997624 
L 404.73286 78.753303 
L 386.198059 78.753303 
z
" clip-path="url(#pf1f4ca8957)" style="fill: #e377c2"/>
   </g>
   <g id="patch_37">
    <path d="M 307.528125 57.508982 
L 352.011648 57.508982 
L 352.011648 36.264661 
L 307.528125 36.264661 
z
" clip-path="url(#pf1f4ca8957)" style="fill: #e377c2"/>
   </g>
   <g id="patch_38">
    <path d="M 452.982183 227.463551 
L 465.338718 227.463551 
L 465.338718 206.219229 
L 452.982183 206.219229 
z
" clip-path="url(#pf1f4ca8957)" style="fill: #7f7f7f"/>
   </g>
   <g id="patch_39">
    <path d="M 422.34634 184.974908 
L 459.903701 184.974908 
L 459.903701 163.730587 
L 422.34634 163.730587 
z
" clip-path="url(#pf1f4ca8957)" style="fill: #7f7f7f"/>
   </g>
   <g id="patch_40">
    <path d="M 395.326309 142.486266 
L 452.266554 142.486266 
L 452.266554 121.241945 
L 395.326309 121.241945 
z
" clip-path="url(#pf1f4ca8957)" style="fill: #7f7f7f"/>
   </g>
   <g id="patch_41">
    <path d="M 404.73286 99.997624 
L 441.802462 99.997624 
L 441.802462 78.753303 
L 404.73286 78.753303 
z
" clip-path="url(#pf1f4ca8957)" style="fill: #7f7f7f"/>
   </g>
   <g id="patch_42">
    <path d="M 352.011648 57.508982 
L 423.679545 57.508982 
L 423.679545 36.264661 
L 352.011648 36.264661 
z
" clip-path="url(#pf1f4ca8957)" style="fill: #7f7f7f"/>
   </g>
   <g id="patch_43">
    <path d="M 465.338718 227.463551 
L 470.634375 227.463551 
L 470.634375 206.219229 
L 465.338718 206.219229 
z
" clip-path="url(#pf1f4ca8957)" style="fill: #bcbd22"/>
   </g>
   <g id="patch_44">
    <path d="M 459.903701 184.974908 
L 470.634375 184.974908 
L 470.634375 163.730587 
L 459.903701 163.730587 
z
" clip-path="url(#pf1f4ca8957)" style="fill: #bcbd22"/>
   </g>
   <g id="patch_45">
    <path d="M 452.266554 142.486266 
L 470.634375 142.486266 
L 470.634375 121.241945 
L 452.266554 121.241945 
z
" clip-path="url(#pf1f4ca8957)" style="fill: #bcbd22"/>
   </g>
   <g id="patch_46">
    <path d="M 441.802462 99.997624 
L 470.634375 99.997624 
L 470.634375 78.753303 
L 441.802462 78.753303 
z
" clip-path="url(#pf1f4ca8957)" style="fill: #bcbd22"/>
   </g>
   <g id="patch_47">
    <path d="M 423.679545 57.508982 
L 470.634375 57.508982 
L 470.634375 36.264661 
L 423.679545 36.264661 
z
" clip-path="url(#pf1f4ca8957)" style="fill: #bcbd22"/>
   </g>
   <g id="matplotlib.axis_1">
    <g id="xtick_1">
     <g id="line2d_1">
      <defs>
       <path id="m4c99cd72f3" d="M 0 0 
L 0 3.5 
" style="stroke: #000000; stroke-width: 0.8"/>
      </defs>
      <g>
       <use xlink:href="#m4c99cd72f3" x="62.86875" y="238.085711" style="stroke: #000000; stroke-width: 0.8"/>
      </g>
     </g>
     <g id="text_1">
      <text style="font: 10px 'sans-serif'; text-anchor: middle" x="62.86875" y="252.259149" transform="rotate(-0, 62.86875, 252.259149)">0</text>
     </g>
    </g>
    <g id="xtick_2">
     <g id="line2d_2">
      <g>
       <use xlink:href="#m4c99cd72f3" x="144.421875" y="238.085711" style="stroke: #000000; stroke-width: 0.8"/>
      </g>
     </g>
     <g id="text_2">
      <text style="font: 10px 'sans-serif'; text-anchor: middle" x="144.421875" y="252.259149" transform="rotate(-0, 144.421875, 252.259149)">20</text>
     </g>
    </g>
    <g id="xtick_3">
     <g id="line2d_3">
      <g>
       <use xlink:href="#m4c99cd72f3" x="225.975" y="238.085711" style="stroke: #000000; stroke-width: 0.8"/>
      </g>
     </g>
     <g id="text_3">
      <text style="font: 10px 'sans-serif'; text-anchor: middle" x="225.975" y="252.259149" transform="rotate(-0, 225.975, 252.259149)">40</text>
     </g>
    </g>
    <g id="xtick_4">
     <g id="line2d_4">
      <g>
       <use xlink:href="#m4c99cd72f3" x="307.528125" y="238.085711" style="stroke: #000000; stroke-width: 0.8"/>
      </g>
     </g>
     <g id="text_4">
      <text style="font: 10px 'sans-serif'; text-anchor: middle" x="307.528125" y="252.259149" transform="rotate(-0, 307.528125, 252.259149)">60</text>
     </g>
    </g>
    <g id="xtick_5">
     <g id="line2d_5">
      <g>
       <use xlink:href="#m4c99cd72f3" x="389.08125" y="238.085711" style="stroke: #000000; stroke-width: 0.8"/>
      </g>
     </g>
     <g id="text_5">
      <text style="font: 10px 'sans-serif'; text-anchor: middle" x="389.08125" y="252.259149" transform="rotate(-0, 389.08125, 252.259149)">80</text>
     </g>
    </g>
    <g id="xtick_6">
     <g id="line2d_6">
      <g>
       <use xlink:href="#m4c99cd72f3" x="470.634375" y="238.085711" style="stroke: #000000; stroke-width: 0.8"/>
      </g>
     </g>
     <g id="text_6">
      <text style="font: 10px 'sans-serif'; text-anchor: middle" x="470.634375" y="252.259149" transform="rotate(-0, 470.634375, 252.259149)">100</text>
     </g>
    </g>
    <g id="text_7">
     <text style="font: 10px 'sans-serif'; text-anchor: middle" x="276.945703" y="265.618524" transform="rotate(-0, 276.945703, 265.618524)">Ranking of importance</text>
    </g>
   </g>
   <g id="matplotlib.axis_2">
    <g id="ytick_1">
     <g id="line2d_7">
      <defs>
       <path id="m8e343aef83" d="M 0 0 
L -3.5 0 
" style="stroke: #000000; stroke-width: 0.8"/>
      </defs>
      <g>
       <use xlink:href="#m8e343aef83" x="62.86875" y="216.84139" style="stroke: #000000; stroke-width: 0.8"/>
      </g>
     </g>
     <g id="text_8">
      <text style="font: 10px 'sans-serif'; text-anchor: end" x="55.86875" y="220.428109" transform="rotate(-0, 55.86875, 220.428109)">Rank 1</text>
     </g>
    </g>
    <g id="ytick_2">
     <g id="line2d_8">
      <g>
       <use xlink:href="#m8e343aef83" x="62.86875" y="174.352748" style="stroke: #000000; stroke-width: 0.8"/>
      </g>
     </g>
     <g id="text_9">
      <text style="font: 10px 'sans-serif'; text-anchor: end" x="55.86875" y="177.939467" transform="rotate(-0, 55.86875, 177.939467)">Rank 2</text>
     </g>
    </g>
    <g id="ytick_3">
     <g id="line2d_9">
      <g>
       <use xlink:href="#m8e343aef83" x="62.86875" y="131.864106" style="stroke: #000000; stroke-width: 0.8"/>
      </g>
     </g>
     <g id="text_10">
      <text style="font: 10px 'sans-serif'; text-anchor: end" x="55.86875" y="135.450824" transform="rotate(-0, 55.86875, 135.450824)">Rank 3</text>
     </g>
    </g>
    <g id="ytick_4">
     <g id="line2d_10">
      <g>
       <use xlink:href="#m8e343aef83" x="62.86875" y="89.375463" style="stroke: #000000; stroke-width: 0.8"/>
      </g>
     </g>
     <g id="text_11">
      <text style="font: 10px 'sans-serif'; text-anchor: end" x="55.86875" y="92.962182" transform="rotate(-0, 55.86875, 92.962182)">Rank 4</text>
     </g>
    </g>
    <g id="ytick_5">
     <g id="line2d_11">
      <g>
       <use xlink:href="#m8e343aef83" x="62.86875" y="46.886821" style="stroke: #000000; stroke-width: 0.8"/>
      </g>
     </g>
     <g id="text_12">
      <text style="font: 10px 'sans-serif'; text-anchor: end" x="55.86875" y="50.47354" transform="rotate(-0, 55.86875, 50.47354)">Rank 5</text>
     </g>
    </g>
    <g id="text_13">
     <text style="font: 10px 'sans-serif'; text-anchor: middle" x="17.973438" y="131.864106" transform="rotate(-90, 17.973438, 131.864106)">Percentage</text>
    </g>
   </g>
   <g id="patch_48">
    <path d="M 62.86875 238.085711 
L 491.022656 238.085711 
" style="fill: none; stroke: #000000; stroke-width: 0.8; stroke-linejoin: miter; stroke-linecap: square"/>
   </g>
   <g id="text_14">
    <text style="font: 10px 'sans-serif'; text-anchor: middle" x="111.412277" y="221.090254" transform="rotate(-0, 111.412277, 221.090254)">24</text>
   </g>
   <g id="text_15">
    <text style="font: 10px 'sans-serif'; text-anchor: middle" x="93.272327" y="178.601612" transform="rotate(-0, 93.272327, 178.601612)">15</text>
   </g>
   <g id="text_16">
    <text style="font: 10px 'sans-serif'; text-anchor: middle" x="80.31818" y="136.11297" transform="rotate(-0, 80.31818, 136.11297)">9</text>
   </g>
   <g id="text_17">
    <text style="font: 10px 'sans-serif'; text-anchor: middle" x="95.819508" y="93.624328" transform="rotate(-0, 95.819508, 93.624328)">16</text>
   </g>
   <g id="text_18">
    <text style="font: 10px 'sans-serif'; text-anchor: middle" x="86.346165" y="51.135685" transform="rotate(-0, 86.346165, 51.135685)">12</text>
   </g>
   <g id="text_19">
    <text style="font: 10px 'sans-serif'; text-anchor: middle" x="207.616721" y="221.090254" transform="rotate(-0, 207.616721, 221.090254)">23</text>
   </g>
   <g id="text_20">
    <text style="font: 10px 'sans-serif'; text-anchor: middle" x="167.492825" y="178.601612" transform="rotate(-0, 167.492825, 178.601612)">21</text>
   </g>
   <g id="text_21">
    <text style="font: 10px 'sans-serif'; text-anchor: middle" x="118.890604" y="136.11297" transform="rotate(-0, 118.890604, 136.11297)">10</text>
   </g>
   <g id="text_22">
    <text style="font: 10px 'sans-serif'; text-anchor: middle" x="149.364489" y="93.624328" transform="rotate(-0, 149.364489, 93.624328)">10</text>
   </g>
   <g id="text_23">
    <text style="font: 10px 'sans-serif'; text-anchor: middle" x="124.65142" y="51.135685" transform="rotate(-0, 124.65142, 51.135685)">7</text>
   </g>
   <g id="text_24">
    <text style="font: 10px 'sans-serif'; text-anchor: middle" x="293.22985" y="221.090254" transform="rotate(-0, 293.22985, 221.090254)">19</text>
   </g>
   <g id="text_25">
    <text style="font: 10px 'sans-serif'; text-anchor: middle" x="235.453762" y="178.601612" transform="rotate(-0, 235.453762, 178.601612)">12</text>
   </g>
   <g id="text_26">
    <text style="font: 10px 'sans-serif'; text-anchor: middle" x="151.952682" y="136.11297" transform="rotate(-0, 151.952682, 136.11297)">6</text>
   </g>
   <g id="text_27">
    <text style="font: 10px 'sans-serif'; text-anchor: middle" x="349.716863" y="221.090254" transform="rotate(-0, 349.716863, 221.090254)">9</text>
   </g>
   <g id="text_28">
    <text style="font: 10px 'sans-serif'; text-anchor: middle" x="284.63602" y="178.601612" transform="rotate(-0, 284.63602, 178.601612)">12</text>
   </g>
   <g id="text_29">
    <text style="font: 10px 'sans-serif'; text-anchor: middle" x="192.361888" y="136.11297" transform="rotate(-0, 192.361888, 136.11297)">14</text>
   </g>
   <g id="text_30">
    <text style="font: 10px 'sans-serif'; text-anchor: middle" x="213.206581" y="93.624328" transform="rotate(-0, 213.206581, 93.624328)">16</text>
   </g>
   <g id="text_31">
    <text style="font: 10px 'sans-serif'; text-anchor: middle" x="171.60625" y="51.135685" transform="rotate(-0, 171.60625, 51.135685)">8</text>
   </g>
   <g id="text_32">
    <text style="font: 10px 'sans-serif'; text-anchor: middle" x="384.138636" y="221.090254" transform="rotate(-0, 384.138636, 221.090254)">8</text>
   </g>
   <g id="text_33">
    <text style="font: 10px 'sans-serif'; text-anchor: middle" x="330.241386" y="178.601612" transform="rotate(-0, 330.241386, 178.601612)">10</text>
   </g>
   <g id="text_34">
    <text style="font: 10px 'sans-serif'; text-anchor: middle" x="248.383742" y="136.11297" transform="rotate(-0, 248.383742, 136.11297)">14</text>
   </g>
   <g id="text_35">
    <text style="font: 10px 'sans-serif'; text-anchor: middle" x="280.137808" y="93.624328" transform="rotate(-0, 280.137808, 93.624328)">17</text>
   </g>
   <g id="text_36">
    <text style="font: 10px 'sans-serif'; text-anchor: middle" x="216.089773" y="51.135685" transform="rotate(-0, 216.089773, 51.135685)">13</text>
   </g>
   <g id="text_37">
    <text style="font: 10px 'sans-serif'; text-anchor: middle" x="415.029972" y="221.090254" transform="rotate(-0, 415.029972, 221.090254)">7</text>
   </g>
   <g id="text_38">
    <text style="font: 10px 'sans-serif'; text-anchor: middle" x="381.212089" y="178.601612" transform="rotate(-0, 381.212089, 178.601612)">15</text>
   </g>
   <g id="text_39">
    <text style="font: 10px 'sans-serif'; text-anchor: middle" x="315.426288" y="136.11297" transform="rotate(-0, 315.426288, 136.11297)">19</text>
   </g>
   <g id="text_40">
    <text style="font: 10px 'sans-serif'; text-anchor: middle" x="350.158168" y="93.624328" transform="rotate(-0, 350.158168, 93.624328)">18</text>
   </g>
   <g id="text_41">
    <text style="font: 10px 'sans-serif'; text-anchor: middle" x="275.401136" y="51.135685" transform="rotate(-0, 275.401136, 51.135685)">16</text>
   </g>
   <g id="text_42">
    <text style="font: 10px 'sans-serif'; text-anchor: middle" x="441.508259" y="221.090254" transform="rotate(-0, 441.508259, 221.090254)">6</text>
   </g>
   <g id="text_43">
    <text style="font: 10px 'sans-serif'; text-anchor: middle" x="375.121706" y="136.11297" transform="rotate(-0, 375.121706, 136.11297)">10</text>
   </g>
   <g id="text_44">
    <text style="font: 10px 'sans-serif'; text-anchor: middle" x="395.465459" y="93.624328" transform="rotate(-0, 395.465459, 93.624328)">5</text>
   </g>
   <g id="text_45">
    <text style="font: 10px 'sans-serif'; text-anchor: middle" x="329.769886" y="51.135685" transform="rotate(-0, 329.769886, 51.135685)">11</text>
   </g>
   <g id="text_46">
    <text style="font: 10px 'sans-serif'; text-anchor: middle" x="441.125021" y="178.601612" transform="rotate(-0, 441.125021, 178.601612)">9</text>
   </g>
   <g id="text_47">
    <text style="font: 10px 'sans-serif'; text-anchor: middle" x="423.796432" y="136.11297" transform="rotate(-0, 423.796432, 136.11297)">14</text>
   </g>
   <g id="text_48">
    <text style="font: 10px 'sans-serif'; text-anchor: middle" x="423.267661" y="93.624328" transform="rotate(-0, 423.267661, 93.624328)">9</text>
   </g>
   <g id="text_49">
    <text style="font: 10px 'sans-serif'; text-anchor: middle" x="387.845597" y="51.135685" transform="rotate(-0, 387.845597, 51.135685)">18</text>
   </g>
   <g id="text_50">
    <text style="font: 10px 'sans-serif'; text-anchor: middle" x="461.450465" y="136.11297" transform="rotate(-0, 461.450465, 136.11297)">5</text>
   </g>
   <g id="text_51">
    <text style="font: 10px 'sans-serif'; text-anchor: middle" x="456.218419" y="93.624328" transform="rotate(-0, 456.218419, 93.624328)">7</text>
   </g>
   <g id="text_52">
    <text style="font: 10px 'sans-serif'; text-anchor: middle" x="447.15696" y="51.135685" transform="rotate(-0, 447.15696, 51.135685)">12</text>
   </g>
   <g id="text_53">
    <text style="font: 12px 'sans-serif'; text-anchor: middle" x="276.945703" y="19.6425" transform="rotate(-0, 276.945703, 19.6425)">Reasons to choose current job: Germany</text>
   </g>
   <g id="legend_1">
    <g id="patch_49">
     <path d="M 63.262109 349.730318 
L 490.629297 349.730318 
Q 492.629297 349.730318 492.629297 347.730318 
L 492.629297 276.952193 
Q 492.629297 274.952193 490.629297 274.952193 
L 63.262109 274.952193 
Q 61.262109 274.952193 61.262109 276.952193 
L 61.262109 347.730318 
Q 61.262109 349.730318 63.262109 349.730318 
z
" style="fill: #ffffff; opacity: 0.8; stroke: #cccccc; stroke-linejoin: miter"/>
    </g>
    <g id="patch_50">
     <path d="M 65.262109 286.149068 
L 85.262109 286.149068 
L 85.262109 279.149068 
L 65.262109 279.149068 
z
" style="fill: #1f77b4"/>
    </g>
    <g id="text_54">
     <text style="font: 10px 'sans-serif'; text-anchor: start" x="93.262109" y="286.149068" transform="rotate(-0, 93.262109, 286.149068)">Freedom to choose own working practices</text>
    </g>
    <g id="patch_51">
     <path d="M 65.262109 300.535005 
L 85.262109 300.535005 
L 85.262109 293.535005 
L 65.262109 293.535005 
z
" style="fill: #ff7f0e"/>
    </g>
    <g id="text_55">
     <text style="font: 10px 'sans-serif'; text-anchor: start" x="93.262109" y="300.535005" transform="rotate(-0, 93.262109, 300.535005)">Desire to work in a research environment</text>
    </g>
    <g id="patch_52">
     <path d="M 65.262109 314.792818 
L 85.262109 314.792818 
L 85.262109 307.792818 
L 65.262109 307.792818 
z
" style="fill: #2ca02c"/>
    </g>
    <g id="text_56">
     <text style="font: 10px 'sans-serif'; text-anchor: start" x="93.262109" y="314.792818" transform="rotate(-0, 93.262109, 314.792818)">Desire to advance research</text>
    </g>
    <g id="patch_53">
     <path d="M 65.262109 329.245943 
L 85.262109 329.245943 
L 85.262109 322.245943 
L 65.262109 322.245943 
z
" style="fill: #d62728"/>
    </g>
    <g id="text_57">
     <text style="font: 10px 'sans-serif'; text-anchor: start" x="93.262109" y="329.245943" transform="rotate(-0, 93.262109, 329.245943)">Opportunity to develop software</text>
    </g>
    <g id="patch_54">
     <path d="M 65.262109 343.586568 
L 85.262109 343.586568 
L 85.262109 336.586568 
L 65.262109 336.586568 
z
" style="fill: #9467bd"/>
    </g>
    <g id="text_58">
     <text style="font: 10px 'sans-serif'; text-anchor: start" x="93.262109" y="343.586568" transform="rotate(-0, 93.262109, 343.586568)">Ability to work across disciplines</text>
    </g>
    <g id="patch_55">
     <path d="M 300.558984 286.149068 
L 320.558984 286.149068 
L 320.558984 279.149068 
L 300.558984 279.149068 
z
" style="fill: #8c564b"/>
    </g>
    <g id="text_59">
     <text style="font: 10px 'sans-serif'; text-anchor: start" x="328.558984" y="286.149068" transform="rotate(-0, 328.558984, 286.149068)">I want to learn new skills</text>
    </g>
    <g id="patch_56">
     <path d="M 300.558984 300.602193 
L 320.558984 300.602193 
L 320.558984 293.602193 
L 300.558984 293.602193 
z
" style="fill: #e377c2"/>
    </g>
    <g id="text_60">
     <text style="font: 10px 'sans-serif'; text-anchor: start" x="328.558984" y="300.602193" transform="rotate(-0, 328.558984, 300.602193)">Opportunity for career advancement</text>
    </g>
    <g id="patch_57">
     <path d="M 300.558984 314.942818 
L 320.558984 314.942818 
L 320.558984 307.942818 
L 300.558984 307.942818 
z
" style="fill: #7f7f7f"/>
    </g>
    <g id="text_61">
     <text style="font: 10px 'sans-serif'; text-anchor: start" x="328.558984" y="314.942818" transform="rotate(-0, 328.558984, 314.942818)">Flexible working hours</text>
    </g>
    <g id="patch_58">
     <path d="M 300.558984 329.352193 
L 320.558984 329.352193 
L 320.558984 322.352193 
L 300.558984 322.352193 
z
" style="fill: #bcbd22"/>
    </g>
    <g id="text_62">
     <text style="font: 10px 'sans-serif'; text-anchor: start" x="328.558984" y="329.352193" transform="rotate(-0, 328.558984, 329.352193)">The salary</text>
    </g>
   </g>
  </g>
 </g>
 <defs>
  <clipPath id="pf1f4ca8957">
   <rect x="62.86875" y="25.6425" width="428.153906" height="212.443211"/>
  </clipPath>
 </defs>
</svg>
