<?xml version="1.0" encoding="utf-8" standalone="no"?>
<!DOCTYPE svg PUBLIC "-//W3C//DTD SVG 1.1//EN"
  "http://www.w3.org/Graphics/SVG/1.1/DTD/svg11.dtd">
<svg xmlns:xlink="http://www.w3.org/1999/xlink" width="504pt" height="360pt" viewBox="0 0 504 360" xmlns="http://www.w3.org/2000/svg" version="1.1">
 <metadata>
  <rdf:RDF xmlns:dc="http://purl.org/dc/elements/1.1/" xmlns:cc="http://creativecommons.org/ns#" xmlns:rdf="http://www.w3.org/1999/02/22-rdf-syntax-ns#">
   <cc:Work>
    <dc:type rdf:resource="http://purl.org/dc/dcmitype/StillImage"/>
    <dc:date>2022-03-14T17:19:48.585275</dc:date>
    <dc:format>image/svg+xml</dc:format>
    <dc:creator>
     <cc:Agent>
      <dc:title>Matplotlib v3.5.1, https://matplotlib.org/</dc:title>
     </cc:Agent>
    </dc:creator>
   </cc:Work>
  </rdf:RDF>
 </metadata>
 <defs>
  <style type="text/css">*{stroke-linejoin: round; stroke-linecap: butt}</style>
 </defs>
 <g id="figure_1">
  <g id="patch_1">
   <path d="M 0 360 
L 504 360 
L 504 0 
L 0 0 
z
" style="fill: #ffffff"/>
  </g>
  <g id="axes_1">
   <g id="patch_2">
    <path d="M 62.86875 227.8325 
L 472.816406 227.8325 
L 472.816406 25.43625 
L 62.86875 25.43625 
z
" style="fill: #ffffff"/>
   </g>
   <g id="patch_3">
    <path d="M 62.86875 217.712687 
L 137.950738 217.712687 
L 137.950738 197.473062 
L 62.86875 197.473062 
z
" clip-path="url(#p7fa2317468)" style="fill: #1f77b4"/>
   </g>
   <g id="patch_4">
    <path d="M 62.86875 177.233438 
L 107.917943 177.233438 
L 107.917943 156.993813 
L 62.86875 156.993813 
z
" clip-path="url(#p7fa2317468)" style="fill: #1f77b4"/>
   </g>
   <g id="patch_5">
    <path d="M 62.86875 136.754188 
L 137.950738 136.754188 
L 137.950738 116.514563 
L 62.86875 116.514563 
z
" clip-path="url(#p7fa2317468)" style="fill: #1f77b4"/>
   </g>
   <g id="patch_6">
    <path d="M 62.86875 96.274938 
L 79.136514 96.274938 
L 79.136514 76.035313 
L 62.86875 76.035313 
z
" clip-path="url(#p7fa2317468)" style="fill: #1f77b4"/>
   </g>
   <g id="patch_7">
    <path d="M 62.86875 55.795688 
L 80.615402 55.795688 
L 80.615402 35.556063 
L 62.86875 35.556063 
z
" clip-path="url(#p7fa2317468)" style="fill: #1f77b4"/>
   </g>
   <g id="patch_8">
    <path d="M 137.950738 217.712687 
L 198.016329 217.712687 
L 198.016329 197.473062 
L 137.950738 197.473062 
z
" clip-path="url(#p7fa2317468)" style="fill: #ff7f0e"/>
   </g>
   <g id="patch_9">
    <path d="M 107.917943 177.233438 
L 182.999931 177.233438 
L 182.999931 156.993813 
L 107.917943 156.993813 
z
" clip-path="url(#p7fa2317468)" style="fill: #ff7f0e"/>
   </g>
   <g id="patch_10">
    <path d="M 137.950738 136.754188 
L 213.032727 136.754188 
L 213.032727 116.514563 
L 137.950738 116.514563 
z
" clip-path="url(#p7fa2317468)" style="fill: #ff7f0e"/>
   </g>
   <g id="patch_11">
    <path d="M 79.136514 96.274938 
L 95.404278 96.274938 
L 95.404278 76.035313 
L 79.136514 76.035313 
z
" clip-path="url(#p7fa2317468)" style="fill: #ff7f0e"/>
   </g>
   <g id="patch_12">
    <path d="M 62.86875 55.795688 
L 62.86875 55.795688 
L 62.86875 35.556063 
L 62.86875 35.556063 
z
" clip-path="url(#p7fa2317468)" style="fill: #ff7f0e"/>
   </g>
   <g id="patch_13">
    <path d="M 198.016329 217.712687 
L 243.065522 217.712687 
L 243.065522 197.473062 
L 198.016329 197.473062 
z
" clip-path="url(#p7fa2317468)" style="fill: #2ca02c"/>
   </g>
   <g id="patch_14">
    <path d="M 182.999931 177.233438 
L 198.016329 177.233438 
L 198.016329 156.993813 
L 182.999931 156.993813 
z
" clip-path="url(#p7fa2317468)" style="fill: #2ca02c"/>
   </g>
   <g id="patch_15">
    <path d="M 213.032727 136.754188 
L 258.08192 136.754188 
L 258.08192 116.514563 
L 213.032727 116.514563 
z
" clip-path="url(#p7fa2317468)" style="fill: #2ca02c"/>
   </g>
   <g id="patch_16">
    <path d="M 95.404278 96.274938 
L 111.672042 96.274938 
L 111.672042 76.035313 
L 95.404278 76.035313 
z
" clip-path="url(#p7fa2317468)" style="fill: #2ca02c"/>
   </g>
   <g id="patch_17">
    <path d="M 80.615402 55.795688 
L 204.841964 55.795688 
L 204.841964 35.556063 
L 80.615402 35.556063 
z
" clip-path="url(#p7fa2317468)" style="fill: #2ca02c"/>
   </g>
   <g id="patch_18">
    <path d="M 243.065522 217.712687 
L 288.114715 217.712687 
L 288.114715 197.473062 
L 243.065522 197.473062 
z
" clip-path="url(#p7fa2317468)" style="fill: #d62728"/>
   </g>
   <g id="patch_19">
    <path d="M 198.016329 177.233438 
L 303.131113 177.233438 
L 303.131113 156.993813 
L 198.016329 156.993813 
z
" clip-path="url(#p7fa2317468)" style="fill: #d62728"/>
   </g>
   <g id="patch_20">
    <path d="M 258.08192 136.754188 
L 303.131113 136.754188 
L 303.131113 116.514563 
L 258.08192 116.514563 
z
" clip-path="url(#p7fa2317468)" style="fill: #d62728"/>
   </g>
   <g id="patch_21">
    <path d="M 111.672042 96.274938 
L 160.475335 96.274938 
L 160.475335 76.035313 
L 111.672042 76.035313 
z
" clip-path="url(#p7fa2317468)" style="fill: #d62728"/>
   </g>
   <g id="patch_22">
    <path d="M 204.841964 55.795688 
L 275.828571 55.795688 
L 275.828571 35.556063 
L 204.841964 35.556063 
z
" clip-path="url(#p7fa2317468)" style="fill: #d62728"/>
   </g>
   <g id="patch_23">
    <path d="M 288.114715 217.712687 
L 333.163908 217.712687 
L 333.163908 197.473062 
L 288.114715 197.473062 
z
" clip-path="url(#p7fa2317468)" style="fill: #9467bd"/>
   </g>
   <g id="patch_24">
    <path d="M 303.131113 177.233438 
L 333.163908 177.233438 
L 333.163908 156.993813 
L 303.131113 156.993813 
z
" clip-path="url(#p7fa2317468)" style="fill: #9467bd"/>
   </g>
   <g id="patch_25">
    <path d="M 303.131113 136.754188 
L 348.180306 136.754188 
L 348.180306 116.514563 
L 303.131113 116.514563 
z
" clip-path="url(#p7fa2317468)" style="fill: #9467bd"/>
   </g>
   <g id="patch_26">
    <path d="M 160.475335 96.274938 
L 241.814156 96.274938 
L 241.814156 76.035313 
L 160.475335 76.035313 
z
" clip-path="url(#p7fa2317468)" style="fill: #9467bd"/>
   </g>
   <g id="patch_27">
    <path d="M 275.828571 55.795688 
L 364.56183 55.795688 
L 364.56183 35.556063 
L 275.828571 35.556063 
z
" clip-path="url(#p7fa2317468)" style="fill: #9467bd"/>
   </g>
   <g id="patch_28">
    <path d="M 333.163908 217.712687 
L 378.213101 217.712687 
L 378.213101 197.473062 
L 333.163908 197.473062 
z
" clip-path="url(#p7fa2317468)" style="fill: #8c564b"/>
   </g>
   <g id="patch_29">
    <path d="M 333.163908 177.233438 
L 408.245896 177.233438 
L 408.245896 156.993813 
L 333.163908 156.993813 
z
" clip-path="url(#p7fa2317468)" style="fill: #8c564b"/>
   </g>
   <g id="patch_30">
    <path d="M 348.180306 136.754188 
L 378.213101 136.754188 
L 378.213101 116.514563 
L 348.180306 116.514563 
z
" clip-path="url(#p7fa2317468)" style="fill: #8c564b"/>
   </g>
   <g id="patch_31">
    <path d="M 241.814156 96.274938 
L 274.349684 96.274938 
L 274.349684 76.035313 
L 241.814156 76.035313 
z
" clip-path="url(#p7fa2317468)" style="fill: #8c564b"/>
   </g>
   <g id="patch_32">
    <path d="M 364.56183 55.795688 
L 400.055134 55.795688 
L 400.055134 35.556063 
L 364.56183 35.556063 
z
" clip-path="url(#p7fa2317468)" style="fill: #8c564b"/>
   </g>
   <g id="patch_33">
    <path d="M 378.213101 217.712687 
L 423.262294 217.712687 
L 423.262294 197.473062 
L 378.213101 197.473062 
z
" clip-path="url(#p7fa2317468)" style="fill: #e377c2"/>
   </g>
   <g id="patch_34">
    <path d="M 62.86875 177.233438 
L 62.86875 177.233438 
L 62.86875 156.993813 
L 62.86875 156.993813 
z
" clip-path="url(#p7fa2317468)" style="fill: #e377c2"/>
   </g>
   <g id="patch_35">
    <path d="M 378.213101 136.754188 
L 408.245896 136.754188 
L 408.245896 116.514563 
L 378.213101 116.514563 
z
" clip-path="url(#p7fa2317468)" style="fill: #e377c2"/>
   </g>
   <g id="patch_36">
    <path d="M 62.86875 96.274938 
L 62.86875 96.274938 
L 62.86875 76.035313 
L 62.86875 76.035313 
z
" clip-path="url(#p7fa2317468)" style="fill: #e377c2"/>
   </g>
   <g id="patch_37">
    <path d="M 400.055134 55.795688 
L 417.801786 55.795688 
L 417.801786 35.556063 
L 400.055134 35.556063 
z
" clip-path="url(#p7fa2317468)" style="fill: #e377c2"/>
   </g>
   <g id="patch_38">
    <path d="M 423.262294 217.712687 
L 438.278692 217.712687 
L 438.278692 197.473062 
L 423.262294 197.473062 
z
" clip-path="url(#p7fa2317468)" style="fill: #7f7f7f"/>
   </g>
   <g id="patch_39">
    <path d="M 62.86875 177.233438 
L 62.86875 177.233438 
L 62.86875 156.993813 
L 62.86875 156.993813 
z
" clip-path="url(#p7fa2317468)" style="fill: #7f7f7f"/>
   </g>
   <g id="patch_40">
    <path d="M 408.245896 136.754188 
L 438.278692 136.754188 
L 438.278692 116.514563 
L 408.245896 116.514563 
z
" clip-path="url(#p7fa2317468)" style="fill: #7f7f7f"/>
   </g>
   <g id="patch_41">
    <path d="M 274.349684 96.274938 
L 404.491797 96.274938 
L 404.491797 76.035313 
L 274.349684 76.035313 
z
" clip-path="url(#p7fa2317468)" style="fill: #7f7f7f"/>
   </g>
   <g id="patch_42">
    <path d="M 417.801786 55.795688 
L 453.295089 55.795688 
L 453.295089 35.556063 
L 417.801786 35.556063 
z
" clip-path="url(#p7fa2317468)" style="fill: #7f7f7f"/>
   </g>
   <g id="patch_43">
    <path d="M 438.278692 217.712687 
L 453.295089 217.712687 
L 453.295089 197.473062 
L 438.278692 197.473062 
z
" clip-path="url(#p7fa2317468)" style="fill: #bcbd22"/>
   </g>
   <g id="patch_44">
    <path d="M 408.245896 177.233438 
L 453.295089 177.233438 
L 453.295089 156.993813 
L 408.245896 156.993813 
z
" clip-path="url(#p7fa2317468)" style="fill: #bcbd22"/>
   </g>
   <g id="patch_45">
    <path d="M 438.278692 136.754188 
L 453.295089 136.754188 
L 453.295089 116.514563 
L 438.278692 116.514563 
z
" clip-path="url(#p7fa2317468)" style="fill: #bcbd22"/>
   </g>
   <g id="patch_46">
    <path d="M 404.491797 96.274938 
L 453.295089 96.274938 
L 453.295089 76.035313 
L 404.491797 76.035313 
z
" clip-path="url(#p7fa2317468)" style="fill: #bcbd22"/>
   </g>
   <g id="patch_47">
    <path d="M 62.86875 55.795688 
L 62.86875 55.795688 
L 62.86875 35.556063 
L 62.86875 35.556063 
z
" clip-path="url(#p7fa2317468)" style="fill: #bcbd22"/>
   </g>
   <g id="matplotlib.axis_1">
    <g id="xtick_1">
     <g id="line2d_1">
      <defs>
       <path id="m4c99cd72f3" d="M 0 0 
L 0 3.5 
" style="stroke: #000000; stroke-width: 0.8"/>
      </defs>
      <g>
       <use xlink:href="#m4c99cd72f3" x="62.86875" y="227.8325" style="stroke: #000000; stroke-width: 0.8"/>
      </g>
     </g>
     <g id="text_1">
      <text style="font: 10px 'sans-serif'; text-anchor: middle" x="62.86875" y="242.005937" transform="rotate(-0, 62.86875, 242.005937)">0</text>
     </g>
    </g>
    <g id="xtick_2">
     <g id="line2d_2">
      <g>
       <use xlink:href="#m4c99cd72f3" x="140.954018" y="227.8325" style="stroke: #000000; stroke-width: 0.8"/>
      </g>
     </g>
     <g id="text_2">
      <text style="font: 10px 'sans-serif'; text-anchor: middle" x="140.954018" y="242.005937" transform="rotate(-0, 140.954018, 242.005937)">20</text>
     </g>
    </g>
    <g id="xtick_3">
     <g id="line2d_3">
      <g>
       <use xlink:href="#m4c99cd72f3" x="219.039286" y="227.8325" style="stroke: #000000; stroke-width: 0.8"/>
      </g>
     </g>
     <g id="text_3">
      <text style="font: 10px 'sans-serif'; text-anchor: middle" x="219.039286" y="242.005937" transform="rotate(-0, 219.039286, 242.005937)">40</text>
     </g>
    </g>
    <g id="xtick_4">
     <g id="line2d_4">
      <g>
       <use xlink:href="#m4c99cd72f3" x="297.124554" y="227.8325" style="stroke: #000000; stroke-width: 0.8"/>
      </g>
     </g>
     <g id="text_4">
      <text style="font: 10px 'sans-serif'; text-anchor: middle" x="297.124554" y="242.005937" transform="rotate(-0, 297.124554, 242.005937)">60</text>
     </g>
    </g>
    <g id="xtick_5">
     <g id="line2d_5">
      <g>
       <use xlink:href="#m4c99cd72f3" x="375.209821" y="227.8325" style="stroke: #000000; stroke-width: 0.8"/>
      </g>
     </g>
     <g id="text_5">
      <text style="font: 10px 'sans-serif'; text-anchor: middle" x="375.209821" y="242.005937" transform="rotate(-0, 375.209821, 242.005937)">80</text>
     </g>
    </g>
    <g id="xtick_6">
     <g id="line2d_6">
      <g>
       <use xlink:href="#m4c99cd72f3" x="453.295089" y="227.8325" style="stroke: #000000; stroke-width: 0.8"/>
      </g>
     </g>
     <g id="text_6">
      <text style="font: 10px 'sans-serif'; text-anchor: middle" x="453.295089" y="242.005937" transform="rotate(-0, 453.295089, 242.005937)">100</text>
     </g>
    </g>
    <g id="text_7">
     <text style="font: 10px 'sans-serif'; text-anchor: middle" x="267.842578" y="255.365312" transform="rotate(-0, 267.842578, 255.365312)">Ranking of importance</text>
    </g>
   </g>
   <g id="matplotlib.axis_2">
    <g id="ytick_1">
     <g id="line2d_7">
      <defs>
       <path id="m8e343aef83" d="M 0 0 
L -3.5 0 
" style="stroke: #000000; stroke-width: 0.8"/>
      </defs>
      <g>
       <use xlink:href="#m8e343aef83" x="62.86875" y="207.592875" style="stroke: #000000; stroke-width: 0.8"/>
      </g>
     </g>
     <g id="text_8">
      <text style="font: 10px 'sans-serif'; text-anchor: end" x="55.86875" y="211.179594" transform="rotate(-0, 55.86875, 211.179594)">Rank 1</text>
     </g>
    </g>
    <g id="ytick_2">
     <g id="line2d_8">
      <g>
       <use xlink:href="#m8e343aef83" x="62.86875" y="167.113625" style="stroke: #000000; stroke-width: 0.8"/>
      </g>
     </g>
     <g id="text_9">
      <text style="font: 10px 'sans-serif'; text-anchor: end" x="55.86875" y="170.700344" transform="rotate(-0, 55.86875, 170.700344)">Rank 2</text>
     </g>
    </g>
    <g id="ytick_3">
     <g id="line2d_9">
      <g>
       <use xlink:href="#m8e343aef83" x="62.86875" y="126.634375" style="stroke: #000000; stroke-width: 0.8"/>
      </g>
     </g>
     <g id="text_10">
      <text style="font: 10px 'sans-serif'; text-anchor: end" x="55.86875" y="130.221094" transform="rotate(-0, 55.86875, 130.221094)">Rank 3</text>
     </g>
    </g>
    <g id="ytick_4">
     <g id="line2d_10">
      <g>
       <use xlink:href="#m8e343aef83" x="62.86875" y="86.155125" style="stroke: #000000; stroke-width: 0.8"/>
      </g>
     </g>
     <g id="text_11">
      <text style="font: 10px 'sans-serif'; text-anchor: end" x="55.86875" y="89.741844" transform="rotate(-0, 55.86875, 89.741844)">Rank 4</text>
     </g>
    </g>
    <g id="ytick_5">
     <g id="line2d_11">
      <g>
       <use xlink:href="#m8e343aef83" x="62.86875" y="45.675875" style="stroke: #000000; stroke-width: 0.8"/>
      </g>
     </g>
     <g id="text_12">
      <text style="font: 10px 'sans-serif'; text-anchor: end" x="55.86875" y="49.262594" transform="rotate(-0, 55.86875, 49.262594)">Rank 5</text>
     </g>
    </g>
    <g id="text_13">
     <text style="font: 10px 'sans-serif'; text-anchor: middle" x="17.973438" y="126.634375" transform="rotate(-90, 17.973438, 126.634375)">Percentage</text>
    </g>
   </g>
   <g id="patch_48">
    <path d="M 62.86875 227.8325 
L 472.816406 227.8325 
" style="fill: none; stroke: #000000; stroke-width: 0.8; stroke-linejoin: miter; stroke-linecap: square"/>
   </g>
   <g id="text_14">
    <text style="font: 10px 'sans-serif'; text-anchor: middle" x="100.409744" y="211.6408" transform="rotate(-0, 100.409744, 211.6408)">19</text>
   </g>
   <g id="text_15">
    <text style="font: 10px 'sans-serif'; text-anchor: middle" x="85.393346" y="171.16155" transform="rotate(-0, 85.393346, 171.16155)">12</text>
   </g>
   <g id="text_16">
    <text style="font: 10px 'sans-serif'; text-anchor: middle" x="100.409744" y="130.6823" transform="rotate(-0, 100.409744, 130.6823)">19</text>
   </g>
   <g id="text_17">
    <text style="font: 10px 'sans-serif'; text-anchor: middle" x="71.742076" y="49.7238" transform="rotate(-0, 71.742076, 49.7238)">5</text>
   </g>
   <g id="text_18">
    <text style="font: 10px 'sans-serif'; text-anchor: middle" x="167.983534" y="211.6408" transform="rotate(-0, 167.983534, 211.6408)">15</text>
   </g>
   <g id="text_19">
    <text style="font: 10px 'sans-serif'; text-anchor: middle" x="145.458937" y="171.16155" transform="rotate(-0, 145.458937, 171.16155)">19</text>
   </g>
   <g id="text_20">
    <text style="font: 10px 'sans-serif'; text-anchor: middle" x="175.491732" y="130.6823" transform="rotate(-0, 175.491732, 130.6823)">19</text>
   </g>
   <g id="text_21">
    <text style="font: 10px 'sans-serif'; text-anchor: middle" x="220.540925" y="211.6408" transform="rotate(-0, 220.540925, 211.6408)">12</text>
   </g>
   <g id="text_22">
    <text style="font: 10px 'sans-serif'; text-anchor: middle" x="235.557323" y="130.6823" transform="rotate(-0, 235.557323, 130.6823)">12</text>
   </g>
   <g id="text_23">
    <text style="font: 10px 'sans-serif'; text-anchor: middle" x="142.728683" y="49.7238" transform="rotate(-0, 142.728683, 49.7238)">32</text>
   </g>
   <g id="text_24">
    <text style="font: 10px 'sans-serif'; text-anchor: middle" x="265.590118" y="211.6408" transform="rotate(-0, 265.590118, 211.6408)">12</text>
   </g>
   <g id="text_25">
    <text style="font: 10px 'sans-serif'; text-anchor: middle" x="250.573721" y="171.16155" transform="rotate(-0, 250.573721, 171.16155)">27</text>
   </g>
   <g id="text_26">
    <text style="font: 10px 'sans-serif'; text-anchor: middle" x="280.606516" y="130.6823" transform="rotate(-0, 280.606516, 130.6823)">12</text>
   </g>
   <g id="text_27">
    <text style="font: 10px 'sans-serif'; text-anchor: middle" x="136.073689" y="90.20305" transform="rotate(-0, 136.073689, 90.20305)">12</text>
   </g>
   <g id="text_28">
    <text style="font: 10px 'sans-serif'; text-anchor: middle" x="240.335268" y="49.7238" transform="rotate(-0, 240.335268, 49.7238)">18</text>
   </g>
   <g id="text_29">
    <text style="font: 10px 'sans-serif'; text-anchor: middle" x="310.639311" y="211.6408" transform="rotate(-0, 310.639311, 211.6408)">12</text>
   </g>
   <g id="text_30">
    <text style="font: 10px 'sans-serif'; text-anchor: middle" x="318.14751" y="171.16155" transform="rotate(-0, 318.14751, 171.16155)">8</text>
   </g>
   <g id="text_31">
    <text style="font: 10px 'sans-serif'; text-anchor: middle" x="325.655709" y="130.6823" transform="rotate(-0, 325.655709, 130.6823)">12</text>
   </g>
   <g id="text_32">
    <text style="font: 10px 'sans-serif'; text-anchor: middle" x="201.144745" y="90.20305" transform="rotate(-0, 201.144745, 90.20305)">21</text>
   </g>
   <g id="text_33">
    <text style="font: 10px 'sans-serif'; text-anchor: middle" x="320.195201" y="49.7238" transform="rotate(-0, 320.195201, 49.7238)">23</text>
   </g>
   <g id="text_34">
    <text style="font: 10px 'sans-serif'; text-anchor: middle" x="355.688504" y="211.6408" transform="rotate(-0, 355.688504, 211.6408)">12</text>
   </g>
   <g id="text_35">
    <text style="font: 10px 'sans-serif'; text-anchor: middle" x="370.704902" y="171.16155" transform="rotate(-0, 370.704902, 171.16155)">19</text>
   </g>
   <g id="text_36">
    <text style="font: 10px 'sans-serif'; text-anchor: middle" x="363.196703" y="130.6823" transform="rotate(-0, 363.196703, 130.6823)">8</text>
   </g>
   <g id="text_37">
    <text style="font: 10px 'sans-serif'; text-anchor: middle" x="258.08192" y="90.20305" transform="rotate(-0, 258.08192, 90.20305)">8</text>
   </g>
   <g id="text_38">
    <text style="font: 10px 'sans-serif'; text-anchor: middle" x="382.308482" y="49.7238" transform="rotate(-0, 382.308482, 49.7238)">9</text>
   </g>
   <g id="text_39">
    <text style="font: 10px 'sans-serif'; text-anchor: middle" x="400.737697" y="211.6408" transform="rotate(-0, 400.737697, 211.6408)">12</text>
   </g>
   <g id="text_40">
    <text style="font: 10px 'sans-serif'; text-anchor: middle" x="393.229499" y="130.6823" transform="rotate(-0, 393.229499, 130.6823)">8</text>
   </g>
   <g id="text_41">
    <text style="font: 10px 'sans-serif'; text-anchor: middle" x="408.92846" y="49.7238" transform="rotate(-0, 408.92846, 49.7238)">5</text>
   </g>
   <g id="text_42">
    <text style="font: 10px 'sans-serif'; text-anchor: middle" x="423.262294" y="130.6823" transform="rotate(-0, 423.262294, 130.6823)">8</text>
   </g>
   <g id="text_43">
    <text style="font: 10px 'sans-serif'; text-anchor: middle" x="339.42074" y="90.20305" transform="rotate(-0, 339.42074, 90.20305)">33</text>
   </g>
   <g id="text_44">
    <text style="font: 10px 'sans-serif'; text-anchor: middle" x="435.548438" y="49.7238" transform="rotate(-0, 435.548438, 49.7238)">9</text>
   </g>
   <g id="text_45">
    <text style="font: 10px 'sans-serif'; text-anchor: middle" x="430.770493" y="171.16155" transform="rotate(-0, 430.770493, 171.16155)">12</text>
   </g>
   <g id="text_46">
    <text style="font: 10px 'sans-serif'; text-anchor: middle" x="428.893443" y="90.20305" transform="rotate(-0, 428.893443, 90.20305)">12</text>
   </g>
   <g id="text_47">
    <text style="font: 12px 'sans-serif'; text-anchor: middle" x="267.842578" y="19.43625" transform="rotate(-0, 267.842578, 19.43625)">Reasons to choose current job: New Zealand</text>
   </g>
   <g id="legend_1">
    <g id="patch_49">
     <path d="M 54.158984 337.979437 
L 481.526172 337.979437 
Q 483.526172 337.979437 483.526172 335.979437 
L 483.526172 265.191937 
Q 483.526172 263.191937 481.526172 263.191937 
L 54.158984 263.191937 
Q 52.158984 263.191937 52.158984 265.191937 
L 52.158984 335.979437 
Q 52.158984 337.979437 54.158984 337.979437 
z
" style="fill: #ffffff; opacity: 0.8; stroke: #cccccc; stroke-linejoin: miter"/>
    </g>
    <g id="patch_50">
     <path d="M 56.158984 274.560687 
L 76.158984 274.560687 
L 76.158984 267.560687 
L 56.158984 267.560687 
z
" style="fill: #1f77b4"/>
    </g>
    <g id="text_48">
     <text style="font: 10px 'sans-serif'; text-anchor: start" x="84.158984" y="274.560687" transform="rotate(-0, 84.158984, 274.560687)">Desire to advance research</text>
    </g>
    <g id="patch_51">
     <path d="M 56.158984 288.8185 
L 76.158984 288.8185 
L 76.158984 281.8185 
L 56.158984 281.8185 
z
" style="fill: #ff7f0e"/>
    </g>
    <g id="text_49">
     <text style="font: 10px 'sans-serif'; text-anchor: start" x="84.158984" y="288.8185" transform="rotate(-0, 84.158984, 288.8185)">Desire to work in a research environment</text>
    </g>
    <g id="patch_52">
     <path d="M 56.158984 303.09975 
L 76.158984 303.09975 
L 76.158984 296.09975 
L 56.158984 296.09975 
z
" style="fill: #2ca02c"/>
    </g>
    <g id="text_50">
     <text style="font: 10px 'sans-serif'; text-anchor: start" x="84.158984" y="303.09975" transform="rotate(-0, 84.158984, 303.09975)">Flexible working hours</text>
    </g>
    <g id="patch_53">
     <path d="M 56.158984 317.509125 
L 76.158984 317.509125 
L 76.158984 310.509125 
L 56.158984 310.509125 
z
" style="fill: #d62728"/>
    </g>
    <g id="text_51">
     <text style="font: 10px 'sans-serif'; text-anchor: start" x="84.158984" y="317.509125" transform="rotate(-0, 84.158984, 317.509125)">Freedom to choose own working practices</text>
    </g>
    <g id="patch_54">
     <path d="M 56.158984 331.895062 
L 76.158984 331.895062 
L 76.158984 324.895062 
L 56.158984 324.895062 
z
" style="fill: #9467bd"/>
    </g>
    <g id="text_52">
     <text style="font: 10px 'sans-serif'; text-anchor: start" x="84.158984" y="331.895062" transform="rotate(-0, 84.158984, 331.895062)">I want to learn new skills</text>
    </g>
    <g id="patch_55">
     <path d="M 291.455859 274.560687 
L 311.455859 274.560687 
L 311.455859 267.560687 
L 291.455859 267.560687 
z
" style="fill: #8c564b"/>
    </g>
    <g id="text_53">
     <text style="font: 10px 'sans-serif'; text-anchor: start" x="319.455859" y="274.560687" transform="rotate(-0, 319.455859, 274.560687)">Opportunity to develop software</text>
    </g>
    <g id="patch_56">
     <path d="M 291.455859 288.901312 
L 311.455859 288.901312 
L 311.455859 281.901312 
L 291.455859 281.901312 
z
" style="fill: #e377c2"/>
    </g>
    <g id="text_54">
     <text style="font: 10px 'sans-serif'; text-anchor: start" x="319.455859" y="288.901312" transform="rotate(-0, 319.455859, 288.901312)">The salary</text>
    </g>
    <g id="patch_57">
     <path d="M 291.455859 303.241937 
L 311.455859 303.241937 
L 311.455859 296.241937 
L 291.455859 296.241937 
z
" style="fill: #7f7f7f"/>
    </g>
    <g id="text_55">
     <text style="font: 10px 'sans-serif'; text-anchor: start" x="319.455859" y="303.241937" transform="rotate(-0, 319.455859, 303.241937)">Ability to work across disciplines</text>
    </g>
    <g id="patch_58">
     <path d="M 291.455859 317.754437 
L 311.455859 317.754437 
L 311.455859 310.754437 
L 291.455859 310.754437 
z
" style="fill: #bcbd22"/>
    </g>
    <g id="text_56">
     <text style="font: 10px 'sans-serif'; text-anchor: start" x="319.455859" y="317.754437" transform="rotate(-0, 319.455859, 317.754437)">Opportunity for career advancement</text>
    </g>
   </g>
  </g>
 </g>
 <defs>
  <clipPath id="p7fa2317468">
   <rect x="62.86875" y="25.43625" width="409.947656" height="202.39625"/>
  </clipPath>
 </defs>
</svg>
