<?xml version="1.0" encoding="utf-8" standalone="no"?>
<!DOCTYPE svg PUBLIC "-//W3C//DTD SVG 1.1//EN"
  "http://www.w3.org/Graphics/SVG/1.1/DTD/svg11.dtd">
<svg height="360pt" version="1.1" viewBox="0 0 504 360" width="504pt" xmlns="http://www.w3.org/2000/svg" xmlns:xlink="http://www.w3.org/1999/xlink">
 <metadata>
  <rdf:RDF xmlns:cc="http://creativecommons.org/ns#" xmlns:dc="http://purl.org/dc/elements/1.1/" xmlns:rdf="http://www.w3.org/1999/02/22-rdf-syntax-ns#">
   <cc:Work>
    <dc:type rdf:resource="http://purl.org/dc/dcmitype/StillImage"/>
    <dc:date>2021-06-09T15:04:15.640679</dc:date>
    <dc:format>image/svg+xml</dc:format>
    <dc:creator>
     <cc:Agent>
      <dc:title>Matplotlib v3.4.2, https://matplotlib.org/</dc:title>
     </cc:Agent>
    </dc:creator>
   </cc:Work>
  </rdf:RDF>
 </metadata>
 <defs>
  <style type="text/css">*{stroke-linecap:butt;stroke-linejoin:round;}</style>
 </defs>
 <g id="figure_1">
  <g id="patch_1">
   <path d="M 0 360 
L 504 360 
L 504 0 
L 0 0 
z
" style="fill:#ffffff;"/>
  </g>
  <g id="axes_1">
   <g id="patch_2">
    <path d="M 62.745313 228.41375 
L 472.816406 228.41375 
L 472.816406 25.389375 
L 62.745313 25.389375 
z
" style="fill:#ffffff;"/>
   </g>
   <g id="patch_3">
    <path clip-path="url(#p41cd9448c1)" d="M 62.745313 218.262531 
L 149.532846 218.262531 
L 149.532846 197.960094 
L 62.745313 197.960094 
z
" style="fill:#1f77b4;"/>
   </g>
   <g id="patch_4">
    <path clip-path="url(#p41cd9448c1)" d="M 62.745313 177.657656 
L 116.987521 177.657656 
L 116.987521 157.355219 
L 62.745313 157.355219 
z
" style="fill:#1f77b4;"/>
   </g>
   <g id="patch_5">
    <path clip-path="url(#p41cd9448c1)" d="M 62.745313 137.052781 
L 138.684404 137.052781 
L 138.684404 116.750344 
L 62.745313 116.750344 
z
" style="fill:#1f77b4;"/>
   </g>
   <g id="patch_6">
    <path clip-path="url(#p41cd9448c1)" d="M 62.745313 96.447906 
L 62.745313 96.447906 
L 62.745313 76.145469 
L 62.745313 76.145469 
z
" style="fill:#1f77b4;"/>
   </g>
   <g id="patch_7">
    <path clip-path="url(#p41cd9448c1)" d="M 62.745313 55.843031 
L 106.139079 55.843031 
L 106.139079 35.540594 
L 62.745313 35.540594 
z
" style="fill:#1f77b4;"/>
   </g>
   <g id="patch_8">
    <path clip-path="url(#p41cd9448c1)" d="M 149.532846 218.262531 
L 236.320379 218.262531 
L 236.320379 197.960094 
L 149.532846 197.960094 
z
" style="fill:#ff7f0e;"/>
   </g>
   <g id="patch_9">
    <path clip-path="url(#p41cd9448c1)" d="M 116.987521 177.657656 
L 138.684404 177.657656 
L 138.684404 157.355219 
L 116.987521 157.355219 
z
" style="fill:#ff7f0e;"/>
   </g>
   <g id="patch_10">
    <path clip-path="url(#p41cd9448c1)" d="M 62.745313 137.052781 
L 62.745313 137.052781 
L 62.745313 116.750344 
L 62.745313 116.750344 
z
" style="fill:#ff7f0e;"/>
   </g>
   <g id="patch_11">
    <path clip-path="url(#p41cd9448c1)" d="M 62.745313 96.447906 
L 106.139079 96.447906 
L 106.139079 76.145469 
L 62.745313 76.145469 
z
" style="fill:#ff7f0e;"/>
   </g>
   <g id="patch_12">
    <path clip-path="url(#p41cd9448c1)" d="M 106.139079 55.843031 
L 160.381287 55.843031 
L 160.381287 35.540594 
L 106.139079 35.540594 
z
" style="fill:#ff7f0e;"/>
   </g>
   <g id="patch_13">
    <path clip-path="url(#p41cd9448c1)" d="M 236.320379 218.262531 
L 290.562587 218.262531 
L 290.562587 197.960094 
L 236.320379 197.960094 
z
" style="fill:#2ca02c;"/>
   </g>
   <g id="patch_14">
    <path clip-path="url(#p41cd9448c1)" d="M 138.684404 177.657656 
L 160.381287 177.657656 
L 160.381287 157.355219 
L 138.684404 157.355219 
z
" style="fill:#2ca02c;"/>
   </g>
   <g id="patch_15">
    <path clip-path="url(#p41cd9448c1)" d="M 138.684404 137.052781 
L 214.623495 137.052781 
L 214.623495 116.750344 
L 138.684404 116.750344 
z
" style="fill:#2ca02c;"/>
   </g>
   <g id="patch_16">
    <path clip-path="url(#p41cd9448c1)" d="M 106.139079 96.447906 
L 138.684404 96.447906 
L 138.684404 76.145469 
L 106.139079 76.145469 
z
" style="fill:#2ca02c;"/>
   </g>
   <g id="patch_17">
    <path clip-path="url(#p41cd9448c1)" d="M 160.381287 55.843031 
L 203.775054 55.843031 
L 203.775054 35.540594 
L 160.381287 35.540594 
z
" style="fill:#2ca02c;"/>
   </g>
   <g id="patch_18">
    <path clip-path="url(#p41cd9448c1)" d="M 290.562587 218.262531 
L 344.804795 218.262531 
L 344.804795 197.960094 
L 290.562587 197.960094 
z
" style="fill:#d62728;"/>
   </g>
   <g id="patch_19">
    <path clip-path="url(#p41cd9448c1)" d="M 160.381287 177.657656 
L 247.16882 177.657656 
L 247.16882 157.355219 
L 160.381287 157.355219 
z
" style="fill:#d62728;"/>
   </g>
   <g id="patch_20">
    <path clip-path="url(#p41cd9448c1)" d="M 214.623495 137.052781 
L 258.017262 137.052781 
L 258.017262 116.750344 
L 214.623495 116.750344 
z
" style="fill:#d62728;"/>
   </g>
   <g id="patch_21">
    <path clip-path="url(#p41cd9448c1)" d="M 138.684404 96.447906 
L 214.623495 96.447906 
L 214.623495 76.145469 
L 138.684404 76.145469 
z
" style="fill:#d62728;"/>
   </g>
   <g id="patch_22">
    <path clip-path="url(#p41cd9448c1)" d="M 203.775054 55.843031 
L 236.320379 55.843031 
L 236.320379 35.540594 
L 203.775054 35.540594 
z
" style="fill:#d62728;"/>
   </g>
   <g id="patch_23">
    <path clip-path="url(#p41cd9448c1)" d="M 344.804795 218.262531 
L 377.35012 218.262531 
L 377.35012 197.960094 
L 344.804795 197.960094 
z
" style="fill:#9467bd;"/>
   </g>
   <g id="patch_24">
    <path clip-path="url(#p41cd9448c1)" d="M 247.16882 177.657656 
L 268.865704 177.657656 
L 268.865704 157.355219 
L 247.16882 157.355219 
z
" style="fill:#9467bd;"/>
   </g>
   <g id="patch_25">
    <path clip-path="url(#p41cd9448c1)" d="M 258.017262 137.052781 
L 268.865704 137.052781 
L 268.865704 116.750344 
L 258.017262 116.750344 
z
" style="fill:#9467bd;"/>
   </g>
   <g id="patch_26">
    <path clip-path="url(#p41cd9448c1)" d="M 214.623495 96.447906 
L 279.714145 96.447906 
L 279.714145 76.145469 
L 214.623495 76.145469 
z
" style="fill:#9467bd;"/>
   </g>
   <g id="patch_27">
    <path clip-path="url(#p41cd9448c1)" d="M 236.320379 55.843031 
L 247.16882 55.843031 
L 247.16882 35.540594 
L 236.320379 35.540594 
z
" style="fill:#9467bd;"/>
   </g>
   <g id="patch_28">
    <path clip-path="url(#p41cd9448c1)" d="M 377.35012 218.262531 
L 399.047003 218.262531 
L 399.047003 197.960094 
L 377.35012 197.960094 
z
" style="fill:#8c564b;"/>
   </g>
   <g id="patch_29">
    <path clip-path="url(#p41cd9448c1)" d="M 268.865704 177.657656 
L 301.411028 177.657656 
L 301.411028 157.355219 
L 268.865704 157.355219 
z
" style="fill:#8c564b;"/>
   </g>
   <g id="patch_30">
    <path clip-path="url(#p41cd9448c1)" d="M 268.865704 137.052781 
L 323.107912 137.052781 
L 323.107912 116.750344 
L 268.865704 116.750344 
z
" style="fill:#8c564b;"/>
   </g>
   <g id="patch_31">
    <path clip-path="url(#p41cd9448c1)" d="M 279.714145 96.447906 
L 333.956353 96.447906 
L 333.956353 76.145469 
L 279.714145 76.145469 
z
" style="fill:#8c564b;"/>
   </g>
   <g id="patch_32">
    <path clip-path="url(#p41cd9448c1)" d="M 247.16882 55.843031 
L 268.865704 55.843031 
L 268.865704 35.540594 
L 247.16882 35.540594 
z
" style="fill:#8c564b;"/>
   </g>
   <g id="patch_33">
    <path clip-path="url(#p41cd9448c1)" d="M 399.047003 218.262531 
L 420.743886 218.262531 
L 420.743886 197.960094 
L 399.047003 197.960094 
z
" style="fill:#e377c2;"/>
   </g>
   <g id="patch_34">
    <path clip-path="url(#p41cd9448c1)" d="M 301.411028 177.657656 
L 355.653237 177.657656 
L 355.653237 157.355219 
L 301.411028 157.355219 
z
" style="fill:#e377c2;"/>
   </g>
   <g id="patch_35">
    <path clip-path="url(#p41cd9448c1)" d="M 323.107912 137.052781 
L 366.501678 137.052781 
L 366.501678 116.750344 
L 323.107912 116.750344 
z
" style="fill:#e377c2;"/>
   </g>
   <g id="patch_36">
    <path clip-path="url(#p41cd9448c1)" d="M 333.956353 96.447906 
L 399.047003 96.447906 
L 399.047003 76.145469 
L 333.956353 76.145469 
z
" style="fill:#e377c2;"/>
   </g>
   <g id="patch_37">
    <path clip-path="url(#p41cd9448c1)" d="M 268.865704 55.843031 
L 344.804795 55.843031 
L 344.804795 35.540594 
L 268.865704 35.540594 
z
" style="fill:#e377c2;"/>
   </g>
   <g id="patch_38">
    <path clip-path="url(#p41cd9448c1)" d="M 420.743886 218.262531 
L 442.44077 218.262531 
L 442.44077 197.960094 
L 420.743886 197.960094 
z
" style="fill:#7f7f7f;"/>
   </g>
   <g id="patch_39">
    <path clip-path="url(#p41cd9448c1)" d="M 355.653237 177.657656 
L 377.35012 177.657656 
L 377.35012 157.355219 
L 355.653237 157.355219 
z
" style="fill:#7f7f7f;"/>
   </g>
   <g id="patch_40">
    <path clip-path="url(#p41cd9448c1)" d="M 366.501678 137.052781 
L 377.35012 137.052781 
L 377.35012 116.750344 
L 366.501678 116.750344 
z
" style="fill:#7f7f7f;"/>
   </g>
   <g id="patch_41">
    <path clip-path="url(#p41cd9448c1)" d="M 399.047003 96.447906 
L 420.743886 96.447906 
L 420.743886 76.145469 
L 399.047003 76.145469 
z
" style="fill:#7f7f7f;"/>
   </g>
   <g id="patch_42">
    <path clip-path="url(#p41cd9448c1)" d="M 344.804795 55.843031 
L 409.895445 55.843031 
L 409.895445 35.540594 
L 344.804795 35.540594 
z
" style="fill:#7f7f7f;"/>
   </g>
   <g id="patch_43">
    <path clip-path="url(#p41cd9448c1)" d="M 442.44077 218.262531 
L 453.289211 218.262531 
L 453.289211 197.960094 
L 442.44077 197.960094 
z
" style="fill:#bcbd22;"/>
   </g>
   <g id="patch_44">
    <path clip-path="url(#p41cd9448c1)" d="M 377.35012 177.657656 
L 453.289211 177.657656 
L 453.289211 157.355219 
L 377.35012 157.355219 
z
" style="fill:#bcbd22;"/>
   </g>
   <g id="patch_45">
    <path clip-path="url(#p41cd9448c1)" d="M 377.35012 137.052781 
L 453.289211 137.052781 
L 453.289211 116.750344 
L 377.35012 116.750344 
z
" style="fill:#bcbd22;"/>
   </g>
   <g id="patch_46">
    <path clip-path="url(#p41cd9448c1)" d="M 420.743886 96.447906 
L 453.289211 96.447906 
L 453.289211 76.145469 
L 420.743886 76.145469 
z
" style="fill:#bcbd22;"/>
   </g>
   <g id="patch_47">
    <path clip-path="url(#p41cd9448c1)" d="M 409.895445 55.843031 
L 453.289211 55.843031 
L 453.289211 35.540594 
L 409.895445 35.540594 
z
" style="fill:#bcbd22;"/>
   </g>
   <g id="matplotlib.axis_1">
    <g id="xtick_1">
     <g id="line2d_1">
      <defs>
       <path d="M 0 0 
L 0 3.5 
" id="mc3a356a46d" style="stroke:#000000;stroke-width:0.8;"/>
      </defs>
      <g>
       <use style="stroke:#000000;stroke-width:0.8;" x="62.745313" xlink:href="#mc3a356a46d" y="228.41375"/>
      </g>
     </g>
     <g id="text_1">
      <text style="font-family:Arial;font-size:10px;font-stretch:normal;font-style:normal;font-weight:normal;text-anchor:middle;" transform="rotate(-0, 62.745313, 242.571562)" x="62.745313" y="242.571562">0</text>
     </g>
    </g>
    <g id="xtick_2">
     <g id="line2d_2">
      <g>
       <use style="stroke:#000000;stroke-width:0.8;" x="140.854092" xlink:href="#mc3a356a46d" y="228.41375"/>
      </g>
     </g>
     <g id="text_2">
      <text style="font-family:Arial;font-size:10px;font-stretch:normal;font-style:normal;font-weight:normal;text-anchor:middle;" transform="rotate(-0, 140.854092, 242.571562)" x="140.854092" y="242.571562">20</text>
     </g>
    </g>
    <g id="xtick_3">
     <g id="line2d_3">
      <g>
       <use style="stroke:#000000;stroke-width:0.8;" x="218.962872" xlink:href="#mc3a356a46d" y="228.41375"/>
      </g>
     </g>
     <g id="text_3">
      <text style="font-family:Arial;font-size:10px;font-stretch:normal;font-style:normal;font-weight:normal;text-anchor:middle;" transform="rotate(-0, 218.962872, 242.571562)" x="218.962872" y="242.571562">40</text>
     </g>
    </g>
    <g id="xtick_4">
     <g id="line2d_4">
      <g>
       <use style="stroke:#000000;stroke-width:0.8;" x="297.071652" xlink:href="#mc3a356a46d" y="228.41375"/>
      </g>
     </g>
     <g id="text_4">
      <text style="font-family:Arial;font-size:10px;font-stretch:normal;font-style:normal;font-weight:normal;text-anchor:middle;" transform="rotate(-0, 297.071652, 242.571562)" x="297.071652" y="242.571562">60</text>
     </g>
    </g>
    <g id="xtick_5">
     <g id="line2d_5">
      <g>
       <use style="stroke:#000000;stroke-width:0.8;" x="375.180432" xlink:href="#mc3a356a46d" y="228.41375"/>
      </g>
     </g>
     <g id="text_5">
      <text style="font-family:Arial;font-size:10px;font-stretch:normal;font-style:normal;font-weight:normal;text-anchor:middle;" transform="rotate(-0, 375.180432, 242.571562)" x="375.180432" y="242.571562">80</text>
     </g>
    </g>
    <g id="xtick_6">
     <g id="line2d_6">
      <g>
       <use style="stroke:#000000;stroke-width:0.8;" x="453.289211" xlink:href="#mc3a356a46d" y="228.41375"/>
      </g>
     </g>
     <g id="text_6">
      <text style="font-family:Arial;font-size:10px;font-stretch:normal;font-style:normal;font-weight:normal;text-anchor:middle;" transform="rotate(-0, 453.289211, 242.571562)" x="453.289211" y="242.571562">100</text>
     </g>
    </g>
    <g id="text_7">
     <text style="font-family:Arial;font-size:10px;font-stretch:normal;font-style:normal;font-weight:normal;text-anchor:middle;" transform="rotate(-0, 267.780859, 255.83875)" x="267.780859" y="255.83875">Ranking of importance</text>
    </g>
   </g>
   <g id="matplotlib.axis_2">
    <g id="ytick_1">
     <g id="line2d_7">
      <defs>
       <path d="M 0 0 
L -3.5 0 
" id="m82278324de" style="stroke:#000000;stroke-width:0.8;"/>
      </defs>
      <g>
       <use style="stroke:#000000;stroke-width:0.8;" x="62.745313" xlink:href="#m82278324de" y="208.111312"/>
      </g>
     </g>
     <g id="text_8">
      <text style="font-family:Arial;font-size:10px;font-stretch:normal;font-style:normal;font-weight:normal;text-anchor:end;" transform="rotate(-0, 55.745313, 211.690219)" x="55.745313" y="211.690219">Rank 1</text>
     </g>
    </g>
    <g id="ytick_2">
     <g id="line2d_8">
      <g>
       <use style="stroke:#000000;stroke-width:0.8;" x="62.745313" xlink:href="#m82278324de" y="167.506438"/>
      </g>
     </g>
     <g id="text_9">
      <text style="font-family:Arial;font-size:10px;font-stretch:normal;font-style:normal;font-weight:normal;text-anchor:end;" transform="rotate(-0, 55.745313, 171.085344)" x="55.745313" y="171.085344">Rank 2</text>
     </g>
    </g>
    <g id="ytick_3">
     <g id="line2d_9">
      <g>
       <use style="stroke:#000000;stroke-width:0.8;" x="62.745313" xlink:href="#m82278324de" y="126.901563"/>
      </g>
     </g>
     <g id="text_10">
      <text style="font-family:Arial;font-size:10px;font-stretch:normal;font-style:normal;font-weight:normal;text-anchor:end;" transform="rotate(-0, 55.745313, 130.480469)" x="55.745313" y="130.480469">Rank 3</text>
     </g>
    </g>
    <g id="ytick_4">
     <g id="line2d_10">
      <g>
       <use style="stroke:#000000;stroke-width:0.8;" x="62.745313" xlink:href="#m82278324de" y="86.296688"/>
      </g>
     </g>
     <g id="text_11">
      <text style="font-family:Arial;font-size:10px;font-stretch:normal;font-style:normal;font-weight:normal;text-anchor:end;" transform="rotate(-0, 55.745313, 89.875594)" x="55.745313" y="89.875594">Rank 4</text>
     </g>
    </g>
    <g id="ytick_5">
     <g id="line2d_11">
      <g>
       <use style="stroke:#000000;stroke-width:0.8;" x="62.745313" xlink:href="#m82278324de" y="45.691813"/>
      </g>
     </g>
     <g id="text_12">
      <text style="font-family:Arial;font-size:10px;font-stretch:normal;font-style:normal;font-weight:normal;text-anchor:end;" transform="rotate(-0, 55.745313, 49.270719)" x="55.745313" y="49.270719">Rank 5</text>
     </g>
    </g>
    <g id="text_13">
     <text style="font-family:Arial;font-size:10px;font-stretch:normal;font-style:normal;font-weight:normal;text-anchor:middle;" transform="rotate(-90, 17.957813, 126.901563)" x="17.957813" y="126.901563">Percentage</text>
    </g>
   </g>
   <g id="patch_48">
    <path d="M 62.745313 228.41375 
L 472.816406 228.41375 
" style="fill:none;stroke:#000000;stroke-linecap:square;stroke-linejoin:miter;stroke-width:0.8;"/>
   </g>
   <g id="text_14">
    <text style="font-family:Arial;font-size:10px;font-stretch:normal;font-style:normal;font-weight:normal;text-anchor:middle;" transform="rotate(-0, 106.139079, 212.1718)" x="106.139079" y="212.1718">22</text>
   </g>
   <g id="text_15">
    <text style="font-family:Arial;font-size:10px;font-stretch:normal;font-style:normal;font-weight:normal;text-anchor:middle;" transform="rotate(-0, 89.866417, 171.566925)" x="89.866417" y="171.566925">14</text>
   </g>
   <g id="text_16">
    <text style="font-family:Arial;font-size:10px;font-stretch:normal;font-style:normal;font-weight:normal;text-anchor:middle;" transform="rotate(-0, 100.714858, 130.96205)" x="100.714858" y="130.96205">19</text>
   </g>
   <g id="text_17">
    <text style="font-family:Arial;font-size:10px;font-stretch:normal;font-style:normal;font-weight:normal;text-anchor:middle;" transform="rotate(-0, 84.442196, 49.7523)" x="84.442196" y="49.7523">11</text>
   </g>
   <g id="text_18">
    <text style="font-family:Arial;font-size:10px;font-stretch:normal;font-style:normal;font-weight:normal;text-anchor:middle;" transform="rotate(-0, 192.926612, 212.1718)" x="192.926612" y="212.1718">22</text>
   </g>
   <g id="text_19">
    <text style="font-family:Arial;font-size:10px;font-stretch:normal;font-style:normal;font-weight:normal;text-anchor:middle;" transform="rotate(-0, 127.835962, 171.566925)" x="127.835962" y="171.566925">6</text>
   </g>
   <g id="text_20">
    <text style="font-family:Arial;font-size:10px;font-stretch:normal;font-style:normal;font-weight:normal;text-anchor:middle;" transform="rotate(-0, 84.442196, 90.357175)" x="84.442196" y="90.357175">11</text>
   </g>
   <g id="text_21">
    <text style="font-family:Arial;font-size:10px;font-stretch:normal;font-style:normal;font-weight:normal;text-anchor:middle;" transform="rotate(-0, 133.260183, 49.7523)" x="133.260183" y="49.7523">14</text>
   </g>
   <g id="text_22">
    <text style="font-family:Arial;font-size:10px;font-stretch:normal;font-style:normal;font-weight:normal;text-anchor:middle;" transform="rotate(-0, 263.441483, 212.1718)" x="263.441483" y="212.1718">14</text>
   </g>
   <g id="text_23">
    <text style="font-family:Arial;font-size:10px;font-stretch:normal;font-style:normal;font-weight:normal;text-anchor:middle;" transform="rotate(-0, 149.532846, 171.566925)" x="149.532846" y="171.566925">6</text>
   </g>
   <g id="text_24">
    <text style="font-family:Arial;font-size:10px;font-stretch:normal;font-style:normal;font-weight:normal;text-anchor:middle;" transform="rotate(-0, 176.65395, 130.96205)" x="176.65395" y="130.96205">19</text>
   </g>
   <g id="text_25">
    <text style="font-family:Arial;font-size:10px;font-stretch:normal;font-style:normal;font-weight:normal;text-anchor:middle;" transform="rotate(-0, 122.411741, 90.357175)" x="122.411741" y="90.357175">8</text>
   </g>
   <g id="text_26">
    <text style="font-family:Arial;font-size:10px;font-stretch:normal;font-style:normal;font-weight:normal;text-anchor:middle;" transform="rotate(-0, 182.07817, 49.7523)" x="182.07817" y="49.7523">11</text>
   </g>
   <g id="text_27">
    <text style="font-family:Arial;font-size:10px;font-stretch:normal;font-style:normal;font-weight:normal;text-anchor:middle;" transform="rotate(-0, 317.683691, 212.1718)" x="317.683691" y="212.1718">14</text>
   </g>
   <g id="text_28">
    <text style="font-family:Arial;font-size:10px;font-stretch:normal;font-style:normal;font-weight:normal;text-anchor:middle;" transform="rotate(-0, 203.775054, 171.566925)" x="203.775054" y="171.566925">22</text>
   </g>
   <g id="text_29">
    <text style="font-family:Arial;font-size:10px;font-stretch:normal;font-style:normal;font-weight:normal;text-anchor:middle;" transform="rotate(-0, 236.320379, 130.96205)" x="236.320379" y="130.96205">11</text>
   </g>
   <g id="text_30">
    <text style="font-family:Arial;font-size:10px;font-stretch:normal;font-style:normal;font-weight:normal;text-anchor:middle;" transform="rotate(-0, 176.65395, 90.357175)" x="176.65395" y="90.357175">19</text>
   </g>
   <g id="text_31">
    <text style="font-family:Arial;font-size:10px;font-stretch:normal;font-style:normal;font-weight:normal;text-anchor:middle;" transform="rotate(-0, 220.047716, 49.7523)" x="220.047716" y="49.7523">8</text>
   </g>
   <g id="text_32">
    <text style="font-family:Arial;font-size:10px;font-stretch:normal;font-style:normal;font-weight:normal;text-anchor:middle;" transform="rotate(-0, 361.077457, 212.1718)" x="361.077457" y="212.1718">8</text>
   </g>
   <g id="text_33">
    <text style="font-family:Arial;font-size:10px;font-stretch:normal;font-style:normal;font-weight:normal;text-anchor:middle;" transform="rotate(-0, 258.017262, 171.566925)" x="258.017262" y="171.566925">6</text>
   </g>
   <g id="text_34">
    <text style="font-family:Arial;font-size:10px;font-stretch:normal;font-style:normal;font-weight:normal;text-anchor:middle;" transform="rotate(-0, 247.16882, 90.357175)" x="247.16882" y="90.357175">17</text>
   </g>
   <g id="text_35">
    <text style="font-family:Arial;font-size:10px;font-stretch:normal;font-style:normal;font-weight:normal;text-anchor:middle;" transform="rotate(-0, 388.198562, 212.1718)" x="388.198562" y="212.1718">6</text>
   </g>
   <g id="text_36">
    <text style="font-family:Arial;font-size:10px;font-stretch:normal;font-style:normal;font-weight:normal;text-anchor:middle;" transform="rotate(-0, 285.138366, 171.566925)" x="285.138366" y="171.566925">8</text>
   </g>
   <g id="text_37">
    <text style="font-family:Arial;font-size:10px;font-stretch:normal;font-style:normal;font-weight:normal;text-anchor:middle;" transform="rotate(-0, 295.986808, 130.96205)" x="295.986808" y="130.96205">14</text>
   </g>
   <g id="text_38">
    <text style="font-family:Arial;font-size:10px;font-stretch:normal;font-style:normal;font-weight:normal;text-anchor:middle;" transform="rotate(-0, 306.835249, 90.357175)" x="306.835249" y="90.357175">14</text>
   </g>
   <g id="text_39">
    <text style="font-family:Arial;font-size:10px;font-stretch:normal;font-style:normal;font-weight:normal;text-anchor:middle;" transform="rotate(-0, 258.017262, 49.7523)" x="258.017262" y="49.7523">6</text>
   </g>
   <g id="text_40">
    <text style="font-family:Arial;font-size:10px;font-stretch:normal;font-style:normal;font-weight:normal;text-anchor:middle;" transform="rotate(-0, 409.895445, 212.1718)" x="409.895445" y="212.1718">6</text>
   </g>
   <g id="text_41">
    <text style="font-family:Arial;font-size:10px;font-stretch:normal;font-style:normal;font-weight:normal;text-anchor:middle;" transform="rotate(-0, 328.532133, 171.566925)" x="328.532133" y="171.566925">14</text>
   </g>
   <g id="text_42">
    <text style="font-family:Arial;font-size:10px;font-stretch:normal;font-style:normal;font-weight:normal;text-anchor:middle;" transform="rotate(-0, 344.804795, 130.96205)" x="344.804795" y="130.96205">11</text>
   </g>
   <g id="text_43">
    <text style="font-family:Arial;font-size:10px;font-stretch:normal;font-style:normal;font-weight:normal;text-anchor:middle;" transform="rotate(-0, 366.501678, 90.357175)" x="366.501678" y="90.357175">17</text>
   </g>
   <g id="text_44">
    <text style="font-family:Arial;font-size:10px;font-stretch:normal;font-style:normal;font-weight:normal;text-anchor:middle;" transform="rotate(-0, 306.835249, 49.7523)" x="306.835249" y="49.7523">19</text>
   </g>
   <g id="text_45">
    <text style="font-family:Arial;font-size:10px;font-stretch:normal;font-style:normal;font-weight:normal;text-anchor:middle;" transform="rotate(-0, 431.592328, 212.1718)" x="431.592328" y="212.1718">6</text>
   </g>
   <g id="text_46">
    <text style="font-family:Arial;font-size:10px;font-stretch:normal;font-style:normal;font-weight:normal;text-anchor:middle;" transform="rotate(-0, 366.501678, 171.566925)" x="366.501678" y="171.566925">6</text>
   </g>
   <g id="text_47">
    <text style="font-family:Arial;font-size:10px;font-stretch:normal;font-style:normal;font-weight:normal;text-anchor:middle;" transform="rotate(-0, 409.895445, 90.357175)" x="409.895445" y="90.357175">6</text>
   </g>
   <g id="text_48">
    <text style="font-family:Arial;font-size:10px;font-stretch:normal;font-style:normal;font-weight:normal;text-anchor:middle;" transform="rotate(-0, 377.35012, 49.7523)" x="377.35012" y="49.7523">17</text>
   </g>
   <g id="text_49">
    <text style="font-family:Arial;font-size:10px;font-stretch:normal;font-style:normal;font-weight:normal;text-anchor:middle;" transform="rotate(-0, 415.319666, 171.566925)" x="415.319666" y="171.566925">19</text>
   </g>
   <g id="text_50">
    <text style="font-family:Arial;font-size:10px;font-stretch:normal;font-style:normal;font-weight:normal;text-anchor:middle;" transform="rotate(-0, 415.319666, 130.96205)" x="415.319666" y="130.96205">19</text>
   </g>
   <g id="text_51">
    <text style="font-family:Arial;font-size:10px;font-stretch:normal;font-style:normal;font-weight:normal;text-anchor:middle;" transform="rotate(-0, 437.016549, 90.357175)" x="437.016549" y="90.357175">8</text>
   </g>
   <g id="text_52">
    <text style="font-family:Arial;font-size:10px;font-stretch:normal;font-style:normal;font-weight:normal;text-anchor:middle;" transform="rotate(-0, 431.592328, 49.7523)" x="431.592328" y="49.7523">11</text>
   </g>
   <g id="text_53">
    <text style="font-family:Arial;font-size:12px;font-stretch:normal;font-style:normal;font-weight:normal;text-anchor:middle;" transform="rotate(-0, 267.780859, 19.389375)" x="267.780859" y="19.389375">Reasons to choose current job: New Zealand</text>
   </g>
   <g id="legend_1">
    <g id="patch_49">
     <path d="M 54.097266 338.073656 
L 481.464453 338.073656 
Q 483.464453 338.073656 483.464453 336.073656 
L 483.464453 265.867406 
Q 483.464453 263.867406 481.464453 263.867406 
L 54.097266 263.867406 
Q 52.097266 263.867406 52.097266 265.867406 
L 52.097266 336.073656 
Q 52.097266 338.073656 54.097266 338.073656 
z
" style="fill:#ffffff;opacity:0.8;stroke:#cccccc;stroke-linejoin:miter;"/>
    </g>
    <g id="patch_50">
     <path d="M 56.097266 275.025219 
L 76.097266 275.025219 
L 76.097266 268.025219 
L 56.097266 268.025219 
z
" style="fill:#1f77b4;"/>
    </g>
    <g id="text_54">
     <text style="font-family:Arial;font-size:10px;font-stretch:normal;font-style:normal;font-weight:normal;text-anchor:start;" transform="rotate(-0, 84.097266, 275.025219)" x="84.097266" y="275.025219">Desire to work in a research environment</text>
    </g>
    <g id="patch_51">
     <path d="M 56.097266 289.170531 
L 76.097266 289.170531 
L 76.097266 282.170531 
L 56.097266 282.170531 
z
" style="fill:#ff7f0e;"/>
    </g>
    <g id="text_55">
     <text style="font-family:Arial;font-size:10px;font-stretch:normal;font-style:normal;font-weight:normal;text-anchor:start;" transform="rotate(-0, 84.097266, 289.170531)" x="84.097266" y="289.170531">Freedom to choose own working practices</text>
    </g>
    <g id="patch_52">
     <path d="M 56.097266 303.433031 
L 76.097266 303.433031 
L 76.097266 296.433031 
L 56.097266 296.433031 
z
" style="fill:#2ca02c;"/>
    </g>
    <g id="text_56">
     <text style="font-family:Arial;font-size:10px;font-stretch:normal;font-style:normal;font-weight:normal;text-anchor:start;" transform="rotate(-0, 84.097266, 303.433031)" x="84.097266" y="303.433031">Desire to advance research</text>
    </g>
    <g id="patch_53">
     <path d="M 56.097266 317.706469 
L 76.097266 317.706469 
L 76.097266 310.706469 
L 56.097266 310.706469 
z
" style="fill:#d62728;"/>
    </g>
    <g id="text_57">
     <text style="font-family:Arial;font-size:10px;font-stretch:normal;font-style:normal;font-weight:normal;text-anchor:start;" transform="rotate(-0, 84.097266, 317.706469)" x="84.097266" y="317.706469">Opportunity to develop software</text>
    </g>
    <g id="patch_54">
     <path d="M 56.097266 331.968969 
L 76.097266 331.968969 
L 76.097266 324.968969 
L 56.097266 324.968969 
z
" style="fill:#9467bd;"/>
    </g>
    <g id="text_58">
     <text style="font-family:Arial;font-size:10px;font-stretch:normal;font-style:normal;font-weight:normal;text-anchor:start;" transform="rotate(-0, 84.097266, 331.968969)" x="84.097266" y="331.968969">The salary</text>
    </g>
    <g id="patch_55">
     <path d="M 291.394141 275.025219 
L 311.394141 275.025219 
L 311.394141 268.025219 
L 291.394141 268.025219 
z
" style="fill:#8c564b;"/>
    </g>
    <g id="text_59">
     <text style="font-family:Arial;font-size:10px;font-stretch:normal;font-style:normal;font-weight:normal;text-anchor:start;" transform="rotate(-0, 319.394141, 275.025219)" x="319.394141" y="275.025219">Ability to work across disciplines</text>
    </g>
    <g id="patch_56">
     <path d="M 291.394141 289.287719 
L 311.394141 289.287719 
L 311.394141 282.287719 
L 291.394141 282.287719 
z
" style="fill:#e377c2;"/>
    </g>
    <g id="text_60">
     <text style="font-family:Arial;font-size:10px;font-stretch:normal;font-style:normal;font-weight:normal;text-anchor:start;" transform="rotate(-0, 319.394141, 289.287719)" x="319.394141" y="289.287719">I want to learn new skills</text>
    </g>
    <g id="patch_57">
     <path d="M 291.394141 303.561156 
L 311.394141 303.561156 
L 311.394141 296.561156 
L 291.394141 296.561156 
z
" style="fill:#7f7f7f;"/>
    </g>
    <g id="text_61">
     <text style="font-family:Arial;font-size:10px;font-stretch:normal;font-style:normal;font-weight:normal;text-anchor:start;" transform="rotate(-0, 319.394141, 303.561156)" x="319.394141" y="303.561156">Opportunity for career advancement</text>
    </g>
    <g id="patch_58">
     <path d="M 291.394141 317.823656 
L 311.394141 317.823656 
L 311.394141 310.823656 
L 291.394141 310.823656 
z
" style="fill:#bcbd22;"/>
    </g>
    <g id="text_62">
     <text style="font-family:Arial;font-size:10px;font-stretch:normal;font-style:normal;font-weight:normal;text-anchor:start;" transform="rotate(-0, 319.394141, 317.823656)" x="319.394141" y="317.823656">Flexible working hours</text>
    </g>
   </g>
  </g>
 </g>
 <defs>
  <clipPath id="p41cd9448c1">
   <rect height="203.024375" width="410.071094" x="62.745313" y="25.389375"/>
  </clipPath>
 </defs>
</svg>
