<?xml version="1.0" encoding="utf-8" standalone="no"?>
<!DOCTYPE svg PUBLIC "-//W3C//DTD SVG 1.1//EN"
  "http://www.w3.org/Graphics/SVG/1.1/DTD/svg11.dtd">
<svg height="360pt" version="1.1" viewBox="0 0 504 360" width="504pt" xmlns="http://www.w3.org/2000/svg" xmlns:xlink="http://www.w3.org/1999/xlink">
 <metadata>
  <rdf:RDF xmlns:cc="http://creativecommons.org/ns#" xmlns:dc="http://purl.org/dc/elements/1.1/" xmlns:rdf="http://www.w3.org/1999/02/22-rdf-syntax-ns#">
   <cc:Work>
    <dc:type rdf:resource="http://purl.org/dc/dcmitype/StillImage"/>
    <dc:date>2021-06-09T15:04:12.136268</dc:date>
    <dc:format>image/svg+xml</dc:format>
    <dc:creator>
     <cc:Agent>
      <dc:title>Matplotlib v3.4.2, https://matplotlib.org/</dc:title>
     </cc:Agent>
    </dc:creator>
   </cc:Work>
  </rdf:RDF>
 </metadata>
 <defs>
  <style type="text/css">*{stroke-linecap:butt;stroke-linejoin:round;}</style>
 </defs>
 <g id="figure_1">
  <g id="patch_1">
   <path d="M 0 360 
L 504 360 
L 504 0 
L 0 0 
z
" style="fill:#ffffff;"/>
  </g>
  <g id="axes_1">
   <g id="patch_2">
    <path d="M 62.745313 228.41375 
L 472.816406 228.41375 
L 472.816406 25.389375 
L 62.745313 25.389375 
z
" style="fill:#ffffff;"/>
   </g>
   <g id="patch_3">
    <path clip-path="url(#p41cd9448c1)" d="M 62.745313 218.262531 
L 174.329284 218.262531 
L 174.329284 197.960094 
L 62.745313 197.960094 
z
" style="fill:#1f77b4;"/>
   </g>
   <g id="patch_4">
    <path clip-path="url(#p41cd9448c1)" d="M 62.745313 177.657656 
L 122.52244 177.657656 
L 122.52244 157.355219 
L 62.745313 157.355219 
z
" style="fill:#1f77b4;"/>
   </g>
   <g id="patch_5">
    <path clip-path="url(#p41cd9448c1)" d="M 62.745313 137.052781 
L 111.060022 137.052781 
L 111.060022 116.750344 
L 62.745313 116.750344 
z
" style="fill:#1f77b4;"/>
   </g>
   <g id="patch_6">
    <path clip-path="url(#p41cd9448c1)" d="M 62.745313 96.447906 
L 103.00757 96.447906 
L 103.00757 76.145469 
L 62.745313 76.145469 
z
" style="fill:#1f77b4;"/>
   </g>
   <g id="patch_7">
    <path clip-path="url(#p41cd9448c1)" d="M 62.745313 55.843031 
L 98.981344 55.843031 
L 98.981344 35.540594 
L 62.745313 35.540594 
z
" style="fill:#1f77b4;"/>
   </g>
   <g id="patch_8">
    <path clip-path="url(#p41cd9448c1)" d="M 174.329284 218.262531 
L 242.076695 218.262531 
L 242.076695 197.960094 
L 174.329284 197.960094 
z
" style="fill:#ff7f0e;"/>
   </g>
   <g id="patch_9">
    <path clip-path="url(#p41cd9448c1)" d="M 122.52244 177.657656 
L 166.359 177.657656 
L 166.359 157.355219 
L 122.52244 157.355219 
z
" style="fill:#ff7f0e;"/>
   </g>
   <g id="patch_10">
    <path clip-path="url(#p41cd9448c1)" d="M 111.060022 137.052781 
L 147.296053 137.052781 
L 147.296053 116.750344 
L 111.060022 116.750344 
z
" style="fill:#ff7f0e;"/>
   </g>
   <g id="patch_11">
    <path clip-path="url(#p41cd9448c1)" d="M 103.00757 96.447906 
L 155.348505 96.447906 
L 155.348505 76.145469 
L 103.00757 76.145469 
z
" style="fill:#ff7f0e;"/>
   </g>
   <g id="patch_12">
    <path clip-path="url(#p41cd9448c1)" d="M 98.981344 55.843031 
L 131.19115 55.843031 
L 131.19115 35.540594 
L 98.981344 35.540594 
z
" style="fill:#ff7f0e;"/>
   </g>
   <g id="patch_13">
    <path clip-path="url(#p41cd9448c1)" d="M 242.076695 218.262531 
L 301.853822 218.262531 
L 301.853822 197.960094 
L 242.076695 197.960094 
z
" style="fill:#2ca02c;"/>
   </g>
   <g id="patch_14">
    <path clip-path="url(#p41cd9448c1)" d="M 166.359 177.657656 
L 222.150985 177.657656 
L 222.150985 157.355219 
L 166.359 157.355219 
z
" style="fill:#2ca02c;"/>
   </g>
   <g id="patch_15">
    <path clip-path="url(#p41cd9448c1)" d="M 147.296053 137.052781 
L 211.715666 137.052781 
L 211.715666 116.750344 
L 147.296053 116.750344 
z
" style="fill:#2ca02c;"/>
   </g>
   <g id="patch_16">
    <path clip-path="url(#p41cd9448c1)" d="M 155.348505 96.447906 
L 203.663214 96.447906 
L 203.663214 76.145469 
L 155.348505 76.145469 
z
" style="fill:#2ca02c;"/>
   </g>
   <g id="patch_17">
    <path clip-path="url(#p41cd9448c1)" d="M 131.19115 55.843031 
L 171.453408 55.843031 
L 171.453408 35.540594 
L 131.19115 35.540594 
z
" style="fill:#2ca02c;"/>
   </g>
   <g id="patch_18">
    <path clip-path="url(#p41cd9448c1)" d="M 301.853822 218.262531 
L 349.675524 218.262531 
L 349.675524 197.960094 
L 301.853822 197.960094 
z
" style="fill:#d62728;"/>
   </g>
   <g id="patch_19">
    <path clip-path="url(#p41cd9448c1)" d="M 222.150985 177.657656 
L 265.987546 177.657656 
L 265.987546 157.355219 
L 222.150985 157.355219 
z
" style="fill:#d62728;"/>
   </g>
   <g id="patch_20">
    <path clip-path="url(#p41cd9448c1)" d="M 211.715666 137.052781 
L 260.030375 137.052781 
L 260.030375 116.750344 
L 211.715666 116.750344 
z
" style="fill:#d62728;"/>
   </g>
   <g id="patch_21">
    <path clip-path="url(#p41cd9448c1)" d="M 203.663214 96.447906 
L 243.925472 96.447906 
L 243.925472 76.145469 
L 203.663214 76.145469 
z
" style="fill:#d62728;"/>
   </g>
   <g id="patch_22">
    <path clip-path="url(#p41cd9448c1)" d="M 171.453408 55.843031 
L 215.741891 55.843031 
L 215.741891 35.540594 
L 171.453408 35.540594 
z
" style="fill:#d62728;"/>
   </g>
   <g id="patch_23">
    <path clip-path="url(#p41cd9448c1)" d="M 349.675524 218.262531 
L 377.571517 218.262531 
L 377.571517 197.960094 
L 349.675524 197.960094 
z
" style="fill:#9467bd;"/>
   </g>
   <g id="patch_24">
    <path clip-path="url(#p41cd9448c1)" d="M 265.987546 177.657656 
L 309.824106 177.657656 
L 309.824106 157.355219 
L 265.987546 157.355219 
z
" style="fill:#9467bd;"/>
   </g>
   <g id="patch_25">
    <path clip-path="url(#p41cd9448c1)" d="M 260.030375 137.052781 
L 292.240181 137.052781 
L 292.240181 116.750344 
L 260.030375 116.750344 
z
" style="fill:#9467bd;"/>
   </g>
   <g id="patch_26">
    <path clip-path="url(#p41cd9448c1)" d="M 243.925472 96.447906 
L 272.109052 96.447906 
L 272.109052 76.145469 
L 243.925472 76.145469 
z
" style="fill:#9467bd;"/>
   </g>
   <g id="patch_27">
    <path clip-path="url(#p41cd9448c1)" d="M 215.741891 55.843031 
L 256.004149 55.843031 
L 256.004149 35.540594 
L 215.741891 35.540594 
z
" style="fill:#9467bd;"/>
   </g>
   <g id="patch_28">
    <path clip-path="url(#p41cd9448c1)" d="M 377.571517 218.262531 
L 405.467509 218.262531 
L 405.467509 197.960094 
L 377.571517 197.960094 
z
" style="fill:#8c564b;"/>
   </g>
   <g id="patch_29">
    <path clip-path="url(#p41cd9448c1)" d="M 309.824106 177.657656 
L 361.630949 177.657656 
L 361.630949 157.355219 
L 309.824106 157.355219 
z
" style="fill:#8c564b;"/>
   </g>
   <g id="patch_30">
    <path clip-path="url(#p41cd9448c1)" d="M 292.240181 137.052781 
L 328.476213 137.052781 
L 328.476213 116.750344 
L 292.240181 116.750344 
z
" style="fill:#8c564b;"/>
   </g>
   <g id="patch_31">
    <path clip-path="url(#p41cd9448c1)" d="M 272.109052 96.447906 
L 324.449987 96.447906 
L 324.449987 76.145469 
L 272.109052 76.145469 
z
" style="fill:#8c564b;"/>
   </g>
   <g id="patch_32">
    <path clip-path="url(#p41cd9448c1)" d="M 256.004149 55.843031 
L 312.37131 55.843031 
L 312.37131 35.540594 
L 256.004149 35.540594 
z
" style="fill:#8c564b;"/>
   </g>
   <g id="patch_33">
    <path clip-path="url(#p41cd9448c1)" d="M 405.467509 218.262531 
L 429.37836 218.262531 
L 429.37836 197.960094 
L 405.467509 197.960094 
z
" style="fill:#e377c2;"/>
   </g>
   <g id="patch_34">
    <path clip-path="url(#p41cd9448c1)" d="M 361.630949 177.657656 
L 385.5418 177.657656 
L 385.5418 157.355219 
L 361.630949 157.355219 
z
" style="fill:#e377c2;"/>
   </g>
   <g id="patch_35">
    <path clip-path="url(#p41cd9448c1)" d="M 328.476213 137.052781 
L 368.73847 137.052781 
L 368.73847 116.750344 
L 328.476213 116.750344 
z
" style="fill:#e377c2;"/>
   </g>
   <g id="patch_36">
    <path clip-path="url(#p41cd9448c1)" d="M 324.449987 96.447906 
L 360.686019 96.447906 
L 360.686019 76.145469 
L 324.449987 76.145469 
z
" style="fill:#e377c2;"/>
   </g>
   <g id="patch_37">
    <path clip-path="url(#p41cd9448c1)" d="M 312.37131 55.843031 
L 364.712245 55.843031 
L 364.712245 35.540594 
L 312.37131 35.540594 
z
" style="fill:#e377c2;"/>
   </g>
   <g id="patch_38">
    <path clip-path="url(#p41cd9448c1)" d="M 429.37836 218.262531 
L 449.304069 218.262531 
L 449.304069 197.960094 
L 429.37836 197.960094 
z
" style="fill:#7f7f7f;"/>
   </g>
   <g id="patch_39">
    <path clip-path="url(#p41cd9448c1)" d="M 385.5418 177.657656 
L 433.363502 177.657656 
L 433.363502 157.355219 
L 385.5418 157.355219 
z
" style="fill:#7f7f7f;"/>
   </g>
   <g id="patch_40">
    <path clip-path="url(#p41cd9448c1)" d="M 368.73847 137.052781 
L 409.000728 137.052781 
L 409.000728 116.750344 
L 368.73847 116.750344 
z
" style="fill:#7f7f7f;"/>
   </g>
   <g id="patch_41">
    <path clip-path="url(#p41cd9448c1)" d="M 360.686019 96.447906 
L 404.974502 96.447906 
L 404.974502 76.145469 
L 360.686019 76.145469 
z
" style="fill:#7f7f7f;"/>
   </g>
   <g id="patch_42">
    <path clip-path="url(#p41cd9448c1)" d="M 364.712245 55.843031 
L 417.053179 55.843031 
L 417.053179 35.540594 
L 364.712245 35.540594 
z
" style="fill:#7f7f7f;"/>
   </g>
   <g id="patch_43">
    <path clip-path="url(#p41cd9448c1)" d="M 449.304069 218.262531 
L 453.289211 218.262531 
L 453.289211 197.960094 
L 449.304069 197.960094 
z
" style="fill:#bcbd22;"/>
   </g>
   <g id="patch_44">
    <path clip-path="url(#p41cd9448c1)" d="M 433.363502 177.657656 
L 453.289211 177.657656 
L 453.289211 157.355219 
L 433.363502 157.355219 
z
" style="fill:#bcbd22;"/>
   </g>
   <g id="patch_45">
    <path clip-path="url(#p41cd9448c1)" d="M 409.000728 137.052781 
L 453.289211 137.052781 
L 453.289211 116.750344 
L 409.000728 116.750344 
z
" style="fill:#bcbd22;"/>
   </g>
   <g id="patch_46">
    <path clip-path="url(#p41cd9448c1)" d="M 404.974502 96.447906 
L 453.289211 96.447906 
L 453.289211 76.145469 
L 404.974502 76.145469 
z
" style="fill:#bcbd22;"/>
   </g>
   <g id="patch_47">
    <path clip-path="url(#p41cd9448c1)" d="M 417.053179 55.843031 
L 453.289211 55.843031 
L 453.289211 35.540594 
L 417.053179 35.540594 
z
" style="fill:#bcbd22;"/>
   </g>
   <g id="matplotlib.axis_1">
    <g id="xtick_1">
     <g id="line2d_1">
      <defs>
       <path d="M 0 0 
L 0 3.5 
" id="mc3a356a46d" style="stroke:#000000;stroke-width:0.8;"/>
      </defs>
      <g>
       <use style="stroke:#000000;stroke-width:0.8;" x="62.745313" xlink:href="#mc3a356a46d" y="228.41375"/>
      </g>
     </g>
     <g id="text_1">
      <text style="font-family:Arial;font-size:10px;font-stretch:normal;font-style:normal;font-weight:normal;text-anchor:middle;" transform="rotate(-0, 62.745313, 242.571562)" x="62.745313" y="242.571562">0</text>
     </g>
    </g>
    <g id="xtick_2">
     <g id="line2d_2">
      <g>
       <use style="stroke:#000000;stroke-width:0.8;" x="140.854092" xlink:href="#mc3a356a46d" y="228.41375"/>
      </g>
     </g>
     <g id="text_2">
      <text style="font-family:Arial;font-size:10px;font-stretch:normal;font-style:normal;font-weight:normal;text-anchor:middle;" transform="rotate(-0, 140.854092, 242.571562)" x="140.854092" y="242.571562">20</text>
     </g>
    </g>
    <g id="xtick_3">
     <g id="line2d_3">
      <g>
       <use style="stroke:#000000;stroke-width:0.8;" x="218.962872" xlink:href="#mc3a356a46d" y="228.41375"/>
      </g>
     </g>
     <g id="text_3">
      <text style="font-family:Arial;font-size:10px;font-stretch:normal;font-style:normal;font-weight:normal;text-anchor:middle;" transform="rotate(-0, 218.962872, 242.571562)" x="218.962872" y="242.571562">40</text>
     </g>
    </g>
    <g id="xtick_4">
     <g id="line2d_4">
      <g>
       <use style="stroke:#000000;stroke-width:0.8;" x="297.071652" xlink:href="#mc3a356a46d" y="228.41375"/>
      </g>
     </g>
     <g id="text_4">
      <text style="font-family:Arial;font-size:10px;font-stretch:normal;font-style:normal;font-weight:normal;text-anchor:middle;" transform="rotate(-0, 297.071652, 242.571562)" x="297.071652" y="242.571562">60</text>
     </g>
    </g>
    <g id="xtick_5">
     <g id="line2d_5">
      <g>
       <use style="stroke:#000000;stroke-width:0.8;" x="375.180432" xlink:href="#mc3a356a46d" y="228.41375"/>
      </g>
     </g>
     <g id="text_5">
      <text style="font-family:Arial;font-size:10px;font-stretch:normal;font-style:normal;font-weight:normal;text-anchor:middle;" transform="rotate(-0, 375.180432, 242.571562)" x="375.180432" y="242.571562">80</text>
     </g>
    </g>
    <g id="xtick_6">
     <g id="line2d_6">
      <g>
       <use style="stroke:#000000;stroke-width:0.8;" x="453.289211" xlink:href="#mc3a356a46d" y="228.41375"/>
      </g>
     </g>
     <g id="text_6">
      <text style="font-family:Arial;font-size:10px;font-stretch:normal;font-style:normal;font-weight:normal;text-anchor:middle;" transform="rotate(-0, 453.289211, 242.571562)" x="453.289211" y="242.571562">100</text>
     </g>
    </g>
    <g id="text_7">
     <text style="font-family:Arial;font-size:10px;font-stretch:normal;font-style:normal;font-weight:normal;text-anchor:middle;" transform="rotate(-0, 267.780859, 255.83875)" x="267.780859" y="255.83875">Ranking of importance</text>
    </g>
   </g>
   <g id="matplotlib.axis_2">
    <g id="ytick_1">
     <g id="line2d_7">
      <defs>
       <path d="M 0 0 
L -3.5 0 
" id="m82278324de" style="stroke:#000000;stroke-width:0.8;"/>
      </defs>
      <g>
       <use style="stroke:#000000;stroke-width:0.8;" x="62.745313" xlink:href="#m82278324de" y="208.111312"/>
      </g>
     </g>
     <g id="text_8">
      <text style="font-family:Arial;font-size:10px;font-stretch:normal;font-style:normal;font-weight:normal;text-anchor:end;" transform="rotate(-0, 55.745313, 211.690219)" x="55.745313" y="211.690219">Rank 1</text>
     </g>
    </g>
    <g id="ytick_2">
     <g id="line2d_8">
      <g>
       <use style="stroke:#000000;stroke-width:0.8;" x="62.745313" xlink:href="#m82278324de" y="167.506438"/>
      </g>
     </g>
     <g id="text_9">
      <text style="font-family:Arial;font-size:10px;font-stretch:normal;font-style:normal;font-weight:normal;text-anchor:end;" transform="rotate(-0, 55.745313, 171.085344)" x="55.745313" y="171.085344">Rank 2</text>
     </g>
    </g>
    <g id="ytick_3">
     <g id="line2d_9">
      <g>
       <use style="stroke:#000000;stroke-width:0.8;" x="62.745313" xlink:href="#m82278324de" y="126.901563"/>
      </g>
     </g>
     <g id="text_10">
      <text style="font-family:Arial;font-size:10px;font-stretch:normal;font-style:normal;font-weight:normal;text-anchor:end;" transform="rotate(-0, 55.745313, 130.480469)" x="55.745313" y="130.480469">Rank 3</text>
     </g>
    </g>
    <g id="ytick_4">
     <g id="line2d_10">
      <g>
       <use style="stroke:#000000;stroke-width:0.8;" x="62.745313" xlink:href="#m82278324de" y="86.296688"/>
      </g>
     </g>
     <g id="text_11">
      <text style="font-family:Arial;font-size:10px;font-stretch:normal;font-style:normal;font-weight:normal;text-anchor:end;" transform="rotate(-0, 55.745313, 89.875594)" x="55.745313" y="89.875594">Rank 4</text>
     </g>
    </g>
    <g id="ytick_5">
     <g id="line2d_11">
      <g>
       <use style="stroke:#000000;stroke-width:0.8;" x="62.745313" xlink:href="#m82278324de" y="45.691813"/>
      </g>
     </g>
     <g id="text_12">
      <text style="font-family:Arial;font-size:10px;font-stretch:normal;font-style:normal;font-weight:normal;text-anchor:end;" transform="rotate(-0, 55.745313, 49.270719)" x="55.745313" y="49.270719">Rank 5</text>
     </g>
    </g>
    <g id="text_13">
     <text style="font-family:Arial;font-size:10px;font-stretch:normal;font-style:normal;font-weight:normal;text-anchor:middle;" transform="rotate(-90, 17.957813, 126.901563)" x="17.957813" y="126.901563">Percentage</text>
    </g>
   </g>
   <g id="patch_48">
    <path d="M 62.745313 228.41375 
L 472.816406 228.41375 
" style="fill:none;stroke:#000000;stroke-linecap:square;stroke-linejoin:miter;stroke-width:0.8;"/>
   </g>
   <g id="text_14">
    <text style="font-family:Arial;font-size:10px;font-stretch:normal;font-style:normal;font-weight:normal;text-anchor:middle;" transform="rotate(-0, 118.537298, 212.1718)" x="118.537298" y="212.1718">29</text>
   </g>
   <g id="text_15">
    <text style="font-family:Arial;font-size:10px;font-stretch:normal;font-style:normal;font-weight:normal;text-anchor:middle;" transform="rotate(-0, 92.633876, 171.566925)" x="92.633876" y="171.566925">15</text>
   </g>
   <g id="text_16">
    <text style="font-family:Arial;font-size:10px;font-stretch:normal;font-style:normal;font-weight:normal;text-anchor:middle;" transform="rotate(-0, 86.902667, 130.96205)" x="86.902667" y="130.96205">12</text>
   </g>
   <g id="text_17">
    <text style="font-family:Arial;font-size:10px;font-stretch:normal;font-style:normal;font-weight:normal;text-anchor:middle;" transform="rotate(-0, 82.876441, 90.357175)" x="82.876441" y="90.357175">10</text>
   </g>
   <g id="text_18">
    <text style="font-family:Arial;font-size:10px;font-stretch:normal;font-style:normal;font-weight:normal;text-anchor:middle;" transform="rotate(-0, 80.863328, 49.7523)" x="80.863328" y="49.7523">9</text>
   </g>
   <g id="text_19">
    <text style="font-family:Arial;font-size:10px;font-stretch:normal;font-style:normal;font-weight:normal;text-anchor:middle;" transform="rotate(-0, 208.202989, 212.1718)" x="208.202989" y="212.1718">17</text>
   </g>
   <g id="text_20">
    <text style="font-family:Arial;font-size:10px;font-stretch:normal;font-style:normal;font-weight:normal;text-anchor:middle;" transform="rotate(-0, 144.44072, 171.566925)" x="144.44072" y="171.566925">11</text>
   </g>
   <g id="text_21">
    <text style="font-family:Arial;font-size:10px;font-stretch:normal;font-style:normal;font-weight:normal;text-anchor:middle;" transform="rotate(-0, 129.178038, 130.96205)" x="129.178038" y="130.96205">9</text>
   </g>
   <g id="text_22">
    <text style="font-family:Arial;font-size:10px;font-stretch:normal;font-style:normal;font-weight:normal;text-anchor:middle;" transform="rotate(-0, 129.178038, 90.357175)" x="129.178038" y="90.357175">13</text>
   </g>
   <g id="text_23">
    <text style="font-family:Arial;font-size:10px;font-stretch:normal;font-style:normal;font-weight:normal;text-anchor:middle;" transform="rotate(-0, 115.086247, 49.7523)" x="115.086247" y="49.7523">8</text>
   </g>
   <g id="text_24">
    <text style="font-family:Arial;font-size:10px;font-stretch:normal;font-style:normal;font-weight:normal;text-anchor:middle;" transform="rotate(-0, 271.965258, 212.1718)" x="271.965258" y="212.1718">15</text>
   </g>
   <g id="text_25">
    <text style="font-family:Arial;font-size:10px;font-stretch:normal;font-style:normal;font-weight:normal;text-anchor:middle;" transform="rotate(-0, 194.254993, 171.566925)" x="194.254993" y="171.566925">14</text>
   </g>
   <g id="text_26">
    <text style="font-family:Arial;font-size:10px;font-stretch:normal;font-style:normal;font-weight:normal;text-anchor:middle;" transform="rotate(-0, 179.50586, 130.96205)" x="179.50586" y="130.96205">16</text>
   </g>
   <g id="text_27">
    <text style="font-family:Arial;font-size:10px;font-stretch:normal;font-style:normal;font-weight:normal;text-anchor:middle;" transform="rotate(-0, 179.50586, 90.357175)" x="179.50586" y="90.357175">12</text>
   </g>
   <g id="text_28">
    <text style="font-family:Arial;font-size:10px;font-stretch:normal;font-style:normal;font-weight:normal;text-anchor:middle;" transform="rotate(-0, 151.322279, 49.7523)" x="151.322279" y="49.7523">10</text>
   </g>
   <g id="text_29">
    <text style="font-family:Arial;font-size:10px;font-stretch:normal;font-style:normal;font-weight:normal;text-anchor:middle;" transform="rotate(-0, 325.764673, 212.1718)" x="325.764673" y="212.1718">12</text>
   </g>
   <g id="text_30">
    <text style="font-family:Arial;font-size:10px;font-stretch:normal;font-style:normal;font-weight:normal;text-anchor:middle;" transform="rotate(-0, 244.069266, 171.566925)" x="244.069266" y="171.566925">11</text>
   </g>
   <g id="text_31">
    <text style="font-family:Arial;font-size:10px;font-stretch:normal;font-style:normal;font-weight:normal;text-anchor:middle;" transform="rotate(-0, 235.87302, 130.96205)" x="235.87302" y="130.96205">12</text>
   </g>
   <g id="text_32">
    <text style="font-family:Arial;font-size:10px;font-stretch:normal;font-style:normal;font-weight:normal;text-anchor:middle;" transform="rotate(-0, 223.794343, 90.357175)" x="223.794343" y="90.357175">10</text>
   </g>
   <g id="text_33">
    <text style="font-family:Arial;font-size:10px;font-stretch:normal;font-style:normal;font-weight:normal;text-anchor:middle;" transform="rotate(-0, 193.59765, 49.7523)" x="193.59765" y="49.7523">11</text>
   </g>
   <g id="text_34">
    <text style="font-family:Arial;font-size:10px;font-stretch:normal;font-style:normal;font-weight:normal;text-anchor:middle;" transform="rotate(-0, 363.62352, 212.1718)" x="363.62352" y="212.1718">7</text>
   </g>
   <g id="text_35">
    <text style="font-family:Arial;font-size:10px;font-stretch:normal;font-style:normal;font-weight:normal;text-anchor:middle;" transform="rotate(-0, 287.905826, 171.566925)" x="287.905826" y="171.566925">11</text>
   </g>
   <g id="text_36">
    <text style="font-family:Arial;font-size:10px;font-stretch:normal;font-style:normal;font-weight:normal;text-anchor:middle;" transform="rotate(-0, 276.135278, 130.96205)" x="276.135278" y="130.96205">8</text>
   </g>
   <g id="text_37">
    <text style="font-family:Arial;font-size:10px;font-stretch:normal;font-style:normal;font-weight:normal;text-anchor:middle;" transform="rotate(-0, 258.017262, 90.357175)" x="258.017262" y="90.357175">7</text>
   </g>
   <g id="text_38">
    <text style="font-family:Arial;font-size:10px;font-stretch:normal;font-style:normal;font-weight:normal;text-anchor:middle;" transform="rotate(-0, 235.87302, 49.7523)" x="235.87302" y="49.7523">10</text>
   </g>
   <g id="text_39">
    <text style="font-family:Arial;font-size:10px;font-stretch:normal;font-style:normal;font-weight:normal;text-anchor:middle;" transform="rotate(-0, 391.519513, 212.1718)" x="391.519513" y="212.1718">7</text>
   </g>
   <g id="text_40">
    <text style="font-family:Arial;font-size:10px;font-stretch:normal;font-style:normal;font-weight:normal;text-anchor:middle;" transform="rotate(-0, 335.727527, 171.566925)" x="335.727527" y="171.566925">13</text>
   </g>
   <g id="text_41">
    <text style="font-family:Arial;font-size:10px;font-stretch:normal;font-style:normal;font-weight:normal;text-anchor:middle;" transform="rotate(-0, 310.358197, 130.96205)" x="310.358197" y="130.96205">9</text>
   </g>
   <g id="text_42">
    <text style="font-family:Arial;font-size:10px;font-stretch:normal;font-style:normal;font-weight:normal;text-anchor:middle;" transform="rotate(-0, 298.27952, 90.357175)" x="298.27952" y="90.357175">13</text>
   </g>
   <g id="text_43">
    <text style="font-family:Arial;font-size:10px;font-stretch:normal;font-style:normal;font-weight:normal;text-anchor:middle;" transform="rotate(-0, 284.187729, 49.7523)" x="284.187729" y="49.7523">14</text>
   </g>
   <g id="text_44">
    <text style="font-family:Arial;font-size:10px;font-stretch:normal;font-style:normal;font-weight:normal;text-anchor:middle;" transform="rotate(-0, 417.422935, 212.1718)" x="417.422935" y="212.1718">6</text>
   </g>
   <g id="text_45">
    <text style="font-family:Arial;font-size:10px;font-stretch:normal;font-style:normal;font-weight:normal;text-anchor:middle;" transform="rotate(-0, 373.586375, 171.566925)" x="373.586375" y="171.566925">6</text>
   </g>
   <g id="text_46">
    <text style="font-family:Arial;font-size:10px;font-stretch:normal;font-style:normal;font-weight:normal;text-anchor:middle;" transform="rotate(-0, 348.607342, 130.96205)" x="348.607342" y="130.96205">10</text>
   </g>
   <g id="text_47">
    <text style="font-family:Arial;font-size:10px;font-stretch:normal;font-style:normal;font-weight:normal;text-anchor:middle;" transform="rotate(-0, 342.568003, 90.357175)" x="342.568003" y="90.357175">9</text>
   </g>
   <g id="text_48">
    <text style="font-family:Arial;font-size:10px;font-stretch:normal;font-style:normal;font-weight:normal;text-anchor:middle;" transform="rotate(-0, 338.541777, 49.7523)" x="338.541777" y="49.7523">13</text>
   </g>
   <g id="text_49">
    <text style="font-family:Arial;font-size:10px;font-stretch:normal;font-style:normal;font-weight:normal;text-anchor:middle;" transform="rotate(-0, 439.341215, 212.1718)" x="439.341215" y="212.1718">5</text>
   </g>
   <g id="text_50">
    <text style="font-family:Arial;font-size:10px;font-stretch:normal;font-style:normal;font-weight:normal;text-anchor:middle;" transform="rotate(-0, 409.452651, 171.566925)" x="409.452651" y="171.566925">12</text>
   </g>
   <g id="text_51">
    <text style="font-family:Arial;font-size:10px;font-stretch:normal;font-style:normal;font-weight:normal;text-anchor:middle;" transform="rotate(-0, 388.869599, 130.96205)" x="388.869599" y="130.96205">10</text>
   </g>
   <g id="text_52">
    <text style="font-family:Arial;font-size:10px;font-stretch:normal;font-style:normal;font-weight:normal;text-anchor:middle;" transform="rotate(-0, 382.83026, 90.357175)" x="382.83026" y="90.357175">11</text>
   </g>
   <g id="text_53">
    <text style="font-family:Arial;font-size:10px;font-stretch:normal;font-style:normal;font-weight:normal;text-anchor:middle;" transform="rotate(-0, 390.882712, 49.7523)" x="390.882712" y="49.7523">13</text>
   </g>
   <g id="text_54">
    <text style="font-family:Arial;font-size:10px;font-stretch:normal;font-style:normal;font-weight:normal;text-anchor:middle;" transform="rotate(-0, 443.326357, 171.566925)" x="443.326357" y="171.566925">5</text>
   </g>
   <g id="text_55">
    <text style="font-family:Arial;font-size:10px;font-stretch:normal;font-style:normal;font-weight:normal;text-anchor:middle;" transform="rotate(-0, 431.14497, 130.96205)" x="431.14497" y="130.96205">11</text>
   </g>
   <g id="text_56">
    <text style="font-family:Arial;font-size:10px;font-stretch:normal;font-style:normal;font-weight:normal;text-anchor:middle;" transform="rotate(-0, 429.131857, 90.357175)" x="429.131857" y="90.357175">12</text>
   </g>
   <g id="text_57">
    <text style="font-family:Arial;font-size:10px;font-stretch:normal;font-style:normal;font-weight:normal;text-anchor:middle;" transform="rotate(-0, 435.171195, 49.7523)" x="435.171195" y="49.7523">9</text>
   </g>
   <g id="text_58">
    <text style="font-family:Arial;font-size:12px;font-stretch:normal;font-style:normal;font-weight:normal;text-anchor:middle;" transform="rotate(-0, 267.780859, 19.389375)" x="267.780859" y="19.389375">Reasons to choose current job: Australia</text>
   </g>
   <g id="legend_1">
    <g id="patch_49">
     <path d="M 54.097266 338.073656 
L 481.464453 338.073656 
Q 483.464453 338.073656 483.464453 336.073656 
L 483.464453 265.867406 
Q 483.464453 263.867406 481.464453 263.867406 
L 54.097266 263.867406 
Q 52.097266 263.867406 52.097266 265.867406 
L 52.097266 336.073656 
Q 52.097266 338.073656 54.097266 338.073656 
z
" style="fill:#ffffff;opacity:0.8;stroke:#cccccc;stroke-linejoin:miter;"/>
    </g>
    <g id="patch_50">
     <path d="M 56.097266 275.025219 
L 76.097266 275.025219 
L 76.097266 268.025219 
L 56.097266 268.025219 
z
" style="fill:#1f77b4;"/>
    </g>
    <g id="text_59">
     <text style="font-family:Arial;font-size:10px;font-stretch:normal;font-style:normal;font-weight:normal;text-anchor:start;" transform="rotate(-0, 84.097266, 275.025219)" x="84.097266" y="275.025219">Desire to work in a research environment</text>
    </g>
    <g id="patch_51">
     <path d="M 56.097266 289.170531 
L 76.097266 289.170531 
L 76.097266 282.170531 
L 56.097266 282.170531 
z
" style="fill:#ff7f0e;"/>
    </g>
    <g id="text_60">
     <text style="font-family:Arial;font-size:10px;font-stretch:normal;font-style:normal;font-weight:normal;text-anchor:start;" transform="rotate(-0, 84.097266, 289.170531)" x="84.097266" y="289.170531">Freedom to choose own working practices</text>
    </g>
    <g id="patch_52">
     <path d="M 56.097266 303.433031 
L 76.097266 303.433031 
L 76.097266 296.433031 
L 56.097266 296.433031 
z
" style="fill:#2ca02c;"/>
    </g>
    <g id="text_61">
     <text style="font-family:Arial;font-size:10px;font-stretch:normal;font-style:normal;font-weight:normal;text-anchor:start;" transform="rotate(-0, 84.097266, 303.433031)" x="84.097266" y="303.433031">Desire to advance research</text>
    </g>
    <g id="patch_53">
     <path d="M 56.097266 317.706469 
L 76.097266 317.706469 
L 76.097266 310.706469 
L 56.097266 310.706469 
z
" style="fill:#d62728;"/>
    </g>
    <g id="text_62">
     <text style="font-family:Arial;font-size:10px;font-stretch:normal;font-style:normal;font-weight:normal;text-anchor:start;" transform="rotate(-0, 84.097266, 317.706469)" x="84.097266" y="317.706469">Opportunity to develop software</text>
    </g>
    <g id="patch_54">
     <path d="M 56.097266 331.968969 
L 76.097266 331.968969 
L 76.097266 324.968969 
L 56.097266 324.968969 
z
" style="fill:#9467bd;"/>
    </g>
    <g id="text_63">
     <text style="font-family:Arial;font-size:10px;font-stretch:normal;font-style:normal;font-weight:normal;text-anchor:start;" transform="rotate(-0, 84.097266, 331.968969)" x="84.097266" y="331.968969">Ability to work across disciplines</text>
    </g>
    <g id="patch_55">
     <path d="M 291.394141 275.025219 
L 311.394141 275.025219 
L 311.394141 268.025219 
L 291.394141 268.025219 
z
" style="fill:#8c564b;"/>
    </g>
    <g id="text_64">
     <text style="font-family:Arial;font-size:10px;font-stretch:normal;font-style:normal;font-weight:normal;text-anchor:start;" transform="rotate(-0, 319.394141, 275.025219)" x="319.394141" y="275.025219">I want to learn new skills</text>
    </g>
    <g id="patch_56">
     <path d="M 291.394141 289.298656 
L 311.394141 289.298656 
L 311.394141 282.298656 
L 291.394141 282.298656 
z
" style="fill:#e377c2;"/>
    </g>
    <g id="text_65">
     <text style="font-family:Arial;font-size:10px;font-stretch:normal;font-style:normal;font-weight:normal;text-anchor:start;" transform="rotate(-0, 319.394141, 289.298656)" x="319.394141" y="289.298656">Opportunity for career advancement</text>
    </g>
    <g id="patch_57">
     <path d="M 291.394141 303.561156 
L 311.394141 303.561156 
L 311.394141 296.561156 
L 291.394141 296.561156 
z
" style="fill:#7f7f7f;"/>
    </g>
    <g id="text_66">
     <text style="font-family:Arial;font-size:10px;font-stretch:normal;font-style:normal;font-weight:normal;text-anchor:start;" transform="rotate(-0, 319.394141, 303.561156)" x="319.394141" y="303.561156">Flexible working hours</text>
    </g>
    <g id="patch_58">
     <path d="M 291.394141 317.823656 
L 311.394141 317.823656 
L 311.394141 310.823656 
L 291.394141 310.823656 
z
" style="fill:#bcbd22;"/>
    </g>
    <g id="text_67">
     <text style="font-family:Arial;font-size:10px;font-stretch:normal;font-style:normal;font-weight:normal;text-anchor:start;" transform="rotate(-0, 319.394141, 317.823656)" x="319.394141" y="317.823656">The salary</text>
    </g>
   </g>
  </g>
 </g>
 <defs>
  <clipPath id="p41cd9448c1">
   <rect height="203.024375" width="410.071094" x="62.745313" y="25.389375"/>
  </clipPath>
 </defs>
</svg>
