<?xml version="1.0" encoding="utf-8" standalone="no"?>
<!DOCTYPE svg PUBLIC "-//W3C//DTD SVG 1.1//EN"
  "http://www.w3.org/Graphics/SVG/1.1/DTD/svg11.dtd">
<svg height="360pt" version="1.1" viewBox="0 0 504 360" width="504pt" xmlns="http://www.w3.org/2000/svg" xmlns:xlink="http://www.w3.org/1999/xlink">
 <metadata>
  <rdf:RDF xmlns:cc="http://creativecommons.org/ns#" xmlns:dc="http://purl.org/dc/elements/1.1/" xmlns:rdf="http://www.w3.org/1999/02/22-rdf-syntax-ns#">
   <cc:Work>
    <dc:type rdf:resource="http://purl.org/dc/dcmitype/StillImage"/>
    <dc:date>2021-03-29T22:00:52.321218</dc:date>
    <dc:format>image/svg+xml</dc:format>
    <dc:creator>
     <cc:Agent>
      <dc:title>Matplotlib v3.4.0, https://matplotlib.org/</dc:title>
     </cc:Agent>
    </dc:creator>
   </cc:Work>
  </rdf:RDF>
 </metadata>
 <defs>
  <style type="text/css">*{stroke-linecap:butt;stroke-linejoin:round;}</style>
 </defs>
 <g id="figure_1">
  <g id="patch_1">
   <path d="M 0 360 
L 504 360 
L 504 0 
L 0 0 
z
" style="fill:#ffffff;"/>
  </g>
  <g id="axes_1">
   <g id="patch_2">
    <path d="M 65.998438 236.433125 
L 443.240781 236.433125 
L 443.240781 25.918125 
L 65.998438 25.918125 
z
" style="fill:#ffffff;"/>
   </g>
   <g id="patch_3">
    <path clip-path="url(#p10665914bd)" d="M 65.998438 225.907375 
L 145.838087 225.907375 
L 145.838087 204.855875 
L 65.998438 204.855875 
z
" style="fill:#1f77b4;"/>
   </g>
   <g id="patch_4">
    <path clip-path="url(#p10665914bd)" d="M 65.998438 183.804375 
L 115.898218 183.804375 
L 115.898218 162.752875 
L 65.998438 162.752875 
z
" style="fill:#1f77b4;"/>
   </g>
   <g id="patch_5">
    <path clip-path="url(#p10665914bd)" d="M 65.998438 141.701375 
L 135.858131 141.701375 
L 135.858131 120.649875 
L 65.998438 120.649875 
z
" style="fill:#1f77b4;"/>
   </g>
   <g id="patch_6">
    <path clip-path="url(#p10665914bd)" d="M 65.998438 99.598375 
L 65.998438 99.598375 
L 65.998438 78.546875 
L 65.998438 78.546875 
z
" style="fill:#1f77b4;"/>
   </g>
   <g id="patch_7">
    <path clip-path="url(#p10665914bd)" d="M 65.998438 57.495375 
L 105.918262 57.495375 
L 105.918262 36.443875 
L 65.998438 36.443875 
z
" style="fill:#1f77b4;"/>
   </g>
   <g id="patch_8">
    <path clip-path="url(#p10665914bd)" d="M 145.838087 225.907375 
L 225.677736 225.907375 
L 225.677736 204.855875 
L 145.838087 204.855875 
z
" style="fill:#ff7f0e;"/>
   </g>
   <g id="patch_9">
    <path clip-path="url(#p10665914bd)" d="M 115.898218 183.804375 
L 135.858131 183.804375 
L 135.858131 162.752875 
L 115.898218 162.752875 
z
" style="fill:#ff7f0e;"/>
   </g>
   <g id="patch_10">
    <path clip-path="url(#p10665914bd)" d="M 65.998438 141.701375 
L 65.998438 141.701375 
L 65.998438 120.649875 
L 65.998438 120.649875 
z
" style="fill:#ff7f0e;"/>
   </g>
   <g id="patch_11">
    <path clip-path="url(#p10665914bd)" d="M 65.998438 99.598375 
L 105.918262 99.598375 
L 105.918262 78.546875 
L 65.998438 78.546875 
z
" style="fill:#ff7f0e;"/>
   </g>
   <g id="patch_12">
    <path clip-path="url(#p10665914bd)" d="M 105.918262 57.495375 
L 155.818043 57.495375 
L 155.818043 36.443875 
L 105.918262 36.443875 
z
" style="fill:#ff7f0e;"/>
   </g>
   <g id="patch_13">
    <path clip-path="url(#p10665914bd)" d="M 225.677736 225.907375 
L 275.577517 225.907375 
L 275.577517 204.855875 
L 225.677736 204.855875 
z
" style="fill:#2ca02c;"/>
   </g>
   <g id="patch_14">
    <path clip-path="url(#p10665914bd)" d="M 135.858131 183.804375 
L 155.818043 183.804375 
L 155.818043 162.752875 
L 135.858131 162.752875 
z
" style="fill:#2ca02c;"/>
   </g>
   <g id="patch_15">
    <path clip-path="url(#p10665914bd)" d="M 135.858131 141.701375 
L 205.717824 141.701375 
L 205.717824 120.649875 
L 135.858131 120.649875 
z
" style="fill:#2ca02c;"/>
   </g>
   <g id="patch_16">
    <path clip-path="url(#p10665914bd)" d="M 105.918262 99.598375 
L 135.858131 99.598375 
L 135.858131 78.546875 
L 105.918262 78.546875 
z
" style="fill:#2ca02c;"/>
   </g>
   <g id="patch_17">
    <path clip-path="url(#p10665914bd)" d="M 155.818043 57.495375 
L 195.737868 57.495375 
L 195.737868 36.443875 
L 155.818043 36.443875 
z
" style="fill:#2ca02c;"/>
   </g>
   <g id="patch_18">
    <path clip-path="url(#p10665914bd)" d="M 275.577517 225.907375 
L 325.477298 225.907375 
L 325.477298 204.855875 
L 275.577517 204.855875 
z
" style="fill:#d62728;"/>
   </g>
   <g id="patch_19">
    <path clip-path="url(#p10665914bd)" d="M 155.818043 183.804375 
L 235.657693 183.804375 
L 235.657693 162.752875 
L 155.818043 162.752875 
z
" style="fill:#d62728;"/>
   </g>
   <g id="patch_20">
    <path clip-path="url(#p10665914bd)" d="M 205.717824 141.701375 
L 245.637649 141.701375 
L 245.637649 120.649875 
L 205.717824 120.649875 
z
" style="fill:#d62728;"/>
   </g>
   <g id="patch_21">
    <path clip-path="url(#p10665914bd)" d="M 135.858131 99.598375 
L 205.717824 99.598375 
L 205.717824 78.546875 
L 135.858131 78.546875 
z
" style="fill:#d62728;"/>
   </g>
   <g id="patch_22">
    <path clip-path="url(#p10665914bd)" d="M 195.737868 57.495375 
L 225.677736 57.495375 
L 225.677736 36.443875 
L 195.737868 36.443875 
z
" style="fill:#d62728;"/>
   </g>
   <g id="patch_23">
    <path clip-path="url(#p10665914bd)" d="M 325.477298 225.907375 
L 355.417167 225.907375 
L 355.417167 204.855875 
L 325.477298 204.855875 
z
" style="fill:#9467bd;"/>
   </g>
   <g id="patch_24">
    <path clip-path="url(#p10665914bd)" d="M 235.657693 183.804375 
L 255.617605 183.804375 
L 255.617605 162.752875 
L 235.657693 162.752875 
z
" style="fill:#9467bd;"/>
   </g>
   <g id="patch_25">
    <path clip-path="url(#p10665914bd)" d="M 245.637649 141.701375 
L 255.617605 141.701375 
L 255.617605 120.649875 
L 245.637649 120.649875 
z
" style="fill:#9467bd;"/>
   </g>
   <g id="patch_26">
    <path clip-path="url(#p10665914bd)" d="M 205.717824 99.598375 
L 265.597561 99.598375 
L 265.597561 78.546875 
L 205.717824 78.546875 
z
" style="fill:#9467bd;"/>
   </g>
   <g id="patch_27">
    <path clip-path="url(#p10665914bd)" d="M 225.677736 57.495375 
L 235.657693 57.495375 
L 235.657693 36.443875 
L 225.677736 36.443875 
z
" style="fill:#9467bd;"/>
   </g>
   <g id="patch_28">
    <path clip-path="url(#p10665914bd)" d="M 355.417167 225.907375 
L 375.377079 225.907375 
L 375.377079 204.855875 
L 355.417167 204.855875 
z
" style="fill:#8c564b;"/>
   </g>
   <g id="patch_29">
    <path clip-path="url(#p10665914bd)" d="M 255.617605 183.804375 
L 285.557474 183.804375 
L 285.557474 162.752875 
L 255.617605 162.752875 
z
" style="fill:#8c564b;"/>
   </g>
   <g id="patch_30">
    <path clip-path="url(#p10665914bd)" d="M 255.617605 141.701375 
L 305.517386 141.701375 
L 305.517386 120.649875 
L 255.617605 120.649875 
z
" style="fill:#8c564b;"/>
   </g>
   <g id="patch_31">
    <path clip-path="url(#p10665914bd)" d="M 265.597561 99.598375 
L 315.497342 99.598375 
L 315.497342 78.546875 
L 265.597561 78.546875 
z
" style="fill:#8c564b;"/>
   </g>
   <g id="patch_32">
    <path clip-path="url(#p10665914bd)" d="M 235.657693 57.495375 
L 255.617605 57.495375 
L 255.617605 36.443875 
L 235.657693 36.443875 
z
" style="fill:#8c564b;"/>
   </g>
   <g id="patch_33">
    <path clip-path="url(#p10665914bd)" d="M 375.377079 225.907375 
L 395.336992 225.907375 
L 395.336992 204.855875 
L 375.377079 204.855875 
z
" style="fill:#e377c2;"/>
   </g>
   <g id="patch_34">
    <path clip-path="url(#p10665914bd)" d="M 285.557474 183.804375 
L 335.457254 183.804375 
L 335.457254 162.752875 
L 285.557474 162.752875 
z
" style="fill:#e377c2;"/>
   </g>
   <g id="patch_35">
    <path clip-path="url(#p10665914bd)" d="M 305.517386 141.701375 
L 345.437211 141.701375 
L 345.437211 120.649875 
L 305.517386 120.649875 
z
" style="fill:#e377c2;"/>
   </g>
   <g id="patch_36">
    <path clip-path="url(#p10665914bd)" d="M 315.497342 99.598375 
L 375.377079 99.598375 
L 375.377079 78.546875 
L 315.497342 78.546875 
z
" style="fill:#e377c2;"/>
   </g>
   <g id="patch_37">
    <path clip-path="url(#p10665914bd)" d="M 255.617605 57.495375 
L 325.477298 57.495375 
L 325.477298 36.443875 
L 255.617605 36.443875 
z
" style="fill:#e377c2;"/>
   </g>
   <g id="patch_38">
    <path clip-path="url(#p10665914bd)" d="M 395.336992 225.907375 
L 415.296904 225.907375 
L 415.296904 204.855875 
L 395.336992 204.855875 
z
" style="fill:#7f7f7f;"/>
   </g>
   <g id="patch_39">
    <path clip-path="url(#p10665914bd)" d="M 335.457254 183.804375 
L 355.417167 183.804375 
L 355.417167 162.752875 
L 335.457254 162.752875 
z
" style="fill:#7f7f7f;"/>
   </g>
   <g id="patch_40">
    <path clip-path="url(#p10665914bd)" d="M 345.437211 141.701375 
L 355.417167 141.701375 
L 355.417167 120.649875 
L 345.437211 120.649875 
z
" style="fill:#7f7f7f;"/>
   </g>
   <g id="patch_41">
    <path clip-path="url(#p10665914bd)" d="M 375.377079 99.598375 
L 395.336992 99.598375 
L 395.336992 78.546875 
L 375.377079 78.546875 
z
" style="fill:#7f7f7f;"/>
   </g>
   <g id="patch_42">
    <path clip-path="url(#p10665914bd)" d="M 325.477298 57.495375 
L 385.357035 57.495375 
L 385.357035 36.443875 
L 325.477298 36.443875 
z
" style="fill:#7f7f7f;"/>
   </g>
   <g id="patch_43">
    <path clip-path="url(#p10665914bd)" d="M 415.296904 225.907375 
L 425.27686 225.907375 
L 425.27686 204.855875 
L 415.296904 204.855875 
z
" style="fill:#bcbd22;"/>
   </g>
   <g id="patch_44">
    <path clip-path="url(#p10665914bd)" d="M 355.417167 183.804375 
L 425.27686 183.804375 
L 425.27686 162.752875 
L 355.417167 162.752875 
z
" style="fill:#bcbd22;"/>
   </g>
   <g id="patch_45">
    <path clip-path="url(#p10665914bd)" d="M 355.417167 141.701375 
L 425.27686 141.701375 
L 425.27686 120.649875 
L 355.417167 120.649875 
z
" style="fill:#bcbd22;"/>
   </g>
   <g id="patch_46">
    <path clip-path="url(#p10665914bd)" d="M 395.336992 99.598375 
L 425.27686 99.598375 
L 425.27686 78.546875 
L 395.336992 78.546875 
z
" style="fill:#bcbd22;"/>
   </g>
   <g id="patch_47">
    <path clip-path="url(#p10665914bd)" d="M 385.357035 57.495375 
L 425.27686 57.495375 
L 425.27686 36.443875 
L 385.357035 36.443875 
z
" style="fill:#bcbd22;"/>
   </g>
   <g id="matplotlib.axis_1">
    <g id="xtick_1">
     <g id="line2d_1">
      <defs>
       <path d="M 0 0 
L 0 3.5 
" id="mc3a356a46d" style="stroke:#000000;stroke-width:0.8;"/>
      </defs>
      <g>
       <use style="stroke:#000000;stroke-width:0.8;" x="65.998438" xlink:href="#mc3a356a46d" y="236.433125"/>
      </g>
     </g>
     <g id="text_1">
      <text style="font-family:DejaVu Sans;font-size:10px;font-stretch:normal;font-style:normal;font-weight:normal;text-anchor:middle;" transform="rotate(-0, 65.998438, 251.031563)" x="65.998438" y="251.031563">0</text>
     </g>
    </g>
    <g id="xtick_2">
     <g id="line2d_2">
      <g>
       <use style="stroke:#000000;stroke-width:0.8;" x="137.854122" xlink:href="#mc3a356a46d" y="236.433125"/>
      </g>
     </g>
     <g id="text_2">
      <text style="font-family:DejaVu Sans;font-size:10px;font-stretch:normal;font-style:normal;font-weight:normal;text-anchor:middle;" transform="rotate(-0, 137.854122, 251.031563)" x="137.854122" y="251.031563">20</text>
     </g>
    </g>
    <g id="xtick_3">
     <g id="line2d_3">
      <g>
       <use style="stroke:#000000;stroke-width:0.8;" x="209.709807" xlink:href="#mc3a356a46d" y="236.433125"/>
      </g>
     </g>
     <g id="text_3">
      <text style="font-family:DejaVu Sans;font-size:10px;font-stretch:normal;font-style:normal;font-weight:normal;text-anchor:middle;" transform="rotate(-0, 209.709807, 251.031563)" x="209.709807" y="251.031563">40</text>
     </g>
    </g>
    <g id="xtick_4">
     <g id="line2d_4">
      <g>
       <use style="stroke:#000000;stroke-width:0.8;" x="281.565491" xlink:href="#mc3a356a46d" y="236.433125"/>
      </g>
     </g>
     <g id="text_4">
      <text style="font-family:DejaVu Sans;font-size:10px;font-stretch:normal;font-style:normal;font-weight:normal;text-anchor:middle;" transform="rotate(-0, 281.565491, 251.031563)" x="281.565491" y="251.031563">60</text>
     </g>
    </g>
    <g id="xtick_5">
     <g id="line2d_5">
      <g>
       <use style="stroke:#000000;stroke-width:0.8;" x="353.421176" xlink:href="#mc3a356a46d" y="236.433125"/>
      </g>
     </g>
     <g id="text_5">
      <text style="font-family:DejaVu Sans;font-size:10px;font-stretch:normal;font-style:normal;font-weight:normal;text-anchor:middle;" transform="rotate(-0, 353.421176, 251.031563)" x="353.421176" y="251.031563">80</text>
     </g>
    </g>
    <g id="xtick_6">
     <g id="line2d_6">
      <g>
       <use style="stroke:#000000;stroke-width:0.8;" x="425.27686" xlink:href="#mc3a356a46d" y="236.433125"/>
      </g>
     </g>
     <g id="text_6">
      <text style="font-family:DejaVu Sans;font-size:10px;font-stretch:normal;font-style:normal;font-weight:normal;text-anchor:middle;" transform="rotate(-0, 425.27686, 251.031563)" x="425.27686" y="251.031563">100</text>
     </g>
    </g>
    <g id="text_7">
     <text style="font-family:DejaVu Sans;font-size:10px;font-stretch:normal;font-style:normal;font-weight:normal;text-anchor:middle;" transform="rotate(-0, 254.619609, 264.709688)" x="254.619609" y="264.709688">Ranking of importance</text>
    </g>
   </g>
   <g id="matplotlib.axis_2">
    <g id="ytick_1">
     <g id="line2d_7">
      <defs>
       <path d="M 0 0 
L -3.5 0 
" id="m82278324de" style="stroke:#000000;stroke-width:0.8;"/>
      </defs>
      <g>
       <use style="stroke:#000000;stroke-width:0.8;" x="65.998438" xlink:href="#m82278324de" y="215.381625"/>
      </g>
     </g>
     <g id="text_8">
      <text style="font-family:DejaVu Sans;font-size:10px;font-stretch:normal;font-style:normal;font-weight:normal;text-anchor:end;" transform="rotate(-0, 58.998438, 219.180844)" x="58.998438" y="219.180844">Rank 1</text>
     </g>
    </g>
    <g id="ytick_2">
     <g id="line2d_8">
      <g>
       <use style="stroke:#000000;stroke-width:0.8;" x="65.998438" xlink:href="#m82278324de" y="173.278625"/>
      </g>
     </g>
     <g id="text_9">
      <text style="font-family:DejaVu Sans;font-size:10px;font-stretch:normal;font-style:normal;font-weight:normal;text-anchor:end;" transform="rotate(-0, 58.998438, 177.077844)" x="58.998438" y="177.077844">Rank 2</text>
     </g>
    </g>
    <g id="ytick_3">
     <g id="line2d_9">
      <g>
       <use style="stroke:#000000;stroke-width:0.8;" x="65.998438" xlink:href="#m82278324de" y="131.175625"/>
      </g>
     </g>
     <g id="text_10">
      <text style="font-family:DejaVu Sans;font-size:10px;font-stretch:normal;font-style:normal;font-weight:normal;text-anchor:end;" transform="rotate(-0, 58.998438, 134.974844)" x="58.998438" y="134.974844">Rank 3</text>
     </g>
    </g>
    <g id="ytick_4">
     <g id="line2d_10">
      <g>
       <use style="stroke:#000000;stroke-width:0.8;" x="65.998438" xlink:href="#m82278324de" y="89.072625"/>
      </g>
     </g>
     <g id="text_11">
      <text style="font-family:DejaVu Sans;font-size:10px;font-stretch:normal;font-style:normal;font-weight:normal;text-anchor:end;" transform="rotate(-0, 58.998438, 92.871844)" x="58.998438" y="92.871844">Rank 4</text>
     </g>
    </g>
    <g id="ytick_5">
     <g id="line2d_11">
      <g>
       <use style="stroke:#000000;stroke-width:0.8;" x="65.998438" xlink:href="#m82278324de" y="46.969625"/>
      </g>
     </g>
     <g id="text_12">
      <text style="font-family:DejaVu Sans;font-size:10px;font-stretch:normal;font-style:normal;font-weight:normal;text-anchor:end;" transform="rotate(-0, 58.998438, 50.768844)" x="58.998438" y="50.768844">Rank 5</text>
     </g>
    </g>
    <g id="text_13">
     <text style="font-family:DejaVu Sans;font-size:10px;font-stretch:normal;font-style:normal;font-weight:normal;text-anchor:middle;" transform="rotate(-90, 18.398438, 131.175625)" x="18.398438" y="131.175625">Percentage</text>
    </g>
   </g>
   <g id="patch_48">
    <path d="M 65.998438 236.433125 
L 443.240781 236.433125 
" style="fill:none;stroke:#000000;stroke-linecap:square;stroke-linejoin:miter;stroke-width:0.8;"/>
   </g>
   <g id="text_14">
    <text style="font-family:DejaVu Sans;font-size:10px;font-stretch:normal;font-style:normal;font-weight:normal;text-anchor:middle;" transform="rotate(-0, 105.918262, 219.591925)" x="105.918262" y="219.591925">22</text>
   </g>
   <g id="text_15">
    <text style="font-family:DejaVu Sans;font-size:10px;font-stretch:normal;font-style:normal;font-weight:normal;text-anchor:middle;" transform="rotate(-0, 90.948328, 177.488925)" x="90.948328" y="177.488925">14</text>
   </g>
   <g id="text_16">
    <text style="font-family:DejaVu Sans;font-size:10px;font-stretch:normal;font-style:normal;font-weight:normal;text-anchor:middle;" transform="rotate(-0, 100.928284, 135.385925)" x="100.928284" y="135.385925">19</text>
   </g>
   <g id="text_17">
    <text style="font-family:DejaVu Sans;font-size:10px;font-stretch:normal;font-style:normal;font-weight:normal;text-anchor:middle;" transform="rotate(-0, 85.95835, 51.179925)" x="85.95835" y="51.179925">11</text>
   </g>
   <g id="text_18">
    <text style="font-family:DejaVu Sans;font-size:10px;font-stretch:normal;font-style:normal;font-weight:normal;text-anchor:middle;" transform="rotate(-0, 185.757912, 219.591925)" x="185.757912" y="219.591925">22</text>
   </g>
   <g id="text_19">
    <text style="font-family:DejaVu Sans;font-size:10px;font-stretch:normal;font-style:normal;font-weight:normal;text-anchor:middle;" transform="rotate(-0, 125.878175, 177.488925)" x="125.878175" y="177.488925">6</text>
   </g>
   <g id="text_20">
    <text style="font-family:DejaVu Sans;font-size:10px;font-stretch:normal;font-style:normal;font-weight:normal;text-anchor:middle;" transform="rotate(-0, 85.95835, 93.282925)" x="85.95835" y="93.282925">11</text>
   </g>
   <g id="text_21">
    <text style="font-family:DejaVu Sans;font-size:10px;font-stretch:normal;font-style:normal;font-weight:normal;text-anchor:middle;" transform="rotate(-0, 130.868153, 51.179925)" x="130.868153" y="51.179925">14</text>
   </g>
   <g id="text_22">
    <text style="font-family:DejaVu Sans;font-size:10px;font-stretch:normal;font-style:normal;font-weight:normal;text-anchor:middle;" transform="rotate(-0, 250.627627, 219.591925)" x="250.627627" y="219.591925">14</text>
   </g>
   <g id="text_23">
    <text style="font-family:DejaVu Sans;font-size:10px;font-stretch:normal;font-style:normal;font-weight:normal;text-anchor:middle;" transform="rotate(-0, 145.838087, 177.488925)" x="145.838087" y="177.488925">6</text>
   </g>
   <g id="text_24">
    <text style="font-family:DejaVu Sans;font-size:10px;font-stretch:normal;font-style:normal;font-weight:normal;text-anchor:middle;" transform="rotate(-0, 170.787977, 135.385925)" x="170.787977" y="135.385925">19</text>
   </g>
   <g id="text_25">
    <text style="font-family:DejaVu Sans;font-size:10px;font-stretch:normal;font-style:normal;font-weight:normal;text-anchor:middle;" transform="rotate(-0, 120.888197, 93.282925)" x="120.888197" y="93.282925">8</text>
   </g>
   <g id="text_26">
    <text style="font-family:DejaVu Sans;font-size:10px;font-stretch:normal;font-style:normal;font-weight:normal;text-anchor:middle;" transform="rotate(-0, 175.777956, 51.179925)" x="175.777956" y="51.179925">11</text>
   </g>
   <g id="text_27">
    <text style="font-family:DejaVu Sans;font-size:10px;font-stretch:normal;font-style:normal;font-weight:normal;text-anchor:middle;" transform="rotate(-0, 300.527408, 219.591925)" x="300.527408" y="219.591925">14</text>
   </g>
   <g id="text_28">
    <text style="font-family:DejaVu Sans;font-size:10px;font-stretch:normal;font-style:normal;font-weight:normal;text-anchor:middle;" transform="rotate(-0, 195.737868, 177.488925)" x="195.737868" y="177.488925">22</text>
   </g>
   <g id="text_29">
    <text style="font-family:DejaVu Sans;font-size:10px;font-stretch:normal;font-style:normal;font-weight:normal;text-anchor:middle;" transform="rotate(-0, 225.677736, 135.385925)" x="225.677736" y="135.385925">11</text>
   </g>
   <g id="text_30">
    <text style="font-family:DejaVu Sans;font-size:10px;font-stretch:normal;font-style:normal;font-weight:normal;text-anchor:middle;" transform="rotate(-0, 170.787977, 93.282925)" x="170.787977" y="93.282925">19</text>
   </g>
   <g id="text_31">
    <text style="font-family:DejaVu Sans;font-size:10px;font-stretch:normal;font-style:normal;font-weight:normal;text-anchor:middle;" transform="rotate(-0, 210.707802, 51.179925)" x="210.707802" y="51.179925">8</text>
   </g>
   <g id="text_32">
    <text style="font-family:DejaVu Sans;font-size:10px;font-stretch:normal;font-style:normal;font-weight:normal;text-anchor:middle;" transform="rotate(-0, 340.447233, 219.591925)" x="340.447233" y="219.591925">8</text>
   </g>
   <g id="text_33">
    <text style="font-family:DejaVu Sans;font-size:10px;font-stretch:normal;font-style:normal;font-weight:normal;text-anchor:middle;" transform="rotate(-0, 245.637649, 177.488925)" x="245.637649" y="177.488925">6</text>
   </g>
   <g id="text_34">
    <text style="font-family:DejaVu Sans;font-size:10px;font-stretch:normal;font-style:normal;font-weight:normal;text-anchor:middle;" transform="rotate(-0, 235.657693, 93.282925)" x="235.657693" y="93.282925">17</text>
   </g>
   <g id="text_35">
    <text style="font-family:DejaVu Sans;font-size:10px;font-stretch:normal;font-style:normal;font-weight:normal;text-anchor:middle;" transform="rotate(-0, 365.397123, 219.591925)" x="365.397123" y="219.591925">6</text>
   </g>
   <g id="text_36">
    <text style="font-family:DejaVu Sans;font-size:10px;font-stretch:normal;font-style:normal;font-weight:normal;text-anchor:middle;" transform="rotate(-0, 270.587539, 177.488925)" x="270.587539" y="177.488925">8</text>
   </g>
   <g id="text_37">
    <text style="font-family:DejaVu Sans;font-size:10px;font-stretch:normal;font-style:normal;font-weight:normal;text-anchor:middle;" transform="rotate(-0, 280.567495, 135.385925)" x="280.567495" y="135.385925">14</text>
   </g>
   <g id="text_38">
    <text style="font-family:DejaVu Sans;font-size:10px;font-stretch:normal;font-style:normal;font-weight:normal;text-anchor:middle;" transform="rotate(-0, 290.547452, 93.282925)" x="290.547452" y="93.282925">14</text>
   </g>
   <g id="text_39">
    <text style="font-family:DejaVu Sans;font-size:10px;font-stretch:normal;font-style:normal;font-weight:normal;text-anchor:middle;" transform="rotate(-0, 245.637649, 51.179925)" x="245.637649" y="51.179925">6</text>
   </g>
   <g id="text_40">
    <text style="font-family:DejaVu Sans;font-size:10px;font-stretch:normal;font-style:normal;font-weight:normal;text-anchor:middle;" transform="rotate(-0, 385.357035, 219.591925)" x="385.357035" y="219.591925">6</text>
   </g>
   <g id="text_41">
    <text style="font-family:DejaVu Sans;font-size:10px;font-stretch:normal;font-style:normal;font-weight:normal;text-anchor:middle;" transform="rotate(-0, 310.507364, 177.488925)" x="310.507364" y="177.488925">14</text>
   </g>
   <g id="text_42">
    <text style="font-family:DejaVu Sans;font-size:10px;font-stretch:normal;font-style:normal;font-weight:normal;text-anchor:middle;" transform="rotate(-0, 325.477298, 135.385925)" x="325.477298" y="135.385925">11</text>
   </g>
   <g id="text_43">
    <text style="font-family:DejaVu Sans;font-size:10px;font-stretch:normal;font-style:normal;font-weight:normal;text-anchor:middle;" transform="rotate(-0, 345.437211, 93.282925)" x="345.437211" y="93.282925">17</text>
   </g>
   <g id="text_44">
    <text style="font-family:DejaVu Sans;font-size:10px;font-stretch:normal;font-style:normal;font-weight:normal;text-anchor:middle;" transform="rotate(-0, 290.547452, 51.179925)" x="290.547452" y="51.179925">19</text>
   </g>
   <g id="text_45">
    <text style="font-family:DejaVu Sans;font-size:10px;font-stretch:normal;font-style:normal;font-weight:normal;text-anchor:middle;" transform="rotate(-0, 405.316948, 219.591925)" x="405.316948" y="219.591925">6</text>
   </g>
   <g id="text_46">
    <text style="font-family:DejaVu Sans;font-size:10px;font-stretch:normal;font-style:normal;font-weight:normal;text-anchor:middle;" transform="rotate(-0, 345.437211, 177.488925)" x="345.437211" y="177.488925">6</text>
   </g>
   <g id="text_47">
    <text style="font-family:DejaVu Sans;font-size:10px;font-stretch:normal;font-style:normal;font-weight:normal;text-anchor:middle;" transform="rotate(-0, 385.357035, 93.282925)" x="385.357035" y="93.282925">6</text>
   </g>
   <g id="text_48">
    <text style="font-family:DejaVu Sans;font-size:10px;font-stretch:normal;font-style:normal;font-weight:normal;text-anchor:middle;" transform="rotate(-0, 355.417167, 51.179925)" x="355.417167" y="51.179925">17</text>
   </g>
   <g id="text_49">
    <text style="font-family:DejaVu Sans;font-size:10px;font-stretch:normal;font-style:normal;font-weight:normal;text-anchor:middle;" transform="rotate(-0, 390.347013, 177.488925)" x="390.347013" y="177.488925">19</text>
   </g>
   <g id="text_50">
    <text style="font-family:DejaVu Sans;font-size:10px;font-stretch:normal;font-style:normal;font-weight:normal;text-anchor:middle;" transform="rotate(-0, 390.347013, 135.385925)" x="390.347013" y="135.385925">19</text>
   </g>
   <g id="text_51">
    <text style="font-family:DejaVu Sans;font-size:10px;font-stretch:normal;font-style:normal;font-weight:normal;text-anchor:middle;" transform="rotate(-0, 410.306926, 93.282925)" x="410.306926" y="93.282925">8</text>
   </g>
   <g id="text_52">
    <text style="font-family:DejaVu Sans;font-size:10px;font-stretch:normal;font-style:normal;font-weight:normal;text-anchor:middle;" transform="rotate(-0, 405.316948, 51.179925)" x="405.316948" y="51.179925">11</text>
   </g>
   <g id="text_53">
    <text style="font-family:DejaVu Sans;font-size:12px;font-stretch:normal;font-style:normal;font-weight:normal;text-anchor:middle;" transform="rotate(-0, 254.619609, 19.918125)" x="254.619609" y="19.918125">Reasons to choose current job: New Zealand</text>
   </g>
   <g id="legend_1">
    <g id="patch_49">
     <path d="M 17.307891 349.401 
L 491.931328 349.401 
Q 493.931328 349.401 493.931328 347.401 
L 493.931328 275.010375 
Q 493.931328 273.010375 491.931328 273.010375 
L 17.307891 273.010375 
Q 15.307891 273.010375 15.307891 275.010375 
L 15.307891 347.401 
Q 15.307891 349.401 17.307891 349.401 
z
" style="fill:#ffffff;opacity:0.8;stroke:#cccccc;stroke-linejoin:miter;"/>
    </g>
    <g id="patch_50">
     <path d="M 19.307891 284.608812 
L 39.307891 284.608812 
L 39.307891 277.608812 
L 19.307891 277.608812 
z
" style="fill:#1f77b4;"/>
    </g>
    <g id="text_54">
     <text style="font-family:DejaVu Sans;font-size:10px;font-stretch:normal;font-style:normal;font-weight:normal;text-anchor:start;" transform="rotate(-0, 47.307891, 284.608812)" x="47.307891" y="284.608812">Desire to work in a research environment</text>
    </g>
    <g id="patch_51">
     <path d="M 19.307891 299.286938 
L 39.307891 299.286938 
L 39.307891 292.286938 
L 19.307891 292.286938 
z
" style="fill:#ff7f0e;"/>
    </g>
    <g id="text_55">
     <text style="font-family:DejaVu Sans;font-size:10px;font-stretch:normal;font-style:normal;font-weight:normal;text-anchor:start;" transform="rotate(-0, 47.307891, 299.286938)" x="47.307891" y="299.286938">Freedom to choose own working practices</text>
    </g>
    <g id="patch_52">
     <path d="M 19.307891 313.965063 
L 39.307891 313.965063 
L 39.307891 306.965063 
L 19.307891 306.965063 
z
" style="fill:#2ca02c;"/>
    </g>
    <g id="text_56">
     <text style="font-family:DejaVu Sans;font-size:10px;font-stretch:normal;font-style:normal;font-weight:normal;text-anchor:start;" transform="rotate(-0, 47.307891, 313.965063)" x="47.307891" y="313.965063">Desire to advance research</text>
    </g>
    <g id="patch_53">
     <path d="M 19.307891 328.643188 
L 39.307891 328.643188 
L 39.307891 321.643188 
L 19.307891 321.643188 
z
" style="fill:#d62728;"/>
    </g>
    <g id="text_57">
     <text style="font-family:DejaVu Sans;font-size:10px;font-stretch:normal;font-style:normal;font-weight:normal;text-anchor:start;" transform="rotate(-0, 47.307891, 328.643188)" x="47.307891" y="328.643188">Opportunity to develop software</text>
    </g>
    <g id="patch_54">
     <path d="M 19.307891 343.321313 
L 39.307891 343.321313 
L 39.307891 336.321313 
L 19.307891 336.321313 
z
" style="fill:#9467bd;"/>
    </g>
    <g id="text_58">
     <text style="font-family:DejaVu Sans;font-size:10px;font-stretch:normal;font-style:normal;font-weight:normal;text-anchor:start;" transform="rotate(-0, 47.307891, 343.321313)" x="47.307891" y="343.321313">The salary</text>
    </g>
    <g id="patch_55">
     <path d="M 278.042266 284.608812 
L 298.042266 284.608812 
L 298.042266 277.608812 
L 278.042266 277.608812 
z
" style="fill:#8c564b;"/>
    </g>
    <g id="text_59">
     <text style="font-family:DejaVu Sans;font-size:10px;font-stretch:normal;font-style:normal;font-weight:normal;text-anchor:start;" transform="rotate(-0, 306.042266, 284.608812)" x="306.042266" y="284.608812">Ability to work across disciplines</text>
    </g>
    <g id="patch_56">
     <path d="M 278.042266 299.286938 
L 298.042266 299.286938 
L 298.042266 292.286938 
L 278.042266 292.286938 
z
" style="fill:#e377c2;"/>
    </g>
    <g id="text_60">
     <text style="font-family:DejaVu Sans;font-size:10px;font-stretch:normal;font-style:normal;font-weight:normal;text-anchor:start;" transform="rotate(-0, 306.042266, 299.286938)" x="306.042266" y="299.286938">I want to learn new skills</text>
    </g>
    <g id="patch_57">
     <path d="M 278.042266 313.965063 
L 298.042266 313.965063 
L 298.042266 306.965063 
L 278.042266 306.965063 
z
" style="fill:#7f7f7f;"/>
    </g>
    <g id="text_61">
     <text style="font-family:DejaVu Sans;font-size:10px;font-stretch:normal;font-style:normal;font-weight:normal;text-anchor:start;" transform="rotate(-0, 306.042266, 313.965063)" x="306.042266" y="313.965063">Opportunity for career advancement</text>
    </g>
    <g id="patch_58">
     <path d="M 278.042266 328.643188 
L 298.042266 328.643188 
L 298.042266 321.643188 
L 278.042266 321.643188 
z
" style="fill:#bcbd22;"/>
    </g>
    <g id="text_62">
     <text style="font-family:DejaVu Sans;font-size:10px;font-stretch:normal;font-style:normal;font-weight:normal;text-anchor:start;" transform="rotate(-0, 306.042266, 328.643188)" x="306.042266" y="328.643188">Flexible working hours</text>
    </g>
   </g>
  </g>
 </g>
 <defs>
  <clipPath id="p10665914bd">
   <rect height="210.515" width="377.242344" x="65.998438" y="25.918125"/>
  </clipPath>
 </defs>
</svg>
