<?xml version="1.0" encoding="utf-8" standalone="no"?>
<!DOCTYPE svg PUBLIC "-//W3C//DTD SVG 1.1//EN"
  "http://www.w3.org/Graphics/SVG/1.1/DTD/svg11.dtd">
<svg xmlns:xlink="http://www.w3.org/1999/xlink" width="504pt" height="360pt" viewBox="0 0 504 360" xmlns="http://www.w3.org/2000/svg" version="1.1">
 <metadata>
  <rdf:RDF xmlns:dc="http://purl.org/dc/elements/1.1/" xmlns:cc="http://creativecommons.org/ns#" xmlns:rdf="http://www.w3.org/1999/02/22-rdf-syntax-ns#">
   <cc:Work>
    <dc:type rdf:resource="http://purl.org/dc/dcmitype/StillImage"/>
    <dc:date>2022-03-18T10:06:47.376967</dc:date>
    <dc:format>image/svg+xml</dc:format>
    <dc:creator>
     <cc:Agent>
      <dc:title>Matplotlib v3.5.1, https://matplotlib.org/</dc:title>
     </cc:Agent>
    </dc:creator>
   </cc:Work>
  </rdf:RDF>
 </metadata>
 <defs>
  <style type="text/css">*{stroke-linejoin: round; stroke-linecap: butt}</style>
 </defs>
 <g id="figure_1">
  <g id="patch_1">
   <path d="M 0 360 
L 504 360 
L 504 0 
L 0 0 
z
" style="fill: #ffffff"/>
  </g>
  <g id="axes_1">
   <g id="patch_2">
    <path d="M 62.86875 227.90125 
L 472.816406 227.90125 
L 472.816406 25.43625 
L 62.86875 25.43625 
z
" style="fill: #ffffff"/>
   </g>
   <g id="patch_3">
    <path d="M 62.86875 217.778 
L 176.218332 217.778 
L 176.218332 197.5315 
L 62.86875 197.5315 
z
" clip-path="url(#pb32d105057)" style="fill: #1f77b4"/>
   </g>
   <g id="patch_4">
    <path d="M 62.86875 177.285 
L 127.939807 177.285 
L 127.939807 157.0385 
L 62.86875 157.0385 
z
" clip-path="url(#pb32d105057)" style="fill: #1f77b4"/>
   </g>
   <g id="patch_5">
    <path d="M 62.86875 136.792 
L 130.183636 136.792 
L 130.183636 116.5455 
L 62.86875 116.5455 
z
" clip-path="url(#pb32d105057)" style="fill: #1f77b4"/>
   </g>
   <g id="patch_6">
    <path d="M 62.86875 96.299 
L 77.328985 96.299 
L 77.328985 76.0525 
L 62.86875 76.0525 
z
" clip-path="url(#pb32d105057)" style="fill: #1f77b4"/>
   </g>
   <g id="patch_7">
    <path d="M 62.86875 55.806 
L 62.86875 55.806 
L 62.86875 35.5595 
L 62.86875 35.5595 
z
" clip-path="url(#pb32d105057)" style="fill: #1f77b4"/>
   </g>
   <g id="patch_8">
    <path d="M 176.218332 217.778 
L 276.973517 217.778 
L 276.973517 197.5315 
L 176.218332 197.5315 
z
" clip-path="url(#pb32d105057)" style="fill: #ff7f0e"/>
   </g>
   <g id="patch_9">
    <path d="M 127.939807 177.285 
L 206.025074 177.285 
L 206.025074 157.0385 
L 127.939807 157.0385 
z
" clip-path="url(#pb32d105057)" style="fill: #ff7f0e"/>
   </g>
   <g id="patch_10">
    <path d="M 130.183636 136.792 
L 157.109591 136.792 
L 157.109591 116.5455 
L 130.183636 116.5455 
z
" clip-path="url(#pb32d105057)" style="fill: #ff7f0e"/>
   </g>
   <g id="patch_11">
    <path d="M 77.328985 96.299 
L 149.630159 96.299 
L 149.630159 76.0525 
L 77.328985 76.0525 
z
" clip-path="url(#pb32d105057)" style="fill: #ff7f0e"/>
   </g>
   <g id="patch_12">
    <path d="M 62.86875 55.806 
L 83.417505 55.806 
L 83.417505 35.5595 
L 62.86875 35.5595 
z
" clip-path="url(#pb32d105057)" style="fill: #ff7f0e"/>
   </g>
   <g id="patch_13">
    <path d="M 276.973517 217.778 
L 352.539905 217.778 
L 352.539905 197.5315 
L 276.973517 197.5315 
z
" clip-path="url(#pb32d105057)" style="fill: #2ca02c"/>
   </g>
   <g id="patch_14">
    <path d="M 206.025074 177.285 
L 258.08192 177.285 
L 258.08192 157.0385 
L 206.025074 157.0385 
z
" clip-path="url(#pb32d105057)" style="fill: #2ca02c"/>
   </g>
   <g id="patch_15">
    <path d="M 157.109591 136.792 
L 197.498522 136.792 
L 197.498522 116.5455 
L 157.109591 116.5455 
z
" clip-path="url(#pb32d105057)" style="fill: #2ca02c"/>
   </g>
   <g id="patch_16">
    <path d="M 149.630159 96.299 
L 221.931333 96.299 
L 221.931333 76.0525 
L 149.630159 76.0525 
z
" clip-path="url(#pb32d105057)" style="fill: #2ca02c"/>
   </g>
   <g id="patch_17">
    <path d="M 83.417505 55.806 
L 165.612523 55.806 
L 165.612523 35.5595 
L 83.417505 35.5595 
z
" clip-path="url(#pb32d105057)" style="fill: #2ca02c"/>
   </g>
   <g id="patch_18">
    <path d="M 352.539905 217.778 
L 402.917497 217.778 
L 402.917497 197.5315 
L 352.539905 197.5315 
z
" clip-path="url(#pb32d105057)" style="fill: #d62728"/>
   </g>
   <g id="patch_19">
    <path d="M 258.08192 177.285 
L 271.096131 177.285 
L 271.096131 157.0385 
L 258.08192 157.0385 
z
" clip-path="url(#pb32d105057)" style="fill: #d62728"/>
   </g>
   <g id="patch_20">
    <path d="M 62.86875 136.792 
L 62.86875 136.792 
L 62.86875 116.5455 
L 62.86875 116.5455 
z
" clip-path="url(#pb32d105057)" style="fill: #d62728"/>
   </g>
   <g id="patch_21">
    <path d="M 62.86875 96.299 
L 62.86875 96.299 
L 62.86875 76.0525 
L 62.86875 76.0525 
z
" clip-path="url(#pb32d105057)" style="fill: #d62728"/>
   </g>
   <g id="patch_22">
    <path d="M 165.612523 55.806 
L 227.258788 55.806 
L 227.258788 35.5595 
L 165.612523 35.5595 
z
" clip-path="url(#pb32d105057)" style="fill: #d62728"/>
   </g>
   <g id="patch_23">
    <path d="M 402.917497 217.778 
L 440.700691 217.778 
L 440.700691 197.5315 
L 402.917497 197.5315 
z
" clip-path="url(#pb32d105057)" style="fill: #9467bd"/>
   </g>
   <g id="patch_24">
    <path d="M 271.096131 177.285 
L 323.152976 177.285 
L 323.152976 157.0385 
L 271.096131 157.0385 
z
" clip-path="url(#pb32d105057)" style="fill: #9467bd"/>
   </g>
   <g id="patch_25">
    <path d="M 197.498522 136.792 
L 224.424477 136.792 
L 224.424477 116.5455 
L 197.498522 116.5455 
z
" clip-path="url(#pb32d105057)" style="fill: #9467bd"/>
   </g>
   <g id="patch_26">
    <path d="M 221.931333 96.299 
L 265.312037 96.299 
L 265.312037 76.0525 
L 221.931333 76.0525 
z
" clip-path="url(#pb32d105057)" style="fill: #9467bd"/>
   </g>
   <g id="patch_27">
    <path d="M 227.258788 55.806 
L 309.453806 55.806 
L 309.453806 35.5595 
L 227.258788 35.5595 
z
" clip-path="url(#pb32d105057)" style="fill: #9467bd"/>
   </g>
   <g id="patch_28">
    <path d="M 440.700691 217.778 
L 453.295089 217.778 
L 453.295089 197.5315 
L 440.700691 197.5315 
z
" clip-path="url(#pb32d105057)" style="fill: #8c564b"/>
   </g>
   <g id="patch_29">
    <path d="M 323.152976 177.285 
L 362.19561 177.285 
L 362.19561 157.0385 
L 323.152976 157.0385 
z
" clip-path="url(#pb32d105057)" style="fill: #8c564b"/>
   </g>
   <g id="patch_30">
    <path d="M 224.424477 136.792 
L 305.20234 136.792 
L 305.20234 116.5455 
L 224.424477 116.5455 
z
" clip-path="url(#pb32d105057)" style="fill: #8c564b"/>
   </g>
   <g id="patch_31">
    <path d="M 265.312037 96.299 
L 294.232507 96.299 
L 294.232507 76.0525 
L 265.312037 76.0525 
z
" clip-path="url(#pb32d105057)" style="fill: #8c564b"/>
   </g>
   <g id="patch_32">
    <path d="M 309.453806 55.806 
L 350.551316 55.806 
L 350.551316 35.5595 
L 309.453806 35.5595 
z
" clip-path="url(#pb32d105057)" style="fill: #8c564b"/>
   </g>
   <g id="patch_33">
    <path d="M 62.86875 217.778 
L 62.86875 217.778 
L 62.86875 197.5315 
L 62.86875 197.5315 
z
" clip-path="url(#pb32d105057)" style="fill: #e377c2"/>
   </g>
   <g id="patch_34">
    <path d="M 362.19561 177.285 
L 401.238244 177.285 
L 401.238244 157.0385 
L 362.19561 157.0385 
z
" clip-path="url(#pb32d105057)" style="fill: #e377c2"/>
   </g>
   <g id="patch_35">
    <path d="M 305.20234 136.792 
L 332.128294 136.792 
L 332.128294 116.5455 
L 305.20234 116.5455 
z
" clip-path="url(#pb32d105057)" style="fill: #e377c2"/>
   </g>
   <g id="patch_36">
    <path d="M 294.232507 96.299 
L 380.993915 96.299 
L 380.993915 76.0525 
L 294.232507 76.0525 
z
" clip-path="url(#pb32d105057)" style="fill: #e377c2"/>
   </g>
   <g id="patch_37">
    <path d="M 350.551316 55.806 
L 391.648825 55.806 
L 391.648825 35.5595 
L 350.551316 35.5595 
z
" clip-path="url(#pb32d105057)" style="fill: #e377c2"/>
   </g>
   <g id="patch_38">
    <path d="M 62.86875 217.778 
L 62.86875 217.778 
L 62.86875 197.5315 
L 62.86875 197.5315 
z
" clip-path="url(#pb32d105057)" style="fill: #7f7f7f"/>
   </g>
   <g id="patch_39">
    <path d="M 401.238244 177.285 
L 427.266667 177.285 
L 427.266667 157.0385 
L 401.238244 157.0385 
z
" clip-path="url(#pb32d105057)" style="fill: #7f7f7f"/>
   </g>
   <g id="patch_40">
    <path d="M 332.128294 136.792 
L 412.906158 136.792 
L 412.906158 116.5455 
L 332.128294 116.5455 
z
" clip-path="url(#pb32d105057)" style="fill: #7f7f7f"/>
   </g>
   <g id="patch_41">
    <path d="M 380.993915 96.299 
L 453.295089 96.299 
L 453.295089 76.0525 
L 380.993915 76.0525 
z
" clip-path="url(#pb32d105057)" style="fill: #7f7f7f"/>
   </g>
   <g id="patch_42">
    <path d="M 391.648825 55.806 
L 432.746335 55.806 
L 432.746335 35.5595 
L 391.648825 35.5595 
z
" clip-path="url(#pb32d105057)" style="fill: #7f7f7f"/>
   </g>
   <g id="patch_43">
    <path d="M 62.86875 217.778 
L 62.86875 217.778 
L 62.86875 197.5315 
L 62.86875 197.5315 
z
" clip-path="url(#pb32d105057)" style="fill: #bcbd22"/>
   </g>
   <g id="patch_44">
    <path d="M 427.266667 177.285 
L 453.295089 177.285 
L 453.295089 157.0385 
L 427.266667 157.0385 
z
" clip-path="url(#pb32d105057)" style="fill: #bcbd22"/>
   </g>
   <g id="patch_45">
    <path d="M 412.906158 136.792 
L 453.295089 136.792 
L 453.295089 116.5455 
L 412.906158 116.5455 
z
" clip-path="url(#pb32d105057)" style="fill: #bcbd22"/>
   </g>
   <g id="patch_46">
    <path d="M 62.86875 96.299 
L 62.86875 96.299 
L 62.86875 76.0525 
L 62.86875 76.0525 
z
" clip-path="url(#pb32d105057)" style="fill: #bcbd22"/>
   </g>
   <g id="patch_47">
    <path d="M 432.746335 55.806 
L 453.295089 55.806 
L 453.295089 35.5595 
L 432.746335 35.5595 
z
" clip-path="url(#pb32d105057)" style="fill: #bcbd22"/>
   </g>
   <g id="matplotlib.axis_1">
    <g id="xtick_1">
     <g id="line2d_1">
      <defs>
       <path id="m4c99cd72f3" d="M 0 0 
L 0 3.5 
" style="stroke: #000000; stroke-width: 0.8"/>
      </defs>
      <g>
       <use xlink:href="#m4c99cd72f3" x="62.86875" y="227.90125" style="stroke: #000000; stroke-width: 0.8"/>
      </g>
     </g>
     <g id="text_1">
      <text style="font: 10px 'sans-serif'; text-anchor: middle" x="62.86875" y="242.074687" transform="rotate(-0, 62.86875, 242.074687)">0</text>
     </g>
    </g>
    <g id="xtick_2">
     <g id="line2d_2">
      <g>
       <use xlink:href="#m4c99cd72f3" x="140.954018" y="227.90125" style="stroke: #000000; stroke-width: 0.8"/>
      </g>
     </g>
     <g id="text_2">
      <text style="font: 10px 'sans-serif'; text-anchor: middle" x="140.954018" y="242.074687" transform="rotate(-0, 140.954018, 242.074687)">20</text>
     </g>
    </g>
    <g id="xtick_3">
     <g id="line2d_3">
      <g>
       <use xlink:href="#m4c99cd72f3" x="219.039286" y="227.90125" style="stroke: #000000; stroke-width: 0.8"/>
      </g>
     </g>
     <g id="text_3">
      <text style="font: 10px 'sans-serif'; text-anchor: middle" x="219.039286" y="242.074687" transform="rotate(-0, 219.039286, 242.074687)">40</text>
     </g>
    </g>
    <g id="xtick_4">
     <g id="line2d_4">
      <g>
       <use xlink:href="#m4c99cd72f3" x="297.124554" y="227.90125" style="stroke: #000000; stroke-width: 0.8"/>
      </g>
     </g>
     <g id="text_4">
      <text style="font: 10px 'sans-serif'; text-anchor: middle" x="297.124554" y="242.074687" transform="rotate(-0, 297.124554, 242.074687)">60</text>
     </g>
    </g>
    <g id="xtick_5">
     <g id="line2d_5">
      <g>
       <use xlink:href="#m4c99cd72f3" x="375.209821" y="227.90125" style="stroke: #000000; stroke-width: 0.8"/>
      </g>
     </g>
     <g id="text_5">
      <text style="font: 10px 'sans-serif'; text-anchor: middle" x="375.209821" y="242.074687" transform="rotate(-0, 375.209821, 242.074687)">80</text>
     </g>
    </g>
    <g id="xtick_6">
     <g id="line2d_6">
      <g>
       <use xlink:href="#m4c99cd72f3" x="453.295089" y="227.90125" style="stroke: #000000; stroke-width: 0.8"/>
      </g>
     </g>
     <g id="text_6">
      <text style="font: 10px 'sans-serif'; text-anchor: middle" x="453.295089" y="242.074687" transform="rotate(-0, 453.295089, 242.074687)">100</text>
     </g>
    </g>
    <g id="text_7">
     <text style="font: 10px 'sans-serif'; text-anchor: middle" x="267.842578" y="255.434062" transform="rotate(-0, 267.842578, 255.434062)">Ranking of importance</text>
    </g>
   </g>
   <g id="matplotlib.axis_2">
    <g id="ytick_1">
     <g id="line2d_7">
      <defs>
       <path id="m8e343aef83" d="M 0 0 
L -3.5 0 
" style="stroke: #000000; stroke-width: 0.8"/>
      </defs>
      <g>
       <use xlink:href="#m8e343aef83" x="62.86875" y="207.65475" style="stroke: #000000; stroke-width: 0.8"/>
      </g>
     </g>
     <g id="text_8">
      <text style="font: 10px 'sans-serif'; text-anchor: end" x="55.86875" y="211.241469" transform="rotate(-0, 55.86875, 211.241469)">Rank 1</text>
     </g>
    </g>
    <g id="ytick_2">
     <g id="line2d_8">
      <g>
       <use xlink:href="#m8e343aef83" x="62.86875" y="167.16175" style="stroke: #000000; stroke-width: 0.8"/>
      </g>
     </g>
     <g id="text_9">
      <text style="font: 10px 'sans-serif'; text-anchor: end" x="55.86875" y="170.748469" transform="rotate(-0, 55.86875, 170.748469)">Rank 2</text>
     </g>
    </g>
    <g id="ytick_3">
     <g id="line2d_9">
      <g>
       <use xlink:href="#m8e343aef83" x="62.86875" y="126.66875" style="stroke: #000000; stroke-width: 0.8"/>
      </g>
     </g>
     <g id="text_10">
      <text style="font: 10px 'sans-serif'; text-anchor: end" x="55.86875" y="130.255469" transform="rotate(-0, 55.86875, 130.255469)">Rank 3</text>
     </g>
    </g>
    <g id="ytick_4">
     <g id="line2d_10">
      <g>
       <use xlink:href="#m8e343aef83" x="62.86875" y="86.17575" style="stroke: #000000; stroke-width: 0.8"/>
      </g>
     </g>
     <g id="text_11">
      <text style="font: 10px 'sans-serif'; text-anchor: end" x="55.86875" y="89.762469" transform="rotate(-0, 55.86875, 89.762469)">Rank 4</text>
     </g>
    </g>
    <g id="ytick_5">
     <g id="line2d_11">
      <g>
       <use xlink:href="#m8e343aef83" x="62.86875" y="45.68275" style="stroke: #000000; stroke-width: 0.8"/>
      </g>
     </g>
     <g id="text_12">
      <text style="font: 10px 'sans-serif'; text-anchor: end" x="55.86875" y="49.269469" transform="rotate(-0, 55.86875, 49.269469)">Rank 5</text>
     </g>
    </g>
    <g id="text_13">
     <text style="font: 10px 'sans-serif'; text-anchor: middle" x="17.973438" y="126.66875" transform="rotate(-90, 17.973438, 126.66875)">Percentage</text>
    </g>
   </g>
   <g id="patch_48">
    <path d="M 62.86875 227.90125 
L 472.816406 227.90125 
" style="fill: none; stroke: #000000; stroke-width: 0.8; stroke-linejoin: miter; stroke-linecap: square"/>
   </g>
   <g id="text_14">
    <text style="font: 10px 'sans-serif'; text-anchor: middle" x="119.543541" y="211.70405" transform="rotate(-0, 119.543541, 211.70405)">29</text>
   </g>
   <g id="text_15">
    <text style="font: 10px 'sans-serif'; text-anchor: middle" x="95.404278" y="171.21105" transform="rotate(-0, 95.404278, 171.21105)">17</text>
   </g>
   <g id="text_16">
    <text style="font: 10px 'sans-serif'; text-anchor: middle" x="96.526193" y="130.71805" transform="rotate(-0, 96.526193, 130.71805)">17</text>
   </g>
   <g id="text_17">
    <text style="font: 10px 'sans-serif'; text-anchor: middle" x="226.595925" y="211.70405" transform="rotate(-0, 226.595925, 211.70405)">26</text>
   </g>
   <g id="text_18">
    <text style="font: 10px 'sans-serif'; text-anchor: middle" x="166.98244" y="171.21105" transform="rotate(-0, 166.98244, 171.21105)">20</text>
   </g>
   <g id="text_19">
    <text style="font: 10px 'sans-serif'; text-anchor: middle" x="143.646613" y="130.71805" transform="rotate(-0, 143.646613, 130.71805)">7</text>
   </g>
   <g id="text_20">
    <text style="font: 10px 'sans-serif'; text-anchor: middle" x="113.479572" y="90.22505" transform="rotate(-0, 113.479572, 90.22505)">19</text>
   </g>
   <g id="text_21">
    <text style="font: 10px 'sans-serif'; text-anchor: middle" x="73.143127" y="49.73205" transform="rotate(-0, 73.143127, 49.73205)">5</text>
   </g>
   <g id="text_22">
    <text style="font: 10px 'sans-serif'; text-anchor: middle" x="314.756711" y="211.70405" transform="rotate(-0, 314.756711, 211.70405)">19</text>
   </g>
   <g id="text_23">
    <text style="font: 10px 'sans-serif'; text-anchor: middle" x="232.053497" y="171.21105" transform="rotate(-0, 232.053497, 171.21105)">13</text>
   </g>
   <g id="text_24">
    <text style="font: 10px 'sans-serif'; text-anchor: middle" x="177.304056" y="130.71805" transform="rotate(-0, 177.304056, 130.71805)">10</text>
   </g>
   <g id="text_25">
    <text style="font: 10px 'sans-serif'; text-anchor: middle" x="185.780746" y="90.22505" transform="rotate(-0, 185.780746, 90.22505)">19</text>
   </g>
   <g id="text_26">
    <text style="font: 10px 'sans-serif'; text-anchor: middle" x="124.515014" y="49.73205" transform="rotate(-0, 124.515014, 49.73205)">21</text>
   </g>
   <g id="text_27">
    <text style="font: 10px 'sans-serif'; text-anchor: middle" x="377.728701" y="211.70405" transform="rotate(-0, 377.728701, 211.70405)">13</text>
   </g>
   <g id="text_28">
    <text style="font: 10px 'sans-serif'; text-anchor: middle" x="196.435656" y="49.73205" transform="rotate(-0, 196.435656, 49.73205)">16</text>
   </g>
   <g id="text_29">
    <text style="font: 10px 'sans-serif'; text-anchor: middle" x="421.809094" y="211.70405" transform="rotate(-0, 421.809094, 211.70405)">10</text>
   </g>
   <g id="text_30">
    <text style="font: 10px 'sans-serif'; text-anchor: middle" x="297.124554" y="171.21105" transform="rotate(-0, 297.124554, 171.21105)">13</text>
   </g>
   <g id="text_31">
    <text style="font: 10px 'sans-serif'; text-anchor: middle" x="210.961499" y="130.71805" transform="rotate(-0, 210.961499, 130.71805)">7</text>
   </g>
   <g id="text_32">
    <text style="font: 10px 'sans-serif'; text-anchor: middle" x="243.621685" y="90.22505" transform="rotate(-0, 243.621685, 90.22505)">11</text>
   </g>
   <g id="text_33">
    <text style="font: 10px 'sans-serif'; text-anchor: middle" x="268.356297" y="49.73205" transform="rotate(-0, 268.356297, 49.73205)">21</text>
   </g>
   <g id="text_34">
    <text style="font: 10px 'sans-serif'; text-anchor: middle" x="342.674293" y="171.21105" transform="rotate(-0, 342.674293, 171.21105)">10</text>
   </g>
   <g id="text_35">
    <text style="font: 10px 'sans-serif'; text-anchor: middle" x="264.813408" y="130.71805" transform="rotate(-0, 264.813408, 130.71805)">21</text>
   </g>
   <g id="text_36">
    <text style="font: 10px 'sans-serif'; text-anchor: middle" x="279.772272" y="90.22505" transform="rotate(-0, 279.772272, 90.22505)">7</text>
   </g>
   <g id="text_37">
    <text style="font: 10px 'sans-serif'; text-anchor: middle" x="330.002561" y="49.73205" transform="rotate(-0, 330.002561, 49.73205)">11</text>
   </g>
   <g id="text_38">
    <text style="font: 10px 'sans-serif'; text-anchor: middle" x="381.716927" y="171.21105" transform="rotate(-0, 381.716927, 171.21105)">10</text>
   </g>
   <g id="text_39">
    <text style="font: 10px 'sans-serif'; text-anchor: middle" x="318.665317" y="130.71805" transform="rotate(-0, 318.665317, 130.71805)">7</text>
   </g>
   <g id="text_40">
    <text style="font: 10px 'sans-serif'; text-anchor: middle" x="337.613211" y="90.22505" transform="rotate(-0, 337.613211, 90.22505)">22</text>
   </g>
   <g id="text_41">
    <text style="font: 10px 'sans-serif'; text-anchor: middle" x="371.10007" y="49.73205" transform="rotate(-0, 371.10007, 49.73205)">11</text>
   </g>
   <g id="text_42">
    <text style="font: 10px 'sans-serif'; text-anchor: middle" x="414.252455" y="171.21105" transform="rotate(-0, 414.252455, 171.21105)">7</text>
   </g>
   <g id="text_43">
    <text style="font: 10px 'sans-serif'; text-anchor: middle" x="372.517226" y="130.71805" transform="rotate(-0, 372.517226, 130.71805)">21</text>
   </g>
   <g id="text_44">
    <text style="font: 10px 'sans-serif'; text-anchor: middle" x="417.144502" y="90.22505" transform="rotate(-0, 417.144502, 90.22505)">19</text>
   </g>
   <g id="text_45">
    <text style="font: 10px 'sans-serif'; text-anchor: middle" x="412.19758" y="49.73205" transform="rotate(-0, 412.19758, 49.73205)">11</text>
   </g>
   <g id="text_46">
    <text style="font: 10px 'sans-serif'; text-anchor: middle" x="440.280878" y="171.21105" transform="rotate(-0, 440.280878, 171.21105)">7</text>
   </g>
   <g id="text_47">
    <text style="font: 10px 'sans-serif'; text-anchor: middle" x="433.100623" y="130.71805" transform="rotate(-0, 433.100623, 130.71805)">10</text>
   </g>
   <g id="text_48">
    <text style="font: 10px 'sans-serif'; text-anchor: middle" x="443.020712" y="49.73205" transform="rotate(-0, 443.020712, 49.73205)">5</text>
   </g>
   <g id="text_49">
    <text style="font: 12px 'sans-serif'; text-anchor: middle" x="267.842578" y="19.43625" transform="rotate(-0, 267.842578, 19.43625)">Reasons to choose current job: Australia</text>
   </g>
   <g id="legend_1">
    <g id="patch_49">
     <path d="M 54.158984 337.98975 
L 481.526172 337.98975 
Q 483.526172 337.98975 483.526172 335.98975 
L 483.526172 265.271 
Q 483.526172 263.271 481.526172 263.271 
L 54.158984 263.271 
Q 52.158984 263.271 52.158984 265.271 
L 52.158984 335.98975 
Q 52.158984 337.98975 54.158984 337.98975 
z
" style="fill: #ffffff; opacity: 0.8; stroke: #cccccc; stroke-linejoin: miter"/>
    </g>
    <g id="patch_50">
     <path d="M 56.158984 274.63975 
L 76.158984 274.63975 
L 76.158984 267.63975 
L 56.158984 267.63975 
z
" style="fill: #1f77b4"/>
    </g>
    <g id="text_50">
     <text style="font: 10px 'sans-serif'; text-anchor: start" x="84.158984" y="274.63975" transform="rotate(-0, 84.158984, 274.63975)">Desire to work in a research environment</text>
    </g>
    <g id="patch_51">
     <path d="M 56.158984 288.897562 
L 76.158984 288.897562 
L 76.158984 281.897562 
L 56.158984 281.897562 
z
" style="fill: #ff7f0e"/>
    </g>
    <g id="text_51">
     <text style="font: 10px 'sans-serif'; text-anchor: start" x="84.158984" y="288.897562" transform="rotate(-0, 84.158984, 288.897562)">Desire to advance research</text>
    </g>
    <g id="patch_52">
     <path d="M 56.158984 303.178812 
L 76.158984 303.178812 
L 76.158984 296.178812 
L 56.158984 296.178812 
z
" style="fill: #2ca02c"/>
    </g>
    <g id="text_52">
     <text style="font: 10px 'sans-serif'; text-anchor: start" x="84.158984" y="303.178812" transform="rotate(-0, 84.158984, 303.178812)">Freedom to choose own working practices</text>
    </g>
    <g id="patch_53">
     <path d="M 56.158984 317.588187 
L 76.158984 317.588187 
L 76.158984 310.588187 
L 56.158984 310.588187 
z
" style="fill: #d62728"/>
    </g>
    <g id="text_53">
     <text style="font: 10px 'sans-serif'; text-anchor: start" x="84.158984" y="317.588187" transform="rotate(-0, 84.158984, 317.588187)">The salary</text>
    </g>
    <g id="patch_54">
     <path d="M 56.158984 331.905375 
L 76.158984 331.905375 
L 76.158984 324.905375 
L 56.158984 324.905375 
z
" style="fill: #9467bd"/>
    </g>
    <g id="text_54">
     <text style="font: 10px 'sans-serif'; text-anchor: start" x="84.158984" y="331.905375" transform="rotate(-0, 84.158984, 331.905375)">I want to learn new skills</text>
    </g>
    <g id="patch_55">
     <path d="M 291.455859 274.63975 
L 311.455859 274.63975 
L 311.455859 267.63975 
L 291.455859 267.63975 
z
" style="fill: #8c564b"/>
    </g>
    <g id="text_55">
     <text style="font: 10px 'sans-serif'; text-anchor: start" x="319.455859" y="274.63975" transform="rotate(-0, 319.455859, 274.63975)">Opportunity to develop software</text>
    </g>
    <g id="patch_56">
     <path d="M 291.455859 288.980375 
L 311.455859 288.980375 
L 311.455859 281.980375 
L 291.455859 281.980375 
z
" style="fill: #e377c2"/>
    </g>
    <g id="text_56">
     <text style="font: 10px 'sans-serif'; text-anchor: start" x="319.455859" y="288.980375" transform="rotate(-0, 319.455859, 288.980375)">Ability to work across disciplines</text>
    </g>
    <g id="patch_57">
     <path d="M 291.455859 303.321 
L 311.455859 303.321 
L 311.455859 296.321 
L 291.455859 296.321 
z
" style="fill: #7f7f7f"/>
    </g>
    <g id="text_57">
     <text style="font: 10px 'sans-serif'; text-anchor: start" x="319.455859" y="303.321" transform="rotate(-0, 319.455859, 303.321)">Flexible working hours</text>
    </g>
    <g id="patch_58">
     <path d="M 291.455859 317.90225 
L 311.455859 317.90225 
L 311.455859 310.90225 
L 291.455859 310.90225 
z
" style="fill: #bcbd22"/>
    </g>
    <g id="text_58">
     <text style="font: 10px 'sans-serif'; text-anchor: start" x="319.455859" y="317.90225" transform="rotate(-0, 319.455859, 317.90225)">Opportunity for career advancement</text>
    </g>
   </g>
  </g>
 </g>
 <defs>
  <clipPath id="pb32d105057">
   <rect x="62.86875" y="25.43625" width="409.947656" height="202.465"/>
  </clipPath>
 </defs>
</svg>
