<?xml version="1.0" encoding="utf-8" standalone="no"?>
<!DOCTYPE svg PUBLIC "-//W3C//DTD SVG 1.1//EN"
  "http://www.w3.org/Graphics/SVG/1.1/DTD/svg11.dtd">
<svg height="360pt" version="1.1" viewBox="0 0 504 360" width="504pt" xmlns="http://www.w3.org/2000/svg" xmlns:xlink="http://www.w3.org/1999/xlink">
 <metadata>
  <rdf:RDF xmlns:cc="http://creativecommons.org/ns#" xmlns:dc="http://purl.org/dc/elements/1.1/" xmlns:rdf="http://www.w3.org/1999/02/22-rdf-syntax-ns#">
   <cc:Work>
    <dc:type rdf:resource="http://purl.org/dc/dcmitype/StillImage"/>
    <dc:date>2021-03-29T22:00:55.837538</dc:date>
    <dc:format>image/svg+xml</dc:format>
    <dc:creator>
     <cc:Agent>
      <dc:title>Matplotlib v3.4.0, https://matplotlib.org/</dc:title>
     </cc:Agent>
    </dc:creator>
   </cc:Work>
  </rdf:RDF>
 </metadata>
 <defs>
  <style type="text/css">*{stroke-linecap:butt;stroke-linejoin:round;}</style>
 </defs>
 <g id="figure_1">
  <g id="patch_1">
   <path d="M 0 360 
L 504 360 
L 504 0 
L 0 0 
z
" style="fill:#ffffff;"/>
  </g>
  <g id="axes_1">
   <g id="patch_2">
    <path d="M 86.050938 236.433125 
L 417.949062 236.433125 
L 417.949062 25.918125 
L 86.050938 25.918125 
z
" style="fill:#ffffff;"/>
   </g>
   <g id="patch_3">
    <path clip-path="url(#p3a078f429b)" d="M 86.050938 225.907375 
L 173.854674 225.907375 
L 173.854674 204.855875 
L 86.050938 204.855875 
z
" style="fill:#1f77b4;"/>
   </g>
   <g id="patch_4">
    <path clip-path="url(#p3a078f429b)" d="M 86.050938 183.804375 
L 149.708647 183.804375 
L 149.708647 162.752875 
L 86.050938 162.752875 
z
" style="fill:#1f77b4;"/>
   </g>
   <g id="patch_5">
    <path clip-path="url(#p3a078f429b)" d="M 86.050938 141.701375 
L 123.367526 141.701375 
L 123.367526 120.649875 
L 86.050938 120.649875 
z
" style="fill:#1f77b4;"/>
   </g>
   <g id="patch_6">
    <path clip-path="url(#p3a078f429b)" d="M 86.050938 99.598375 
L 123.628481 99.598375 
L 123.628481 78.546875 
L 86.050938 78.546875 
z
" style="fill:#1f77b4;"/>
   </g>
   <g id="patch_7">
    <path clip-path="url(#p3a078f429b)" d="M 86.050938 57.495375 
L 116.99715 57.495375 
L 116.99715 36.443875 
L 86.050938 36.443875 
z
" style="fill:#1f77b4;"/>
   </g>
   <g id="patch_8">
    <path clip-path="url(#p3a078f429b)" d="M 173.854674 225.907375 
L 246.292757 225.907375 
L 246.292757 204.855875 
L 173.854674 204.855875 
z
" style="fill:#ff7f0e;"/>
   </g>
   <g id="patch_9">
    <path clip-path="url(#p3a078f429b)" d="M 149.708647 183.804375 
L 191.415422 183.804375 
L 191.415422 162.752875 
L 149.708647 162.752875 
z
" style="fill:#ff7f0e;"/>
   </g>
   <g id="patch_10">
    <path clip-path="url(#p3a078f429b)" d="M 123.367526 141.701375 
L 165.074301 141.701375 
L 165.074301 120.649875 
L 123.367526 120.649875 
z
" style="fill:#ff7f0e;"/>
   </g>
   <g id="patch_11">
    <path clip-path="url(#p3a078f429b)" d="M 123.628481 99.598375 
L 147.943362 99.598375 
L 147.943362 78.546875 
L 123.628481 78.546875 
z
" style="fill:#ff7f0e;"/>
   </g>
   <g id="patch_12">
    <path clip-path="url(#p3a078f429b)" d="M 116.99715 57.495375 
L 136.891143 57.495375 
L 136.891143 36.443875 
L 116.99715 36.443875 
z
" style="fill:#ff7f0e;"/>
   </g>
   <g id="patch_13">
    <path clip-path="url(#p3a078f429b)" d="M 246.292757 225.907375 
L 285.804439 225.907375 
L 285.804439 204.855875 
L 246.292757 204.855875 
z
" style="fill:#2ca02c;"/>
   </g>
   <g id="patch_14">
    <path clip-path="url(#p3a078f429b)" d="M 191.415422 183.804375 
L 215.561449 183.804375 
L 215.561449 162.752875 
L 191.415422 162.752875 
z
" style="fill:#2ca02c;"/>
   </g>
   <g id="patch_15">
    <path clip-path="url(#p3a078f429b)" d="M 165.074301 141.701375 
L 204.585982 141.701375 
L 204.585982 120.649875 
L 165.074301 120.649875 
z
" style="fill:#2ca02c;"/>
   </g>
   <g id="patch_16">
    <path clip-path="url(#p3a078f429b)" d="M 147.943362 99.598375 
L 203.204455 99.598375 
L 203.204455 78.546875 
L 147.943362 78.546875 
z
" style="fill:#2ca02c;"/>
   </g>
   <g id="patch_17">
    <path clip-path="url(#p3a078f429b)" d="M 136.891143 57.495375 
L 176.67913 57.495375 
L 176.67913 36.443875 
L 136.891143 36.443875 
z
" style="fill:#2ca02c;"/>
   </g>
   <g id="patch_18">
    <path clip-path="url(#p3a078f429b)" d="M 285.804439 225.907375 
L 314.340653 225.907375 
L 314.340653 204.855875 
L 285.804439 204.855875 
z
" style="fill:#d62728;"/>
   </g>
   <g id="patch_19">
    <path clip-path="url(#p3a078f429b)" d="M 215.561449 183.804375 
L 241.90257 183.804375 
L 241.90257 162.752875 
L 215.561449 162.752875 
z
" style="fill:#d62728;"/>
   </g>
   <g id="patch_20">
    <path clip-path="url(#p3a078f429b)" d="M 204.585982 141.701375 
L 241.90257 141.701375 
L 241.90257 120.649875 
L 204.585982 120.649875 
z
" style="fill:#d62728;"/>
   </g>
   <g id="patch_21">
    <path clip-path="url(#p3a078f429b)" d="M 203.204455 99.598375 
L 240.781998 99.598375 
L 240.781998 78.546875 
L 203.204455 78.546875 
z
" style="fill:#d62728;"/>
   </g>
   <g id="patch_22">
    <path clip-path="url(#p3a078f429b)" d="M 176.67913 57.495375 
L 225.308892 57.495375 
L 225.308892 36.443875 
L 176.67913 36.443875 
z
" style="fill:#d62728;"/>
   </g>
   <g id="patch_23">
    <path clip-path="url(#p3a078f429b)" d="M 314.340653 225.907375 
L 340.681774 225.907375 
L 340.681774 204.855875 
L 314.340653 204.855875 
z
" style="fill:#9467bd;"/>
   </g>
   <g id="patch_24">
    <path clip-path="url(#p3a078f429b)" d="M 241.90257 183.804375 
L 272.633878 183.804375 
L 272.633878 162.752875 
L 241.90257 162.752875 
z
" style="fill:#9467bd;"/>
   </g>
   <g id="patch_25">
    <path clip-path="url(#p3a078f429b)" d="M 241.90257 141.701375 
L 261.658411 141.701375 
L 261.658411 120.649875 
L 241.90257 120.649875 
z
" style="fill:#9467bd;"/>
   </g>
   <g id="patch_26">
    <path clip-path="url(#p3a078f429b)" d="M 240.781998 99.598375 
L 260.675992 99.598375 
L 260.675992 78.546875 
L 240.781998 78.546875 
z
" style="fill:#9467bd;"/>
   </g>
   <g id="patch_27">
    <path clip-path="url(#p3a078f429b)" d="M 225.308892 57.495375 
L 251.834217 57.495375 
L 251.834217 36.443875 
L 225.308892 36.443875 
z
" style="fill:#9467bd;"/>
   </g>
   <g id="patch_28">
    <path clip-path="url(#p3a078f429b)" d="M 340.681774 225.907375 
L 364.827802 225.907375 
L 364.827802 204.855875 
L 340.681774 204.855875 
z
" style="fill:#8c564b;"/>
   </g>
   <g id="patch_29">
    <path clip-path="url(#p3a078f429b)" d="M 272.633878 183.804375 
L 309.950466 183.804375 
L 309.950466 162.752875 
L 272.633878 162.752875 
z
" style="fill:#8c564b;"/>
   </g>
   <g id="patch_30">
    <path clip-path="url(#p3a078f429b)" d="M 261.658411 141.701375 
L 309.950466 141.701375 
L 309.950466 120.649875 
L 261.658411 120.649875 
z
" style="fill:#8c564b;"/>
   </g>
   <g id="patch_31">
    <path clip-path="url(#p3a078f429b)" d="M 260.675992 99.598375 
L 300.463979 99.598375 
L 300.463979 78.546875 
L 260.675992 78.546875 
z
" style="fill:#8c564b;"/>
   </g>
   <g id="patch_32">
    <path clip-path="url(#p3a078f429b)" d="M 251.834217 57.495375 
L 282.780429 57.495375 
L 282.780429 36.443875 
L 251.834217 36.443875 
z
" style="fill:#8c564b;"/>
   </g>
   <g id="patch_33">
    <path clip-path="url(#p3a078f429b)" d="M 364.827802 225.907375 
L 388.973829 225.907375 
L 388.973829 204.855875 
L 364.827802 204.855875 
z
" style="fill:#e377c2;"/>
   </g>
   <g id="patch_34">
    <path clip-path="url(#p3a078f429b)" d="M 309.950466 183.804375 
L 349.462148 183.804375 
L 349.462148 162.752875 
L 309.950466 162.752875 
z
" style="fill:#e377c2;"/>
   </g>
   <g id="patch_35">
    <path clip-path="url(#p3a078f429b)" d="M 309.950466 141.701375 
L 338.486681 141.701375 
L 338.486681 120.649875 
L 309.950466 120.649875 
z
" style="fill:#e377c2;"/>
   </g>
   <g id="patch_36">
    <path clip-path="url(#p3a078f429b)" d="M 300.463979 99.598375 
L 322.568416 99.598375 
L 322.568416 78.546875 
L 300.463979 78.546875 
z
" style="fill:#e377c2;"/>
   </g>
   <g id="patch_37">
    <path clip-path="url(#p3a078f429b)" d="M 282.780429 57.495375 
L 302.674422 57.495375 
L 302.674422 36.443875 
L 282.780429 36.443875 
z
" style="fill:#e377c2;"/>
   </g>
   <g id="patch_38">
    <path clip-path="url(#p3a078f429b)" d="M 388.973829 225.907375 
L 397.754203 225.907375 
L 397.754203 204.855875 
L 388.973829 204.855875 
z
" style="fill:#7f7f7f;"/>
   </g>
   <g id="patch_39">
    <path clip-path="url(#p3a078f429b)" d="M 349.462148 183.804375 
L 369.217989 183.804375 
L 369.217989 162.752875 
L 349.462148 162.752875 
z
" style="fill:#7f7f7f;"/>
   </g>
   <g id="patch_40">
    <path clip-path="url(#p3a078f429b)" d="M 338.486681 141.701375 
L 371.413082 141.701375 
L 371.413082 120.649875 
L 338.486681 120.649875 
z
" style="fill:#7f7f7f;"/>
   </g>
   <g id="patch_41">
    <path clip-path="url(#p3a078f429b)" d="M 322.568416 99.598375 
L 373.408621 99.598375 
L 373.408621 78.546875 
L 322.568416 78.546875 
z
" style="fill:#7f7f7f;"/>
   </g>
   <g id="patch_42">
    <path clip-path="url(#p3a078f429b)" d="M 302.674422 57.495375 
L 357.935515 57.495375 
L 357.935515 36.443875 
L 302.674422 36.443875 
z
" style="fill:#7f7f7f;"/>
   </g>
   <g id="patch_43">
    <path clip-path="url(#p3a078f429b)" d="M 397.754203 225.907375 
L 402.14439 225.907375 
L 402.14439 204.855875 
L 397.754203 204.855875 
z
" style="fill:#bcbd22;"/>
   </g>
   <g id="patch_44">
    <path clip-path="url(#p3a078f429b)" d="M 369.217989 183.804375 
L 402.14439 183.804375 
L 402.14439 162.752875 
L 369.217989 162.752875 
z
" style="fill:#bcbd22;"/>
   </g>
   <g id="patch_45">
    <path clip-path="url(#p3a078f429b)" d="M 371.413082 141.701375 
L 402.14439 141.701375 
L 402.14439 120.649875 
L 371.413082 120.649875 
z
" style="fill:#bcbd22;"/>
   </g>
   <g id="patch_46">
    <path clip-path="url(#p3a078f429b)" d="M 373.408621 99.598375 
L 402.14439 99.598375 
L 402.14439 78.546875 
L 373.408621 78.546875 
z
" style="fill:#bcbd22;"/>
   </g>
   <g id="patch_47">
    <path clip-path="url(#p3a078f429b)" d="M 357.935515 57.495375 
L 402.14439 57.495375 
L 402.14439 36.443875 
L 357.935515 36.443875 
z
" style="fill:#bcbd22;"/>
   </g>
   <g id="matplotlib.axis_1">
    <g id="xtick_1">
     <g id="line2d_1">
      <defs>
       <path d="M 0 0 
L 0 3.5 
" id="mc3a356a46d" style="stroke:#000000;stroke-width:0.8;"/>
      </defs>
      <g>
       <use style="stroke:#000000;stroke-width:0.8;" x="86.050938" xlink:href="#mc3a356a46d" y="236.433125"/>
      </g>
     </g>
     <g id="text_1">
      <text style="font-family:DejaVu Sans;font-size:10px;font-stretch:normal;font-style:normal;font-weight:normal;text-anchor:middle;" transform="rotate(-0, 86.050938, 251.031563)" x="86.050938" y="251.031563">0</text>
     </g>
    </g>
    <g id="xtick_2">
     <g id="line2d_2">
      <g>
       <use style="stroke:#000000;stroke-width:0.8;" x="149.269628" xlink:href="#mc3a356a46d" y="236.433125"/>
      </g>
     </g>
     <g id="text_2">
      <text style="font-family:DejaVu Sans;font-size:10px;font-stretch:normal;font-style:normal;font-weight:normal;text-anchor:middle;" transform="rotate(-0, 149.269628, 251.031563)" x="149.269628" y="251.031563">20</text>
     </g>
    </g>
    <g id="xtick_3">
     <g id="line2d_3">
      <g>
       <use style="stroke:#000000;stroke-width:0.8;" x="212.488318" xlink:href="#mc3a356a46d" y="236.433125"/>
      </g>
     </g>
     <g id="text_3">
      <text style="font-family:DejaVu Sans;font-size:10px;font-stretch:normal;font-style:normal;font-weight:normal;text-anchor:middle;" transform="rotate(-0, 212.488318, 251.031563)" x="212.488318" y="251.031563">40</text>
     </g>
    </g>
    <g id="xtick_4">
     <g id="line2d_4">
      <g>
       <use style="stroke:#000000;stroke-width:0.8;" x="275.707009" xlink:href="#mc3a356a46d" y="236.433125"/>
      </g>
     </g>
     <g id="text_4">
      <text style="font-family:DejaVu Sans;font-size:10px;font-stretch:normal;font-style:normal;font-weight:normal;text-anchor:middle;" transform="rotate(-0, 275.707009, 251.031563)" x="275.707009" y="251.031563">60</text>
     </g>
    </g>
    <g id="xtick_5">
     <g id="line2d_5">
      <g>
       <use style="stroke:#000000;stroke-width:0.8;" x="338.925699" xlink:href="#mc3a356a46d" y="236.433125"/>
      </g>
     </g>
     <g id="text_5">
      <text style="font-family:DejaVu Sans;font-size:10px;font-stretch:normal;font-style:normal;font-weight:normal;text-anchor:middle;" transform="rotate(-0, 338.925699, 251.031563)" x="338.925699" y="251.031563">80</text>
     </g>
    </g>
    <g id="xtick_6">
     <g id="line2d_6">
      <g>
       <use style="stroke:#000000;stroke-width:0.8;" x="402.14439" xlink:href="#mc3a356a46d" y="236.433125"/>
      </g>
     </g>
     <g id="text_6">
      <text style="font-family:DejaVu Sans;font-size:10px;font-stretch:normal;font-style:normal;font-weight:normal;text-anchor:middle;" transform="rotate(-0, 402.14439, 251.031563)" x="402.14439" y="251.031563">100</text>
     </g>
    </g>
    <g id="text_7">
     <text style="font-family:DejaVu Sans;font-size:10px;font-stretch:normal;font-style:normal;font-weight:normal;text-anchor:middle;" transform="rotate(-0, 252, 264.709688)" x="252" y="264.709688">Ranking of importance</text>
    </g>
   </g>
   <g id="matplotlib.axis_2">
    <g id="ytick_1">
     <g id="line2d_7">
      <defs>
       <path d="M 0 0 
L -3.5 0 
" id="m82278324de" style="stroke:#000000;stroke-width:0.8;"/>
      </defs>
      <g>
       <use style="stroke:#000000;stroke-width:0.8;" x="86.050938" xlink:href="#m82278324de" y="215.381625"/>
      </g>
     </g>
     <g id="text_8">
      <text style="font-family:DejaVu Sans;font-size:10px;font-stretch:normal;font-style:normal;font-weight:normal;text-anchor:end;" transform="rotate(-0, 79.050938, 219.180844)" x="79.050938" y="219.180844">Rank 1</text>
     </g>
    </g>
    <g id="ytick_2">
     <g id="line2d_8">
      <g>
       <use style="stroke:#000000;stroke-width:0.8;" x="86.050938" xlink:href="#m82278324de" y="173.278625"/>
      </g>
     </g>
     <g id="text_9">
      <text style="font-family:DejaVu Sans;font-size:10px;font-stretch:normal;font-style:normal;font-weight:normal;text-anchor:end;" transform="rotate(-0, 79.050938, 177.077844)" x="79.050938" y="177.077844">Rank 2</text>
     </g>
    </g>
    <g id="ytick_3">
     <g id="line2d_9">
      <g>
       <use style="stroke:#000000;stroke-width:0.8;" x="86.050938" xlink:href="#m82278324de" y="131.175625"/>
      </g>
     </g>
     <g id="text_10">
      <text style="font-family:DejaVu Sans;font-size:10px;font-stretch:normal;font-style:normal;font-weight:normal;text-anchor:end;" transform="rotate(-0, 79.050938, 134.974844)" x="79.050938" y="134.974844">Rank 3</text>
     </g>
    </g>
    <g id="ytick_4">
     <g id="line2d_10">
      <g>
       <use style="stroke:#000000;stroke-width:0.8;" x="86.050938" xlink:href="#m82278324de" y="89.072625"/>
      </g>
     </g>
     <g id="text_11">
      <text style="font-family:DejaVu Sans;font-size:10px;font-stretch:normal;font-style:normal;font-weight:normal;text-anchor:end;" transform="rotate(-0, 79.050938, 92.871844)" x="79.050938" y="92.871844">Rank 4</text>
     </g>
    </g>
    <g id="ytick_5">
     <g id="line2d_11">
      <g>
       <use style="stroke:#000000;stroke-width:0.8;" x="86.050938" xlink:href="#m82278324de" y="46.969625"/>
      </g>
     </g>
     <g id="text_12">
      <text style="font-family:DejaVu Sans;font-size:10px;font-stretch:normal;font-style:normal;font-weight:normal;text-anchor:end;" transform="rotate(-0, 79.050938, 50.768844)" x="79.050938" y="50.768844">Rank 5</text>
     </g>
    </g>
    <g id="text_13">
     <text style="font-family:DejaVu Sans;font-size:10px;font-stretch:normal;font-style:normal;font-weight:normal;text-anchor:middle;" transform="rotate(-90, 38.450938, 131.175625)" x="38.450938" y="131.175625">Percentage</text>
    </g>
   </g>
   <g id="patch_48">
    <path d="M 86.050938 236.433125 
L 417.949062 236.433125 
" style="fill:none;stroke:#000000;stroke-linecap:square;stroke-linejoin:miter;stroke-width:0.8;"/>
   </g>
   <g id="text_14">
    <text style="font-family:DejaVu Sans;font-size:10px;font-stretch:normal;font-style:normal;font-weight:normal;text-anchor:middle;" transform="rotate(-0, 129.952806, 219.591925)" x="129.952806" y="219.591925">28</text>
   </g>
   <g id="text_15">
    <text style="font-family:DejaVu Sans;font-size:10px;font-stretch:normal;font-style:normal;font-weight:normal;text-anchor:middle;" transform="rotate(-0, 117.879792, 177.488925)" x="117.879792" y="177.488925">20</text>
   </g>
   <g id="text_16">
    <text style="font-family:DejaVu Sans;font-size:10px;font-stretch:normal;font-style:normal;font-weight:normal;text-anchor:middle;" transform="rotate(-0, 104.709232, 135.385925)" x="104.709232" y="135.385925">12</text>
   </g>
   <g id="text_17">
    <text style="font-family:DejaVu Sans;font-size:10px;font-stretch:normal;font-style:normal;font-weight:normal;text-anchor:middle;" transform="rotate(-0, 104.839709, 93.282925)" x="104.839709" y="93.282925">12</text>
   </g>
   <g id="text_18">
    <text style="font-family:DejaVu Sans;font-size:10px;font-stretch:normal;font-style:normal;font-weight:normal;text-anchor:middle;" transform="rotate(-0, 101.524044, 51.179925)" x="101.524044" y="51.179925">10</text>
   </g>
   <g id="text_19">
    <text style="font-family:DejaVu Sans;font-size:10px;font-stretch:normal;font-style:normal;font-weight:normal;text-anchor:middle;" transform="rotate(-0, 210.073716, 219.591925)" x="210.073716" y="219.591925">23</text>
   </g>
   <g id="text_20">
    <text style="font-family:DejaVu Sans;font-size:10px;font-stretch:normal;font-style:normal;font-weight:normal;text-anchor:middle;" transform="rotate(-0, 170.562034, 177.488925)" x="170.562034" y="177.488925">13</text>
   </g>
   <g id="text_21">
    <text style="font-family:DejaVu Sans;font-size:10px;font-stretch:normal;font-style:normal;font-weight:normal;text-anchor:middle;" transform="rotate(-0, 144.220913, 135.385925)" x="144.220913" y="135.385925">13</text>
   </g>
   <g id="text_22">
    <text style="font-family:DejaVu Sans;font-size:10px;font-stretch:normal;font-style:normal;font-weight:normal;text-anchor:middle;" transform="rotate(-0, 135.785921, 93.282925)" x="135.785921" y="93.282925">8</text>
   </g>
   <g id="text_23">
    <text style="font-family:DejaVu Sans;font-size:10px;font-stretch:normal;font-style:normal;font-weight:normal;text-anchor:middle;" transform="rotate(-0, 126.944146, 51.179925)" x="126.944146" y="51.179925">6</text>
   </g>
   <g id="text_24">
    <text style="font-family:DejaVu Sans;font-size:10px;font-stretch:normal;font-style:normal;font-weight:normal;text-anchor:middle;" transform="rotate(-0, 266.048598, 219.591925)" x="266.048598" y="219.591925">12</text>
   </g>
   <g id="text_25">
    <text style="font-family:DejaVu Sans;font-size:10px;font-stretch:normal;font-style:normal;font-weight:normal;text-anchor:middle;" transform="rotate(-0, 203.488435, 177.488925)" x="203.488435" y="177.488925">8</text>
   </g>
   <g id="text_26">
    <text style="font-family:DejaVu Sans;font-size:10px;font-stretch:normal;font-style:normal;font-weight:normal;text-anchor:middle;" transform="rotate(-0, 184.830141, 135.385925)" x="184.830141" y="135.385925">12</text>
   </g>
   <g id="text_27">
    <text style="font-family:DejaVu Sans;font-size:10px;font-stretch:normal;font-style:normal;font-weight:normal;text-anchor:middle;" transform="rotate(-0, 175.573908, 93.282925)" x="175.573908" y="93.282925">17</text>
   </g>
   <g id="text_28">
    <text style="font-family:DejaVu Sans;font-size:10px;font-stretch:normal;font-style:normal;font-weight:normal;text-anchor:middle;" transform="rotate(-0, 156.785137, 51.179925)" x="156.785137" y="51.179925">13</text>
   </g>
   <g id="text_29">
    <text style="font-family:DejaVu Sans;font-size:10px;font-stretch:normal;font-style:normal;font-weight:normal;text-anchor:middle;" transform="rotate(-0, 300.072546, 219.591925)" x="300.072546" y="219.591925">9</text>
   </g>
   <g id="text_30">
    <text style="font-family:DejaVu Sans;font-size:10px;font-stretch:normal;font-style:normal;font-weight:normal;text-anchor:middle;" transform="rotate(-0, 228.73201, 177.488925)" x="228.73201" y="177.488925">8</text>
   </g>
   <g id="text_31">
    <text style="font-family:DejaVu Sans;font-size:10px;font-stretch:normal;font-style:normal;font-weight:normal;text-anchor:middle;" transform="rotate(-0, 223.244276, 135.385925)" x="223.244276" y="135.385925">12</text>
   </g>
   <g id="text_32">
    <text style="font-family:DejaVu Sans;font-size:10px;font-stretch:normal;font-style:normal;font-weight:normal;text-anchor:middle;" transform="rotate(-0, 221.993226, 93.282925)" x="221.993226" y="93.282925">12</text>
   </g>
   <g id="text_33">
    <text style="font-family:DejaVu Sans;font-size:10px;font-stretch:normal;font-style:normal;font-weight:normal;text-anchor:middle;" transform="rotate(-0, 200.994011, 51.179925)" x="200.994011" y="51.179925">15</text>
   </g>
   <g id="text_34">
    <text style="font-family:DejaVu Sans;font-size:10px;font-stretch:normal;font-style:normal;font-weight:normal;text-anchor:middle;" transform="rotate(-0, 327.511214, 219.591925)" x="327.511214" y="219.591925">8</text>
   </g>
   <g id="text_35">
    <text style="font-family:DejaVu Sans;font-size:10px;font-stretch:normal;font-style:normal;font-weight:normal;text-anchor:middle;" transform="rotate(-0, 257.268224, 177.488925)" x="257.268224" y="177.488925">10</text>
   </g>
   <g id="text_36">
    <text style="font-family:DejaVu Sans;font-size:10px;font-stretch:normal;font-style:normal;font-weight:normal;text-anchor:middle;" transform="rotate(-0, 251.780491, 135.385925)" x="251.780491" y="135.385925">6</text>
   </g>
   <g id="text_37">
    <text style="font-family:DejaVu Sans;font-size:10px;font-stretch:normal;font-style:normal;font-weight:normal;text-anchor:middle;" transform="rotate(-0, 250.728995, 93.282925)" x="250.728995" y="93.282925">6</text>
   </g>
   <g id="text_38">
    <text style="font-family:DejaVu Sans;font-size:10px;font-stretch:normal;font-style:normal;font-weight:normal;text-anchor:middle;" transform="rotate(-0, 238.571554, 51.179925)" x="238.571554" y="51.179925">8</text>
   </g>
   <g id="text_39">
    <text style="font-family:DejaVu Sans;font-size:10px;font-stretch:normal;font-style:normal;font-weight:normal;text-anchor:middle;" transform="rotate(-0, 352.754788, 219.591925)" x="352.754788" y="219.591925">8</text>
   </g>
   <g id="text_40">
    <text style="font-family:DejaVu Sans;font-size:10px;font-stretch:normal;font-style:normal;font-weight:normal;text-anchor:middle;" transform="rotate(-0, 291.292172, 177.488925)" x="291.292172" y="177.488925">12</text>
   </g>
   <g id="text_41">
    <text style="font-family:DejaVu Sans;font-size:10px;font-stretch:normal;font-style:normal;font-weight:normal;text-anchor:middle;" transform="rotate(-0, 285.804439, 135.385925)" x="285.804439" y="135.385925">15</text>
   </g>
   <g id="text_42">
    <text style="font-family:DejaVu Sans;font-size:10px;font-stretch:normal;font-style:normal;font-weight:normal;text-anchor:middle;" transform="rotate(-0, 280.569985, 93.282925)" x="280.569985" y="93.282925">13</text>
   </g>
   <g id="text_43">
    <text style="font-family:DejaVu Sans;font-size:10px;font-stretch:normal;font-style:normal;font-weight:normal;text-anchor:middle;" transform="rotate(-0, 267.307323, 51.179925)" x="267.307323" y="51.179925">10</text>
   </g>
   <g id="text_44">
    <text style="font-family:DejaVu Sans;font-size:10px;font-stretch:normal;font-style:normal;font-weight:normal;text-anchor:middle;" transform="rotate(-0, 376.900816, 219.591925)" x="376.900816" y="219.591925">8</text>
   </g>
   <g id="text_45">
    <text style="font-family:DejaVu Sans;font-size:10px;font-stretch:normal;font-style:normal;font-weight:normal;text-anchor:middle;" transform="rotate(-0, 329.706307, 177.488925)" x="329.706307" y="177.488925">12</text>
   </g>
   <g id="text_46">
    <text style="font-family:DejaVu Sans;font-size:10px;font-stretch:normal;font-style:normal;font-weight:normal;text-anchor:middle;" transform="rotate(-0, 324.218573, 135.385925)" x="324.218573" y="135.385925">9</text>
   </g>
   <g id="text_47">
    <text style="font-family:DejaVu Sans;font-size:10px;font-stretch:normal;font-style:normal;font-weight:normal;text-anchor:middle;" transform="rotate(-0, 311.516197, 93.282925)" x="311.516197" y="93.282925">7</text>
   </g>
   <g id="text_48">
    <text style="font-family:DejaVu Sans;font-size:10px;font-stretch:normal;font-style:normal;font-weight:normal;text-anchor:middle;" transform="rotate(-0, 292.727426, 51.179925)" x="292.727426" y="51.179925">6</text>
   </g>
   <g id="text_49">
    <text style="font-family:DejaVu Sans;font-size:10px;font-stretch:normal;font-style:normal;font-weight:normal;text-anchor:middle;" transform="rotate(-0, 359.340068, 177.488925)" x="359.340068" y="177.488925">6</text>
   </g>
   <g id="text_50">
    <text style="font-family:DejaVu Sans;font-size:10px;font-stretch:normal;font-style:normal;font-weight:normal;text-anchor:middle;" transform="rotate(-0, 354.949881, 135.385925)" x="354.949881" y="135.385925">10</text>
   </g>
   <g id="text_51">
    <text style="font-family:DejaVu Sans;font-size:10px;font-stretch:normal;font-style:normal;font-weight:normal;text-anchor:middle;" transform="rotate(-0, 347.988519, 93.282925)" x="347.988519" y="93.282925">16</text>
   </g>
   <g id="text_52">
    <text style="font-family:DejaVu Sans;font-size:10px;font-stretch:normal;font-style:normal;font-weight:normal;text-anchor:middle;" transform="rotate(-0, 330.304969, 51.179925)" x="330.304969" y="51.179925">17</text>
   </g>
   <g id="text_53">
    <text style="font-family:DejaVu Sans;font-size:10px;font-stretch:normal;font-style:normal;font-weight:normal;text-anchor:middle;" transform="rotate(-0, 385.681189, 177.488925)" x="385.681189" y="177.488925">10</text>
   </g>
   <g id="text_54">
    <text style="font-family:DejaVu Sans;font-size:10px;font-stretch:normal;font-style:normal;font-weight:normal;text-anchor:middle;" transform="rotate(-0, 386.778736, 135.385925)" x="386.778736" y="135.385925">10</text>
   </g>
   <g id="text_55">
    <text style="font-family:DejaVu Sans;font-size:10px;font-stretch:normal;font-style:normal;font-weight:normal;text-anchor:middle;" transform="rotate(-0, 387.776506, 93.282925)" x="387.776506" y="93.282925">9</text>
   </g>
   <g id="text_56">
    <text style="font-family:DejaVu Sans;font-size:10px;font-stretch:normal;font-style:normal;font-weight:normal;text-anchor:middle;" transform="rotate(-0, 380.039953, 51.179925)" x="380.039953" y="51.179925">14</text>
   </g>
   <g id="text_57">
    <text style="font-family:DejaVu Sans;font-size:12px;font-stretch:normal;font-style:normal;font-weight:normal;text-anchor:middle;" transform="rotate(-0, 252, 19.918125)" x="252" y="19.918125">Reasons to choose current job: United States</text>
   </g>
   <g id="legend_1">
    <g id="patch_49">
     <path d="M 2.951563 349.401 
L 501.048437 349.401 
Q 503.048437 349.401 503.048437 347.401 
L 503.048437 275.010375 
Q 503.048437 273.010375 501.048437 273.010375 
L 2.951563 273.010375 
Q 0.951563 273.010375 0.951563 275.010375 
L 0.951563 347.401 
Q 0.951563 349.401 2.951563 349.401 
z
" style="fill:#ffffff;opacity:0.8;stroke:#cccccc;stroke-linejoin:miter;"/>
    </g>
    <g id="patch_50">
     <path d="M 4.951563 284.608812 
L 24.951563 284.608812 
L 24.951563 277.608812 
L 4.951563 277.608812 
z
" style="fill:#1f77b4;"/>
    </g>
    <g id="text_58">
     <text style="font-family:DejaVu Sans;font-size:10px;font-stretch:normal;font-style:normal;font-weight:normal;text-anchor:start;" transform="rotate(-0, 32.951563, 284.608812)" x="32.951563" y="284.608812">Desire to work in a research environment</text>
    </g>
    <g id="patch_51">
     <path d="M 4.951563 299.286938 
L 24.951563 299.286938 
L 24.951563 292.286938 
L 4.951563 292.286938 
z
" style="fill:#ff7f0e;"/>
    </g>
    <g id="text_59">
     <text style="font-family:DejaVu Sans;font-size:10px;font-stretch:normal;font-style:normal;font-weight:normal;text-anchor:start;" transform="rotate(-0, 32.951563, 299.286938)" x="32.951563" y="299.286938">Desire to advance research</text>
    </g>
    <g id="patch_52">
     <path d="M 4.951563 313.965063 
L 24.951563 313.965063 
L 24.951563 306.965063 
L 4.951563 306.965063 
z
" style="fill:#2ca02c;"/>
    </g>
    <g id="text_60">
     <text style="font-family:DejaVu Sans;font-size:10px;font-stretch:normal;font-style:normal;font-weight:normal;text-anchor:start;" transform="rotate(-0, 32.951563, 313.965063)" x="32.951563" y="313.965063">Opportunity to develop software</text>
    </g>
    <g id="patch_53">
     <path d="M 4.951563 328.643188 
L 24.951563 328.643188 
L 24.951563 321.643188 
L 4.951563 321.643188 
z
" style="fill:#d62728;"/>
    </g>
    <g id="text_61">
     <text style="font-family:DejaVu Sans;font-size:10px;font-stretch:normal;font-style:normal;font-weight:normal;text-anchor:start;" transform="rotate(-0, 32.951563, 328.643188)" x="32.951563" y="328.643188">I want to learn new skills</text>
    </g>
    <g id="patch_54">
     <path d="M 4.951563 343.321313 
L 24.951563 343.321313 
L 24.951563 336.321313 
L 4.951563 336.321313 
z
" style="fill:#9467bd;"/>
    </g>
    <g id="text_62">
     <text style="font-family:DejaVu Sans;font-size:10px;font-stretch:normal;font-style:normal;font-weight:normal;text-anchor:start;" transform="rotate(-0, 32.951563, 343.321313)" x="32.951563" y="343.321313">The salary</text>
    </g>
    <g id="patch_55">
     <path d="M 260.314063 284.608812 
L 280.314063 284.608812 
L 280.314063 277.608812 
L 260.314063 277.608812 
z
" style="fill:#8c564b;"/>
    </g>
    <g id="text_63">
     <text style="font-family:DejaVu Sans;font-size:10px;font-stretch:normal;font-style:normal;font-weight:normal;text-anchor:start;" transform="rotate(-0, 288.314063, 284.608812)" x="288.314063" y="284.608812">Freedom to choose own working practices</text>
    </g>
    <g id="patch_56">
     <path d="M 260.314063 299.286938 
L 280.314063 299.286938 
L 280.314063 292.286938 
L 260.314063 292.286938 
z
" style="fill:#e377c2;"/>
    </g>
    <g id="text_64">
     <text style="font-family:DejaVu Sans;font-size:10px;font-stretch:normal;font-style:normal;font-weight:normal;text-anchor:start;" transform="rotate(-0, 288.314063, 299.286938)" x="288.314063" y="299.286938">Opportunity for career advancement</text>
    </g>
    <g id="patch_57">
     <path d="M 260.314063 313.965063 
L 280.314063 313.965063 
L 280.314063 306.965063 
L 260.314063 306.965063 
z
" style="fill:#7f7f7f;"/>
    </g>
    <g id="text_65">
     <text style="font-family:DejaVu Sans;font-size:10px;font-stretch:normal;font-style:normal;font-weight:normal;text-anchor:start;" transform="rotate(-0, 288.314063, 313.965063)" x="288.314063" y="313.965063">Flexible working hours</text>
    </g>
    <g id="patch_58">
     <path d="M 260.314063 328.643188 
L 280.314063 328.643188 
L 280.314063 321.643188 
L 260.314063 321.643188 
z
" style="fill:#bcbd22;"/>
    </g>
    <g id="text_66">
     <text style="font-family:DejaVu Sans;font-size:10px;font-stretch:normal;font-style:normal;font-weight:normal;text-anchor:start;" transform="rotate(-0, 288.314063, 328.643188)" x="288.314063" y="328.643188">Ability to work across disciplines</text>
    </g>
   </g>
  </g>
 </g>
 <defs>
  <clipPath id="p3a078f429b">
   <rect height="210.515" width="331.898125" x="86.050938" y="25.918125"/>
  </clipPath>
 </defs>
</svg>
