<?xml version="1.0" encoding="utf-8" standalone="no"?>
<!DOCTYPE svg PUBLIC "-//W3C//DTD SVG 1.1//EN"
  "http://www.w3.org/Graphics/SVG/1.1/DTD/svg11.dtd">
<svg height="360pt" version="1.1" viewBox="0 0 504 360" width="504pt" xmlns="http://www.w3.org/2000/svg" xmlns:xlink="http://www.w3.org/1999/xlink">
 <metadata>
  <rdf:RDF xmlns:cc="http://creativecommons.org/ns#" xmlns:dc="http://purl.org/dc/elements/1.1/" xmlns:rdf="http://www.w3.org/1999/02/22-rdf-syntax-ns#">
   <cc:Work>
    <dc:type rdf:resource="http://purl.org/dc/dcmitype/StillImage"/>
    <dc:date>2021-03-29T15:54:44.253110</dc:date>
    <dc:format>image/svg+xml</dc:format>
    <dc:creator>
     <cc:Agent>
      <dc:title>Matplotlib v3.4.0, https://matplotlib.org/</dc:title>
     </cc:Agent>
    </dc:creator>
   </cc:Work>
  </rdf:RDF>
 </metadata>
 <defs>
  <style type="text/css">*{stroke-linecap:butt;stroke-linejoin:round;}</style>
 </defs>
 <g id="figure_1">
  <g id="patch_1">
   <path d="M 0 360 
L 504 360 
L 504 0 
L 0 0 
z
" style="fill:#ffffff;"/>
  </g>
  <g id="axes_1">
   <g id="patch_2">
    <path d="M 65.998438 226.229375 
L 459.842969 226.229375 
L 459.842969 25.918125 
L 65.998438 25.918125 
z
" style="fill:#ffffff;"/>
   </g>
   <g id="patch_3">
    <path clip-path="url(#p0048e0167b)" d="M 65.998438 216.213813 
L 161.836419 216.213813 
L 161.836419 196.182688 
L 65.998438 196.182688 
z
" style="fill:#1f77b4;"/>
   </g>
   <g id="patch_4">
    <path clip-path="url(#p0048e0167b)" d="M 65.998438 176.151563 
L 130.726363 176.151563 
L 130.726363 156.120438 
L 65.998438 156.120438 
z
" style="fill:#1f77b4;"/>
   </g>
   <g id="patch_5">
    <path clip-path="url(#p0048e0167b)" d="M 65.998438 136.089313 
L 122.427911 136.089313 
L 122.427911 116.058188 
L 65.998438 116.058188 
z
" style="fill:#1f77b4;"/>
   </g>
   <g id="patch_6">
    <path clip-path="url(#p0048e0167b)" d="M 65.998438 96.027063 
L 104.171317 96.027063 
L 104.171317 75.995938 
L 65.998438 75.995938 
z
" style="fill:#1f77b4;"/>
   </g>
   <g id="patch_7">
    <path clip-path="url(#p0048e0167b)" d="M 65.998438 55.964813 
L 104.171317 55.964813 
L 104.171317 35.933688 
L 65.998438 35.933688 
z
" style="fill:#1f77b4;"/>
   </g>
   <g id="patch_8">
    <path clip-path="url(#p0048e0167b)" d="M 161.836419 216.213813 
L 246.107747 216.213813 
L 246.107747 196.182688 
L 161.836419 196.182688 
z
" style="fill:#ff7f0e;"/>
   </g>
   <g id="patch_9">
    <path clip-path="url(#p0048e0167b)" d="M 130.726363 176.151563 
L 200.43336 176.151563 
L 200.43336 156.120438 
L 130.726363 156.120438 
z
" style="fill:#ff7f0e;"/>
   </g>
   <g id="patch_10">
    <path clip-path="url(#p0048e0167b)" d="M 122.427911 136.089313 
L 160.60079 136.089313 
L 160.60079 116.058188 
L 122.427911 116.058188 
z
" style="fill:#ff7f0e;"/>
   </g>
   <g id="patch_11">
    <path clip-path="url(#p0048e0167b)" d="M 104.171317 96.027063 
L 147.323267 96.027063 
L 147.323267 75.995938 
L 104.171317 75.995938 
z
" style="fill:#ff7f0e;"/>
   </g>
   <g id="patch_12">
    <path clip-path="url(#p0048e0167b)" d="M 104.171317 55.964813 
L 125.747292 55.964813 
L 125.747292 35.933688 
L 104.171317 35.933688 
z
" style="fill:#ff7f0e;"/>
   </g>
   <g id="patch_13">
    <path clip-path="url(#p0048e0167b)" d="M 246.107747 216.213813 
L 307.245769 216.213813 
L 307.245769 196.182688 
L 246.107747 196.182688 
z
" style="fill:#2ca02c;"/>
   </g>
   <g id="patch_14">
    <path clip-path="url(#p0048e0167b)" d="M 200.43336 176.151563 
L 265.161285 176.151563 
L 265.161285 156.120438 
L 200.43336 156.120438 
z
" style="fill:#2ca02c;"/>
   </g>
   <g id="patch_15">
    <path clip-path="url(#p0048e0167b)" d="M 160.60079 136.089313 
L 218.689954 136.089313 
L 218.689954 116.058188 
L 160.60079 116.058188 
z
" style="fill:#2ca02c;"/>
   </g>
   <g id="patch_16">
    <path clip-path="url(#p0048e0167b)" d="M 147.323267 96.027063 
L 183.836456 96.027063 
L 183.836456 75.995938 
L 147.323267 75.995938 
z
" style="fill:#2ca02c;"/>
   </g>
   <g id="patch_17">
    <path clip-path="url(#p0048e0167b)" d="M 125.747292 55.964813 
L 155.621719 55.964813 
L 155.621719 35.933688 
L 125.747292 35.933688 
z
" style="fill:#2ca02c;"/>
   </g>
   <g id="patch_18">
    <path clip-path="url(#p0048e0167b)" d="M 307.245769 216.213813 
L 340.293349 216.213813 
L 340.293349 196.182688 
L 307.245769 196.182688 
z
" style="fill:#d62728;"/>
   </g>
   <g id="patch_19">
    <path clip-path="url(#p0048e0167b)" d="M 265.161285 176.151563 
L 295.035712 176.151563 
L 295.035712 156.120438 
L 265.161285 156.120438 
z
" style="fill:#d62728;"/>
   </g>
   <g id="patch_20">
    <path clip-path="url(#p0048e0167b)" d="M 218.689954 136.089313 
L 261.841904 136.089313 
L 261.841904 116.058188 
L 218.689954 116.058188 
z
" style="fill:#d62728;"/>
   </g>
   <g id="patch_21">
    <path clip-path="url(#p0048e0167b)" d="M 183.836456 96.027063 
L 231.967477 96.027063 
L 231.967477 75.995938 
L 183.836456 75.995938 
z
" style="fill:#d62728;"/>
   </g>
   <g id="patch_22">
    <path clip-path="url(#p0048e0167b)" d="M 155.621719 55.964813 
L 215.370573 55.964813 
L 215.370573 35.933688 
L 155.621719 35.933688 
z
" style="fill:#d62728;"/>
   </g>
   <g id="patch_23">
    <path clip-path="url(#p0048e0167b)" d="M 340.293349 216.213813 
L 373.340929 216.213813 
L 373.340929 196.182688 
L 340.293349 196.182688 
z
" style="fill:#9467bd;"/>
   </g>
   <g id="patch_24">
    <path clip-path="url(#p0048e0167b)" d="M 295.035712 176.151563 
L 331.548901 176.151563 
L 331.548901 156.120438 
L 295.035712 156.120438 
z
" style="fill:#9467bd;"/>
   </g>
   <g id="patch_25">
    <path clip-path="url(#p0048e0167b)" d="M 261.841904 136.089313 
L 295.035712 136.089313 
L 295.035712 116.058188 
L 261.841904 116.058188 
z
" style="fill:#9467bd;"/>
   </g>
   <g id="patch_26">
    <path clip-path="url(#p0048e0167b)" d="M 231.967477 96.027063 
L 258.522524 96.027063 
L 258.522524 75.995938 
L 231.967477 75.995938 
z
" style="fill:#9467bd;"/>
   </g>
   <g id="patch_27">
    <path clip-path="url(#p0048e0167b)" d="M 215.370573 55.964813 
L 250.224072 55.964813 
L 250.224072 35.933688 
L 215.370573 35.933688 
z
" style="fill:#9467bd;"/>
   </g>
   <g id="patch_28">
    <path clip-path="url(#p0048e0167b)" d="M 373.340929 216.213813 
L 401.431372 216.213813 
L 401.431372 196.182688 
L 373.340929 196.182688 
z
" style="fill:#8c564b;"/>
   </g>
   <g id="patch_29">
    <path clip-path="url(#p0048e0167b)" d="M 331.548901 176.151563 
L 371.381471 176.151563 
L 371.381471 156.120438 
L 331.548901 156.120438 
z
" style="fill:#8c564b;"/>
   </g>
   <g id="patch_30">
    <path clip-path="url(#p0048e0167b)" d="M 295.035712 136.089313 
L 334.868282 136.089313 
L 334.868282 116.058188 
L 295.035712 116.058188 
z
" style="fill:#8c564b;"/>
   </g>
   <g id="patch_31">
    <path clip-path="url(#p0048e0167b)" d="M 258.522524 96.027063 
L 311.632616 96.027063 
L 311.632616 75.995938 
L 258.522524 75.995938 
z
" style="fill:#8c564b;"/>
   </g>
   <g id="patch_32">
    <path clip-path="url(#p0048e0167b)" d="M 250.224072 55.964813 
L 311.632616 55.964813 
L 311.632616 35.933688 
L 250.224072 35.933688 
z
" style="fill:#8c564b;"/>
   </g>
   <g id="patch_33">
    <path clip-path="url(#p0048e0167b)" d="M 401.431372 216.213813 
L 421.259919 216.213813 
L 421.259919 196.182688 
L 401.431372 196.182688 
z
" style="fill:#e377c2;"/>
   </g>
   <g id="patch_34">
    <path clip-path="url(#p0048e0167b)" d="M 371.381471 176.151563 
L 399.596207 176.151563 
L 399.596207 156.120438 
L 371.381471 156.120438 
z
" style="fill:#e377c2;"/>
   </g>
   <g id="patch_35">
    <path clip-path="url(#p0048e0167b)" d="M 334.868282 136.089313 
L 371.381471 136.089313 
L 371.381471 116.058188 
L 334.868282 116.058188 
z
" style="fill:#e377c2;"/>
   </g>
   <g id="patch_36">
    <path clip-path="url(#p0048e0167b)" d="M 311.632616 96.027063 
L 354.784567 96.027063 
L 354.784567 75.995938 
L 311.632616 75.995938 
z
" style="fill:#e377c2;"/>
   </g>
   <g id="patch_37">
    <path clip-path="url(#p0048e0167b)" d="M 311.632616 55.964813 
L 369.72178 55.964813 
L 369.72178 35.933688 
L 311.632616 35.933688 
z
" style="fill:#e377c2;"/>
   </g>
   <g id="patch_38">
    <path clip-path="url(#p0048e0167b)" d="M 421.259919 216.213813 
L 431.174193 216.213813 
L 431.174193 196.182688 
L 421.259919 196.182688 
z
" style="fill:#7f7f7f;"/>
   </g>
   <g id="patch_39">
    <path clip-path="url(#p0048e0167b)" d="M 399.596207 176.151563 
L 427.810944 176.151563 
L 427.810944 156.120438 
L 399.596207 156.120438 
z
" style="fill:#7f7f7f;"/>
   </g>
   <g id="patch_40">
    <path clip-path="url(#p0048e0167b)" d="M 371.381471 136.089313 
L 411.21404 136.089313 
L 411.21404 116.058188 
L 371.381471 116.058188 
z
" style="fill:#7f7f7f;"/>
   </g>
   <g id="patch_41">
    <path clip-path="url(#p0048e0167b)" d="M 354.784567 96.027063 
L 414.533421 96.027063 
L 414.533421 75.995938 
L 354.784567 75.995938 
z
" style="fill:#7f7f7f;"/>
   </g>
   <g id="patch_42">
    <path clip-path="url(#p0048e0167b)" d="M 369.72178 55.964813 
L 409.55435 55.964813 
L 409.55435 35.933688 
L 369.72178 35.933688 
z
" style="fill:#7f7f7f;"/>
   </g>
   <g id="patch_43">
    <path clip-path="url(#p0048e0167b)" d="M 431.174193 216.213813 
L 441.088467 216.213813 
L 441.088467 196.182688 
L 431.174193 196.182688 
z
" style="fill:#bcbd22;"/>
   </g>
   <g id="patch_44">
    <path clip-path="url(#p0048e0167b)" d="M 427.810944 176.151563 
L 441.088467 176.151563 
L 441.088467 156.120438 
L 427.810944 156.120438 
z
" style="fill:#bcbd22;"/>
   </g>
   <g id="patch_45">
    <path clip-path="url(#p0048e0167b)" d="M 411.21404 136.089313 
L 441.088467 136.089313 
L 441.088467 116.058188 
L 411.21404 116.058188 
z
" style="fill:#bcbd22;"/>
   </g>
   <g id="patch_46">
    <path clip-path="url(#p0048e0167b)" d="M 414.533421 96.027063 
L 441.088467 96.027063 
L 441.088467 75.995938 
L 414.533421 75.995938 
z
" style="fill:#bcbd22;"/>
   </g>
   <g id="patch_47">
    <path clip-path="url(#p0048e0167b)" d="M 409.55435 55.964813 
L 441.088467 55.964813 
L 441.088467 35.933688 
L 409.55435 35.933688 
z
" style="fill:#bcbd22;"/>
   </g>
   <g id="matplotlib.axis_1">
    <g id="xtick_1">
     <g id="line2d_1">
      <defs>
       <path d="M 0 0 
L 0 3.5 
" id="mc3a356a46d" style="stroke:#000000;stroke-width:0.8;"/>
      </defs>
      <g>
       <use style="stroke:#000000;stroke-width:0.8;" x="65.998438" xlink:href="#mc3a356a46d" y="226.229375"/>
      </g>
     </g>
     <g id="text_1">
      <text style="font-family:DejaVu Sans;font-size:10px;font-stretch:normal;font-style:normal;font-weight:normal;text-anchor:middle;" transform="rotate(-0, 65.998438, 240.827812)" x="65.998438" y="240.827812">0</text>
     </g>
    </g>
    <g id="xtick_2">
     <g id="line2d_2">
      <g>
       <use style="stroke:#000000;stroke-width:0.8;" x="141.016443" xlink:href="#mc3a356a46d" y="226.229375"/>
      </g>
     </g>
     <g id="text_2">
      <text style="font-family:DejaVu Sans;font-size:10px;font-stretch:normal;font-style:normal;font-weight:normal;text-anchor:middle;" transform="rotate(-0, 141.016443, 240.827812)" x="141.016443" y="240.827812">20</text>
     </g>
    </g>
    <g id="xtick_3">
     <g id="line2d_3">
      <g>
       <use style="stroke:#000000;stroke-width:0.8;" x="216.034449" xlink:href="#mc3a356a46d" y="226.229375"/>
      </g>
     </g>
     <g id="text_3">
      <text style="font-family:DejaVu Sans;font-size:10px;font-stretch:normal;font-style:normal;font-weight:normal;text-anchor:middle;" transform="rotate(-0, 216.034449, 240.827812)" x="216.034449" y="240.827812">40</text>
     </g>
    </g>
    <g id="xtick_4">
     <g id="line2d_4">
      <g>
       <use style="stroke:#000000;stroke-width:0.8;" x="291.052455" xlink:href="#mc3a356a46d" y="226.229375"/>
      </g>
     </g>
     <g id="text_4">
      <text style="font-family:DejaVu Sans;font-size:10px;font-stretch:normal;font-style:normal;font-weight:normal;text-anchor:middle;" transform="rotate(-0, 291.052455, 240.827812)" x="291.052455" y="240.827812">60</text>
     </g>
    </g>
    <g id="xtick_5">
     <g id="line2d_5">
      <g>
       <use style="stroke:#000000;stroke-width:0.8;" x="366.070461" xlink:href="#mc3a356a46d" y="226.229375"/>
      </g>
     </g>
     <g id="text_5">
      <text style="font-family:DejaVu Sans;font-size:10px;font-stretch:normal;font-style:normal;font-weight:normal;text-anchor:middle;" transform="rotate(-0, 366.070461, 240.827812)" x="366.070461" y="240.827812">80</text>
     </g>
    </g>
    <g id="xtick_6">
     <g id="line2d_6">
      <g>
       <use style="stroke:#000000;stroke-width:0.8;" x="441.088467" xlink:href="#mc3a356a46d" y="226.229375"/>
      </g>
     </g>
     <g id="text_6">
      <text style="font-family:DejaVu Sans;font-size:10px;font-stretch:normal;font-style:normal;font-weight:normal;text-anchor:middle;" transform="rotate(-0, 441.088467, 240.827812)" x="441.088467" y="240.827812">100</text>
     </g>
    </g>
    <g id="text_7">
     <text style="font-family:DejaVu Sans;font-size:10px;font-stretch:normal;font-style:normal;font-weight:normal;text-anchor:middle;" transform="rotate(-0, 262.920703, 254.505938)" x="262.920703" y="254.505938">Ranking of importance</text>
    </g>
   </g>
   <g id="matplotlib.axis_2">
    <g id="ytick_1">
     <g id="line2d_7">
      <defs>
       <path d="M 0 0 
L -3.5 0 
" id="m82278324de" style="stroke:#000000;stroke-width:0.8;"/>
      </defs>
      <g>
       <use style="stroke:#000000;stroke-width:0.8;" x="65.998438" xlink:href="#m82278324de" y="206.19825"/>
      </g>
     </g>
     <g id="text_8">
      <text style="font-family:DejaVu Sans;font-size:10px;font-stretch:normal;font-style:normal;font-weight:normal;text-anchor:end;" transform="rotate(-0, 58.998438, 209.997469)" x="58.998438" y="209.997469">Rank 1</text>
     </g>
    </g>
    <g id="ytick_2">
     <g id="line2d_8">
      <g>
       <use style="stroke:#000000;stroke-width:0.8;" x="65.998438" xlink:href="#m82278324de" y="166.136"/>
      </g>
     </g>
     <g id="text_9">
      <text style="font-family:DejaVu Sans;font-size:10px;font-stretch:normal;font-style:normal;font-weight:normal;text-anchor:end;" transform="rotate(-0, 58.998438, 169.935219)" x="58.998438" y="169.935219">Rank 2</text>
     </g>
    </g>
    <g id="ytick_3">
     <g id="line2d_9">
      <g>
       <use style="stroke:#000000;stroke-width:0.8;" x="65.998438" xlink:href="#m82278324de" y="126.07375"/>
      </g>
     </g>
     <g id="text_10">
      <text style="font-family:DejaVu Sans;font-size:10px;font-stretch:normal;font-style:normal;font-weight:normal;text-anchor:end;" transform="rotate(-0, 58.998438, 129.872969)" x="58.998438" y="129.872969">Rank 3</text>
     </g>
    </g>
    <g id="ytick_4">
     <g id="line2d_10">
      <g>
       <use style="stroke:#000000;stroke-width:0.8;" x="65.998438" xlink:href="#m82278324de" y="86.0115"/>
      </g>
     </g>
     <g id="text_11">
      <text style="font-family:DejaVu Sans;font-size:10px;font-stretch:normal;font-style:normal;font-weight:normal;text-anchor:end;" transform="rotate(-0, 58.998438, 89.810719)" x="58.998438" y="89.810719">Rank 4</text>
     </g>
    </g>
    <g id="ytick_5">
     <g id="line2d_11">
      <g>
       <use style="stroke:#000000;stroke-width:0.8;" x="65.998438" xlink:href="#m82278324de" y="45.94925"/>
      </g>
     </g>
     <g id="text_12">
      <text style="font-family:DejaVu Sans;font-size:10px;font-stretch:normal;font-style:normal;font-weight:normal;text-anchor:end;" transform="rotate(-0, 58.998438, 49.748469)" x="58.998438" y="49.748469">Rank 5</text>
     </g>
    </g>
    <g id="text_13">
     <text style="font-family:DejaVu Sans;font-size:10px;font-stretch:normal;font-style:normal;font-weight:normal;text-anchor:middle;" transform="rotate(-90, 18.398438, 126.07375)" x="18.398438" y="126.07375">Percentage</text>
    </g>
   </g>
   <g id="patch_48">
    <path d="M 65.998438 226.229375 
L 459.842969 226.229375 
" style="fill:none;stroke:#000000;stroke-linecap:square;stroke-linejoin:miter;stroke-width:0.8;"/>
   </g>
   <g id="text_14">
    <text style="font-family:DejaVu Sans;font-size:10px;font-stretch:normal;font-style:normal;font-weight:normal;text-anchor:middle;" transform="rotate(-0, 113.917428, 210.204475)" x="113.917428" y="210.204475">26</text>
   </g>
   <g id="text_15">
    <text style="font-family:DejaVu Sans;font-size:10px;font-stretch:normal;font-style:normal;font-weight:normal;text-anchor:middle;" transform="rotate(-0, 98.3624, 170.142225)" x="98.3624" y="170.142225">17</text>
   </g>
   <g id="text_16">
    <text style="font-family:DejaVu Sans;font-size:10px;font-stretch:normal;font-style:normal;font-weight:normal;text-anchor:middle;" transform="rotate(-0, 94.213174, 130.079975)" x="94.213174" y="130.079975">15</text>
   </g>
   <g id="text_17">
    <text style="font-family:DejaVu Sans;font-size:10px;font-stretch:normal;font-style:normal;font-weight:normal;text-anchor:middle;" transform="rotate(-0, 85.084877, 90.017725)" x="85.084877" y="90.017725">10</text>
   </g>
   <g id="text_18">
    <text style="font-family:DejaVu Sans;font-size:10px;font-stretch:normal;font-style:normal;font-weight:normal;text-anchor:middle;" transform="rotate(-0, 85.084877, 49.955475)" x="85.084877" y="49.955475">10</text>
   </g>
   <g id="text_19">
    <text style="font-family:DejaVu Sans;font-size:10px;font-stretch:normal;font-style:normal;font-weight:normal;text-anchor:middle;" transform="rotate(-0, 203.972083, 210.204475)" x="203.972083" y="210.204475">22</text>
   </g>
   <g id="text_20">
    <text style="font-family:DejaVu Sans;font-size:10px;font-stretch:normal;font-style:normal;font-weight:normal;text-anchor:middle;" transform="rotate(-0, 165.579861, 170.142225)" x="165.579861" y="170.142225">19</text>
   </g>
   <g id="text_21">
    <text style="font-family:DejaVu Sans;font-size:10px;font-stretch:normal;font-style:normal;font-weight:normal;text-anchor:middle;" transform="rotate(-0, 141.514351, 130.079975)" x="141.514351" y="130.079975">10</text>
   </g>
   <g id="text_22">
    <text style="font-family:DejaVu Sans;font-size:10px;font-stretch:normal;font-style:normal;font-weight:normal;text-anchor:middle;" transform="rotate(-0, 125.747292, 90.017725)" x="125.747292" y="90.017725">12</text>
   </g>
   <g id="text_23">
    <text style="font-family:DejaVu Sans;font-size:10px;font-stretch:normal;font-style:normal;font-weight:normal;text-anchor:middle;" transform="rotate(-0, 114.959304, 49.955475)" x="114.959304" y="49.955475">6</text>
   </g>
   <g id="text_24">
    <text style="font-family:DejaVu Sans;font-size:10px;font-stretch:normal;font-style:normal;font-weight:normal;text-anchor:middle;" transform="rotate(-0, 276.676758, 210.204475)" x="276.676758" y="210.204475">16</text>
   </g>
   <g id="text_25">
    <text style="font-family:DejaVu Sans;font-size:10px;font-stretch:normal;font-style:normal;font-weight:normal;text-anchor:middle;" transform="rotate(-0, 232.797322, 170.142225)" x="232.797322" y="170.142225">17</text>
   </g>
   <g id="text_26">
    <text style="font-family:DejaVu Sans;font-size:10px;font-stretch:normal;font-style:normal;font-weight:normal;text-anchor:middle;" transform="rotate(-0, 189.645372, 130.079975)" x="189.645372" y="130.079975">15</text>
   </g>
   <g id="text_27">
    <text style="font-family:DejaVu Sans;font-size:10px;font-stretch:normal;font-style:normal;font-weight:normal;text-anchor:middle;" transform="rotate(-0, 165.579861, 90.017725)" x="165.579861" y="90.017725">10</text>
   </g>
   <g id="text_28">
    <text style="font-family:DejaVu Sans;font-size:10px;font-stretch:normal;font-style:normal;font-weight:normal;text-anchor:middle;" transform="rotate(-0, 140.684505, 49.955475)" x="140.684505" y="49.955475">8</text>
   </g>
   <g id="text_29">
    <text style="font-family:DejaVu Sans;font-size:10px;font-stretch:normal;font-style:normal;font-weight:normal;text-anchor:middle;" transform="rotate(-0, 323.769559, 210.204475)" x="323.769559" y="210.204475">9</text>
   </g>
   <g id="text_30">
    <text style="font-family:DejaVu Sans;font-size:10px;font-stretch:normal;font-style:normal;font-weight:normal;text-anchor:middle;" transform="rotate(-0, 280.098499, 170.142225)" x="280.098499" y="170.142225">8</text>
   </g>
   <g id="text_31">
    <text style="font-family:DejaVu Sans;font-size:10px;font-stretch:normal;font-style:normal;font-weight:normal;text-anchor:middle;" transform="rotate(-0, 240.265929, 130.079975)" x="240.265929" y="130.079975">12</text>
   </g>
   <g id="text_32">
    <text style="font-family:DejaVu Sans;font-size:10px;font-stretch:normal;font-style:normal;font-weight:normal;text-anchor:middle;" transform="rotate(-0, 207.901966, 90.017725)" x="207.901966" y="90.017725">13</text>
   </g>
   <g id="text_33">
    <text style="font-family:DejaVu Sans;font-size:10px;font-stretch:normal;font-style:normal;font-weight:normal;text-anchor:middle;" transform="rotate(-0, 185.496146, 49.955475)" x="185.496146" y="49.955475">16</text>
   </g>
   <g id="text_34">
    <text style="font-family:DejaVu Sans;font-size:10px;font-stretch:normal;font-style:normal;font-weight:normal;text-anchor:middle;" transform="rotate(-0, 356.817139, 210.204475)" x="356.817139" y="210.204475">9</text>
   </g>
   <g id="text_35">
    <text style="font-family:DejaVu Sans;font-size:10px;font-stretch:normal;font-style:normal;font-weight:normal;text-anchor:middle;" transform="rotate(-0, 313.292307, 170.142225)" x="313.292307" y="170.142225">10</text>
   </g>
   <g id="text_36">
    <text style="font-family:DejaVu Sans;font-size:10px;font-stretch:normal;font-style:normal;font-weight:normal;text-anchor:middle;" transform="rotate(-0, 278.438808, 130.079975)" x="278.438808" y="130.079975">9</text>
   </g>
   <g id="text_37">
    <text style="font-family:DejaVu Sans;font-size:10px;font-stretch:normal;font-style:normal;font-weight:normal;text-anchor:middle;" transform="rotate(-0, 245.245, 90.017725)" x="245.245" y="90.017725">7</text>
   </g>
   <g id="text_38">
    <text style="font-family:DejaVu Sans;font-size:10px;font-stretch:normal;font-style:normal;font-weight:normal;text-anchor:middle;" transform="rotate(-0, 232.797322, 49.955475)" x="232.797322" y="49.955475">9</text>
   </g>
   <g id="text_39">
    <text style="font-family:DejaVu Sans;font-size:10px;font-stretch:normal;font-style:normal;font-weight:normal;text-anchor:middle;" transform="rotate(-0, 387.38615, 210.204475)" x="387.38615" y="210.204475">7</text>
   </g>
   <g id="text_40">
    <text style="font-family:DejaVu Sans;font-size:10px;font-stretch:normal;font-style:normal;font-weight:normal;text-anchor:middle;" transform="rotate(-0, 351.465186, 170.142225)" x="351.465186" y="170.142225">11</text>
   </g>
   <g id="text_41">
    <text style="font-family:DejaVu Sans;font-size:10px;font-stretch:normal;font-style:normal;font-weight:normal;text-anchor:middle;" transform="rotate(-0, 314.951997, 130.079975)" x="314.951997" y="130.079975">11</text>
   </g>
   <g id="text_42">
    <text style="font-family:DejaVu Sans;font-size:10px;font-stretch:normal;font-style:normal;font-weight:normal;text-anchor:middle;" transform="rotate(-0, 285.07757, 90.017725)" x="285.07757" y="90.017725">14</text>
   </g>
   <g id="text_43">
    <text style="font-family:DejaVu Sans;font-size:10px;font-stretch:normal;font-style:normal;font-weight:normal;text-anchor:middle;" transform="rotate(-0, 280.928344, 49.955475)" x="280.928344" y="49.955475">16</text>
   </g>
   <g id="text_44">
    <text style="font-family:DejaVu Sans;font-size:10px;font-stretch:normal;font-style:normal;font-weight:normal;text-anchor:middle;" transform="rotate(-0, 411.345646, 210.204475)" x="411.345646" y="210.204475">5</text>
   </g>
   <g id="text_45">
    <text style="font-family:DejaVu Sans;font-size:10px;font-stretch:normal;font-style:normal;font-weight:normal;text-anchor:middle;" transform="rotate(-0, 385.488839, 170.142225)" x="385.488839" y="170.142225">8</text>
   </g>
   <g id="text_46">
    <text style="font-family:DejaVu Sans;font-size:10px;font-stretch:normal;font-style:normal;font-weight:normal;text-anchor:middle;" transform="rotate(-0, 353.124876, 130.079975)" x="353.124876" y="130.079975">10</text>
   </g>
   <g id="text_47">
    <text style="font-family:DejaVu Sans;font-size:10px;font-stretch:normal;font-style:normal;font-weight:normal;text-anchor:middle;" transform="rotate(-0, 333.208591, 90.017725)" x="333.208591" y="90.017725">12</text>
   </g>
   <g id="text_48">
    <text style="font-family:DejaVu Sans;font-size:10px;font-stretch:normal;font-style:normal;font-weight:normal;text-anchor:middle;" transform="rotate(-0, 340.677198, 49.955475)" x="340.677198" y="49.955475">15</text>
   </g>
   <g id="text_49">
    <text style="font-family:DejaVu Sans;font-size:10px;font-stretch:normal;font-style:normal;font-weight:normal;text-anchor:middle;" transform="rotate(-0, 413.703576, 170.142225)" x="413.703576" y="170.142225">8</text>
   </g>
   <g id="text_50">
    <text style="font-family:DejaVu Sans;font-size:10px;font-stretch:normal;font-style:normal;font-weight:normal;text-anchor:middle;" transform="rotate(-0, 391.297755, 130.079975)" x="391.297755" y="130.079975">11</text>
   </g>
   <g id="text_51">
    <text style="font-family:DejaVu Sans;font-size:10px;font-stretch:normal;font-style:normal;font-weight:normal;text-anchor:middle;" transform="rotate(-0, 384.658994, 90.017725)" x="384.658994" y="90.017725">16</text>
   </g>
   <g id="text_52">
    <text style="font-family:DejaVu Sans;font-size:10px;font-stretch:normal;font-style:normal;font-weight:normal;text-anchor:middle;" transform="rotate(-0, 389.638065, 49.955475)" x="389.638065" y="49.955475">11</text>
   </g>
   <g id="text_53">
    <text style="font-family:DejaVu Sans;font-size:10px;font-stretch:normal;font-style:normal;font-weight:normal;text-anchor:middle;" transform="rotate(-0, 426.151254, 130.079975)" x="426.151254" y="130.079975">8</text>
   </g>
   <g id="text_54">
    <text style="font-family:DejaVu Sans;font-size:10px;font-stretch:normal;font-style:normal;font-weight:normal;text-anchor:middle;" transform="rotate(-0, 427.810944, 90.017725)" x="427.810944" y="90.017725">7</text>
   </g>
   <g id="text_55">
    <text style="font-family:DejaVu Sans;font-size:10px;font-stretch:normal;font-style:normal;font-weight:normal;text-anchor:middle;" transform="rotate(-0, 425.321408, 49.955475)" x="425.321408" y="49.955475">8</text>
   </g>
   <g id="text_56">
    <text style="font-family:DejaVu Sans;font-size:12px;font-stretch:normal;font-style:normal;font-weight:normal;text-anchor:middle;" transform="rotate(-0, 262.920703, 19.918125)" x="262.920703" y="19.918125">Reasons to choose current job: United Kingdom</text>
   </g>
   <g id="legend_1">
    <g id="patch_49">
     <path d="M 36.263672 337.666687 
L 489.577734 337.666687 
Q 491.577734 337.666687 491.577734 335.666687 
L 491.577734 263.276062 
Q 491.577734 261.276062 489.577734 261.276062 
L 36.263672 261.276062 
Q 34.263672 261.276062 34.263672 263.276062 
L 34.263672 335.666687 
Q 34.263672 337.666687 36.263672 337.666687 
z
" style="fill:#ffffff;opacity:0.8;stroke:#cccccc;stroke-linejoin:miter;"/>
    </g>
    <g id="patch_50">
     <path d="M 38.263672 272.8745 
L 58.263672 272.8745 
L 58.263672 265.8745 
L 38.263672 265.8745 
z
" style="fill:#1f77b4;"/>
    </g>
    <g id="text_57">
     <text style="font-family:DejaVu Sans;font-size:10px;font-stretch:normal;font-style:normal;font-weight:normal;text-anchor:start;" transform="rotate(-0, 66.263672, 272.8745)" x="66.263672" y="272.8745">Desire to work in a research environment</text>
    </g>
    <g id="patch_51">
     <path d="M 38.263672 287.552625 
L 58.263672 287.552625 
L 58.263672 280.552625 
L 38.263672 280.552625 
z
" style="fill:#ff7f0e;"/>
    </g>
    <g id="text_58">
     <text style="font-family:DejaVu Sans;font-size:10px;font-stretch:normal;font-style:normal;font-weight:normal;text-anchor:start;" transform="rotate(-0, 66.263672, 287.552625)" x="66.263672" y="287.552625">Desire to advance research</text>
    </g>
    <g id="patch_52">
     <path d="M 38.263672 302.23075 
L 58.263672 302.23075 
L 58.263672 295.23075 
L 38.263672 295.23075 
z
" style="fill:#2ca02c;"/>
    </g>
    <g id="text_59">
     <text style="font-family:DejaVu Sans;font-size:10px;font-stretch:normal;font-style:normal;font-weight:normal;text-anchor:start;" transform="rotate(-0, 66.263672, 302.23075)" x="66.263672" y="302.23075">Opportunity to develop software</text>
    </g>
    <g id="patch_53">
     <path d="M 38.263672 316.908875 
L 58.263672 316.908875 
L 58.263672 309.908875 
L 38.263672 309.908875 
z
" style="fill:#d62728;"/>
    </g>
    <g id="text_60">
     <text style="font-family:DejaVu Sans;font-size:10px;font-stretch:normal;font-style:normal;font-weight:normal;text-anchor:start;" transform="rotate(-0, 66.263672, 316.908875)" x="66.263672" y="316.908875">Freedom to choose own working practices</text>
    </g>
    <g id="patch_54">
     <path d="M 38.263672 331.587 
L 58.263672 331.587 
L 58.263672 324.587 
L 38.263672 324.587 
z
" style="fill:#9467bd;"/>
    </g>
    <g id="text_61">
     <text style="font-family:DejaVu Sans;font-size:10px;font-stretch:normal;font-style:normal;font-weight:normal;text-anchor:start;" transform="rotate(-0, 66.263672, 331.587)" x="66.263672" y="331.587">Opportunity for career advancement</text>
    </g>
    <g id="patch_55">
     <path d="M 296.998047 272.8745 
L 316.998047 272.8745 
L 316.998047 265.8745 
L 296.998047 265.8745 
z
" style="fill:#8c564b;"/>
    </g>
    <g id="text_62">
     <text style="font-family:DejaVu Sans;font-size:10px;font-stretch:normal;font-style:normal;font-weight:normal;text-anchor:start;" transform="rotate(-0, 324.998047, 272.8745)" x="324.998047" y="272.8745">I want to learn new skills</text>
    </g>
    <g id="patch_56">
     <path d="M 296.998047 287.552625 
L 316.998047 287.552625 
L 316.998047 280.552625 
L 296.998047 280.552625 
z
" style="fill:#e377c2;"/>
    </g>
    <g id="text_63">
     <text style="font-family:DejaVu Sans;font-size:10px;font-stretch:normal;font-style:normal;font-weight:normal;text-anchor:start;" transform="rotate(-0, 324.998047, 287.552625)" x="324.998047" y="287.552625">Flexible working hours</text>
    </g>
    <g id="patch_57">
     <path d="M 296.998047 302.23075 
L 316.998047 302.23075 
L 316.998047 295.23075 
L 296.998047 295.23075 
z
" style="fill:#7f7f7f;"/>
    </g>
    <g id="text_64">
     <text style="font-family:DejaVu Sans;font-size:10px;font-stretch:normal;font-style:normal;font-weight:normal;text-anchor:start;" transform="rotate(-0, 324.998047, 302.23075)" x="324.998047" y="302.23075">Ability to work across disciplines</text>
    </g>
    <g id="patch_58">
     <path d="M 296.998047 316.908875 
L 316.998047 316.908875 
L 316.998047 309.908875 
L 296.998047 309.908875 
z
" style="fill:#bcbd22;"/>
    </g>
    <g id="text_65">
     <text style="font-family:DejaVu Sans;font-size:10px;font-stretch:normal;font-style:normal;font-weight:normal;text-anchor:start;" transform="rotate(-0, 324.998047, 316.908875)" x="324.998047" y="316.908875">The salary</text>
    </g>
   </g>
  </g>
 </g>
 <defs>
  <clipPath id="p0048e0167b">
   <rect height="200.31125" width="393.844531" x="65.998438" y="25.918125"/>
  </clipPath>
 </defs>
</svg>
