<?xml version="1.0" encoding="utf-8" standalone="no"?>
<!DOCTYPE svg PUBLIC "-//W3C//DTD SVG 1.1//EN"
  "http://www.w3.org/Graphics/SVG/1.1/DTD/svg11.dtd">
<svg height="360pt" version="1.1" viewBox="0 0 504 360" width="504pt" xmlns="http://www.w3.org/2000/svg" xmlns:xlink="http://www.w3.org/1999/xlink">
 <metadata>
  <rdf:RDF xmlns:cc="http://creativecommons.org/ns#" xmlns:dc="http://purl.org/dc/elements/1.1/" xmlns:rdf="http://www.w3.org/1999/02/22-rdf-syntax-ns#">
   <cc:Work>
    <dc:type rdf:resource="http://purl.org/dc/dcmitype/StillImage"/>
    <dc:date>2021-03-29T15:54:42.444980</dc:date>
    <dc:format>image/svg+xml</dc:format>
    <dc:creator>
     <cc:Agent>
      <dc:title>Matplotlib v3.4.0, https://matplotlib.org/</dc:title>
     </cc:Agent>
    </dc:creator>
   </cc:Work>
  </rdf:RDF>
 </metadata>
 <defs>
  <style type="text/css">*{stroke-linecap:butt;stroke-linejoin:round;}</style>
 </defs>
 <g id="figure_1">
  <g id="patch_1">
   <path d="M 0 360 
L 504 360 
L 504 0 
L 0 0 
z
" style="fill:#ffffff;"/>
  </g>
  <g id="axes_1">
   <g id="patch_2">
    <path d="M 65.998438 226.229375 
L 449.188281 226.229375 
L 449.188281 25.918125 
L 65.998438 25.918125 
z
" style="fill:#ffffff;"/>
   </g>
   <g id="patch_3">
    <path clip-path="url(#pba05bf810c)" d="M 65.998438 216.213813 
L 161.200883 216.213813 
L 161.200883 196.182688 
L 65.998438 196.182688 
z
" style="fill:#1f77b4;"/>
   </g>
   <g id="patch_4">
    <path clip-path="url(#pba05bf810c)" d="M 65.998438 176.151563 
L 97.732586 176.151563 
L 97.732586 156.120438 
L 65.998438 156.120438 
z
" style="fill:#1f77b4;"/>
   </g>
   <g id="patch_5">
    <path clip-path="url(#pba05bf810c)" d="M 65.998438 136.089313 
L 129.466735 136.089313 
L 129.466735 116.058188 
L 65.998438 116.058188 
z
" style="fill:#1f77b4;"/>
   </g>
   <g id="patch_6">
    <path clip-path="url(#pba05bf810c)" d="M 65.998438 96.027063 
L 113.59966 96.027063 
L 113.59966 75.995938 
L 65.998438 75.995938 
z
" style="fill:#1f77b4;"/>
   </g>
   <g id="patch_7">
    <path clip-path="url(#pba05bf810c)" d="M 65.998438 55.964813 
L 65.998438 55.964813 
L 65.998438 35.933688 
L 65.998438 35.933688 
z
" style="fill:#1f77b4;"/>
   </g>
   <g id="patch_8">
    <path clip-path="url(#pba05bf810c)" d="M 161.200883 216.213813 
L 224.66918 216.213813 
L 224.66918 196.182688 
L 161.200883 196.182688 
z
" style="fill:#ff7f0e;"/>
   </g>
   <g id="patch_9">
    <path clip-path="url(#pba05bf810c)" d="M 97.732586 176.151563 
L 129.466735 176.151563 
L 129.466735 156.120438 
L 97.732586 156.120438 
z
" style="fill:#ff7f0e;"/>
   </g>
   <g id="patch_10">
    <path clip-path="url(#pba05bf810c)" d="M 129.466735 136.089313 
L 161.200883 136.089313 
L 161.200883 116.058188 
L 129.466735 116.058188 
z
" style="fill:#ff7f0e;"/>
   </g>
   <g id="patch_11">
    <path clip-path="url(#pba05bf810c)" d="M 113.59966 96.027063 
L 129.466735 96.027063 
L 129.466735 75.995938 
L 113.59966 75.995938 
z
" style="fill:#ff7f0e;"/>
   </g>
   <g id="patch_12">
    <path clip-path="url(#pba05bf810c)" d="M 65.998438 55.964813 
L 81.865512 55.964813 
L 81.865512 35.933688 
L 65.998438 35.933688 
z
" style="fill:#ff7f0e;"/>
   </g>
   <g id="patch_13">
    <path clip-path="url(#pba05bf810c)" d="M 224.66918 216.213813 
L 272.270403 216.213813 
L 272.270403 196.182688 
L 224.66918 196.182688 
z
" style="fill:#2ca02c;"/>
   </g>
   <g id="patch_14">
    <path clip-path="url(#pba05bf810c)" d="M 129.466735 176.151563 
L 192.935032 176.151563 
L 192.935032 156.120438 
L 129.466735 156.120438 
z
" style="fill:#2ca02c;"/>
   </g>
   <g id="patch_15">
    <path clip-path="url(#pba05bf810c)" d="M 161.200883 136.089313 
L 272.270403 136.089313 
L 272.270403 116.058188 
L 161.200883 116.058188 
z
" style="fill:#2ca02c;"/>
   </g>
   <g id="patch_16">
    <path clip-path="url(#pba05bf810c)" d="M 129.466735 96.027063 
L 161.200883 96.027063 
L 161.200883 75.995938 
L 129.466735 75.995938 
z
" style="fill:#2ca02c;"/>
   </g>
   <g id="patch_17">
    <path clip-path="url(#pba05bf810c)" d="M 81.865512 55.964813 
L 113.59966 55.964813 
L 113.59966 35.933688 
L 81.865512 35.933688 
z
" style="fill:#2ca02c;"/>
   </g>
   <g id="patch_18">
    <path clip-path="url(#pba05bf810c)" d="M 272.270403 216.213813 
L 319.871626 216.213813 
L 319.871626 196.182688 
L 272.270403 196.182688 
z
" style="fill:#d62728;"/>
   </g>
   <g id="patch_19">
    <path clip-path="url(#pba05bf810c)" d="M 192.935032 176.151563 
L 224.66918 176.151563 
L 224.66918 156.120438 
L 192.935032 156.120438 
z
" style="fill:#d62728;"/>
   </g>
   <g id="patch_20">
    <path clip-path="url(#pba05bf810c)" d="M 272.270403 136.089313 
L 304.004552 136.089313 
L 304.004552 116.058188 
L 272.270403 116.058188 
z
" style="fill:#d62728;"/>
   </g>
   <g id="patch_21">
    <path clip-path="url(#pba05bf810c)" d="M 161.200883 96.027063 
L 192.935032 96.027063 
L 192.935032 75.995938 
L 161.200883 75.995938 
z
" style="fill:#d62728;"/>
   </g>
   <g id="patch_22">
    <path clip-path="url(#pba05bf810c)" d="M 113.59966 55.964813 
L 177.067957 55.964813 
L 177.067957 35.933688 
L 113.59966 35.933688 
z
" style="fill:#d62728;"/>
   </g>
   <g id="patch_23">
    <path clip-path="url(#pba05bf810c)" d="M 319.871626 216.213813 
L 351.605774 216.213813 
L 351.605774 196.182688 
L 319.871626 196.182688 
z
" style="fill:#9467bd;"/>
   </g>
   <g id="patch_24">
    <path clip-path="url(#pba05bf810c)" d="M 224.66918 176.151563 
L 288.137477 176.151563 
L 288.137477 156.120438 
L 224.66918 156.120438 
z
" style="fill:#9467bd;"/>
   </g>
   <g id="patch_25">
    <path clip-path="url(#pba05bf810c)" d="M 304.004552 136.089313 
L 319.871626 136.089313 
L 319.871626 116.058188 
L 304.004552 116.058188 
z
" style="fill:#9467bd;"/>
   </g>
   <g id="patch_26">
    <path clip-path="url(#pba05bf810c)" d="M 192.935032 96.027063 
L 224.66918 96.027063 
L 224.66918 75.995938 
L 192.935032 75.995938 
z
" style="fill:#9467bd;"/>
   </g>
   <g id="patch_27">
    <path clip-path="url(#pba05bf810c)" d="M 177.067957 55.964813 
L 224.66918 55.964813 
L 224.66918 35.933688 
L 177.067957 35.933688 
z
" style="fill:#9467bd;"/>
   </g>
   <g id="patch_28">
    <path clip-path="url(#pba05bf810c)" d="M 351.605774 216.213813 
L 383.339923 216.213813 
L 383.339923 196.182688 
L 351.605774 196.182688 
z
" style="fill:#8c564b;"/>
   </g>
   <g id="patch_29">
    <path clip-path="url(#pba05bf810c)" d="M 288.137477 176.151563 
L 319.871626 176.151563 
L 319.871626 156.120438 
L 288.137477 156.120438 
z
" style="fill:#8c564b;"/>
   </g>
   <g id="patch_30">
    <path clip-path="url(#pba05bf810c)" d="M 319.871626 136.089313 
L 351.605774 136.089313 
L 351.605774 116.058188 
L 319.871626 116.058188 
z
" style="fill:#8c564b;"/>
   </g>
   <g id="patch_31">
    <path clip-path="url(#pba05bf810c)" d="M 224.66918 96.027063 
L 272.270403 96.027063 
L 272.270403 75.995938 
L 224.66918 75.995938 
z
" style="fill:#8c564b;"/>
   </g>
   <g id="patch_32">
    <path clip-path="url(#pba05bf810c)" d="M 224.66918 55.964813 
L 288.137477 55.964813 
L 288.137477 35.933688 
L 224.66918 35.933688 
z
" style="fill:#8c564b;"/>
   </g>
   <g id="patch_33">
    <path clip-path="url(#pba05bf810c)" d="M 383.339923 216.213813 
L 415.074072 216.213813 
L 415.074072 196.182688 
L 383.339923 196.182688 
z
" style="fill:#e377c2;"/>
   </g>
   <g id="patch_34">
    <path clip-path="url(#pba05bf810c)" d="M 319.871626 176.151563 
L 367.472849 176.151563 
L 367.472849 156.120438 
L 319.871626 156.120438 
z
" style="fill:#e377c2;"/>
   </g>
   <g id="patch_35">
    <path clip-path="url(#pba05bf810c)" d="M 351.605774 136.089313 
L 383.339923 136.089313 
L 383.339923 116.058188 
L 351.605774 116.058188 
z
" style="fill:#e377c2;"/>
   </g>
   <g id="patch_36">
    <path clip-path="url(#pba05bf810c)" d="M 272.270403 96.027063 
L 288.137477 96.027063 
L 288.137477 75.995938 
L 272.270403 75.995938 
z
" style="fill:#e377c2;"/>
   </g>
   <g id="patch_37">
    <path clip-path="url(#pba05bf810c)" d="M 288.137477 55.964813 
L 319.871626 55.964813 
L 319.871626 35.933688 
L 288.137477 35.933688 
z
" style="fill:#e377c2;"/>
   </g>
   <g id="patch_38">
    <path clip-path="url(#pba05bf810c)" d="M 415.074072 216.213813 
L 430.941146 216.213813 
L 430.941146 196.182688 
L 415.074072 196.182688 
z
" style="fill:#7f7f7f;"/>
   </g>
   <g id="patch_39">
    <path clip-path="url(#pba05bf810c)" d="M 367.472849 176.151563 
L 383.339923 176.151563 
L 383.339923 156.120438 
L 367.472849 156.120438 
z
" style="fill:#7f7f7f;"/>
   </g>
   <g id="patch_40">
    <path clip-path="url(#pba05bf810c)" d="M 383.339923 136.089313 
L 430.941146 136.089313 
L 430.941146 116.058188 
L 383.339923 116.058188 
z
" style="fill:#7f7f7f;"/>
   </g>
   <g id="patch_41">
    <path clip-path="url(#pba05bf810c)" d="M 288.137477 96.027063 
L 319.871626 96.027063 
L 319.871626 75.995938 
L 288.137477 75.995938 
z
" style="fill:#7f7f7f;"/>
   </g>
   <g id="patch_42">
    <path clip-path="url(#pba05bf810c)" d="M 319.871626 55.964813 
L 351.605774 55.964813 
L 351.605774 35.933688 
L 319.871626 35.933688 
z
" style="fill:#7f7f7f;"/>
   </g>
   <g id="patch_43">
    <path clip-path="url(#pba05bf810c)" d="M 65.998438 216.213813 
L 65.998438 216.213813 
L 65.998438 196.182688 
L 65.998438 196.182688 
z
" style="fill:#bcbd22;"/>
   </g>
   <g id="patch_44">
    <path clip-path="url(#pba05bf810c)" d="M 383.339923 176.151563 
L 430.941146 176.151563 
L 430.941146 156.120438 
L 383.339923 156.120438 
z
" style="fill:#bcbd22;"/>
   </g>
   <g id="patch_45">
    <path clip-path="url(#pba05bf810c)" d="M 65.998438 136.089313 
L 65.998438 136.089313 
L 65.998438 116.058188 
L 65.998438 116.058188 
z
" style="fill:#bcbd22;"/>
   </g>
   <g id="patch_46">
    <path clip-path="url(#pba05bf810c)" d="M 319.871626 96.027063 
L 430.941146 96.027063 
L 430.941146 75.995938 
L 319.871626 75.995938 
z
" style="fill:#bcbd22;"/>
   </g>
   <g id="patch_47">
    <path clip-path="url(#pba05bf810c)" d="M 351.605774 55.964813 
L 430.941146 55.964813 
L 430.941146 35.933688 
L 351.605774 35.933688 
z
" style="fill:#bcbd22;"/>
   </g>
   <g id="matplotlib.axis_1">
    <g id="xtick_1">
     <g id="line2d_1">
      <defs>
       <path d="M 0 0 
L 0 3.5 
" id="mc3a356a46d" style="stroke:#000000;stroke-width:0.8;"/>
      </defs>
      <g>
       <use style="stroke:#000000;stroke-width:0.8;" x="65.998438" xlink:href="#mc3a356a46d" y="226.229375"/>
      </g>
     </g>
     <g id="text_1">
      <text style="font-family:DejaVu Sans;font-size:10px;font-stretch:normal;font-style:normal;font-weight:normal;text-anchor:middle;" transform="rotate(-0, 65.998438, 240.827812)" x="65.998438" y="240.827812">0</text>
     </g>
    </g>
    <g id="xtick_2">
     <g id="line2d_2">
      <g>
       <use style="stroke:#000000;stroke-width:0.8;" x="138.986979" xlink:href="#mc3a356a46d" y="226.229375"/>
      </g>
     </g>
     <g id="text_2">
      <text style="font-family:DejaVu Sans;font-size:10px;font-stretch:normal;font-style:normal;font-weight:normal;text-anchor:middle;" transform="rotate(-0, 138.986979, 240.827812)" x="138.986979" y="240.827812">20</text>
     </g>
    </g>
    <g id="xtick_3">
     <g id="line2d_3">
      <g>
       <use style="stroke:#000000;stroke-width:0.8;" x="211.975521" xlink:href="#mc3a356a46d" y="226.229375"/>
      </g>
     </g>
     <g id="text_3">
      <text style="font-family:DejaVu Sans;font-size:10px;font-stretch:normal;font-style:normal;font-weight:normal;text-anchor:middle;" transform="rotate(-0, 211.975521, 240.827812)" x="211.975521" y="240.827812">40</text>
     </g>
    </g>
    <g id="xtick_4">
     <g id="line2d_4">
      <g>
       <use style="stroke:#000000;stroke-width:0.8;" x="284.964063" xlink:href="#mc3a356a46d" y="226.229375"/>
      </g>
     </g>
     <g id="text_4">
      <text style="font-family:DejaVu Sans;font-size:10px;font-stretch:normal;font-style:normal;font-weight:normal;text-anchor:middle;" transform="rotate(-0, 284.964063, 240.827812)" x="284.964063" y="240.827812">60</text>
     </g>
    </g>
    <g id="xtick_5">
     <g id="line2d_5">
      <g>
       <use style="stroke:#000000;stroke-width:0.8;" x="357.952604" xlink:href="#mc3a356a46d" y="226.229375"/>
      </g>
     </g>
     <g id="text_5">
      <text style="font-family:DejaVu Sans;font-size:10px;font-stretch:normal;font-style:normal;font-weight:normal;text-anchor:middle;" transform="rotate(-0, 357.952604, 240.827812)" x="357.952604" y="240.827812">80</text>
     </g>
    </g>
    <g id="xtick_6">
     <g id="line2d_6">
      <g>
       <use style="stroke:#000000;stroke-width:0.8;" x="430.941146" xlink:href="#mc3a356a46d" y="226.229375"/>
      </g>
     </g>
     <g id="text_6">
      <text style="font-family:DejaVu Sans;font-size:10px;font-stretch:normal;font-style:normal;font-weight:normal;text-anchor:middle;" transform="rotate(-0, 430.941146, 240.827812)" x="430.941146" y="240.827812">100</text>
     </g>
    </g>
    <g id="text_7">
     <text style="font-family:DejaVu Sans;font-size:10px;font-stretch:normal;font-style:normal;font-weight:normal;text-anchor:middle;" transform="rotate(-0, 257.593359, 254.505938)" x="257.593359" y="254.505938">Ranking of importance</text>
    </g>
   </g>
   <g id="matplotlib.axis_2">
    <g id="ytick_1">
     <g id="line2d_7">
      <defs>
       <path d="M 0 0 
L -3.5 0 
" id="m82278324de" style="stroke:#000000;stroke-width:0.8;"/>
      </defs>
      <g>
       <use style="stroke:#000000;stroke-width:0.8;" x="65.998438" xlink:href="#m82278324de" y="206.19825"/>
      </g>
     </g>
     <g id="text_8">
      <text style="font-family:DejaVu Sans;font-size:10px;font-stretch:normal;font-style:normal;font-weight:normal;text-anchor:end;" transform="rotate(-0, 58.998438, 209.997469)" x="58.998438" y="209.997469">Rank 1</text>
     </g>
    </g>
    <g id="ytick_2">
     <g id="line2d_8">
      <g>
       <use style="stroke:#000000;stroke-width:0.8;" x="65.998438" xlink:href="#m82278324de" y="166.136"/>
      </g>
     </g>
     <g id="text_9">
      <text style="font-family:DejaVu Sans;font-size:10px;font-stretch:normal;font-style:normal;font-weight:normal;text-anchor:end;" transform="rotate(-0, 58.998438, 169.935219)" x="58.998438" y="169.935219">Rank 2</text>
     </g>
    </g>
    <g id="ytick_3">
     <g id="line2d_9">
      <g>
       <use style="stroke:#000000;stroke-width:0.8;" x="65.998438" xlink:href="#m82278324de" y="126.07375"/>
      </g>
     </g>
     <g id="text_10">
      <text style="font-family:DejaVu Sans;font-size:10px;font-stretch:normal;font-style:normal;font-weight:normal;text-anchor:end;" transform="rotate(-0, 58.998438, 129.872969)" x="58.998438" y="129.872969">Rank 3</text>
     </g>
    </g>
    <g id="ytick_4">
     <g id="line2d_10">
      <g>
       <use style="stroke:#000000;stroke-width:0.8;" x="65.998438" xlink:href="#m82278324de" y="86.0115"/>
      </g>
     </g>
     <g id="text_11">
      <text style="font-family:DejaVu Sans;font-size:10px;font-stretch:normal;font-style:normal;font-weight:normal;text-anchor:end;" transform="rotate(-0, 58.998438, 89.810719)" x="58.998438" y="89.810719">Rank 4</text>
     </g>
    </g>
    <g id="ytick_5">
     <g id="line2d_11">
      <g>
       <use style="stroke:#000000;stroke-width:0.8;" x="65.998438" xlink:href="#m82278324de" y="45.94925"/>
      </g>
     </g>
     <g id="text_12">
      <text style="font-family:DejaVu Sans;font-size:10px;font-stretch:normal;font-style:normal;font-weight:normal;text-anchor:end;" transform="rotate(-0, 58.998438, 49.748469)" x="58.998438" y="49.748469">Rank 5</text>
     </g>
    </g>
    <g id="text_13">
     <text style="font-family:DejaVu Sans;font-size:10px;font-stretch:normal;font-style:normal;font-weight:normal;text-anchor:middle;" transform="rotate(-90, 18.398438, 126.07375)" x="18.398438" y="126.07375">Percentage</text>
    </g>
   </g>
   <g id="patch_48">
    <path d="M 65.998438 226.229375 
L 449.188281 226.229375 
" style="fill:none;stroke:#000000;stroke-linecap:square;stroke-linejoin:miter;stroke-width:0.8;"/>
   </g>
   <g id="text_14">
    <text style="font-family:DejaVu Sans;font-size:10px;font-stretch:normal;font-style:normal;font-weight:normal;text-anchor:middle;" transform="rotate(-0, 113.59966, 210.204475)" x="113.59966" y="210.204475">26</text>
   </g>
   <g id="text_15">
    <text style="font-family:DejaVu Sans;font-size:10px;font-stretch:normal;font-style:normal;font-weight:normal;text-anchor:middle;" transform="rotate(-0, 81.865512, 170.142225)" x="81.865512" y="170.142225">9</text>
   </g>
   <g id="text_16">
    <text style="font-family:DejaVu Sans;font-size:10px;font-stretch:normal;font-style:normal;font-weight:normal;text-anchor:middle;" transform="rotate(-0, 97.732586, 130.079975)" x="97.732586" y="130.079975">17</text>
   </g>
   <g id="text_17">
    <text style="font-family:DejaVu Sans;font-size:10px;font-stretch:normal;font-style:normal;font-weight:normal;text-anchor:middle;" transform="rotate(-0, 89.799049, 90.017725)" x="89.799049" y="90.017725">13</text>
   </g>
   <g id="text_18">
    <text style="font-family:DejaVu Sans;font-size:10px;font-stretch:normal;font-style:normal;font-weight:normal;text-anchor:middle;" transform="rotate(-0, 192.935032, 210.204475)" x="192.935032" y="210.204475">17</text>
   </g>
   <g id="text_19">
    <text style="font-family:DejaVu Sans;font-size:10px;font-stretch:normal;font-style:normal;font-weight:normal;text-anchor:middle;" transform="rotate(-0, 113.59966, 170.142225)" x="113.59966" y="170.142225">9</text>
   </g>
   <g id="text_20">
    <text style="font-family:DejaVu Sans;font-size:10px;font-stretch:normal;font-style:normal;font-weight:normal;text-anchor:middle;" transform="rotate(-0, 145.333809, 130.079975)" x="145.333809" y="130.079975">9</text>
   </g>
   <g id="text_21">
    <text style="font-family:DejaVu Sans;font-size:10px;font-stretch:normal;font-style:normal;font-weight:normal;text-anchor:middle;" transform="rotate(-0, 248.469792, 210.204475)" x="248.469792" y="210.204475">13</text>
   </g>
   <g id="text_22">
    <text style="font-family:DejaVu Sans;font-size:10px;font-stretch:normal;font-style:normal;font-weight:normal;text-anchor:middle;" transform="rotate(-0, 161.200883, 170.142225)" x="161.200883" y="170.142225">17</text>
   </g>
   <g id="text_23">
    <text style="font-family:DejaVu Sans;font-size:10px;font-stretch:normal;font-style:normal;font-weight:normal;text-anchor:middle;" transform="rotate(-0, 216.735643, 130.079975)" x="216.735643" y="130.079975">30</text>
   </g>
   <g id="text_24">
    <text style="font-family:DejaVu Sans;font-size:10px;font-stretch:normal;font-style:normal;font-weight:normal;text-anchor:middle;" transform="rotate(-0, 145.333809, 90.017725)" x="145.333809" y="90.017725">9</text>
   </g>
   <g id="text_25">
    <text style="font-family:DejaVu Sans;font-size:10px;font-stretch:normal;font-style:normal;font-weight:normal;text-anchor:middle;" transform="rotate(-0, 97.732586, 49.955475)" x="97.732586" y="49.955475">9</text>
   </g>
   <g id="text_26">
    <text style="font-family:DejaVu Sans;font-size:10px;font-stretch:normal;font-style:normal;font-weight:normal;text-anchor:middle;" transform="rotate(-0, 296.071014, 210.204475)" x="296.071014" y="210.204475">13</text>
   </g>
   <g id="text_27">
    <text style="font-family:DejaVu Sans;font-size:10px;font-stretch:normal;font-style:normal;font-weight:normal;text-anchor:middle;" transform="rotate(-0, 208.802106, 170.142225)" x="208.802106" y="170.142225">9</text>
   </g>
   <g id="text_28">
    <text style="font-family:DejaVu Sans;font-size:10px;font-stretch:normal;font-style:normal;font-weight:normal;text-anchor:middle;" transform="rotate(-0, 288.137477, 130.079975)" x="288.137477" y="130.079975">9</text>
   </g>
   <g id="text_29">
    <text style="font-family:DejaVu Sans;font-size:10px;font-stretch:normal;font-style:normal;font-weight:normal;text-anchor:middle;" transform="rotate(-0, 177.067957, 90.017725)" x="177.067957" y="90.017725">9</text>
   </g>
   <g id="text_30">
    <text style="font-family:DejaVu Sans;font-size:10px;font-stretch:normal;font-style:normal;font-weight:normal;text-anchor:middle;" transform="rotate(-0, 145.333809, 49.955475)" x="145.333809" y="49.955475">17</text>
   </g>
   <g id="text_31">
    <text style="font-family:DejaVu Sans;font-size:10px;font-stretch:normal;font-style:normal;font-weight:normal;text-anchor:middle;" transform="rotate(-0, 335.7387, 210.204475)" x="335.7387" y="210.204475">9</text>
   </g>
   <g id="text_32">
    <text style="font-family:DejaVu Sans;font-size:10px;font-stretch:normal;font-style:normal;font-weight:normal;text-anchor:middle;" transform="rotate(-0, 256.403329, 170.142225)" x="256.403329" y="170.142225">17</text>
   </g>
   <g id="text_33">
    <text style="font-family:DejaVu Sans;font-size:10px;font-stretch:normal;font-style:normal;font-weight:normal;text-anchor:middle;" transform="rotate(-0, 208.802106, 90.017725)" x="208.802106" y="90.017725">9</text>
   </g>
   <g id="text_34">
    <text style="font-family:DejaVu Sans;font-size:10px;font-stretch:normal;font-style:normal;font-weight:normal;text-anchor:middle;" transform="rotate(-0, 200.868569, 49.955475)" x="200.868569" y="49.955475">13</text>
   </g>
   <g id="text_35">
    <text style="font-family:DejaVu Sans;font-size:10px;font-stretch:normal;font-style:normal;font-weight:normal;text-anchor:middle;" transform="rotate(-0, 367.472849, 210.204475)" x="367.472849" y="210.204475">9</text>
   </g>
   <g id="text_36">
    <text style="font-family:DejaVu Sans;font-size:10px;font-stretch:normal;font-style:normal;font-weight:normal;text-anchor:middle;" transform="rotate(-0, 304.004552, 170.142225)" x="304.004552" y="170.142225">9</text>
   </g>
   <g id="text_37">
    <text style="font-family:DejaVu Sans;font-size:10px;font-stretch:normal;font-style:normal;font-weight:normal;text-anchor:middle;" transform="rotate(-0, 335.7387, 130.079975)" x="335.7387" y="130.079975">9</text>
   </g>
   <g id="text_38">
    <text style="font-family:DejaVu Sans;font-size:10px;font-stretch:normal;font-style:normal;font-weight:normal;text-anchor:middle;" transform="rotate(-0, 248.469792, 90.017725)" x="248.469792" y="90.017725">13</text>
   </g>
   <g id="text_39">
    <text style="font-family:DejaVu Sans;font-size:10px;font-stretch:normal;font-style:normal;font-weight:normal;text-anchor:middle;" transform="rotate(-0, 256.403329, 49.955475)" x="256.403329" y="49.955475">17</text>
   </g>
   <g id="text_40">
    <text style="font-family:DejaVu Sans;font-size:10px;font-stretch:normal;font-style:normal;font-weight:normal;text-anchor:middle;" transform="rotate(-0, 399.206997, 210.204475)" x="399.206997" y="210.204475">9</text>
   </g>
   <g id="text_41">
    <text style="font-family:DejaVu Sans;font-size:10px;font-stretch:normal;font-style:normal;font-weight:normal;text-anchor:middle;" transform="rotate(-0, 343.672237, 170.142225)" x="343.672237" y="170.142225">13</text>
   </g>
   <g id="text_42">
    <text style="font-family:DejaVu Sans;font-size:10px;font-stretch:normal;font-style:normal;font-weight:normal;text-anchor:middle;" transform="rotate(-0, 367.472849, 130.079975)" x="367.472849" y="130.079975">9</text>
   </g>
   <g id="text_43">
    <text style="font-family:DejaVu Sans;font-size:10px;font-stretch:normal;font-style:normal;font-weight:normal;text-anchor:middle;" transform="rotate(-0, 304.004552, 49.955475)" x="304.004552" y="49.955475">9</text>
   </g>
   <g id="text_44">
    <text style="font-family:DejaVu Sans;font-size:10px;font-stretch:normal;font-style:normal;font-weight:normal;text-anchor:middle;" transform="rotate(-0, 407.140534, 130.079975)" x="407.140534" y="130.079975">13</text>
   </g>
   <g id="text_45">
    <text style="font-family:DejaVu Sans;font-size:10px;font-stretch:normal;font-style:normal;font-weight:normal;text-anchor:middle;" transform="rotate(-0, 304.004552, 90.017725)" x="304.004552" y="90.017725">9</text>
   </g>
   <g id="text_46">
    <text style="font-family:DejaVu Sans;font-size:10px;font-stretch:normal;font-style:normal;font-weight:normal;text-anchor:middle;" transform="rotate(-0, 335.7387, 49.955475)" x="335.7387" y="49.955475">9</text>
   </g>
   <g id="text_47">
    <text style="font-family:DejaVu Sans;font-size:10px;font-stretch:normal;font-style:normal;font-weight:normal;text-anchor:middle;" transform="rotate(-0, 407.140534, 170.142225)" x="407.140534" y="170.142225">13</text>
   </g>
   <g id="text_48">
    <text style="font-family:DejaVu Sans;font-size:10px;font-stretch:normal;font-style:normal;font-weight:normal;text-anchor:middle;" transform="rotate(-0, 375.406386, 90.017725)" x="375.406386" y="90.017725">30</text>
   </g>
   <g id="text_49">
    <text style="font-family:DejaVu Sans;font-size:10px;font-stretch:normal;font-style:normal;font-weight:normal;text-anchor:middle;" transform="rotate(-0, 391.27346, 49.955475)" x="391.27346" y="49.955475">22</text>
   </g>
   <g id="text_50">
    <text style="font-family:DejaVu Sans;font-size:12px;font-stretch:normal;font-style:normal;font-weight:normal;text-anchor:middle;" transform="rotate(-0, 257.593359, 19.918125)" x="257.593359" y="19.918125">Reasons to choose current job: South Africa</text>
   </g>
   <g id="legend_1">
    <g id="patch_49">
     <path d="M 20.281641 337.666687 
L 494.905078 337.666687 
Q 496.905078 337.666687 496.905078 335.666687 
L 496.905078 263.276062 
Q 496.905078 261.276062 494.905078 261.276062 
L 20.281641 261.276062 
Q 18.281641 261.276062 18.281641 263.276062 
L 18.281641 335.666687 
Q 18.281641 337.666687 20.281641 337.666687 
z
" style="fill:#ffffff;opacity:0.8;stroke:#cccccc;stroke-linejoin:miter;"/>
    </g>
    <g id="patch_50">
     <path d="M 22.281641 272.8745 
L 42.281641 272.8745 
L 42.281641 265.8745 
L 22.281641 265.8745 
z
" style="fill:#1f77b4;"/>
    </g>
    <g id="text_51">
     <text style="font-family:DejaVu Sans;font-size:10px;font-stretch:normal;font-style:normal;font-weight:normal;text-anchor:start;" transform="rotate(-0, 50.281641, 272.8745)" x="50.281641" y="272.8745">Desire to work in a research environment</text>
    </g>
    <g id="patch_51">
     <path d="M 22.281641 287.552625 
L 42.281641 287.552625 
L 42.281641 280.552625 
L 22.281641 280.552625 
z
" style="fill:#ff7f0e;"/>
    </g>
    <g id="text_52">
     <text style="font-family:DejaVu Sans;font-size:10px;font-stretch:normal;font-style:normal;font-weight:normal;text-anchor:start;" transform="rotate(-0, 50.281641, 287.552625)" x="50.281641" y="287.552625">Freedom to choose own working practices</text>
    </g>
    <g id="patch_52">
     <path d="M 22.281641 302.23075 
L 42.281641 302.23075 
L 42.281641 295.23075 
L 22.281641 295.23075 
z
" style="fill:#2ca02c;"/>
    </g>
    <g id="text_53">
     <text style="font-family:DejaVu Sans;font-size:10px;font-stretch:normal;font-style:normal;font-weight:normal;text-anchor:start;" transform="rotate(-0, 50.281641, 302.23075)" x="50.281641" y="302.23075">Desire to advance research</text>
    </g>
    <g id="patch_53">
     <path d="M 22.281641 316.908875 
L 42.281641 316.908875 
L 42.281641 309.908875 
L 22.281641 309.908875 
z
" style="fill:#d62728;"/>
    </g>
    <g id="text_54">
     <text style="font-family:DejaVu Sans;font-size:10px;font-stretch:normal;font-style:normal;font-weight:normal;text-anchor:start;" transform="rotate(-0, 50.281641, 316.908875)" x="50.281641" y="316.908875">I want to learn new skills</text>
    </g>
    <g id="patch_54">
     <path d="M 22.281641 331.587 
L 42.281641 331.587 
L 42.281641 324.587 
L 22.281641 324.587 
z
" style="fill:#9467bd;"/>
    </g>
    <g id="text_55">
     <text style="font-family:DejaVu Sans;font-size:10px;font-stretch:normal;font-style:normal;font-weight:normal;text-anchor:start;" transform="rotate(-0, 50.281641, 331.587)" x="50.281641" y="331.587">Flexible working hours</text>
    </g>
    <g id="patch_55">
     <path d="M 281.016016 272.8745 
L 301.016016 272.8745 
L 301.016016 265.8745 
L 281.016016 265.8745 
z
" style="fill:#8c564b;"/>
    </g>
    <g id="text_56">
     <text style="font-family:DejaVu Sans;font-size:10px;font-stretch:normal;font-style:normal;font-weight:normal;text-anchor:start;" transform="rotate(-0, 309.016016, 272.8745)" x="309.016016" y="272.8745">Opportunity for career advancement</text>
    </g>
    <g id="patch_56">
     <path d="M 281.016016 287.552625 
L 301.016016 287.552625 
L 301.016016 280.552625 
L 281.016016 280.552625 
z
" style="fill:#e377c2;"/>
    </g>
    <g id="text_57">
     <text style="font-family:DejaVu Sans;font-size:10px;font-stretch:normal;font-style:normal;font-weight:normal;text-anchor:start;" transform="rotate(-0, 309.016016, 287.552625)" x="309.016016" y="287.552625">The salary</text>
    </g>
    <g id="patch_57">
     <path d="M 281.016016 302.23075 
L 301.016016 302.23075 
L 301.016016 295.23075 
L 281.016016 295.23075 
z
" style="fill:#7f7f7f;"/>
    </g>
    <g id="text_58">
     <text style="font-family:DejaVu Sans;font-size:10px;font-stretch:normal;font-style:normal;font-weight:normal;text-anchor:start;" transform="rotate(-0, 309.016016, 302.23075)" x="309.016016" y="302.23075">Opportunity to develop software</text>
    </g>
    <g id="patch_58">
     <path d="M 281.016016 316.908875 
L 301.016016 316.908875 
L 301.016016 309.908875 
L 281.016016 309.908875 
z
" style="fill:#bcbd22;"/>
    </g>
    <g id="text_59">
     <text style="font-family:DejaVu Sans;font-size:10px;font-stretch:normal;font-style:normal;font-weight:normal;text-anchor:start;" transform="rotate(-0, 309.016016, 316.908875)" x="309.016016" y="316.908875">Ability to work across disciplines</text>
    </g>
   </g>
  </g>
 </g>
 <defs>
  <clipPath id="pba05bf810c">
   <rect height="200.31125" width="383.189844" x="65.998438" y="25.918125"/>
  </clipPath>
 </defs>
</svg>
