<?xml version="1.0" encoding="utf-8" standalone="no"?>
<!DOCTYPE svg PUBLIC "-//W3C//DTD SVG 1.1//EN"
  "http://www.w3.org/Graphics/SVG/1.1/DTD/svg11.dtd">
<svg xmlns:xlink="http://www.w3.org/1999/xlink" width="504pt" height="360pt" viewBox="0 0 504 360" xmlns="http://www.w3.org/2000/svg" version="1.1">
 <metadata>
  <rdf:RDF xmlns:dc="http://purl.org/dc/elements/1.1/" xmlns:cc="http://creativecommons.org/ns#" xmlns:rdf="http://www.w3.org/1999/02/22-rdf-syntax-ns#">
   <cc:Work>
    <dc:type rdf:resource="http://purl.org/dc/dcmitype/StillImage"/>
    <dc:date>2022-03-21T16:07:39.963954</dc:date>
    <dc:format>image/svg+xml</dc:format>
    <dc:creator>
     <cc:Agent>
      <dc:title>Matplotlib v3.5.1, https://matplotlib.org/</dc:title>
     </cc:Agent>
    </dc:creator>
   </cc:Work>
  </rdf:RDF>
 </metadata>
 <defs>
  <style type="text/css">*{stroke-linejoin: round; stroke-linecap: butt}</style>
 </defs>
 <g id="figure_1">
  <g id="patch_1">
   <path d="M 0 360 
L 504 360 
L 504 0 
L 0 0 
z
" style="fill: #ffffff"/>
  </g>
  <g id="axes_1">
   <g id="patch_2">
    <path d="M 62.86875 262.885212 
L 493.2 262.885212 
L 493.2 25.6425 
L 62.86875 25.6425 
z
" style="fill: #ffffff"/>
   </g>
   <g id="patch_3">
    <path d="M 62.86875 251.023077 
L 472.708036 251.023077 
L 472.708036 227.298805 
L 62.86875 227.298805 
z
" clip-path="url(#p1203ceea5e)" style="fill: #1f77b4"/>
   </g>
   <g id="patch_4">
    <path d="M 62.86875 203.574534 
L 62.86875 203.574534 
L 62.86875 179.850263 
L 62.86875 179.850263 
z
" clip-path="url(#p1203ceea5e)" style="fill: #1f77b4"/>
   </g>
   <g id="patch_5">
    <path d="M 62.86875 156.125992 
L 62.86875 156.125992 
L 62.86875 132.40172 
L 62.86875 132.40172 
z
" clip-path="url(#p1203ceea5e)" style="fill: #1f77b4"/>
   </g>
   <g id="patch_6">
    <path d="M 62.86875 108.677449 
L 62.86875 108.677449 
L 62.86875 84.953178 
L 62.86875 84.953178 
z
" clip-path="url(#p1203ceea5e)" style="fill: #1f77b4"/>
   </g>
   <g id="patch_7">
    <path d="M 62.86875 61.228907 
L 62.86875 61.228907 
L 62.86875 37.504636 
L 62.86875 37.504636 
z
" clip-path="url(#p1203ceea5e)" style="fill: #1f77b4"/>
   </g>
   <g id="patch_8">
    <path d="M 62.86875 251.023077 
L 62.86875 251.023077 
L 62.86875 227.298805 
L 62.86875 227.298805 
z
" clip-path="url(#p1203ceea5e)" style="fill: #ff7f0e"/>
   </g>
   <g id="patch_9">
    <path d="M 62.86875 203.574534 
L 62.86875 203.574534 
L 62.86875 179.850263 
L 62.86875 179.850263 
z
" clip-path="url(#p1203ceea5e)" style="fill: #ff7f0e"/>
   </g>
   <g id="patch_10">
    <path d="M 62.86875 156.125992 
L 62.86875 156.125992 
L 62.86875 132.40172 
L 62.86875 132.40172 
z
" clip-path="url(#p1203ceea5e)" style="fill: #ff7f0e"/>
   </g>
   <g id="patch_11">
    <path d="M 62.86875 108.677449 
L 267.788393 108.677449 
L 267.788393 84.953178 
L 62.86875 84.953178 
z
" clip-path="url(#p1203ceea5e)" style="fill: #ff7f0e"/>
   </g>
   <g id="patch_12">
    <path d="M 62.86875 61.228907 
L 267.788393 61.228907 
L 267.788393 37.504636 
L 62.86875 37.504636 
z
" clip-path="url(#p1203ceea5e)" style="fill: #ff7f0e"/>
   </g>
   <g id="patch_13">
    <path d="M 62.86875 251.023077 
L 62.86875 251.023077 
L 62.86875 227.298805 
L 62.86875 227.298805 
z
" clip-path="url(#p1203ceea5e)" style="fill: #2ca02c"/>
   </g>
   <g id="patch_14">
    <path d="M 62.86875 203.574534 
L 62.86875 203.574534 
L 62.86875 179.850263 
L 62.86875 179.850263 
z
" clip-path="url(#p1203ceea5e)" style="fill: #2ca02c"/>
   </g>
   <g id="patch_15">
    <path d="M 62.86875 156.125992 
L 62.86875 156.125992 
L 62.86875 132.40172 
L 62.86875 132.40172 
z
" clip-path="url(#p1203ceea5e)" style="fill: #2ca02c"/>
   </g>
   <g id="patch_16">
    <path d="M 267.788393 108.677449 
L 472.708036 108.677449 
L 472.708036 84.953178 
L 267.788393 84.953178 
z
" clip-path="url(#p1203ceea5e)" style="fill: #2ca02c"/>
   </g>
   <g id="patch_17">
    <path d="M 267.788393 61.228907 
L 472.708036 61.228907 
L 472.708036 37.504636 
L 267.788393 37.504636 
z
" clip-path="url(#p1203ceea5e)" style="fill: #2ca02c"/>
   </g>
   <g id="patch_18">
    <path d="M 62.86875 251.023077 
L 62.86875 251.023077 
L 62.86875 227.298805 
L 62.86875 227.298805 
z
" clip-path="url(#p1203ceea5e)" style="fill: #d62728"/>
   </g>
   <g id="patch_19">
    <path d="M 62.86875 203.574534 
L 62.86875 203.574534 
L 62.86875 179.850263 
L 62.86875 179.850263 
z
" clip-path="url(#p1203ceea5e)" style="fill: #d62728"/>
   </g>
   <g id="patch_20">
    <path d="M 62.86875 156.125992 
L 472.708036 156.125992 
L 472.708036 132.40172 
L 62.86875 132.40172 
z
" clip-path="url(#p1203ceea5e)" style="fill: #d62728"/>
   </g>
   <g id="patch_21">
    <path d="M 62.86875 108.677449 
L 62.86875 108.677449 
L 62.86875 84.953178 
L 62.86875 84.953178 
z
" clip-path="url(#p1203ceea5e)" style="fill: #d62728"/>
   </g>
   <g id="patch_22">
    <path d="M 62.86875 61.228907 
L 62.86875 61.228907 
L 62.86875 37.504636 
L 62.86875 37.504636 
z
" clip-path="url(#p1203ceea5e)" style="fill: #d62728"/>
   </g>
   <g id="patch_23">
    <path d="M 62.86875 251.023077 
L 62.86875 251.023077 
L 62.86875 227.298805 
L 62.86875 227.298805 
z
" clip-path="url(#p1203ceea5e)" style="fill: #9467bd"/>
   </g>
   <g id="patch_24">
    <path d="M 62.86875 203.574534 
L 472.708036 203.574534 
L 472.708036 179.850263 
L 62.86875 179.850263 
z
" clip-path="url(#p1203ceea5e)" style="fill: #9467bd"/>
   </g>
   <g id="patch_25">
    <path d="M 62.86875 156.125992 
L 62.86875 156.125992 
L 62.86875 132.40172 
L 62.86875 132.40172 
z
" clip-path="url(#p1203ceea5e)" style="fill: #9467bd"/>
   </g>
   <g id="patch_26">
    <path d="M 62.86875 108.677449 
L 62.86875 108.677449 
L 62.86875 84.953178 
L 62.86875 84.953178 
z
" clip-path="url(#p1203ceea5e)" style="fill: #9467bd"/>
   </g>
   <g id="patch_27">
    <path d="M 62.86875 61.228907 
L 62.86875 61.228907 
L 62.86875 37.504636 
L 62.86875 37.504636 
z
" clip-path="url(#p1203ceea5e)" style="fill: #9467bd"/>
   </g>
   <g id="matplotlib.axis_1">
    <g id="xtick_1">
     <g id="line2d_1">
      <defs>
       <path id="m4c99cd72f3" d="M 0 0 
L 0 3.5 
" style="stroke: #000000; stroke-width: 0.8"/>
      </defs>
      <g>
       <use xlink:href="#m4c99cd72f3" x="62.86875" y="262.885212" style="stroke: #000000; stroke-width: 0.8"/>
      </g>
     </g>
     <g id="text_1">
      <text style="font: 10px 'sans-serif'; text-anchor: middle" x="62.86875" y="277.05865" transform="rotate(-0, 62.86875, 277.05865)">0</text>
     </g>
    </g>
    <g id="xtick_2">
     <g id="line2d_2">
      <g>
       <use xlink:href="#m4c99cd72f3" x="144.836607" y="262.885212" style="stroke: #000000; stroke-width: 0.8"/>
      </g>
     </g>
     <g id="text_2">
      <text style="font: 10px 'sans-serif'; text-anchor: middle" x="144.836607" y="277.05865" transform="rotate(-0, 144.836607, 277.05865)">20</text>
     </g>
    </g>
    <g id="xtick_3">
     <g id="line2d_3">
      <g>
       <use xlink:href="#m4c99cd72f3" x="226.804464" y="262.885212" style="stroke: #000000; stroke-width: 0.8"/>
      </g>
     </g>
     <g id="text_3">
      <text style="font: 10px 'sans-serif'; text-anchor: middle" x="226.804464" y="277.05865" transform="rotate(-0, 226.804464, 277.05865)">40</text>
     </g>
    </g>
    <g id="xtick_4">
     <g id="line2d_4">
      <g>
       <use xlink:href="#m4c99cd72f3" x="308.772321" y="262.885212" style="stroke: #000000; stroke-width: 0.8"/>
      </g>
     </g>
     <g id="text_4">
      <text style="font: 10px 'sans-serif'; text-anchor: middle" x="308.772321" y="277.05865" transform="rotate(-0, 308.772321, 277.05865)">60</text>
     </g>
    </g>
    <g id="xtick_5">
     <g id="line2d_5">
      <g>
       <use xlink:href="#m4c99cd72f3" x="390.740179" y="262.885212" style="stroke: #000000; stroke-width: 0.8"/>
      </g>
     </g>
     <g id="text_5">
      <text style="font: 10px 'sans-serif'; text-anchor: middle" x="390.740179" y="277.05865" transform="rotate(-0, 390.740179, 277.05865)">80</text>
     </g>
    </g>
    <g id="xtick_6">
     <g id="line2d_6">
      <g>
       <use xlink:href="#m4c99cd72f3" x="472.708036" y="262.885212" style="stroke: #000000; stroke-width: 0.8"/>
      </g>
     </g>
     <g id="text_6">
      <text style="font: 10px 'sans-serif'; text-anchor: middle" x="472.708036" y="277.05865" transform="rotate(-0, 472.708036, 277.05865)">100</text>
     </g>
    </g>
    <g id="text_7">
     <text style="font: 10px 'sans-serif'; text-anchor: middle" x="278.034375" y="290.418025" transform="rotate(-0, 278.034375, 290.418025)">Ranking of importance</text>
    </g>
   </g>
   <g id="matplotlib.axis_2">
    <g id="ytick_1">
     <g id="line2d_7">
      <defs>
       <path id="m8e343aef83" d="M 0 0 
L -3.5 0 
" style="stroke: #000000; stroke-width: 0.8"/>
      </defs>
      <g>
       <use xlink:href="#m8e343aef83" x="62.86875" y="239.160941" style="stroke: #000000; stroke-width: 0.8"/>
      </g>
     </g>
     <g id="text_8">
      <text style="font: 10px 'sans-serif'; text-anchor: end" x="55.86875" y="242.74766" transform="rotate(-0, 55.86875, 242.74766)">Rank 1</text>
     </g>
    </g>
    <g id="ytick_2">
     <g id="line2d_8">
      <g>
       <use xlink:href="#m8e343aef83" x="62.86875" y="191.712398" style="stroke: #000000; stroke-width: 0.8"/>
      </g>
     </g>
     <g id="text_9">
      <text style="font: 10px 'sans-serif'; text-anchor: end" x="55.86875" y="195.299117" transform="rotate(-0, 55.86875, 195.299117)">Rank 2</text>
     </g>
    </g>
    <g id="ytick_3">
     <g id="line2d_9">
      <g>
       <use xlink:href="#m8e343aef83" x="62.86875" y="144.263856" style="stroke: #000000; stroke-width: 0.8"/>
      </g>
     </g>
     <g id="text_10">
      <text style="font: 10px 'sans-serif'; text-anchor: end" x="55.86875" y="147.850575" transform="rotate(-0, 55.86875, 147.850575)">Rank 3</text>
     </g>
    </g>
    <g id="ytick_4">
     <g id="line2d_10">
      <g>
       <use xlink:href="#m8e343aef83" x="62.86875" y="96.815314" style="stroke: #000000; stroke-width: 0.8"/>
      </g>
     </g>
     <g id="text_11">
      <text style="font: 10px 'sans-serif'; text-anchor: end" x="55.86875" y="100.402032" transform="rotate(-0, 55.86875, 100.402032)">Rank 4</text>
     </g>
    </g>
    <g id="ytick_5">
     <g id="line2d_11">
      <g>
       <use xlink:href="#m8e343aef83" x="62.86875" y="49.366771" style="stroke: #000000; stroke-width: 0.8"/>
      </g>
     </g>
     <g id="text_12">
      <text style="font: 10px 'sans-serif'; text-anchor: end" x="55.86875" y="52.95349" transform="rotate(-0, 55.86875, 52.95349)">Rank 5</text>
     </g>
    </g>
    <g id="text_13">
     <text style="font: 10px 'sans-serif'; text-anchor: middle" x="17.973438" y="144.263856" transform="rotate(-90, 17.973438, 144.263856)">Percentage</text>
    </g>
   </g>
   <g id="patch_28">
    <path d="M 62.86875 262.885212 
L 493.2 262.885212 
" style="fill: none; stroke: #000000; stroke-width: 0.8; stroke-linejoin: miter; stroke-linecap: square"/>
   </g>
   <g id="text_14">
    <text style="font: 10px 'sans-serif'; text-anchor: middle" x="267.788393" y="243.905795" transform="rotate(-0, 267.788393, 243.905795)">100</text>
   </g>
   <g id="text_15">
    <text style="font: 10px 'sans-serif'; text-anchor: middle" x="165.328571" y="101.560168" transform="rotate(-0, 165.328571, 101.560168)">50</text>
   </g>
   <g id="text_16">
    <text style="font: 10px 'sans-serif'; text-anchor: middle" x="165.328571" y="54.111625" transform="rotate(-0, 165.328571, 54.111625)">50</text>
   </g>
   <g id="text_17">
    <text style="font: 10px 'sans-serif'; text-anchor: middle" x="370.248214" y="101.560168" transform="rotate(-0, 370.248214, 101.560168)">50</text>
   </g>
   <g id="text_18">
    <text style="font: 10px 'sans-serif'; text-anchor: middle" x="370.248214" y="54.111625" transform="rotate(-0, 370.248214, 54.111625)">50</text>
   </g>
   <g id="text_19">
    <text style="font: 10px 'sans-serif'; text-anchor: middle" x="267.788393" y="149.00871" transform="rotate(-0, 267.788393, 149.00871)">100</text>
   </g>
   <g id="text_20">
    <text style="font: 10px 'sans-serif'; text-anchor: middle" x="267.788393" y="196.457253" transform="rotate(-0, 267.788393, 196.457253)">100</text>
   </g>
   <g id="text_21">
    <text style="font: 12px 'sans-serif'; text-anchor: middle" x="278.034375" y="19.6425" transform="rotate(-0, 278.034375, 19.6425)">Reasons to choose current job: South Africa</text>
   </g>
   <g id="legend_1">
    <g id="patch_29">
     <path d="M 66.855469 349.523181 
L 489.213281 349.523181 
Q 491.213281 349.523181 491.213281 347.523181 
L 491.213281 305.471619 
Q 491.213281 303.471619 489.213281 303.471619 
L 66.855469 303.471619 
Q 64.855469 303.471619 64.855469 305.471619 
L 64.855469 347.523181 
Q 64.855469 349.523181 66.855469 349.523181 
z
" style="fill: #ffffff; opacity: 0.8; stroke: #cccccc; stroke-linejoin: miter"/>
    </g>
    <g id="patch_30">
     <path d="M 68.855469 314.840369 
L 88.855469 314.840369 
L 88.855469 307.840369 
L 68.855469 307.840369 
z
" style="fill: #1f77b4"/>
    </g>
    <g id="text_22">
     <text style="font: 10px 'sans-serif'; text-anchor: start" x="96.855469" y="314.840369" transform="rotate(-0, 96.855469, 314.840369)">I want to learn new skills</text>
    </g>
    <g id="patch_31">
     <path d="M 68.855469 329.121619 
L 88.855469 329.121619 
L 88.855469 322.121619 
L 68.855469 322.121619 
z
" style="fill: #ff7f0e"/>
    </g>
    <g id="text_23">
     <text style="font: 10px 'sans-serif'; text-anchor: start" x="96.855469" y="329.121619" transform="rotate(-0, 96.855469, 329.121619)">Ability to work across disciplines</text>
    </g>
    <g id="patch_32">
     <path d="M 68.855469 343.438806 
L 88.855469 343.438806 
L 88.855469 336.438806 
L 68.855469 336.438806 
z
" style="fill: #2ca02c"/>
    </g>
    <g id="text_24">
     <text style="font: 10px 'sans-serif'; text-anchor: start" x="96.855469" y="343.438806" transform="rotate(-0, 96.855469, 343.438806)">Desire to work in a research environment</text>
    </g>
    <g id="patch_33">
     <path d="M 299.142969 314.840369 
L 319.142969 314.840369 
L 319.142969 307.840369 
L 299.142969 307.840369 
z
" style="fill: #d62728"/>
    </g>
    <g id="text_25">
     <text style="font: 10px 'sans-serif'; text-anchor: start" x="327.142969" y="314.840369" transform="rotate(-0, 327.142969, 314.840369)">Opportunity for career advancement</text>
    </g>
    <g id="patch_34">
     <path d="M 299.142969 329.352869 
L 319.142969 329.352869 
L 319.142969 322.352869 
L 299.142969 322.352869 
z
" style="fill: #9467bd"/>
    </g>
    <g id="text_26">
     <text style="font: 10px 'sans-serif'; text-anchor: start" x="327.142969" y="329.352869" transform="rotate(-0, 327.142969, 329.352869)">Opportunity to develop software</text>
    </g>
   </g>
  </g>
 </g>
 <defs>
  <clipPath id="p1203ceea5e">
   <rect x="62.86875" y="25.6425" width="430.33125" height="237.242712"/>
  </clipPath>
 </defs>
</svg>
