<?xml version="1.0" encoding="utf-8" standalone="no"?>
<!DOCTYPE svg PUBLIC "-//W3C//DTD SVG 1.1//EN"
  "http://www.w3.org/Graphics/SVG/1.1/DTD/svg11.dtd">
<svg height="360pt" version="1.1" viewBox="0 0 504 360" width="504pt" xmlns="http://www.w3.org/2000/svg" xmlns:xlink="http://www.w3.org/1999/xlink">
 <metadata>
  <rdf:RDF xmlns:cc="http://creativecommons.org/ns#" xmlns:dc="http://purl.org/dc/elements/1.1/" xmlns:rdf="http://www.w3.org/1999/02/22-rdf-syntax-ns#">
   <cc:Work>
    <dc:type rdf:resource="http://purl.org/dc/dcmitype/StillImage"/>
    <dc:date>2021-03-29T15:54:47.994870</dc:date>
    <dc:format>image/svg+xml</dc:format>
    <dc:creator>
     <cc:Agent>
      <dc:title>Matplotlib v3.4.0, https://matplotlib.org/</dc:title>
     </cc:Agent>
    </dc:creator>
   </cc:Work>
  </rdf:RDF>
 </metadata>
 <defs>
  <style type="text/css">*{stroke-linecap:butt;stroke-linejoin:round;}</style>
 </defs>
 <g id="figure_1">
  <g id="patch_1">
   <path d="M 0 360 
L 504 360 
L 504 0 
L 0 0 
z
" style="fill:#ffffff;"/>
  </g>
  <g id="axes_1">
   <g id="patch_2">
    <path d="M 65.998438 226.229375 
L 449.188281 226.229375 
L 449.188281 25.918125 
L 65.998438 25.918125 
z
" style="fill:#ffffff;"/>
   </g>
   <g id="patch_3">
    <path clip-path="url(#pba05bf810c)" d="M 65.998438 216.213813 
L 175.48125 216.213813 
L 175.48125 196.182688 
L 65.998438 196.182688 
z
" style="fill:#1f77b4;"/>
   </g>
   <g id="patch_4">
    <path clip-path="url(#pba05bf810c)" d="M 65.998438 176.151563 
L 117.090417 176.151563 
L 117.090417 156.120438 
L 65.998438 156.120438 
z
" style="fill:#1f77b4;"/>
   </g>
   <g id="patch_5">
    <path clip-path="url(#pba05bf810c)" d="M 65.998438 136.089313 
L 87.895 136.089313 
L 87.895 116.058188 
L 65.998438 116.058188 
z
" style="fill:#1f77b4;"/>
   </g>
   <g id="patch_6">
    <path clip-path="url(#pba05bf810c)" d="M 65.998438 96.027063 
L 102.492708 96.027063 
L 102.492708 75.995938 
L 65.998438 75.995938 
z
" style="fill:#1f77b4;"/>
   </g>
   <g id="patch_7">
    <path clip-path="url(#pba05bf810c)" d="M 65.998438 55.964813 
L 87.895 55.964813 
L 87.895 35.933688 
L 65.998438 35.933688 
z
" style="fill:#1f77b4;"/>
   </g>
   <g id="patch_8">
    <path clip-path="url(#pba05bf810c)" d="M 175.48125 216.213813 
L 255.768646 216.213813 
L 255.768646 196.182688 
L 175.48125 196.182688 
z
" style="fill:#ff7f0e;"/>
   </g>
   <g id="patch_9">
    <path clip-path="url(#pba05bf810c)" d="M 117.090417 176.151563 
L 153.584688 176.151563 
L 153.584688 156.120438 
L 117.090417 156.120438 
z
" style="fill:#ff7f0e;"/>
   </g>
   <g id="patch_10">
    <path clip-path="url(#pba05bf810c)" d="M 87.895 136.089313 
L 131.688125 136.089313 
L 131.688125 116.058188 
L 87.895 116.058188 
z
" style="fill:#ff7f0e;"/>
   </g>
   <g id="patch_11">
    <path clip-path="url(#pba05bf810c)" d="M 102.492708 96.027063 
L 138.986979 96.027063 
L 138.986979 75.995938 
L 102.492708 75.995938 
z
" style="fill:#ff7f0e;"/>
   </g>
   <g id="patch_12">
    <path clip-path="url(#pba05bf810c)" d="M 87.895 55.964813 
L 117.090417 55.964813 
L 117.090417 35.933688 
L 87.895 35.933688 
z
" style="fill:#ff7f0e;"/>
   </g>
   <g id="patch_13">
    <path clip-path="url(#pba05bf810c)" d="M 255.768646 216.213813 
L 321.458333 216.213813 
L 321.458333 196.182688 
L 255.768646 196.182688 
z
" style="fill:#2ca02c;"/>
   </g>
   <g id="patch_14">
    <path clip-path="url(#pba05bf810c)" d="M 153.584688 176.151563 
L 241.170938 176.151563 
L 241.170938 156.120438 
L 153.584688 156.120438 
z
" style="fill:#2ca02c;"/>
   </g>
   <g id="patch_15">
    <path clip-path="url(#pba05bf810c)" d="M 131.688125 136.089313 
L 190.078958 136.089313 
L 190.078958 116.058188 
L 131.688125 116.058188 
z
" style="fill:#2ca02c;"/>
   </g>
   <g id="patch_16">
    <path clip-path="url(#pba05bf810c)" d="M 138.986979 96.027063 
L 182.780104 96.027063 
L 182.780104 75.995938 
L 138.986979 75.995938 
z
" style="fill:#2ca02c;"/>
   </g>
   <g id="patch_17">
    <path clip-path="url(#pba05bf810c)" d="M 117.090417 55.964813 
L 153.584688 55.964813 
L 153.584688 35.933688 
L 117.090417 35.933688 
z
" style="fill:#2ca02c;"/>
   </g>
   <g id="patch_18">
    <path clip-path="url(#pba05bf810c)" d="M 321.458333 216.213813 
L 350.65375 216.213813 
L 350.65375 196.182688 
L 321.458333 196.182688 
z
" style="fill:#d62728;"/>
   </g>
   <g id="patch_19">
    <path clip-path="url(#pba05bf810c)" d="M 241.170938 176.151563 
L 284.964063 176.151563 
L 284.964063 156.120438 
L 241.170938 156.120438 
z
" style="fill:#d62728;"/>
   </g>
   <g id="patch_20">
    <path clip-path="url(#pba05bf810c)" d="M 190.078958 136.089313 
L 233.872083 136.089313 
L 233.872083 116.058188 
L 190.078958 116.058188 
z
" style="fill:#d62728;"/>
   </g>
   <g id="patch_21">
    <path clip-path="url(#pba05bf810c)" d="M 182.780104 96.027063 
L 233.872083 96.027063 
L 233.872083 75.995938 
L 182.780104 75.995938 
z
" style="fill:#d62728;"/>
   </g>
   <g id="patch_22">
    <path clip-path="url(#pba05bf810c)" d="M 153.584688 55.964813 
L 211.975521 55.964813 
L 211.975521 35.933688 
L 153.584688 35.933688 
z
" style="fill:#d62728;"/>
   </g>
   <g id="patch_23">
    <path clip-path="url(#pba05bf810c)" d="M 350.65375 216.213813 
L 372.550313 216.213813 
L 372.550313 196.182688 
L 350.65375 196.182688 
z
" style="fill:#9467bd;"/>
   </g>
   <g id="patch_24">
    <path clip-path="url(#pba05bf810c)" d="M 284.964063 176.151563 
L 299.561771 176.151563 
L 299.561771 156.120438 
L 284.964063 156.120438 
z
" style="fill:#9467bd;"/>
   </g>
   <g id="patch_25">
    <path clip-path="url(#pba05bf810c)" d="M 233.872083 136.089313 
L 284.964063 136.089313 
L 284.964063 116.058188 
L 233.872083 116.058188 
z
" style="fill:#9467bd;"/>
   </g>
   <g id="patch_26">
    <path clip-path="url(#pba05bf810c)" d="M 233.872083 96.027063 
L 284.964063 96.027063 
L 284.964063 75.995938 
L 233.872083 75.995938 
z
" style="fill:#9467bd;"/>
   </g>
   <g id="patch_27">
    <path clip-path="url(#pba05bf810c)" d="M 211.975521 55.964813 
L 277.665208 55.964813 
L 277.665208 35.933688 
L 211.975521 35.933688 
z
" style="fill:#9467bd;"/>
   </g>
   <g id="patch_28">
    <path clip-path="url(#pba05bf810c)" d="M 372.550313 216.213813 
L 394.446875 216.213813 
L 394.446875 196.182688 
L 372.550313 196.182688 
z
" style="fill:#8c564b;"/>
   </g>
   <g id="patch_29">
    <path clip-path="url(#pba05bf810c)" d="M 299.561771 176.151563 
L 336.056042 176.151563 
L 336.056042 156.120438 
L 299.561771 156.120438 
z
" style="fill:#8c564b;"/>
   </g>
   <g id="patch_30">
    <path clip-path="url(#pba05bf810c)" d="M 284.964063 136.089313 
L 299.561771 136.089313 
L 299.561771 116.058188 
L 284.964063 116.058188 
z
" style="fill:#8c564b;"/>
   </g>
   <g id="patch_31">
    <path clip-path="url(#pba05bf810c)" d="M 284.964063 96.027063 
L 299.561771 96.027063 
L 299.561771 75.995938 
L 284.964063 75.995938 
z
" style="fill:#8c564b;"/>
   </g>
   <g id="patch_32">
    <path clip-path="url(#pba05bf810c)" d="M 277.665208 55.964813 
L 306.860625 55.964813 
L 306.860625 35.933688 
L 277.665208 35.933688 
z
" style="fill:#8c564b;"/>
   </g>
   <g id="patch_33">
    <path clip-path="url(#pba05bf810c)" d="M 394.446875 216.213813 
L 416.343438 216.213813 
L 416.343438 196.182688 
L 394.446875 196.182688 
z
" style="fill:#e377c2;"/>
   </g>
   <g id="patch_34">
    <path clip-path="url(#pba05bf810c)" d="M 336.056042 176.151563 
L 394.446875 176.151563 
L 394.446875 156.120438 
L 336.056042 156.120438 
z
" style="fill:#e377c2;"/>
   </g>
   <g id="patch_35">
    <path clip-path="url(#pba05bf810c)" d="M 299.561771 136.089313 
L 328.757188 136.089313 
L 328.757188 116.058188 
L 299.561771 116.058188 
z
" style="fill:#e377c2;"/>
   </g>
   <g id="patch_36">
    <path clip-path="url(#pba05bf810c)" d="M 299.561771 96.027063 
L 357.952604 96.027063 
L 357.952604 75.995938 
L 299.561771 75.995938 
z
" style="fill:#e377c2;"/>
   </g>
   <g id="patch_37">
    <path clip-path="url(#pba05bf810c)" d="M 306.860625 55.964813 
L 343.354896 55.964813 
L 343.354896 35.933688 
L 306.860625 35.933688 
z
" style="fill:#e377c2;"/>
   </g>
   <g id="patch_38">
    <path clip-path="url(#pba05bf810c)" d="M 416.343438 216.213813 
L 430.941146 216.213813 
L 430.941146 196.182688 
L 416.343438 196.182688 
z
" style="fill:#7f7f7f;"/>
   </g>
   <g id="patch_39">
    <path clip-path="url(#pba05bf810c)" d="M 394.446875 176.151563 
L 409.044583 176.151563 
L 409.044583 156.120438 
L 394.446875 156.120438 
z
" style="fill:#7f7f7f;"/>
   </g>
   <g id="patch_40">
    <path clip-path="url(#pba05bf810c)" d="M 328.757188 136.089313 
L 357.952604 136.089313 
L 357.952604 116.058188 
L 328.757188 116.058188 
z
" style="fill:#7f7f7f;"/>
   </g>
   <g id="patch_41">
    <path clip-path="url(#pba05bf810c)" d="M 357.952604 96.027063 
L 379.849167 96.027063 
L 379.849167 75.995938 
L 357.952604 75.995938 
z
" style="fill:#7f7f7f;"/>
   </g>
   <g id="patch_42">
    <path clip-path="url(#pba05bf810c)" d="M 343.354896 55.964813 
L 387.148021 55.964813 
L 387.148021 35.933688 
L 343.354896 35.933688 
z
" style="fill:#7f7f7f;"/>
   </g>
   <g id="patch_43">
    <path clip-path="url(#pba05bf810c)" d="M 65.998438 216.213813 
L 65.998438 216.213813 
L 65.998438 196.182688 
L 65.998438 196.182688 
z
" style="fill:#bcbd22;"/>
   </g>
   <g id="patch_44">
    <path clip-path="url(#pba05bf810c)" d="M 409.044583 176.151563 
L 430.941146 176.151563 
L 430.941146 156.120438 
L 409.044583 156.120438 
z
" style="fill:#bcbd22;"/>
   </g>
   <g id="patch_45">
    <path clip-path="url(#pba05bf810c)" d="M 357.952604 136.089313 
L 430.941146 136.089313 
L 430.941146 116.058188 
L 357.952604 116.058188 
z
" style="fill:#bcbd22;"/>
   </g>
   <g id="patch_46">
    <path clip-path="url(#pba05bf810c)" d="M 379.849167 96.027063 
L 430.941146 96.027063 
L 430.941146 75.995938 
L 379.849167 75.995938 
z
" style="fill:#bcbd22;"/>
   </g>
   <g id="patch_47">
    <path clip-path="url(#pba05bf810c)" d="M 387.148021 55.964813 
L 430.941146 55.964813 
L 430.941146 35.933688 
L 387.148021 35.933688 
z
" style="fill:#bcbd22;"/>
   </g>
   <g id="matplotlib.axis_1">
    <g id="xtick_1">
     <g id="line2d_1">
      <defs>
       <path d="M 0 0 
L 0 3.5 
" id="mc3a356a46d" style="stroke:#000000;stroke-width:0.8;"/>
      </defs>
      <g>
       <use style="stroke:#000000;stroke-width:0.8;" x="65.998438" xlink:href="#mc3a356a46d" y="226.229375"/>
      </g>
     </g>
     <g id="text_1">
      <text style="font-family:DejaVu Sans;font-size:10px;font-stretch:normal;font-style:normal;font-weight:normal;text-anchor:middle;" transform="rotate(-0, 65.998438, 240.827812)" x="65.998438" y="240.827812">0</text>
     </g>
    </g>
    <g id="xtick_2">
     <g id="line2d_2">
      <g>
       <use style="stroke:#000000;stroke-width:0.8;" x="138.986979" xlink:href="#mc3a356a46d" y="226.229375"/>
      </g>
     </g>
     <g id="text_2">
      <text style="font-family:DejaVu Sans;font-size:10px;font-stretch:normal;font-style:normal;font-weight:normal;text-anchor:middle;" transform="rotate(-0, 138.986979, 240.827812)" x="138.986979" y="240.827812">20</text>
     </g>
    </g>
    <g id="xtick_3">
     <g id="line2d_3">
      <g>
       <use style="stroke:#000000;stroke-width:0.8;" x="211.975521" xlink:href="#mc3a356a46d" y="226.229375"/>
      </g>
     </g>
     <g id="text_3">
      <text style="font-family:DejaVu Sans;font-size:10px;font-stretch:normal;font-style:normal;font-weight:normal;text-anchor:middle;" transform="rotate(-0, 211.975521, 240.827812)" x="211.975521" y="240.827812">40</text>
     </g>
    </g>
    <g id="xtick_4">
     <g id="line2d_4">
      <g>
       <use style="stroke:#000000;stroke-width:0.8;" x="284.964063" xlink:href="#mc3a356a46d" y="226.229375"/>
      </g>
     </g>
     <g id="text_4">
      <text style="font-family:DejaVu Sans;font-size:10px;font-stretch:normal;font-style:normal;font-weight:normal;text-anchor:middle;" transform="rotate(-0, 284.964063, 240.827812)" x="284.964063" y="240.827812">60</text>
     </g>
    </g>
    <g id="xtick_5">
     <g id="line2d_5">
      <g>
       <use style="stroke:#000000;stroke-width:0.8;" x="357.952604" xlink:href="#mc3a356a46d" y="226.229375"/>
      </g>
     </g>
     <g id="text_5">
      <text style="font-family:DejaVu Sans;font-size:10px;font-stretch:normal;font-style:normal;font-weight:normal;text-anchor:middle;" transform="rotate(-0, 357.952604, 240.827812)" x="357.952604" y="240.827812">80</text>
     </g>
    </g>
    <g id="xtick_6">
     <g id="line2d_6">
      <g>
       <use style="stroke:#000000;stroke-width:0.8;" x="430.941146" xlink:href="#mc3a356a46d" y="226.229375"/>
      </g>
     </g>
     <g id="text_6">
      <text style="font-family:DejaVu Sans;font-size:10px;font-stretch:normal;font-style:normal;font-weight:normal;text-anchor:middle;" transform="rotate(-0, 430.941146, 240.827812)" x="430.941146" y="240.827812">100</text>
     </g>
    </g>
    <g id="text_7">
     <text style="font-family:DejaVu Sans;font-size:10px;font-stretch:normal;font-style:normal;font-weight:normal;text-anchor:middle;" transform="rotate(-0, 257.593359, 254.505938)" x="257.593359" y="254.505938">Ranking of importance</text>
    </g>
   </g>
   <g id="matplotlib.axis_2">
    <g id="ytick_1">
     <g id="line2d_7">
      <defs>
       <path d="M 0 0 
L -3.5 0 
" id="m82278324de" style="stroke:#000000;stroke-width:0.8;"/>
      </defs>
      <g>
       <use style="stroke:#000000;stroke-width:0.8;" x="65.998438" xlink:href="#m82278324de" y="206.19825"/>
      </g>
     </g>
     <g id="text_8">
      <text style="font-family:DejaVu Sans;font-size:10px;font-stretch:normal;font-style:normal;font-weight:normal;text-anchor:end;" transform="rotate(-0, 58.998438, 209.997469)" x="58.998438" y="209.997469">Rank 1</text>
     </g>
    </g>
    <g id="ytick_2">
     <g id="line2d_8">
      <g>
       <use style="stroke:#000000;stroke-width:0.8;" x="65.998438" xlink:href="#m82278324de" y="166.136"/>
      </g>
     </g>
     <g id="text_9">
      <text style="font-family:DejaVu Sans;font-size:10px;font-stretch:normal;font-style:normal;font-weight:normal;text-anchor:end;" transform="rotate(-0, 58.998438, 169.935219)" x="58.998438" y="169.935219">Rank 2</text>
     </g>
    </g>
    <g id="ytick_3">
     <g id="line2d_9">
      <g>
       <use style="stroke:#000000;stroke-width:0.8;" x="65.998438" xlink:href="#m82278324de" y="126.07375"/>
      </g>
     </g>
     <g id="text_10">
      <text style="font-family:DejaVu Sans;font-size:10px;font-stretch:normal;font-style:normal;font-weight:normal;text-anchor:end;" transform="rotate(-0, 58.998438, 129.872969)" x="58.998438" y="129.872969">Rank 3</text>
     </g>
    </g>
    <g id="ytick_4">
     <g id="line2d_10">
      <g>
       <use style="stroke:#000000;stroke-width:0.8;" x="65.998438" xlink:href="#m82278324de" y="86.0115"/>
      </g>
     </g>
     <g id="text_11">
      <text style="font-family:DejaVu Sans;font-size:10px;font-stretch:normal;font-style:normal;font-weight:normal;text-anchor:end;" transform="rotate(-0, 58.998438, 89.810719)" x="58.998438" y="89.810719">Rank 4</text>
     </g>
    </g>
    <g id="ytick_5">
     <g id="line2d_11">
      <g>
       <use style="stroke:#000000;stroke-width:0.8;" x="65.998438" xlink:href="#m82278324de" y="45.94925"/>
      </g>
     </g>
     <g id="text_12">
      <text style="font-family:DejaVu Sans;font-size:10px;font-stretch:normal;font-style:normal;font-weight:normal;text-anchor:end;" transform="rotate(-0, 58.998438, 49.748469)" x="58.998438" y="49.748469">Rank 5</text>
     </g>
    </g>
    <g id="text_13">
     <text style="font-family:DejaVu Sans;font-size:10px;font-stretch:normal;font-style:normal;font-weight:normal;text-anchor:middle;" transform="rotate(-90, 18.398438, 126.07375)" x="18.398438" y="126.07375">Percentage</text>
    </g>
   </g>
   <g id="patch_48">
    <path d="M 65.998438 226.229375 
L 449.188281 226.229375 
" style="fill:none;stroke:#000000;stroke-linecap:square;stroke-linejoin:miter;stroke-width:0.8;"/>
   </g>
   <g id="text_14">
    <text style="font-family:DejaVu Sans;font-size:10px;font-stretch:normal;font-style:normal;font-weight:normal;text-anchor:middle;" transform="rotate(-0, 120.739844, 210.204475)" x="120.739844" y="210.204475">30</text>
   </g>
   <g id="text_15">
    <text style="font-family:DejaVu Sans;font-size:10px;font-stretch:normal;font-style:normal;font-weight:normal;text-anchor:middle;" transform="rotate(-0, 91.544427, 170.142225)" x="91.544427" y="170.142225">14</text>
   </g>
   <g id="text_16">
    <text style="font-family:DejaVu Sans;font-size:10px;font-stretch:normal;font-style:normal;font-weight:normal;text-anchor:middle;" transform="rotate(-0, 76.946719, 130.079975)" x="76.946719" y="130.079975">6</text>
   </g>
   <g id="text_17">
    <text style="font-family:DejaVu Sans;font-size:10px;font-stretch:normal;font-style:normal;font-weight:normal;text-anchor:middle;" transform="rotate(-0, 84.245573, 90.017725)" x="84.245573" y="90.017725">10</text>
   </g>
   <g id="text_18">
    <text style="font-family:DejaVu Sans;font-size:10px;font-stretch:normal;font-style:normal;font-weight:normal;text-anchor:middle;" transform="rotate(-0, 76.946719, 49.955475)" x="76.946719" y="49.955475">6</text>
   </g>
   <g id="text_19">
    <text style="font-family:DejaVu Sans;font-size:10px;font-stretch:normal;font-style:normal;font-weight:normal;text-anchor:middle;" transform="rotate(-0, 215.624948, 210.204475)" x="215.624948" y="210.204475">22</text>
   </g>
   <g id="text_20">
    <text style="font-family:DejaVu Sans;font-size:10px;font-stretch:normal;font-style:normal;font-weight:normal;text-anchor:middle;" transform="rotate(-0, 135.337552, 170.142225)" x="135.337552" y="170.142225">10</text>
   </g>
   <g id="text_21">
    <text style="font-family:DejaVu Sans;font-size:10px;font-stretch:normal;font-style:normal;font-weight:normal;text-anchor:middle;" transform="rotate(-0, 109.791563, 130.079975)" x="109.791563" y="130.079975">12</text>
   </g>
   <g id="text_22">
    <text style="font-family:DejaVu Sans;font-size:10px;font-stretch:normal;font-style:normal;font-weight:normal;text-anchor:middle;" transform="rotate(-0, 120.739844, 90.017725)" x="120.739844" y="90.017725">10</text>
   </g>
   <g id="text_23">
    <text style="font-family:DejaVu Sans;font-size:10px;font-stretch:normal;font-style:normal;font-weight:normal;text-anchor:middle;" transform="rotate(-0, 102.492708, 49.955475)" x="102.492708" y="49.955475">8</text>
   </g>
   <g id="text_24">
    <text style="font-family:DejaVu Sans;font-size:10px;font-stretch:normal;font-style:normal;font-weight:normal;text-anchor:middle;" transform="rotate(-0, 288.61349, 210.204475)" x="288.61349" y="210.204475">18</text>
   </g>
   <g id="text_25">
    <text style="font-family:DejaVu Sans;font-size:10px;font-stretch:normal;font-style:normal;font-weight:normal;text-anchor:middle;" transform="rotate(-0, 197.377813, 170.142225)" x="197.377813" y="170.142225">24</text>
   </g>
   <g id="text_26">
    <text style="font-family:DejaVu Sans;font-size:10px;font-stretch:normal;font-style:normal;font-weight:normal;text-anchor:middle;" transform="rotate(-0, 160.883542, 130.079975)" x="160.883542" y="130.079975">16</text>
   </g>
   <g id="text_27">
    <text style="font-family:DejaVu Sans;font-size:10px;font-stretch:normal;font-style:normal;font-weight:normal;text-anchor:middle;" transform="rotate(-0, 160.883542, 90.017725)" x="160.883542" y="90.017725">12</text>
   </g>
   <g id="text_28">
    <text style="font-family:DejaVu Sans;font-size:10px;font-stretch:normal;font-style:normal;font-weight:normal;text-anchor:middle;" transform="rotate(-0, 135.337552, 49.955475)" x="135.337552" y="49.955475">10</text>
   </g>
   <g id="text_29">
    <text style="font-family:DejaVu Sans;font-size:10px;font-stretch:normal;font-style:normal;font-weight:normal;text-anchor:middle;" transform="rotate(-0, 336.056042, 210.204475)" x="336.056042" y="210.204475">8</text>
   </g>
   <g id="text_30">
    <text style="font-family:DejaVu Sans;font-size:10px;font-stretch:normal;font-style:normal;font-weight:normal;text-anchor:middle;" transform="rotate(-0, 263.0675, 170.142225)" x="263.0675" y="170.142225">12</text>
   </g>
   <g id="text_31">
    <text style="font-family:DejaVu Sans;font-size:10px;font-stretch:normal;font-style:normal;font-weight:normal;text-anchor:middle;" transform="rotate(-0, 211.975521, 130.079975)" x="211.975521" y="130.079975">12</text>
   </g>
   <g id="text_32">
    <text style="font-family:DejaVu Sans;font-size:10px;font-stretch:normal;font-style:normal;font-weight:normal;text-anchor:middle;" transform="rotate(-0, 208.326094, 90.017725)" x="208.326094" y="90.017725">14</text>
   </g>
   <g id="text_33">
    <text style="font-family:DejaVu Sans;font-size:10px;font-stretch:normal;font-style:normal;font-weight:normal;text-anchor:middle;" transform="rotate(-0, 182.780104, 49.955475)" x="182.780104" y="49.955475">16</text>
   </g>
   <g id="text_34">
    <text style="font-family:DejaVu Sans;font-size:10px;font-stretch:normal;font-style:normal;font-weight:normal;text-anchor:middle;" transform="rotate(-0, 361.602031, 210.204475)" x="361.602031" y="210.204475">6</text>
   </g>
   <g id="text_35">
    <text style="font-family:DejaVu Sans;font-size:10px;font-stretch:normal;font-style:normal;font-weight:normal;text-anchor:middle;" transform="rotate(-0, 259.418073, 130.079975)" x="259.418073" y="130.079975">14</text>
   </g>
   <g id="text_36">
    <text style="font-family:DejaVu Sans;font-size:10px;font-stretch:normal;font-style:normal;font-weight:normal;text-anchor:middle;" transform="rotate(-0, 259.418073, 90.017725)" x="259.418073" y="90.017725">14</text>
   </g>
   <g id="text_37">
    <text style="font-family:DejaVu Sans;font-size:10px;font-stretch:normal;font-style:normal;font-weight:normal;text-anchor:middle;" transform="rotate(-0, 244.820365, 49.955475)" x="244.820365" y="49.955475">18</text>
   </g>
   <g id="text_38">
    <text style="font-family:DejaVu Sans;font-size:10px;font-stretch:normal;font-style:normal;font-weight:normal;text-anchor:middle;" transform="rotate(-0, 383.498594, 210.204475)" x="383.498594" y="210.204475">6</text>
   </g>
   <g id="text_39">
    <text style="font-family:DejaVu Sans;font-size:10px;font-stretch:normal;font-style:normal;font-weight:normal;text-anchor:middle;" transform="rotate(-0, 317.808906, 170.142225)" x="317.808906" y="170.142225">10</text>
   </g>
   <g id="text_40">
    <text style="font-family:DejaVu Sans;font-size:10px;font-stretch:normal;font-style:normal;font-weight:normal;text-anchor:middle;" transform="rotate(-0, 292.262917, 49.955475)" x="292.262917" y="49.955475">8</text>
   </g>
   <g id="text_41">
    <text style="font-family:DejaVu Sans;font-size:10px;font-stretch:normal;font-style:normal;font-weight:normal;text-anchor:middle;" transform="rotate(-0, 405.395156, 210.204475)" x="405.395156" y="210.204475">6</text>
   </g>
   <g id="text_42">
    <text style="font-family:DejaVu Sans;font-size:10px;font-stretch:normal;font-style:normal;font-weight:normal;text-anchor:middle;" transform="rotate(-0, 365.251458, 170.142225)" x="365.251458" y="170.142225">16</text>
   </g>
   <g id="text_43">
    <text style="font-family:DejaVu Sans;font-size:10px;font-stretch:normal;font-style:normal;font-weight:normal;text-anchor:middle;" transform="rotate(-0, 314.159479, 130.079975)" x="314.159479" y="130.079975">8</text>
   </g>
   <g id="text_44">
    <text style="font-family:DejaVu Sans;font-size:10px;font-stretch:normal;font-style:normal;font-weight:normal;text-anchor:middle;" transform="rotate(-0, 328.757188, 90.017725)" x="328.757188" y="90.017725">16</text>
   </g>
   <g id="text_45">
    <text style="font-family:DejaVu Sans;font-size:10px;font-stretch:normal;font-style:normal;font-weight:normal;text-anchor:middle;" transform="rotate(-0, 325.10776, 49.955475)" x="325.10776" y="49.955475">10</text>
   </g>
   <g id="text_46">
    <text style="font-family:DejaVu Sans;font-size:10px;font-stretch:normal;font-style:normal;font-weight:normal;text-anchor:middle;" transform="rotate(-0, 343.354896, 130.079975)" x="343.354896" y="130.079975">8</text>
   </g>
   <g id="text_47">
    <text style="font-family:DejaVu Sans;font-size:10px;font-stretch:normal;font-style:normal;font-weight:normal;text-anchor:middle;" transform="rotate(-0, 368.900885, 90.017725)" x="368.900885" y="90.017725">6</text>
   </g>
   <g id="text_48">
    <text style="font-family:DejaVu Sans;font-size:10px;font-stretch:normal;font-style:normal;font-weight:normal;text-anchor:middle;" transform="rotate(-0, 365.251458, 49.955475)" x="365.251458" y="49.955475">12</text>
   </g>
   <g id="text_49">
    <text style="font-family:DejaVu Sans;font-size:10px;font-stretch:normal;font-style:normal;font-weight:normal;text-anchor:middle;" transform="rotate(-0, 419.992865, 170.142225)" x="419.992865" y="170.142225">6</text>
   </g>
   <g id="text_50">
    <text style="font-family:DejaVu Sans;font-size:10px;font-stretch:normal;font-style:normal;font-weight:normal;text-anchor:middle;" transform="rotate(-0, 394.446875, 130.079975)" x="394.446875" y="130.079975">20</text>
   </g>
   <g id="text_51">
    <text style="font-family:DejaVu Sans;font-size:10px;font-stretch:normal;font-style:normal;font-weight:normal;text-anchor:middle;" transform="rotate(-0, 405.395156, 90.017725)" x="405.395156" y="90.017725">14</text>
   </g>
   <g id="text_52">
    <text style="font-family:DejaVu Sans;font-size:10px;font-stretch:normal;font-style:normal;font-weight:normal;text-anchor:middle;" transform="rotate(-0, 409.044583, 49.955475)" x="409.044583" y="49.955475">12</text>
   </g>
   <g id="text_53">
    <text style="font-family:DejaVu Sans;font-size:12px;font-stretch:normal;font-style:normal;font-weight:normal;text-anchor:middle;" transform="rotate(-0, 257.593359, 19.918125)" x="257.593359" y="19.918125">Reasons to choose current job: World</text>
   </g>
   <g id="legend_1">
    <g id="patch_49">
     <path d="M 20.281641 337.666687 
L 494.905078 337.666687 
Q 496.905078 337.666687 496.905078 335.666687 
L 496.905078 263.276062 
Q 496.905078 261.276062 494.905078 261.276062 
L 20.281641 261.276062 
Q 18.281641 261.276062 18.281641 263.276062 
L 18.281641 335.666687 
Q 18.281641 337.666687 20.281641 337.666687 
z
" style="fill:#ffffff;opacity:0.8;stroke:#cccccc;stroke-linejoin:miter;"/>
    </g>
    <g id="patch_50">
     <path d="M 22.281641 272.8745 
L 42.281641 272.8745 
L 42.281641 265.8745 
L 22.281641 265.8745 
z
" style="fill:#1f77b4;"/>
    </g>
    <g id="text_54">
     <text style="font-family:DejaVu Sans;font-size:10px;font-stretch:normal;font-style:normal;font-weight:normal;text-anchor:start;" transform="rotate(-0, 50.281641, 272.8745)" x="50.281641" y="272.8745">Freedom to choose own working practices</text>
    </g>
    <g id="patch_51">
     <path d="M 22.281641 287.552625 
L 42.281641 287.552625 
L 42.281641 280.552625 
L 22.281641 280.552625 
z
" style="fill:#ff7f0e;"/>
    </g>
    <g id="text_55">
     <text style="font-family:DejaVu Sans;font-size:10px;font-stretch:normal;font-style:normal;font-weight:normal;text-anchor:start;" transform="rotate(-0, 50.281641, 287.552625)" x="50.281641" y="287.552625">Desire to advance research</text>
    </g>
    <g id="patch_52">
     <path d="M 22.281641 302.23075 
L 42.281641 302.23075 
L 42.281641 295.23075 
L 22.281641 295.23075 
z
" style="fill:#2ca02c;"/>
    </g>
    <g id="text_56">
     <text style="font-family:DejaVu Sans;font-size:10px;font-stretch:normal;font-style:normal;font-weight:normal;text-anchor:start;" transform="rotate(-0, 50.281641, 302.23075)" x="50.281641" y="302.23075">Desire to work in a research environment</text>
    </g>
    <g id="patch_53">
     <path d="M 22.281641 316.908875 
L 42.281641 316.908875 
L 42.281641 309.908875 
L 22.281641 309.908875 
z
" style="fill:#d62728;"/>
    </g>
    <g id="text_57">
     <text style="font-family:DejaVu Sans;font-size:10px;font-stretch:normal;font-style:normal;font-weight:normal;text-anchor:start;" transform="rotate(-0, 50.281641, 316.908875)" x="50.281641" y="316.908875">Flexible working hours</text>
    </g>
    <g id="patch_54">
     <path d="M 22.281641 331.587 
L 42.281641 331.587 
L 42.281641 324.587 
L 22.281641 324.587 
z
" style="fill:#9467bd;"/>
    </g>
    <g id="text_58">
     <text style="font-family:DejaVu Sans;font-size:10px;font-stretch:normal;font-style:normal;font-weight:normal;text-anchor:start;" transform="rotate(-0, 50.281641, 331.587)" x="50.281641" y="331.587">I want to learn new skills</text>
    </g>
    <g id="patch_55">
     <path d="M 281.016016 272.8745 
L 301.016016 272.8745 
L 301.016016 265.8745 
L 281.016016 265.8745 
z
" style="fill:#8c564b;"/>
    </g>
    <g id="text_59">
     <text style="font-family:DejaVu Sans;font-size:10px;font-stretch:normal;font-style:normal;font-weight:normal;text-anchor:start;" transform="rotate(-0, 309.016016, 272.8745)" x="309.016016" y="272.8745">Opportunity for career advancement</text>
    </g>
    <g id="patch_56">
     <path d="M 281.016016 287.552625 
L 301.016016 287.552625 
L 301.016016 280.552625 
L 281.016016 280.552625 
z
" style="fill:#e377c2;"/>
    </g>
    <g id="text_60">
     <text style="font-family:DejaVu Sans;font-size:10px;font-stretch:normal;font-style:normal;font-weight:normal;text-anchor:start;" transform="rotate(-0, 309.016016, 287.552625)" x="309.016016" y="287.552625">Opportunity to develop software</text>
    </g>
    <g id="patch_57">
     <path d="M 281.016016 302.23075 
L 301.016016 302.23075 
L 301.016016 295.23075 
L 281.016016 295.23075 
z
" style="fill:#7f7f7f;"/>
    </g>
    <g id="text_61">
     <text style="font-family:DejaVu Sans;font-size:10px;font-stretch:normal;font-style:normal;font-weight:normal;text-anchor:start;" transform="rotate(-0, 309.016016, 302.23075)" x="309.016016" y="302.23075">The salary</text>
    </g>
    <g id="patch_58">
     <path d="M 281.016016 316.908875 
L 301.016016 316.908875 
L 301.016016 309.908875 
L 281.016016 309.908875 
z
" style="fill:#bcbd22;"/>
    </g>
    <g id="text_62">
     <text style="font-family:DejaVu Sans;font-size:10px;font-stretch:normal;font-style:normal;font-weight:normal;text-anchor:start;" transform="rotate(-0, 309.016016, 316.908875)" x="309.016016" y="316.908875">Ability to work across disciplines</text>
    </g>
   </g>
  </g>
 </g>
 <defs>
  <clipPath id="pba05bf810c">
   <rect height="200.31125" width="383.189844" x="65.998438" y="25.918125"/>
  </clipPath>
 </defs>
</svg>
