<?xml version="1.0" encoding="utf-8" standalone="no"?>
<!DOCTYPE svg PUBLIC "-//W3C//DTD SVG 1.1//EN"
  "http://www.w3.org/Graphics/SVG/1.1/DTD/svg11.dtd">
<svg height="360pt" version="1.1" viewBox="0 0 504 360" width="504pt" xmlns="http://www.w3.org/2000/svg" xmlns:xlink="http://www.w3.org/1999/xlink">
 <metadata>
  <rdf:RDF xmlns:cc="http://creativecommons.org/ns#" xmlns:dc="http://purl.org/dc/elements/1.1/" xmlns:rdf="http://www.w3.org/1999/02/22-rdf-syntax-ns#">
   <cc:Work>
    <dc:type rdf:resource="http://purl.org/dc/dcmitype/StillImage"/>
    <dc:date>2021-03-29T15:54:38.902745</dc:date>
    <dc:format>image/svg+xml</dc:format>
    <dc:creator>
     <cc:Agent>
      <dc:title>Matplotlib v3.4.0, https://matplotlib.org/</dc:title>
     </cc:Agent>
    </dc:creator>
   </cc:Work>
  </rdf:RDF>
 </metadata>
 <defs>
  <style type="text/css">*{stroke-linecap:butt;stroke-linejoin:round;}</style>
 </defs>
 <g id="figure_1">
  <g id="patch_1">
   <path d="M 0 360 
L 504 360 
L 504 0 
L 0 0 
z
" style="fill:#ffffff;"/>
  </g>
  <g id="axes_1">
   <g id="patch_2">
    <path d="M 65.998438 226.229375 
L 449.188281 226.229375 
L 449.188281 25.918125 
L 65.998438 25.918125 
z
" style="fill:#ffffff;"/>
   </g>
   <g id="patch_3">
    <path clip-path="url(#pba05bf810c)" d="M 65.998438 216.213813 
L 154.400708 216.213813 
L 154.400708 196.182688 
L 65.998438 196.182688 
z
" style="fill:#1f77b4;"/>
   </g>
   <g id="patch_4">
    <path clip-path="url(#pba05bf810c)" d="M 65.998438 176.151563 
L 122.66656 176.151563 
L 122.66656 156.120438 
L 65.998438 156.120438 
z
" style="fill:#1f77b4;"/>
   </g>
   <g id="patch_5">
    <path clip-path="url(#pba05bf810c)" d="M 65.998438 136.089313 
L 120.56931 136.089313 
L 120.56931 116.058188 
L 65.998438 116.058188 
z
" style="fill:#1f77b4;"/>
   </g>
   <g id="patch_6">
    <path clip-path="url(#pba05bf810c)" d="M 65.998438 96.027063 
L 95.55766 96.027063 
L 95.55766 75.995938 
L 65.998438 75.995938 
z
" style="fill:#1f77b4;"/>
   </g>
   <g id="patch_7">
    <path clip-path="url(#pba05bf810c)" d="M 65.998438 55.964813 
L 92.228695 55.964813 
L 92.228695 35.933688 
L 65.998438 35.933688 
z
" style="fill:#1f77b4;"/>
   </g>
   <g id="patch_8">
    <path clip-path="url(#pba05bf810c)" d="M 154.400708 216.213813 
L 241.669617 216.213813 
L 241.669617 196.182688 
L 154.400708 196.182688 
z
" style="fill:#ff7f0e;"/>
   </g>
   <g id="patch_9">
    <path clip-path="url(#pba05bf810c)" d="M 122.66656 176.151563 
L 183.868132 176.151563 
L 183.868132 156.120438 
L 122.66656 156.120438 
z
" style="fill:#ff7f0e;"/>
   </g>
   <g id="patch_10">
    <path clip-path="url(#pba05bf810c)" d="M 120.56931 136.089313 
L 175.140182 136.089313 
L 175.140182 116.058188 
L 120.56931 116.058188 
z
" style="fill:#ff7f0e;"/>
   </g>
   <g id="patch_11">
    <path clip-path="url(#pba05bf810c)" d="M 95.55766 96.027063 
L 128.527562 96.027063 
L 128.527562 75.995938 
L 95.55766 75.995938 
z
" style="fill:#ff7f0e;"/>
   </g>
   <g id="patch_12">
    <path clip-path="url(#pba05bf810c)" d="M 92.228695 55.964813 
L 141.267871 55.964813 
L 141.267871 35.933688 
L 92.228695 35.933688 
z
" style="fill:#ff7f0e;"/>
   </g>
   <g id="patch_13">
    <path clip-path="url(#pba05bf810c)" d="M 241.669617 216.213813 
L 301.737827 216.213813 
L 301.737827 196.182688 
L 241.669617 196.182688 
z
" style="fill:#2ca02c;"/>
   </g>
   <g id="patch_14">
    <path clip-path="url(#pba05bf810c)" d="M 183.868132 176.151563 
L 230.335992 176.151563 
L 230.335992 156.120438 
L 183.868132 156.120438 
z
" style="fill:#2ca02c;"/>
   </g>
   <g id="patch_15">
    <path clip-path="url(#pba05bf810c)" d="M 175.140182 136.089313 
L 204.699405 136.089313 
L 204.699405 116.058188 
L 175.140182 116.058188 
z
" style="fill:#2ca02c;"/>
   </g>
   <g id="patch_16">
    <path clip-path="url(#pba05bf810c)" d="M 128.527562 96.027063 
L 162.634357 96.027063 
L 162.634357 75.995938 
L 128.527562 75.995938 
z
" style="fill:#2ca02c;"/>
   </g>
   <g id="patch_17">
    <path clip-path="url(#pba05bf810c)" d="M 141.267871 55.964813 
L 167.498128 55.964813 
L 167.498128 35.933688 
L 141.267871 35.933688 
z
" style="fill:#2ca02c;"/>
   </g>
   <g id="patch_18">
    <path clip-path="url(#pba05bf810c)" d="M 301.737827 216.213813 
L 348.205687 216.213813 
L 348.205687 196.182688 
L 301.737827 196.182688 
z
" style="fill:#d62728;"/>
   </g>
   <g id="patch_19">
    <path clip-path="url(#pba05bf810c)" d="M 230.335992 176.151563 
L 279.070578 176.151563 
L 279.070578 156.120438 
L 230.335992 156.120438 
z
" style="fill:#d62728;"/>
   </g>
   <g id="patch_20">
    <path clip-path="url(#pba05bf810c)" d="M 204.699405 136.089313 
L 260.40717 136.089313 
L 260.40717 116.058188 
L 204.699405 116.058188 
z
" style="fill:#d62728;"/>
   </g>
   <g id="patch_21">
    <path clip-path="url(#pba05bf810c)" d="M 162.634357 96.027063 
L 219.479016 96.027063 
L 219.479016 75.995938 
L 162.634357 75.995938 
z
" style="fill:#d62728;"/>
   </g>
   <g id="patch_22">
    <path clip-path="url(#pba05bf810c)" d="M 167.498128 55.964813 
L 221.099089 55.964813 
L 221.099089 35.933688 
L 167.498128 35.933688 
z
" style="fill:#d62728;"/>
   </g>
   <g id="patch_23">
    <path clip-path="url(#pba05bf810c)" d="M 348.205687 216.213813 
L 378.806473 216.213813 
L 378.806473 196.182688 
L 348.205687 196.182688 
z
" style="fill:#9467bd;"/>
   </g>
   <g id="patch_24">
    <path clip-path="url(#pba05bf810c)" d="M 279.070578 176.151563 
L 330.071888 176.151563 
L 330.071888 156.120438 
L 279.070578 156.120438 
z
" style="fill:#9467bd;"/>
   </g>
   <g id="patch_25">
    <path clip-path="url(#pba05bf810c)" d="M 260.40717 136.089313 
L 314.978042 136.089313 
L 314.978042 116.058188 
L 260.40717 116.058188 
z
" style="fill:#9467bd;"/>
   </g>
   <g id="patch_26">
    <path clip-path="url(#pba05bf810c)" d="M 219.479016 96.027063 
L 258.133384 96.027063 
L 258.133384 75.995938 
L 219.479016 75.995938 
z
" style="fill:#9467bd;"/>
   </g>
   <g id="patch_27">
    <path clip-path="url(#pba05bf810c)" d="M 221.099089 55.964813 
L 256.452913 55.964813 
L 256.452913 35.933688 
L 221.099089 35.933688 
z
" style="fill:#9467bd;"/>
   </g>
   <g id="patch_28">
    <path clip-path="url(#pba05bf810c)" d="M 378.806473 216.213813 
L 395.80691 216.213813 
L 395.80691 196.182688 
L 378.806473 196.182688 
z
" style="fill:#8c564b;"/>
   </g>
   <g id="patch_29">
    <path clip-path="url(#pba05bf810c)" d="M 330.071888 176.151563 
L 344.8056 176.151563 
L 344.8056 156.120438 
L 330.071888 156.120438 
z
" style="fill:#8c564b;"/>
   </g>
   <g id="patch_30">
    <path clip-path="url(#pba05bf810c)" d="M 314.978042 136.089313 
L 342.263478 136.089313 
L 342.263478 116.058188 
L 314.978042 116.058188 
z
" style="fill:#8c564b;"/>
   </g>
   <g id="patch_31">
    <path clip-path="url(#pba05bf810c)" d="M 258.133384 96.027063 
L 285.41882 96.027063 
L 285.41882 75.995938 
L 258.133384 75.995938 
z
" style="fill:#8c564b;"/>
   </g>
   <g id="patch_32">
    <path clip-path="url(#pba05bf810c)" d="M 256.452913 55.964813 
L 282.683171 55.964813 
L 282.683171 35.933688 
L 256.452913 35.933688 
z
" style="fill:#8c564b;"/>
   </g>
   <g id="patch_33">
    <path clip-path="url(#pba05bf810c)" d="M 395.80691 216.213813 
L 408.273897 216.213813 
L 408.273897 196.182688 
L 395.80691 196.182688 
z
" style="fill:#e377c2;"/>
   </g>
   <g id="patch_34">
    <path clip-path="url(#pba05bf810c)" d="M 344.8056 176.151563 
L 387.873373 176.151563 
L 387.873373 156.120438 
L 344.8056 156.120438 
z
" style="fill:#e377c2;"/>
   </g>
   <g id="patch_35">
    <path clip-path="url(#pba05bf810c)" d="M 342.263478 136.089313 
L 375.23338 136.089313 
L 375.23338 116.058188 
L 342.263478 116.058188 
z
" style="fill:#e377c2;"/>
   </g>
   <g id="patch_36">
    <path clip-path="url(#pba05bf810c)" d="M 285.41882 96.027063 
L 339.989692 96.027063 
L 339.989692 75.995938 
L 285.41882 75.995938 
z
" style="fill:#e377c2;"/>
   </g>
   <g id="patch_37">
    <path clip-path="url(#pba05bf810c)" d="M 282.683171 55.964813 
L 328.301009 55.964813 
L 328.301009 35.933688 
L 282.683171 35.933688 
z
" style="fill:#e377c2;"/>
   </g>
   <g id="patch_38">
    <path clip-path="url(#pba05bf810c)" d="M 408.273897 216.213813 
L 420.740884 216.213813 
L 420.740884 196.182688 
L 408.273897 196.182688 
z
" style="fill:#7f7f7f;"/>
   </g>
   <g id="patch_39">
    <path clip-path="url(#pba05bf810c)" d="M 387.873373 176.151563 
L 423.007609 176.151563 
L 423.007609 156.120438 
L 387.873373 156.120438 
z
" style="fill:#7f7f7f;"/>
   </g>
   <g id="patch_40">
    <path clip-path="url(#pba05bf810c)" d="M 375.23338 136.089313 
L 418.435321 136.089313 
L 418.435321 116.058188 
L 375.23338 116.058188 
z
" style="fill:#7f7f7f;"/>
   </g>
   <g id="patch_41">
    <path clip-path="url(#pba05bf810c)" d="M 339.989692 96.027063 
L 403.65571 96.027063 
L 403.65571 75.995938 
L 339.989692 75.995938 
z
" style="fill:#7f7f7f;"/>
   </g>
   <g id="patch_42">
    <path clip-path="url(#pba05bf810c)" d="M 328.301009 55.964813 
L 395.587321 55.964813 
L 395.587321 35.933688 
L 328.301009 35.933688 
z
" style="fill:#7f7f7f;"/>
   </g>
   <g id="patch_43">
    <path clip-path="url(#pba05bf810c)" d="M 420.740884 216.213813 
L 430.941146 216.213813 
L 430.941146 196.182688 
L 420.740884 196.182688 
z
" style="fill:#bcbd22;"/>
   </g>
   <g id="patch_44">
    <path clip-path="url(#pba05bf810c)" d="M 423.007609 176.151563 
L 430.941146 176.151563 
L 430.941146 156.120438 
L 423.007609 156.120438 
z
" style="fill:#bcbd22;"/>
   </g>
   <g id="patch_45">
    <path clip-path="url(#pba05bf810c)" d="M 418.435321 136.089313 
L 430.941146 136.089313 
L 430.941146 116.058188 
L 418.435321 116.058188 
z
" style="fill:#bcbd22;"/>
   </g>
   <g id="patch_46">
    <path clip-path="url(#pba05bf810c)" d="M 403.65571 96.027063 
L 430.941146 96.027063 
L 430.941146 75.995938 
L 403.65571 75.995938 
z
" style="fill:#bcbd22;"/>
   </g>
   <g id="patch_47">
    <path clip-path="url(#pba05bf810c)" d="M 395.587321 55.964813 
L 430.941146 55.964813 
L 430.941146 35.933688 
L 395.587321 35.933688 
z
" style="fill:#bcbd22;"/>
   </g>
   <g id="matplotlib.axis_1">
    <g id="xtick_1">
     <g id="line2d_1">
      <defs>
       <path d="M 0 0 
L 0 3.5 
" id="mc3a356a46d" style="stroke:#000000;stroke-width:0.8;"/>
      </defs>
      <g>
       <use style="stroke:#000000;stroke-width:0.8;" x="65.998438" xlink:href="#mc3a356a46d" y="226.229375"/>
      </g>
     </g>
     <g id="text_1">
      <text style="font-family:DejaVu Sans;font-size:10px;font-stretch:normal;font-style:normal;font-weight:normal;text-anchor:middle;" transform="rotate(-0, 65.998438, 240.827812)" x="65.998438" y="240.827812">0</text>
     </g>
    </g>
    <g id="xtick_2">
     <g id="line2d_2">
      <g>
       <use style="stroke:#000000;stroke-width:0.8;" x="138.986979" xlink:href="#mc3a356a46d" y="226.229375"/>
      </g>
     </g>
     <g id="text_2">
      <text style="font-family:DejaVu Sans;font-size:10px;font-stretch:normal;font-style:normal;font-weight:normal;text-anchor:middle;" transform="rotate(-0, 138.986979, 240.827812)" x="138.986979" y="240.827812">20</text>
     </g>
    </g>
    <g id="xtick_3">
     <g id="line2d_3">
      <g>
       <use style="stroke:#000000;stroke-width:0.8;" x="211.975521" xlink:href="#mc3a356a46d" y="226.229375"/>
      </g>
     </g>
     <g id="text_3">
      <text style="font-family:DejaVu Sans;font-size:10px;font-stretch:normal;font-style:normal;font-weight:normal;text-anchor:middle;" transform="rotate(-0, 211.975521, 240.827812)" x="211.975521" y="240.827812">40</text>
     </g>
    </g>
    <g id="xtick_4">
     <g id="line2d_4">
      <g>
       <use style="stroke:#000000;stroke-width:0.8;" x="284.964062" xlink:href="#mc3a356a46d" y="226.229375"/>
      </g>
     </g>
     <g id="text_4">
      <text style="font-family:DejaVu Sans;font-size:10px;font-stretch:normal;font-style:normal;font-weight:normal;text-anchor:middle;" transform="rotate(-0, 284.964062, 240.827812)" x="284.964062" y="240.827812">60</text>
     </g>
    </g>
    <g id="xtick_5">
     <g id="line2d_5">
      <g>
       <use style="stroke:#000000;stroke-width:0.8;" x="357.952604" xlink:href="#mc3a356a46d" y="226.229375"/>
      </g>
     </g>
     <g id="text_5">
      <text style="font-family:DejaVu Sans;font-size:10px;font-stretch:normal;font-style:normal;font-weight:normal;text-anchor:middle;" transform="rotate(-0, 357.952604, 240.827812)" x="357.952604" y="240.827812">80</text>
     </g>
    </g>
    <g id="xtick_6">
     <g id="line2d_6">
      <g>
       <use style="stroke:#000000;stroke-width:0.8;" x="430.941146" xlink:href="#mc3a356a46d" y="226.229375"/>
      </g>
     </g>
     <g id="text_6">
      <text style="font-family:DejaVu Sans;font-size:10px;font-stretch:normal;font-style:normal;font-weight:normal;text-anchor:middle;" transform="rotate(-0, 430.941146, 240.827812)" x="430.941146" y="240.827812">100</text>
     </g>
    </g>
    <g id="text_7">
     <text style="font-family:DejaVu Sans;font-size:10px;font-stretch:normal;font-style:normal;font-weight:normal;text-anchor:middle;" transform="rotate(-0, 257.593359, 254.505938)" x="257.593359" y="254.505938">Ranking of importance</text>
    </g>
   </g>
   <g id="matplotlib.axis_2">
    <g id="ytick_1">
     <g id="line2d_7">
      <defs>
       <path d="M 0 0 
L -3.5 0 
" id="m82278324de" style="stroke:#000000;stroke-width:0.8;"/>
      </defs>
      <g>
       <use style="stroke:#000000;stroke-width:0.8;" x="65.998438" xlink:href="#m82278324de" y="206.19825"/>
      </g>
     </g>
     <g id="text_8">
      <text style="font-family:DejaVu Sans;font-size:10px;font-stretch:normal;font-style:normal;font-weight:normal;text-anchor:end;" transform="rotate(-0, 58.998438, 209.997469)" x="58.998438" y="209.997469">Rank 1</text>
     </g>
    </g>
    <g id="ytick_2">
     <g id="line2d_8">
      <g>
       <use style="stroke:#000000;stroke-width:0.8;" x="65.998438" xlink:href="#m82278324de" y="166.136"/>
      </g>
     </g>
     <g id="text_9">
      <text style="font-family:DejaVu Sans;font-size:10px;font-stretch:normal;font-style:normal;font-weight:normal;text-anchor:end;" transform="rotate(-0, 58.998438, 169.935219)" x="58.998438" y="169.935219">Rank 2</text>
     </g>
    </g>
    <g id="ytick_3">
     <g id="line2d_9">
      <g>
       <use style="stroke:#000000;stroke-width:0.8;" x="65.998438" xlink:href="#m82278324de" y="126.07375"/>
      </g>
     </g>
     <g id="text_10">
      <text style="font-family:DejaVu Sans;font-size:10px;font-stretch:normal;font-style:normal;font-weight:normal;text-anchor:end;" transform="rotate(-0, 58.998438, 129.872969)" x="58.998438" y="129.872969">Rank 3</text>
     </g>
    </g>
    <g id="ytick_4">
     <g id="line2d_10">
      <g>
       <use style="stroke:#000000;stroke-width:0.8;" x="65.998438" xlink:href="#m82278324de" y="86.0115"/>
      </g>
     </g>
     <g id="text_11">
      <text style="font-family:DejaVu Sans;font-size:10px;font-stretch:normal;font-style:normal;font-weight:normal;text-anchor:end;" transform="rotate(-0, 58.998438, 89.810719)" x="58.998438" y="89.810719">Rank 4</text>
     </g>
    </g>
    <g id="ytick_5">
     <g id="line2d_11">
      <g>
       <use style="stroke:#000000;stroke-width:0.8;" x="65.998438" xlink:href="#m82278324de" y="45.94925"/>
      </g>
     </g>
     <g id="text_12">
      <text style="font-family:DejaVu Sans;font-size:10px;font-stretch:normal;font-style:normal;font-weight:normal;text-anchor:end;" transform="rotate(-0, 58.998438, 49.748469)" x="58.998438" y="49.748469">Rank 5</text>
     </g>
    </g>
    <g id="text_13">
     <text style="font-family:DejaVu Sans;font-size:10px;font-stretch:normal;font-style:normal;font-weight:normal;text-anchor:middle;" transform="rotate(-90, 18.398438, 126.07375)" x="18.398438" y="126.07375">Percentage</text>
    </g>
   </g>
   <g id="patch_48">
    <path d="M 65.998438 226.229375 
L 449.188281 226.229375 
" style="fill:none;stroke:#000000;stroke-linecap:square;stroke-linejoin:miter;stroke-width:0.8;"/>
   </g>
   <g id="text_14">
    <text style="font-family:DejaVu Sans;font-size:10px;font-stretch:normal;font-style:normal;font-weight:normal;text-anchor:middle;" transform="rotate(-0, 110.199573, 210.204475)" x="110.199573" y="210.204475">24</text>
   </g>
   <g id="text_15">
    <text style="font-family:DejaVu Sans;font-size:10px;font-stretch:normal;font-style:normal;font-weight:normal;text-anchor:middle;" transform="rotate(-0, 94.332499, 170.142225)" x="94.332499" y="170.142225">16</text>
   </g>
   <g id="text_16">
    <text style="font-family:DejaVu Sans;font-size:10px;font-stretch:normal;font-style:normal;font-weight:normal;text-anchor:middle;" transform="rotate(-0, 93.283874, 130.079975)" x="93.283874" y="130.079975">15</text>
   </g>
   <g id="text_17">
    <text style="font-family:DejaVu Sans;font-size:10px;font-stretch:normal;font-style:normal;font-weight:normal;text-anchor:middle;" transform="rotate(-0, 80.778049, 90.017725)" x="80.778049" y="90.017725">8</text>
   </g>
   <g id="text_18">
    <text style="font-family:DejaVu Sans;font-size:10px;font-stretch:normal;font-style:normal;font-weight:normal;text-anchor:middle;" transform="rotate(-0, 79.113566, 49.955475)" x="79.113566" y="49.955475">7</text>
   </g>
   <g id="text_19">
    <text style="font-family:DejaVu Sans;font-size:10px;font-stretch:normal;font-style:normal;font-weight:normal;text-anchor:middle;" transform="rotate(-0, 198.035163, 210.204475)" x="198.035163" y="210.204475">24</text>
   </g>
   <g id="text_20">
    <text style="font-family:DejaVu Sans;font-size:10px;font-stretch:normal;font-style:normal;font-weight:normal;text-anchor:middle;" transform="rotate(-0, 153.267346, 170.142225)" x="153.267346" y="170.142225">17</text>
   </g>
   <g id="text_21">
    <text style="font-family:DejaVu Sans;font-size:10px;font-stretch:normal;font-style:normal;font-weight:normal;text-anchor:middle;" transform="rotate(-0, 147.854746, 130.079975)" x="147.854746" y="130.079975">15</text>
   </g>
   <g id="text_22">
    <text style="font-family:DejaVu Sans;font-size:10px;font-stretch:normal;font-style:normal;font-weight:normal;text-anchor:middle;" transform="rotate(-0, 112.042611, 90.017725)" x="112.042611" y="90.017725">9</text>
   </g>
   <g id="text_23">
    <text style="font-family:DejaVu Sans;font-size:10px;font-stretch:normal;font-style:normal;font-weight:normal;text-anchor:middle;" transform="rotate(-0, 116.748283, 49.955475)" x="116.748283" y="49.955475">13</text>
   </g>
   <g id="text_24">
    <text style="font-family:DejaVu Sans;font-size:10px;font-stretch:normal;font-style:normal;font-weight:normal;text-anchor:middle;" transform="rotate(-0, 271.703722, 210.204475)" x="271.703722" y="210.204475">16</text>
   </g>
   <g id="text_25">
    <text style="font-family:DejaVu Sans;font-size:10px;font-stretch:normal;font-style:normal;font-weight:normal;text-anchor:middle;" transform="rotate(-0, 207.102062, 170.142225)" x="207.102062" y="170.142225">13</text>
   </g>
   <g id="text_26">
    <text style="font-family:DejaVu Sans;font-size:10px;font-stretch:normal;font-style:normal;font-weight:normal;text-anchor:middle;" transform="rotate(-0, 189.919793, 130.079975)" x="189.919793" y="130.079975">8</text>
   </g>
   <g id="text_27">
    <text style="font-family:DejaVu Sans;font-size:10px;font-stretch:normal;font-style:normal;font-weight:normal;text-anchor:middle;" transform="rotate(-0, 145.58096, 90.017725)" x="145.58096" y="90.017725">9</text>
   </g>
   <g id="text_28">
    <text style="font-family:DejaVu Sans;font-size:10px;font-stretch:normal;font-style:normal;font-weight:normal;text-anchor:middle;" transform="rotate(-0, 154.383, 49.955475)" x="154.383" y="49.955475">7</text>
   </g>
   <g id="text_29">
    <text style="font-family:DejaVu Sans;font-size:10px;font-stretch:normal;font-style:normal;font-weight:normal;text-anchor:middle;" transform="rotate(-0, 324.971757, 210.204475)" x="324.971757" y="210.204475">13</text>
   </g>
   <g id="text_30">
    <text style="font-family:DejaVu Sans;font-size:10px;font-stretch:normal;font-style:normal;font-weight:normal;text-anchor:middle;" transform="rotate(-0, 254.703285, 170.142225)" x="254.703285" y="170.142225">13</text>
   </g>
   <g id="text_31">
    <text style="font-family:DejaVu Sans;font-size:10px;font-stretch:normal;font-style:normal;font-weight:normal;text-anchor:middle;" transform="rotate(-0, 232.553287, 130.079975)" x="232.553287" y="130.079975">15</text>
   </g>
   <g id="text_32">
    <text style="font-family:DejaVu Sans;font-size:10px;font-stretch:normal;font-style:normal;font-weight:normal;text-anchor:middle;" transform="rotate(-0, 191.056686, 90.017725)" x="191.056686" y="90.017725">16</text>
   </g>
   <g id="text_33">
    <text style="font-family:DejaVu Sans;font-size:10px;font-stretch:normal;font-style:normal;font-weight:normal;text-anchor:middle;" transform="rotate(-0, 194.298608, 49.955475)" x="194.298608" y="49.955475">15</text>
   </g>
   <g id="text_34">
    <text style="font-family:DejaVu Sans;font-size:10px;font-stretch:normal;font-style:normal;font-weight:normal;text-anchor:middle;" transform="rotate(-0, 363.50608, 210.204475)" x="363.50608" y="210.204475">8</text>
   </g>
   <g id="text_35">
    <text style="font-family:DejaVu Sans;font-size:10px;font-stretch:normal;font-style:normal;font-weight:normal;text-anchor:middle;" transform="rotate(-0, 304.571233, 170.142225)" x="304.571233" y="170.142225">14</text>
   </g>
   <g id="text_36">
    <text style="font-family:DejaVu Sans;font-size:10px;font-stretch:normal;font-style:normal;font-weight:normal;text-anchor:middle;" transform="rotate(-0, 287.692606, 130.079975)" x="287.692606" y="130.079975">15</text>
   </g>
   <g id="text_37">
    <text style="font-family:DejaVu Sans;font-size:10px;font-stretch:normal;font-style:normal;font-weight:normal;text-anchor:middle;" transform="rotate(-0, 238.8062, 90.017725)" x="238.8062" y="90.017725">11</text>
   </g>
   <g id="text_38">
    <text style="font-family:DejaVu Sans;font-size:10px;font-stretch:normal;font-style:normal;font-weight:normal;text-anchor:middle;" transform="rotate(-0, 238.776001, 49.955475)" x="238.776001" y="49.955475">10</text>
   </g>
   <g id="text_39">
    <text style="font-family:DejaVu Sans;font-size:10px;font-stretch:normal;font-style:normal;font-weight:normal;text-anchor:middle;" transform="rotate(-0, 387.306692, 210.204475)" x="387.306692" y="210.204475">5</text>
   </g>
   <g id="text_40">
    <text style="font-family:DejaVu Sans;font-size:10px;font-stretch:normal;font-style:normal;font-weight:normal;text-anchor:middle;" transform="rotate(-0, 328.62076, 130.079975)" x="328.62076" y="130.079975">7</text>
   </g>
   <g id="text_41">
    <text style="font-family:DejaVu Sans;font-size:10px;font-stretch:normal;font-style:normal;font-weight:normal;text-anchor:middle;" transform="rotate(-0, 271.776102, 90.017725)" x="271.776102" y="90.017725">7</text>
   </g>
   <g id="text_42">
    <text style="font-family:DejaVu Sans;font-size:10px;font-stretch:normal;font-style:normal;font-weight:normal;text-anchor:middle;" transform="rotate(-0, 269.568042, 49.955475)" x="269.568042" y="49.955475">7</text>
   </g>
   <g id="text_43">
    <text style="font-family:DejaVu Sans;font-size:10px;font-stretch:normal;font-style:normal;font-weight:normal;text-anchor:middle;" transform="rotate(-0, 366.339486, 170.142225)" x="366.339486" y="170.142225">12</text>
   </g>
   <g id="text_44">
    <text style="font-family:DejaVu Sans;font-size:10px;font-stretch:normal;font-style:normal;font-weight:normal;text-anchor:middle;" transform="rotate(-0, 358.748429, 130.079975)" x="358.748429" y="130.079975">9</text>
   </g>
   <g id="text_45">
    <text style="font-family:DejaVu Sans;font-size:10px;font-stretch:normal;font-style:normal;font-weight:normal;text-anchor:middle;" transform="rotate(-0, 312.704256, 90.017725)" x="312.704256" y="90.017725">15</text>
   </g>
   <g id="text_46">
    <text style="font-family:DejaVu Sans;font-size:10px;font-stretch:normal;font-style:normal;font-weight:normal;text-anchor:middle;" transform="rotate(-0, 305.49209, 49.955475)" x="305.49209" y="49.955475">12</text>
   </g>
   <g id="text_47">
    <text style="font-family:DejaVu Sans;font-size:10px;font-stretch:normal;font-style:normal;font-weight:normal;text-anchor:middle;" transform="rotate(-0, 405.440491, 170.142225)" x="405.440491" y="170.142225">10</text>
   </g>
   <g id="text_48">
    <text style="font-family:DejaVu Sans;font-size:10px;font-stretch:normal;font-style:normal;font-weight:normal;text-anchor:middle;" transform="rotate(-0, 396.834351, 130.079975)" x="396.834351" y="130.079975">12</text>
   </g>
   <g id="text_49">
    <text style="font-family:DejaVu Sans;font-size:10px;font-stretch:normal;font-style:normal;font-weight:normal;text-anchor:middle;" transform="rotate(-0, 371.822701, 90.017725)" x="371.822701" y="90.017725">17</text>
   </g>
   <g id="text_50">
    <text style="font-family:DejaVu Sans;font-size:10px;font-stretch:normal;font-style:normal;font-weight:normal;text-anchor:middle;" transform="rotate(-0, 361.944165, 49.955475)" x="361.944165" y="49.955475">18</text>
   </g>
   <g id="text_51">
    <text style="font-family:DejaVu Sans;font-size:10px;font-stretch:normal;font-style:normal;font-weight:normal;text-anchor:middle;" transform="rotate(-0, 417.298428, 90.017725)" x="417.298428" y="90.017725">7</text>
   </g>
   <g id="text_52">
    <text style="font-family:DejaVu Sans;font-size:10px;font-stretch:normal;font-style:normal;font-weight:normal;text-anchor:middle;" transform="rotate(-0, 413.264233, 49.955475)" x="413.264233" y="49.955475">10</text>
   </g>
   <g id="text_53">
    <text style="font-family:DejaVu Sans;font-size:12px;font-stretch:normal;font-style:normal;font-weight:normal;text-anchor:middle;" transform="rotate(-0, 257.593359, 19.918125)" x="257.593359" y="19.918125">Reasons to choose current job: Germany</text>
   </g>
   <g id="legend_1">
    <g id="patch_49">
     <path d="M 20.281641 337.666687 
L 494.905078 337.666687 
Q 496.905078 337.666687 496.905078 335.666687 
L 496.905078 263.276062 
Q 496.905078 261.276062 494.905078 261.276062 
L 20.281641 261.276062 
Q 18.281641 261.276062 18.281641 263.276062 
L 18.281641 335.666687 
Q 18.281641 337.666687 20.281641 337.666687 
z
" style="fill:#ffffff;opacity:0.8;stroke:#cccccc;stroke-linejoin:miter;"/>
    </g>
    <g id="patch_50">
     <path d="M 22.281641 272.8745 
L 42.281641 272.8745 
L 42.281641 265.8745 
L 22.281641 265.8745 
z
" style="fill:#1f77b4;"/>
    </g>
    <g id="text_54">
     <text style="font-family:DejaVu Sans;font-size:10px;font-stretch:normal;font-style:normal;font-weight:normal;text-anchor:start;" transform="rotate(-0, 50.281641, 272.8745)" x="50.281641" y="272.8745">Desire to work in a research environment</text>
    </g>
    <g id="patch_51">
     <path d="M 22.281641 287.552625 
L 42.281641 287.552625 
L 42.281641 280.552625 
L 22.281641 280.552625 
z
" style="fill:#ff7f0e;"/>
    </g>
    <g id="text_55">
     <text style="font-family:DejaVu Sans;font-size:10px;font-stretch:normal;font-style:normal;font-weight:normal;text-anchor:start;" transform="rotate(-0, 50.281641, 287.552625)" x="50.281641" y="287.552625">Freedom to choose own working practices</text>
    </g>
    <g id="patch_52">
     <path d="M 22.281641 302.23075 
L 42.281641 302.23075 
L 42.281641 295.23075 
L 22.281641 295.23075 
z
" style="fill:#2ca02c;"/>
    </g>
    <g id="text_56">
     <text style="font-family:DejaVu Sans;font-size:10px;font-stretch:normal;font-style:normal;font-weight:normal;text-anchor:start;" transform="rotate(-0, 50.281641, 302.23075)" x="50.281641" y="302.23075">Desire to advance research</text>
    </g>
    <g id="patch_53">
     <path d="M 22.281641 316.908875 
L 42.281641 316.908875 
L 42.281641 309.908875 
L 22.281641 309.908875 
z
" style="fill:#d62728;"/>
    </g>
    <g id="text_57">
     <text style="font-family:DejaVu Sans;font-size:10px;font-stretch:normal;font-style:normal;font-weight:normal;text-anchor:start;" transform="rotate(-0, 50.281641, 316.908875)" x="50.281641" y="316.908875">I want to learn new skills</text>
    </g>
    <g id="patch_54">
     <path d="M 22.281641 331.587 
L 42.281641 331.587 
L 42.281641 324.587 
L 22.281641 324.587 
z
" style="fill:#9467bd;"/>
    </g>
    <g id="text_58">
     <text style="font-family:DejaVu Sans;font-size:10px;font-stretch:normal;font-style:normal;font-weight:normal;text-anchor:start;" transform="rotate(-0, 50.281641, 331.587)" x="50.281641" y="331.587">Opportunity to develop software</text>
    </g>
    <g id="patch_55">
     <path d="M 281.016016 272.8745 
L 301.016016 272.8745 
L 301.016016 265.8745 
L 281.016016 265.8745 
z
" style="fill:#8c564b;"/>
    </g>
    <g id="text_59">
     <text style="font-family:DejaVu Sans;font-size:10px;font-stretch:normal;font-style:normal;font-weight:normal;text-anchor:start;" transform="rotate(-0, 309.016016, 272.8745)" x="309.016016" y="272.8745">Opportunity for career advancement</text>
    </g>
    <g id="patch_56">
     <path d="M 281.016016 287.552625 
L 301.016016 287.552625 
L 301.016016 280.552625 
L 281.016016 280.552625 
z
" style="fill:#e377c2;"/>
    </g>
    <g id="text_60">
     <text style="font-family:DejaVu Sans;font-size:10px;font-stretch:normal;font-style:normal;font-weight:normal;text-anchor:start;" transform="rotate(-0, 309.016016, 287.552625)" x="309.016016" y="287.552625">Ability to work across disciplines</text>
    </g>
    <g id="patch_57">
     <path d="M 281.016016 302.23075 
L 301.016016 302.23075 
L 301.016016 295.23075 
L 281.016016 295.23075 
z
" style="fill:#7f7f7f;"/>
    </g>
    <g id="text_61">
     <text style="font-family:DejaVu Sans;font-size:10px;font-stretch:normal;font-style:normal;font-weight:normal;text-anchor:start;" transform="rotate(-0, 309.016016, 302.23075)" x="309.016016" y="302.23075">Flexible working hours</text>
    </g>
    <g id="patch_58">
     <path d="M 281.016016 316.908875 
L 301.016016 316.908875 
L 301.016016 309.908875 
L 281.016016 309.908875 
z
" style="fill:#bcbd22;"/>
    </g>
    <g id="text_62">
     <text style="font-family:DejaVu Sans;font-size:10px;font-stretch:normal;font-style:normal;font-weight:normal;text-anchor:start;" transform="rotate(-0, 309.016016, 316.908875)" x="309.016016" y="316.908875">The salary</text>
    </g>
   </g>
  </g>
 </g>
 <defs>
  <clipPath id="pba05bf810c">
   <rect height="200.31125" width="383.189844" x="65.998438" y="25.918125"/>
  </clipPath>
 </defs>
</svg>
