<?xml version="1.0" encoding="utf-8" standalone="no"?>
<!DOCTYPE svg PUBLIC "-//W3C//DTD SVG 1.1//EN"
  "http://www.w3.org/Graphics/SVG/1.1/DTD/svg11.dtd">
<svg xmlns:xlink="http://www.w3.org/1999/xlink" width="504pt" height="360pt" viewBox="0 0 504 360" xmlns="http://www.w3.org/2000/svg" version="1.1">
 <metadata>
  <rdf:RDF xmlns:dc="http://purl.org/dc/elements/1.1/" xmlns:cc="http://creativecommons.org/ns#" xmlns:rdf="http://www.w3.org/1999/02/22-rdf-syntax-ns#">
   <cc:Work>
    <dc:type rdf:resource="http://purl.org/dc/dcmitype/StillImage"/>
    <dc:date>2022-03-21T11:49:07.111393</dc:date>
    <dc:format>image/svg+xml</dc:format>
    <dc:creator>
     <cc:Agent>
      <dc:title>Matplotlib v3.5.1, https://matplotlib.org/</dc:title>
     </cc:Agent>
    </dc:creator>
   </cc:Work>
  </rdf:RDF>
 </metadata>
 <defs>
  <style type="text/css">*{stroke-linejoin: round; stroke-linecap: butt}</style>
 </defs>
 <g id="figure_1">
  <g id="patch_1">
   <path d="M 0 360 
L 504 360 
L 504 0 
L 0 0 
z
" style="fill: #ffffff"/>
  </g>
  <g id="axes_1">
   <g id="patch_2">
    <path d="M 62.86875 237.980884 
L 487.347656 237.980884 
L 487.347656 25.43625 
L 62.86875 25.43625 
z
" style="fill: #ffffff"/>
   </g>
   <g id="patch_3">
    <path d="M 62.86875 227.353653 
L 180.23619 227.353653 
L 180.23619 206.099189 
L 62.86875 206.099189 
z
" clip-path="url(#p05f6cb8a1f)" style="fill: #1f77b4"/>
   </g>
   <g id="patch_4">
    <path d="M 62.86875 184.844726 
L 130.246354 184.844726 
L 130.246354 163.590262 
L 62.86875 163.590262 
z
" clip-path="url(#p05f6cb8a1f)" style="fill: #1f77b4"/>
   </g>
   <g id="patch_5">
    <path d="M 62.86875 142.335799 
L 132.56972 142.335799 
L 132.56972 121.081335 
L 62.86875 121.081335 
z
" clip-path="url(#p05f6cb8a1f)" style="fill: #1f77b4"/>
   </g>
   <g id="patch_6">
    <path d="M 62.86875 99.826872 
L 77.841551 99.826872 
L 77.841551 78.572409 
L 62.86875 78.572409 
z
" clip-path="url(#p05f6cb8a1f)" style="fill: #1f77b4"/>
   </g>
   <g id="patch_7">
    <path d="M 62.86875 57.317945 
L 62.86875 57.317945 
L 62.86875 36.063482 
L 62.86875 36.063482 
z
" clip-path="url(#p05f6cb8a1f)" style="fill: #1f77b4"/>
   </g>
   <g id="patch_8">
    <path d="M 180.23619 227.353653 
L 284.562802 227.353653 
L 284.562802 206.099189 
L 180.23619 206.099189 
z
" clip-path="url(#p05f6cb8a1f)" style="fill: #ff7f0e"/>
   </g>
   <g id="patch_9">
    <path d="M 130.246354 184.844726 
L 211.099479 184.844726 
L 211.099479 163.590262 
L 130.246354 163.590262 
z
" clip-path="url(#p05f6cb8a1f)" style="fill: #ff7f0e"/>
   </g>
   <g id="patch_10">
    <path d="M 132.56972 142.335799 
L 160.450108 142.335799 
L 160.450108 121.081335 
L 132.56972 121.081335 
z
" clip-path="url(#p05f6cb8a1f)" style="fill: #ff7f0e"/>
   </g>
   <g id="patch_11">
    <path d="M 77.841551 99.826872 
L 152.705556 99.826872 
L 152.705556 78.572409 
L 77.841551 78.572409 
z
" clip-path="url(#p05f6cb8a1f)" style="fill: #ff7f0e"/>
   </g>
   <g id="patch_12">
    <path d="M 62.86875 57.317945 
L 84.145888 57.317945 
L 84.145888 36.063482 
L 62.86875 36.063482 
z
" clip-path="url(#p05f6cb8a1f)" style="fill: #ff7f0e"/>
   </g>
   <g id="patch_13">
    <path d="M 284.562802 227.353653 
L 362.807762 227.353653 
L 362.807762 206.099189 
L 284.562802 206.099189 
z
" clip-path="url(#p05f6cb8a1f)" style="fill: #2ca02c"/>
   </g>
   <g id="patch_14">
    <path d="M 211.099479 184.844726 
L 265.001562 184.844726 
L 265.001562 163.590262 
L 211.099479 163.590262 
z
" clip-path="url(#p05f6cb8a1f)" style="fill: #2ca02c"/>
   </g>
   <g id="patch_15">
    <path d="M 160.450108 142.335799 
L 202.27069 142.335799 
L 202.27069 121.081335 
L 160.450108 121.081335 
z
" clip-path="url(#p05f6cb8a1f)" style="fill: #2ca02c"/>
   </g>
   <g id="patch_16">
    <path d="M 152.705556 99.826872 
L 227.56956 99.826872 
L 227.56956 78.572409 
L 152.705556 78.572409 
z
" clip-path="url(#p05f6cb8a1f)" style="fill: #2ca02c"/>
   </g>
   <g id="patch_17">
    <path d="M 84.145888 57.317945 
L 169.254441 57.317945 
L 169.254441 36.063482 
L 84.145888 36.063482 
z
" clip-path="url(#p05f6cb8a1f)" style="fill: #2ca02c"/>
   </g>
   <g id="patch_18">
    <path d="M 362.807762 227.353653 
L 414.971069 227.353653 
L 414.971069 206.099189 
L 362.807762 206.099189 
z
" clip-path="url(#p05f6cb8a1f)" style="fill: #d62728"/>
   </g>
   <g id="patch_19">
    <path d="M 265.001562 184.844726 
L 278.477083 184.844726 
L 278.477083 163.590262 
L 265.001562 163.590262 
z
" clip-path="url(#p05f6cb8a1f)" style="fill: #d62728"/>
   </g>
   <g id="patch_20">
    <path d="M 62.86875 142.335799 
L 62.86875 142.335799 
L 62.86875 121.081335 
L 62.86875 121.081335 
z
" clip-path="url(#p05f6cb8a1f)" style="fill: #d62728"/>
   </g>
   <g id="patch_21">
    <path d="M 62.86875 99.826872 
L 62.86875 99.826872 
L 62.86875 78.572409 
L 62.86875 78.572409 
z
" clip-path="url(#p05f6cb8a1f)" style="fill: #d62728"/>
   </g>
   <g id="patch_22">
    <path d="M 169.254441 57.317945 
L 233.085855 57.317945 
L 233.085855 36.063482 
L 169.254441 36.063482 
z
" clip-path="url(#p05f6cb8a1f)" style="fill: #d62728"/>
   </g>
   <g id="patch_23">
    <path d="M 414.971069 227.353653 
L 454.093548 227.353653 
L 454.093548 206.099189 
L 414.971069 206.099189 
z
" clip-path="url(#p05f6cb8a1f)" style="fill: #9467bd"/>
   </g>
   <g id="patch_24">
    <path d="M 278.477083 184.844726 
L 332.379167 184.844726 
L 332.379167 163.590262 
L 278.477083 163.590262 
z
" clip-path="url(#p05f6cb8a1f)" style="fill: #9467bd"/>
   </g>
   <g id="patch_25">
    <path d="M 202.27069 142.335799 
L 230.151078 142.335799 
L 230.151078 121.081335 
L 202.27069 121.081335 
z
" clip-path="url(#p05f6cb8a1f)" style="fill: #9467bd"/>
   </g>
   <g id="patch_26">
    <path d="M 227.56956 99.826872 
L 272.487963 99.826872 
L 272.487963 78.572409 
L 227.56956 78.572409 
z
" clip-path="url(#p05f6cb8a1f)" style="fill: #9467bd"/>
   </g>
   <g id="patch_27">
    <path d="M 233.085855 57.317945 
L 318.194408 57.317945 
L 318.194408 36.063482 
L 233.085855 36.063482 
z
" clip-path="url(#p05f6cb8a1f)" style="fill: #9467bd"/>
   </g>
   <g id="patch_28">
    <path d="M 454.093548 227.353653 
L 467.134375 227.353653 
L 467.134375 206.099189 
L 454.093548 206.099189 
z
" clip-path="url(#p05f6cb8a1f)" style="fill: #8c564b"/>
   </g>
   <g id="patch_29">
    <path d="M 332.379167 184.844726 
L 372.805729 184.844726 
L 372.805729 163.590262 
L 332.379167 163.590262 
z
" clip-path="url(#p05f6cb8a1f)" style="fill: #8c564b"/>
   </g>
   <g id="patch_30">
    <path d="M 230.151078 142.335799 
L 313.792241 142.335799 
L 313.792241 121.081335 
L 230.151078 121.081335 
z
" clip-path="url(#p05f6cb8a1f)" style="fill: #8c564b"/>
   </g>
   <g id="patch_31">
    <path d="M 272.487963 99.826872 
L 302.433565 99.826872 
L 302.433565 78.572409 
L 272.487963 78.572409 
z
" clip-path="url(#p05f6cb8a1f)" style="fill: #8c564b"/>
   </g>
   <g id="patch_32">
    <path d="M 318.194408 57.317945 
L 360.748684 57.317945 
L 360.748684 36.063482 
L 318.194408 36.063482 
z
" clip-path="url(#p05f6cb8a1f)" style="fill: #8c564b"/>
   </g>
   <g id="patch_33">
    <path d="M 62.86875 227.353653 
L 62.86875 227.353653 
L 62.86875 206.099189 
L 62.86875 206.099189 
z
" clip-path="url(#p05f6cb8a1f)" style="fill: #e377c2"/>
   </g>
   <g id="patch_34">
    <path d="M 372.805729 184.844726 
L 413.232292 184.844726 
L 413.232292 163.590262 
L 372.805729 163.590262 
z
" clip-path="url(#p05f6cb8a1f)" style="fill: #e377c2"/>
   </g>
   <g id="patch_35">
    <path d="M 313.792241 142.335799 
L 341.672629 142.335799 
L 341.672629 121.081335 
L 313.792241 121.081335 
z
" clip-path="url(#p05f6cb8a1f)" style="fill: #e377c2"/>
   </g>
   <g id="patch_36">
    <path d="M 302.433565 99.826872 
L 392.27037 99.826872 
L 392.27037 78.572409 
L 302.433565 78.572409 
z
" clip-path="url(#p05f6cb8a1f)" style="fill: #e377c2"/>
   </g>
   <g id="patch_37">
    <path d="M 360.748684 57.317945 
L 403.302961 57.317945 
L 403.302961 36.063482 
L 360.748684 36.063482 
z
" clip-path="url(#p05f6cb8a1f)" style="fill: #e377c2"/>
   </g>
   <g id="patch_38">
    <path d="M 62.86875 227.353653 
L 62.86875 227.353653 
L 62.86875 206.099189 
L 62.86875 206.099189 
z
" clip-path="url(#p05f6cb8a1f)" style="fill: #7f7f7f"/>
   </g>
   <g id="patch_39">
    <path d="M 413.232292 184.844726 
L 440.183333 184.844726 
L 440.183333 163.590262 
L 413.232292 163.590262 
z
" clip-path="url(#p05f6cb8a1f)" style="fill: #7f7f7f"/>
   </g>
   <g id="patch_40">
    <path d="M 341.672629 142.335799 
L 425.313793 142.335799 
L 425.313793 121.081335 
L 341.672629 121.081335 
z
" clip-path="url(#p05f6cb8a1f)" style="fill: #7f7f7f"/>
   </g>
   <g id="patch_41">
    <path d="M 392.27037 99.826872 
L 467.134375 99.826872 
L 467.134375 78.572409 
L 392.27037 78.572409 
z
" clip-path="url(#p05f6cb8a1f)" style="fill: #7f7f7f"/>
   </g>
   <g id="patch_42">
    <path d="M 403.302961 57.317945 
L 445.857237 57.317945 
L 445.857237 36.063482 
L 403.302961 36.063482 
z
" clip-path="url(#p05f6cb8a1f)" style="fill: #7f7f7f"/>
   </g>
   <g id="patch_43">
    <path d="M 62.86875 227.353653 
L 62.86875 227.353653 
L 62.86875 206.099189 
L 62.86875 206.099189 
z
" clip-path="url(#p05f6cb8a1f)" style="fill: #bcbd22"/>
   </g>
   <g id="patch_44">
    <path d="M 440.183333 184.844726 
L 467.134375 184.844726 
L 467.134375 163.590262 
L 440.183333 163.590262 
z
" clip-path="url(#p05f6cb8a1f)" style="fill: #bcbd22"/>
   </g>
   <g id="patch_45">
    <path d="M 425.313793 142.335799 
L 467.134375 142.335799 
L 467.134375 121.081335 
L 425.313793 121.081335 
z
" clip-path="url(#p05f6cb8a1f)" style="fill: #bcbd22"/>
   </g>
   <g id="patch_46">
    <path d="M 62.86875 99.826872 
L 62.86875 99.826872 
L 62.86875 78.572409 
L 62.86875 78.572409 
z
" clip-path="url(#p05f6cb8a1f)" style="fill: #bcbd22"/>
   </g>
   <g id="patch_47">
    <path d="M 445.857237 57.317945 
L 467.134375 57.317945 
L 467.134375 36.063482 
L 445.857237 36.063482 
z
" clip-path="url(#p05f6cb8a1f)" style="fill: #bcbd22"/>
   </g>
   <g id="matplotlib.axis_1">
    <g id="xtick_1">
     <g id="line2d_1">
      <defs>
       <path id="m4c99cd72f3" d="M 0 0 
L 0 3.5 
" style="stroke: #000000; stroke-width: 0.8"/>
      </defs>
      <g>
       <use xlink:href="#m4c99cd72f3" x="62.86875" y="237.980884" style="stroke: #000000; stroke-width: 0.8"/>
      </g>
     </g>
     <g id="text_1">
      <text style="font: 10px 'sans-serif'; text-anchor: middle" x="62.86875" y="252.154322" transform="rotate(-0, 62.86875, 252.154322)">0</text>
     </g>
    </g>
    <g id="xtick_2">
     <g id="line2d_2">
      <g>
       <use xlink:href="#m4c99cd72f3" x="143.721875" y="237.980884" style="stroke: #000000; stroke-width: 0.8"/>
      </g>
     </g>
     <g id="text_2">
      <text style="font: 10px 'sans-serif'; text-anchor: middle" x="143.721875" y="252.154322" transform="rotate(-0, 143.721875, 252.154322)">20</text>
     </g>
    </g>
    <g id="xtick_3">
     <g id="line2d_3">
      <g>
       <use xlink:href="#m4c99cd72f3" x="224.575" y="237.980884" style="stroke: #000000; stroke-width: 0.8"/>
      </g>
     </g>
     <g id="text_3">
      <text style="font: 10px 'sans-serif'; text-anchor: middle" x="224.575" y="252.154322" transform="rotate(-0, 224.575, 252.154322)">40</text>
     </g>
    </g>
    <g id="xtick_4">
     <g id="line2d_4">
      <g>
       <use xlink:href="#m4c99cd72f3" x="305.428125" y="237.980884" style="stroke: #000000; stroke-width: 0.8"/>
      </g>
     </g>
     <g id="text_4">
      <text style="font: 10px 'sans-serif'; text-anchor: middle" x="305.428125" y="252.154322" transform="rotate(-0, 305.428125, 252.154322)">60</text>
     </g>
    </g>
    <g id="xtick_5">
     <g id="line2d_5">
      <g>
       <use xlink:href="#m4c99cd72f3" x="386.28125" y="237.980884" style="stroke: #000000; stroke-width: 0.8"/>
      </g>
     </g>
     <g id="text_5">
      <text style="font: 10px 'sans-serif'; text-anchor: middle" x="386.28125" y="252.154322" transform="rotate(-0, 386.28125, 252.154322)">80</text>
     </g>
    </g>
    <g id="xtick_6">
     <g id="line2d_6">
      <g>
       <use xlink:href="#m4c99cd72f3" x="467.134375" y="237.980884" style="stroke: #000000; stroke-width: 0.8"/>
      </g>
     </g>
     <g id="text_6">
      <text style="font: 10px 'sans-serif'; text-anchor: middle" x="467.134375" y="252.154322" transform="rotate(-0, 467.134375, 252.154322)">100</text>
     </g>
    </g>
    <g id="text_7">
     <text style="font: 10px 'sans-serif'; text-anchor: middle" x="275.108203" y="265.513697" transform="rotate(-0, 275.108203, 265.513697)">Ranking of importance</text>
    </g>
   </g>
   <g id="matplotlib.axis_2">
    <g id="ytick_1">
     <g id="line2d_7">
      <defs>
       <path id="m8e343aef83" d="M 0 0 
L -3.5 0 
" style="stroke: #000000; stroke-width: 0.8"/>
      </defs>
      <g>
       <use xlink:href="#m8e343aef83" x="62.86875" y="216.726421" style="stroke: #000000; stroke-width: 0.8"/>
      </g>
     </g>
     <g id="text_8">
      <text style="font: 10px 'sans-serif'; text-anchor: end" x="55.86875" y="220.31314" transform="rotate(-0, 55.86875, 220.31314)">Rank 1</text>
     </g>
    </g>
    <g id="ytick_2">
     <g id="line2d_8">
      <g>
       <use xlink:href="#m8e343aef83" x="62.86875" y="174.217494" style="stroke: #000000; stroke-width: 0.8"/>
      </g>
     </g>
     <g id="text_9">
      <text style="font: 10px 'sans-serif'; text-anchor: end" x="55.86875" y="177.804213" transform="rotate(-0, 55.86875, 177.804213)">Rank 2</text>
     </g>
    </g>
    <g id="ytick_3">
     <g id="line2d_9">
      <g>
       <use xlink:href="#m8e343aef83" x="62.86875" y="131.708567" style="stroke: #000000; stroke-width: 0.8"/>
      </g>
     </g>
     <g id="text_10">
      <text style="font: 10px 'sans-serif'; text-anchor: end" x="55.86875" y="135.295286" transform="rotate(-0, 55.86875, 135.295286)">Rank 3</text>
     </g>
    </g>
    <g id="ytick_4">
     <g id="line2d_10">
      <g>
       <use xlink:href="#m8e343aef83" x="62.86875" y="89.19964" style="stroke: #000000; stroke-width: 0.8"/>
      </g>
     </g>
     <g id="text_11">
      <text style="font: 10px 'sans-serif'; text-anchor: end" x="55.86875" y="92.786359" transform="rotate(-0, 55.86875, 92.786359)">Rank 4</text>
     </g>
    </g>
    <g id="ytick_5">
     <g id="line2d_11">
      <g>
       <use xlink:href="#m8e343aef83" x="62.86875" y="46.690713" style="stroke: #000000; stroke-width: 0.8"/>
      </g>
     </g>
     <g id="text_12">
      <text style="font: 10px 'sans-serif'; text-anchor: end" x="55.86875" y="50.277432" transform="rotate(-0, 55.86875, 50.277432)">Rank 5</text>
     </g>
    </g>
    <g id="text_13">
     <text style="font: 10px 'sans-serif'; text-anchor: middle" x="17.973438" y="131.708567" transform="rotate(-90, 17.973438, 131.708567)">Percentage</text>
    </g>
   </g>
   <g id="patch_48">
    <path d="M 62.86875 237.980884 
L 487.347656 237.980884 
" style="fill: none; stroke: #000000; stroke-width: 0.8; stroke-linejoin: miter; stroke-linecap: square"/>
   </g>
   <g id="text_14">
    <text style="font: 10px 'sans-serif'; text-anchor: middle" x="121.55247" y="220.977314" transform="rotate(-0, 121.55247, 220.977314)">29</text>
   </g>
   <g id="text_15">
    <text style="font: 10px 'sans-serif'; text-anchor: middle" x="96.557552" y="178.468387" transform="rotate(-0, 96.557552, 178.468387)">17</text>
   </g>
   <g id="text_16">
    <text style="font: 10px 'sans-serif'; text-anchor: middle" x="97.719235" y="135.95946" transform="rotate(-0, 97.719235, 135.95946)">17</text>
   </g>
   <g id="text_17">
    <text style="font: 10px 'sans-serif'; text-anchor: middle" x="232.399496" y="220.977314" transform="rotate(-0, 232.399496, 220.977314)">26</text>
   </g>
   <g id="text_18">
    <text style="font: 10px 'sans-serif'; text-anchor: middle" x="170.672917" y="178.468387" transform="rotate(-0, 170.672917, 178.468387)">20</text>
   </g>
   <g id="text_19">
    <text style="font: 10px 'sans-serif'; text-anchor: middle" x="146.509914" y="135.95946" transform="rotate(-0, 146.509914, 135.95946)">7</text>
   </g>
   <g id="text_20">
    <text style="font: 10px 'sans-serif'; text-anchor: middle" x="115.273553" y="93.450533" transform="rotate(-0, 115.273553, 93.450533)">19</text>
   </g>
   <g id="text_21">
    <text style="font: 10px 'sans-serif'; text-anchor: middle" x="73.507319" y="50.941606" transform="rotate(-0, 73.507319, 50.941606)">5</text>
   </g>
   <g id="text_22">
    <text style="font: 10px 'sans-serif'; text-anchor: middle" x="323.685282" y="220.977314" transform="rotate(-0, 323.685282, 220.977314)">19</text>
   </g>
   <g id="text_23">
    <text style="font: 10px 'sans-serif'; text-anchor: middle" x="238.050521" y="178.468387" transform="rotate(-0, 238.050521, 178.468387)">13</text>
   </g>
   <g id="text_24">
    <text style="font: 10px 'sans-serif'; text-anchor: middle" x="181.360399" y="135.95946" transform="rotate(-0, 181.360399, 135.95946)">10</text>
   </g>
   <g id="text_25">
    <text style="font: 10px 'sans-serif'; text-anchor: middle" x="190.137558" y="93.450533" transform="rotate(-0, 190.137558, 93.450533)">19</text>
   </g>
   <g id="text_26">
    <text style="font: 10px 'sans-serif'; text-anchor: middle" x="126.700164" y="50.941606" transform="rotate(-0, 126.700164, 50.941606)">21</text>
   </g>
   <g id="text_27">
    <text style="font: 10px 'sans-serif'; text-anchor: middle" x="388.889415" y="220.977314" transform="rotate(-0, 388.889415, 220.977314)">13</text>
   </g>
   <g id="text_28">
    <text style="font: 10px 'sans-serif'; text-anchor: middle" x="201.170148" y="50.941606" transform="rotate(-0, 201.170148, 50.941606)">16</text>
   </g>
   <g id="text_29">
    <text style="font: 10px 'sans-serif'; text-anchor: middle" x="434.532308" y="220.977314" transform="rotate(-0, 434.532308, 220.977314)">10</text>
   </g>
   <g id="text_30">
    <text style="font: 10px 'sans-serif'; text-anchor: middle" x="305.428125" y="178.468387" transform="rotate(-0, 305.428125, 178.468387)">13</text>
   </g>
   <g id="text_31">
    <text style="font: 10px 'sans-serif'; text-anchor: middle" x="216.210884" y="135.95946" transform="rotate(-0, 216.210884, 135.95946)">7</text>
   </g>
   <g id="text_32">
    <text style="font: 10px 'sans-serif'; text-anchor: middle" x="250.028762" y="93.450533" transform="rotate(-0, 250.028762, 93.450533)">11</text>
   </g>
   <g id="text_33">
    <text style="font: 10px 'sans-serif'; text-anchor: middle" x="275.640132" y="50.941606" transform="rotate(-0, 275.640132, 50.941606)">21</text>
   </g>
   <g id="text_34">
    <text style="font: 10px 'sans-serif'; text-anchor: middle" x="352.592448" y="178.468387" transform="rotate(-0, 352.592448, 178.468387)">10</text>
   </g>
   <g id="text_35">
    <text style="font: 10px 'sans-serif'; text-anchor: middle" x="271.971659" y="135.95946" transform="rotate(-0, 271.971659, 135.95946)">21</text>
   </g>
   <g id="text_36">
    <text style="font: 10px 'sans-serif'; text-anchor: middle" x="287.460764" y="93.450533" transform="rotate(-0, 287.460764, 93.450533)">7</text>
   </g>
   <g id="text_37">
    <text style="font: 10px 'sans-serif'; text-anchor: middle" x="339.471546" y="50.941606" transform="rotate(-0, 339.471546, 50.941606)">11</text>
   </g>
   <g id="text_38">
    <text style="font: 10px 'sans-serif'; text-anchor: middle" x="393.01901" y="178.468387" transform="rotate(-0, 393.01901, 178.468387)">10</text>
   </g>
   <g id="text_39">
    <text style="font: 10px 'sans-serif'; text-anchor: middle" x="327.732435" y="135.95946" transform="rotate(-0, 327.732435, 135.95946)">7</text>
   </g>
   <g id="text_40">
    <text style="font: 10px 'sans-serif'; text-anchor: middle" x="347.351968" y="93.450533" transform="rotate(-0, 347.351968, 93.450533)">22</text>
   </g>
   <g id="text_41">
    <text style="font: 10px 'sans-serif'; text-anchor: middle" x="382.025822" y="50.941606" transform="rotate(-0, 382.025822, 50.941606)">11</text>
   </g>
   <g id="text_42">
    <text style="font: 10px 'sans-serif'; text-anchor: middle" x="426.707813" y="178.468387" transform="rotate(-0, 426.707813, 178.468387)">7</text>
   </g>
   <g id="text_43">
    <text style="font: 10px 'sans-serif'; text-anchor: middle" x="383.493211" y="135.95946" transform="rotate(-0, 383.493211, 135.95946)">21</text>
   </g>
   <g id="text_44">
    <text style="font: 10px 'sans-serif'; text-anchor: middle" x="429.702373" y="93.450533" transform="rotate(-0, 429.702373, 93.450533)">19</text>
   </g>
   <g id="text_45">
    <text style="font: 10px 'sans-serif'; text-anchor: middle" x="424.580099" y="50.941606" transform="rotate(-0, 424.580099, 50.941606)">11</text>
   </g>
   <g id="text_46">
    <text style="font: 10px 'sans-serif'; text-anchor: middle" x="453.658854" y="178.468387" transform="rotate(-0, 453.658854, 178.468387)">7</text>
   </g>
   <g id="text_47">
    <text style="font: 10px 'sans-serif'; text-anchor: middle" x="446.224084" y="135.95946" transform="rotate(-0, 446.224084, 135.95946)">10</text>
   </g>
   <g id="text_48">
    <text style="font: 10px 'sans-serif'; text-anchor: middle" x="456.495806" y="50.941606" transform="rotate(-0, 456.495806, 50.941606)">5</text>
   </g>
   <g id="text_49">
    <text style="font: 12px 'sans-serif'; text-anchor: middle" x="275.108203" y="19.43625" transform="rotate(-0, 275.108203, 19.43625)">Reasons to choose current job: Australia</text>
   </g>
   <g id="legend_1">
    <g id="patch_49">
     <path d="M 61.424609 349.58133 
L 488.791797 349.58133 
Q 490.791797 349.58133 490.791797 347.58133 
L 490.791797 276.86258 
Q 490.791797 274.86258 488.791797 274.86258 
L 61.424609 274.86258 
Q 59.424609 274.86258 59.424609 276.86258 
L 59.424609 347.58133 
Q 59.424609 349.58133 61.424609 349.58133 
z
" style="fill: #ffffff; opacity: 0.8; stroke: #cccccc; stroke-linejoin: miter"/>
    </g>
    <g id="patch_50">
     <path d="M 63.424609 286.23133 
L 83.424609 286.23133 
L 83.424609 279.23133 
L 63.424609 279.23133 
z
" style="fill: #1f77b4"/>
    </g>
    <g id="text_50">
     <text style="font: 10px 'sans-serif'; text-anchor: start" x="91.424609" y="286.23133" transform="rotate(-0, 91.424609, 286.23133)">Desire to work in a research environment</text>
    </g>
    <g id="patch_51">
     <path d="M 63.424609 300.489142 
L 83.424609 300.489142 
L 83.424609 293.489142 
L 63.424609 293.489142 
z
" style="fill: #ff7f0e"/>
    </g>
    <g id="text_51">
     <text style="font: 10px 'sans-serif'; text-anchor: start" x="91.424609" y="300.489142" transform="rotate(-0, 91.424609, 300.489142)">Desire to advance research</text>
    </g>
    <g id="patch_52">
     <path d="M 63.424609 314.770392 
L 83.424609 314.770392 
L 83.424609 307.770392 
L 63.424609 307.770392 
z
" style="fill: #2ca02c"/>
    </g>
    <g id="text_52">
     <text style="font: 10px 'sans-serif'; text-anchor: start" x="91.424609" y="314.770392" transform="rotate(-0, 91.424609, 314.770392)">Freedom to choose own working practices</text>
    </g>
    <g id="patch_53">
     <path d="M 63.424609 329.179767 
L 83.424609 329.179767 
L 83.424609 322.179767 
L 63.424609 322.179767 
z
" style="fill: #d62728"/>
    </g>
    <g id="text_53">
     <text style="font: 10px 'sans-serif'; text-anchor: start" x="91.424609" y="329.179767" transform="rotate(-0, 91.424609, 329.179767)">The salary</text>
    </g>
    <g id="patch_54">
     <path d="M 63.424609 343.496955 
L 83.424609 343.496955 
L 83.424609 336.496955 
L 63.424609 336.496955 
z
" style="fill: #9467bd"/>
    </g>
    <g id="text_54">
     <text style="font: 10px 'sans-serif'; text-anchor: start" x="91.424609" y="343.496955" transform="rotate(-0, 91.424609, 343.496955)">I want to learn new skills</text>
    </g>
    <g id="patch_55">
     <path d="M 298.721484 286.23133 
L 318.721484 286.23133 
L 318.721484 279.23133 
L 298.721484 279.23133 
z
" style="fill: #8c564b"/>
    </g>
    <g id="text_55">
     <text style="font: 10px 'sans-serif'; text-anchor: start" x="326.721484" y="286.23133" transform="rotate(-0, 326.721484, 286.23133)">Opportunity to develop software</text>
    </g>
    <g id="patch_56">
     <path d="M 298.721484 300.571955 
L 318.721484 300.571955 
L 318.721484 293.571955 
L 298.721484 293.571955 
z
" style="fill: #e377c2"/>
    </g>
    <g id="text_56">
     <text style="font: 10px 'sans-serif'; text-anchor: start" x="326.721484" y="300.571955" transform="rotate(-0, 326.721484, 300.571955)">Ability to work across disciplines</text>
    </g>
    <g id="patch_57">
     <path d="M 298.721484 314.91258 
L 318.721484 314.91258 
L 318.721484 307.91258 
L 298.721484 307.91258 
z
" style="fill: #7f7f7f"/>
    </g>
    <g id="text_57">
     <text style="font: 10px 'sans-serif'; text-anchor: start" x="326.721484" y="314.91258" transform="rotate(-0, 326.721484, 314.91258)">Flexible working hours</text>
    </g>
    <g id="patch_58">
     <path d="M 298.721484 329.49383 
L 318.721484 329.49383 
L 318.721484 322.49383 
L 298.721484 322.49383 
z
" style="fill: #bcbd22"/>
    </g>
    <g id="text_58">
     <text style="font: 10px 'sans-serif'; text-anchor: start" x="326.721484" y="329.49383" transform="rotate(-0, 326.721484, 329.49383)">Opportunity for career advancement</text>
    </g>
   </g>
  </g>
 </g>
 <defs>
  <clipPath id="p05f6cb8a1f">
   <rect x="62.86875" y="25.43625" width="424.478906" height="212.544634"/>
  </clipPath>
 </defs>
</svg>
