<?xml version="1.0" encoding="utf-8" standalone="no"?>
<!DOCTYPE svg PUBLIC "-//W3C//DTD SVG 1.1//EN"
  "http://www.w3.org/Graphics/SVG/1.1/DTD/svg11.dtd">
<svg height="360pt" version="1.1" viewBox="0 0 504 360" width="504pt" xmlns="http://www.w3.org/2000/svg" xmlns:xlink="http://www.w3.org/1999/xlink">
 <metadata>
  <rdf:RDF xmlns:cc="http://creativecommons.org/ns#" xmlns:dc="http://purl.org/dc/elements/1.1/" xmlns:rdf="http://www.w3.org/1999/02/22-rdf-syntax-ns#">
   <cc:Work>
    <dc:type rdf:resource="http://purl.org/dc/dcmitype/StillImage"/>
    <dc:date>2021-06-09T15:04:23.290452</dc:date>
    <dc:format>image/svg+xml</dc:format>
    <dc:creator>
     <cc:Agent>
      <dc:title>Matplotlib v3.4.2, https://matplotlib.org/</dc:title>
     </cc:Agent>
    </dc:creator>
   </cc:Work>
  </rdf:RDF>
 </metadata>
 <defs>
  <style type="text/css">*{stroke-linecap:butt;stroke-linejoin:round;}</style>
 </defs>
 <g id="figure_1">
  <g id="patch_1">
   <path d="M 0 360 
L 504 360 
L 504 0 
L 0 0 
z
" style="fill:#ffffff;"/>
  </g>
  <g id="axes_1">
   <g id="patch_2">
    <path d="M 62.745313 228.530937 
L 472.816406 228.530937 
L 472.816406 25.389375 
L 62.745313 25.389375 
z
" style="fill:#ffffff;"/>
   </g>
   <g id="patch_3">
    <path clip-path="url(#p05ee44dee9)" d="M 62.745313 218.373859 
L 179.908482 218.373859 
L 179.908482 198.059703 
L 62.745313 198.059703 
z
" style="fill:#1f77b4;"/>
   </g>
   <g id="patch_4">
    <path clip-path="url(#p05ee44dee9)" d="M 62.745313 177.745547 
L 117.421458 177.745547 
L 117.421458 157.431391 
L 62.745313 157.431391 
z
" style="fill:#1f77b4;"/>
   </g>
   <g id="patch_5">
    <path clip-path="url(#p05ee44dee9)" d="M 62.745313 137.117234 
L 86.177946 137.117234 
L 86.177946 116.803078 
L 62.745313 116.803078 
z
" style="fill:#1f77b4;"/>
   </g>
   <g id="patch_6">
    <path clip-path="url(#p05ee44dee9)" d="M 62.745313 96.488922 
L 101.799702 96.488922 
L 101.799702 76.174766 
L 62.745313 76.174766 
z
" style="fill:#1f77b4;"/>
   </g>
   <g id="patch_7">
    <path clip-path="url(#p05ee44dee9)" d="M 62.745313 55.860609 
L 86.177946 55.860609 
L 86.177946 35.546453 
L 62.745313 35.546453 
z
" style="fill:#1f77b4;"/>
   </g>
   <g id="patch_8">
    <path clip-path="url(#p05ee44dee9)" d="M 179.908482 218.373859 
L 265.82814 218.373859 
L 265.82814 198.059703 
L 179.908482 198.059703 
z
" style="fill:#ff7f0e;"/>
   </g>
   <g id="patch_9">
    <path clip-path="url(#p05ee44dee9)" d="M 117.421458 177.745547 
L 156.475848 177.745547 
L 156.475848 157.431391 
L 117.421458 157.431391 
z
" style="fill:#ff7f0e;"/>
   </g>
   <g id="patch_10">
    <path clip-path="url(#p05ee44dee9)" d="M 86.177946 137.117234 
L 133.043214 137.117234 
L 133.043214 116.803078 
L 86.177946 116.803078 
z
" style="fill:#ff7f0e;"/>
   </g>
   <g id="patch_11">
    <path clip-path="url(#p05ee44dee9)" d="M 101.799702 96.488922 
L 140.854092 96.488922 
L 140.854092 76.174766 
L 101.799702 76.174766 
z
" style="fill:#ff7f0e;"/>
   </g>
   <g id="patch_12">
    <path clip-path="url(#p05ee44dee9)" d="M 86.177946 55.860609 
L 117.421458 55.860609 
L 117.421458 35.546453 
L 86.177946 35.546453 
z
" style="fill:#ff7f0e;"/>
   </g>
   <g id="patch_13">
    <path clip-path="url(#p05ee44dee9)" d="M 265.82814 218.373859 
L 336.126042 218.373859 
L 336.126042 198.059703 
L 265.82814 198.059703 
z
" style="fill:#2ca02c;"/>
   </g>
   <g id="patch_14">
    <path clip-path="url(#p05ee44dee9)" d="M 156.475848 177.745547 
L 250.206384 177.745547 
L 250.206384 157.431391 
L 156.475848 157.431391 
z
" style="fill:#2ca02c;"/>
   </g>
   <g id="patch_15">
    <path clip-path="url(#p05ee44dee9)" d="M 133.043214 137.117234 
L 195.530238 137.117234 
L 195.530238 116.803078 
L 133.043214 116.803078 
z
" style="fill:#2ca02c;"/>
   </g>
   <g id="patch_16">
    <path clip-path="url(#p05ee44dee9)" d="M 140.854092 96.488922 
L 187.71936 96.488922 
L 187.71936 76.174766 
L 140.854092 76.174766 
z
" style="fill:#2ca02c;"/>
   </g>
   <g id="patch_17">
    <path clip-path="url(#p05ee44dee9)" d="M 117.421458 55.860609 
L 156.475848 55.860609 
L 156.475848 35.546453 
L 117.421458 35.546453 
z
" style="fill:#2ca02c;"/>
   </g>
   <g id="patch_18">
    <path clip-path="url(#p05ee44dee9)" d="M 336.126042 218.373859 
L 367.369554 218.373859 
L 367.369554 198.059703 
L 336.126042 198.059703 
z
" style="fill:#d62728;"/>
   </g>
   <g id="patch_19">
    <path clip-path="url(#p05ee44dee9)" d="M 250.206384 177.745547 
L 297.071652 177.745547 
L 297.071652 157.431391 
L 250.206384 157.431391 
z
" style="fill:#d62728;"/>
   </g>
   <g id="patch_20">
    <path clip-path="url(#p05ee44dee9)" d="M 195.530238 137.117234 
L 242.395506 137.117234 
L 242.395506 116.803078 
L 195.530238 116.803078 
z
" style="fill:#d62728;"/>
   </g>
   <g id="patch_21">
    <path clip-path="url(#p05ee44dee9)" d="M 187.71936 96.488922 
L 242.395506 96.488922 
L 242.395506 76.174766 
L 187.71936 76.174766 
z
" style="fill:#d62728;"/>
   </g>
   <g id="patch_22">
    <path clip-path="url(#p05ee44dee9)" d="M 156.475848 55.860609 
L 218.962872 55.860609 
L 218.962872 35.546453 
L 156.475848 35.546453 
z
" style="fill:#d62728;"/>
   </g>
   <g id="patch_23">
    <path clip-path="url(#p05ee44dee9)" d="M 367.369554 218.373859 
L 390.802188 218.373859 
L 390.802188 198.059703 
L 367.369554 198.059703 
z
" style="fill:#9467bd;"/>
   </g>
   <g id="patch_24">
    <path clip-path="url(#p05ee44dee9)" d="M 297.071652 177.745547 
L 312.693408 177.745547 
L 312.693408 157.431391 
L 297.071652 157.431391 
z
" style="fill:#9467bd;"/>
   </g>
   <g id="patch_25">
    <path clip-path="url(#p05ee44dee9)" d="M 242.395506 137.117234 
L 297.071652 137.117234 
L 297.071652 116.803078 
L 242.395506 116.803078 
z
" style="fill:#9467bd;"/>
   </g>
   <g id="patch_26">
    <path clip-path="url(#p05ee44dee9)" d="M 242.395506 96.488922 
L 297.071652 96.488922 
L 297.071652 76.174766 
L 242.395506 76.174766 
z
" style="fill:#9467bd;"/>
   </g>
   <g id="patch_27">
    <path clip-path="url(#p05ee44dee9)" d="M 218.962872 55.860609 
L 289.260774 55.860609 
L 289.260774 35.546453 
L 218.962872 35.546453 
z
" style="fill:#9467bd;"/>
   </g>
   <g id="patch_28">
    <path clip-path="url(#p05ee44dee9)" d="M 390.802188 218.373859 
L 414.234821 218.373859 
L 414.234821 198.059703 
L 390.802188 198.059703 
z
" style="fill:#8c564b;"/>
   </g>
   <g id="patch_29">
    <path clip-path="url(#p05ee44dee9)" d="M 312.693408 177.745547 
L 351.747798 177.745547 
L 351.747798 157.431391 
L 312.693408 157.431391 
z
" style="fill:#8c564b;"/>
   </g>
   <g id="patch_30">
    <path clip-path="url(#p05ee44dee9)" d="M 297.071652 137.117234 
L 312.693408 137.117234 
L 312.693408 116.803078 
L 297.071652 116.803078 
z
" style="fill:#8c564b;"/>
   </g>
   <g id="patch_31">
    <path clip-path="url(#p05ee44dee9)" d="M 297.071652 96.488922 
L 312.693408 96.488922 
L 312.693408 76.174766 
L 297.071652 76.174766 
z
" style="fill:#8c564b;"/>
   </g>
   <g id="patch_32">
    <path clip-path="url(#p05ee44dee9)" d="M 289.260774 55.860609 
L 320.504286 55.860609 
L 320.504286 35.546453 
L 289.260774 35.546453 
z
" style="fill:#8c564b;"/>
   </g>
   <g id="patch_33">
    <path clip-path="url(#p05ee44dee9)" d="M 414.234821 218.373859 
L 437.667455 218.373859 
L 437.667455 198.059703 
L 414.234821 198.059703 
z
" style="fill:#e377c2;"/>
   </g>
   <g id="patch_34">
    <path clip-path="url(#p05ee44dee9)" d="M 351.747798 177.745547 
L 414.234821 177.745547 
L 414.234821 157.431391 
L 351.747798 157.431391 
z
" style="fill:#e377c2;"/>
   </g>
   <g id="patch_35">
    <path clip-path="url(#p05ee44dee9)" d="M 312.693408 137.117234 
L 343.93692 137.117234 
L 343.93692 116.803078 
L 312.693408 116.803078 
z
" style="fill:#e377c2;"/>
   </g>
   <g id="patch_36">
    <path clip-path="url(#p05ee44dee9)" d="M 312.693408 96.488922 
L 375.180432 96.488922 
L 375.180432 76.174766 
L 312.693408 76.174766 
z
" style="fill:#e377c2;"/>
   </g>
   <g id="patch_37">
    <path clip-path="url(#p05ee44dee9)" d="M 320.504286 55.860609 
L 359.558676 55.860609 
L 359.558676 35.546453 
L 320.504286 35.546453 
z
" style="fill:#e377c2;"/>
   </g>
   <g id="patch_38">
    <path clip-path="url(#p05ee44dee9)" d="M 437.667455 218.373859 
L 453.289211 218.373859 
L 453.289211 198.059703 
L 437.667455 198.059703 
z
" style="fill:#7f7f7f;"/>
   </g>
   <g id="patch_39">
    <path clip-path="url(#p05ee44dee9)" d="M 414.234821 177.745547 
L 429.856577 177.745547 
L 429.856577 157.431391 
L 414.234821 157.431391 
z
" style="fill:#7f7f7f;"/>
   </g>
   <g id="patch_40">
    <path clip-path="url(#p05ee44dee9)" d="M 343.93692 137.117234 
L 375.180432 137.117234 
L 375.180432 116.803078 
L 343.93692 116.803078 
z
" style="fill:#7f7f7f;"/>
   </g>
   <g id="patch_41">
    <path clip-path="url(#p05ee44dee9)" d="M 375.180432 96.488922 
L 398.613065 96.488922 
L 398.613065 76.174766 
L 375.180432 76.174766 
z
" style="fill:#7f7f7f;"/>
   </g>
   <g id="patch_42">
    <path clip-path="url(#p05ee44dee9)" d="M 359.558676 55.860609 
L 406.423943 55.860609 
L 406.423943 35.546453 
L 359.558676 35.546453 
z
" style="fill:#7f7f7f;"/>
   </g>
   <g id="patch_43">
    <path clip-path="url(#p05ee44dee9)" d="M 62.745313 218.373859 
L 62.745313 218.373859 
L 62.745313 198.059703 
L 62.745313 198.059703 
z
" style="fill:#bcbd22;"/>
   </g>
   <g id="patch_44">
    <path clip-path="url(#p05ee44dee9)" d="M 429.856577 177.745547 
L 453.289211 177.745547 
L 453.289211 157.431391 
L 429.856577 157.431391 
z
" style="fill:#bcbd22;"/>
   </g>
   <g id="patch_45">
    <path clip-path="url(#p05ee44dee9)" d="M 375.180432 137.117234 
L 453.289211 137.117234 
L 453.289211 116.803078 
L 375.180432 116.803078 
z
" style="fill:#bcbd22;"/>
   </g>
   <g id="patch_46">
    <path clip-path="url(#p05ee44dee9)" d="M 398.613065 96.488922 
L 453.289211 96.488922 
L 453.289211 76.174766 
L 398.613065 76.174766 
z
" style="fill:#bcbd22;"/>
   </g>
   <g id="patch_47">
    <path clip-path="url(#p05ee44dee9)" d="M 406.423943 55.860609 
L 453.289211 55.860609 
L 453.289211 35.546453 
L 406.423943 35.546453 
z
" style="fill:#bcbd22;"/>
   </g>
   <g id="matplotlib.axis_1">
    <g id="xtick_1">
     <g id="line2d_1">
      <defs>
       <path d="M 0 0 
L 0 3.5 
" id="mc3a356a46d" style="stroke:#000000;stroke-width:0.8;"/>
      </defs>
      <g>
       <use style="stroke:#000000;stroke-width:0.8;" x="62.745313" xlink:href="#mc3a356a46d" y="228.530937"/>
      </g>
     </g>
     <g id="text_1">
      <text style="font-family:Arial;font-size:10px;font-stretch:normal;font-style:normal;font-weight:normal;text-anchor:middle;" transform="rotate(-0, 62.745313, 242.68875)" x="62.745313" y="242.68875">0</text>
     </g>
    </g>
    <g id="xtick_2">
     <g id="line2d_2">
      <g>
       <use style="stroke:#000000;stroke-width:0.8;" x="140.854092" xlink:href="#mc3a356a46d" y="228.530937"/>
      </g>
     </g>
     <g id="text_2">
      <text style="font-family:Arial;font-size:10px;font-stretch:normal;font-style:normal;font-weight:normal;text-anchor:middle;" transform="rotate(-0, 140.854092, 242.68875)" x="140.854092" y="242.68875">20</text>
     </g>
    </g>
    <g id="xtick_3">
     <g id="line2d_3">
      <g>
       <use style="stroke:#000000;stroke-width:0.8;" x="218.962872" xlink:href="#mc3a356a46d" y="228.530937"/>
      </g>
     </g>
     <g id="text_3">
      <text style="font-family:Arial;font-size:10px;font-stretch:normal;font-style:normal;font-weight:normal;text-anchor:middle;" transform="rotate(-0, 218.962872, 242.68875)" x="218.962872" y="242.68875">40</text>
     </g>
    </g>
    <g id="xtick_4">
     <g id="line2d_4">
      <g>
       <use style="stroke:#000000;stroke-width:0.8;" x="297.071652" xlink:href="#mc3a356a46d" y="228.530937"/>
      </g>
     </g>
     <g id="text_4">
      <text style="font-family:Arial;font-size:10px;font-stretch:normal;font-style:normal;font-weight:normal;text-anchor:middle;" transform="rotate(-0, 297.071652, 242.68875)" x="297.071652" y="242.68875">60</text>
     </g>
    </g>
    <g id="xtick_5">
     <g id="line2d_5">
      <g>
       <use style="stroke:#000000;stroke-width:0.8;" x="375.180432" xlink:href="#mc3a356a46d" y="228.530937"/>
      </g>
     </g>
     <g id="text_5">
      <text style="font-family:Arial;font-size:10px;font-stretch:normal;font-style:normal;font-weight:normal;text-anchor:middle;" transform="rotate(-0, 375.180432, 242.68875)" x="375.180432" y="242.68875">80</text>
     </g>
    </g>
    <g id="xtick_6">
     <g id="line2d_6">
      <g>
       <use style="stroke:#000000;stroke-width:0.8;" x="453.289211" xlink:href="#mc3a356a46d" y="228.530937"/>
      </g>
     </g>
     <g id="text_6">
      <text style="font-family:Arial;font-size:10px;font-stretch:normal;font-style:normal;font-weight:normal;text-anchor:middle;" transform="rotate(-0, 453.289211, 242.68875)" x="453.289211" y="242.68875">100</text>
     </g>
    </g>
    <g id="text_7">
     <text style="font-family:Arial;font-size:10px;font-stretch:normal;font-style:normal;font-weight:normal;text-anchor:middle;" transform="rotate(-0, 267.780859, 255.955937)" x="267.780859" y="255.955937">Ranking of importance</text>
    </g>
   </g>
   <g id="matplotlib.axis_2">
    <g id="ytick_1">
     <g id="line2d_7">
      <defs>
       <path d="M 0 0 
L -3.5 0 
" id="m82278324de" style="stroke:#000000;stroke-width:0.8;"/>
      </defs>
      <g>
       <use style="stroke:#000000;stroke-width:0.8;" x="62.745313" xlink:href="#m82278324de" y="208.216781"/>
      </g>
     </g>
     <g id="text_8">
      <text style="font-family:Arial;font-size:10px;font-stretch:normal;font-style:normal;font-weight:normal;text-anchor:end;" transform="rotate(-0, 55.745313, 211.795687)" x="55.745313" y="211.795687">Rank 1</text>
     </g>
    </g>
    <g id="ytick_2">
     <g id="line2d_8">
      <g>
       <use style="stroke:#000000;stroke-width:0.8;" x="62.745313" xlink:href="#m82278324de" y="167.588469"/>
      </g>
     </g>
     <g id="text_9">
      <text style="font-family:Arial;font-size:10px;font-stretch:normal;font-style:normal;font-weight:normal;text-anchor:end;" transform="rotate(-0, 55.745313, 171.167375)" x="55.745313" y="171.167375">Rank 2</text>
     </g>
    </g>
    <g id="ytick_3">
     <g id="line2d_9">
      <g>
       <use style="stroke:#000000;stroke-width:0.8;" x="62.745313" xlink:href="#m82278324de" y="126.960156"/>
      </g>
     </g>
     <g id="text_10">
      <text style="font-family:Arial;font-size:10px;font-stretch:normal;font-style:normal;font-weight:normal;text-anchor:end;" transform="rotate(-0, 55.745313, 130.539062)" x="55.745313" y="130.539062">Rank 3</text>
     </g>
    </g>
    <g id="ytick_4">
     <g id="line2d_10">
      <g>
       <use style="stroke:#000000;stroke-width:0.8;" x="62.745313" xlink:href="#m82278324de" y="86.331844"/>
      </g>
     </g>
     <g id="text_11">
      <text style="font-family:Arial;font-size:10px;font-stretch:normal;font-style:normal;font-weight:normal;text-anchor:end;" transform="rotate(-0, 55.745313, 89.91075)" x="55.745313" y="89.91075">Rank 4</text>
     </g>
    </g>
    <g id="ytick_5">
     <g id="line2d_11">
      <g>
       <use style="stroke:#000000;stroke-width:0.8;" x="62.745313" xlink:href="#m82278324de" y="45.703531"/>
      </g>
     </g>
     <g id="text_12">
      <text style="font-family:Arial;font-size:10px;font-stretch:normal;font-style:normal;font-weight:normal;text-anchor:end;" transform="rotate(-0, 55.745313, 49.282438)" x="55.745313" y="49.282438">Rank 5</text>
     </g>
    </g>
    <g id="text_13">
     <text style="font-family:Arial;font-size:10px;font-stretch:normal;font-style:normal;font-weight:normal;text-anchor:middle;" transform="rotate(-90, 17.957813, 126.960156)" x="17.957813" y="126.960156">Percentage</text>
    </g>
   </g>
   <g id="patch_48">
    <path d="M 62.745313 228.530937 
L 472.816406 228.530937 
" style="fill:none;stroke:#000000;stroke-linecap:square;stroke-linejoin:miter;stroke-width:0.8;"/>
   </g>
   <g id="text_14">
    <text style="font-family:Arial;font-size:10px;font-stretch:normal;font-style:normal;font-weight:normal;text-anchor:middle;" transform="rotate(-0, 121.326897, 212.279612)" x="121.326897" y="212.279612">30</text>
   </g>
   <g id="text_15">
    <text style="font-family:Arial;font-size:10px;font-stretch:normal;font-style:normal;font-weight:normal;text-anchor:middle;" transform="rotate(-0, 90.083385, 171.6513)" x="90.083385" y="171.6513">14</text>
   </g>
   <g id="text_16">
    <text style="font-family:Arial;font-size:10px;font-stretch:normal;font-style:normal;font-weight:normal;text-anchor:middle;" transform="rotate(-0, 74.461629, 131.022987)" x="74.461629" y="131.022987">6</text>
   </g>
   <g id="text_17">
    <text style="font-family:Arial;font-size:10px;font-stretch:normal;font-style:normal;font-weight:normal;text-anchor:middle;" transform="rotate(-0, 82.272507, 90.394675)" x="82.272507" y="90.394675">10</text>
   </g>
   <g id="text_18">
    <text style="font-family:Arial;font-size:10px;font-stretch:normal;font-style:normal;font-weight:normal;text-anchor:middle;" transform="rotate(-0, 74.461629, 49.766363)" x="74.461629" y="49.766363">6</text>
   </g>
   <g id="text_19">
    <text style="font-family:Arial;font-size:10px;font-stretch:normal;font-style:normal;font-weight:normal;text-anchor:middle;" transform="rotate(-0, 222.868311, 212.279612)" x="222.868311" y="212.279612">22</text>
   </g>
   <g id="text_20">
    <text style="font-family:Arial;font-size:10px;font-stretch:normal;font-style:normal;font-weight:normal;text-anchor:middle;" transform="rotate(-0, 136.948653, 171.6513)" x="136.948653" y="171.6513">10</text>
   </g>
   <g id="text_21">
    <text style="font-family:Arial;font-size:10px;font-stretch:normal;font-style:normal;font-weight:normal;text-anchor:middle;" transform="rotate(-0, 109.61058, 131.022987)" x="109.61058" y="131.022987">12</text>
   </g>
   <g id="text_22">
    <text style="font-family:Arial;font-size:10px;font-stretch:normal;font-style:normal;font-weight:normal;text-anchor:middle;" transform="rotate(-0, 121.326897, 90.394675)" x="121.326897" y="90.394675">10</text>
   </g>
   <g id="text_23">
    <text style="font-family:Arial;font-size:10px;font-stretch:normal;font-style:normal;font-weight:normal;text-anchor:middle;" transform="rotate(-0, 101.799702, 49.766363)" x="101.799702" y="49.766363">8</text>
   </g>
   <g id="text_24">
    <text style="font-family:Arial;font-size:10px;font-stretch:normal;font-style:normal;font-weight:normal;text-anchor:middle;" transform="rotate(-0, 300.977091, 212.279612)" x="300.977091" y="212.279612">18</text>
   </g>
   <g id="text_25">
    <text style="font-family:Arial;font-size:10px;font-stretch:normal;font-style:normal;font-weight:normal;text-anchor:middle;" transform="rotate(-0, 203.341116, 171.6513)" x="203.341116" y="171.6513">24</text>
   </g>
   <g id="text_26">
    <text style="font-family:Arial;font-size:10px;font-stretch:normal;font-style:normal;font-weight:normal;text-anchor:middle;" transform="rotate(-0, 164.286726, 131.022987)" x="164.286726" y="131.022987">16</text>
   </g>
   <g id="text_27">
    <text style="font-family:Arial;font-size:10px;font-stretch:normal;font-style:normal;font-weight:normal;text-anchor:middle;" transform="rotate(-0, 164.286726, 90.394675)" x="164.286726" y="90.394675">12</text>
   </g>
   <g id="text_28">
    <text style="font-family:Arial;font-size:10px;font-stretch:normal;font-style:normal;font-weight:normal;text-anchor:middle;" transform="rotate(-0, 136.948653, 49.766363)" x="136.948653" y="49.766363">10</text>
   </g>
   <g id="text_29">
    <text style="font-family:Arial;font-size:10px;font-stretch:normal;font-style:normal;font-weight:normal;text-anchor:middle;" transform="rotate(-0, 351.747798, 212.279612)" x="351.747798" y="212.279612">8</text>
   </g>
   <g id="text_30">
    <text style="font-family:Arial;font-size:10px;font-stretch:normal;font-style:normal;font-weight:normal;text-anchor:middle;" transform="rotate(-0, 273.639018, 171.6513)" x="273.639018" y="171.6513">12</text>
   </g>
   <g id="text_31">
    <text style="font-family:Arial;font-size:10px;font-stretch:normal;font-style:normal;font-weight:normal;text-anchor:middle;" transform="rotate(-0, 218.962872, 131.022987)" x="218.962872" y="131.022987">12</text>
   </g>
   <g id="text_32">
    <text style="font-family:Arial;font-size:10px;font-stretch:normal;font-style:normal;font-weight:normal;text-anchor:middle;" transform="rotate(-0, 215.057433, 90.394675)" x="215.057433" y="90.394675">14</text>
   </g>
   <g id="text_33">
    <text style="font-family:Arial;font-size:10px;font-stretch:normal;font-style:normal;font-weight:normal;text-anchor:middle;" transform="rotate(-0, 187.71936, 49.766363)" x="187.71936" y="49.766363">16</text>
   </g>
   <g id="text_34">
    <text style="font-family:Arial;font-size:10px;font-stretch:normal;font-style:normal;font-weight:normal;text-anchor:middle;" transform="rotate(-0, 379.085871, 212.279612)" x="379.085871" y="212.279612">6</text>
   </g>
   <g id="text_35">
    <text style="font-family:Arial;font-size:10px;font-stretch:normal;font-style:normal;font-weight:normal;text-anchor:middle;" transform="rotate(-0, 269.733579, 131.022987)" x="269.733579" y="131.022987">14</text>
   </g>
   <g id="text_36">
    <text style="font-family:Arial;font-size:10px;font-stretch:normal;font-style:normal;font-weight:normal;text-anchor:middle;" transform="rotate(-0, 269.733579, 90.394675)" x="269.733579" y="90.394675">14</text>
   </g>
   <g id="text_37">
    <text style="font-family:Arial;font-size:10px;font-stretch:normal;font-style:normal;font-weight:normal;text-anchor:middle;" transform="rotate(-0, 254.111823, 49.766363)" x="254.111823" y="49.766363">18</text>
   </g>
   <g id="text_38">
    <text style="font-family:Arial;font-size:10px;font-stretch:normal;font-style:normal;font-weight:normal;text-anchor:middle;" transform="rotate(-0, 402.518504, 212.279612)" x="402.518504" y="212.279612">6</text>
   </g>
   <g id="text_39">
    <text style="font-family:Arial;font-size:10px;font-stretch:normal;font-style:normal;font-weight:normal;text-anchor:middle;" transform="rotate(-0, 332.220603, 171.6513)" x="332.220603" y="171.6513">10</text>
   </g>
   <g id="text_40">
    <text style="font-family:Arial;font-size:10px;font-stretch:normal;font-style:normal;font-weight:normal;text-anchor:middle;" transform="rotate(-0, 304.88253, 49.766363)" x="304.88253" y="49.766363">8</text>
   </g>
   <g id="text_41">
    <text style="font-family:Arial;font-size:10px;font-stretch:normal;font-style:normal;font-weight:normal;text-anchor:middle;" transform="rotate(-0, 425.951138, 212.279612)" x="425.951138" y="212.279612">6</text>
   </g>
   <g id="text_42">
    <text style="font-family:Arial;font-size:10px;font-stretch:normal;font-style:normal;font-weight:normal;text-anchor:middle;" transform="rotate(-0, 382.99131, 171.6513)" x="382.99131" y="171.6513">16</text>
   </g>
   <g id="text_43">
    <text style="font-family:Arial;font-size:10px;font-stretch:normal;font-style:normal;font-weight:normal;text-anchor:middle;" transform="rotate(-0, 328.315164, 131.022987)" x="328.315164" y="131.022987">8</text>
   </g>
   <g id="text_44">
    <text style="font-family:Arial;font-size:10px;font-stretch:normal;font-style:normal;font-weight:normal;text-anchor:middle;" transform="rotate(-0, 343.93692, 90.394675)" x="343.93692" y="90.394675">16</text>
   </g>
   <g id="text_45">
    <text style="font-family:Arial;font-size:10px;font-stretch:normal;font-style:normal;font-weight:normal;text-anchor:middle;" transform="rotate(-0, 340.031481, 49.766363)" x="340.031481" y="49.766363">10</text>
   </g>
   <g id="text_46">
    <text style="font-family:Arial;font-size:10px;font-stretch:normal;font-style:normal;font-weight:normal;text-anchor:middle;" transform="rotate(-0, 359.558676, 131.022987)" x="359.558676" y="131.022987">8</text>
   </g>
   <g id="text_47">
    <text style="font-family:Arial;font-size:10px;font-stretch:normal;font-style:normal;font-weight:normal;text-anchor:middle;" transform="rotate(-0, 386.896749, 90.394675)" x="386.896749" y="90.394675">6</text>
   </g>
   <g id="text_48">
    <text style="font-family:Arial;font-size:10px;font-stretch:normal;font-style:normal;font-weight:normal;text-anchor:middle;" transform="rotate(-0, 382.99131, 49.766363)" x="382.99131" y="49.766363">12</text>
   </g>
   <g id="text_49">
    <text style="font-family:Arial;font-size:10px;font-stretch:normal;font-style:normal;font-weight:normal;text-anchor:middle;" transform="rotate(-0, 441.572894, 171.6513)" x="441.572894" y="171.6513">6</text>
   </g>
   <g id="text_50">
    <text style="font-family:Arial;font-size:10px;font-stretch:normal;font-style:normal;font-weight:normal;text-anchor:middle;" transform="rotate(-0, 414.234821, 131.022987)" x="414.234821" y="131.022987">20</text>
   </g>
   <g id="text_51">
    <text style="font-family:Arial;font-size:10px;font-stretch:normal;font-style:normal;font-weight:normal;text-anchor:middle;" transform="rotate(-0, 425.951138, 90.394675)" x="425.951138" y="90.394675">14</text>
   </g>
   <g id="text_52">
    <text style="font-family:Arial;font-size:10px;font-stretch:normal;font-style:normal;font-weight:normal;text-anchor:middle;" transform="rotate(-0, 429.856577, 49.766363)" x="429.856577" y="49.766363">12</text>
   </g>
   <g id="text_53">
    <text style="font-family:Arial;font-size:12px;font-stretch:normal;font-style:normal;font-weight:normal;text-anchor:middle;" transform="rotate(-0, 267.780859, 19.389375)" x="267.780859" y="19.389375">Reasons to choose current job: World</text>
   </g>
   <g id="legend_1">
    <g id="patch_49">
     <path d="M 54.097266 338.091234 
L 481.464453 338.091234 
Q 483.464453 338.091234 483.464453 336.091234 
L 483.464453 266.002172 
Q 483.464453 264.002172 481.464453 264.002172 
L 54.097266 264.002172 
Q 52.097266 264.002172 52.097266 266.002172 
L 52.097266 336.091234 
Q 52.097266 338.091234 54.097266 338.091234 
z
" style="fill:#ffffff;opacity:0.8;stroke:#cccccc;stroke-linejoin:miter;"/>
    </g>
    <g id="patch_50">
     <path d="M 56.097266 275.288109 
L 76.097266 275.288109 
L 76.097266 268.288109 
L 56.097266 268.288109 
z
" style="fill:#1f77b4;"/>
    </g>
    <g id="text_54">
     <text style="font-family:Arial;font-size:10px;font-stretch:normal;font-style:normal;font-weight:normal;text-anchor:start;" transform="rotate(-0, 84.097266, 275.288109)" x="84.097266" y="275.288109">Freedom to choose own working practices</text>
    </g>
    <g id="patch_51">
     <path d="M 56.097266 289.550609 
L 76.097266 289.550609 
L 76.097266 282.550609 
L 56.097266 282.550609 
z
" style="fill:#ff7f0e;"/>
    </g>
    <g id="text_55">
     <text style="font-family:Arial;font-size:10px;font-stretch:normal;font-style:normal;font-weight:normal;text-anchor:start;" transform="rotate(-0, 84.097266, 289.550609)" x="84.097266" y="289.550609">Desire to advance research</text>
    </g>
    <g id="patch_52">
     <path d="M 56.097266 303.695922 
L 76.097266 303.695922 
L 76.097266 296.695922 
L 56.097266 296.695922 
z
" style="fill:#2ca02c;"/>
    </g>
    <g id="text_56">
     <text style="font-family:Arial;font-size:10px;font-stretch:normal;font-style:normal;font-weight:normal;text-anchor:start;" transform="rotate(-0, 84.097266, 303.695922)" x="84.097266" y="303.695922">Desire to work in a research environment</text>
    </g>
    <g id="patch_53">
     <path d="M 56.097266 317.841234 
L 76.097266 317.841234 
L 76.097266 310.841234 
L 56.097266 310.841234 
z
" style="fill:#d62728;"/>
    </g>
    <g id="text_57">
     <text style="font-family:Arial;font-size:10px;font-stretch:normal;font-style:normal;font-weight:normal;text-anchor:start;" transform="rotate(-0, 84.097266, 317.841234)" x="84.097266" y="317.841234">Flexible working hours</text>
    </g>
    <g id="patch_54">
     <path d="M 56.097266 332.103734 
L 76.097266 332.103734 
L 76.097266 325.103734 
L 56.097266 325.103734 
z
" style="fill:#9467bd;"/>
    </g>
    <g id="text_58">
     <text style="font-family:Arial;font-size:10px;font-stretch:normal;font-style:normal;font-weight:normal;text-anchor:start;" transform="rotate(-0, 84.097266, 332.103734)" x="84.097266" y="332.103734">I want to learn new skills</text>
    </g>
    <g id="patch_55">
     <path d="M 291.394141 275.288109 
L 311.394141 275.288109 
L 311.394141 268.288109 
L 291.394141 268.288109 
z
" style="fill:#8c564b;"/>
    </g>
    <g id="text_59">
     <text style="font-family:Arial;font-size:10px;font-stretch:normal;font-style:normal;font-weight:normal;text-anchor:start;" transform="rotate(-0, 319.394141, 275.288109)" x="319.394141" y="275.288109">Opportunity for career advancement</text>
    </g>
    <g id="patch_56">
     <path d="M 291.394141 289.678734 
L 311.394141 289.678734 
L 311.394141 282.678734 
L 291.394141 282.678734 
z
" style="fill:#e377c2;"/>
    </g>
    <g id="text_60">
     <text style="font-family:Arial;font-size:10px;font-stretch:normal;font-style:normal;font-weight:normal;text-anchor:start;" transform="rotate(-0, 319.394141, 289.678734)" x="319.394141" y="289.678734">Opportunity to develop software</text>
    </g>
    <g id="patch_57">
     <path d="M 291.394141 303.941234 
L 311.394141 303.941234 
L 311.394141 296.941234 
L 291.394141 296.941234 
z
" style="fill:#7f7f7f;"/>
    </g>
    <g id="text_61">
     <text style="font-family:Arial;font-size:10px;font-stretch:normal;font-style:normal;font-weight:normal;text-anchor:start;" transform="rotate(-0, 319.394141, 303.941234)" x="319.394141" y="303.941234">The salary</text>
    </g>
    <g id="patch_58">
     <path d="M 291.394141 318.203734 
L 311.394141 318.203734 
L 311.394141 311.203734 
L 291.394141 311.203734 
z
" style="fill:#bcbd22;"/>
    </g>
    <g id="text_62">
     <text style="font-family:Arial;font-size:10px;font-stretch:normal;font-style:normal;font-weight:normal;text-anchor:start;" transform="rotate(-0, 319.394141, 318.203734)" x="319.394141" y="318.203734">Ability to work across disciplines</text>
    </g>
   </g>
  </g>
 </g>
 <defs>
  <clipPath id="p05ee44dee9">
   <rect height="203.141562" width="410.071094" x="62.745313" y="25.389375"/>
  </clipPath>
 </defs>
</svg>
