<?xml version="1.0" encoding="utf-8" standalone="no"?>
<!DOCTYPE svg PUBLIC "-//W3C//DTD SVG 1.1//EN"
  "http://www.w3.org/Graphics/SVG/1.1/DTD/svg11.dtd">
<svg xmlns:xlink="http://www.w3.org/1999/xlink" width="504pt" height="360pt" viewBox="0 0 504 360" xmlns="http://www.w3.org/2000/svg" version="1.1">
 <metadata>
  <rdf:RDF xmlns:dc="http://purl.org/dc/elements/1.1/" xmlns:cc="http://creativecommons.org/ns#" xmlns:rdf="http://www.w3.org/1999/02/22-rdf-syntax-ns#">
   <cc:Work>
    <dc:type rdf:resource="http://purl.org/dc/dcmitype/StillImage"/>
    <dc:date>2022-03-21T16:07:41.516213</dc:date>
    <dc:format>image/svg+xml</dc:format>
    <dc:creator>
     <cc:Agent>
      <dc:title>Matplotlib v3.5.1, https://matplotlib.org/</dc:title>
     </cc:Agent>
    </dc:creator>
   </cc:Work>
  </rdf:RDF>
 </metadata>
 <defs>
  <style type="text/css">*{stroke-linejoin: round; stroke-linecap: butt}</style>
 </defs>
 <g id="figure_1">
  <g id="patch_1">
   <path d="M 0 360 
L 504 360 
L 504 0 
L 0 0 
z
" style="fill: #ffffff"/>
  </g>
  <g id="axes_1">
   <g id="patch_2">
    <path d="M 62.86875 237.986162 
L 491.022656 237.986162 
L 491.022656 25.43625 
L 62.86875 25.43625 
z
" style="fill: #ffffff"/>
   </g>
   <g id="patch_3">
    <path d="M 62.86875 227.358666 
L 163.55162 227.358666 
L 163.55162 206.103675 
L 62.86875 206.103675 
z
" clip-path="url(#p5bbd2955af)" style="fill: #1f77b4"/>
   </g>
   <g id="patch_4">
    <path d="M 62.86875 184.848684 
L 161.644274 184.848684 
L 161.644274 163.593692 
L 62.86875 163.593692 
z
" clip-path="url(#p5bbd2955af)" style="fill: #1f77b4"/>
   </g>
   <g id="patch_5">
    <path d="M 62.86875 142.338701 
L 118.473153 142.338701 
L 118.473153 121.08371 
L 62.86875 121.08371 
z
" clip-path="url(#p5bbd2955af)" style="fill: #1f77b4"/>
   </g>
   <g id="patch_6">
    <path d="M 62.86875 99.828719 
L 109.8058 99.828719 
L 109.8058 78.573728 
L 62.86875 78.573728 
z
" clip-path="url(#p5bbd2955af)" style="fill: #1f77b4"/>
   </g>
   <g id="patch_7">
    <path d="M 62.86875 57.318737 
L 102.32994 57.318737 
L 102.32994 36.063746 
L 62.86875 36.063746 
z
" clip-path="url(#p5bbd2955af)" style="fill: #1f77b4"/>
   </g>
   <g id="patch_8">
    <path d="M 163.55162 227.358666 
L 249.13206 227.358666 
L 249.13206 206.103675 
L 163.55162 206.103675 
z
" clip-path="url(#p5bbd2955af)" style="fill: #ff7f0e"/>
   </g>
   <g id="patch_9">
    <path d="M 161.644274 184.848684 
L 212.298389 184.848684 
L 212.298389 163.593692 
L 161.644274 163.593692 
z
" clip-path="url(#p5bbd2955af)" style="fill: #ff7f0e"/>
   </g>
   <g id="patch_10">
    <path d="M 118.473153 142.338701 
L 182.021043 142.338701 
L 182.021043 121.08371 
L 118.473153 121.08371 
z
" clip-path="url(#p5bbd2955af)" style="fill: #ff7f0e"/>
   </g>
   <g id="patch_11">
    <path d="M 109.8058 99.828719 
L 142.075022 99.828719 
L 142.075022 78.573728 
L 109.8058 78.573728 
z
" clip-path="url(#p5bbd2955af)" style="fill: #ff7f0e"/>
   </g>
   <g id="patch_12">
    <path d="M 102.32994 57.318737 
L 131.925832 57.318737 
L 131.925832 36.063746 
L 102.32994 36.063746 
z
" clip-path="url(#p5bbd2955af)" style="fill: #ff7f0e"/>
   </g>
   <g id="patch_13">
    <path d="M 249.13206 227.358666 
L 314.575926 227.358666 
L 314.575926 206.103675 
L 249.13206 206.103675 
z
" clip-path="url(#p5bbd2955af)" style="fill: #2ca02c"/>
   </g>
   <g id="patch_14">
    <path d="M 212.298389 184.848684 
L 275.616033 184.848684 
L 275.616033 163.593692 
L 212.298389 163.593692 
z
" clip-path="url(#p5bbd2955af)" style="fill: #2ca02c"/>
   </g>
   <g id="patch_15">
    <path d="M 182.021043 142.338701 
L 245.568933 142.338701 
L 245.568933 121.08371 
L 182.021043 121.08371 
z
" clip-path="url(#p5bbd2955af)" style="fill: #2ca02c"/>
   </g>
   <g id="patch_16">
    <path d="M 142.075022 99.828719 
L 194.879204 99.828719 
L 194.879204 78.573728 
L 142.075022 78.573728 
z
" clip-path="url(#p5bbd2955af)" style="fill: #2ca02c"/>
   </g>
   <g id="patch_17">
    <path d="M 131.925832 57.318737 
L 164.810156 57.318737 
L 164.810156 36.063746 
L 131.925832 36.063746 
z
" clip-path="url(#p5bbd2955af)" style="fill: #2ca02c"/>
   </g>
   <g id="patch_18">
    <path d="M 314.575926 227.358666 
L 367.434433 227.358666 
L 367.434433 206.103675 
L 314.575926 206.103675 
z
" clip-path="url(#p5bbd2955af)" style="fill: #d62728"/>
   </g>
   <g id="patch_19">
    <path d="M 275.616033 184.848684 
L 323.737442 184.848684 
L 323.737442 163.593692 
L 275.616033 163.593692 
z
" clip-path="url(#p5bbd2955af)" style="fill: #d62728"/>
   </g>
   <g id="patch_20">
    <path d="M 245.568933 142.338701 
L 295.877679 142.338701 
L 295.877679 121.08371 
L 245.568933 121.08371 
z
" clip-path="url(#p5bbd2955af)" style="fill: #d62728"/>
   </g>
   <g id="patch_21">
    <path d="M 194.879204 99.828719 
L 247.683386 99.828719 
L 247.683386 78.573728 
L 194.879204 78.573728 
z
" clip-path="url(#p5bbd2955af)" style="fill: #d62728"/>
   </g>
   <g id="patch_22">
    <path d="M 164.810156 57.318737 
L 194.406048 57.318737 
L 194.406048 36.063746 
L 164.810156 36.063746 
z
" clip-path="url(#p5bbd2955af)" style="fill: #d62728"/>
   </g>
   <g id="patch_23">
    <path d="M 367.434433 227.358666 
L 397.639294 227.358666 
L 397.639294 206.103675 
L 367.434433 206.103675 
z
" clip-path="url(#p5bbd2955af)" style="fill: #9467bd"/>
   </g>
   <g id="patch_24">
    <path d="M 323.737442 184.848684 
L 356.662616 184.848684 
L 356.662616 163.593692 
L 323.737442 163.593692 
z
" clip-path="url(#p5bbd2955af)" style="fill: #9467bd"/>
   </g>
   <g id="patch_25">
    <path d="M 295.877679 142.338701 
L 309.116822 142.338701 
L 309.116822 121.08371 
L 295.877679 121.08371 
z
" clip-path="url(#p5bbd2955af)" style="fill: #9467bd"/>
   </g>
   <g id="patch_26">
    <path d="M 247.683386 99.828719 
L 312.22183 99.828719 
L 312.22183 78.573728 
L 247.683386 78.573728 
z
" clip-path="url(#p5bbd2955af)" style="fill: #9467bd"/>
   </g>
   <g id="patch_27">
    <path d="M 194.406048 57.318737 
L 256.886265 57.318737 
L 256.886265 36.063746 
L 194.406048 36.063746 
z
" clip-path="url(#p5bbd2955af)" style="fill: #9467bd"/>
   </g>
   <g id="patch_28">
    <path d="M 397.639294 227.358666 
L 425.327083 227.358666 
L 425.327083 206.103675 
L 397.639294 206.103675 
z
" clip-path="url(#p5bbd2955af)" style="fill: #8c564b"/>
   </g>
   <g id="patch_29">
    <path d="M 356.662616 184.848684 
L 397.185908 184.848684 
L 397.185908 163.593692 
L 356.662616 163.593692 
z
" clip-path="url(#p5bbd2955af)" style="fill: #8c564b"/>
   </g>
   <g id="patch_30">
    <path d="M 309.116822 142.338701 
L 364.721226 142.338701 
L 364.721226 121.08371 
L 309.116822 121.08371 
z
" clip-path="url(#p5bbd2955af)" style="fill: #8c564b"/>
   </g>
   <g id="patch_31">
    <path d="M 312.22183 99.828719 
L 365.026012 99.828719 
L 365.026012 78.573728 
L 312.22183 78.573728 
z
" clip-path="url(#p5bbd2955af)" style="fill: #8c564b"/>
   </g>
   <g id="patch_32">
    <path d="M 256.886265 57.318737 
L 306.212752 57.318737 
L 306.212752 36.063746 
L 256.886265 36.063746 
z
" clip-path="url(#p5bbd2955af)" style="fill: #8c564b"/>
   </g>
   <g id="patch_33">
    <path d="M 425.327083 227.358666 
L 453.014873 227.358666 
L 453.014873 206.103675 
L 425.327083 206.103675 
z
" clip-path="url(#p5bbd2955af)" style="fill: #e377c2"/>
   </g>
   <g id="patch_34">
    <path d="M 397.185908 184.848684 
L 425.045672 184.848684 
L 425.045672 163.593692 
L 397.185908 163.593692 
z
" clip-path="url(#p5bbd2955af)" style="fill: #e377c2"/>
   </g>
   <g id="patch_35">
    <path d="M 364.721226 142.338701 
L 391.199513 142.338701 
L 391.199513 121.08371 
L 364.721226 121.08371 
z
" clip-path="url(#p5bbd2955af)" style="fill: #e377c2"/>
   </g>
   <g id="patch_36">
    <path d="M 365.026012 99.828719 
L 394.361668 99.828719 
L 394.361668 78.573728 
L 365.026012 78.573728 
z
" clip-path="url(#p5bbd2955af)" style="fill: #e377c2"/>
   </g>
   <g id="patch_37">
    <path d="M 306.212752 57.318737 
L 348.962374 57.318737 
L 348.962374 36.063746 
L 306.212752 36.063746 
z
" clip-path="url(#p5bbd2955af)" style="fill: #e377c2"/>
   </g>
   <g id="patch_38">
    <path d="M 453.014873 227.358666 
L 465.600231 227.358666 
L 465.600231 206.103675 
L 453.014873 206.103675 
z
" clip-path="url(#p5bbd2955af)" style="fill: #7f7f7f"/>
   </g>
   <g id="patch_39">
    <path d="M 425.045672 184.848684 
L 463.036258 184.848684 
L 463.036258 163.593692 
L 425.045672 163.593692 
z
" clip-path="url(#p5bbd2955af)" style="fill: #7f7f7f"/>
   </g>
   <g id="patch_40">
    <path d="M 391.199513 142.338701 
L 452.099574 142.338701 
L 452.099574 121.08371 
L 391.199513 121.08371 
z
" clip-path="url(#p5bbd2955af)" style="fill: #7f7f7f"/>
   </g>
   <g id="patch_41">
    <path d="M 394.361668 99.828719 
L 441.298719 99.828719 
L 441.298719 78.573728 
L 394.361668 78.573728 
z
" clip-path="url(#p5bbd2955af)" style="fill: #7f7f7f"/>
   </g>
   <g id="patch_42">
    <path d="M 348.962374 57.318737 
L 427.884753 57.318737 
L 427.884753 36.063746 
L 348.962374 36.063746 
z
" clip-path="url(#p5bbd2955af)" style="fill: #7f7f7f"/>
   </g>
   <g id="patch_43">
    <path d="M 465.600231 227.358666 
L 470.634375 227.358666 
L 470.634375 206.103675 
L 465.600231 206.103675 
z
" clip-path="url(#p5bbd2955af)" style="fill: #bcbd22"/>
   </g>
   <g id="patch_44">
    <path d="M 463.036258 184.848684 
L 470.634375 184.848684 
L 470.634375 163.593692 
L 463.036258 163.593692 
z
" clip-path="url(#p5bbd2955af)" style="fill: #bcbd22"/>
   </g>
   <g id="patch_45">
    <path d="M 452.099574 142.338701 
L 470.634375 142.338701 
L 470.634375 121.08371 
L 452.099574 121.08371 
z
" clip-path="url(#p5bbd2955af)" style="fill: #bcbd22"/>
   </g>
   <g id="patch_46">
    <path d="M 441.298719 99.828719 
L 470.634375 99.828719 
L 470.634375 78.573728 
L 441.298719 78.573728 
z
" clip-path="url(#p5bbd2955af)" style="fill: #bcbd22"/>
   </g>
   <g id="patch_47">
    <path d="M 427.884753 57.318737 
L 470.634375 57.318737 
L 470.634375 36.063746 
L 427.884753 36.063746 
z
" clip-path="url(#p5bbd2955af)" style="fill: #bcbd22"/>
   </g>
   <g id="matplotlib.axis_1">
    <g id="xtick_1">
     <g id="line2d_1">
      <defs>
       <path id="m4c99cd72f3" d="M 0 0 
L 0 3.5 
" style="stroke: #000000; stroke-width: 0.8"/>
      </defs>
      <g>
       <use xlink:href="#m4c99cd72f3" x="62.86875" y="237.986162" style="stroke: #000000; stroke-width: 0.8"/>
      </g>
     </g>
     <g id="text_1">
      <text style="font: 10px 'sans-serif'; text-anchor: middle" x="62.86875" y="252.159599" transform="rotate(-0, 62.86875, 252.159599)">0</text>
     </g>
    </g>
    <g id="xtick_2">
     <g id="line2d_2">
      <g>
       <use xlink:href="#m4c99cd72f3" x="144.421875" y="237.986162" style="stroke: #000000; stroke-width: 0.8"/>
      </g>
     </g>
     <g id="text_2">
      <text style="font: 10px 'sans-serif'; text-anchor: middle" x="144.421875" y="252.159599" transform="rotate(-0, 144.421875, 252.159599)">20</text>
     </g>
    </g>
    <g id="xtick_3">
     <g id="line2d_3">
      <g>
       <use xlink:href="#m4c99cd72f3" x="225.975" y="237.986162" style="stroke: #000000; stroke-width: 0.8"/>
      </g>
     </g>
     <g id="text_3">
      <text style="font: 10px 'sans-serif'; text-anchor: middle" x="225.975" y="252.159599" transform="rotate(-0, 225.975, 252.159599)">40</text>
     </g>
    </g>
    <g id="xtick_4">
     <g id="line2d_4">
      <g>
       <use xlink:href="#m4c99cd72f3" x="307.528125" y="237.986162" style="stroke: #000000; stroke-width: 0.8"/>
      </g>
     </g>
     <g id="text_4">
      <text style="font: 10px 'sans-serif'; text-anchor: middle" x="307.528125" y="252.159599" transform="rotate(-0, 307.528125, 252.159599)">60</text>
     </g>
    </g>
    <g id="xtick_5">
     <g id="line2d_5">
      <g>
       <use xlink:href="#m4c99cd72f3" x="389.08125" y="237.986162" style="stroke: #000000; stroke-width: 0.8"/>
      </g>
     </g>
     <g id="text_5">
      <text style="font: 10px 'sans-serif'; text-anchor: middle" x="389.08125" y="252.159599" transform="rotate(-0, 389.08125, 252.159599)">80</text>
     </g>
    </g>
    <g id="xtick_6">
     <g id="line2d_6">
      <g>
       <use xlink:href="#m4c99cd72f3" x="470.634375" y="237.986162" style="stroke: #000000; stroke-width: 0.8"/>
      </g>
     </g>
     <g id="text_6">
      <text style="font: 10px 'sans-serif'; text-anchor: middle" x="470.634375" y="252.159599" transform="rotate(-0, 470.634375, 252.159599)">100</text>
     </g>
    </g>
    <g id="text_7">
     <text style="font: 10px 'sans-serif'; text-anchor: middle" x="276.945703" y="265.518974" transform="rotate(-0, 276.945703, 265.518974)">Ranking of importance</text>
    </g>
   </g>
   <g id="matplotlib.axis_2">
    <g id="ytick_1">
     <g id="line2d_7">
      <defs>
       <path id="m8e343aef83" d="M 0 0 
L -3.5 0 
" style="stroke: #000000; stroke-width: 0.8"/>
      </defs>
      <g>
       <use xlink:href="#m8e343aef83" x="62.86875" y="216.73117" style="stroke: #000000; stroke-width: 0.8"/>
      </g>
     </g>
     <g id="text_8">
      <text style="font: 10px 'sans-serif'; text-anchor: end" x="55.86875" y="220.317889" transform="rotate(-0, 55.86875, 220.317889)">Rank 1</text>
     </g>
    </g>
    <g id="ytick_2">
     <g id="line2d_8">
      <g>
       <use xlink:href="#m8e343aef83" x="62.86875" y="174.221188" style="stroke: #000000; stroke-width: 0.8"/>
      </g>
     </g>
     <g id="text_9">
      <text style="font: 10px 'sans-serif'; text-anchor: end" x="55.86875" y="177.807907" transform="rotate(-0, 55.86875, 177.807907)">Rank 2</text>
     </g>
    </g>
    <g id="ytick_3">
     <g id="line2d_9">
      <g>
       <use xlink:href="#m8e343aef83" x="62.86875" y="131.711206" style="stroke: #000000; stroke-width: 0.8"/>
      </g>
     </g>
     <g id="text_10">
      <text style="font: 10px 'sans-serif'; text-anchor: end" x="55.86875" y="135.297925" transform="rotate(-0, 55.86875, 135.297925)">Rank 3</text>
     </g>
    </g>
    <g id="ytick_4">
     <g id="line2d_10">
      <g>
       <use xlink:href="#m8e343aef83" x="62.86875" y="89.201223" style="stroke: #000000; stroke-width: 0.8"/>
      </g>
     </g>
     <g id="text_11">
      <text style="font: 10px 'sans-serif'; text-anchor: end" x="55.86875" y="92.787942" transform="rotate(-0, 55.86875, 92.787942)">Rank 4</text>
     </g>
    </g>
    <g id="ytick_5">
     <g id="line2d_11">
      <g>
       <use xlink:href="#m8e343aef83" x="62.86875" y="46.691241" style="stroke: #000000; stroke-width: 0.8"/>
      </g>
     </g>
     <g id="text_12">
      <text style="font: 10px 'sans-serif'; text-anchor: end" x="55.86875" y="50.27796" transform="rotate(-0, 55.86875, 50.27796)">Rank 5</text>
     </g>
    </g>
    <g id="text_13">
     <text style="font: 10px 'sans-serif'; text-anchor: middle" x="17.973438" y="131.711206" transform="rotate(-90, 17.973438, 131.711206)">Percentage</text>
    </g>
   </g>
   <g id="patch_48">
    <path d="M 62.86875 237.986162 
L 491.022656 237.986162 
" style="fill: none; stroke: #000000; stroke-width: 0.8; stroke-linejoin: miter; stroke-linecap: square"/>
   </g>
   <g id="text_14">
    <text style="font: 10px 'sans-serif'; text-anchor: middle" x="113.210185" y="220.982169" transform="rotate(-0, 113.210185, 220.982169)">25</text>
   </g>
   <g id="text_15">
    <text style="font: 10px 'sans-serif'; text-anchor: middle" x="112.256512" y="178.472186" transform="rotate(-0, 112.256512, 178.472186)">24</text>
   </g>
   <g id="text_16">
    <text style="font: 10px 'sans-serif'; text-anchor: middle" x="90.670952" y="135.962204" transform="rotate(-0, 90.670952, 135.962204)">14</text>
   </g>
   <g id="text_17">
    <text style="font: 10px 'sans-serif'; text-anchor: middle" x="86.337275" y="93.452222" transform="rotate(-0, 86.337275, 93.452222)">12</text>
   </g>
   <g id="text_18">
    <text style="font: 10px 'sans-serif'; text-anchor: middle" x="82.599345" y="50.942239" transform="rotate(-0, 82.599345, 50.942239)">10</text>
   </g>
   <g id="text_19">
    <text style="font: 10px 'sans-serif'; text-anchor: middle" x="206.34184" y="220.982169" transform="rotate(-0, 206.34184, 220.982169)">21</text>
   </g>
   <g id="text_20">
    <text style="font: 10px 'sans-serif'; text-anchor: middle" x="186.971332" y="178.472186" transform="rotate(-0, 186.971332, 178.472186)">12</text>
   </g>
   <g id="text_21">
    <text style="font: 10px 'sans-serif'; text-anchor: middle" x="150.247098" y="135.962204" transform="rotate(-0, 150.247098, 135.962204)">16</text>
   </g>
   <g id="text_22">
    <text style="font: 10px 'sans-serif'; text-anchor: middle" x="125.940411" y="93.452222" transform="rotate(-0, 125.940411, 93.452222)">8</text>
   </g>
   <g id="text_23">
    <text style="font: 10px 'sans-serif'; text-anchor: middle" x="117.127886" y="50.942239" transform="rotate(-0, 117.127886, 50.942239)">7</text>
   </g>
   <g id="text_24">
    <text style="font: 10px 'sans-serif'; text-anchor: middle" x="281.853993" y="220.982169" transform="rotate(-0, 281.853993, 220.982169)">16</text>
   </g>
   <g id="text_25">
    <text style="font: 10px 'sans-serif'; text-anchor: middle" x="243.957211" y="178.472186" transform="rotate(-0, 243.957211, 178.472186)">16</text>
   </g>
   <g id="text_26">
    <text style="font: 10px 'sans-serif'; text-anchor: middle" x="213.794988" y="135.962204" transform="rotate(-0, 213.794988, 135.962204)">16</text>
   </g>
   <g id="text_27">
    <text style="font: 10px 'sans-serif'; text-anchor: middle" x="168.477113" y="93.452222" transform="rotate(-0, 168.477113, 93.452222)">13</text>
   </g>
   <g id="text_28">
    <text style="font: 10px 'sans-serif'; text-anchor: middle" x="148.367994" y="50.942239" transform="rotate(-0, 148.367994, 50.942239)">8</text>
   </g>
   <g id="text_29">
    <text style="font: 10px 'sans-serif'; text-anchor: middle" x="341.005179" y="220.982169" transform="rotate(-0, 341.005179, 220.982169)">13</text>
   </g>
   <g id="text_30">
    <text style="font: 10px 'sans-serif'; text-anchor: middle" x="299.676737" y="178.472186" transform="rotate(-0, 299.676737, 178.472186)">12</text>
   </g>
   <g id="text_31">
    <text style="font: 10px 'sans-serif'; text-anchor: middle" x="270.723306" y="135.962204" transform="rotate(-0, 270.723306, 135.962204)">12</text>
   </g>
   <g id="text_32">
    <text style="font: 10px 'sans-serif'; text-anchor: middle" x="221.281295" y="93.452222" transform="rotate(-0, 221.281295, 93.452222)">13</text>
   </g>
   <g id="text_33">
    <text style="font: 10px 'sans-serif'; text-anchor: middle" x="179.608102" y="50.942239" transform="rotate(-0, 179.608102, 50.942239)">7</text>
   </g>
   <g id="text_34">
    <text style="font: 10px 'sans-serif'; text-anchor: middle" x="382.536863" y="220.982169" transform="rotate(-0, 382.536863, 220.982169)">7</text>
   </g>
   <g id="text_35">
    <text style="font: 10px 'sans-serif'; text-anchor: middle" x="340.200029" y="178.472186" transform="rotate(-0, 340.200029, 178.472186)">8</text>
   </g>
   <g id="text_36">
    <text style="font: 10px 'sans-serif'; text-anchor: middle" x="279.952608" y="93.452222" transform="rotate(-0, 279.952608, 93.452222)">16</text>
   </g>
   <g id="text_37">
    <text style="font: 10px 'sans-serif'; text-anchor: middle" x="225.646157" y="50.942239" transform="rotate(-0, 225.646157, 50.942239)">15</text>
   </g>
   <g id="text_38">
    <text style="font: 10px 'sans-serif'; text-anchor: middle" x="411.483189" y="220.982169" transform="rotate(-0, 411.483189, 220.982169)">7</text>
   </g>
   <g id="text_39">
    <text style="font: 10px 'sans-serif'; text-anchor: middle" x="376.924262" y="178.472186" transform="rotate(-0, 376.924262, 178.472186)">10</text>
   </g>
   <g id="text_40">
    <text style="font: 10px 'sans-serif'; text-anchor: middle" x="336.919024" y="135.962204" transform="rotate(-0, 336.919024, 135.962204)">14</text>
   </g>
   <g id="text_41">
    <text style="font: 10px 'sans-serif'; text-anchor: middle" x="338.623921" y="93.452222" transform="rotate(-0, 338.623921, 93.452222)">13</text>
   </g>
   <g id="text_42">
    <text style="font: 10px 'sans-serif'; text-anchor: middle" x="281.549509" y="50.942239" transform="rotate(-0, 281.549509, 50.942239)">12</text>
   </g>
   <g id="text_43">
    <text style="font: 10px 'sans-serif'; text-anchor: middle" x="439.170978" y="220.982169" transform="rotate(-0, 439.170978, 220.982169)">7</text>
   </g>
   <g id="text_44">
    <text style="font: 10px 'sans-serif'; text-anchor: middle" x="411.11579" y="178.472186" transform="rotate(-0, 411.11579, 178.472186)">7</text>
   </g>
   <g id="text_45">
    <text style="font: 10px 'sans-serif'; text-anchor: middle" x="377.960369" y="135.962204" transform="rotate(-0, 377.960369, 135.962204)">6</text>
   </g>
   <g id="text_46">
    <text style="font: 10px 'sans-serif'; text-anchor: middle" x="379.69384" y="93.452222" transform="rotate(-0, 379.69384, 93.452222)">7</text>
   </g>
   <g id="text_47">
    <text style="font: 10px 'sans-serif'; text-anchor: middle" x="327.587563" y="50.942239" transform="rotate(-0, 327.587563, 50.942239)">10</text>
   </g>
   <g id="text_48">
    <text style="font: 10px 'sans-serif'; text-anchor: middle" x="444.040965" y="178.472186" transform="rotate(-0, 444.040965, 178.472186)">9</text>
   </g>
   <g id="text_49">
    <text style="font: 10px 'sans-serif'; text-anchor: middle" x="421.649543" y="135.962204" transform="rotate(-0, 421.649543, 135.962204)">15</text>
   </g>
   <g id="text_50">
    <text style="font: 10px 'sans-serif'; text-anchor: middle" x="417.830193" y="93.452222" transform="rotate(-0, 417.830193, 93.452222)">12</text>
   </g>
   <g id="text_51">
    <text style="font: 10px 'sans-serif'; text-anchor: middle" x="388.423564" y="50.942239" transform="rotate(-0, 388.423564, 50.942239)">19</text>
   </g>
   <g id="text_52">
    <text style="font: 10px 'sans-serif'; text-anchor: middle" x="461.366974" y="135.962204" transform="rotate(-0, 461.366974, 135.962204)">5</text>
   </g>
   <g id="text_53">
    <text style="font: 10px 'sans-serif'; text-anchor: middle" x="455.966547" y="93.452222" transform="rotate(-0, 455.966547, 93.452222)">7</text>
   </g>
   <g id="text_54">
    <text style="font: 10px 'sans-serif'; text-anchor: middle" x="449.259564" y="50.942239" transform="rotate(-0, 449.259564, 50.942239)">10</text>
   </g>
   <g id="text_55">
    <text style="font: 12px 'sans-serif'; text-anchor: middle" x="276.945703" y="19.43625" transform="rotate(-0, 276.945703, 19.43625)">Reasons to choose current job: United Kingdom</text>
   </g>
   <g id="legend_1">
    <g id="patch_49">
     <path d="M 63.262109 349.715523 
L 490.629297 349.715523 
Q 492.629297 349.715523 492.629297 347.715523 
L 492.629297 276.868648 
Q 492.629297 274.868648 490.629297 274.868648 
L 63.262109 274.868648 
Q 61.262109 274.868648 61.262109 276.868648 
L 61.262109 347.715523 
Q 61.262109 349.715523 63.262109 349.715523 
z
" style="fill: #ffffff; opacity: 0.8; stroke: #cccccc; stroke-linejoin: miter"/>
    </g>
    <g id="patch_50">
     <path d="M 65.262109 286.042086 
L 85.262109 286.042086 
L 85.262109 279.042086 
L 65.262109 279.042086 
z
" style="fill: #1f77b4"/>
    </g>
    <g id="text_56">
     <text style="font: 10px 'sans-serif'; text-anchor: start" x="93.262109" y="286.042086" transform="rotate(-0, 93.262109, 286.042086)">Desire to work in a research environment</text>
    </g>
    <g id="patch_51">
     <path d="M 65.262109 300.495211 
L 85.262109 300.495211 
L 85.262109 293.495211 
L 65.262109 293.495211 
z
" style="fill: #ff7f0e"/>
    </g>
    <g id="text_57">
     <text style="font: 10px 'sans-serif'; text-anchor: start" x="93.262109" y="300.495211" transform="rotate(-0, 93.262109, 300.495211)">Opportunity to develop software</text>
    </g>
    <g id="patch_52">
     <path d="M 65.262109 314.812398 
L 85.262109 314.812398 
L 85.262109 307.812398 
L 65.262109 307.812398 
z
" style="fill: #2ca02c"/>
    </g>
    <g id="text_58">
     <text style="font: 10px 'sans-serif'; text-anchor: start" x="93.262109" y="314.812398" transform="rotate(-0, 93.262109, 314.812398)">Desire to advance research</text>
    </g>
    <g id="patch_53">
     <path d="M 65.262109 329.093648 
L 85.262109 329.093648 
L 85.262109 322.093648 
L 65.262109 322.093648 
z
" style="fill: #d62728"/>
    </g>
    <g id="text_59">
     <text style="font: 10px 'sans-serif'; text-anchor: start" x="93.262109" y="329.093648" transform="rotate(-0, 93.262109, 329.093648)">Freedom to choose own working practices</text>
    </g>
    <g id="patch_54">
     <path d="M 65.262109 343.503023 
L 85.262109 343.503023 
L 85.262109 336.503023 
L 65.262109 336.503023 
z
" style="fill: #9467bd"/>
    </g>
    <g id="text_60">
     <text style="font: 10px 'sans-serif'; text-anchor: start" x="93.262109" y="343.503023" transform="rotate(-0, 93.262109, 343.503023)">Flexible working hours</text>
    </g>
    <g id="patch_55">
     <path d="M 300.558984 286.042086 
L 320.558984 286.042086 
L 320.558984 279.042086 
L 300.558984 279.042086 
z
" style="fill: #8c564b"/>
    </g>
    <g id="text_61">
     <text style="font: 10px 'sans-serif'; text-anchor: start" x="328.558984" y="286.042086" transform="rotate(-0, 328.558984, 286.042086)">I want to learn new skills</text>
    </g>
    <g id="patch_56">
     <path d="M 300.558984 300.495211 
L 320.558984 300.495211 
L 320.558984 293.495211 
L 300.558984 293.495211 
z
" style="fill: #e377c2"/>
    </g>
    <g id="text_62">
     <text style="font: 10px 'sans-serif'; text-anchor: start" x="328.558984" y="300.495211" transform="rotate(-0, 328.558984, 300.495211)">Opportunity for career advancement</text>
    </g>
    <g id="patch_57">
     <path d="M 300.558984 314.835836 
L 320.558984 314.835836 
L 320.558984 307.835836 
L 300.558984 307.835836 
z
" style="fill: #7f7f7f"/>
    </g>
    <g id="text_63">
     <text style="font: 10px 'sans-serif'; text-anchor: start" x="328.558984" y="314.835836" transform="rotate(-0, 328.558984, 314.835836)">Ability to work across disciplines</text>
    </g>
    <g id="patch_58">
     <path d="M 300.558984 329.176461 
L 320.558984 329.176461 
L 320.558984 322.176461 
L 300.558984 322.176461 
z
" style="fill: #bcbd22"/>
    </g>
    <g id="text_64">
     <text style="font: 10px 'sans-serif'; text-anchor: start" x="328.558984" y="329.176461" transform="rotate(-0, 328.558984, 329.176461)">The salary</text>
    </g>
   </g>
  </g>
 </g>
 <defs>
  <clipPath id="p5bbd2955af">
   <rect x="62.86875" y="25.43625" width="428.153906" height="212.549912"/>
  </clipPath>
 </defs>
</svg>
