<?xml version="1.0" encoding="utf-8" standalone="no"?>
<!DOCTYPE svg PUBLIC "-//W3C//DTD SVG 1.1//EN"
  "http://www.w3.org/Graphics/SVG/1.1/DTD/svg11.dtd">
<svg height="360pt" version="1.1" viewBox="0 0 504 360" width="504pt" xmlns="http://www.w3.org/2000/svg" xmlns:xlink="http://www.w3.org/1999/xlink">
 <metadata>
  <rdf:RDF xmlns:cc="http://creativecommons.org/ns#" xmlns:dc="http://purl.org/dc/elements/1.1/" xmlns:rdf="http://www.w3.org/1999/02/22-rdf-syntax-ns#">
   <cc:Work>
    <dc:type rdf:resource="http://purl.org/dc/dcmitype/StillImage"/>
    <dc:date>2021-07-09T14:36:16.063686</dc:date>
    <dc:format>image/svg+xml</dc:format>
    <dc:creator>
     <cc:Agent>
      <dc:title>Matplotlib v3.4.2, https://matplotlib.org/</dc:title>
     </cc:Agent>
    </dc:creator>
   </cc:Work>
  </rdf:RDF>
 </metadata>
 <defs>
  <style type="text/css">*{stroke-linecap:butt;stroke-linejoin:round;}</style>
 </defs>
 <g id="figure_1">
  <g id="patch_1">
   <path d="M 0 360 
L 504 360 
L 504 0 
L 0 0 
z
" style="fill:#ffffff;"/>
  </g>
  <g id="axes_1">
   <g id="patch_2">
    <path d="M 62.745313 238.526037 
L 487.025156 238.526037 
L 487.025156 25.389375 
L 62.745313 25.389375 
z
" style="fill:#ffffff;"/>
   </g>
   <g id="patch_3">
    <path clip-path="url(#pd7fc2d7990)" d="M 62.745313 227.869204 
L 152.539988 227.869204 
L 152.539988 206.555538 
L 62.745313 206.555538 
z
" style="fill:#1f77b4;"/>
   </g>
   <g id="patch_4">
    <path clip-path="url(#pd7fc2d7990)" d="M 62.745313 185.241872 
L 118.866985 185.241872 
L 118.866985 163.928206 
L 62.745313 163.928206 
z
" style="fill:#1f77b4;"/>
   </g>
   <g id="patch_5">
    <path clip-path="url(#pd7fc2d7990)" d="M 62.745313 142.614539 
L 141.315654 142.614539 
L 141.315654 121.300873 
L 62.745313 121.300873 
z
" style="fill:#1f77b4;"/>
   </g>
   <g id="patch_6">
    <path clip-path="url(#pd7fc2d7990)" d="M 62.745313 99.987207 
L 62.745313 99.987207 
L 62.745313 78.673541 
L 62.745313 78.673541 
z
" style="fill:#1f77b4;"/>
   </g>
   <g id="patch_7">
    <path clip-path="url(#pd7fc2d7990)" d="M 62.745313 57.359874 
L 107.64265 57.359874 
L 107.64265 36.046208 
L 62.745313 36.046208 
z
" style="fill:#1f77b4;"/>
   </g>
   <g id="patch_8">
    <path clip-path="url(#pd7fc2d7990)" d="M 152.539988 227.869204 
L 242.334664 227.869204 
L 242.334664 206.555538 
L 152.539988 206.555538 
z
" style="fill:#ff7f0e;"/>
   </g>
   <g id="patch_9">
    <path clip-path="url(#pd7fc2d7990)" d="M 118.866985 185.241872 
L 141.315654 185.241872 
L 141.315654 163.928206 
L 118.866985 163.928206 
z
" style="fill:#ff7f0e;"/>
   </g>
   <g id="patch_10">
    <path clip-path="url(#pd7fc2d7990)" d="M 62.745313 142.614539 
L 62.745313 142.614539 
L 62.745313 121.300873 
L 62.745313 121.300873 
z
" style="fill:#ff7f0e;"/>
   </g>
   <g id="patch_11">
    <path clip-path="url(#pd7fc2d7990)" d="M 62.745313 99.987207 
L 107.64265 99.987207 
L 107.64265 78.673541 
L 62.745313 78.673541 
z
" style="fill:#ff7f0e;"/>
   </g>
   <g id="patch_12">
    <path clip-path="url(#pd7fc2d7990)" d="M 107.64265 57.359874 
L 163.764323 57.359874 
L 163.764323 36.046208 
L 107.64265 36.046208 
z
" style="fill:#ff7f0e;"/>
   </g>
   <g id="patch_13">
    <path clip-path="url(#pd7fc2d7990)" d="M 242.334664 227.869204 
L 298.456337 227.869204 
L 298.456337 206.555538 
L 242.334664 206.555538 
z
" style="fill:#2ca02c;"/>
   </g>
   <g id="patch_14">
    <path clip-path="url(#pd7fc2d7990)" d="M 141.315654 185.241872 
L 163.764323 185.241872 
L 163.764323 163.928206 
L 141.315654 163.928206 
z
" style="fill:#2ca02c;"/>
   </g>
   <g id="patch_15">
    <path clip-path="url(#pd7fc2d7990)" d="M 141.315654 142.614539 
L 219.885995 142.614539 
L 219.885995 121.300873 
L 141.315654 121.300873 
z
" style="fill:#2ca02c;"/>
   </g>
   <g id="patch_16">
    <path clip-path="url(#pd7fc2d7990)" d="M 107.64265 99.987207 
L 141.315654 99.987207 
L 141.315654 78.673541 
L 107.64265 78.673541 
z
" style="fill:#2ca02c;"/>
   </g>
   <g id="patch_17">
    <path clip-path="url(#pd7fc2d7990)" d="M 163.764323 57.359874 
L 208.661661 57.359874 
L 208.661661 36.046208 
L 163.764323 36.046208 
z
" style="fill:#2ca02c;"/>
   </g>
   <g id="patch_18">
    <path clip-path="url(#pd7fc2d7990)" d="M 298.456337 227.869204 
L 354.578009 227.869204 
L 354.578009 206.555538 
L 298.456337 206.555538 
z
" style="fill:#d62728;"/>
   </g>
   <g id="patch_19">
    <path clip-path="url(#pd7fc2d7990)" d="M 163.764323 185.241872 
L 253.558999 185.241872 
L 253.558999 163.928206 
L 163.764323 163.928206 
z
" style="fill:#d62728;"/>
   </g>
   <g id="patch_20">
    <path clip-path="url(#pd7fc2d7990)" d="M 219.885995 142.614539 
L 264.783333 142.614539 
L 264.783333 121.300873 
L 219.885995 121.300873 
z
" style="fill:#d62728;"/>
   </g>
   <g id="patch_21">
    <path clip-path="url(#pd7fc2d7990)" d="M 141.315654 99.987207 
L 219.885995 99.987207 
L 219.885995 78.673541 
L 141.315654 78.673541 
z
" style="fill:#d62728;"/>
   </g>
   <g id="patch_22">
    <path clip-path="url(#pd7fc2d7990)" d="M 208.661661 57.359874 
L 242.334664 57.359874 
L 242.334664 36.046208 
L 208.661661 36.046208 
z
" style="fill:#d62728;"/>
   </g>
   <g id="patch_23">
    <path clip-path="url(#pd7fc2d7990)" d="M 354.578009 227.869204 
L 388.251013 227.869204 
L 388.251013 206.555538 
L 354.578009 206.555538 
z
" style="fill:#9467bd;"/>
   </g>
   <g id="patch_24">
    <path clip-path="url(#pd7fc2d7990)" d="M 253.558999 185.241872 
L 276.007668 185.241872 
L 276.007668 163.928206 
L 253.558999 163.928206 
z
" style="fill:#9467bd;"/>
   </g>
   <g id="patch_25">
    <path clip-path="url(#pd7fc2d7990)" d="M 264.783333 142.614539 
L 276.007668 142.614539 
L 276.007668 121.300873 
L 264.783333 121.300873 
z
" style="fill:#9467bd;"/>
   </g>
   <g id="patch_26">
    <path clip-path="url(#pd7fc2d7990)" d="M 219.885995 99.987207 
L 287.232002 99.987207 
L 287.232002 78.673541 
L 219.885995 78.673541 
z
" style="fill:#9467bd;"/>
   </g>
   <g id="patch_27">
    <path clip-path="url(#pd7fc2d7990)" d="M 242.334664 57.359874 
L 253.558999 57.359874 
L 253.558999 36.046208 
L 242.334664 36.046208 
z
" style="fill:#9467bd;"/>
   </g>
   <g id="patch_28">
    <path clip-path="url(#pd7fc2d7990)" d="M 388.251013 227.869204 
L 410.699682 227.869204 
L 410.699682 206.555538 
L 388.251013 206.555538 
z
" style="fill:#8c564b;"/>
   </g>
   <g id="patch_29">
    <path clip-path="url(#pd7fc2d7990)" d="M 276.007668 185.241872 
L 309.680671 185.241872 
L 309.680671 163.928206 
L 276.007668 163.928206 
z
" style="fill:#8c564b;"/>
   </g>
   <g id="patch_30">
    <path clip-path="url(#pd7fc2d7990)" d="M 276.007668 142.614539 
L 332.12934 142.614539 
L 332.12934 121.300873 
L 276.007668 121.300873 
z
" style="fill:#8c564b;"/>
   </g>
   <g id="patch_31">
    <path clip-path="url(#pd7fc2d7990)" d="M 287.232002 99.987207 
L 343.353675 99.987207 
L 343.353675 78.673541 
L 287.232002 78.673541 
z
" style="fill:#8c564b;"/>
   </g>
   <g id="patch_32">
    <path clip-path="url(#pd7fc2d7990)" d="M 253.558999 57.359874 
L 276.007668 57.359874 
L 276.007668 36.046208 
L 253.558999 36.046208 
z
" style="fill:#8c564b;"/>
   </g>
   <g id="patch_33">
    <path clip-path="url(#pd7fc2d7990)" d="M 410.699682 227.869204 
L 433.148351 227.869204 
L 433.148351 206.555538 
L 410.699682 206.555538 
z
" style="fill:#e377c2;"/>
   </g>
   <g id="patch_34">
    <path clip-path="url(#pd7fc2d7990)" d="M 309.680671 185.241872 
L 365.802344 185.241872 
L 365.802344 163.928206 
L 309.680671 163.928206 
z
" style="fill:#e377c2;"/>
   </g>
   <g id="patch_35">
    <path clip-path="url(#pd7fc2d7990)" d="M 332.12934 142.614539 
L 377.026678 142.614539 
L 377.026678 121.300873 
L 332.12934 121.300873 
z
" style="fill:#e377c2;"/>
   </g>
   <g id="patch_36">
    <path clip-path="url(#pd7fc2d7990)" d="M 343.353675 99.987207 
L 410.699682 99.987207 
L 410.699682 78.673541 
L 343.353675 78.673541 
z
" style="fill:#e377c2;"/>
   </g>
   <g id="patch_37">
    <path clip-path="url(#pd7fc2d7990)" d="M 276.007668 57.359874 
L 354.578009 57.359874 
L 354.578009 36.046208 
L 276.007668 36.046208 
z
" style="fill:#e377c2;"/>
   </g>
   <g id="patch_38">
    <path clip-path="url(#pd7fc2d7990)" d="M 433.148351 227.869204 
L 455.59702 227.869204 
L 455.59702 206.555538 
L 433.148351 206.555538 
z
" style="fill:#7f7f7f;"/>
   </g>
   <g id="patch_39">
    <path clip-path="url(#pd7fc2d7990)" d="M 365.802344 185.241872 
L 388.251013 185.241872 
L 388.251013 163.928206 
L 365.802344 163.928206 
z
" style="fill:#7f7f7f;"/>
   </g>
   <g id="patch_40">
    <path clip-path="url(#pd7fc2d7990)" d="M 377.026678 142.614539 
L 388.251013 142.614539 
L 388.251013 121.300873 
L 377.026678 121.300873 
z
" style="fill:#7f7f7f;"/>
   </g>
   <g id="patch_41">
    <path clip-path="url(#pd7fc2d7990)" d="M 410.699682 99.987207 
L 433.148351 99.987207 
L 433.148351 78.673541 
L 410.699682 78.673541 
z
" style="fill:#7f7f7f;"/>
   </g>
   <g id="patch_42">
    <path clip-path="url(#pd7fc2d7990)" d="M 354.578009 57.359874 
L 421.924016 57.359874 
L 421.924016 36.046208 
L 354.578009 36.046208 
z
" style="fill:#7f7f7f;"/>
   </g>
   <g id="patch_43">
    <path clip-path="url(#pd7fc2d7990)" d="M 455.59702 227.869204 
L 466.821354 227.869204 
L 466.821354 206.555538 
L 455.59702 206.555538 
z
" style="fill:#bcbd22;"/>
   </g>
   <g id="patch_44">
    <path clip-path="url(#pd7fc2d7990)" d="M 388.251013 185.241872 
L 466.821354 185.241872 
L 466.821354 163.928206 
L 388.251013 163.928206 
z
" style="fill:#bcbd22;"/>
   </g>
   <g id="patch_45">
    <path clip-path="url(#pd7fc2d7990)" d="M 388.251013 142.614539 
L 466.821354 142.614539 
L 466.821354 121.300873 
L 388.251013 121.300873 
z
" style="fill:#bcbd22;"/>
   </g>
   <g id="patch_46">
    <path clip-path="url(#pd7fc2d7990)" d="M 433.148351 99.987207 
L 466.821354 99.987207 
L 466.821354 78.673541 
L 433.148351 78.673541 
z
" style="fill:#bcbd22;"/>
   </g>
   <g id="patch_47">
    <path clip-path="url(#pd7fc2d7990)" d="M 421.924016 57.359874 
L 466.821354 57.359874 
L 466.821354 36.046208 
L 421.924016 36.046208 
z
" style="fill:#bcbd22;"/>
   </g>
   <g id="matplotlib.axis_1">
    <g id="xtick_1">
     <g id="line2d_1">
      <defs>
       <path d="M 0 0 
L 0 3.5 
" id="mc3a356a46d" style="stroke:#000000;stroke-width:0.8;"/>
      </defs>
      <g>
       <use style="stroke:#000000;stroke-width:0.8;" x="62.745313" xlink:href="#mc3a356a46d" y="238.526037"/>
      </g>
     </g>
     <g id="text_1">
      <text style="font-family:Arial;font-size:10px;font-stretch:normal;font-style:normal;font-weight:normal;text-anchor:middle;" transform="rotate(-0, 62.745313, 252.68385)" x="62.745313" y="252.68385">0</text>
     </g>
    </g>
    <g id="xtick_2">
     <g id="line2d_2">
      <g>
       <use style="stroke:#000000;stroke-width:0.8;" x="143.560521" xlink:href="#mc3a356a46d" y="238.526037"/>
      </g>
     </g>
     <g id="text_2">
      <text style="font-family:Arial;font-size:10px;font-stretch:normal;font-style:normal;font-weight:normal;text-anchor:middle;" transform="rotate(-0, 143.560521, 252.68385)" x="143.560521" y="252.68385">20</text>
     </g>
    </g>
    <g id="xtick_3">
     <g id="line2d_3">
      <g>
       <use style="stroke:#000000;stroke-width:0.8;" x="224.375729" xlink:href="#mc3a356a46d" y="238.526037"/>
      </g>
     </g>
     <g id="text_3">
      <text style="font-family:Arial;font-size:10px;font-stretch:normal;font-style:normal;font-weight:normal;text-anchor:middle;" transform="rotate(-0, 224.375729, 252.68385)" x="224.375729" y="252.68385">40</text>
     </g>
    </g>
    <g id="xtick_4">
     <g id="line2d_4">
      <g>
       <use style="stroke:#000000;stroke-width:0.8;" x="305.190937" xlink:href="#mc3a356a46d" y="238.526037"/>
      </g>
     </g>
     <g id="text_4">
      <text style="font-family:Arial;font-size:10px;font-stretch:normal;font-style:normal;font-weight:normal;text-anchor:middle;" transform="rotate(-0, 305.190937, 252.68385)" x="305.190937" y="252.68385">60</text>
     </g>
    </g>
    <g id="xtick_5">
     <g id="line2d_5">
      <g>
       <use style="stroke:#000000;stroke-width:0.8;" x="386.006146" xlink:href="#mc3a356a46d" y="238.526037"/>
      </g>
     </g>
     <g id="text_5">
      <text style="font-family:Arial;font-size:10px;font-stretch:normal;font-style:normal;font-weight:normal;text-anchor:middle;" transform="rotate(-0, 386.006146, 252.68385)" x="386.006146" y="252.68385">80</text>
     </g>
    </g>
    <g id="xtick_6">
     <g id="line2d_6">
      <g>
       <use style="stroke:#000000;stroke-width:0.8;" x="466.821354" xlink:href="#mc3a356a46d" y="238.526037"/>
      </g>
     </g>
     <g id="text_6">
      <text style="font-family:Arial;font-size:10px;font-stretch:normal;font-style:normal;font-weight:normal;text-anchor:middle;" transform="rotate(-0, 466.821354, 252.68385)" x="466.821354" y="252.68385">100</text>
     </g>
    </g>
    <g id="text_7">
     <text style="font-family:Arial;font-size:10px;font-stretch:normal;font-style:normal;font-weight:normal;text-anchor:middle;" transform="rotate(-0, 274.885234, 265.951037)" x="274.885234" y="265.951037">Ranking of importance</text>
    </g>
   </g>
   <g id="matplotlib.axis_2">
    <g id="ytick_1">
     <g id="line2d_7">
      <defs>
       <path d="M 0 0 
L -3.5 0 
" id="m82278324de" style="stroke:#000000;stroke-width:0.8;"/>
      </defs>
      <g>
       <use style="stroke:#000000;stroke-width:0.8;" x="62.745313" xlink:href="#m82278324de" y="217.212371"/>
      </g>
     </g>
     <g id="text_8">
      <text style="font-family:Arial;font-size:10px;font-stretch:normal;font-style:normal;font-weight:normal;text-anchor:end;" transform="rotate(-0, 55.745313, 220.791277)" x="55.745313" y="220.791277">Rank 1</text>
     </g>
    </g>
    <g id="ytick_2">
     <g id="line2d_8">
      <g>
       <use style="stroke:#000000;stroke-width:0.8;" x="62.745313" xlink:href="#m82278324de" y="174.585039"/>
      </g>
     </g>
     <g id="text_9">
      <text style="font-family:Arial;font-size:10px;font-stretch:normal;font-style:normal;font-weight:normal;text-anchor:end;" transform="rotate(-0, 55.745313, 178.163945)" x="55.745313" y="178.163945">Rank 2</text>
     </g>
    </g>
    <g id="ytick_3">
     <g id="line2d_9">
      <g>
       <use style="stroke:#000000;stroke-width:0.8;" x="62.745313" xlink:href="#m82278324de" y="131.957706"/>
      </g>
     </g>
     <g id="text_10">
      <text style="font-family:Arial;font-size:10px;font-stretch:normal;font-style:normal;font-weight:normal;text-anchor:end;" transform="rotate(-0, 55.745313, 135.536612)" x="55.745313" y="135.536612">Rank 3</text>
     </g>
    </g>
    <g id="ytick_4">
     <g id="line2d_10">
      <g>
       <use style="stroke:#000000;stroke-width:0.8;" x="62.745313" xlink:href="#m82278324de" y="89.330374"/>
      </g>
     </g>
     <g id="text_11">
      <text style="font-family:Arial;font-size:10px;font-stretch:normal;font-style:normal;font-weight:normal;text-anchor:end;" transform="rotate(-0, 55.745313, 92.90928)" x="55.745313" y="92.90928">Rank 4</text>
     </g>
    </g>
    <g id="ytick_5">
     <g id="line2d_11">
      <g>
       <use style="stroke:#000000;stroke-width:0.8;" x="62.745313" xlink:href="#m82278324de" y="46.703041"/>
      </g>
     </g>
     <g id="text_12">
      <text style="font-family:Arial;font-size:10px;font-stretch:normal;font-style:normal;font-weight:normal;text-anchor:end;" transform="rotate(-0, 55.745313, 50.281948)" x="55.745313" y="50.281948">Rank 5</text>
     </g>
    </g>
    <g id="text_13">
     <text style="font-family:Arial;font-size:10px;font-stretch:normal;font-style:normal;font-weight:normal;text-anchor:middle;" transform="rotate(-90, 17.957813, 131.957706)" x="17.957813" y="131.957706">Percentage</text>
    </g>
   </g>
   <g id="patch_48">
    <path d="M 62.745313 238.526037 
L 487.025156 238.526037 
" style="fill:none;stroke:#000000;stroke-linecap:square;stroke-linejoin:miter;stroke-width:0.8;"/>
   </g>
   <g id="text_14">
    <text style="font-family:Arial;font-size:10px;font-stretch:normal;font-style:normal;font-weight:normal;text-anchor:middle;" transform="rotate(-0, 107.64265, 221.475104)" x="107.64265" y="221.475104">22</text>
   </g>
   <g id="text_15">
    <text style="font-family:Arial;font-size:10px;font-stretch:normal;font-style:normal;font-weight:normal;text-anchor:middle;" transform="rotate(-0, 90.806149, 178.847772)" x="90.806149" y="178.847772">14</text>
   </g>
   <g id="text_16">
    <text style="font-family:Arial;font-size:10px;font-stretch:normal;font-style:normal;font-weight:normal;text-anchor:middle;" transform="rotate(-0, 102.030483, 136.220439)" x="102.030483" y="136.220439">19</text>
   </g>
   <g id="text_17">
    <text style="font-family:Arial;font-size:10px;font-stretch:normal;font-style:normal;font-weight:normal;text-anchor:middle;" transform="rotate(-0, 85.193981, 50.965775)" x="85.193981" y="50.965775">11</text>
   </g>
   <g id="text_18">
    <text style="font-family:Arial;font-size:10px;font-stretch:normal;font-style:normal;font-weight:normal;text-anchor:middle;" transform="rotate(-0, 197.437326, 221.475104)" x="197.437326" y="221.475104">22</text>
   </g>
   <g id="text_19">
    <text style="font-family:Arial;font-size:10px;font-stretch:normal;font-style:normal;font-weight:normal;text-anchor:middle;" transform="rotate(-0, 130.091319, 178.847772)" x="130.091319" y="178.847772">6</text>
   </g>
   <g id="text_20">
    <text style="font-family:Arial;font-size:10px;font-stretch:normal;font-style:normal;font-weight:normal;text-anchor:middle;" transform="rotate(-0, 85.193981, 93.593107)" x="85.193981" y="93.593107">11</text>
   </g>
   <g id="text_21">
    <text style="font-family:Arial;font-size:10px;font-stretch:normal;font-style:normal;font-weight:normal;text-anchor:middle;" transform="rotate(-0, 135.703487, 50.965775)" x="135.703487" y="50.965775">14</text>
   </g>
   <g id="text_22">
    <text style="font-family:Arial;font-size:10px;font-stretch:normal;font-style:normal;font-weight:normal;text-anchor:middle;" transform="rotate(-0, 270.395501, 221.475104)" x="270.395501" y="221.475104">14</text>
   </g>
   <g id="text_23">
    <text style="font-family:Arial;font-size:10px;font-stretch:normal;font-style:normal;font-weight:normal;text-anchor:middle;" transform="rotate(-0, 152.539988, 178.847772)" x="152.539988" y="178.847772">6</text>
   </g>
   <g id="text_24">
    <text style="font-family:Arial;font-size:10px;font-stretch:normal;font-style:normal;font-weight:normal;text-anchor:middle;" transform="rotate(-0, 180.600825, 136.220439)" x="180.600825" y="136.220439">19</text>
   </g>
   <g id="text_25">
    <text style="font-family:Arial;font-size:10px;font-stretch:normal;font-style:normal;font-weight:normal;text-anchor:middle;" transform="rotate(-0, 124.479152, 93.593107)" x="124.479152" y="93.593107">8</text>
   </g>
   <g id="text_26">
    <text style="font-family:Arial;font-size:10px;font-stretch:normal;font-style:normal;font-weight:normal;text-anchor:middle;" transform="rotate(-0, 186.212992, 50.965775)" x="186.212992" y="50.965775">11</text>
   </g>
   <g id="text_27">
    <text style="font-family:Arial;font-size:10px;font-stretch:normal;font-style:normal;font-weight:normal;text-anchor:middle;" transform="rotate(-0, 326.517173, 221.475104)" x="326.517173" y="221.475104">14</text>
   </g>
   <g id="text_28">
    <text style="font-family:Arial;font-size:10px;font-stretch:normal;font-style:normal;font-weight:normal;text-anchor:middle;" transform="rotate(-0, 208.661661, 178.847772)" x="208.661661" y="178.847772">22</text>
   </g>
   <g id="text_29">
    <text style="font-family:Arial;font-size:10px;font-stretch:normal;font-style:normal;font-weight:normal;text-anchor:middle;" transform="rotate(-0, 242.334664, 136.220439)" x="242.334664" y="136.220439">11</text>
   </g>
   <g id="text_30">
    <text style="font-family:Arial;font-size:10px;font-stretch:normal;font-style:normal;font-weight:normal;text-anchor:middle;" transform="rotate(-0, 180.600825, 93.593107)" x="180.600825" y="93.593107">19</text>
   </g>
   <g id="text_31">
    <text style="font-family:Arial;font-size:10px;font-stretch:normal;font-style:normal;font-weight:normal;text-anchor:middle;" transform="rotate(-0, 225.498163, 50.965775)" x="225.498163" y="50.965775">8</text>
   </g>
   <g id="text_32">
    <text style="font-family:Arial;font-size:10px;font-stretch:normal;font-style:normal;font-weight:normal;text-anchor:middle;" transform="rotate(-0, 371.414511, 221.475104)" x="371.414511" y="221.475104">8</text>
   </g>
   <g id="text_33">
    <text style="font-family:Arial;font-size:10px;font-stretch:normal;font-style:normal;font-weight:normal;text-anchor:middle;" transform="rotate(-0, 264.783333, 178.847772)" x="264.783333" y="178.847772">6</text>
   </g>
   <g id="text_34">
    <text style="font-family:Arial;font-size:10px;font-stretch:normal;font-style:normal;font-weight:normal;text-anchor:middle;" transform="rotate(-0, 253.558999, 93.593107)" x="253.558999" y="93.593107">17</text>
   </g>
   <g id="text_35">
    <text style="font-family:Arial;font-size:10px;font-stretch:normal;font-style:normal;font-weight:normal;text-anchor:middle;" transform="rotate(-0, 399.475347, 221.475104)" x="399.475347" y="221.475104">6</text>
   </g>
   <g id="text_36">
    <text style="font-family:Arial;font-size:10px;font-stretch:normal;font-style:normal;font-weight:normal;text-anchor:middle;" transform="rotate(-0, 292.84417, 178.847772)" x="292.84417" y="178.847772">8</text>
   </g>
   <g id="text_37">
    <text style="font-family:Arial;font-size:10px;font-stretch:normal;font-style:normal;font-weight:normal;text-anchor:middle;" transform="rotate(-0, 304.068504, 136.220439)" x="304.068504" y="136.220439">14</text>
   </g>
   <g id="text_38">
    <text style="font-family:Arial;font-size:10px;font-stretch:normal;font-style:normal;font-weight:normal;text-anchor:middle;" transform="rotate(-0, 315.292839, 93.593107)" x="315.292839" y="93.593107">14</text>
   </g>
   <g id="text_39">
    <text style="font-family:Arial;font-size:10px;font-stretch:normal;font-style:normal;font-weight:normal;text-anchor:middle;" transform="rotate(-0, 264.783333, 50.965775)" x="264.783333" y="50.965775">6</text>
   </g>
   <g id="text_40">
    <text style="font-family:Arial;font-size:10px;font-stretch:normal;font-style:normal;font-weight:normal;text-anchor:middle;" transform="rotate(-0, 421.924016, 221.475104)" x="421.924016" y="221.475104">6</text>
   </g>
   <g id="text_41">
    <text style="font-family:Arial;font-size:10px;font-stretch:normal;font-style:normal;font-weight:normal;text-anchor:middle;" transform="rotate(-0, 337.741508, 178.847772)" x="337.741508" y="178.847772">14</text>
   </g>
   <g id="text_42">
    <text style="font-family:Arial;font-size:10px;font-stretch:normal;font-style:normal;font-weight:normal;text-anchor:middle;" transform="rotate(-0, 354.578009, 136.220439)" x="354.578009" y="136.220439">11</text>
   </g>
   <g id="text_43">
    <text style="font-family:Arial;font-size:10px;font-stretch:normal;font-style:normal;font-weight:normal;text-anchor:middle;" transform="rotate(-0, 377.026678, 93.593107)" x="377.026678" y="93.593107">17</text>
   </g>
   <g id="text_44">
    <text style="font-family:Arial;font-size:10px;font-stretch:normal;font-style:normal;font-weight:normal;text-anchor:middle;" transform="rotate(-0, 315.292839, 50.965775)" x="315.292839" y="50.965775">19</text>
   </g>
   <g id="text_45">
    <text style="font-family:Arial;font-size:10px;font-stretch:normal;font-style:normal;font-weight:normal;text-anchor:middle;" transform="rotate(-0, 444.372685, 221.475104)" x="444.372685" y="221.475104">6</text>
   </g>
   <g id="text_46">
    <text style="font-family:Arial;font-size:10px;font-stretch:normal;font-style:normal;font-weight:normal;text-anchor:middle;" transform="rotate(-0, 377.026678, 178.847772)" x="377.026678" y="178.847772">6</text>
   </g>
   <g id="text_47">
    <text style="font-family:Arial;font-size:10px;font-stretch:normal;font-style:normal;font-weight:normal;text-anchor:middle;" transform="rotate(-0, 421.924016, 93.593107)" x="421.924016" y="93.593107">6</text>
   </g>
   <g id="text_48">
    <text style="font-family:Arial;font-size:10px;font-stretch:normal;font-style:normal;font-weight:normal;text-anchor:middle;" transform="rotate(-0, 388.251013, 50.965775)" x="388.251013" y="50.965775">17</text>
   </g>
   <g id="text_49">
    <text style="font-family:Arial;font-size:10px;font-stretch:normal;font-style:normal;font-weight:normal;text-anchor:middle;" transform="rotate(-0, 427.536183, 178.847772)" x="427.536183" y="178.847772">19</text>
   </g>
   <g id="text_50">
    <text style="font-family:Arial;font-size:10px;font-stretch:normal;font-style:normal;font-weight:normal;text-anchor:middle;" transform="rotate(-0, 427.536183, 136.220439)" x="427.536183" y="136.220439">19</text>
   </g>
   <g id="text_51">
    <text style="font-family:Arial;font-size:10px;font-stretch:normal;font-style:normal;font-weight:normal;text-anchor:middle;" transform="rotate(-0, 449.984852, 93.593107)" x="449.984852" y="93.593107">8</text>
   </g>
   <g id="text_52">
    <text style="font-family:Arial;font-size:10px;font-stretch:normal;font-style:normal;font-weight:normal;text-anchor:middle;" transform="rotate(-0, 444.372685, 50.965775)" x="444.372685" y="50.965775">11</text>
   </g>
   <g id="text_53">
    <text style="font-family:Arial;font-size:12px;font-stretch:normal;font-style:normal;font-weight:normal;text-anchor:middle;" transform="rotate(-0, 274.885234, 19.389375)" x="274.885234" y="19.389375">Reasons to choose current job: New Zealand</text>
   </g>
   <g id="legend_1">
    <g id="patch_49">
     <path d="M 61.201641 349.702787 
L 488.568828 349.702787 
Q 490.568828 349.702787 490.568828 347.702787 
L 490.568828 277.496537 
Q 490.568828 275.496537 488.568828 275.496537 
L 61.201641 275.496537 
Q 59.201641 275.496537 59.201641 277.496537 
L 59.201641 347.702787 
Q 59.201641 349.702787 61.201641 349.702787 
z
" style="fill:#ffffff;opacity:0.8;stroke:#cccccc;stroke-linejoin:miter;"/>
    </g>
    <g id="patch_50">
     <path d="M 63.201641 286.654349 
L 83.201641 286.654349 
L 83.201641 279.654349 
L 63.201641 279.654349 
z
" style="fill:#1f77b4;"/>
    </g>
    <g id="text_54">
     <text style="font-family:Arial;font-size:10px;font-stretch:normal;font-style:normal;font-weight:normal;text-anchor:start;" transform="rotate(-0, 91.201641, 286.654349)" x="91.201641" y="286.654349">Desire to work in a research environment</text>
    </g>
    <g id="patch_51">
     <path d="M 63.201641 300.799662 
L 83.201641 300.799662 
L 83.201641 293.799662 
L 63.201641 293.799662 
z
" style="fill:#ff7f0e;"/>
    </g>
    <g id="text_55">
     <text style="font-family:Arial;font-size:10px;font-stretch:normal;font-style:normal;font-weight:normal;text-anchor:start;" transform="rotate(-0, 91.201641, 300.799662)" x="91.201641" y="300.799662">Freedom to choose own working practices</text>
    </g>
    <g id="patch_52">
     <path d="M 63.201641 315.062162 
L 83.201641 315.062162 
L 83.201641 308.062162 
L 63.201641 308.062162 
z
" style="fill:#2ca02c;"/>
    </g>
    <g id="text_56">
     <text style="font-family:Arial;font-size:10px;font-stretch:normal;font-style:normal;font-weight:normal;text-anchor:start;" transform="rotate(-0, 91.201641, 315.062162)" x="91.201641" y="315.062162">Desire to advance research</text>
    </g>
    <g id="patch_53">
     <path d="M 63.201641 329.335599 
L 83.201641 329.335599 
L 83.201641 322.335599 
L 63.201641 322.335599 
z
" style="fill:#d62728;"/>
    </g>
    <g id="text_57">
     <text style="font-family:Arial;font-size:10px;font-stretch:normal;font-style:normal;font-weight:normal;text-anchor:start;" transform="rotate(-0, 91.201641, 329.335599)" x="91.201641" y="329.335599">Opportunity to develop software</text>
    </g>
    <g id="patch_54">
     <path d="M 63.201641 343.598099 
L 83.201641 343.598099 
L 83.201641 336.598099 
L 63.201641 336.598099 
z
" style="fill:#9467bd;"/>
    </g>
    <g id="text_58">
     <text style="font-family:Arial;font-size:10px;font-stretch:normal;font-style:normal;font-weight:normal;text-anchor:start;" transform="rotate(-0, 91.201641, 343.598099)" x="91.201641" y="343.598099">The salary</text>
    </g>
    <g id="patch_55">
     <path d="M 298.498516 286.654349 
L 318.498516 286.654349 
L 318.498516 279.654349 
L 298.498516 279.654349 
z
" style="fill:#8c564b;"/>
    </g>
    <g id="text_59">
     <text style="font-family:Arial;font-size:10px;font-stretch:normal;font-style:normal;font-weight:normal;text-anchor:start;" transform="rotate(-0, 326.498516, 286.654349)" x="326.498516" y="286.654349">Ability to work across disciplines</text>
    </g>
    <g id="patch_56">
     <path d="M 298.498516 300.916849 
L 318.498516 300.916849 
L 318.498516 293.916849 
L 298.498516 293.916849 
z
" style="fill:#e377c2;"/>
    </g>
    <g id="text_60">
     <text style="font-family:Arial;font-size:10px;font-stretch:normal;font-style:normal;font-weight:normal;text-anchor:start;" transform="rotate(-0, 326.498516, 300.916849)" x="326.498516" y="300.916849">I want to learn new skills</text>
    </g>
    <g id="patch_57">
     <path d="M 298.498516 315.190287 
L 318.498516 315.190287 
L 318.498516 308.190287 
L 298.498516 308.190287 
z
" style="fill:#7f7f7f;"/>
    </g>
    <g id="text_61">
     <text style="font-family:Arial;font-size:10px;font-stretch:normal;font-style:normal;font-weight:normal;text-anchor:start;" transform="rotate(-0, 326.498516, 315.190287)" x="326.498516" y="315.190287">Opportunity for career advancement</text>
    </g>
    <g id="patch_58">
     <path d="M 298.498516 329.452787 
L 318.498516 329.452787 
L 318.498516 322.452787 
L 298.498516 322.452787 
z
" style="fill:#bcbd22;"/>
    </g>
    <g id="text_62">
     <text style="font-family:Arial;font-size:10px;font-stretch:normal;font-style:normal;font-weight:normal;text-anchor:start;" transform="rotate(-0, 326.498516, 329.452787)" x="326.498516" y="329.452787">Flexible working hours</text>
    </g>
   </g>
  </g>
 </g>
 <defs>
  <clipPath id="pd7fc2d7990">
   <rect height="213.136662" width="424.279844" x="62.745313" y="25.389375"/>
  </clipPath>
 </defs>
</svg>
