<?xml version="1.0" encoding="utf-8" standalone="no"?>
<!DOCTYPE svg PUBLIC "-//W3C//DTD SVG 1.1//EN"
  "http://www.w3.org/Graphics/SVG/1.1/DTD/svg11.dtd">
<svg height="360pt" version="1.1" viewBox="0 0 504 360" width="504pt" xmlns="http://www.w3.org/2000/svg" xmlns:xlink="http://www.w3.org/1999/xlink">
 <metadata>
  <rdf:RDF xmlns:cc="http://creativecommons.org/ns#" xmlns:dc="http://purl.org/dc/elements/1.1/" xmlns:rdf="http://www.w3.org/1999/02/22-rdf-syntax-ns#">
   <cc:Work>
    <dc:type rdf:resource="http://purl.org/dc/dcmitype/StillImage"/>
    <dc:date>2021-03-29T22:00:49.951166</dc:date>
    <dc:format>image/svg+xml</dc:format>
    <dc:creator>
     <cc:Agent>
      <dc:title>Matplotlib v3.4.0, https://matplotlib.org/</dc:title>
     </cc:Agent>
    </dc:creator>
   </cc:Work>
  </rdf:RDF>
 </metadata>
 <defs>
  <style type="text/css">*{stroke-linecap:butt;stroke-linejoin:round;}</style>
 </defs>
 <g id="figure_1">
  <g id="patch_1">
   <path d="M 0 360 
L 504 360 
L 504 0 
L 0 0 
z
" style="fill:#ffffff;"/>
  </g>
  <g id="axes_1">
   <g id="patch_2">
    <path d="M 65.998438 236.433125 
L 443.240781 236.433125 
L 443.240781 25.918125 
L 65.998438 25.918125 
z
" style="fill:#ffffff;"/>
   </g>
   <g id="patch_3">
    <path clip-path="url(#p10665914bd)" d="M 65.998438 225.907375 
L 168.649415 225.907375 
L 168.649415 204.855875 
L 65.998438 204.855875 
z
" style="fill:#1f77b4;"/>
   </g>
   <g id="patch_4">
    <path clip-path="url(#p10665914bd)" d="M 65.998438 183.804375 
L 120.990033 183.804375 
L 120.990033 162.752875 
L 65.998438 162.752875 
z
" style="fill:#1f77b4;"/>
   </g>
   <g id="patch_5">
    <path clip-path="url(#p10665914bd)" d="M 65.998438 141.701375 
L 110.445253 141.701375 
L 110.445253 120.649875 
L 65.998438 120.649875 
z
" style="fill:#1f77b4;"/>
   </g>
   <g id="patch_6">
    <path clip-path="url(#p10665914bd)" d="M 65.998438 99.598375 
L 103.03745 99.598375 
L 103.03745 78.546875 
L 65.998438 78.546875 
z
" style="fill:#1f77b4;"/>
   </g>
   <g id="patch_7">
    <path clip-path="url(#p10665914bd)" d="M 65.998438 57.495375 
L 99.333549 57.495375 
L 99.333549 36.443875 
L 65.998438 36.443875 
z
" style="fill:#1f77b4;"/>
   </g>
   <g id="patch_8">
    <path clip-path="url(#p10665914bd)" d="M 168.649415 225.907375 
L 230.973223 225.907375 
L 230.973223 204.855875 
L 168.649415 204.855875 
z
" style="fill:#ff7f0e;"/>
   </g>
   <g id="patch_9">
    <path clip-path="url(#p10665914bd)" d="M 120.990033 183.804375 
L 161.317203 183.804375 
L 161.317203 162.752875 
L 120.990033 162.752875 
z
" style="fill:#ff7f0e;"/>
   </g>
   <g id="patch_10">
    <path clip-path="url(#p10665914bd)" d="M 110.445253 141.701375 
L 143.780364 141.701375 
L 143.780364 120.649875 
L 110.445253 120.649875 
z
" style="fill:#ff7f0e;"/>
   </g>
   <g id="patch_11">
    <path clip-path="url(#p10665914bd)" d="M 103.03745 99.598375 
L 151.188167 99.598375 
L 151.188167 78.546875 
L 103.03745 78.546875 
z
" style="fill:#ff7f0e;"/>
   </g>
   <g id="patch_12">
    <path clip-path="url(#p10665914bd)" d="M 99.333549 57.495375 
L 128.964759 57.495375 
L 128.964759 36.443875 
L 99.333549 36.443875 
z
" style="fill:#ff7f0e;"/>
   </g>
   <g id="patch_13">
    <path clip-path="url(#p10665914bd)" d="M 230.973223 225.907375 
L 285.964819 225.907375 
L 285.964819 204.855875 
L 230.973223 204.855875 
z
" style="fill:#2ca02c;"/>
   </g>
   <g id="patch_14">
    <path clip-path="url(#p10665914bd)" d="M 161.317203 183.804375 
L 212.642692 183.804375 
L 212.642692 162.752875 
L 161.317203 162.752875 
z
" style="fill:#2ca02c;"/>
   </g>
   <g id="patch_15">
    <path clip-path="url(#p10665914bd)" d="M 143.780364 141.701375 
L 203.042784 141.701375 
L 203.042784 120.649875 
L 143.780364 120.649875 
z
" style="fill:#2ca02c;"/>
   </g>
   <g id="patch_16">
    <path clip-path="url(#p10665914bd)" d="M 151.188167 99.598375 
L 195.634982 99.598375 
L 195.634982 78.546875 
L 151.188167 78.546875 
z
" style="fill:#2ca02c;"/>
   </g>
   <g id="patch_17">
    <path clip-path="url(#p10665914bd)" d="M 128.964759 57.495375 
L 166.003772 57.495375 
L 166.003772 36.443875 
L 128.964759 36.443875 
z
" style="fill:#2ca02c;"/>
   </g>
   <g id="patch_18">
    <path clip-path="url(#p10665914bd)" d="M 285.964819 225.907375 
L 329.958095 225.907375 
L 329.958095 204.855875 
L 285.964819 204.855875 
z
" style="fill:#d62728;"/>
   </g>
   <g id="patch_19">
    <path clip-path="url(#p10665914bd)" d="M 212.642692 183.804375 
L 252.969862 183.804375 
L 252.969862 162.752875 
L 212.642692 162.752875 
z
" style="fill:#d62728;"/>
   </g>
   <g id="patch_20">
    <path clip-path="url(#p10665914bd)" d="M 203.042784 141.701375 
L 247.489599 141.701375 
L 247.489599 120.649875 
L 203.042784 120.649875 
z
" style="fill:#d62728;"/>
   </g>
   <g id="patch_21">
    <path clip-path="url(#p10665914bd)" d="M 195.634982 99.598375 
L 232.673994 99.598375 
L 232.673994 78.546875 
L 195.634982 78.546875 
z
" style="fill:#d62728;"/>
   </g>
   <g id="patch_22">
    <path clip-path="url(#p10665914bd)" d="M 166.003772 57.495375 
L 206.746686 57.495375 
L 206.746686 36.443875 
L 166.003772 36.443875 
z
" style="fill:#d62728;"/>
   </g>
   <g id="patch_23">
    <path clip-path="url(#p10665914bd)" d="M 329.958095 225.907375 
L 355.620839 225.907375 
L 355.620839 204.855875 
L 329.958095 204.855875 
z
" style="fill:#9467bd;"/>
   </g>
   <g id="patch_24">
    <path clip-path="url(#p10665914bd)" d="M 252.969862 183.804375 
L 293.297031 183.804375 
L 293.297031 162.752875 
L 252.969862 162.752875 
z
" style="fill:#9467bd;"/>
   </g>
   <g id="patch_25">
    <path clip-path="url(#p10665914bd)" d="M 247.489599 141.701375 
L 277.12081 141.701375 
L 277.12081 120.649875 
L 247.489599 120.649875 
z
" style="fill:#9467bd;"/>
   </g>
   <g id="patch_26">
    <path clip-path="url(#p10665914bd)" d="M 232.673994 99.598375 
L 258.601303 99.598375 
L 258.601303 78.546875 
L 232.673994 78.546875 
z
" style="fill:#9467bd;"/>
   </g>
   <g id="patch_27">
    <path clip-path="url(#p10665914bd)" d="M 206.746686 57.495375 
L 243.785698 57.495375 
L 243.785698 36.443875 
L 206.746686 36.443875 
z
" style="fill:#9467bd;"/>
   </g>
   <g id="patch_28">
    <path clip-path="url(#p10665914bd)" d="M 355.620839 225.907375 
L 381.283584 225.907375 
L 381.283584 204.855875 
L 355.620839 204.855875 
z
" style="fill:#8c564b;"/>
   </g>
   <g id="patch_29">
    <path clip-path="url(#p10665914bd)" d="M 293.297031 183.804375 
L 340.956414 183.804375 
L 340.956414 162.752875 
L 293.297031 162.752875 
z
" style="fill:#8c564b;"/>
   </g>
   <g id="patch_30">
    <path clip-path="url(#p10665914bd)" d="M 277.12081 141.701375 
L 310.455921 141.701375 
L 310.455921 120.649875 
L 277.12081 120.649875 
z
" style="fill:#8c564b;"/>
   </g>
   <g id="patch_31">
    <path clip-path="url(#p10665914bd)" d="M 258.601303 99.598375 
L 306.75202 99.598375 
L 306.75202 78.546875 
L 258.601303 78.546875 
z
" style="fill:#8c564b;"/>
   </g>
   <g id="patch_32">
    <path clip-path="url(#p10665914bd)" d="M 243.785698 57.495375 
L 295.640316 57.495375 
L 295.640316 36.443875 
L 243.785698 36.443875 
z
" style="fill:#8c564b;"/>
   </g>
   <g id="patch_33">
    <path clip-path="url(#p10665914bd)" d="M 381.283584 225.907375 
L 403.280222 225.907375 
L 403.280222 204.855875 
L 381.283584 204.855875 
z
" style="fill:#e377c2;"/>
   </g>
   <g id="patch_34">
    <path clip-path="url(#p10665914bd)" d="M 340.956414 183.804375 
L 362.953052 183.804375 
L 362.953052 162.752875 
L 340.956414 162.752875 
z
" style="fill:#e377c2;"/>
   </g>
   <g id="patch_35">
    <path clip-path="url(#p10665914bd)" d="M 310.455921 141.701375 
L 347.494934 141.701375 
L 347.494934 120.649875 
L 310.455921 120.649875 
z
" style="fill:#e377c2;"/>
   </g>
   <g id="patch_36">
    <path clip-path="url(#p10665914bd)" d="M 306.75202 99.598375 
L 340.087131 99.598375 
L 340.087131 78.546875 
L 306.75202 78.546875 
z
" style="fill:#e377c2;"/>
   </g>
   <g id="patch_37">
    <path clip-path="url(#p10665914bd)" d="M 295.640316 57.495375 
L 343.791032 57.495375 
L 343.791032 36.443875 
L 295.640316 36.443875 
z
" style="fill:#e377c2;"/>
   </g>
   <g id="patch_38">
    <path clip-path="url(#p10665914bd)" d="M 403.280222 225.907375 
L 421.610754 225.907375 
L 421.610754 204.855875 
L 403.280222 204.855875 
z
" style="fill:#7f7f7f;"/>
   </g>
   <g id="patch_39">
    <path clip-path="url(#p10665914bd)" d="M 362.953052 183.804375 
L 406.946328 183.804375 
L 406.946328 162.752875 
L 362.953052 162.752875 
z
" style="fill:#7f7f7f;"/>
   </g>
   <g id="patch_40">
    <path clip-path="url(#p10665914bd)" d="M 347.494934 141.701375 
L 384.533946 141.701375 
L 384.533946 120.649875 
L 347.494934 120.649875 
z
" style="fill:#7f7f7f;"/>
   </g>
   <g id="patch_41">
    <path clip-path="url(#p10665914bd)" d="M 340.087131 99.598375 
L 380.830045 99.598375 
L 380.830045 78.546875 
L 340.087131 78.546875 
z
" style="fill:#7f7f7f;"/>
   </g>
   <g id="patch_42">
    <path clip-path="url(#p10665914bd)" d="M 343.791032 57.495375 
L 391.941749 57.495375 
L 391.941749 36.443875 
L 343.791032 36.443875 
z
" style="fill:#7f7f7f;"/>
   </g>
   <g id="patch_43">
    <path clip-path="url(#p10665914bd)" d="M 421.610754 225.907375 
L 425.27686 225.907375 
L 425.27686 204.855875 
L 421.610754 204.855875 
z
" style="fill:#bcbd22;"/>
   </g>
   <g id="patch_44">
    <path clip-path="url(#p10665914bd)" d="M 406.946328 183.804375 
L 425.27686 183.804375 
L 425.27686 162.752875 
L 406.946328 162.752875 
z
" style="fill:#bcbd22;"/>
   </g>
   <g id="patch_45">
    <path clip-path="url(#p10665914bd)" d="M 384.533946 141.701375 
L 425.27686 141.701375 
L 425.27686 120.649875 
L 384.533946 120.649875 
z
" style="fill:#bcbd22;"/>
   </g>
   <g id="patch_46">
    <path clip-path="url(#p10665914bd)" d="M 380.830045 99.598375 
L 425.27686 99.598375 
L 425.27686 78.546875 
L 380.830045 78.546875 
z
" style="fill:#bcbd22;"/>
   </g>
   <g id="patch_47">
    <path clip-path="url(#p10665914bd)" d="M 391.941749 57.495375 
L 425.27686 57.495375 
L 425.27686 36.443875 
L 391.941749 36.443875 
z
" style="fill:#bcbd22;"/>
   </g>
   <g id="matplotlib.axis_1">
    <g id="xtick_1">
     <g id="line2d_1">
      <defs>
       <path d="M 0 0 
L 0 3.5 
" id="mc3a356a46d" style="stroke:#000000;stroke-width:0.8;"/>
      </defs>
      <g>
       <use style="stroke:#000000;stroke-width:0.8;" x="65.998438" xlink:href="#mc3a356a46d" y="236.433125"/>
      </g>
     </g>
     <g id="text_1">
      <text style="font-family:DejaVu Sans;font-size:10px;font-stretch:normal;font-style:normal;font-weight:normal;text-anchor:middle;" transform="rotate(-0, 65.998438, 251.031563)" x="65.998438" y="251.031563">0</text>
     </g>
    </g>
    <g id="xtick_2">
     <g id="line2d_2">
      <g>
       <use style="stroke:#000000;stroke-width:0.8;" x="137.854122" xlink:href="#mc3a356a46d" y="236.433125"/>
      </g>
     </g>
     <g id="text_2">
      <text style="font-family:DejaVu Sans;font-size:10px;font-stretch:normal;font-style:normal;font-weight:normal;text-anchor:middle;" transform="rotate(-0, 137.854122, 251.031563)" x="137.854122" y="251.031563">20</text>
     </g>
    </g>
    <g id="xtick_3">
     <g id="line2d_3">
      <g>
       <use style="stroke:#000000;stroke-width:0.8;" x="209.709807" xlink:href="#mc3a356a46d" y="236.433125"/>
      </g>
     </g>
     <g id="text_3">
      <text style="font-family:DejaVu Sans;font-size:10px;font-stretch:normal;font-style:normal;font-weight:normal;text-anchor:middle;" transform="rotate(-0, 209.709807, 251.031563)" x="209.709807" y="251.031563">40</text>
     </g>
    </g>
    <g id="xtick_4">
     <g id="line2d_4">
      <g>
       <use style="stroke:#000000;stroke-width:0.8;" x="281.565491" xlink:href="#mc3a356a46d" y="236.433125"/>
      </g>
     </g>
     <g id="text_4">
      <text style="font-family:DejaVu Sans;font-size:10px;font-stretch:normal;font-style:normal;font-weight:normal;text-anchor:middle;" transform="rotate(-0, 281.565491, 251.031563)" x="281.565491" y="251.031563">60</text>
     </g>
    </g>
    <g id="xtick_5">
     <g id="line2d_5">
      <g>
       <use style="stroke:#000000;stroke-width:0.8;" x="353.421176" xlink:href="#mc3a356a46d" y="236.433125"/>
      </g>
     </g>
     <g id="text_5">
      <text style="font-family:DejaVu Sans;font-size:10px;font-stretch:normal;font-style:normal;font-weight:normal;text-anchor:middle;" transform="rotate(-0, 353.421176, 251.031563)" x="353.421176" y="251.031563">80</text>
     </g>
    </g>
    <g id="xtick_6">
     <g id="line2d_6">
      <g>
       <use style="stroke:#000000;stroke-width:0.8;" x="425.27686" xlink:href="#mc3a356a46d" y="236.433125"/>
      </g>
     </g>
     <g id="text_6">
      <text style="font-family:DejaVu Sans;font-size:10px;font-stretch:normal;font-style:normal;font-weight:normal;text-anchor:middle;" transform="rotate(-0, 425.27686, 251.031563)" x="425.27686" y="251.031563">100</text>
     </g>
    </g>
    <g id="text_7">
     <text style="font-family:DejaVu Sans;font-size:10px;font-stretch:normal;font-style:normal;font-weight:normal;text-anchor:middle;" transform="rotate(-0, 254.619609, 264.709688)" x="254.619609" y="264.709688">Ranking of importance</text>
    </g>
   </g>
   <g id="matplotlib.axis_2">
    <g id="ytick_1">
     <g id="line2d_7">
      <defs>
       <path d="M 0 0 
L -3.5 0 
" id="m82278324de" style="stroke:#000000;stroke-width:0.8;"/>
      </defs>
      <g>
       <use style="stroke:#000000;stroke-width:0.8;" x="65.998438" xlink:href="#m82278324de" y="215.381625"/>
      </g>
     </g>
     <g id="text_8">
      <text style="font-family:DejaVu Sans;font-size:10px;font-stretch:normal;font-style:normal;font-weight:normal;text-anchor:end;" transform="rotate(-0, 58.998438, 219.180844)" x="58.998438" y="219.180844">Rank 1</text>
     </g>
    </g>
    <g id="ytick_2">
     <g id="line2d_8">
      <g>
       <use style="stroke:#000000;stroke-width:0.8;" x="65.998438" xlink:href="#m82278324de" y="173.278625"/>
      </g>
     </g>
     <g id="text_9">
      <text style="font-family:DejaVu Sans;font-size:10px;font-stretch:normal;font-style:normal;font-weight:normal;text-anchor:end;" transform="rotate(-0, 58.998438, 177.077844)" x="58.998438" y="177.077844">Rank 2</text>
     </g>
    </g>
    <g id="ytick_3">
     <g id="line2d_9">
      <g>
       <use style="stroke:#000000;stroke-width:0.8;" x="65.998438" xlink:href="#m82278324de" y="131.175625"/>
      </g>
     </g>
     <g id="text_10">
      <text style="font-family:DejaVu Sans;font-size:10px;font-stretch:normal;font-style:normal;font-weight:normal;text-anchor:end;" transform="rotate(-0, 58.998438, 134.974844)" x="58.998438" y="134.974844">Rank 3</text>
     </g>
    </g>
    <g id="ytick_4">
     <g id="line2d_10">
      <g>
       <use style="stroke:#000000;stroke-width:0.8;" x="65.998438" xlink:href="#m82278324de" y="89.072625"/>
      </g>
     </g>
     <g id="text_11">
      <text style="font-family:DejaVu Sans;font-size:10px;font-stretch:normal;font-style:normal;font-weight:normal;text-anchor:end;" transform="rotate(-0, 58.998438, 92.871844)" x="58.998438" y="92.871844">Rank 4</text>
     </g>
    </g>
    <g id="ytick_5">
     <g id="line2d_11">
      <g>
       <use style="stroke:#000000;stroke-width:0.8;" x="65.998438" xlink:href="#m82278324de" y="46.969625"/>
      </g>
     </g>
     <g id="text_12">
      <text style="font-family:DejaVu Sans;font-size:10px;font-stretch:normal;font-style:normal;font-weight:normal;text-anchor:end;" transform="rotate(-0, 58.998438, 50.768844)" x="58.998438" y="50.768844">Rank 5</text>
     </g>
    </g>
    <g id="text_13">
     <text style="font-family:DejaVu Sans;font-size:10px;font-stretch:normal;font-style:normal;font-weight:normal;text-anchor:middle;" transform="rotate(-90, 18.398438, 131.175625)" x="18.398438" y="131.175625">Percentage</text>
    </g>
   </g>
   <g id="patch_48">
    <path d="M 65.998438 236.433125 
L 443.240781 236.433125 
" style="fill:none;stroke:#000000;stroke-linecap:square;stroke-linejoin:miter;stroke-width:0.8;"/>
   </g>
   <g id="text_14">
    <text style="font-family:DejaVu Sans;font-size:10px;font-stretch:normal;font-style:normal;font-weight:normal;text-anchor:middle;" transform="rotate(-0, 117.323926, 219.591925)" x="117.323926" y="219.591925">29</text>
   </g>
   <g id="text_15">
    <text style="font-family:DejaVu Sans;font-size:10px;font-stretch:normal;font-style:normal;font-weight:normal;text-anchor:middle;" transform="rotate(-0, 93.494235, 177.488925)" x="93.494235" y="177.488925">15</text>
   </g>
   <g id="text_16">
    <text style="font-family:DejaVu Sans;font-size:10px;font-stretch:normal;font-style:normal;font-weight:normal;text-anchor:middle;" transform="rotate(-0, 88.221845, 135.385925)" x="88.221845" y="135.385925">12</text>
   </g>
   <g id="text_17">
    <text style="font-family:DejaVu Sans;font-size:10px;font-stretch:normal;font-style:normal;font-weight:normal;text-anchor:middle;" transform="rotate(-0, 84.517944, 93.282925)" x="84.517944" y="93.282925">10</text>
   </g>
   <g id="text_18">
    <text style="font-family:DejaVu Sans;font-size:10px;font-stretch:normal;font-style:normal;font-weight:normal;text-anchor:middle;" transform="rotate(-0, 82.665993, 51.179925)" x="82.665993" y="51.179925">9</text>
   </g>
   <g id="text_19">
    <text style="font-family:DejaVu Sans;font-size:10px;font-stretch:normal;font-style:normal;font-weight:normal;text-anchor:middle;" transform="rotate(-0, 199.811319, 219.591925)" x="199.811319" y="219.591925">17</text>
   </g>
   <g id="text_20">
    <text style="font-family:DejaVu Sans;font-size:10px;font-stretch:normal;font-style:normal;font-weight:normal;text-anchor:middle;" transform="rotate(-0, 141.153618, 177.488925)" x="141.153618" y="177.488925">11</text>
   </g>
   <g id="text_21">
    <text style="font-family:DejaVu Sans;font-size:10px;font-stretch:normal;font-style:normal;font-weight:normal;text-anchor:middle;" transform="rotate(-0, 127.112808, 135.385925)" x="127.112808" y="135.385925">9</text>
   </g>
   <g id="text_22">
    <text style="font-family:DejaVu Sans;font-size:10px;font-stretch:normal;font-style:normal;font-weight:normal;text-anchor:middle;" transform="rotate(-0, 127.112808, 93.282925)" x="127.112808" y="93.282925">13</text>
   </g>
   <g id="text_23">
    <text style="font-family:DejaVu Sans;font-size:10px;font-stretch:normal;font-style:normal;font-weight:normal;text-anchor:middle;" transform="rotate(-0, 114.149154, 51.179925)" x="114.149154" y="51.179925">8</text>
   </g>
   <g id="text_24">
    <text style="font-family:DejaVu Sans;font-size:10px;font-stretch:normal;font-style:normal;font-weight:normal;text-anchor:middle;" transform="rotate(-0, 258.469021, 219.591925)" x="258.469021" y="219.591925">15</text>
   </g>
   <g id="text_25">
    <text style="font-family:DejaVu Sans;font-size:10px;font-stretch:normal;font-style:normal;font-weight:normal;text-anchor:middle;" transform="rotate(-0, 186.979947, 177.488925)" x="186.979947" y="177.488925">14</text>
   </g>
   <g id="text_26">
    <text style="font-family:DejaVu Sans;font-size:10px;font-stretch:normal;font-style:normal;font-weight:normal;text-anchor:middle;" transform="rotate(-0, 173.411574, 135.385925)" x="173.411574" y="135.385925">16</text>
   </g>
   <g id="text_27">
    <text style="font-family:DejaVu Sans;font-size:10px;font-stretch:normal;font-style:normal;font-weight:normal;text-anchor:middle;" transform="rotate(-0, 173.411574, 93.282925)" x="173.411574" y="93.282925">12</text>
   </g>
   <g id="text_28">
    <text style="font-family:DejaVu Sans;font-size:10px;font-stretch:normal;font-style:normal;font-weight:normal;text-anchor:middle;" transform="rotate(-0, 147.484265, 51.179925)" x="147.484265" y="51.179925">10</text>
   </g>
   <g id="text_29">
    <text style="font-family:DejaVu Sans;font-size:10px;font-stretch:normal;font-style:normal;font-weight:normal;text-anchor:middle;" transform="rotate(-0, 307.961457, 219.591925)" x="307.961457" y="219.591925">12</text>
   </g>
   <g id="text_30">
    <text style="font-family:DejaVu Sans;font-size:10px;font-stretch:normal;font-style:normal;font-weight:normal;text-anchor:middle;" transform="rotate(-0, 232.806277, 177.488925)" x="232.806277" y="177.488925">11</text>
   </g>
   <g id="text_31">
    <text style="font-family:DejaVu Sans;font-size:10px;font-stretch:normal;font-style:normal;font-weight:normal;text-anchor:middle;" transform="rotate(-0, 225.266192, 135.385925)" x="225.266192" y="135.385925">12</text>
   </g>
   <g id="text_32">
    <text style="font-family:DejaVu Sans;font-size:10px;font-stretch:normal;font-style:normal;font-weight:normal;text-anchor:middle;" transform="rotate(-0, 214.154488, 93.282925)" x="214.154488" y="93.282925">10</text>
   </g>
   <g id="text_33">
    <text style="font-family:DejaVu Sans;font-size:10px;font-stretch:normal;font-style:normal;font-weight:normal;text-anchor:middle;" transform="rotate(-0, 186.375229, 51.179925)" x="186.375229" y="51.179925">11</text>
   </g>
   <g id="text_34">
    <text style="font-family:DejaVu Sans;font-size:10px;font-stretch:normal;font-style:normal;font-weight:normal;text-anchor:middle;" transform="rotate(-0, 342.789467, 219.591925)" x="342.789467" y="219.591925">7</text>
   </g>
   <g id="text_35">
    <text style="font-family:DejaVu Sans;font-size:10px;font-stretch:normal;font-style:normal;font-weight:normal;text-anchor:middle;" transform="rotate(-0, 273.133446, 177.488925)" x="273.133446" y="177.488925">11</text>
   </g>
   <g id="text_36">
    <text style="font-family:DejaVu Sans;font-size:10px;font-stretch:normal;font-style:normal;font-weight:normal;text-anchor:middle;" transform="rotate(-0, 262.305204, 135.385925)" x="262.305204" y="135.385925">8</text>
   </g>
   <g id="text_37">
    <text style="font-family:DejaVu Sans;font-size:10px;font-stretch:normal;font-style:normal;font-weight:normal;text-anchor:middle;" transform="rotate(-0, 245.637649, 93.282925)" x="245.637649" y="93.282925">7</text>
   </g>
   <g id="text_38">
    <text style="font-family:DejaVu Sans;font-size:10px;font-stretch:normal;font-style:normal;font-weight:normal;text-anchor:middle;" transform="rotate(-0, 225.266192, 51.179925)" x="225.266192" y="51.179925">10</text>
   </g>
   <g id="text_39">
    <text style="font-family:DejaVu Sans;font-size:10px;font-stretch:normal;font-style:normal;font-weight:normal;text-anchor:middle;" transform="rotate(-0, 368.452212, 219.591925)" x="368.452212" y="219.591925">7</text>
   </g>
   <g id="text_40">
    <text style="font-family:DejaVu Sans;font-size:10px;font-stretch:normal;font-style:normal;font-weight:normal;text-anchor:middle;" transform="rotate(-0, 317.126723, 177.488925)" x="317.126723" y="177.488925">13</text>
   </g>
   <g id="text_41">
    <text style="font-family:DejaVu Sans;font-size:10px;font-stretch:normal;font-style:normal;font-weight:normal;text-anchor:middle;" transform="rotate(-0, 293.788365, 135.385925)" x="293.788365" y="135.385925">9</text>
   </g>
   <g id="text_42">
    <text style="font-family:DejaVu Sans;font-size:10px;font-stretch:normal;font-style:normal;font-weight:normal;text-anchor:middle;" transform="rotate(-0, 282.676661, 93.282925)" x="282.676661" y="93.282925">13</text>
   </g>
   <g id="text_43">
    <text style="font-family:DejaVu Sans;font-size:10px;font-stretch:normal;font-style:normal;font-weight:normal;text-anchor:middle;" transform="rotate(-0, 269.713007, 51.179925)" x="269.713007" y="51.179925">14</text>
   </g>
   <g id="text_44">
    <text style="font-family:DejaVu Sans;font-size:10px;font-stretch:normal;font-style:normal;font-weight:normal;text-anchor:middle;" transform="rotate(-0, 392.281903, 219.591925)" x="392.281903" y="219.591925">6</text>
   </g>
   <g id="text_45">
    <text style="font-family:DejaVu Sans;font-size:10px;font-stretch:normal;font-style:normal;font-weight:normal;text-anchor:middle;" transform="rotate(-0, 351.954733, 177.488925)" x="351.954733" y="177.488925">6</text>
   </g>
   <g id="text_46">
    <text style="font-family:DejaVu Sans;font-size:10px;font-stretch:normal;font-style:normal;font-weight:normal;text-anchor:middle;" transform="rotate(-0, 328.975427, 135.385925)" x="328.975427" y="135.385925">10</text>
   </g>
   <g id="text_47">
    <text style="font-family:DejaVu Sans;font-size:10px;font-stretch:normal;font-style:normal;font-weight:normal;text-anchor:middle;" transform="rotate(-0, 323.419575, 93.282925)" x="323.419575" y="93.282925">9</text>
   </g>
   <g id="text_48">
    <text style="font-family:DejaVu Sans;font-size:10px;font-stretch:normal;font-style:normal;font-weight:normal;text-anchor:middle;" transform="rotate(-0, 319.715674, 51.179925)" x="319.715674" y="51.179925">13</text>
   </g>
   <g id="text_49">
    <text style="font-family:DejaVu Sans;font-size:10px;font-stretch:normal;font-style:normal;font-weight:normal;text-anchor:middle;" transform="rotate(-0, 412.445488, 219.591925)" x="412.445488" y="219.591925">5</text>
   </g>
   <g id="text_50">
    <text style="font-family:DejaVu Sans;font-size:10px;font-stretch:normal;font-style:normal;font-weight:normal;text-anchor:middle;" transform="rotate(-0, 384.94969, 177.488925)" x="384.94969" y="177.488925">12</text>
   </g>
   <g id="text_51">
    <text style="font-family:DejaVu Sans;font-size:10px;font-stretch:normal;font-style:normal;font-weight:normal;text-anchor:middle;" transform="rotate(-0, 366.01444, 135.385925)" x="366.01444" y="135.385925">10</text>
   </g>
   <g id="text_52">
    <text style="font-family:DejaVu Sans;font-size:10px;font-stretch:normal;font-style:normal;font-weight:normal;text-anchor:middle;" transform="rotate(-0, 360.458588, 93.282925)" x="360.458588" y="93.282925">11</text>
   </g>
   <g id="text_53">
    <text style="font-family:DejaVu Sans;font-size:10px;font-stretch:normal;font-style:normal;font-weight:normal;text-anchor:middle;" transform="rotate(-0, 367.866391, 51.179925)" x="367.866391" y="51.179925">13</text>
   </g>
   <g id="text_54">
    <text style="font-family:DejaVu Sans;font-size:10px;font-stretch:normal;font-style:normal;font-weight:normal;text-anchor:middle;" transform="rotate(-0, 416.111594, 177.488925)" x="416.111594" y="177.488925">5</text>
   </g>
   <g id="text_55">
    <text style="font-family:DejaVu Sans;font-size:10px;font-stretch:normal;font-style:normal;font-weight:normal;text-anchor:middle;" transform="rotate(-0, 404.905403, 135.385925)" x="404.905403" y="135.385925">11</text>
   </g>
   <g id="text_56">
    <text style="font-family:DejaVu Sans;font-size:10px;font-stretch:normal;font-style:normal;font-weight:normal;text-anchor:middle;" transform="rotate(-0, 403.053453, 93.282925)" x="403.053453" y="93.282925">12</text>
   </g>
   <g id="text_57">
    <text style="font-family:DejaVu Sans;font-size:10px;font-stretch:normal;font-style:normal;font-weight:normal;text-anchor:middle;" transform="rotate(-0, 408.609304, 51.179925)" x="408.609304" y="51.179925">9</text>
   </g>
   <g id="text_58">
    <text style="font-family:DejaVu Sans;font-size:12px;font-stretch:normal;font-style:normal;font-weight:normal;text-anchor:middle;" transform="rotate(-0, 254.619609, 19.918125)" x="254.619609" y="19.918125">Reasons to choose current job: Australia</text>
   </g>
   <g id="legend_1">
    <g id="patch_49">
     <path d="M 17.307891 349.401 
L 491.931328 349.401 
Q 493.931328 349.401 493.931328 347.401 
L 493.931328 275.010375 
Q 493.931328 273.010375 491.931328 273.010375 
L 17.307891 273.010375 
Q 15.307891 273.010375 15.307891 275.010375 
L 15.307891 347.401 
Q 15.307891 349.401 17.307891 349.401 
z
" style="fill:#ffffff;opacity:0.8;stroke:#cccccc;stroke-linejoin:miter;"/>
    </g>
    <g id="patch_50">
     <path d="M 19.307891 284.608812 
L 39.307891 284.608812 
L 39.307891 277.608812 
L 19.307891 277.608812 
z
" style="fill:#1f77b4;"/>
    </g>
    <g id="text_59">
     <text style="font-family:DejaVu Sans;font-size:10px;font-stretch:normal;font-style:normal;font-weight:normal;text-anchor:start;" transform="rotate(-0, 47.307891, 284.608812)" x="47.307891" y="284.608812">Desire to work in a research environment</text>
    </g>
    <g id="patch_51">
     <path d="M 19.307891 299.286938 
L 39.307891 299.286938 
L 39.307891 292.286938 
L 19.307891 292.286938 
z
" style="fill:#ff7f0e;"/>
    </g>
    <g id="text_60">
     <text style="font-family:DejaVu Sans;font-size:10px;font-stretch:normal;font-style:normal;font-weight:normal;text-anchor:start;" transform="rotate(-0, 47.307891, 299.286938)" x="47.307891" y="299.286938">Freedom to choose own working practices</text>
    </g>
    <g id="patch_52">
     <path d="M 19.307891 313.965063 
L 39.307891 313.965063 
L 39.307891 306.965063 
L 19.307891 306.965063 
z
" style="fill:#2ca02c;"/>
    </g>
    <g id="text_61">
     <text style="font-family:DejaVu Sans;font-size:10px;font-stretch:normal;font-style:normal;font-weight:normal;text-anchor:start;" transform="rotate(-0, 47.307891, 313.965063)" x="47.307891" y="313.965063">Desire to advance research</text>
    </g>
    <g id="patch_53">
     <path d="M 19.307891 328.643188 
L 39.307891 328.643188 
L 39.307891 321.643188 
L 19.307891 321.643188 
z
" style="fill:#d62728;"/>
    </g>
    <g id="text_62">
     <text style="font-family:DejaVu Sans;font-size:10px;font-stretch:normal;font-style:normal;font-weight:normal;text-anchor:start;" transform="rotate(-0, 47.307891, 328.643188)" x="47.307891" y="328.643188">Opportunity to develop software</text>
    </g>
    <g id="patch_54">
     <path d="M 19.307891 343.321313 
L 39.307891 343.321313 
L 39.307891 336.321313 
L 19.307891 336.321313 
z
" style="fill:#9467bd;"/>
    </g>
    <g id="text_63">
     <text style="font-family:DejaVu Sans;font-size:10px;font-stretch:normal;font-style:normal;font-weight:normal;text-anchor:start;" transform="rotate(-0, 47.307891, 343.321313)" x="47.307891" y="343.321313">Ability to work across disciplines</text>
    </g>
    <g id="patch_55">
     <path d="M 278.042266 284.608812 
L 298.042266 284.608812 
L 298.042266 277.608812 
L 278.042266 277.608812 
z
" style="fill:#8c564b;"/>
    </g>
    <g id="text_64">
     <text style="font-family:DejaVu Sans;font-size:10px;font-stretch:normal;font-style:normal;font-weight:normal;text-anchor:start;" transform="rotate(-0, 306.042266, 284.608812)" x="306.042266" y="284.608812">I want to learn new skills</text>
    </g>
    <g id="patch_56">
     <path d="M 278.042266 299.286938 
L 298.042266 299.286938 
L 298.042266 292.286938 
L 278.042266 292.286938 
z
" style="fill:#e377c2;"/>
    </g>
    <g id="text_65">
     <text style="font-family:DejaVu Sans;font-size:10px;font-stretch:normal;font-style:normal;font-weight:normal;text-anchor:start;" transform="rotate(-0, 306.042266, 299.286938)" x="306.042266" y="299.286938">Opportunity for career advancement</text>
    </g>
    <g id="patch_57">
     <path d="M 278.042266 313.965063 
L 298.042266 313.965063 
L 298.042266 306.965063 
L 278.042266 306.965063 
z
" style="fill:#7f7f7f;"/>
    </g>
    <g id="text_66">
     <text style="font-family:DejaVu Sans;font-size:10px;font-stretch:normal;font-style:normal;font-weight:normal;text-anchor:start;" transform="rotate(-0, 306.042266, 313.965063)" x="306.042266" y="313.965063">Flexible working hours</text>
    </g>
    <g id="patch_58">
     <path d="M 278.042266 328.643188 
L 298.042266 328.643188 
L 298.042266 321.643188 
L 278.042266 321.643188 
z
" style="fill:#bcbd22;"/>
    </g>
    <g id="text_67">
     <text style="font-family:DejaVu Sans;font-size:10px;font-stretch:normal;font-style:normal;font-weight:normal;text-anchor:start;" transform="rotate(-0, 306.042266, 328.643188)" x="306.042266" y="328.643188">The salary</text>
    </g>
   </g>
  </g>
 </g>
 <defs>
  <clipPath id="p10665914bd">
   <rect height="210.515" width="377.242344" x="65.998438" y="25.918125"/>
  </clipPath>
 </defs>
</svg>
