<?xml version="1.0" encoding="utf-8" standalone="no"?>
<!DOCTYPE svg PUBLIC "-//W3C//DTD SVG 1.1//EN"
  "http://www.w3.org/Graphics/SVG/1.1/DTD/svg11.dtd">
<svg height="360pt" version="1.1" viewBox="0 0 504 360" width="504pt" xmlns="http://www.w3.org/2000/svg" xmlns:xlink="http://www.w3.org/1999/xlink">
 <metadata>
  <rdf:RDF xmlns:cc="http://creativecommons.org/ns#" xmlns:dc="http://purl.org/dc/elements/1.1/" xmlns:rdf="http://www.w3.org/1999/02/22-rdf-syntax-ns#">
   <cc:Work>
    <dc:type rdf:resource="http://purl.org/dc/dcmitype/StillImage"/>
    <dc:date>2021-06-09T15:04:14.008366</dc:date>
    <dc:format>image/svg+xml</dc:format>
    <dc:creator>
     <cc:Agent>
      <dc:title>Matplotlib v3.4.2, https://matplotlib.org/</dc:title>
     </cc:Agent>
    </dc:creator>
   </cc:Work>
  </rdf:RDF>
 </metadata>
 <defs>
  <style type="text/css">*{stroke-linecap:butt;stroke-linejoin:round;}</style>
 </defs>
 <g id="figure_1">
  <g id="patch_1">
   <path d="M 0 360 
L 504 360 
L 504 0 
L 0 0 
z
" style="fill:#ffffff;"/>
  </g>
  <g id="axes_1">
   <g id="patch_2">
    <path d="M 62.745313 228.402812 
L 472.816406 228.402812 
L 472.816406 25.535625 
L 62.745313 25.535625 
z
" style="fill:#ffffff;"/>
   </g>
   <g id="patch_3">
    <path clip-path="url(#pa8e63e65e0)" d="M 62.745313 218.259453 
L 157.349114 218.259453 
L 157.349114 197.972734 
L 62.745313 197.972734 
z
" style="fill:#1f77b4;"/>
   </g>
   <g id="patch_4">
    <path clip-path="url(#pa8e63e65e0)" d="M 62.745313 177.686016 
L 123.388775 177.686016 
L 123.388775 157.399297 
L 62.745313 157.399297 
z
" style="fill:#1f77b4;"/>
   </g>
   <g id="patch_5">
    <path clip-path="url(#pa8e63e65e0)" d="M 62.745313 137.112578 
L 121.1444 137.112578 
L 121.1444 116.825859 
L 62.745313 116.825859 
z
" style="fill:#1f77b4;"/>
   </g>
   <g id="patch_6">
    <path clip-path="url(#pa8e63e65e0)" d="M 62.745313 96.539141 
L 94.378152 96.539141 
L 94.378152 76.252422 
L 62.745313 76.252422 
z
" style="fill:#1f77b4;"/>
   </g>
   <g id="patch_7">
    <path clip-path="url(#pa8e63e65e0)" d="M 62.745313 55.965703 
L 90.815655 55.965703 
L 90.815655 35.678984 
L 62.745313 35.678984 
z
" style="fill:#1f77b4;"/>
   </g>
   <g id="patch_8">
    <path clip-path="url(#pa8e63e65e0)" d="M 157.349114 218.259453 
L 250.740046 218.259453 
L 250.740046 197.972734 
L 157.349114 197.972734 
z
" style="fill:#ff7f0e;"/>
   </g>
   <g id="patch_9">
    <path clip-path="url(#pa8e63e65e0)" d="M 123.388775 177.686016 
L 188.883715 177.686016 
L 188.883715 157.399297 
L 123.388775 157.399297 
z
" style="fill:#ff7f0e;"/>
   </g>
   <g id="patch_10">
    <path clip-path="url(#pa8e63e65e0)" d="M 121.1444 137.112578 
L 179.543488 137.112578 
L 179.543488 116.825859 
L 121.1444 116.825859 
z
" style="fill:#ff7f0e;"/>
   </g>
   <g id="patch_11">
    <path clip-path="url(#pa8e63e65e0)" d="M 94.378152 96.539141 
L 129.660934 96.539141 
L 129.660934 76.252422 
L 94.378152 76.252422 
z
" style="fill:#ff7f0e;"/>
   </g>
   <g id="patch_12">
    <path clip-path="url(#pa8e63e65e0)" d="M 90.815655 55.965703 
L 143.294992 55.965703 
L 143.294992 35.678984 
L 90.815655 35.678984 
z
" style="fill:#ff7f0e;"/>
   </g>
   <g id="patch_13">
    <path clip-path="url(#pa8e63e65e0)" d="M 250.740046 218.259453 
L 315.022117 218.259453 
L 315.022117 197.972734 
L 250.740046 197.972734 
z
" style="fill:#2ca02c;"/>
   </g>
   <g id="patch_14">
    <path clip-path="url(#pa8e63e65e0)" d="M 188.883715 177.686016 
L 238.611354 177.686016 
L 238.611354 157.399297 
L 188.883715 157.399297 
z
" style="fill:#2ca02c;"/>
   </g>
   <g id="patch_15">
    <path clip-path="url(#pa8e63e65e0)" d="M 179.543488 137.112578 
L 211.176327 137.112578 
L 211.176327 116.825859 
L 179.543488 116.825859 
z
" style="fill:#2ca02c;"/>
   </g>
   <g id="patch_16">
    <path clip-path="url(#pa8e63e65e0)" d="M 129.660934 96.539141 
L 166.160364 96.539141 
L 166.160364 76.252422 
L 129.660934 76.252422 
z
" style="fill:#2ca02c;"/>
   </g>
   <g id="patch_17">
    <path clip-path="url(#pa8e63e65e0)" d="M 143.294992 55.965703 
L 171.365334 55.965703 
L 171.365334 35.678984 
L 143.294992 35.678984 
z
" style="fill:#2ca02c;"/>
   </g>
   <g id="patch_18">
    <path clip-path="url(#pa8e63e65e0)" d="M 315.022117 218.259453 
L 364.749756 218.259453 
L 364.749756 197.972734 
L 315.022117 197.972734 
z
" style="fill:#d62728;"/>
   </g>
   <g id="patch_19">
    <path clip-path="url(#pa8e63e65e0)" d="M 238.611354 177.686016 
L 290.764732 177.686016 
L 290.764732 157.399297 
L 238.611354 157.399297 
z
" style="fill:#d62728;"/>
   </g>
   <g id="patch_20">
    <path clip-path="url(#pa8e63e65e0)" d="M 211.176327 137.112578 
L 270.792062 137.112578 
L 270.792062 116.825859 
L 211.176327 116.825859 
z
" style="fill:#d62728;"/>
   </g>
   <g id="patch_21">
    <path clip-path="url(#pa8e63e65e0)" d="M 166.160364 96.539141 
L 226.992747 96.539141 
L 226.992747 76.252422 
L 166.160364 76.252422 
z
" style="fill:#d62728;"/>
   </g>
   <g id="patch_22">
    <path clip-path="url(#pa8e63e65e0)" d="M 171.365334 55.965703 
L 228.726469 55.965703 
L 228.726469 35.678984 
L 171.365334 35.678984 
z
" style="fill:#d62728;"/>
   </g>
   <g id="patch_23">
    <path clip-path="url(#pa8e63e65e0)" d="M 364.749756 218.259453 
L 397.497226 218.259453 
L 397.497226 197.972734 
L 364.749756 197.972734 
z
" style="fill:#9467bd;"/>
   </g>
   <g id="patch_24">
    <path clip-path="url(#pa8e63e65e0)" d="M 290.764732 177.686016 
L 345.343848 177.686016 
L 345.343848 157.399297 
L 290.764732 157.399297 
z
" style="fill:#9467bd;"/>
   </g>
   <g id="patch_25">
    <path clip-path="url(#pa8e63e65e0)" d="M 270.792062 137.112578 
L 329.19115 137.112578 
L 329.19115 116.825859 
L 270.792062 116.825859 
z
" style="fill:#9467bd;"/>
   </g>
   <g id="patch_26">
    <path clip-path="url(#pa8e63e65e0)" d="M 226.992747 96.539141 
L 268.358767 96.539141 
L 268.358767 76.252422 
L 226.992747 76.252422 
z
" style="fill:#9467bd;"/>
   </g>
   <g id="patch_27">
    <path clip-path="url(#pa8e63e65e0)" d="M 228.726469 55.965703 
L 266.56041 55.965703 
L 266.56041 35.678984 
L 228.726469 35.678984 
z
" style="fill:#9467bd;"/>
   </g>
   <g id="patch_28">
    <path clip-path="url(#pa8e63e65e0)" d="M 397.497226 218.259453 
L 415.690265 218.259453 
L 415.690265 197.972734 
L 397.497226 197.972734 
z
" style="fill:#8c564b;"/>
   </g>
   <g id="patch_29">
    <path clip-path="url(#pa8e63e65e0)" d="M 345.343848 177.686016 
L 361.111148 177.686016 
L 361.111148 157.399297 
L 345.343848 157.399297 
z
" style="fill:#8c564b;"/>
   </g>
   <g id="patch_30">
    <path clip-path="url(#pa8e63e65e0)" d="M 329.19115 137.112578 
L 358.390694 137.112578 
L 358.390694 116.825859 
L 329.19115 116.825859 
z
" style="fill:#8c564b;"/>
   </g>
   <g id="patch_31">
    <path clip-path="url(#pa8e63e65e0)" d="M 268.358767 96.539141 
L 297.558311 96.539141 
L 297.558311 76.252422 
L 268.358767 76.252422 
z
" style="fill:#8c564b;"/>
   </g>
   <g id="patch_32">
    <path clip-path="url(#pa8e63e65e0)" d="M 266.56041 55.965703 
L 294.630752 55.965703 
L 294.630752 35.678984 
L 266.56041 35.678984 
z
" style="fill:#8c564b;"/>
   </g>
   <g id="patch_33">
    <path clip-path="url(#pa8e63e65e0)" d="M 415.690265 218.259453 
L 429.031826 218.259453 
L 429.031826 197.972734 
L 415.690265 197.972734 
z
" style="fill:#e377c2;"/>
   </g>
   <g id="patch_34">
    <path clip-path="url(#pa8e63e65e0)" d="M 361.111148 177.686016 
L 407.20018 177.686016 
L 407.20018 157.399297 
L 361.111148 157.399297 
z
" style="fill:#e377c2;"/>
   </g>
   <g id="patch_35">
    <path clip-path="url(#pa8e63e65e0)" d="M 358.390694 137.112578 
L 393.673476 137.112578 
L 393.673476 116.825859 
L 358.390694 116.825859 
z
" style="fill:#e377c2;"/>
   </g>
   <g id="patch_36">
    <path clip-path="url(#pa8e63e65e0)" d="M 297.558311 96.539141 
L 355.957399 96.539141 
L 355.957399 76.252422 
L 297.558311 76.252422 
z
" style="fill:#e377c2;"/>
   </g>
   <g id="patch_37">
    <path clip-path="url(#pa8e63e65e0)" d="M 294.630752 55.965703 
L 343.44874 55.965703 
L 343.44874 35.678984 
L 294.630752 35.678984 
z
" style="fill:#e377c2;"/>
   </g>
   <g id="patch_38">
    <path clip-path="url(#pa8e63e65e0)" d="M 429.031826 218.259453 
L 442.373388 218.259453 
L 442.373388 197.972734 
L 429.031826 197.972734 
z
" style="fill:#7f7f7f;"/>
   </g>
   <g id="patch_39">
    <path clip-path="url(#pa8e63e65e0)" d="M 407.20018 177.686016 
L 444.799127 177.686016 
L 444.799127 157.399297 
L 407.20018 157.399297 
z
" style="fill:#7f7f7f;"/>
   </g>
   <g id="patch_40">
    <path clip-path="url(#pa8e63e65e0)" d="M 393.673476 137.112578 
L 439.906087 137.112578 
L 439.906087 116.825859 
L 393.673476 116.825859 
z
" style="fill:#7f7f7f;"/>
   </g>
   <g id="patch_41">
    <path clip-path="url(#pa8e63e65e0)" d="M 355.957399 96.539141 
L 424.089667 96.539141 
L 424.089667 76.252422 
L 355.957399 76.252422 
z
" style="fill:#7f7f7f;"/>
   </g>
   <g id="patch_42">
    <path clip-path="url(#pa8e63e65e0)" d="M 343.44874 55.965703 
L 415.455271 55.965703 
L 415.455271 35.678984 
L 343.44874 35.678984 
z
" style="fill:#7f7f7f;"/>
   </g>
   <g id="patch_43">
    <path clip-path="url(#pa8e63e65e0)" d="M 442.373388 218.259453 
L 453.289211 218.259453 
L 453.289211 197.972734 
L 442.373388 197.972734 
z
" style="fill:#bcbd22;"/>
   </g>
   <g id="patch_44">
    <path clip-path="url(#pa8e63e65e0)" d="M 444.799127 177.686016 
L 453.289211 177.686016 
L 453.289211 157.399297 
L 444.799127 157.399297 
z
" style="fill:#bcbd22;"/>
   </g>
   <g id="patch_45">
    <path clip-path="url(#pa8e63e65e0)" d="M 439.906087 137.112578 
L 453.289211 137.112578 
L 453.289211 116.825859 
L 439.906087 116.825859 
z
" style="fill:#bcbd22;"/>
   </g>
   <g id="patch_46">
    <path clip-path="url(#pa8e63e65e0)" d="M 424.089667 96.539141 
L 453.289211 96.539141 
L 453.289211 76.252422 
L 424.089667 76.252422 
z
" style="fill:#bcbd22;"/>
   </g>
   <g id="patch_47">
    <path clip-path="url(#pa8e63e65e0)" d="M 415.455271 55.965703 
L 453.289211 55.965703 
L 453.289211 35.678984 
L 415.455271 35.678984 
z
" style="fill:#bcbd22;"/>
   </g>
   <g id="matplotlib.axis_1">
    <g id="xtick_1">
     <g id="line2d_1">
      <defs>
       <path d="M 0 0 
L 0 3.5 
" id="mc3a356a46d" style="stroke:#000000;stroke-width:0.8;"/>
      </defs>
      <g>
       <use style="stroke:#000000;stroke-width:0.8;" x="62.745313" xlink:href="#mc3a356a46d" y="228.402812"/>
      </g>
     </g>
     <g id="text_1">
      <text style="font-family:Arial;font-size:10px;font-stretch:normal;font-style:normal;font-weight:normal;text-anchor:middle;" transform="rotate(-0, 62.745313, 242.560625)" x="62.745313" y="242.560625">0</text>
     </g>
    </g>
    <g id="xtick_2">
     <g id="line2d_2">
      <g>
       <use style="stroke:#000000;stroke-width:0.8;" x="140.854092" xlink:href="#mc3a356a46d" y="228.402812"/>
      </g>
     </g>
     <g id="text_2">
      <text style="font-family:Arial;font-size:10px;font-stretch:normal;font-style:normal;font-weight:normal;text-anchor:middle;" transform="rotate(-0, 140.854092, 242.560625)" x="140.854092" y="242.560625">20</text>
     </g>
    </g>
    <g id="xtick_3">
     <g id="line2d_3">
      <g>
       <use style="stroke:#000000;stroke-width:0.8;" x="218.962872" xlink:href="#mc3a356a46d" y="228.402812"/>
      </g>
     </g>
     <g id="text_3">
      <text style="font-family:Arial;font-size:10px;font-stretch:normal;font-style:normal;font-weight:normal;text-anchor:middle;" transform="rotate(-0, 218.962872, 242.560625)" x="218.962872" y="242.560625">40</text>
     </g>
    </g>
    <g id="xtick_4">
     <g id="line2d_4">
      <g>
       <use style="stroke:#000000;stroke-width:0.8;" x="297.071652" xlink:href="#mc3a356a46d" y="228.402812"/>
      </g>
     </g>
     <g id="text_4">
      <text style="font-family:Arial;font-size:10px;font-stretch:normal;font-style:normal;font-weight:normal;text-anchor:middle;" transform="rotate(-0, 297.071652, 242.560625)" x="297.071652" y="242.560625">60</text>
     </g>
    </g>
    <g id="xtick_5">
     <g id="line2d_5">
      <g>
       <use style="stroke:#000000;stroke-width:0.8;" x="375.180432" xlink:href="#mc3a356a46d" y="228.402812"/>
      </g>
     </g>
     <g id="text_5">
      <text style="font-family:Arial;font-size:10px;font-stretch:normal;font-style:normal;font-weight:normal;text-anchor:middle;" transform="rotate(-0, 375.180432, 242.560625)" x="375.180432" y="242.560625">80</text>
     </g>
    </g>
    <g id="xtick_6">
     <g id="line2d_6">
      <g>
       <use style="stroke:#000000;stroke-width:0.8;" x="453.289211" xlink:href="#mc3a356a46d" y="228.402812"/>
      </g>
     </g>
     <g id="text_6">
      <text style="font-family:Arial;font-size:10px;font-stretch:normal;font-style:normal;font-weight:normal;text-anchor:middle;" transform="rotate(-0, 453.289211, 242.560625)" x="453.289211" y="242.560625">100</text>
     </g>
    </g>
    <g id="text_7">
     <text style="font-family:Arial;font-size:10px;font-stretch:normal;font-style:normal;font-weight:normal;text-anchor:middle;" transform="rotate(-0, 267.780859, 255.827812)" x="267.780859" y="255.827812">Ranking of importance</text>
    </g>
   </g>
   <g id="matplotlib.axis_2">
    <g id="ytick_1">
     <g id="line2d_7">
      <defs>
       <path d="M 0 0 
L -3.5 0 
" id="m82278324de" style="stroke:#000000;stroke-width:0.8;"/>
      </defs>
      <g>
       <use style="stroke:#000000;stroke-width:0.8;" x="62.745313" xlink:href="#m82278324de" y="208.116094"/>
      </g>
     </g>
     <g id="text_8">
      <text style="font-family:Arial;font-size:10px;font-stretch:normal;font-style:normal;font-weight:normal;text-anchor:end;" transform="rotate(-0, 55.745313, 211.695)" x="55.745313" y="211.695">Rank 1</text>
     </g>
    </g>
    <g id="ytick_2">
     <g id="line2d_8">
      <g>
       <use style="stroke:#000000;stroke-width:0.8;" x="62.745313" xlink:href="#m82278324de" y="167.542656"/>
      </g>
     </g>
     <g id="text_9">
      <text style="font-family:Arial;font-size:10px;font-stretch:normal;font-style:normal;font-weight:normal;text-anchor:end;" transform="rotate(-0, 55.745313, 171.121563)" x="55.745313" y="171.121563">Rank 2</text>
     </g>
    </g>
    <g id="ytick_3">
     <g id="line2d_9">
      <g>
       <use style="stroke:#000000;stroke-width:0.8;" x="62.745313" xlink:href="#m82278324de" y="126.969219"/>
      </g>
     </g>
     <g id="text_10">
      <text style="font-family:Arial;font-size:10px;font-stretch:normal;font-style:normal;font-weight:normal;text-anchor:end;" transform="rotate(-0, 55.745313, 130.548125)" x="55.745313" y="130.548125">Rank 3</text>
     </g>
    </g>
    <g id="ytick_4">
     <g id="line2d_10">
      <g>
       <use style="stroke:#000000;stroke-width:0.8;" x="62.745313" xlink:href="#m82278324de" y="86.395781"/>
      </g>
     </g>
     <g id="text_11">
      <text style="font-family:Arial;font-size:10px;font-stretch:normal;font-style:normal;font-weight:normal;text-anchor:end;" transform="rotate(-0, 55.745313, 89.974688)" x="55.745313" y="89.974688">Rank 4</text>
     </g>
    </g>
    <g id="ytick_5">
     <g id="line2d_11">
      <g>
       <use style="stroke:#000000;stroke-width:0.8;" x="62.745313" xlink:href="#m82278324de" y="45.822344"/>
      </g>
     </g>
     <g id="text_12">
      <text style="font-family:Arial;font-size:10px;font-stretch:normal;font-style:normal;font-weight:normal;text-anchor:end;" transform="rotate(-0, 55.745313, 49.40125)" x="55.745313" y="49.40125">Rank 5</text>
     </g>
    </g>
    <g id="text_13">
     <text style="font-family:Arial;font-size:10px;font-stretch:normal;font-style:normal;font-weight:normal;text-anchor:middle;" transform="rotate(-90, 17.957813, 126.969219)" x="17.957813" y="126.969219">Percentage</text>
    </g>
   </g>
   <g id="patch_48">
    <path d="M 62.745313 228.402812 
L 472.816406 228.402812 
" style="fill:none;stroke:#000000;stroke-linecap:square;stroke-linejoin:miter;stroke-width:0.8;"/>
   </g>
   <g id="text_14">
    <text style="font-family:Arial;font-size:10px;font-stretch:normal;font-style:normal;font-weight:normal;text-anchor:middle;" transform="rotate(-0, 110.047213, 212.173437)" x="110.047213" y="212.173437">24</text>
   </g>
   <g id="text_15">
    <text style="font-family:Arial;font-size:10px;font-stretch:normal;font-style:normal;font-weight:normal;text-anchor:middle;" transform="rotate(-0, 93.067044, 171.6)" x="93.067044" y="171.6">16</text>
   </g>
   <g id="text_16">
    <text style="font-family:Arial;font-size:10px;font-stretch:normal;font-style:normal;font-weight:normal;text-anchor:middle;" transform="rotate(-0, 91.944856, 131.026563)" x="91.944856" y="131.026563">15</text>
   </g>
   <g id="text_17">
    <text style="font-family:Arial;font-size:10px;font-stretch:normal;font-style:normal;font-weight:normal;text-anchor:middle;" transform="rotate(-0, 78.561732, 90.453125)" x="78.561732" y="90.453125">8</text>
   </g>
   <g id="text_18">
    <text style="font-family:Arial;font-size:10px;font-stretch:normal;font-style:normal;font-weight:normal;text-anchor:middle;" transform="rotate(-0, 76.780484, 49.879688)" x="76.780484" y="49.879688">7</text>
   </g>
   <g id="text_19">
    <text style="font-family:Arial;font-size:10px;font-stretch:normal;font-style:normal;font-weight:normal;text-anchor:middle;" transform="rotate(-0, 204.04458, 212.173437)" x="204.04458" y="212.173437">24</text>
   </g>
   <g id="text_20">
    <text style="font-family:Arial;font-size:10px;font-stretch:normal;font-style:normal;font-weight:normal;text-anchor:middle;" transform="rotate(-0, 156.136245, 171.6)" x="156.136245" y="171.6">17</text>
   </g>
   <g id="text_21">
    <text style="font-family:Arial;font-size:10px;font-stretch:normal;font-style:normal;font-weight:normal;text-anchor:middle;" transform="rotate(-0, 150.343944, 131.026563)" x="150.343944" y="131.026563">15</text>
   </g>
   <g id="text_22">
    <text style="font-family:Arial;font-size:10px;font-stretch:normal;font-style:normal;font-weight:normal;text-anchor:middle;" transform="rotate(-0, 112.019543, 90.453125)" x="112.019543" y="90.453125">9</text>
   </g>
   <g id="text_23">
    <text style="font-family:Arial;font-size:10px;font-stretch:normal;font-style:normal;font-weight:normal;text-anchor:middle;" transform="rotate(-0, 117.055323, 49.879688)" x="117.055323" y="49.879688">13</text>
   </g>
   <g id="text_24">
    <text style="font-family:Arial;font-size:10px;font-stretch:normal;font-style:normal;font-weight:normal;text-anchor:middle;" transform="rotate(-0, 282.881082, 212.173437)" x="282.881082" y="212.173437">16</text>
   </g>
   <g id="text_25">
    <text style="font-family:Arial;font-size:10px;font-stretch:normal;font-style:normal;font-weight:normal;text-anchor:middle;" transform="rotate(-0, 213.747534, 171.6)" x="213.747534" y="171.6">13</text>
   </g>
   <g id="text_26">
    <text style="font-family:Arial;font-size:10px;font-stretch:normal;font-style:normal;font-weight:normal;text-anchor:middle;" transform="rotate(-0, 195.359907, 131.026563)" x="195.359907" y="131.026563">8</text>
   </g>
   <g id="text_27">
    <text style="font-family:Arial;font-size:10px;font-stretch:normal;font-style:normal;font-weight:normal;text-anchor:middle;" transform="rotate(-0, 147.910649, 90.453125)" x="147.910649" y="90.453125">9</text>
   </g>
   <g id="text_28">
    <text style="font-family:Arial;font-size:10px;font-stretch:normal;font-style:normal;font-weight:normal;text-anchor:middle;" transform="rotate(-0, 157.330163, 49.879688)" x="157.330163" y="49.879688">7</text>
   </g>
   <g id="text_29">
    <text style="font-family:Arial;font-size:10px;font-stretch:normal;font-style:normal;font-weight:normal;text-anchor:middle;" transform="rotate(-0, 339.885936, 212.173437)" x="339.885936" y="212.173437">13</text>
   </g>
   <g id="text_30">
    <text style="font-family:Arial;font-size:10px;font-stretch:normal;font-style:normal;font-weight:normal;text-anchor:middle;" transform="rotate(-0, 264.688043, 171.6)" x="264.688043" y="171.6">13</text>
   </g>
   <g id="text_31">
    <text style="font-family:Arial;font-size:10px;font-stretch:normal;font-style:normal;font-weight:normal;text-anchor:middle;" transform="rotate(-0, 240.984195, 131.026563)" x="240.984195" y="131.026563">15</text>
   </g>
   <g id="text_32">
    <text style="font-family:Arial;font-size:10px;font-stretch:normal;font-style:normal;font-weight:normal;text-anchor:middle;" transform="rotate(-0, 196.576555, 90.453125)" x="196.576555" y="90.453125">16</text>
   </g>
   <g id="text_33">
    <text style="font-family:Arial;font-size:10px;font-stretch:normal;font-style:normal;font-weight:normal;text-anchor:middle;" transform="rotate(-0, 200.045902, 49.879688)" x="200.045902" y="49.879688">15</text>
   </g>
   <g id="text_34">
    <text style="font-family:Arial;font-size:10px;font-stretch:normal;font-style:normal;font-weight:normal;text-anchor:middle;" transform="rotate(-0, 381.123491, 212.173437)" x="381.123491" y="212.173437">8</text>
   </g>
   <g id="text_35">
    <text style="font-family:Arial;font-size:10px;font-stretch:normal;font-style:normal;font-weight:normal;text-anchor:middle;" transform="rotate(-0, 318.05429, 171.6)" x="318.05429" y="171.6">14</text>
   </g>
   <g id="text_36">
    <text style="font-family:Arial;font-size:10px;font-stretch:normal;font-style:normal;font-weight:normal;text-anchor:middle;" transform="rotate(-0, 299.991606, 131.026563)" x="299.991606" y="131.026563">15</text>
   </g>
   <g id="text_37">
    <text style="font-family:Arial;font-size:10px;font-stretch:normal;font-style:normal;font-weight:normal;text-anchor:middle;" transform="rotate(-0, 247.675757, 90.453125)" x="247.675757" y="90.453125">11</text>
   </g>
   <g id="text_38">
    <text style="font-family:Arial;font-size:10px;font-stretch:normal;font-style:normal;font-weight:normal;text-anchor:middle;" transform="rotate(-0, 247.64344, 49.879688)" x="247.64344" y="49.879688">10</text>
   </g>
   <g id="text_39">
    <text style="font-family:Arial;font-size:10px;font-stretch:normal;font-style:normal;font-weight:normal;text-anchor:middle;" transform="rotate(-0, 406.593745, 212.173437)" x="406.593745" y="212.173437">5</text>
   </g>
   <g id="text_40">
    <text style="font-family:Arial;font-size:10px;font-stretch:normal;font-style:normal;font-weight:normal;text-anchor:middle;" transform="rotate(-0, 343.790922, 131.026563)" x="343.790922" y="131.026563">7</text>
   </g>
   <g id="text_41">
    <text style="font-family:Arial;font-size:10px;font-stretch:normal;font-style:normal;font-weight:normal;text-anchor:middle;" transform="rotate(-0, 282.958539, 90.453125)" x="282.958539" y="90.453125">7</text>
   </g>
   <g id="text_42">
    <text style="font-family:Arial;font-size:10px;font-stretch:normal;font-style:normal;font-weight:normal;text-anchor:middle;" transform="rotate(-0, 280.595581, 49.879688)" x="280.595581" y="49.879688">7</text>
   </g>
   <g id="text_43">
    <text style="font-family:Arial;font-size:10px;font-stretch:normal;font-style:normal;font-weight:normal;text-anchor:middle;" transform="rotate(-0, 384.155664, 171.6)" x="384.155664" y="171.6">12</text>
   </g>
   <g id="text_44">
    <text style="font-family:Arial;font-size:10px;font-stretch:normal;font-style:normal;font-weight:normal;text-anchor:middle;" transform="rotate(-0, 376.032085, 131.026563)" x="376.032085" y="131.026563">9</text>
   </g>
   <g id="text_45">
    <text style="font-family:Arial;font-size:10px;font-stretch:normal;font-style:normal;font-weight:normal;text-anchor:middle;" transform="rotate(-0, 326.757855, 90.453125)" x="326.757855" y="90.453125">15</text>
   </g>
   <g id="text_46">
    <text style="font-family:Arial;font-size:10px;font-stretch:normal;font-style:normal;font-weight:normal;text-anchor:middle;" transform="rotate(-0, 319.039746, 49.879688)" x="319.039746" y="49.879688">12</text>
   </g>
   <g id="text_47">
    <text style="font-family:Arial;font-size:10px;font-stretch:normal;font-style:normal;font-weight:normal;text-anchor:middle;" transform="rotate(-0, 425.999653, 171.6)" x="425.999653" y="171.6">10</text>
   </g>
   <g id="text_48">
    <text style="font-family:Arial;font-size:10px;font-stretch:normal;font-style:normal;font-weight:normal;text-anchor:middle;" transform="rotate(-0, 416.789782, 131.026563)" x="416.789782" y="131.026563">12</text>
   </g>
   <g id="text_49">
    <text style="font-family:Arial;font-size:10px;font-stretch:normal;font-style:normal;font-weight:normal;text-anchor:middle;" transform="rotate(-0, 390.023533, 90.453125)" x="390.023533" y="90.453125">17</text>
   </g>
   <g id="text_50">
    <text style="font-family:Arial;font-size:10px;font-stretch:normal;font-style:normal;font-weight:normal;text-anchor:middle;" transform="rotate(-0, 379.452005, 49.879688)" x="379.452005" y="49.879688">18</text>
   </g>
   <g id="text_51">
    <text style="font-family:Arial;font-size:10px;font-stretch:normal;font-style:normal;font-weight:normal;text-anchor:middle;" transform="rotate(-0, 438.689439, 90.453125)" x="438.689439" y="90.453125">7</text>
   </g>
   <g id="text_52">
    <text style="font-family:Arial;font-size:10px;font-stretch:normal;font-style:normal;font-weight:normal;text-anchor:middle;" transform="rotate(-0, 434.372241, 49.879688)" x="434.372241" y="49.879688">10</text>
   </g>
   <g id="text_53">
    <text style="font-family:Arial;font-size:12px;font-stretch:normal;font-style:normal;font-weight:normal;text-anchor:middle;" transform="rotate(-0, 267.780859, 19.535625)" x="267.780859" y="19.535625">Reasons to choose current job: Germany</text>
   </g>
   <g id="legend_1">
    <g id="patch_49">
     <path d="M 54.097266 338.050078 
L 481.464453 338.050078 
Q 483.464453 338.050078 483.464453 336.050078 
L 483.464453 265.832891 
Q 483.464453 263.832891 481.464453 263.832891 
L 54.097266 263.832891 
Q 52.097266 263.832891 52.097266 265.832891 
L 52.097266 336.050078 
Q 52.097266 338.050078 54.097266 338.050078 
z
" style="fill:#ffffff;opacity:0.8;stroke:#cccccc;stroke-linejoin:miter;"/>
    </g>
    <g id="patch_50">
     <path d="M 56.097266 275.118828 
L 76.097266 275.118828 
L 76.097266 268.118828 
L 56.097266 268.118828 
z
" style="fill:#1f77b4;"/>
    </g>
    <g id="text_54">
     <text style="font-family:Arial;font-size:10px;font-stretch:normal;font-style:normal;font-weight:normal;text-anchor:start;" transform="rotate(-0, 84.097266, 275.118828)" x="84.097266" y="275.118828">Desire to work in a research environment</text>
    </g>
    <g id="patch_51">
     <path d="M 56.097266 289.264141 
L 76.097266 289.264141 
L 76.097266 282.264141 
L 56.097266 282.264141 
z
" style="fill:#ff7f0e;"/>
    </g>
    <g id="text_55">
     <text style="font-family:Arial;font-size:10px;font-stretch:normal;font-style:normal;font-weight:normal;text-anchor:start;" transform="rotate(-0, 84.097266, 289.264141)" x="84.097266" y="289.264141">Freedom to choose own working practices</text>
    </g>
    <g id="patch_52">
     <path d="M 56.097266 303.526641 
L 76.097266 303.526641 
L 76.097266 296.526641 
L 56.097266 296.526641 
z
" style="fill:#2ca02c;"/>
    </g>
    <g id="text_56">
     <text style="font-family:Arial;font-size:10px;font-stretch:normal;font-style:normal;font-weight:normal;text-anchor:start;" transform="rotate(-0, 84.097266, 303.526641)" x="84.097266" y="303.526641">Desire to advance research</text>
    </g>
    <g id="patch_53">
     <path d="M 56.097266 317.671953 
L 76.097266 317.671953 
L 76.097266 310.671953 
L 56.097266 310.671953 
z
" style="fill:#d62728;"/>
    </g>
    <g id="text_57">
     <text style="font-family:Arial;font-size:10px;font-stretch:normal;font-style:normal;font-weight:normal;text-anchor:start;" transform="rotate(-0, 84.097266, 317.671953)" x="84.097266" y="317.671953">I want to learn new skills</text>
    </g>
    <g id="patch_54">
     <path d="M 56.097266 331.945391 
L 76.097266 331.945391 
L 76.097266 324.945391 
L 56.097266 324.945391 
z
" style="fill:#9467bd;"/>
    </g>
    <g id="text_58">
     <text style="font-family:Arial;font-size:10px;font-stretch:normal;font-style:normal;font-weight:normal;text-anchor:start;" transform="rotate(-0, 84.097266, 331.945391)" x="84.097266" y="331.945391">Opportunity to develop software</text>
    </g>
    <g id="patch_55">
     <path d="M 291.394141 275.118828 
L 311.394141 275.118828 
L 311.394141 268.118828 
L 291.394141 268.118828 
z
" style="fill:#8c564b;"/>
    </g>
    <g id="text_59">
     <text style="font-family:Arial;font-size:10px;font-stretch:normal;font-style:normal;font-weight:normal;text-anchor:start;" transform="rotate(-0, 319.394141, 275.118828)" x="319.394141" y="275.118828">Opportunity for career advancement</text>
    </g>
    <g id="patch_56">
     <path d="M 291.394141 289.381328 
L 311.394141 289.381328 
L 311.394141 282.381328 
L 291.394141 282.381328 
z
" style="fill:#e377c2;"/>
    </g>
    <g id="text_60">
     <text style="font-family:Arial;font-size:10px;font-stretch:normal;font-style:normal;font-weight:normal;text-anchor:start;" transform="rotate(-0, 319.394141, 289.381328)" x="319.394141" y="289.381328">Ability to work across disciplines</text>
    </g>
    <g id="patch_57">
     <path d="M 291.394141 303.643828 
L 311.394141 303.643828 
L 311.394141 296.643828 
L 291.394141 296.643828 
z
" style="fill:#7f7f7f;"/>
    </g>
    <g id="text_61">
     <text style="font-family:Arial;font-size:10px;font-stretch:normal;font-style:normal;font-weight:normal;text-anchor:start;" transform="rotate(-0, 319.394141, 303.643828)" x="319.394141" y="303.643828">Flexible working hours</text>
    </g>
    <g id="patch_58">
     <path d="M 291.394141 317.906328 
L 311.394141 317.906328 
L 311.394141 310.906328 
L 291.394141 310.906328 
z
" style="fill:#bcbd22;"/>
    </g>
    <g id="text_62">
     <text style="font-family:Arial;font-size:10px;font-stretch:normal;font-style:normal;font-weight:normal;text-anchor:start;" transform="rotate(-0, 319.394141, 317.906328)" x="319.394141" y="317.906328">The salary</text>
    </g>
   </g>
  </g>
 </g>
 <defs>
  <clipPath id="pa8e63e65e0">
   <rect height="202.867187" width="410.071094" x="62.745313" y="25.535625"/>
  </clipPath>
 </defs>
</svg>
