<?xml version="1.0" encoding="utf-8" standalone="no"?>
<!DOCTYPE svg PUBLIC "-//W3C//DTD SVG 1.1//EN"
  "http://www.w3.org/Graphics/SVG/1.1/DTD/svg11.dtd">
<svg xmlns:xlink="http://www.w3.org/1999/xlink" width="504pt" height="360pt" viewBox="0 0 504 360" xmlns="http://www.w3.org/2000/svg" version="1.1">
 <metadata>
  <rdf:RDF xmlns:dc="http://purl.org/dc/elements/1.1/" xmlns:cc="http://creativecommons.org/ns#" xmlns:rdf="http://www.w3.org/1999/02/22-rdf-syntax-ns#">
   <cc:Work>
    <dc:type rdf:resource="http://purl.org/dc/dcmitype/StillImage"/>
    <dc:date>2022-03-21T11:49:08.673722</dc:date>
    <dc:format>image/svg+xml</dc:format>
    <dc:creator>
     <cc:Agent>
      <dc:title>Matplotlib v3.5.1, https://matplotlib.org/</dc:title>
     </cc:Agent>
    </dc:creator>
   </cc:Work>
  </rdf:RDF>
 </metadata>
 <defs>
  <style type="text/css">*{stroke-linejoin: round; stroke-linecap: butt}</style>
 </defs>
 <g id="figure_1">
  <g id="patch_1">
   <path d="M 0 360 
L 504 360 
L 504 0 
L 0 0 
z
" style="fill: #ffffff"/>
  </g>
  <g id="axes_1">
   <g id="patch_2">
    <path d="M 62.86875 237.951631 
L 487.347656 237.951631 
L 487.347656 25.6425 
L 62.86875 25.6425 
z
" style="fill: #ffffff"/>
   </g>
   <g id="patch_3">
    <path d="M 62.86875 227.336175 
L 159.12247 227.336175 
L 159.12247 206.105262 
L 62.86875 206.105262 
z
" clip-path="url(#p789b10e709)" style="fill: #1f77b4"/>
   </g>
   <g id="patch_4">
    <path d="M 62.86875 184.874348 
L 123.153975 184.874348 
L 123.153975 163.643435 
L 62.86875 163.643435 
z
" clip-path="url(#p789b10e709)" style="fill: #1f77b4"/>
   </g>
   <g id="patch_5">
    <path d="M 62.86875 142.412522 
L 97.46806 142.412522 
L 97.46806 121.181609 
L 62.86875 121.181609 
z
" clip-path="url(#p789b10e709)" style="fill: #1f77b4"/>
   </g>
   <g id="patch_6">
    <path d="M 62.86875 99.950696 
L 128.204609 99.950696 
L 128.204609 78.719783 
L 62.86875 78.719783 
z
" clip-path="url(#p789b10e709)" style="fill: #1f77b4"/>
   </g>
   <g id="patch_7">
    <path d="M 62.86875 57.48887 
L 109.420549 57.48887 
L 109.420549 36.257957 
L 62.86875 36.257957 
z
" clip-path="url(#p789b10e709)" style="fill: #1f77b4"/>
   </g>
   <g id="patch_8">
    <path d="M 159.12247 227.336175 
L 253.626123 227.336175 
L 253.626123 206.105262 
L 159.12247 206.105262 
z
" clip-path="url(#p789b10e709)" style="fill: #ff7f0e"/>
   </g>
   <g id="patch_9">
    <path d="M 123.153975 184.874348 
L 210.035622 184.874348 
L 210.035622 163.643435 
L 123.153975 163.643435 
z
" clip-path="url(#p789b10e709)" style="fill: #ff7f0e"/>
   </g>
   <g id="patch_10">
    <path d="M 97.46806 142.412522 
L 139.351436 142.412522 
L 139.351436 121.181609 
L 97.46806 121.181609 
z
" clip-path="url(#p789b10e709)" style="fill: #ff7f0e"/>
   </g>
   <g id="patch_11">
    <path d="M 128.204609 99.950696 
L 169.03952 99.950696 
L 169.03952 78.719783 
L 128.204609 78.719783 
z
" clip-path="url(#p789b10e709)" style="fill: #ff7f0e"/>
   </g>
   <g id="patch_12">
    <path d="M 109.420549 57.48887 
L 138.821686 57.48887 
L 138.821686 36.257957 
L 109.420549 36.257957 
z
" clip-path="url(#p789b10e709)" style="fill: #ff7f0e"/>
   </g>
   <g id="patch_13">
    <path d="M 253.626123 227.336175 
L 328.879031 227.336175 
L 328.879031 206.105262 
L 253.626123 206.105262 
z
" clip-path="url(#p789b10e709)" style="fill: #2ca02c"/>
   </g>
   <g id="patch_14">
    <path d="M 210.035622 184.874348 
L 257.909183 184.874348 
L 257.909183 163.643435 
L 210.035622 163.643435 
z
" clip-path="url(#p789b10e709)" style="fill: #2ca02c"/>
   </g>
   <g id="patch_15">
    <path d="M 139.351436 142.412522 
L 163.024648 142.412522 
L 163.024648 121.181609 
L 139.351436 121.181609 
z
" clip-path="url(#p789b10e709)" style="fill: #2ca02c"/>
   </g>
   <g id="patch_16">
    <path d="M 169.03952 99.950696 
L 179.248248 99.950696 
L 179.248248 78.719783 
L 169.03952 78.719783 
z
" clip-path="url(#p789b10e709)" style="fill: #2ca02c"/>
   </g>
   <g id="patch_17">
    <path d="M 138.821686 57.48887 
L 153.522254 57.48887 
L 153.522254 36.257957 
L 138.821686 36.257957 
z
" clip-path="url(#p789b10e709)" style="fill: #2ca02c"/>
   </g>
   <g id="patch_18">
    <path d="M 328.879031 227.336175 
L 365.630452 227.336175 
L 365.630452 206.105262 
L 328.879031 206.105262 
z
" clip-path="url(#p789b10e709)" style="fill: #d62728"/>
   </g>
   <g id="patch_19">
    <path d="M 257.909183 184.874348 
L 307.555839 184.874348 
L 307.555839 163.643435 
L 257.909183 163.643435 
z
" clip-path="url(#p789b10e709)" style="fill: #d62728"/>
   </g>
   <g id="patch_20">
    <path d="M 163.024648 142.412522 
L 219.476154 142.412522 
L 219.476154 121.181609 
L 163.024648 121.181609 
z
" clip-path="url(#p789b10e709)" style="fill: #d62728"/>
   </g>
   <g id="patch_21">
    <path d="M 179.248248 99.950696 
L 244.584107 99.950696 
L 244.584107 78.719783 
L 179.248248 78.719783 
z
" clip-path="url(#p789b10e709)" style="fill: #d62728"/>
   </g>
   <g id="patch_22">
    <path d="M 153.522254 57.48887 
L 187.82358 57.48887 
L 187.82358 36.257957 
L 153.522254 36.257957 
z
" clip-path="url(#p789b10e709)" style="fill: #d62728"/>
   </g>
   <g id="patch_23">
    <path d="M 365.630452 227.336175 
L 397.131669 227.336175 
L 397.131669 206.105262 
L 365.630452 206.105262 
z
" clip-path="url(#p789b10e709)" style="fill: #9467bd"/>
   </g>
   <g id="patch_24">
    <path d="M 307.555839 184.874348 
L 348.33702 184.874348 
L 348.33702 163.643435 
L 307.555839 163.643435 
z
" clip-path="url(#p789b10e709)" style="fill: #9467bd"/>
   </g>
   <g id="patch_25">
    <path d="M 219.476154 142.412522 
L 274.106644 142.412522 
L 274.106644 121.181609 
L 219.476154 121.181609 
z
" clip-path="url(#p789b10e709)" style="fill: #9467bd"/>
   </g>
   <g id="patch_26">
    <path d="M 244.584107 99.950696 
L 311.961711 99.950696 
L 311.961711 78.719783 
L 244.584107 78.719783 
z
" clip-path="url(#p789b10e709)" style="fill: #9467bd"/>
   </g>
   <g id="patch_27">
    <path d="M 187.82358 57.48887 
L 241.725663 57.48887 
L 241.725663 36.257957 
L 187.82358 36.257957 
z
" clip-path="url(#p789b10e709)" style="fill: #9467bd"/>
   </g>
   <g id="patch_28">
    <path d="M 397.131669 227.336175 
L 426.882819 227.336175 
L 426.882819 206.105262 
L 397.131669 206.105262 
z
" clip-path="url(#p789b10e709)" style="fill: #8c564b"/>
   </g>
   <g id="patch_29">
    <path d="M 348.33702 184.874348 
L 408.622245 184.874348 
L 408.622245 163.643435 
L 348.33702 163.643435 
z
" clip-path="url(#p789b10e709)" style="fill: #8c564b"/>
   </g>
   <g id="patch_30">
    <path d="M 274.106644 142.412522 
L 352.410346 142.412522 
L 352.410346 121.181609 
L 274.106644 121.181609 
z
" clip-path="url(#p789b10e709)" style="fill: #8c564b"/>
   </g>
   <g id="patch_31">
    <path d="M 311.961711 99.950696 
L 383.422806 99.950696 
L 383.422806 78.719783 
L 311.961711 78.719783 
z
" clip-path="url(#p789b10e709)" style="fill: #8c564b"/>
   </g>
   <g id="patch_32">
    <path d="M 241.725663 57.48887 
L 305.428125 57.48887 
L 305.428125 36.257957 
L 241.725663 36.257957 
z
" clip-path="url(#p789b10e709)" style="fill: #8c564b"/>
   </g>
   <g id="patch_33">
    <path d="M 426.882819 227.336175 
L 449.633699 227.336175 
L 449.633699 206.105262 
L 426.882819 206.105262 
z
" clip-path="url(#p789b10e709)" style="fill: #e377c2"/>
   </g>
   <g id="patch_34">
    <path d="M 408.622245 184.874348 
L 419.260814 184.874348 
L 419.260814 163.643435 
L 408.622245 163.643435 
z
" clip-path="url(#p789b10e709)" style="fill: #e377c2"/>
   </g>
   <g id="patch_35">
    <path d="M 352.410346 142.412522 
L 392.472706 142.412522 
L 392.472706 121.181609 
L 352.410346 121.181609 
z
" clip-path="url(#p789b10e709)" style="fill: #e377c2"/>
   </g>
   <g id="patch_36">
    <path d="M 383.422806 99.950696 
L 401.798516 99.950696 
L 401.798516 78.719783 
L 383.422806 78.719783 
z
" clip-path="url(#p789b10e709)" style="fill: #e377c2"/>
   </g>
   <g id="patch_37">
    <path d="M 305.428125 57.48887 
L 349.52983 57.48887 
L 349.52983 36.257957 
L 305.428125 36.257957 
z
" clip-path="url(#p789b10e709)" style="fill: #e377c2"/>
   </g>
   <g id="patch_38">
    <path d="M 449.633699 227.336175 
L 461.884172 227.336175 
L 461.884172 206.105262 
L 449.633699 206.105262 
z
" clip-path="url(#p789b10e709)" style="fill: #7f7f7f"/>
   </g>
   <g id="patch_39">
    <path d="M 419.260814 184.874348 
L 456.495806 184.874348 
L 456.495806 163.643435 
L 419.260814 163.643435 
z
" clip-path="url(#p789b10e709)" style="fill: #7f7f7f"/>
   </g>
   <g id="patch_40">
    <path d="M 392.472706 142.412522 
L 448.924212 142.412522 
L 448.924212 121.181609 
L 392.472706 121.181609 
z
" clip-path="url(#p789b10e709)" style="fill: #7f7f7f"/>
   </g>
   <g id="patch_41">
    <path d="M 401.798516 99.950696 
L 438.549937 99.950696 
L 438.549937 78.719783 
L 401.798516 78.719783 
z
" clip-path="url(#p789b10e709)" style="fill: #7f7f7f"/>
   </g>
   <g id="patch_42">
    <path d="M 349.52983 57.48887 
L 420.582576 57.48887 
L 420.582576 36.257957 
L 349.52983 36.257957 
z
" clip-path="url(#p789b10e709)" style="fill: #7f7f7f"/>
   </g>
   <g id="patch_43">
    <path d="M 461.884172 227.336175 
L 467.134375 227.336175 
L 467.134375 206.105262 
L 461.884172 206.105262 
z
" clip-path="url(#p789b10e709)" style="fill: #bcbd22"/>
   </g>
   <g id="patch_44">
    <path d="M 456.495806 184.874348 
L 467.134375 184.874348 
L 467.134375 163.643435 
L 456.495806 163.643435 
z
" clip-path="url(#p789b10e709)" style="fill: #bcbd22"/>
   </g>
   <g id="patch_45">
    <path d="M 448.924212 142.412522 
L 467.134375 142.412522 
L 467.134375 121.181609 
L 448.924212 121.181609 
z
" clip-path="url(#p789b10e709)" style="fill: #bcbd22"/>
   </g>
   <g id="patch_46">
    <path d="M 438.549937 99.950696 
L 467.134375 99.950696 
L 467.134375 78.719783 
L 438.549937 78.719783 
z
" clip-path="url(#p789b10e709)" style="fill: #bcbd22"/>
   </g>
   <g id="patch_47">
    <path d="M 420.582576 57.48887 
L 467.134375 57.48887 
L 467.134375 36.257957 
L 420.582576 36.257957 
z
" clip-path="url(#p789b10e709)" style="fill: #bcbd22"/>
   </g>
   <g id="matplotlib.axis_1">
    <g id="xtick_1">
     <g id="line2d_1">
      <defs>
       <path id="m4c99cd72f3" d="M 0 0 
L 0 3.5 
" style="stroke: #000000; stroke-width: 0.8"/>
      </defs>
      <g>
       <use xlink:href="#m4c99cd72f3" x="62.86875" y="237.951631" style="stroke: #000000; stroke-width: 0.8"/>
      </g>
     </g>
     <g id="text_1">
      <text style="font: 10px 'sans-serif'; text-anchor: middle" x="62.86875" y="252.125069" transform="rotate(-0, 62.86875, 252.125069)">0</text>
     </g>
    </g>
    <g id="xtick_2">
     <g id="line2d_2">
      <g>
       <use xlink:href="#m4c99cd72f3" x="143.721875" y="237.951631" style="stroke: #000000; stroke-width: 0.8"/>
      </g>
     </g>
     <g id="text_2">
      <text style="font: 10px 'sans-serif'; text-anchor: middle" x="143.721875" y="252.125069" transform="rotate(-0, 143.721875, 252.125069)">20</text>
     </g>
    </g>
    <g id="xtick_3">
     <g id="line2d_3">
      <g>
       <use xlink:href="#m4c99cd72f3" x="224.575" y="237.951631" style="stroke: #000000; stroke-width: 0.8"/>
      </g>
     </g>
     <g id="text_3">
      <text style="font: 10px 'sans-serif'; text-anchor: middle" x="224.575" y="252.125069" transform="rotate(-0, 224.575, 252.125069)">40</text>
     </g>
    </g>
    <g id="xtick_4">
     <g id="line2d_4">
      <g>
       <use xlink:href="#m4c99cd72f3" x="305.428125" y="237.951631" style="stroke: #000000; stroke-width: 0.8"/>
      </g>
     </g>
     <g id="text_4">
      <text style="font: 10px 'sans-serif'; text-anchor: middle" x="305.428125" y="252.125069" transform="rotate(-0, 305.428125, 252.125069)">60</text>
     </g>
    </g>
    <g id="xtick_5">
     <g id="line2d_5">
      <g>
       <use xlink:href="#m4c99cd72f3" x="386.28125" y="237.951631" style="stroke: #000000; stroke-width: 0.8"/>
      </g>
     </g>
     <g id="text_5">
      <text style="font: 10px 'sans-serif'; text-anchor: middle" x="386.28125" y="252.125069" transform="rotate(-0, 386.28125, 252.125069)">80</text>
     </g>
    </g>
    <g id="xtick_6">
     <g id="line2d_6">
      <g>
       <use xlink:href="#m4c99cd72f3" x="467.134375" y="237.951631" style="stroke: #000000; stroke-width: 0.8"/>
      </g>
     </g>
     <g id="text_6">
      <text style="font: 10px 'sans-serif'; text-anchor: middle" x="467.134375" y="252.125069" transform="rotate(-0, 467.134375, 252.125069)">100</text>
     </g>
    </g>
    <g id="text_7">
     <text style="font: 10px 'sans-serif'; text-anchor: middle" x="275.108203" y="265.484444" transform="rotate(-0, 275.108203, 265.484444)">Ranking of importance</text>
    </g>
   </g>
   <g id="matplotlib.axis_2">
    <g id="ytick_1">
     <g id="line2d_7">
      <defs>
       <path id="m8e343aef83" d="M 0 0 
L -3.5 0 
" style="stroke: #000000; stroke-width: 0.8"/>
      </defs>
      <g>
       <use xlink:href="#m8e343aef83" x="62.86875" y="216.720718" style="stroke: #000000; stroke-width: 0.8"/>
      </g>
     </g>
     <g id="text_8">
      <text style="font: 10px 'sans-serif'; text-anchor: end" x="55.86875" y="220.307437" transform="rotate(-0, 55.86875, 220.307437)">Rank 1</text>
     </g>
    </g>
    <g id="ytick_2">
     <g id="line2d_8">
      <g>
       <use xlink:href="#m8e343aef83" x="62.86875" y="174.258892" style="stroke: #000000; stroke-width: 0.8"/>
      </g>
     </g>
     <g id="text_9">
      <text style="font: 10px 'sans-serif'; text-anchor: end" x="55.86875" y="177.845611" transform="rotate(-0, 55.86875, 177.845611)">Rank 2</text>
     </g>
    </g>
    <g id="ytick_3">
     <g id="line2d_9">
      <g>
       <use xlink:href="#m8e343aef83" x="62.86875" y="131.797066" style="stroke: #000000; stroke-width: 0.8"/>
      </g>
     </g>
     <g id="text_10">
      <text style="font: 10px 'sans-serif'; text-anchor: end" x="55.86875" y="135.383784" transform="rotate(-0, 55.86875, 135.383784)">Rank 3</text>
     </g>
    </g>
    <g id="ytick_4">
     <g id="line2d_10">
      <g>
       <use xlink:href="#m8e343aef83" x="62.86875" y="89.335239" style="stroke: #000000; stroke-width: 0.8"/>
      </g>
     </g>
     <g id="text_11">
      <text style="font: 10px 'sans-serif'; text-anchor: end" x="55.86875" y="92.921958" transform="rotate(-0, 55.86875, 92.921958)">Rank 4</text>
     </g>
    </g>
    <g id="ytick_5">
     <g id="line2d_11">
      <g>
       <use xlink:href="#m8e343aef83" x="62.86875" y="46.873413" style="stroke: #000000; stroke-width: 0.8"/>
      </g>
     </g>
     <g id="text_12">
      <text style="font: 10px 'sans-serif'; text-anchor: end" x="55.86875" y="50.460132" transform="rotate(-0, 55.86875, 50.460132)">Rank 5</text>
     </g>
    </g>
    <g id="text_13">
     <text style="font: 10px 'sans-serif'; text-anchor: middle" x="17.973438" y="131.797066" transform="rotate(-90, 17.973438, 131.797066)">Percentage</text>
    </g>
   </g>
   <g id="patch_48">
    <path d="M 62.86875 237.951631 
L 487.347656 237.951631 
" style="fill: none; stroke: #000000; stroke-width: 0.8; stroke-linejoin: miter; stroke-linecap: square"/>
   </g>
   <g id="text_14">
    <text style="font: 10px 'sans-serif'; text-anchor: middle" x="110.99561" y="220.966901" transform="rotate(-0, 110.99561, 220.966901)">24</text>
   </g>
   <g id="text_15">
    <text style="font: 10px 'sans-serif'; text-anchor: middle" x="93.011362" y="178.505074" transform="rotate(-0, 93.011362, 178.505074)">15</text>
   </g>
   <g id="text_16">
    <text style="font: 10px 'sans-serif'; text-anchor: middle" x="80.168405" y="136.043248" transform="rotate(-0, 80.168405, 136.043248)">9</text>
   </g>
   <g id="text_17">
    <text style="font: 10px 'sans-serif'; text-anchor: middle" x="95.536679" y="93.581422" transform="rotate(-0, 95.536679, 93.581422)">16</text>
   </g>
   <g id="text_18">
    <text style="font: 10px 'sans-serif'; text-anchor: middle" x="86.14465" y="51.119596" transform="rotate(-0, 86.14465, 51.119596)">12</text>
   </g>
   <g id="text_19">
    <text style="font: 10px 'sans-serif'; text-anchor: middle" x="206.374297" y="220.966901" transform="rotate(-0, 206.374297, 220.966901)">23</text>
   </g>
   <g id="text_20">
    <text style="font: 10px 'sans-serif'; text-anchor: middle" x="166.594799" y="178.505074" transform="rotate(-0, 166.594799, 178.505074)">21</text>
   </g>
   <g id="text_21">
    <text style="font: 10px 'sans-serif'; text-anchor: middle" x="118.409748" y="136.043248" transform="rotate(-0, 118.409748, 136.043248)">10</text>
   </g>
   <g id="text_22">
    <text style="font: 10px 'sans-serif'; text-anchor: middle" x="148.622064" y="93.581422" transform="rotate(-0, 148.622064, 93.581422)">10</text>
   </g>
   <g id="text_23">
    <text style="font: 10px 'sans-serif'; text-anchor: middle" x="124.121117" y="51.119596" transform="rotate(-0, 124.121117, 51.119596)">7</text>
   </g>
   <g id="text_24">
    <text style="font: 10px 'sans-serif'; text-anchor: middle" x="291.252577" y="220.966901" transform="rotate(-0, 291.252577, 220.966901)">19</text>
   </g>
   <g id="text_25">
    <text style="font: 10px 'sans-serif'; text-anchor: middle" x="233.972403" y="178.505074" transform="rotate(-0, 233.972403, 178.505074)">12</text>
   </g>
   <g id="text_26">
    <text style="font: 10px 'sans-serif'; text-anchor: middle" x="151.188042" y="136.043248" transform="rotate(-0, 151.188042, 136.043248)">6</text>
   </g>
   <g id="text_27">
    <text style="font: 10px 'sans-serif'; text-anchor: middle" x="347.254742" y="220.966901" transform="rotate(-0, 347.254742, 220.966901)">9</text>
   </g>
   <g id="text_28">
    <text style="font: 10px 'sans-serif'; text-anchor: middle" x="282.732511" y="178.505074" transform="rotate(-0, 282.732511, 178.505074)">12</text>
   </g>
   <g id="text_29">
    <text style="font: 10px 'sans-serif'; text-anchor: middle" x="191.250401" y="136.043248" transform="rotate(-0, 191.250401, 136.043248)">14</text>
   </g>
   <g id="text_30">
    <text style="font: 10px 'sans-serif'; text-anchor: middle" x="211.916177" y="93.581422" transform="rotate(-0, 211.916177, 93.581422)">16</text>
   </g>
   <g id="text_31">
    <text style="font: 10px 'sans-serif'; text-anchor: middle" x="170.672917" y="51.119596" transform="rotate(-0, 170.672917, 51.119596)">8</text>
   </g>
   <g id="text_32">
    <text style="font: 10px 'sans-serif'; text-anchor: middle" x="381.381061" y="220.966901" transform="rotate(-0, 381.381061, 220.966901)">8</text>
   </g>
   <g id="text_33">
    <text style="font: 10px 'sans-serif'; text-anchor: middle" x="327.94643" y="178.505074" transform="rotate(-0, 327.94643, 178.505074)">10</text>
   </g>
   <g id="text_34">
    <text style="font: 10px 'sans-serif'; text-anchor: middle" x="246.791399" y="136.043248" transform="rotate(-0, 246.791399, 136.043248)">14</text>
   </g>
   <g id="text_35">
    <text style="font: 10px 'sans-serif'; text-anchor: middle" x="278.272909" y="93.581422" transform="rotate(-0, 278.272909, 93.581422)">17</text>
   </g>
   <g id="text_36">
    <text style="font: 10px 'sans-serif'; text-anchor: middle" x="214.774621" y="51.119596" transform="rotate(-0, 214.774621, 51.119596)">13</text>
   </g>
   <g id="text_37">
    <text style="font: 10px 'sans-serif'; text-anchor: middle" x="412.007244" y="220.966901" transform="rotate(-0, 412.007244, 220.966901)">7</text>
   </g>
   <g id="text_38">
    <text style="font: 10px 'sans-serif'; text-anchor: middle" x="378.479633" y="178.505074" transform="rotate(-0, 378.479633, 178.505074)">15</text>
   </g>
   <g id="text_39">
    <text style="font: 10px 'sans-serif'; text-anchor: middle" x="313.258495" y="136.043248" transform="rotate(-0, 313.258495, 136.043248)">19</text>
   </g>
   <g id="text_40">
    <text style="font: 10px 'sans-serif'; text-anchor: middle" x="347.692259" y="93.581422" transform="rotate(-0, 347.692259, 93.581422)">18</text>
   </g>
   <g id="text_41">
    <text style="font: 10px 'sans-serif'; text-anchor: middle" x="273.576894" y="51.119596" transform="rotate(-0, 273.576894, 51.119596)">16</text>
   </g>
   <g id="text_42">
    <text style="font: 10px 'sans-serif'; text-anchor: middle" x="438.258259" y="220.966901" transform="rotate(-0, 438.258259, 220.966901)">6</text>
   </g>
   <g id="text_43">
    <text style="font: 10px 'sans-serif'; text-anchor: middle" x="372.441526" y="136.043248" transform="rotate(-0, 372.441526, 136.043248)">10</text>
   </g>
   <g id="text_44">
    <text style="font: 10px 'sans-serif'; text-anchor: middle" x="392.610661" y="93.581422" transform="rotate(-0, 392.610661, 93.581422)">5</text>
   </g>
   <g id="text_45">
    <text style="font: 10px 'sans-serif'; text-anchor: middle" x="327.478977" y="51.119596" transform="rotate(-0, 327.478977, 51.119596)">11</text>
   </g>
   <g id="text_46">
    <text style="font: 10px 'sans-serif'; text-anchor: middle" x="437.87831" y="178.505074" transform="rotate(-0, 437.87831, 178.505074)">9</text>
   </g>
   <g id="text_47">
    <text style="font: 10px 'sans-serif'; text-anchor: middle" x="420.698459" y="136.043248" transform="rotate(-0, 420.698459, 136.043248)">14</text>
   </g>
   <g id="text_48">
    <text style="font: 10px 'sans-serif'; text-anchor: middle" x="420.174227" y="93.581422" transform="rotate(-0, 420.174227, 93.581422)">9</text>
   </g>
   <g id="text_49">
    <text style="font: 10px 'sans-serif'; text-anchor: middle" x="385.056203" y="51.119596" transform="rotate(-0, 385.056203, 51.119596)">18</text>
   </g>
   <g id="text_50">
    <text style="font: 10px 'sans-serif'; text-anchor: middle" x="458.029293" y="136.043248" transform="rotate(-0, 458.029293, 136.043248)">5</text>
   </g>
   <g id="text_51">
    <text style="font: 10px 'sans-serif'; text-anchor: middle" x="452.842156" y="93.581422" transform="rotate(-0, 452.842156, 93.581422)">7</text>
   </g>
   <g id="text_52">
    <text style="font: 10px 'sans-serif'; text-anchor: middle" x="443.858475" y="51.119596" transform="rotate(-0, 443.858475, 51.119596)">12</text>
   </g>
   <g id="text_53">
    <text style="font: 12px 'sans-serif'; text-anchor: middle" x="275.108203" y="19.6425" transform="rotate(-0, 275.108203, 19.6425)">Reasons to choose current job: Germany</text>
   </g>
   <g id="legend_1">
    <g id="patch_49">
     <path d="M 61.424609 349.576126 
L 488.791797 349.576126 
Q 490.791797 349.576126 490.791797 347.576126 
L 490.791797 276.798001 
Q 490.791797 274.798001 488.791797 274.798001 
L 61.424609 274.798001 
Q 59.424609 274.798001 59.424609 276.798001 
L 59.424609 347.576126 
Q 59.424609 349.576126 61.424609 349.576126 
z
" style="fill: #ffffff; opacity: 0.8; stroke: #cccccc; stroke-linejoin: miter"/>
    </g>
    <g id="patch_50">
     <path d="M 63.424609 285.994876 
L 83.424609 285.994876 
L 83.424609 278.994876 
L 63.424609 278.994876 
z
" style="fill: #1f77b4"/>
    </g>
    <g id="text_54">
     <text style="font: 10px 'sans-serif'; text-anchor: start" x="91.424609" y="285.994876" transform="rotate(-0, 91.424609, 285.994876)">Freedom to choose own working practices</text>
    </g>
    <g id="patch_51">
     <path d="M 63.424609 300.380813 
L 83.424609 300.380813 
L 83.424609 293.380813 
L 63.424609 293.380813 
z
" style="fill: #ff7f0e"/>
    </g>
    <g id="text_55">
     <text style="font: 10px 'sans-serif'; text-anchor: start" x="91.424609" y="300.380813" transform="rotate(-0, 91.424609, 300.380813)">Desire to work in a research environment</text>
    </g>
    <g id="patch_52">
     <path d="M 63.424609 314.638626 
L 83.424609 314.638626 
L 83.424609 307.638626 
L 63.424609 307.638626 
z
" style="fill: #2ca02c"/>
    </g>
    <g id="text_56">
     <text style="font: 10px 'sans-serif'; text-anchor: start" x="91.424609" y="314.638626" transform="rotate(-0, 91.424609, 314.638626)">Desire to advance research</text>
    </g>
    <g id="patch_53">
     <path d="M 63.424609 329.091751 
L 83.424609 329.091751 
L 83.424609 322.091751 
L 63.424609 322.091751 
z
" style="fill: #d62728"/>
    </g>
    <g id="text_57">
     <text style="font: 10px 'sans-serif'; text-anchor: start" x="91.424609" y="329.091751" transform="rotate(-0, 91.424609, 329.091751)">Opportunity to develop software</text>
    </g>
    <g id="patch_54">
     <path d="M 63.424609 343.432376 
L 83.424609 343.432376 
L 83.424609 336.432376 
L 63.424609 336.432376 
z
" style="fill: #9467bd"/>
    </g>
    <g id="text_58">
     <text style="font: 10px 'sans-serif'; text-anchor: start" x="91.424609" y="343.432376" transform="rotate(-0, 91.424609, 343.432376)">Ability to work across disciplines</text>
    </g>
    <g id="patch_55">
     <path d="M 298.721484 285.994876 
L 318.721484 285.994876 
L 318.721484 278.994876 
L 298.721484 278.994876 
z
" style="fill: #8c564b"/>
    </g>
    <g id="text_59">
     <text style="font: 10px 'sans-serif'; text-anchor: start" x="326.721484" y="285.994876" transform="rotate(-0, 326.721484, 285.994876)">I want to learn new skills</text>
    </g>
    <g id="patch_56">
     <path d="M 298.721484 300.448001 
L 318.721484 300.448001 
L 318.721484 293.448001 
L 298.721484 293.448001 
z
" style="fill: #e377c2"/>
    </g>
    <g id="text_60">
     <text style="font: 10px 'sans-serif'; text-anchor: start" x="326.721484" y="300.448001" transform="rotate(-0, 326.721484, 300.448001)">Opportunity for career advancement</text>
    </g>
    <g id="patch_57">
     <path d="M 298.721484 314.788626 
L 318.721484 314.788626 
L 318.721484 307.788626 
L 298.721484 307.788626 
z
" style="fill: #7f7f7f"/>
    </g>
    <g id="text_61">
     <text style="font: 10px 'sans-serif'; text-anchor: start" x="326.721484" y="314.788626" transform="rotate(-0, 326.721484, 314.788626)">Flexible working hours</text>
    </g>
    <g id="patch_58">
     <path d="M 298.721484 329.198001 
L 318.721484 329.198001 
L 318.721484 322.198001 
L 298.721484 322.198001 
z
" style="fill: #bcbd22"/>
    </g>
    <g id="text_62">
     <text style="font: 10px 'sans-serif'; text-anchor: start" x="326.721484" y="329.198001" transform="rotate(-0, 326.721484, 329.198001)">The salary</text>
    </g>
   </g>
  </g>
 </g>
 <defs>
  <clipPath id="p789b10e709">
   <rect x="62.86875" y="25.6425" width="424.478906" height="212.309131"/>
  </clipPath>
 </defs>
</svg>
