<?xml version="1.0" encoding="utf-8" standalone="no"?>
<!DOCTYPE svg PUBLIC "-//W3C//DTD SVG 1.1//EN"
  "http://www.w3.org/Graphics/SVG/1.1/DTD/svg11.dtd">
<svg height="360pt" version="1.1" viewBox="0 0 504 360" width="504pt" xmlns="http://www.w3.org/2000/svg" xmlns:xlink="http://www.w3.org/1999/xlink">
 <metadata>
  <rdf:RDF xmlns:cc="http://creativecommons.org/ns#" xmlns:dc="http://purl.org/dc/elements/1.1/" xmlns:rdf="http://www.w3.org/1999/02/22-rdf-syntax-ns#">
   <cc:Work>
    <dc:type rdf:resource="http://purl.org/dc/dcmitype/StillImage"/>
    <dc:date>2021-06-09T15:04:21.163704</dc:date>
    <dc:format>image/svg+xml</dc:format>
    <dc:creator>
     <cc:Agent>
      <dc:title>Matplotlib v3.4.2, https://matplotlib.org/</dc:title>
     </cc:Agent>
    </dc:creator>
   </cc:Work>
  </rdf:RDF>
 </metadata>
 <defs>
  <style type="text/css">*{stroke-linecap:butt;stroke-linejoin:round;}</style>
 </defs>
 <g id="figure_1">
  <g id="patch_1">
   <path d="M 0 360 
L 504 360 
L 504 0 
L 0 0 
z
" style="fill:#ffffff;"/>
  </g>
  <g id="axes_1">
   <g id="patch_2">
    <path d="M 62.745313 228.530937 
L 461.707812 228.530937 
L 461.707812 25.535625 
L 62.745313 25.535625 
z
" style="fill:#ffffff;"/>
   </g>
   <g id="patch_3">
    <path clip-path="url(#p23bbc646c9)" d="M 62.745313 218.381172 
L 168.290947 218.381172 
L 168.290947 198.081641 
L 62.745313 198.081641 
z
" style="fill:#1f77b4;"/>
   </g>
   <g id="patch_4">
    <path clip-path="url(#p23bbc646c9)" d="M 62.745313 177.782109 
L 139.265898 177.782109 
L 139.265898 157.482578 
L 62.745313 157.482578 
z
" style="fill:#1f77b4;"/>
   </g>
   <g id="patch_5">
    <path clip-path="url(#p23bbc646c9)" d="M 62.745313 137.183047 
L 107.602207 137.183047 
L 107.602207 116.883516 
L 62.745313 116.883516 
z
" style="fill:#1f77b4;"/>
   </g>
   <g id="patch_6">
    <path clip-path="url(#p23bbc646c9)" d="M 62.745313 96.583984 
L 107.915892 96.583984 
L 107.915892 76.284453 
L 62.745313 76.284453 
z
" style="fill:#1f77b4;"/>
   </g>
   <g id="patch_7">
    <path clip-path="url(#p23bbc646c9)" d="M 62.745313 55.984922 
L 99.944613 55.984922 
L 99.944613 35.685391 
L 62.745313 35.685391 
z
" style="fill:#1f77b4;"/>
   </g>
   <g id="patch_8">
    <path clip-path="url(#p23bbc646c9)" d="M 168.290947 218.381172 
L 255.366096 218.381172 
L 255.366096 198.081641 
L 168.290947 198.081641 
z
" style="fill:#ff7f0e;"/>
   </g>
   <g id="patch_9">
    <path clip-path="url(#p23bbc646c9)" d="M 139.265898 177.782109 
L 189.400074 177.782109 
L 189.400074 157.482578 
L 139.265898 157.482578 
z
" style="fill:#ff7f0e;"/>
   </g>
   <g id="patch_10">
    <path clip-path="url(#p23bbc646c9)" d="M 107.602207 137.183047 
L 157.736384 137.183047 
L 157.736384 116.883516 
L 107.602207 116.883516 
z
" style="fill:#ff7f0e;"/>
   </g>
   <g id="patch_11">
    <path clip-path="url(#p23bbc646c9)" d="M 107.915892 96.583984 
L 137.143914 96.583984 
L 137.143914 76.284453 
L 107.915892 76.284453 
z
" style="fill:#ff7f0e;"/>
   </g>
   <g id="patch_12">
    <path clip-path="url(#p23bbc646c9)" d="M 99.944613 55.984922 
L 123.858449 55.984922 
L 123.858449 35.685391 
L 99.944613 35.685391 
z
" style="fill:#ff7f0e;"/>
   </g>
   <g id="patch_13">
    <path clip-path="url(#p23bbc646c9)" d="M 255.366096 218.381172 
L 302.861632 218.381172 
L 302.861632 198.081641 
L 255.366096 198.081641 
z
" style="fill:#2ca02c;"/>
   </g>
   <g id="patch_14">
    <path clip-path="url(#p23bbc646c9)" d="M 189.400074 177.782109 
L 218.425124 177.782109 
L 218.425124 157.482578 
L 189.400074 157.482578 
z
" style="fill:#2ca02c;"/>
   </g>
   <g id="patch_15">
    <path clip-path="url(#p23bbc646c9)" d="M 157.736384 137.183047 
L 205.23192 137.183047 
L 205.23192 116.883516 
L 157.736384 116.883516 
z
" style="fill:#2ca02c;"/>
   </g>
   <g id="patch_16">
    <path clip-path="url(#p23bbc646c9)" d="M 137.143914 96.583984 
L 203.571237 96.583984 
L 203.571237 76.284453 
L 137.143914 76.284453 
z
" style="fill:#2ca02c;"/>
   </g>
   <g id="patch_17">
    <path clip-path="url(#p23bbc646c9)" d="M 123.858449 55.984922 
L 171.686122 55.984922 
L 171.686122 35.685391 
L 123.858449 35.685391 
z
" style="fill:#2ca02c;"/>
   </g>
   <g id="patch_18">
    <path clip-path="url(#p23bbc646c9)" d="M 302.861632 218.381172 
L 337.163963 218.381172 
L 337.163963 198.081641 
L 302.861632 198.081641 
z
" style="fill:#d62728;"/>
   </g>
   <g id="patch_19">
    <path clip-path="url(#p23bbc646c9)" d="M 218.425124 177.782109 
L 250.088814 177.782109 
L 250.088814 157.482578 
L 218.425124 157.482578 
z
" style="fill:#d62728;"/>
   </g>
   <g id="patch_20">
    <path clip-path="url(#p23bbc646c9)" d="M 205.23192 137.183047 
L 250.088814 137.183047 
L 250.088814 116.883516 
L 205.23192 116.883516 
z
" style="fill:#d62728;"/>
   </g>
   <g id="patch_21">
    <path clip-path="url(#p23bbc646c9)" d="M 203.571237 96.583984 
L 248.741816 96.583984 
L 248.741816 76.284453 
L 203.571237 76.284453 
z
" style="fill:#d62728;"/>
   </g>
   <g id="patch_22">
    <path clip-path="url(#p23bbc646c9)" d="M 171.686122 55.984922 
L 230.142166 55.984922 
L 230.142166 35.685391 
L 171.686122 35.685391 
z
" style="fill:#d62728;"/>
   </g>
   <g id="patch_23">
    <path clip-path="url(#p23bbc646c9)" d="M 337.163963 218.381172 
L 368.827654 218.381172 
L 368.827654 198.081641 
L 337.163963 198.081641 
z
" style="fill:#9467bd;"/>
   </g>
   <g id="patch_24">
    <path clip-path="url(#p23bbc646c9)" d="M 250.088814 177.782109 
L 287.029787 177.782109 
L 287.029787 157.482578 
L 250.088814 157.482578 
z
" style="fill:#9467bd;"/>
   </g>
   <g id="patch_25">
    <path clip-path="url(#p23bbc646c9)" d="M 250.088814 137.183047 
L 273.836582 137.183047 
L 273.836582 116.883516 
L 250.088814 116.883516 
z
" style="fill:#9467bd;"/>
   </g>
   <g id="patch_26">
    <path clip-path="url(#p23bbc646c9)" d="M 248.741816 96.583984 
L 272.655652 96.583984 
L 272.655652 76.284453 
L 248.741816 76.284453 
z
" style="fill:#9467bd;"/>
   </g>
   <g id="patch_27">
    <path clip-path="url(#p23bbc646c9)" d="M 230.142166 55.984922 
L 262.027281 55.984922 
L 262.027281 35.685391 
L 230.142166 35.685391 
z
" style="fill:#9467bd;"/>
   </g>
   <g id="patch_28">
    <path clip-path="url(#p23bbc646c9)" d="M 368.827654 218.381172 
L 397.852703 218.381172 
L 397.852703 198.081641 
L 368.827654 198.081641 
z
" style="fill:#8c564b;"/>
   </g>
   <g id="patch_29">
    <path clip-path="url(#p23bbc646c9)" d="M 287.029787 177.782109 
L 331.886682 177.782109 
L 331.886682 157.482578 
L 287.029787 157.482578 
z
" style="fill:#8c564b;"/>
   </g>
   <g id="patch_30">
    <path clip-path="url(#p23bbc646c9)" d="M 273.836582 137.183047 
L 331.886682 137.183047 
L 331.886682 116.883516 
L 273.836582 116.883516 
z
" style="fill:#8c564b;"/>
   </g>
   <g id="patch_31">
    <path clip-path="url(#p23bbc646c9)" d="M 272.655652 96.583984 
L 320.483324 96.583984 
L 320.483324 76.284453 
L 272.655652 76.284453 
z
" style="fill:#8c564b;"/>
   </g>
   <g id="patch_32">
    <path clip-path="url(#p23bbc646c9)" d="M 262.027281 55.984922 
L 299.226581 55.984922 
L 299.226581 35.685391 
L 262.027281 35.685391 
z
" style="fill:#8c564b;"/>
   </g>
   <g id="patch_33">
    <path clip-path="url(#p23bbc646c9)" d="M 397.852703 218.381172 
L 426.877753 218.381172 
L 426.877753 198.081641 
L 397.852703 198.081641 
z
" style="fill:#e377c2;"/>
   </g>
   <g id="patch_34">
    <path clip-path="url(#p23bbc646c9)" d="M 331.886682 177.782109 
L 379.382217 177.782109 
L 379.382217 157.482578 
L 331.886682 157.482578 
z
" style="fill:#e377c2;"/>
   </g>
   <g id="patch_35">
    <path clip-path="url(#p23bbc646c9)" d="M 331.886682 137.183047 
L 366.189013 137.183047 
L 366.189013 116.883516 
L 331.886682 116.883516 
z
" style="fill:#e377c2;"/>
   </g>
   <g id="patch_36">
    <path clip-path="url(#p23bbc646c9)" d="M 320.483324 96.583984 
L 347.054254 96.583984 
L 347.054254 76.284453 
L 320.483324 76.284453 
z
" style="fill:#e377c2;"/>
   </g>
   <g id="patch_37">
    <path clip-path="url(#p23bbc646c9)" d="M 299.226581 55.984922 
L 323.140417 55.984922 
L 323.140417 35.685391 
L 299.226581 35.685391 
z
" style="fill:#e377c2;"/>
   </g>
   <g id="patch_38">
    <path clip-path="url(#p23bbc646c9)" d="M 426.877753 218.381172 
L 437.432316 218.381172 
L 437.432316 198.081641 
L 426.877753 198.081641 
z
" style="fill:#7f7f7f;"/>
   </g>
   <g id="patch_39">
    <path clip-path="url(#p23bbc646c9)" d="M 379.382217 177.782109 
L 403.129985 177.782109 
L 403.129985 157.482578 
L 379.382217 157.482578 
z
" style="fill:#7f7f7f;"/>
   </g>
   <g id="patch_40">
    <path clip-path="url(#p23bbc646c9)" d="M 366.189013 137.183047 
L 405.768626 137.183047 
L 405.768626 116.883516 
L 366.189013 116.883516 
z
" style="fill:#7f7f7f;"/>
   </g>
   <g id="patch_41">
    <path clip-path="url(#p23bbc646c9)" d="M 347.054254 96.583984 
L 408.16739 96.583984 
L 408.16739 76.284453 
L 347.054254 76.284453 
z
" style="fill:#7f7f7f;"/>
   </g>
   <g id="patch_42">
    <path clip-path="url(#p23bbc646c9)" d="M 323.140417 55.984922 
L 389.56774 55.984922 
L 389.56774 35.685391 
L 323.140417 35.685391 
z
" style="fill:#7f7f7f;"/>
   </g>
   <g id="patch_43">
    <path clip-path="url(#p23bbc646c9)" d="M 437.432316 218.381172 
L 442.709598 218.381172 
L 442.709598 198.081641 
L 437.432316 198.081641 
z
" style="fill:#bcbd22;"/>
   </g>
   <g id="patch_44">
    <path clip-path="url(#p23bbc646c9)" d="M 403.129985 177.782109 
L 442.709598 177.782109 
L 442.709598 157.482578 
L 403.129985 157.482578 
z
" style="fill:#bcbd22;"/>
   </g>
   <g id="patch_45">
    <path clip-path="url(#p23bbc646c9)" d="M 405.768626 137.183047 
L 442.709598 137.183047 
L 442.709598 116.883516 
L 405.768626 116.883516 
z
" style="fill:#bcbd22;"/>
   </g>
   <g id="patch_46">
    <path clip-path="url(#p23bbc646c9)" d="M 408.16739 96.583984 
L 442.709598 96.583984 
L 442.709598 76.284453 
L 408.16739 76.284453 
z
" style="fill:#bcbd22;"/>
   </g>
   <g id="patch_47">
    <path clip-path="url(#p23bbc646c9)" d="M 389.56774 55.984922 
L 442.709598 55.984922 
L 442.709598 35.685391 
L 389.56774 35.685391 
z
" style="fill:#bcbd22;"/>
   </g>
   <g id="matplotlib.axis_1">
    <g id="xtick_1">
     <g id="line2d_1">
      <defs>
       <path d="M 0 0 
L 0 3.5 
" id="mc3a356a46d" style="stroke:#000000;stroke-width:0.8;"/>
      </defs>
      <g>
       <use style="stroke:#000000;stroke-width:0.8;" x="62.745313" xlink:href="#mc3a356a46d" y="228.530937"/>
      </g>
     </g>
     <g id="text_1">
      <text style="font-family:Arial;font-size:10px;font-stretch:normal;font-style:normal;font-weight:normal;text-anchor:middle;" transform="rotate(-0, 62.745313, 242.68875)" x="62.745313" y="242.68875">0</text>
     </g>
    </g>
    <g id="xtick_2">
     <g id="line2d_2">
      <g>
       <use style="stroke:#000000;stroke-width:0.8;" x="138.73817" xlink:href="#mc3a356a46d" y="228.530937"/>
      </g>
     </g>
     <g id="text_2">
      <text style="font-family:Arial;font-size:10px;font-stretch:normal;font-style:normal;font-weight:normal;text-anchor:middle;" transform="rotate(-0, 138.73817, 242.68875)" x="138.73817" y="242.68875">20</text>
     </g>
    </g>
    <g id="xtick_3">
     <g id="line2d_3">
      <g>
       <use style="stroke:#000000;stroke-width:0.8;" x="214.731027" xlink:href="#mc3a356a46d" y="228.530937"/>
      </g>
     </g>
     <g id="text_3">
      <text style="font-family:Arial;font-size:10px;font-stretch:normal;font-style:normal;font-weight:normal;text-anchor:middle;" transform="rotate(-0, 214.731027, 242.68875)" x="214.731027" y="242.68875">40</text>
     </g>
    </g>
    <g id="xtick_4">
     <g id="line2d_4">
      <g>
       <use style="stroke:#000000;stroke-width:0.8;" x="290.723884" xlink:href="#mc3a356a46d" y="228.530937"/>
      </g>
     </g>
     <g id="text_4">
      <text style="font-family:Arial;font-size:10px;font-stretch:normal;font-style:normal;font-weight:normal;text-anchor:middle;" transform="rotate(-0, 290.723884, 242.68875)" x="290.723884" y="242.68875">60</text>
     </g>
    </g>
    <g id="xtick_5">
     <g id="line2d_5">
      <g>
       <use style="stroke:#000000;stroke-width:0.8;" x="366.716741" xlink:href="#mc3a356a46d" y="228.530937"/>
      </g>
     </g>
     <g id="text_5">
      <text style="font-family:Arial;font-size:10px;font-stretch:normal;font-style:normal;font-weight:normal;text-anchor:middle;" transform="rotate(-0, 366.716741, 242.68875)" x="366.716741" y="242.68875">80</text>
     </g>
    </g>
    <g id="xtick_6">
     <g id="line2d_6">
      <g>
       <use style="stroke:#000000;stroke-width:0.8;" x="442.709598" xlink:href="#mc3a356a46d" y="228.530937"/>
      </g>
     </g>
     <g id="text_6">
      <text style="font-family:Arial;font-size:10px;font-stretch:normal;font-style:normal;font-weight:normal;text-anchor:middle;" transform="rotate(-0, 442.709598, 242.68875)" x="442.709598" y="242.68875">100</text>
     </g>
    </g>
    <g id="text_7">
     <text style="font-family:Arial;font-size:10px;font-stretch:normal;font-style:normal;font-weight:normal;text-anchor:middle;" transform="rotate(-0, 262.226562, 255.955937)" x="262.226562" y="255.955937">Ranking of importance</text>
    </g>
   </g>
   <g id="matplotlib.axis_2">
    <g id="ytick_1">
     <g id="line2d_7">
      <defs>
       <path d="M 0 0 
L -3.5 0 
" id="m82278324de" style="stroke:#000000;stroke-width:0.8;"/>
      </defs>
      <g>
       <use style="stroke:#000000;stroke-width:0.8;" x="62.745313" xlink:href="#m82278324de" y="208.231406"/>
      </g>
     </g>
     <g id="text_8">
      <text style="font-family:Arial;font-size:10px;font-stretch:normal;font-style:normal;font-weight:normal;text-anchor:end;" transform="rotate(-0, 55.745313, 211.810312)" x="55.745313" y="211.810312">Rank 1</text>
     </g>
    </g>
    <g id="ytick_2">
     <g id="line2d_8">
      <g>
       <use style="stroke:#000000;stroke-width:0.8;" x="62.745313" xlink:href="#m82278324de" y="167.632344"/>
      </g>
     </g>
     <g id="text_9">
      <text style="font-family:Arial;font-size:10px;font-stretch:normal;font-style:normal;font-weight:normal;text-anchor:end;" transform="rotate(-0, 55.745313, 171.21125)" x="55.745313" y="171.21125">Rank 2</text>
     </g>
    </g>
    <g id="ytick_3">
     <g id="line2d_9">
      <g>
       <use style="stroke:#000000;stroke-width:0.8;" x="62.745313" xlink:href="#m82278324de" y="127.033281"/>
      </g>
     </g>
     <g id="text_10">
      <text style="font-family:Arial;font-size:10px;font-stretch:normal;font-style:normal;font-weight:normal;text-anchor:end;" transform="rotate(-0, 55.745313, 130.612188)" x="55.745313" y="130.612188">Rank 3</text>
     </g>
    </g>
    <g id="ytick_4">
     <g id="line2d_10">
      <g>
       <use style="stroke:#000000;stroke-width:0.8;" x="62.745313" xlink:href="#m82278324de" y="86.434219"/>
      </g>
     </g>
     <g id="text_11">
      <text style="font-family:Arial;font-size:10px;font-stretch:normal;font-style:normal;font-weight:normal;text-anchor:end;" transform="rotate(-0, 55.745313, 90.013125)" x="55.745313" y="90.013125">Rank 4</text>
     </g>
    </g>
    <g id="ytick_5">
     <g id="line2d_11">
      <g>
       <use style="stroke:#000000;stroke-width:0.8;" x="62.745313" xlink:href="#m82278324de" y="45.835156"/>
      </g>
     </g>
     <g id="text_12">
      <text style="font-family:Arial;font-size:10px;font-stretch:normal;font-style:normal;font-weight:normal;text-anchor:end;" transform="rotate(-0, 55.745313, 49.414063)" x="55.745313" y="49.414063">Rank 5</text>
     </g>
    </g>
    <g id="text_13">
     <text style="font-family:Arial;font-size:10px;font-stretch:normal;font-style:normal;font-weight:normal;text-anchor:middle;" transform="rotate(-90, 17.957813, 127.033281)" x="17.957813" y="127.033281">Percentage</text>
    </g>
   </g>
   <g id="patch_48">
    <path d="M 62.745313 228.530937 
L 461.707812 228.530937 
" style="fill:none;stroke:#000000;stroke-linecap:square;stroke-linejoin:miter;stroke-width:0.8;"/>
   </g>
   <g id="text_14">
    <text style="font-family:Arial;font-size:10px;font-stretch:normal;font-style:normal;font-weight:normal;text-anchor:middle;" transform="rotate(-0, 115.51813, 212.291312)" x="115.51813" y="212.291312">28</text>
   </g>
   <g id="text_15">
    <text style="font-family:Arial;font-size:10px;font-stretch:normal;font-style:normal;font-weight:normal;text-anchor:middle;" transform="rotate(-0, 101.005605, 171.69225)" x="101.005605" y="171.69225">20</text>
   </g>
   <g id="text_16">
    <text style="font-family:Arial;font-size:10px;font-stretch:normal;font-style:normal;font-weight:normal;text-anchor:middle;" transform="rotate(-0, 85.17376, 131.093188)" x="85.17376" y="131.093188">12</text>
   </g>
   <g id="text_17">
    <text style="font-family:Arial;font-size:10px;font-stretch:normal;font-style:normal;font-weight:normal;text-anchor:middle;" transform="rotate(-0, 85.330602, 90.494125)" x="85.330602" y="90.494125">12</text>
   </g>
   <g id="text_18">
    <text style="font-family:Arial;font-size:10px;font-stretch:normal;font-style:normal;font-weight:normal;text-anchor:middle;" transform="rotate(-0, 81.344963, 49.895063)" x="81.344963" y="49.895063">10</text>
   </g>
   <g id="text_19">
    <text style="font-family:Arial;font-size:10px;font-stretch:normal;font-style:normal;font-weight:normal;text-anchor:middle;" transform="rotate(-0, 211.828522, 212.291312)" x="211.828522" y="212.291312">23</text>
   </g>
   <g id="text_20">
    <text style="font-family:Arial;font-size:10px;font-stretch:normal;font-style:normal;font-weight:normal;text-anchor:middle;" transform="rotate(-0, 164.332986, 171.69225)" x="164.332986" y="171.69225">13</text>
   </g>
   <g id="text_21">
    <text style="font-family:Arial;font-size:10px;font-stretch:normal;font-style:normal;font-weight:normal;text-anchor:middle;" transform="rotate(-0, 132.669296, 131.093188)" x="132.669296" y="131.093188">13</text>
   </g>
   <g id="text_22">
    <text style="font-family:Arial;font-size:10px;font-stretch:normal;font-style:normal;font-weight:normal;text-anchor:middle;" transform="rotate(-0, 122.529903, 90.494125)" x="122.529903" y="90.494125">8</text>
   </g>
   <g id="text_23">
    <text style="font-family:Arial;font-size:10px;font-stretch:normal;font-style:normal;font-weight:normal;text-anchor:middle;" transform="rotate(-0, 111.901531, 49.895063)" x="111.901531" y="49.895063">6</text>
   </g>
   <g id="text_24">
    <text style="font-family:Arial;font-size:10px;font-stretch:normal;font-style:normal;font-weight:normal;text-anchor:middle;" transform="rotate(-0, 279.113864, 212.291312)" x="279.113864" y="212.291312">12</text>
   </g>
   <g id="text_25">
    <text style="font-family:Arial;font-size:10px;font-stretch:normal;font-style:normal;font-weight:normal;text-anchor:middle;" transform="rotate(-0, 203.912599, 171.69225)" x="203.912599" y="171.69225">8</text>
   </g>
   <g id="text_26">
    <text style="font-family:Arial;font-size:10px;font-stretch:normal;font-style:normal;font-weight:normal;text-anchor:middle;" transform="rotate(-0, 181.484152, 131.093188)" x="181.484152" y="131.093188">12</text>
   </g>
   <g id="text_27">
    <text style="font-family:Arial;font-size:10px;font-stretch:normal;font-style:normal;font-weight:normal;text-anchor:middle;" transform="rotate(-0, 170.357575, 90.494125)" x="170.357575" y="90.494125">17</text>
   </g>
   <g id="text_28">
    <text style="font-family:Arial;font-size:10px;font-stretch:normal;font-style:normal;font-weight:normal;text-anchor:middle;" transform="rotate(-0, 147.772286, 49.895063)" x="147.772286" y="49.895063">13</text>
   </g>
   <g id="text_29">
    <text style="font-family:Arial;font-size:10px;font-stretch:normal;font-style:normal;font-weight:normal;text-anchor:middle;" transform="rotate(-0, 320.012798, 212.291312)" x="320.012798" y="212.291312">9</text>
   </g>
   <g id="text_30">
    <text style="font-family:Arial;font-size:10px;font-stretch:normal;font-style:normal;font-weight:normal;text-anchor:middle;" transform="rotate(-0, 234.256969, 171.69225)" x="234.256969" y="171.69225">8</text>
   </g>
   <g id="text_31">
    <text style="font-family:Arial;font-size:10px;font-stretch:normal;font-style:normal;font-weight:normal;text-anchor:middle;" transform="rotate(-0, 227.660367, 131.093188)" x="227.660367" y="131.093188">12</text>
   </g>
   <g id="text_32">
    <text style="font-family:Arial;font-size:10px;font-stretch:normal;font-style:normal;font-weight:normal;text-anchor:middle;" transform="rotate(-0, 226.156526, 90.494125)" x="226.156526" y="90.494125">12</text>
   </g>
   <g id="text_33">
    <text style="font-family:Arial;font-size:10px;font-stretch:normal;font-style:normal;font-weight:normal;text-anchor:middle;" transform="rotate(-0, 200.914144, 49.895063)" x="200.914144" y="49.895063">15</text>
   </g>
   <g id="text_34">
    <text style="font-family:Arial;font-size:10px;font-stretch:normal;font-style:normal;font-weight:normal;text-anchor:middle;" transform="rotate(-0, 352.995809, 212.291312)" x="352.995809" y="212.291312">8</text>
   </g>
   <g id="text_35">
    <text style="font-family:Arial;font-size:10px;font-stretch:normal;font-style:normal;font-weight:normal;text-anchor:middle;" transform="rotate(-0, 268.559301, 171.69225)" x="268.559301" y="171.69225">10</text>
   </g>
   <g id="text_36">
    <text style="font-family:Arial;font-size:10px;font-stretch:normal;font-style:normal;font-weight:normal;text-anchor:middle;" transform="rotate(-0, 261.962698, 131.093188)" x="261.962698" y="131.093188">6</text>
   </g>
   <g id="text_37">
    <text style="font-family:Arial;font-size:10px;font-stretch:normal;font-style:normal;font-weight:normal;text-anchor:middle;" transform="rotate(-0, 260.698734, 90.494125)" x="260.698734" y="90.494125">6</text>
   </g>
   <g id="text_38">
    <text style="font-family:Arial;font-size:10px;font-stretch:normal;font-style:normal;font-weight:normal;text-anchor:middle;" transform="rotate(-0, 246.084723, 49.895063)" x="246.084723" y="49.895063">8</text>
   </g>
   <g id="text_39">
    <text style="font-family:Arial;font-size:10px;font-stretch:normal;font-style:normal;font-weight:normal;text-anchor:middle;" transform="rotate(-0, 383.340179, 212.291312)" x="383.340179" y="212.291312">8</text>
   </g>
   <g id="text_40">
    <text style="font-family:Arial;font-size:10px;font-stretch:normal;font-style:normal;font-weight:normal;text-anchor:middle;" transform="rotate(-0, 309.458234, 171.69225)" x="309.458234" y="171.69225">12</text>
   </g>
   <g id="text_41">
    <text style="font-family:Arial;font-size:10px;font-stretch:normal;font-style:normal;font-weight:normal;text-anchor:middle;" transform="rotate(-0, 302.861632, 131.093188)" x="302.861632" y="131.093188">15</text>
   </g>
   <g id="text_42">
    <text style="font-family:Arial;font-size:10px;font-stretch:normal;font-style:normal;font-weight:normal;text-anchor:middle;" transform="rotate(-0, 296.569488, 90.494125)" x="296.569488" y="90.494125">13</text>
   </g>
   <g id="text_43">
    <text style="font-family:Arial;font-size:10px;font-stretch:normal;font-style:normal;font-weight:normal;text-anchor:middle;" transform="rotate(-0, 280.626931, 49.895063)" x="280.626931" y="49.895063">10</text>
   </g>
   <g id="text_44">
    <text style="font-family:Arial;font-size:10px;font-stretch:normal;font-style:normal;font-weight:normal;text-anchor:middle;" transform="rotate(-0, 412.365228, 212.291312)" x="412.365228" y="212.291312">8</text>
   </g>
   <g id="text_45">
    <text style="font-family:Arial;font-size:10px;font-stretch:normal;font-style:normal;font-weight:normal;text-anchor:middle;" transform="rotate(-0, 355.634449, 171.69225)" x="355.634449" y="171.69225">12</text>
   </g>
   <g id="text_46">
    <text style="font-family:Arial;font-size:10px;font-stretch:normal;font-style:normal;font-weight:normal;text-anchor:middle;" transform="rotate(-0, 349.037847, 131.093188)" x="349.037847" y="131.093188">9</text>
   </g>
   <g id="text_47">
    <text style="font-family:Arial;font-size:10px;font-stretch:normal;font-style:normal;font-weight:normal;text-anchor:middle;" transform="rotate(-0, 333.768789, 90.494125)" x="333.768789" y="90.494125">7</text>
   </g>
   <g id="text_48">
    <text style="font-family:Arial;font-size:10px;font-stretch:normal;font-style:normal;font-weight:normal;text-anchor:middle;" transform="rotate(-0, 311.183499, 49.895063)" x="311.183499" y="49.895063">6</text>
   </g>
   <g id="text_49">
    <text style="font-family:Arial;font-size:10px;font-stretch:normal;font-style:normal;font-weight:normal;text-anchor:middle;" transform="rotate(-0, 391.256101, 171.69225)" x="391.256101" y="171.69225">6</text>
   </g>
   <g id="text_50">
    <text style="font-family:Arial;font-size:10px;font-stretch:normal;font-style:normal;font-weight:normal;text-anchor:middle;" transform="rotate(-0, 385.978819, 131.093188)" x="385.978819" y="131.093188">10</text>
   </g>
   <g id="text_51">
    <text style="font-family:Arial;font-size:10px;font-stretch:normal;font-style:normal;font-weight:normal;text-anchor:middle;" transform="rotate(-0, 377.610822, 90.494125)" x="377.610822" y="90.494125">16</text>
   </g>
   <g id="text_52">
    <text style="font-family:Arial;font-size:10px;font-stretch:normal;font-style:normal;font-weight:normal;text-anchor:middle;" transform="rotate(-0, 356.354079, 49.895063)" x="356.354079" y="49.895063">17</text>
   </g>
   <g id="text_53">
    <text style="font-family:Arial;font-size:10px;font-stretch:normal;font-style:normal;font-weight:normal;text-anchor:middle;" transform="rotate(-0, 422.919792, 171.69225)" x="422.919792" y="171.69225">10</text>
   </g>
   <g id="text_54">
    <text style="font-family:Arial;font-size:10px;font-stretch:normal;font-style:normal;font-weight:normal;text-anchor:middle;" transform="rotate(-0, 424.239112, 131.093188)" x="424.239112" y="131.093188">10</text>
   </g>
   <g id="text_55">
    <text style="font-family:Arial;font-size:10px;font-stretch:normal;font-style:normal;font-weight:normal;text-anchor:middle;" transform="rotate(-0, 425.438494, 90.494125)" x="425.438494" y="90.494125">9</text>
   </g>
   <g id="text_56">
    <text style="font-family:Arial;font-size:10px;font-stretch:normal;font-style:normal;font-weight:normal;text-anchor:middle;" transform="rotate(-0, 416.138669, 49.895063)" x="416.138669" y="49.895063">14</text>
   </g>
   <g id="text_57">
    <text style="font-family:Arial;font-size:12px;font-stretch:normal;font-style:normal;font-weight:normal;text-anchor:middle;" transform="rotate(-0, 262.226562, 19.535625)" x="262.226562" y="19.535625">Reasons to choose current job: United States</text>
   </g>
   <g id="legend_1">
    <g id="patch_49">
     <path d="M 37.434375 338.069297 
L 487.01875 338.069297 
Q 489.01875 338.069297 489.01875 336.069297 
L 489.01875 265.980234 
Q 489.01875 263.980234 487.01875 263.980234 
L 37.434375 263.980234 
Q 35.434375 263.980234 35.434375 265.980234 
L 35.434375 336.069297 
Q 35.434375 338.069297 37.434375 338.069297 
z
" style="fill:#ffffff;opacity:0.8;stroke:#cccccc;stroke-linejoin:miter;"/>
    </g>
    <g id="patch_50">
     <path d="M 39.434375 275.138047 
L 59.434375 275.138047 
L 59.434375 268.138047 
L 39.434375 268.138047 
z
" style="fill:#1f77b4;"/>
    </g>
    <g id="text_58">
     <text style="font-family:Arial;font-size:10px;font-stretch:normal;font-style:normal;font-weight:normal;text-anchor:start;" transform="rotate(-0, 67.434375, 275.138047)" x="67.434375" y="275.138047">Desire to work in a research environment</text>
    </g>
    <g id="patch_51">
     <path d="M 39.434375 289.283359 
L 59.434375 289.283359 
L 59.434375 282.283359 
L 39.434375 282.283359 
z
" style="fill:#ff7f0e;"/>
    </g>
    <g id="text_59">
     <text style="font-family:Arial;font-size:10px;font-stretch:normal;font-style:normal;font-weight:normal;text-anchor:start;" transform="rotate(-0, 67.434375, 289.283359)" x="67.434375" y="289.283359">Desire to advance research</text>
    </g>
    <g id="patch_52">
     <path d="M 39.434375 303.556797 
L 59.434375 303.556797 
L 59.434375 296.556797 
L 39.434375 296.556797 
z
" style="fill:#2ca02c;"/>
    </g>
    <g id="text_60">
     <text style="font-family:Arial;font-size:10px;font-stretch:normal;font-style:normal;font-weight:normal;text-anchor:start;" transform="rotate(-0, 67.434375, 303.556797)" x="67.434375" y="303.556797">Opportunity to develop software</text>
    </g>
    <g id="patch_53">
     <path d="M 39.434375 317.819297 
L 59.434375 317.819297 
L 59.434375 310.819297 
L 39.434375 310.819297 
z
" style="fill:#d62728;"/>
    </g>
    <g id="text_61">
     <text style="font-family:Arial;font-size:10px;font-stretch:normal;font-style:normal;font-weight:normal;text-anchor:start;" transform="rotate(-0, 67.434375, 317.819297)" x="67.434375" y="317.819297">I want to learn new skills</text>
    </g>
    <g id="patch_54">
     <path d="M 39.434375 331.964609 
L 59.434375 331.964609 
L 59.434375 324.964609 
L 39.434375 324.964609 
z
" style="fill:#9467bd;"/>
    </g>
    <g id="text_62">
     <text style="font-family:Arial;font-size:10px;font-stretch:normal;font-style:normal;font-weight:normal;text-anchor:start;" transform="rotate(-0, 67.434375, 331.964609)" x="67.434375" y="331.964609">The salary</text>
    </g>
    <g id="patch_55">
     <path d="M 269.721875 275.138047 
L 289.721875 275.138047 
L 289.721875 268.138047 
L 269.721875 268.138047 
z
" style="fill:#8c564b;"/>
    </g>
    <g id="text_63">
     <text style="font-family:Arial;font-size:10px;font-stretch:normal;font-style:normal;font-weight:normal;text-anchor:start;" transform="rotate(-0, 297.721875, 275.138047)" x="297.721875" y="275.138047">Freedom to choose own working practices</text>
    </g>
    <g id="patch_56">
     <path d="M 269.721875 289.528672 
L 289.721875 289.528672 
L 289.721875 282.528672 
L 269.721875 282.528672 
z
" style="fill:#e377c2;"/>
    </g>
    <g id="text_64">
     <text style="font-family:Arial;font-size:10px;font-stretch:normal;font-style:normal;font-weight:normal;text-anchor:start;" transform="rotate(-0, 297.721875, 289.528672)" x="297.721875" y="289.528672">Opportunity for career advancement</text>
    </g>
    <g id="patch_57">
     <path d="M 269.721875 303.791172 
L 289.721875 303.791172 
L 289.721875 296.791172 
L 269.721875 296.791172 
z
" style="fill:#7f7f7f;"/>
    </g>
    <g id="text_65">
     <text style="font-family:Arial;font-size:10px;font-stretch:normal;font-style:normal;font-weight:normal;text-anchor:start;" transform="rotate(-0, 297.721875, 303.791172)" x="297.721875" y="303.791172">Flexible working hours</text>
    </g>
    <g id="patch_58">
     <path d="M 269.721875 318.053672 
L 289.721875 318.053672 
L 289.721875 311.053672 
L 269.721875 311.053672 
z
" style="fill:#bcbd22;"/>
    </g>
    <g id="text_66">
     <text style="font-family:Arial;font-size:10px;font-stretch:normal;font-style:normal;font-weight:normal;text-anchor:start;" transform="rotate(-0, 297.721875, 318.053672)" x="297.721875" y="318.053672">Ability to work across disciplines</text>
    </g>
   </g>
  </g>
 </g>
 <defs>
  <clipPath id="p23bbc646c9">
   <rect height="202.995312" width="398.9625" x="62.745313" y="25.535625"/>
  </clipPath>
 </defs>
</svg>
