<?xml version="1.0" encoding="utf-8" standalone="no"?>
<!DOCTYPE svg PUBLIC "-//W3C//DTD SVG 1.1//EN"
  "http://www.w3.org/Graphics/SVG/1.1/DTD/svg11.dtd">
<svg xmlns:xlink="http://www.w3.org/1999/xlink" width="504pt" height="360pt" viewBox="0 0 504 360" xmlns="http://www.w3.org/2000/svg" version="1.1">
 <metadata>
  <rdf:RDF xmlns:dc="http://purl.org/dc/elements/1.1/" xmlns:cc="http://creativecommons.org/ns#" xmlns:rdf="http://www.w3.org/1999/02/22-rdf-syntax-ns#">
   <cc:Work>
    <dc:type rdf:resource="http://purl.org/dc/dcmitype/StillImage"/>
    <dc:date>2022-03-21T16:07:38.795365</dc:date>
    <dc:format>image/svg+xml</dc:format>
    <dc:creator>
     <cc:Agent>
      <dc:title>Matplotlib v3.5.1, https://matplotlib.org/</dc:title>
     </cc:Agent>
    </dc:creator>
   </cc:Work>
  </rdf:RDF>
 </metadata>
 <defs>
  <style type="text/css">*{stroke-linejoin: round; stroke-linecap: butt}</style>
 </defs>
 <g id="figure_1">
  <g id="patch_1">
   <path d="M 0 360 
L 504 360 
L 504 0 
L 0 0 
z
" style="fill: #ffffff"/>
  </g>
  <g id="axes_1">
   <g id="patch_2">
    <path d="M 62.86875 238.045537 
L 491.022656 238.045537 
L 491.022656 25.43625 
L 62.86875 25.43625 
z
" style="fill: #ffffff"/>
   </g>
   <g id="patch_3">
    <path d="M 62.86875 227.415072 
L 141.285216 227.415072 
L 141.285216 206.154144 
L 62.86875 206.154144 
z
" clip-path="url(#p642dfca9fd)" style="fill: #1f77b4"/>
   </g>
   <g id="patch_4">
    <path d="M 62.86875 184.893215 
L 109.91863 184.893215 
L 109.91863 163.632286 
L 62.86875 163.632286 
z
" clip-path="url(#p642dfca9fd)" style="fill: #1f77b4"/>
   </g>
   <g id="patch_5">
    <path d="M 62.86875 142.371358 
L 141.285216 142.371358 
L 141.285216 121.110429 
L 62.86875 121.110429 
z
" clip-path="url(#p642dfca9fd)" style="fill: #1f77b4"/>
   </g>
   <g id="patch_6">
    <path d="M 62.86875 99.8495 
L 79.858984 99.8495 
L 79.858984 78.588572 
L 62.86875 78.588572 
z
" clip-path="url(#p642dfca9fd)" style="fill: #1f77b4"/>
   </g>
   <g id="patch_7">
    <path d="M 62.86875 57.327643 
L 81.403551 57.327643 
L 81.403551 36.066714 
L 62.86875 36.066714 
z
" clip-path="url(#p642dfca9fd)" style="fill: #1f77b4"/>
   </g>
   <g id="patch_8">
    <path d="M 141.285216 227.415072 
L 204.018389 227.415072 
L 204.018389 206.154144 
L 141.285216 206.154144 
z
" clip-path="url(#p642dfca9fd)" style="fill: #ff7f0e"/>
   </g>
   <g id="patch_9">
    <path d="M 109.91863 184.893215 
L 188.335096 184.893215 
L 188.335096 163.632286 
L 109.91863 163.632286 
z
" clip-path="url(#p642dfca9fd)" style="fill: #ff7f0e"/>
   </g>
   <g id="patch_10">
    <path d="M 141.285216 142.371358 
L 219.701683 142.371358 
L 219.701683 121.110429 
L 141.285216 121.110429 
z
" clip-path="url(#p642dfca9fd)" style="fill: #ff7f0e"/>
   </g>
   <g id="patch_11">
    <path d="M 79.858984 99.8495 
L 96.849219 99.8495 
L 96.849219 78.588572 
L 79.858984 78.588572 
z
" clip-path="url(#p642dfca9fd)" style="fill: #ff7f0e"/>
   </g>
   <g id="patch_12">
    <path d="M 62.86875 57.327643 
L 62.86875 57.327643 
L 62.86875 36.066714 
L 62.86875 36.066714 
z
" clip-path="url(#p642dfca9fd)" style="fill: #ff7f0e"/>
   </g>
   <g id="patch_13">
    <path d="M 204.018389 227.415072 
L 251.068269 227.415072 
L 251.068269 206.154144 
L 204.018389 206.154144 
z
" clip-path="url(#p642dfca9fd)" style="fill: #2ca02c"/>
   </g>
   <g id="patch_14">
    <path d="M 188.335096 184.893215 
L 204.018389 184.893215 
L 204.018389 163.632286 
L 188.335096 163.632286 
z
" clip-path="url(#p642dfca9fd)" style="fill: #2ca02c"/>
   </g>
   <g id="patch_15">
    <path d="M 219.701683 142.371358 
L 266.751563 142.371358 
L 266.751563 121.110429 
L 219.701683 121.110429 
z
" clip-path="url(#p642dfca9fd)" style="fill: #2ca02c"/>
   </g>
   <g id="patch_16">
    <path d="M 96.849219 99.8495 
L 113.839453 99.8495 
L 113.839453 78.588572 
L 96.849219 78.588572 
z
" clip-path="url(#p642dfca9fd)" style="fill: #2ca02c"/>
   </g>
   <g id="patch_17">
    <path d="M 81.403551 57.327643 
L 211.147159 57.327643 
L 211.147159 36.066714 
L 81.403551 36.066714 
z
" clip-path="url(#p642dfca9fd)" style="fill: #2ca02c"/>
   </g>
   <g id="patch_18">
    <path d="M 251.068269 227.415072 
L 298.118149 227.415072 
L 298.118149 206.154144 
L 251.068269 206.154144 
z
" clip-path="url(#p642dfca9fd)" style="fill: #d62728"/>
   </g>
   <g id="patch_19">
    <path d="M 204.018389 184.893215 
L 313.801442 184.893215 
L 313.801442 163.632286 
L 204.018389 163.632286 
z
" clip-path="url(#p642dfca9fd)" style="fill: #d62728"/>
   </g>
   <g id="patch_20">
    <path d="M 266.751562 142.371358 
L 313.801442 142.371358 
L 313.801442 121.110429 
L 266.751562 121.110429 
z
" clip-path="url(#p642dfca9fd)" style="fill: #d62728"/>
   </g>
   <g id="patch_21">
    <path d="M 113.839453 99.8495 
L 164.810156 99.8495 
L 164.810156 78.588572 
L 113.839453 78.588572 
z
" clip-path="url(#p642dfca9fd)" style="fill: #d62728"/>
   </g>
   <g id="patch_22">
    <path d="M 211.147159 57.327643 
L 285.286364 57.327643 
L 285.286364 36.066714 
L 211.147159 36.066714 
z
" clip-path="url(#p642dfca9fd)" style="fill: #d62728"/>
   </g>
   <g id="patch_23">
    <path d="M 298.118149 227.415072 
L 345.168029 227.415072 
L 345.168029 206.154144 
L 298.118149 206.154144 
z
" clip-path="url(#p642dfca9fd)" style="fill: #9467bd"/>
   </g>
   <g id="patch_24">
    <path d="M 313.801442 184.893215 
L 345.168029 184.893215 
L 345.168029 163.632286 
L 313.801442 163.632286 
z
" clip-path="url(#p642dfca9fd)" style="fill: #9467bd"/>
   </g>
   <g id="patch_25">
    <path d="M 313.801442 142.371358 
L 360.851322 142.371358 
L 360.851322 121.110429 
L 313.801442 121.110429 
z
" clip-path="url(#p642dfca9fd)" style="fill: #9467bd"/>
   </g>
   <g id="patch_26">
    <path d="M 164.810156 99.8495 
L 249.761328 99.8495 
L 249.761328 78.588572 
L 164.810156 78.588572 
z
" clip-path="url(#p642dfca9fd)" style="fill: #9467bd"/>
   </g>
   <g id="patch_27">
    <path d="M 285.286364 57.327643 
L 377.960369 57.327643 
L 377.960369 36.066714 
L 285.286364 36.066714 
z
" clip-path="url(#p642dfca9fd)" style="fill: #9467bd"/>
   </g>
   <g id="patch_28">
    <path d="M 345.168029 227.415072 
L 392.217909 227.415072 
L 392.217909 206.154144 
L 345.168029 206.154144 
z
" clip-path="url(#p642dfca9fd)" style="fill: #8c564b"/>
   </g>
   <g id="patch_29">
    <path d="M 345.168029 184.893215 
L 423.584495 184.893215 
L 423.584495 163.632286 
L 345.168029 163.632286 
z
" clip-path="url(#p642dfca9fd)" style="fill: #8c564b"/>
   </g>
   <g id="patch_30">
    <path d="M 360.851322 142.371358 
L 392.217909 142.371358 
L 392.217909 121.110429 
L 360.851322 121.110429 
z
" clip-path="url(#p642dfca9fd)" style="fill: #8c564b"/>
   </g>
   <g id="patch_31">
    <path d="M 249.761328 99.8495 
L 283.741797 99.8495 
L 283.741797 78.588572 
L 249.761328 78.588572 
z
" clip-path="url(#p642dfca9fd)" style="fill: #8c564b"/>
   </g>
   <g id="patch_32">
    <path d="M 377.960369 57.327643 
L 415.029972 57.327643 
L 415.029972 36.066714 
L 377.960369 36.066714 
z
" clip-path="url(#p642dfca9fd)" style="fill: #8c564b"/>
   </g>
   <g id="patch_33">
    <path d="M 392.217909 227.415072 
L 439.267788 227.415072 
L 439.267788 206.154144 
L 392.217909 206.154144 
z
" clip-path="url(#p642dfca9fd)" style="fill: #e377c2"/>
   </g>
   <g id="patch_34">
    <path d="M 62.86875 184.893215 
L 62.86875 184.893215 
L 62.86875 163.632286 
L 62.86875 163.632286 
z
" clip-path="url(#p642dfca9fd)" style="fill: #e377c2"/>
   </g>
   <g id="patch_35">
    <path d="M 392.217909 142.371358 
L 423.584495 142.371358 
L 423.584495 121.110429 
L 392.217909 121.110429 
z
" clip-path="url(#p642dfca9fd)" style="fill: #e377c2"/>
   </g>
   <g id="patch_36">
    <path d="M 62.86875 99.8495 
L 62.86875 99.8495 
L 62.86875 78.588572 
L 62.86875 78.588572 
z
" clip-path="url(#p642dfca9fd)" style="fill: #e377c2"/>
   </g>
   <g id="patch_37">
    <path d="M 415.029972 57.327643 
L 433.564773 57.327643 
L 433.564773 36.066714 
L 415.029972 36.066714 
z
" clip-path="url(#p642dfca9fd)" style="fill: #e377c2"/>
   </g>
   <g id="patch_38">
    <path d="M 439.267788 227.415072 
L 454.951082 227.415072 
L 454.951082 206.154144 
L 439.267788 206.154144 
z
" clip-path="url(#p642dfca9fd)" style="fill: #7f7f7f"/>
   </g>
   <g id="patch_39">
    <path d="M 62.86875 184.893215 
L 62.86875 184.893215 
L 62.86875 163.632286 
L 62.86875 163.632286 
z
" clip-path="url(#p642dfca9fd)" style="fill: #7f7f7f"/>
   </g>
   <g id="patch_40">
    <path d="M 423.584495 142.371358 
L 454.951082 142.371358 
L 454.951082 121.110429 
L 423.584495 121.110429 
z
" clip-path="url(#p642dfca9fd)" style="fill: #7f7f7f"/>
   </g>
   <g id="patch_41">
    <path d="M 283.741797 99.8495 
L 419.663672 99.8495 
L 419.663672 78.588572 
L 283.741797 78.588572 
z
" clip-path="url(#p642dfca9fd)" style="fill: #7f7f7f"/>
   </g>
   <g id="patch_42">
    <path d="M 433.564773 57.327643 
L 470.634375 57.327643 
L 470.634375 36.066714 
L 433.564773 36.066714 
z
" clip-path="url(#p642dfca9fd)" style="fill: #7f7f7f"/>
   </g>
   <g id="patch_43">
    <path d="M 454.951082 227.415072 
L 470.634375 227.415072 
L 470.634375 206.154144 
L 454.951082 206.154144 
z
" clip-path="url(#p642dfca9fd)" style="fill: #bcbd22"/>
   </g>
   <g id="patch_44">
    <path d="M 423.584495 184.893215 
L 470.634375 184.893215 
L 470.634375 163.632286 
L 423.584495 163.632286 
z
" clip-path="url(#p642dfca9fd)" style="fill: #bcbd22"/>
   </g>
   <g id="patch_45">
    <path d="M 454.951082 142.371358 
L 470.634375 142.371358 
L 470.634375 121.110429 
L 454.951082 121.110429 
z
" clip-path="url(#p642dfca9fd)" style="fill: #bcbd22"/>
   </g>
   <g id="patch_46">
    <path d="M 419.663672 99.8495 
L 470.634375 99.8495 
L 470.634375 78.588572 
L 419.663672 78.588572 
z
" clip-path="url(#p642dfca9fd)" style="fill: #bcbd22"/>
   </g>
   <g id="patch_47">
    <path d="M 62.86875 57.327643 
L 62.86875 57.327643 
L 62.86875 36.066714 
L 62.86875 36.066714 
z
" clip-path="url(#p642dfca9fd)" style="fill: #bcbd22"/>
   </g>
   <g id="matplotlib.axis_1">
    <g id="xtick_1">
     <g id="line2d_1">
      <defs>
       <path id="m4c99cd72f3" d="M 0 0 
L 0 3.5 
" style="stroke: #000000; stroke-width: 0.8"/>
      </defs>
      <g>
       <use xlink:href="#m4c99cd72f3" x="62.86875" y="238.045537" style="stroke: #000000; stroke-width: 0.8"/>
      </g>
     </g>
     <g id="text_1">
      <text style="font: 10px 'sans-serif'; text-anchor: middle" x="62.86875" y="252.218974" transform="rotate(-0, 62.86875, 252.218974)">0</text>
     </g>
    </g>
    <g id="xtick_2">
     <g id="line2d_2">
      <g>
       <use xlink:href="#m4c99cd72f3" x="144.421875" y="238.045537" style="stroke: #000000; stroke-width: 0.8"/>
      </g>
     </g>
     <g id="text_2">
      <text style="font: 10px 'sans-serif'; text-anchor: middle" x="144.421875" y="252.218974" transform="rotate(-0, 144.421875, 252.218974)">20</text>
     </g>
    </g>
    <g id="xtick_3">
     <g id="line2d_3">
      <g>
       <use xlink:href="#m4c99cd72f3" x="225.975" y="238.045537" style="stroke: #000000; stroke-width: 0.8"/>
      </g>
     </g>
     <g id="text_3">
      <text style="font: 10px 'sans-serif'; text-anchor: middle" x="225.975" y="252.218974" transform="rotate(-0, 225.975, 252.218974)">40</text>
     </g>
    </g>
    <g id="xtick_4">
     <g id="line2d_4">
      <g>
       <use xlink:href="#m4c99cd72f3" x="307.528125" y="238.045537" style="stroke: #000000; stroke-width: 0.8"/>
      </g>
     </g>
     <g id="text_4">
      <text style="font: 10px 'sans-serif'; text-anchor: middle" x="307.528125" y="252.218974" transform="rotate(-0, 307.528125, 252.218974)">60</text>
     </g>
    </g>
    <g id="xtick_5">
     <g id="line2d_5">
      <g>
       <use xlink:href="#m4c99cd72f3" x="389.08125" y="238.045537" style="stroke: #000000; stroke-width: 0.8"/>
      </g>
     </g>
     <g id="text_5">
      <text style="font: 10px 'sans-serif'; text-anchor: middle" x="389.08125" y="252.218974" transform="rotate(-0, 389.08125, 252.218974)">80</text>
     </g>
    </g>
    <g id="xtick_6">
     <g id="line2d_6">
      <g>
       <use xlink:href="#m4c99cd72f3" x="470.634375" y="238.045537" style="stroke: #000000; stroke-width: 0.8"/>
      </g>
     </g>
     <g id="text_6">
      <text style="font: 10px 'sans-serif'; text-anchor: middle" x="470.634375" y="252.218974" transform="rotate(-0, 470.634375, 252.218974)">100</text>
     </g>
    </g>
    <g id="text_7">
     <text style="font: 10px 'sans-serif'; text-anchor: middle" x="276.945703" y="265.578349" transform="rotate(-0, 276.945703, 265.578349)">Ranking of importance</text>
    </g>
   </g>
   <g id="matplotlib.axis_2">
    <g id="ytick_1">
     <g id="line2d_7">
      <defs>
       <path id="m8e343aef83" d="M 0 0 
L -3.5 0 
" style="stroke: #000000; stroke-width: 0.8"/>
      </defs>
      <g>
       <use xlink:href="#m8e343aef83" x="62.86875" y="216.784608" style="stroke: #000000; stroke-width: 0.8"/>
      </g>
     </g>
     <g id="text_8">
      <text style="font: 10px 'sans-serif'; text-anchor: end" x="55.86875" y="220.371327" transform="rotate(-0, 55.86875, 220.371327)">Rank 1</text>
     </g>
    </g>
    <g id="ytick_2">
     <g id="line2d_8">
      <g>
       <use xlink:href="#m8e343aef83" x="62.86875" y="174.262751" style="stroke: #000000; stroke-width: 0.8"/>
      </g>
     </g>
     <g id="text_9">
      <text style="font: 10px 'sans-serif'; text-anchor: end" x="55.86875" y="177.849469" transform="rotate(-0, 55.86875, 177.849469)">Rank 2</text>
     </g>
    </g>
    <g id="ytick_3">
     <g id="line2d_9">
      <g>
       <use xlink:href="#m8e343aef83" x="62.86875" y="131.740893" style="stroke: #000000; stroke-width: 0.8"/>
      </g>
     </g>
     <g id="text_10">
      <text style="font: 10px 'sans-serif'; text-anchor: end" x="55.86875" y="135.327612" transform="rotate(-0, 55.86875, 135.327612)">Rank 3</text>
     </g>
    </g>
    <g id="ytick_4">
     <g id="line2d_10">
      <g>
       <use xlink:href="#m8e343aef83" x="62.86875" y="89.219036" style="stroke: #000000; stroke-width: 0.8"/>
      </g>
     </g>
     <g id="text_11">
      <text style="font: 10px 'sans-serif'; text-anchor: end" x="55.86875" y="92.805755" transform="rotate(-0, 55.86875, 92.805755)">Rank 4</text>
     </g>
    </g>
    <g id="ytick_5">
     <g id="line2d_11">
      <g>
       <use xlink:href="#m8e343aef83" x="62.86875" y="46.697179" style="stroke: #000000; stroke-width: 0.8"/>
      </g>
     </g>
     <g id="text_12">
      <text style="font: 10px 'sans-serif'; text-anchor: end" x="55.86875" y="50.283897" transform="rotate(-0, 55.86875, 50.283897)">Rank 5</text>
     </g>
    </g>
    <g id="text_13">
     <text style="font: 10px 'sans-serif'; text-anchor: middle" x="17.973438" y="131.740893" transform="rotate(-90, 17.973438, 131.740893)">Percentage</text>
    </g>
   </g>
   <g id="patch_48">
    <path d="M 62.86875 238.045537 
L 491.022656 238.045537 
" style="fill: none; stroke: #000000; stroke-width: 0.8; stroke-linejoin: miter; stroke-linecap: square"/>
   </g>
   <g id="text_14">
    <text style="font: 10px 'sans-serif'; text-anchor: middle" x="102.076983" y="221.036794" transform="rotate(-0, 102.076983, 221.036794)">19</text>
   </g>
   <g id="text_15">
    <text style="font: 10px 'sans-serif'; text-anchor: middle" x="86.39369" y="178.514936" transform="rotate(-0, 86.39369, 178.514936)">12</text>
   </g>
   <g id="text_16">
    <text style="font: 10px 'sans-serif'; text-anchor: middle" x="102.076983" y="135.993079" transform="rotate(-0, 102.076983, 135.993079)">19</text>
   </g>
   <g id="text_17">
    <text style="font: 10px 'sans-serif'; text-anchor: middle" x="72.136151" y="50.949364" transform="rotate(-0, 72.136151, 50.949364)">5</text>
   </g>
   <g id="text_18">
    <text style="font: 10px 'sans-serif'; text-anchor: middle" x="172.651803" y="221.036794" transform="rotate(-0, 172.651803, 221.036794)">15</text>
   </g>
   <g id="text_19">
    <text style="font: 10px 'sans-serif'; text-anchor: middle" x="149.126863" y="178.514936" transform="rotate(-0, 149.126863, 178.514936)">19</text>
   </g>
   <g id="text_20">
    <text style="font: 10px 'sans-serif'; text-anchor: middle" x="180.49345" y="135.993079" transform="rotate(-0, 180.49345, 135.993079)">19</text>
   </g>
   <g id="text_21">
    <text style="font: 10px 'sans-serif'; text-anchor: middle" x="227.543329" y="221.036794" transform="rotate(-0, 227.543329, 221.036794)">12</text>
   </g>
   <g id="text_22">
    <text style="font: 10px 'sans-serif'; text-anchor: middle" x="243.226623" y="135.993079" transform="rotate(-0, 243.226623, 135.993079)">12</text>
   </g>
   <g id="text_23">
    <text style="font: 10px 'sans-serif'; text-anchor: middle" x="146.275355" y="50.949364" transform="rotate(-0, 146.275355, 50.949364)">32</text>
   </g>
   <g id="text_24">
    <text style="font: 10px 'sans-serif'; text-anchor: middle" x="274.593209" y="221.036794" transform="rotate(-0, 274.593209, 221.036794)">12</text>
   </g>
   <g id="text_25">
    <text style="font: 10px 'sans-serif'; text-anchor: middle" x="258.909916" y="178.514936" transform="rotate(-0, 258.909916, 178.514936)">27</text>
   </g>
   <g id="text_26">
    <text style="font: 10px 'sans-serif'; text-anchor: middle" x="290.276502" y="135.993079" transform="rotate(-0, 290.276502, 135.993079)">12</text>
   </g>
   <g id="text_27">
    <text style="font: 10px 'sans-serif'; text-anchor: middle" x="139.324805" y="93.471222" transform="rotate(-0, 139.324805, 93.471222)">12</text>
   </g>
   <g id="text_28">
    <text style="font: 10px 'sans-serif'; text-anchor: middle" x="248.216761" y="50.949364" transform="rotate(-0, 248.216761, 50.949364)">18</text>
   </g>
   <g id="text_29">
    <text style="font: 10px 'sans-serif'; text-anchor: middle" x="321.643089" y="221.036794" transform="rotate(-0, 321.643089, 221.036794)">12</text>
   </g>
   <g id="text_30">
    <text style="font: 10px 'sans-serif'; text-anchor: middle" x="329.484736" y="178.514936" transform="rotate(-0, 329.484736, 178.514936)">8</text>
   </g>
   <g id="text_31">
    <text style="font: 10px 'sans-serif'; text-anchor: middle" x="337.326382" y="135.993079" transform="rotate(-0, 337.326382, 135.993079)">12</text>
   </g>
   <g id="text_32">
    <text style="font: 10px 'sans-serif'; text-anchor: middle" x="207.285742" y="93.471222" transform="rotate(-0, 207.285742, 93.471222)">21</text>
   </g>
   <g id="text_33">
    <text style="font: 10px 'sans-serif'; text-anchor: middle" x="331.623366" y="50.949364" transform="rotate(-0, 331.623366, 50.949364)">23</text>
   </g>
   <g id="text_34">
    <text style="font: 10px 'sans-serif'; text-anchor: middle" x="368.692969" y="221.036794" transform="rotate(-0, 368.692969, 221.036794)">12</text>
   </g>
   <g id="text_35">
    <text style="font: 10px 'sans-serif'; text-anchor: middle" x="384.376262" y="178.514936" transform="rotate(-0, 384.376262, 178.514936)">19</text>
   </g>
   <g id="text_36">
    <text style="font: 10px 'sans-serif'; text-anchor: middle" x="376.534615" y="135.993079" transform="rotate(-0, 376.534615, 135.993079)">8</text>
   </g>
   <g id="text_37">
    <text style="font: 10px 'sans-serif'; text-anchor: middle" x="266.751562" y="93.471222" transform="rotate(-0, 266.751562, 93.471222)">8</text>
   </g>
   <g id="text_38">
    <text style="font: 10px 'sans-serif'; text-anchor: middle" x="396.49517" y="50.949364" transform="rotate(-0, 396.49517, 50.949364)">9</text>
   </g>
   <g id="text_39">
    <text style="font: 10px 'sans-serif'; text-anchor: middle" x="415.742849" y="221.036794" transform="rotate(-0, 415.742849, 221.036794)">12</text>
   </g>
   <g id="text_40">
    <text style="font: 10px 'sans-serif'; text-anchor: middle" x="407.901202" y="135.993079" transform="rotate(-0, 407.901202, 135.993079)">8</text>
   </g>
   <g id="text_41">
    <text style="font: 10px 'sans-serif'; text-anchor: middle" x="424.297372" y="50.949364" transform="rotate(-0, 424.297372, 50.949364)">5</text>
   </g>
   <g id="text_42">
    <text style="font: 10px 'sans-serif'; text-anchor: middle" x="439.267788" y="135.993079" transform="rotate(-0, 439.267788, 135.993079)">8</text>
   </g>
   <g id="text_43">
    <text style="font: 10px 'sans-serif'; text-anchor: middle" x="351.702734" y="93.471222" transform="rotate(-0, 351.702734, 93.471222)">33</text>
   </g>
   <g id="text_44">
    <text style="font: 10px 'sans-serif'; text-anchor: middle" x="452.099574" y="50.949364" transform="rotate(-0, 452.099574, 50.949364)">9</text>
   </g>
   <g id="text_45">
    <text style="font: 10px 'sans-serif'; text-anchor: middle" x="447.109435" y="178.514936" transform="rotate(-0, 447.109435, 178.514936)">12</text>
   </g>
   <g id="text_46">
    <text style="font: 10px 'sans-serif'; text-anchor: middle" x="445.149023" y="93.471222" transform="rotate(-0, 445.149023, 93.471222)">12</text>
   </g>
   <g id="text_47">
    <text style="font: 12px 'sans-serif'; text-anchor: middle" x="276.945703" y="19.43625" transform="rotate(-0, 276.945703, 19.43625)">Reasons to choose current job: New Zealand</text>
   </g>
   <g id="legend_1">
    <g id="patch_49">
     <path d="M 63.262109 349.72443 
L 490.629297 349.72443 
Q 492.629297 349.72443 492.629297 347.72443 
L 492.629297 276.93693 
Q 492.629297 274.93693 490.629297 274.93693 
L 63.262109 274.93693 
Q 61.262109 274.93693 61.262109 276.93693 
L 61.262109 347.72443 
Q 61.262109 349.72443 63.262109 349.72443 
z
" style="fill: #ffffff; opacity: 0.8; stroke: #cccccc; stroke-linejoin: miter"/>
    </g>
    <g id="patch_50">
     <path d="M 65.262109 286.30568 
L 85.262109 286.30568 
L 85.262109 279.30568 
L 65.262109 279.30568 
z
" style="fill: #1f77b4"/>
    </g>
    <g id="text_48">
     <text style="font: 10px 'sans-serif'; text-anchor: start" x="93.262109" y="286.30568" transform="rotate(-0, 93.262109, 286.30568)">Desire to advance research</text>
    </g>
    <g id="patch_51">
     <path d="M 65.262109 300.563492 
L 85.262109 300.563492 
L 85.262109 293.563492 
L 65.262109 293.563492 
z
" style="fill: #ff7f0e"/>
    </g>
    <g id="text_49">
     <text style="font: 10px 'sans-serif'; text-anchor: start" x="93.262109" y="300.563492" transform="rotate(-0, 93.262109, 300.563492)">Desire to work in a research environment</text>
    </g>
    <g id="patch_52">
     <path d="M 65.262109 314.844742 
L 85.262109 314.844742 
L 85.262109 307.844742 
L 65.262109 307.844742 
z
" style="fill: #2ca02c"/>
    </g>
    <g id="text_50">
     <text style="font: 10px 'sans-serif'; text-anchor: start" x="93.262109" y="314.844742" transform="rotate(-0, 93.262109, 314.844742)">Flexible working hours</text>
    </g>
    <g id="patch_53">
     <path d="M 65.262109 329.254117 
L 85.262109 329.254117 
L 85.262109 322.254117 
L 65.262109 322.254117 
z
" style="fill: #d62728"/>
    </g>
    <g id="text_51">
     <text style="font: 10px 'sans-serif'; text-anchor: start" x="93.262109" y="329.254117" transform="rotate(-0, 93.262109, 329.254117)">Freedom to choose own working practices</text>
    </g>
    <g id="patch_54">
     <path d="M 65.262109 343.640055 
L 85.262109 343.640055 
L 85.262109 336.640055 
L 65.262109 336.640055 
z
" style="fill: #9467bd"/>
    </g>
    <g id="text_52">
     <text style="font: 10px 'sans-serif'; text-anchor: start" x="93.262109" y="343.640055" transform="rotate(-0, 93.262109, 343.640055)">I want to learn new skills</text>
    </g>
    <g id="patch_55">
     <path d="M 300.558984 286.30568 
L 320.558984 286.30568 
L 320.558984 279.30568 
L 300.558984 279.30568 
z
" style="fill: #8c564b"/>
    </g>
    <g id="text_53">
     <text style="font: 10px 'sans-serif'; text-anchor: start" x="328.558984" y="286.30568" transform="rotate(-0, 328.558984, 286.30568)">Opportunity to develop software</text>
    </g>
    <g id="patch_56">
     <path d="M 300.558984 300.646305 
L 320.558984 300.646305 
L 320.558984 293.646305 
L 300.558984 293.646305 
z
" style="fill: #e377c2"/>
    </g>
    <g id="text_54">
     <text style="font: 10px 'sans-serif'; text-anchor: start" x="328.558984" y="300.646305" transform="rotate(-0, 328.558984, 300.646305)">The salary</text>
    </g>
    <g id="patch_57">
     <path d="M 300.558984 314.98693 
L 320.558984 314.98693 
L 320.558984 307.98693 
L 300.558984 307.98693 
z
" style="fill: #7f7f7f"/>
    </g>
    <g id="text_55">
     <text style="font: 10px 'sans-serif'; text-anchor: start" x="328.558984" y="314.98693" transform="rotate(-0, 328.558984, 314.98693)">Ability to work across disciplines</text>
    </g>
    <g id="patch_58">
     <path d="M 300.558984 329.49943 
L 320.558984 329.49943 
L 320.558984 322.49943 
L 300.558984 322.49943 
z
" style="fill: #bcbd22"/>
    </g>
    <g id="text_56">
     <text style="font: 10px 'sans-serif'; text-anchor: start" x="328.558984" y="329.49943" transform="rotate(-0, 328.558984, 329.49943)">Opportunity for career advancement</text>
    </g>
   </g>
  </g>
 </g>
 <defs>
  <clipPath id="p642dfca9fd">
   <rect x="62.86875" y="25.43625" width="428.153906" height="212.609287"/>
  </clipPath>
 </defs>
</svg>
