<?xml version="1.0" encoding="utf-8" standalone="no"?>
<!DOCTYPE svg PUBLIC "-//W3C//DTD SVG 1.1//EN"
  "http://www.w3.org/Graphics/SVG/1.1/DTD/svg11.dtd">
<svg xmlns:xlink="http://www.w3.org/1999/xlink" width="504pt" height="360pt" viewBox="0 0 504 360" xmlns="http://www.w3.org/2000/svg" version="1.1">
 <metadata>
  <rdf:RDF xmlns:dc="http://purl.org/dc/elements/1.1/" xmlns:cc="http://creativecommons.org/ns#" xmlns:rdf="http://www.w3.org/1999/02/22-rdf-syntax-ns#">
   <cc:Work>
    <dc:type rdf:resource="http://purl.org/dc/dcmitype/StillImage"/>
    <dc:date>2022-03-18T10:06:50.948233</dc:date>
    <dc:format>image/svg+xml</dc:format>
    <dc:creator>
     <cc:Agent>
      <dc:title>Matplotlib v3.5.1, https://matplotlib.org/</dc:title>
     </cc:Agent>
    </dc:creator>
   </cc:Work>
  </rdf:RDF>
 </metadata>
 <defs>
  <style type="text/css">*{stroke-linejoin: round; stroke-linecap: butt}</style>
 </defs>
 <g id="figure_1">
  <g id="patch_1">
   <path d="M 0 360 
L 504 360 
L 504 0 
L 0 0 
z
" style="fill: #ffffff"/>
  </g>
  <g id="axes_1">
   <g id="patch_2">
    <path d="M 62.86875 227.646563 
L 481.440625 227.646563 
L 481.440625 25.43625 
L 62.86875 25.43625 
z
" style="fill: #ffffff"/>
   </g>
   <g id="patch_3">
    <path d="M 62.86875 217.536047 
L 157.545722 217.536047 
L 157.545722 197.315016 
L 62.86875 197.315016 
z
" clip-path="url(#p2a992b9a0e)" style="fill: #1f77b4"/>
   </g>
   <g id="patch_4">
    <path d="M 62.86875 177.093984 
L 137.613728 177.093984 
L 137.613728 156.872953 
L 62.86875 156.872953 
z
" clip-path="url(#p2a992b9a0e)" style="fill: #1f77b4"/>
   </g>
   <g id="patch_5">
    <path d="M 62.86875 136.651922 
L 108.28342 136.651922 
L 108.28342 116.430891 
L 62.86875 116.430891 
z
" clip-path="url(#p2a992b9a0e)" style="fill: #1f77b4"/>
   </g>
   <g id="patch_6">
    <path d="M 62.86875 96.209859 
L 101.625405 96.209859 
L 101.625405 75.988828 
L 62.86875 75.988828 
z
" clip-path="url(#p2a992b9a0e)" style="fill: #1f77b4"/>
   </g>
   <g id="patch_7">
    <path d="M 62.86875 55.767797 
L 108.119764 55.767797 
L 108.119764 35.546766 
L 62.86875 35.546766 
z
" clip-path="url(#p2a992b9a0e)" style="fill: #1f77b4"/>
   </g>
   <g id="patch_8">
    <path d="M 157.545722 217.536047 
L 242.256696 217.536047 
L 242.256696 197.315016 
L 157.545722 197.315016 
z
" clip-path="url(#p2a992b9a0e)" style="fill: #ff7f0e"/>
   </g>
   <g id="patch_9">
    <path d="M 137.613728 177.093984 
L 179.138715 177.093984 
L 179.138715 156.872953 
L 137.613728 156.872953 
z
" clip-path="url(#p2a992b9a0e)" style="fill: #ff7f0e"/>
   </g>
   <g id="patch_10">
    <path d="M 108.28342 136.651922 
L 165.472264 136.651922 
L 165.472264 116.430891 
L 108.28342 116.430891 
z
" clip-path="url(#p2a992b9a0e)" style="fill: #ff7f0e"/>
   </g>
   <g id="patch_11">
    <path d="M 101.625405 96.209859 
L 158.83761 96.209859 
L 158.83761 75.988828 
L 101.625405 75.988828 
z
" clip-path="url(#p2a992b9a0e)" style="fill: #ff7f0e"/>
   </g>
   <g id="patch_12">
    <path d="M 108.119764 55.767797 
L 146.906347 55.767797 
L 146.906347 35.546766 
L 108.119764 35.546766 
z
" clip-path="url(#p2a992b9a0e)" style="fill: #ff7f0e"/>
   </g>
   <g id="patch_13">
    <path d="M 242.256696 217.536047 
L 325.306672 217.536047 
L 325.306672 197.315016 
L 242.256696 197.315016 
z
" clip-path="url(#p2a992b9a0e)" style="fill: #2ca02c"/>
   </g>
   <g id="patch_14">
    <path d="M 179.138715 177.093984 
L 255.544692 177.093984 
L 255.544692 156.872953 
L 179.138715 156.872953 
z
" clip-path="url(#p2a992b9a0e)" style="fill: #2ca02c"/>
   </g>
   <g id="patch_15">
    <path d="M 165.472264 136.651922 
L 214.250983 136.651922 
L 214.250983 116.430891 
L 165.472264 116.430891 
z
" clip-path="url(#p2a992b9a0e)" style="fill: #2ca02c"/>
   </g>
   <g id="patch_16">
    <path d="M 158.83761 96.209859 
L 201.285375 96.209859 
L 201.285375 75.988828 
L 158.83761 75.988828 
z
" clip-path="url(#p2a992b9a0e)" style="fill: #2ca02c"/>
   </g>
   <g id="patch_17">
    <path d="M 146.906347 55.767797 
L 168.454448 55.767797 
L 168.454448 35.546766 
L 146.906347 35.546766 
z
" clip-path="url(#p2a992b9a0e)" style="fill: #2ca02c"/>
   </g>
   <g id="patch_18">
    <path d="M 325.306672 217.536047 
L 370.153658 217.536047 
L 370.153658 197.315016 
L 325.306672 197.315016 
z
" clip-path="url(#p2a992b9a0e)" style="fill: #d62728"/>
   </g>
   <g id="patch_19">
    <path d="M 255.544692 177.093984 
L 298.73068 177.093984 
L 298.73068 156.872953 
L 255.544692 156.872953 
z
" clip-path="url(#p2a992b9a0e)" style="fill: #d62728"/>
   </g>
   <g id="patch_20">
    <path d="M 214.250983 136.651922 
L 269.757802 136.651922 
L 269.757802 116.430891 
L 214.250983 116.430891 
z
" clip-path="url(#p2a992b9a0e)" style="fill: #d62728"/>
   </g>
   <g id="patch_21">
    <path d="M 201.285375 96.209859 
L 258.49758 96.209859 
L 258.49758 75.988828 
L 201.285375 75.988828 
z
" clip-path="url(#p2a992b9a0e)" style="fill: #d62728"/>
   </g>
   <g id="patch_22">
    <path d="M 168.454448 55.767797 
L 209.395841 55.767797 
L 209.395841 35.546766 
L 168.454448 35.546766 
z
" clip-path="url(#p2a992b9a0e)" style="fill: #d62728"/>
   </g>
   <g id="patch_23">
    <path d="M 370.153658 217.536047 
L 393.407651 217.536047 
L 393.407651 197.315016 
L 370.153658 197.315016 
z
" clip-path="url(#p2a992b9a0e)" style="fill: #9467bd"/>
   </g>
   <g id="patch_24">
    <path d="M 298.73068 177.093984 
L 315.340675 177.093984 
L 315.340675 156.872953 
L 298.73068 156.872953 
z
" clip-path="url(#p2a992b9a0e)" style="fill: #9467bd"/>
   </g>
   <g id="patch_25">
    <path d="M 269.757802 136.651922 
L 300.034249 136.651922 
L 300.034249 116.430891 
L 269.757802 116.430891 
z
" clip-path="url(#p2a992b9a0e)" style="fill: #9467bd"/>
   </g>
   <g id="patch_26">
    <path d="M 258.49758 96.209859 
L 288.026461 96.209859 
L 288.026461 75.988828 
L 258.49758 75.988828 
z
" clip-path="url(#p2a992b9a0e)" style="fill: #9467bd"/>
   </g>
   <g id="patch_27">
    <path d="M 209.395841 55.767797 
L 235.253563 55.767797 
L 235.253563 35.546766 
L 209.395841 35.546766 
z
" clip-path="url(#p2a992b9a0e)" style="fill: #9467bd"/>
   </g>
   <g id="patch_28">
    <path d="M 393.407651 217.536047 
L 415.000645 217.536047 
L 415.000645 197.315016 
L 393.407651 197.315016 
z
" clip-path="url(#p2a992b9a0e)" style="fill: #8c564b"/>
   </g>
   <g id="patch_29">
    <path d="M 315.340675 177.093984 
L 365.17066 177.093984 
L 365.17066 156.872953 
L 315.340675 156.872953 
z
" clip-path="url(#p2a992b9a0e)" style="fill: #8c564b"/>
   </g>
   <g id="patch_30">
    <path d="M 300.034249 136.651922 
L 338.72082 136.651922 
L 338.72082 116.430891 
L 300.034249 116.430891 
z
" clip-path="url(#p2a992b9a0e)" style="fill: #8c564b"/>
   </g>
   <g id="patch_31">
    <path d="M 288.026461 96.209859 
L 339.702001 96.209859 
L 339.702001 75.988828 
L 288.026461 75.988828 
z
" clip-path="url(#p2a992b9a0e)" style="fill: #8c564b"/>
   </g>
   <g id="patch_32">
    <path d="M 235.253563 55.767797 
L 286.969007 55.767797 
L 286.969007 35.546766 
L 235.253563 35.546766 
z
" clip-path="url(#p2a992b9a0e)" style="fill: #8c564b"/>
   </g>
   <g id="patch_33">
    <path d="M 415.000645 217.536047 
L 434.932639 217.536047 
L 434.932639 197.315016 
L 415.000645 197.315016 
z
" clip-path="url(#p2a992b9a0e)" style="fill: #e377c2"/>
   </g>
   <g id="patch_34">
    <path d="M 365.17066 177.093984 
L 416.661644 177.093984 
L 416.661644 156.872953 
L 365.17066 156.872953 
z
" clip-path="url(#p2a992b9a0e)" style="fill: #e377c2"/>
   </g>
   <g id="patch_35">
    <path d="M 338.72082 136.651922 
L 385.817514 136.651922 
L 385.817514 116.430891 
L 338.72082 116.430891 
z
" clip-path="url(#p2a992b9a0e)" style="fill: #e377c2"/>
   </g>
   <g id="patch_36">
    <path d="M 339.702001 96.209859 
L 389.531986 96.209859 
L 389.531986 75.988828 
L 339.702001 75.988828 
z
" clip-path="url(#p2a992b9a0e)" style="fill: #e377c2"/>
   </g>
   <g id="patch_37">
    <path d="M 286.969007 55.767797 
L 345.148882 55.767797 
L 345.148882 35.546766 
L 286.969007 35.546766 
z
" clip-path="url(#p2a992b9a0e)" style="fill: #e377c2"/>
   </g>
   <g id="patch_38">
    <path d="M 434.932639 217.536047 
L 453.203633 217.536047 
L 453.203633 197.315016 
L 434.932639 197.315016 
z
" clip-path="url(#p2a992b9a0e)" style="fill: #7f7f7f"/>
   </g>
   <g id="patch_39">
    <path d="M 416.661644 177.093984 
L 441.576637 177.093984 
L 441.576637 156.872953 
L 416.661644 156.872953 
z
" clip-path="url(#p2a992b9a0e)" style="fill: #7f7f7f"/>
   </g>
   <g id="patch_40">
    <path d="M 385.817514 136.651922 
L 446.370408 136.651922 
L 446.370408 116.430891 
L 385.817514 116.430891 
z
" clip-path="url(#p2a992b9a0e)" style="fill: #7f7f7f"/>
   </g>
   <g id="patch_41">
    <path d="M 389.531986 96.209859 
L 431.979751 96.209859 
L 431.979751 75.988828 
L 389.531986 75.988828 
z
" clip-path="url(#p2a992b9a0e)" style="fill: #7f7f7f"/>
   </g>
   <g id="patch_42">
    <path d="M 345.148882 55.767797 
L 427.031668 55.767797 
L 427.031668 35.546766 
L 345.148882 35.546766 
z
" clip-path="url(#p2a992b9a0e)" style="fill: #7f7f7f"/>
   </g>
   <g id="patch_43">
    <path d="M 453.203633 217.536047 
L 461.508631 217.536047 
L 461.508631 197.315016 
L 453.203633 197.315016 
z
" clip-path="url(#p2a992b9a0e)" style="fill: #bcbd22"/>
   </g>
   <g id="patch_44">
    <path d="M 441.576637 177.093984 
L 461.508631 177.093984 
L 461.508631 156.872953 
L 441.576637 156.872953 
z
" clip-path="url(#p2a992b9a0e)" style="fill: #bcbd22"/>
   </g>
   <g id="patch_45">
    <path d="M 446.370408 136.651922 
L 461.508631 136.651922 
L 461.508631 116.430891 
L 446.370408 116.430891 
z
" clip-path="url(#p2a992b9a0e)" style="fill: #bcbd22"/>
   </g>
   <g id="patch_46">
    <path d="M 431.979751 96.209859 
L 461.508631 96.209859 
L 461.508631 75.988828 
L 431.979751 75.988828 
z
" clip-path="url(#p2a992b9a0e)" style="fill: #bcbd22"/>
   </g>
   <g id="patch_47">
    <path d="M 427.031668 55.767797 
L 461.508631 55.767797 
L 461.508631 35.546766 
L 427.031668 35.546766 
z
" clip-path="url(#p2a992b9a0e)" style="fill: #bcbd22"/>
   </g>
   <g id="matplotlib.axis_1">
    <g id="xtick_1">
     <g id="line2d_1">
      <defs>
       <path id="m4c99cd72f3" d="M 0 0 
L 0 3.5 
" style="stroke: #000000; stroke-width: 0.8"/>
      </defs>
      <g>
       <use xlink:href="#m4c99cd72f3" x="62.86875" y="227.646563" style="stroke: #000000; stroke-width: 0.8"/>
      </g>
     </g>
     <g id="text_1">
      <text style="font: 10px 'sans-serif'; text-anchor: middle" x="62.86875" y="241.82" transform="rotate(-0, 62.86875, 241.82)">0</text>
     </g>
    </g>
    <g id="xtick_2">
     <g id="line2d_2">
      <g>
       <use xlink:href="#m4c99cd72f3" x="142.596726" y="227.646563" style="stroke: #000000; stroke-width: 0.8"/>
      </g>
     </g>
     <g id="text_2">
      <text style="font: 10px 'sans-serif'; text-anchor: middle" x="142.596726" y="241.82" transform="rotate(-0, 142.596726, 241.82)">20</text>
     </g>
    </g>
    <g id="xtick_3">
     <g id="line2d_3">
      <g>
       <use xlink:href="#m4c99cd72f3" x="222.324702" y="227.646563" style="stroke: #000000; stroke-width: 0.8"/>
      </g>
     </g>
     <g id="text_3">
      <text style="font: 10px 'sans-serif'; text-anchor: middle" x="222.324702" y="241.82" transform="rotate(-0, 222.324702, 241.82)">40</text>
     </g>
    </g>
    <g id="xtick_4">
     <g id="line2d_4">
      <g>
       <use xlink:href="#m4c99cd72f3" x="302.052679" y="227.646563" style="stroke: #000000; stroke-width: 0.8"/>
      </g>
     </g>
     <g id="text_4">
      <text style="font: 10px 'sans-serif'; text-anchor: middle" x="302.052679" y="241.82" transform="rotate(-0, 302.052679, 241.82)">60</text>
     </g>
    </g>
    <g id="xtick_5">
     <g id="line2d_5">
      <g>
       <use xlink:href="#m4c99cd72f3" x="381.780655" y="227.646563" style="stroke: #000000; stroke-width: 0.8"/>
      </g>
     </g>
     <g id="text_5">
      <text style="font: 10px 'sans-serif'; text-anchor: middle" x="381.780655" y="241.82" transform="rotate(-0, 381.780655, 241.82)">80</text>
     </g>
    </g>
    <g id="xtick_6">
     <g id="line2d_6">
      <g>
       <use xlink:href="#m4c99cd72f3" x="461.508631" y="227.646563" style="stroke: #000000; stroke-width: 0.8"/>
      </g>
     </g>
     <g id="text_6">
      <text style="font: 10px 'sans-serif'; text-anchor: middle" x="461.508631" y="241.82" transform="rotate(-0, 461.508631, 241.82)">100</text>
     </g>
    </g>
    <g id="text_7">
     <text style="font: 10px 'sans-serif'; text-anchor: middle" x="272.154688" y="255.179375" transform="rotate(-0, 272.154688, 255.179375)">Ranking of importance</text>
    </g>
   </g>
   <g id="matplotlib.axis_2">
    <g id="ytick_1">
     <g id="line2d_7">
      <defs>
       <path id="m8e343aef83" d="M 0 0 
L -3.5 0 
" style="stroke: #000000; stroke-width: 0.8"/>
      </defs>
      <g>
       <use xlink:href="#m8e343aef83" x="62.86875" y="207.425531" style="stroke: #000000; stroke-width: 0.8"/>
      </g>
     </g>
     <g id="text_8">
      <text style="font: 10px 'sans-serif'; text-anchor: end" x="55.86875" y="211.01225" transform="rotate(-0, 55.86875, 211.01225)">Rank 1</text>
     </g>
    </g>
    <g id="ytick_2">
     <g id="line2d_8">
      <g>
       <use xlink:href="#m8e343aef83" x="62.86875" y="166.983469" style="stroke: #000000; stroke-width: 0.8"/>
      </g>
     </g>
     <g id="text_9">
      <text style="font: 10px 'sans-serif'; text-anchor: end" x="55.86875" y="170.570188" transform="rotate(-0, 55.86875, 170.570188)">Rank 2</text>
     </g>
    </g>
    <g id="ytick_3">
     <g id="line2d_9">
      <g>
       <use xlink:href="#m8e343aef83" x="62.86875" y="126.541406" style="stroke: #000000; stroke-width: 0.8"/>
      </g>
     </g>
     <g id="text_10">
      <text style="font: 10px 'sans-serif'; text-anchor: end" x="55.86875" y="130.128125" transform="rotate(-0, 55.86875, 130.128125)">Rank 3</text>
     </g>
    </g>
    <g id="ytick_4">
     <g id="line2d_10">
      <g>
       <use xlink:href="#m8e343aef83" x="62.86875" y="86.099344" style="stroke: #000000; stroke-width: 0.8"/>
      </g>
     </g>
     <g id="text_11">
      <text style="font: 10px 'sans-serif'; text-anchor: end" x="55.86875" y="89.686062" transform="rotate(-0, 55.86875, 89.686062)">Rank 4</text>
     </g>
    </g>
    <g id="ytick_5">
     <g id="line2d_11">
      <g>
       <use xlink:href="#m8e343aef83" x="62.86875" y="45.657281" style="stroke: #000000; stroke-width: 0.8"/>
      </g>
     </g>
     <g id="text_12">
      <text style="font: 10px 'sans-serif'; text-anchor: end" x="55.86875" y="49.244" transform="rotate(-0, 55.86875, 49.244)">Rank 5</text>
     </g>
    </g>
    <g id="text_13">
     <text style="font: 10px 'sans-serif'; text-anchor: middle" x="17.973438" y="126.541406" transform="rotate(-90, 17.973438, 126.541406)">Percentage</text>
    </g>
   </g>
   <g id="patch_48">
    <path d="M 62.86875 227.646563 
L 481.440625 227.646563 
" style="fill: none; stroke: #000000; stroke-width: 0.8; stroke-linejoin: miter; stroke-linecap: square"/>
   </g>
   <g id="text_14">
    <text style="font: 10px 'sans-serif'; text-anchor: middle" x="110.207236" y="211.469738" transform="rotate(-0, 110.207236, 211.469738)">24</text>
   </g>
   <g id="text_15">
    <text style="font: 10px 'sans-serif'; text-anchor: middle" x="100.241239" y="171.027675" transform="rotate(-0, 100.241239, 171.027675)">19</text>
   </g>
   <g id="text_16">
    <text style="font: 10px 'sans-serif'; text-anchor: middle" x="85.576085" y="130.585613" transform="rotate(-0, 85.576085, 130.585613)">11</text>
   </g>
   <g id="text_17">
    <text style="font: 10px 'sans-serif'; text-anchor: middle" x="82.247078" y="90.14355" transform="rotate(-0, 82.247078, 90.14355)">10</text>
   </g>
   <g id="text_18">
    <text style="font: 10px 'sans-serif'; text-anchor: middle" x="85.494257" y="49.701488" transform="rotate(-0, 85.494257, 49.701488)">11</text>
   </g>
   <g id="text_19">
    <text style="font: 10px 'sans-serif'; text-anchor: middle" x="199.901209" y="211.469738" transform="rotate(-0, 199.901209, 211.469738)">21</text>
   </g>
   <g id="text_20">
    <text style="font: 10px 'sans-serif'; text-anchor: middle" x="158.376221" y="171.027675" transform="rotate(-0, 158.376221, 171.027675)">10</text>
   </g>
   <g id="text_21">
    <text style="font: 10px 'sans-serif'; text-anchor: middle" x="136.877842" y="130.585613" transform="rotate(-0, 136.877842, 130.585613)">14</text>
   </g>
   <g id="text_22">
    <text style="font: 10px 'sans-serif'; text-anchor: middle" x="130.231508" y="90.14355" transform="rotate(-0, 130.231508, 90.14355)">14</text>
   </g>
   <g id="text_23">
    <text style="font: 10px 'sans-serif'; text-anchor: middle" x="127.513055" y="49.701488" transform="rotate(-0, 127.513055, 49.701488)">10</text>
   </g>
   <g id="text_24">
    <text style="font: 10px 'sans-serif'; text-anchor: middle" x="283.781684" y="211.469738" transform="rotate(-0, 283.781684, 211.469738)">21</text>
   </g>
   <g id="text_25">
    <text style="font: 10px 'sans-serif'; text-anchor: middle" x="217.341704" y="171.027675" transform="rotate(-0, 217.341704, 171.027675)">19</text>
   </g>
   <g id="text_26">
    <text style="font: 10px 'sans-serif'; text-anchor: middle" x="189.861623" y="130.585613" transform="rotate(-0, 189.861623, 130.585613)">12</text>
   </g>
   <g id="text_27">
    <text style="font: 10px 'sans-serif'; text-anchor: middle" x="180.061493" y="90.14355" transform="rotate(-0, 180.061493, 90.14355)">11</text>
   </g>
   <g id="text_28">
    <text style="font: 10px 'sans-serif'; text-anchor: middle" x="157.680397" y="49.701488" transform="rotate(-0, 157.680397, 49.701488)">5</text>
   </g>
   <g id="text_29">
    <text style="font: 10px 'sans-serif'; text-anchor: middle" x="347.730165" y="211.469738" transform="rotate(-0, 347.730165, 211.469738)">11</text>
   </g>
   <g id="text_30">
    <text style="font: 10px 'sans-serif'; text-anchor: middle" x="277.137686" y="171.027675" transform="rotate(-0, 277.137686, 171.027675)">11</text>
   </g>
   <g id="text_31">
    <text style="font: 10px 'sans-serif'; text-anchor: middle" x="242.004393" y="130.585613" transform="rotate(-0, 242.004393, 130.585613)">14</text>
   </g>
   <g id="text_32">
    <text style="font: 10px 'sans-serif'; text-anchor: middle" x="229.891478" y="90.14355" transform="rotate(-0, 229.891478, 90.14355)">14</text>
   </g>
   <g id="text_33">
    <text style="font: 10px 'sans-serif'; text-anchor: middle" x="188.925145" y="49.701488" transform="rotate(-0, 188.925145, 49.701488)">10</text>
   </g>
   <g id="text_34">
    <text style="font: 10px 'sans-serif'; text-anchor: middle" x="381.780655" y="211.469738" transform="rotate(-0, 381.780655, 211.469738)">6</text>
   </g>
   <g id="text_35">
    <text style="font: 10px 'sans-serif'; text-anchor: middle" x="284.896025" y="130.585613" transform="rotate(-0, 284.896025, 130.585613)">8</text>
   </g>
   <g id="text_36">
    <text style="font: 10px 'sans-serif'; text-anchor: middle" x="273.262021" y="90.14355" transform="rotate(-0, 273.262021, 90.14355)">7</text>
   </g>
   <g id="text_37">
    <text style="font: 10px 'sans-serif'; text-anchor: middle" x="222.324702" y="49.701488" transform="rotate(-0, 222.324702, 49.701488)">6</text>
   </g>
   <g id="text_38">
    <text style="font: 10px 'sans-serif'; text-anchor: middle" x="404.204148" y="211.469738" transform="rotate(-0, 404.204148, 211.469738)">5</text>
   </g>
   <g id="text_39">
    <text style="font: 10px 'sans-serif'; text-anchor: middle" x="340.255667" y="171.027675" transform="rotate(-0, 340.255667, 171.027675)">12</text>
   </g>
   <g id="text_40">
    <text style="font: 10px 'sans-serif'; text-anchor: middle" x="319.377534" y="130.585613" transform="rotate(-0, 319.377534, 130.585613)">10</text>
   </g>
   <g id="text_41">
    <text style="font: 10px 'sans-serif'; text-anchor: middle" x="313.864231" y="90.14355" transform="rotate(-0, 313.864231, 90.14355)">13</text>
   </g>
   <g id="text_42">
    <text style="font: 10px 'sans-serif'; text-anchor: middle" x="261.111285" y="49.701488" transform="rotate(-0, 261.111285, 49.701488)">13</text>
   </g>
   <g id="text_43">
    <text style="font: 10px 'sans-serif'; text-anchor: middle" x="424.966642" y="211.469738" transform="rotate(-0, 424.966642, 211.469738)">5</text>
   </g>
   <g id="text_44">
    <text style="font: 10px 'sans-serif'; text-anchor: middle" x="390.916152" y="171.027675" transform="rotate(-0, 390.916152, 171.027675)">13</text>
   </g>
   <g id="text_45">
    <text style="font: 10px 'sans-serif'; text-anchor: middle" x="362.269167" y="130.585613" transform="rotate(-0, 362.269167, 130.585613)">12</text>
   </g>
   <g id="text_46">
    <text style="font: 10px 'sans-serif'; text-anchor: middle" x="364.616993" y="90.14355" transform="rotate(-0, 364.616993, 90.14355)">12</text>
   </g>
   <g id="text_47">
    <text style="font: 10px 'sans-serif'; text-anchor: middle" x="316.058945" y="49.701488" transform="rotate(-0, 316.058945, 49.701488)">15</text>
   </g>
   <g id="text_48">
    <text style="font: 10px 'sans-serif'; text-anchor: middle" x="444.068136" y="211.469738" transform="rotate(-0, 444.068136, 211.469738)">5</text>
   </g>
   <g id="text_49">
    <text style="font: 10px 'sans-serif'; text-anchor: middle" x="429.119141" y="171.027675" transform="rotate(-0, 429.119141, 171.027675)">6</text>
   </g>
   <g id="text_50">
    <text style="font: 10px 'sans-serif'; text-anchor: middle" x="416.093961" y="130.585613" transform="rotate(-0, 416.093961, 130.585613)">15</text>
   </g>
   <g id="text_51">
    <text style="font: 10px 'sans-serif'; text-anchor: middle" x="410.755868" y="90.14355" transform="rotate(-0, 410.755868, 90.14355)">11</text>
   </g>
   <g id="text_52">
    <text style="font: 10px 'sans-serif'; text-anchor: middle" x="386.090275" y="49.701488" transform="rotate(-0, 386.090275, 49.701488)">21</text>
   </g>
   <g id="text_53">
    <text style="font: 10px 'sans-serif'; text-anchor: middle" x="451.542634" y="171.027675" transform="rotate(-0, 451.542634, 171.027675)">5</text>
   </g>
   <g id="text_54">
    <text style="font: 10px 'sans-serif'; text-anchor: middle" x="446.744191" y="90.14355" transform="rotate(-0, 446.744191, 90.14355)">7</text>
   </g>
   <g id="text_55">
    <text style="font: 10px 'sans-serif'; text-anchor: middle" x="444.27015" y="49.701488" transform="rotate(-0, 444.27015, 49.701488)">9</text>
   </g>
   <g id="text_56">
    <text style="font: 12px 'sans-serif'; text-anchor: middle" x="272.154688" y="19.43625" transform="rotate(-0, 272.154688, 19.43625)">Reasons to choose current job: World</text>
   </g>
   <g id="legend_1">
    <g id="patch_49">
     <path d="M 67.095313 337.951547 
L 477.214063 337.951547 
Q 479.214063 337.951547 479.214063 335.951547 
L 479.214063 264.978109 
Q 479.214063 262.978109 477.214063 262.978109 
L 67.095313 262.978109 
Q 65.095313 262.978109 65.095313 264.978109 
L 65.095313 335.951547 
Q 65.095313 337.951547 67.095313 337.951547 
z
" style="fill: #ffffff; opacity: 0.8; stroke: #cccccc; stroke-linejoin: miter"/>
    </g>
    <g id="patch_50">
     <path d="M 69.095313 274.174984 
L 89.095313 274.174984 
L 89.095313 267.174984 
L 69.095313 267.174984 
z
" style="fill: #1f77b4"/>
    </g>
    <g id="text_57">
     <text style="font: 10px 'sans-serif'; text-anchor: start" x="97.095313" y="274.174984" transform="rotate(-0, 97.095313, 274.174984)">Desire to work in a research environment</text>
    </g>
    <g id="patch_51">
     <path d="M 69.095313 288.456234 
L 89.095313 288.456234 
L 89.095313 281.456234 
L 69.095313 281.456234 
z
" style="fill: #ff7f0e"/>
    </g>
    <g id="text_58">
     <text style="font: 10px 'sans-serif'; text-anchor: start" x="97.095313" y="288.456234" transform="rotate(-0, 97.095313, 288.456234)">Freedom to choose own working practices</text>
    </g>
    <g id="patch_52">
     <path d="M 69.095313 302.842172 
L 89.095313 302.842172 
L 89.095313 295.842172 
L 69.095313 295.842172 
z
" style="fill: #2ca02c"/>
    </g>
    <g id="text_59">
     <text style="font: 10px 'sans-serif'; text-anchor: start" x="97.095313" y="302.842172" transform="rotate(-0, 97.095313, 302.842172)">Desire to advance research</text>
    </g>
    <g id="patch_53">
     <path d="M 69.095313 317.295297 
L 89.095313 317.295297 
L 89.095313 310.295297 
L 69.095313 310.295297 
z
" style="fill: #d62728"/>
    </g>
    <g id="text_60">
     <text style="font: 10px 'sans-serif'; text-anchor: start" x="97.095313" y="317.295297" transform="rotate(-0, 97.095313, 317.295297)">Opportunity to develop software</text>
    </g>
    <g id="patch_54">
     <path d="M 69.095313 331.807797 
L 89.095313 331.807797 
L 89.095313 324.807797 
L 69.095313 324.807797 
z
" style="fill: #9467bd"/>
    </g>
    <g id="text_61">
     <text style="font: 10px 'sans-serif'; text-anchor: start" x="97.095313" y="331.807797" transform="rotate(-0, 97.095313, 331.807797)">Opportunity for career advancement</text>
    </g>
    <g id="patch_55">
     <path d="M 304.392188 274.174984 
L 324.392188 274.174984 
L 324.392188 267.174984 
L 304.392188 267.174984 
z
" style="fill: #8c564b"/>
    </g>
    <g id="text_62">
     <text style="font: 10px 'sans-serif'; text-anchor: start" x="332.392188" y="274.174984" transform="rotate(-0, 332.392188, 274.174984)">Ability to work across disciplines</text>
    </g>
    <g id="patch_56">
     <path d="M 304.392188 288.492172 
L 324.392188 288.492172 
L 324.392188 281.492172 
L 304.392188 281.492172 
z
" style="fill: #e377c2"/>
    </g>
    <g id="text_63">
     <text style="font: 10px 'sans-serif'; text-anchor: start" x="332.392188" y="288.492172" transform="rotate(-0, 332.392188, 288.492172)">I want to learn new skills</text>
    </g>
    <g id="patch_57">
     <path d="M 304.392188 302.773422 
L 324.392188 302.773422 
L 324.392188 295.773422 
L 304.392188 295.773422 
z
" style="fill: #7f7f7f"/>
    </g>
    <g id="text_64">
     <text style="font: 10px 'sans-serif'; text-anchor: start" x="332.392188" y="302.773422" transform="rotate(-0, 332.392188, 302.773422)">Flexible working hours</text>
    </g>
    <g id="patch_58">
     <path d="M 304.392188 317.182797 
L 324.392188 317.182797 
L 324.392188 310.182797 
L 304.392188 310.182797 
z
" style="fill: #bcbd22"/>
    </g>
    <g id="text_65">
     <text style="font: 10px 'sans-serif'; text-anchor: start" x="332.392188" y="317.182797" transform="rotate(-0, 332.392188, 317.182797)">The salary</text>
    </g>
   </g>
  </g>
 </g>
 <defs>
  <clipPath id="p2a992b9a0e">
   <rect x="62.86875" y="25.43625" width="418.571875" height="202.210312"/>
  </clipPath>
 </defs>
</svg>
