<?xml version="1.0" encoding="utf-8" standalone="no"?>
<!DOCTYPE svg PUBLIC "-//W3C//DTD SVG 1.1//EN"
  "http://www.w3.org/Graphics/SVG/1.1/DTD/svg11.dtd">
<svg height="360pt" version="1.1" viewBox="0 0 504 360" width="504pt" xmlns="http://www.w3.org/2000/svg" xmlns:xlink="http://www.w3.org/1999/xlink">
 <metadata>
  <rdf:RDF xmlns:cc="http://creativecommons.org/ns#" xmlns:dc="http://purl.org/dc/elements/1.1/" xmlns:rdf="http://www.w3.org/1999/02/22-rdf-syntax-ns#">
   <cc:Work>
    <dc:type rdf:resource="http://purl.org/dc/dcmitype/StillImage"/>
    <dc:date>2021-08-04T21:05:24.331073</dc:date>
    <dc:format>image/svg+xml</dc:format>
    <dc:creator>
     <cc:Agent>
      <dc:title>Matplotlib v3.4.2, https://matplotlib.org/</dc:title>
     </cc:Agent>
    </dc:creator>
   </cc:Work>
  </rdf:RDF>
 </metadata>
 <defs>
  <style type="text/css">*{stroke-linecap:butt;stroke-linejoin:round;}</style>
 </defs>
 <g id="figure_1">
  <g id="patch_1">
   <path d="M 0 360 
L 504 360 
L 504 0 
L 0 0 
z
" style="fill:#ffffff;"/>
  </g>
  <g id="axes_1">
   <g id="patch_2">
    <path d="M 62.745313 238.395213 
L 493.2 238.395213 
L 493.2 25.389375 
L 62.745313 25.389375 
z
" style="fill:#ffffff;"/>
   </g>
   <g id="patch_3">
    <path clip-path="url(#pcc23016396)" d="M 62.745313 227.744921 
L 167.491995 227.744921 
L 167.491995 206.444337 
L 62.745313 206.444337 
z
" style="fill:#1f77b4;"/>
   </g>
   <g id="patch_4">
    <path clip-path="url(#pcc23016396)" d="M 62.745313 185.143753 
L 133.490078 185.143753 
L 133.490078 163.843169 
L 62.745313 163.843169 
z
" style="fill:#1f77b4;"/>
   </g>
   <g id="patch_5">
    <path clip-path="url(#pcc23016396)" d="M 62.745313 142.542586 
L 124.420236 142.542586 
L 124.420236 121.242002 
L 62.745313 121.242002 
z
" style="fill:#1f77b4;"/>
   </g>
   <g id="patch_6">
    <path clip-path="url(#pcc23016396)" d="M 62.745313 99.941418 
L 104.466584 99.941418 
L 104.466584 78.640834 
L 62.745313 78.640834 
z
" style="fill:#1f77b4;"/>
   </g>
   <g id="patch_7">
    <path clip-path="url(#pcc23016396)" d="M 62.745313 57.340251 
L 104.466584 57.340251 
L 104.466584 36.039667 
L 62.745313 36.039667 
z
" style="fill:#1f77b4;"/>
   </g>
   <g id="patch_8">
    <path clip-path="url(#pcc23016396)" d="M 167.491995 227.744921 
L 259.596837 227.744921 
L 259.596837 206.444337 
L 167.491995 206.444337 
z
" style="fill:#ff7f0e;"/>
   </g>
   <g id="patch_9">
    <path clip-path="url(#pcc23016396)" d="M 133.490078 185.143753 
L 209.676748 185.143753 
L 209.676748 163.843169 
L 133.490078 163.843169 
z
" style="fill:#ff7f0e;"/>
   </g>
   <g id="patch_10">
    <path clip-path="url(#pcc23016396)" d="M 124.420236 142.542586 
L 166.141508 142.542586 
L 166.141508 121.242002 
L 124.420236 121.242002 
z
" style="fill:#ff7f0e;"/>
   </g>
   <g id="patch_11">
    <path clip-path="url(#pcc23016396)" d="M 104.466584 99.941418 
L 151.629761 99.941418 
L 151.629761 78.640834 
L 104.466584 78.640834 
z
" style="fill:#ff7f0e;"/>
   </g>
   <g id="patch_12">
    <path clip-path="url(#pcc23016396)" d="M 104.466584 57.340251 
L 128.048173 57.340251 
L 128.048173 36.039667 
L 104.466584 36.039667 
z
" style="fill:#ff7f0e;"/>
   </g>
   <g id="patch_13">
    <path clip-path="url(#pcc23016396)" d="M 259.596837 227.744921 
L 326.417997 227.744921 
L 326.417997 206.444337 
L 259.596837 206.444337 
z
" style="fill:#2ca02c;"/>
   </g>
   <g id="patch_14">
    <path clip-path="url(#pcc23016396)" d="M 209.676748 185.143753 
L 280.421514 185.143753 
L 280.421514 163.843169 
L 209.676748 163.843169 
z
" style="fill:#2ca02c;"/>
   </g>
   <g id="patch_15">
    <path clip-path="url(#pcc23016396)" d="M 166.141508 142.542586 
L 229.6304 142.542586 
L 229.6304 121.242002 
L 166.141508 121.242002 
z
" style="fill:#2ca02c;"/>
   </g>
   <g id="patch_16">
    <path clip-path="url(#pcc23016396)" d="M 151.629761 99.941418 
L 191.537065 99.941418 
L 191.537065 78.640834 
L 151.629761 78.640834 
z
" style="fill:#2ca02c;"/>
   </g>
   <g id="patch_17">
    <path clip-path="url(#pcc23016396)" d="M 128.048173 57.340251 
L 160.699603 57.340251 
L 160.699603 36.039667 
L 128.048173 36.039667 
z
" style="fill:#2ca02c;"/>
   </g>
   <g id="patch_18">
    <path clip-path="url(#pcc23016396)" d="M 326.417997 227.744921 
L 362.537543 227.744921 
L 362.537543 206.444337 
L 326.417997 206.444337 
z
" style="fill:#d62728;"/>
   </g>
   <g id="patch_19">
    <path clip-path="url(#pcc23016396)" d="M 280.421514 185.143753 
L 313.072944 185.143753 
L 313.072944 163.843169 
L 280.421514 163.843169 
z
" style="fill:#d62728;"/>
   </g>
   <g id="patch_20">
    <path clip-path="url(#pcc23016396)" d="M 229.6304 142.542586 
L 276.793577 142.542586 
L 276.793577 121.242002 
L 229.6304 121.242002 
z
" style="fill:#d62728;"/>
   </g>
   <g id="patch_21">
    <path clip-path="url(#pcc23016396)" d="M 191.537065 99.941418 
L 244.142147 99.941418 
L 244.142147 78.640834 
L 191.537065 78.640834 
z
" style="fill:#d62728;"/>
   </g>
   <g id="patch_22">
    <path clip-path="url(#pcc23016396)" d="M 160.699603 57.340251 
L 226.002463 57.340251 
L 226.002463 36.039667 
L 160.699603 36.039667 
z
" style="fill:#d62728;"/>
   </g>
   <g id="patch_23">
    <path clip-path="url(#pcc23016396)" d="M 362.537543 227.744921 
L 398.657089 227.744921 
L 398.657089 206.444337 
L 362.537543 206.444337 
z
" style="fill:#9467bd;"/>
   </g>
   <g id="patch_24">
    <path clip-path="url(#pcc23016396)" d="M 313.072944 185.143753 
L 352.980247 185.143753 
L 352.980247 163.843169 
L 313.072944 163.843169 
z
" style="fill:#9467bd;"/>
   </g>
   <g id="patch_25">
    <path clip-path="url(#pcc23016396)" d="M 276.793577 142.542586 
L 313.072944 142.542586 
L 313.072944 121.242002 
L 276.793577 121.242002 
z
" style="fill:#9467bd;"/>
   </g>
   <g id="patch_26">
    <path clip-path="url(#pcc23016396)" d="M 244.142147 99.941418 
L 273.16564 99.941418 
L 273.16564 78.640834 
L 244.142147 78.640834 
z
" style="fill:#9467bd;"/>
   </g>
   <g id="patch_27">
    <path clip-path="url(#pcc23016396)" d="M 226.002463 57.340251 
L 264.095798 57.340251 
L 264.095798 36.039667 
L 226.002463 36.039667 
z
" style="fill:#9467bd;"/>
   </g>
   <g id="patch_28">
    <path clip-path="url(#pcc23016396)" d="M 398.657089 227.744921 
L 429.358703 227.744921 
L 429.358703 206.444337 
L 398.657089 206.444337 
z
" style="fill:#8c564b;"/>
   </g>
   <g id="patch_29">
    <path clip-path="url(#pcc23016396)" d="M 352.980247 185.143753 
L 396.515487 185.143753 
L 396.515487 163.843169 
L 352.980247 163.843169 
z
" style="fill:#8c564b;"/>
   </g>
   <g id="patch_30">
    <path clip-path="url(#pcc23016396)" d="M 313.072944 142.542586 
L 356.608184 142.542586 
L 356.608184 121.242002 
L 313.072944 121.242002 
z
" style="fill:#8c564b;"/>
   </g>
   <g id="patch_31">
    <path clip-path="url(#pcc23016396)" d="M 273.16564 99.941418 
L 331.212627 99.941418 
L 331.212627 78.640834 
L 273.16564 78.640834 
z
" style="fill:#8c564b;"/>
   </g>
   <g id="patch_32">
    <path clip-path="url(#pcc23016396)" d="M 264.095798 57.340251 
L 331.212627 57.340251 
L 331.212627 36.039667 
L 264.095798 36.039667 
z
" style="fill:#8c564b;"/>
   </g>
   <g id="patch_33">
    <path clip-path="url(#pcc23016396)" d="M 429.358703 227.744921 
L 451.03043 227.744921 
L 451.03043 206.444337 
L 429.358703 206.444337 
z
" style="fill:#e377c2;"/>
   </g>
   <g id="patch_34">
    <path clip-path="url(#pcc23016396)" d="M 396.515487 185.143753 
L 427.352949 185.143753 
L 427.352949 163.843169 
L 396.515487 163.843169 
z
" style="fill:#e377c2;"/>
   </g>
   <g id="patch_35">
    <path clip-path="url(#pcc23016396)" d="M 356.608184 142.542586 
L 396.515487 142.542586 
L 396.515487 121.242002 
L 356.608184 121.242002 
z
" style="fill:#e377c2;"/>
   </g>
   <g id="patch_36">
    <path clip-path="url(#pcc23016396)" d="M 331.212627 99.941418 
L 378.375804 99.941418 
L 378.375804 78.640834 
L 331.212627 78.640834 
z
" style="fill:#e377c2;"/>
   </g>
   <g id="patch_37">
    <path clip-path="url(#pcc23016396)" d="M 331.212627 57.340251 
L 394.701519 57.340251 
L 394.701519 36.039667 
L 331.212627 36.039667 
z
" style="fill:#e377c2;"/>
   </g>
   <g id="patch_38">
    <path clip-path="url(#pcc23016396)" d="M 451.03043 227.744921 
L 461.866294 227.744921 
L 461.866294 206.444337 
L 451.03043 206.444337 
z
" style="fill:#7f7f7f;"/>
   </g>
   <g id="patch_39">
    <path clip-path="url(#pcc23016396)" d="M 427.352949 185.143753 
L 458.190411 185.143753 
L 458.190411 163.843169 
L 427.352949 163.843169 
z
" style="fill:#7f7f7f;"/>
   </g>
   <g id="patch_40">
    <path clip-path="url(#pcc23016396)" d="M 396.515487 142.542586 
L 440.050728 142.542586 
L 440.050728 121.242002 
L 396.515487 121.242002 
z
" style="fill:#7f7f7f;"/>
   </g>
   <g id="patch_41">
    <path clip-path="url(#pcc23016396)" d="M 378.375804 99.941418 
L 443.678664 99.941418 
L 443.678664 78.640834 
L 378.375804 78.640834 
z
" style="fill:#7f7f7f;"/>
   </g>
   <g id="patch_42">
    <path clip-path="url(#pcc23016396)" d="M 394.701519 57.340251 
L 438.236759 57.340251 
L 438.236759 36.039667 
L 394.701519 36.039667 
z
" style="fill:#7f7f7f;"/>
   </g>
   <g id="patch_43">
    <path clip-path="url(#pcc23016396)" d="M 461.866294 227.744921 
L 472.702158 227.744921 
L 472.702158 206.444337 
L 461.866294 206.444337 
z
" style="fill:#bcbd22;"/>
   </g>
   <g id="patch_44">
    <path clip-path="url(#pcc23016396)" d="M 458.190411 185.143753 
L 472.702158 185.143753 
L 472.702158 163.843169 
L 458.190411 163.843169 
z
" style="fill:#bcbd22;"/>
   </g>
   <g id="patch_45">
    <path clip-path="url(#pcc23016396)" d="M 440.050728 142.542586 
L 472.702158 142.542586 
L 472.702158 121.242002 
L 440.050728 121.242002 
z
" style="fill:#bcbd22;"/>
   </g>
   <g id="patch_46">
    <path clip-path="url(#pcc23016396)" d="M 443.678664 99.941418 
L 472.702158 99.941418 
L 472.702158 78.640834 
L 443.678664 78.640834 
z
" style="fill:#bcbd22;"/>
   </g>
   <g id="patch_47">
    <path clip-path="url(#pcc23016396)" d="M 438.236759 57.340251 
L 472.702158 57.340251 
L 472.702158 36.039667 
L 438.236759 36.039667 
z
" style="fill:#bcbd22;"/>
   </g>
   <g id="matplotlib.axis_1">
    <g id="xtick_1">
     <g id="line2d_1">
      <defs>
       <path d="M 0 0 
L 0 3.5 
" id="mc3a356a46d" style="stroke:#000000;stroke-width:0.8;"/>
      </defs>
      <g>
       <use style="stroke:#000000;stroke-width:0.8;" x="62.745313" xlink:href="#mc3a356a46d" y="238.395213"/>
      </g>
     </g>
     <g id="text_1">
      <text style="font-family:Arial;font-size:10px;font-stretch:normal;font-style:normal;font-weight:normal;text-anchor:middle;" transform="rotate(-0, 62.745313, 252.553025)" x="62.745313" y="252.553025">0</text>
     </g>
    </g>
    <g id="xtick_2">
     <g id="line2d_2">
      <g>
       <use style="stroke:#000000;stroke-width:0.8;" x="144.736682" xlink:href="#mc3a356a46d" y="238.395213"/>
      </g>
     </g>
     <g id="text_2">
      <text style="font-family:Arial;font-size:10px;font-stretch:normal;font-style:normal;font-weight:normal;text-anchor:middle;" transform="rotate(-0, 144.736682, 252.553025)" x="144.736682" y="252.553025">20</text>
     </g>
    </g>
    <g id="xtick_3">
     <g id="line2d_3">
      <g>
       <use style="stroke:#000000;stroke-width:0.8;" x="226.728051" xlink:href="#mc3a356a46d" y="238.395213"/>
      </g>
     </g>
     <g id="text_3">
      <text style="font-family:Arial;font-size:10px;font-stretch:normal;font-style:normal;font-weight:normal;text-anchor:middle;" transform="rotate(-0, 226.728051, 252.553025)" x="226.728051" y="252.553025">40</text>
     </g>
    </g>
    <g id="xtick_4">
     <g id="line2d_4">
      <g>
       <use style="stroke:#000000;stroke-width:0.8;" x="308.71942" xlink:href="#mc3a356a46d" y="238.395213"/>
      </g>
     </g>
     <g id="text_4">
      <text style="font-family:Arial;font-size:10px;font-stretch:normal;font-style:normal;font-weight:normal;text-anchor:middle;" transform="rotate(-0, 308.71942, 252.553025)" x="308.71942" y="252.553025">60</text>
     </g>
    </g>
    <g id="xtick_5">
     <g id="line2d_5">
      <g>
       <use style="stroke:#000000;stroke-width:0.8;" x="390.710789" xlink:href="#mc3a356a46d" y="238.395213"/>
      </g>
     </g>
     <g id="text_5">
      <text style="font-family:Arial;font-size:10px;font-stretch:normal;font-style:normal;font-weight:normal;text-anchor:middle;" transform="rotate(-0, 390.710789, 252.553025)" x="390.710789" y="252.553025">80</text>
     </g>
    </g>
    <g id="xtick_6">
     <g id="line2d_6">
      <g>
       <use style="stroke:#000000;stroke-width:0.8;" x="472.702158" xlink:href="#mc3a356a46d" y="238.395213"/>
      </g>
     </g>
     <g id="text_6">
      <text style="font-family:Arial;font-size:10px;font-stretch:normal;font-style:normal;font-weight:normal;text-anchor:middle;" transform="rotate(-0, 472.702158, 252.553025)" x="472.702158" y="252.553025">100</text>
     </g>
    </g>
    <g id="text_7">
     <text style="font-family:Arial;font-size:10px;font-stretch:normal;font-style:normal;font-weight:normal;text-anchor:middle;" transform="rotate(-0, 277.972656, 265.820213)" x="277.972656" y="265.820213">Ranking of importance</text>
    </g>
   </g>
   <g id="matplotlib.axis_2">
    <g id="ytick_1">
     <g id="line2d_7">
      <defs>
       <path d="M 0 0 
L -3.5 0 
" id="m82278324de" style="stroke:#000000;stroke-width:0.8;"/>
      </defs>
      <g>
       <use style="stroke:#000000;stroke-width:0.8;" x="62.745313" xlink:href="#m82278324de" y="217.094629"/>
      </g>
     </g>
     <g id="text_8">
      <text style="font-family:Arial;font-size:10px;font-stretch:normal;font-style:normal;font-weight:normal;text-anchor:end;" transform="rotate(-0, 55.745313, 220.673535)" x="55.745313" y="220.673535">Rank 1</text>
     </g>
    </g>
    <g id="ytick_2">
     <g id="line2d_8">
      <g>
       <use style="stroke:#000000;stroke-width:0.8;" x="62.745313" xlink:href="#m82278324de" y="174.493461"/>
      </g>
     </g>
     <g id="text_9">
      <text style="font-family:Arial;font-size:10px;font-stretch:normal;font-style:normal;font-weight:normal;text-anchor:end;" transform="rotate(-0, 55.745313, 178.072368)" x="55.745313" y="178.072368">Rank 2</text>
     </g>
    </g>
    <g id="ytick_3">
     <g id="line2d_9">
      <g>
       <use style="stroke:#000000;stroke-width:0.8;" x="62.745313" xlink:href="#m82278324de" y="131.892294"/>
      </g>
     </g>
     <g id="text_10">
      <text style="font-family:Arial;font-size:10px;font-stretch:normal;font-style:normal;font-weight:normal;text-anchor:end;" transform="rotate(-0, 55.745313, 135.4712)" x="55.745313" y="135.4712">Rank 3</text>
     </g>
    </g>
    <g id="ytick_4">
     <g id="line2d_10">
      <g>
       <use style="stroke:#000000;stroke-width:0.8;" x="62.745313" xlink:href="#m82278324de" y="89.291126"/>
      </g>
     </g>
     <g id="text_11">
      <text style="font-family:Arial;font-size:10px;font-stretch:normal;font-style:normal;font-weight:normal;text-anchor:end;" transform="rotate(-0, 55.745313, 92.870033)" x="55.745313" y="92.870033">Rank 4</text>
     </g>
    </g>
    <g id="ytick_5">
     <g id="line2d_11">
      <g>
       <use style="stroke:#000000;stroke-width:0.8;" x="62.745313" xlink:href="#m82278324de" y="46.689959"/>
      </g>
     </g>
     <g id="text_12">
      <text style="font-family:Arial;font-size:10px;font-stretch:normal;font-style:normal;font-weight:normal;text-anchor:end;" transform="rotate(-0, 55.745313, 50.268865)" x="55.745313" y="50.268865">Rank 5</text>
     </g>
    </g>
    <g id="text_13">
     <text style="font-family:Arial;font-size:10px;font-stretch:normal;font-style:normal;font-weight:normal;text-anchor:middle;" transform="rotate(-90, 17.957813, 131.892294)" x="17.957813" y="131.892294">Percentage</text>
    </g>
   </g>
   <g id="patch_48">
    <path d="M 62.745313 238.395213 
L 493.2 238.395213 
" style="fill:none;stroke:#000000;stroke-linecap:square;stroke-linejoin:miter;stroke-width:0.8;"/>
   </g>
   <g id="text_14">
    <text style="font-family:Arial;font-size:10px;font-stretch:normal;font-style:normal;font-weight:normal;text-anchor:middle;" transform="rotate(-0, 115.118654, 221.354746)" x="115.118654" y="221.354746">26</text>
   </g>
   <g id="text_15">
    <text style="font-family:Arial;font-size:10px;font-stretch:normal;font-style:normal;font-weight:normal;text-anchor:middle;" transform="rotate(-0, 98.117695, 178.753578)" x="98.117695" y="178.753578">17</text>
   </g>
   <g id="text_16">
    <text style="font-family:Arial;font-size:10px;font-stretch:normal;font-style:normal;font-weight:normal;text-anchor:middle;" transform="rotate(-0, 93.582774, 136.152411)" x="93.582774" y="136.152411">15</text>
   </g>
   <g id="text_17">
    <text style="font-family:Arial;font-size:10px;font-stretch:normal;font-style:normal;font-weight:normal;text-anchor:middle;" transform="rotate(-0, 83.605948, 93.551243)" x="83.605948" y="93.551243">10</text>
   </g>
   <g id="text_18">
    <text style="font-family:Arial;font-size:10px;font-stretch:normal;font-style:normal;font-weight:normal;text-anchor:middle;" transform="rotate(-0, 83.605948, 50.950076)" x="83.605948" y="50.950076">10</text>
   </g>
   <g id="text_19">
    <text style="font-family:Arial;font-size:10px;font-stretch:normal;font-style:normal;font-weight:normal;text-anchor:middle;" transform="rotate(-0, 213.544416, 221.354746)" x="213.544416" y="221.354746">22</text>
   </g>
   <g id="text_20">
    <text style="font-family:Arial;font-size:10px;font-stretch:normal;font-style:normal;font-weight:normal;text-anchor:middle;" transform="rotate(-0, 171.583413, 178.753578)" x="171.583413" y="178.753578">19</text>
   </g>
   <g id="text_21">
    <text style="font-family:Arial;font-size:10px;font-stretch:normal;font-style:normal;font-weight:normal;text-anchor:middle;" transform="rotate(-0, 145.280872, 136.152411)" x="145.280872" y="136.152411">10</text>
   </g>
   <g id="text_22">
    <text style="font-family:Arial;font-size:10px;font-stretch:normal;font-style:normal;font-weight:normal;text-anchor:middle;" transform="rotate(-0, 128.048173, 93.551243)" x="128.048173" y="93.551243">12</text>
   </g>
   <g id="text_23">
    <text style="font-family:Arial;font-size:10px;font-stretch:normal;font-style:normal;font-weight:normal;text-anchor:middle;" transform="rotate(-0, 116.257379, 50.950076)" x="116.257379" y="50.950076">6</text>
   </g>
   <g id="text_24">
    <text style="font-family:Arial;font-size:10px;font-stretch:normal;font-style:normal;font-weight:normal;text-anchor:middle;" transform="rotate(-0, 293.007417, 221.354746)" x="293.007417" y="221.354746">16</text>
   </g>
   <g id="text_25">
    <text style="font-family:Arial;font-size:10px;font-stretch:normal;font-style:normal;font-weight:normal;text-anchor:middle;" transform="rotate(-0, 245.049131, 178.753578)" x="245.049131" y="178.753578">17</text>
   </g>
   <g id="text_26">
    <text style="font-family:Arial;font-size:10px;font-stretch:normal;font-style:normal;font-weight:normal;text-anchor:middle;" transform="rotate(-0, 197.885954, 136.152411)" x="197.885954" y="136.152411">15</text>
   </g>
   <g id="text_27">
    <text style="font-family:Arial;font-size:10px;font-stretch:normal;font-style:normal;font-weight:normal;text-anchor:middle;" transform="rotate(-0, 171.583413, 93.551243)" x="171.583413" y="93.551243">10</text>
   </g>
   <g id="text_28">
    <text style="font-family:Arial;font-size:10px;font-stretch:normal;font-style:normal;font-weight:normal;text-anchor:middle;" transform="rotate(-0, 144.373888, 50.950076)" x="144.373888" y="50.950076">8</text>
   </g>
   <g id="text_29">
    <text style="font-family:Arial;font-size:10px;font-stretch:normal;font-style:normal;font-weight:normal;text-anchor:middle;" transform="rotate(-0, 344.47777, 221.354746)" x="344.47777" y="221.354746">9</text>
   </g>
   <g id="text_30">
    <text style="font-family:Arial;font-size:10px;font-stretch:normal;font-style:normal;font-weight:normal;text-anchor:middle;" transform="rotate(-0, 296.747229, 178.753578)" x="296.747229" y="178.753578">8</text>
   </g>
   <g id="text_31">
    <text style="font-family:Arial;font-size:10px;font-stretch:normal;font-style:normal;font-weight:normal;text-anchor:middle;" transform="rotate(-0, 253.211988, 136.152411)" x="253.211988" y="136.152411">12</text>
   </g>
   <g id="text_32">
    <text style="font-family:Arial;font-size:10px;font-stretch:normal;font-style:normal;font-weight:normal;text-anchor:middle;" transform="rotate(-0, 217.839606, 93.551243)" x="217.839606" y="93.551243">13</text>
   </g>
   <g id="text_33">
    <text style="font-family:Arial;font-size:10px;font-stretch:normal;font-style:normal;font-weight:normal;text-anchor:middle;" transform="rotate(-0, 193.351033, 50.950076)" x="193.351033" y="50.950076">16</text>
   </g>
   <g id="text_34">
    <text style="font-family:Arial;font-size:10px;font-stretch:normal;font-style:normal;font-weight:normal;text-anchor:middle;" transform="rotate(-0, 380.597316, 221.354746)" x="380.597316" y="221.354746">9</text>
   </g>
   <g id="text_35">
    <text style="font-family:Arial;font-size:10px;font-stretch:normal;font-style:normal;font-weight:normal;text-anchor:middle;" transform="rotate(-0, 333.026595, 178.753578)" x="333.026595" y="178.753578">10</text>
   </g>
   <g id="text_36">
    <text style="font-family:Arial;font-size:10px;font-stretch:normal;font-style:normal;font-weight:normal;text-anchor:middle;" transform="rotate(-0, 294.93326, 136.152411)" x="294.93326" y="136.152411">9</text>
   </g>
   <g id="text_37">
    <text style="font-family:Arial;font-size:10px;font-stretch:normal;font-style:normal;font-weight:normal;text-anchor:middle;" transform="rotate(-0, 258.653893, 93.551243)" x="258.653893" y="93.551243">7</text>
   </g>
   <g id="text_38">
    <text style="font-family:Arial;font-size:10px;font-stretch:normal;font-style:normal;font-weight:normal;text-anchor:middle;" transform="rotate(-0, 245.049131, 50.950076)" x="245.049131" y="50.950076">9</text>
   </g>
   <g id="text_39">
    <text style="font-family:Arial;font-size:10px;font-stretch:normal;font-style:normal;font-weight:normal;text-anchor:middle;" transform="rotate(-0, 414.007896, 221.354746)" x="414.007896" y="221.354746">7</text>
   </g>
   <g id="text_40">
    <text style="font-family:Arial;font-size:10px;font-stretch:normal;font-style:normal;font-weight:normal;text-anchor:middle;" transform="rotate(-0, 374.747867, 178.753578)" x="374.747867" y="178.753578">11</text>
   </g>
   <g id="text_41">
    <text style="font-family:Arial;font-size:10px;font-stretch:normal;font-style:normal;font-weight:normal;text-anchor:middle;" transform="rotate(-0, 334.840564, 136.152411)" x="334.840564" y="136.152411">11</text>
   </g>
   <g id="text_42">
    <text style="font-family:Arial;font-size:10px;font-stretch:normal;font-style:normal;font-weight:normal;text-anchor:middle;" transform="rotate(-0, 302.189134, 93.551243)" x="302.189134" y="93.551243">14</text>
   </g>
   <g id="text_43">
    <text style="font-family:Arial;font-size:10px;font-stretch:normal;font-style:normal;font-weight:normal;text-anchor:middle;" transform="rotate(-0, 297.654213, 50.950076)" x="297.654213" y="50.950076">16</text>
   </g>
   <g id="text_44">
    <text style="font-family:Arial;font-size:10px;font-stretch:normal;font-style:normal;font-weight:normal;text-anchor:middle;" transform="rotate(-0, 440.194566, 221.354746)" x="440.194566" y="221.354746">5</text>
   </g>
   <g id="text_45">
    <text style="font-family:Arial;font-size:10px;font-stretch:normal;font-style:normal;font-weight:normal;text-anchor:middle;" transform="rotate(-0, 411.934218, 178.753578)" x="411.934218" y="178.753578">8</text>
   </g>
   <g id="text_46">
    <text style="font-family:Arial;font-size:10px;font-stretch:normal;font-style:normal;font-weight:normal;text-anchor:middle;" transform="rotate(-0, 376.561836, 136.152411)" x="376.561836" y="136.152411">10</text>
   </g>
   <g id="text_47">
    <text style="font-family:Arial;font-size:10px;font-stretch:normal;font-style:normal;font-weight:normal;text-anchor:middle;" transform="rotate(-0, 354.794216, 93.551243)" x="354.794216" y="93.551243">12</text>
   </g>
   <g id="text_48">
    <text style="font-family:Arial;font-size:10px;font-stretch:normal;font-style:normal;font-weight:normal;text-anchor:middle;" transform="rotate(-0, 362.957073, 50.950076)" x="362.957073" y="50.950076">15</text>
   </g>
   <g id="text_49">
    <text style="font-family:Arial;font-size:10px;font-stretch:normal;font-style:normal;font-weight:normal;text-anchor:middle;" transform="rotate(-0, 442.77168, 178.753578)" x="442.77168" y="178.753578">8</text>
   </g>
   <g id="text_50">
    <text style="font-family:Arial;font-size:10px;font-stretch:normal;font-style:normal;font-weight:normal;text-anchor:middle;" transform="rotate(-0, 418.283107, 136.152411)" x="418.283107" y="136.152411">11</text>
   </g>
   <g id="text_51">
    <text style="font-family:Arial;font-size:10px;font-stretch:normal;font-style:normal;font-weight:normal;text-anchor:middle;" transform="rotate(-0, 411.027234, 93.551243)" x="411.027234" y="93.551243">16</text>
   </g>
   <g id="text_52">
    <text style="font-family:Arial;font-size:10px;font-stretch:normal;font-style:normal;font-weight:normal;text-anchor:middle;" transform="rotate(-0, 416.469139, 50.950076)" x="416.469139" y="50.950076">11</text>
   </g>
   <g id="text_53">
    <text style="font-family:Arial;font-size:10px;font-stretch:normal;font-style:normal;font-weight:normal;text-anchor:middle;" transform="rotate(-0, 456.376443, 136.152411)" x="456.376443" y="136.152411">8</text>
   </g>
   <g id="text_54">
    <text style="font-family:Arial;font-size:10px;font-stretch:normal;font-style:normal;font-weight:normal;text-anchor:middle;" transform="rotate(-0, 458.190411, 93.551243)" x="458.190411" y="93.551243">7</text>
   </g>
   <g id="text_55">
    <text style="font-family:Arial;font-size:10px;font-stretch:normal;font-style:normal;font-weight:normal;text-anchor:middle;" transform="rotate(-0, 455.469458, 50.950076)" x="455.469458" y="50.950076">8</text>
   </g>
   <g id="text_56">
    <text style="font-family:Arial;font-size:12px;font-stretch:normal;font-style:normal;font-weight:normal;text-anchor:middle;" transform="rotate(-0, 277.972656, 19.389375)" x="277.972656" y="19.389375">Reasons to choose current job: United Kingdom</text>
   </g>
   <g id="legend_1">
    <g id="patch_49">
     <path d="M 72.913281 349.680463 
L 483.032031 349.680463 
Q 485.032031 349.680463 485.032031 347.680463 
L 485.032031 277.346088 
Q 485.032031 275.346088 483.032031 275.346088 
L 72.913281 275.346088 
Q 70.913281 275.346088 70.913281 277.346088 
L 70.913281 347.680463 
Q 70.913281 349.680463 72.913281 349.680463 
z
" style="fill:#ffffff;opacity:0.8;stroke:#cccccc;stroke-linejoin:miter;"/>
    </g>
    <g id="patch_50">
     <path d="M 74.913281 286.503901 
L 94.913281 286.503901 
L 94.913281 279.503901 
L 74.913281 279.503901 
z
" style="fill:#1f77b4;"/>
    </g>
    <g id="text_57">
     <text style="font-family:Arial;font-size:10px;font-stretch:normal;font-style:normal;font-weight:normal;text-anchor:start;" transform="rotate(-0, 102.913281, 286.503901)" x="102.913281" y="286.503901">Desire to work in a research environment</text>
    </g>
    <g id="patch_51">
     <path d="M 74.913281 300.649213 
L 94.913281 300.649213 
L 94.913281 293.649213 
L 74.913281 293.649213 
z
" style="fill:#ff7f0e;"/>
    </g>
    <g id="text_58">
     <text style="font-family:Arial;font-size:10px;font-stretch:normal;font-style:normal;font-weight:normal;text-anchor:start;" transform="rotate(-0, 102.913281, 300.649213)" x="102.913281" y="300.649213">Desire to advance research</text>
    </g>
    <g id="patch_52">
     <path d="M 74.913281 314.922651 
L 94.913281 314.922651 
L 94.913281 307.922651 
L 74.913281 307.922651 
z
" style="fill:#2ca02c;"/>
    </g>
    <g id="text_59">
     <text style="font-family:Arial;font-size:10px;font-stretch:normal;font-style:normal;font-weight:normal;text-anchor:start;" transform="rotate(-0, 102.913281, 314.922651)" x="102.913281" y="314.922651">Opportunity to develop software</text>
    </g>
    <g id="patch_53">
     <path d="M 74.913281 329.185151 
L 94.913281 329.185151 
L 94.913281 322.185151 
L 74.913281 322.185151 
z
" style="fill:#d62728;"/>
    </g>
    <g id="text_60">
     <text style="font-family:Arial;font-size:10px;font-stretch:normal;font-style:normal;font-weight:normal;text-anchor:start;" transform="rotate(-0, 102.913281, 329.185151)" x="102.913281" y="329.185151">Freedom to choose own working practices</text>
    </g>
    <g id="patch_54">
     <path d="M 74.913281 343.575776 
L 94.913281 343.575776 
L 94.913281 336.575776 
L 74.913281 336.575776 
z
" style="fill:#9467bd;"/>
    </g>
    <g id="text_61">
     <text style="font-family:Arial;font-size:10px;font-stretch:normal;font-style:normal;font-weight:normal;text-anchor:start;" transform="rotate(-0, 102.913281, 343.575776)" x="102.913281" y="343.575776">Opportunity for career advancement</text>
    </g>
    <g id="patch_55">
     <path d="M 310.210156 286.503901 
L 330.210156 286.503901 
L 330.210156 279.503901 
L 310.210156 279.503901 
z
" style="fill:#8c564b;"/>
    </g>
    <g id="text_62">
     <text style="font-family:Arial;font-size:10px;font-stretch:normal;font-style:normal;font-weight:normal;text-anchor:start;" transform="rotate(-0, 338.210156, 286.503901)" x="338.210156" y="286.503901">I want to learn new skills</text>
    </g>
    <g id="patch_56">
     <path d="M 310.210156 300.649213 
L 330.210156 300.649213 
L 330.210156 293.649213 
L 310.210156 293.649213 
z
" style="fill:#e377c2;"/>
    </g>
    <g id="text_63">
     <text style="font-family:Arial;font-size:10px;font-stretch:normal;font-style:normal;font-weight:normal;text-anchor:start;" transform="rotate(-0, 338.210156, 300.649213)" x="338.210156" y="300.649213">Flexible working hours</text>
    </g>
    <g id="patch_57">
     <path d="M 310.210156 314.911713 
L 330.210156 314.911713 
L 330.210156 307.911713 
L 310.210156 307.911713 
z
" style="fill:#7f7f7f;"/>
    </g>
    <g id="text_64">
     <text style="font-family:Arial;font-size:10px;font-stretch:normal;font-style:normal;font-weight:normal;text-anchor:start;" transform="rotate(-0, 338.210156, 314.911713)" x="338.210156" y="314.911713">Ability to work across disciplines</text>
    </g>
    <g id="patch_58">
     <path d="M 310.210156 329.174213 
L 330.210156 329.174213 
L 330.210156 322.174213 
L 310.210156 322.174213 
z
" style="fill:#bcbd22;"/>
    </g>
    <g id="text_65">
     <text style="font-family:Arial;font-size:10px;font-stretch:normal;font-style:normal;font-weight:normal;text-anchor:start;" transform="rotate(-0, 338.210156, 329.174213)" x="338.210156" y="329.174213">The salary</text>
    </g>
   </g>
  </g>
 </g>
 <defs>
  <clipPath id="pcc23016396">
   <rect height="213.005837" width="430.454687" x="62.745313" y="25.389375"/>
  </clipPath>
 </defs>
</svg>
