<?xml version="1.0" encoding="utf-8" standalone="no"?>
<!DOCTYPE svg PUBLIC "-//W3C//DTD SVG 1.1//EN"
  "http://www.w3.org/Graphics/SVG/1.1/DTD/svg11.dtd">
<svg xmlns:xlink="http://www.w3.org/1999/xlink" width="504pt" height="360pt" viewBox="0 0 504 360" xmlns="http://www.w3.org/2000/svg" version="1.1">
 <metadata>
  <rdf:RDF xmlns:dc="http://purl.org/dc/elements/1.1/" xmlns:cc="http://creativecommons.org/ns#" xmlns:rdf="http://www.w3.org/1999/02/22-rdf-syntax-ns#">
   <cc:Work>
    <dc:type rdf:resource="http://purl.org/dc/dcmitype/StillImage"/>
    <dc:date>2022-03-08T15:12:14.517067</dc:date>
    <dc:format>image/svg+xml</dc:format>
    <dc:creator>
     <cc:Agent>
      <dc:title>Matplotlib v3.5.1, https://matplotlib.org/</dc:title>
     </cc:Agent>
    </dc:creator>
   </cc:Work>
  </rdf:RDF>
 </metadata>
 <defs>
  <style type="text/css">*{stroke-linejoin: round; stroke-linecap: butt}</style>
 </defs>
 <g id="figure_1">
  <g id="patch_1">
   <path d="M 0 360 
L 504 360 
L 504 0 
L 0 0 
z
" style="fill: #ffffff"/>
  </g>
  <g id="axes_1">
   <g id="patch_2">
    <path d="M 62.86875 227.773125 
L 472.816406 227.773125 
L 472.816406 25.43625 
L 62.86875 25.43625 
z
" style="fill: #ffffff"/>
   </g>
   <g id="patch_3">
    <path d="M 62.86875 217.656281 
L 159.270315 217.656281 
L 159.270315 197.422594 
L 62.86875 197.422594 
z
" clip-path="url(#p0e96e39e1f)" style="fill: #1f77b4"/>
   </g>
   <g id="patch_4">
    <path d="M 62.86875 177.188906 
L 157.444074 177.188906 
L 157.444074 156.955219 
L 62.86875 156.955219 
z
" clip-path="url(#p0e96e39e1f)" style="fill: #1f77b4"/>
   </g>
   <g id="patch_5">
    <path d="M 62.86875 136.721531 
L 116.108705 136.721531 
L 116.108705 116.487844 
L 62.86875 116.487844 
z
" clip-path="url(#p0e96e39e1f)" style="fill: #1f77b4"/>
   </g>
   <g id="patch_6">
    <path d="M 62.86875 96.254156 
L 107.809911 96.254156 
L 107.809911 76.020469 
L 62.86875 76.020469 
z
" clip-path="url(#p0e96e39e1f)" style="fill: #1f77b4"/>
   </g>
   <g id="patch_7">
    <path d="M 62.86875 55.786781 
L 100.651944 55.786781 
L 100.651944 35.553094 
L 62.86875 35.553094 
z
" clip-path="url(#p0e96e39e1f)" style="fill: #1f77b4"/>
   </g>
   <g id="patch_8">
    <path d="M 159.270315 217.656281 
L 241.211646 217.656281 
L 241.211646 197.422594 
L 159.270315 197.422594 
z
" clip-path="url(#p0e96e39e1f)" style="fill: #ff7f0e"/>
   </g>
   <g id="patch_9">
    <path d="M 157.444074 177.188906 
L 205.944241 177.188906 
L 205.944241 156.955219 
L 157.444074 156.955219 
z
" clip-path="url(#p0e96e39e1f)" style="fill: #ff7f0e"/>
   </g>
   <g id="patch_10">
    <path d="M 116.108705 136.721531 
L 176.954369 136.721531 
L 176.954369 116.487844 
L 116.108705 116.487844 
z
" clip-path="url(#p0e96e39e1f)" style="fill: #ff7f0e"/>
   </g>
   <g id="patch_11">
    <path d="M 107.809911 96.254156 
L 138.70696 96.254156 
L 138.70696 76.020469 
L 107.809911 76.020469 
z
" clip-path="url(#p0e96e39e1f)" style="fill: #ff7f0e"/>
   </g>
   <g id="patch_12">
    <path d="M 100.651944 55.786781 
L 128.98934 55.786781 
L 128.98934 35.553094 
L 100.651944 35.553094 
z
" clip-path="url(#p0e96e39e1f)" style="fill: #ff7f0e"/>
   </g>
   <g id="patch_13">
    <path d="M 241.211646 217.656281 
L 303.872663 217.656281 
L 303.872663 197.422594 
L 241.211646 197.422594 
z
" clip-path="url(#p0e96e39e1f)" style="fill: #2ca02c"/>
   </g>
   <g id="patch_14">
    <path d="M 205.944241 177.188906 
L 266.569449 177.188906 
L 266.569449 156.955219 
L 205.944241 156.955219 
z
" clip-path="url(#p0e96e39e1f)" style="fill: #2ca02c"/>
   </g>
   <g id="patch_15">
    <path d="M 176.954369 136.721531 
L 237.800032 136.721531 
L 237.800032 116.487844 
L 176.954369 116.487844 
z
" clip-path="url(#p0e96e39e1f)" style="fill: #2ca02c"/>
   </g>
   <g id="patch_16">
    <path d="M 138.70696 96.254156 
L 189.265766 96.254156 
L 189.265766 76.020469 
L 138.70696 76.020469 
z
" clip-path="url(#p0e96e39e1f)" style="fill: #2ca02c"/>
   </g>
   <g id="patch_17">
    <path d="M 128.98934 55.786781 
L 160.475335 55.786781 
L 160.475335 35.553094 
L 128.98934 35.553094 
z
" clip-path="url(#p0e96e39e1f)" style="fill: #2ca02c"/>
   </g>
   <g id="patch_18">
    <path d="M 303.872663 217.656281 
L 354.483485 217.656281 
L 354.483485 197.422594 
L 303.872663 197.422594 
z
" clip-path="url(#p0e96e39e1f)" style="fill: #d62728"/>
   </g>
   <g id="patch_19">
    <path d="M 266.569449 177.188906 
L 312.644607 177.188906 
L 312.644607 156.955219 
L 266.569449 156.955219 
z
" clip-path="url(#p0e96e39e1f)" style="fill: #d62728"/>
   </g>
   <g id="patch_20">
    <path d="M 237.800032 136.721531 
L 285.969515 136.721531 
L 285.969515 116.487844 
L 237.800032 116.487844 
z
" clip-path="url(#p0e96e39e1f)" style="fill: #d62728"/>
   </g>
   <g id="patch_21">
    <path d="M 189.265766 96.254156 
L 239.824573 96.254156 
L 239.824573 76.020469 
L 189.265766 76.020469 
z
" clip-path="url(#p0e96e39e1f)" style="fill: #d62728"/>
   </g>
   <g id="patch_22">
    <path d="M 160.475335 55.786781 
L 188.81273 55.786781 
L 188.81273 35.553094 
L 160.475335 35.553094 
z
" clip-path="url(#p0e96e39e1f)" style="fill: #d62728"/>
   </g>
   <g id="patch_23">
    <path d="M 354.483485 217.656281 
L 383.403954 217.656281 
L 383.403954 197.422594 
L 354.483485 197.422594 
z
" clip-path="url(#p0e96e39e1f)" style="fill: #9467bd"/>
   </g>
   <g id="patch_24">
    <path d="M 312.644607 177.188906 
L 344.169715 177.188906 
L 344.169715 156.955219 
L 312.644607 156.955219 
z
" clip-path="url(#p0e96e39e1f)" style="fill: #9467bd"/>
   </g>
   <g id="patch_25">
    <path d="M 285.969515 136.721531 
L 298.645695 136.721531 
L 298.645695 116.487844 
L 285.969515 116.487844 
z
" clip-path="url(#p0e96e39e1f)" style="fill: #9467bd"/>
   </g>
   <g id="patch_26">
    <path d="M 239.824573 96.254156 
L 301.61867 96.254156 
L 301.61867 76.020469 
L 239.824573 76.020469 
z
" clip-path="url(#p0e96e39e1f)" style="fill: #9467bd"/>
   </g>
   <g id="patch_27">
    <path d="M 188.81273 55.786781 
L 248.636121 55.786781 
L 248.636121 35.553094 
L 188.81273 35.553094 
z
" clip-path="url(#p0e96e39e1f)" style="fill: #9467bd"/>
   </g>
   <g id="patch_28">
    <path d="M 383.403954 217.656281 
L 409.914385 217.656281 
L 409.914385 197.422594 
L 383.403954 197.422594 
z
" clip-path="url(#p0e96e39e1f)" style="fill: #8c564b"/>
   </g>
   <g id="patch_29">
    <path d="M 344.169715 177.188906 
L 382.969848 177.188906 
L 382.969848 156.955219 
L 344.169715 156.955219 
z
" clip-path="url(#p0e96e39e1f)" style="fill: #8c564b"/>
   </g>
   <g id="patch_30">
    <path d="M 298.645695 136.721531 
L 351.885651 136.721531 
L 351.885651 116.487844 
L 298.645695 116.487844 
z
" clip-path="url(#p0e96e39e1f)" style="fill: #8c564b"/>
   </g>
   <g id="patch_31">
    <path d="M 301.61867 96.254156 
L 352.177476 96.254156 
L 352.177476 76.020469 
L 301.61867 76.020469 
z
" clip-path="url(#p0e96e39e1f)" style="fill: #8c564b"/>
   </g>
   <g id="patch_32">
    <path d="M 248.636121 55.786781 
L 295.865114 55.786781 
L 295.865114 35.553094 
L 248.636121 35.553094 
z
" clip-path="url(#p0e96e39e1f)" style="fill: #8c564b"/>
   </g>
   <g id="patch_33">
    <path d="M 409.914385 217.656281 
L 436.424815 217.656281 
L 436.424815 197.422594 
L 409.914385 197.422594 
z
" clip-path="url(#p0e96e39e1f)" style="fill: #e377c2"/>
   </g>
   <g id="patch_34">
    <path d="M 382.969848 177.188906 
L 409.64494 177.188906 
L 409.64494 156.955219 
L 382.969848 156.955219 
z
" clip-path="url(#p0e96e39e1f)" style="fill: #e377c2"/>
   </g>
   <g id="patch_35">
    <path d="M 351.885651 136.721531 
L 377.23801 136.721531 
L 377.23801 116.487844 
L 351.885651 116.487844 
z
" clip-path="url(#p0e96e39e1f)" style="fill: #e377c2"/>
   </g>
   <g id="patch_36">
    <path d="M 352.177476 96.254156 
L 380.265702 96.254156 
L 380.265702 76.020469 
L 352.177476 76.020469 
z
" clip-path="url(#p0e96e39e1f)" style="fill: #e377c2"/>
   </g>
   <g id="patch_37">
    <path d="M 295.865114 55.786781 
L 336.796907 55.786781 
L 336.796907 35.553094 
L 295.865114 35.553094 
z
" clip-path="url(#p0e96e39e1f)" style="fill: #e377c2"/>
   </g>
   <g id="patch_38">
    <path d="M 436.424815 217.656281 
L 448.475011 217.656281 
L 448.475011 197.422594 
L 436.424815 197.422594 
z
" clip-path="url(#p0e96e39e1f)" style="fill: #7f7f7f"/>
   </g>
   <g id="patch_39">
    <path d="M 409.64494 177.188906 
L 446.020064 177.188906 
L 446.020064 156.955219 
L 409.64494 156.955219 
z
" clip-path="url(#p0e96e39e1f)" style="fill: #7f7f7f"/>
   </g>
   <g id="patch_40">
    <path d="M 377.23801 136.721531 
L 435.548437 136.721531 
L 435.548437 116.487844 
L 377.23801 116.487844 
z
" clip-path="url(#p0e96e39e1f)" style="fill: #7f7f7f"/>
   </g>
   <g id="patch_41">
    <path d="M 380.265702 96.254156 
L 425.206863 96.254156 
L 425.206863 76.020469 
L 380.265702 76.020469 
z
" clip-path="url(#p0e96e39e1f)" style="fill: #7f7f7f"/>
   </g>
   <g id="patch_42">
    <path d="M 336.796907 55.786781 
L 412.363296 55.786781 
L 412.363296 35.553094 
L 336.796907 35.553094 
z
" clip-path="url(#p0e96e39e1f)" style="fill: #7f7f7f"/>
   </g>
   <g id="patch_43">
    <path d="M 448.475011 217.656281 
L 453.295089 217.656281 
L 453.295089 197.422594 
L 448.475011 197.422594 
z
" clip-path="url(#p0e96e39e1f)" style="fill: #bcbd22"/>
   </g>
   <g id="patch_44">
    <path d="M 446.020064 177.188906 
L 453.295089 177.188906 
L 453.295089 156.955219 
L 446.020064 156.955219 
z
" clip-path="url(#p0e96e39e1f)" style="fill: #bcbd22"/>
   </g>
   <g id="patch_45">
    <path d="M 435.548437 136.721531 
L 453.295089 136.721531 
L 453.295089 116.487844 
L 435.548437 116.487844 
z
" clip-path="url(#p0e96e39e1f)" style="fill: #bcbd22"/>
   </g>
   <g id="patch_46">
    <path d="M 425.206863 96.254156 
L 453.295089 96.254156 
L 453.295089 76.020469 
L 425.206863 76.020469 
z
" clip-path="url(#p0e96e39e1f)" style="fill: #bcbd22"/>
   </g>
   <g id="patch_47">
    <path d="M 412.363296 55.786781 
L 453.295089 55.786781 
L 453.295089 35.553094 
L 412.363296 35.553094 
z
" clip-path="url(#p0e96e39e1f)" style="fill: #bcbd22"/>
   </g>
   <g id="matplotlib.axis_1">
    <g id="xtick_1">
     <g id="line2d_1">
      <defs>
       <path id="m4c99cd72f3" d="M 0 0 
L 0 3.5 
" style="stroke: #000000; stroke-width: 0.8"/>
      </defs>
      <g>
       <use xlink:href="#m4c99cd72f3" x="62.86875" y="227.773125" style="stroke: #000000; stroke-width: 0.8"/>
      </g>
     </g>
     <g id="text_1">
      <text style="font: 10px 'sans-serif'; text-anchor: middle" x="62.86875" y="241.946562" transform="rotate(-0, 62.86875, 241.946562)">0</text>
     </g>
    </g>
    <g id="xtick_2">
     <g id="line2d_2">
      <g>
       <use xlink:href="#m4c99cd72f3" x="140.954018" y="227.773125" style="stroke: #000000; stroke-width: 0.8"/>
      </g>
     </g>
     <g id="text_2">
      <text style="font: 10px 'sans-serif'; text-anchor: middle" x="140.954018" y="241.946562" transform="rotate(-0, 140.954018, 241.946562)">20</text>
     </g>
    </g>
    <g id="xtick_3">
     <g id="line2d_3">
      <g>
       <use xlink:href="#m4c99cd72f3" x="219.039286" y="227.773125" style="stroke: #000000; stroke-width: 0.8"/>
      </g>
     </g>
     <g id="text_3">
      <text style="font: 10px 'sans-serif'; text-anchor: middle" x="219.039286" y="241.946562" transform="rotate(-0, 219.039286, 241.946562)">40</text>
     </g>
    </g>
    <g id="xtick_4">
     <g id="line2d_4">
      <g>
       <use xlink:href="#m4c99cd72f3" x="297.124554" y="227.773125" style="stroke: #000000; stroke-width: 0.8"/>
      </g>
     </g>
     <g id="text_4">
      <text style="font: 10px 'sans-serif'; text-anchor: middle" x="297.124554" y="241.946562" transform="rotate(-0, 297.124554, 241.946562)">60</text>
     </g>
    </g>
    <g id="xtick_5">
     <g id="line2d_5">
      <g>
       <use xlink:href="#m4c99cd72f3" x="375.209821" y="227.773125" style="stroke: #000000; stroke-width: 0.8"/>
      </g>
     </g>
     <g id="text_5">
      <text style="font: 10px 'sans-serif'; text-anchor: middle" x="375.209821" y="241.946562" transform="rotate(-0, 375.209821, 241.946562)">80</text>
     </g>
    </g>
    <g id="xtick_6">
     <g id="line2d_6">
      <g>
       <use xlink:href="#m4c99cd72f3" x="453.295089" y="227.773125" style="stroke: #000000; stroke-width: 0.8"/>
      </g>
     </g>
     <g id="text_6">
      <text style="font: 10px 'sans-serif'; text-anchor: middle" x="453.295089" y="241.946562" transform="rotate(-0, 453.295089, 241.946562)">100</text>
     </g>
    </g>
    <g id="text_7">
     <text style="font: 10px 'sans-serif'; text-anchor: middle" x="267.842578" y="255.305937" transform="rotate(-0, 267.842578, 255.305937)">Ranking of importance</text>
    </g>
   </g>
   <g id="matplotlib.axis_2">
    <g id="ytick_1">
     <g id="line2d_7">
      <defs>
       <path id="m8e343aef83" d="M 0 0 
L -3.5 0 
" style="stroke: #000000; stroke-width: 0.8"/>
      </defs>
      <g>
       <use xlink:href="#m8e343aef83" x="62.86875" y="207.539437" style="stroke: #000000; stroke-width: 0.8"/>
      </g>
     </g>
     <g id="text_8">
      <text style="font: 10px 'sans-serif'; text-anchor: end" x="55.86875" y="211.126156" transform="rotate(-0, 55.86875, 211.126156)">Rank 1</text>
     </g>
    </g>
    <g id="ytick_2">
     <g id="line2d_8">
      <g>
       <use xlink:href="#m8e343aef83" x="62.86875" y="167.072062" style="stroke: #000000; stroke-width: 0.8"/>
      </g>
     </g>
     <g id="text_9">
      <text style="font: 10px 'sans-serif'; text-anchor: end" x="55.86875" y="170.658781" transform="rotate(-0, 55.86875, 170.658781)">Rank 2</text>
     </g>
    </g>
    <g id="ytick_3">
     <g id="line2d_9">
      <g>
       <use xlink:href="#m8e343aef83" x="62.86875" y="126.604688" style="stroke: #000000; stroke-width: 0.8"/>
      </g>
     </g>
     <g id="text_10">
      <text style="font: 10px 'sans-serif'; text-anchor: end" x="55.86875" y="130.191406" transform="rotate(-0, 55.86875, 130.191406)">Rank 3</text>
     </g>
    </g>
    <g id="ytick_4">
     <g id="line2d_10">
      <g>
       <use xlink:href="#m8e343aef83" x="62.86875" y="86.137313" style="stroke: #000000; stroke-width: 0.8"/>
      </g>
     </g>
     <g id="text_11">
      <text style="font: 10px 'sans-serif'; text-anchor: end" x="55.86875" y="89.724031" transform="rotate(-0, 55.86875, 89.724031)">Rank 4</text>
     </g>
    </g>
    <g id="ytick_5">
     <g id="line2d_11">
      <g>
       <use xlink:href="#m8e343aef83" x="62.86875" y="45.669938" style="stroke: #000000; stroke-width: 0.8"/>
      </g>
     </g>
     <g id="text_12">
      <text style="font: 10px 'sans-serif'; text-anchor: end" x="55.86875" y="49.256656" transform="rotate(-0, 55.86875, 49.256656)">Rank 5</text>
     </g>
    </g>
    <g id="text_13">
     <text style="font: 10px 'sans-serif'; text-anchor: middle" x="17.973438" y="126.604688" transform="rotate(-90, 17.973438, 126.604688)">Percentage</text>
    </g>
   </g>
   <g id="patch_48">
    <path d="M 62.86875 227.773125 
L 472.816406 227.773125 
" style="fill: none; stroke: #000000; stroke-width: 0.8; stroke-linejoin: miter; stroke-linecap: square"/>
   </g>
   <g id="text_14">
    <text style="font: 10px 'sans-serif'; text-anchor: middle" x="111.069533" y="211.586175" transform="rotate(-0, 111.069533, 211.586175)">25</text>
   </g>
   <g id="text_15">
    <text style="font: 10px 'sans-serif'; text-anchor: middle" x="110.156412" y="171.1188" transform="rotate(-0, 110.156412, 171.1188)">24</text>
   </g>
   <g id="text_16">
    <text style="font: 10px 'sans-serif'; text-anchor: middle" x="89.488728" y="130.651425" transform="rotate(-0, 89.488728, 130.651425)">14</text>
   </g>
   <g id="text_17">
    <text style="font: 10px 'sans-serif'; text-anchor: middle" x="85.339331" y="90.18405" transform="rotate(-0, 85.339331, 90.18405)">12</text>
   </g>
   <g id="text_18">
    <text style="font: 10px 'sans-serif'; text-anchor: middle" x="81.760347" y="49.716675" transform="rotate(-0, 81.760347, 49.716675)">10</text>
   </g>
   <g id="text_19">
    <text style="font: 10px 'sans-serif'; text-anchor: middle" x="200.24098" y="211.586175" transform="rotate(-0, 200.24098, 211.586175)">21</text>
   </g>
   <g id="text_20">
    <text style="font: 10px 'sans-serif'; text-anchor: middle" x="181.694158" y="171.1188" transform="rotate(-0, 181.694158, 171.1188)">12</text>
   </g>
   <g id="text_21">
    <text style="font: 10px 'sans-serif'; text-anchor: middle" x="146.531537" y="130.651425" transform="rotate(-0, 146.531537, 130.651425)">16</text>
   </g>
   <g id="text_22">
    <text style="font: 10px 'sans-serif'; text-anchor: middle" x="123.258436" y="90.18405" transform="rotate(-0, 123.258436, 90.18405)">8</text>
   </g>
   <g id="text_23">
    <text style="font: 10px 'sans-serif'; text-anchor: middle" x="114.820642" y="49.716675" transform="rotate(-0, 114.820642, 49.716675)">7</text>
   </g>
   <g id="text_24">
    <text style="font: 10px 'sans-serif'; text-anchor: middle" x="272.542154" y="211.586175" transform="rotate(-0, 272.542154, 211.586175)">16</text>
   </g>
   <g id="text_25">
    <text style="font: 10px 'sans-serif'; text-anchor: middle" x="236.256845" y="171.1188" transform="rotate(-0, 236.256845, 171.1188)">16</text>
   </g>
   <g id="text_26">
    <text style="font: 10px 'sans-serif'; text-anchor: middle" x="207.3772" y="130.651425" transform="rotate(-0, 207.3772, 130.651425)">16</text>
   </g>
   <g id="text_27">
    <text style="font: 10px 'sans-serif'; text-anchor: middle" x="163.986363" y="90.18405" transform="rotate(-0, 163.986363, 90.18405)">13</text>
   </g>
   <g id="text_28">
    <text style="font: 10px 'sans-serif'; text-anchor: middle" x="144.732337" y="49.716675" transform="rotate(-0, 144.732337, 49.716675)">8</text>
   </g>
   <g id="text_29">
    <text style="font: 10px 'sans-serif'; text-anchor: middle" x="329.178074" y="211.586175" transform="rotate(-0, 329.178074, 211.586175)">13</text>
   </g>
   <g id="text_30">
    <text style="font: 10px 'sans-serif'; text-anchor: middle" x="289.607028" y="171.1188" transform="rotate(-0, 289.607028, 171.1188)">12</text>
   </g>
   <g id="text_31">
    <text style="font: 10px 'sans-serif'; text-anchor: middle" x="261.884774" y="130.651425" transform="rotate(-0, 261.884774, 130.651425)">12</text>
   </g>
   <g id="text_32">
    <text style="font: 10px 'sans-serif'; text-anchor: middle" x="214.54517" y="90.18405" transform="rotate(-0, 214.54517, 90.18405)">13</text>
   </g>
   <g id="text_33">
    <text style="font: 10px 'sans-serif'; text-anchor: middle" x="174.644033" y="49.716675" transform="rotate(-0, 174.644033, 49.716675)">7</text>
   </g>
   <g id="text_34">
    <text style="font: 10px 'sans-serif'; text-anchor: middle" x="368.94372" y="211.586175" transform="rotate(-0, 368.94372, 211.586175)">7</text>
   </g>
   <g id="text_35">
    <text style="font: 10px 'sans-serif'; text-anchor: middle" x="328.407161" y="171.1188" transform="rotate(-0, 328.407161, 171.1188)">8</text>
   </g>
   <g id="text_36">
    <text style="font: 10px 'sans-serif'; text-anchor: middle" x="270.721621" y="90.18405" transform="rotate(-0, 270.721621, 90.18405)">16</text>
   </g>
   <g id="text_37">
    <text style="font: 10px 'sans-serif'; text-anchor: middle" x="218.724426" y="49.716675" transform="rotate(-0, 218.724426, 49.716675)">15</text>
   </g>
   <g id="text_38">
    <text style="font: 10px 'sans-serif'; text-anchor: middle" x="396.65917" y="211.586175" transform="rotate(-0, 396.65917, 211.586175)">7</text>
   </g>
   <g id="text_39">
    <text style="font: 10px 'sans-serif'; text-anchor: middle" x="363.569781" y="171.1188" transform="rotate(-0, 363.569781, 171.1188)">10</text>
   </g>
   <g id="text_40">
    <text style="font: 10px 'sans-serif'; text-anchor: middle" x="325.265673" y="130.651425" transform="rotate(-0, 325.265673, 130.651425)">14</text>
   </g>
   <g id="text_41">
    <text style="font: 10px 'sans-serif'; text-anchor: middle" x="326.898073" y="90.18405" transform="rotate(-0, 326.898073, 90.18405)">13</text>
   </g>
   <g id="text_42">
    <text style="font: 10px 'sans-serif'; text-anchor: middle" x="272.250617" y="49.716675" transform="rotate(-0, 272.250617, 49.716675)">12</text>
   </g>
   <g id="text_43">
    <text style="font: 10px 'sans-serif'; text-anchor: middle" x="423.1696" y="211.586175" transform="rotate(-0, 423.1696, 211.586175)">7</text>
   </g>
   <g id="text_44">
    <text style="font: 10px 'sans-serif'; text-anchor: middle" x="396.307394" y="171.1188" transform="rotate(-0, 396.307394, 171.1188)">7</text>
   </g>
   <g id="text_45">
    <text style="font: 10px 'sans-serif'; text-anchor: middle" x="364.56183" y="130.651425" transform="rotate(-0, 364.56183, 130.651425)">6</text>
   </g>
   <g id="text_46">
    <text style="font: 10px 'sans-serif'; text-anchor: middle" x="366.221589" y="90.18405" transform="rotate(-0, 366.221589, 90.18405)">7</text>
   </g>
   <g id="text_47">
    <text style="font: 10px 'sans-serif'; text-anchor: middle" x="316.331011" y="49.716675" transform="rotate(-0, 316.331011, 49.716675)">10</text>
   </g>
   <g id="text_48">
    <text style="font: 10px 'sans-serif'; text-anchor: middle" x="427.832502" y="171.1188" transform="rotate(-0, 427.832502, 171.1188)">9</text>
   </g>
   <g id="text_49">
    <text style="font: 10px 'sans-serif'; text-anchor: middle" x="406.393224" y="130.651425" transform="rotate(-0, 406.393224, 130.651425)">15</text>
   </g>
   <g id="text_50">
    <text style="font: 10px 'sans-serif'; text-anchor: middle" x="402.736283" y="90.18405" transform="rotate(-0, 402.736283, 90.18405)">12</text>
   </g>
   <g id="text_51">
    <text style="font: 10px 'sans-serif'; text-anchor: middle" x="374.580102" y="49.716675" transform="rotate(-0, 374.580102, 49.716675)">19</text>
   </g>
   <g id="text_52">
    <text style="font: 10px 'sans-serif'; text-anchor: middle" x="444.421763" y="130.651425" transform="rotate(-0, 444.421763, 130.651425)">5</text>
   </g>
   <g id="text_53">
    <text style="font: 10px 'sans-serif'; text-anchor: middle" x="439.250976" y="90.18405" transform="rotate(-0, 439.250976, 90.18405)">7</text>
   </g>
   <g id="text_54">
    <text style="font: 10px 'sans-serif'; text-anchor: middle" x="432.829192" y="49.716675" transform="rotate(-0, 432.829192, 49.716675)">10</text>
   </g>
   <g id="text_55">
    <text style="font: 12px 'sans-serif'; text-anchor: middle" x="267.842578" y="19.43625" transform="rotate(-0, 267.842578, 19.43625)">Reasons to choose current job: United Kingdom</text>
   </g>
   <g id="legend_1">
    <g id="patch_49">
     <path d="M 54.158984 337.970531 
L 481.526172 337.970531 
Q 483.526172 337.970531 483.526172 335.970531 
L 483.526172 265.123656 
Q 483.526172 263.123656 481.526172 263.123656 
L 54.158984 263.123656 
Q 52.158984 263.123656 52.158984 265.123656 
L 52.158984 335.970531 
Q 52.158984 337.970531 54.158984 337.970531 
z
" style="fill: #ffffff; opacity: 0.8; stroke: #cccccc; stroke-linejoin: miter"/>
    </g>
    <g id="patch_50">
     <path d="M 56.158984 274.297094 
L 76.158984 274.297094 
L 76.158984 267.297094 
L 56.158984 267.297094 
z
" style="fill: #1f77b4"/>
    </g>
    <g id="text_56">
     <text style="font: 10px 'sans-serif'; text-anchor: start" x="84.158984" y="274.297094" transform="rotate(-0, 84.158984, 274.297094)">Desire to work in a research environment</text>
    </g>
    <g id="patch_51">
     <path d="M 56.158984 288.750219 
L 76.158984 288.750219 
L 76.158984 281.750219 
L 56.158984 281.750219 
z
" style="fill: #ff7f0e"/>
    </g>
    <g id="text_57">
     <text style="font: 10px 'sans-serif'; text-anchor: start" x="84.158984" y="288.750219" transform="rotate(-0, 84.158984, 288.750219)">Opportunity to develop software</text>
    </g>
    <g id="patch_52">
     <path d="M 56.158984 303.067406 
L 76.158984 303.067406 
L 76.158984 296.067406 
L 56.158984 296.067406 
z
" style="fill: #2ca02c"/>
    </g>
    <g id="text_58">
     <text style="font: 10px 'sans-serif'; text-anchor: start" x="84.158984" y="303.067406" transform="rotate(-0, 84.158984, 303.067406)">Desire to advance research</text>
    </g>
    <g id="patch_53">
     <path d="M 56.158984 317.348656 
L 76.158984 317.348656 
L 76.158984 310.348656 
L 56.158984 310.348656 
z
" style="fill: #d62728"/>
    </g>
    <g id="text_59">
     <text style="font: 10px 'sans-serif'; text-anchor: start" x="84.158984" y="317.348656" transform="rotate(-0, 84.158984, 317.348656)">Freedom to choose own working practices</text>
    </g>
    <g id="patch_54">
     <path d="M 56.158984 331.758031 
L 76.158984 331.758031 
L 76.158984 324.758031 
L 56.158984 324.758031 
z
" style="fill: #9467bd"/>
    </g>
    <g id="text_60">
     <text style="font: 10px 'sans-serif'; text-anchor: start" x="84.158984" y="331.758031" transform="rotate(-0, 84.158984, 331.758031)">Flexible working hours</text>
    </g>
    <g id="patch_55">
     <path d="M 291.455859 274.297094 
L 311.455859 274.297094 
L 311.455859 267.297094 
L 291.455859 267.297094 
z
" style="fill: #8c564b"/>
    </g>
    <g id="text_61">
     <text style="font: 10px 'sans-serif'; text-anchor: start" x="319.455859" y="274.297094" transform="rotate(-0, 319.455859, 274.297094)">I want to learn new skills</text>
    </g>
    <g id="patch_56">
     <path d="M 291.455859 288.750219 
L 311.455859 288.750219 
L 311.455859 281.750219 
L 291.455859 281.750219 
z
" style="fill: #e377c2"/>
    </g>
    <g id="text_62">
     <text style="font: 10px 'sans-serif'; text-anchor: start" x="319.455859" y="288.750219" transform="rotate(-0, 319.455859, 288.750219)">Opportunity for career advancement</text>
    </g>
    <g id="patch_57">
     <path d="M 291.455859 303.090844 
L 311.455859 303.090844 
L 311.455859 296.090844 
L 291.455859 296.090844 
z
" style="fill: #7f7f7f"/>
    </g>
    <g id="text_63">
     <text style="font: 10px 'sans-serif'; text-anchor: start" x="319.455859" y="303.090844" transform="rotate(-0, 319.455859, 303.090844)">Ability to work across disciplines</text>
    </g>
    <g id="patch_58">
     <path d="M 291.455859 317.431469 
L 311.455859 317.431469 
L 311.455859 310.431469 
L 291.455859 310.431469 
z
" style="fill: #bcbd22"/>
    </g>
    <g id="text_64">
     <text style="font: 10px 'sans-serif'; text-anchor: start" x="319.455859" y="317.431469" transform="rotate(-0, 319.455859, 317.431469)">The salary</text>
    </g>
   </g>
  </g>
 </g>
 <defs>
  <clipPath id="p0e96e39e1f">
   <rect x="62.86875" y="25.43625" width="409.947656" height="202.336875"/>
  </clipPath>
 </defs>
</svg>
