<?xml version="1.0" encoding="utf-8" standalone="no"?>
<!DOCTYPE svg PUBLIC "-//W3C//DTD SVG 1.1//EN"
  "http://www.w3.org/Graphics/SVG/1.1/DTD/svg11.dtd">
<svg xmlns:xlink="http://www.w3.org/1999/xlink" width="504pt" height="360pt" viewBox="0 0 504 360" xmlns="http://www.w3.org/2000/svg" version="1.1">
 <metadata>
  <rdf:RDF xmlns:dc="http://purl.org/dc/elements/1.1/" xmlns:cc="http://creativecommons.org/ns#" xmlns:rdf="http://www.w3.org/1999/02/22-rdf-syntax-ns#">
   <cc:Work>
    <dc:type rdf:resource="http://purl.org/dc/dcmitype/StillImage"/>
    <dc:date>2022-03-21T16:07:35.098634</dc:date>
    <dc:format>image/svg+xml</dc:format>
    <dc:creator>
     <cc:Agent>
      <dc:title>Matplotlib v3.5.1, https://matplotlib.org/</dc:title>
     </cc:Agent>
    </dc:creator>
   </cc:Work>
  </rdf:RDF>
 </metadata>
 <defs>
  <style type="text/css">*{stroke-linejoin: round; stroke-linecap: butt}</style>
 </defs>
 <g id="figure_1">
  <g id="patch_1">
   <path d="M 0 360 
L 504 360 
L 504 0 
L 0 0 
z
" style="fill: #ffffff"/>
  </g>
  <g id="axes_1">
   <g id="patch_2">
    <path d="M 62.86875 238.114287 
L 491.022656 238.114287 
L 491.022656 25.43625 
L 62.86875 25.43625 
z
" style="fill: #ffffff"/>
   </g>
   <g id="patch_3">
    <path d="M 62.86875 227.480385 
L 181.252319 227.480385 
L 181.252319 206.212581 
L 62.86875 206.212581 
z
" clip-path="url(#pd43cd8dd7d)" style="fill: #1f77b4"/>
   </g>
   <g id="patch_4">
    <path d="M 62.86875 184.944777 
L 130.829687 184.944777 
L 130.829687 163.676974 
L 62.86875 163.676974 
z
" clip-path="url(#pd43cd8dd7d)" style="fill: #1f77b4"/>
   </g>
   <g id="patch_5">
    <path d="M 62.86875 142.40917 
L 133.173168 142.40917 
L 133.173168 121.141366 
L 62.86875 121.141366 
z
" clip-path="url(#pd43cd8dd7d)" style="fill: #1f77b4"/>
   </g>
   <g id="patch_6">
    <path d="M 62.86875 99.873563 
L 77.971181 99.873563 
L 77.971181 78.605759 
L 62.86875 78.605759 
z
" clip-path="url(#pd43cd8dd7d)" style="fill: #1f77b4"/>
   </g>
   <g id="patch_7">
    <path d="M 62.86875 57.337955 
L 62.86875 57.337955 
L 62.86875 36.070152 
L 62.86875 36.070152 
z
" clip-path="url(#pd43cd8dd7d)" style="fill: #1f77b4"/>
   </g>
   <g id="patch_8">
    <path d="M 181.252319 227.480385 
L 286.482157 227.480385 
L 286.482157 206.212581 
L 181.252319 206.212581 
z
" clip-path="url(#pd43cd8dd7d)" style="fill: #ff7f0e"/>
   </g>
   <g id="patch_9">
    <path d="M 130.829687 184.944777 
L 212.382812 184.944777 
L 212.382812 163.676974 
L 130.829687 163.676974 
z
" clip-path="url(#pd43cd8dd7d)" style="fill: #ff7f0e"/>
   </g>
   <g id="patch_10">
    <path d="M 133.173168 142.40917 
L 161.294935 142.40917 
L 161.294935 121.141366 
L 133.173168 121.141366 
z
" clip-path="url(#pd43cd8dd7d)" style="fill: #ff7f0e"/>
   </g>
   <g id="patch_11">
    <path d="M 77.971181 99.873563 
L 153.483333 99.873563 
L 153.483333 78.605759 
L 77.971181 78.605759 
z
" clip-path="url(#pd43cd8dd7d)" style="fill: #ff7f0e"/>
   </g>
   <g id="patch_12">
    <path d="M 62.86875 57.337955 
L 84.330099 57.337955 
L 84.330099 36.070152 
L 62.86875 36.070152 
z
" clip-path="url(#pd43cd8dd7d)" style="fill: #ff7f0e"/>
   </g>
   <g id="patch_13">
    <path d="M 286.482157 227.480385 
L 365.404536 227.480385 
L 365.404536 206.212581 
L 286.482157 206.212581 
z
" clip-path="url(#pd43cd8dd7d)" style="fill: #2ca02c"/>
   </g>
   <g id="patch_14">
    <path d="M 212.382812 184.944777 
L 266.751562 184.944777 
L 266.751562 163.676974 
L 212.382812 163.676974 
z
" clip-path="url(#pd43cd8dd7d)" style="fill: #2ca02c"/>
   </g>
   <g id="patch_15">
    <path d="M 161.294935 142.40917 
L 203.477586 142.40917 
L 203.477586 121.141366 
L 161.294935 121.141366 
z
" clip-path="url(#pd43cd8dd7d)" style="fill: #2ca02c"/>
   </g>
   <g id="patch_16">
    <path d="M 153.483333 99.873563 
L 228.995486 99.873563 
L 228.995486 78.605759 
L 153.483333 78.605759 
z
" clip-path="url(#pd43cd8dd7d)" style="fill: #2ca02c"/>
   </g>
   <g id="patch_17">
    <path d="M 84.330099 57.337955 
L 170.175493 57.337955 
L 170.175493 36.070152 
L 84.330099 36.070152 
z
" clip-path="url(#pd43cd8dd7d)" style="fill: #2ca02c"/>
   </g>
   <g id="patch_18">
    <path d="M 365.404536 227.480385 
L 418.019456 227.480385 
L 418.019456 206.212581 
L 365.404536 206.212581 
z
" clip-path="url(#pd43cd8dd7d)" style="fill: #d62728"/>
   </g>
   <g id="patch_19">
    <path d="M 266.751562 184.944777 
L 280.34375 184.944777 
L 280.34375 163.676974 
L 266.751562 163.676974 
z
" clip-path="url(#pd43cd8dd7d)" style="fill: #d62728"/>
   </g>
   <g id="patch_20">
    <path d="M 62.86875 142.40917 
L 62.86875 142.40917 
L 62.86875 121.141366 
L 62.86875 121.141366 
z
" clip-path="url(#pd43cd8dd7d)" style="fill: #d62728"/>
   </g>
   <g id="patch_21">
    <path d="M 62.86875 99.873563 
L 62.86875 99.873563 
L 62.86875 78.605759 
L 62.86875 78.605759 
z
" clip-path="url(#pd43cd8dd7d)" style="fill: #d62728"/>
   </g>
   <g id="patch_22">
    <path d="M 170.175493 57.337955 
L 234.559539 57.337955 
L 234.559539 36.070152 
L 170.175493 36.070152 
z
" clip-path="url(#pd43cd8dd7d)" style="fill: #d62728"/>
   </g>
   <g id="patch_23">
    <path d="M 418.019456 227.480385 
L 457.480645 227.480385 
L 457.480645 206.212581 
L 418.019456 206.212581 
z
" clip-path="url(#pd43cd8dd7d)" style="fill: #9467bd"/>
   </g>
   <g id="patch_24">
    <path d="M 280.34375 184.944777 
L 334.7125 184.944777 
L 334.7125 163.676974 
L 280.34375 163.676974 
z
" clip-path="url(#pd43cd8dd7d)" style="fill: #9467bd"/>
   </g>
   <g id="patch_25">
    <path d="M 203.477586 142.40917 
L 231.599353 142.40917 
L 231.599353 121.141366 
L 203.477586 121.141366 
z
" clip-path="url(#pd43cd8dd7d)" style="fill: #9467bd"/>
   </g>
   <g id="patch_26">
    <path d="M 228.995486 99.873563 
L 274.302778 99.873563 
L 274.302778 78.605759 
L 228.995486 78.605759 
z
" clip-path="url(#pd43cd8dd7d)" style="fill: #9467bd"/>
   </g>
   <g id="patch_27">
    <path d="M 234.559539 57.337955 
L 320.404934 57.337955 
L 320.404934 36.070152 
L 234.559539 36.070152 
z
" clip-path="url(#pd43cd8dd7d)" style="fill: #9467bd"/>
   </g>
   <g id="patch_28">
    <path d="M 457.480645 227.480385 
L 470.634375 227.480385 
L 470.634375 206.212581 
L 457.480645 206.212581 
z
" clip-path="url(#pd43cd8dd7d)" style="fill: #8c564b"/>
   </g>
   <g id="patch_29">
    <path d="M 334.7125 184.944777 
L 375.489062 184.944777 
L 375.489062 163.676974 
L 334.7125 163.676974 
z
" clip-path="url(#pd43cd8dd7d)" style="fill: #8c564b"/>
   </g>
   <g id="patch_30">
    <path d="M 231.599353 142.40917 
L 315.964655 142.40917 
L 315.964655 121.141366 
L 231.599353 121.141366 
z
" clip-path="url(#pd43cd8dd7d)" style="fill: #8c564b"/>
   </g>
   <g id="patch_31">
    <path d="M 274.302778 99.873563 
L 304.507639 99.873563 
L 304.507639 78.605759 
L 274.302778 78.605759 
z
" clip-path="url(#pd43cd8dd7d)" style="fill: #8c564b"/>
   </g>
   <g id="patch_32">
    <path d="M 320.404934 57.337955 
L 363.327632 57.337955 
L 363.327632 36.070152 
L 320.404934 36.070152 
z
" clip-path="url(#pd43cd8dd7d)" style="fill: #8c564b"/>
   </g>
   <g id="patch_33">
    <path d="M 62.86875 227.480385 
L 62.86875 227.480385 
L 62.86875 206.212581 
L 62.86875 206.212581 
z
" clip-path="url(#pd43cd8dd7d)" style="fill: #e377c2"/>
   </g>
   <g id="patch_34">
    <path d="M 375.489063 184.944777 
L 416.265625 184.944777 
L 416.265625 163.676974 
L 375.489063 163.676974 
z
" clip-path="url(#pd43cd8dd7d)" style="fill: #e377c2"/>
   </g>
   <g id="patch_35">
    <path d="M 315.964655 142.40917 
L 344.086422 142.40917 
L 344.086422 121.141366 
L 315.964655 121.141366 
z
" clip-path="url(#pd43cd8dd7d)" style="fill: #e377c2"/>
   </g>
   <g id="patch_36">
    <path d="M 304.507639 99.873563 
L 395.122222 99.873563 
L 395.122222 78.605759 
L 304.507639 78.605759 
z
" clip-path="url(#pd43cd8dd7d)" style="fill: #e377c2"/>
   </g>
   <g id="patch_37">
    <path d="M 363.327632 57.337955 
L 406.250329 57.337955 
L 406.250329 36.070152 
L 363.327632 36.070152 
z
" clip-path="url(#pd43cd8dd7d)" style="fill: #e377c2"/>
   </g>
   <g id="patch_38">
    <path d="M 62.86875 227.480385 
L 62.86875 227.480385 
L 62.86875 206.212581 
L 62.86875 206.212581 
z
" clip-path="url(#pd43cd8dd7d)" style="fill: #7f7f7f"/>
   </g>
   <g id="patch_39">
    <path d="M 416.265625 184.944777 
L 443.45 184.944777 
L 443.45 163.676974 
L 416.265625 163.676974 
z
" clip-path="url(#pd43cd8dd7d)" style="fill: #7f7f7f"/>
   </g>
   <g id="patch_40">
    <path d="M 344.086422 142.40917 
L 428.451724 142.40917 
L 428.451724 121.141366 
L 344.086422 121.141366 
z
" clip-path="url(#pd43cd8dd7d)" style="fill: #7f7f7f"/>
   </g>
   <g id="patch_41">
    <path d="M 395.122222 99.873563 
L 470.634375 99.873563 
L 470.634375 78.605759 
L 395.122222 78.605759 
z
" clip-path="url(#pd43cd8dd7d)" style="fill: #7f7f7f"/>
   </g>
   <g id="patch_42">
    <path d="M 406.250329 57.337955 
L 449.173026 57.337955 
L 449.173026 36.070152 
L 406.250329 36.070152 
z
" clip-path="url(#pd43cd8dd7d)" style="fill: #7f7f7f"/>
   </g>
   <g id="patch_43">
    <path d="M 62.86875 227.480385 
L 62.86875 227.480385 
L 62.86875 206.212581 
L 62.86875 206.212581 
z
" clip-path="url(#pd43cd8dd7d)" style="fill: #bcbd22"/>
   </g>
   <g id="patch_44">
    <path d="M 443.45 184.944777 
L 470.634375 184.944777 
L 470.634375 163.676974 
L 443.45 163.676974 
z
" clip-path="url(#pd43cd8dd7d)" style="fill: #bcbd22"/>
   </g>
   <g id="patch_45">
    <path d="M 428.451724 142.40917 
L 470.634375 142.40917 
L 470.634375 121.141366 
L 428.451724 121.141366 
z
" clip-path="url(#pd43cd8dd7d)" style="fill: #bcbd22"/>
   </g>
   <g id="patch_46">
    <path d="M 62.86875 99.873563 
L 62.86875 99.873563 
L 62.86875 78.605759 
L 62.86875 78.605759 
z
" clip-path="url(#pd43cd8dd7d)" style="fill: #bcbd22"/>
   </g>
   <g id="patch_47">
    <path d="M 449.173026 57.337955 
L 470.634375 57.337955 
L 470.634375 36.070152 
L 449.173026 36.070152 
z
" clip-path="url(#pd43cd8dd7d)" style="fill: #bcbd22"/>
   </g>
   <g id="matplotlib.axis_1">
    <g id="xtick_1">
     <g id="line2d_1">
      <defs>
       <path id="m4c99cd72f3" d="M 0 0 
L 0 3.5 
" style="stroke: #000000; stroke-width: 0.8"/>
      </defs>
      <g>
       <use xlink:href="#m4c99cd72f3" x="62.86875" y="238.114287" style="stroke: #000000; stroke-width: 0.8"/>
      </g>
     </g>
     <g id="text_1">
      <text style="font: 10px 'sans-serif'; text-anchor: middle" x="62.86875" y="252.287724" transform="rotate(-0, 62.86875, 252.287724)">0</text>
     </g>
    </g>
    <g id="xtick_2">
     <g id="line2d_2">
      <g>
       <use xlink:href="#m4c99cd72f3" x="144.421875" y="238.114287" style="stroke: #000000; stroke-width: 0.8"/>
      </g>
     </g>
     <g id="text_2">
      <text style="font: 10px 'sans-serif'; text-anchor: middle" x="144.421875" y="252.287724" transform="rotate(-0, 144.421875, 252.287724)">20</text>
     </g>
    </g>
    <g id="xtick_3">
     <g id="line2d_3">
      <g>
       <use xlink:href="#m4c99cd72f3" x="225.975" y="238.114287" style="stroke: #000000; stroke-width: 0.8"/>
      </g>
     </g>
     <g id="text_3">
      <text style="font: 10px 'sans-serif'; text-anchor: middle" x="225.975" y="252.287724" transform="rotate(-0, 225.975, 252.287724)">40</text>
     </g>
    </g>
    <g id="xtick_4">
     <g id="line2d_4">
      <g>
       <use xlink:href="#m4c99cd72f3" x="307.528125" y="238.114287" style="stroke: #000000; stroke-width: 0.8"/>
      </g>
     </g>
     <g id="text_4">
      <text style="font: 10px 'sans-serif'; text-anchor: middle" x="307.528125" y="252.287724" transform="rotate(-0, 307.528125, 252.287724)">60</text>
     </g>
    </g>
    <g id="xtick_5">
     <g id="line2d_5">
      <g>
       <use xlink:href="#m4c99cd72f3" x="389.08125" y="238.114287" style="stroke: #000000; stroke-width: 0.8"/>
      </g>
     </g>
     <g id="text_5">
      <text style="font: 10px 'sans-serif'; text-anchor: middle" x="389.08125" y="252.287724" transform="rotate(-0, 389.08125, 252.287724)">80</text>
     </g>
    </g>
    <g id="xtick_6">
     <g id="line2d_6">
      <g>
       <use xlink:href="#m4c99cd72f3" x="470.634375" y="238.114287" style="stroke: #000000; stroke-width: 0.8"/>
      </g>
     </g>
     <g id="text_6">
      <text style="font: 10px 'sans-serif'; text-anchor: middle" x="470.634375" y="252.287724" transform="rotate(-0, 470.634375, 252.287724)">100</text>
     </g>
    </g>
    <g id="text_7">
     <text style="font: 10px 'sans-serif'; text-anchor: middle" x="276.945703" y="265.647099" transform="rotate(-0, 276.945703, 265.647099)">Ranking of importance</text>
    </g>
   </g>
   <g id="matplotlib.axis_2">
    <g id="ytick_1">
     <g id="line2d_7">
      <defs>
       <path id="m8e343aef83" d="M 0 0 
L -3.5 0 
" style="stroke: #000000; stroke-width: 0.8"/>
      </defs>
      <g>
       <use xlink:href="#m8e343aef83" x="62.86875" y="216.846483" style="stroke: #000000; stroke-width: 0.8"/>
      </g>
     </g>
     <g id="text_8">
      <text style="font: 10px 'sans-serif'; text-anchor: end" x="55.86875" y="220.433202" transform="rotate(-0, 55.86875, 220.433202)">Rank 1</text>
     </g>
    </g>
    <g id="ytick_2">
     <g id="line2d_8">
      <g>
       <use xlink:href="#m8e343aef83" x="62.86875" y="174.310876" style="stroke: #000000; stroke-width: 0.8"/>
      </g>
     </g>
     <g id="text_9">
      <text style="font: 10px 'sans-serif'; text-anchor: end" x="55.86875" y="177.897594" transform="rotate(-0, 55.86875, 177.897594)">Rank 2</text>
     </g>
    </g>
    <g id="ytick_3">
     <g id="line2d_9">
      <g>
       <use xlink:href="#m8e343aef83" x="62.86875" y="131.775268" style="stroke: #000000; stroke-width: 0.8"/>
      </g>
     </g>
     <g id="text_10">
      <text style="font: 10px 'sans-serif'; text-anchor: end" x="55.86875" y="135.361987" transform="rotate(-0, 55.86875, 135.361987)">Rank 3</text>
     </g>
    </g>
    <g id="ytick_4">
     <g id="line2d_10">
      <g>
       <use xlink:href="#m8e343aef83" x="62.86875" y="89.239661" style="stroke: #000000; stroke-width: 0.8"/>
      </g>
     </g>
     <g id="text_11">
      <text style="font: 10px 'sans-serif'; text-anchor: end" x="55.86875" y="92.82638" transform="rotate(-0, 55.86875, 92.82638)">Rank 4</text>
     </g>
    </g>
    <g id="ytick_5">
     <g id="line2d_11">
      <g>
       <use xlink:href="#m8e343aef83" x="62.86875" y="46.704054" style="stroke: #000000; stroke-width: 0.8"/>
      </g>
     </g>
     <g id="text_12">
      <text style="font: 10px 'sans-serif'; text-anchor: end" x="55.86875" y="50.290772" transform="rotate(-0, 55.86875, 50.290772)">Rank 5</text>
     </g>
    </g>
    <g id="text_13">
     <text style="font: 10px 'sans-serif'; text-anchor: middle" x="17.973438" y="131.775268" transform="rotate(-90, 17.973438, 131.775268)">Percentage</text>
    </g>
   </g>
   <g id="patch_48">
    <path d="M 62.86875 238.114287 
L 491.022656 238.114287 
" style="fill: none; stroke: #000000; stroke-width: 0.8; stroke-linejoin: miter; stroke-linecap: square"/>
   </g>
   <g id="text_14">
    <text style="font: 10px 'sans-serif'; text-anchor: middle" x="122.060534" y="221.100044" transform="rotate(-0, 122.060534, 221.100044)">29</text>
   </g>
   <g id="text_15">
    <text style="font: 10px 'sans-serif'; text-anchor: middle" x="96.849219" y="178.564436" transform="rotate(-0, 96.849219, 178.564436)">17</text>
   </g>
   <g id="text_16">
    <text style="font: 10px 'sans-serif'; text-anchor: middle" x="98.020959" y="136.028829" transform="rotate(-0, 98.020959, 136.028829)">17</text>
   </g>
   <g id="text_17">
    <text style="font: 10px 'sans-serif'; text-anchor: middle" x="233.867238" y="221.100044" transform="rotate(-0, 233.867238, 221.100044)">26</text>
   </g>
   <g id="text_18">
    <text style="font: 10px 'sans-serif'; text-anchor: middle" x="171.60625" y="178.564436" transform="rotate(-0, 171.60625, 178.564436)">20</text>
   </g>
   <g id="text_19">
    <text style="font: 10px 'sans-serif'; text-anchor: middle" x="147.234052" y="136.028829" transform="rotate(-0, 147.234052, 136.028829)">7</text>
   </g>
   <g id="text_20">
    <text style="font: 10px 'sans-serif'; text-anchor: middle" x="115.727257" y="93.493222" transform="rotate(-0, 115.727257, 93.493222)">19</text>
   </g>
   <g id="text_21">
    <text style="font: 10px 'sans-serif'; text-anchor: middle" x="73.599424" y="50.957614" transform="rotate(-0, 73.599424, 50.957614)">5</text>
   </g>
   <g id="text_22">
    <text style="font: 10px 'sans-serif'; text-anchor: middle" x="325.943347" y="221.100044" transform="rotate(-0, 325.943347, 221.100044)">19</text>
   </g>
   <g id="text_23">
    <text style="font: 10px 'sans-serif'; text-anchor: middle" x="239.567187" y="178.564436" transform="rotate(-0, 239.567187, 178.564436)">13</text>
   </g>
   <g id="text_24">
    <text style="font: 10px 'sans-serif'; text-anchor: middle" x="182.386261" y="136.028829" transform="rotate(-0, 182.386261, 136.028829)">10</text>
   </g>
   <g id="text_25">
    <text style="font: 10px 'sans-serif'; text-anchor: middle" x="191.23941" y="93.493222" transform="rotate(-0, 191.23941, 93.493222)">19</text>
   </g>
   <g id="text_26">
    <text style="font: 10px 'sans-serif'; text-anchor: middle" x="127.252796" y="50.957614" transform="rotate(-0, 127.252796, 50.957614)">21</text>
   </g>
   <g id="text_27">
    <text style="font: 10px 'sans-serif'; text-anchor: middle" x="391.711996" y="221.100044" transform="rotate(-0, 391.711996, 221.100044)">13</text>
   </g>
   <g id="text_28">
    <text style="font: 10px 'sans-serif'; text-anchor: middle" x="202.367516" y="50.957614" transform="rotate(-0, 202.367516, 50.957614)">16</text>
   </g>
   <g id="text_29">
    <text style="font: 10px 'sans-serif'; text-anchor: middle" x="437.75005" y="221.100044" transform="rotate(-0, 437.75005, 221.100044)">10</text>
   </g>
   <g id="text_30">
    <text style="font: 10px 'sans-serif'; text-anchor: middle" x="307.528125" y="178.564436" transform="rotate(-0, 307.528125, 178.564436)">13</text>
   </g>
   <g id="text_31">
    <text style="font: 10px 'sans-serif'; text-anchor: middle" x="217.53847" y="136.028829" transform="rotate(-0, 217.53847, 136.028829)">7</text>
   </g>
   <g id="text_32">
    <text style="font: 10px 'sans-serif'; text-anchor: middle" x="251.649132" y="93.493222" transform="rotate(-0, 251.649132, 93.493222)">11</text>
   </g>
   <g id="text_33">
    <text style="font: 10px 'sans-serif'; text-anchor: middle" x="277.482237" y="50.957614" transform="rotate(-0, 277.482237, 50.957614)">21</text>
   </g>
   <g id="text_34">
    <text style="font: 10px 'sans-serif'; text-anchor: middle" x="355.100781" y="178.564436" transform="rotate(-0, 355.100781, 178.564436)">10</text>
   </g>
   <g id="text_35">
    <text style="font: 10px 'sans-serif'; text-anchor: middle" x="273.782004" y="136.028829" transform="rotate(-0, 273.782004, 136.028829)">21</text>
   </g>
   <g id="text_36">
    <text style="font: 10px 'sans-serif'; text-anchor: middle" x="289.405208" y="93.493222" transform="rotate(-0, 289.405208, 93.493222)">7</text>
   </g>
   <g id="text_37">
    <text style="font: 10px 'sans-serif'; text-anchor: middle" x="341.866283" y="50.957614" transform="rotate(-0, 341.866283, 50.957614)">11</text>
   </g>
   <g id="text_38">
    <text style="font: 10px 'sans-serif'; text-anchor: middle" x="395.877344" y="178.564436" transform="rotate(-0, 395.877344, 178.564436)">10</text>
   </g>
   <g id="text_39">
    <text style="font: 10px 'sans-serif'; text-anchor: middle" x="330.025539" y="136.028829" transform="rotate(-0, 330.025539, 136.028829)">7</text>
   </g>
   <g id="text_40">
    <text style="font: 10px 'sans-serif'; text-anchor: middle" x="349.814931" y="93.493222" transform="rotate(-0, 349.814931, 93.493222)">22</text>
   </g>
   <g id="text_41">
    <text style="font: 10px 'sans-serif'; text-anchor: middle" x="384.78898" y="50.957614" transform="rotate(-0, 384.78898, 50.957614)">11</text>
   </g>
   <g id="text_42">
    <text style="font: 10px 'sans-serif'; text-anchor: middle" x="429.857812" y="178.564436" transform="rotate(-0, 429.857812, 178.564436)">7</text>
   </g>
   <g id="text_43">
    <text style="font: 10px 'sans-serif'; text-anchor: middle" x="386.269073" y="136.028829" transform="rotate(-0, 386.269073, 136.028829)">21</text>
   </g>
   <g id="text_44">
    <text style="font: 10px 'sans-serif'; text-anchor: middle" x="432.878299" y="93.493222" transform="rotate(-0, 432.878299, 93.493222)">19</text>
   </g>
   <g id="text_45">
    <text style="font: 10px 'sans-serif'; text-anchor: middle" x="427.711678" y="50.957614" transform="rotate(-0, 427.711678, 50.957614)">11</text>
   </g>
   <g id="text_46">
    <text style="font: 10px 'sans-serif'; text-anchor: middle" x="457.042187" y="178.564436" transform="rotate(-0, 457.042187, 178.564436)">7</text>
   </g>
   <g id="text_47">
    <text style="font: 10px 'sans-serif'; text-anchor: middle" x="449.54305" y="136.028829" transform="rotate(-0, 449.54305, 136.028829)">10</text>
   </g>
   <g id="text_48">
    <text style="font: 10px 'sans-serif'; text-anchor: middle" x="459.903701" y="50.957614" transform="rotate(-0, 459.903701, 50.957614)">5</text>
   </g>
   <g id="text_49">
    <text style="font: 12px 'sans-serif'; text-anchor: middle" x="276.945703" y="19.43625" transform="rotate(-0, 276.945703, 19.43625)">Reasons to choose current job: Australia</text>
   </g>
   <g id="legend_1">
    <g id="patch_49">
     <path d="M 63.262109 349.734742 
L 490.629297 349.734742 
Q 492.629297 349.734742 492.629297 347.734742 
L 492.629297 277.015992 
Q 492.629297 275.015992 490.629297 275.015992 
L 63.262109 275.015992 
Q 61.262109 275.015992 61.262109 277.015992 
L 61.262109 347.734742 
Q 61.262109 349.734742 63.262109 349.734742 
z
" style="fill: #ffffff; opacity: 0.8; stroke: #cccccc; stroke-linejoin: miter"/>
    </g>
    <g id="patch_50">
     <path d="M 65.262109 286.384742 
L 85.262109 286.384742 
L 85.262109 279.384742 
L 65.262109 279.384742 
z
" style="fill: #1f77b4"/>
    </g>
    <g id="text_50">
     <text style="font: 10px 'sans-serif'; text-anchor: start" x="93.262109" y="286.384742" transform="rotate(-0, 93.262109, 286.384742)">Desire to work in a research environment</text>
    </g>
    <g id="patch_51">
     <path d="M 65.262109 300.642555 
L 85.262109 300.642555 
L 85.262109 293.642555 
L 65.262109 293.642555 
z
" style="fill: #ff7f0e"/>
    </g>
    <g id="text_51">
     <text style="font: 10px 'sans-serif'; text-anchor: start" x="93.262109" y="300.642555" transform="rotate(-0, 93.262109, 300.642555)">Desire to advance research</text>
    </g>
    <g id="patch_52">
     <path d="M 65.262109 314.923805 
L 85.262109 314.923805 
L 85.262109 307.923805 
L 65.262109 307.923805 
z
" style="fill: #2ca02c"/>
    </g>
    <g id="text_52">
     <text style="font: 10px 'sans-serif'; text-anchor: start" x="93.262109" y="314.923805" transform="rotate(-0, 93.262109, 314.923805)">Freedom to choose own working practices</text>
    </g>
    <g id="patch_53">
     <path d="M 65.262109 329.33318 
L 85.262109 329.33318 
L 85.262109 322.33318 
L 65.262109 322.33318 
z
" style="fill: #d62728"/>
    </g>
    <g id="text_53">
     <text style="font: 10px 'sans-serif'; text-anchor: start" x="93.262109" y="329.33318" transform="rotate(-0, 93.262109, 329.33318)">The salary</text>
    </g>
    <g id="patch_54">
     <path d="M 65.262109 343.650367 
L 85.262109 343.650367 
L 85.262109 336.650367 
L 65.262109 336.650367 
z
" style="fill: #9467bd"/>
    </g>
    <g id="text_54">
     <text style="font: 10px 'sans-serif'; text-anchor: start" x="93.262109" y="343.650367" transform="rotate(-0, 93.262109, 343.650367)">I want to learn new skills</text>
    </g>
    <g id="patch_55">
     <path d="M 300.558984 286.384742 
L 320.558984 286.384742 
L 320.558984 279.384742 
L 300.558984 279.384742 
z
" style="fill: #8c564b"/>
    </g>
    <g id="text_55">
     <text style="font: 10px 'sans-serif'; text-anchor: start" x="328.558984" y="286.384742" transform="rotate(-0, 328.558984, 286.384742)">Opportunity to develop software</text>
    </g>
    <g id="patch_56">
     <path d="M 300.558984 300.725367 
L 320.558984 300.725367 
L 320.558984 293.725367 
L 300.558984 293.725367 
z
" style="fill: #e377c2"/>
    </g>
    <g id="text_56">
     <text style="font: 10px 'sans-serif'; text-anchor: start" x="328.558984" y="300.725367" transform="rotate(-0, 328.558984, 300.725367)">Ability to work across disciplines</text>
    </g>
    <g id="patch_57">
     <path d="M 300.558984 315.065992 
L 320.558984 315.065992 
L 320.558984 308.065992 
L 300.558984 308.065992 
z
" style="fill: #7f7f7f"/>
    </g>
    <g id="text_57">
     <text style="font: 10px 'sans-serif'; text-anchor: start" x="328.558984" y="315.065992" transform="rotate(-0, 328.558984, 315.065992)">Flexible working hours</text>
    </g>
    <g id="patch_58">
     <path d="M 300.558984 329.647242 
L 320.558984 329.647242 
L 320.558984 322.647242 
L 300.558984 322.647242 
z
" style="fill: #bcbd22"/>
    </g>
    <g id="text_58">
     <text style="font: 10px 'sans-serif'; text-anchor: start" x="328.558984" y="329.647242" transform="rotate(-0, 328.558984, 329.647242)">Opportunity for career advancement</text>
    </g>
   </g>
  </g>
 </g>
 <defs>
  <clipPath id="pd43cd8dd7d">
   <rect x="62.86875" y="25.43625" width="428.153906" height="212.678037"/>
  </clipPath>
 </defs>
</svg>
