<?xml version="1.0" encoding="utf-8" standalone="no"?>
<!DOCTYPE svg PUBLIC "-//W3C//DTD SVG 1.1//EN"
  "http://www.w3.org/Graphics/SVG/1.1/DTD/svg11.dtd">
<svg xmlns:xlink="http://www.w3.org/1999/xlink" width="504pt" height="360pt" viewBox="0 0 504 360" xmlns="http://www.w3.org/2000/svg" version="1.1">
 <metadata>
  <rdf:RDF xmlns:dc="http://purl.org/dc/elements/1.1/" xmlns:cc="http://creativecommons.org/ns#" xmlns:rdf="http://www.w3.org/1999/02/22-rdf-syntax-ns#">
   <cc:Work>
    <dc:type rdf:resource="http://purl.org/dc/dcmitype/StillImage"/>
    <dc:date>2022-03-18T10:06:49.274453</dc:date>
    <dc:format>image/svg+xml</dc:format>
    <dc:creator>
     <cc:Agent>
      <dc:title>Matplotlib v3.5.1, https://matplotlib.org/</dc:title>
     </cc:Agent>
    </dc:creator>
   </cc:Work>
  </rdf:RDF>
 </metadata>
 <defs>
  <style type="text/css">*{stroke-linejoin: round; stroke-linecap: butt}</style>
 </defs>
 <g id="figure_1">
  <g id="patch_1">
   <path d="M 0 360 
L 504 360 
L 504 0 
L 0 0 
z
" style="fill: #ffffff"/>
  </g>
  <g id="axes_1">
   <g id="patch_2">
    <path d="M 62.86875 256.568437 
L 475.321094 256.568437 
L 475.321094 25.6425 
L 62.86875 25.6425 
z
" style="fill: #ffffff"/>
   </g>
   <g id="patch_3">
    <path d="M 62.86875 245.022141 
L 455.680506 245.022141 
L 455.680506 221.929547 
L 62.86875 221.929547 
z
" clip-path="url(#p5efa16eb64)" style="fill: #1f77b4"/>
   </g>
   <g id="patch_4">
    <path d="M 62.86875 198.836953 
L 62.86875 198.836953 
L 62.86875 175.744359 
L 62.86875 175.744359 
z
" clip-path="url(#p5efa16eb64)" style="fill: #1f77b4"/>
   </g>
   <g id="patch_5">
    <path d="M 62.86875 152.651766 
L 62.86875 152.651766 
L 62.86875 129.559172 
L 62.86875 129.559172 
z
" clip-path="url(#p5efa16eb64)" style="fill: #1f77b4"/>
   </g>
   <g id="patch_6">
    <path d="M 62.86875 106.466578 
L 62.86875 106.466578 
L 62.86875 83.373984 
L 62.86875 83.373984 
z
" clip-path="url(#p5efa16eb64)" style="fill: #1f77b4"/>
   </g>
   <g id="patch_7">
    <path d="M 62.86875 60.281391 
L 62.86875 60.281391 
L 62.86875 37.188797 
L 62.86875 37.188797 
z
" clip-path="url(#p5efa16eb64)" style="fill: #1f77b4"/>
   </g>
   <g id="patch_8">
    <path d="M 62.86875 245.022141 
L 62.86875 245.022141 
L 62.86875 221.929547 
L 62.86875 221.929547 
z
" clip-path="url(#p5efa16eb64)" style="fill: #ff7f0e"/>
   </g>
   <g id="patch_9">
    <path d="M 62.86875 198.836953 
L 62.86875 198.836953 
L 62.86875 175.744359 
L 62.86875 175.744359 
z
" clip-path="url(#p5efa16eb64)" style="fill: #ff7f0e"/>
   </g>
   <g id="patch_10">
    <path d="M 62.86875 152.651766 
L 62.86875 152.651766 
L 62.86875 129.559172 
L 62.86875 129.559172 
z
" clip-path="url(#p5efa16eb64)" style="fill: #ff7f0e"/>
   </g>
   <g id="patch_11">
    <path d="M 62.86875 106.466578 
L 259.274628 106.466578 
L 259.274628 83.373984 
L 62.86875 83.373984 
z
" clip-path="url(#p5efa16eb64)" style="fill: #ff7f0e"/>
   </g>
   <g id="patch_12">
    <path d="M 62.86875 60.281391 
L 259.274628 60.281391 
L 259.274628 37.188797 
L 62.86875 37.188797 
z
" clip-path="url(#p5efa16eb64)" style="fill: #ff7f0e"/>
   </g>
   <g id="patch_13">
    <path d="M 62.86875 245.022141 
L 62.86875 245.022141 
L 62.86875 221.929547 
L 62.86875 221.929547 
z
" clip-path="url(#p5efa16eb64)" style="fill: #2ca02c"/>
   </g>
   <g id="patch_14">
    <path d="M 62.86875 198.836953 
L 62.86875 198.836953 
L 62.86875 175.744359 
L 62.86875 175.744359 
z
" clip-path="url(#p5efa16eb64)" style="fill: #2ca02c"/>
   </g>
   <g id="patch_15">
    <path d="M 62.86875 152.651766 
L 62.86875 152.651766 
L 62.86875 129.559172 
L 62.86875 129.559172 
z
" clip-path="url(#p5efa16eb64)" style="fill: #2ca02c"/>
   </g>
   <g id="patch_16">
    <path d="M 259.274628 106.466578 
L 455.680506 106.466578 
L 455.680506 83.373984 
L 259.274628 83.373984 
z
" clip-path="url(#p5efa16eb64)" style="fill: #2ca02c"/>
   </g>
   <g id="patch_17">
    <path d="M 259.274628 60.281391 
L 455.680506 60.281391 
L 455.680506 37.188797 
L 259.274628 37.188797 
z
" clip-path="url(#p5efa16eb64)" style="fill: #2ca02c"/>
   </g>
   <g id="patch_18">
    <path d="M 62.86875 245.022141 
L 62.86875 245.022141 
L 62.86875 221.929547 
L 62.86875 221.929547 
z
" clip-path="url(#p5efa16eb64)" style="fill: #d62728"/>
   </g>
   <g id="patch_19">
    <path d="M 62.86875 198.836953 
L 62.86875 198.836953 
L 62.86875 175.744359 
L 62.86875 175.744359 
z
" clip-path="url(#p5efa16eb64)" style="fill: #d62728"/>
   </g>
   <g id="patch_20">
    <path d="M 62.86875 152.651766 
L 455.680506 152.651766 
L 455.680506 129.559172 
L 62.86875 129.559172 
z
" clip-path="url(#p5efa16eb64)" style="fill: #d62728"/>
   </g>
   <g id="patch_21">
    <path d="M 62.86875 106.466578 
L 62.86875 106.466578 
L 62.86875 83.373984 
L 62.86875 83.373984 
z
" clip-path="url(#p5efa16eb64)" style="fill: #d62728"/>
   </g>
   <g id="patch_22">
    <path d="M 62.86875 60.281391 
L 62.86875 60.281391 
L 62.86875 37.188797 
L 62.86875 37.188797 
z
" clip-path="url(#p5efa16eb64)" style="fill: #d62728"/>
   </g>
   <g id="patch_23">
    <path d="M 62.86875 245.022141 
L 62.86875 245.022141 
L 62.86875 221.929547 
L 62.86875 221.929547 
z
" clip-path="url(#p5efa16eb64)" style="fill: #9467bd"/>
   </g>
   <g id="patch_24">
    <path d="M 62.86875 198.836953 
L 455.680506 198.836953 
L 455.680506 175.744359 
L 62.86875 175.744359 
z
" clip-path="url(#p5efa16eb64)" style="fill: #9467bd"/>
   </g>
   <g id="patch_25">
    <path d="M 62.86875 152.651766 
L 62.86875 152.651766 
L 62.86875 129.559172 
L 62.86875 129.559172 
z
" clip-path="url(#p5efa16eb64)" style="fill: #9467bd"/>
   </g>
   <g id="patch_26">
    <path d="M 62.86875 106.466578 
L 62.86875 106.466578 
L 62.86875 83.373984 
L 62.86875 83.373984 
z
" clip-path="url(#p5efa16eb64)" style="fill: #9467bd"/>
   </g>
   <g id="patch_27">
    <path d="M 62.86875 60.281391 
L 62.86875 60.281391 
L 62.86875 37.188797 
L 62.86875 37.188797 
z
" clip-path="url(#p5efa16eb64)" style="fill: #9467bd"/>
   </g>
   <g id="matplotlib.axis_1">
    <g id="xtick_1">
     <g id="line2d_1">
      <defs>
       <path id="m4c99cd72f3" d="M 0 0 
L 0 3.5 
" style="stroke: #000000; stroke-width: 0.8"/>
      </defs>
      <g>
       <use xlink:href="#m4c99cd72f3" x="62.86875" y="256.568437" style="stroke: #000000; stroke-width: 0.8"/>
      </g>
     </g>
     <g id="text_1">
      <text style="font: 10px 'sans-serif'; text-anchor: middle" x="62.86875" y="270.741875" transform="rotate(-0, 62.86875, 270.741875)">0</text>
     </g>
    </g>
    <g id="xtick_2">
     <g id="line2d_2">
      <g>
       <use xlink:href="#m4c99cd72f3" x="141.431101" y="256.568437" style="stroke: #000000; stroke-width: 0.8"/>
      </g>
     </g>
     <g id="text_2">
      <text style="font: 10px 'sans-serif'; text-anchor: middle" x="141.431101" y="270.741875" transform="rotate(-0, 141.431101, 270.741875)">20</text>
     </g>
    </g>
    <g id="xtick_3">
     <g id="line2d_3">
      <g>
       <use xlink:href="#m4c99cd72f3" x="219.993452" y="256.568437" style="stroke: #000000; stroke-width: 0.8"/>
      </g>
     </g>
     <g id="text_3">
      <text style="font: 10px 'sans-serif'; text-anchor: middle" x="219.993452" y="270.741875" transform="rotate(-0, 219.993452, 270.741875)">40</text>
     </g>
    </g>
    <g id="xtick_4">
     <g id="line2d_4">
      <g>
       <use xlink:href="#m4c99cd72f3" x="298.555804" y="256.568437" style="stroke: #000000; stroke-width: 0.8"/>
      </g>
     </g>
     <g id="text_4">
      <text style="font: 10px 'sans-serif'; text-anchor: middle" x="298.555804" y="270.741875" transform="rotate(-0, 298.555804, 270.741875)">60</text>
     </g>
    </g>
    <g id="xtick_5">
     <g id="line2d_5">
      <g>
       <use xlink:href="#m4c99cd72f3" x="377.118155" y="256.568437" style="stroke: #000000; stroke-width: 0.8"/>
      </g>
     </g>
     <g id="text_5">
      <text style="font: 10px 'sans-serif'; text-anchor: middle" x="377.118155" y="270.741875" transform="rotate(-0, 377.118155, 270.741875)">80</text>
     </g>
    </g>
    <g id="xtick_6">
     <g id="line2d_6">
      <g>
       <use xlink:href="#m4c99cd72f3" x="455.680506" y="256.568437" style="stroke: #000000; stroke-width: 0.8"/>
      </g>
     </g>
     <g id="text_6">
      <text style="font: 10px 'sans-serif'; text-anchor: middle" x="455.680506" y="270.741875" transform="rotate(-0, 455.680506, 270.741875)">100</text>
     </g>
    </g>
    <g id="text_7">
     <text style="font: 10px 'sans-serif'; text-anchor: middle" x="269.094922" y="284.10125" transform="rotate(-0, 269.094922, 284.10125)">Ranking of importance</text>
    </g>
   </g>
   <g id="matplotlib.axis_2">
    <g id="ytick_1">
     <g id="line2d_7">
      <defs>
       <path id="m8e343aef83" d="M 0 0 
L -3.5 0 
" style="stroke: #000000; stroke-width: 0.8"/>
      </defs>
      <g>
       <use xlink:href="#m8e343aef83" x="62.86875" y="233.475844" style="stroke: #000000; stroke-width: 0.8"/>
      </g>
     </g>
     <g id="text_8">
      <text style="font: 10px 'sans-serif'; text-anchor: end" x="55.86875" y="237.062562" transform="rotate(-0, 55.86875, 237.062562)">Rank 1</text>
     </g>
    </g>
    <g id="ytick_2">
     <g id="line2d_8">
      <g>
       <use xlink:href="#m8e343aef83" x="62.86875" y="187.290656" style="stroke: #000000; stroke-width: 0.8"/>
      </g>
     </g>
     <g id="text_9">
      <text style="font: 10px 'sans-serif'; text-anchor: end" x="55.86875" y="190.877375" transform="rotate(-0, 55.86875, 190.877375)">Rank 2</text>
     </g>
    </g>
    <g id="ytick_3">
     <g id="line2d_9">
      <g>
       <use xlink:href="#m8e343aef83" x="62.86875" y="141.105469" style="stroke: #000000; stroke-width: 0.8"/>
      </g>
     </g>
     <g id="text_10">
      <text style="font: 10px 'sans-serif'; text-anchor: end" x="55.86875" y="144.692187" transform="rotate(-0, 55.86875, 144.692187)">Rank 3</text>
     </g>
    </g>
    <g id="ytick_4">
     <g id="line2d_10">
      <g>
       <use xlink:href="#m8e343aef83" x="62.86875" y="94.920281" style="stroke: #000000; stroke-width: 0.8"/>
      </g>
     </g>
     <g id="text_11">
      <text style="font: 10px 'sans-serif'; text-anchor: end" x="55.86875" y="98.507" transform="rotate(-0, 55.86875, 98.507)">Rank 4</text>
     </g>
    </g>
    <g id="ytick_5">
     <g id="line2d_11">
      <g>
       <use xlink:href="#m8e343aef83" x="62.86875" y="48.735094" style="stroke: #000000; stroke-width: 0.8"/>
      </g>
     </g>
     <g id="text_12">
      <text style="font: 10px 'sans-serif'; text-anchor: end" x="55.86875" y="52.321813" transform="rotate(-0, 55.86875, 52.321813)">Rank 5</text>
     </g>
    </g>
    <g id="text_13">
     <text style="font: 10px 'sans-serif'; text-anchor: middle" x="17.973438" y="141.105469" transform="rotate(-90, 17.973438, 141.105469)">Percentage</text>
    </g>
   </g>
   <g id="patch_28">
    <path d="M 62.86875 256.568437 
L 475.321094 256.568437 
" style="fill: none; stroke: #000000; stroke-width: 0.8; stroke-linejoin: miter; stroke-linecap: square"/>
   </g>
   <g id="text_14">
    <text style="font: 10px 'sans-serif'; text-anchor: middle" x="259.274628" y="238.094362" transform="rotate(-0, 259.274628, 238.094362)">100</text>
   </g>
   <g id="text_15">
    <text style="font: 10px 'sans-serif'; text-anchor: middle" x="161.071689" y="99.5388" transform="rotate(-0, 161.071689, 99.5388)">50</text>
   </g>
   <g id="text_16">
    <text style="font: 10px 'sans-serif'; text-anchor: middle" x="161.071689" y="53.353613" transform="rotate(-0, 161.071689, 53.353613)">50</text>
   </g>
   <g id="text_17">
    <text style="font: 10px 'sans-serif'; text-anchor: middle" x="357.477567" y="99.5388" transform="rotate(-0, 357.477567, 99.5388)">50</text>
   </g>
   <g id="text_18">
    <text style="font: 10px 'sans-serif'; text-anchor: middle" x="357.477567" y="53.353613" transform="rotate(-0, 357.477567, 53.353613)">50</text>
   </g>
   <g id="text_19">
    <text style="font: 10px 'sans-serif'; text-anchor: middle" x="259.274628" y="145.723988" transform="rotate(-0, 259.274628, 145.723988)">100</text>
   </g>
   <g id="text_20">
    <text style="font: 10px 'sans-serif'; text-anchor: middle" x="259.274628" y="191.909175" transform="rotate(-0, 259.274628, 191.909175)">100</text>
   </g>
   <g id="text_21">
    <text style="font: 12px 'sans-serif'; text-anchor: middle" x="269.094922" y="19.6425" transform="rotate(-0, 269.094922, 19.6425)">Reasons to choose current job: South Africa</text>
   </g>
   <g id="legend_1">
    <g id="patch_29">
     <path d="M 57.916016 342.258891 
L 480.273828 342.258891 
Q 482.273828 342.258891 482.273828 340.258891 
L 482.273828 298.207328 
Q 482.273828 296.207328 480.273828 296.207328 
L 57.916016 296.207328 
Q 55.916016 296.207328 55.916016 298.207328 
L 55.916016 340.258891 
Q 55.916016 342.258891 57.916016 342.258891 
z
" style="fill: #ffffff; opacity: 0.8; stroke: #cccccc; stroke-linejoin: miter"/>
    </g>
    <g id="patch_30">
     <path d="M 59.916016 307.576078 
L 79.916016 307.576078 
L 79.916016 300.576078 
L 59.916016 300.576078 
z
" style="fill: #1f77b4"/>
    </g>
    <g id="text_22">
     <text style="font: 10px 'sans-serif'; text-anchor: start" x="87.916016" y="307.576078" transform="rotate(-0, 87.916016, 307.576078)">I want to learn new skills</text>
    </g>
    <g id="patch_31">
     <path d="M 59.916016 321.857328 
L 79.916016 321.857328 
L 79.916016 314.857328 
L 59.916016 314.857328 
z
" style="fill: #ff7f0e"/>
    </g>
    <g id="text_23">
     <text style="font: 10px 'sans-serif'; text-anchor: start" x="87.916016" y="321.857328" transform="rotate(-0, 87.916016, 321.857328)">Ability to work across disciplines</text>
    </g>
    <g id="patch_32">
     <path d="M 59.916016 336.174516 
L 79.916016 336.174516 
L 79.916016 329.174516 
L 59.916016 329.174516 
z
" style="fill: #2ca02c"/>
    </g>
    <g id="text_24">
     <text style="font: 10px 'sans-serif'; text-anchor: start" x="87.916016" y="336.174516" transform="rotate(-0, 87.916016, 336.174516)">Desire to work in a research environment</text>
    </g>
    <g id="patch_33">
     <path d="M 290.203516 307.576078 
L 310.203516 307.576078 
L 310.203516 300.576078 
L 290.203516 300.576078 
z
" style="fill: #d62728"/>
    </g>
    <g id="text_25">
     <text style="font: 10px 'sans-serif'; text-anchor: start" x="318.203516" y="307.576078" transform="rotate(-0, 318.203516, 307.576078)">Opportunity for career advancement</text>
    </g>
    <g id="patch_34">
     <path d="M 290.203516 322.088578 
L 310.203516 322.088578 
L 310.203516 315.088578 
L 290.203516 315.088578 
z
" style="fill: #9467bd"/>
    </g>
    <g id="text_26">
     <text style="font: 10px 'sans-serif'; text-anchor: start" x="318.203516" y="322.088578" transform="rotate(-0, 318.203516, 322.088578)">Opportunity to develop software</text>
    </g>
   </g>
  </g>
 </g>
 <defs>
  <clipPath id="p5efa16eb64">
   <rect x="62.86875" y="25.6425" width="412.452344" height="230.925937"/>
  </clipPath>
 </defs>
</svg>
