<?xml version="1.0" encoding="utf-8" standalone="no"?>
<!DOCTYPE svg PUBLIC "-//W3C//DTD SVG 1.1//EN"
  "http://www.w3.org/Graphics/SVG/1.1/DTD/svg11.dtd">
<svg height="360pt" version="1.1" viewBox="0 0 504 360" width="504pt" xmlns="http://www.w3.org/2000/svg" xmlns:xlink="http://www.w3.org/1999/xlink">
 <metadata>
  <rdf:RDF xmlns:cc="http://creativecommons.org/ns#" xmlns:dc="http://purl.org/dc/elements/1.1/" xmlns:rdf="http://www.w3.org/1999/02/22-rdf-syntax-ns#">
   <cc:Work>
    <dc:type rdf:resource="http://purl.org/dc/dcmitype/StillImage"/>
    <dc:date>2021-03-29T22:00:51.201146</dc:date>
    <dc:format>image/svg+xml</dc:format>
    <dc:creator>
     <cc:Agent>
      <dc:title>Matplotlib v3.4.0, https://matplotlib.org/</dc:title>
     </cc:Agent>
    </dc:creator>
   </cc:Work>
  </rdf:RDF>
 </metadata>
 <defs>
  <style type="text/css">*{stroke-linecap:butt;stroke-linejoin:round;}</style>
 </defs>
 <g id="figure_1">
  <g id="patch_1">
   <path d="M 0 360 
L 504 360 
L 504 0 
L 0 0 
z
" style="fill:#ffffff;"/>
  </g>
  <g id="axes_1">
   <g id="patch_2">
    <path d="M 65.998438 236.433125 
L 443.240781 236.433125 
L 443.240781 25.918125 
L 65.998438 25.918125 
z
" style="fill:#ffffff;"/>
   </g>
   <g id="patch_3">
    <path clip-path="url(#p10665914bd)" d="M 65.998438 225.907375 
L 153.028614 225.907375 
L 153.028614 204.855875 
L 65.998438 204.855875 
z
" style="fill:#1f77b4;"/>
   </g>
   <g id="patch_4">
    <path clip-path="url(#p10665914bd)" d="M 65.998438 183.804375 
L 121.787012 183.804375 
L 121.787012 162.752875 
L 65.998438 162.752875 
z
" style="fill:#1f77b4;"/>
   </g>
   <g id="patch_5">
    <path clip-path="url(#p10665914bd)" d="M 65.998438 141.701375 
L 119.722314 141.701375 
L 119.722314 120.649875 
L 65.998438 120.649875 
z
" style="fill:#1f77b4;"/>
   </g>
   <g id="patch_6">
    <path clip-path="url(#p10665914bd)" d="M 65.998438 99.598375 
L 95.09887 99.598375 
L 95.09887 78.546875 
L 65.998438 78.546875 
z
" style="fill:#1f77b4;"/>
   </g>
   <g id="patch_7">
    <path clip-path="url(#p10665914bd)" d="M 65.998438 57.495375 
L 91.821574 57.495375 
L 91.821574 36.443875 
L 65.998438 36.443875 
z
" style="fill:#1f77b4;"/>
   </g>
   <g id="patch_8">
    <path clip-path="url(#p10665914bd)" d="M 153.028614 225.907375 
L 238.94302 225.907375 
L 238.94302 204.855875 
L 153.028614 204.855875 
z
" style="fill:#ff7f0e;"/>
   </g>
   <g id="patch_9">
    <path clip-path="url(#p10665914bd)" d="M 121.787012 183.804375 
L 182.038673 183.804375 
L 182.038673 162.752875 
L 121.787012 162.752875 
z
" style="fill:#ff7f0e;"/>
   </g>
   <g id="patch_10">
    <path clip-path="url(#p10665914bd)" d="M 119.722314 141.701375 
L 173.44619 141.701375 
L 173.44619 120.649875 
L 119.722314 120.649875 
z
" style="fill:#ff7f0e;"/>
   </g>
   <g id="patch_11">
    <path clip-path="url(#p10665914bd)" d="M 95.09887 99.598375 
L 127.557046 99.598375 
L 127.557046 78.546875 
L 95.09887 78.546875 
z
" style="fill:#ff7f0e;"/>
   </g>
   <g id="patch_12">
    <path clip-path="url(#p10665914bd)" d="M 91.821574 57.495375 
L 140.099612 57.495375 
L 140.099612 36.443875 
L 91.821574 36.443875 
z
" style="fill:#ff7f0e;"/>
   </g>
   <g id="patch_13">
    <path clip-path="url(#p10665914bd)" d="M 238.94302 225.907375 
L 298.078909 225.907375 
L 298.078909 204.855875 
L 238.94302 204.855875 
z
" style="fill:#2ca02c;"/>
   </g>
   <g id="patch_14">
    <path clip-path="url(#p10665914bd)" d="M 182.038673 183.804375 
L 227.785305 183.804375 
L 227.785305 162.752875 
L 182.038673 162.752875 
z
" style="fill:#2ca02c;"/>
   </g>
   <g id="patch_15">
    <path clip-path="url(#p10665914bd)" d="M 173.44619 141.701375 
L 202.546623 141.701375 
L 202.546623 120.649875 
L 173.44619 120.649875 
z
" style="fill:#2ca02c;"/>
   </g>
   <g id="patch_16">
    <path clip-path="url(#p10665914bd)" d="M 127.557046 99.598375 
L 161.134468 99.598375 
L 161.134468 78.546875 
L 127.557046 78.546875 
z
" style="fill:#2ca02c;"/>
   </g>
   <g id="patch_17">
    <path clip-path="url(#p10665914bd)" d="M 140.099612 57.495375 
L 165.922749 57.495375 
L 165.922749 36.443875 
L 140.099612 36.443875 
z
" style="fill:#2ca02c;"/>
   </g>
   <g id="patch_18">
    <path clip-path="url(#p10665914bd)" d="M 298.078909 225.907375 
L 343.825541 225.907375 
L 343.825541 204.855875 
L 298.078909 204.855875 
z
" style="fill:#d62728;"/>
   </g>
   <g id="patch_19">
    <path clip-path="url(#p10665914bd)" d="M 227.785305 183.804375 
L 275.763479 183.804375 
L 275.763479 162.752875 
L 227.785305 162.752875 
z
" style="fill:#d62728;"/>
   </g>
   <g id="patch_20">
    <path clip-path="url(#p10665914bd)" d="M 202.546623 141.701375 
L 257.389747 141.701375 
L 257.389747 120.649875 
L 202.546623 120.649875 
z
" style="fill:#d62728;"/>
   </g>
   <g id="patch_21">
    <path clip-path="url(#p10665914bd)" d="M 161.134468 99.598375 
L 217.09684 99.598375 
L 217.09684 78.546875 
L 161.134468 78.546875 
z
" style="fill:#d62728;"/>
   </g>
   <g id="patch_22">
    <path clip-path="url(#p10665914bd)" d="M 165.922749 57.495375 
L 218.691767 57.495375 
L 218.691767 36.443875 
L 165.922749 36.443875 
z
" style="fill:#d62728;"/>
   </g>
   <g id="patch_23">
    <path clip-path="url(#p10665914bd)" d="M 343.825541 225.907375 
L 373.951371 225.907375 
L 373.951371 204.855875 
L 343.825541 204.855875 
z
" style="fill:#9467bd;"/>
   </g>
   <g id="patch_24">
    <path clip-path="url(#p10665914bd)" d="M 275.763479 183.804375 
L 325.973197 183.804375 
L 325.973197 162.752875 
L 275.763479 162.752875 
z
" style="fill:#9467bd;"/>
   </g>
   <g id="patch_25">
    <path clip-path="url(#p10665914bd)" d="M 257.389747 141.701375 
L 311.113623 141.701375 
L 311.113623 120.649875 
L 257.389747 120.649875 
z
" style="fill:#9467bd;"/>
   </g>
   <g id="patch_26">
    <path clip-path="url(#p10665914bd)" d="M 217.09684 99.598375 
L 255.151252 99.598375 
L 255.151252 78.546875 
L 217.09684 78.546875 
z
" style="fill:#9467bd;"/>
   </g>
   <g id="patch_27">
    <path clip-path="url(#p10665914bd)" d="M 218.691767 57.495375 
L 253.496864 57.495375 
L 253.496864 36.443875 
L 218.691767 36.443875 
z
" style="fill:#9467bd;"/>
   </g>
   <g id="patch_28">
    <path clip-path="url(#p10665914bd)" d="M 373.951371 225.907375 
L 390.687944 225.907375 
L 390.687944 204.855875 
L 373.951371 204.855875 
z
" style="fill:#8c564b;"/>
   </g>
   <g id="patch_29">
    <path clip-path="url(#p10665914bd)" d="M 325.973197 183.804375 
L 340.478226 183.804375 
L 340.478226 162.752875 
L 325.973197 162.752875 
z
" style="fill:#8c564b;"/>
   </g>
   <g id="patch_30">
    <path clip-path="url(#p10665914bd)" d="M 311.113623 141.701375 
L 337.975561 141.701375 
L 337.975561 120.649875 
L 311.113623 120.649875 
z
" style="fill:#8c564b;"/>
   </g>
   <g id="patch_31">
    <path clip-path="url(#p10665914bd)" d="M 255.151252 99.598375 
L 282.01319 99.598375 
L 282.01319 78.546875 
L 255.151252 78.546875 
z
" style="fill:#8c564b;"/>
   </g>
   <g id="patch_32">
    <path clip-path="url(#p10665914bd)" d="M 253.496864 57.495375 
L 279.320001 57.495375 
L 279.320001 36.443875 
L 253.496864 36.443875 
z
" style="fill:#8c564b;"/>
   </g>
   <g id="patch_33">
    <path clip-path="url(#p10665914bd)" d="M 390.687944 225.907375 
L 402.96143 225.907375 
L 402.96143 204.855875 
L 390.687944 204.855875 
z
" style="fill:#e377c2;"/>
   </g>
   <g id="patch_34">
    <path clip-path="url(#p10665914bd)" d="M 340.478226 183.804375 
L 382.877543 183.804375 
L 382.877543 162.752875 
L 340.478226 162.752875 
z
" style="fill:#e377c2;"/>
   </g>
   <g id="patch_35">
    <path clip-path="url(#p10665914bd)" d="M 337.975561 141.701375 
L 370.433736 141.701375 
L 370.433736 120.649875 
L 337.975561 120.649875 
z
" style="fill:#e377c2;"/>
   </g>
   <g id="patch_36">
    <path clip-path="url(#p10665914bd)" d="M 282.01319 99.598375 
L 335.737066 99.598375 
L 335.737066 78.546875 
L 282.01319 78.546875 
z
" style="fill:#e377c2;"/>
   </g>
   <g id="patch_37">
    <path clip-path="url(#p10665914bd)" d="M 279.320001 57.495375 
L 324.229804 57.495375 
L 324.229804 36.443875 
L 279.320001 36.443875 
z
" style="fill:#e377c2;"/>
   </g>
   <g id="patch_38">
    <path clip-path="url(#p10665914bd)" d="M 402.96143 225.907375 
L 415.234917 225.907375 
L 415.234917 204.855875 
L 402.96143 204.855875 
z
" style="fill:#7f7f7f;"/>
   </g>
   <g id="patch_39">
    <path clip-path="url(#p10665914bd)" d="M 382.877543 183.804375 
L 417.46646 183.804375 
L 417.46646 162.752875 
L 382.877543 162.752875 
z
" style="fill:#7f7f7f;"/>
   </g>
   <g id="patch_40">
    <path clip-path="url(#p10665914bd)" d="M 370.433736 141.701375 
L 412.965138 141.701375 
L 412.965138 120.649875 
L 370.433736 120.649875 
z
" style="fill:#7f7f7f;"/>
   </g>
   <g id="patch_41">
    <path clip-path="url(#p10665914bd)" d="M 335.737066 99.598375 
L 398.414922 99.598375 
L 398.414922 78.546875 
L 335.737066 78.546875 
z
" style="fill:#7f7f7f;"/>
   </g>
   <g id="patch_42">
    <path clip-path="url(#p10665914bd)" d="M 324.229804 57.495375 
L 390.471763 57.495375 
L 390.471763 36.443875 
L 324.229804 36.443875 
z
" style="fill:#7f7f7f;"/>
   </g>
   <g id="patch_43">
    <path clip-path="url(#p10665914bd)" d="M 415.234917 225.907375 
L 425.27686 225.907375 
L 425.27686 204.855875 
L 415.234917 204.855875 
z
" style="fill:#bcbd22;"/>
   </g>
   <g id="patch_44">
    <path clip-path="url(#p10665914bd)" d="M 417.46646 183.804375 
L 425.27686 183.804375 
L 425.27686 162.752875 
L 417.46646 162.752875 
z
" style="fill:#bcbd22;"/>
   </g>
   <g id="patch_45">
    <path clip-path="url(#p10665914bd)" d="M 412.965138 141.701375 
L 425.27686 141.701375 
L 425.27686 120.649875 
L 412.965138 120.649875 
z
" style="fill:#bcbd22;"/>
   </g>
   <g id="patch_46">
    <path clip-path="url(#p10665914bd)" d="M 398.414922 99.598375 
L 425.27686 99.598375 
L 425.27686 78.546875 
L 398.414922 78.546875 
z
" style="fill:#bcbd22;"/>
   </g>
   <g id="patch_47">
    <path clip-path="url(#p10665914bd)" d="M 390.471763 57.495375 
L 425.27686 57.495375 
L 425.27686 36.443875 
L 390.471763 36.443875 
z
" style="fill:#bcbd22;"/>
   </g>
   <g id="matplotlib.axis_1">
    <g id="xtick_1">
     <g id="line2d_1">
      <defs>
       <path d="M 0 0 
L 0 3.5 
" id="mc3a356a46d" style="stroke:#000000;stroke-width:0.8;"/>
      </defs>
      <g>
       <use style="stroke:#000000;stroke-width:0.8;" x="65.998438" xlink:href="#mc3a356a46d" y="236.433125"/>
      </g>
     </g>
     <g id="text_1">
      <text style="font-family:DejaVu Sans;font-size:10px;font-stretch:normal;font-style:normal;font-weight:normal;text-anchor:middle;" transform="rotate(-0, 65.998438, 251.031563)" x="65.998438" y="251.031563">0</text>
     </g>
    </g>
    <g id="xtick_2">
     <g id="line2d_2">
      <g>
       <use style="stroke:#000000;stroke-width:0.8;" x="137.854122" xlink:href="#mc3a356a46d" y="236.433125"/>
      </g>
     </g>
     <g id="text_2">
      <text style="font-family:DejaVu Sans;font-size:10px;font-stretch:normal;font-style:normal;font-weight:normal;text-anchor:middle;" transform="rotate(-0, 137.854122, 251.031563)" x="137.854122" y="251.031563">20</text>
     </g>
    </g>
    <g id="xtick_3">
     <g id="line2d_3">
      <g>
       <use style="stroke:#000000;stroke-width:0.8;" x="209.709807" xlink:href="#mc3a356a46d" y="236.433125"/>
      </g>
     </g>
     <g id="text_3">
      <text style="font-family:DejaVu Sans;font-size:10px;font-stretch:normal;font-style:normal;font-weight:normal;text-anchor:middle;" transform="rotate(-0, 209.709807, 251.031563)" x="209.709807" y="251.031563">40</text>
     </g>
    </g>
    <g id="xtick_4">
     <g id="line2d_4">
      <g>
       <use style="stroke:#000000;stroke-width:0.8;" x="281.565491" xlink:href="#mc3a356a46d" y="236.433125"/>
      </g>
     </g>
     <g id="text_4">
      <text style="font-family:DejaVu Sans;font-size:10px;font-stretch:normal;font-style:normal;font-weight:normal;text-anchor:middle;" transform="rotate(-0, 281.565491, 251.031563)" x="281.565491" y="251.031563">60</text>
     </g>
    </g>
    <g id="xtick_5">
     <g id="line2d_5">
      <g>
       <use style="stroke:#000000;stroke-width:0.8;" x="353.421176" xlink:href="#mc3a356a46d" y="236.433125"/>
      </g>
     </g>
     <g id="text_5">
      <text style="font-family:DejaVu Sans;font-size:10px;font-stretch:normal;font-style:normal;font-weight:normal;text-anchor:middle;" transform="rotate(-0, 353.421176, 251.031563)" x="353.421176" y="251.031563">80</text>
     </g>
    </g>
    <g id="xtick_6">
     <g id="line2d_6">
      <g>
       <use style="stroke:#000000;stroke-width:0.8;" x="425.27686" xlink:href="#mc3a356a46d" y="236.433125"/>
      </g>
     </g>
     <g id="text_6">
      <text style="font-family:DejaVu Sans;font-size:10px;font-stretch:normal;font-style:normal;font-weight:normal;text-anchor:middle;" transform="rotate(-0, 425.27686, 251.031563)" x="425.27686" y="251.031563">100</text>
     </g>
    </g>
    <g id="text_7">
     <text style="font-family:DejaVu Sans;font-size:10px;font-stretch:normal;font-style:normal;font-weight:normal;text-anchor:middle;" transform="rotate(-0, 254.619609, 264.709688)" x="254.619609" y="264.709688">Ranking of importance</text>
    </g>
   </g>
   <g id="matplotlib.axis_2">
    <g id="ytick_1">
     <g id="line2d_7">
      <defs>
       <path d="M 0 0 
L -3.5 0 
" id="m82278324de" style="stroke:#000000;stroke-width:0.8;"/>
      </defs>
      <g>
       <use style="stroke:#000000;stroke-width:0.8;" x="65.998438" xlink:href="#m82278324de" y="215.381625"/>
      </g>
     </g>
     <g id="text_8">
      <text style="font-family:DejaVu Sans;font-size:10px;font-stretch:normal;font-style:normal;font-weight:normal;text-anchor:end;" transform="rotate(-0, 58.998438, 219.180844)" x="58.998438" y="219.180844">Rank 1</text>
     </g>
    </g>
    <g id="ytick_2">
     <g id="line2d_8">
      <g>
       <use style="stroke:#000000;stroke-width:0.8;" x="65.998438" xlink:href="#m82278324de" y="173.278625"/>
      </g>
     </g>
     <g id="text_9">
      <text style="font-family:DejaVu Sans;font-size:10px;font-stretch:normal;font-style:normal;font-weight:normal;text-anchor:end;" transform="rotate(-0, 58.998438, 177.077844)" x="58.998438" y="177.077844">Rank 2</text>
     </g>
    </g>
    <g id="ytick_3">
     <g id="line2d_9">
      <g>
       <use style="stroke:#000000;stroke-width:0.8;" x="65.998438" xlink:href="#m82278324de" y="131.175625"/>
      </g>
     </g>
     <g id="text_10">
      <text style="font-family:DejaVu Sans;font-size:10px;font-stretch:normal;font-style:normal;font-weight:normal;text-anchor:end;" transform="rotate(-0, 58.998438, 134.974844)" x="58.998438" y="134.974844">Rank 3</text>
     </g>
    </g>
    <g id="ytick_4">
     <g id="line2d_10">
      <g>
       <use style="stroke:#000000;stroke-width:0.8;" x="65.998438" xlink:href="#m82278324de" y="89.072625"/>
      </g>
     </g>
     <g id="text_11">
      <text style="font-family:DejaVu Sans;font-size:10px;font-stretch:normal;font-style:normal;font-weight:normal;text-anchor:end;" transform="rotate(-0, 58.998438, 92.871844)" x="58.998438" y="92.871844">Rank 4</text>
     </g>
    </g>
    <g id="ytick_5">
     <g id="line2d_11">
      <g>
       <use style="stroke:#000000;stroke-width:0.8;" x="65.998438" xlink:href="#m82278324de" y="46.969625"/>
      </g>
     </g>
     <g id="text_12">
      <text style="font-family:DejaVu Sans;font-size:10px;font-stretch:normal;font-style:normal;font-weight:normal;text-anchor:end;" transform="rotate(-0, 58.998438, 50.768844)" x="58.998438" y="50.768844">Rank 5</text>
     </g>
    </g>
    <g id="text_13">
     <text style="font-family:DejaVu Sans;font-size:10px;font-stretch:normal;font-style:normal;font-weight:normal;text-anchor:middle;" transform="rotate(-90, 18.398438, 131.175625)" x="18.398438" y="131.175625">Percentage</text>
    </g>
   </g>
   <g id="patch_48">
    <path d="M 65.998438 236.433125 
L 443.240781 236.433125 
" style="fill:none;stroke:#000000;stroke-linecap:square;stroke-linejoin:miter;stroke-width:0.8;"/>
   </g>
   <g id="text_14">
    <text style="font-family:DejaVu Sans;font-size:10px;font-stretch:normal;font-style:normal;font-weight:normal;text-anchor:middle;" transform="rotate(-0, 109.513526, 219.591925)" x="109.513526" y="219.591925">24</text>
   </g>
   <g id="text_15">
    <text style="font-family:DejaVu Sans;font-size:10px;font-stretch:normal;font-style:normal;font-weight:normal;text-anchor:middle;" transform="rotate(-0, 93.892725, 177.488925)" x="93.892725" y="177.488925">16</text>
   </g>
   <g id="text_16">
    <text style="font-family:DejaVu Sans;font-size:10px;font-stretch:normal;font-style:normal;font-weight:normal;text-anchor:middle;" transform="rotate(-0, 92.860376, 135.385925)" x="92.860376" y="135.385925">15</text>
   </g>
   <g id="text_17">
    <text style="font-family:DejaVu Sans;font-size:10px;font-stretch:normal;font-style:normal;font-weight:normal;text-anchor:middle;" transform="rotate(-0, 80.548654, 93.282925)" x="80.548654" y="93.282925">8</text>
   </g>
   <g id="text_18">
    <text style="font-family:DejaVu Sans;font-size:10px;font-stretch:normal;font-style:normal;font-weight:normal;text-anchor:middle;" transform="rotate(-0, 78.910006, 51.179925)" x="78.910006" y="51.179925">7</text>
   </g>
   <g id="text_19">
    <text style="font-family:DejaVu Sans;font-size:10px;font-stretch:normal;font-style:normal;font-weight:normal;text-anchor:middle;" transform="rotate(-0, 195.985817, 219.591925)" x="195.985817" y="219.591925">24</text>
   </g>
   <g id="text_20">
    <text style="font-family:DejaVu Sans;font-size:10px;font-stretch:normal;font-style:normal;font-weight:normal;text-anchor:middle;" transform="rotate(-0, 151.912843, 177.488925)" x="151.912843" y="177.488925">17</text>
   </g>
   <g id="text_21">
    <text style="font-family:DejaVu Sans;font-size:10px;font-stretch:normal;font-style:normal;font-weight:normal;text-anchor:middle;" transform="rotate(-0, 146.584252, 135.385925)" x="146.584252" y="135.385925">15</text>
   </g>
   <g id="text_22">
    <text style="font-family:DejaVu Sans;font-size:10px;font-stretch:normal;font-style:normal;font-weight:normal;text-anchor:middle;" transform="rotate(-0, 111.327958, 93.282925)" x="111.327958" y="93.282925">9</text>
   </g>
   <g id="text_23">
    <text style="font-family:DejaVu Sans;font-size:10px;font-stretch:normal;font-style:normal;font-weight:normal;text-anchor:middle;" transform="rotate(-0, 115.960593, 51.179925)" x="115.960593" y="51.179925">13</text>
   </g>
   <g id="text_24">
    <text style="font-family:DejaVu Sans;font-size:10px;font-stretch:normal;font-style:normal;font-weight:normal;text-anchor:middle;" transform="rotate(-0, 268.510965, 219.591925)" x="268.510965" y="219.591925">16</text>
   </g>
   <g id="text_25">
    <text style="font-family:DejaVu Sans;font-size:10px;font-stretch:normal;font-style:normal;font-weight:normal;text-anchor:middle;" transform="rotate(-0, 204.911989, 177.488925)" x="204.911989" y="177.488925">13</text>
   </g>
   <g id="text_26">
    <text style="font-family:DejaVu Sans;font-size:10px;font-stretch:normal;font-style:normal;font-weight:normal;text-anchor:middle;" transform="rotate(-0, 187.996407, 135.385925)" x="187.996407" y="135.385925">8</text>
   </g>
   <g id="text_27">
    <text style="font-family:DejaVu Sans;font-size:10px;font-stretch:normal;font-style:normal;font-weight:normal;text-anchor:middle;" transform="rotate(-0, 144.345757, 93.282925)" x="144.345757" y="93.282925">9</text>
   </g>
   <g id="text_28">
    <text style="font-family:DejaVu Sans;font-size:10px;font-stretch:normal;font-style:normal;font-weight:normal;text-anchor:middle;" transform="rotate(-0, 153.01118, 51.179925)" x="153.01118" y="51.179925">7</text>
   </g>
   <g id="text_29">
    <text style="font-family:DejaVu Sans;font-size:10px;font-stretch:normal;font-style:normal;font-weight:normal;text-anchor:middle;" transform="rotate(-0, 320.952225, 219.591925)" x="320.952225" y="219.591925">13</text>
   </g>
   <g id="text_30">
    <text style="font-family:DejaVu Sans;font-size:10px;font-stretch:normal;font-style:normal;font-weight:normal;text-anchor:middle;" transform="rotate(-0, 251.774392, 177.488925)" x="251.774392" y="177.488925">13</text>
   </g>
   <g id="text_31">
    <text style="font-family:DejaVu Sans;font-size:10px;font-stretch:normal;font-style:normal;font-weight:normal;text-anchor:middle;" transform="rotate(-0, 229.968185, 135.385925)" x="229.968185" y="135.385925">15</text>
   </g>
   <g id="text_32">
    <text style="font-family:DejaVu Sans;font-size:10px;font-stretch:normal;font-style:normal;font-weight:normal;text-anchor:middle;" transform="rotate(-0, 189.115654, 93.282925)" x="189.115654" y="93.282925">16</text>
   </g>
   <g id="text_33">
    <text style="font-family:DejaVu Sans;font-size:10px;font-stretch:normal;font-style:normal;font-weight:normal;text-anchor:middle;" transform="rotate(-0, 192.307258, 51.179925)" x="192.307258" y="51.179925">15</text>
   </g>
   <g id="text_34">
    <text style="font-family:DejaVu Sans;font-size:10px;font-stretch:normal;font-style:normal;font-weight:normal;text-anchor:middle;" transform="rotate(-0, 358.888456, 219.591925)" x="358.888456" y="219.591925">8</text>
   </g>
   <g id="text_35">
    <text style="font-family:DejaVu Sans;font-size:10px;font-stretch:normal;font-style:normal;font-weight:normal;text-anchor:middle;" transform="rotate(-0, 300.868338, 177.488925)" x="300.868338" y="177.488925">14</text>
   </g>
   <g id="text_36">
    <text style="font-family:DejaVu Sans;font-size:10px;font-stretch:normal;font-style:normal;font-weight:normal;text-anchor:middle;" transform="rotate(-0, 284.251685, 135.385925)" x="284.251685" y="135.385925">15</text>
   </g>
   <g id="text_37">
    <text style="font-family:DejaVu Sans;font-size:10px;font-stretch:normal;font-style:normal;font-weight:normal;text-anchor:middle;" transform="rotate(-0, 236.124046, 93.282925)" x="236.124046" y="93.282925">11</text>
   </g>
   <g id="text_38">
    <text style="font-family:DejaVu Sans;font-size:10px;font-stretch:normal;font-style:normal;font-weight:normal;text-anchor:middle;" transform="rotate(-0, 236.094316, 51.179925)" x="236.094316" y="51.179925">10</text>
   </g>
   <g id="text_39">
    <text style="font-family:DejaVu Sans;font-size:10px;font-stretch:normal;font-style:normal;font-weight:normal;text-anchor:middle;" transform="rotate(-0, 382.319657, 219.591925)" x="382.319657" y="219.591925">5</text>
   </g>
   <g id="text_40">
    <text style="font-family:DejaVu Sans;font-size:10px;font-stretch:normal;font-style:normal;font-weight:normal;text-anchor:middle;" transform="rotate(-0, 324.544592, 135.385925)" x="324.544592" y="135.385925">7</text>
   </g>
   <g id="text_41">
    <text style="font-family:DejaVu Sans;font-size:10px;font-stretch:normal;font-style:normal;font-weight:normal;text-anchor:middle;" transform="rotate(-0, 268.582221, 93.282925)" x="268.582221" y="93.282925">7</text>
   </g>
   <g id="text_42">
    <text style="font-family:DejaVu Sans;font-size:10px;font-stretch:normal;font-style:normal;font-weight:normal;text-anchor:middle;" transform="rotate(-0, 266.408433, 51.179925)" x="266.408433" y="51.179925">7</text>
   </g>
   <g id="text_43">
    <text style="font-family:DejaVu Sans;font-size:10px;font-stretch:normal;font-style:normal;font-weight:normal;text-anchor:middle;" transform="rotate(-0, 361.677885, 177.488925)" x="361.677885" y="177.488925">12</text>
   </g>
   <g id="text_44">
    <text style="font-family:DejaVu Sans;font-size:10px;font-stretch:normal;font-style:normal;font-weight:normal;text-anchor:middle;" transform="rotate(-0, 354.204649, 135.385925)" x="354.204649" y="135.385925">9</text>
   </g>
   <g id="text_45">
    <text style="font-family:DejaVu Sans;font-size:10px;font-stretch:normal;font-style:normal;font-weight:normal;text-anchor:middle;" transform="rotate(-0, 308.875128, 93.282925)" x="308.875128" y="93.282925">15</text>
   </g>
   <g id="text_46">
    <text style="font-family:DejaVu Sans;font-size:10px;font-stretch:normal;font-style:normal;font-weight:normal;text-anchor:middle;" transform="rotate(-0, 301.774902, 51.179925)" x="301.774902" y="51.179925">12</text>
   </g>
   <g id="text_47">
    <text style="font-family:DejaVu Sans;font-size:10px;font-stretch:normal;font-style:normal;font-weight:normal;text-anchor:middle;" transform="rotate(-0, 400.172001, 177.488925)" x="400.172001" y="177.488925">10</text>
   </g>
   <g id="text_48">
    <text style="font-family:DejaVu Sans;font-size:10px;font-stretch:normal;font-style:normal;font-weight:normal;text-anchor:middle;" transform="rotate(-0, 391.699437, 135.385925)" x="391.699437" y="135.385925">12</text>
   </g>
   <g id="text_49">
    <text style="font-family:DejaVu Sans;font-size:10px;font-stretch:normal;font-style:normal;font-weight:normal;text-anchor:middle;" transform="rotate(-0, 367.075994, 93.282925)" x="367.075994" y="93.282925">17</text>
   </g>
   <g id="text_50">
    <text style="font-family:DejaVu Sans;font-size:10px;font-stretch:normal;font-style:normal;font-weight:normal;text-anchor:middle;" transform="rotate(-0, 357.350783, 51.179925)" x="357.350783" y="51.179925">18</text>
   </g>
   <g id="text_51">
    <text style="font-family:DejaVu Sans;font-size:10px;font-stretch:normal;font-style:normal;font-weight:normal;text-anchor:middle;" transform="rotate(-0, 411.845891, 93.282925)" x="411.845891" y="93.282925">7</text>
   </g>
   <g id="text_52">
    <text style="font-family:DejaVu Sans;font-size:10px;font-stretch:normal;font-style:normal;font-weight:normal;text-anchor:middle;" transform="rotate(-0, 407.874312, 51.179925)" x="407.874312" y="51.179925">10</text>
   </g>
   <g id="text_53">
    <text style="font-family:DejaVu Sans;font-size:12px;font-stretch:normal;font-style:normal;font-weight:normal;text-anchor:middle;" transform="rotate(-0, 254.619609, 19.918125)" x="254.619609" y="19.918125">Reasons to choose current job: Germany</text>
   </g>
   <g id="legend_1">
    <g id="patch_49">
     <path d="M 17.307891 349.401 
L 491.931328 349.401 
Q 493.931328 349.401 493.931328 347.401 
L 493.931328 275.010375 
Q 493.931328 273.010375 491.931328 273.010375 
L 17.307891 273.010375 
Q 15.307891 273.010375 15.307891 275.010375 
L 15.307891 347.401 
Q 15.307891 349.401 17.307891 349.401 
z
" style="fill:#ffffff;opacity:0.8;stroke:#cccccc;stroke-linejoin:miter;"/>
    </g>
    <g id="patch_50">
     <path d="M 19.307891 284.608812 
L 39.307891 284.608812 
L 39.307891 277.608812 
L 19.307891 277.608812 
z
" style="fill:#1f77b4;"/>
    </g>
    <g id="text_54">
     <text style="font-family:DejaVu Sans;font-size:10px;font-stretch:normal;font-style:normal;font-weight:normal;text-anchor:start;" transform="rotate(-0, 47.307891, 284.608812)" x="47.307891" y="284.608812">Desire to work in a research environment</text>
    </g>
    <g id="patch_51">
     <path d="M 19.307891 299.286938 
L 39.307891 299.286938 
L 39.307891 292.286938 
L 19.307891 292.286938 
z
" style="fill:#ff7f0e;"/>
    </g>
    <g id="text_55">
     <text style="font-family:DejaVu Sans;font-size:10px;font-stretch:normal;font-style:normal;font-weight:normal;text-anchor:start;" transform="rotate(-0, 47.307891, 299.286938)" x="47.307891" y="299.286938">Freedom to choose own working practices</text>
    </g>
    <g id="patch_52">
     <path d="M 19.307891 313.965063 
L 39.307891 313.965063 
L 39.307891 306.965063 
L 19.307891 306.965063 
z
" style="fill:#2ca02c;"/>
    </g>
    <g id="text_56">
     <text style="font-family:DejaVu Sans;font-size:10px;font-stretch:normal;font-style:normal;font-weight:normal;text-anchor:start;" transform="rotate(-0, 47.307891, 313.965063)" x="47.307891" y="313.965063">Desire to advance research</text>
    </g>
    <g id="patch_53">
     <path d="M 19.307891 328.643188 
L 39.307891 328.643188 
L 39.307891 321.643188 
L 19.307891 321.643188 
z
" style="fill:#d62728;"/>
    </g>
    <g id="text_57">
     <text style="font-family:DejaVu Sans;font-size:10px;font-stretch:normal;font-style:normal;font-weight:normal;text-anchor:start;" transform="rotate(-0, 47.307891, 328.643188)" x="47.307891" y="328.643188">I want to learn new skills</text>
    </g>
    <g id="patch_54">
     <path d="M 19.307891 343.321313 
L 39.307891 343.321313 
L 39.307891 336.321313 
L 19.307891 336.321313 
z
" style="fill:#9467bd;"/>
    </g>
    <g id="text_58">
     <text style="font-family:DejaVu Sans;font-size:10px;font-stretch:normal;font-style:normal;font-weight:normal;text-anchor:start;" transform="rotate(-0, 47.307891, 343.321313)" x="47.307891" y="343.321313">Opportunity to develop software</text>
    </g>
    <g id="patch_55">
     <path d="M 278.042266 284.608812 
L 298.042266 284.608812 
L 298.042266 277.608812 
L 278.042266 277.608812 
z
" style="fill:#8c564b;"/>
    </g>
    <g id="text_59">
     <text style="font-family:DejaVu Sans;font-size:10px;font-stretch:normal;font-style:normal;font-weight:normal;text-anchor:start;" transform="rotate(-0, 306.042266, 284.608812)" x="306.042266" y="284.608812">Opportunity for career advancement</text>
    </g>
    <g id="patch_56">
     <path d="M 278.042266 299.286938 
L 298.042266 299.286938 
L 298.042266 292.286938 
L 278.042266 292.286938 
z
" style="fill:#e377c2;"/>
    </g>
    <g id="text_60">
     <text style="font-family:DejaVu Sans;font-size:10px;font-stretch:normal;font-style:normal;font-weight:normal;text-anchor:start;" transform="rotate(-0, 306.042266, 299.286938)" x="306.042266" y="299.286938">Ability to work across disciplines</text>
    </g>
    <g id="patch_57">
     <path d="M 278.042266 313.965063 
L 298.042266 313.965063 
L 298.042266 306.965063 
L 278.042266 306.965063 
z
" style="fill:#7f7f7f;"/>
    </g>
    <g id="text_61">
     <text style="font-family:DejaVu Sans;font-size:10px;font-stretch:normal;font-style:normal;font-weight:normal;text-anchor:start;" transform="rotate(-0, 306.042266, 313.965063)" x="306.042266" y="313.965063">Flexible working hours</text>
    </g>
    <g id="patch_58">
     <path d="M 278.042266 328.643188 
L 298.042266 328.643188 
L 298.042266 321.643188 
L 278.042266 321.643188 
z
" style="fill:#bcbd22;"/>
    </g>
    <g id="text_62">
     <text style="font-family:DejaVu Sans;font-size:10px;font-stretch:normal;font-style:normal;font-weight:normal;text-anchor:start;" transform="rotate(-0, 306.042266, 328.643188)" x="306.042266" y="328.643188">The salary</text>
    </g>
   </g>
  </g>
 </g>
 <defs>
  <clipPath id="p10665914bd">
   <rect height="210.515" width="377.242344" x="65.998438" y="25.918125"/>
  </clipPath>
 </defs>
</svg>
