<?xml version="1.0" encoding="utf-8" standalone="no"?>
<!DOCTYPE svg PUBLIC "-//W3C//DTD SVG 1.1//EN"
  "http://www.w3.org/Graphics/SVG/1.1/DTD/svg11.dtd">
<svg xmlns:xlink="http://www.w3.org/1999/xlink" width="648pt" height="396pt" viewBox="0 0 648 396" xmlns="http://www.w3.org/2000/svg" version="1.1">
 <metadata>
  <rdf:RDF xmlns:dc="http://purl.org/dc/elements/1.1/" xmlns:cc="http://creativecommons.org/ns#" xmlns:rdf="http://www.w3.org/1999/02/22-rdf-syntax-ns#">
   <cc:Work>
    <dc:type rdf:resource="http://purl.org/dc/dcmitype/StillImage"/>
    <dc:date>2022-03-21T16:08:49.989597</dc:date>
    <dc:format>image/svg+xml</dc:format>
    <dc:creator>
     <cc:Agent>
      <dc:title>Matplotlib v3.5.1, https://matplotlib.org/</dc:title>
     </cc:Agent>
    </dc:creator>
   </cc:Work>
  </rdf:RDF>
 </metadata>
 <defs>
  <style type="text/css">*{stroke-linejoin: round; stroke-linecap: butt}</style>
 </defs>
 <g id="figure_1">
  <g id="patch_1">
   <path d="M 0 396 
L 648 396 
L 648 0 
L 0 0 
z
" style="fill: #ffffff"/>
  </g>
  <g id="axes_1">
   <g id="patch_2">
    <path d="M 253.784375 355.55625 
L 572.909028 355.55625 
L 572.909028 47.499375 
L 253.784375 47.499375 
z
" style="fill: #ffffff"/>
   </g>
   <g id="line2d_1">
    <path d="M 413.744612 355.55625 
L 413.744612 47.499375 
" clip-path="url(#pa24ca76626)" style="fill: none; stroke-dasharray: 5.55,2.4; stroke-dashoffset: 0; stroke: #000000; stroke-opacity: 0.5; stroke-width: 1.5"/>
   </g>
   <g id="line2d_2">
    <path d="M 413.744612 355.55625 
L 413.744612 47.499375 
" clip-path="url(#pa24ca76626)" style="fill: none; stroke-dasharray: 5.55,2.4; stroke-dashoffset: 0; stroke: #000000; stroke-opacity: 0.5; stroke-width: 1.5"/>
   </g>
   <g id="line2d_3">
    <path d="M 413.744612 355.55625 
L 413.744612 47.499375 
" clip-path="url(#pa24ca76626)" style="fill: none; stroke-dasharray: 5.55,2.4; stroke-dashoffset: 0; stroke: #000000; stroke-opacity: 0.5; stroke-width: 1.5"/>
   </g>
   <g id="patch_3">
    <path d="M 396.691282 97.454544 
L 399.533504 97.454544 
L 399.533504 164.061436 
L 396.691282 164.061436 
z
" clip-path="url(#pa24ca76626)" style="fill: #67001f"/>
   </g>
   <g id="patch_4">
    <path d="M 394.198105 180.713159 
L 399.782822 180.713159 
L 399.782822 247.320051 
L 394.198105 247.320051 
z
" clip-path="url(#pa24ca76626)" style="fill: #67001f"/>
   </g>
   <g id="patch_5">
    <path d="M 367.442237 263.971774 
L 376.123932 263.971774 
L 376.123932 330.578666 
L 367.442237 330.578666 
z
" clip-path="url(#pa24ca76626)" style="fill: #67001f"/>
   </g>
   <g id="patch_6">
    <path d="M 399.533504 97.454544 
L 408.060169 97.454544 
L 408.060169 164.061436 
L 399.533504 164.061436 
z
" clip-path="url(#pa24ca76626)" style="fill: #e58368"/>
   </g>
   <g id="patch_7">
    <path d="M 399.782822 180.713159 
L 410.952254 180.713159 
L 410.952254 247.320051 
L 399.782822 247.320051 
z
" clip-path="url(#pa24ca76626)" style="fill: #e58368"/>
   </g>
   <g id="patch_8">
    <path d="M 376.123932 263.971774 
L 402.169019 263.971774 
L 402.169019 330.578666 
L 376.123932 330.578666 
z
" clip-path="url(#pa24ca76626)" style="fill: #e58368"/>
   </g>
   <g id="patch_9">
    <path d="M 408.060169 97.454544 
L 419.429056 97.454544 
L 419.429056 164.061436 
L 408.060169 164.061436 
z
" clip-path="url(#pa24ca76626)" style="fill: #f6f7f7"/>
   </g>
   <g id="patch_10">
    <path d="M 410.952254 180.713159 
L 416.536971 180.713159 
L 416.536971 247.320051 
L 410.952254 247.320051 
z
" clip-path="url(#pa24ca76626)" style="fill: #f6f7f7"/>
   </g>
   <g id="patch_11">
    <path d="M 402.169019 263.971774 
L 425.320206 263.971774 
L 425.320206 330.578666 
L 402.169019 330.578666 
z
" clip-path="url(#pa24ca76626)" style="fill: #f6f7f7"/>
   </g>
   <g id="patch_12">
    <path d="M 419.429056 97.454544 
L 470.589046 97.454544 
L 470.589046 164.061436 
L 419.429056 164.061436 
z
" clip-path="url(#pa24ca76626)" style="fill: #68abd0"/>
   </g>
   <g id="patch_13">
    <path d="M 416.536971 180.713159 
L 486.345925 180.713159 
L 486.345925 247.320051 
L 416.536971 247.320051 
z
" clip-path="url(#pa24ca76626)" style="fill: #68abd0"/>
   </g>
   <g id="patch_14">
    <path d="M 425.320206 263.971774 
L 491.879871 263.971774 
L 491.879871 330.578666 
L 425.320206 330.578666 
z
" clip-path="url(#pa24ca76626)" style="fill: #68abd0"/>
   </g>
   <g id="patch_15">
    <path d="M 470.589046 97.454544 
L 555.855698 97.454544 
L 555.855698 164.061436 
L 470.589046 164.061436 
z
" clip-path="url(#pa24ca76626)" style="fill: #053061"/>
   </g>
   <g id="patch_16">
    <path d="M 486.345925 180.713159 
L 553.362521 180.713159 
L 553.362521 247.320051 
L 486.345925 247.320051 
z
" clip-path="url(#pa24ca76626)" style="fill: #053061"/>
   </g>
   <g id="patch_17">
    <path d="M 491.879871 263.971774 
L 526.606652 263.971774 
L 526.606652 330.578666 
L 491.879871 330.578666 
z
" clip-path="url(#pa24ca76626)" style="fill: #053061"/>
   </g>
   <g id="patch_18">
    <path d="M 396.691282 97.454544 
L 399.533504 97.454544 
L 399.533504 164.061436 
L 396.691282 164.061436 
z
" clip-path="url(#pa24ca76626)" style="fill: #67001f"/>
   </g>
   <g id="patch_19">
    <path d="M 394.198105 180.713159 
L 399.782822 180.713159 
L 399.782822 247.320051 
L 394.198105 247.320051 
z
" clip-path="url(#pa24ca76626)" style="fill: #67001f"/>
   </g>
   <g id="patch_20">
    <path d="M 367.442237 263.971774 
L 376.123932 263.971774 
L 376.123932 330.578666 
L 367.442237 330.578666 
z
" clip-path="url(#pa24ca76626)" style="fill: #67001f"/>
   </g>
   <g id="patch_21">
    <path d="M 399.533504 97.454544 
L 408.060169 97.454544 
L 408.060169 164.061436 
L 399.533504 164.061436 
z
" clip-path="url(#pa24ca76626)" style="fill: #e58368"/>
   </g>
   <g id="patch_22">
    <path d="M 399.782822 180.713159 
L 410.952254 180.713159 
L 410.952254 247.320051 
L 399.782822 247.320051 
z
" clip-path="url(#pa24ca76626)" style="fill: #e58368"/>
   </g>
   <g id="patch_23">
    <path d="M 376.123932 263.971774 
L 402.169019 263.971774 
L 402.169019 330.578666 
L 376.123932 330.578666 
z
" clip-path="url(#pa24ca76626)" style="fill: #e58368"/>
   </g>
   <g id="patch_24">
    <path d="M 408.060169 97.454544 
L 419.429056 97.454544 
L 419.429056 164.061436 
L 408.060169 164.061436 
z
" clip-path="url(#pa24ca76626)" style="fill: #f6f7f7"/>
   </g>
   <g id="patch_25">
    <path d="M 410.952254 180.713159 
L 416.536971 180.713159 
L 416.536971 247.320051 
L 410.952254 247.320051 
z
" clip-path="url(#pa24ca76626)" style="fill: #f6f7f7"/>
   </g>
   <g id="patch_26">
    <path d="M 402.169019 263.971774 
L 425.320206 263.971774 
L 425.320206 330.578666 
L 402.169019 330.578666 
z
" clip-path="url(#pa24ca76626)" style="fill: #f6f7f7"/>
   </g>
   <g id="patch_27">
    <path d="M 419.429056 97.454544 
L 470.589046 97.454544 
L 470.589046 164.061436 
L 419.429056 164.061436 
z
" clip-path="url(#pa24ca76626)" style="fill: #68abd0"/>
   </g>
   <g id="patch_28">
    <path d="M 416.536971 180.713159 
L 486.345925 180.713159 
L 486.345925 247.320051 
L 416.536971 247.320051 
z
" clip-path="url(#pa24ca76626)" style="fill: #68abd0"/>
   </g>
   <g id="patch_29">
    <path d="M 425.320206 263.971774 
L 491.879871 263.971774 
L 491.879871 330.578666 
L 425.320206 330.578666 
z
" clip-path="url(#pa24ca76626)" style="fill: #68abd0"/>
   </g>
   <g id="patch_30">
    <path d="M 470.589046 97.454544 
L 555.855698 97.454544 
L 555.855698 164.061436 
L 470.589046 164.061436 
z
" clip-path="url(#pa24ca76626)" style="fill: #053061"/>
   </g>
   <g id="patch_31">
    <path d="M 486.345925 180.713159 
L 553.362521 180.713159 
L 553.362521 247.320051 
L 486.345925 247.320051 
z
" clip-path="url(#pa24ca76626)" style="fill: #053061"/>
   </g>
   <g id="patch_32">
    <path d="M 491.879871 263.971774 
L 526.606652 263.971774 
L 526.606652 330.578666 
L 491.879871 330.578666 
z
" clip-path="url(#pa24ca76626)" style="fill: #053061"/>
   </g>
   <g id="patch_33">
    <path d="M 396.691282 97.454544 
L 399.533504 97.454544 
L 399.533504 164.061436 
L 396.691282 164.061436 
z
" clip-path="url(#pa24ca76626)" style="fill: #67001f"/>
   </g>
   <g id="patch_34">
    <path d="M 394.198105 180.713159 
L 399.782822 180.713159 
L 399.782822 247.320051 
L 394.198105 247.320051 
z
" clip-path="url(#pa24ca76626)" style="fill: #67001f"/>
   </g>
   <g id="patch_35">
    <path d="M 367.442237 263.971774 
L 376.123932 263.971774 
L 376.123932 330.578666 
L 367.442237 330.578666 
z
" clip-path="url(#pa24ca76626)" style="fill: #67001f"/>
   </g>
   <g id="patch_36">
    <path d="M 399.533504 97.454544 
L 408.060169 97.454544 
L 408.060169 164.061436 
L 399.533504 164.061436 
z
" clip-path="url(#pa24ca76626)" style="fill: #e58368"/>
   </g>
   <g id="patch_37">
    <path d="M 399.782822 180.713159 
L 410.952254 180.713159 
L 410.952254 247.320051 
L 399.782822 247.320051 
z
" clip-path="url(#pa24ca76626)" style="fill: #e58368"/>
   </g>
   <g id="patch_38">
    <path d="M 376.123932 263.971774 
L 402.169019 263.971774 
L 402.169019 330.578666 
L 376.123932 330.578666 
z
" clip-path="url(#pa24ca76626)" style="fill: #e58368"/>
   </g>
   <g id="patch_39">
    <path d="M 408.060169 97.454544 
L 419.429056 97.454544 
L 419.429056 164.061436 
L 408.060169 164.061436 
z
" clip-path="url(#pa24ca76626)" style="fill: #f6f7f7"/>
   </g>
   <g id="patch_40">
    <path d="M 410.952254 180.713159 
L 416.536971 180.713159 
L 416.536971 247.320051 
L 410.952254 247.320051 
z
" clip-path="url(#pa24ca76626)" style="fill: #f6f7f7"/>
   </g>
   <g id="patch_41">
    <path d="M 402.169019 263.971774 
L 425.320206 263.971774 
L 425.320206 330.578666 
L 402.169019 330.578666 
z
" clip-path="url(#pa24ca76626)" style="fill: #f6f7f7"/>
   </g>
   <g id="patch_42">
    <path d="M 419.429056 97.454544 
L 470.589046 97.454544 
L 470.589046 164.061436 
L 419.429056 164.061436 
z
" clip-path="url(#pa24ca76626)" style="fill: #68abd0"/>
   </g>
   <g id="patch_43">
    <path d="M 416.536971 180.713159 
L 486.345925 180.713159 
L 486.345925 247.320051 
L 416.536971 247.320051 
z
" clip-path="url(#pa24ca76626)" style="fill: #68abd0"/>
   </g>
   <g id="patch_44">
    <path d="M 425.320206 263.971774 
L 491.879871 263.971774 
L 491.879871 330.578666 
L 425.320206 330.578666 
z
" clip-path="url(#pa24ca76626)" style="fill: #68abd0"/>
   </g>
   <g id="patch_45">
    <path d="M 470.589046 97.454544 
L 555.855698 97.454544 
L 555.855698 164.061436 
L 470.589046 164.061436 
z
" clip-path="url(#pa24ca76626)" style="fill: #053061"/>
   </g>
   <g id="patch_46">
    <path d="M 486.345925 180.713159 
L 553.362521 180.713159 
L 553.362521 247.320051 
L 486.345925 247.320051 
z
" clip-path="url(#pa24ca76626)" style="fill: #053061"/>
   </g>
   <g id="patch_47">
    <path d="M 491.879871 263.971774 
L 526.606652 263.971774 
L 526.606652 330.578666 
L 491.879871 330.578666 
z
" clip-path="url(#pa24ca76626)" style="fill: #053061"/>
   </g>
   <g id="matplotlib.axis_1">
    <g id="xtick_1">
     <g id="line2d_4">
      <defs>
       <path id="m4c99cd72f3" d="M 0 0 
L 0 3.5 
" style="stroke: #000000; stroke-width: 0.8"/>
      </defs>
      <g>
       <use xlink:href="#m4c99cd72f3" x="254.580197" y="355.55625" style="stroke: #000000; stroke-width: 0.8"/>
      </g>
     </g>
     <g id="text_1">
      <text style="font: 10px 'sans-serif'; text-anchor: middle" x="254.580197" y="369.729687" transform="rotate(-0, 254.580197, 369.729687)">100</text>
     </g>
    </g>
    <g id="xtick_2">
     <g id="line2d_5">
      <g>
       <use xlink:href="#m4c99cd72f3" x="270.496639" y="355.55625" style="stroke: #000000; stroke-width: 0.8"/>
      </g>
     </g>
     <g id="text_2">
      <text style="font: 10px 'sans-serif'; text-anchor: middle" x="270.496639" y="369.729687" transform="rotate(-0, 270.496639, 369.729687)">90</text>
     </g>
    </g>
    <g id="xtick_3">
     <g id="line2d_6">
      <g>
       <use xlink:href="#m4c99cd72f3" x="286.41308" y="355.55625" style="stroke: #000000; stroke-width: 0.8"/>
      </g>
     </g>
     <g id="text_3">
      <text style="font: 10px 'sans-serif'; text-anchor: middle" x="286.41308" y="369.729687" transform="rotate(-0, 286.41308, 369.729687)">80</text>
     </g>
    </g>
    <g id="xtick_4">
     <g id="line2d_7">
      <g>
       <use xlink:href="#m4c99cd72f3" x="302.329522" y="355.55625" style="stroke: #000000; stroke-width: 0.8"/>
      </g>
     </g>
     <g id="text_4">
      <text style="font: 10px 'sans-serif'; text-anchor: middle" x="302.329522" y="369.729687" transform="rotate(-0, 302.329522, 369.729687)">70</text>
     </g>
    </g>
    <g id="xtick_5">
     <g id="line2d_8">
      <g>
       <use xlink:href="#m4c99cd72f3" x="318.245963" y="355.55625" style="stroke: #000000; stroke-width: 0.8"/>
      </g>
     </g>
     <g id="text_5">
      <text style="font: 10px 'sans-serif'; text-anchor: middle" x="318.245963" y="369.729687" transform="rotate(-0, 318.245963, 369.729687)">60</text>
     </g>
    </g>
    <g id="xtick_6">
     <g id="line2d_9">
      <g>
       <use xlink:href="#m4c99cd72f3" x="334.162405" y="355.55625" style="stroke: #000000; stroke-width: 0.8"/>
      </g>
     </g>
     <g id="text_6">
      <text style="font: 10px 'sans-serif'; text-anchor: middle" x="334.162405" y="369.729687" transform="rotate(-0, 334.162405, 369.729687)">50</text>
     </g>
    </g>
    <g id="xtick_7">
     <g id="line2d_10">
      <g>
       <use xlink:href="#m4c99cd72f3" x="350.078846" y="355.55625" style="stroke: #000000; stroke-width: 0.8"/>
      </g>
     </g>
     <g id="text_7">
      <text style="font: 10px 'sans-serif'; text-anchor: middle" x="350.078846" y="369.729687" transform="rotate(-0, 350.078846, 369.729687)">40</text>
     </g>
    </g>
    <g id="xtick_8">
     <g id="line2d_11">
      <g>
       <use xlink:href="#m4c99cd72f3" x="365.995288" y="355.55625" style="stroke: #000000; stroke-width: 0.8"/>
      </g>
     </g>
     <g id="text_8">
      <text style="font: 10px 'sans-serif'; text-anchor: middle" x="365.995288" y="369.729687" transform="rotate(-0, 365.995288, 369.729687)">30</text>
     </g>
    </g>
    <g id="xtick_9">
     <g id="line2d_12">
      <g>
       <use xlink:href="#m4c99cd72f3" x="381.911729" y="355.55625" style="stroke: #000000; stroke-width: 0.8"/>
      </g>
     </g>
     <g id="text_9">
      <text style="font: 10px 'sans-serif'; text-anchor: middle" x="381.911729" y="369.729687" transform="rotate(-0, 381.911729, 369.729687)">20</text>
     </g>
    </g>
    <g id="xtick_10">
     <g id="line2d_13">
      <g>
       <use xlink:href="#m4c99cd72f3" x="397.828171" y="355.55625" style="stroke: #000000; stroke-width: 0.8"/>
      </g>
     </g>
     <g id="text_10">
      <text style="font: 10px 'sans-serif'; text-anchor: middle" x="397.828171" y="369.729687" transform="rotate(-0, 397.828171, 369.729687)">10</text>
     </g>
    </g>
    <g id="xtick_11">
     <g id="line2d_14">
      <g>
       <use xlink:href="#m4c99cd72f3" x="413.744612" y="355.55625" style="stroke: #000000; stroke-width: 0.8"/>
      </g>
     </g>
     <g id="text_11">
      <text style="font: 10px 'sans-serif'; text-anchor: middle" x="413.744612" y="369.729687" transform="rotate(-0, 413.744612, 369.729687)">0</text>
     </g>
    </g>
    <g id="xtick_12">
     <g id="line2d_15">
      <g>
       <use xlink:href="#m4c99cd72f3" x="429.661054" y="355.55625" style="stroke: #000000; stroke-width: 0.8"/>
      </g>
     </g>
     <g id="text_12">
      <text style="font: 10px 'sans-serif'; text-anchor: middle" x="429.661054" y="369.729687" transform="rotate(-0, 429.661054, 369.729687)">10</text>
     </g>
    </g>
    <g id="xtick_13">
     <g id="line2d_16">
      <g>
       <use xlink:href="#m4c99cd72f3" x="445.577495" y="355.55625" style="stroke: #000000; stroke-width: 0.8"/>
      </g>
     </g>
     <g id="text_13">
      <text style="font: 10px 'sans-serif'; text-anchor: middle" x="445.577495" y="369.729687" transform="rotate(-0, 445.577495, 369.729687)">20</text>
     </g>
    </g>
    <g id="xtick_14">
     <g id="line2d_17">
      <g>
       <use xlink:href="#m4c99cd72f3" x="461.493937" y="355.55625" style="stroke: #000000; stroke-width: 0.8"/>
      </g>
     </g>
     <g id="text_14">
      <text style="font: 10px 'sans-serif'; text-anchor: middle" x="461.493937" y="369.729687" transform="rotate(-0, 461.493937, 369.729687)">30</text>
     </g>
    </g>
    <g id="xtick_15">
     <g id="line2d_18">
      <g>
       <use xlink:href="#m4c99cd72f3" x="477.410379" y="355.55625" style="stroke: #000000; stroke-width: 0.8"/>
      </g>
     </g>
     <g id="text_15">
      <text style="font: 10px 'sans-serif'; text-anchor: middle" x="477.410379" y="369.729687" transform="rotate(-0, 477.410379, 369.729687)">40</text>
     </g>
    </g>
    <g id="xtick_16">
     <g id="line2d_19">
      <g>
       <use xlink:href="#m4c99cd72f3" x="493.32682" y="355.55625" style="stroke: #000000; stroke-width: 0.8"/>
      </g>
     </g>
     <g id="text_16">
      <text style="font: 10px 'sans-serif'; text-anchor: middle" x="493.32682" y="369.729687" transform="rotate(-0, 493.32682, 369.729687)">50</text>
     </g>
    </g>
    <g id="xtick_17">
     <g id="line2d_20">
      <g>
       <use xlink:href="#m4c99cd72f3" x="509.243262" y="355.55625" style="stroke: #000000; stroke-width: 0.8"/>
      </g>
     </g>
     <g id="text_17">
      <text style="font: 10px 'sans-serif'; text-anchor: middle" x="509.243262" y="369.729687" transform="rotate(-0, 509.243262, 369.729687)">60</text>
     </g>
    </g>
    <g id="xtick_18">
     <g id="line2d_21">
      <g>
       <use xlink:href="#m4c99cd72f3" x="525.159703" y="355.55625" style="stroke: #000000; stroke-width: 0.8"/>
      </g>
     </g>
     <g id="text_18">
      <text style="font: 10px 'sans-serif'; text-anchor: middle" x="525.159703" y="369.729687" transform="rotate(-0, 525.159703, 369.729687)">70</text>
     </g>
    </g>
    <g id="xtick_19">
     <g id="line2d_22">
      <g>
       <use xlink:href="#m4c99cd72f3" x="541.076145" y="355.55625" style="stroke: #000000; stroke-width: 0.8"/>
      </g>
     </g>
     <g id="text_19">
      <text style="font: 10px 'sans-serif'; text-anchor: middle" x="541.076145" y="369.729687" transform="rotate(-0, 541.076145, 369.729687)">80</text>
     </g>
    </g>
    <g id="xtick_20">
     <g id="line2d_23">
      <g>
       <use xlink:href="#m4c99cd72f3" x="556.992586" y="355.55625" style="stroke: #000000; stroke-width: 0.8"/>
      </g>
     </g>
     <g id="text_20">
      <text style="font: 10px 'sans-serif'; text-anchor: middle" x="556.992586" y="369.729687" transform="rotate(-0, 556.992586, 369.729687)">90</text>
     </g>
    </g>
    <g id="xtick_21">
     <g id="line2d_24">
      <g>
       <use xlink:href="#m4c99cd72f3" x="572.909028" y="355.55625" style="stroke: #000000; stroke-width: 0.8"/>
      </g>
     </g>
     <g id="text_21">
      <text style="font: 10px 'sans-serif'; text-anchor: middle" x="572.909028" y="369.729687" transform="rotate(-0, 572.909028, 369.729687)">100</text>
     </g>
    </g>
    <g id="text_22">
     <text style="font: 10px 'sans-serif'; text-anchor: middle" x="413.346701" y="382.9875" transform="rotate(-0, 413.346701, 382.9875)">Percentage</text>
    </g>
   </g>
   <g id="matplotlib.axis_2">
    <g id="ytick_1">
     <g id="line2d_25">
      <defs>
       <path id="m8e343aef83" d="M 0 0 
L -3.5 0 
" style="stroke: #000000; stroke-width: 0.8"/>
      </defs>
      <g>
       <use xlink:href="#m8e343aef83" x="253.784375" y="130.75799" style="stroke: #000000; stroke-width: 0.8"/>
      </g>
     </g>
     <g id="text_23">
      <text style="font: 11px 'sans-serif'" transform="translate(45.625312 123.70063)">recog1. Do you feel that your contribution</text>
      <text style="font: 11px 'sans-serif'" transform="translate(10.8 135.634255)">to research is recognised by your supervisor/line</text>
      <text style="font: 11px 'sans-serif'" transform="translate(203.373906 147.536943)">manager</text>
     </g>
    </g>
    <g id="ytick_2">
     <g id="line2d_26">
      <g>
       <use xlink:href="#m8e343aef83" x="253.784375" y="214.016605" style="stroke: #000000; stroke-width: 0.8"/>
      </g>
     </g>
     <g id="text_24">
      <text style="font: 11px 'sans-serif'" transform="translate(45.625312 206.875886)">recog2. Do you feel that your contribution</text>
      <text style="font: 11px 'sans-serif'" transform="translate(29.749219 218.809511)">to research is recognised by the researchers</text>
      <text style="font: 11px 'sans-serif'" transform="translate(180.153594 230.743136)">you work with</text>
     </g>
    </g>
    <g id="ytick_3">
     <g id="line2d_27">
      <g>
       <use xlink:href="#m8e343aef83" x="253.784375" y="297.27522" style="stroke: #000000; stroke-width: 0.8"/>
      </g>
     </g>
     <g id="text_25">
      <text style="font: 11px 'sans-serif'" transform="translate(45.625312 296.063501)">recog3. Do you feel that your contribution</text>
      <text style="font: 11px 'sans-serif'" transform="translate(29.130469 308.087876)">to research is recognised by your institution?</text>
     </g>
    </g>
   </g>
   <g id="patch_48">
    <path d="M 253.784375 355.55625 
L 572.909028 355.55625 
" style="fill: none; stroke: #000000; stroke-width: 0.8; stroke-linejoin: miter; stroke-linecap: square"/>
   </g>
   <g id="text_26">
    <text style="font: 10px 'sans-serif'; text-anchor: middle" x="371.783085" y="297.27522" transform="rotate(-0, 371.783085, 297.27522)">5</text>
   </g>
   <g id="text_27">
    <text style="font: 10px 'sans-serif'; text-anchor: middle" x="403.796836" y="130.75799" transform="rotate(-0, 403.796836, 130.75799)">5</text>
   </g>
   <g id="text_28">
    <text style="font: 10px 'sans-serif'; text-anchor: middle" x="405.367538" y="214.016605" transform="rotate(-0, 405.367538, 214.016605)">7</text>
   </g>
   <g id="text_29">
    <text style="font: 10px 'sans-serif'; text-anchor: middle" x="389.146476" y="297.27522" transform="rotate(-0, 389.146476, 297.27522)">16</text>
   </g>
   <g id="text_30">
    <text style="font: 10px 'sans-serif'; text-anchor: middle" x="413.744612" y="130.75799" transform="rotate(-0, 413.744612, 130.75799)">7</text>
   </g>
   <g id="text_31">
    <text style="font: 10px 'sans-serif'; text-anchor: middle" x="413.744612" y="297.27522" transform="rotate(-0, 413.744612, 297.27522)">15</text>
   </g>
   <g id="text_32">
    <text style="font: 10px 'sans-serif'; text-anchor: middle" x="445.009051" y="130.75799" transform="rotate(-0, 445.009051, 130.75799)">32</text>
   </g>
   <g id="text_33">
    <text style="font: 10px 'sans-serif'; text-anchor: middle" x="451.441448" y="214.016605" transform="rotate(-0, 451.441448, 214.016605)">44</text>
   </g>
   <g id="text_34">
    <text style="font: 10px 'sans-serif'; text-anchor: middle" x="458.600039" y="297.27522" transform="rotate(-0, 458.600039, 297.27522)">42</text>
   </g>
   <g id="text_35">
    <text style="font: 10px 'sans-serif'; text-anchor: middle" x="513.222372" y="130.75799" transform="rotate(-0, 513.222372, 130.75799)">54</text>
   </g>
   <g id="text_36">
    <text style="font: 10px 'sans-serif'; text-anchor: middle" x="519.854223" y="214.016605" transform="rotate(-0, 519.854223, 214.016605)">42</text>
   </g>
   <g id="text_37">
    <text style="font: 10px 'sans-serif'; text-anchor: middle" x="509.243262" y="297.27522" transform="rotate(-0, 509.243262, 297.27522)">22</text>
   </g>
   <g id="text_38">
    <text style="font: 10px 'sans-serif'; text-anchor: middle" x="371.783085" y="297.27522" transform="rotate(-0, 371.783085, 297.27522)">5</text>
   </g>
   <g id="text_39">
    <text style="font: 10px 'sans-serif'; text-anchor: middle" x="403.796836" y="130.75799" transform="rotate(-0, 403.796836, 130.75799)">5</text>
   </g>
   <g id="text_40">
    <text style="font: 10px 'sans-serif'; text-anchor: middle" x="405.367538" y="214.016605" transform="rotate(-0, 405.367538, 214.016605)">7</text>
   </g>
   <g id="text_41">
    <text style="font: 10px 'sans-serif'; text-anchor: middle" x="389.146476" y="297.27522" transform="rotate(-0, 389.146476, 297.27522)">16</text>
   </g>
   <g id="text_42">
    <text style="font: 10px 'sans-serif'; text-anchor: middle" x="413.744612" y="130.75799" transform="rotate(-0, 413.744612, 130.75799)">7</text>
   </g>
   <g id="text_43">
    <text style="font: 10px 'sans-serif'; text-anchor: middle" x="413.744612" y="297.27522" transform="rotate(-0, 413.744612, 297.27522)">15</text>
   </g>
   <g id="text_44">
    <text style="font: 10px 'sans-serif'; text-anchor: middle" x="445.009051" y="130.75799" transform="rotate(-0, 445.009051, 130.75799)">32</text>
   </g>
   <g id="text_45">
    <text style="font: 10px 'sans-serif'; text-anchor: middle" x="451.441448" y="214.016605" transform="rotate(-0, 451.441448, 214.016605)">44</text>
   </g>
   <g id="text_46">
    <text style="font: 10px 'sans-serif'; text-anchor: middle" x="458.600039" y="297.27522" transform="rotate(-0, 458.600039, 297.27522)">42</text>
   </g>
   <g id="text_47">
    <text style="font: 10px 'sans-serif'; text-anchor: middle" x="513.222372" y="130.75799" transform="rotate(-0, 513.222372, 130.75799)">54</text>
   </g>
   <g id="text_48">
    <text style="font: 10px 'sans-serif'; text-anchor: middle" x="519.854223" y="214.016605" transform="rotate(-0, 519.854223, 214.016605)">42</text>
   </g>
   <g id="text_49">
    <text style="font: 10px 'sans-serif'; text-anchor: middle" x="509.243262" y="297.27522" transform="rotate(-0, 509.243262, 297.27522)">22</text>
   </g>
   <g id="text_50">
    <text style="font: 10px 'sans-serif'; text-anchor: middle" x="371.783085" y="297.27522" transform="rotate(-0, 371.783085, 297.27522)">5</text>
   </g>
   <g id="text_51">
    <text style="font: 10px 'sans-serif'; text-anchor: middle" x="403.796836" y="130.75799" transform="rotate(-0, 403.796836, 130.75799)">5</text>
   </g>
   <g id="text_52">
    <text style="font: 10px 'sans-serif'; text-anchor: middle" x="405.367538" y="214.016605" transform="rotate(-0, 405.367538, 214.016605)">7</text>
   </g>
   <g id="text_53">
    <text style="font: 10px 'sans-serif'; text-anchor: middle" x="389.146476" y="297.27522" transform="rotate(-0, 389.146476, 297.27522)">16</text>
   </g>
   <g id="text_54">
    <text style="font: 10px 'sans-serif'; text-anchor: middle" x="413.744612" y="130.75799" transform="rotate(-0, 413.744612, 130.75799)">7</text>
   </g>
   <g id="text_55">
    <text style="font: 10px 'sans-serif'; text-anchor: middle" x="413.744612" y="297.27522" transform="rotate(-0, 413.744612, 297.27522)">15</text>
   </g>
   <g id="text_56">
    <text style="font: 10px 'sans-serif'; text-anchor: middle" x="445.009051" y="130.75799" transform="rotate(-0, 445.009051, 130.75799)">32</text>
   </g>
   <g id="text_57">
    <text style="font: 10px 'sans-serif'; text-anchor: middle" x="451.441448" y="214.016605" transform="rotate(-0, 451.441448, 214.016605)">44</text>
   </g>
   <g id="text_58">
    <text style="font: 10px 'sans-serif'; text-anchor: middle" x="458.600039" y="297.27522" transform="rotate(-0, 458.600039, 297.27522)">42</text>
   </g>
   <g id="text_59">
    <text style="font: 10px 'sans-serif'; text-anchor: middle" x="513.222372" y="130.75799" transform="rotate(-0, 513.222372, 130.75799)">54</text>
   </g>
   <g id="text_60">
    <text style="font: 10px 'sans-serif'; text-anchor: middle" x="519.854223" y="214.016605" transform="rotate(-0, 519.854223, 214.016605)">42</text>
   </g>
   <g id="text_61">
    <text style="font: 10px 'sans-serif'; text-anchor: middle" x="509.243262" y="297.27522" transform="rotate(-0, 509.243262, 297.27522)">22</text>
   </g>
   <g id="text_62">
    <text style="font: 12px 'sans-serif'; text-anchor: middle" x="413.346701" y="41.499375" transform="rotate(-0, 413.346701, 41.499375)">Recognition</text>
   </g>
   <g id="legend_1">
    <g id="patch_49">
     <path d="M 260.784375 350.55625 
L 565.909028 350.55625 
Q 567.909028 350.55625 567.909028 348.55625 
L 567.909028 313.629062 
Q 567.909028 311.629062 565.909028 311.629062 
L 260.784375 311.629062 
Q 258.784375 311.629062 258.784375 313.629062 
L 258.784375 348.55625 
Q 258.784375 350.55625 260.784375 350.55625 
z
" style="fill: #ffffff; opacity: 0.8; stroke: #cccccc; stroke-linejoin: miter"/>
    </g>
    <g id="patch_50">
     <path d="M 262.784375 334.679375 
L 282.784375 334.679375 
L 282.784375 327.679375 
L 262.784375 327.679375 
z
" style="fill: #67001f"/>
    </g>
    <g id="text_63">
     <text style="font: 10px 'sans-serif'" transform="translate(290.784375 328.246406)">Strongly</text>
     <text style="font: 10px 'sans-serif'" transform="translate(290.784375 339.095156)">disagree</text>
    </g>
    <g id="patch_51">
     <path d="M 321.480773 334.679375 
L 341.480773 334.679375 
L 341.480773 327.679375 
L 321.480773 327.679375 
z
" style="fill: #e58368"/>
    </g>
    <g id="text_64">
     <text style="font: 10px 'sans-serif'; text-anchor: start" x="349.480773" y="334.679375" transform="rotate(-0, 349.480773, 334.679375)">Disagree</text>
    </g>
    <g id="patch_52">
     <path d="M 381.838108 334.679375 
L 401.838108 334.679375 
L 401.838108 327.679375 
L 381.838108 327.679375 
z
" style="fill: #f6f7f7"/>
    </g>
    <g id="text_65">
     <text style="font: 10px 'sans-serif'" transform="translate(409.838108 322.8025)">Neither</text>
     <text style="font: 10px 'sans-serif'" transform="translate(409.838108 333.495)">agree</text>
     <text style="font: 10px 'sans-serif'" transform="translate(409.838108 344.34375)">or disagree</text>
    </g>
    <g id="patch_53">
     <path d="M 452.203255 334.679375 
L 472.203255 334.679375 
L 472.203255 327.679375 
L 452.203255 327.679375 
z
" style="fill: #68abd0"/>
    </g>
    <g id="text_66">
     <text style="font: 10px 'sans-serif'; text-anchor: start" x="480.203255" y="334.679375" transform="rotate(-0, 480.203255, 334.679375)">Agree</text>
    </g>
    <g id="patch_54">
     <path d="M 499.226215 334.679375 
L 519.226215 334.679375 
L 519.226215 327.679375 
L 499.226215 327.679375 
z
" style="fill: #053061"/>
    </g>
    <g id="text_67">
     <text style="font: 10px 'sans-serif'" transform="translate(527.226215 328.260469)">Strongly</text>
     <text style="font: 10px 'sans-serif'" transform="translate(527.226215 339.081094)">Agree</text>
    </g>
   </g>
  </g>
  <g id="text_68">
   <text style="font: 12px 'sans-serif'; text-anchor: middle" x="324" y="16.55625" transform="rotate(-0, 324, 16.55625)">Recognition: Netherlands</text>
  </g>
 </g>
 <defs>
  <clipPath id="pa24ca76626">
   <rect x="253.784375" y="47.499375" width="319.124653" height="308.056875"/>
  </clipPath>
 </defs>
</svg>
