<?xml version="1.0" encoding="utf-8" standalone="no"?>
<!DOCTYPE svg PUBLIC "-//W3C//DTD SVG 1.1//EN"
  "http://www.w3.org/Graphics/SVG/1.1/DTD/svg11.dtd">
<svg xmlns:xlink="http://www.w3.org/1999/xlink" width="648pt" height="288pt" viewBox="0 0 648 288" xmlns="http://www.w3.org/2000/svg" version="1.1">
 <metadata>
  <rdf:RDF xmlns:dc="http://purl.org/dc/elements/1.1/" xmlns:cc="http://creativecommons.org/ns#" xmlns:rdf="http://www.w3.org/1999/02/22-rdf-syntax-ns#">
   <cc:Work>
    <dc:type rdf:resource="http://purl.org/dc/dcmitype/StillImage"/>
    <dc:date>2022-03-18T15:58:49.871139</dc:date>
    <dc:format>image/svg+xml</dc:format>
    <dc:creator>
     <cc:Agent>
      <dc:title>Matplotlib v3.5.1, https://matplotlib.org/</dc:title>
     </cc:Agent>
    </dc:creator>
   </cc:Work>
  </rdf:RDF>
 </metadata>
 <defs>
  <style type="text/css">*{stroke-linejoin: round; stroke-linecap: butt}</style>
 </defs>
 <g id="figure_1">
  <g id="patch_1">
   <path d="M 0 288 
L 648 288 
L 648 0 
L 0 0 
z
" style="fill: #ffffff"/>
  </g>
  <g id="axes_1">
   <g id="patch_2">
    <path d="M 140.56 246.04 
L 630.169254 246.04 
L 630.169254 25.44 
L 140.56 25.44 
z
" style="fill: #ffffff"/>
   </g>
   <g id="line2d_1">
    <path d="M 385.364627 246.04 
L 385.364627 25.44 
" clip-path="url(#pbf474491a5)" style="fill: none; stroke-dasharray: 5.55,2.4; stroke-dashoffset: 0; stroke: #000000; stroke-opacity: 0.5; stroke-width: 1.5"/>
   </g>
   <g id="line2d_2">
    <path d="M 385.364627 246.04 
L 385.364627 25.44 
" clip-path="url(#pbf474491a5)" style="fill: none; stroke-dasharray: 5.55,2.4; stroke-dashoffset: 0; stroke: #000000; stroke-opacity: 0.5; stroke-width: 1.5"/>
   </g>
   <g id="line2d_3">
    <path d="M 385.364627 246.04 
L 385.364627 25.44 
" clip-path="url(#pbf474491a5)" style="fill: none; stroke-dasharray: 5.55,2.4; stroke-dashoffset: 0; stroke: #000000; stroke-opacity: 0.5; stroke-width: 1.5"/>
   </g>
   <g id="patch_3">
    <path d="M 385.364627 35.467273 
L 385.364627 35.467273 
L 385.364627 92.765974 
L 385.364627 92.765974 
z
" clip-path="url(#pbf474491a5)" style="fill: #67001f"/>
   </g>
   <g id="patch_4">
    <path d="M 385.364627 107.090649 
L 385.364627 107.090649 
L 385.364627 164.389351 
L 385.364627 164.389351 
z
" clip-path="url(#pbf474491a5)" style="fill: #67001f"/>
   </g>
   <g id="patch_5">
    <path d="M 263.57128 178.714026 
L 263.57128 178.714026 
L 263.57128 236.012727 
L 263.57128 236.012727 
z
" clip-path="url(#pbf474491a5)" style="fill: #67001f"/>
   </g>
   <g id="patch_6">
    <path d="M 385.364627 35.467273 
L 385.364627 35.467273 
L 385.364627 92.765974 
L 385.364627 92.765974 
z
" clip-path="url(#pbf474491a5)" style="fill: #e58368"/>
   </g>
   <g id="patch_7">
    <path d="M 385.364627 107.090649 
L 385.364627 107.090649 
L 385.364627 164.389351 
L 385.364627 164.389351 
z
" clip-path="url(#pbf474491a5)" style="fill: #e58368"/>
   </g>
   <g id="patch_8">
    <path d="M 263.57128 178.714026 
L 263.57128 178.714026 
L 263.57128 236.012727 
L 263.57128 236.012727 
z
" clip-path="url(#pbf474491a5)" style="fill: #e58368"/>
   </g>
   <g id="patch_9">
    <path d="M 385.364627 35.467273 
L 385.364627 35.467273 
L 385.364627 92.765974 
L 385.364627 92.765974 
z
" clip-path="url(#pbf474491a5)" style="fill: #f6f7f7"/>
   </g>
   <g id="patch_10">
    <path d="M 385.364627 107.090649 
L 385.364627 107.090649 
L 385.364627 164.389351 
L 385.364627 164.389351 
z
" clip-path="url(#pbf474491a5)" style="fill: #f6f7f7"/>
   </g>
   <g id="patch_11">
    <path d="M 263.57128 178.714026 
L 507.157974 178.714026 
L 507.157974 236.012727 
L 263.57128 236.012727 
z
" clip-path="url(#pbf474491a5)" style="fill: #f6f7f7"/>
   </g>
   <g id="patch_12">
    <path d="M 385.364627 35.467273 
L 628.95132 35.467273 
L 628.95132 92.765974 
L 385.364627 92.765974 
z
" clip-path="url(#pbf474491a5)" style="fill: #68abd0"/>
   </g>
   <g id="patch_13">
    <path d="M 385.364627 107.090649 
L 628.95132 107.090649 
L 628.95132 164.389351 
L 385.364627 164.389351 
z
" clip-path="url(#pbf474491a5)" style="fill: #68abd0"/>
   </g>
   <g id="patch_14">
    <path d="M 507.157974 178.714026 
L 507.157974 178.714026 
L 507.157974 236.012727 
L 507.157974 236.012727 
z
" clip-path="url(#pbf474491a5)" style="fill: #68abd0"/>
   </g>
   <g id="patch_15">
    <path d="M 628.95132 35.467273 
L 628.95132 35.467273 
L 628.95132 92.765974 
L 628.95132 92.765974 
z
" clip-path="url(#pbf474491a5)" style="fill: #053061"/>
   </g>
   <g id="patch_16">
    <path d="M 628.95132 107.090649 
L 628.95132 107.090649 
L 628.95132 164.389351 
L 628.95132 164.389351 
z
" clip-path="url(#pbf474491a5)" style="fill: #053061"/>
   </g>
   <g id="patch_17">
    <path d="M 507.157974 178.714026 
L 507.157974 178.714026 
L 507.157974 236.012727 
L 507.157974 236.012727 
z
" clip-path="url(#pbf474491a5)" style="fill: #053061"/>
   </g>
   <g id="patch_18">
    <path d="M 385.364627 35.467273 
L 385.364627 35.467273 
L 385.364627 92.765974 
L 385.364627 92.765974 
z
" clip-path="url(#pbf474491a5)" style="fill: #67001f"/>
   </g>
   <g id="patch_19">
    <path d="M 385.364627 107.090649 
L 385.364627 107.090649 
L 385.364627 164.389351 
L 385.364627 164.389351 
z
" clip-path="url(#pbf474491a5)" style="fill: #67001f"/>
   </g>
   <g id="patch_20">
    <path d="M 263.57128 178.714026 
L 263.57128 178.714026 
L 263.57128 236.012727 
L 263.57128 236.012727 
z
" clip-path="url(#pbf474491a5)" style="fill: #67001f"/>
   </g>
   <g id="patch_21">
    <path d="M 385.364627 35.467273 
L 385.364627 35.467273 
L 385.364627 92.765974 
L 385.364627 92.765974 
z
" clip-path="url(#pbf474491a5)" style="fill: #e58368"/>
   </g>
   <g id="patch_22">
    <path d="M 385.364627 107.090649 
L 385.364627 107.090649 
L 385.364627 164.389351 
L 385.364627 164.389351 
z
" clip-path="url(#pbf474491a5)" style="fill: #e58368"/>
   </g>
   <g id="patch_23">
    <path d="M 263.57128 178.714026 
L 263.57128 178.714026 
L 263.57128 236.012727 
L 263.57128 236.012727 
z
" clip-path="url(#pbf474491a5)" style="fill: #e58368"/>
   </g>
   <g id="patch_24">
    <path d="M 385.364627 35.467273 
L 385.364627 35.467273 
L 385.364627 92.765974 
L 385.364627 92.765974 
z
" clip-path="url(#pbf474491a5)" style="fill: #f6f7f7"/>
   </g>
   <g id="patch_25">
    <path d="M 385.364627 107.090649 
L 385.364627 107.090649 
L 385.364627 164.389351 
L 385.364627 164.389351 
z
" clip-path="url(#pbf474491a5)" style="fill: #f6f7f7"/>
   </g>
   <g id="patch_26">
    <path d="M 263.57128 178.714026 
L 507.157974 178.714026 
L 507.157974 236.012727 
L 263.57128 236.012727 
z
" clip-path="url(#pbf474491a5)" style="fill: #f6f7f7"/>
   </g>
   <g id="patch_27">
    <path d="M 385.364627 35.467273 
L 628.95132 35.467273 
L 628.95132 92.765974 
L 385.364627 92.765974 
z
" clip-path="url(#pbf474491a5)" style="fill: #68abd0"/>
   </g>
   <g id="patch_28">
    <path d="M 385.364627 107.090649 
L 628.95132 107.090649 
L 628.95132 164.389351 
L 385.364627 164.389351 
z
" clip-path="url(#pbf474491a5)" style="fill: #68abd0"/>
   </g>
   <g id="patch_29">
    <path d="M 507.157974 178.714026 
L 507.157974 178.714026 
L 507.157974 236.012727 
L 507.157974 236.012727 
z
" clip-path="url(#pbf474491a5)" style="fill: #68abd0"/>
   </g>
   <g id="patch_30">
    <path d="M 628.95132 35.467273 
L 628.95132 35.467273 
L 628.95132 92.765974 
L 628.95132 92.765974 
z
" clip-path="url(#pbf474491a5)" style="fill: #053061"/>
   </g>
   <g id="patch_31">
    <path d="M 628.95132 107.090649 
L 628.95132 107.090649 
L 628.95132 164.389351 
L 628.95132 164.389351 
z
" clip-path="url(#pbf474491a5)" style="fill: #053061"/>
   </g>
   <g id="patch_32">
    <path d="M 507.157974 178.714026 
L 507.157974 178.714026 
L 507.157974 236.012727 
L 507.157974 236.012727 
z
" clip-path="url(#pbf474491a5)" style="fill: #053061"/>
   </g>
   <g id="patch_33">
    <path d="M 385.364627 35.467273 
L 385.364627 35.467273 
L 385.364627 92.765974 
L 385.364627 92.765974 
z
" clip-path="url(#pbf474491a5)" style="fill: #67001f"/>
   </g>
   <g id="patch_34">
    <path d="M 385.364627 107.090649 
L 385.364627 107.090649 
L 385.364627 164.389351 
L 385.364627 164.389351 
z
" clip-path="url(#pbf474491a5)" style="fill: #67001f"/>
   </g>
   <g id="patch_35">
    <path d="M 263.57128 178.714026 
L 263.57128 178.714026 
L 263.57128 236.012727 
L 263.57128 236.012727 
z
" clip-path="url(#pbf474491a5)" style="fill: #67001f"/>
   </g>
   <g id="patch_36">
    <path d="M 385.364627 35.467273 
L 385.364627 35.467273 
L 385.364627 92.765974 
L 385.364627 92.765974 
z
" clip-path="url(#pbf474491a5)" style="fill: #e58368"/>
   </g>
   <g id="patch_37">
    <path d="M 385.364627 107.090649 
L 385.364627 107.090649 
L 385.364627 164.389351 
L 385.364627 164.389351 
z
" clip-path="url(#pbf474491a5)" style="fill: #e58368"/>
   </g>
   <g id="patch_38">
    <path d="M 263.57128 178.714026 
L 263.57128 178.714026 
L 263.57128 236.012727 
L 263.57128 236.012727 
z
" clip-path="url(#pbf474491a5)" style="fill: #e58368"/>
   </g>
   <g id="patch_39">
    <path d="M 385.364627 35.467273 
L 385.364627 35.467273 
L 385.364627 92.765974 
L 385.364627 92.765974 
z
" clip-path="url(#pbf474491a5)" style="fill: #f6f7f7"/>
   </g>
   <g id="patch_40">
    <path d="M 385.364627 107.090649 
L 385.364627 107.090649 
L 385.364627 164.389351 
L 385.364627 164.389351 
z
" clip-path="url(#pbf474491a5)" style="fill: #f6f7f7"/>
   </g>
   <g id="patch_41">
    <path d="M 263.57128 178.714026 
L 507.157974 178.714026 
L 507.157974 236.012727 
L 263.57128 236.012727 
z
" clip-path="url(#pbf474491a5)" style="fill: #f6f7f7"/>
   </g>
   <g id="patch_42">
    <path d="M 385.364627 35.467273 
L 628.95132 35.467273 
L 628.95132 92.765974 
L 385.364627 92.765974 
z
" clip-path="url(#pbf474491a5)" style="fill: #68abd0"/>
   </g>
   <g id="patch_43">
    <path d="M 385.364627 107.090649 
L 628.95132 107.090649 
L 628.95132 164.389351 
L 385.364627 164.389351 
z
" clip-path="url(#pbf474491a5)" style="fill: #68abd0"/>
   </g>
   <g id="patch_44">
    <path d="M 507.157974 178.714026 
L 507.157974 178.714026 
L 507.157974 236.012727 
L 507.157974 236.012727 
z
" clip-path="url(#pbf474491a5)" style="fill: #68abd0"/>
   </g>
   <g id="patch_45">
    <path d="M 628.95132 35.467273 
L 628.95132 35.467273 
L 628.95132 92.765974 
L 628.95132 92.765974 
z
" clip-path="url(#pbf474491a5)" style="fill: #053061"/>
   </g>
   <g id="patch_46">
    <path d="M 628.95132 107.090649 
L 628.95132 107.090649 
L 628.95132 164.389351 
L 628.95132 164.389351 
z
" clip-path="url(#pbf474491a5)" style="fill: #053061"/>
   </g>
   <g id="patch_47">
    <path d="M 507.157974 178.714026 
L 507.157974 178.714026 
L 507.157974 236.012727 
L 507.157974 236.012727 
z
" clip-path="url(#pbf474491a5)" style="fill: #053061"/>
   </g>
   <g id="matplotlib.axis_1">
    <g id="xtick_1">
     <g id="line2d_4">
      <defs>
       <path id="m4c99cd72f3" d="M 0 0 
L 0 3.5 
" style="stroke: #000000; stroke-width: 0.8"/>
      </defs>
      <g>
       <use xlink:href="#m4c99cd72f3" x="141.777933" y="246.04" style="stroke: #000000; stroke-width: 0.8"/>
      </g>
     </g>
     <g id="text_1">
      <text style="font: 10px 'sans-serif'; text-anchor: middle" x="141.777933" y="260.213437" transform="rotate(-0, 141.777933, 260.213437)">100</text>
     </g>
    </g>
    <g id="xtick_2">
     <g id="line2d_5">
      <g>
       <use xlink:href="#m4c99cd72f3" x="166.136603" y="246.04" style="stroke: #000000; stroke-width: 0.8"/>
      </g>
     </g>
     <g id="text_2">
      <text style="font: 10px 'sans-serif'; text-anchor: middle" x="166.136603" y="260.213437" transform="rotate(-0, 166.136603, 260.213437)">90</text>
     </g>
    </g>
    <g id="xtick_3">
     <g id="line2d_6">
      <g>
       <use xlink:href="#m4c99cd72f3" x="190.495272" y="246.04" style="stroke: #000000; stroke-width: 0.8"/>
      </g>
     </g>
     <g id="text_3">
      <text style="font: 10px 'sans-serif'; text-anchor: middle" x="190.495272" y="260.213437" transform="rotate(-0, 190.495272, 260.213437)">80</text>
     </g>
    </g>
    <g id="xtick_4">
     <g id="line2d_7">
      <g>
       <use xlink:href="#m4c99cd72f3" x="214.853941" y="246.04" style="stroke: #000000; stroke-width: 0.8"/>
      </g>
     </g>
     <g id="text_4">
      <text style="font: 10px 'sans-serif'; text-anchor: middle" x="214.853941" y="260.213437" transform="rotate(-0, 214.853941, 260.213437)">70</text>
     </g>
    </g>
    <g id="xtick_5">
     <g id="line2d_8">
      <g>
       <use xlink:href="#m4c99cd72f3" x="239.212611" y="246.04" style="stroke: #000000; stroke-width: 0.8"/>
      </g>
     </g>
     <g id="text_5">
      <text style="font: 10px 'sans-serif'; text-anchor: middle" x="239.212611" y="260.213437" transform="rotate(-0, 239.212611, 260.213437)">60</text>
     </g>
    </g>
    <g id="xtick_6">
     <g id="line2d_9">
      <g>
       <use xlink:href="#m4c99cd72f3" x="263.57128" y="246.04" style="stroke: #000000; stroke-width: 0.8"/>
      </g>
     </g>
     <g id="text_6">
      <text style="font: 10px 'sans-serif'; text-anchor: middle" x="263.57128" y="260.213437" transform="rotate(-0, 263.57128, 260.213437)">50</text>
     </g>
    </g>
    <g id="xtick_7">
     <g id="line2d_10">
      <g>
       <use xlink:href="#m4c99cd72f3" x="287.92995" y="246.04" style="stroke: #000000; stroke-width: 0.8"/>
      </g>
     </g>
     <g id="text_7">
      <text style="font: 10px 'sans-serif'; text-anchor: middle" x="287.92995" y="260.213437" transform="rotate(-0, 287.92995, 260.213437)">40</text>
     </g>
    </g>
    <g id="xtick_8">
     <g id="line2d_11">
      <g>
       <use xlink:href="#m4c99cd72f3" x="312.288619" y="246.04" style="stroke: #000000; stroke-width: 0.8"/>
      </g>
     </g>
     <g id="text_8">
      <text style="font: 10px 'sans-serif'; text-anchor: middle" x="312.288619" y="260.213437" transform="rotate(-0, 312.288619, 260.213437)">30</text>
     </g>
    </g>
    <g id="xtick_9">
     <g id="line2d_12">
      <g>
       <use xlink:href="#m4c99cd72f3" x="336.647288" y="246.04" style="stroke: #000000; stroke-width: 0.8"/>
      </g>
     </g>
     <g id="text_9">
      <text style="font: 10px 'sans-serif'; text-anchor: middle" x="336.647288" y="260.213437" transform="rotate(-0, 336.647288, 260.213437)">20</text>
     </g>
    </g>
    <g id="xtick_10">
     <g id="line2d_13">
      <g>
       <use xlink:href="#m4c99cd72f3" x="361.005958" y="246.04" style="stroke: #000000; stroke-width: 0.8"/>
      </g>
     </g>
     <g id="text_10">
      <text style="font: 10px 'sans-serif'; text-anchor: middle" x="361.005958" y="260.213437" transform="rotate(-0, 361.005958, 260.213437)">10</text>
     </g>
    </g>
    <g id="xtick_11">
     <g id="line2d_14">
      <g>
       <use xlink:href="#m4c99cd72f3" x="385.364627" y="246.04" style="stroke: #000000; stroke-width: 0.8"/>
      </g>
     </g>
     <g id="text_11">
      <text style="font: 10px 'sans-serif'; text-anchor: middle" x="385.364627" y="260.213437" transform="rotate(-0, 385.364627, 260.213437)">0</text>
     </g>
    </g>
    <g id="xtick_12">
     <g id="line2d_15">
      <g>
       <use xlink:href="#m4c99cd72f3" x="409.723296" y="246.04" style="stroke: #000000; stroke-width: 0.8"/>
      </g>
     </g>
     <g id="text_12">
      <text style="font: 10px 'sans-serif'; text-anchor: middle" x="409.723296" y="260.213437" transform="rotate(-0, 409.723296, 260.213437)">10</text>
     </g>
    </g>
    <g id="xtick_13">
     <g id="line2d_16">
      <g>
       <use xlink:href="#m4c99cd72f3" x="434.081966" y="246.04" style="stroke: #000000; stroke-width: 0.8"/>
      </g>
     </g>
     <g id="text_13">
      <text style="font: 10px 'sans-serif'; text-anchor: middle" x="434.081966" y="260.213437" transform="rotate(-0, 434.081966, 260.213437)">20</text>
     </g>
    </g>
    <g id="xtick_14">
     <g id="line2d_17">
      <g>
       <use xlink:href="#m4c99cd72f3" x="458.440635" y="246.04" style="stroke: #000000; stroke-width: 0.8"/>
      </g>
     </g>
     <g id="text_14">
      <text style="font: 10px 'sans-serif'; text-anchor: middle" x="458.440635" y="260.213437" transform="rotate(-0, 458.440635, 260.213437)">30</text>
     </g>
    </g>
    <g id="xtick_15">
     <g id="line2d_18">
      <g>
       <use xlink:href="#m4c99cd72f3" x="482.799304" y="246.04" style="stroke: #000000; stroke-width: 0.8"/>
      </g>
     </g>
     <g id="text_15">
      <text style="font: 10px 'sans-serif'; text-anchor: middle" x="482.799304" y="260.213437" transform="rotate(-0, 482.799304, 260.213437)">40</text>
     </g>
    </g>
    <g id="xtick_16">
     <g id="line2d_19">
      <g>
       <use xlink:href="#m4c99cd72f3" x="507.157974" y="246.04" style="stroke: #000000; stroke-width: 0.8"/>
      </g>
     </g>
     <g id="text_16">
      <text style="font: 10px 'sans-serif'; text-anchor: middle" x="507.157974" y="260.213437" transform="rotate(-0, 507.157974, 260.213437)">50</text>
     </g>
    </g>
    <g id="xtick_17">
     <g id="line2d_20">
      <g>
       <use xlink:href="#m4c99cd72f3" x="531.516643" y="246.04" style="stroke: #000000; stroke-width: 0.8"/>
      </g>
     </g>
     <g id="text_17">
      <text style="font: 10px 'sans-serif'; text-anchor: middle" x="531.516643" y="260.213437" transform="rotate(-0, 531.516643, 260.213437)">60</text>
     </g>
    </g>
    <g id="xtick_18">
     <g id="line2d_21">
      <g>
       <use xlink:href="#m4c99cd72f3" x="555.875312" y="246.04" style="stroke: #000000; stroke-width: 0.8"/>
      </g>
     </g>
     <g id="text_18">
      <text style="font: 10px 'sans-serif'; text-anchor: middle" x="555.875312" y="260.213437" transform="rotate(-0, 555.875312, 260.213437)">70</text>
     </g>
    </g>
    <g id="xtick_19">
     <g id="line2d_22">
      <g>
       <use xlink:href="#m4c99cd72f3" x="580.233982" y="246.04" style="stroke: #000000; stroke-width: 0.8"/>
      </g>
     </g>
     <g id="text_19">
      <text style="font: 10px 'sans-serif'; text-anchor: middle" x="580.233982" y="260.213437" transform="rotate(-0, 580.233982, 260.213437)">80</text>
     </g>
    </g>
    <g id="xtick_20">
     <g id="line2d_23">
      <g>
       <use xlink:href="#m4c99cd72f3" x="604.592651" y="246.04" style="stroke: #000000; stroke-width: 0.8"/>
      </g>
     </g>
     <g id="text_20">
      <text style="font: 10px 'sans-serif'; text-anchor: middle" x="604.592651" y="260.213437" transform="rotate(-0, 604.592651, 260.213437)">90</text>
     </g>
    </g>
    <g id="xtick_21">
     <g id="line2d_24">
      <g>
       <use xlink:href="#m4c99cd72f3" x="628.95132" y="246.04" style="stroke: #000000; stroke-width: 0.8"/>
      </g>
     </g>
     <g id="text_21">
      <text style="font: 10px 'sans-serif'; text-anchor: middle" x="628.95132" y="260.213437" transform="rotate(-0, 628.95132, 260.213437)">100</text>
     </g>
    </g>
    <g id="text_22">
     <text style="font: 10px 'sans-serif'; text-anchor: middle" x="385.364627" y="273.47125" transform="rotate(-0, 385.364627, 273.47125)">Percentage</text>
    </g>
   </g>
   <g id="matplotlib.axis_2">
    <g id="ytick_1">
     <g id="line2d_25">
      <defs>
       <path id="m8e343aef83" d="M 0 0 
L -3.5 0 
" style="stroke: #000000; stroke-width: 0.8"/>
      </defs>
      <g>
       <use xlink:href="#m8e343aef83" x="140.56" y="64.116623" style="stroke: #000000; stroke-width: 0.8"/>
      </g>
     </g>
     <g id="text_23">
      <text style="font: 11px 'sans-serif'" transform="translate(38.17625 45.201264)">recog1. Do you feel</text>
      <text style="font: 11px 'sans-serif'" transform="translate(30.840625 57.134889)">that your contribution</text>
      <text style="font: 11px 'sans-serif'" transform="translate(10.672813 68.992889)">to research is recognised</text>
      <text style="font: 11px 'sans-serif'" transform="translate(23.51875 80.926514)">by your supervisor/line</text>
      <text style="font: 11px 'sans-serif'" transform="translate(90.149531 92.753577)">manager</text>
     </g>
    </g>
    <g id="ytick_2">
     <g id="line2d_26">
      <g>
       <use xlink:href="#m8e343aef83" x="140.56" y="135.74" style="stroke: #000000; stroke-width: 0.8"/>
      </g>
     </g>
     <g id="text_24">
      <text style="font: 11px 'sans-serif'" transform="translate(38.17625 116.754172)">recog2. Do you feel</text>
      <text style="font: 11px 'sans-serif'" transform="translate(30.840625 128.687797)">that your contribution</text>
      <text style="font: 11px 'sans-serif'" transform="translate(10.672813 140.545797)">to research is recognised</text>
      <text style="font: 11px 'sans-serif'" transform="translate(21.677969 152.479422)">by the researchers you</text>
      <text style="font: 11px 'sans-serif'" transform="translate(87.719219 164.306484)">work with</text>
     </g>
    </g>
    <g id="ytick_3">
     <g id="line2d_27">
      <g>
       <use xlink:href="#m8e343aef83" x="140.56" y="207.363377" style="stroke: #000000; stroke-width: 0.8"/>
      </g>
     </g>
     <g id="text_25">
      <text style="font: 11px 'sans-serif'" transform="translate(38.17625 194.255845)">recog3. Do you feel</text>
      <text style="font: 11px 'sans-serif'" transform="translate(30.840625 206.18947)">that your contribution</text>
      <text style="font: 11px 'sans-serif'" transform="translate(10.672813 218.04747)">to research is recognised</text>
      <text style="font: 11px 'sans-serif'" transform="translate(41.849219 230.071845)">by your institution?</text>
     </g>
    </g>
   </g>
   <g id="patch_48">
    <path d="M 140.56 246.04 
L 630.169254 246.04 
" style="fill: none; stroke: #000000; stroke-width: 0.8; stroke-linejoin: miter; stroke-linecap: square"/>
   </g>
   <g id="text_26">
    <text style="font: 10px 'sans-serif'; text-anchor: middle" x="385.364627" y="207.363377" transform="rotate(-0, 385.364627, 207.363377)">100</text>
   </g>
   <g id="text_27">
    <text style="font: 10px 'sans-serif'; text-anchor: middle" x="507.157974" y="64.116623" transform="rotate(-0, 507.157974, 64.116623)">100</text>
   </g>
   <g id="text_28">
    <text style="font: 10px 'sans-serif'; text-anchor: middle" x="507.157974" y="135.74" transform="rotate(-0, 507.157974, 135.74)">100</text>
   </g>
   <g id="text_29">
    <text style="font: 10px 'sans-serif'; text-anchor: middle" x="385.364627" y="207.363377" transform="rotate(-0, 385.364627, 207.363377)">100</text>
   </g>
   <g id="text_30">
    <text style="font: 10px 'sans-serif'; text-anchor: middle" x="507.157974" y="64.116623" transform="rotate(-0, 507.157974, 64.116623)">100</text>
   </g>
   <g id="text_31">
    <text style="font: 10px 'sans-serif'; text-anchor: middle" x="507.157974" y="135.74" transform="rotate(-0, 507.157974, 135.74)">100</text>
   </g>
   <g id="text_32">
    <text style="font: 10px 'sans-serif'; text-anchor: middle" x="385.364627" y="207.363377" transform="rotate(-0, 385.364627, 207.363377)">100</text>
   </g>
   <g id="text_33">
    <text style="font: 10px 'sans-serif'; text-anchor: middle" x="507.157974" y="64.116623" transform="rotate(-0, 507.157974, 64.116623)">100</text>
   </g>
   <g id="text_34">
    <text style="font: 10px 'sans-serif'; text-anchor: middle" x="507.157974" y="135.74" transform="rotate(-0, 507.157974, 135.74)">100</text>
   </g>
   <g id="text_35">
    <text style="font: 12px 'sans-serif'; text-anchor: middle" x="385.364627" y="19.44" transform="rotate(-0, 385.364627, 19.44)">Recognition</text>
   </g>
   <g id="legend_1">
    <g id="patch_49">
     <path d="M 147.56 241.04 
L 623.169254 241.04 
Q 625.169254 241.04 625.169254 239.04 
L 625.169254 225.45875 
Q 625.169254 223.45875 623.169254 223.45875 
L 147.56 223.45875 
Q 145.56 223.45875 145.56 225.45875 
L 145.56 239.04 
Q 145.56 241.04 147.56 241.04 
z
" style="fill: #ffffff; opacity: 0.8; stroke: #cccccc; stroke-linejoin: miter"/>
    </g>
    <g id="patch_50">
     <path d="M 149.56 234.8275 
L 169.56 234.8275 
L 169.56 227.8275 
L 149.56 227.8275 
z
" style="fill: #67001f"/>
    </g>
    <g id="text_36">
     <text style="font: 10px 'sans-serif'; text-anchor: start" x="177.56" y="234.8275" transform="rotate(-0, 177.56, 234.8275)">Strongly disagree</text>
    </g>
    <g id="patch_51">
     <path d="M 257.267001 234.8275 
L 277.267001 234.8275 
L 277.267001 227.8275 
L 257.267001 227.8275 
z
" style="fill: #e58368"/>
    </g>
    <g id="text_37">
     <text style="font: 10px 'sans-serif'; text-anchor: start" x="285.267001" y="234.8275" transform="rotate(-0, 285.267001, 234.8275)">Disagree</text>
    </g>
    <g id="patch_52">
     <path d="M 327.174002 234.8275 
L 347.174002 234.8275 
L 347.174002 227.8275 
L 327.174002 227.8275 
z
" style="fill: #f6f7f7"/>
    </g>
    <g id="text_38">
     <text style="font: 10px 'sans-serif'; text-anchor: start" x="355.174002" y="234.8275" transform="rotate(-0, 355.174002, 234.8275)">Neither agree or disagree</text>
    </g>
    <g id="patch_53">
     <path d="M 470.452878 234.8275 
L 490.452878 234.8275 
L 490.452878 227.8275 
L 470.452878 227.8275 
z
" style="fill: #68abd0"/>
    </g>
    <g id="text_39">
     <text style="font: 10px 'sans-serif'; text-anchor: start" x="498.452878" y="234.8275" transform="rotate(-0, 498.452878, 234.8275)">Agree</text>
    </g>
    <g id="patch_54">
     <path d="M 527.025504 234.8275 
L 547.025504 234.8275 
L 547.025504 227.8275 
L 527.025504 227.8275 
z
" style="fill: #053061"/>
    </g>
    <g id="text_40">
     <text style="font: 10px 'sans-serif'; text-anchor: start" x="555.025504" y="234.8275" transform="rotate(-0, 555.025504, 234.8275)">Strongly Agree</text>
    </g>
   </g>
  </g>
 </g>
 <defs>
  <clipPath id="pbf474491a5">
   <rect x="140.56" y="25.44" width="489.609254" height="220.6"/>
  </clipPath>
 </defs>
</svg>
