<?xml version="1.0" encoding="utf-8" standalone="no"?>
<!DOCTYPE svg PUBLIC "-//W3C//DTD SVG 1.1//EN"
  "http://www.w3.org/Graphics/SVG/1.1/DTD/svg11.dtd">
<svg xmlns:xlink="http://www.w3.org/1999/xlink" width="648pt" height="396pt" viewBox="0 0 648 396" xmlns="http://www.w3.org/2000/svg" version="1.1">
 <metadata>
  <rdf:RDF xmlns:dc="http://purl.org/dc/elements/1.1/" xmlns:cc="http://creativecommons.org/ns#" xmlns:rdf="http://www.w3.org/1999/02/22-rdf-syntax-ns#">
   <cc:Work>
    <dc:type rdf:resource="http://purl.org/dc/dcmitype/StillImage"/>
    <dc:date>2022-03-21T16:09:01.067643</dc:date>
    <dc:format>image/svg+xml</dc:format>
    <dc:creator>
     <cc:Agent>
      <dc:title>Matplotlib v3.5.1, https://matplotlib.org/</dc:title>
     </cc:Agent>
    </dc:creator>
   </cc:Work>
  </rdf:RDF>
 </metadata>
 <defs>
  <style type="text/css">*{stroke-linejoin: round; stroke-linecap: butt}</style>
 </defs>
 <g id="figure_1">
  <g id="patch_1">
   <path d="M 0 396 
L 648 396 
L 648 0 
L 0 0 
z
" style="fill: #ffffff"/>
  </g>
  <g id="axes_1">
   <g id="patch_2">
    <path d="M 253.784375 355.55625 
L 572.726383 355.55625 
L 572.726383 47.705625 
L 253.784375 47.705625 
z
" style="fill: #ffffff"/>
   </g>
   <g id="line2d_1">
    <path d="M 413.255379 355.55625 
L 413.255379 47.705625 
" clip-path="url(#pd3b3e3852c)" style="fill: none; stroke-dasharray: 5.55,2.4; stroke-dashoffset: 0; stroke: #000000; stroke-opacity: 0.5; stroke-width: 1.5"/>
   </g>
   <g id="line2d_2">
    <path d="M 413.255379 355.55625 
L 413.255379 47.705625 
" clip-path="url(#pd3b3e3852c)" style="fill: none; stroke-dasharray: 5.55,2.4; stroke-dashoffset: 0; stroke: #000000; stroke-opacity: 0.5; stroke-width: 1.5"/>
   </g>
   <g id="line2d_3">
    <path d="M 413.255379 355.55625 
L 413.255379 47.705625 
" clip-path="url(#pd3b3e3852c)" style="fill: none; stroke-dasharray: 5.55,2.4; stroke-dashoffset: 0; stroke: #000000; stroke-opacity: 0.5; stroke-width: 1.5"/>
   </g>
   <g id="patch_3">
    <path d="M 413.255379 97.627348 
L 413.255379 97.627348 
L 413.255379 164.189645 
L 413.255379 164.189645 
z
" clip-path="url(#pd3b3e3852c)" style="fill: #67001f"/>
   </g>
   <g id="patch_4">
    <path d="M 413.255379 180.83022 
L 413.255379 180.83022 
L 413.255379 247.392517 
L 413.255379 247.392517 
z
" clip-path="url(#pd3b3e3852c)" style="fill: #67001f"/>
   </g>
   <g id="patch_5">
    <path d="M 333.916571 264.033091 
L 333.916571 264.033091 
L 333.916571 330.595389 
L 333.916571 330.595389 
z
" clip-path="url(#pd3b3e3852c)" style="fill: #67001f"/>
   </g>
   <g id="patch_6">
    <path d="M 413.255379 97.627348 
L 413.255379 97.627348 
L 413.255379 164.189645 
L 413.255379 164.189645 
z
" clip-path="url(#pd3b3e3852c)" style="fill: #e58368"/>
   </g>
   <g id="patch_7">
    <path d="M 413.255379 180.83022 
L 413.255379 180.83022 
L 413.255379 247.392517 
L 413.255379 247.392517 
z
" clip-path="url(#pd3b3e3852c)" style="fill: #e58368"/>
   </g>
   <g id="patch_8">
    <path d="M 333.916571 264.033091 
L 333.916571 264.033091 
L 333.916571 330.595389 
L 333.916571 330.595389 
z
" clip-path="url(#pd3b3e3852c)" style="fill: #e58368"/>
   </g>
   <g id="patch_9">
    <path d="M 413.255379 97.627348 
L 413.255379 97.627348 
L 413.255379 164.189645 
L 413.255379 164.189645 
z
" clip-path="url(#pd3b3e3852c)" style="fill: #f6f7f7"/>
   </g>
   <g id="patch_10">
    <path d="M 413.255379 180.83022 
L 413.255379 180.83022 
L 413.255379 247.392517 
L 413.255379 247.392517 
z
" clip-path="url(#pd3b3e3852c)" style="fill: #f6f7f7"/>
   </g>
   <g id="patch_11">
    <path d="M 333.916571 264.033091 
L 492.594187 264.033091 
L 492.594187 330.595389 
L 333.916571 330.595389 
z
" clip-path="url(#pd3b3e3852c)" style="fill: #f6f7f7"/>
   </g>
   <g id="patch_12">
    <path d="M 413.255379 97.627348 
L 571.932994 97.627348 
L 571.932994 164.189645 
L 413.255379 164.189645 
z
" clip-path="url(#pd3b3e3852c)" style="fill: #68abd0"/>
   </g>
   <g id="patch_13">
    <path d="M 413.255379 180.83022 
L 571.932994 180.83022 
L 571.932994 247.392517 
L 413.255379 247.392517 
z
" clip-path="url(#pd3b3e3852c)" style="fill: #68abd0"/>
   </g>
   <g id="patch_14">
    <path d="M 492.594187 264.033091 
L 492.594187 264.033091 
L 492.594187 330.595389 
L 492.594187 330.595389 
z
" clip-path="url(#pd3b3e3852c)" style="fill: #68abd0"/>
   </g>
   <g id="patch_15">
    <path d="M 571.932994 97.627348 
L 571.932994 97.627348 
L 571.932994 164.189645 
L 571.932994 164.189645 
z
" clip-path="url(#pd3b3e3852c)" style="fill: #053061"/>
   </g>
   <g id="patch_16">
    <path d="M 571.932994 180.83022 
L 571.932994 180.83022 
L 571.932994 247.392517 
L 571.932994 247.392517 
z
" clip-path="url(#pd3b3e3852c)" style="fill: #053061"/>
   </g>
   <g id="patch_17">
    <path d="M 492.594187 264.033091 
L 492.594187 264.033091 
L 492.594187 330.595389 
L 492.594187 330.595389 
z
" clip-path="url(#pd3b3e3852c)" style="fill: #053061"/>
   </g>
   <g id="patch_18">
    <path d="M 413.255379 97.627348 
L 413.255379 97.627348 
L 413.255379 164.189645 
L 413.255379 164.189645 
z
" clip-path="url(#pd3b3e3852c)" style="fill: #67001f"/>
   </g>
   <g id="patch_19">
    <path d="M 413.255379 180.83022 
L 413.255379 180.83022 
L 413.255379 247.392517 
L 413.255379 247.392517 
z
" clip-path="url(#pd3b3e3852c)" style="fill: #67001f"/>
   </g>
   <g id="patch_20">
    <path d="M 333.916571 264.033091 
L 333.916571 264.033091 
L 333.916571 330.595389 
L 333.916571 330.595389 
z
" clip-path="url(#pd3b3e3852c)" style="fill: #67001f"/>
   </g>
   <g id="patch_21">
    <path d="M 413.255379 97.627348 
L 413.255379 97.627348 
L 413.255379 164.189645 
L 413.255379 164.189645 
z
" clip-path="url(#pd3b3e3852c)" style="fill: #e58368"/>
   </g>
   <g id="patch_22">
    <path d="M 413.255379 180.83022 
L 413.255379 180.83022 
L 413.255379 247.392517 
L 413.255379 247.392517 
z
" clip-path="url(#pd3b3e3852c)" style="fill: #e58368"/>
   </g>
   <g id="patch_23">
    <path d="M 333.916571 264.033091 
L 333.916571 264.033091 
L 333.916571 330.595389 
L 333.916571 330.595389 
z
" clip-path="url(#pd3b3e3852c)" style="fill: #e58368"/>
   </g>
   <g id="patch_24">
    <path d="M 413.255379 97.627348 
L 413.255379 97.627348 
L 413.255379 164.189645 
L 413.255379 164.189645 
z
" clip-path="url(#pd3b3e3852c)" style="fill: #f6f7f7"/>
   </g>
   <g id="patch_25">
    <path d="M 413.255379 180.83022 
L 413.255379 180.83022 
L 413.255379 247.392517 
L 413.255379 247.392517 
z
" clip-path="url(#pd3b3e3852c)" style="fill: #f6f7f7"/>
   </g>
   <g id="patch_26">
    <path d="M 333.916571 264.033091 
L 492.594187 264.033091 
L 492.594187 330.595389 
L 333.916571 330.595389 
z
" clip-path="url(#pd3b3e3852c)" style="fill: #f6f7f7"/>
   </g>
   <g id="patch_27">
    <path d="M 413.255379 97.627348 
L 571.932994 97.627348 
L 571.932994 164.189645 
L 413.255379 164.189645 
z
" clip-path="url(#pd3b3e3852c)" style="fill: #68abd0"/>
   </g>
   <g id="patch_28">
    <path d="M 413.255379 180.83022 
L 571.932994 180.83022 
L 571.932994 247.392517 
L 413.255379 247.392517 
z
" clip-path="url(#pd3b3e3852c)" style="fill: #68abd0"/>
   </g>
   <g id="patch_29">
    <path d="M 492.594187 264.033091 
L 492.594187 264.033091 
L 492.594187 330.595389 
L 492.594187 330.595389 
z
" clip-path="url(#pd3b3e3852c)" style="fill: #68abd0"/>
   </g>
   <g id="patch_30">
    <path d="M 571.932994 97.627348 
L 571.932994 97.627348 
L 571.932994 164.189645 
L 571.932994 164.189645 
z
" clip-path="url(#pd3b3e3852c)" style="fill: #053061"/>
   </g>
   <g id="patch_31">
    <path d="M 571.932994 180.83022 
L 571.932994 180.83022 
L 571.932994 247.392517 
L 571.932994 247.392517 
z
" clip-path="url(#pd3b3e3852c)" style="fill: #053061"/>
   </g>
   <g id="patch_32">
    <path d="M 492.594187 264.033091 
L 492.594187 264.033091 
L 492.594187 330.595389 
L 492.594187 330.595389 
z
" clip-path="url(#pd3b3e3852c)" style="fill: #053061"/>
   </g>
   <g id="patch_33">
    <path d="M 413.255379 97.627348 
L 413.255379 97.627348 
L 413.255379 164.189645 
L 413.255379 164.189645 
z
" clip-path="url(#pd3b3e3852c)" style="fill: #67001f"/>
   </g>
   <g id="patch_34">
    <path d="M 413.255379 180.83022 
L 413.255379 180.83022 
L 413.255379 247.392517 
L 413.255379 247.392517 
z
" clip-path="url(#pd3b3e3852c)" style="fill: #67001f"/>
   </g>
   <g id="patch_35">
    <path d="M 333.916571 264.033091 
L 333.916571 264.033091 
L 333.916571 330.595389 
L 333.916571 330.595389 
z
" clip-path="url(#pd3b3e3852c)" style="fill: #67001f"/>
   </g>
   <g id="patch_36">
    <path d="M 413.255379 97.627348 
L 413.255379 97.627348 
L 413.255379 164.189645 
L 413.255379 164.189645 
z
" clip-path="url(#pd3b3e3852c)" style="fill: #e58368"/>
   </g>
   <g id="patch_37">
    <path d="M 413.255379 180.83022 
L 413.255379 180.83022 
L 413.255379 247.392517 
L 413.255379 247.392517 
z
" clip-path="url(#pd3b3e3852c)" style="fill: #e58368"/>
   </g>
   <g id="patch_38">
    <path d="M 333.916571 264.033091 
L 333.916571 264.033091 
L 333.916571 330.595389 
L 333.916571 330.595389 
z
" clip-path="url(#pd3b3e3852c)" style="fill: #e58368"/>
   </g>
   <g id="patch_39">
    <path d="M 413.255379 97.627348 
L 413.255379 97.627348 
L 413.255379 164.189645 
L 413.255379 164.189645 
z
" clip-path="url(#pd3b3e3852c)" style="fill: #f6f7f7"/>
   </g>
   <g id="patch_40">
    <path d="M 413.255379 180.83022 
L 413.255379 180.83022 
L 413.255379 247.392517 
L 413.255379 247.392517 
z
" clip-path="url(#pd3b3e3852c)" style="fill: #f6f7f7"/>
   </g>
   <g id="patch_41">
    <path d="M 333.916571 264.033091 
L 492.594187 264.033091 
L 492.594187 330.595389 
L 333.916571 330.595389 
z
" clip-path="url(#pd3b3e3852c)" style="fill: #f6f7f7"/>
   </g>
   <g id="patch_42">
    <path d="M 413.255379 97.627348 
L 571.932994 97.627348 
L 571.932994 164.189645 
L 413.255379 164.189645 
z
" clip-path="url(#pd3b3e3852c)" style="fill: #68abd0"/>
   </g>
   <g id="patch_43">
    <path d="M 413.255379 180.83022 
L 571.932994 180.83022 
L 571.932994 247.392517 
L 413.255379 247.392517 
z
" clip-path="url(#pd3b3e3852c)" style="fill: #68abd0"/>
   </g>
   <g id="patch_44">
    <path d="M 492.594187 264.033091 
L 492.594187 264.033091 
L 492.594187 330.595389 
L 492.594187 330.595389 
z
" clip-path="url(#pd3b3e3852c)" style="fill: #68abd0"/>
   </g>
   <g id="patch_45">
    <path d="M 571.932994 97.627348 
L 571.932994 97.627348 
L 571.932994 164.189645 
L 571.932994 164.189645 
z
" clip-path="url(#pd3b3e3852c)" style="fill: #053061"/>
   </g>
   <g id="patch_46">
    <path d="M 571.932994 180.83022 
L 571.932994 180.83022 
L 571.932994 247.392517 
L 571.932994 247.392517 
z
" clip-path="url(#pd3b3e3852c)" style="fill: #053061"/>
   </g>
   <g id="patch_47">
    <path d="M 492.594187 264.033091 
L 492.594187 264.033091 
L 492.594187 330.595389 
L 492.594187 330.595389 
z
" clip-path="url(#pd3b3e3852c)" style="fill: #053061"/>
   </g>
   <g id="matplotlib.axis_1">
    <g id="xtick_1">
     <g id="line2d_4">
      <defs>
       <path id="m4c99cd72f3" d="M 0 0 
L 0 3.5 
" style="stroke: #000000; stroke-width: 0.8"/>
      </defs>
      <g>
       <use xlink:href="#m4c99cd72f3" x="254.577763" y="355.55625" style="stroke: #000000; stroke-width: 0.8"/>
      </g>
     </g>
     <g id="text_1">
      <text style="font: 10px 'sans-serif'; text-anchor: middle" x="254.577763" y="369.729687" transform="rotate(-0, 254.577763, 369.729687)">100</text>
     </g>
    </g>
    <g id="xtick_2">
     <g id="line2d_5">
      <g>
       <use xlink:href="#m4c99cd72f3" x="270.445525" y="355.55625" style="stroke: #000000; stroke-width: 0.8"/>
      </g>
     </g>
     <g id="text_2">
      <text style="font: 10px 'sans-serif'; text-anchor: middle" x="270.445525" y="369.729687" transform="rotate(-0, 270.445525, 369.729687)">90</text>
     </g>
    </g>
    <g id="xtick_3">
     <g id="line2d_6">
      <g>
       <use xlink:href="#m4c99cd72f3" x="286.313286" y="355.55625" style="stroke: #000000; stroke-width: 0.8"/>
      </g>
     </g>
     <g id="text_3">
      <text style="font: 10px 'sans-serif'; text-anchor: middle" x="286.313286" y="369.729687" transform="rotate(-0, 286.313286, 369.729687)">80</text>
     </g>
    </g>
    <g id="xtick_4">
     <g id="line2d_7">
      <g>
       <use xlink:href="#m4c99cd72f3" x="302.181048" y="355.55625" style="stroke: #000000; stroke-width: 0.8"/>
      </g>
     </g>
     <g id="text_4">
      <text style="font: 10px 'sans-serif'; text-anchor: middle" x="302.181048" y="369.729687" transform="rotate(-0, 302.181048, 369.729687)">70</text>
     </g>
    </g>
    <g id="xtick_5">
     <g id="line2d_8">
      <g>
       <use xlink:href="#m4c99cd72f3" x="318.048809" y="355.55625" style="stroke: #000000; stroke-width: 0.8"/>
      </g>
     </g>
     <g id="text_5">
      <text style="font: 10px 'sans-serif'; text-anchor: middle" x="318.048809" y="369.729687" transform="rotate(-0, 318.048809, 369.729687)">60</text>
     </g>
    </g>
    <g id="xtick_6">
     <g id="line2d_9">
      <g>
       <use xlink:href="#m4c99cd72f3" x="333.916571" y="355.55625" style="stroke: #000000; stroke-width: 0.8"/>
      </g>
     </g>
     <g id="text_6">
      <text style="font: 10px 'sans-serif'; text-anchor: middle" x="333.916571" y="369.729687" transform="rotate(-0, 333.916571, 369.729687)">50</text>
     </g>
    </g>
    <g id="xtick_7">
     <g id="line2d_10">
      <g>
       <use xlink:href="#m4c99cd72f3" x="349.784332" y="355.55625" style="stroke: #000000; stroke-width: 0.8"/>
      </g>
     </g>
     <g id="text_7">
      <text style="font: 10px 'sans-serif'; text-anchor: middle" x="349.784332" y="369.729687" transform="rotate(-0, 349.784332, 369.729687)">40</text>
     </g>
    </g>
    <g id="xtick_8">
     <g id="line2d_11">
      <g>
       <use xlink:href="#m4c99cd72f3" x="365.652094" y="355.55625" style="stroke: #000000; stroke-width: 0.8"/>
      </g>
     </g>
     <g id="text_8">
      <text style="font: 10px 'sans-serif'; text-anchor: middle" x="365.652094" y="369.729687" transform="rotate(-0, 365.652094, 369.729687)">30</text>
     </g>
    </g>
    <g id="xtick_9">
     <g id="line2d_12">
      <g>
       <use xlink:href="#m4c99cd72f3" x="381.519856" y="355.55625" style="stroke: #000000; stroke-width: 0.8"/>
      </g>
     </g>
     <g id="text_9">
      <text style="font: 10px 'sans-serif'; text-anchor: middle" x="381.519856" y="369.729687" transform="rotate(-0, 381.519856, 369.729687)">20</text>
     </g>
    </g>
    <g id="xtick_10">
     <g id="line2d_13">
      <g>
       <use xlink:href="#m4c99cd72f3" x="397.387617" y="355.55625" style="stroke: #000000; stroke-width: 0.8"/>
      </g>
     </g>
     <g id="text_10">
      <text style="font: 10px 'sans-serif'; text-anchor: middle" x="397.387617" y="369.729687" transform="rotate(-0, 397.387617, 369.729687)">10</text>
     </g>
    </g>
    <g id="xtick_11">
     <g id="line2d_14">
      <g>
       <use xlink:href="#m4c99cd72f3" x="413.255379" y="355.55625" style="stroke: #000000; stroke-width: 0.8"/>
      </g>
     </g>
     <g id="text_11">
      <text style="font: 10px 'sans-serif'; text-anchor: middle" x="413.255379" y="369.729687" transform="rotate(-0, 413.255379, 369.729687)">0</text>
     </g>
    </g>
    <g id="xtick_12">
     <g id="line2d_15">
      <g>
       <use xlink:href="#m4c99cd72f3" x="429.12314" y="355.55625" style="stroke: #000000; stroke-width: 0.8"/>
      </g>
     </g>
     <g id="text_12">
      <text style="font: 10px 'sans-serif'; text-anchor: middle" x="429.12314" y="369.729687" transform="rotate(-0, 429.12314, 369.729687)">10</text>
     </g>
    </g>
    <g id="xtick_13">
     <g id="line2d_16">
      <g>
       <use xlink:href="#m4c99cd72f3" x="444.990902" y="355.55625" style="stroke: #000000; stroke-width: 0.8"/>
      </g>
     </g>
     <g id="text_13">
      <text style="font: 10px 'sans-serif'; text-anchor: middle" x="444.990902" y="369.729687" transform="rotate(-0, 444.990902, 369.729687)">20</text>
     </g>
    </g>
    <g id="xtick_14">
     <g id="line2d_17">
      <g>
       <use xlink:href="#m4c99cd72f3" x="460.858663" y="355.55625" style="stroke: #000000; stroke-width: 0.8"/>
      </g>
     </g>
     <g id="text_14">
      <text style="font: 10px 'sans-serif'; text-anchor: middle" x="460.858663" y="369.729687" transform="rotate(-0, 460.858663, 369.729687)">30</text>
     </g>
    </g>
    <g id="xtick_15">
     <g id="line2d_18">
      <g>
       <use xlink:href="#m4c99cd72f3" x="476.726425" y="355.55625" style="stroke: #000000; stroke-width: 0.8"/>
      </g>
     </g>
     <g id="text_15">
      <text style="font: 10px 'sans-serif'; text-anchor: middle" x="476.726425" y="369.729687" transform="rotate(-0, 476.726425, 369.729687)">40</text>
     </g>
    </g>
    <g id="xtick_16">
     <g id="line2d_19">
      <g>
       <use xlink:href="#m4c99cd72f3" x="492.594187" y="355.55625" style="stroke: #000000; stroke-width: 0.8"/>
      </g>
     </g>
     <g id="text_16">
      <text style="font: 10px 'sans-serif'; text-anchor: middle" x="492.594187" y="369.729687" transform="rotate(-0, 492.594187, 369.729687)">50</text>
     </g>
    </g>
    <g id="xtick_17">
     <g id="line2d_20">
      <g>
       <use xlink:href="#m4c99cd72f3" x="508.461948" y="355.55625" style="stroke: #000000; stroke-width: 0.8"/>
      </g>
     </g>
     <g id="text_17">
      <text style="font: 10px 'sans-serif'; text-anchor: middle" x="508.461948" y="369.729687" transform="rotate(-0, 508.461948, 369.729687)">60</text>
     </g>
    </g>
    <g id="xtick_18">
     <g id="line2d_21">
      <g>
       <use xlink:href="#m4c99cd72f3" x="524.32971" y="355.55625" style="stroke: #000000; stroke-width: 0.8"/>
      </g>
     </g>
     <g id="text_18">
      <text style="font: 10px 'sans-serif'; text-anchor: middle" x="524.32971" y="369.729687" transform="rotate(-0, 524.32971, 369.729687)">70</text>
     </g>
    </g>
    <g id="xtick_19">
     <g id="line2d_22">
      <g>
       <use xlink:href="#m4c99cd72f3" x="540.197471" y="355.55625" style="stroke: #000000; stroke-width: 0.8"/>
      </g>
     </g>
     <g id="text_19">
      <text style="font: 10px 'sans-serif'; text-anchor: middle" x="540.197471" y="369.729687" transform="rotate(-0, 540.197471, 369.729687)">80</text>
     </g>
    </g>
    <g id="xtick_20">
     <g id="line2d_23">
      <g>
       <use xlink:href="#m4c99cd72f3" x="556.065233" y="355.55625" style="stroke: #000000; stroke-width: 0.8"/>
      </g>
     </g>
     <g id="text_20">
      <text style="font: 10px 'sans-serif'; text-anchor: middle" x="556.065233" y="369.729687" transform="rotate(-0, 556.065233, 369.729687)">90</text>
     </g>
    </g>
    <g id="xtick_21">
     <g id="line2d_24">
      <g>
       <use xlink:href="#m4c99cd72f3" x="571.932994" y="355.55625" style="stroke: #000000; stroke-width: 0.8"/>
      </g>
     </g>
     <g id="text_21">
      <text style="font: 10px 'sans-serif'; text-anchor: middle" x="571.932994" y="369.729687" transform="rotate(-0, 571.932994, 369.729687)">100</text>
     </g>
    </g>
    <g id="text_22">
     <text style="font: 10px 'sans-serif'; text-anchor: middle" x="413.255379" y="382.9875" transform="rotate(-0, 413.255379, 382.9875)">Percentage</text>
    </g>
   </g>
   <g id="matplotlib.axis_2">
    <g id="ytick_1">
     <g id="line2d_25">
      <defs>
       <path id="m8e343aef83" d="M 0 0 
L -3.5 0 
" style="stroke: #000000; stroke-width: 0.8"/>
      </defs>
      <g>
       <use xlink:href="#m8e343aef83" x="253.784375" y="130.908497" style="stroke: #000000; stroke-width: 0.8"/>
      </g>
     </g>
     <g id="text_23">
      <text style="font: 11px 'sans-serif'" transform="translate(45.625312 123.851137)">recog1. Do you feel that your contribution</text>
      <text style="font: 11px 'sans-serif'" transform="translate(10.8 135.784762)">to research is recognised by your supervisor/line</text>
      <text style="font: 11px 'sans-serif'" transform="translate(203.373906 147.68745)">manager</text>
     </g>
    </g>
    <g id="ytick_2">
     <g id="line2d_26">
      <g>
       <use xlink:href="#m8e343aef83" x="253.784375" y="214.111368" style="stroke: #000000; stroke-width: 0.8"/>
      </g>
     </g>
     <g id="text_24">
      <text style="font: 11px 'sans-serif'" transform="translate(45.625312 206.970649)">recog2. Do you feel that your contribution</text>
      <text style="font: 11px 'sans-serif'" transform="translate(29.749219 218.904274)">to research is recognised by the researchers</text>
      <text style="font: 11px 'sans-serif'" transform="translate(180.153594 230.837899)">you work with</text>
     </g>
    </g>
    <g id="ytick_3">
     <g id="line2d_27">
      <g>
       <use xlink:href="#m8e343aef83" x="253.784375" y="297.31424" style="stroke: #000000; stroke-width: 0.8"/>
      </g>
     </g>
     <g id="text_25">
      <text style="font: 11px 'sans-serif'" transform="translate(45.625312 296.102521)">recog3. Do you feel that your contribution</text>
      <text style="font: 11px 'sans-serif'" transform="translate(29.130469 308.126896)">to research is recognised by your institution?</text>
     </g>
    </g>
   </g>
   <g id="patch_48">
    <path d="M 253.784375 355.55625 
L 572.726383 355.55625 
" style="fill: none; stroke: #000000; stroke-width: 0.8; stroke-linejoin: miter; stroke-linecap: square"/>
   </g>
   <g id="text_26">
    <text style="font: 10px 'sans-serif'; text-anchor: middle" x="413.255379" y="297.31424" transform="rotate(-0, 413.255379, 297.31424)">100</text>
   </g>
   <g id="text_27">
    <text style="font: 10px 'sans-serif'; text-anchor: middle" x="492.594187" y="130.908497" transform="rotate(-0, 492.594187, 130.908497)">100</text>
   </g>
   <g id="text_28">
    <text style="font: 10px 'sans-serif'; text-anchor: middle" x="492.594187" y="214.111368" transform="rotate(-0, 492.594187, 214.111368)">100</text>
   </g>
   <g id="text_29">
    <text style="font: 10px 'sans-serif'; text-anchor: middle" x="413.255379" y="297.31424" transform="rotate(-0, 413.255379, 297.31424)">100</text>
   </g>
   <g id="text_30">
    <text style="font: 10px 'sans-serif'; text-anchor: middle" x="492.594187" y="130.908497" transform="rotate(-0, 492.594187, 130.908497)">100</text>
   </g>
   <g id="text_31">
    <text style="font: 10px 'sans-serif'; text-anchor: middle" x="492.594187" y="214.111368" transform="rotate(-0, 492.594187, 214.111368)">100</text>
   </g>
   <g id="text_32">
    <text style="font: 10px 'sans-serif'; text-anchor: middle" x="413.255379" y="297.31424" transform="rotate(-0, 413.255379, 297.31424)">100</text>
   </g>
   <g id="text_33">
    <text style="font: 10px 'sans-serif'; text-anchor: middle" x="492.594187" y="130.908497" transform="rotate(-0, 492.594187, 130.908497)">100</text>
   </g>
   <g id="text_34">
    <text style="font: 10px 'sans-serif'; text-anchor: middle" x="492.594187" y="214.111368" transform="rotate(-0, 492.594187, 214.111368)">100</text>
   </g>
   <g id="text_35">
    <text style="font: 12px 'sans-serif'; text-anchor: middle" x="413.255379" y="41.705625" transform="rotate(-0, 413.255379, 41.705625)">Recognition</text>
   </g>
   <g id="legend_1">
    <g id="patch_49">
     <path d="M 260.784375 350.55625 
L 565.726383 350.55625 
Q 567.726383 350.55625 567.726383 348.55625 
L 567.726383 313.629062 
Q 567.726383 311.629062 565.726383 311.629062 
L 260.784375 311.629062 
Q 258.784375 311.629062 258.784375 313.629062 
L 258.784375 348.55625 
Q 258.784375 350.55625 260.784375 350.55625 
z
" style="fill: #ffffff; opacity: 0.8; stroke: #cccccc; stroke-linejoin: miter"/>
    </g>
    <g id="patch_50">
     <path d="M 262.784375 334.679375 
L 282.784375 334.679375 
L 282.784375 327.679375 
L 262.784375 327.679375 
z
" style="fill: #67001f"/>
    </g>
    <g id="text_36">
     <text style="font: 10px 'sans-serif'" transform="translate(290.784375 328.246406)">Strongly</text>
     <text style="font: 10px 'sans-serif'" transform="translate(290.784375 339.095156)">disagree</text>
    </g>
    <g id="patch_51">
     <path d="M 321.435111 334.679375 
L 341.435111 334.679375 
L 341.435111 327.679375 
L 321.435111 327.679375 
z
" style="fill: #e58368"/>
    </g>
    <g id="text_37">
     <text style="font: 10px 'sans-serif'; text-anchor: start" x="349.435111" y="334.679375" transform="rotate(-0, 349.435111, 334.679375)">Disagree</text>
    </g>
    <g id="patch_52">
     <path d="M 381.746785 334.679375 
L 401.746785 334.679375 
L 401.746785 327.679375 
L 381.746785 327.679375 
z
" style="fill: #f6f7f7"/>
    </g>
    <g id="text_38">
     <text style="font: 10px 'sans-serif'" transform="translate(409.746785 322.8025)">Neither</text>
     <text style="font: 10px 'sans-serif'" transform="translate(409.746785 333.495)">agree</text>
     <text style="font: 10px 'sans-serif'" transform="translate(409.746785 344.34375)">or disagree</text>
    </g>
    <g id="patch_53">
     <path d="M 452.066271 334.679375 
L 472.066271 334.679375 
L 472.066271 327.679375 
L 452.066271 327.679375 
z
" style="fill: #68abd0"/>
    </g>
    <g id="text_39">
     <text style="font: 10px 'sans-serif'; text-anchor: start" x="480.066271" y="334.679375" transform="rotate(-0, 480.066271, 334.679375)">Agree</text>
    </g>
    <g id="patch_54">
     <path d="M 499.04357 334.679375 
L 519.04357 334.679375 
L 519.04357 327.679375 
L 499.04357 327.679375 
z
" style="fill: #053061"/>
    </g>
    <g id="text_40">
     <text style="font: 10px 'sans-serif'" transform="translate(527.04357 328.260469)">Strongly</text>
     <text style="font: 10px 'sans-serif'" transform="translate(527.04357 339.081094)">Agree</text>
    </g>
   </g>
  </g>
  <g id="text_41">
   <text style="font: 12px 'sans-serif'; text-anchor: middle" x="324" y="16.7625" transform="rotate(-0, 324, 16.7625)">Recognition: South Africa</text>
  </g>
 </g>
 <defs>
  <clipPath id="pd3b3e3852c">
   <rect x="253.784375" y="47.705625" width="318.942008" height="307.850625"/>
  </clipPath>
 </defs>
</svg>
