<?xml version="1.0" encoding="utf-8" standalone="no"?>
<!DOCTYPE svg PUBLIC "-//W3C//DTD SVG 1.1//EN"
  "http://www.w3.org/Graphics/SVG/1.1/DTD/svg11.dtd">
<svg xmlns:xlink="http://www.w3.org/1999/xlink" width="648pt" height="288pt" viewBox="0 0 648 288" xmlns="http://www.w3.org/2000/svg" version="1.1">
 <metadata>
  <rdf:RDF xmlns:dc="http://purl.org/dc/elements/1.1/" xmlns:cc="http://creativecommons.org/ns#" xmlns:rdf="http://www.w3.org/1999/02/22-rdf-syntax-ns#">
   <cc:Work>
    <dc:type rdf:resource="http://purl.org/dc/dcmitype/StillImage"/>
    <dc:date>2022-03-18T15:58:54.539672</dc:date>
    <dc:format>image/svg+xml</dc:format>
    <dc:creator>
     <cc:Agent>
      <dc:title>Matplotlib v3.5.1, https://matplotlib.org/</dc:title>
     </cc:Agent>
    </dc:creator>
   </cc:Work>
  </rdf:RDF>
 </metadata>
 <defs>
  <style type="text/css">*{stroke-linejoin: round; stroke-linecap: butt}</style>
 </defs>
 <g id="figure_1">
  <g id="patch_1">
   <path d="M 0 288 
L 648 288 
L 648 0 
L 0 0 
z
" style="fill: #ffffff"/>
  </g>
  <g id="axes_1">
   <g id="patch_2">
    <path d="M 140.56 246.04 
L 628.92 246.04 
L 628.92 25.44 
L 140.56 25.44 
z
" style="fill: #ffffff"/>
   </g>
   <g id="line2d_1">
    <path d="M 385.348928 246.04 
L 385.348928 25.44 
" clip-path="url(#p9b2342d02b)" style="fill: none; stroke-dasharray: 5.55,2.4; stroke-dashoffset: 0; stroke: #000000; stroke-opacity: 0.5; stroke-width: 1.5"/>
   </g>
   <g id="line2d_2">
    <path d="M 385.348928 246.04 
L 385.348928 25.44 
" clip-path="url(#p9b2342d02b)" style="fill: none; stroke-dasharray: 5.55,2.4; stroke-dashoffset: 0; stroke: #000000; stroke-opacity: 0.5; stroke-width: 1.5"/>
   </g>
   <g id="line2d_3">
    <path d="M 385.348928 246.04 
L 385.348928 25.44 
" clip-path="url(#p9b2342d02b)" style="fill: none; stroke-dasharray: 5.55,2.4; stroke-dashoffset: 0; stroke: #000000; stroke-opacity: 0.5; stroke-width: 1.5"/>
   </g>
   <g id="patch_3">
    <path d="M 350.55306 35.467273 
L 355.906271 35.467273 
L 355.906271 92.765974 
L 350.55306 92.765974 
z
" clip-path="url(#p9b2342d02b)" style="fill: #67001f"/>
   </g>
   <g id="patch_4">
    <path d="M 348.484117 107.090649 
L 351.117318 107.090649 
L 351.117318 164.389351 
L 348.484117 164.389351 
z
" clip-path="url(#p9b2342d02b)" style="fill: #67001f"/>
   </g>
   <g id="patch_5">
    <path d="M 296.039534 178.714026 
L 316.337124 178.714026 
L 316.337124 236.012727 
L 296.039534 236.012727 
z
" clip-path="url(#p9b2342d02b)" style="fill: #67001f"/>
   </g>
   <g id="patch_6">
    <path d="M 355.906271 35.467273 
L 374.642507 35.467273 
L 374.642507 92.765974 
L 355.906271 92.765974 
z
" clip-path="url(#p9b2342d02b)" style="fill: #e58368"/>
   </g>
   <g id="patch_7">
    <path d="M 351.117318 107.090649 
L 373.499524 107.090649 
L 373.499524 164.389351 
L 351.117318 164.389351 
z
" clip-path="url(#p9b2342d02b)" style="fill: #e58368"/>
   </g>
   <g id="patch_8">
    <path d="M 316.337124 178.714026 
L 350.166439 178.714026 
L 350.166439 236.012727 
L 316.337124 236.012727 
z
" clip-path="url(#p9b2342d02b)" style="fill: #e58368"/>
   </g>
   <g id="patch_9">
    <path d="M 374.642507 35.467273 
L 396.055348 35.467273 
L 396.055348 92.765974 
L 374.642507 92.765974 
z
" clip-path="url(#p9b2342d02b)" style="fill: #f6f7f7"/>
   </g>
   <g id="patch_10">
    <path d="M 373.499524 107.090649 
L 397.198331 107.090649 
L 397.198331 164.389351 
L 373.499524 164.389351 
z
" clip-path="url(#p9b2342d02b)" style="fill: #f6f7f7"/>
   </g>
   <g id="patch_11">
    <path d="M 350.166439 178.714026 
L 420.531416 178.714026 
L 420.531416 236.012727 
L 350.166439 236.012727 
z
" clip-path="url(#p9b2342d02b)" style="fill: #f6f7f7"/>
   </g>
   <g id="patch_12">
    <path d="M 396.055348 35.467273 
L 479.030109 35.467273 
L 479.030109 92.765974 
L 396.055348 92.765974 
z
" clip-path="url(#p9b2342d02b)" style="fill: #68abd0"/>
   </g>
   <g id="patch_13">
    <path d="M 397.198331 107.090649 
L 505.159563 107.090649 
L 505.159563 164.389351 
L 397.198331 164.389351 
z
" clip-path="url(#p9b2342d02b)" style="fill: #68abd0"/>
   </g>
   <g id="patch_14">
    <path d="M 420.531416 178.714026 
L 507.134464 178.714026 
L 507.134464 236.012727 
L 420.531416 236.012727 
z
" clip-path="url(#p9b2342d02b)" style="fill: #68abd0"/>
   </g>
   <g id="patch_15">
    <path d="M 479.030109 35.467273 
L 594.124133 35.467273 
L 594.124133 92.765974 
L 479.030109 92.765974 
z
" clip-path="url(#p9b2342d02b)" style="fill: #053061"/>
   </g>
   <g id="patch_16">
    <path d="M 505.159563 107.090649 
L 592.055189 107.090649 
L 592.055189 164.389351 
L 505.159563 164.389351 
z
" clip-path="url(#p9b2342d02b)" style="fill: #053061"/>
   </g>
   <g id="patch_17">
    <path d="M 507.134464 178.714026 
L 539.610607 178.714026 
L 539.610607 236.012727 
L 507.134464 236.012727 
z
" clip-path="url(#p9b2342d02b)" style="fill: #053061"/>
   </g>
   <g id="patch_18">
    <path d="M 350.55306 35.467273 
L 355.906271 35.467273 
L 355.906271 92.765974 
L 350.55306 92.765974 
z
" clip-path="url(#p9b2342d02b)" style="fill: #67001f"/>
   </g>
   <g id="patch_19">
    <path d="M 348.484117 107.090649 
L 351.117318 107.090649 
L 351.117318 164.389351 
L 348.484117 164.389351 
z
" clip-path="url(#p9b2342d02b)" style="fill: #67001f"/>
   </g>
   <g id="patch_20">
    <path d="M 296.039534 178.714026 
L 316.337124 178.714026 
L 316.337124 236.012727 
L 296.039534 236.012727 
z
" clip-path="url(#p9b2342d02b)" style="fill: #67001f"/>
   </g>
   <g id="patch_21">
    <path d="M 355.906271 35.467273 
L 374.642507 35.467273 
L 374.642507 92.765974 
L 355.906271 92.765974 
z
" clip-path="url(#p9b2342d02b)" style="fill: #e58368"/>
   </g>
   <g id="patch_22">
    <path d="M 351.117318 107.090649 
L 373.499524 107.090649 
L 373.499524 164.389351 
L 351.117318 164.389351 
z
" clip-path="url(#p9b2342d02b)" style="fill: #e58368"/>
   </g>
   <g id="patch_23">
    <path d="M 316.337124 178.714026 
L 350.166439 178.714026 
L 350.166439 236.012727 
L 316.337124 236.012727 
z
" clip-path="url(#p9b2342d02b)" style="fill: #e58368"/>
   </g>
   <g id="patch_24">
    <path d="M 374.642507 35.467273 
L 396.055348 35.467273 
L 396.055348 92.765974 
L 374.642507 92.765974 
z
" clip-path="url(#p9b2342d02b)" style="fill: #f6f7f7"/>
   </g>
   <g id="patch_25">
    <path d="M 373.499524 107.090649 
L 397.198331 107.090649 
L 397.198331 164.389351 
L 373.499524 164.389351 
z
" clip-path="url(#p9b2342d02b)" style="fill: #f6f7f7"/>
   </g>
   <g id="patch_26">
    <path d="M 350.166439 178.714026 
L 420.531416 178.714026 
L 420.531416 236.012727 
L 350.166439 236.012727 
z
" clip-path="url(#p9b2342d02b)" style="fill: #f6f7f7"/>
   </g>
   <g id="patch_27">
    <path d="M 396.055348 35.467273 
L 479.030109 35.467273 
L 479.030109 92.765974 
L 396.055348 92.765974 
z
" clip-path="url(#p9b2342d02b)" style="fill: #68abd0"/>
   </g>
   <g id="patch_28">
    <path d="M 397.198331 107.090649 
L 505.159563 107.090649 
L 505.159563 164.389351 
L 397.198331 164.389351 
z
" clip-path="url(#p9b2342d02b)" style="fill: #68abd0"/>
   </g>
   <g id="patch_29">
    <path d="M 420.531416 178.714026 
L 507.134464 178.714026 
L 507.134464 236.012727 
L 420.531416 236.012727 
z
" clip-path="url(#p9b2342d02b)" style="fill: #68abd0"/>
   </g>
   <g id="patch_30">
    <path d="M 479.030109 35.467273 
L 594.124133 35.467273 
L 594.124133 92.765974 
L 479.030109 92.765974 
z
" clip-path="url(#p9b2342d02b)" style="fill: #053061"/>
   </g>
   <g id="patch_31">
    <path d="M 505.159563 107.090649 
L 592.055189 107.090649 
L 592.055189 164.389351 
L 505.159563 164.389351 
z
" clip-path="url(#p9b2342d02b)" style="fill: #053061"/>
   </g>
   <g id="patch_32">
    <path d="M 507.134464 178.714026 
L 539.610607 178.714026 
L 539.610607 236.012727 
L 507.134464 236.012727 
z
" clip-path="url(#p9b2342d02b)" style="fill: #053061"/>
   </g>
   <g id="patch_33">
    <path d="M 350.55306 35.467273 
L 355.906271 35.467273 
L 355.906271 92.765974 
L 350.55306 92.765974 
z
" clip-path="url(#p9b2342d02b)" style="fill: #67001f"/>
   </g>
   <g id="patch_34">
    <path d="M 348.484117 107.090649 
L 351.117318 107.090649 
L 351.117318 164.389351 
L 348.484117 164.389351 
z
" clip-path="url(#p9b2342d02b)" style="fill: #67001f"/>
   </g>
   <g id="patch_35">
    <path d="M 296.039534 178.714026 
L 316.337124 178.714026 
L 316.337124 236.012727 
L 296.039534 236.012727 
z
" clip-path="url(#p9b2342d02b)" style="fill: #67001f"/>
   </g>
   <g id="patch_36">
    <path d="M 355.906271 35.467273 
L 374.642507 35.467273 
L 374.642507 92.765974 
L 355.906271 92.765974 
z
" clip-path="url(#p9b2342d02b)" style="fill: #e58368"/>
   </g>
   <g id="patch_37">
    <path d="M 351.117318 107.090649 
L 373.499524 107.090649 
L 373.499524 164.389351 
L 351.117318 164.389351 
z
" clip-path="url(#p9b2342d02b)" style="fill: #e58368"/>
   </g>
   <g id="patch_38">
    <path d="M 316.337124 178.714026 
L 350.166439 178.714026 
L 350.166439 236.012727 
L 316.337124 236.012727 
z
" clip-path="url(#p9b2342d02b)" style="fill: #e58368"/>
   </g>
   <g id="patch_39">
    <path d="M 374.642507 35.467273 
L 396.055348 35.467273 
L 396.055348 92.765974 
L 374.642507 92.765974 
z
" clip-path="url(#p9b2342d02b)" style="fill: #f6f7f7"/>
   </g>
   <g id="patch_40">
    <path d="M 373.499524 107.090649 
L 397.198331 107.090649 
L 397.198331 164.389351 
L 373.499524 164.389351 
z
" clip-path="url(#p9b2342d02b)" style="fill: #f6f7f7"/>
   </g>
   <g id="patch_41">
    <path d="M 350.166439 178.714026 
L 420.531416 178.714026 
L 420.531416 236.012727 
L 350.166439 236.012727 
z
" clip-path="url(#p9b2342d02b)" style="fill: #f6f7f7"/>
   </g>
   <g id="patch_42">
    <path d="M 396.055348 35.467273 
L 479.030109 35.467273 
L 479.030109 92.765974 
L 396.055348 92.765974 
z
" clip-path="url(#p9b2342d02b)" style="fill: #68abd0"/>
   </g>
   <g id="patch_43">
    <path d="M 397.198331 107.090649 
L 505.159563 107.090649 
L 505.159563 164.389351 
L 397.198331 164.389351 
z
" clip-path="url(#p9b2342d02b)" style="fill: #68abd0"/>
   </g>
   <g id="patch_44">
    <path d="M 420.531416 178.714026 
L 507.134464 178.714026 
L 507.134464 236.012727 
L 420.531416 236.012727 
z
" clip-path="url(#p9b2342d02b)" style="fill: #68abd0"/>
   </g>
   <g id="patch_45">
    <path d="M 479.030109 35.467273 
L 594.124133 35.467273 
L 594.124133 92.765974 
L 479.030109 92.765974 
z
" clip-path="url(#p9b2342d02b)" style="fill: #053061"/>
   </g>
   <g id="patch_46">
    <path d="M 505.159563 107.090649 
L 592.055189 107.090649 
L 592.055189 164.389351 
L 505.159563 164.389351 
z
" clip-path="url(#p9b2342d02b)" style="fill: #053061"/>
   </g>
   <g id="patch_47">
    <path d="M 507.134464 178.714026 
L 539.610607 178.714026 
L 539.610607 236.012727 
L 507.134464 236.012727 
z
" clip-path="url(#p9b2342d02b)" style="fill: #053061"/>
   </g>
   <g id="matplotlib.axis_1">
    <g id="xtick_1">
     <g id="line2d_4">
      <defs>
       <path id="m4c99cd72f3" d="M 0 0 
L 0 3.5 
" style="stroke: #000000; stroke-width: 0.8"/>
      </defs>
      <g>
       <use xlink:href="#m4c99cd72f3" x="141.777855" y="246.04" style="stroke: #000000; stroke-width: 0.8"/>
      </g>
     </g>
     <g id="text_1">
      <text style="font: 10px 'sans-serif'; text-anchor: middle" x="141.777855" y="260.213437" transform="rotate(-0, 141.777855, 260.213437)">100</text>
     </g>
    </g>
    <g id="xtick_2">
     <g id="line2d_5">
      <g>
       <use xlink:href="#m4c99cd72f3" x="166.134963" y="246.04" style="stroke: #000000; stroke-width: 0.8"/>
      </g>
     </g>
     <g id="text_2">
      <text style="font: 10px 'sans-serif'; text-anchor: middle" x="166.134963" y="260.213437" transform="rotate(-0, 166.134963, 260.213437)">90</text>
     </g>
    </g>
    <g id="xtick_3">
     <g id="line2d_6">
      <g>
       <use xlink:href="#m4c99cd72f3" x="190.49207" y="246.04" style="stroke: #000000; stroke-width: 0.8"/>
      </g>
     </g>
     <g id="text_3">
      <text style="font: 10px 'sans-serif'; text-anchor: middle" x="190.49207" y="260.213437" transform="rotate(-0, 190.49207, 260.213437)">80</text>
     </g>
    </g>
    <g id="xtick_4">
     <g id="line2d_7">
      <g>
       <use xlink:href="#m4c99cd72f3" x="214.849177" y="246.04" style="stroke: #000000; stroke-width: 0.8"/>
      </g>
     </g>
     <g id="text_4">
      <text style="font: 10px 'sans-serif'; text-anchor: middle" x="214.849177" y="260.213437" transform="rotate(-0, 214.849177, 260.213437)">70</text>
     </g>
    </g>
    <g id="xtick_5">
     <g id="line2d_8">
      <g>
       <use xlink:href="#m4c99cd72f3" x="239.206284" y="246.04" style="stroke: #000000; stroke-width: 0.8"/>
      </g>
     </g>
     <g id="text_5">
      <text style="font: 10px 'sans-serif'; text-anchor: middle" x="239.206284" y="260.213437" transform="rotate(-0, 239.206284, 260.213437)">60</text>
     </g>
    </g>
    <g id="xtick_6">
     <g id="line2d_9">
      <g>
       <use xlink:href="#m4c99cd72f3" x="263.563392" y="246.04" style="stroke: #000000; stroke-width: 0.8"/>
      </g>
     </g>
     <g id="text_6">
      <text style="font: 10px 'sans-serif'; text-anchor: middle" x="263.563392" y="260.213437" transform="rotate(-0, 263.563392, 260.213437)">50</text>
     </g>
    </g>
    <g id="xtick_7">
     <g id="line2d_10">
      <g>
       <use xlink:href="#m4c99cd72f3" x="287.920499" y="246.04" style="stroke: #000000; stroke-width: 0.8"/>
      </g>
     </g>
     <g id="text_7">
      <text style="font: 10px 'sans-serif'; text-anchor: middle" x="287.920499" y="260.213437" transform="rotate(-0, 287.920499, 260.213437)">40</text>
     </g>
    </g>
    <g id="xtick_8">
     <g id="line2d_11">
      <g>
       <use xlink:href="#m4c99cd72f3" x="312.277606" y="246.04" style="stroke: #000000; stroke-width: 0.8"/>
      </g>
     </g>
     <g id="text_8">
      <text style="font: 10px 'sans-serif'; text-anchor: middle" x="312.277606" y="260.213437" transform="rotate(-0, 312.277606, 260.213437)">30</text>
     </g>
    </g>
    <g id="xtick_9">
     <g id="line2d_12">
      <g>
       <use xlink:href="#m4c99cd72f3" x="336.634713" y="246.04" style="stroke: #000000; stroke-width: 0.8"/>
      </g>
     </g>
     <g id="text_9">
      <text style="font: 10px 'sans-serif'; text-anchor: middle" x="336.634713" y="260.213437" transform="rotate(-0, 336.634713, 260.213437)">20</text>
     </g>
    </g>
    <g id="xtick_10">
     <g id="line2d_13">
      <g>
       <use xlink:href="#m4c99cd72f3" x="360.99182" y="246.04" style="stroke: #000000; stroke-width: 0.8"/>
      </g>
     </g>
     <g id="text_10">
      <text style="font: 10px 'sans-serif'; text-anchor: middle" x="360.99182" y="260.213437" transform="rotate(-0, 360.99182, 260.213437)">10</text>
     </g>
    </g>
    <g id="xtick_11">
     <g id="line2d_14">
      <g>
       <use xlink:href="#m4c99cd72f3" x="385.348928" y="246.04" style="stroke: #000000; stroke-width: 0.8"/>
      </g>
     </g>
     <g id="text_11">
      <text style="font: 10px 'sans-serif'; text-anchor: middle" x="385.348928" y="260.213437" transform="rotate(-0, 385.348928, 260.213437)">0</text>
     </g>
    </g>
    <g id="xtick_12">
     <g id="line2d_15">
      <g>
       <use xlink:href="#m4c99cd72f3" x="409.706035" y="246.04" style="stroke: #000000; stroke-width: 0.8"/>
      </g>
     </g>
     <g id="text_12">
      <text style="font: 10px 'sans-serif'; text-anchor: middle" x="409.706035" y="260.213437" transform="rotate(-0, 409.706035, 260.213437)">10</text>
     </g>
    </g>
    <g id="xtick_13">
     <g id="line2d_16">
      <g>
       <use xlink:href="#m4c99cd72f3" x="434.063142" y="246.04" style="stroke: #000000; stroke-width: 0.8"/>
      </g>
     </g>
     <g id="text_13">
      <text style="font: 10px 'sans-serif'; text-anchor: middle" x="434.063142" y="260.213437" transform="rotate(-0, 434.063142, 260.213437)">20</text>
     </g>
    </g>
    <g id="xtick_14">
     <g id="line2d_17">
      <g>
       <use xlink:href="#m4c99cd72f3" x="458.420249" y="246.04" style="stroke: #000000; stroke-width: 0.8"/>
      </g>
     </g>
     <g id="text_14">
      <text style="font: 10px 'sans-serif'; text-anchor: middle" x="458.420249" y="260.213437" transform="rotate(-0, 458.420249, 260.213437)">30</text>
     </g>
    </g>
    <g id="xtick_15">
     <g id="line2d_18">
      <g>
       <use xlink:href="#m4c99cd72f3" x="482.777357" y="246.04" style="stroke: #000000; stroke-width: 0.8"/>
      </g>
     </g>
     <g id="text_15">
      <text style="font: 10px 'sans-serif'; text-anchor: middle" x="482.777357" y="260.213437" transform="rotate(-0, 482.777357, 260.213437)">40</text>
     </g>
    </g>
    <g id="xtick_16">
     <g id="line2d_19">
      <g>
       <use xlink:href="#m4c99cd72f3" x="507.134464" y="246.04" style="stroke: #000000; stroke-width: 0.8"/>
      </g>
     </g>
     <g id="text_16">
      <text style="font: 10px 'sans-serif'; text-anchor: middle" x="507.134464" y="260.213437" transform="rotate(-0, 507.134464, 260.213437)">50</text>
     </g>
    </g>
    <g id="xtick_17">
     <g id="line2d_20">
      <g>
       <use xlink:href="#m4c99cd72f3" x="531.491571" y="246.04" style="stroke: #000000; stroke-width: 0.8"/>
      </g>
     </g>
     <g id="text_17">
      <text style="font: 10px 'sans-serif'; text-anchor: middle" x="531.491571" y="260.213437" transform="rotate(-0, 531.491571, 260.213437)">60</text>
     </g>
    </g>
    <g id="xtick_18">
     <g id="line2d_21">
      <g>
       <use xlink:href="#m4c99cd72f3" x="555.848678" y="246.04" style="stroke: #000000; stroke-width: 0.8"/>
      </g>
     </g>
     <g id="text_18">
      <text style="font: 10px 'sans-serif'; text-anchor: middle" x="555.848678" y="260.213437" transform="rotate(-0, 555.848678, 260.213437)">70</text>
     </g>
    </g>
    <g id="xtick_19">
     <g id="line2d_22">
      <g>
       <use xlink:href="#m4c99cd72f3" x="580.205786" y="246.04" style="stroke: #000000; stroke-width: 0.8"/>
      </g>
     </g>
     <g id="text_19">
      <text style="font: 10px 'sans-serif'; text-anchor: middle" x="580.205786" y="260.213437" transform="rotate(-0, 580.205786, 260.213437)">80</text>
     </g>
    </g>
    <g id="xtick_20">
     <g id="line2d_23">
      <g>
       <use xlink:href="#m4c99cd72f3" x="604.562893" y="246.04" style="stroke: #000000; stroke-width: 0.8"/>
      </g>
     </g>
     <g id="text_20">
      <text style="font: 10px 'sans-serif'; text-anchor: middle" x="604.562893" y="260.213437" transform="rotate(-0, 604.562893, 260.213437)">90</text>
     </g>
    </g>
    <g id="xtick_21">
     <g id="line2d_24">
      <g>
       <use xlink:href="#m4c99cd72f3" x="628.92" y="246.04" style="stroke: #000000; stroke-width: 0.8"/>
      </g>
     </g>
     <g id="text_21">
      <text style="font: 10px 'sans-serif'; text-anchor: middle" x="628.92" y="260.213437" transform="rotate(-0, 628.92, 260.213437)">100</text>
     </g>
    </g>
    <g id="text_22">
     <text style="font: 10px 'sans-serif'; text-anchor: middle" x="384.74" y="273.47125" transform="rotate(-0, 384.74, 273.47125)">Percentage</text>
    </g>
   </g>
   <g id="matplotlib.axis_2">
    <g id="ytick_1">
     <g id="line2d_25">
      <defs>
       <path id="m8e343aef83" d="M 0 0 
L -3.5 0 
" style="stroke: #000000; stroke-width: 0.8"/>
      </defs>
      <g>
       <use xlink:href="#m8e343aef83" x="140.56" y="64.116623" style="stroke: #000000; stroke-width: 0.8"/>
      </g>
     </g>
     <g id="text_23">
      <text style="font: 11px 'sans-serif'" transform="translate(38.17625 45.201264)">recog1. Do you feel</text>
      <text style="font: 11px 'sans-serif'" transform="translate(30.840625 57.134889)">that your contribution</text>
      <text style="font: 11px 'sans-serif'" transform="translate(10.672813 68.992889)">to research is recognised</text>
      <text style="font: 11px 'sans-serif'" transform="translate(23.51875 80.926514)">by your supervisor/line</text>
      <text style="font: 11px 'sans-serif'" transform="translate(90.149531 92.753577)">manager</text>
     </g>
    </g>
    <g id="ytick_2">
     <g id="line2d_26">
      <g>
       <use xlink:href="#m8e343aef83" x="140.56" y="135.74" style="stroke: #000000; stroke-width: 0.8"/>
      </g>
     </g>
     <g id="text_24">
      <text style="font: 11px 'sans-serif'" transform="translate(38.17625 116.754172)">recog2. Do you feel</text>
      <text style="font: 11px 'sans-serif'" transform="translate(30.840625 128.687797)">that your contribution</text>
      <text style="font: 11px 'sans-serif'" transform="translate(10.672813 140.545797)">to research is recognised</text>
      <text style="font: 11px 'sans-serif'" transform="translate(21.677969 152.479422)">by the researchers you</text>
      <text style="font: 11px 'sans-serif'" transform="translate(87.719219 164.306484)">work with</text>
     </g>
    </g>
    <g id="ytick_3">
     <g id="line2d_27">
      <g>
       <use xlink:href="#m8e343aef83" x="140.56" y="207.363377" style="stroke: #000000; stroke-width: 0.8"/>
      </g>
     </g>
     <g id="text_25">
      <text style="font: 11px 'sans-serif'" transform="translate(38.17625 194.255845)">recog3. Do you feel</text>
      <text style="font: 11px 'sans-serif'" transform="translate(30.840625 206.18947)">that your contribution</text>
      <text style="font: 11px 'sans-serif'" transform="translate(10.672813 218.04747)">to research is recognised</text>
      <text style="font: 11px 'sans-serif'" transform="translate(41.849219 230.071845)">by your institution?</text>
     </g>
    </g>
   </g>
   <g id="patch_48">
    <path d="M 140.56 246.04 
L 628.92 246.04 
" style="fill: none; stroke: #000000; stroke-width: 0.8; stroke-linejoin: miter; stroke-linecap: square"/>
   </g>
   <g id="text_26">
    <text style="font: 10px 'sans-serif'; text-anchor: middle" x="306.188329" y="207.363377" transform="rotate(-0, 306.188329, 207.363377)">8</text>
   </g>
   <g id="text_27">
    <text style="font: 10px 'sans-serif'; text-anchor: middle" x="365.274389" y="64.116623" transform="rotate(-0, 365.274389, 64.116623)">8</text>
   </g>
   <g id="text_28">
    <text style="font: 10px 'sans-serif'; text-anchor: middle" x="362.308421" y="135.74" transform="rotate(-0, 362.308421, 135.74)">9</text>
   </g>
   <g id="text_29">
    <text style="font: 10px 'sans-serif'; text-anchor: middle" x="333.251782" y="207.363377" transform="rotate(-0, 333.251782, 207.363377)">14</text>
   </g>
   <g id="text_30">
    <text style="font: 10px 'sans-serif'; text-anchor: middle" x="385.348928" y="64.116623" transform="rotate(-0, 385.348928, 64.116623)">9</text>
   </g>
   <g id="text_31">
    <text style="font: 10px 'sans-serif'; text-anchor: middle" x="385.348928" y="135.74" transform="rotate(-0, 385.348928, 135.74)">10</text>
   </g>
   <g id="text_32">
    <text style="font: 10px 'sans-serif'; text-anchor: middle" x="385.348928" y="207.363377" transform="rotate(-0, 385.348928, 207.363377)">29</text>
   </g>
   <g id="text_33">
    <text style="font: 10px 'sans-serif'; text-anchor: middle" x="437.542729" y="64.116623" transform="rotate(-0, 437.542729, 64.116623)">34</text>
   </g>
   <g id="text_34">
    <text style="font: 10px 'sans-serif'; text-anchor: middle" x="451.178947" y="135.74" transform="rotate(-0, 451.178947, 135.74)">44</text>
   </g>
   <g id="text_35">
    <text style="font: 10px 'sans-serif'; text-anchor: middle" x="463.83294" y="207.363377" transform="rotate(-0, 463.83294, 207.363377)">36</text>
   </g>
   <g id="text_36">
    <text style="font: 10px 'sans-serif'; text-anchor: middle" x="536.577121" y="64.116623" transform="rotate(-0, 536.577121, 64.116623)">47</text>
   </g>
   <g id="text_37">
    <text style="font: 10px 'sans-serif'; text-anchor: middle" x="548.607376" y="135.74" transform="rotate(-0, 548.607376, 135.74)">36</text>
   </g>
   <g id="text_38">
    <text style="font: 10px 'sans-serif'; text-anchor: middle" x="523.372535" y="207.363377" transform="rotate(-0, 523.372535, 207.363377)">13</text>
   </g>
   <g id="text_39">
    <text style="font: 10px 'sans-serif'; text-anchor: middle" x="306.188329" y="207.363377" transform="rotate(-0, 306.188329, 207.363377)">8</text>
   </g>
   <g id="text_40">
    <text style="font: 10px 'sans-serif'; text-anchor: middle" x="365.274389" y="64.116623" transform="rotate(-0, 365.274389, 64.116623)">8</text>
   </g>
   <g id="text_41">
    <text style="font: 10px 'sans-serif'; text-anchor: middle" x="362.308421" y="135.74" transform="rotate(-0, 362.308421, 135.74)">9</text>
   </g>
   <g id="text_42">
    <text style="font: 10px 'sans-serif'; text-anchor: middle" x="333.251782" y="207.363377" transform="rotate(-0, 333.251782, 207.363377)">14</text>
   </g>
   <g id="text_43">
    <text style="font: 10px 'sans-serif'; text-anchor: middle" x="385.348928" y="64.116623" transform="rotate(-0, 385.348928, 64.116623)">9</text>
   </g>
   <g id="text_44">
    <text style="font: 10px 'sans-serif'; text-anchor: middle" x="385.348928" y="135.74" transform="rotate(-0, 385.348928, 135.74)">10</text>
   </g>
   <g id="text_45">
    <text style="font: 10px 'sans-serif'; text-anchor: middle" x="385.348928" y="207.363377" transform="rotate(-0, 385.348928, 207.363377)">29</text>
   </g>
   <g id="text_46">
    <text style="font: 10px 'sans-serif'; text-anchor: middle" x="437.542729" y="64.116623" transform="rotate(-0, 437.542729, 64.116623)">34</text>
   </g>
   <g id="text_47">
    <text style="font: 10px 'sans-serif'; text-anchor: middle" x="451.178947" y="135.74" transform="rotate(-0, 451.178947, 135.74)">44</text>
   </g>
   <g id="text_48">
    <text style="font: 10px 'sans-serif'; text-anchor: middle" x="463.83294" y="207.363377" transform="rotate(-0, 463.83294, 207.363377)">36</text>
   </g>
   <g id="text_49">
    <text style="font: 10px 'sans-serif'; text-anchor: middle" x="536.577121" y="64.116623" transform="rotate(-0, 536.577121, 64.116623)">47</text>
   </g>
   <g id="text_50">
    <text style="font: 10px 'sans-serif'; text-anchor: middle" x="548.607376" y="135.74" transform="rotate(-0, 548.607376, 135.74)">36</text>
   </g>
   <g id="text_51">
    <text style="font: 10px 'sans-serif'; text-anchor: middle" x="523.372535" y="207.363377" transform="rotate(-0, 523.372535, 207.363377)">13</text>
   </g>
   <g id="text_52">
    <text style="font: 10px 'sans-serif'; text-anchor: middle" x="306.188329" y="207.363377" transform="rotate(-0, 306.188329, 207.363377)">8</text>
   </g>
   <g id="text_53">
    <text style="font: 10px 'sans-serif'; text-anchor: middle" x="365.274389" y="64.116623" transform="rotate(-0, 365.274389, 64.116623)">8</text>
   </g>
   <g id="text_54">
    <text style="font: 10px 'sans-serif'; text-anchor: middle" x="362.308421" y="135.74" transform="rotate(-0, 362.308421, 135.74)">9</text>
   </g>
   <g id="text_55">
    <text style="font: 10px 'sans-serif'; text-anchor: middle" x="333.251782" y="207.363377" transform="rotate(-0, 333.251782, 207.363377)">14</text>
   </g>
   <g id="text_56">
    <text style="font: 10px 'sans-serif'; text-anchor: middle" x="385.348928" y="64.116623" transform="rotate(-0, 385.348928, 64.116623)">9</text>
   </g>
   <g id="text_57">
    <text style="font: 10px 'sans-serif'; text-anchor: middle" x="385.348928" y="135.74" transform="rotate(-0, 385.348928, 135.74)">10</text>
   </g>
   <g id="text_58">
    <text style="font: 10px 'sans-serif'; text-anchor: middle" x="385.348928" y="207.363377" transform="rotate(-0, 385.348928, 207.363377)">29</text>
   </g>
   <g id="text_59">
    <text style="font: 10px 'sans-serif'; text-anchor: middle" x="437.542729" y="64.116623" transform="rotate(-0, 437.542729, 64.116623)">34</text>
   </g>
   <g id="text_60">
    <text style="font: 10px 'sans-serif'; text-anchor: middle" x="451.178947" y="135.74" transform="rotate(-0, 451.178947, 135.74)">44</text>
   </g>
   <g id="text_61">
    <text style="font: 10px 'sans-serif'; text-anchor: middle" x="463.83294" y="207.363377" transform="rotate(-0, 463.83294, 207.363377)">36</text>
   </g>
   <g id="text_62">
    <text style="font: 10px 'sans-serif'; text-anchor: middle" x="536.577121" y="64.116623" transform="rotate(-0, 536.577121, 64.116623)">47</text>
   </g>
   <g id="text_63">
    <text style="font: 10px 'sans-serif'; text-anchor: middle" x="548.607376" y="135.74" transform="rotate(-0, 548.607376, 135.74)">36</text>
   </g>
   <g id="text_64">
    <text style="font: 10px 'sans-serif'; text-anchor: middle" x="523.372535" y="207.363377" transform="rotate(-0, 523.372535, 207.363377)">13</text>
   </g>
   <g id="text_65">
    <text style="font: 12px 'sans-serif'; text-anchor: middle" x="384.74" y="19.44" transform="rotate(-0, 384.74, 19.44)">Recognition</text>
   </g>
   <g id="legend_1">
    <g id="patch_49">
     <path d="M 147.56 241.04 
L 621.92 241.04 
Q 623.92 241.04 623.92 239.04 
L 623.92 225.45875 
Q 623.92 223.45875 621.92 223.45875 
L 147.56 223.45875 
Q 145.56 223.45875 145.56 225.45875 
L 145.56 239.04 
Q 145.56 241.04 147.56 241.04 
z
" style="fill: #ffffff; opacity: 0.8; stroke: #cccccc; stroke-linejoin: miter"/>
    </g>
    <g id="patch_50">
     <path d="M 149.56 234.8275 
L 169.56 234.8275 
L 169.56 227.8275 
L 149.56 227.8275 
z
" style="fill: #67001f"/>
    </g>
    <g id="text_66">
     <text style="font: 10px 'sans-serif'; text-anchor: start" x="177.56" y="234.8275" transform="rotate(-0, 177.56, 234.8275)">Strongly disagree</text>
    </g>
    <g id="patch_51">
     <path d="M 256.954687 234.8275 
L 276.954687 234.8275 
L 276.954687 227.8275 
L 256.954687 227.8275 
z
" style="fill: #e58368"/>
    </g>
    <g id="text_67">
     <text style="font: 10px 'sans-serif'; text-anchor: start" x="284.954687" y="234.8275" transform="rotate(-0, 284.954687, 234.8275)">Disagree</text>
    </g>
    <g id="patch_52">
     <path d="M 326.549375 234.8275 
L 346.549375 234.8275 
L 346.549375 227.8275 
L 326.549375 227.8275 
z
" style="fill: #f6f7f7"/>
    </g>
    <g id="text_68">
     <text style="font: 10px 'sans-serif'; text-anchor: start" x="354.549375" y="234.8275" transform="rotate(-0, 354.549375, 234.8275)">Neither agree or disagree</text>
    </g>
    <g id="patch_53">
     <path d="M 469.515937 234.8275 
L 489.515937 234.8275 
L 489.515937 227.8275 
L 469.515937 227.8275 
z
" style="fill: #68abd0"/>
    </g>
    <g id="text_69">
     <text style="font: 10px 'sans-serif'; text-anchor: start" x="497.515937" y="234.8275" transform="rotate(-0, 497.515937, 234.8275)">Agree</text>
    </g>
    <g id="patch_54">
     <path d="M 525.77625 234.8275 
L 545.77625 234.8275 
L 545.77625 227.8275 
L 525.77625 227.8275 
z
" style="fill: #053061"/>
    </g>
    <g id="text_70">
     <text style="font: 10px 'sans-serif'; text-anchor: start" x="553.77625" y="234.8275" transform="rotate(-0, 553.77625, 234.8275)">Strongly Agree</text>
    </g>
   </g>
  </g>
 </g>
 <defs>
  <clipPath id="p9b2342d02b">
   <rect x="140.56" y="25.44" width="488.36" height="220.6"/>
  </clipPath>
 </defs>
</svg>
