<?xml version="1.0" encoding="utf-8" standalone="no"?>
<!DOCTYPE svg PUBLIC "-//W3C//DTD SVG 1.1//EN"
  "http://www.w3.org/Graphics/SVG/1.1/DTD/svg11.dtd">
<svg height="288pt" version="1.1" viewBox="0 0 648 288" width="648pt" xmlns="http://www.w3.org/2000/svg" xmlns:xlink="http://www.w3.org/1999/xlink">
 <metadata>
  <rdf:RDF xmlns:cc="http://creativecommons.org/ns#" xmlns:dc="http://purl.org/dc/elements/1.1/" xmlns:rdf="http://www.w3.org/1999/02/22-rdf-syntax-ns#">
   <cc:Work>
    <dc:type rdf:resource="http://purl.org/dc/dcmitype/StillImage"/>
    <dc:date>2021-03-29T21:57:49.089703</dc:date>
    <dc:format>image/svg+xml</dc:format>
    <dc:creator>
     <cc:Agent>
      <dc:title>Matplotlib v3.4.0, https://matplotlib.org/</dc:title>
     </cc:Agent>
    </dc:creator>
   </cc:Work>
  </rdf:RDF>
 </metadata>
 <defs>
  <style type="text/css">*{stroke-linecap:butt;stroke-linejoin:round;}</style>
 </defs>
 <g id="figure_1">
  <g id="patch_1">
   <path d="M 0 288 
L 648 288 
L 648 0 
L 0 0 
z
" style="fill:#ffffff;"/>
  </g>
  <g id="axes_1">
   <g id="patch_2">
    <path d="M 404.869375 246.84375 
L 627.65625 246.84375 
L 627.65625 48.331875 
L 404.869375 48.331875 
z
" style="fill:#ffffff;"/>
   </g>
   <g id="line2d_1">
    <path clip-path="url(#p1d33c067c4)" d="M 516.540602 246.84375 
L 516.540602 48.331875 
" style="fill:none;stroke:#000000;stroke-dasharray:5.55,2.4;stroke-dashoffset:0;stroke-opacity:0.5;stroke-width:1.5;"/>
   </g>
   <g id="line2d_2">
    <path clip-path="url(#p1d33c067c4)" d="M 516.540602 246.84375 
L 516.540602 48.331875 
" style="fill:none;stroke:#000000;stroke-dasharray:5.55,2.4;stroke-dashoffset:0;stroke-opacity:0.5;stroke-width:1.5;"/>
   </g>
   <g id="patch_3">
    <path clip-path="url(#p1d33c067c4)" d="M 492.515597 237.820483 
L 492.515597 237.820483 
L 492.515597 157.613665 
L 492.515597 157.613665 
z
" style="fill:#67001f;"/>
   </g>
   <g id="patch_4">
    <path clip-path="url(#p1d33c067c4)" d="M 487.968006 137.56196 
L 487.968006 137.56196 
L 487.968006 57.355142 
L 487.968006 57.355142 
z
" style="fill:#67001f;"/>
   </g>
   <g id="patch_5">
    <path clip-path="url(#p1d33c067c4)" d="M 492.515597 237.820483 
L 498.521848 237.820483 
L 498.521848 157.613665 
L 492.515597 157.613665 
z
" style="fill:#b61f2e;"/>
   </g>
   <g id="patch_6">
    <path clip-path="url(#p1d33c067c4)" d="M 487.968006 137.56196 
L 494.317472 137.56196 
L 494.317472 57.355142 
L 487.968006 57.355142 
z
" style="fill:#b61f2e;"/>
   </g>
   <g id="patch_7">
    <path clip-path="url(#p1d33c067c4)" d="M 498.521848 237.820483 
L 498.521848 237.820483 
L 498.521848 157.613665 
L 498.521848 157.613665 
z
" style="fill:#dc6e57;"/>
   </g>
   <g id="patch_8">
    <path clip-path="url(#p1d33c067c4)" d="M 494.317472 137.56196 
L 503.84167 137.56196 
L 503.84167 57.355142 
L 494.317472 57.355142 
z
" style="fill:#dc6e57;"/>
   </g>
   <g id="patch_9">
    <path clip-path="url(#p1d33c067c4)" d="M 498.521848 237.820483 
L 498.521848 237.820483 
L 498.521848 157.613665 
L 498.521848 157.613665 
z
" style="fill:#f7b799;"/>
   </g>
   <g id="patch_10">
    <path clip-path="url(#p1d33c067c4)" d="M 503.84167 137.56196 
L 507.016403 137.56196 
L 507.016403 57.355142 
L 503.84167 57.355142 
z
" style="fill:#f7b799;"/>
   </g>
   <g id="patch_11">
    <path clip-path="url(#p1d33c067c4)" d="M 498.521848 237.820483 
L 516.540602 237.820483 
L 516.540602 157.613665 
L 498.521848 157.613665 
z
" style="fill:#fae7dc;"/>
   </g>
   <g id="patch_12">
    <path clip-path="url(#p1d33c067c4)" d="M 507.016403 137.56196 
L 516.540602 137.56196 
L 516.540602 57.355142 
L 507.016403 57.355142 
z
" style="fill:#fae7dc;"/>
   </g>
   <g id="patch_13">
    <path clip-path="url(#p1d33c067c4)" d="M 516.540602 237.820483 
L 528.553104 237.820483 
L 528.553104 157.613665 
L 516.540602 157.613665 
z
" style="fill:#e1edf3;"/>
   </g>
   <g id="patch_14">
    <path clip-path="url(#p1d33c067c4)" d="M 516.540602 137.56196 
L 541.938464 137.56196 
L 541.938464 57.355142 
L 516.540602 57.355142 
z
" style="fill:#e1edf3;"/>
   </g>
   <g id="patch_15">
    <path clip-path="url(#p1d33c067c4)" d="M 528.553104 237.820483 
L 555.581235 237.820483 
L 555.581235 157.613665 
L 528.553104 157.613665 
z
" style="fill:#a7d0e4;"/>
   </g>
   <g id="patch_16">
    <path clip-path="url(#p1d33c067c4)" d="M 541.938464 137.56196 
L 567.336327 137.56196 
L 567.336327 57.355142 
L 541.938464 57.355142 
z
" style="fill:#a7d0e4;"/>
   </g>
   <g id="patch_17">
    <path clip-path="url(#p1d33c067c4)" d="M 555.581235 237.820483 
L 588.615617 237.820483 
L 588.615617 157.613665 
L 555.581235 157.613665 
z
" style="fill:#529dc8;"/>
   </g>
   <g id="patch_18">
    <path clip-path="url(#p1d33c067c4)" d="M 567.336327 137.56196 
L 592.734189 137.56196 
L 592.734189 57.355142 
L 567.336327 57.355142 
z
" style="fill:#529dc8;"/>
   </g>
   <g id="patch_19">
    <path clip-path="url(#p1d33c067c4)" d="M 588.615617 237.820483 
L 603.631245 237.820483 
L 603.631245 157.613665 
L 588.615617 157.613665 
z
" style="fill:#246aae;"/>
   </g>
   <g id="patch_20">
    <path clip-path="url(#p1d33c067c4)" d="M 592.734189 137.56196 
L 599.083655 137.56196 
L 599.083655 57.355142 
L 592.734189 57.355142 
z
" style="fill:#246aae;"/>
   </g>
   <g id="patch_21">
    <path clip-path="url(#p1d33c067c4)" d="M 603.631245 237.820483 
L 603.631245 237.820483 
L 603.631245 157.613665 
L 603.631245 157.613665 
z
" style="fill:#053061;"/>
   </g>
   <g id="patch_22">
    <path clip-path="url(#p1d33c067c4)" d="M 599.083655 137.56196 
L 599.083655 137.56196 
L 599.083655 57.355142 
L 599.083655 57.355142 
z
" style="fill:#053061;"/>
   </g>
   <g id="patch_23">
    <path clip-path="url(#p1d33c067c4)" d="M 492.515597 237.820483 
L 492.515597 237.820483 
L 492.515597 157.613665 
L 492.515597 157.613665 
z
" style="fill:#67001f;"/>
   </g>
   <g id="patch_24">
    <path clip-path="url(#p1d33c067c4)" d="M 487.968006 137.56196 
L 487.968006 137.56196 
L 487.968006 57.355142 
L 487.968006 57.355142 
z
" style="fill:#67001f;"/>
   </g>
   <g id="patch_25">
    <path clip-path="url(#p1d33c067c4)" d="M 492.515597 237.820483 
L 498.521848 237.820483 
L 498.521848 157.613665 
L 492.515597 157.613665 
z
" style="fill:#b61f2e;"/>
   </g>
   <g id="patch_26">
    <path clip-path="url(#p1d33c067c4)" d="M 487.968006 137.56196 
L 494.317472 137.56196 
L 494.317472 57.355142 
L 487.968006 57.355142 
z
" style="fill:#b61f2e;"/>
   </g>
   <g id="patch_27">
    <path clip-path="url(#p1d33c067c4)" d="M 498.521848 237.820483 
L 498.521848 237.820483 
L 498.521848 157.613665 
L 498.521848 157.613665 
z
" style="fill:#dc6e57;"/>
   </g>
   <g id="patch_28">
    <path clip-path="url(#p1d33c067c4)" d="M 494.317472 137.56196 
L 503.84167 137.56196 
L 503.84167 57.355142 
L 494.317472 57.355142 
z
" style="fill:#dc6e57;"/>
   </g>
   <g id="patch_29">
    <path clip-path="url(#p1d33c067c4)" d="M 498.521848 237.820483 
L 498.521848 237.820483 
L 498.521848 157.613665 
L 498.521848 157.613665 
z
" style="fill:#f7b799;"/>
   </g>
   <g id="patch_30">
    <path clip-path="url(#p1d33c067c4)" d="M 503.84167 137.56196 
L 507.016403 137.56196 
L 507.016403 57.355142 
L 503.84167 57.355142 
z
" style="fill:#f7b799;"/>
   </g>
   <g id="patch_31">
    <path clip-path="url(#p1d33c067c4)" d="M 498.521848 237.820483 
L 516.540602 237.820483 
L 516.540602 157.613665 
L 498.521848 157.613665 
z
" style="fill:#fae7dc;"/>
   </g>
   <g id="patch_32">
    <path clip-path="url(#p1d33c067c4)" d="M 507.016403 137.56196 
L 516.540602 137.56196 
L 516.540602 57.355142 
L 507.016403 57.355142 
z
" style="fill:#fae7dc;"/>
   </g>
   <g id="patch_33">
    <path clip-path="url(#p1d33c067c4)" d="M 516.540602 237.820483 
L 528.553104 237.820483 
L 528.553104 157.613665 
L 516.540602 157.613665 
z
" style="fill:#e1edf3;"/>
   </g>
   <g id="patch_34">
    <path clip-path="url(#p1d33c067c4)" d="M 516.540602 137.56196 
L 541.938464 137.56196 
L 541.938464 57.355142 
L 516.540602 57.355142 
z
" style="fill:#e1edf3;"/>
   </g>
   <g id="patch_35">
    <path clip-path="url(#p1d33c067c4)" d="M 528.553104 237.820483 
L 555.581235 237.820483 
L 555.581235 157.613665 
L 528.553104 157.613665 
z
" style="fill:#a7d0e4;"/>
   </g>
   <g id="patch_36">
    <path clip-path="url(#p1d33c067c4)" d="M 541.938464 137.56196 
L 567.336327 137.56196 
L 567.336327 57.355142 
L 541.938464 57.355142 
z
" style="fill:#a7d0e4;"/>
   </g>
   <g id="patch_37">
    <path clip-path="url(#p1d33c067c4)" d="M 555.581235 237.820483 
L 588.615617 237.820483 
L 588.615617 157.613665 
L 555.581235 157.613665 
z
" style="fill:#529dc8;"/>
   </g>
   <g id="patch_38">
    <path clip-path="url(#p1d33c067c4)" d="M 567.336327 137.56196 
L 592.734189 137.56196 
L 592.734189 57.355142 
L 567.336327 57.355142 
z
" style="fill:#529dc8;"/>
   </g>
   <g id="patch_39">
    <path clip-path="url(#p1d33c067c4)" d="M 588.615617 237.820483 
L 603.631245 237.820483 
L 603.631245 157.613665 
L 588.615617 157.613665 
z
" style="fill:#246aae;"/>
   </g>
   <g id="patch_40">
    <path clip-path="url(#p1d33c067c4)" d="M 592.734189 137.56196 
L 599.083655 137.56196 
L 599.083655 57.355142 
L 592.734189 57.355142 
z
" style="fill:#246aae;"/>
   </g>
   <g id="patch_41">
    <path clip-path="url(#p1d33c067c4)" d="M 603.631245 237.820483 
L 603.631245 237.820483 
L 603.631245 157.613665 
L 603.631245 157.613665 
z
" style="fill:#053061;"/>
   </g>
   <g id="patch_42">
    <path clip-path="url(#p1d33c067c4)" d="M 599.083655 137.56196 
L 599.083655 137.56196 
L 599.083655 57.355142 
L 599.083655 57.355142 
z
" style="fill:#053061;"/>
   </g>
   <g id="matplotlib.axis_1">
    <g id="xtick_1">
     <g id="line2d_3">
      <defs>
       <path d="M 0 0 
L 0 3.5 
" id="mc3a356a46d" style="stroke:#000000;stroke-width:0.8;"/>
      </defs>
      <g>
       <use style="stroke:#000000;stroke-width:0.8;" x="405.424953" xlink:href="#mc3a356a46d" y="246.84375"/>
      </g>
     </g>
     <g id="text_1">
      <text style="font-family:DejaVu Sans;font-size:10px;font-stretch:normal;font-style:normal;font-weight:normal;text-anchor:middle;" transform="rotate(-0, 405.424953, 261.442187)" x="405.424953" y="261.442187">100</text>
     </g>
    </g>
    <g id="xtick_2">
     <g id="line2d_4">
      <g>
       <use style="stroke:#000000;stroke-width:0.8;" x="416.536518" xlink:href="#mc3a356a46d" y="246.84375"/>
      </g>
     </g>
     <g id="text_2">
      <text style="font-family:DejaVu Sans;font-size:10px;font-stretch:normal;font-style:normal;font-weight:normal;text-anchor:middle;" transform="rotate(-0, 416.536518, 261.442187)" x="416.536518" y="261.442187">90</text>
     </g>
    </g>
    <g id="xtick_3">
     <g id="line2d_5">
      <g>
       <use style="stroke:#000000;stroke-width:0.8;" x="427.648083" xlink:href="#mc3a356a46d" y="246.84375"/>
      </g>
     </g>
     <g id="text_3">
      <text style="font-family:DejaVu Sans;font-size:10px;font-stretch:normal;font-style:normal;font-weight:normal;text-anchor:middle;" transform="rotate(-0, 427.648083, 261.442187)" x="427.648083" y="261.442187">80</text>
     </g>
    </g>
    <g id="xtick_4">
     <g id="line2d_6">
      <g>
       <use style="stroke:#000000;stroke-width:0.8;" x="438.759648" xlink:href="#mc3a356a46d" y="246.84375"/>
      </g>
     </g>
     <g id="text_4">
      <text style="font-family:DejaVu Sans;font-size:10px;font-stretch:normal;font-style:normal;font-weight:normal;text-anchor:middle;" transform="rotate(-0, 438.759648, 261.442187)" x="438.759648" y="261.442187">70</text>
     </g>
    </g>
    <g id="xtick_5">
     <g id="line2d_7">
      <g>
       <use style="stroke:#000000;stroke-width:0.8;" x="449.871213" xlink:href="#mc3a356a46d" y="246.84375"/>
      </g>
     </g>
     <g id="text_5">
      <text style="font-family:DejaVu Sans;font-size:10px;font-stretch:normal;font-style:normal;font-weight:normal;text-anchor:middle;" transform="rotate(-0, 449.871213, 261.442187)" x="449.871213" y="261.442187">60</text>
     </g>
    </g>
    <g id="xtick_6">
     <g id="line2d_8">
      <g>
       <use style="stroke:#000000;stroke-width:0.8;" x="460.982777" xlink:href="#mc3a356a46d" y="246.84375"/>
      </g>
     </g>
     <g id="text_6">
      <text style="font-family:DejaVu Sans;font-size:10px;font-stretch:normal;font-style:normal;font-weight:normal;text-anchor:middle;" transform="rotate(-0, 460.982777, 261.442187)" x="460.982777" y="261.442187">50</text>
     </g>
    </g>
    <g id="xtick_7">
     <g id="line2d_9">
      <g>
       <use style="stroke:#000000;stroke-width:0.8;" x="472.094342" xlink:href="#mc3a356a46d" y="246.84375"/>
      </g>
     </g>
     <g id="text_7">
      <text style="font-family:DejaVu Sans;font-size:10px;font-stretch:normal;font-style:normal;font-weight:normal;text-anchor:middle;" transform="rotate(-0, 472.094342, 261.442187)" x="472.094342" y="261.442187">40</text>
     </g>
    </g>
    <g id="xtick_8">
     <g id="line2d_10">
      <g>
       <use style="stroke:#000000;stroke-width:0.8;" x="483.205907" xlink:href="#mc3a356a46d" y="246.84375"/>
      </g>
     </g>
     <g id="text_8">
      <text style="font-family:DejaVu Sans;font-size:10px;font-stretch:normal;font-style:normal;font-weight:normal;text-anchor:middle;" transform="rotate(-0, 483.205907, 261.442187)" x="483.205907" y="261.442187">30</text>
     </g>
    </g>
    <g id="xtick_9">
     <g id="line2d_11">
      <g>
       <use style="stroke:#000000;stroke-width:0.8;" x="494.317472" xlink:href="#mc3a356a46d" y="246.84375"/>
      </g>
     </g>
     <g id="text_9">
      <text style="font-family:DejaVu Sans;font-size:10px;font-stretch:normal;font-style:normal;font-weight:normal;text-anchor:middle;" transform="rotate(-0, 494.317472, 261.442187)" x="494.317472" y="261.442187">20</text>
     </g>
    </g>
    <g id="xtick_10">
     <g id="line2d_12">
      <g>
       <use style="stroke:#000000;stroke-width:0.8;" x="505.429037" xlink:href="#mc3a356a46d" y="246.84375"/>
      </g>
     </g>
     <g id="text_10">
      <text style="font-family:DejaVu Sans;font-size:10px;font-stretch:normal;font-style:normal;font-weight:normal;text-anchor:middle;" transform="rotate(-0, 505.429037, 261.442187)" x="505.429037" y="261.442187">10</text>
     </g>
    </g>
    <g id="xtick_11">
     <g id="line2d_13">
      <g>
       <use style="stroke:#000000;stroke-width:0.8;" x="516.540602" xlink:href="#mc3a356a46d" y="246.84375"/>
      </g>
     </g>
     <g id="text_11">
      <text style="font-family:DejaVu Sans;font-size:10px;font-stretch:normal;font-style:normal;font-weight:normal;text-anchor:middle;" transform="rotate(-0, 516.540602, 261.442187)" x="516.540602" y="261.442187">0</text>
     </g>
    </g>
    <g id="xtick_12">
     <g id="line2d_14">
      <g>
       <use style="stroke:#000000;stroke-width:0.8;" x="527.652166" xlink:href="#mc3a356a46d" y="246.84375"/>
      </g>
     </g>
     <g id="text_12">
      <text style="font-family:DejaVu Sans;font-size:10px;font-stretch:normal;font-style:normal;font-weight:normal;text-anchor:middle;" transform="rotate(-0, 527.652166, 261.442187)" x="527.652166" y="261.442187">10</text>
     </g>
    </g>
    <g id="xtick_13">
     <g id="line2d_15">
      <g>
       <use style="stroke:#000000;stroke-width:0.8;" x="538.763731" xlink:href="#mc3a356a46d" y="246.84375"/>
      </g>
     </g>
     <g id="text_13">
      <text style="font-family:DejaVu Sans;font-size:10px;font-stretch:normal;font-style:normal;font-weight:normal;text-anchor:middle;" transform="rotate(-0, 538.763731, 261.442187)" x="538.763731" y="261.442187">20</text>
     </g>
    </g>
    <g id="xtick_14">
     <g id="line2d_16">
      <g>
       <use style="stroke:#000000;stroke-width:0.8;" x="549.875296" xlink:href="#mc3a356a46d" y="246.84375"/>
      </g>
     </g>
     <g id="text_14">
      <text style="font-family:DejaVu Sans;font-size:10px;font-stretch:normal;font-style:normal;font-weight:normal;text-anchor:middle;" transform="rotate(-0, 549.875296, 261.442187)" x="549.875296" y="261.442187">30</text>
     </g>
    </g>
    <g id="xtick_15">
     <g id="line2d_17">
      <g>
       <use style="stroke:#000000;stroke-width:0.8;" x="560.986861" xlink:href="#mc3a356a46d" y="246.84375"/>
      </g>
     </g>
     <g id="text_15">
      <text style="font-family:DejaVu Sans;font-size:10px;font-stretch:normal;font-style:normal;font-weight:normal;text-anchor:middle;" transform="rotate(-0, 560.986861, 261.442187)" x="560.986861" y="261.442187">40</text>
     </g>
    </g>
    <g id="xtick_16">
     <g id="line2d_18">
      <g>
       <use style="stroke:#000000;stroke-width:0.8;" x="572.098426" xlink:href="#mc3a356a46d" y="246.84375"/>
      </g>
     </g>
     <g id="text_16">
      <text style="font-family:DejaVu Sans;font-size:10px;font-stretch:normal;font-style:normal;font-weight:normal;text-anchor:middle;" transform="rotate(-0, 572.098426, 261.442187)" x="572.098426" y="261.442187">50</text>
     </g>
    </g>
    <g id="xtick_17">
     <g id="line2d_19">
      <g>
       <use style="stroke:#000000;stroke-width:0.8;" x="583.209991" xlink:href="#mc3a356a46d" y="246.84375"/>
      </g>
     </g>
     <g id="text_17">
      <text style="font-family:DejaVu Sans;font-size:10px;font-stretch:normal;font-style:normal;font-weight:normal;text-anchor:middle;" transform="rotate(-0, 583.209991, 261.442187)" x="583.209991" y="261.442187">60</text>
     </g>
    </g>
    <g id="xtick_18">
     <g id="line2d_20">
      <g>
       <use style="stroke:#000000;stroke-width:0.8;" x="594.321555" xlink:href="#mc3a356a46d" y="246.84375"/>
      </g>
     </g>
     <g id="text_18">
      <text style="font-family:DejaVu Sans;font-size:10px;font-stretch:normal;font-style:normal;font-weight:normal;text-anchor:middle;" transform="rotate(-0, 594.321555, 261.442187)" x="594.321555" y="261.442187">70</text>
     </g>
    </g>
    <g id="xtick_19">
     <g id="line2d_21">
      <g>
       <use style="stroke:#000000;stroke-width:0.8;" x="605.43312" xlink:href="#mc3a356a46d" y="246.84375"/>
      </g>
     </g>
     <g id="text_19">
      <text style="font-family:DejaVu Sans;font-size:10px;font-stretch:normal;font-style:normal;font-weight:normal;text-anchor:middle;" transform="rotate(-0, 605.43312, 261.442187)" x="605.43312" y="261.442187">80</text>
     </g>
    </g>
    <g id="xtick_20">
     <g id="line2d_22">
      <g>
       <use style="stroke:#000000;stroke-width:0.8;" x="616.544685" xlink:href="#mc3a356a46d" y="246.84375"/>
      </g>
     </g>
     <g id="text_20">
      <text style="font-family:DejaVu Sans;font-size:10px;font-stretch:normal;font-style:normal;font-weight:normal;text-anchor:middle;" transform="rotate(-0, 616.544685, 261.442187)" x="616.544685" y="261.442187">90</text>
     </g>
    </g>
    <g id="xtick_21">
     <g id="line2d_23">
      <g>
       <use style="stroke:#000000;stroke-width:0.8;" x="627.65625" xlink:href="#mc3a356a46d" y="246.84375"/>
      </g>
     </g>
     <g id="text_21">
      <text style="font-family:DejaVu Sans;font-size:10px;font-stretch:normal;font-style:normal;font-weight:normal;text-anchor:middle;" transform="rotate(-0, 627.65625, 261.442187)" x="627.65625" y="261.442187">100</text>
     </g>
    </g>
    <g id="text_22">
     <text style="font-family:DejaVu Sans;font-size:10px;font-stretch:normal;font-style:normal;font-weight:normal;text-anchor:middle;" transform="rotate(-0, 516.262812, 275.120313)" x="516.262812" y="275.120313">Percentage</text>
    </g>
   </g>
   <g id="matplotlib.axis_2">
    <g id="ytick_1">
     <g id="line2d_24">
      <defs>
       <path d="M 0 0 
L -3.5 0 
" id="m82278324de" style="stroke:#000000;stroke-width:0.8;"/>
      </defs>
      <g>
       <use style="stroke:#000000;stroke-width:0.8;" x="404.869375" xlink:href="#m82278324de" y="197.717074"/>
      </g>
     </g>
     <g id="text_23">
      <text style="font-family:DejaVu Sans;font-size:11px;font-stretch:normal;font-style:normal;font-weight:normal;text-anchor:end;" transform="rotate(-0, 397.869375, 201.896214)" x="397.869375" y="201.896214">satisGen1. In general, how satisfied are you with your current position</text>
     </g>
    </g>
    <g id="ytick_2">
     <g id="line2d_25">
      <g>
       <use style="stroke:#000000;stroke-width:0.8;" x="404.869375" xlink:href="#m82278324de" y="97.458551"/>
      </g>
     </g>
     <g id="text_24">
      <text style="font-family:DejaVu Sans;font-size:11px;font-stretch:normal;font-style:normal;font-weight:normal;text-anchor:end;" transform="rotate(-0, 397.869375, 101.637692)" x="397.869375" y="101.637692">satisGen2. In general, how satisfied are you with your career</text>
     </g>
    </g>
   </g>
   <g id="patch_43">
    <path d="M 404.869375 246.84375 
L 627.65625 246.84375 
" style="fill:none;stroke:#000000;stroke-linecap:square;stroke-linejoin:miter;stroke-width:0.8;"/>
   </g>
   <g id="text_25">
    <text style="font-family:DejaVu Sans;font-size:10px;font-stretch:normal;font-style:normal;font-weight:normal;text-anchor:middle;" transform="rotate(-0, 495.518722, 197.717074)" x="495.518722" y="197.717074">5</text>
   </g>
   <g id="text_26">
    <text style="font-family:DejaVu Sans;font-size:10px;font-stretch:normal;font-style:normal;font-weight:normal;text-anchor:middle;" transform="rotate(-0, 491.142739, 97.458551)" x="491.142739" y="97.458551">6</text>
   </g>
   <g id="text_27">
    <text style="font-family:DejaVu Sans;font-size:10px;font-stretch:normal;font-style:normal;font-weight:normal;text-anchor:middle;" transform="rotate(-0, 499.079571, 97.458551)" x="499.079571" y="97.458551">9</text>
   </g>
   <g id="text_28">
    <text style="font-family:DejaVu Sans;font-size:10px;font-stretch:normal;font-style:normal;font-weight:normal;text-anchor:middle;" transform="rotate(-0, 507.531225, 197.717074)" x="507.531225" y="197.717074">16</text>
   </g>
   <g id="text_29">
    <text style="font-family:DejaVu Sans;font-size:10px;font-stretch:normal;font-style:normal;font-weight:normal;text-anchor:middle;" transform="rotate(-0, 511.778502, 97.458551)" x="511.778502" y="97.458551">9</text>
   </g>
   <g id="text_30">
    <text style="font-family:DejaVu Sans;font-size:10px;font-stretch:normal;font-style:normal;font-weight:normal;text-anchor:middle;" transform="rotate(-0, 522.546853, 197.717074)" x="522.546853" y="197.717074">11</text>
   </g>
   <g id="text_31">
    <text style="font-family:DejaVu Sans;font-size:10px;font-stretch:normal;font-style:normal;font-weight:normal;text-anchor:middle;" transform="rotate(-0, 529.239533, 97.458551)" x="529.239533" y="97.458551">23</text>
   </g>
   <g id="text_32">
    <text style="font-family:DejaVu Sans;font-size:10px;font-stretch:normal;font-style:normal;font-weight:normal;text-anchor:middle;" transform="rotate(-0, 542.067169, 197.717074)" x="542.067169" y="197.717074">24</text>
   </g>
   <g id="text_33">
    <text style="font-family:DejaVu Sans;font-size:10px;font-stretch:normal;font-style:normal;font-weight:normal;text-anchor:middle;" transform="rotate(-0, 554.637395, 97.458551)" x="554.637395" y="97.458551">23</text>
   </g>
   <g id="text_34">
    <text style="font-family:DejaVu Sans;font-size:10px;font-stretch:normal;font-style:normal;font-weight:normal;text-anchor:middle;" transform="rotate(-0, 572.098426, 197.717074)" x="572.098426" y="197.717074">30</text>
   </g>
   <g id="text_35">
    <text style="font-family:DejaVu Sans;font-size:10px;font-stretch:normal;font-style:normal;font-weight:normal;text-anchor:middle;" transform="rotate(-0, 580.035258, 97.458551)" x="580.035258" y="97.458551">23</text>
   </g>
   <g id="text_36">
    <text style="font-family:DejaVu Sans;font-size:10px;font-stretch:normal;font-style:normal;font-weight:normal;text-anchor:middle;" transform="rotate(-0, 596.123431, 197.717074)" x="596.123431" y="197.717074">14</text>
   </g>
   <g id="text_37">
    <text style="font-family:DejaVu Sans;font-size:10px;font-stretch:normal;font-style:normal;font-weight:normal;text-anchor:middle;" transform="rotate(-0, 595.908922, 97.458551)" x="595.908922" y="97.458551">6</text>
   </g>
   <g id="text_38">
    <text style="font-family:DejaVu Sans;font-size:10px;font-stretch:normal;font-style:normal;font-weight:normal;text-anchor:middle;" transform="rotate(-0, 495.518722, 197.717074)" x="495.518722" y="197.717074">5</text>
   </g>
   <g id="text_39">
    <text style="font-family:DejaVu Sans;font-size:10px;font-stretch:normal;font-style:normal;font-weight:normal;text-anchor:middle;" transform="rotate(-0, 491.142739, 97.458551)" x="491.142739" y="97.458551">6</text>
   </g>
   <g id="text_40">
    <text style="font-family:DejaVu Sans;font-size:10px;font-stretch:normal;font-style:normal;font-weight:normal;text-anchor:middle;" transform="rotate(-0, 499.079571, 97.458551)" x="499.079571" y="97.458551">9</text>
   </g>
   <g id="text_41">
    <text style="font-family:DejaVu Sans;font-size:10px;font-stretch:normal;font-style:normal;font-weight:normal;text-anchor:middle;" transform="rotate(-0, 507.531225, 197.717074)" x="507.531225" y="197.717074">16</text>
   </g>
   <g id="text_42">
    <text style="font-family:DejaVu Sans;font-size:10px;font-stretch:normal;font-style:normal;font-weight:normal;text-anchor:middle;" transform="rotate(-0, 511.778502, 97.458551)" x="511.778502" y="97.458551">9</text>
   </g>
   <g id="text_43">
    <text style="font-family:DejaVu Sans;font-size:10px;font-stretch:normal;font-style:normal;font-weight:normal;text-anchor:middle;" transform="rotate(-0, 522.546853, 197.717074)" x="522.546853" y="197.717074">11</text>
   </g>
   <g id="text_44">
    <text style="font-family:DejaVu Sans;font-size:10px;font-stretch:normal;font-style:normal;font-weight:normal;text-anchor:middle;" transform="rotate(-0, 529.239533, 97.458551)" x="529.239533" y="97.458551">23</text>
   </g>
   <g id="text_45">
    <text style="font-family:DejaVu Sans;font-size:10px;font-stretch:normal;font-style:normal;font-weight:normal;text-anchor:middle;" transform="rotate(-0, 542.067169, 197.717074)" x="542.067169" y="197.717074">24</text>
   </g>
   <g id="text_46">
    <text style="font-family:DejaVu Sans;font-size:10px;font-stretch:normal;font-style:normal;font-weight:normal;text-anchor:middle;" transform="rotate(-0, 554.637395, 97.458551)" x="554.637395" y="97.458551">23</text>
   </g>
   <g id="text_47">
    <text style="font-family:DejaVu Sans;font-size:10px;font-stretch:normal;font-style:normal;font-weight:normal;text-anchor:middle;" transform="rotate(-0, 572.098426, 197.717074)" x="572.098426" y="197.717074">30</text>
   </g>
   <g id="text_48">
    <text style="font-family:DejaVu Sans;font-size:10px;font-stretch:normal;font-style:normal;font-weight:normal;text-anchor:middle;" transform="rotate(-0, 580.035258, 97.458551)" x="580.035258" y="97.458551">23</text>
   </g>
   <g id="text_49">
    <text style="font-family:DejaVu Sans;font-size:10px;font-stretch:normal;font-style:normal;font-weight:normal;text-anchor:middle;" transform="rotate(-0, 596.123431, 197.717074)" x="596.123431" y="197.717074">14</text>
   </g>
   <g id="text_50">
    <text style="font-family:DejaVu Sans;font-size:10px;font-stretch:normal;font-style:normal;font-weight:normal;text-anchor:middle;" transform="rotate(-0, 595.908922, 97.458551)" x="595.908922" y="97.458551">6</text>
   </g>
   <g id="text_51">
    <text style="font-family:DejaVu Sans;font-size:12px;font-stretch:normal;font-style:normal;font-weight:normal;text-anchor:middle;" transform="rotate(-0, 516.262812, 42.331875)" x="516.262812" y="42.331875">Recognition</text>
   </g>
   <g id="legend_1">
    <g id="patch_44">
     <path d="M 411.869375 241.84375 
L 620.65625 241.84375 
Q 622.65625 241.84375 622.65625 239.84375 
L 622.65625 226.165625 
Q 622.65625 224.165625 620.65625 224.165625 
L 411.869375 224.165625 
Q 409.869375 224.165625 409.869375 226.165625 
L 409.869375 239.84375 
Q 409.869375 241.84375 411.869375 241.84375 
z
" style="fill:#ffffff;opacity:0.8;stroke:#cccccc;stroke-linejoin:miter;"/>
    </g>
    <g id="patch_45">
     <path d="M 413.869375 235.764062 
L 433.869375 235.764062 
L 433.869375 228.764062 
L 413.869375 228.764062 
z
" style="fill:#67001f;"/>
    </g>
    <g id="text_52">
     <text style="font-family:DejaVu Sans;font-size:10px;font-stretch:normal;font-style:normal;font-weight:normal;text-anchor:start;" transform="rotate(-0, 441.869375, 235.764062)" x="441.869375" y="235.764062">1</text>
    </g>
    <g id="patch_46">
     <path d="M 432.098472 235.764062 
L 452.098472 235.764062 
L 452.098472 228.764062 
L 432.098472 228.764062 
z
" style="fill:#b61f2e;"/>
    </g>
    <g id="text_53">
     <text style="font-family:DejaVu Sans;font-size:10px;font-stretch:normal;font-style:normal;font-weight:normal;text-anchor:start;" transform="rotate(-0, 460.098472, 235.764062)" x="460.098472" y="235.764062">2</text>
    </g>
    <g id="patch_47">
     <path d="M 450.327569 235.764062 
L 470.327569 235.764062 
L 470.327569 228.764062 
L 450.327569 228.764062 
z
" style="fill:#dc6e57;"/>
    </g>
    <g id="text_54">
     <text style="font-family:DejaVu Sans;font-size:10px;font-stretch:normal;font-style:normal;font-weight:normal;text-anchor:start;" transform="rotate(-0, 478.327569, 235.764062)" x="478.327569" y="235.764062">3</text>
    </g>
    <g id="patch_48">
     <path d="M 468.556667 235.764062 
L 488.556667 235.764062 
L 488.556667 228.764062 
L 468.556667 228.764062 
z
" style="fill:#f7b799;"/>
    </g>
    <g id="text_55">
     <text style="font-family:DejaVu Sans;font-size:10px;font-stretch:normal;font-style:normal;font-weight:normal;text-anchor:start;" transform="rotate(-0, 496.556667, 235.764062)" x="496.556667" y="235.764062">4</text>
    </g>
    <g id="patch_49">
     <path d="M 486.785764 235.764062 
L 506.785764 235.764062 
L 506.785764 228.764062 
L 486.785764 228.764062 
z
" style="fill:#fae7dc;"/>
    </g>
    <g id="text_56">
     <text style="font-family:DejaVu Sans;font-size:10px;font-stretch:normal;font-style:normal;font-weight:normal;text-anchor:start;" transform="rotate(-0, 514.785764, 235.764062)" x="514.785764" y="235.764062">5</text>
    </g>
    <g id="patch_50">
     <path d="M 505.014861 235.764062 
L 525.014861 235.764062 
L 525.014861 228.764062 
L 505.014861 228.764062 
z
" style="fill:#e1edf3;"/>
    </g>
    <g id="text_57">
     <text style="font-family:DejaVu Sans;font-size:10px;font-stretch:normal;font-style:normal;font-weight:normal;text-anchor:start;" transform="rotate(-0, 533.014861, 235.764062)" x="533.014861" y="235.764062">6</text>
    </g>
    <g id="patch_51">
     <path d="M 523.243958 235.764062 
L 543.243958 235.764062 
L 543.243958 228.764062 
L 523.243958 228.764062 
z
" style="fill:#a7d0e4;"/>
    </g>
    <g id="text_58">
     <text style="font-family:DejaVu Sans;font-size:10px;font-stretch:normal;font-style:normal;font-weight:normal;text-anchor:start;" transform="rotate(-0, 551.243958, 235.764062)" x="551.243958" y="235.764062">7</text>
    </g>
    <g id="patch_52">
     <path d="M 541.473056 235.764062 
L 561.473056 235.764062 
L 561.473056 228.764062 
L 541.473056 228.764062 
z
" style="fill:#529dc8;"/>
    </g>
    <g id="text_59">
     <text style="font-family:DejaVu Sans;font-size:10px;font-stretch:normal;font-style:normal;font-weight:normal;text-anchor:start;" transform="rotate(-0, 569.473056, 235.764062)" x="569.473056" y="235.764062">8</text>
    </g>
    <g id="patch_53">
     <path d="M 559.702153 235.764062 
L 579.702153 235.764062 
L 579.702153 228.764062 
L 559.702153 228.764062 
z
" style="fill:#246aae;"/>
    </g>
    <g id="text_60">
     <text style="font-family:DejaVu Sans;font-size:10px;font-stretch:normal;font-style:normal;font-weight:normal;text-anchor:start;" transform="rotate(-0, 587.702153, 235.764062)" x="587.702153" y="235.764062">9</text>
    </g>
    <g id="patch_54">
     <path d="M 577.93125 235.764062 
L 597.93125 235.764062 
L 597.93125 228.764062 
L 577.93125 228.764062 
z
" style="fill:#053061;"/>
    </g>
    <g id="text_61">
     <text style="font-family:DejaVu Sans;font-size:10px;font-stretch:normal;font-style:normal;font-weight:normal;text-anchor:start;" transform="rotate(-0, 605.93125, 235.764062)" x="605.93125" y="235.764062">10</text>
    </g>
   </g>
  </g>
  <g id="text_62">
   <text style="font-family:DejaVu Sans;font-size:12px;font-stretch:normal;font-style:normal;font-weight:normal;text-anchor:middle;" transform="rotate(-0, 324, 14.878125)" x="324" y="14.878125">Recognition: World</text>
  </g>
 </g>
 <defs>
  <clipPath id="p1d33c067c4">
   <rect height="198.511875" width="222.786875" x="404.869375" y="48.331875"/>
  </clipPath>
 </defs>
</svg>
