<?xml version="1.0" encoding="utf-8" standalone="no"?>
<!DOCTYPE svg PUBLIC "-//W3C//DTD SVG 1.1//EN"
  "http://www.w3.org/Graphics/SVG/1.1/DTD/svg11.dtd">
<svg height="432pt" version="1.1" viewBox="0 0 576 432" width="576pt" xmlns="http://www.w3.org/2000/svg" xmlns:xlink="http://www.w3.org/1999/xlink">
 <metadata>
  <rdf:RDF xmlns:cc="http://creativecommons.org/ns#" xmlns:dc="http://purl.org/dc/elements/1.1/" xmlns:rdf="http://www.w3.org/1999/02/22-rdf-syntax-ns#">
   <cc:Work>
    <dc:type rdf:resource="http://purl.org/dc/dcmitype/StillImage"/>
    <dc:date>2021-07-09T14:33:42.555135</dc:date>
    <dc:format>image/svg+xml</dc:format>
    <dc:creator>
     <cc:Agent>
      <dc:title>Matplotlib v3.4.2, https://matplotlib.org/</dc:title>
     </cc:Agent>
    </dc:creator>
   </cc:Work>
  </rdf:RDF>
 </metadata>
 <defs>
  <style type="text/css">*{stroke-linecap:butt;stroke-linejoin:round;}</style>
 </defs>
 <g id="figure_1">
  <g id="patch_1">
   <path d="M 0 432 
L 576 432 
L 576 0 
L 0 0 
z
" style="fill:#ffffff;"/>
  </g>
  <g id="axes_1">
   <g id="patch_2">
    <path d="M 46.50625 381.909375 
L 282.6 381.909375 
L 282.6 32.86125 
L 46.50625 32.86125 
z
" style="fill:#ffffff;"/>
   </g>
   <g id="patch_3">
    <path clip-path="url(#p7302299d69)" d="M 58.310937 270.848608 
L 152.748437 270.848608 
L 152.748437 239.11696 
L 58.310937 239.11696 
L 58.310937 270.848608 
z
" style="fill:#3274a1;stroke:#3f3f3f;stroke-linejoin:miter;stroke-width:1.5;"/>
   </g>
   <g id="patch_4">
    <path clip-path="url(#p7302299d69)" d="M 176.357812 302.580256 
L 270.795312 302.580256 
L 270.795312 175.653665 
L 176.357812 175.653665 
L 176.357812 302.580256 
z
" style="fill:#e1812c;stroke:#3f3f3f;stroke-linejoin:miter;stroke-width:1.5;"/>
   </g>
   <g id="matplotlib.axis_1">
    <g id="xtick_1">
     <g id="line2d_1">
      <defs>
       <path d="M 0 0 
L 0 3.5 
" id="mc3a356a46d" style="stroke:#000000;stroke-width:0.8;"/>
      </defs>
      <g>
       <use style="stroke:#000000;stroke-width:0.8;" x="105.529687" xlink:href="#mc3a356a46d" y="391.909375"/>
      </g>
     </g>
     <g id="text_1">
      <text style="font-family:Arial;font-size:10px;font-stretch:normal;font-style:normal;font-weight:normal;text-anchor:middle;" transform="rotate(-0, 105.529687, 406.067187)" x="105.529687" y="406.067187">2017</text>
     </g>
    </g>
    <g id="xtick_2">
     <g id="line2d_2">
      <g>
       <use style="stroke:#000000;stroke-width:0.8;" x="223.576562" xlink:href="#mc3a356a46d" y="391.909375"/>
      </g>
     </g>
     <g id="text_2">
      <text style="font-family:Arial;font-size:10px;font-stretch:normal;font-style:normal;font-weight:normal;text-anchor:middle;" transform="rotate(-0, 223.576562, 406.067187)" x="223.576562" y="406.067187">2018</text>
     </g>
    </g>
    <g id="text_3">
     <text style="font-family:Arial;font-size:10px;font-stretch:normal;font-style:normal;font-weight:normal;text-anchor:middle;" transform="rotate(-0, 164.553125, 419.2125)" x="164.553125" y="419.2125">Year</text>
    </g>
   </g>
   <g id="matplotlib.axis_2">
    <g id="ytick_1">
     <g id="line2d_3">
      <defs>
       <path d="M 0 0 
L -3.5 0 
" id="m82278324de" style="stroke:#000000;stroke-width:0.8;"/>
      </defs>
      <g>
       <use style="stroke:#000000;stroke-width:0.8;" x="36.50625" xlink:href="#m82278324de" y="366.043551"/>
      </g>
     </g>
     <g id="text_4">
      <text style="font-family:Arial;font-size:10px;font-stretch:normal;font-style:normal;font-weight:normal;text-anchor:end;" transform="rotate(-0, 29.50625, 369.622457)" x="29.50625" y="369.622457">0</text>
     </g>
    </g>
    <g id="ytick_2">
     <g id="line2d_4">
      <g>
       <use style="stroke:#000000;stroke-width:0.8;" x="36.50625" xlink:href="#m82278324de" y="302.580256"/>
      </g>
     </g>
     <g id="text_5">
      <text style="font-family:Arial;font-size:10px;font-stretch:normal;font-style:normal;font-weight:normal;text-anchor:end;" transform="rotate(-0, 29.50625, 306.159162)" x="29.50625" y="306.159162">1</text>
     </g>
    </g>
    <g id="ytick_3">
     <g id="line2d_5">
      <g>
       <use style="stroke:#000000;stroke-width:0.8;" x="36.50625" xlink:href="#m82278324de" y="239.11696"/>
      </g>
     </g>
     <g id="text_6">
      <text style="font-family:Arial;font-size:10px;font-stretch:normal;font-style:normal;font-weight:normal;text-anchor:end;" transform="rotate(-0, 29.50625, 242.695866)" x="29.50625" y="242.695866">2</text>
     </g>
    </g>
    <g id="ytick_4">
     <g id="line2d_6">
      <g>
       <use style="stroke:#000000;stroke-width:0.8;" x="36.50625" xlink:href="#m82278324de" y="175.653665"/>
      </g>
     </g>
     <g id="text_7">
      <text style="font-family:Arial;font-size:10px;font-stretch:normal;font-style:normal;font-weight:normal;text-anchor:end;" transform="rotate(-0, 29.50625, 179.232571)" x="29.50625" y="179.232571">3</text>
     </g>
    </g>
    <g id="ytick_5">
     <g id="line2d_7">
      <g>
       <use style="stroke:#000000;stroke-width:0.8;" x="36.50625" xlink:href="#m82278324de" y="112.190369"/>
      </g>
     </g>
     <g id="text_8">
      <text style="font-family:Arial;font-size:10px;font-stretch:normal;font-style:normal;font-weight:normal;text-anchor:end;" transform="rotate(-0, 29.50625, 115.769276)" x="29.50625" y="115.769276">4</text>
     </g>
    </g>
    <g id="ytick_6">
     <g id="line2d_8">
      <g>
       <use style="stroke:#000000;stroke-width:0.8;" x="36.50625" xlink:href="#m82278324de" y="48.727074"/>
      </g>
     </g>
     <g id="text_9">
      <text style="font-family:Arial;font-size:10px;font-stretch:normal;font-style:normal;font-weight:normal;text-anchor:end;" transform="rotate(-0, 29.50625, 52.30598)" x="29.50625" y="52.30598">5</text>
     </g>
    </g>
    <g id="text_10">
     <text style="font-family:Arial;font-size:10px;font-stretch:normal;font-style:normal;font-weight:normal;text-anchor:middle;" transform="rotate(-90, 17.957812, 207.385312)" x="17.957812" y="207.385312">Value</text>
    </g>
   </g>
   <g id="line2d_9">
    <path clip-path="url(#p7302299d69)" d="M 105.529687 270.848608 
L 105.529687 302.580256 
" style="fill:none;stroke:#3f3f3f;stroke-linecap:square;stroke-width:1.5;"/>
   </g>
   <g id="line2d_10">
    <path clip-path="url(#p7302299d69)" d="M 105.529687 239.11696 
L 105.529687 239.11696 
" style="fill:none;stroke:#3f3f3f;stroke-linecap:square;stroke-width:1.5;"/>
   </g>
   <g id="line2d_11">
    <path clip-path="url(#p7302299d69)" d="M 81.920312 302.580256 
L 129.139062 302.580256 
" style="fill:none;stroke:#3f3f3f;stroke-linecap:square;stroke-width:1.5;"/>
   </g>
   <g id="line2d_12">
    <path clip-path="url(#p7302299d69)" d="M 81.920312 239.11696 
L 129.139062 239.11696 
" style="fill:none;stroke:#3f3f3f;stroke-linecap:square;stroke-width:1.5;"/>
   </g>
   <g id="line2d_13">
    <defs>
     <path d="M -0 3.535534 
L 2.12132 0 
L -0 -3.535534 
L -2.12132 -0 
z
" id="m226ab95657" style="stroke:#3f3f3f;stroke-linejoin:miter;"/>
    </defs>
    <g clip-path="url(#p7302299d69)">
     <use style="fill:#3f3f3f;stroke:#3f3f3f;stroke-linejoin:miter;" x="105.529687" xlink:href="#m226ab95657" y="345.100664"/>
     <use style="fill:#3f3f3f;stroke:#3f3f3f;stroke-linejoin:miter;" x="105.529687" xlink:href="#m226ab95657" y="175.653665"/>
    </g>
   </g>
   <g id="line2d_14">
    <path clip-path="url(#p7302299d69)" d="M 223.576562 302.580256 
L 223.576562 366.043551 
" style="fill:none;stroke:#3f3f3f;stroke-linecap:square;stroke-width:1.5;"/>
   </g>
   <g id="line2d_15">
    <path clip-path="url(#p7302299d69)" d="M 223.576562 175.653665 
L 223.576562 48.727074 
" style="fill:none;stroke:#3f3f3f;stroke-linecap:square;stroke-width:1.5;"/>
   </g>
   <g id="line2d_16">
    <path clip-path="url(#p7302299d69)" d="M 199.967187 366.043551 
L 247.185937 366.043551 
" style="fill:none;stroke:#3f3f3f;stroke-linecap:square;stroke-width:1.5;"/>
   </g>
   <g id="line2d_17">
    <path clip-path="url(#p7302299d69)" d="M 199.967187 48.727074 
L 247.185937 48.727074 
" style="fill:none;stroke:#3f3f3f;stroke-linecap:square;stroke-width:1.5;"/>
   </g>
   <g id="line2d_18"/>
   <g id="line2d_19">
    <path clip-path="url(#p7302299d69)" d="M 58.310937 239.11696 
L 152.748437 239.11696 
" style="fill:none;stroke:#3f3f3f;stroke-linecap:square;stroke-width:1.5;"/>
   </g>
   <g id="line2d_20">
    <path clip-path="url(#p7302299d69)" d="M 176.357812 239.11696 
L 270.795312 239.11696 
" style="fill:none;stroke:#3f3f3f;stroke-linecap:square;stroke-width:1.5;"/>
   </g>
   <g id="patch_5">
    <path d="M 36.50625 366.043551 
L 36.50625 48.727074 
" style="fill:none;stroke:#000000;stroke-linecap:square;stroke-linejoin:miter;stroke-width:0.8;"/>
   </g>
   <g id="patch_6">
    <path d="M 105.529687 391.909375 
L 223.576562 391.909375 
" style="fill:none;stroke:#000000;stroke-linecap:square;stroke-linejoin:miter;stroke-width:0.8;"/>
   </g>
   <g id="PathCollection_1">
    <defs>
     <path d="M 0 2.5 
C 0.663008 2.5 1.29895 2.236584 1.767767 1.767767 
C 2.236584 1.29895 2.5 0.663008 2.5 -0 
C 2.5 -0.663008 2.236584 -1.29895 1.767767 -1.767767 
C 1.29895 -2.236584 0.663008 -2.5 0 -2.5 
C -0.663008 -2.5 -1.29895 -2.236584 -1.767767 -1.767767 
C -2.236584 -1.29895 -2.5 -0.663008 -2.5 0 
C -2.5 0.663008 -2.236584 1.29895 -1.767767 1.767767 
C -1.29895 2.236584 -0.663008 2.5 0 2.5 
z
" id="C0_0_77057b9605"/>
    </defs>
    <g clip-path="url(#p7302299d69)">
     <use style="fill:#808080;fill-opacity:0.75;" x="105.529687" xlink:href="#C0_0_77057b9605" y="345.100664"/>
    </g>
    <g clip-path="url(#p7302299d69)">
     <use style="fill:#808080;fill-opacity:0.75;" x="105.529687" xlink:href="#C0_0_77057b9605" y="302.580256"/>
    </g>
    <g clip-path="url(#p7302299d69)">
     <use style="fill:#808080;fill-opacity:0.75;" x="105.529687" xlink:href="#C0_0_77057b9605" y="239.11696"/>
    </g>
    <g clip-path="url(#p7302299d69)">
     <use style="fill:#808080;fill-opacity:0.75;" x="99.421079" xlink:href="#C0_0_77057b9605" y="239.11696"/>
    </g>
    <g clip-path="url(#p7302299d69)">
     <use style="fill:#808080;fill-opacity:0.75;" x="111.638296" xlink:href="#C0_0_77057b9605" y="239.11696"/>
    </g>
    <g clip-path="url(#p7302299d69)">
     <use style="fill:#808080;fill-opacity:0.75;" x="93.312471" xlink:href="#C0_0_77057b9605" y="239.11696"/>
    </g>
    <g clip-path="url(#p7302299d69)">
     <use style="fill:#808080;fill-opacity:0.75;" x="105.529687" xlink:href="#C0_0_77057b9605" y="175.653665"/>
    </g>
   </g>
   <g id="PathCollection_2">
    <defs>
     <path d="M 0 2.5 
C 0.663008 2.5 1.29895 2.236584 1.767767 1.767767 
C 2.236584 1.29895 2.5 0.663008 2.5 -0 
C 2.5 -0.663008 2.236584 -1.29895 1.767767 -1.767767 
C 1.29895 -2.236584 0.663008 -2.5 0 -2.5 
C -0.663008 -2.5 -1.29895 -2.236584 -1.767767 -1.767767 
C -2.236584 -1.29895 -2.5 -0.663008 -2.5 0 
C -2.5 0.663008 -2.236584 1.29895 -1.767767 1.767767 
C -1.29895 2.236584 -0.663008 2.5 0 2.5 
z
" id="C1_0_77057b9605"/>
    </defs>
    <g clip-path="url(#p7302299d69)">
     <use style="fill:#808080;fill-opacity:0.75;" x="223.576563" xlink:href="#C1_0_77057b9605" y="366.043551"/>
    </g>
    <g clip-path="url(#p7302299d69)">
     <use style="fill:#808080;fill-opacity:0.75;" x="217.467954" xlink:href="#C1_0_77057b9605" y="366.043551"/>
    </g>
    <g clip-path="url(#p7302299d69)">
     <use style="fill:#808080;fill-opacity:0.75;" x="229.685171" xlink:href="#C1_0_77057b9605" y="366.043551"/>
    </g>
    <g clip-path="url(#p7302299d69)">
     <use style="fill:#808080;fill-opacity:0.75;" x="223.576563" xlink:href="#C1_0_77057b9605" y="334.311903"/>
    </g>
    <g clip-path="url(#p7302299d69)">
     <use style="fill:#808080;fill-opacity:0.75;" x="223.576563" xlink:href="#C1_0_77057b9605" y="302.580256"/>
    </g>
    <g clip-path="url(#p7302299d69)">
     <use style="fill:#808080;fill-opacity:0.75;" x="217.467954" xlink:href="#C1_0_77057b9605" y="302.580256"/>
    </g>
    <g clip-path="url(#p7302299d69)">
     <use style="fill:#808080;fill-opacity:0.75;" x="223.576563" xlink:href="#C1_0_77057b9605" y="239.11696"/>
    </g>
    <g clip-path="url(#p7302299d69)">
     <use style="fill:#808080;fill-opacity:0.75;" x="217.467954" xlink:href="#C1_0_77057b9605" y="239.11696"/>
    </g>
    <g clip-path="url(#p7302299d69)">
     <use style="fill:#808080;fill-opacity:0.75;" x="229.685171" xlink:href="#C1_0_77057b9605" y="239.11696"/>
    </g>
    <g clip-path="url(#p7302299d69)">
     <use style="fill:#808080;fill-opacity:0.75;" x="211.359346" xlink:href="#C1_0_77057b9605" y="239.11696"/>
    </g>
    <g clip-path="url(#p7302299d69)">
     <use style="fill:#808080;fill-opacity:0.75;" x="235.793779" xlink:href="#C1_0_77057b9605" y="239.11696"/>
    </g>
    <g clip-path="url(#p7302299d69)">
     <use style="fill:#808080;fill-opacity:0.75;" x="205.250737" xlink:href="#C1_0_77057b9605" y="239.11696"/>
    </g>
    <g clip-path="url(#p7302299d69)">
     <use style="fill:#808080;fill-opacity:0.75;" x="241.902388" xlink:href="#C1_0_77057b9605" y="239.11696"/>
    </g>
    <g clip-path="url(#p7302299d69)">
     <use style="fill:#808080;fill-opacity:0.75;" x="223.576563" xlink:href="#C1_0_77057b9605" y="175.653665"/>
    </g>
    <g clip-path="url(#p7302299d69)">
     <use style="fill:#808080;fill-opacity:0.75;" x="217.467954" xlink:href="#C1_0_77057b9605" y="175.653665"/>
    </g>
    <g clip-path="url(#p7302299d69)">
     <use style="fill:#808080;fill-opacity:0.75;" x="229.685171" xlink:href="#C1_0_77057b9605" y="175.653665"/>
    </g>
    <g clip-path="url(#p7302299d69)">
     <use style="fill:#808080;fill-opacity:0.75;" x="223.576563" xlink:href="#C1_0_77057b9605" y="112.190369"/>
    </g>
    <g clip-path="url(#p7302299d69)">
     <use style="fill:#808080;fill-opacity:0.75;" x="223.576563" xlink:href="#C1_0_77057b9605" y="48.727074"/>
    </g>
    <g clip-path="url(#p7302299d69)">
     <use style="fill:#808080;fill-opacity:0.75;" x="217.467954" xlink:href="#C1_0_77057b9605" y="48.727074"/>
    </g>
   </g>
  </g>
  <g id="axes_2">
   <g id="patch_7">
    <path d="M 329.10625 381.909375 
L 565.2 381.909375 
L 565.2 32.86125 
L 329.10625 32.86125 
z
" style="fill:#ffffff;"/>
   </g>
   <g id="patch_8">
    <path clip-path="url(#p984ec71996)" d="M 357.723674 381.909375 
L 375.609564 381.909375 
L 375.609564 191.951212 
L 357.723674 191.951212 
z
" style="fill:#2d1e3e;fill-opacity:0.5;stroke:#000000;stroke-linejoin:miter;"/>
   </g>
   <g id="patch_9">
    <path clip-path="url(#p984ec71996)" d="M 393.495455 381.909375 
L 411.381345 381.909375 
L 411.381345 286.930293 
L 393.495455 286.930293 
z
" style="fill:#2d1e3e;fill-opacity:0.5;stroke:#000000;stroke-linejoin:miter;"/>
   </g>
   <g id="patch_10">
    <path clip-path="url(#p984ec71996)" d="M 429.267235 381.909375 
L 447.153125 381.909375 
L 447.153125 49.482589 
L 429.267235 49.482589 
z
" style="fill:#2d1e3e;fill-opacity:0.5;stroke:#000000;stroke-linejoin:miter;"/>
   </g>
   <g id="patch_11">
    <path clip-path="url(#p984ec71996)" d="M 465.039015 381.909375 
L 482.924905 381.909375 
L 482.924905 239.440753 
L 465.039015 239.440753 
z
" style="fill:#2d1e3e;fill-opacity:0.5;stroke:#000000;stroke-linejoin:miter;"/>
   </g>
   <g id="patch_12">
    <path clip-path="url(#p984ec71996)" d="M 500.810795 381.909375 
L 518.696686 381.909375 
L 518.696686 334.419834 
L 500.810795 334.419834 
z
" style="fill:#2d1e3e;fill-opacity:0.5;stroke:#000000;stroke-linejoin:miter;"/>
   </g>
   <g id="patch_13">
    <path clip-path="url(#p984ec71996)" d="M 536.582576 381.909375 
L 554.468466 381.909375 
L 554.468466 286.930293 
L 536.582576 286.930293 
z
" style="fill:#2d1e3e;fill-opacity:0.5;stroke:#000000;stroke-linejoin:miter;"/>
   </g>
   <g id="patch_14">
    <path clip-path="url(#p984ec71996)" d="M 339.837784 381.909375 
L 357.723674 381.909375 
L 357.723674 334.419834 
L 339.837784 334.419834 
z
" style="fill:#edd1cb;fill-opacity:0.5;stroke:#000000;stroke-linejoin:miter;"/>
   </g>
   <g id="patch_15">
    <path clip-path="url(#p984ec71996)" d="M 375.609564 381.909375 
L 393.495455 381.909375 
L 393.495455 334.419834 
L 375.609564 334.419834 
z
" style="fill:#edd1cb;fill-opacity:0.5;stroke:#000000;stroke-linejoin:miter;"/>
   </g>
   <g id="patch_16">
    <path clip-path="url(#p984ec71996)" d="M 411.381345 381.909375 
L 429.267235 381.909375 
L 429.267235 191.951212 
L 411.381345 191.951212 
z
" style="fill:#edd1cb;fill-opacity:0.5;stroke:#000000;stroke-linejoin:miter;"/>
   </g>
   <g id="patch_17">
    <path clip-path="url(#p984ec71996)" d="M 447.153125 381.909375 
L 465.039015 381.909375 
L 465.039015 334.419834 
L 447.153125 334.419834 
z
" style="fill:#edd1cb;fill-opacity:0.5;stroke:#000000;stroke-linejoin:miter;"/>
   </g>
   <g id="patch_18">
    <path clip-path="url(#p984ec71996)" d="M 482.924905 381.909375 
L 500.810795 381.909375 
L 500.810795 381.909375 
L 482.924905 381.909375 
z
" style="fill:#edd1cb;fill-opacity:0.5;stroke:#000000;stroke-linejoin:miter;"/>
   </g>
   <g id="patch_19">
    <path clip-path="url(#p984ec71996)" d="M 518.696686 381.909375 
L 536.582576 381.909375 
L 536.582576 381.909375 
L 518.696686 381.909375 
z
" style="fill:#edd1cb;fill-opacity:0.5;stroke:#000000;stroke-linejoin:miter;"/>
   </g>
   <g id="matplotlib.axis_3">
    <g id="xtick_3">
     <g id="line2d_21">
      <g>
       <use style="stroke:#000000;stroke-width:0.8;" x="339.837784" xlink:href="#mc3a356a46d" y="391.909375"/>
      </g>
     </g>
     <g id="text_11">
      <text style="font-family:Arial;font-size:10px;font-stretch:normal;font-style:normal;font-weight:normal;text-anchor:middle;" transform="rotate(-0, 339.837784, 406.067187)" x="339.837784" y="406.067187">0</text>
     </g>
    </g>
    <g id="xtick_4">
     <g id="line2d_22">
      <g>
       <use style="stroke:#000000;stroke-width:0.8;" x="382.76392" xlink:href="#mc3a356a46d" y="391.909375"/>
      </g>
     </g>
     <g id="text_12">
      <text style="font-family:Arial;font-size:10px;font-stretch:normal;font-style:normal;font-weight:normal;text-anchor:middle;" transform="rotate(-0, 382.76392, 406.067187)" x="382.76392" y="406.067187">1</text>
     </g>
    </g>
    <g id="xtick_5">
     <g id="line2d_23">
      <g>
       <use style="stroke:#000000;stroke-width:0.8;" x="425.690057" xlink:href="#mc3a356a46d" y="391.909375"/>
      </g>
     </g>
     <g id="text_13">
      <text style="font-family:Arial;font-size:10px;font-stretch:normal;font-style:normal;font-weight:normal;text-anchor:middle;" transform="rotate(-0, 425.690057, 406.067187)" x="425.690057" y="406.067187">2</text>
     </g>
    </g>
    <g id="xtick_6">
     <g id="line2d_24">
      <g>
       <use style="stroke:#000000;stroke-width:0.8;" x="468.616193" xlink:href="#mc3a356a46d" y="391.909375"/>
      </g>
     </g>
     <g id="text_14">
      <text style="font-family:Arial;font-size:10px;font-stretch:normal;font-style:normal;font-weight:normal;text-anchor:middle;" transform="rotate(-0, 468.616193, 406.067187)" x="468.616193" y="406.067187">3</text>
     </g>
    </g>
    <g id="xtick_7">
     <g id="line2d_25">
      <g>
       <use style="stroke:#000000;stroke-width:0.8;" x="511.54233" xlink:href="#mc3a356a46d" y="391.909375"/>
      </g>
     </g>
     <g id="text_15">
      <text style="font-family:Arial;font-size:10px;font-stretch:normal;font-style:normal;font-weight:normal;text-anchor:middle;" transform="rotate(-0, 511.54233, 406.067187)" x="511.54233" y="406.067187">4</text>
     </g>
    </g>
    <g id="xtick_8">
     <g id="line2d_26">
      <g>
       <use style="stroke:#000000;stroke-width:0.8;" x="554.468466" xlink:href="#mc3a356a46d" y="391.909375"/>
      </g>
     </g>
     <g id="text_16">
      <text style="font-family:Arial;font-size:10px;font-stretch:normal;font-style:normal;font-weight:normal;text-anchor:middle;" transform="rotate(-0, 554.468466, 406.067187)" x="554.468466" y="406.067187">5</text>
     </g>
    </g>
    <g id="text_17">
     <text style="font-family:Arial;font-size:10px;font-stretch:normal;font-style:normal;font-weight:normal;text-anchor:middle;" transform="rotate(-0, 447.153125, 419.2125)" x="447.153125" y="419.2125">Value</text>
    </g>
   </g>
   <g id="matplotlib.axis_4">
    <g id="ytick_7">
     <g id="line2d_27">
      <g>
       <use style="stroke:#000000;stroke-width:0.8;" x="319.10625" xlink:href="#m82278324de" y="381.909375"/>
      </g>
     </g>
     <g id="text_18">
      <text style="font-family:Arial;font-size:10px;font-stretch:normal;font-style:normal;font-weight:normal;text-anchor:end;" transform="rotate(-0, 312.10625, 385.488281)" x="312.10625" y="385.488281">0</text>
     </g>
    </g>
    <g id="ytick_8">
     <g id="line2d_28">
      <g>
       <use style="stroke:#000000;stroke-width:0.8;" x="319.10625" xlink:href="#m82278324de" y="334.419834"/>
      </g>
     </g>
     <g id="text_19">
      <text style="font-family:Arial;font-size:10px;font-stretch:normal;font-style:normal;font-weight:normal;text-anchor:end;" transform="rotate(-0, 312.10625, 337.99874)" x="312.10625" y="337.99874">1</text>
     </g>
    </g>
    <g id="ytick_9">
     <g id="line2d_29">
      <g>
       <use style="stroke:#000000;stroke-width:0.8;" x="319.10625" xlink:href="#m82278324de" y="286.930293"/>
      </g>
     </g>
     <g id="text_20">
      <text style="font-family:Arial;font-size:10px;font-stretch:normal;font-style:normal;font-weight:normal;text-anchor:end;" transform="rotate(-0, 312.10625, 290.5092)" x="312.10625" y="290.5092">2</text>
     </g>
    </g>
    <g id="ytick_10">
     <g id="line2d_30">
      <g>
       <use style="stroke:#000000;stroke-width:0.8;" x="319.10625" xlink:href="#m82278324de" y="239.440753"/>
      </g>
     </g>
     <g id="text_21">
      <text style="font-family:Arial;font-size:10px;font-stretch:normal;font-style:normal;font-weight:normal;text-anchor:end;" transform="rotate(-0, 312.10625, 243.019659)" x="312.10625" y="243.019659">3</text>
     </g>
    </g>
    <g id="ytick_11">
     <g id="line2d_31">
      <g>
       <use style="stroke:#000000;stroke-width:0.8;" x="319.10625" xlink:href="#m82278324de" y="191.951212"/>
      </g>
     </g>
     <g id="text_22">
      <text style="font-family:Arial;font-size:10px;font-stretch:normal;font-style:normal;font-weight:normal;text-anchor:end;" transform="rotate(-0, 312.10625, 195.530118)" x="312.10625" y="195.530118">4</text>
     </g>
    </g>
    <g id="ytick_12">
     <g id="line2d_32">
      <g>
       <use style="stroke:#000000;stroke-width:0.8;" x="319.10625" xlink:href="#m82278324de" y="144.461671"/>
      </g>
     </g>
     <g id="text_23">
      <text style="font-family:Arial;font-size:10px;font-stretch:normal;font-style:normal;font-weight:normal;text-anchor:end;" transform="rotate(-0, 312.10625, 148.040577)" x="312.10625" y="148.040577">5</text>
     </g>
    </g>
    <g id="ytick_13">
     <g id="line2d_33">
      <g>
       <use style="stroke:#000000;stroke-width:0.8;" x="319.10625" xlink:href="#m82278324de" y="96.97213"/>
      </g>
     </g>
     <g id="text_24">
      <text style="font-family:Arial;font-size:10px;font-stretch:normal;font-style:normal;font-weight:normal;text-anchor:end;" transform="rotate(-0, 312.10625, 100.551036)" x="312.10625" y="100.551036">6</text>
     </g>
    </g>
    <g id="ytick_14">
     <g id="line2d_34">
      <g>
       <use style="stroke:#000000;stroke-width:0.8;" x="319.10625" xlink:href="#m82278324de" y="49.482589"/>
      </g>
     </g>
     <g id="text_25">
      <text style="font-family:Arial;font-size:10px;font-stretch:normal;font-style:normal;font-weight:normal;text-anchor:end;" transform="rotate(-0, 312.10625, 53.061496)" x="312.10625" y="53.061496">7</text>
     </g>
    </g>
    <g id="text_26">
     <text style="font-family:Arial;font-size:10px;font-stretch:normal;font-style:normal;font-weight:normal;text-anchor:middle;" transform="rotate(-90, 300.557812, 207.385312)" x="300.557812" y="207.385312">Count</text>
    </g>
   </g>
   <g id="line2d_35">
    <path clip-path="url(#p984ec71996)" d="M 339.837784 283.418741 
L 344.151969 277.57422 
L 348.466153 272.037586 
L 353.858884 265.503796 
L 360.330161 258.085834 
L 380.822537 234.995401 
L 389.450907 224.695928 
L 398.079276 214.473569 
L 402.39346 209.695786 
L 405.629099 206.389265 
L 408.864737 203.401897 
L 412.100375 200.807541 
L 414.257468 199.331469 
L 416.41456 198.081222 
L 418.571652 197.074811 
L 420.728745 196.328345 
L 422.885837 195.855729 
L 425.042929 195.668418 
L 427.200021 195.77521 
L 429.357114 196.182098 
L 431.514206 196.89217 
L 433.671298 197.905578 
L 435.828391 199.219541 
L 437.985483 200.828422 
L 440.142575 202.723834 
L 442.299667 204.894807 
L 444.45676 207.327975 
L 446.613852 210.007813 
L 449.84949 214.451482 
L 453.085129 219.345105 
L 456.320767 224.617129 
L 460.634952 232.104368 
L 466.027682 241.941801 
L 478.970236 265.779612 
L 483.284421 273.266137 
L 487.598605 280.32251 
L 491.91279 286.863927 
L 495.148428 291.395271 
L 498.384067 295.587227 
L 501.619705 299.432077 
L 504.855343 302.929918 
L 508.090982 306.088362 
L 511.32662 308.922129 
L 514.562259 311.452505 
L 517.797897 313.706663 
L 521.033536 315.716847 
L 525.34772 318.080871 
L 529.661905 320.170158 
L 536.133182 323.00437 
L 545.840097 327.207701 
L 551.232827 329.803081 
L 554.468466 331.508017 
L 554.468466 331.508017 
" style="fill:none;stroke:#2d1e3e;stroke-linecap:square;stroke-width:1.5;"/>
   </g>
   <g id="line2d_36">
    <path clip-path="url(#p984ec71996)" d="M 339.837784 352.313839 
L 347.387607 344.934068 
L 351.701792 340.98274 
L 356.015976 337.315842 
L 360.330161 333.937462 
L 365.722891 330.013723 
L 373.272714 324.540053 
L 376.508353 321.95025 
L 379.743991 319.069368 
L 382.97963 315.805372 
L 386.215268 312.085967 
L 389.450907 307.86968 
L 392.686545 303.155881 
L 395.922183 297.99248 
L 400.236368 290.589943 
L 407.786191 277.376474 
L 411.021829 272.204419 
L 413.178922 269.10743 
L 415.336014 266.37704 
L 417.493106 264.080915 
L 419.650198 262.27866 
L 420.728745 261.578575 
L 421.807291 261.019492 
L 422.885837 260.605625 
L 423.964383 260.340329 
L 425.042929 260.226067 
L 426.121475 260.264388 
L 427.200021 260.455918 
L 428.278568 260.800361 
L 429.357114 261.296503 
L 430.43566 261.942234 
L 431.514206 262.73458 
L 433.671298 264.743105 
L 435.828391 267.282561 
L 437.985483 270.302791 
L 440.142575 273.745208 
L 442.299667 277.545263 
L 445.535306 283.767041 
L 449.84949 292.680262 
L 459.556406 313.03609 
L 463.87059 321.458747 
L 467.106229 327.369599 
L 470.341867 332.908205 
L 473.577505 338.076725 
L 476.813144 342.890107 
L 480.048782 347.368396 
L 483.284421 351.53085 
L 486.520059 355.392282 
L 489.755698 358.961593 
L 492.991336 362.24218 
L 496.226974 365.233646 
L 499.462613 367.934202 
L 502.698251 370.34315 
L 505.93389 372.462985 
L 509.169528 374.300813 
L 512.405166 375.868965 
L 515.640805 377.184826 
L 518.876443 378.270054 
L 522.112082 379.149359 
L 526.426266 380.047076 
L 530.740451 380.688272 
L 536.133182 381.217688 
L 542.604458 381.580203 
L 551.232827 381.799109 
L 554.468466 381.838418 
L 554.468466 381.838418 
" style="fill:none;stroke:#edd1cb;stroke-linecap:square;stroke-width:1.5;"/>
   </g>
   <g id="patch_20">
    <path d="M 319.10625 381.909375 
L 319.10625 49.482589 
" style="fill:none;stroke:#000000;stroke-linecap:square;stroke-linejoin:miter;stroke-width:0.8;"/>
   </g>
   <g id="patch_21">
    <path d="M 339.837784 391.909375 
L 554.468466 391.909375 
" style="fill:none;stroke:#000000;stroke-linecap:square;stroke-linejoin:miter;stroke-width:0.8;"/>
   </g>
   <g id="legend_1">
    <g id="patch_22">
     <path d="M 503.95625 83.297188 
L 558.2 83.297188 
Q 560.2 83.297188 560.2 81.297188 
L 560.2 39.86125 
Q 560.2 37.86125 558.2 37.86125 
L 503.95625 37.86125 
Q 501.95625 37.86125 501.95625 39.86125 
L 501.95625 81.297188 
Q 501.95625 83.297188 503.95625 83.297188 
z
" style="fill:#ffffff;opacity:0.8;stroke:#cccccc;stroke-linejoin:miter;"/>
    </g>
    <g id="text_27">
     <text style="font-family:Arial;font-size:10px;font-stretch:normal;font-style:normal;font-weight:normal;text-anchor:start;" transform="rotate(-0, 520.973437, 49.019063)" x="520.973437" y="49.019063">Year</text>
    </g>
    <g id="patch_23">
     <path d="M 505.95625 63.164375 
L 525.95625 63.164375 
L 525.95625 56.164375 
L 505.95625 56.164375 
z
" style="fill:#edd1cb;fill-opacity:0.5;stroke:#000000;stroke-linejoin:miter;"/>
    </g>
    <g id="text_28">
     <text style="font-family:Arial;font-size:10px;font-stretch:normal;font-style:normal;font-weight:normal;text-anchor:start;" transform="rotate(-0, 533.95625, 63.164375)" x="533.95625" y="63.164375">2017</text>
    </g>
    <g id="patch_24">
     <path d="M 505.95625 77.309688 
L 525.95625 77.309688 
L 525.95625 70.309688 
L 505.95625 70.309688 
z
" style="fill:#2d1e3e;fill-opacity:0.5;stroke:#000000;stroke-linejoin:miter;"/>
    </g>
    <g id="text_29">
     <text style="font-family:Arial;font-size:10px;font-stretch:normal;font-style:normal;font-weight:normal;text-anchor:start;" transform="rotate(-0, 533.95625, 77.309688)" x="533.95625" y="77.309688">2018</text>
    </g>
   </g>
  </g>
  <g id="text_30">
   <text style="font-family:Arial;font-size:12px;font-stretch:normal;font-style:normal;font-weight:normal;text-anchor:middle;" transform="rotate(-0, 288, 17.375625)" x="288" y="17.375625">Number of time per year providing training for South Africa (without 95 percentile)</text>
  </g>
 </g>
 <defs>
  <clipPath id="p7302299d69">
   <rect height="349.048125" width="236.09375" x="46.50625" y="32.86125"/>
  </clipPath>
  <clipPath id="p984ec71996">
   <rect height="349.048125" width="236.09375" x="329.10625" y="32.86125"/>
  </clipPath>
 </defs>
</svg>
