<?xml version="1.0" encoding="utf-8" standalone="no"?>
<!DOCTYPE svg PUBLIC "-//W3C//DTD SVG 1.1//EN"
  "http://www.w3.org/Graphics/SVG/1.1/DTD/svg11.dtd">
<svg height="432pt" version="1.1" viewBox="0 0 576 432" width="576pt" xmlns="http://www.w3.org/2000/svg" xmlns:xlink="http://www.w3.org/1999/xlink">
 <metadata>
  <rdf:RDF xmlns:cc="http://creativecommons.org/ns#" xmlns:dc="http://purl.org/dc/elements/1.1/" xmlns:rdf="http://www.w3.org/1999/02/22-rdf-syntax-ns#">
   <cc:Work>
    <dc:type rdf:resource="http://purl.org/dc/dcmitype/StillImage"/>
    <dc:date>2021-03-29T21:56:50.838792</dc:date>
    <dc:format>image/svg+xml</dc:format>
    <dc:creator>
     <cc:Agent>
      <dc:title>Matplotlib v3.4.0, https://matplotlib.org/</dc:title>
     </cc:Agent>
    </dc:creator>
   </cc:Work>
  </rdf:RDF>
 </metadata>
 <defs>
  <style type="text/css">*{stroke-linecap:butt;stroke-linejoin:round;}</style>
 </defs>
 <g id="figure_1">
  <g id="patch_1">
   <path d="M 0 432 
L 576 432 
L 576 0 
L 0 0 
z
" style="fill:#ffffff;"/>
  </g>
  <g id="axes_1">
   <g id="patch_2">
    <path d="M 47.840625 380.84375 
L 276.42835 380.84375 
L 276.42835 33.21375 
L 47.840625 33.21375 
z
" style="fill:#ffffff;"/>
   </g>
   <g id="patch_3">
    <path clip-path="url(#p981a2e9150)" d="M 59.270011 270.234205 
L 150.705101 270.234205 
L 150.705101 238.631477 
L 59.270011 238.631477 
L 59.270011 270.234205 
z
" style="fill:#3274a1;stroke:#3f3f3f;stroke-linejoin:miter;stroke-width:1.5;"/>
   </g>
   <g id="patch_4">
    <path clip-path="url(#p981a2e9150)" d="M 173.563874 301.836932 
L 264.998964 301.836932 
L 264.998964 175.426023 
L 173.563874 175.426023 
L 173.563874 301.836932 
z
" style="fill:#e1812c;stroke:#3f3f3f;stroke-linejoin:miter;stroke-width:1.5;"/>
   </g>
   <g id="matplotlib.axis_1">
    <g id="xtick_1">
     <g id="line2d_1">
      <defs>
       <path d="M 0 0 
L 0 3.5 
" id="mc3a356a46d" style="stroke:#000000;stroke-width:0.8;"/>
      </defs>
      <g>
       <use style="stroke:#000000;stroke-width:0.8;" x="104.987556" xlink:href="#mc3a356a46d" y="390.84375"/>
      </g>
     </g>
     <g id="text_1">
      <text style="font-family:DejaVu Sans;font-size:10px;font-stretch:normal;font-style:normal;font-weight:normal;text-anchor:middle;" transform="rotate(-0, 104.987556, 405.442187)" x="104.987556" y="405.442187">2017</text>
     </g>
    </g>
    <g id="xtick_2">
     <g id="line2d_2">
      <g>
       <use style="stroke:#000000;stroke-width:0.8;" x="219.281419" xlink:href="#mc3a356a46d" y="390.84375"/>
      </g>
     </g>
     <g id="text_2">
      <text style="font-family:DejaVu Sans;font-size:10px;font-stretch:normal;font-style:normal;font-weight:normal;text-anchor:middle;" transform="rotate(-0, 219.281419, 405.442187)" x="219.281419" y="405.442187">2018</text>
     </g>
    </g>
    <g id="text_3">
     <text style="font-family:DejaVu Sans;font-size:10px;font-stretch:normal;font-style:normal;font-weight:normal;text-anchor:middle;" transform="rotate(-0, 162.134488, 419.120313)" x="162.134488" y="419.120313">Year</text>
    </g>
   </g>
   <g id="matplotlib.axis_2">
    <g id="ytick_1">
     <g id="line2d_3">
      <defs>
       <path d="M 0 0 
L -3.5 0 
" id="m82278324de" style="stroke:#000000;stroke-width:0.8;"/>
      </defs>
      <g>
       <use style="stroke:#000000;stroke-width:0.8;" x="37.840625" xlink:href="#m82278324de" y="365.042386"/>
      </g>
     </g>
     <g id="text_4">
      <text style="font-family:DejaVu Sans;font-size:10px;font-stretch:normal;font-style:normal;font-weight:normal;text-anchor:end;" transform="rotate(-0, 30.840625, 368.841605)" x="30.840625" y="368.841605">0</text>
     </g>
    </g>
    <g id="ytick_2">
     <g id="line2d_4">
      <g>
       <use style="stroke:#000000;stroke-width:0.8;" x="37.840625" xlink:href="#m82278324de" y="301.836932"/>
      </g>
     </g>
     <g id="text_5">
      <text style="font-family:DejaVu Sans;font-size:10px;font-stretch:normal;font-style:normal;font-weight:normal;text-anchor:end;" transform="rotate(-0, 30.840625, 305.636151)" x="30.840625" y="305.636151">1</text>
     </g>
    </g>
    <g id="ytick_3">
     <g id="line2d_5">
      <g>
       <use style="stroke:#000000;stroke-width:0.8;" x="37.840625" xlink:href="#m82278324de" y="238.631477"/>
      </g>
     </g>
     <g id="text_6">
      <text style="font-family:DejaVu Sans;font-size:10px;font-stretch:normal;font-style:normal;font-weight:normal;text-anchor:end;" transform="rotate(-0, 30.840625, 242.430696)" x="30.840625" y="242.430696">2</text>
     </g>
    </g>
    <g id="ytick_4">
     <g id="line2d_6">
      <g>
       <use style="stroke:#000000;stroke-width:0.8;" x="37.840625" xlink:href="#m82278324de" y="175.426023"/>
      </g>
     </g>
     <g id="text_7">
      <text style="font-family:DejaVu Sans;font-size:10px;font-stretch:normal;font-style:normal;font-weight:normal;text-anchor:end;" transform="rotate(-0, 30.840625, 179.225241)" x="30.840625" y="179.225241">3</text>
     </g>
    </g>
    <g id="ytick_5">
     <g id="line2d_7">
      <g>
       <use style="stroke:#000000;stroke-width:0.8;" x="37.840625" xlink:href="#m82278324de" y="112.220568"/>
      </g>
     </g>
     <g id="text_8">
      <text style="font-family:DejaVu Sans;font-size:10px;font-stretch:normal;font-style:normal;font-weight:normal;text-anchor:end;" transform="rotate(-0, 30.840625, 116.019787)" x="30.840625" y="116.019787">4</text>
     </g>
    </g>
    <g id="ytick_6">
     <g id="line2d_8">
      <g>
       <use style="stroke:#000000;stroke-width:0.8;" x="37.840625" xlink:href="#m82278324de" y="49.015114"/>
      </g>
     </g>
     <g id="text_9">
      <text style="font-family:DejaVu Sans;font-size:10px;font-stretch:normal;font-style:normal;font-weight:normal;text-anchor:end;" transform="rotate(-0, 30.840625, 52.814332)" x="30.840625" y="52.814332">5</text>
     </g>
    </g>
    <g id="text_10">
     <text style="font-family:DejaVu Sans;font-size:10px;font-stretch:normal;font-style:normal;font-weight:normal;text-anchor:middle;" transform="rotate(-90, 18.398438, 207.02875)" x="18.398438" y="207.02875">Value</text>
    </g>
   </g>
   <g id="line2d_9">
    <path clip-path="url(#p981a2e9150)" d="M 104.987556 270.234205 
L 104.987556 301.836932 
" style="fill:none;stroke:#3f3f3f;stroke-linecap:square;stroke-width:1.5;"/>
   </g>
   <g id="line2d_10">
    <path clip-path="url(#p981a2e9150)" d="M 104.987556 238.631477 
L 104.987556 238.631477 
" style="fill:none;stroke:#3f3f3f;stroke-linecap:square;stroke-width:1.5;"/>
   </g>
   <g id="line2d_11">
    <path clip-path="url(#p981a2e9150)" d="M 82.128784 301.836932 
L 127.846329 301.836932 
" style="fill:none;stroke:#3f3f3f;stroke-linecap:square;stroke-width:1.5;"/>
   </g>
   <g id="line2d_12">
    <path clip-path="url(#p981a2e9150)" d="M 82.128784 238.631477 
L 127.846329 238.631477 
" style="fill:none;stroke:#3f3f3f;stroke-linecap:square;stroke-width:1.5;"/>
   </g>
   <g id="line2d_13">
    <defs>
     <path d="M -0 3.535534 
L 2.12132 0 
L -0 -3.535534 
L -2.12132 -0 
z
" id="m226ab95657" style="stroke:#3f3f3f;stroke-linejoin:miter;"/>
    </defs>
    <g clip-path="url(#p981a2e9150)">
     <use style="fill:#3f3f3f;stroke:#3f3f3f;stroke-linejoin:miter;" x="104.987556" xlink:href="#m226ab95657" y="344.184586"/>
     <use style="fill:#3f3f3f;stroke:#3f3f3f;stroke-linejoin:miter;" x="104.987556" xlink:href="#m226ab95657" y="175.426023"/>
    </g>
   </g>
   <g id="line2d_14">
    <path clip-path="url(#p981a2e9150)" d="M 219.281419 301.836932 
L 219.281419 365.042386 
" style="fill:none;stroke:#3f3f3f;stroke-linecap:square;stroke-width:1.5;"/>
   </g>
   <g id="line2d_15">
    <path clip-path="url(#p981a2e9150)" d="M 219.281419 175.426023 
L 219.281419 49.015114 
" style="fill:none;stroke:#3f3f3f;stroke-linecap:square;stroke-width:1.5;"/>
   </g>
   <g id="line2d_16">
    <path clip-path="url(#p981a2e9150)" d="M 196.422646 365.042386 
L 242.140191 365.042386 
" style="fill:none;stroke:#3f3f3f;stroke-linecap:square;stroke-width:1.5;"/>
   </g>
   <g id="line2d_17">
    <path clip-path="url(#p981a2e9150)" d="M 196.422646 49.015114 
L 242.140191 49.015114 
" style="fill:none;stroke:#3f3f3f;stroke-linecap:square;stroke-width:1.5;"/>
   </g>
   <g id="line2d_18"/>
   <g id="line2d_19">
    <path clip-path="url(#p981a2e9150)" d="M 59.270011 238.631477 
L 150.705101 238.631477 
" style="fill:none;stroke:#3f3f3f;stroke-linecap:square;stroke-width:1.5;"/>
   </g>
   <g id="line2d_20">
    <path clip-path="url(#p981a2e9150)" d="M 173.563874 238.631477 
L 264.998964 238.631477 
" style="fill:none;stroke:#3f3f3f;stroke-linecap:square;stroke-width:1.5;"/>
   </g>
   <g id="patch_5">
    <path d="M 37.840625 365.042386 
L 37.840625 49.015114 
" style="fill:none;stroke:#000000;stroke-linecap:square;stroke-linejoin:miter;stroke-width:0.8;"/>
   </g>
   <g id="patch_6">
    <path d="M 104.987556 390.84375 
L 219.281419 390.84375 
" style="fill:none;stroke:#000000;stroke-linecap:square;stroke-linejoin:miter;stroke-width:0.8;"/>
   </g>
   <g id="PathCollection_1">
    <defs>
     <path d="M 0 2.5 
C 0.663008 2.5 1.29895 2.236584 1.767767 1.767767 
C 2.236584 1.29895 2.5 0.663008 2.5 -0 
C 2.5 -0.663008 2.236584 -1.29895 1.767767 -1.767767 
C 1.29895 -2.236584 0.663008 -2.5 0 -2.5 
C -0.663008 -2.5 -1.29895 -2.236584 -1.767767 -1.767767 
C -2.236584 -1.29895 -2.5 -0.663008 -2.5 0 
C -2.5 0.663008 -2.236584 1.29895 -1.767767 1.767767 
C -1.29895 2.236584 -0.663008 2.5 0 2.5 
z
" id="C0_0_77057b9605"/>
    </defs>
    <g clip-path="url(#p981a2e9150)">
     <use style="fill:#808080;fill-opacity:0.75;" x="104.987556" xlink:href="#C0_0_77057b9605" y="344.184586"/>
    </g>
    <g clip-path="url(#p981a2e9150)">
     <use style="fill:#808080;fill-opacity:0.75;" x="104.987556" xlink:href="#C0_0_77057b9605" y="301.836932"/>
    </g>
    <g clip-path="url(#p981a2e9150)">
     <use style="fill:#808080;fill-opacity:0.75;" x="104.987556" xlink:href="#C0_0_77057b9605" y="238.631477"/>
    </g>
    <g clip-path="url(#p981a2e9150)">
     <use style="fill:#808080;fill-opacity:0.75;" x="99.073156" xlink:href="#C0_0_77057b9605" y="238.631477"/>
    </g>
    <g clip-path="url(#p981a2e9150)">
     <use style="fill:#808080;fill-opacity:0.75;" x="110.901956" xlink:href="#C0_0_77057b9605" y="238.631477"/>
    </g>
    <g clip-path="url(#p981a2e9150)">
     <use style="fill:#808080;fill-opacity:0.75;" x="93.158756" xlink:href="#C0_0_77057b9605" y="238.631477"/>
    </g>
    <g clip-path="url(#p981a2e9150)">
     <use style="fill:#808080;fill-opacity:0.75;" x="104.987556" xlink:href="#C0_0_77057b9605" y="175.426023"/>
    </g>
   </g>
   <g id="PathCollection_2">
    <defs>
     <path d="M 0 2.5 
C 0.663008 2.5 1.29895 2.236584 1.767767 1.767767 
C 2.236584 1.29895 2.5 0.663008 2.5 -0 
C 2.5 -0.663008 2.236584 -1.29895 1.767767 -1.767767 
C 1.29895 -2.236584 0.663008 -2.5 0 -2.5 
C -0.663008 -2.5 -1.29895 -2.236584 -1.767767 -1.767767 
C -2.236584 -1.29895 -2.5 -0.663008 -2.5 0 
C -2.5 0.663008 -2.236584 1.29895 -1.767767 1.767767 
C -1.29895 2.236584 -0.663008 2.5 0 2.5 
z
" id="C1_0_77057b9605"/>
    </defs>
    <g clip-path="url(#p981a2e9150)">
     <use style="fill:#808080;fill-opacity:0.75;" x="219.281419" xlink:href="#C1_0_77057b9605" y="365.042386"/>
    </g>
    <g clip-path="url(#p981a2e9150)">
     <use style="fill:#808080;fill-opacity:0.75;" x="213.367019" xlink:href="#C1_0_77057b9605" y="365.042386"/>
    </g>
    <g clip-path="url(#p981a2e9150)">
     <use style="fill:#808080;fill-opacity:0.75;" x="225.195819" xlink:href="#C1_0_77057b9605" y="365.042386"/>
    </g>
    <g clip-path="url(#p981a2e9150)">
     <use style="fill:#808080;fill-opacity:0.75;" x="219.281419" xlink:href="#C1_0_77057b9605" y="333.439659"/>
    </g>
    <g clip-path="url(#p981a2e9150)">
     <use style="fill:#808080;fill-opacity:0.75;" x="219.281419" xlink:href="#C1_0_77057b9605" y="301.836932"/>
    </g>
    <g clip-path="url(#p981a2e9150)">
     <use style="fill:#808080;fill-opacity:0.75;" x="213.367019" xlink:href="#C1_0_77057b9605" y="301.836932"/>
    </g>
    <g clip-path="url(#p981a2e9150)">
     <use style="fill:#808080;fill-opacity:0.75;" x="219.281419" xlink:href="#C1_0_77057b9605" y="238.631477"/>
    </g>
    <g clip-path="url(#p981a2e9150)">
     <use style="fill:#808080;fill-opacity:0.75;" x="213.367019" xlink:href="#C1_0_77057b9605" y="238.631477"/>
    </g>
    <g clip-path="url(#p981a2e9150)">
     <use style="fill:#808080;fill-opacity:0.75;" x="225.195819" xlink:href="#C1_0_77057b9605" y="238.631477"/>
    </g>
    <g clip-path="url(#p981a2e9150)">
     <use style="fill:#808080;fill-opacity:0.75;" x="207.452619" xlink:href="#C1_0_77057b9605" y="238.631477"/>
    </g>
    <g clip-path="url(#p981a2e9150)">
     <use style="fill:#808080;fill-opacity:0.75;" x="231.110219" xlink:href="#C1_0_77057b9605" y="238.631477"/>
    </g>
    <g clip-path="url(#p981a2e9150)">
     <use style="fill:#808080;fill-opacity:0.75;" x="201.538218" xlink:href="#C1_0_77057b9605" y="238.631477"/>
    </g>
    <g clip-path="url(#p981a2e9150)">
     <use style="fill:#808080;fill-opacity:0.75;" x="237.024619" xlink:href="#C1_0_77057b9605" y="238.631477"/>
    </g>
    <g clip-path="url(#p981a2e9150)">
     <use style="fill:#808080;fill-opacity:0.75;" x="219.281419" xlink:href="#C1_0_77057b9605" y="175.426023"/>
    </g>
    <g clip-path="url(#p981a2e9150)">
     <use style="fill:#808080;fill-opacity:0.75;" x="213.367019" xlink:href="#C1_0_77057b9605" y="175.426023"/>
    </g>
    <g clip-path="url(#p981a2e9150)">
     <use style="fill:#808080;fill-opacity:0.75;" x="225.195819" xlink:href="#C1_0_77057b9605" y="175.426023"/>
    </g>
    <g clip-path="url(#p981a2e9150)">
     <use style="fill:#808080;fill-opacity:0.75;" x="219.281419" xlink:href="#C1_0_77057b9605" y="112.220568"/>
    </g>
    <g clip-path="url(#p981a2e9150)">
     <use style="fill:#808080;fill-opacity:0.75;" x="219.281419" xlink:href="#C1_0_77057b9605" y="49.015114"/>
    </g>
    <g clip-path="url(#p981a2e9150)">
     <use style="fill:#808080;fill-opacity:0.75;" x="213.367019" xlink:href="#C1_0_77057b9605" y="49.015114"/>
    </g>
   </g>
  </g>
  <g id="axes_2">
   <g id="patch_7">
    <path d="M 333.8096 380.84375 
L 562.397325 380.84375 
L 562.397325 33.21375 
L 333.8096 33.21375 
z
" style="fill:#ffffff;"/>
   </g>
   <g id="patch_8">
    <path clip-path="url(#p102bf84d02)" d="M 403.15896 380.84375 
L 421.592419 380.84375 
L 421.592419 220.573485 
L 403.15896 220.573485 
z
" style="fill:#1f77b4;opacity:0.4;"/>
   </g>
   <g id="patch_9">
    <path clip-path="url(#p102bf84d02)" d="M 421.592419 380.84375 
L 440.025879 380.84375 
L 440.025879 60.303221 
L 421.592419 60.303221 
z
" style="fill:#1f77b4;opacity:0.4;"/>
   </g>
   <g id="patch_10">
    <path clip-path="url(#p102bf84d02)" d="M 440.025879 380.84375 
L 458.459339 380.84375 
L 458.459339 300.708618 
L 440.025879 300.708618 
z
" style="fill:#1f77b4;opacity:0.4;"/>
   </g>
   <g id="patch_11">
    <path clip-path="url(#p102bf84d02)" d="M 396.324081 380.84375 
L 407.830611 380.84375 
L 407.830611 191.657355 
L 396.324081 191.657355 
z
" style="fill:#ff7f0e;opacity:0.4;"/>
   </g>
   <g id="patch_12">
    <path clip-path="url(#p102bf84d02)" d="M 407.830611 380.84375 
L 419.33714 380.84375 
L 419.33714 286.250553 
L 407.830611 286.250553 
z
" style="fill:#ff7f0e;opacity:0.4;"/>
   </g>
   <g id="patch_13">
    <path clip-path="url(#p102bf84d02)" d="M 419.33714 380.84375 
L 430.843669 380.84375 
L 430.843669 380.84375 
L 419.33714 380.84375 
z
" style="fill:#ff7f0e;opacity:0.4;"/>
   </g>
   <g id="patch_14">
    <path clip-path="url(#p102bf84d02)" d="M 430.843669 380.84375 
L 442.350198 380.84375 
L 442.350198 49.76756 
L 430.843669 49.76756 
z
" style="fill:#ff7f0e;opacity:0.4;"/>
   </g>
   <g id="patch_15">
    <path clip-path="url(#p102bf84d02)" d="M 442.350198 380.84375 
L 453.856727 380.84375 
L 453.856727 380.84375 
L 442.350198 380.84375 
z
" style="fill:#ff7f0e;opacity:0.4;"/>
   </g>
   <g id="patch_16">
    <path clip-path="url(#p102bf84d02)" d="M 453.856727 380.84375 
L 465.363256 380.84375 
L 465.363256 238.953954 
L 453.856727 238.953954 
z
" style="fill:#ff7f0e;opacity:0.4;"/>
   </g>
   <g id="patch_17">
    <path clip-path="url(#p102bf84d02)" d="M 465.363256 380.84375 
L 476.869786 380.84375 
L 476.869786 380.84375 
L 465.363256 380.84375 
z
" style="fill:#ff7f0e;opacity:0.4;"/>
   </g>
   <g id="patch_18">
    <path clip-path="url(#p102bf84d02)" d="M 476.869786 380.84375 
L 488.376315 380.84375 
L 488.376315 333.547151 
L 476.869786 333.547151 
z
" style="fill:#ff7f0e;opacity:0.4;"/>
   </g>
   <g id="patch_19">
    <path clip-path="url(#p102bf84d02)" d="M 488.376315 380.84375 
L 499.882844 380.84375 
L 499.882844 286.250553 
L 488.376315 286.250553 
z
" style="fill:#ff7f0e;opacity:0.4;"/>
   </g>
   <g id="matplotlib.axis_3">
    <g id="xtick_3">
     <g id="line2d_21">
      <g>
       <use style="stroke:#000000;stroke-width:0.8;" x="354.900576" xlink:href="#mc3a356a46d" y="390.84375"/>
      </g>
     </g>
     <g id="text_11">
      <text style="font-family:DejaVu Sans;font-size:10px;font-stretch:normal;font-style:normal;font-weight:normal;text-anchor:middle;" transform="rotate(-0, 354.900576, 405.442187)" x="354.900576" y="405.442187">−2</text>
     </g>
    </g>
    <g id="xtick_4">
     <g id="line2d_22">
      <g>
       <use style="stroke:#000000;stroke-width:0.8;" x="396.324081" xlink:href="#mc3a356a46d" y="390.84375"/>
      </g>
     </g>
     <g id="text_12">
      <text style="font-family:DejaVu Sans;font-size:10px;font-stretch:normal;font-style:normal;font-weight:normal;text-anchor:middle;" transform="rotate(-0, 396.324081, 405.442187)" x="396.324081" y="405.442187">0</text>
     </g>
    </g>
    <g id="xtick_5">
     <g id="line2d_23">
      <g>
       <use style="stroke:#000000;stroke-width:0.8;" x="437.747586" xlink:href="#mc3a356a46d" y="390.84375"/>
      </g>
     </g>
     <g id="text_13">
      <text style="font-family:DejaVu Sans;font-size:10px;font-stretch:normal;font-style:normal;font-weight:normal;text-anchor:middle;" transform="rotate(-0, 437.747586, 405.442187)" x="437.747586" y="405.442187">2</text>
     </g>
    </g>
    <g id="xtick_6">
     <g id="line2d_24">
      <g>
       <use style="stroke:#000000;stroke-width:0.8;" x="479.171091" xlink:href="#mc3a356a46d" y="390.84375"/>
      </g>
     </g>
     <g id="text_14">
      <text style="font-family:DejaVu Sans;font-size:10px;font-stretch:normal;font-style:normal;font-weight:normal;text-anchor:middle;" transform="rotate(-0, 479.171091, 405.442187)" x="479.171091" y="405.442187">4</text>
     </g>
    </g>
    <g id="xtick_7">
     <g id="line2d_25">
      <g>
       <use style="stroke:#000000;stroke-width:0.8;" x="520.594596" xlink:href="#mc3a356a46d" y="390.84375"/>
      </g>
     </g>
     <g id="text_15">
      <text style="font-family:DejaVu Sans;font-size:10px;font-stretch:normal;font-style:normal;font-weight:normal;text-anchor:middle;" transform="rotate(-0, 520.594596, 405.442187)" x="520.594596" y="405.442187">6</text>
     </g>
    </g>
    <g id="xtick_8">
     <g id="line2d_26">
      <g>
       <use style="stroke:#000000;stroke-width:0.8;" x="562.018101" xlink:href="#mc3a356a46d" y="390.84375"/>
      </g>
     </g>
     <g id="text_16">
      <text style="font-family:DejaVu Sans;font-size:10px;font-stretch:normal;font-style:normal;font-weight:normal;text-anchor:middle;" transform="rotate(-0, 562.018101, 405.442187)" x="562.018101" y="405.442187">8</text>
     </g>
    </g>
    <g id="text_17">
     <text style="font-family:DejaVu Sans;font-size:10px;font-stretch:normal;font-style:normal;font-weight:normal;text-anchor:middle;" transform="rotate(-0, 448.103463, 419.120313)" x="448.103463" y="419.120313">Value</text>
    </g>
   </g>
   <g id="matplotlib.axis_4">
    <g id="ytick_7">
     <g id="line2d_27">
      <g>
       <use style="stroke:#000000;stroke-width:0.8;" x="323.8096" xlink:href="#m82278324de" y="380.84375"/>
      </g>
     </g>
     <g id="text_18">
      <text style="font-family:DejaVu Sans;font-size:10px;font-stretch:normal;font-style:normal;font-weight:normal;text-anchor:end;" transform="rotate(-0, 316.8096, 384.642969)" x="316.8096" y="384.642969">0.0</text>
     </g>
    </g>
    <g id="ytick_8">
     <g id="line2d_28">
      <g>
       <use style="stroke:#000000;stroke-width:0.8;" x="323.8096" xlink:href="#m82278324de" y="330.919563"/>
      </g>
     </g>
     <g id="text_19">
      <text style="font-family:DejaVu Sans;font-size:10px;font-stretch:normal;font-style:normal;font-weight:normal;text-anchor:end;" transform="rotate(-0, 316.8096, 334.718781)" x="316.8096" y="334.718781">0.1</text>
     </g>
    </g>
    <g id="ytick_9">
     <g id="line2d_29">
      <g>
       <use style="stroke:#000000;stroke-width:0.8;" x="323.8096" xlink:href="#m82278324de" y="280.995375"/>
      </g>
     </g>
     <g id="text_20">
      <text style="font-family:DejaVu Sans;font-size:10px;font-stretch:normal;font-style:normal;font-weight:normal;text-anchor:end;" transform="rotate(-0, 316.8096, 284.794594)" x="316.8096" y="284.794594">0.2</text>
     </g>
    </g>
    <g id="ytick_10">
     <g id="line2d_30">
      <g>
       <use style="stroke:#000000;stroke-width:0.8;" x="323.8096" xlink:href="#m82278324de" y="231.071188"/>
      </g>
     </g>
     <g id="text_21">
      <text style="font-family:DejaVu Sans;font-size:10px;font-stretch:normal;font-style:normal;font-weight:normal;text-anchor:end;" transform="rotate(-0, 316.8096, 234.870406)" x="316.8096" y="234.870406">0.3</text>
     </g>
    </g>
    <g id="ytick_11">
     <g id="line2d_31">
      <g>
       <use style="stroke:#000000;stroke-width:0.8;" x="323.8096" xlink:href="#m82278324de" y="181.147"/>
      </g>
     </g>
     <g id="text_22">
      <text style="font-family:DejaVu Sans;font-size:10px;font-stretch:normal;font-style:normal;font-weight:normal;text-anchor:end;" transform="rotate(-0, 316.8096, 184.946219)" x="316.8096" y="184.946219">0.4</text>
     </g>
    </g>
    <g id="ytick_12">
     <g id="line2d_32">
      <g>
       <use style="stroke:#000000;stroke-width:0.8;" x="323.8096" xlink:href="#m82278324de" y="131.222813"/>
      </g>
     </g>
     <g id="text_23">
      <text style="font-family:DejaVu Sans;font-size:10px;font-stretch:normal;font-style:normal;font-weight:normal;text-anchor:end;" transform="rotate(-0, 316.8096, 135.022031)" x="316.8096" y="135.022031">0.5</text>
     </g>
    </g>
    <g id="ytick_13">
     <g id="line2d_33">
      <g>
       <use style="stroke:#000000;stroke-width:0.8;" x="323.8096" xlink:href="#m82278324de" y="81.298625"/>
      </g>
     </g>
     <g id="text_24">
      <text style="font-family:DejaVu Sans;font-size:10px;font-stretch:normal;font-style:normal;font-weight:normal;text-anchor:end;" transform="rotate(-0, 316.8096, 85.097844)" x="316.8096" y="85.097844">0.6</text>
     </g>
    </g>
    <g id="text_25">
     <text style="font-family:DejaVu Sans;font-size:10px;font-stretch:normal;font-style:normal;font-weight:normal;text-anchor:middle;" transform="rotate(-90, 294.826788, 207.02875)" x="294.826788" y="207.02875">Density</text>
    </g>
   </g>
   <g id="line2d_34">
    <path clip-path="url(#p102bf84d02)" d="M 367.142655 380.289722 
L 369.702112 379.812566 
L 371.621705 379.247606 
L 373.541297 378.43353 
L 375.46089 377.29269 
L 376.740619 376.307854 
L 378.020347 375.112049 
L 379.300076 373.678192 
L 380.579804 371.980416 
L 381.859533 369.995409 
L 383.139261 367.703861 
L 385.058854 363.663397 
L 386.978447 358.887562 
L 388.89804 353.403724 
L 390.817633 347.287654 
L 393.37709 338.368902 
L 402.335189 306.144704 
L 404.894647 298.185106 
L 407.454104 290.960408 
L 413.212882 275.246861 
L 415.132475 269.142996 
L 417.052068 262.06474 
L 418.97166 253.758324 
L 420.891253 244.094088 
L 422.810846 233.116055 
L 425.370303 216.90088 
L 429.849353 187.918209 
L 431.768946 177.262715 
L 433.048674 171.369451 
L 434.328403 166.70723 
L 434.968267 164.897656 
L 435.608131 163.462206 
L 436.247996 162.416734 
L 436.88786 161.773625 
L 437.527724 161.541629 
L 438.167588 161.725743 
L 438.807453 162.327159 
L 439.447317 163.343277 
L 440.087181 164.767776 
L 440.727045 166.590747 
L 442.006774 171.375723 
L 443.286502 177.555674 
L 444.566231 184.947763 
L 446.485824 197.841921 
L 449.045281 217.210411 
L 454.804059 262.059981 
L 457.363516 280.107534 
L 459.922973 296.379122 
L 462.48243 310.888604 
L 465.041887 323.778548 
L 466.96148 332.468409 
L 468.881073 340.360214 
L 470.800666 347.465284 
L 472.720259 353.780822 
L 474.639851 359.30213 
L 476.559444 364.034286 
L 478.479037 368.000322 
L 479.758766 370.239747 
L 481.038494 372.176175 
L 482.318223 373.831225 
L 483.597951 375.229087 
L 484.87768 376.395591 
L 486.797272 377.769525 
L 488.716865 378.770345 
L 490.636458 379.479453 
L 492.556051 379.968122 
L 494.475644 380.295664 
L 494.475644 380.295664 
" style="fill:none;stroke:#1f77b4;stroke-linecap:square;stroke-width:1.5;"/>
   </g>
   <g id="line2d_35">
    <path clip-path="url(#p102bf84d02)" d="M 344.199951 380.403996 
L 348.376977 379.956377 
L 351.509746 379.395489 
L 354.642515 378.552791 
L 356.731028 377.786691 
L 358.819541 376.81999 
L 360.908054 375.619331 
L 362.996566 374.151649 
L 365.085079 372.386057 
L 367.173592 370.29602 
L 369.262105 367.86168 
L 371.350617 365.072157 
L 373.43913 361.927597 
L 375.527643 358.440734 
L 378.660412 352.629512 
L 381.793181 346.253431 
L 387.014463 334.927194 
L 392.235745 323.653851 
L 395.368515 317.300946 
L 398.501284 311.396315 
L 401.634053 305.949307 
L 405.811079 299.249796 
L 417.297899 281.350876 
L 425.65195 267.775687 
L 427.740463 264.750739 
L 429.828976 262.086513 
L 431.917488 259.900036 
L 432.961745 259.020731 
L 434.006001 258.300935 
L 435.050258 257.75185 
L 436.094514 257.383255 
L 437.13877 257.203322 
L 438.183027 257.218474 
L 439.227283 257.433271 
L 440.27154 257.850333 
L 441.315796 258.470308 
L 442.360052 259.291866 
L 443.404309 260.311736 
L 444.448565 261.524777 
L 446.537078 264.501076 
L 448.625591 268.146624 
L 450.714104 272.366125 
L 452.802616 277.049006 
L 455.935386 284.679365 
L 465.333693 308.235891 
L 468.466462 315.207904 
L 470.554975 319.412834 
L 472.643488 323.222375 
L 474.732001 326.620658 
L 476.820513 329.608452 
L 478.909026 332.202305 
L 480.997539 334.43323 
L 483.086052 336.344883 
L 485.174565 337.991202 
L 488.307334 340.09864 
L 498.749898 346.549878 
L 501.882667 348.952549 
L 505.015436 351.70217 
L 508.148205 354.763832 
L 513.369487 360.290889 
L 518.590769 365.797846 
L 521.723539 368.829211 
L 524.856308 371.528533 
L 527.989077 373.835793 
L 530.07759 375.144615 
L 532.166102 376.272251 
L 534.254615 377.227186 
L 537.387384 378.364624 
L 540.520154 379.197158 
L 543.652923 379.784311 
L 547.829948 380.283791 
L 552.006974 380.564189 
L 552.006974 380.564189 
" style="fill:none;stroke:#ff7f0e;stroke-linecap:square;stroke-width:1.5;"/>
   </g>
   <g id="patch_20">
    <path d="M 323.8096 380.84375 
L 323.8096 81.298625 
" style="fill:none;stroke:#000000;stroke-linecap:square;stroke-linejoin:miter;stroke-width:0.8;"/>
   </g>
   <g id="patch_21">
    <path d="M 354.900576 390.84375 
L 562.018101 390.84375 
" style="fill:none;stroke:#000000;stroke-linecap:square;stroke-linejoin:miter;stroke-width:0.8;"/>
   </g>
   <g id="legend_1">
    <g id="patch_22">
     <path d="M 497.947325 70.57 
L 555.397325 70.57 
Q 557.397325 70.57 557.397325 68.57 
L 557.397325 40.21375 
Q 557.397325 38.21375 555.397325 38.21375 
L 497.947325 38.21375 
Q 495.947325 38.21375 495.947325 40.21375 
L 495.947325 68.57 
Q 495.947325 70.57 497.947325 70.57 
z
" style="fill:#ffffff;opacity:0.8;stroke:#cccccc;stroke-linejoin:miter;"/>
    </g>
    <g id="patch_23">
     <path d="M 499.947325 49.812187 
L 519.947325 49.812187 
L 519.947325 42.812187 
L 499.947325 42.812187 
z
" style="fill:#1f77b4;opacity:0.4;"/>
    </g>
    <g id="text_26">
     <text style="font-family:DejaVu Sans;font-size:10px;font-stretch:normal;font-style:normal;font-weight:normal;text-anchor:start;" transform="rotate(-0, 527.947325, 49.812187)" x="527.947325" y="49.812187">2017</text>
    </g>
    <g id="patch_24">
     <path d="M 499.947325 64.490313 
L 519.947325 64.490313 
L 519.947325 57.490313 
L 499.947325 57.490313 
z
" style="fill:#ff7f0e;opacity:0.4;"/>
    </g>
    <g id="text_27">
     <text style="font-family:DejaVu Sans;font-size:10px;font-stretch:normal;font-style:normal;font-weight:normal;text-anchor:start;" transform="rotate(-0, 527.947325, 64.490313)" x="527.947325" y="64.490313">2018</text>
    </g>
   </g>
  </g>
  <g id="text_28">
   <text style="font-family:DejaVu Sans;font-size:12px;font-stretch:normal;font-style:normal;font-weight:normal;text-anchor:middle;" transform="rotate(-0, 288, 17.758125)" x="288" y="17.758125">Number of time per year providing training for South Africa (without 95 percentile)</text>
  </g>
 </g>
 <defs>
  <clipPath id="p981a2e9150">
   <rect height="347.63" width="228.587725" x="47.840625" y="33.21375"/>
  </clipPath>
  <clipPath id="p102bf84d02">
   <rect height="347.63" width="228.587725" x="333.8096" y="33.21375"/>
  </clipPath>
 </defs>
</svg>
