<?xml version="1.0" encoding="utf-8" standalone="no"?>
<!DOCTYPE svg PUBLIC "-//W3C//DTD SVG 1.1//EN"
  "http://www.w3.org/Graphics/SVG/1.1/DTD/svg11.dtd">
<svg height="432pt" version="1.1" viewBox="0 0 576 432" width="576pt" xmlns="http://www.w3.org/2000/svg" xmlns:xlink="http://www.w3.org/1999/xlink">
 <metadata>
  <rdf:RDF xmlns:cc="http://creativecommons.org/ns#" xmlns:dc="http://purl.org/dc/elements/1.1/" xmlns:rdf="http://www.w3.org/1999/02/22-rdf-syntax-ns#">
   <cc:Work>
    <dc:type rdf:resource="http://purl.org/dc/dcmitype/StillImage"/>
    <dc:date>2021-03-28T00:22:02.538219</dc:date>
    <dc:format>image/svg+xml</dc:format>
    <dc:creator>
     <cc:Agent>
      <dc:title>Matplotlib v3.4.0, https://matplotlib.org/</dc:title>
     </cc:Agent>
    </dc:creator>
   </cc:Work>
  </rdf:RDF>
 </metadata>
 <defs>
  <style type="text/css">*{stroke-linecap:butt;stroke-linejoin:round;}</style>
 </defs>
 <g id="figure_1">
  <g id="patch_1">
   <path d="M 0 432 
L 576 432 
L 576 0 
L 0 0 
z
" style="fill:#ffffff;"/>
  </g>
  <g id="axes_1">
   <g id="patch_2">
    <path d="M 47.840625 380.84375 
L 277.829688 380.84375 
L 277.829688 33.21375 
L 47.840625 33.21375 
z
" style="fill:#ffffff;"/>
   </g>
   <g id="patch_3">
    <path clip-path="url(#p83839e3b45)" d="M 70.839531 365.042386 
L 254.830781 365.042386 
L 254.830781 238.631477 
L 70.839531 238.631477 
L 70.839531 365.042386 
z
" style="fill:#3274a1;stroke:#3f3f3f;stroke-linejoin:miter;stroke-width:1.5;"/>
   </g>
   <g id="matplotlib.axis_1">
    <g id="xtick_1">
     <g id="line2d_1">
      <defs>
       <path d="M 0 0 
L 0 3.5 
" id="mc3a356a46d" style="stroke:#000000;stroke-width:0.8;"/>
      </defs>
      <g>
       <use style="stroke:#000000;stroke-width:0.8;" x="162.835156" xlink:href="#mc3a356a46d" y="390.84375"/>
      </g>
     </g>
     <g id="text_1">
      <text style="font-family:DejaVu Sans;font-size:10px;font-stretch:normal;font-style:normal;font-weight:normal;text-anchor:middle;" transform="rotate(-0, 162.835156, 405.442187)" x="162.835156" y="405.442187">2018</text>
     </g>
    </g>
    <g id="text_2">
     <text style="font-family:DejaVu Sans;font-size:10px;font-stretch:normal;font-style:normal;font-weight:normal;text-anchor:middle;" transform="rotate(-0, 162.835156, 419.120313)" x="162.835156" y="419.120313">Year</text>
    </g>
   </g>
   <g id="matplotlib.axis_2">
    <g id="ytick_1">
     <g id="line2d_2">
      <defs>
       <path d="M 0 0 
L -3.5 0 
" id="m82278324de" style="stroke:#000000;stroke-width:0.8;"/>
      </defs>
      <g>
       <use style="stroke:#000000;stroke-width:0.8;" x="37.840625" xlink:href="#m82278324de" y="365.042386"/>
      </g>
     </g>
     <g id="text_3">
      <text style="font-family:DejaVu Sans;font-size:10px;font-stretch:normal;font-style:normal;font-weight:normal;text-anchor:end;" transform="rotate(-0, 30.840625, 368.841605)" x="30.840625" y="368.841605">0</text>
     </g>
    </g>
    <g id="ytick_2">
     <g id="line2d_3">
      <g>
       <use style="stroke:#000000;stroke-width:0.8;" x="37.840625" xlink:href="#m82278324de" y="301.836932"/>
      </g>
     </g>
     <g id="text_4">
      <text style="font-family:DejaVu Sans;font-size:10px;font-stretch:normal;font-style:normal;font-weight:normal;text-anchor:end;" transform="rotate(-0, 30.840625, 305.636151)" x="30.840625" y="305.636151">1</text>
     </g>
    </g>
    <g id="ytick_3">
     <g id="line2d_4">
      <g>
       <use style="stroke:#000000;stroke-width:0.8;" x="37.840625" xlink:href="#m82278324de" y="238.631477"/>
      </g>
     </g>
     <g id="text_5">
      <text style="font-family:DejaVu Sans;font-size:10px;font-stretch:normal;font-style:normal;font-weight:normal;text-anchor:end;" transform="rotate(-0, 30.840625, 242.430696)" x="30.840625" y="242.430696">2</text>
     </g>
    </g>
    <g id="ytick_4">
     <g id="line2d_5">
      <g>
       <use style="stroke:#000000;stroke-width:0.8;" x="37.840625" xlink:href="#m82278324de" y="175.426023"/>
      </g>
     </g>
     <g id="text_6">
      <text style="font-family:DejaVu Sans;font-size:10px;font-stretch:normal;font-style:normal;font-weight:normal;text-anchor:end;" transform="rotate(-0, 30.840625, 179.225241)" x="30.840625" y="179.225241">3</text>
     </g>
    </g>
    <g id="ytick_5">
     <g id="line2d_6">
      <g>
       <use style="stroke:#000000;stroke-width:0.8;" x="37.840625" xlink:href="#m82278324de" y="112.220568"/>
      </g>
     </g>
     <g id="text_7">
      <text style="font-family:DejaVu Sans;font-size:10px;font-stretch:normal;font-style:normal;font-weight:normal;text-anchor:end;" transform="rotate(-0, 30.840625, 116.019787)" x="30.840625" y="116.019787">4</text>
     </g>
    </g>
    <g id="ytick_6">
     <g id="line2d_7">
      <g>
       <use style="stroke:#000000;stroke-width:0.8;" x="37.840625" xlink:href="#m82278324de" y="49.015114"/>
      </g>
     </g>
     <g id="text_8">
      <text style="font-family:DejaVu Sans;font-size:10px;font-stretch:normal;font-style:normal;font-weight:normal;text-anchor:end;" transform="rotate(-0, 30.840625, 52.814332)" x="30.840625" y="52.814332">5</text>
     </g>
    </g>
    <g id="text_9">
     <text style="font-family:DejaVu Sans;font-size:10px;font-stretch:normal;font-style:normal;font-weight:normal;text-anchor:middle;" transform="rotate(-90, 18.398437, 207.02875)" x="18.398437" y="207.02875">Value</text>
    </g>
   </g>
   <g id="line2d_8">
    <path clip-path="url(#p83839e3b45)" d="M 162.835156 365.042386 
L 162.835156 365.042386 
" style="fill:none;stroke:#3f3f3f;stroke-linecap:square;stroke-width:1.5;"/>
   </g>
   <g id="line2d_9">
    <path clip-path="url(#p83839e3b45)" d="M 162.835156 238.631477 
L 162.835156 49.015114 
" style="fill:none;stroke:#3f3f3f;stroke-linecap:square;stroke-width:1.5;"/>
   </g>
   <g id="line2d_10">
    <path clip-path="url(#p83839e3b45)" d="M 116.837344 365.042386 
L 208.832969 365.042386 
" style="fill:none;stroke:#3f3f3f;stroke-linecap:square;stroke-width:1.5;"/>
   </g>
   <g id="line2d_11">
    <path clip-path="url(#p83839e3b45)" d="M 116.837344 49.015114 
L 208.832969 49.015114 
" style="fill:none;stroke:#3f3f3f;stroke-linecap:square;stroke-width:1.5;"/>
   </g>
   <g id="line2d_12"/>
   <g id="line2d_13">
    <path clip-path="url(#p83839e3b45)" d="M 70.839531 301.836932 
L 254.830781 301.836932 
" style="fill:none;stroke:#3f3f3f;stroke-linecap:square;stroke-width:1.5;"/>
   </g>
   <g id="patch_4">
    <path d="M 37.840625 365.042386 
L 37.840625 49.015114 
" style="fill:none;stroke:#000000;stroke-linecap:square;stroke-linejoin:miter;stroke-width:0.8;"/>
   </g>
   <g id="patch_5">
    <path d="M 162.835156 390.84375 
L 162.835156 390.84375 
" style="fill:none;stroke:#000000;stroke-linecap:square;stroke-linejoin:miter;stroke-width:0.8;"/>
   </g>
   <g id="PathCollection_1">
    <defs>
     <path d="M 0 2.5 
C 0.663008 2.5 1.29895 2.236584 1.767767 1.767767 
C 2.236584 1.29895 2.5 0.663008 2.5 -0 
C 2.5 -0.663008 2.236584 -1.29895 1.767767 -1.767767 
C 1.29895 -2.236584 0.663008 -2.5 0 -2.5 
C -0.663008 -2.5 -1.29895 -2.236584 -1.767767 -1.767767 
C -2.236584 -1.29895 -2.5 -0.663008 -2.5 0 
C -2.5 0.663008 -2.236584 1.29895 -1.767767 1.767767 
C -1.29895 2.236584 -0.663008 2.5 0 2.5 
z
" id="C0_0_77057b9605"/>
    </defs>
    <g clip-path="url(#p83839e3b45)">
     <use style="fill:#808080;fill-opacity:0.75;" x="162.835156" xlink:href="#C0_0_77057b9605" y="365.042386"/>
    </g>
    <g clip-path="url(#p83839e3b45)">
     <use style="fill:#808080;fill-opacity:0.75;" x="156.884498" xlink:href="#C0_0_77057b9605" y="365.042386"/>
    </g>
    <g clip-path="url(#p83839e3b45)">
     <use style="fill:#808080;fill-opacity:0.75;" x="168.785814" xlink:href="#C0_0_77057b9605" y="365.042386"/>
    </g>
    <g clip-path="url(#p83839e3b45)">
     <use style="fill:#808080;fill-opacity:0.75;" x="150.933841" xlink:href="#C0_0_77057b9605" y="365.042386"/>
    </g>
    <g clip-path="url(#p83839e3b45)">
     <use style="fill:#808080;fill-opacity:0.75;" x="174.736472" xlink:href="#C0_0_77057b9605" y="365.042386"/>
    </g>
    <g clip-path="url(#p83839e3b45)">
     <use style="fill:#808080;fill-opacity:0.75;" x="144.983183" xlink:href="#C0_0_77057b9605" y="365.042386"/>
    </g>
    <g clip-path="url(#p83839e3b45)">
     <use style="fill:#808080;fill-opacity:0.75;" x="180.68713" xlink:href="#C0_0_77057b9605" y="365.042386"/>
    </g>
    <g clip-path="url(#p83839e3b45)">
     <use style="fill:#808080;fill-opacity:0.75;" x="139.032525" xlink:href="#C0_0_77057b9605" y="365.042386"/>
    </g>
    <g clip-path="url(#p83839e3b45)">
     <use style="fill:#808080;fill-opacity:0.75;" x="186.637788" xlink:href="#C0_0_77057b9605" y="365.042386"/>
    </g>
    <g clip-path="url(#p83839e3b45)">
     <use style="fill:#808080;fill-opacity:0.75;" x="133.081867" xlink:href="#C0_0_77057b9605" y="365.042386"/>
    </g>
    <g clip-path="url(#p83839e3b45)">
     <use style="fill:#808080;fill-opacity:0.75;" x="192.588446" xlink:href="#C0_0_77057b9605" y="365.042386"/>
    </g>
    <g clip-path="url(#p83839e3b45)">
     <use style="fill:#808080;fill-opacity:0.75;" x="127.131209" xlink:href="#C0_0_77057b9605" y="365.042386"/>
    </g>
    <g clip-path="url(#p83839e3b45)">
     <use style="fill:#808080;fill-opacity:0.75;" x="198.539103" xlink:href="#C0_0_77057b9605" y="365.042386"/>
    </g>
    <g clip-path="url(#p83839e3b45)">
     <use style="fill:#808080;fill-opacity:0.75;" x="162.835156" xlink:href="#C0_0_77057b9605" y="333.439659"/>
    </g>
    <g clip-path="url(#p83839e3b45)">
     <use style="fill:#808080;fill-opacity:0.75;" x="162.835156" xlink:href="#C0_0_77057b9605" y="301.836932"/>
    </g>
    <g clip-path="url(#p83839e3b45)">
     <use style="fill:#808080;fill-opacity:0.75;" x="156.884498" xlink:href="#C0_0_77057b9605" y="301.836932"/>
    </g>
    <g clip-path="url(#p83839e3b45)">
     <use style="fill:#808080;fill-opacity:0.75;" x="168.785814" xlink:href="#C0_0_77057b9605" y="301.836932"/>
    </g>
    <g clip-path="url(#p83839e3b45)">
     <use style="fill:#808080;fill-opacity:0.75;" x="150.933841" xlink:href="#C0_0_77057b9605" y="301.836932"/>
    </g>
    <g clip-path="url(#p83839e3b45)">
     <use style="fill:#808080;fill-opacity:0.75;" x="174.736472" xlink:href="#C0_0_77057b9605" y="301.836932"/>
    </g>
    <g clip-path="url(#p83839e3b45)">
     <use style="fill:#808080;fill-opacity:0.75;" x="144.983183" xlink:href="#C0_0_77057b9605" y="301.836932"/>
    </g>
    <g clip-path="url(#p83839e3b45)">
     <use style="fill:#808080;fill-opacity:0.75;" x="180.68713" xlink:href="#C0_0_77057b9605" y="301.836932"/>
    </g>
    <g clip-path="url(#p83839e3b45)">
     <use style="fill:#808080;fill-opacity:0.75;" x="162.835156" xlink:href="#C0_0_77057b9605" y="238.631477"/>
    </g>
    <g clip-path="url(#p83839e3b45)">
     <use style="fill:#808080;fill-opacity:0.75;" x="156.884498" xlink:href="#C0_0_77057b9605" y="238.631477"/>
    </g>
    <g clip-path="url(#p83839e3b45)">
     <use style="fill:#808080;fill-opacity:0.75;" x="168.785814" xlink:href="#C0_0_77057b9605" y="238.631477"/>
    </g>
    <g clip-path="url(#p83839e3b45)">
     <use style="fill:#808080;fill-opacity:0.75;" x="150.933841" xlink:href="#C0_0_77057b9605" y="238.631477"/>
    </g>
    <g clip-path="url(#p83839e3b45)">
     <use style="fill:#808080;fill-opacity:0.75;" x="174.736472" xlink:href="#C0_0_77057b9605" y="238.631477"/>
    </g>
    <g clip-path="url(#p83839e3b45)">
     <use style="fill:#808080;fill-opacity:0.75;" x="144.983183" xlink:href="#C0_0_77057b9605" y="238.631477"/>
    </g>
    <g clip-path="url(#p83839e3b45)">
     <use style="fill:#808080;fill-opacity:0.75;" x="180.68713" xlink:href="#C0_0_77057b9605" y="238.631477"/>
    </g>
    <g clip-path="url(#p83839e3b45)">
     <use style="fill:#808080;fill-opacity:0.75;" x="139.032525" xlink:href="#C0_0_77057b9605" y="238.631477"/>
    </g>
    <g clip-path="url(#p83839e3b45)">
     <use style="fill:#808080;fill-opacity:0.75;" x="186.637788" xlink:href="#C0_0_77057b9605" y="238.631477"/>
    </g>
    <g clip-path="url(#p83839e3b45)">
     <use style="fill:#808080;fill-opacity:0.75;" x="162.835156" xlink:href="#C0_0_77057b9605" y="112.220568"/>
    </g>
    <g clip-path="url(#p83839e3b45)">
     <use style="fill:#808080;fill-opacity:0.75;" x="162.835156" xlink:href="#C0_0_77057b9605" y="49.015114"/>
    </g>
   </g>
  </g>
  <g id="axes_2">
   <g id="patch_6">
    <path d="M 335.210938 380.84375 
L 565.2 380.84375 
L 565.2 33.21375 
L 335.210938 33.21375 
z
" style="fill:#ffffff;"/>
   </g>
   <g id="patch_7">
    <path clip-path="url(#p926b90aad2)" d="M 390.097677 380.84375 
L 397.611151 380.84375 
L 397.611151 49.76756 
L 390.097677 49.76756 
z
" style="fill:#1f77b4;opacity:0.4;"/>
   </g>
   <g id="patch_8">
    <path clip-path="url(#p926b90aad2)" d="M 397.611151 380.84375 
L 405.124625 380.84375 
L 405.124625 355.376351 
L 397.611151 355.376351 
z
" style="fill:#1f77b4;opacity:0.4;"/>
   </g>
   <g id="patch_9">
    <path clip-path="url(#p926b90aad2)" d="M 405.124625 380.84375 
L 412.638099 380.84375 
L 412.638099 380.84375 
L 405.124625 380.84375 
z
" style="fill:#1f77b4;opacity:0.4;"/>
   </g>
   <g id="patch_10">
    <path clip-path="url(#p926b90aad2)" d="M 412.638099 380.84375 
L 420.151573 380.84375 
L 420.151573 202.571955 
L 412.638099 202.571955 
z
" style="fill:#1f77b4;opacity:0.4;"/>
   </g>
   <g id="patch_11">
    <path clip-path="url(#p926b90aad2)" d="M 420.151573 380.84375 
L 427.665047 380.84375 
L 427.665047 380.84375 
L 420.151573 380.84375 
z
" style="fill:#1f77b4;opacity:0.4;"/>
   </g>
   <g id="patch_12">
    <path clip-path="url(#p926b90aad2)" d="M 427.665047 380.84375 
L 435.178521 380.84375 
L 435.178521 380.84375 
L 427.665047 380.84375 
z
" style="fill:#1f77b4;opacity:0.4;"/>
   </g>
   <g id="patch_13">
    <path clip-path="url(#p926b90aad2)" d="M 435.178521 380.84375 
L 442.691995 380.84375 
L 442.691995 151.637157 
L 435.178521 151.637157 
z
" style="fill:#1f77b4;opacity:0.4;"/>
   </g>
   <g id="patch_14">
    <path clip-path="url(#p926b90aad2)" d="M 442.691995 380.84375 
L 450.205469 380.84375 
L 450.205469 380.84375 
L 442.691995 380.84375 
z
" style="fill:#1f77b4;opacity:0.4;"/>
   </g>
   <g id="patch_15">
    <path clip-path="url(#p926b90aad2)" d="M 450.205469 380.84375 
L 457.718943 380.84375 
L 457.718943 380.84375 
L 450.205469 380.84375 
z
" style="fill:#1f77b4;opacity:0.4;"/>
   </g>
   <g id="patch_16">
    <path clip-path="url(#p926b90aad2)" d="M 457.718943 380.84375 
L 465.232417 380.84375 
L 465.232417 380.84375 
L 457.718943 380.84375 
z
" style="fill:#1f77b4;opacity:0.4;"/>
   </g>
   <g id="patch_17">
    <path clip-path="url(#p926b90aad2)" d="M 465.232417 380.84375 
L 472.745891 380.84375 
L 472.745891 380.84375 
L 465.232417 380.84375 
z
" style="fill:#1f77b4;opacity:0.4;"/>
   </g>
   <g id="patch_18">
    <path clip-path="url(#p926b90aad2)" d="M 472.745891 380.84375 
L 480.259364 380.84375 
L 480.259364 380.84375 
L 472.745891 380.84375 
z
" style="fill:#1f77b4;opacity:0.4;"/>
   </g>
   <g id="patch_19">
    <path clip-path="url(#p926b90aad2)" d="M 480.259364 380.84375 
L 487.772838 380.84375 
L 487.772838 355.376351 
L 480.259364 355.376351 
z
" style="fill:#1f77b4;opacity:0.4;"/>
   </g>
   <g id="patch_20">
    <path clip-path="url(#p926b90aad2)" d="M 487.772838 380.84375 
L 495.286312 380.84375 
L 495.286312 380.84375 
L 487.772838 380.84375 
z
" style="fill:#1f77b4;opacity:0.4;"/>
   </g>
   <g id="patch_21">
    <path clip-path="url(#p926b90aad2)" d="M 495.286312 380.84375 
L 502.799786 380.84375 
L 502.799786 380.84375 
L 495.286312 380.84375 
z
" style="fill:#1f77b4;opacity:0.4;"/>
   </g>
   <g id="patch_22">
    <path clip-path="url(#p926b90aad2)" d="M 502.799786 380.84375 
L 510.31326 380.84375 
L 510.31326 355.376351 
L 502.799786 355.376351 
z
" style="fill:#1f77b4;opacity:0.4;"/>
   </g>
   <g id="matplotlib.axis_3">
    <g id="xtick_2">
     <g id="line2d_14">
      <g>
       <use style="stroke:#000000;stroke-width:0.8;" x="342.011444" xlink:href="#mc3a356a46d" y="390.84375"/>
      </g>
     </g>
     <g id="text_10">
      <text style="font-family:DejaVu Sans;font-size:10px;font-stretch:normal;font-style:normal;font-weight:normal;text-anchor:middle;" transform="rotate(-0, 342.011444, 405.442187)" x="342.011444" y="405.442187">−2</text>
     </g>
    </g>
    <g id="xtick_3">
     <g id="line2d_15">
      <g>
       <use style="stroke:#000000;stroke-width:0.8;" x="390.097677" xlink:href="#mc3a356a46d" y="390.84375"/>
      </g>
     </g>
     <g id="text_11">
      <text style="font-family:DejaVu Sans;font-size:10px;font-stretch:normal;font-style:normal;font-weight:normal;text-anchor:middle;" transform="rotate(-0, 390.097677, 405.442187)" x="390.097677" y="405.442187">0</text>
     </g>
    </g>
    <g id="xtick_4">
     <g id="line2d_16">
      <g>
       <use style="stroke:#000000;stroke-width:0.8;" x="438.18391" xlink:href="#mc3a356a46d" y="390.84375"/>
      </g>
     </g>
     <g id="text_12">
      <text style="font-family:DejaVu Sans;font-size:10px;font-stretch:normal;font-style:normal;font-weight:normal;text-anchor:middle;" transform="rotate(-0, 438.18391, 405.442187)" x="438.18391" y="405.442187">2</text>
     </g>
    </g>
    <g id="xtick_5">
     <g id="line2d_17">
      <g>
       <use style="stroke:#000000;stroke-width:0.8;" x="486.270144" xlink:href="#mc3a356a46d" y="390.84375"/>
      </g>
     </g>
     <g id="text_13">
      <text style="font-family:DejaVu Sans;font-size:10px;font-stretch:normal;font-style:normal;font-weight:normal;text-anchor:middle;" transform="rotate(-0, 486.270144, 405.442187)" x="486.270144" y="405.442187">4</text>
     </g>
    </g>
    <g id="xtick_6">
     <g id="line2d_18">
      <g>
       <use style="stroke:#000000;stroke-width:0.8;" x="534.356377" xlink:href="#mc3a356a46d" y="390.84375"/>
      </g>
     </g>
     <g id="text_14">
      <text style="font-family:DejaVu Sans;font-size:10px;font-stretch:normal;font-style:normal;font-weight:normal;text-anchor:middle;" transform="rotate(-0, 534.356377, 405.442187)" x="534.356377" y="405.442187">6</text>
     </g>
    </g>
    <g id="text_15">
     <text style="font-family:DejaVu Sans;font-size:10px;font-stretch:normal;font-style:normal;font-weight:normal;text-anchor:middle;" transform="rotate(-0, 450.205469, 419.120313)" x="450.205469" y="419.120313">Value</text>
    </g>
   </g>
   <g id="matplotlib.axis_4">
    <g id="ytick_7">
     <g id="line2d_19">
      <g>
       <use style="stroke:#000000;stroke-width:0.8;" x="325.210938" xlink:href="#m82278324de" y="380.84375"/>
      </g>
     </g>
     <g id="text_16">
      <text style="font-family:DejaVu Sans;font-size:10px;font-stretch:normal;font-style:normal;font-weight:normal;text-anchor:end;" transform="rotate(-0, 318.210938, 384.642969)" x="318.210938" y="384.642969">0.0</text>
     </g>
    </g>
    <g id="ytick_8">
     <g id="line2d_20">
      <g>
       <use style="stroke:#000000;stroke-width:0.8;" x="325.210938" xlink:href="#m82278324de" y="329.908951"/>
      </g>
     </g>
     <g id="text_17">
      <text style="font-family:DejaVu Sans;font-size:10px;font-stretch:normal;font-style:normal;font-weight:normal;text-anchor:end;" transform="rotate(-0, 318.210938, 333.70817)" x="318.210938" y="333.70817">0.2</text>
     </g>
    </g>
    <g id="ytick_9">
     <g id="line2d_21">
      <g>
       <use style="stroke:#000000;stroke-width:0.8;" x="325.210938" xlink:href="#m82278324de" y="278.974153"/>
      </g>
     </g>
     <g id="text_18">
      <text style="font-family:DejaVu Sans;font-size:10px;font-stretch:normal;font-style:normal;font-weight:normal;text-anchor:end;" transform="rotate(-0, 318.210938, 282.773372)" x="318.210938" y="282.773372">0.4</text>
     </g>
    </g>
    <g id="ytick_10">
     <g id="line2d_22">
      <g>
       <use style="stroke:#000000;stroke-width:0.8;" x="325.210938" xlink:href="#m82278324de" y="228.039354"/>
      </g>
     </g>
     <g id="text_19">
      <text style="font-family:DejaVu Sans;font-size:10px;font-stretch:normal;font-style:normal;font-weight:normal;text-anchor:end;" transform="rotate(-0, 318.210938, 231.838573)" x="318.210938" y="231.838573">0.6</text>
     </g>
    </g>
    <g id="ytick_11">
     <g id="line2d_23">
      <g>
       <use style="stroke:#000000;stroke-width:0.8;" x="325.210938" xlink:href="#m82278324de" y="177.104556"/>
      </g>
     </g>
     <g id="text_20">
      <text style="font-family:DejaVu Sans;font-size:10px;font-stretch:normal;font-style:normal;font-weight:normal;text-anchor:end;" transform="rotate(-0, 318.210938, 180.903775)" x="318.210938" y="180.903775">0.8</text>
     </g>
    </g>
    <g id="ytick_12">
     <g id="line2d_24">
      <g>
       <use style="stroke:#000000;stroke-width:0.8;" x="325.210938" xlink:href="#m82278324de" y="126.169757"/>
      </g>
     </g>
     <g id="text_21">
      <text style="font-family:DejaVu Sans;font-size:10px;font-stretch:normal;font-style:normal;font-weight:normal;text-anchor:end;" transform="rotate(-0, 318.210938, 129.968976)" x="318.210938" y="129.968976">1.0</text>
     </g>
    </g>
    <g id="ytick_13">
     <g id="line2d_25">
      <g>
       <use style="stroke:#000000;stroke-width:0.8;" x="325.210938" xlink:href="#m82278324de" y="75.234959"/>
      </g>
     </g>
     <g id="text_22">
      <text style="font-family:DejaVu Sans;font-size:10px;font-stretch:normal;font-style:normal;font-weight:normal;text-anchor:end;" transform="rotate(-0, 318.210938, 79.034178)" x="318.210938" y="79.034178">1.2</text>
     </g>
    </g>
    <g id="text_23">
     <text style="font-family:DejaVu Sans;font-size:10px;font-stretch:normal;font-style:normal;font-weight:normal;text-anchor:middle;" transform="rotate(-90, 296.228125, 207.02875)" x="296.228125" y="207.02875">Density</text>
    </g>
   </g>
   <g id="line2d_26">
    <path clip-path="url(#p926b90aad2)" d="M 345.664986 380.094977 
L 348.81696 379.455782 
L 350.918276 378.800969 
L 353.019593 377.896591 
L 355.120909 376.675624 
L 357.222225 375.064744 
L 359.323541 372.988433 
L 361.424858 370.374841 
L 363.526174 367.163273 
L 365.62749 363.312777 
L 367.728806 358.811025 
L 369.830123 353.682363 
L 371.931439 347.993731 
L 375.083413 338.667906 
L 381.387362 319.387778 
L 383.488678 313.56426 
L 385.589994 308.395154 
L 387.691311 304.049084 
L 388.741969 302.224032 
L 389.792627 300.644797 
L 390.843285 299.316945 
L 391.893943 298.24214 
L 392.944601 297.418207 
L 393.995259 296.839299 
L 395.045917 296.496158 
L 396.096576 296.376446 
L 397.147234 296.465147 
L 398.197892 296.745016 
L 399.24855 297.19705 
L 400.299208 297.800988 
L 402.400524 299.380106 
L 404.501841 301.312915 
L 412.907105 309.655685 
L 415.008422 311.3742 
L 417.109738 312.837682 
L 419.211054 314.042779 
L 421.31237 315.013944 
L 424.464345 316.150102 
L 429.717635 317.913092 
L 431.818952 318.887806 
L 433.920268 320.183592 
L 436.021584 321.894435 
L 438.1229 324.087626 
L 440.224217 326.795133 
L 442.325533 330.008409 
L 444.426849 333.677543 
L 447.578823 339.836037 
L 455.984088 356.993882 
L 458.085405 360.735121 
L 460.186721 364.055867 
L 462.288037 366.904376 
L 464.389353 369.259398 
L 466.49067 371.127505 
L 468.591986 372.5385 
L 470.693302 373.539708 
L 472.794618 374.189896 
L 474.895935 374.553447 
L 476.997251 374.695232 
L 480.149225 374.624188 
L 485.402516 374.157398 
L 491.706464 373.616445 
L 496.959755 373.421088 
L 501.162388 373.470747 
L 505.36502 373.722794 
L 509.567653 374.199983 
L 513.770285 374.908575 
L 519.023576 376.061228 
L 530.580815 378.764236 
L 534.783447 379.503158 
L 538.98608 380.04333 
L 544.239371 380.467384 
L 550.543319 380.714493 
L 554.745952 380.786375 
L 554.745952 380.786375 
" style="fill:none;stroke:#1f77b4;stroke-linecap:square;stroke-width:1.5;"/>
   </g>
   <g id="patch_23">
    <path d="M 325.210938 380.84375 
L 325.210938 75.234959 
" style="fill:none;stroke:#000000;stroke-linecap:square;stroke-linejoin:miter;stroke-width:0.8;"/>
   </g>
   <g id="patch_24">
    <path d="M 342.011444 390.84375 
L 534.356377 390.84375 
" style="fill:none;stroke:#000000;stroke-linecap:square;stroke-linejoin:miter;stroke-width:0.8;"/>
   </g>
   <g id="legend_1">
    <g id="patch_25">
     <path d="M 500.75 55.891875 
L 558.2 55.891875 
Q 560.2 55.891875 560.2 53.891875 
L 560.2 40.21375 
Q 560.2 38.21375 558.2 38.21375 
L 500.75 38.21375 
Q 498.75 38.21375 498.75 40.21375 
L 498.75 53.891875 
Q 498.75 55.891875 500.75 55.891875 
z
" style="fill:#ffffff;opacity:0.8;stroke:#cccccc;stroke-linejoin:miter;"/>
    </g>
    <g id="patch_26">
     <path d="M 502.75 49.812188 
L 522.75 49.812188 
L 522.75 42.812188 
L 502.75 42.812188 
z
" style="fill:#1f77b4;opacity:0.4;"/>
    </g>
    <g id="text_24">
     <text style="font-family:DejaVu Sans;font-size:10px;font-stretch:normal;font-style:normal;font-weight:normal;text-anchor:start;" transform="rotate(-0, 530.75, 49.812188)" x="530.75" y="49.812188">2018</text>
    </g>
   </g>
  </g>
  <g id="text_25">
   <text style="font-family:DejaVu Sans;font-size:12px;font-stretch:normal;font-style:normal;font-weight:normal;text-anchor:middle;" transform="rotate(-0, 288, 17.758125)" x="288" y="17.758125">Number of time per year providing training for New Zealand (without 95 percentile)</text>
  </g>
 </g>
 <defs>
  <clipPath id="p83839e3b45">
   <rect height="347.63" width="229.989063" x="47.840625" y="33.21375"/>
  </clipPath>
  <clipPath id="p926b90aad2">
   <rect height="347.63" width="229.989062" x="335.210938" y="33.21375"/>
  </clipPath>
 </defs>
</svg>
