<?xml version="1.0" encoding="utf-8" standalone="no"?>
<!DOCTYPE svg PUBLIC "-//W3C//DTD SVG 1.1//EN"
  "http://www.w3.org/Graphics/SVG/1.1/DTD/svg11.dtd">
<svg xmlns:xlink="http://www.w3.org/1999/xlink" width="576pt" height="432pt" viewBox="0 0 576 432" xmlns="http://www.w3.org/2000/svg" version="1.1">
 <metadata>
  <rdf:RDF xmlns:dc="http://purl.org/dc/elements/1.1/" xmlns:cc="http://creativecommons.org/ns#" xmlns:rdf="http://www.w3.org/1999/02/22-rdf-syntax-ns#">
   <cc:Work>
    <dc:type rdf:resource="http://purl.org/dc/dcmitype/StillImage"/>
    <dc:date>2022-03-18T10:08:56.491011</dc:date>
    <dc:format>image/svg+xml</dc:format>
    <dc:creator>
     <cc:Agent>
      <dc:title>Matplotlib v3.5.1, https://matplotlib.org/</dc:title>
     </cc:Agent>
    </dc:creator>
   </cc:Work>
  </rdf:RDF>
 </metadata>
 <defs>
  <style type="text/css">*{stroke-linejoin: round; stroke-linecap: butt}</style>
 </defs>
 <g id="figure_1">
  <g id="patch_1">
   <path d="M 0 432 
L 576 432 
L 576 0 
L 0 0 
z
" style="fill: #ffffff"/>
  </g>
  <g id="axes_1">
   <g id="patch_2">
    <path d="M 46.61875 381.684375 
L 279.819531 381.684375 
L 279.819531 33.00375 
L 46.61875 33.00375 
z
" style="fill: #ffffff"/>
   </g>
   <g id="patch_3">
    <path d="M 58.278789 365.835256 
L 151.559102 365.835256 
L 151.559102 239.042301 
L 58.278789 239.042301 
L 58.278789 365.835256 
z
" clip-path="url(#p20a5d43995)" style="fill: #3274a1; stroke: #3f3f3f; stroke-width: 1.5; stroke-linejoin: miter"/>
   </g>
   <g id="patch_4">
    <path d="M 174.87918 365.835256 
L 268.159492 365.835256 
L 268.159492 239.042301 
L 174.87918 239.042301 
L 174.87918 365.835256 
z
" clip-path="url(#p20a5d43995)" style="fill: #e1812c; stroke: #3f3f3f; stroke-width: 1.5; stroke-linejoin: miter"/>
   </g>
   <g id="matplotlib.axis_1">
    <g id="xtick_1">
     <g id="line2d_1">
      <defs>
       <path id="m4c99cd72f3" d="M 0 0 
L 0 3.5 
" style="stroke: #000000; stroke-width: 0.8"/>
      </defs>
      <g>
       <use xlink:href="#m4c99cd72f3" x="104.918945" y="391.684375" style="stroke: #000000; stroke-width: 0.8"/>
      </g>
     </g>
     <g id="text_1">
      <text style="font: 10px 'sans-serif'; text-anchor: middle" x="104.918945" y="405.857813" transform="rotate(-0, 104.918945, 405.857813)">2018</text>
     </g>
    </g>
    <g id="xtick_2">
     <g id="line2d_2">
      <g>
       <use xlink:href="#m4c99cd72f3" x="221.519336" y="391.684375" style="stroke: #000000; stroke-width: 0.8"/>
      </g>
     </g>
     <g id="text_2">
      <text style="font: 10px 'sans-serif'; text-anchor: middle" x="221.519336" y="405.857813" transform="rotate(-0, 221.519336, 405.857813)">2022</text>
     </g>
    </g>
    <g id="text_3">
     <text style="font: 10px 'sans-serif'; text-anchor: middle" x="163.219141" y="419.115625" transform="rotate(-0, 163.219141, 419.115625)">Year</text>
    </g>
   </g>
   <g id="matplotlib.axis_2">
    <g id="ytick_1">
     <g id="line2d_3">
      <defs>
       <path id="m8e343aef83" d="M 0 0 
L -3.5 0 
" style="stroke: #000000; stroke-width: 0.8"/>
      </defs>
      <g>
       <use xlink:href="#m8e343aef83" x="36.61875" y="365.835256" style="stroke: #000000; stroke-width: 0.8"/>
      </g>
     </g>
     <g id="text_4">
      <text style="font: 10px 'sans-serif'; text-anchor: end" x="29.61875" y="369.421974" transform="rotate(-0, 29.61875, 369.421974)">0</text>
     </g>
    </g>
    <g id="ytick_2">
     <g id="line2d_4">
      <g>
       <use xlink:href="#m8e343aef83" x="36.61875" y="302.438778" style="stroke: #000000; stroke-width: 0.8"/>
      </g>
     </g>
     <g id="text_5">
      <text style="font: 10px 'sans-serif'; text-anchor: end" x="29.61875" y="306.025497" transform="rotate(-0, 29.61875, 306.025497)">1</text>
     </g>
    </g>
    <g id="ytick_3">
     <g id="line2d_5">
      <g>
       <use xlink:href="#m8e343aef83" x="36.61875" y="239.042301" style="stroke: #000000; stroke-width: 0.8"/>
      </g>
     </g>
     <g id="text_6">
      <text style="font: 10px 'sans-serif'; text-anchor: end" x="29.61875" y="242.62902" transform="rotate(-0, 29.61875, 242.62902)">2</text>
     </g>
    </g>
    <g id="ytick_4">
     <g id="line2d_6">
      <g>
       <use xlink:href="#m8e343aef83" x="36.61875" y="175.645824" style="stroke: #000000; stroke-width: 0.8"/>
      </g>
     </g>
     <g id="text_7">
      <text style="font: 10px 'sans-serif'; text-anchor: end" x="29.61875" y="179.232543" transform="rotate(-0, 29.61875, 179.232543)">3</text>
     </g>
    </g>
    <g id="ytick_5">
     <g id="line2d_7">
      <g>
       <use xlink:href="#m8e343aef83" x="36.61875" y="112.249347" style="stroke: #000000; stroke-width: 0.8"/>
      </g>
     </g>
     <g id="text_8">
      <text style="font: 10px 'sans-serif'; text-anchor: end" x="29.61875" y="115.836065" transform="rotate(-0, 29.61875, 115.836065)">4</text>
     </g>
    </g>
    <g id="ytick_6">
     <g id="line2d_8">
      <g>
       <use xlink:href="#m8e343aef83" x="36.61875" y="48.852869" style="stroke: #000000; stroke-width: 0.8"/>
      </g>
     </g>
     <g id="text_9">
      <text style="font: 10px 'sans-serif'; text-anchor: end" x="29.61875" y="52.439588" transform="rotate(-0, 29.61875, 52.439588)">5</text>
     </g>
    </g>
    <g id="text_10">
     <text style="font: 10px 'sans-serif'; text-anchor: middle" x="17.973437" y="207.344063" transform="rotate(-90, 17.973437, 207.344063)">Value</text>
    </g>
   </g>
   <g id="line2d_9">
    <path d="M 104.918945 365.835256 
L 104.918945 365.835256 
" clip-path="url(#p20a5d43995)" style="fill: none; stroke: #3f3f3f; stroke-width: 1.5; stroke-linecap: square"/>
   </g>
   <g id="line2d_10">
    <path d="M 104.918945 239.042301 
L 104.918945 48.852869 
" clip-path="url(#p20a5d43995)" style="fill: none; stroke: #3f3f3f; stroke-width: 1.5; stroke-linecap: square"/>
   </g>
   <g id="line2d_11">
    <path d="M 81.598867 365.835256 
L 128.239023 365.835256 
" clip-path="url(#p20a5d43995)" style="fill: none; stroke: #3f3f3f; stroke-width: 1.5; stroke-linecap: square"/>
   </g>
   <g id="line2d_12">
    <path d="M 81.598867 48.852869 
L 128.239023 48.852869 
" clip-path="url(#p20a5d43995)" style="fill: none; stroke: #3f3f3f; stroke-width: 1.5; stroke-linecap: square"/>
   </g>
   <g id="line2d_13"/>
   <g id="line2d_14">
    <path d="M 221.519336 365.835256 
L 221.519336 365.835256 
" clip-path="url(#p20a5d43995)" style="fill: none; stroke: #3f3f3f; stroke-width: 1.5; stroke-linecap: square"/>
   </g>
   <g id="line2d_15">
    <path d="M 221.519336 239.042301 
L 221.519336 48.852869 
" clip-path="url(#p20a5d43995)" style="fill: none; stroke: #3f3f3f; stroke-width: 1.5; stroke-linecap: square"/>
   </g>
   <g id="line2d_16">
    <path d="M 198.199258 365.835256 
L 244.839414 365.835256 
" clip-path="url(#p20a5d43995)" style="fill: none; stroke: #3f3f3f; stroke-width: 1.5; stroke-linecap: square"/>
   </g>
   <g id="line2d_17">
    <path d="M 198.199258 48.852869 
L 244.839414 48.852869 
" clip-path="url(#p20a5d43995)" style="fill: none; stroke: #3f3f3f; stroke-width: 1.5; stroke-linecap: square"/>
   </g>
   <g id="line2d_18"/>
   <g id="line2d_19">
    <path d="M 58.278789 302.438778 
L 151.559102 302.438778 
" clip-path="url(#p20a5d43995)" style="fill: none; stroke: #3f3f3f; stroke-width: 1.5; stroke-linecap: square"/>
   </g>
   <g id="line2d_20">
    <path d="M 174.87918 302.438778 
L 268.159492 302.438778 
" clip-path="url(#p20a5d43995)" style="fill: none; stroke: #3f3f3f; stroke-width: 1.5; stroke-linecap: square"/>
   </g>
   <g id="patch_5">
    <path d="M 36.61875 365.835256 
L 36.61875 48.852869 
" style="fill: none; stroke: #000000; stroke-width: 0.8; stroke-linejoin: miter; stroke-linecap: square"/>
   </g>
   <g id="patch_6">
    <path d="M 104.918945 391.684375 
L 221.519336 391.684375 
" style="fill: none; stroke: #000000; stroke-width: 0.8; stroke-linejoin: miter; stroke-linecap: square"/>
   </g>
   <g id="PathCollection_1">
    <defs>
     <path id="C0_0_77057b9605" d="M 0 2.5 
C 0.663008 2.5 1.29895 2.236584 1.767767 1.767767 
C 2.236584 1.29895 2.5 0.663008 2.5 -0 
C 2.5 -0.663008 2.236584 -1.29895 1.767767 -1.767767 
C 1.29895 -2.236584 0.663008 -2.5 0 -2.5 
C -0.663008 -2.5 -1.29895 -2.236584 -1.767767 -1.767767 
C -2.236584 -1.29895 -2.5 -0.663008 -2.5 0 
C -2.5 0.663008 -2.236584 1.29895 -1.767767 1.767767 
C -1.29895 2.236584 -0.663008 2.5 0 2.5 
z
"/>
    </defs>
    <g clip-path="url(#p20a5d43995)">
     <use xlink:href="#C0_0_77057b9605" x="104.918945" y="365.835256" style="fill: #808080; fill-opacity: 0.75"/>
    </g>
    <g clip-path="url(#p20a5d43995)">
     <use xlink:href="#C0_0_77057b9605" x="98.885189" y="365.835256" style="fill: #808080; fill-opacity: 0.75"/>
    </g>
    <g clip-path="url(#p20a5d43995)">
     <use xlink:href="#C0_0_77057b9605" x="110.952702" y="365.835256" style="fill: #808080; fill-opacity: 0.75"/>
    </g>
    <g clip-path="url(#p20a5d43995)">
     <use xlink:href="#C0_0_77057b9605" x="92.851432" y="365.835256" style="fill: #808080; fill-opacity: 0.75"/>
    </g>
    <g clip-path="url(#p20a5d43995)">
     <use xlink:href="#C0_0_77057b9605" x="116.986459" y="365.835256" style="fill: #808080; fill-opacity: 0.75"/>
    </g>
    <g clip-path="url(#p20a5d43995)">
     <use xlink:href="#C0_0_77057b9605" x="86.817675" y="365.835256" style="fill: #808080; fill-opacity: 0.75"/>
    </g>
    <g clip-path="url(#p20a5d43995)">
     <use xlink:href="#C0_0_77057b9605" x="123.020216" y="365.835256" style="fill: #808080; fill-opacity: 0.75"/>
    </g>
    <g clip-path="url(#p20a5d43995)">
     <use xlink:href="#C0_0_77057b9605" x="80.783918" y="365.835256" style="fill: #808080; fill-opacity: 0.75"/>
    </g>
    <g clip-path="url(#p20a5d43995)">
     <use xlink:href="#C0_0_77057b9605" x="129.053972" y="365.835256" style="fill: #808080; fill-opacity: 0.75"/>
    </g>
    <g clip-path="url(#p20a5d43995)">
     <use xlink:href="#C0_0_77057b9605" x="74.750161" y="365.835256" style="fill: #808080; fill-opacity: 0.75"/>
    </g>
    <g clip-path="url(#p20a5d43995)">
     <use xlink:href="#C0_0_77057b9605" x="135.087729" y="365.835256" style="fill: #808080; fill-opacity: 0.75"/>
    </g>
    <g clip-path="url(#p20a5d43995)">
     <use xlink:href="#C0_0_77057b9605" x="141.121486" y="365.835256" style="fill: #808080; fill-opacity: 0.75"/>
    </g>
    <g clip-path="url(#p20a5d43995)">
     <use xlink:href="#C0_0_77057b9605" x="68.716405" y="365.835256" style="fill: #808080; fill-opacity: 0.75"/>
    </g>
    <g clip-path="url(#p20a5d43995)">
     <use xlink:href="#C0_0_77057b9605" x="104.918945" y="334.137017" style="fill: #808080; fill-opacity: 0.75"/>
    </g>
    <g clip-path="url(#p20a5d43995)">
     <use xlink:href="#C0_0_77057b9605" x="104.918945" y="302.438778" style="fill: #808080; fill-opacity: 0.75"/>
    </g>
    <g clip-path="url(#p20a5d43995)">
     <use xlink:href="#C0_0_77057b9605" x="98.885189" y="302.438778" style="fill: #808080; fill-opacity: 0.75"/>
    </g>
    <g clip-path="url(#p20a5d43995)">
     <use xlink:href="#C0_0_77057b9605" x="110.952702" y="302.438778" style="fill: #808080; fill-opacity: 0.75"/>
    </g>
    <g clip-path="url(#p20a5d43995)">
     <use xlink:href="#C0_0_77057b9605" x="92.851432" y="302.438778" style="fill: #808080; fill-opacity: 0.75"/>
    </g>
    <g clip-path="url(#p20a5d43995)">
     <use xlink:href="#C0_0_77057b9605" x="116.986459" y="302.438778" style="fill: #808080; fill-opacity: 0.75"/>
    </g>
    <g clip-path="url(#p20a5d43995)">
     <use xlink:href="#C0_0_77057b9605" x="86.817675" y="302.438778" style="fill: #808080; fill-opacity: 0.75"/>
    </g>
    <g clip-path="url(#p20a5d43995)">
     <use xlink:href="#C0_0_77057b9605" x="123.020216" y="302.438778" style="fill: #808080; fill-opacity: 0.75"/>
    </g>
    <g clip-path="url(#p20a5d43995)">
     <use xlink:href="#C0_0_77057b9605" x="104.918945" y="239.042301" style="fill: #808080; fill-opacity: 0.75"/>
    </g>
    <g clip-path="url(#p20a5d43995)">
     <use xlink:href="#C0_0_77057b9605" x="98.885189" y="239.042301" style="fill: #808080; fill-opacity: 0.75"/>
    </g>
    <g clip-path="url(#p20a5d43995)">
     <use xlink:href="#C0_0_77057b9605" x="110.952702" y="239.042301" style="fill: #808080; fill-opacity: 0.75"/>
    </g>
    <g clip-path="url(#p20a5d43995)">
     <use xlink:href="#C0_0_77057b9605" x="92.851432" y="239.042301" style="fill: #808080; fill-opacity: 0.75"/>
    </g>
    <g clip-path="url(#p20a5d43995)">
     <use xlink:href="#C0_0_77057b9605" x="116.986459" y="239.042301" style="fill: #808080; fill-opacity: 0.75"/>
    </g>
    <g clip-path="url(#p20a5d43995)">
     <use xlink:href="#C0_0_77057b9605" x="86.817675" y="239.042301" style="fill: #808080; fill-opacity: 0.75"/>
    </g>
    <g clip-path="url(#p20a5d43995)">
     <use xlink:href="#C0_0_77057b9605" x="123.020216" y="239.042301" style="fill: #808080; fill-opacity: 0.75"/>
    </g>
    <g clip-path="url(#p20a5d43995)">
     <use xlink:href="#C0_0_77057b9605" x="80.783918" y="239.042301" style="fill: #808080; fill-opacity: 0.75"/>
    </g>
    <g clip-path="url(#p20a5d43995)">
     <use xlink:href="#C0_0_77057b9605" x="129.053972" y="239.042301" style="fill: #808080; fill-opacity: 0.75"/>
    </g>
    <g clip-path="url(#p20a5d43995)">
     <use xlink:href="#C0_0_77057b9605" x="104.918945" y="112.249347" style="fill: #808080; fill-opacity: 0.75"/>
    </g>
    <g clip-path="url(#p20a5d43995)">
     <use xlink:href="#C0_0_77057b9605" x="104.918945" y="48.852869" style="fill: #808080; fill-opacity: 0.75"/>
    </g>
   </g>
   <g id="PathCollection_2">
    <defs>
     <path id="C1_0_77057b9605" d="M 0 2.5 
C 0.663008 2.5 1.29895 2.236584 1.767767 1.767767 
C 2.236584 1.29895 2.5 0.663008 2.5 -0 
C 2.5 -0.663008 2.236584 -1.29895 1.767767 -1.767767 
C 1.29895 -2.236584 0.663008 -2.5 0 -2.5 
C -0.663008 -2.5 -1.29895 -2.236584 -1.767767 -1.767767 
C -2.236584 -1.29895 -2.5 -0.663008 -2.5 0 
C -2.5 0.663008 -2.236584 1.29895 -1.767767 1.767767 
C -1.29895 2.236584 -0.663008 2.5 0 2.5 
z
"/>
    </defs>
    <g clip-path="url(#p20a5d43995)">
     <use xlink:href="#C1_0_77057b9605" x="221.519336" y="365.835256" style="fill: #808080; fill-opacity: 0.75"/>
    </g>
    <g clip-path="url(#p20a5d43995)">
     <use xlink:href="#C1_0_77057b9605" x="215.485579" y="365.835256" style="fill: #808080; fill-opacity: 0.75"/>
    </g>
    <g clip-path="url(#p20a5d43995)">
     <use xlink:href="#C1_0_77057b9605" x="227.553093" y="365.835256" style="fill: #808080; fill-opacity: 0.75"/>
    </g>
    <g clip-path="url(#p20a5d43995)">
     <use xlink:href="#C1_0_77057b9605" x="209.451822" y="365.835256" style="fill: #808080; fill-opacity: 0.75"/>
    </g>
    <g clip-path="url(#p20a5d43995)">
     <use xlink:href="#C1_0_77057b9605" x="233.586849" y="365.835256" style="fill: #808080; fill-opacity: 0.75"/>
    </g>
    <g clip-path="url(#p20a5d43995)">
     <use xlink:href="#C1_0_77057b9605" x="203.418066" y="365.835256" style="fill: #808080; fill-opacity: 0.75"/>
    </g>
    <g clip-path="url(#p20a5d43995)">
     <use xlink:href="#C1_0_77057b9605" x="239.620606" y="365.835256" style="fill: #808080; fill-opacity: 0.75"/>
    </g>
    <g clip-path="url(#p20a5d43995)">
     <use xlink:href="#C1_0_77057b9605" x="197.384309" y="365.835256" style="fill: #808080; fill-opacity: 0.75"/>
    </g>
    <g clip-path="url(#p20a5d43995)">
     <use xlink:href="#C1_0_77057b9605" x="221.519336" y="334.137017" style="fill: #808080; fill-opacity: 0.75"/>
    </g>
    <g clip-path="url(#p20a5d43995)">
     <use xlink:href="#C1_0_77057b9605" x="221.519336" y="302.438778" style="fill: #808080; fill-opacity: 0.75"/>
    </g>
    <g clip-path="url(#p20a5d43995)">
     <use xlink:href="#C1_0_77057b9605" x="215.485579" y="302.438778" style="fill: #808080; fill-opacity: 0.75"/>
    </g>
    <g clip-path="url(#p20a5d43995)">
     <use xlink:href="#C1_0_77057b9605" x="227.553093" y="302.438778" style="fill: #808080; fill-opacity: 0.75"/>
    </g>
    <g clip-path="url(#p20a5d43995)">
     <use xlink:href="#C1_0_77057b9605" x="209.451822" y="302.438778" style="fill: #808080; fill-opacity: 0.75"/>
    </g>
    <g clip-path="url(#p20a5d43995)">
     <use xlink:href="#C1_0_77057b9605" x="233.586849" y="302.438778" style="fill: #808080; fill-opacity: 0.75"/>
    </g>
    <g clip-path="url(#p20a5d43995)">
     <use xlink:href="#C1_0_77057b9605" x="203.418066" y="302.438778" style="fill: #808080; fill-opacity: 0.75"/>
    </g>
    <g clip-path="url(#p20a5d43995)">
     <use xlink:href="#C1_0_77057b9605" x="239.620606" y="302.438778" style="fill: #808080; fill-opacity: 0.75"/>
    </g>
    <g clip-path="url(#p20a5d43995)">
     <use xlink:href="#C1_0_77057b9605" x="221.519336" y="239.042301" style="fill: #808080; fill-opacity: 0.75"/>
    </g>
    <g clip-path="url(#p20a5d43995)">
     <use xlink:href="#C1_0_77057b9605" x="215.485579" y="239.042301" style="fill: #808080; fill-opacity: 0.75"/>
    </g>
    <g clip-path="url(#p20a5d43995)">
     <use xlink:href="#C1_0_77057b9605" x="227.553093" y="239.042301" style="fill: #808080; fill-opacity: 0.75"/>
    </g>
    <g clip-path="url(#p20a5d43995)">
     <use xlink:href="#C1_0_77057b9605" x="221.519336" y="175.645824" style="fill: #808080; fill-opacity: 0.75"/>
    </g>
    <g clip-path="url(#p20a5d43995)">
     <use xlink:href="#C1_0_77057b9605" x="215.485579" y="175.645824" style="fill: #808080; fill-opacity: 0.75"/>
    </g>
    <g clip-path="url(#p20a5d43995)">
     <use xlink:href="#C1_0_77057b9605" x="221.519336" y="112.249347" style="fill: #808080; fill-opacity: 0.75"/>
    </g>
    <g clip-path="url(#p20a5d43995)">
     <use xlink:href="#C1_0_77057b9605" x="221.519336" y="48.852869" style="fill: #808080; fill-opacity: 0.75"/>
    </g>
    <g clip-path="url(#p20a5d43995)">
     <use xlink:href="#C1_0_77057b9605" x="215.485579" y="48.852869" style="fill: #808080; fill-opacity: 0.75"/>
    </g>
   </g>
  </g>
  <g id="axes_2">
   <g id="patch_7">
    <path d="M 331.999219 381.684375 
L 565.2 381.684375 
L 565.2 33.00375 
L 331.999219 33.00375 
z
" style="fill: #ffffff"/>
   </g>
   <g id="patch_8">
    <path d="M 357.742162 381.684375 
L 372.88507 381.684375 
L 372.88507 168.206441 
L 357.742162 168.206441 
z
" clip-path="url(#p99053b6cc2)" style="fill: #2d1e3e; fill-opacity: 0.5; stroke: #000000; stroke-linejoin: miter"/>
   </g>
   <g id="patch_9">
    <path d="M 388.027978 381.684375 
L 403.170886 381.684375 
L 403.170886 215.645982 
L 388.027978 215.645982 
z
" clip-path="url(#p99053b6cc2)" style="fill: #2d1e3e; fill-opacity: 0.5; stroke: #000000; stroke-linejoin: miter"/>
   </g>
   <g id="patch_10">
    <path d="M 418.313794 381.684375 
L 433.456702 381.684375 
L 433.456702 310.525064 
L 418.313794 310.525064 
z
" clip-path="url(#p99053b6cc2)" style="fill: #2d1e3e; fill-opacity: 0.5; stroke: #000000; stroke-linejoin: miter"/>
   </g>
   <g id="patch_11">
    <path d="M 448.599609 381.684375 
L 463.742517 381.684375 
L 463.742517 381.684375 
L 448.599609 381.684375 
z
" clip-path="url(#p99053b6cc2)" style="fill: #2d1e3e; fill-opacity: 0.5; stroke: #000000; stroke-linejoin: miter"/>
   </g>
   <g id="patch_12">
    <path d="M 478.885425 381.684375 
L 494.028333 381.684375 
L 494.028333 334.244834 
L 478.885425 334.244834 
z
" clip-path="url(#p99053b6cc2)" style="fill: #2d1e3e; fill-opacity: 0.5; stroke: #000000; stroke-linejoin: miter"/>
   </g>
   <g id="patch_13">
    <path d="M 509.171241 381.684375 
L 524.314149 381.684375 
L 524.314149 357.964605 
L 509.171241 357.964605 
z
" clip-path="url(#p99053b6cc2)" style="fill: #2d1e3e; fill-opacity: 0.5; stroke: #000000; stroke-linejoin: miter"/>
   </g>
   <g id="patch_14">
    <path d="M 539.457057 381.684375 
L 554.599964 381.684375 
L 554.599964 334.244834 
L 539.457057 334.244834 
z
" clip-path="url(#p99053b6cc2)" style="fill: #2d1e3e; fill-opacity: 0.5; stroke: #000000; stroke-linejoin: miter"/>
   </g>
   <g id="patch_15">
    <path d="M 342.599254 381.684375 
L 357.742162 381.684375 
L 357.742162 49.607589 
L 342.599254 49.607589 
z
" clip-path="url(#p99053b6cc2)" style="fill: #edd1cb; fill-opacity: 0.5; stroke: #000000; stroke-linejoin: miter"/>
   </g>
   <g id="patch_16">
    <path d="M 372.88507 381.684375 
L 388.027978 381.684375 
L 388.027978 215.645982 
L 372.88507 215.645982 
z
" clip-path="url(#p99053b6cc2)" style="fill: #edd1cb; fill-opacity: 0.5; stroke: #000000; stroke-linejoin: miter"/>
   </g>
   <g id="patch_17">
    <path d="M 403.170886 381.684375 
L 418.313794 381.684375 
L 418.313794 168.206441 
L 403.170886 168.206441 
z
" clip-path="url(#p99053b6cc2)" style="fill: #edd1cb; fill-opacity: 0.5; stroke: #000000; stroke-linejoin: miter"/>
   </g>
   <g id="patch_18">
    <path d="M 433.456702 381.684375 
L 448.599609 381.684375 
L 448.599609 381.684375 
L 433.456702 381.684375 
z
" clip-path="url(#p99053b6cc2)" style="fill: #edd1cb; fill-opacity: 0.5; stroke: #000000; stroke-linejoin: miter"/>
   </g>
   <g id="patch_19">
    <path d="M 463.742517 381.684375 
L 478.885425 381.684375 
L 478.885425 381.684375 
L 463.742517 381.684375 
z
" clip-path="url(#p99053b6cc2)" style="fill: #edd1cb; fill-opacity: 0.5; stroke: #000000; stroke-linejoin: miter"/>
   </g>
   <g id="patch_20">
    <path d="M 494.028333 381.684375 
L 509.171241 381.684375 
L 509.171241 357.964605 
L 494.028333 357.964605 
z
" clip-path="url(#p99053b6cc2)" style="fill: #edd1cb; fill-opacity: 0.5; stroke: #000000; stroke-linejoin: miter"/>
   </g>
   <g id="patch_21">
    <path d="M 524.314149 381.684375 
L 539.457057 381.684375 
L 539.457057 357.964605 
L 524.314149 357.964605 
z
" clip-path="url(#p99053b6cc2)" style="fill: #edd1cb; fill-opacity: 0.5; stroke: #000000; stroke-linejoin: miter"/>
   </g>
   <g id="matplotlib.axis_3">
    <g id="xtick_3">
     <g id="line2d_21">
      <g>
       <use xlink:href="#m4c99cd72f3" x="342.599254" y="391.684375" style="stroke: #000000; stroke-width: 0.8"/>
      </g>
     </g>
     <g id="text_11">
      <text style="font: 10px 'sans-serif'; text-anchor: middle" x="342.599254" y="405.857813" transform="rotate(-0, 342.599254, 405.857813)">0</text>
     </g>
    </g>
    <g id="xtick_4">
     <g id="line2d_22">
      <g>
       <use xlink:href="#m4c99cd72f3" x="384.999396" y="391.684375" style="stroke: #000000; stroke-width: 0.8"/>
      </g>
     </g>
     <g id="text_12">
      <text style="font: 10px 'sans-serif'; text-anchor: middle" x="384.999396" y="405.857813" transform="rotate(-0, 384.999396, 405.857813)">1</text>
     </g>
    </g>
    <g id="xtick_5">
     <g id="line2d_23">
      <g>
       <use xlink:href="#m4c99cd72f3" x="427.399538" y="391.684375" style="stroke: #000000; stroke-width: 0.8"/>
      </g>
     </g>
     <g id="text_13">
      <text style="font: 10px 'sans-serif'; text-anchor: middle" x="427.399538" y="405.857813" transform="rotate(-0, 427.399538, 405.857813)">2</text>
     </g>
    </g>
    <g id="xtick_6">
     <g id="line2d_24">
      <g>
       <use xlink:href="#m4c99cd72f3" x="469.79968" y="391.684375" style="stroke: #000000; stroke-width: 0.8"/>
      </g>
     </g>
     <g id="text_14">
      <text style="font: 10px 'sans-serif'; text-anchor: middle" x="469.79968" y="405.857813" transform="rotate(-0, 469.79968, 405.857813)">3</text>
     </g>
    </g>
    <g id="xtick_7">
     <g id="line2d_25">
      <g>
       <use xlink:href="#m4c99cd72f3" x="512.199822" y="391.684375" style="stroke: #000000; stroke-width: 0.8"/>
      </g>
     </g>
     <g id="text_15">
      <text style="font: 10px 'sans-serif'; text-anchor: middle" x="512.199822" y="405.857813" transform="rotate(-0, 512.199822, 405.857813)">4</text>
     </g>
    </g>
    <g id="xtick_8">
     <g id="line2d_26">
      <g>
       <use xlink:href="#m4c99cd72f3" x="554.599964" y="391.684375" style="stroke: #000000; stroke-width: 0.8"/>
      </g>
     </g>
     <g id="text_16">
      <text style="font: 10px 'sans-serif'; text-anchor: middle" x="554.599964" y="405.857813" transform="rotate(-0, 554.599964, 405.857813)">5</text>
     </g>
    </g>
    <g id="text_17">
     <text style="font: 10px 'sans-serif'; text-anchor: middle" x="448.599609" y="419.115625" transform="rotate(-0, 448.599609, 419.115625)">Value</text>
    </g>
   </g>
   <g id="matplotlib.axis_4">
    <g id="ytick_7">
     <g id="line2d_27">
      <g>
       <use xlink:href="#m8e343aef83" x="321.999219" y="381.684375" style="stroke: #000000; stroke-width: 0.8"/>
      </g>
     </g>
     <g id="text_18">
      <text style="font: 10px 'sans-serif'; text-anchor: end" x="314.999219" y="385.271094" transform="rotate(-0, 314.999219, 385.271094)">0</text>
     </g>
    </g>
    <g id="ytick_8">
     <g id="line2d_28">
      <g>
       <use xlink:href="#m8e343aef83" x="321.999219" y="334.244834" style="stroke: #000000; stroke-width: 0.8"/>
      </g>
     </g>
     <g id="text_19">
      <text style="font: 10px 'sans-serif'; text-anchor: end" x="314.999219" y="337.831553" transform="rotate(-0, 314.999219, 337.831553)">2</text>
     </g>
    </g>
    <g id="ytick_9">
     <g id="line2d_29">
      <g>
       <use xlink:href="#m8e343aef83" x="321.999219" y="286.805293" style="stroke: #000000; stroke-width: 0.8"/>
      </g>
     </g>
     <g id="text_20">
      <text style="font: 10px 'sans-serif'; text-anchor: end" x="314.999219" y="290.392012" transform="rotate(-0, 314.999219, 290.392012)">4</text>
     </g>
    </g>
    <g id="ytick_10">
     <g id="line2d_30">
      <g>
       <use xlink:href="#m8e343aef83" x="321.999219" y="239.365753" style="stroke: #000000; stroke-width: 0.8"/>
      </g>
     </g>
     <g id="text_21">
      <text style="font: 10px 'sans-serif'; text-anchor: end" x="314.999219" y="242.952471" transform="rotate(-0, 314.999219, 242.952471)">6</text>
     </g>
    </g>
    <g id="ytick_11">
     <g id="line2d_31">
      <g>
       <use xlink:href="#m8e343aef83" x="321.999219" y="191.926212" style="stroke: #000000; stroke-width: 0.8"/>
      </g>
     </g>
     <g id="text_22">
      <text style="font: 10px 'sans-serif'; text-anchor: end" x="314.999219" y="195.51293" transform="rotate(-0, 314.999219, 195.51293)">8</text>
     </g>
    </g>
    <g id="ytick_12">
     <g id="line2d_32">
      <g>
       <use xlink:href="#m8e343aef83" x="321.999219" y="144.486671" style="stroke: #000000; stroke-width: 0.8"/>
      </g>
     </g>
     <g id="text_23">
      <text style="font: 10px 'sans-serif'; text-anchor: end" x="314.999219" y="148.07339" transform="rotate(-0, 314.999219, 148.07339)">10</text>
     </g>
    </g>
    <g id="ytick_13">
     <g id="line2d_33">
      <g>
       <use xlink:href="#m8e343aef83" x="321.999219" y="97.04713" style="stroke: #000000; stroke-width: 0.8"/>
      </g>
     </g>
     <g id="text_24">
      <text style="font: 10px 'sans-serif'; text-anchor: end" x="314.999219" y="100.633849" transform="rotate(-0, 314.999219, 100.633849)">12</text>
     </g>
    </g>
    <g id="ytick_14">
     <g id="line2d_34">
      <g>
       <use xlink:href="#m8e343aef83" x="321.999219" y="49.607589" style="stroke: #000000; stroke-width: 0.8"/>
      </g>
     </g>
     <g id="text_25">
      <text style="font: 10px 'sans-serif'; text-anchor: end" x="314.999219" y="53.194308" transform="rotate(-0, 314.999219, 53.194308)">14</text>
     </g>
    </g>
    <g id="text_26">
     <text style="font: 10px 'sans-serif'; text-anchor: middle" x="297.792969" y="207.344063" transform="rotate(-90, 297.792969, 207.344063)">Count</text>
    </g>
   </g>
   <g id="line2d_35">
    <path d="M 342.599254 280.792909 
L 345.795245 277.31541 
L 348.991235 274.28746 
L 351.121896 272.532536 
L 353.252556 270.996031 
L 355.383217 269.682519 
L 357.513877 268.594976 
L 359.644537 267.734798 
L 361.775198 267.101854 
L 363.905858 266.694536 
L 366.036519 266.509833 
L 368.167179 266.54341 
L 370.29784 266.789694 
L 372.4285 267.24197 
L 374.55916 267.892479 
L 376.689821 268.73252 
L 378.820481 269.752552 
L 382.016472 271.597438 
L 385.212462 273.786838 
L 388.408453 276.28116 
L 391.604444 279.03922 
L 395.865764 283.054245 
L 401.192415 288.475935 
L 408.649727 296.485264 
L 419.303029 307.960055 
L 425.69501 314.483402 
L 431.021661 319.575374 
L 435.282982 323.385834 
L 439.544303 326.947204 
L 443.805623 330.255275 
L 448.066944 333.313243 
L 452.328265 336.129787 
L 456.589586 338.717129 
L 460.850907 341.089213 
L 466.177558 343.772979 
L 471.504209 346.167179 
L 476.83086 348.291664 
L 482.157511 350.160565 
L 487.484162 351.78319 
L 492.810813 353.166295 
L 498.137464 354.317307 
L 503.464115 355.247939 
L 508.790766 355.977547 
L 515.182747 356.630018 
L 523.705389 357.244348 
L 538.620011 358.272503 
L 545.011993 358.964584 
L 550.338644 359.746654 
L 554.599964 360.526841 
L 554.599964 360.526841 
" clip-path="url(#p99053b6cc2)" style="fill: none; stroke: #2d1e3e; stroke-width: 1.5; stroke-linecap: square"/>
   </g>
   <g id="line2d_36">
    <path d="M 342.599254 210.075555 
L 344.729915 207.051221 
L 345.795245 205.806068 
L 346.860575 204.737576 
L 347.925905 203.843656 
L 348.991235 203.121398 
L 350.056566 202.567105 
L 351.121896 202.176343 
L 352.187226 201.943986 
L 353.252556 201.864274 
L 354.317886 201.930869 
L 355.383217 202.136918 
L 356.448547 202.475117 
L 358.579207 203.516876 
L 360.709868 204.99116 
L 362.840528 206.829938 
L 364.971189 208.96413 
L 368.167179 212.570557 
L 372.4285 217.799614 
L 378.820481 225.652566 
L 382.016472 229.271152 
L 385.212462 232.55293 
L 388.408453 235.442659 
L 391.604444 237.919285 
L 394.800434 239.9951 
L 397.996425 241.714666 
L 401.192415 243.153245 
L 406.519066 245.218405 
L 410.780387 246.931713 
L 413.976378 248.489587 
L 416.107038 249.745154 
L 418.237699 251.225969 
L 420.368359 252.972336 
L 422.499019 255.019382 
L 424.62968 257.395662 
L 426.76034 260.121948 
L 428.891001 263.210265 
L 431.021661 266.66321 
L 433.152321 270.473618 
L 435.282982 274.624583 
L 438.478972 281.429718 
L 441.674963 288.815973 
L 445.936284 299.289679 
L 455.524256 323.287538 
L 458.720246 330.753266 
L 461.916237 337.685313 
L 465.112228 343.967719 
L 467.242888 347.753955 
L 469.373548 351.200328 
L 471.504209 354.299155 
L 473.634869 357.049399 
L 475.76553 359.456123 
L 477.89619 361.529814 
L 480.02685 363.285633 
L 482.157511 364.742602 
L 484.288171 365.922782 
L 486.418832 366.850461 
L 488.549492 367.551368 
L 490.680152 368.05195 
L 492.810813 368.378707 
L 496.006803 368.599457 
L 499.202794 368.570144 
L 503.464115 368.269856 
L 510.921426 367.419524 
L 519.444068 366.492235 
L 525.836049 366.045086 
L 531.1627 365.881148 
L 536.489351 365.919971 
L 541.816002 366.17468 
L 547.142653 366.663605 
L 552.469304 367.404393 
L 554.599964 367.773155 
L 554.599964 367.773155 
" clip-path="url(#p99053b6cc2)" style="fill: none; stroke: #edd1cb; stroke-width: 1.5; stroke-linecap: square"/>
   </g>
   <g id="patch_22">
    <path d="M 321.999219 381.684375 
L 321.999219 49.607589 
" style="fill: none; stroke: #000000; stroke-width: 0.8; stroke-linejoin: miter; stroke-linecap: square"/>
   </g>
   <g id="patch_23">
    <path d="M 342.599254 391.684375 
L 554.599964 391.684375 
" style="fill: none; stroke: #000000; stroke-width: 0.8; stroke-linejoin: miter; stroke-linecap: square"/>
   </g>
   <g id="legend_1">
    <g id="patch_24">
     <path d="M 503.95625 83.777188 
L 558.2 83.777188 
Q 560.2 83.777188 560.2 81.777188 
L 560.2 40.00375 
Q 560.2 38.00375 558.2 38.00375 
L 503.95625 38.00375 
Q 501.95625 38.00375 501.95625 40.00375 
L 501.95625 81.777188 
Q 501.95625 83.777188 503.95625 83.777188 
z
" style="fill: #ffffff; opacity: 0.8; stroke: #cccccc; stroke-linejoin: miter"/>
    </g>
    <g id="text_27">
     <text style="font: 10px 'sans-serif'; text-anchor: start" x="520.517187" y="49.177188" transform="rotate(-0, 520.517187, 49.177188)">Year</text>
    </g>
    <g id="patch_25">
     <path d="M 505.95625 63.435 
L 525.95625 63.435 
L 525.95625 56.435 
L 505.95625 56.435 
z
" style="fill: #edd1cb; fill-opacity: 0.5; stroke: #000000; stroke-linejoin: miter"/>
    </g>
    <g id="text_28">
     <text style="font: 10px 'sans-serif'; text-anchor: start" x="533.95625" y="63.435" transform="rotate(-0, 533.95625, 63.435)">2018</text>
    </g>
    <g id="patch_26">
     <path d="M 505.95625 77.692813 
L 525.95625 77.692813 
L 525.95625 70.692813 
L 505.95625 70.692813 
z
" style="fill: #2d1e3e; fill-opacity: 0.5; stroke: #000000; stroke-linejoin: miter"/>
    </g>
    <g id="text_29">
     <text style="font: 10px 'sans-serif'; text-anchor: start" x="533.95625" y="77.692813" transform="rotate(-0, 533.95625, 77.692813)">2022</text>
    </g>
   </g>
  </g>
  <g id="text_30">
   <text style="font: 12px 'sans-serif'; text-anchor: middle" x="288" y="17.38875" transform="rotate(-0, 288, 17.38875)">Number of time per year providing training for New Zealand (without 95 percentile)</text>
  </g>
 </g>
 <defs>
  <clipPath id="p20a5d43995">
   <rect x="46.61875" y="33.00375" width="233.200781" height="348.680625"/>
  </clipPath>
  <clipPath id="p99053b6cc2">
   <rect x="331.999219" y="33.00375" width="233.200781" height="348.680625"/>
  </clipPath>
 </defs>
</svg>
