<?xml version="1.0" encoding="utf-8" standalone="no"?>
<!DOCTYPE svg PUBLIC "-//W3C//DTD SVG 1.1//EN"
  "http://www.w3.org/Graphics/SVG/1.1/DTD/svg11.dtd">
<svg height="432pt" version="1.1" viewBox="0 0 576 432" width="576pt" xmlns="http://www.w3.org/2000/svg" xmlns:xlink="http://www.w3.org/1999/xlink">
 <metadata>
  <rdf:RDF xmlns:cc="http://creativecommons.org/ns#" xmlns:dc="http://purl.org/dc/elements/1.1/" xmlns:rdf="http://www.w3.org/1999/02/22-rdf-syntax-ns#">
   <cc:Work>
    <dc:type rdf:resource="http://purl.org/dc/dcmitype/StillImage"/>
    <dc:date>2021-03-29T15:49:24.561627</dc:date>
    <dc:format>image/svg+xml</dc:format>
    <dc:creator>
     <cc:Agent>
      <dc:title>Matplotlib v3.4.0, https://matplotlib.org/</dc:title>
     </cc:Agent>
    </dc:creator>
   </cc:Work>
  </rdf:RDF>
 </metadata>
 <defs>
  <style type="text/css">*{stroke-linecap:butt;stroke-linejoin:round;}</style>
 </defs>
 <g id="figure_1">
  <g id="patch_1">
   <path d="M 0 432 
L 576 432 
L 576 0 
L 0 0 
z
" style="fill:#ffffff;"/>
  </g>
  <g id="axes_1">
   <g id="patch_2">
    <path d="M 47.840625 380.84375 
L 276.407374 380.84375 
L 276.407374 33.21375 
L 47.840625 33.21375 
z
" style="fill:#ffffff;"/>
   </g>
   <g id="patch_3">
    <path clip-path="url(#paaddcab5e4)" d="M 59.268962 270.234205 
L 150.695662 270.234205 
L 150.695662 238.631477 
L 59.268962 238.631477 
L 59.268962 270.234205 
z
" style="fill:#3274a1;stroke:#3f3f3f;stroke-linejoin:miter;stroke-width:1.5;"/>
   </g>
   <g id="patch_4">
    <path clip-path="url(#paaddcab5e4)" d="M 173.552337 301.836932 
L 264.979037 301.836932 
L 264.979037 175.426023 
L 173.552337 175.426023 
L 173.552337 301.836932 
z
" style="fill:#e1812c;stroke:#3f3f3f;stroke-linejoin:miter;stroke-width:1.5;"/>
   </g>
   <g id="matplotlib.axis_1">
    <g id="xtick_1">
     <g id="line2d_1">
      <defs>
       <path d="M 0 0 
L 0 3.5 
" id="mc3a356a46d" style="stroke:#000000;stroke-width:0.8;"/>
      </defs>
      <g>
       <use style="stroke:#000000;stroke-width:0.8;" x="104.982312" xlink:href="#mc3a356a46d" y="390.84375"/>
      </g>
     </g>
     <g id="text_1">
      <text style="font-family:DejaVu Sans;font-size:10px;font-stretch:normal;font-style:normal;font-weight:normal;text-anchor:middle;" transform="rotate(-0, 104.982312, 405.442187)" x="104.982312" y="405.442187">2017</text>
     </g>
    </g>
    <g id="xtick_2">
     <g id="line2d_2">
      <g>
       <use style="stroke:#000000;stroke-width:0.8;" x="219.265687" xlink:href="#mc3a356a46d" y="390.84375"/>
      </g>
     </g>
     <g id="text_2">
      <text style="font-family:DejaVu Sans;font-size:10px;font-stretch:normal;font-style:normal;font-weight:normal;text-anchor:middle;" transform="rotate(-0, 219.265687, 405.442187)" x="219.265687" y="405.442187">2018</text>
     </g>
    </g>
    <g id="text_3">
     <text style="font-family:DejaVu Sans;font-size:10px;font-stretch:normal;font-style:normal;font-weight:normal;text-anchor:middle;" transform="rotate(-0, 162.124, 419.120313)" x="162.124" y="419.120313">Year</text>
    </g>
   </g>
   <g id="matplotlib.axis_2">
    <g id="ytick_1">
     <g id="line2d_3">
      <defs>
       <path d="M 0 0 
L -3.5 0 
" id="m82278324de" style="stroke:#000000;stroke-width:0.8;"/>
      </defs>
      <g>
       <use style="stroke:#000000;stroke-width:0.8;" x="37.840625" xlink:href="#m82278324de" y="365.042386"/>
      </g>
     </g>
     <g id="text_4">
      <text style="font-family:DejaVu Sans;font-size:10px;font-stretch:normal;font-style:normal;font-weight:normal;text-anchor:end;" transform="rotate(-0, 30.840625, 368.841605)" x="30.840625" y="368.841605">0</text>
     </g>
    </g>
    <g id="ytick_2">
     <g id="line2d_4">
      <g>
       <use style="stroke:#000000;stroke-width:0.8;" x="37.840625" xlink:href="#m82278324de" y="301.836932"/>
      </g>
     </g>
     <g id="text_5">
      <text style="font-family:DejaVu Sans;font-size:10px;font-stretch:normal;font-style:normal;font-weight:normal;text-anchor:end;" transform="rotate(-0, 30.840625, 305.636151)" x="30.840625" y="305.636151">1</text>
     </g>
    </g>
    <g id="ytick_3">
     <g id="line2d_5">
      <g>
       <use style="stroke:#000000;stroke-width:0.8;" x="37.840625" xlink:href="#m82278324de" y="238.631477"/>
      </g>
     </g>
     <g id="text_6">
      <text style="font-family:DejaVu Sans;font-size:10px;font-stretch:normal;font-style:normal;font-weight:normal;text-anchor:end;" transform="rotate(-0, 30.840625, 242.430696)" x="30.840625" y="242.430696">2</text>
     </g>
    </g>
    <g id="ytick_4">
     <g id="line2d_6">
      <g>
       <use style="stroke:#000000;stroke-width:0.8;" x="37.840625" xlink:href="#m82278324de" y="175.426023"/>
      </g>
     </g>
     <g id="text_7">
      <text style="font-family:DejaVu Sans;font-size:10px;font-stretch:normal;font-style:normal;font-weight:normal;text-anchor:end;" transform="rotate(-0, 30.840625, 179.225241)" x="30.840625" y="179.225241">3</text>
     </g>
    </g>
    <g id="ytick_5">
     <g id="line2d_7">
      <g>
       <use style="stroke:#000000;stroke-width:0.8;" x="37.840625" xlink:href="#m82278324de" y="112.220568"/>
      </g>
     </g>
     <g id="text_8">
      <text style="font-family:DejaVu Sans;font-size:10px;font-stretch:normal;font-style:normal;font-weight:normal;text-anchor:end;" transform="rotate(-0, 30.840625, 116.019787)" x="30.840625" y="116.019787">4</text>
     </g>
    </g>
    <g id="ytick_6">
     <g id="line2d_8">
      <g>
       <use style="stroke:#000000;stroke-width:0.8;" x="37.840625" xlink:href="#m82278324de" y="49.015114"/>
      </g>
     </g>
     <g id="text_9">
      <text style="font-family:DejaVu Sans;font-size:10px;font-stretch:normal;font-style:normal;font-weight:normal;text-anchor:end;" transform="rotate(-0, 30.840625, 52.814332)" x="30.840625" y="52.814332">5</text>
     </g>
    </g>
    <g id="text_10">
     <text style="font-family:DejaVu Sans;font-size:10px;font-stretch:normal;font-style:normal;font-weight:normal;text-anchor:middle;" transform="rotate(-90, 18.398437, 207.02875)" x="18.398437" y="207.02875">Value</text>
    </g>
   </g>
   <g id="line2d_9">
    <path clip-path="url(#paaddcab5e4)" d="M 104.982312 270.234205 
L 104.982312 301.836932 
" style="fill:none;stroke:#3f3f3f;stroke-linecap:square;stroke-width:1.5;"/>
   </g>
   <g id="line2d_10">
    <path clip-path="url(#paaddcab5e4)" d="M 104.982312 238.631477 
L 104.982312 238.631477 
" style="fill:none;stroke:#3f3f3f;stroke-linecap:square;stroke-width:1.5;"/>
   </g>
   <g id="line2d_11">
    <path clip-path="url(#paaddcab5e4)" d="M 82.125637 301.836932 
L 127.838987 301.836932 
" style="fill:none;stroke:#3f3f3f;stroke-linecap:square;stroke-width:1.5;"/>
   </g>
   <g id="line2d_12">
    <path clip-path="url(#paaddcab5e4)" d="M 82.125637 238.631477 
L 127.838987 238.631477 
" style="fill:none;stroke:#3f3f3f;stroke-linecap:square;stroke-width:1.5;"/>
   </g>
   <g id="line2d_13">
    <defs>
     <path d="M -0 3.535534 
L 2.12132 0 
L -0 -3.535534 
L -2.12132 -0 
z
" id="m226ab95657" style="stroke:#3f3f3f;stroke-linejoin:miter;"/>
    </defs>
    <g clip-path="url(#paaddcab5e4)">
     <use style="fill:#3f3f3f;stroke:#3f3f3f;stroke-linejoin:miter;" x="104.982312" xlink:href="#m226ab95657" y="344.184586"/>
     <use style="fill:#3f3f3f;stroke:#3f3f3f;stroke-linejoin:miter;" x="104.982312" xlink:href="#m226ab95657" y="175.426023"/>
    </g>
   </g>
   <g id="line2d_14">
    <path clip-path="url(#paaddcab5e4)" d="M 219.265687 301.836932 
L 219.265687 365.042386 
" style="fill:none;stroke:#3f3f3f;stroke-linecap:square;stroke-width:1.5;"/>
   </g>
   <g id="line2d_15">
    <path clip-path="url(#paaddcab5e4)" d="M 219.265687 175.426023 
L 219.265687 49.015114 
" style="fill:none;stroke:#3f3f3f;stroke-linecap:square;stroke-width:1.5;"/>
   </g>
   <g id="line2d_16">
    <path clip-path="url(#paaddcab5e4)" d="M 196.409012 365.042386 
L 242.122362 365.042386 
" style="fill:none;stroke:#3f3f3f;stroke-linecap:square;stroke-width:1.5;"/>
   </g>
   <g id="line2d_17">
    <path clip-path="url(#paaddcab5e4)" d="M 196.409012 49.015114 
L 242.122362 49.015114 
" style="fill:none;stroke:#3f3f3f;stroke-linecap:square;stroke-width:1.5;"/>
   </g>
   <g id="line2d_18"/>
   <g id="line2d_19">
    <path clip-path="url(#paaddcab5e4)" d="M 59.268962 238.631477 
L 150.695662 238.631477 
" style="fill:none;stroke:#3f3f3f;stroke-linecap:square;stroke-width:1.5;"/>
   </g>
   <g id="line2d_20">
    <path clip-path="url(#paaddcab5e4)" d="M 173.552337 238.631477 
L 264.979037 238.631477 
" style="fill:none;stroke:#3f3f3f;stroke-linecap:square;stroke-width:1.5;"/>
   </g>
   <g id="patch_5">
    <path d="M 37.840625 365.042386 
L 37.840625 49.015114 
" style="fill:none;stroke:#000000;stroke-linecap:square;stroke-linejoin:miter;stroke-width:0.8;"/>
   </g>
   <g id="patch_6">
    <path d="M 104.982312 390.84375 
L 219.265687 390.84375 
" style="fill:none;stroke:#000000;stroke-linecap:square;stroke-linejoin:miter;stroke-width:0.8;"/>
   </g>
   <g id="PathCollection_1">
    <defs>
     <path d="M 0 2.5 
C 0.663008 2.5 1.29895 2.236584 1.767767 1.767767 
C 2.236584 1.29895 2.5 0.663008 2.5 -0 
C 2.5 -0.663008 2.236584 -1.29895 1.767767 -1.767767 
C 1.29895 -2.236584 0.663008 -2.5 0 -2.5 
C -0.663008 -2.5 -1.29895 -2.236584 -1.767767 -1.767767 
C -2.236584 -1.29895 -2.5 -0.663008 -2.5 0 
C -2.5 0.663008 -2.236584 1.29895 -1.767767 1.767767 
C -1.29895 2.236584 -0.663008 2.5 0 2.5 
z
" id="C0_0_77057b9605"/>
    </defs>
    <g clip-path="url(#paaddcab5e4)">
     <use style="fill:#808080;fill-opacity:0.75;" x="104.982312" xlink:href="#C0_0_77057b9605" y="344.184586"/>
    </g>
    <g clip-path="url(#paaddcab5e4)">
     <use style="fill:#808080;fill-opacity:0.75;" x="104.982312" xlink:href="#C0_0_77057b9605" y="301.836932"/>
    </g>
    <g clip-path="url(#paaddcab5e4)">
     <use style="fill:#808080;fill-opacity:0.75;" x="104.982312" xlink:href="#C0_0_77057b9605" y="238.631477"/>
    </g>
    <g clip-path="url(#paaddcab5e4)">
     <use style="fill:#808080;fill-opacity:0.75;" x="99.068455" xlink:href="#C0_0_77057b9605" y="238.631477"/>
    </g>
    <g clip-path="url(#paaddcab5e4)">
     <use style="fill:#808080;fill-opacity:0.75;" x="110.89617" xlink:href="#C0_0_77057b9605" y="238.631477"/>
    </g>
    <g clip-path="url(#paaddcab5e4)">
     <use style="fill:#808080;fill-opacity:0.75;" x="93.154597" xlink:href="#C0_0_77057b9605" y="238.631477"/>
    </g>
    <g clip-path="url(#paaddcab5e4)">
     <use style="fill:#808080;fill-opacity:0.75;" x="104.982312" xlink:href="#C0_0_77057b9605" y="175.426023"/>
    </g>
   </g>
   <g id="PathCollection_2">
    <defs>
     <path d="M 0 2.5 
C 0.663008 2.5 1.29895 2.236584 1.767767 1.767767 
C 2.236584 1.29895 2.5 0.663008 2.5 -0 
C 2.5 -0.663008 2.236584 -1.29895 1.767767 -1.767767 
C 1.29895 -2.236584 0.663008 -2.5 0 -2.5 
C -0.663008 -2.5 -1.29895 -2.236584 -1.767767 -1.767767 
C -2.236584 -1.29895 -2.5 -0.663008 -2.5 0 
C -2.5 0.663008 -2.236584 1.29895 -1.767767 1.767767 
C -1.29895 2.236584 -0.663008 2.5 0 2.5 
z
" id="C1_0_77057b9605"/>
    </defs>
    <g clip-path="url(#paaddcab5e4)">
     <use style="fill:#808080;fill-opacity:0.75;" x="219.265687" xlink:href="#C1_0_77057b9605" y="365.042386"/>
    </g>
    <g clip-path="url(#paaddcab5e4)">
     <use style="fill:#808080;fill-opacity:0.75;" x="213.351829" xlink:href="#C1_0_77057b9605" y="365.042386"/>
    </g>
    <g clip-path="url(#paaddcab5e4)">
     <use style="fill:#808080;fill-opacity:0.75;" x="225.179544" xlink:href="#C1_0_77057b9605" y="365.042386"/>
    </g>
    <g clip-path="url(#paaddcab5e4)">
     <use style="fill:#808080;fill-opacity:0.75;" x="219.265687" xlink:href="#C1_0_77057b9605" y="333.439659"/>
    </g>
    <g clip-path="url(#paaddcab5e4)">
     <use style="fill:#808080;fill-opacity:0.75;" x="219.265687" xlink:href="#C1_0_77057b9605" y="301.836932"/>
    </g>
    <g clip-path="url(#paaddcab5e4)">
     <use style="fill:#808080;fill-opacity:0.75;" x="213.351829" xlink:href="#C1_0_77057b9605" y="301.836932"/>
    </g>
    <g clip-path="url(#paaddcab5e4)">
     <use style="fill:#808080;fill-opacity:0.75;" x="219.265687" xlink:href="#C1_0_77057b9605" y="238.631477"/>
    </g>
    <g clip-path="url(#paaddcab5e4)">
     <use style="fill:#808080;fill-opacity:0.75;" x="213.351829" xlink:href="#C1_0_77057b9605" y="238.631477"/>
    </g>
    <g clip-path="url(#paaddcab5e4)">
     <use style="fill:#808080;fill-opacity:0.75;" x="225.179544" xlink:href="#C1_0_77057b9605" y="238.631477"/>
    </g>
    <g clip-path="url(#paaddcab5e4)">
     <use style="fill:#808080;fill-opacity:0.75;" x="207.437972" xlink:href="#C1_0_77057b9605" y="238.631477"/>
    </g>
    <g clip-path="url(#paaddcab5e4)">
     <use style="fill:#808080;fill-opacity:0.75;" x="231.093402" xlink:href="#C1_0_77057b9605" y="238.631477"/>
    </g>
    <g clip-path="url(#paaddcab5e4)">
     <use style="fill:#808080;fill-opacity:0.75;" x="201.524115" xlink:href="#C1_0_77057b9605" y="238.631477"/>
    </g>
    <g clip-path="url(#paaddcab5e4)">
     <use style="fill:#808080;fill-opacity:0.75;" x="237.007259" xlink:href="#C1_0_77057b9605" y="238.631477"/>
    </g>
    <g clip-path="url(#paaddcab5e4)">
     <use style="fill:#808080;fill-opacity:0.75;" x="219.265687" xlink:href="#C1_0_77057b9605" y="175.426023"/>
    </g>
    <g clip-path="url(#paaddcab5e4)">
     <use style="fill:#808080;fill-opacity:0.75;" x="213.351829" xlink:href="#C1_0_77057b9605" y="175.426023"/>
    </g>
    <g clip-path="url(#paaddcab5e4)">
     <use style="fill:#808080;fill-opacity:0.75;" x="225.179544" xlink:href="#C1_0_77057b9605" y="175.426023"/>
    </g>
    <g clip-path="url(#paaddcab5e4)">
     <use style="fill:#808080;fill-opacity:0.75;" x="219.265687" xlink:href="#C1_0_77057b9605" y="112.220568"/>
    </g>
    <g clip-path="url(#paaddcab5e4)">
     <use style="fill:#808080;fill-opacity:0.75;" x="219.265687" xlink:href="#C1_0_77057b9605" y="49.015114"/>
    </g>
    <g clip-path="url(#paaddcab5e4)">
     <use style="fill:#808080;fill-opacity:0.75;" x="213.351829" xlink:href="#C1_0_77057b9605" y="49.015114"/>
    </g>
   </g>
  </g>
  <g id="axes_2">
   <g id="patch_7">
    <path d="M 333.788624 380.84375 
L 562.355373 380.84375 
L 562.355373 33.21375 
L 333.788624 33.21375 
z
" style="fill:#ffffff;"/>
   </g>
   <g id="patch_8">
    <path clip-path="url(#p6829ab2800)" d="M 403.13162 380.84375 
L 421.563388 380.84375 
L 421.563388 220.573485 
L 403.13162 220.573485 
z
" style="fill:#1f77b4;opacity:0.4;"/>
   </g>
   <g id="patch_9">
    <path clip-path="url(#p6829ab2800)" d="M 421.563388 380.84375 
L 439.995156 380.84375 
L 439.995156 60.303221 
L 421.563388 60.303221 
z
" style="fill:#1f77b4;opacity:0.4;"/>
   </g>
   <g id="patch_10">
    <path clip-path="url(#p6829ab2800)" d="M 439.995156 380.84375 
L 458.426925 380.84375 
L 458.426925 300.708618 
L 439.995156 300.708618 
z
" style="fill:#1f77b4;opacity:0.4;"/>
   </g>
   <g id="patch_11">
    <path clip-path="url(#p6829ab2800)" d="M 396.297369 380.84375 
L 407.802842 380.84375 
L 407.802842 191.657355 
L 396.297369 191.657355 
z
" style="fill:#ff7f0e;opacity:0.4;"/>
   </g>
   <g id="patch_12">
    <path clip-path="url(#p6829ab2800)" d="M 407.802842 380.84375 
L 419.308315 380.84375 
L 419.308315 286.250553 
L 407.802842 286.250553 
z
" style="fill:#ff7f0e;opacity:0.4;"/>
   </g>
   <g id="patch_13">
    <path clip-path="url(#p6829ab2800)" d="M 419.308315 380.84375 
L 430.813789 380.84375 
L 430.813789 380.84375 
L 419.308315 380.84375 
z
" style="fill:#ff7f0e;opacity:0.4;"/>
   </g>
   <g id="patch_14">
    <path clip-path="url(#p6829ab2800)" d="M 430.813789 380.84375 
L 442.319262 380.84375 
L 442.319262 49.76756 
L 430.813789 49.76756 
z
" style="fill:#ff7f0e;opacity:0.4;"/>
   </g>
   <g id="patch_15">
    <path clip-path="url(#p6829ab2800)" d="M 442.319262 380.84375 
L 453.824735 380.84375 
L 453.824735 380.84375 
L 442.319262 380.84375 
z
" style="fill:#ff7f0e;opacity:0.4;"/>
   </g>
   <g id="patch_16">
    <path clip-path="url(#p6829ab2800)" d="M 453.824735 380.84375 
L 465.330209 380.84375 
L 465.330209 238.953954 
L 453.824735 238.953954 
z
" style="fill:#ff7f0e;opacity:0.4;"/>
   </g>
   <g id="patch_17">
    <path clip-path="url(#p6829ab2800)" d="M 465.330209 380.84375 
L 476.835682 380.84375 
L 476.835682 380.84375 
L 465.330209 380.84375 
z
" style="fill:#ff7f0e;opacity:0.4;"/>
   </g>
   <g id="patch_18">
    <path clip-path="url(#p6829ab2800)" d="M 476.835682 380.84375 
L 488.341155 380.84375 
L 488.341155 333.547151 
L 476.835682 333.547151 
z
" style="fill:#ff7f0e;opacity:0.4;"/>
   </g>
   <g id="patch_19">
    <path clip-path="url(#p6829ab2800)" d="M 488.341155 380.84375 
L 499.846629 380.84375 
L 499.846629 286.250553 
L 488.341155 286.250553 
z
" style="fill:#ff7f0e;opacity:0.4;"/>
   </g>
   <g id="matplotlib.axis_3">
    <g id="xtick_3">
     <g id="line2d_21">
      <g>
       <use style="stroke:#000000;stroke-width:0.8;" x="354.877665" xlink:href="#mc3a356a46d" y="390.84375"/>
      </g>
     </g>
     <g id="text_11">
      <text style="font-family:DejaVu Sans;font-size:10px;font-stretch:normal;font-style:normal;font-weight:normal;text-anchor:middle;" transform="rotate(-0, 354.877665, 405.442187)" x="354.877665" y="405.442187">−2</text>
     </g>
    </g>
    <g id="xtick_4">
     <g id="line2d_22">
      <g>
       <use style="stroke:#000000;stroke-width:0.8;" x="396.297369" xlink:href="#mc3a356a46d" y="390.84375"/>
      </g>
     </g>
     <g id="text_12">
      <text style="font-family:DejaVu Sans;font-size:10px;font-stretch:normal;font-style:normal;font-weight:normal;text-anchor:middle;" transform="rotate(-0, 396.297369, 405.442187)" x="396.297369" y="405.442187">0</text>
     </g>
    </g>
    <g id="xtick_5">
     <g id="line2d_23">
      <g>
       <use style="stroke:#000000;stroke-width:0.8;" x="437.717073" xlink:href="#mc3a356a46d" y="390.84375"/>
      </g>
     </g>
     <g id="text_13">
      <text style="font-family:DejaVu Sans;font-size:10px;font-stretch:normal;font-style:normal;font-weight:normal;text-anchor:middle;" transform="rotate(-0, 437.717073, 405.442187)" x="437.717073" y="405.442187">2</text>
     </g>
    </g>
    <g id="xtick_6">
     <g id="line2d_24">
      <g>
       <use style="stroke:#000000;stroke-width:0.8;" x="479.136777" xlink:href="#mc3a356a46d" y="390.84375"/>
      </g>
     </g>
     <g id="text_14">
      <text style="font-family:DejaVu Sans;font-size:10px;font-stretch:normal;font-style:normal;font-weight:normal;text-anchor:middle;" transform="rotate(-0, 479.136777, 405.442187)" x="479.136777" y="405.442187">4</text>
     </g>
    </g>
    <g id="xtick_7">
     <g id="line2d_25">
      <g>
       <use style="stroke:#000000;stroke-width:0.8;" x="520.55648" xlink:href="#mc3a356a46d" y="390.84375"/>
      </g>
     </g>
     <g id="text_15">
      <text style="font-family:DejaVu Sans;font-size:10px;font-stretch:normal;font-style:normal;font-weight:normal;text-anchor:middle;" transform="rotate(-0, 520.55648, 405.442187)" x="520.55648" y="405.442187">6</text>
     </g>
    </g>
    <g id="xtick_8">
     <g id="line2d_26">
      <g>
       <use style="stroke:#000000;stroke-width:0.8;" x="561.976184" xlink:href="#mc3a356a46d" y="390.84375"/>
      </g>
     </g>
     <g id="text_16">
      <text style="font-family:DejaVu Sans;font-size:10px;font-stretch:normal;font-style:normal;font-weight:normal;text-anchor:middle;" transform="rotate(-0, 561.976184, 405.442187)" x="561.976184" y="405.442187">8</text>
     </g>
    </g>
    <g id="text_17">
     <text style="font-family:DejaVu Sans;font-size:10px;font-stretch:normal;font-style:normal;font-weight:normal;text-anchor:middle;" transform="rotate(-0, 448.071999, 419.120313)" x="448.071999" y="419.120313">Value</text>
    </g>
   </g>
   <g id="matplotlib.axis_4">
    <g id="ytick_7">
     <g id="line2d_27">
      <g>
       <use style="stroke:#000000;stroke-width:0.8;" x="323.788624" xlink:href="#m82278324de" y="380.84375"/>
      </g>
     </g>
     <g id="text_18">
      <text style="font-family:DejaVu Sans;font-size:10px;font-stretch:normal;font-style:normal;font-weight:normal;text-anchor:end;" transform="rotate(-0, 316.788624, 384.642969)" x="316.788624" y="384.642969">0.0</text>
     </g>
    </g>
    <g id="ytick_8">
     <g id="line2d_28">
      <g>
       <use style="stroke:#000000;stroke-width:0.8;" x="323.788624" xlink:href="#m82278324de" y="330.919563"/>
      </g>
     </g>
     <g id="text_19">
      <text style="font-family:DejaVu Sans;font-size:10px;font-stretch:normal;font-style:normal;font-weight:normal;text-anchor:end;" transform="rotate(-0, 316.788624, 334.718781)" x="316.788624" y="334.718781">0.1</text>
     </g>
    </g>
    <g id="ytick_9">
     <g id="line2d_29">
      <g>
       <use style="stroke:#000000;stroke-width:0.8;" x="323.788624" xlink:href="#m82278324de" y="280.995375"/>
      </g>
     </g>
     <g id="text_20">
      <text style="font-family:DejaVu Sans;font-size:10px;font-stretch:normal;font-style:normal;font-weight:normal;text-anchor:end;" transform="rotate(-0, 316.788624, 284.794594)" x="316.788624" y="284.794594">0.2</text>
     </g>
    </g>
    <g id="ytick_10">
     <g id="line2d_30">
      <g>
       <use style="stroke:#000000;stroke-width:0.8;" x="323.788624" xlink:href="#m82278324de" y="231.071188"/>
      </g>
     </g>
     <g id="text_21">
      <text style="font-family:DejaVu Sans;font-size:10px;font-stretch:normal;font-style:normal;font-weight:normal;text-anchor:end;" transform="rotate(-0, 316.788624, 234.870406)" x="316.788624" y="234.870406">0.3</text>
     </g>
    </g>
    <g id="ytick_11">
     <g id="line2d_31">
      <g>
       <use style="stroke:#000000;stroke-width:0.8;" x="323.788624" xlink:href="#m82278324de" y="181.147"/>
      </g>
     </g>
     <g id="text_22">
      <text style="font-family:DejaVu Sans;font-size:10px;font-stretch:normal;font-style:normal;font-weight:normal;text-anchor:end;" transform="rotate(-0, 316.788624, 184.946219)" x="316.788624" y="184.946219">0.4</text>
     </g>
    </g>
    <g id="ytick_12">
     <g id="line2d_32">
      <g>
       <use style="stroke:#000000;stroke-width:0.8;" x="323.788624" xlink:href="#m82278324de" y="131.222813"/>
      </g>
     </g>
     <g id="text_23">
      <text style="font-family:DejaVu Sans;font-size:10px;font-stretch:normal;font-style:normal;font-weight:normal;text-anchor:end;" transform="rotate(-0, 316.788624, 135.022031)" x="316.788624" y="135.022031">0.5</text>
     </g>
    </g>
    <g id="ytick_13">
     <g id="line2d_33">
      <g>
       <use style="stroke:#000000;stroke-width:0.8;" x="323.788624" xlink:href="#m82278324de" y="81.298625"/>
      </g>
     </g>
     <g id="text_24">
      <text style="font-family:DejaVu Sans;font-size:10px;font-stretch:normal;font-style:normal;font-weight:normal;text-anchor:end;" transform="rotate(-0, 316.788624, 85.097844)" x="316.788624" y="85.097844">0.6</text>
     </g>
    </g>
    <g id="text_25">
     <text style="font-family:DejaVu Sans;font-size:10px;font-stretch:normal;font-style:normal;font-weight:normal;text-anchor:middle;" transform="rotate(-90, 294.805812, 207.02875)" x="294.805812" y="207.02875">Density</text>
    </g>
   </g>
   <g id="line2d_34">
    <path clip-path="url(#p6829ab2800)" d="M 367.11862 380.289722 
L 369.677842 379.812566 
L 371.597259 379.247606 
L 373.516676 378.43353 
L 375.436092 377.29269 
L 376.715703 376.307854 
L 377.995315 375.112049 
L 379.274926 373.678192 
L 380.554537 371.980416 
L 381.834148 369.995409 
L 383.113759 367.703861 
L 385.033176 363.663397 
L 386.952592 358.887562 
L 388.872009 353.403724 
L 390.791426 347.287654 
L 393.350648 338.368902 
L 402.307925 306.144704 
L 404.867148 298.185106 
L 407.42637 290.960408 
L 413.18462 275.246861 
L 415.104036 269.142996 
L 417.023453 262.06474 
L 418.94287 253.758324 
L 420.862286 244.094088 
L 422.781703 233.116055 
L 425.340925 216.90088 
L 429.819564 187.918209 
L 431.738981 177.262715 
L 433.018592 171.369451 
L 434.298203 166.70723 
L 434.938008 164.897656 
L 435.577814 163.462206 
L 436.21762 162.416734 
L 436.857425 161.773625 
L 437.497231 161.541629 
L 438.137036 161.725743 
L 438.776842 162.327159 
L 439.416647 163.343277 
L 440.056453 164.767776 
L 440.696258 166.590747 
L 441.975869 171.375723 
L 443.255481 177.555674 
L 444.535092 184.947763 
L 446.454508 197.841921 
L 449.013731 217.210411 
L 454.77198 262.059981 
L 457.331203 280.107534 
L 459.890425 296.379122 
L 462.449647 310.888604 
L 465.008869 323.778548 
L 466.928286 332.468409 
L 468.847703 340.360214 
L 470.767119 347.465284 
L 472.686536 353.780822 
L 474.605953 359.30213 
L 476.525369 364.034286 
L 478.444786 368.000322 
L 479.724397 370.239747 
L 481.004008 372.176175 
L 482.283619 373.831225 
L 483.56323 375.229087 
L 484.842841 376.395591 
L 486.762258 377.769525 
L 488.681675 378.770345 
L 490.601091 379.479453 
L 492.520508 379.968122 
L 494.439925 380.295664 
L 494.439925 380.295664 
" style="fill:none;stroke:#1f77b4;stroke-linecap:square;stroke-width:1.5;"/>
   </g>
   <g id="line2d_35">
    <path clip-path="url(#p6829ab2800)" d="M 344.178022 380.403996 
L 348.354664 379.956377 
L 351.487146 379.395489 
L 354.619628 378.552791 
L 356.707949 377.786691 
L 358.79627 376.81999 
L 360.884591 375.619331 
L 362.972912 374.151649 
L 365.061233 372.386057 
L 367.149554 370.29602 
L 369.237876 367.86168 
L 371.326197 365.072157 
L 373.414518 361.927597 
L 375.502839 358.440734 
L 378.635321 352.629512 
L 381.767802 346.253431 
L 386.988605 334.927194 
L 392.209408 323.653851 
L 395.34189 317.300946 
L 398.474372 311.396315 
L 401.606853 305.949307 
L 405.783496 299.249796 
L 417.269262 281.350876 
L 425.622546 267.775687 
L 427.710868 264.750739 
L 429.799189 262.086513 
L 431.88751 259.900036 
L 432.93167 259.020731 
L 433.975831 258.300935 
L 435.019992 257.75185 
L 436.064152 257.383255 
L 437.108313 257.203322 
L 438.152473 257.218474 
L 439.196634 257.433271 
L 440.240794 257.850333 
L 441.284955 258.470308 
L 442.329116 259.291866 
L 443.373276 260.311736 
L 444.417437 261.524777 
L 446.505758 264.501076 
L 448.594079 268.146624 
L 450.6824 272.366125 
L 452.770721 277.049006 
L 455.903203 284.679365 
L 465.300648 308.235891 
L 468.43313 315.207904 
L 470.521451 319.412834 
L 472.609772 323.222375 
L 474.698093 326.620658 
L 476.786414 329.608452 
L 478.874736 332.202305 
L 480.963057 334.43323 
L 483.051378 336.344883 
L 485.139699 337.991202 
L 488.272181 340.09864 
L 498.713786 346.549878 
L 501.846268 348.952549 
L 504.97875 351.70217 
L 508.111232 354.763832 
L 513.332034 360.290889 
L 518.552837 365.797846 
L 521.685319 368.829211 
L 524.817801 371.528533 
L 527.950282 373.835793 
L 530.038604 375.144615 
L 532.126925 376.272251 
L 534.215246 377.227186 
L 537.347728 378.364624 
L 540.480209 379.197158 
L 543.612691 379.784311 
L 547.789333 380.283791 
L 551.965976 380.564189 
L 551.965976 380.564189 
" style="fill:none;stroke:#ff7f0e;stroke-linecap:square;stroke-width:1.5;"/>
   </g>
   <g id="patch_20">
    <path d="M 323.788624 380.84375 
L 323.788624 81.298625 
" style="fill:none;stroke:#000000;stroke-linecap:square;stroke-linejoin:miter;stroke-width:0.8;"/>
   </g>
   <g id="patch_21">
    <path d="M 354.877665 390.84375 
L 561.976184 390.84375 
" style="fill:none;stroke:#000000;stroke-linecap:square;stroke-linejoin:miter;stroke-width:0.8;"/>
   </g>
   <g id="legend_1">
    <g id="patch_22">
     <path d="M 497.905373 70.57 
L 555.355373 70.57 
Q 557.355373 70.57 557.355373 68.57 
L 557.355373 40.21375 
Q 557.355373 38.21375 555.355373 38.21375 
L 497.905373 38.21375 
Q 495.905373 38.21375 495.905373 40.21375 
L 495.905373 68.57 
Q 495.905373 70.57 497.905373 70.57 
z
" style="fill:#ffffff;opacity:0.8;stroke:#cccccc;stroke-linejoin:miter;"/>
    </g>
    <g id="patch_23">
     <path d="M 499.905373 49.812187 
L 519.905373 49.812187 
L 519.905373 42.812187 
L 499.905373 42.812187 
z
" style="fill:#1f77b4;opacity:0.4;"/>
    </g>
    <g id="text_26">
     <text style="font-family:DejaVu Sans;font-size:10px;font-stretch:normal;font-style:normal;font-weight:normal;text-anchor:start;" transform="rotate(-0, 527.905373, 49.812187)" x="527.905373" y="49.812187">2017</text>
    </g>
    <g id="patch_24">
     <path d="M 499.905373 64.490313 
L 519.905373 64.490313 
L 519.905373 57.490313 
L 499.905373 57.490313 
z
" style="fill:#ff7f0e;opacity:0.4;"/>
    </g>
    <g id="text_27">
     <text style="font-family:DejaVu Sans;font-size:10px;font-stretch:normal;font-style:normal;font-weight:normal;text-anchor:start;" transform="rotate(-0, 527.905373, 64.490313)" x="527.905373" y="64.490313">2018</text>
    </g>
   </g>
  </g>
  <g id="text_28">
   <text style="font-family:DejaVu Sans;font-size:12px;font-stretch:normal;font-style:normal;font-weight:normal;text-anchor:middle;" transform="rotate(-0, 288, 17.758125)" x="288" y="17.758125">Number of time per year providing training for South Africa (without 95 percentile)</text>
  </g>
 </g>
 <defs>
  <clipPath id="paaddcab5e4">
   <rect height="347.63" width="228.566749" x="47.840625" y="33.21375"/>
  </clipPath>
  <clipPath id="p6829ab2800">
   <rect height="347.63" width="228.566749" x="333.788624" y="33.21375"/>
  </clipPath>
 </defs>
</svg>
