<?xml version="1.0" encoding="utf-8" standalone="no"?>
<!DOCTYPE svg PUBLIC "-//W3C//DTD SVG 1.1//EN"
  "http://www.w3.org/Graphics/SVG/1.1/DTD/svg11.dtd">
<svg height="432pt" version="1.1" viewBox="0 0 576 432" width="576pt" xmlns="http://www.w3.org/2000/svg" xmlns:xlink="http://www.w3.org/1999/xlink">
 <metadata>
  <rdf:RDF xmlns:cc="http://creativecommons.org/ns#" xmlns:dc="http://purl.org/dc/elements/1.1/" xmlns:rdf="http://www.w3.org/1999/02/22-rdf-syntax-ns#">
   <cc:Work>
    <dc:type rdf:resource="http://purl.org/dc/dcmitype/StillImage"/>
    <dc:date>2021-03-29T15:49:19.381289</dc:date>
    <dc:format>image/svg+xml</dc:format>
    <dc:creator>
     <cc:Agent>
      <dc:title>Matplotlib v3.4.0, https://matplotlib.org/</dc:title>
     </cc:Agent>
    </dc:creator>
   </cc:Work>
  </rdf:RDF>
 </metadata>
 <defs>
  <style type="text/css">*{stroke-linecap:butt;stroke-linejoin:round;}</style>
 </defs>
 <g id="figure_1">
  <g id="patch_1">
   <path d="M 0 432 
L 576 432 
L 576 0 
L 0 0 
z
" style="fill:#ffffff;"/>
  </g>
  <g id="axes_1">
   <g id="patch_2">
    <path d="M 47.840625 380.84375 
L 277.829688 380.84375 
L 277.829688 33.21375 
L 47.840625 33.21375 
z
" style="fill:#ffffff;"/>
   </g>
   <g id="patch_3">
    <path clip-path="url(#p83839e3b45)" d="M 59.340078 325.538977 
L 151.335703 325.538977 
L 151.335703 286.035568 
L 59.340078 286.035568 
L 59.340078 325.538977 
z
" style="fill:#3274a1;stroke:#3f3f3f;stroke-linejoin:miter;stroke-width:1.5;"/>
   </g>
   <g id="patch_4">
    <path clip-path="url(#p83839e3b45)" d="M 174.334609 365.042386 
L 266.330234 365.042386 
L 266.330234 286.035568 
L 174.334609 286.035568 
L 174.334609 365.042386 
z
" style="fill:#e1812c;stroke:#3f3f3f;stroke-linejoin:miter;stroke-width:1.5;"/>
   </g>
   <g id="matplotlib.axis_1">
    <g id="xtick_1">
     <g id="line2d_1">
      <defs>
       <path d="M 0 0 
L 0 3.5 
" id="mc3a356a46d" style="stroke:#000000;stroke-width:0.8;"/>
      </defs>
      <g>
       <use style="stroke:#000000;stroke-width:0.8;" x="105.337891" xlink:href="#mc3a356a46d" y="390.84375"/>
      </g>
     </g>
     <g id="text_1">
      <text style="font-family:DejaVu Sans;font-size:10px;font-stretch:normal;font-style:normal;font-weight:normal;text-anchor:middle;" transform="rotate(-0, 105.337891, 405.442187)" x="105.337891" y="405.442187">2017</text>
     </g>
    </g>
    <g id="xtick_2">
     <g id="line2d_2">
      <g>
       <use style="stroke:#000000;stroke-width:0.8;" x="220.332422" xlink:href="#mc3a356a46d" y="390.84375"/>
      </g>
     </g>
     <g id="text_2">
      <text style="font-family:DejaVu Sans;font-size:10px;font-stretch:normal;font-style:normal;font-weight:normal;text-anchor:middle;" transform="rotate(-0, 220.332422, 405.442187)" x="220.332422" y="405.442187">2018</text>
     </g>
    </g>
    <g id="text_3">
     <text style="font-family:DejaVu Sans;font-size:10px;font-stretch:normal;font-style:normal;font-weight:normal;text-anchor:middle;" transform="rotate(-0, 162.835156, 419.120313)" x="162.835156" y="419.120313">Year</text>
    </g>
   </g>
   <g id="matplotlib.axis_2">
    <g id="ytick_1">
     <g id="line2d_3">
      <defs>
       <path d="M 0 0 
L -3.5 0 
" id="m82278324de" style="stroke:#000000;stroke-width:0.8;"/>
      </defs>
      <g>
       <use style="stroke:#000000;stroke-width:0.8;" x="37.840625" xlink:href="#m82278324de" y="365.042386"/>
      </g>
     </g>
     <g id="text_4">
      <text style="font-family:DejaVu Sans;font-size:10px;font-stretch:normal;font-style:normal;font-weight:normal;text-anchor:end;" transform="rotate(-0, 30.840625, 368.841605)" x="30.840625" y="368.841605">0</text>
     </g>
    </g>
    <g id="ytick_2">
     <g id="line2d_4">
      <g>
       <use style="stroke:#000000;stroke-width:0.8;" x="37.840625" xlink:href="#m82278324de" y="325.538977"/>
      </g>
     </g>
     <g id="text_5">
      <text style="font-family:DejaVu Sans;font-size:10px;font-stretch:normal;font-style:normal;font-weight:normal;text-anchor:end;" transform="rotate(-0, 30.840625, 329.338196)" x="30.840625" y="329.338196">1</text>
     </g>
    </g>
    <g id="ytick_3">
     <g id="line2d_5">
      <g>
       <use style="stroke:#000000;stroke-width:0.8;" x="37.840625" xlink:href="#m82278324de" y="286.035568"/>
      </g>
     </g>
     <g id="text_6">
      <text style="font-family:DejaVu Sans;font-size:10px;font-stretch:normal;font-style:normal;font-weight:normal;text-anchor:end;" transform="rotate(-0, 30.840625, 289.834787)" x="30.840625" y="289.834787">2</text>
     </g>
    </g>
    <g id="ytick_4">
     <g id="line2d_6">
      <g>
       <use style="stroke:#000000;stroke-width:0.8;" x="37.840625" xlink:href="#m82278324de" y="246.532159"/>
      </g>
     </g>
     <g id="text_7">
      <text style="font-family:DejaVu Sans;font-size:10px;font-stretch:normal;font-style:normal;font-weight:normal;text-anchor:end;" transform="rotate(-0, 30.840625, 250.331378)" x="30.840625" y="250.331378">3</text>
     </g>
    </g>
    <g id="ytick_5">
     <g id="line2d_7">
      <g>
       <use style="stroke:#000000;stroke-width:0.8;" x="37.840625" xlink:href="#m82278324de" y="207.02875"/>
      </g>
     </g>
     <g id="text_8">
      <text style="font-family:DejaVu Sans;font-size:10px;font-stretch:normal;font-style:normal;font-weight:normal;text-anchor:end;" transform="rotate(-0, 30.840625, 210.827969)" x="30.840625" y="210.827969">4</text>
     </g>
    </g>
    <g id="ytick_6">
     <g id="line2d_8">
      <g>
       <use style="stroke:#000000;stroke-width:0.8;" x="37.840625" xlink:href="#m82278324de" y="167.525341"/>
      </g>
     </g>
     <g id="text_9">
      <text style="font-family:DejaVu Sans;font-size:10px;font-stretch:normal;font-style:normal;font-weight:normal;text-anchor:end;" transform="rotate(-0, 30.840625, 171.32456)" x="30.840625" y="171.32456">5</text>
     </g>
    </g>
    <g id="ytick_7">
     <g id="line2d_9">
      <g>
       <use style="stroke:#000000;stroke-width:0.8;" x="37.840625" xlink:href="#m82278324de" y="128.021932"/>
      </g>
     </g>
     <g id="text_10">
      <text style="font-family:DejaVu Sans;font-size:10px;font-stretch:normal;font-style:normal;font-weight:normal;text-anchor:end;" transform="rotate(-0, 30.840625, 131.821151)" x="30.840625" y="131.821151">6</text>
     </g>
    </g>
    <g id="ytick_8">
     <g id="line2d_10">
      <g>
       <use style="stroke:#000000;stroke-width:0.8;" x="37.840625" xlink:href="#m82278324de" y="88.518523"/>
      </g>
     </g>
     <g id="text_11">
      <text style="font-family:DejaVu Sans;font-size:10px;font-stretch:normal;font-style:normal;font-weight:normal;text-anchor:end;" transform="rotate(-0, 30.840625, 92.317741)" x="30.840625" y="92.317741">7</text>
     </g>
    </g>
    <g id="ytick_9">
     <g id="line2d_11">
      <g>
       <use style="stroke:#000000;stroke-width:0.8;" x="37.840625" xlink:href="#m82278324de" y="49.015114"/>
      </g>
     </g>
     <g id="text_12">
      <text style="font-family:DejaVu Sans;font-size:10px;font-stretch:normal;font-style:normal;font-weight:normal;text-anchor:end;" transform="rotate(-0, 30.840625, 52.814332)" x="30.840625" y="52.814332">8</text>
     </g>
    </g>
    <g id="text_13">
     <text style="font-family:DejaVu Sans;font-size:10px;font-stretch:normal;font-style:normal;font-weight:normal;text-anchor:middle;" transform="rotate(-90, 18.398437, 207.02875)" x="18.398437" y="207.02875">Value</text>
    </g>
   </g>
   <g id="line2d_12">
    <path clip-path="url(#p83839e3b45)" d="M 105.337891 325.538977 
L 105.337891 365.042386 
" style="fill:none;stroke:#3f3f3f;stroke-linecap:square;stroke-width:1.5;"/>
   </g>
   <g id="line2d_13">
    <path clip-path="url(#p83839e3b45)" d="M 105.337891 286.035568 
L 105.337891 246.532159 
" style="fill:none;stroke:#3f3f3f;stroke-linecap:square;stroke-width:1.5;"/>
   </g>
   <g id="line2d_14">
    <path clip-path="url(#p83839e3b45)" d="M 82.338984 365.042386 
L 128.336797 365.042386 
" style="fill:none;stroke:#3f3f3f;stroke-linecap:square;stroke-width:1.5;"/>
   </g>
   <g id="line2d_15">
    <path clip-path="url(#p83839e3b45)" d="M 82.338984 246.532159 
L 128.336797 246.532159 
" style="fill:none;stroke:#3f3f3f;stroke-linecap:square;stroke-width:1.5;"/>
   </g>
   <g id="line2d_16">
    <defs>
     <path d="M -0 3.535534 
L 2.12132 0 
L -0 -3.535534 
L -2.12132 -0 
z
" id="m226ab95657" style="stroke:#3f3f3f;stroke-linejoin:miter;"/>
    </defs>
    <g clip-path="url(#p83839e3b45)">
     <use style="fill:#3f3f3f;stroke:#3f3f3f;stroke-linejoin:miter;" x="105.337891" xlink:href="#m226ab95657" y="207.02875"/>
     <use style="fill:#3f3f3f;stroke:#3f3f3f;stroke-linejoin:miter;" x="105.337891" xlink:href="#m226ab95657" y="207.02875"/>
     <use style="fill:#3f3f3f;stroke:#3f3f3f;stroke-linejoin:miter;" x="105.337891" xlink:href="#m226ab95657" y="49.015114"/>
     <use style="fill:#3f3f3f;stroke:#3f3f3f;stroke-linejoin:miter;" x="105.337891" xlink:href="#m226ab95657" y="207.02875"/>
    </g>
   </g>
   <g id="line2d_17">
    <path clip-path="url(#p83839e3b45)" d="M 220.332422 365.042386 
L 220.332422 365.042386 
" style="fill:none;stroke:#3f3f3f;stroke-linecap:square;stroke-width:1.5;"/>
   </g>
   <g id="line2d_18">
    <path clip-path="url(#p83839e3b45)" d="M 220.332422 286.035568 
L 220.332422 167.525341 
" style="fill:none;stroke:#3f3f3f;stroke-linecap:square;stroke-width:1.5;"/>
   </g>
   <g id="line2d_19">
    <path clip-path="url(#p83839e3b45)" d="M 197.333516 365.042386 
L 243.331328 365.042386 
" style="fill:none;stroke:#3f3f3f;stroke-linecap:square;stroke-width:1.5;"/>
   </g>
   <g id="line2d_20">
    <path clip-path="url(#p83839e3b45)" d="M 197.333516 167.525341 
L 243.331328 167.525341 
" style="fill:none;stroke:#3f3f3f;stroke-linecap:square;stroke-width:1.5;"/>
   </g>
   <g id="line2d_21"/>
   <g id="line2d_22">
    <path clip-path="url(#p83839e3b45)" d="M 59.340078 286.035568 
L 151.335703 286.035568 
" style="fill:none;stroke:#3f3f3f;stroke-linecap:square;stroke-width:1.5;"/>
   </g>
   <g id="line2d_23">
    <path clip-path="url(#p83839e3b45)" d="M 174.334609 325.538977 
L 266.330234 325.538977 
" style="fill:none;stroke:#3f3f3f;stroke-linecap:square;stroke-width:1.5;"/>
   </g>
   <g id="patch_5">
    <path d="M 37.840625 365.042386 
L 37.840625 49.015114 
" style="fill:none;stroke:#000000;stroke-linecap:square;stroke-linejoin:miter;stroke-width:0.8;"/>
   </g>
   <g id="patch_6">
    <path d="M 105.337891 390.84375 
L 220.332422 390.84375 
" style="fill:none;stroke:#000000;stroke-linecap:square;stroke-linejoin:miter;stroke-width:0.8;"/>
   </g>
   <g id="PathCollection_1">
    <defs>
     <path d="M 0 2.5 
C 0.663008 2.5 1.29895 2.236584 1.767767 1.767767 
C 2.236584 1.29895 2.5 0.663008 2.5 -0 
C 2.5 -0.663008 2.236584 -1.29895 1.767767 -1.767767 
C 1.29895 -2.236584 0.663008 -2.5 0 -2.5 
C -0.663008 -2.5 -1.29895 -2.236584 -1.767767 -1.767767 
C -2.236584 -1.29895 -2.5 -0.663008 -2.5 0 
C -2.5 0.663008 -2.236584 1.29895 -1.767767 1.767767 
C -1.29895 2.236584 -0.663008 2.5 0 2.5 
z
" id="C0_0_77057b9605"/>
    </defs>
    <g clip-path="url(#p83839e3b45)">
     <use style="fill:#808080;fill-opacity:0.75;" x="105.337891" xlink:href="#C0_0_77057b9605" y="365.042386"/>
    </g>
    <g clip-path="url(#p83839e3b45)">
     <use style="fill:#808080;fill-opacity:0.75;" x="99.387233" xlink:href="#C0_0_77057b9605" y="365.042386"/>
    </g>
    <g clip-path="url(#p83839e3b45)">
     <use style="fill:#808080;fill-opacity:0.75;" x="111.288548" xlink:href="#C0_0_77057b9605" y="365.042386"/>
    </g>
    <g clip-path="url(#p83839e3b45)">
     <use style="fill:#808080;fill-opacity:0.75;" x="93.436575" xlink:href="#C0_0_77057b9605" y="365.042386"/>
    </g>
    <g clip-path="url(#p83839e3b45)">
     <use style="fill:#808080;fill-opacity:0.75;" x="117.239206" xlink:href="#C0_0_77057b9605" y="365.042386"/>
    </g>
    <g clip-path="url(#p83839e3b45)">
     <use style="fill:#808080;fill-opacity:0.75;" x="87.485917" xlink:href="#C0_0_77057b9605" y="365.042386"/>
    </g>
    <g clip-path="url(#p83839e3b45)">
     <use style="fill:#808080;fill-opacity:0.75;" x="105.337891" xlink:href="#C0_0_77057b9605" y="357.141705"/>
    </g>
    <g clip-path="url(#p83839e3b45)">
     <use style="fill:#808080;fill-opacity:0.75;" x="105.337891" xlink:href="#C0_0_77057b9605" y="325.538977"/>
    </g>
    <g clip-path="url(#p83839e3b45)">
     <use style="fill:#808080;fill-opacity:0.75;" x="99.387233" xlink:href="#C0_0_77057b9605" y="325.538977"/>
    </g>
    <g clip-path="url(#p83839e3b45)">
     <use style="fill:#808080;fill-opacity:0.75;" x="111.288548" xlink:href="#C0_0_77057b9605" y="325.538977"/>
    </g>
    <g clip-path="url(#p83839e3b45)">
     <use style="fill:#808080;fill-opacity:0.75;" x="93.436575" xlink:href="#C0_0_77057b9605" y="325.538977"/>
    </g>
    <g clip-path="url(#p83839e3b45)">
     <use style="fill:#808080;fill-opacity:0.75;" x="117.239206" xlink:href="#C0_0_77057b9605" y="325.538977"/>
    </g>
    <g clip-path="url(#p83839e3b45)">
     <use style="fill:#808080;fill-opacity:0.75;" x="87.485917" xlink:href="#C0_0_77057b9605" y="325.538977"/>
    </g>
    <g clip-path="url(#p83839e3b45)">
     <use style="fill:#808080;fill-opacity:0.75;" x="105.337891" xlink:href="#C0_0_77057b9605" y="286.035568"/>
    </g>
    <g clip-path="url(#p83839e3b45)">
     <use style="fill:#808080;fill-opacity:0.75;" x="99.387233" xlink:href="#C0_0_77057b9605" y="286.035568"/>
    </g>
    <g clip-path="url(#p83839e3b45)">
     <use style="fill:#808080;fill-opacity:0.75;" x="111.288548" xlink:href="#C0_0_77057b9605" y="286.035568"/>
    </g>
    <g clip-path="url(#p83839e3b45)">
     <use style="fill:#808080;fill-opacity:0.75;" x="93.436575" xlink:href="#C0_0_77057b9605" y="286.035568"/>
    </g>
    <g clip-path="url(#p83839e3b45)">
     <use style="fill:#808080;fill-opacity:0.75;" x="117.239206" xlink:href="#C0_0_77057b9605" y="286.035568"/>
    </g>
    <g clip-path="url(#p83839e3b45)">
     <use style="fill:#808080;fill-opacity:0.75;" x="87.485917" xlink:href="#C0_0_77057b9605" y="286.035568"/>
    </g>
    <g clip-path="url(#p83839e3b45)">
     <use style="fill:#808080;fill-opacity:0.75;" x="123.189864" xlink:href="#C0_0_77057b9605" y="286.035568"/>
    </g>
    <g clip-path="url(#p83839e3b45)">
     <use style="fill:#808080;fill-opacity:0.75;" x="81.535259" xlink:href="#C0_0_77057b9605" y="286.035568"/>
    </g>
    <g clip-path="url(#p83839e3b45)">
     <use style="fill:#808080;fill-opacity:0.75;" x="129.140522" xlink:href="#C0_0_77057b9605" y="286.035568"/>
    </g>
    <g clip-path="url(#p83839e3b45)">
     <use style="fill:#808080;fill-opacity:0.75;" x="75.584601" xlink:href="#C0_0_77057b9605" y="286.035568"/>
    </g>
    <g clip-path="url(#p83839e3b45)">
     <use style="fill:#808080;fill-opacity:0.75;" x="135.09118" xlink:href="#C0_0_77057b9605" y="286.035568"/>
    </g>
    <g clip-path="url(#p83839e3b45)">
     <use style="fill:#808080;fill-opacity:0.75;" x="141.041838" xlink:href="#C0_0_77057b9605" y="286.035568"/>
    </g>
    <g clip-path="url(#p83839e3b45)">
     <use style="fill:#808080;fill-opacity:0.75;" x="69.633943" xlink:href="#C0_0_77057b9605" y="286.035568"/>
    </g>
    <g clip-path="url(#p83839e3b45)">
     <use style="fill:#808080;fill-opacity:0.75;" x="146.992496" xlink:href="#C0_0_77057b9605" y="286.035568"/>
    </g>
    <g clip-path="url(#p83839e3b45)">
     <use style="fill:#808080;fill-opacity:0.75;" x="63.683286" xlink:href="#C0_0_77057b9605" y="286.035568"/>
    </g>
    <g clip-path="url(#p83839e3b45)">
     <use style="fill:#808080;fill-opacity:0.75;" x="151.335703" xlink:href="#C0_0_77057b9605" y="286.035568"/>
    </g>
    <g clip-path="url(#p83839e3b45)">
     <use style="fill:#808080;fill-opacity:0.75;" x="59.340078" xlink:href="#C0_0_77057b9605" y="286.035568"/>
    </g>
    <g clip-path="url(#p83839e3b45)">
     <use style="fill:#808080;fill-opacity:0.75;" x="151.335703" xlink:href="#C0_0_77057b9605" y="286.035568"/>
    </g>
    <g clip-path="url(#p83839e3b45)">
     <use style="fill:#808080;fill-opacity:0.75;" x="105.337891" xlink:href="#C0_0_77057b9605" y="246.532159"/>
    </g>
    <g clip-path="url(#p83839e3b45)">
     <use style="fill:#808080;fill-opacity:0.75;" x="99.387233" xlink:href="#C0_0_77057b9605" y="246.532159"/>
    </g>
    <g clip-path="url(#p83839e3b45)">
     <use style="fill:#808080;fill-opacity:0.75;" x="111.288548" xlink:href="#C0_0_77057b9605" y="246.532159"/>
    </g>
    <g clip-path="url(#p83839e3b45)">
     <use style="fill:#808080;fill-opacity:0.75;" x="93.436575" xlink:href="#C0_0_77057b9605" y="246.532159"/>
    </g>
    <g clip-path="url(#p83839e3b45)">
     <use style="fill:#808080;fill-opacity:0.75;" x="117.239206" xlink:href="#C0_0_77057b9605" y="246.532159"/>
    </g>
    <g clip-path="url(#p83839e3b45)">
     <use style="fill:#808080;fill-opacity:0.75;" x="105.337891" xlink:href="#C0_0_77057b9605" y="207.02875"/>
    </g>
    <g clip-path="url(#p83839e3b45)">
     <use style="fill:#808080;fill-opacity:0.75;" x="99.387233" xlink:href="#C0_0_77057b9605" y="207.02875"/>
    </g>
    <g clip-path="url(#p83839e3b45)">
     <use style="fill:#808080;fill-opacity:0.75;" x="111.288548" xlink:href="#C0_0_77057b9605" y="207.02875"/>
    </g>
    <g clip-path="url(#p83839e3b45)">
     <use style="fill:#808080;fill-opacity:0.75;" x="105.337891" xlink:href="#C0_0_77057b9605" y="49.015114"/>
    </g>
   </g>
   <g id="PathCollection_2">
    <defs>
     <path d="M 0 2.5 
C 0.663008 2.5 1.29895 2.236584 1.767767 1.767767 
C 2.236584 1.29895 2.5 0.663008 2.5 -0 
C 2.5 -0.663008 2.236584 -1.29895 1.767767 -1.767767 
C 1.29895 -2.236584 0.663008 -2.5 0 -2.5 
C -0.663008 -2.5 -1.29895 -2.236584 -1.767767 -1.767767 
C -2.236584 -1.29895 -2.5 -0.663008 -2.5 0 
C -2.5 0.663008 -2.236584 1.29895 -1.767767 1.767767 
C -1.29895 2.236584 -0.663008 2.5 0 2.5 
z
" id="C1_0_77057b9605"/>
    </defs>
    <g clip-path="url(#p83839e3b45)">
     <use style="fill:#808080;fill-opacity:0.75;" x="220.332422" xlink:href="#C1_0_77057b9605" y="365.042386"/>
    </g>
    <g clip-path="url(#p83839e3b45)">
     <use style="fill:#808080;fill-opacity:0.75;" x="214.381764" xlink:href="#C1_0_77057b9605" y="365.042386"/>
    </g>
    <g clip-path="url(#p83839e3b45)">
     <use style="fill:#808080;fill-opacity:0.75;" x="226.28308" xlink:href="#C1_0_77057b9605" y="365.042386"/>
    </g>
    <g clip-path="url(#p83839e3b45)">
     <use style="fill:#808080;fill-opacity:0.75;" x="208.431106" xlink:href="#C1_0_77057b9605" y="365.042386"/>
    </g>
    <g clip-path="url(#p83839e3b45)">
     <use style="fill:#808080;fill-opacity:0.75;" x="232.233738" xlink:href="#C1_0_77057b9605" y="365.042386"/>
    </g>
    <g clip-path="url(#p83839e3b45)">
     <use style="fill:#808080;fill-opacity:0.75;" x="202.480448" xlink:href="#C1_0_77057b9605" y="365.042386"/>
    </g>
    <g clip-path="url(#p83839e3b45)">
     <use style="fill:#808080;fill-opacity:0.75;" x="238.184395" xlink:href="#C1_0_77057b9605" y="365.042386"/>
    </g>
    <g clip-path="url(#p83839e3b45)">
     <use style="fill:#808080;fill-opacity:0.75;" x="196.52979" xlink:href="#C1_0_77057b9605" y="365.042386"/>
    </g>
    <g clip-path="url(#p83839e3b45)">
     <use style="fill:#808080;fill-opacity:0.75;" x="244.135053" xlink:href="#C1_0_77057b9605" y="365.042386"/>
    </g>
    <g clip-path="url(#p83839e3b45)">
     <use style="fill:#808080;fill-opacity:0.75;" x="190.579133" xlink:href="#C1_0_77057b9605" y="365.042386"/>
    </g>
    <g clip-path="url(#p83839e3b45)">
     <use style="fill:#808080;fill-opacity:0.75;" x="250.085711" xlink:href="#C1_0_77057b9605" y="365.042386"/>
    </g>
    <g clip-path="url(#p83839e3b45)">
     <use style="fill:#808080;fill-opacity:0.75;" x="184.628475" xlink:href="#C1_0_77057b9605" y="365.042386"/>
    </g>
    <g clip-path="url(#p83839e3b45)">
     <use style="fill:#808080;fill-opacity:0.75;" x="256.036369" xlink:href="#C1_0_77057b9605" y="365.042386"/>
    </g>
    <g clip-path="url(#p83839e3b45)">
     <use style="fill:#808080;fill-opacity:0.75;" x="178.677817" xlink:href="#C1_0_77057b9605" y="365.042386"/>
    </g>
    <g clip-path="url(#p83839e3b45)">
     <use style="fill:#808080;fill-opacity:0.75;" x="261.987027" xlink:href="#C1_0_77057b9605" y="365.042386"/>
    </g>
    <g clip-path="url(#p83839e3b45)">
     <use style="fill:#808080;fill-opacity:0.75;" x="174.334609" xlink:href="#C1_0_77057b9605" y="365.042386"/>
    </g>
    <g clip-path="url(#p83839e3b45)">
     <use style="fill:#808080;fill-opacity:0.75;" x="266.330234" xlink:href="#C1_0_77057b9605" y="365.042386"/>
    </g>
    <g clip-path="url(#p83839e3b45)">
     <use style="fill:#808080;fill-opacity:0.75;" x="174.334609" xlink:href="#C1_0_77057b9605" y="365.042386"/>
    </g>
    <g clip-path="url(#p83839e3b45)">
     <use style="fill:#808080;fill-opacity:0.75;" x="266.330234" xlink:href="#C1_0_77057b9605" y="365.042386"/>
    </g>
    <g clip-path="url(#p83839e3b45)">
     <use style="fill:#808080;fill-opacity:0.75;" x="174.334609" xlink:href="#C1_0_77057b9605" y="365.042386"/>
    </g>
    <g clip-path="url(#p83839e3b45)">
     <use style="fill:#808080;fill-opacity:0.75;" x="266.330234" xlink:href="#C1_0_77057b9605" y="365.042386"/>
    </g>
    <g clip-path="url(#p83839e3b45)">
     <use style="fill:#808080;fill-opacity:0.75;" x="174.334609" xlink:href="#C1_0_77057b9605" y="365.042386"/>
    </g>
    <g clip-path="url(#p83839e3b45)">
     <use style="fill:#808080;fill-opacity:0.75;" x="220.332422" xlink:href="#C1_0_77057b9605" y="325.538977"/>
    </g>
    <g clip-path="url(#p83839e3b45)">
     <use style="fill:#808080;fill-opacity:0.75;" x="214.381764" xlink:href="#C1_0_77057b9605" y="325.538977"/>
    </g>
    <g clip-path="url(#p83839e3b45)">
     <use style="fill:#808080;fill-opacity:0.75;" x="226.28308" xlink:href="#C1_0_77057b9605" y="325.538977"/>
    </g>
    <g clip-path="url(#p83839e3b45)">
     <use style="fill:#808080;fill-opacity:0.75;" x="208.431106" xlink:href="#C1_0_77057b9605" y="325.538977"/>
    </g>
    <g clip-path="url(#p83839e3b45)">
     <use style="fill:#808080;fill-opacity:0.75;" x="232.233738" xlink:href="#C1_0_77057b9605" y="325.538977"/>
    </g>
    <g clip-path="url(#p83839e3b45)">
     <use style="fill:#808080;fill-opacity:0.75;" x="202.480448" xlink:href="#C1_0_77057b9605" y="325.538977"/>
    </g>
    <g clip-path="url(#p83839e3b45)">
     <use style="fill:#808080;fill-opacity:0.75;" x="238.184395" xlink:href="#C1_0_77057b9605" y="325.538977"/>
    </g>
    <g clip-path="url(#p83839e3b45)">
     <use style="fill:#808080;fill-opacity:0.75;" x="196.52979" xlink:href="#C1_0_77057b9605" y="325.538977"/>
    </g>
    <g clip-path="url(#p83839e3b45)">
     <use style="fill:#808080;fill-opacity:0.75;" x="244.135053" xlink:href="#C1_0_77057b9605" y="325.538977"/>
    </g>
    <g clip-path="url(#p83839e3b45)">
     <use style="fill:#808080;fill-opacity:0.75;" x="190.579133" xlink:href="#C1_0_77057b9605" y="325.538977"/>
    </g>
    <g clip-path="url(#p83839e3b45)">
     <use style="fill:#808080;fill-opacity:0.75;" x="220.332422" xlink:href="#C1_0_77057b9605" y="286.035568"/>
    </g>
    <g clip-path="url(#p83839e3b45)">
     <use style="fill:#808080;fill-opacity:0.75;" x="214.381764" xlink:href="#C1_0_77057b9605" y="286.035568"/>
    </g>
    <g clip-path="url(#p83839e3b45)">
     <use style="fill:#808080;fill-opacity:0.75;" x="226.28308" xlink:href="#C1_0_77057b9605" y="286.035568"/>
    </g>
    <g clip-path="url(#p83839e3b45)">
     <use style="fill:#808080;fill-opacity:0.75;" x="208.431106" xlink:href="#C1_0_77057b9605" y="286.035568"/>
    </g>
    <g clip-path="url(#p83839e3b45)">
     <use style="fill:#808080;fill-opacity:0.75;" x="220.332422" xlink:href="#C1_0_77057b9605" y="246.532159"/>
    </g>
    <g clip-path="url(#p83839e3b45)">
     <use style="fill:#808080;fill-opacity:0.75;" x="214.381764" xlink:href="#C1_0_77057b9605" y="246.532159"/>
    </g>
    <g clip-path="url(#p83839e3b45)">
     <use style="fill:#808080;fill-opacity:0.75;" x="226.28308" xlink:href="#C1_0_77057b9605" y="246.532159"/>
    </g>
    <g clip-path="url(#p83839e3b45)">
     <use style="fill:#808080;fill-opacity:0.75;" x="208.431106" xlink:href="#C1_0_77057b9605" y="246.532159"/>
    </g>
    <g clip-path="url(#p83839e3b45)">
     <use style="fill:#808080;fill-opacity:0.75;" x="232.233738" xlink:href="#C1_0_77057b9605" y="246.532159"/>
    </g>
    <g clip-path="url(#p83839e3b45)">
     <use style="fill:#808080;fill-opacity:0.75;" x="220.332422" xlink:href="#C1_0_77057b9605" y="207.02875"/>
    </g>
    <g clip-path="url(#p83839e3b45)">
     <use style="fill:#808080;fill-opacity:0.75;" x="214.381764" xlink:href="#C1_0_77057b9605" y="207.02875"/>
    </g>
    <g clip-path="url(#p83839e3b45)">
     <use style="fill:#808080;fill-opacity:0.75;" x="226.28308" xlink:href="#C1_0_77057b9605" y="207.02875"/>
    </g>
    <g clip-path="url(#p83839e3b45)">
     <use style="fill:#808080;fill-opacity:0.75;" x="208.431106" xlink:href="#C1_0_77057b9605" y="207.02875"/>
    </g>
    <g clip-path="url(#p83839e3b45)">
     <use style="fill:#808080;fill-opacity:0.75;" x="220.332422" xlink:href="#C1_0_77057b9605" y="167.525341"/>
    </g>
    <g clip-path="url(#p83839e3b45)">
     <use style="fill:#808080;fill-opacity:0.75;" x="214.381764" xlink:href="#C1_0_77057b9605" y="167.525341"/>
    </g>
   </g>
  </g>
  <g id="axes_2">
   <g id="patch_7">
    <path d="M 335.210938 380.84375 
L 565.2 380.84375 
L 565.2 33.21375 
L 335.210938 33.21375 
z
" style="fill:#ffffff;"/>
   </g>
   <g id="patch_8">
    <path clip-path="url(#p926b90aad2)" d="M 382.367773 380.84375 
L 389.173894 380.84375 
L 389.173894 313.573452 
L 382.367773 313.573452 
z
" style="fill:#1f77b4;opacity:0.4;"/>
   </g>
   <g id="patch_9">
    <path clip-path="url(#p926b90aad2)" d="M 389.173894 380.84375 
L 395.980015 380.84375 
L 395.980015 380.84375 
L 389.173894 380.84375 
z
" style="fill:#1f77b4;opacity:0.4;"/>
   </g>
   <g id="patch_10">
    <path clip-path="url(#p926b90aad2)" d="M 395.980015 380.84375 
L 402.786136 380.84375 
L 402.786136 323.183494 
L 395.980015 323.183494 
z
" style="fill:#1f77b4;opacity:0.4;"/>
   </g>
   <g id="patch_11">
    <path clip-path="url(#p926b90aad2)" d="M 402.786136 380.84375 
L 409.592258 380.84375 
L 409.592258 380.84375 
L 402.786136 380.84375 
z
" style="fill:#1f77b4;opacity:0.4;"/>
   </g>
   <g id="patch_12">
    <path clip-path="url(#p926b90aad2)" d="M 409.592258 380.84375 
L 416.398379 380.84375 
L 416.398379 380.84375 
L 409.592258 380.84375 
z
" style="fill:#1f77b4;opacity:0.4;"/>
   </g>
   <g id="patch_13">
    <path clip-path="url(#p926b90aad2)" d="M 416.398379 380.84375 
L 423.2045 380.84375 
L 423.2045 207.862983 
L 416.398379 207.862983 
z
" style="fill:#1f77b4;opacity:0.4;"/>
   </g>
   <g id="patch_14">
    <path clip-path="url(#p926b90aad2)" d="M 423.2045 380.84375 
L 430.010622 380.84375 
L 430.010622 380.84375 
L 423.2045 380.84375 
z
" style="fill:#1f77b4;opacity:0.4;"/>
   </g>
   <g id="patch_15">
    <path clip-path="url(#p926b90aad2)" d="M 430.010622 380.84375 
L 436.816743 380.84375 
L 436.816743 332.793537 
L 430.010622 332.793537 
z
" style="fill:#1f77b4;opacity:0.4;"/>
   </g>
   <g id="patch_16">
    <path clip-path="url(#p926b90aad2)" d="M 436.816743 380.84375 
L 443.622864 380.84375 
L 443.622864 380.84375 
L 436.816743 380.84375 
z
" style="fill:#1f77b4;opacity:0.4;"/>
   </g>
   <g id="patch_17">
    <path clip-path="url(#p926b90aad2)" d="M 443.622864 380.84375 
L 450.428985 380.84375 
L 450.428985 380.84375 
L 443.622864 380.84375 
z
" style="fill:#1f77b4;opacity:0.4;"/>
   </g>
   <g id="patch_18">
    <path clip-path="url(#p926b90aad2)" d="M 450.428985 380.84375 
L 457.235107 380.84375 
L 457.235107 352.013622 
L 450.428985 352.013622 
z
" style="fill:#1f77b4;opacity:0.4;"/>
   </g>
   <g id="patch_19">
    <path clip-path="url(#p926b90aad2)" d="M 457.235107 380.84375 
L 464.041228 380.84375 
L 464.041228 380.84375 
L 457.235107 380.84375 
z
" style="fill:#1f77b4;opacity:0.4;"/>
   </g>
   <g id="patch_20">
    <path clip-path="url(#p926b90aad2)" d="M 464.041228 380.84375 
L 470.847349 380.84375 
L 470.847349 380.84375 
L 464.041228 380.84375 
z
" style="fill:#1f77b4;opacity:0.4;"/>
   </g>
   <g id="patch_21">
    <path clip-path="url(#p926b90aad2)" d="M 470.847349 380.84375 
L 477.65347 380.84375 
L 477.65347 380.84375 
L 470.847349 380.84375 
z
" style="fill:#1f77b4;opacity:0.4;"/>
   </g>
   <g id="patch_22">
    <path clip-path="url(#p926b90aad2)" d="M 477.65347 380.84375 
L 484.459592 380.84375 
L 484.459592 380.84375 
L 477.65347 380.84375 
z
" style="fill:#1f77b4;opacity:0.4;"/>
   </g>
   <g id="patch_23">
    <path clip-path="url(#p926b90aad2)" d="M 484.459592 380.84375 
L 491.265713 380.84375 
L 491.265713 380.84375 
L 484.459592 380.84375 
z
" style="fill:#1f77b4;opacity:0.4;"/>
   </g>
   <g id="patch_24">
    <path clip-path="url(#p926b90aad2)" d="M 491.265713 380.84375 
L 498.071834 380.84375 
L 498.071834 380.84375 
L 491.265713 380.84375 
z
" style="fill:#1f77b4;opacity:0.4;"/>
   </g>
   <g id="patch_25">
    <path clip-path="url(#p926b90aad2)" d="M 498.071834 380.84375 
L 504.877955 380.84375 
L 504.877955 380.84375 
L 498.071834 380.84375 
z
" style="fill:#1f77b4;opacity:0.4;"/>
   </g>
   <g id="patch_26">
    <path clip-path="url(#p926b90aad2)" d="M 504.877955 380.84375 
L 511.684077 380.84375 
L 511.684077 380.84375 
L 504.877955 380.84375 
z
" style="fill:#1f77b4;opacity:0.4;"/>
   </g>
   <g id="patch_27">
    <path clip-path="url(#p926b90aad2)" d="M 511.684077 380.84375 
L 518.490198 380.84375 
L 518.490198 371.233707 
L 511.684077 371.233707 
z
" style="fill:#1f77b4;opacity:0.4;"/>
   </g>
   <g id="patch_28">
    <path clip-path="url(#p926b90aad2)" d="M 382.367773 380.84375 
L 386.066752 380.84375 
L 386.066752 49.76756 
L 382.367773 49.76756 
z
" style="fill:#ff7f0e;opacity:0.4;"/>
   </g>
   <g id="patch_29">
    <path clip-path="url(#p926b90aad2)" d="M 386.066752 380.84375 
L 389.765731 380.84375 
L 389.765731 380.84375 
L 386.066752 380.84375 
z
" style="fill:#ff7f0e;opacity:0.4;"/>
   </g>
   <g id="patch_30">
    <path clip-path="url(#p926b90aad2)" d="M 389.765731 380.84375 
L 393.46471 380.84375 
L 393.46471 380.84375 
L 389.765731 380.84375 
z
" style="fill:#ff7f0e;opacity:0.4;"/>
   </g>
   <g id="patch_31">
    <path clip-path="url(#p926b90aad2)" d="M 393.46471 380.84375 
L 397.163689 380.84375 
L 397.163689 380.84375 
L 393.46471 380.84375 
z
" style="fill:#ff7f0e;opacity:0.4;"/>
   </g>
   <g id="patch_32">
    <path clip-path="url(#p926b90aad2)" d="M 397.163689 380.84375 
L 400.862667 380.84375 
L 400.862667 230.354573 
L 397.163689 230.354573 
z
" style="fill:#ff7f0e;opacity:0.4;"/>
   </g>
   <g id="patch_33">
    <path clip-path="url(#p926b90aad2)" d="M 400.862667 380.84375 
L 404.561646 380.84375 
L 404.561646 380.84375 
L 400.862667 380.84375 
z
" style="fill:#ff7f0e;opacity:0.4;"/>
   </g>
   <g id="patch_34">
    <path clip-path="url(#p926b90aad2)" d="M 404.561646 380.84375 
L 408.260625 380.84375 
L 408.260625 380.84375 
L 404.561646 380.84375 
z
" style="fill:#ff7f0e;opacity:0.4;"/>
   </g>
   <g id="patch_35">
    <path clip-path="url(#p926b90aad2)" d="M 408.260625 380.84375 
L 411.959604 380.84375 
L 411.959604 380.84375 
L 408.260625 380.84375 
z
" style="fill:#ff7f0e;opacity:0.4;"/>
   </g>
   <g id="patch_36">
    <path clip-path="url(#p926b90aad2)" d="M 411.959604 380.84375 
L 415.658583 380.84375 
L 415.658583 380.84375 
L 411.959604 380.84375 
z
" style="fill:#ff7f0e;opacity:0.4;"/>
   </g>
   <g id="patch_37">
    <path clip-path="url(#p926b90aad2)" d="M 415.658583 380.84375 
L 419.357562 380.84375 
L 419.357562 320.648079 
L 415.658583 320.648079 
z
" style="fill:#ff7f0e;opacity:0.4;"/>
   </g>
   <g id="patch_38">
    <path clip-path="url(#p926b90aad2)" d="M 419.357562 380.84375 
L 423.056541 380.84375 
L 423.056541 380.84375 
L 419.357562 380.84375 
z
" style="fill:#ff7f0e;opacity:0.4;"/>
   </g>
   <g id="patch_39">
    <path clip-path="url(#p926b90aad2)" d="M 423.056541 380.84375 
L 426.75552 380.84375 
L 426.75552 380.84375 
L 423.056541 380.84375 
z
" style="fill:#ff7f0e;opacity:0.4;"/>
   </g>
   <g id="patch_40">
    <path clip-path="url(#p926b90aad2)" d="M 426.75552 380.84375 
L 430.454499 380.84375 
L 430.454499 380.84375 
L 426.75552 380.84375 
z
" style="fill:#ff7f0e;opacity:0.4;"/>
   </g>
   <g id="patch_41">
    <path clip-path="url(#p926b90aad2)" d="M 430.454499 380.84375 
L 434.153478 380.84375 
L 434.153478 305.599161 
L 430.454499 305.599161 
z
" style="fill:#ff7f0e;opacity:0.4;"/>
   </g>
   <g id="patch_42">
    <path clip-path="url(#p926b90aad2)" d="M 434.153478 380.84375 
L 437.852457 380.84375 
L 437.852457 380.84375 
L 434.153478 380.84375 
z
" style="fill:#ff7f0e;opacity:0.4;"/>
   </g>
   <g id="patch_43">
    <path clip-path="url(#p926b90aad2)" d="M 437.852457 380.84375 
L 441.551436 380.84375 
L 441.551436 380.84375 
L 437.852457 380.84375 
z
" style="fill:#ff7f0e;opacity:0.4;"/>
   </g>
   <g id="patch_44">
    <path clip-path="url(#p926b90aad2)" d="M 441.551436 380.84375 
L 445.250415 380.84375 
L 445.250415 380.84375 
L 441.551436 380.84375 
z
" style="fill:#ff7f0e;opacity:0.4;"/>
   </g>
   <g id="patch_45">
    <path clip-path="url(#p926b90aad2)" d="M 445.250415 380.84375 
L 448.949394 380.84375 
L 448.949394 380.84375 
L 445.250415 380.84375 
z
" style="fill:#ff7f0e;opacity:0.4;"/>
   </g>
   <g id="patch_46">
    <path clip-path="url(#p926b90aad2)" d="M 448.949394 380.84375 
L 452.648373 380.84375 
L 452.648373 320.648079 
L 448.949394 320.648079 
z
" style="fill:#ff7f0e;opacity:0.4;"/>
   </g>
   <g id="patch_47">
    <path clip-path="url(#p926b90aad2)" d="M 452.648373 380.84375 
L 456.347352 380.84375 
L 456.347352 380.84375 
L 452.648373 380.84375 
z
" style="fill:#ff7f0e;opacity:0.4;"/>
   </g>
   <g id="patch_48">
    <path clip-path="url(#p926b90aad2)" d="M 456.347352 380.84375 
L 460.046331 380.84375 
L 460.046331 380.84375 
L 456.347352 380.84375 
z
" style="fill:#ff7f0e;opacity:0.4;"/>
   </g>
   <g id="patch_49">
    <path clip-path="url(#p926b90aad2)" d="M 460.046331 380.84375 
L 463.745309 380.84375 
L 463.745309 380.84375 
L 460.046331 380.84375 
z
" style="fill:#ff7f0e;opacity:0.4;"/>
   </g>
   <g id="patch_50">
    <path clip-path="url(#p926b90aad2)" d="M 463.745309 380.84375 
L 467.444288 380.84375 
L 467.444288 350.745915 
L 463.745309 350.745915 
z
" style="fill:#ff7f0e;opacity:0.4;"/>
   </g>
   <g id="matplotlib.axis_3">
    <g id="xtick_3">
     <g id="line2d_24">
      <g>
       <use style="stroke:#000000;stroke-width:0.8;" x="339.829515" xlink:href="#mc3a356a46d" y="390.84375"/>
      </g>
     </g>
     <g id="text_14">
      <text style="font-family:DejaVu Sans;font-size:10px;font-stretch:normal;font-style:normal;font-weight:normal;text-anchor:middle;" transform="rotate(-0, 339.829515, 405.442187)" x="339.829515" y="405.442187">−2.5</text>
     </g>
    </g>
    <g id="xtick_4">
     <g id="line2d_25">
      <g>
       <use style="stroke:#000000;stroke-width:0.8;" x="382.367773" xlink:href="#mc3a356a46d" y="390.84375"/>
      </g>
     </g>
     <g id="text_15">
      <text style="font-family:DejaVu Sans;font-size:10px;font-stretch:normal;font-style:normal;font-weight:normal;text-anchor:middle;" transform="rotate(-0, 382.367773, 405.442187)" x="382.367773" y="405.442187">0.0</text>
     </g>
    </g>
    <g id="xtick_5">
     <g id="line2d_26">
      <g>
       <use style="stroke:#000000;stroke-width:0.8;" x="424.906031" xlink:href="#mc3a356a46d" y="390.84375"/>
      </g>
     </g>
     <g id="text_16">
      <text style="font-family:DejaVu Sans;font-size:10px;font-stretch:normal;font-style:normal;font-weight:normal;text-anchor:middle;" transform="rotate(-0, 424.906031, 405.442187)" x="424.906031" y="405.442187">2.5</text>
     </g>
    </g>
    <g id="xtick_6">
     <g id="line2d_27">
      <g>
       <use style="stroke:#000000;stroke-width:0.8;" x="467.444288" xlink:href="#mc3a356a46d" y="390.84375"/>
      </g>
     </g>
     <g id="text_17">
      <text style="font-family:DejaVu Sans;font-size:10px;font-stretch:normal;font-style:normal;font-weight:normal;text-anchor:middle;" transform="rotate(-0, 467.444288, 405.442187)" x="467.444288" y="405.442187">5.0</text>
     </g>
    </g>
    <g id="xtick_7">
     <g id="line2d_28">
      <g>
       <use style="stroke:#000000;stroke-width:0.8;" x="509.982546" xlink:href="#mc3a356a46d" y="390.84375"/>
      </g>
     </g>
     <g id="text_18">
      <text style="font-family:DejaVu Sans;font-size:10px;font-stretch:normal;font-style:normal;font-weight:normal;text-anchor:middle;" transform="rotate(-0, 509.982546, 405.442187)" x="509.982546" y="405.442187">7.5</text>
     </g>
    </g>
    <g id="xtick_8">
     <g id="line2d_29">
      <g>
       <use style="stroke:#000000;stroke-width:0.8;" x="552.520804" xlink:href="#mc3a356a46d" y="390.84375"/>
      </g>
     </g>
     <g id="text_19">
      <text style="font-family:DejaVu Sans;font-size:10px;font-stretch:normal;font-style:normal;font-weight:normal;text-anchor:middle;" transform="rotate(-0, 552.520804, 405.442187)" x="552.520804" y="405.442187">10.0</text>
     </g>
    </g>
    <g id="text_20">
     <text style="font-family:DejaVu Sans;font-size:10px;font-stretch:normal;font-style:normal;font-weight:normal;text-anchor:middle;" transform="rotate(-0, 450.205469, 419.120313)" x="450.205469" y="419.120313">Value</text>
    </g>
   </g>
   <g id="matplotlib.axis_4">
    <g id="ytick_10">
     <g id="line2d_30">
      <g>
       <use style="stroke:#000000;stroke-width:0.8;" x="325.210938" xlink:href="#m82278324de" y="380.84375"/>
      </g>
     </g>
     <g id="text_21">
      <text style="font-family:DejaVu Sans;font-size:10px;font-stretch:normal;font-style:normal;font-weight:normal;text-anchor:end;" transform="rotate(-0, 318.210938, 384.642969)" x="318.210938" y="384.642969">0.0</text>
     </g>
    </g>
    <g id="ytick_11">
     <g id="line2d_31">
      <g>
       <use style="stroke:#000000;stroke-width:0.8;" x="325.210938" xlink:href="#m82278324de" y="303.963409"/>
      </g>
     </g>
     <g id="text_22">
      <text style="font-family:DejaVu Sans;font-size:10px;font-stretch:normal;font-style:normal;font-weight:normal;text-anchor:end;" transform="rotate(-0, 318.210938, 307.762628)" x="318.210938" y="307.762628">0.5</text>
     </g>
    </g>
    <g id="ytick_12">
     <g id="line2d_32">
      <g>
       <use style="stroke:#000000;stroke-width:0.8;" x="325.210938" xlink:href="#m82278324de" y="227.083069"/>
      </g>
     </g>
     <g id="text_23">
      <text style="font-family:DejaVu Sans;font-size:10px;font-stretch:normal;font-style:normal;font-weight:normal;text-anchor:end;" transform="rotate(-0, 318.210938, 230.882287)" x="318.210938" y="230.882287">1.0</text>
     </g>
    </g>
    <g id="ytick_13">
     <g id="line2d_33">
      <g>
       <use style="stroke:#000000;stroke-width:0.8;" x="325.210938" xlink:href="#m82278324de" y="150.202728"/>
      </g>
     </g>
     <g id="text_24">
      <text style="font-family:DejaVu Sans;font-size:10px;font-stretch:normal;font-style:normal;font-weight:normal;text-anchor:end;" transform="rotate(-0, 318.210938, 154.001947)" x="318.210938" y="154.001947">1.5</text>
     </g>
    </g>
    <g id="ytick_14">
     <g id="line2d_34">
      <g>
       <use style="stroke:#000000;stroke-width:0.8;" x="325.210938" xlink:href="#m82278324de" y="73.322387"/>
      </g>
     </g>
     <g id="text_25">
      <text style="font-family:DejaVu Sans;font-size:10px;font-stretch:normal;font-style:normal;font-weight:normal;text-anchor:end;" transform="rotate(-0, 318.210938, 77.121606)" x="318.210938" y="77.121606">2.0</text>
     </g>
    </g>
    <g id="text_26">
     <text style="font-family:DejaVu Sans;font-size:10px;font-stretch:normal;font-style:normal;font-weight:normal;text-anchor:middle;" transform="rotate(-90, 296.228125, 207.02875)" x="296.228125" y="207.02875">Density</text>
    </g>
   </g>
   <g id="line2d_35">
    <path clip-path="url(#p926b90aad2)" d="M 346.112019 380.689146 
L 350.305666 380.427448 
L 353.450901 380.033841 
L 356.596136 379.368439 
L 358.69296 378.721581 
L 360.789783 377.877409 
L 362.886606 376.813291 
L 364.98343 375.51818 
L 367.080253 373.996921 
L 370.225489 371.347605 
L 374.419135 367.392228 
L 378.612782 363.436101 
L 381.758017 360.749162 
L 384.903253 358.39163 
L 389.0969 355.609679 
L 393.290546 352.754266 
L 395.38737 351.102649 
L 397.484193 349.22248 
L 399.581017 347.094369 
L 402.726252 343.506751 
L 407.968311 337.342661 
L 410.065134 335.282077 
L 411.113546 334.430209 
L 412.161957 333.725733 
L 413.210369 333.187177 
L 414.258781 332.829991 
L 415.307193 332.665959 
L 416.355604 332.702763 
L 417.404016 332.943691 
L 418.452428 333.387526 
L 419.500839 334.028614 
L 420.549251 334.857101 
L 421.597663 335.859332 
L 423.694486 338.314725 
L 425.79131 341.232257 
L 429.984957 347.733365 
L 433.130192 352.555454 
L 436.275427 356.910984 
L 438.37225 359.468387 
L 440.469074 361.739927 
L 442.565897 363.74753 
L 445.711133 366.348801 
L 448.856368 368.591191 
L 453.050015 371.241252 
L 457.243661 373.644629 
L 461.437308 375.794407 
L 464.582544 377.179265 
L 467.727779 378.321668 
L 470.873014 379.204016 
L 474.018249 379.838616 
L 477.163484 380.261251 
L 481.357131 380.575322 
L 486.59919 380.703173 
L 492.88966 380.601154 
L 498.131719 380.318592 
L 504.422189 379.746883 
L 513.857895 378.837535 
L 518.051541 378.686038 
L 522.245188 378.786363 
L 527.487247 379.207197 
L 540.068188 380.405193 
L 546.358658 380.69254 
L 554.745952 380.819764 
L 554.745952 380.819764 
" style="fill:none;stroke:#1f77b4;stroke-linecap:square;stroke-width:1.5;"/>
   </g>
   <g id="line2d_36">
    <path clip-path="url(#p926b90aad2)" d="M 345.664986 380.398942 
L 348.054163 380.059082 
L 350.44334 379.510998 
L 352.832517 378.66405 
L 354.425302 377.880758 
L 356.018087 376.882749 
L 357.610872 375.636121 
L 359.203657 374.109958 
L 360.796442 372.279442 
L 362.389226 370.129261 
L 363.982011 367.657008 
L 366.371188 363.379257 
L 368.760366 358.53482 
L 376.72429 341.635912 
L 378.317075 338.860304 
L 379.909859 336.507812 
L 381.502644 334.645453 
L 383.095429 333.317307 
L 383.891821 332.860514 
L 384.688214 332.542451 
L 385.484606 332.361614 
L 386.280999 332.315064 
L 387.077391 332.398533 
L 387.873784 332.606563 
L 389.466568 333.369423 
L 391.059353 334.542104 
L 392.652138 336.054447 
L 395.041315 338.799181 
L 398.226885 342.980607 
L 403.801632 350.467693 
L 406.987201 354.312994 
L 409.376379 356.847754 
L 411.765556 359.037005 
L 414.154733 360.862189 
L 416.54391 362.324633 
L 418.933088 363.444744 
L 421.322265 364.260303 
L 423.711442 364.823155 
L 426.897012 365.286448 
L 431.675366 365.667165 
L 438.046505 366.201212 
L 442.028467 366.75419 
L 446.010429 367.51648 
L 449.992391 368.480707 
L 454.770746 369.871864 
L 460.345493 371.731912 
L 477.069733 377.48596 
L 481.051695 378.566717 
L 485.033658 379.418036 
L 489.01562 380.026094 
L 492.997582 380.41676 
L 497.775936 380.671711 
L 504.147075 380.802947 
L 504.147075 380.802947 
" style="fill:none;stroke:#ff7f0e;stroke-linecap:square;stroke-width:1.5;"/>
   </g>
   <g id="patch_51">
    <path d="M 325.210938 380.84375 
L 325.210938 73.322387 
" style="fill:none;stroke:#000000;stroke-linecap:square;stroke-linejoin:miter;stroke-width:0.8;"/>
   </g>
   <g id="patch_52">
    <path d="M 339.829515 390.84375 
L 552.520804 390.84375 
" style="fill:none;stroke:#000000;stroke-linecap:square;stroke-linejoin:miter;stroke-width:0.8;"/>
   </g>
   <g id="legend_1">
    <g id="patch_53">
     <path d="M 500.75 70.57 
L 558.2 70.57 
Q 560.2 70.57 560.2 68.57 
L 560.2 40.21375 
Q 560.2 38.21375 558.2 38.21375 
L 500.75 38.21375 
Q 498.75 38.21375 498.75 40.21375 
L 498.75 68.57 
Q 498.75 70.57 500.75 70.57 
z
" style="fill:#ffffff;opacity:0.8;stroke:#cccccc;stroke-linejoin:miter;"/>
    </g>
    <g id="patch_54">
     <path d="M 502.75 49.812187 
L 522.75 49.812187 
L 522.75 42.812187 
L 502.75 42.812187 
z
" style="fill:#1f77b4;opacity:0.4;"/>
    </g>
    <g id="text_27">
     <text style="font-family:DejaVu Sans;font-size:10px;font-stretch:normal;font-style:normal;font-weight:normal;text-anchor:start;" transform="rotate(-0, 530.75, 49.812187)" x="530.75" y="49.812187">2017</text>
    </g>
    <g id="patch_55">
     <path d="M 502.75 64.490313 
L 522.75 64.490313 
L 522.75 57.490313 
L 502.75 57.490313 
z
" style="fill:#ff7f0e;opacity:0.4;"/>
    </g>
    <g id="text_28">
     <text style="font-family:DejaVu Sans;font-size:10px;font-stretch:normal;font-style:normal;font-weight:normal;text-anchor:start;" transform="rotate(-0, 530.75, 64.490313)" x="530.75" y="64.490313">2018</text>
    </g>
   </g>
  </g>
  <g id="text_29">
   <text style="font-family:DejaVu Sans;font-size:12px;font-stretch:normal;font-style:normal;font-weight:normal;text-anchor:middle;" transform="rotate(-0, 288, 17.758125)" x="288" y="17.758125">Number of time per year providing training for Netherlands (without 95 percentile)</text>
  </g>
 </g>
 <defs>
  <clipPath id="p83839e3b45">
   <rect height="347.63" width="229.989063" x="47.840625" y="33.21375"/>
  </clipPath>
  <clipPath id="p926b90aad2">
   <rect height="347.63" width="229.989062" x="335.210938" y="33.21375"/>
  </clipPath>
 </defs>
</svg>
