<?xml version="1.0" encoding="utf-8" standalone="no"?>
<!DOCTYPE svg PUBLIC "-//W3C//DTD SVG 1.1//EN"
  "http://www.w3.org/Graphics/SVG/1.1/DTD/svg11.dtd">
<svg height="432pt" version="1.1" viewBox="0 0 576 432" width="576pt" xmlns="http://www.w3.org/2000/svg" xmlns:xlink="http://www.w3.org/1999/xlink">
 <metadata>
  <rdf:RDF xmlns:cc="http://creativecommons.org/ns#" xmlns:dc="http://purl.org/dc/elements/1.1/" xmlns:rdf="http://www.w3.org/1999/02/22-rdf-syntax-ns#">
   <cc:Work>
    <dc:type rdf:resource="http://purl.org/dc/dcmitype/StillImage"/>
    <dc:date>2021-08-04T21:02:39.015681</dc:date>
    <dc:format>image/svg+xml</dc:format>
    <dc:creator>
     <cc:Agent>
      <dc:title>Matplotlib v3.4.2, https://matplotlib.org/</dc:title>
     </cc:Agent>
    </dc:creator>
   </cc:Work>
  </rdf:RDF>
 </metadata>
 <defs>
  <style type="text/css">*{stroke-linecap:butt;stroke-linejoin:round;}</style>
 </defs>
 <g id="figure_1">
  <g id="patch_1">
   <path d="M 0 432 
L 576 432 
L 576 0 
L 0 0 
z
" style="fill:#ffffff;"/>
  </g>
  <g id="axes_1">
   <g id="patch_2">
    <path d="M 46.50625 381.909375 
L 279.819531 381.909375 
L 279.819531 32.86125 
L 46.50625 32.86125 
z
" style="fill:#ffffff;"/>
   </g>
   <g id="patch_3">
    <path clip-path="url(#pa42751fb28)" d="M 58.171914 326.378991 
L 151.497227 326.378991 
L 151.497227 286.714432 
L 58.171914 286.714432 
L 58.171914 326.378991 
z
" style="fill:#3274a1;stroke:#3f3f3f;stroke-linejoin:miter;stroke-width:1.5;"/>
   </g>
   <g id="patch_4">
    <path clip-path="url(#pa42751fb28)" d="M 174.828555 366.043551 
L 268.153867 366.043551 
L 268.153867 286.714432 
L 174.828555 286.714432 
L 174.828555 366.043551 
z
" style="fill:#e1812c;stroke:#3f3f3f;stroke-linejoin:miter;stroke-width:1.5;"/>
   </g>
   <g id="matplotlib.axis_1">
    <g id="xtick_1">
     <g id="line2d_1">
      <defs>
       <path d="M 0 0 
L 0 3.5 
" id="mc3a356a46d" style="stroke:#000000;stroke-width:0.8;"/>
      </defs>
      <g>
       <use style="stroke:#000000;stroke-width:0.8;" x="104.83457" xlink:href="#mc3a356a46d" y="391.909375"/>
      </g>
     </g>
     <g id="text_1">
      <text style="font-family:Arial;font-size:10px;font-stretch:normal;font-style:normal;font-weight:normal;text-anchor:middle;" transform="rotate(-0, 104.83457, 406.067187)" x="104.83457" y="406.067187">2017</text>
     </g>
    </g>
    <g id="xtick_2">
     <g id="line2d_2">
      <g>
       <use style="stroke:#000000;stroke-width:0.8;" x="221.491211" xlink:href="#mc3a356a46d" y="391.909375"/>
      </g>
     </g>
     <g id="text_2">
      <text style="font-family:Arial;font-size:10px;font-stretch:normal;font-style:normal;font-weight:normal;text-anchor:middle;" transform="rotate(-0, 221.491211, 406.067187)" x="221.491211" y="406.067187">2018</text>
     </g>
    </g>
    <g id="text_3">
     <text style="font-family:Arial;font-size:10px;font-stretch:normal;font-style:normal;font-weight:normal;text-anchor:middle;" transform="rotate(-0, 163.162891, 419.2125)" x="163.162891" y="419.2125">Year</text>
    </g>
   </g>
   <g id="matplotlib.axis_2">
    <g id="ytick_1">
     <g id="line2d_3">
      <defs>
       <path d="M 0 0 
L -3.5 0 
" id="m82278324de" style="stroke:#000000;stroke-width:0.8;"/>
      </defs>
      <g>
       <use style="stroke:#000000;stroke-width:0.8;" x="36.50625" xlink:href="#m82278324de" y="366.043551"/>
      </g>
     </g>
     <g id="text_4">
      <text style="font-family:Arial;font-size:10px;font-stretch:normal;font-style:normal;font-weight:normal;text-anchor:end;" transform="rotate(-0, 29.50625, 369.622457)" x="29.50625" y="369.622457">0</text>
     </g>
    </g>
    <g id="ytick_2">
     <g id="line2d_4">
      <g>
       <use style="stroke:#000000;stroke-width:0.8;" x="36.50625" xlink:href="#m82278324de" y="326.378991"/>
      </g>
     </g>
     <g id="text_5">
      <text style="font-family:Arial;font-size:10px;font-stretch:normal;font-style:normal;font-weight:normal;text-anchor:end;" transform="rotate(-0, 29.50625, 329.957898)" x="29.50625" y="329.957898">1</text>
     </g>
    </g>
    <g id="ytick_3">
     <g id="line2d_5">
      <g>
       <use style="stroke:#000000;stroke-width:0.8;" x="36.50625" xlink:href="#m82278324de" y="286.714432"/>
      </g>
     </g>
     <g id="text_6">
      <text style="font-family:Arial;font-size:10px;font-stretch:normal;font-style:normal;font-weight:normal;text-anchor:end;" transform="rotate(-0, 29.50625, 290.293338)" x="29.50625" y="290.293338">2</text>
     </g>
    </g>
    <g id="ytick_4">
     <g id="line2d_6">
      <g>
       <use style="stroke:#000000;stroke-width:0.8;" x="36.50625" xlink:href="#m82278324de" y="247.049872"/>
      </g>
     </g>
     <g id="text_7">
      <text style="font-family:Arial;font-size:10px;font-stretch:normal;font-style:normal;font-weight:normal;text-anchor:end;" transform="rotate(-0, 29.50625, 250.628778)" x="29.50625" y="250.628778">3</text>
     </g>
    </g>
    <g id="ytick_5">
     <g id="line2d_7">
      <g>
       <use style="stroke:#000000;stroke-width:0.8;" x="36.50625" xlink:href="#m82278324de" y="207.385313"/>
      </g>
     </g>
     <g id="text_8">
      <text style="font-family:Arial;font-size:10px;font-stretch:normal;font-style:normal;font-weight:normal;text-anchor:end;" transform="rotate(-0, 29.50625, 210.964219)" x="29.50625" y="210.964219">4</text>
     </g>
    </g>
    <g id="ytick_6">
     <g id="line2d_8">
      <g>
       <use style="stroke:#000000;stroke-width:0.8;" x="36.50625" xlink:href="#m82278324de" y="167.720753"/>
      </g>
     </g>
     <g id="text_9">
      <text style="font-family:Arial;font-size:10px;font-stretch:normal;font-style:normal;font-weight:normal;text-anchor:end;" transform="rotate(-0, 29.50625, 171.299659)" x="29.50625" y="171.299659">5</text>
     </g>
    </g>
    <g id="ytick_7">
     <g id="line2d_9">
      <g>
       <use style="stroke:#000000;stroke-width:0.8;" x="36.50625" xlink:href="#m82278324de" y="128.056193"/>
      </g>
     </g>
     <g id="text_10">
      <text style="font-family:Arial;font-size:10px;font-stretch:normal;font-style:normal;font-weight:normal;text-anchor:end;" transform="rotate(-0, 29.50625, 131.635099)" x="29.50625" y="131.635099">6</text>
     </g>
    </g>
    <g id="ytick_8">
     <g id="line2d_10">
      <g>
       <use style="stroke:#000000;stroke-width:0.8;" x="36.50625" xlink:href="#m82278324de" y="88.391634"/>
      </g>
     </g>
     <g id="text_11">
      <text style="font-family:Arial;font-size:10px;font-stretch:normal;font-style:normal;font-weight:normal;text-anchor:end;" transform="rotate(-0, 29.50625, 91.97054)" x="29.50625" y="91.97054">7</text>
     </g>
    </g>
    <g id="ytick_9">
     <g id="line2d_11">
      <g>
       <use style="stroke:#000000;stroke-width:0.8;" x="36.50625" xlink:href="#m82278324de" y="48.727074"/>
      </g>
     </g>
     <g id="text_12">
      <text style="font-family:Arial;font-size:10px;font-stretch:normal;font-style:normal;font-weight:normal;text-anchor:end;" transform="rotate(-0, 29.50625, 52.30598)" x="29.50625" y="52.30598">8</text>
     </g>
    </g>
    <g id="text_13">
     <text style="font-family:Arial;font-size:10px;font-stretch:normal;font-style:normal;font-weight:normal;text-anchor:middle;" transform="rotate(-90, 17.957812, 207.385312)" x="17.957812" y="207.385312">Value</text>
    </g>
   </g>
   <g id="line2d_12">
    <path clip-path="url(#pa42751fb28)" d="M 104.83457 326.378991 
L 104.83457 366.043551 
" style="fill:none;stroke:#3f3f3f;stroke-linecap:square;stroke-width:1.5;"/>
   </g>
   <g id="line2d_13">
    <path clip-path="url(#pa42751fb28)" d="M 104.83457 286.714432 
L 104.83457 247.049872 
" style="fill:none;stroke:#3f3f3f;stroke-linecap:square;stroke-width:1.5;"/>
   </g>
   <g id="line2d_14">
    <path clip-path="url(#pa42751fb28)" d="M 81.503242 366.043551 
L 128.165898 366.043551 
" style="fill:none;stroke:#3f3f3f;stroke-linecap:square;stroke-width:1.5;"/>
   </g>
   <g id="line2d_15">
    <path clip-path="url(#pa42751fb28)" d="M 81.503242 247.049872 
L 128.165898 247.049872 
" style="fill:none;stroke:#3f3f3f;stroke-linecap:square;stroke-width:1.5;"/>
   </g>
   <g id="line2d_16">
    <defs>
     <path d="M -0 3.535534 
L 2.12132 0 
L -0 -3.535534 
L -2.12132 -0 
z
" id="m226ab95657" style="stroke:#3f3f3f;stroke-linejoin:miter;"/>
    </defs>
    <g clip-path="url(#pa42751fb28)">
     <use style="fill:#3f3f3f;stroke:#3f3f3f;stroke-linejoin:miter;" x="104.83457" xlink:href="#m226ab95657" y="207.385313"/>
     <use style="fill:#3f3f3f;stroke:#3f3f3f;stroke-linejoin:miter;" x="104.83457" xlink:href="#m226ab95657" y="207.385313"/>
     <use style="fill:#3f3f3f;stroke:#3f3f3f;stroke-linejoin:miter;" x="104.83457" xlink:href="#m226ab95657" y="48.727074"/>
     <use style="fill:#3f3f3f;stroke:#3f3f3f;stroke-linejoin:miter;" x="104.83457" xlink:href="#m226ab95657" y="207.385313"/>
    </g>
   </g>
   <g id="line2d_17">
    <path clip-path="url(#pa42751fb28)" d="M 221.491211 366.043551 
L 221.491211 366.043551 
" style="fill:none;stroke:#3f3f3f;stroke-linecap:square;stroke-width:1.5;"/>
   </g>
   <g id="line2d_18">
    <path clip-path="url(#pa42751fb28)" d="M 221.491211 286.714432 
L 221.491211 167.720753 
" style="fill:none;stroke:#3f3f3f;stroke-linecap:square;stroke-width:1.5;"/>
   </g>
   <g id="line2d_19">
    <path clip-path="url(#pa42751fb28)" d="M 198.159883 366.043551 
L 244.822539 366.043551 
" style="fill:none;stroke:#3f3f3f;stroke-linecap:square;stroke-width:1.5;"/>
   </g>
   <g id="line2d_20">
    <path clip-path="url(#pa42751fb28)" d="M 198.159883 167.720753 
L 244.822539 167.720753 
" style="fill:none;stroke:#3f3f3f;stroke-linecap:square;stroke-width:1.5;"/>
   </g>
   <g id="line2d_21"/>
   <g id="line2d_22">
    <path clip-path="url(#pa42751fb28)" d="M 58.171914 286.714432 
L 151.497227 286.714432 
" style="fill:none;stroke:#3f3f3f;stroke-linecap:square;stroke-width:1.5;"/>
   </g>
   <g id="line2d_23">
    <path clip-path="url(#pa42751fb28)" d="M 174.828555 326.378991 
L 268.153867 326.378991 
" style="fill:none;stroke:#3f3f3f;stroke-linecap:square;stroke-width:1.5;"/>
   </g>
   <g id="patch_5">
    <path d="M 36.50625 366.043551 
L 36.50625 48.727074 
" style="fill:none;stroke:#000000;stroke-linecap:square;stroke-linejoin:miter;stroke-width:0.8;"/>
   </g>
   <g id="patch_6">
    <path d="M 104.83457 391.909375 
L 221.491211 391.909375 
" style="fill:none;stroke:#000000;stroke-linecap:square;stroke-linejoin:miter;stroke-width:0.8;"/>
   </g>
   <g id="PathCollection_1">
    <defs>
     <path d="M 0 2.5 
C 0.663008 2.5 1.29895 2.236584 1.767767 1.767767 
C 2.236584 1.29895 2.5 0.663008 2.5 -0 
C 2.5 -0.663008 2.236584 -1.29895 1.767767 -1.767767 
C 1.29895 -2.236584 0.663008 -2.5 0 -2.5 
C -0.663008 -2.5 -1.29895 -2.236584 -1.767767 -1.767767 
C -2.236584 -1.29895 -2.5 -0.663008 -2.5 0 
C -2.5 0.663008 -2.236584 1.29895 -1.767767 1.767767 
C -1.29895 2.236584 -0.663008 2.5 0 2.5 
z
" id="C0_0_77057b9605"/>
    </defs>
    <g clip-path="url(#pa42751fb28)">
     <use style="fill:#808080;fill-opacity:0.75;" x="104.83457" xlink:href="#C0_0_77057b9605" y="366.043551"/>
    </g>
    <g clip-path="url(#pa42751fb28)">
     <use style="fill:#808080;fill-opacity:0.75;" x="98.797903" xlink:href="#C0_0_77057b9605" y="366.043551"/>
    </g>
    <g clip-path="url(#pa42751fb28)">
     <use style="fill:#808080;fill-opacity:0.75;" x="110.871238" xlink:href="#C0_0_77057b9605" y="366.043551"/>
    </g>
    <g clip-path="url(#pa42751fb28)">
     <use style="fill:#808080;fill-opacity:0.75;" x="92.761235" xlink:href="#C0_0_77057b9605" y="366.043551"/>
    </g>
    <g clip-path="url(#pa42751fb28)">
     <use style="fill:#808080;fill-opacity:0.75;" x="116.907905" xlink:href="#C0_0_77057b9605" y="366.043551"/>
    </g>
    <g clip-path="url(#pa42751fb28)">
     <use style="fill:#808080;fill-opacity:0.75;" x="86.724568" xlink:href="#C0_0_77057b9605" y="366.043551"/>
    </g>
    <g clip-path="url(#pa42751fb28)">
     <use style="fill:#808080;fill-opacity:0.75;" x="104.83457" xlink:href="#C0_0_77057b9605" y="358.110639"/>
    </g>
    <g clip-path="url(#pa42751fb28)">
     <use style="fill:#808080;fill-opacity:0.75;" x="104.83457" xlink:href="#C0_0_77057b9605" y="326.378991"/>
    </g>
    <g clip-path="url(#pa42751fb28)">
     <use style="fill:#808080;fill-opacity:0.75;" x="98.797903" xlink:href="#C0_0_77057b9605" y="326.378991"/>
    </g>
    <g clip-path="url(#pa42751fb28)">
     <use style="fill:#808080;fill-opacity:0.75;" x="110.871238" xlink:href="#C0_0_77057b9605" y="326.378991"/>
    </g>
    <g clip-path="url(#pa42751fb28)">
     <use style="fill:#808080;fill-opacity:0.75;" x="92.761235" xlink:href="#C0_0_77057b9605" y="326.378991"/>
    </g>
    <g clip-path="url(#pa42751fb28)">
     <use style="fill:#808080;fill-opacity:0.75;" x="116.907905" xlink:href="#C0_0_77057b9605" y="326.378991"/>
    </g>
    <g clip-path="url(#pa42751fb28)">
     <use style="fill:#808080;fill-opacity:0.75;" x="86.724568" xlink:href="#C0_0_77057b9605" y="326.378991"/>
    </g>
    <g clip-path="url(#pa42751fb28)">
     <use style="fill:#808080;fill-opacity:0.75;" x="104.83457" xlink:href="#C0_0_77057b9605" y="286.714432"/>
    </g>
    <g clip-path="url(#pa42751fb28)">
     <use style="fill:#808080;fill-opacity:0.75;" x="98.797903" xlink:href="#C0_0_77057b9605" y="286.714432"/>
    </g>
    <g clip-path="url(#pa42751fb28)">
     <use style="fill:#808080;fill-opacity:0.75;" x="110.871238" xlink:href="#C0_0_77057b9605" y="286.714432"/>
    </g>
    <g clip-path="url(#pa42751fb28)">
     <use style="fill:#808080;fill-opacity:0.75;" x="92.761235" xlink:href="#C0_0_77057b9605" y="286.714432"/>
    </g>
    <g clip-path="url(#pa42751fb28)">
     <use style="fill:#808080;fill-opacity:0.75;" x="116.907905" xlink:href="#C0_0_77057b9605" y="286.714432"/>
    </g>
    <g clip-path="url(#pa42751fb28)">
     <use style="fill:#808080;fill-opacity:0.75;" x="86.724568" xlink:href="#C0_0_77057b9605" y="286.714432"/>
    </g>
    <g clip-path="url(#pa42751fb28)">
     <use style="fill:#808080;fill-opacity:0.75;" x="122.944573" xlink:href="#C0_0_77057b9605" y="286.714432"/>
    </g>
    <g clip-path="url(#pa42751fb28)">
     <use style="fill:#808080;fill-opacity:0.75;" x="80.6879" xlink:href="#C0_0_77057b9605" y="286.714432"/>
    </g>
    <g clip-path="url(#pa42751fb28)">
     <use style="fill:#808080;fill-opacity:0.75;" x="128.981241" xlink:href="#C0_0_77057b9605" y="286.714432"/>
    </g>
    <g clip-path="url(#pa42751fb28)">
     <use style="fill:#808080;fill-opacity:0.75;" x="74.651233" xlink:href="#C0_0_77057b9605" y="286.714432"/>
    </g>
    <g clip-path="url(#pa42751fb28)">
     <use style="fill:#808080;fill-opacity:0.75;" x="135.017908" xlink:href="#C0_0_77057b9605" y="286.714432"/>
    </g>
    <g clip-path="url(#pa42751fb28)">
     <use style="fill:#808080;fill-opacity:0.75;" x="141.054576" xlink:href="#C0_0_77057b9605" y="286.714432"/>
    </g>
    <g clip-path="url(#pa42751fb28)">
     <use style="fill:#808080;fill-opacity:0.75;" x="68.614565" xlink:href="#C0_0_77057b9605" y="286.714432"/>
    </g>
    <g clip-path="url(#pa42751fb28)">
     <use style="fill:#808080;fill-opacity:0.75;" x="147.091243" xlink:href="#C0_0_77057b9605" y="286.714432"/>
    </g>
    <g clip-path="url(#pa42751fb28)">
     <use style="fill:#808080;fill-opacity:0.75;" x="62.577897" xlink:href="#C0_0_77057b9605" y="286.714432"/>
    </g>
    <g clip-path="url(#pa42751fb28)">
     <use style="fill:#808080;fill-opacity:0.75;" x="151.497227" xlink:href="#C0_0_77057b9605" y="286.714432"/>
    </g>
    <g clip-path="url(#pa42751fb28)">
     <use style="fill:#808080;fill-opacity:0.75;" x="58.171914" xlink:href="#C0_0_77057b9605" y="286.714432"/>
    </g>
    <g clip-path="url(#pa42751fb28)">
     <use style="fill:#808080;fill-opacity:0.75;" x="151.497227" xlink:href="#C0_0_77057b9605" y="286.714432"/>
    </g>
    <g clip-path="url(#pa42751fb28)">
     <use style="fill:#808080;fill-opacity:0.75;" x="104.83457" xlink:href="#C0_0_77057b9605" y="247.049872"/>
    </g>
    <g clip-path="url(#pa42751fb28)">
     <use style="fill:#808080;fill-opacity:0.75;" x="98.797903" xlink:href="#C0_0_77057b9605" y="247.049872"/>
    </g>
    <g clip-path="url(#pa42751fb28)">
     <use style="fill:#808080;fill-opacity:0.75;" x="110.871238" xlink:href="#C0_0_77057b9605" y="247.049872"/>
    </g>
    <g clip-path="url(#pa42751fb28)">
     <use style="fill:#808080;fill-opacity:0.75;" x="92.761235" xlink:href="#C0_0_77057b9605" y="247.049872"/>
    </g>
    <g clip-path="url(#pa42751fb28)">
     <use style="fill:#808080;fill-opacity:0.75;" x="116.907905" xlink:href="#C0_0_77057b9605" y="247.049872"/>
    </g>
    <g clip-path="url(#pa42751fb28)">
     <use style="fill:#808080;fill-opacity:0.75;" x="104.83457" xlink:href="#C0_0_77057b9605" y="207.385312"/>
    </g>
    <g clip-path="url(#pa42751fb28)">
     <use style="fill:#808080;fill-opacity:0.75;" x="98.797903" xlink:href="#C0_0_77057b9605" y="207.385312"/>
    </g>
    <g clip-path="url(#pa42751fb28)">
     <use style="fill:#808080;fill-opacity:0.75;" x="110.871238" xlink:href="#C0_0_77057b9605" y="207.385312"/>
    </g>
    <g clip-path="url(#pa42751fb28)">
     <use style="fill:#808080;fill-opacity:0.75;" x="104.83457" xlink:href="#C0_0_77057b9605" y="48.727074"/>
    </g>
   </g>
   <g id="PathCollection_2">
    <defs>
     <path d="M 0 2.5 
C 0.663008 2.5 1.29895 2.236584 1.767767 1.767767 
C 2.236584 1.29895 2.5 0.663008 2.5 -0 
C 2.5 -0.663008 2.236584 -1.29895 1.767767 -1.767767 
C 1.29895 -2.236584 0.663008 -2.5 0 -2.5 
C -0.663008 -2.5 -1.29895 -2.236584 -1.767767 -1.767767 
C -2.236584 -1.29895 -2.5 -0.663008 -2.5 0 
C -2.5 0.663008 -2.236584 1.29895 -1.767767 1.767767 
C -1.29895 2.236584 -0.663008 2.5 0 2.5 
z
" id="C1_0_77057b9605"/>
    </defs>
    <g clip-path="url(#pa42751fb28)">
     <use style="fill:#808080;fill-opacity:0.75;" x="221.491211" xlink:href="#C1_0_77057b9605" y="366.043551"/>
    </g>
    <g clip-path="url(#pa42751fb28)">
     <use style="fill:#808080;fill-opacity:0.75;" x="215.454543" xlink:href="#C1_0_77057b9605" y="366.043551"/>
    </g>
    <g clip-path="url(#pa42751fb28)">
     <use style="fill:#808080;fill-opacity:0.75;" x="227.527878" xlink:href="#C1_0_77057b9605" y="366.043551"/>
    </g>
    <g clip-path="url(#pa42751fb28)">
     <use style="fill:#808080;fill-opacity:0.75;" x="209.417876" xlink:href="#C1_0_77057b9605" y="366.043551"/>
    </g>
    <g clip-path="url(#pa42751fb28)">
     <use style="fill:#808080;fill-opacity:0.75;" x="233.564546" xlink:href="#C1_0_77057b9605" y="366.043551"/>
    </g>
    <g clip-path="url(#pa42751fb28)">
     <use style="fill:#808080;fill-opacity:0.75;" x="203.381208" xlink:href="#C1_0_77057b9605" y="366.043551"/>
    </g>
    <g clip-path="url(#pa42751fb28)">
     <use style="fill:#808080;fill-opacity:0.75;" x="239.601214" xlink:href="#C1_0_77057b9605" y="366.043551"/>
    </g>
    <g clip-path="url(#pa42751fb28)">
     <use style="fill:#808080;fill-opacity:0.75;" x="197.344541" xlink:href="#C1_0_77057b9605" y="366.043551"/>
    </g>
    <g clip-path="url(#pa42751fb28)">
     <use style="fill:#808080;fill-opacity:0.75;" x="245.637881" xlink:href="#C1_0_77057b9605" y="366.043551"/>
    </g>
    <g clip-path="url(#pa42751fb28)">
     <use style="fill:#808080;fill-opacity:0.75;" x="191.307873" xlink:href="#C1_0_77057b9605" y="366.043551"/>
    </g>
    <g clip-path="url(#pa42751fb28)">
     <use style="fill:#808080;fill-opacity:0.75;" x="251.674549" xlink:href="#C1_0_77057b9605" y="366.043551"/>
    </g>
    <g clip-path="url(#pa42751fb28)">
     <use style="fill:#808080;fill-opacity:0.75;" x="185.271206" xlink:href="#C1_0_77057b9605" y="366.043551"/>
    </g>
    <g clip-path="url(#pa42751fb28)">
     <use style="fill:#808080;fill-opacity:0.75;" x="257.711216" xlink:href="#C1_0_77057b9605" y="366.043551"/>
    </g>
    <g clip-path="url(#pa42751fb28)">
     <use style="fill:#808080;fill-opacity:0.75;" x="179.234538" xlink:href="#C1_0_77057b9605" y="366.043551"/>
    </g>
    <g clip-path="url(#pa42751fb28)">
     <use style="fill:#808080;fill-opacity:0.75;" x="263.747884" xlink:href="#C1_0_77057b9605" y="366.043551"/>
    </g>
    <g clip-path="url(#pa42751fb28)">
     <use style="fill:#808080;fill-opacity:0.75;" x="174.828555" xlink:href="#C1_0_77057b9605" y="366.043551"/>
    </g>
    <g clip-path="url(#pa42751fb28)">
     <use style="fill:#808080;fill-opacity:0.75;" x="268.153867" xlink:href="#C1_0_77057b9605" y="366.043551"/>
    </g>
    <g clip-path="url(#pa42751fb28)">
     <use style="fill:#808080;fill-opacity:0.75;" x="174.828555" xlink:href="#C1_0_77057b9605" y="366.043551"/>
    </g>
    <g clip-path="url(#pa42751fb28)">
     <use style="fill:#808080;fill-opacity:0.75;" x="268.153867" xlink:href="#C1_0_77057b9605" y="366.043551"/>
    </g>
    <g clip-path="url(#pa42751fb28)">
     <use style="fill:#808080;fill-opacity:0.75;" x="174.828555" xlink:href="#C1_0_77057b9605" y="366.043551"/>
    </g>
    <g clip-path="url(#pa42751fb28)">
     <use style="fill:#808080;fill-opacity:0.75;" x="268.153867" xlink:href="#C1_0_77057b9605" y="366.043551"/>
    </g>
    <g clip-path="url(#pa42751fb28)">
     <use style="fill:#808080;fill-opacity:0.75;" x="174.828555" xlink:href="#C1_0_77057b9605" y="366.043551"/>
    </g>
    <g clip-path="url(#pa42751fb28)">
     <use style="fill:#808080;fill-opacity:0.75;" x="221.491211" xlink:href="#C1_0_77057b9605" y="326.378991"/>
    </g>
    <g clip-path="url(#pa42751fb28)">
     <use style="fill:#808080;fill-opacity:0.75;" x="215.454543" xlink:href="#C1_0_77057b9605" y="326.378991"/>
    </g>
    <g clip-path="url(#pa42751fb28)">
     <use style="fill:#808080;fill-opacity:0.75;" x="227.527878" xlink:href="#C1_0_77057b9605" y="326.378991"/>
    </g>
    <g clip-path="url(#pa42751fb28)">
     <use style="fill:#808080;fill-opacity:0.75;" x="209.417876" xlink:href="#C1_0_77057b9605" y="326.378991"/>
    </g>
    <g clip-path="url(#pa42751fb28)">
     <use style="fill:#808080;fill-opacity:0.75;" x="233.564546" xlink:href="#C1_0_77057b9605" y="326.378991"/>
    </g>
    <g clip-path="url(#pa42751fb28)">
     <use style="fill:#808080;fill-opacity:0.75;" x="203.381208" xlink:href="#C1_0_77057b9605" y="326.378991"/>
    </g>
    <g clip-path="url(#pa42751fb28)">
     <use style="fill:#808080;fill-opacity:0.75;" x="239.601214" xlink:href="#C1_0_77057b9605" y="326.378991"/>
    </g>
    <g clip-path="url(#pa42751fb28)">
     <use style="fill:#808080;fill-opacity:0.75;" x="197.344541" xlink:href="#C1_0_77057b9605" y="326.378991"/>
    </g>
    <g clip-path="url(#pa42751fb28)">
     <use style="fill:#808080;fill-opacity:0.75;" x="245.637881" xlink:href="#C1_0_77057b9605" y="326.378991"/>
    </g>
    <g clip-path="url(#pa42751fb28)">
     <use style="fill:#808080;fill-opacity:0.75;" x="191.307873" xlink:href="#C1_0_77057b9605" y="326.378991"/>
    </g>
    <g clip-path="url(#pa42751fb28)">
     <use style="fill:#808080;fill-opacity:0.75;" x="221.491211" xlink:href="#C1_0_77057b9605" y="286.714432"/>
    </g>
    <g clip-path="url(#pa42751fb28)">
     <use style="fill:#808080;fill-opacity:0.75;" x="215.454543" xlink:href="#C1_0_77057b9605" y="286.714432"/>
    </g>
    <g clip-path="url(#pa42751fb28)">
     <use style="fill:#808080;fill-opacity:0.75;" x="227.527878" xlink:href="#C1_0_77057b9605" y="286.714432"/>
    </g>
    <g clip-path="url(#pa42751fb28)">
     <use style="fill:#808080;fill-opacity:0.75;" x="209.417876" xlink:href="#C1_0_77057b9605" y="286.714432"/>
    </g>
    <g clip-path="url(#pa42751fb28)">
     <use style="fill:#808080;fill-opacity:0.75;" x="221.491211" xlink:href="#C1_0_77057b9605" y="247.049872"/>
    </g>
    <g clip-path="url(#pa42751fb28)">
     <use style="fill:#808080;fill-opacity:0.75;" x="215.454543" xlink:href="#C1_0_77057b9605" y="247.049872"/>
    </g>
    <g clip-path="url(#pa42751fb28)">
     <use style="fill:#808080;fill-opacity:0.75;" x="227.527878" xlink:href="#C1_0_77057b9605" y="247.049872"/>
    </g>
    <g clip-path="url(#pa42751fb28)">
     <use style="fill:#808080;fill-opacity:0.75;" x="209.417876" xlink:href="#C1_0_77057b9605" y="247.049872"/>
    </g>
    <g clip-path="url(#pa42751fb28)">
     <use style="fill:#808080;fill-opacity:0.75;" x="233.564546" xlink:href="#C1_0_77057b9605" y="247.049872"/>
    </g>
    <g clip-path="url(#pa42751fb28)">
     <use style="fill:#808080;fill-opacity:0.75;" x="221.491211" xlink:href="#C1_0_77057b9605" y="207.385312"/>
    </g>
    <g clip-path="url(#pa42751fb28)">
     <use style="fill:#808080;fill-opacity:0.75;" x="215.454543" xlink:href="#C1_0_77057b9605" y="207.385312"/>
    </g>
    <g clip-path="url(#pa42751fb28)">
     <use style="fill:#808080;fill-opacity:0.75;" x="227.527878" xlink:href="#C1_0_77057b9605" y="207.385312"/>
    </g>
    <g clip-path="url(#pa42751fb28)">
     <use style="fill:#808080;fill-opacity:0.75;" x="209.417876" xlink:href="#C1_0_77057b9605" y="207.385312"/>
    </g>
    <g clip-path="url(#pa42751fb28)">
     <use style="fill:#808080;fill-opacity:0.75;" x="221.491211" xlink:href="#C1_0_77057b9605" y="167.720753"/>
    </g>
    <g clip-path="url(#pa42751fb28)">
     <use style="fill:#808080;fill-opacity:0.75;" x="215.454543" xlink:href="#C1_0_77057b9605" y="167.720753"/>
    </g>
   </g>
  </g>
  <g id="axes_2">
   <g id="patch_7">
    <path d="M 331.886719 381.909375 
L 565.2 381.909375 
L 565.2 32.86125 
L 331.886719 32.86125 
z
" style="fill:#ffffff;"/>
   </g>
   <g id="patch_8">
    <path clip-path="url(#p54d3264283)" d="M 354.275367 381.909375 
L 366.058866 381.909375 
L 366.058866 49.482589 
L 354.275367 49.482589 
z
" style="fill:#2d1e3e;fill-opacity:0.5;stroke:#000000;stroke-linejoin:miter;"/>
   </g>
   <g id="patch_9">
    <path clip-path="url(#p54d3264283)" d="M 377.842365 381.909375 
L 389.625864 381.909375 
L 389.625864 230.806291 
L 377.842365 230.806291 
z
" style="fill:#2d1e3e;fill-opacity:0.5;stroke:#000000;stroke-linejoin:miter;"/>
   </g>
   <g id="patch_10">
    <path clip-path="url(#p54d3264283)" d="M 401.409363 381.909375 
L 413.192862 381.909375 
L 413.192862 321.468141 
L 401.409363 321.468141 
z
" style="fill:#2d1e3e;fill-opacity:0.5;stroke:#000000;stroke-linejoin:miter;"/>
   </g>
   <g id="patch_11">
    <path clip-path="url(#p54d3264283)" d="M 424.976361 381.909375 
L 436.75986 381.909375 
L 436.75986 306.357833 
L 424.976361 306.357833 
z
" style="fill:#2d1e3e;fill-opacity:0.5;stroke:#000000;stroke-linejoin:miter;"/>
   </g>
   <g id="patch_12">
    <path clip-path="url(#p54d3264283)" d="M 448.543359 381.909375 
L 460.326858 381.909375 
L 460.326858 321.468141 
L 448.543359 321.468141 
z
" style="fill:#2d1e3e;fill-opacity:0.5;stroke:#000000;stroke-linejoin:miter;"/>
   </g>
   <g id="patch_13">
    <path clip-path="url(#p54d3264283)" d="M 472.110357 381.909375 
L 483.893857 381.909375 
L 483.893857 351.688758 
L 472.110357 351.688758 
z
" style="fill:#2d1e3e;fill-opacity:0.5;stroke:#000000;stroke-linejoin:miter;"/>
   </g>
   <g id="patch_14">
    <path clip-path="url(#p54d3264283)" d="M 495.677356 381.909375 
L 507.460855 381.909375 
L 507.460855 381.909375 
L 495.677356 381.909375 
z
" style="fill:#2d1e3e;fill-opacity:0.5;stroke:#000000;stroke-linejoin:miter;"/>
   </g>
   <g id="patch_15">
    <path clip-path="url(#p54d3264283)" d="M 519.244354 381.909375 
L 531.027853 381.909375 
L 531.027853 381.909375 
L 519.244354 381.909375 
z
" style="fill:#2d1e3e;fill-opacity:0.5;stroke:#000000;stroke-linejoin:miter;"/>
   </g>
   <g id="patch_16">
    <path clip-path="url(#p54d3264283)" d="M 542.811352 381.909375 
L 554.594851 381.909375 
L 554.594851 381.909375 
L 542.811352 381.909375 
z
" style="fill:#2d1e3e;fill-opacity:0.5;stroke:#000000;stroke-linejoin:miter;"/>
   </g>
   <g id="patch_17">
    <path clip-path="url(#p54d3264283)" d="M 342.491868 381.909375 
L 354.275367 381.909375 
L 354.275367 276.137216 
L 342.491868 276.137216 
z
" style="fill:#edd1cb;fill-opacity:0.5;stroke:#000000;stroke-linejoin:miter;"/>
   </g>
   <g id="patch_18">
    <path clip-path="url(#p54d3264283)" d="M 366.058866 381.909375 
L 377.842365 381.909375 
L 377.842365 291.247524 
L 366.058866 291.247524 
z
" style="fill:#edd1cb;fill-opacity:0.5;stroke:#000000;stroke-linejoin:miter;"/>
   </g>
   <g id="patch_19">
    <path clip-path="url(#p54d3264283)" d="M 389.625864 381.909375 
L 401.409363 381.909375 
L 401.409363 109.923823 
L 389.625864 109.923823 
z
" style="fill:#edd1cb;fill-opacity:0.5;stroke:#000000;stroke-linejoin:miter;"/>
   </g>
   <g id="patch_20">
    <path clip-path="url(#p54d3264283)" d="M 413.192862 381.909375 
L 424.976361 381.909375 
L 424.976361 306.357833 
L 413.192862 306.357833 
z
" style="fill:#edd1cb;fill-opacity:0.5;stroke:#000000;stroke-linejoin:miter;"/>
   </g>
   <g id="patch_21">
    <path clip-path="url(#p54d3264283)" d="M 436.75986 381.909375 
L 448.543359 381.909375 
L 448.543359 336.57845 
L 436.75986 336.57845 
z
" style="fill:#edd1cb;fill-opacity:0.5;stroke:#000000;stroke-linejoin:miter;"/>
   </g>
   <g id="patch_22">
    <path clip-path="url(#p54d3264283)" d="M 460.326858 381.909375 
L 472.110357 381.909375 
L 472.110357 381.909375 
L 460.326858 381.909375 
z
" style="fill:#edd1cb;fill-opacity:0.5;stroke:#000000;stroke-linejoin:miter;"/>
   </g>
   <g id="patch_23">
    <path clip-path="url(#p54d3264283)" d="M 483.893857 381.909375 
L 495.677356 381.909375 
L 495.677356 381.909375 
L 483.893857 381.909375 
z
" style="fill:#edd1cb;fill-opacity:0.5;stroke:#000000;stroke-linejoin:miter;"/>
   </g>
   <g id="patch_24">
    <path clip-path="url(#p54d3264283)" d="M 507.460855 381.909375 
L 519.244354 381.909375 
L 519.244354 381.909375 
L 507.460855 381.909375 
z
" style="fill:#edd1cb;fill-opacity:0.5;stroke:#000000;stroke-linejoin:miter;"/>
   </g>
   <g id="patch_25">
    <path clip-path="url(#p54d3264283)" d="M 531.027853 381.909375 
L 542.811352 381.909375 
L 542.811352 366.799067 
L 531.027853 366.799067 
z
" style="fill:#edd1cb;fill-opacity:0.5;stroke:#000000;stroke-linejoin:miter;"/>
   </g>
   <g id="matplotlib.axis_3">
    <g id="xtick_3">
     <g id="line2d_24">
      <g>
       <use style="stroke:#000000;stroke-width:0.8;" x="342.491868" xlink:href="#mc3a356a46d" y="391.909375"/>
      </g>
     </g>
     <g id="text_14">
      <text style="font-family:Arial;font-size:10px;font-stretch:normal;font-style:normal;font-weight:normal;text-anchor:middle;" transform="rotate(-0, 342.491868, 406.067187)" x="342.491868" y="406.067187">0</text>
     </g>
    </g>
    <g id="xtick_4">
     <g id="line2d_25">
      <g>
       <use style="stroke:#000000;stroke-width:0.8;" x="395.517614" xlink:href="#mc3a356a46d" y="391.909375"/>
      </g>
     </g>
     <g id="text_15">
      <text style="font-family:Arial;font-size:10px;font-stretch:normal;font-style:normal;font-weight:normal;text-anchor:middle;" transform="rotate(-0, 395.517614, 406.067187)" x="395.517614" y="406.067187">2</text>
     </g>
    </g>
    <g id="xtick_5">
     <g id="line2d_26">
      <g>
       <use style="stroke:#000000;stroke-width:0.8;" x="448.543359" xlink:href="#mc3a356a46d" y="391.909375"/>
      </g>
     </g>
     <g id="text_16">
      <text style="font-family:Arial;font-size:10px;font-stretch:normal;font-style:normal;font-weight:normal;text-anchor:middle;" transform="rotate(-0, 448.543359, 406.067187)" x="448.543359" y="406.067187">4</text>
     </g>
    </g>
    <g id="xtick_6">
     <g id="line2d_27">
      <g>
       <use style="stroke:#000000;stroke-width:0.8;" x="501.569105" xlink:href="#mc3a356a46d" y="391.909375"/>
      </g>
     </g>
     <g id="text_17">
      <text style="font-family:Arial;font-size:10px;font-stretch:normal;font-style:normal;font-weight:normal;text-anchor:middle;" transform="rotate(-0, 501.569105, 406.067187)" x="501.569105" y="406.067187">6</text>
     </g>
    </g>
    <g id="xtick_7">
     <g id="line2d_28">
      <g>
       <use style="stroke:#000000;stroke-width:0.8;" x="554.594851" xlink:href="#mc3a356a46d" y="391.909375"/>
      </g>
     </g>
     <g id="text_18">
      <text style="font-family:Arial;font-size:10px;font-stretch:normal;font-style:normal;font-weight:normal;text-anchor:middle;" transform="rotate(-0, 554.594851, 406.067187)" x="554.594851" y="406.067187">8</text>
     </g>
    </g>
    <g id="text_19">
     <text style="font-family:Arial;font-size:10px;font-stretch:normal;font-style:normal;font-weight:normal;text-anchor:middle;" transform="rotate(-0, 448.543359, 419.2125)" x="448.543359" y="419.2125">Value</text>
    </g>
   </g>
   <g id="matplotlib.axis_4">
    <g id="ytick_10">
     <g id="line2d_29">
      <g>
       <use style="stroke:#000000;stroke-width:0.8;" x="321.886719" xlink:href="#m82278324de" y="381.909375"/>
      </g>
     </g>
     <g id="text_20">
      <text style="font-family:Arial;font-size:10px;font-stretch:normal;font-style:normal;font-weight:normal;text-anchor:end;" transform="rotate(-0, 314.886719, 385.488281)" x="314.886719" y="385.488281">0</text>
     </g>
    </g>
    <g id="ytick_11">
     <g id="line2d_30">
      <g>
       <use style="stroke:#000000;stroke-width:0.8;" x="321.886719" xlink:href="#m82278324de" y="306.357833"/>
      </g>
     </g>
     <g id="text_21">
      <text style="font-family:Arial;font-size:10px;font-stretch:normal;font-style:normal;font-weight:normal;text-anchor:end;" transform="rotate(-0, 314.886719, 309.936739)" x="314.886719" y="309.936739">5</text>
     </g>
    </g>
    <g id="ytick_12">
     <g id="line2d_31">
      <g>
       <use style="stroke:#000000;stroke-width:0.8;" x="321.886719" xlink:href="#m82278324de" y="230.806291"/>
      </g>
     </g>
     <g id="text_22">
      <text style="font-family:Arial;font-size:10px;font-stretch:normal;font-style:normal;font-weight:normal;text-anchor:end;" transform="rotate(-0, 314.886719, 234.385197)" x="314.886719" y="234.385197">10</text>
     </g>
    </g>
    <g id="ytick_13">
     <g id="line2d_32">
      <g>
       <use style="stroke:#000000;stroke-width:0.8;" x="321.886719" xlink:href="#m82278324de" y="155.254748"/>
      </g>
     </g>
     <g id="text_23">
      <text style="font-family:Arial;font-size:10px;font-stretch:normal;font-style:normal;font-weight:normal;text-anchor:end;" transform="rotate(-0, 314.886719, 158.833655)" x="314.886719" y="158.833655">15</text>
     </g>
    </g>
    <g id="ytick_14">
     <g id="line2d_33">
      <g>
       <use style="stroke:#000000;stroke-width:0.8;" x="321.886719" xlink:href="#m82278324de" y="79.703206"/>
      </g>
     </g>
     <g id="text_24">
      <text style="font-family:Arial;font-size:10px;font-stretch:normal;font-style:normal;font-weight:normal;text-anchor:end;" transform="rotate(-0, 314.886719, 83.282112)" x="314.886719" y="83.282112">20</text>
     </g>
    </g>
    <g id="text_25">
     <text style="font-family:Arial;font-size:10px;font-stretch:normal;font-style:normal;font-weight:normal;text-anchor:middle;" transform="rotate(-90, 297.777344, 207.385312)" x="297.777344" y="207.385312">Count</text>
    </g>
   </g>
   <g id="line2d_34">
    <path clip-path="url(#p54d3264283)" d="M 342.491868 188.997824 
L 343.557712 186.905487 
L 344.623556 185.23326 
L 345.6894 183.981683 
L 346.755244 183.14787 
L 347.821089 182.725656 
L 348.886933 182.705784 
L 349.952777 183.076144 
L 351.018621 183.822033 
L 352.084465 184.926455 
L 353.150309 186.370431 
L 354.216153 188.133326 
L 355.281998 190.193182 
L 357.413686 195.111273 
L 359.545374 200.93476 
L 361.677062 207.472134 
L 364.874595 218.214822 
L 371.26966 241.088191 
L 375.533036 255.994155 
L 378.730569 266.47508 
L 381.928101 276.127799 
L 384.059789 282.030874 
L 386.191477 287.472904 
L 388.323166 292.434109 
L 390.454854 296.903656 
L 392.586542 300.879477 
L 394.718231 304.368116 
L 396.849919 307.384518 
L 398.981607 309.951645 
L 401.113295 312.099858 
L 403.244984 313.866053 
L 405.376672 315.292522 
L 407.50836 316.425602 
L 409.640048 317.314146 
L 411.771737 318.007894 
L 414.969269 318.789874 
L 420.29849 319.772802 
L 425.62771 320.835253 
L 428.825243 321.668376 
L 432.022775 322.703929 
L 435.220308 323.962768 
L 438.41784 325.451649 
L 441.615372 327.168679 
L 444.812905 329.106857 
L 448.010437 331.255512 
L 452.273814 334.42225 
L 456.53719 337.890755 
L 461.866411 342.559197 
L 469.32732 349.477351 
L 482.11745 361.411391 
L 487.44667 366.023757 
L 491.710047 369.390303 
L 494.907579 371.669437 
L 498.105112 373.705135 
L 501.302644 375.478645 
L 504.500176 376.983365 
L 507.697709 378.225188 
L 510.895241 379.221183 
L 514.092774 379.997023 
L 517.290306 380.583719 
L 521.553683 381.12877 
L 526.882903 381.532834 
L 533.277968 381.767302 
L 543.936409 381.887473 
L 554.594851 381.906897 
L 554.594851 381.906897 
" style="fill:none;stroke:#2d1e3e;stroke-linecap:square;stroke-width:1.5;"/>
   </g>
   <g id="line2d_35">
    <path clip-path="url(#p54d3264283)" d="M 342.491868 310.010844 
L 345.6894 304.6552 
L 348.886933 299.718051 
L 358.47953 285.446501 
L 361.677062 280.018729 
L 363.808751 276.012047 
L 365.940439 271.647151 
L 368.072127 266.910197 
L 371.26966 259.14789 
L 375.533036 247.897676 
L 380.862257 233.684502 
L 382.993945 228.458415 
L 385.125633 223.763614 
L 387.257322 219.778576 
L 388.323166 218.104446 
L 389.38901 216.667776 
L 390.454854 215.485288 
L 391.520698 214.571627 
L 392.586542 213.939133 
L 393.652386 213.597641 
L 394.718231 213.554319 
L 395.784075 213.813561 
L 396.849919 214.376912 
L 397.915763 215.243056 
L 398.981607 216.407842 
L 400.047451 217.864362 
L 401.113295 219.603076 
L 402.179139 221.611972 
L 404.310828 226.381178 
L 406.442516 232.035034 
L 408.574204 238.41307 
L 411.771737 248.955298 
L 423.496022 289.229792 
L 426.693555 298.873235 
L 429.891087 307.56727 
L 432.022775 312.82926 
L 434.154464 317.684183 
L 436.286152 322.163123 
L 439.483684 328.263198 
L 442.681217 333.752354 
L 445.878749 338.77473 
L 450.142126 344.954112 
L 454.405502 350.719073 
L 458.668879 356.149031 
L 462.932255 361.217209 
L 466.129788 364.725247 
L 469.32732 367.928085 
L 472.524852 370.782216 
L 475.722385 373.258052 
L 478.919917 375.344735 
L 482.11745 377.051059 
L 485.314982 378.403035 
L 488.512514 379.439181 
L 491.710047 380.20476 
L 494.907579 380.746105 
L 499.170956 381.19181 
L 503.434332 381.394426 
L 508.763553 381.38204 
L 514.092774 381.109623 
L 519.421994 380.571947 
L 523.685371 379.940067 
L 529.014592 378.908341 
L 536.475501 377.160315 
L 542.870565 375.694308 
L 547.133942 374.934616 
L 550.331474 374.55603 
L 553.529007 374.377216 
L 554.594851 374.365143 
L 554.594851 374.365143 
" style="fill:none;stroke:#edd1cb;stroke-linecap:square;stroke-width:1.5;"/>
   </g>
   <g id="patch_26">
    <path d="M 321.886719 381.909375 
L 321.886719 79.703206 
" style="fill:none;stroke:#000000;stroke-linecap:square;stroke-linejoin:miter;stroke-width:0.8;"/>
   </g>
   <g id="patch_27">
    <path d="M 342.491868 391.909375 
L 554.594851 391.909375 
" style="fill:none;stroke:#000000;stroke-linecap:square;stroke-linejoin:miter;stroke-width:0.8;"/>
   </g>
   <g id="legend_1">
    <g id="patch_28">
     <path d="M 503.95625 83.297188 
L 558.2 83.297188 
Q 560.2 83.297188 560.2 81.297188 
L 560.2 39.86125 
Q 560.2 37.86125 558.2 37.86125 
L 503.95625 37.86125 
Q 501.95625 37.86125 501.95625 39.86125 
L 501.95625 81.297188 
Q 501.95625 83.297188 503.95625 83.297188 
z
" style="fill:#ffffff;opacity:0.8;stroke:#cccccc;stroke-linejoin:miter;"/>
    </g>
    <g id="text_26">
     <text style="font-family:Arial;font-size:10px;font-stretch:normal;font-style:normal;font-weight:normal;text-anchor:start;" transform="rotate(-0, 520.973437, 49.019063)" x="520.973437" y="49.019063">Year</text>
    </g>
    <g id="patch_29">
     <path d="M 505.95625 63.164375 
L 525.95625 63.164375 
L 525.95625 56.164375 
L 505.95625 56.164375 
z
" style="fill:#edd1cb;fill-opacity:0.5;stroke:#000000;stroke-linejoin:miter;"/>
    </g>
    <g id="text_27">
     <text style="font-family:Arial;font-size:10px;font-stretch:normal;font-style:normal;font-weight:normal;text-anchor:start;" transform="rotate(-0, 533.95625, 63.164375)" x="533.95625" y="63.164375">2017</text>
    </g>
    <g id="patch_30">
     <path d="M 505.95625 77.309688 
L 525.95625 77.309688 
L 525.95625 70.309688 
L 505.95625 70.309688 
z
" style="fill:#2d1e3e;fill-opacity:0.5;stroke:#000000;stroke-linejoin:miter;"/>
    </g>
    <g id="text_28">
     <text style="font-family:Arial;font-size:10px;font-stretch:normal;font-style:normal;font-weight:normal;text-anchor:start;" transform="rotate(-0, 533.95625, 77.309688)" x="533.95625" y="77.309688">2018</text>
    </g>
   </g>
  </g>
  <g id="text_29">
   <text style="font-family:Arial;font-size:12px;font-stretch:normal;font-style:normal;font-weight:normal;text-anchor:middle;" transform="rotate(-0, 288, 17.375625)" x="288" y="17.375625">Number of time per year providing training for Netherlands (without 95 percentile)</text>
  </g>
 </g>
 <defs>
  <clipPath id="pa42751fb28">
   <rect height="349.048125" width="233.313281" x="46.50625" y="32.86125"/>
  </clipPath>
  <clipPath id="p54d3264283">
   <rect height="349.048125" width="233.313281" x="331.886719" y="32.86125"/>
  </clipPath>
 </defs>
</svg>
