<?xml version="1.0" encoding="utf-8" standalone="no"?>
<!DOCTYPE svg PUBLIC "-//W3C//DTD SVG 1.1//EN"
  "http://www.w3.org/Graphics/SVG/1.1/DTD/svg11.dtd">
<svg xmlns:xlink="http://www.w3.org/1999/xlink" width="576pt" height="432pt" viewBox="0 0 576 432" xmlns="http://www.w3.org/2000/svg" version="1.1">
 <metadata>
  <rdf:RDF xmlns:dc="http://purl.org/dc/elements/1.1/" xmlns:cc="http://creativecommons.org/ns#" xmlns:rdf="http://www.w3.org/1999/02/22-rdf-syntax-ns#">
   <cc:Work>
    <dc:type rdf:resource="http://purl.org/dc/dcmitype/StillImage"/>
    <dc:date>2022-03-21T11:54:07.577689</dc:date>
    <dc:format>image/svg+xml</dc:format>
    <dc:creator>
     <cc:Agent>
      <dc:title>Matplotlib v3.5.1, https://matplotlib.org/</dc:title>
     </cc:Agent>
    </dc:creator>
   </cc:Work>
  </rdf:RDF>
 </metadata>
 <defs>
  <style type="text/css">*{stroke-linejoin: round; stroke-linecap: butt}</style>
 </defs>
 <g id="figure_1">
  <g id="patch_1">
   <path d="M 0 432 
L 576 432 
L 576 0 
L 0 0 
z
" style="fill: #ffffff"/>
  </g>
  <g id="axes_1">
   <g id="patch_2">
    <path d="M 46.61875 381.684375 
L 282.6 381.684375 
L 282.6 33.0975 
L 46.61875 33.0975 
z
" style="fill: #ffffff"/>
   </g>
   <g id="patch_3">
    <path d="M 70.216875 302.460085 
L 259.001875 302.460085 
L 259.001875 175.701222 
L 70.216875 175.701222 
L 70.216875 302.460085 
z
" clip-path="url(#pb976664e2d)" style="fill: #3274a1; stroke: #3f3f3f; stroke-width: 1.5; stroke-linejoin: miter"/>
   </g>
   <g id="matplotlib.axis_1">
    <g id="xtick_1">
     <g id="line2d_1">
      <defs>
       <path id="m4c99cd72f3" d="M 0 0 
L 0 3.5 
" style="stroke: #000000; stroke-width: 0.8"/>
      </defs>
      <g>
       <use xlink:href="#m4c99cd72f3" x="164.609375" y="391.684375" style="stroke: #000000; stroke-width: 0.8"/>
      </g>
     </g>
     <g id="text_1">
      <text style="font: 10px 'sans-serif'; text-anchor: middle" x="164.609375" y="405.857813" transform="rotate(-0, 164.609375, 405.857813)">2018</text>
     </g>
    </g>
    <g id="text_2">
     <text style="font: 10px 'sans-serif'; text-anchor: middle" x="164.609375" y="419.115625" transform="rotate(-0, 164.609375, 419.115625)">Year</text>
    </g>
   </g>
   <g id="matplotlib.axis_2">
    <g id="ytick_1">
     <g id="line2d_2">
      <defs>
       <path id="m8e343aef83" d="M 0 0 
L -3.5 0 
" style="stroke: #000000; stroke-width: 0.8"/>
      </defs>
      <g>
       <use xlink:href="#m8e343aef83" x="36.61875" y="365.839517" style="stroke: #000000; stroke-width: 0.8"/>
      </g>
     </g>
     <g id="text_3">
      <text style="font: 10px 'sans-serif'; text-anchor: end" x="29.61875" y="369.426236" transform="rotate(-0, 29.61875, 369.426236)">0</text>
     </g>
    </g>
    <g id="ytick_2">
     <g id="line2d_3">
      <g>
       <use xlink:href="#m8e343aef83" x="36.61875" y="302.460085" style="stroke: #000000; stroke-width: 0.8"/>
      </g>
     </g>
     <g id="text_4">
      <text style="font: 10px 'sans-serif'; text-anchor: end" x="29.61875" y="306.046804" transform="rotate(-0, 29.61875, 306.046804)">1</text>
     </g>
    </g>
    <g id="ytick_3">
     <g id="line2d_4">
      <g>
       <use xlink:href="#m8e343aef83" x="36.61875" y="239.080653" style="stroke: #000000; stroke-width: 0.8"/>
      </g>
     </g>
     <g id="text_5">
      <text style="font: 10px 'sans-serif'; text-anchor: end" x="29.61875" y="242.667372" transform="rotate(-0, 29.61875, 242.667372)">2</text>
     </g>
    </g>
    <g id="ytick_4">
     <g id="line2d_5">
      <g>
       <use xlink:href="#m8e343aef83" x="36.61875" y="175.701222" style="stroke: #000000; stroke-width: 0.8"/>
      </g>
     </g>
     <g id="text_6">
      <text style="font: 10px 'sans-serif'; text-anchor: end" x="29.61875" y="179.28794" transform="rotate(-0, 29.61875, 179.28794)">3</text>
     </g>
    </g>
    <g id="ytick_5">
     <g id="line2d_6">
      <g>
       <use xlink:href="#m8e343aef83" x="36.61875" y="112.32179" style="stroke: #000000; stroke-width: 0.8"/>
      </g>
     </g>
     <g id="text_7">
      <text style="font: 10px 'sans-serif'; text-anchor: end" x="29.61875" y="115.908509" transform="rotate(-0, 29.61875, 115.908509)">4</text>
     </g>
    </g>
    <g id="ytick_6">
     <g id="line2d_7">
      <g>
       <use xlink:href="#m8e343aef83" x="36.61875" y="48.942358" style="stroke: #000000; stroke-width: 0.8"/>
      </g>
     </g>
     <g id="text_8">
      <text style="font: 10px 'sans-serif'; text-anchor: end" x="29.61875" y="52.529077" transform="rotate(-0, 29.61875, 52.529077)">5</text>
     </g>
    </g>
    <g id="text_9">
     <text style="font: 10px 'sans-serif'; text-anchor: middle" x="17.973438" y="207.390938" transform="rotate(-90, 17.973438, 207.390938)">Value</text>
    </g>
   </g>
   <g id="line2d_8">
    <path d="M 164.609375 302.460085 
L 164.609375 365.839517 
" clip-path="url(#pb976664e2d)" style="fill: none; stroke: #3f3f3f; stroke-width: 1.5; stroke-linecap: square"/>
   </g>
   <g id="line2d_9">
    <path d="M 164.609375 175.701222 
L 164.609375 48.942358 
" clip-path="url(#pb976664e2d)" style="fill: none; stroke: #3f3f3f; stroke-width: 1.5; stroke-linecap: square"/>
   </g>
   <g id="line2d_10">
    <path d="M 117.413125 365.839517 
L 211.805625 365.839517 
" clip-path="url(#pb976664e2d)" style="fill: none; stroke: #3f3f3f; stroke-width: 1.5; stroke-linecap: square"/>
   </g>
   <g id="line2d_11">
    <path d="M 117.413125 48.942358 
L 211.805625 48.942358 
" clip-path="url(#pb976664e2d)" style="fill: none; stroke: #3f3f3f; stroke-width: 1.5; stroke-linecap: square"/>
   </g>
   <g id="line2d_12"/>
   <g id="line2d_13">
    <path d="M 70.216875 239.080653 
L 259.001875 239.080653 
" clip-path="url(#pb976664e2d)" style="fill: none; stroke: #3f3f3f; stroke-width: 1.5; stroke-linecap: square"/>
   </g>
   <g id="patch_4">
    <path d="M 36.61875 365.839517 
L 36.61875 48.942358 
" style="fill: none; stroke: #000000; stroke-width: 0.8; stroke-linejoin: miter; stroke-linecap: square"/>
   </g>
   <g id="patch_5">
    <path d="M 164.609375 391.684375 
L 164.609375 391.684375 
" style="fill: none; stroke: #000000; stroke-width: 0.8; stroke-linejoin: miter; stroke-linecap: square"/>
   </g>
   <g id="PathCollection_1">
    <defs>
     <path id="C0_0_77057b9605" d="M 0 2.5 
C 0.663008 2.5 1.29895 2.236584 1.767767 1.767767 
C 2.236584 1.29895 2.5 0.663008 2.5 -0 
C 2.5 -0.663008 2.236584 -1.29895 1.767767 -1.767767 
C 1.29895 -2.236584 0.663008 -2.5 0 -2.5 
C -0.663008 -2.5 -1.29895 -2.236584 -1.767767 -1.767767 
C -2.236584 -1.29895 -2.5 -0.663008 -2.5 0 
C -2.5 0.663008 -2.236584 1.29895 -1.767767 1.767767 
C -1.29895 2.236584 -0.663008 2.5 0 2.5 
z
"/>
    </defs>
    <g clip-path="url(#pb976664e2d)">
     <use xlink:href="#C0_0_77057b9605" x="164.609375" y="365.839517" style="fill: #808080; fill-opacity: 0.75"/>
    </g>
    <g clip-path="url(#pb976664e2d)">
     <use xlink:href="#C0_0_77057b9605" x="158.503677" y="365.839517" style="fill: #808080; fill-opacity: 0.75"/>
    </g>
    <g clip-path="url(#pb976664e2d)">
     <use xlink:href="#C0_0_77057b9605" x="170.715073" y="365.839517" style="fill: #808080; fill-opacity: 0.75"/>
    </g>
    <g clip-path="url(#pb976664e2d)">
     <use xlink:href="#C0_0_77057b9605" x="164.609375" y="334.149801" style="fill: #808080; fill-opacity: 0.75"/>
    </g>
    <g clip-path="url(#pb976664e2d)">
     <use xlink:href="#C0_0_77057b9605" x="164.609375" y="302.460085" style="fill: #808080; fill-opacity: 0.75"/>
    </g>
    <g clip-path="url(#pb976664e2d)">
     <use xlink:href="#C0_0_77057b9605" x="158.503677" y="302.460085" style="fill: #808080; fill-opacity: 0.75"/>
    </g>
    <g clip-path="url(#pb976664e2d)">
     <use xlink:href="#C0_0_77057b9605" x="164.609375" y="239.080653" style="fill: #808080; fill-opacity: 0.75"/>
    </g>
    <g clip-path="url(#pb976664e2d)">
     <use xlink:href="#C0_0_77057b9605" x="158.503677" y="239.080653" style="fill: #808080; fill-opacity: 0.75"/>
    </g>
    <g clip-path="url(#pb976664e2d)">
     <use xlink:href="#C0_0_77057b9605" x="170.715073" y="239.080653" style="fill: #808080; fill-opacity: 0.75"/>
    </g>
    <g clip-path="url(#pb976664e2d)">
     <use xlink:href="#C0_0_77057b9605" x="152.39798" y="239.080653" style="fill: #808080; fill-opacity: 0.75"/>
    </g>
    <g clip-path="url(#pb976664e2d)">
     <use xlink:href="#C0_0_77057b9605" x="176.82077" y="239.080653" style="fill: #808080; fill-opacity: 0.75"/>
    </g>
    <g clip-path="url(#pb976664e2d)">
     <use xlink:href="#C0_0_77057b9605" x="146.292282" y="239.080653" style="fill: #808080; fill-opacity: 0.75"/>
    </g>
    <g clip-path="url(#pb976664e2d)">
     <use xlink:href="#C0_0_77057b9605" x="182.926468" y="239.080653" style="fill: #808080; fill-opacity: 0.75"/>
    </g>
    <g clip-path="url(#pb976664e2d)">
     <use xlink:href="#C0_0_77057b9605" x="164.609375" y="175.701222" style="fill: #808080; fill-opacity: 0.75"/>
    </g>
    <g clip-path="url(#pb976664e2d)">
     <use xlink:href="#C0_0_77057b9605" x="158.503677" y="175.701222" style="fill: #808080; fill-opacity: 0.75"/>
    </g>
    <g clip-path="url(#pb976664e2d)">
     <use xlink:href="#C0_0_77057b9605" x="170.715073" y="175.701222" style="fill: #808080; fill-opacity: 0.75"/>
    </g>
    <g clip-path="url(#pb976664e2d)">
     <use xlink:href="#C0_0_77057b9605" x="164.609375" y="112.32179" style="fill: #808080; fill-opacity: 0.75"/>
    </g>
    <g clip-path="url(#pb976664e2d)">
     <use xlink:href="#C0_0_77057b9605" x="164.609375" y="48.942358" style="fill: #808080; fill-opacity: 0.75"/>
    </g>
    <g clip-path="url(#pb976664e2d)">
     <use xlink:href="#C0_0_77057b9605" x="158.503677" y="48.942358" style="fill: #808080; fill-opacity: 0.75"/>
    </g>
   </g>
  </g>
  <g id="axes_2">
   <g id="patch_6">
    <path d="M 329.21875 381.684375 
L 565.2 381.684375 
L 565.2 33.0975 
L 329.21875 33.0975 
z
" style="fill: #ffffff"/>
   </g>
   <g id="patch_7">
    <path d="M 339.94517 381.684375 
L 375.699905 381.684375 
L 375.699905 191.977232 
L 339.94517 191.977232 
z
" clip-path="url(#p5c67a8cbe8)" style="fill: #edd1cb; fill-opacity: 0.5; stroke: #000000; stroke-linejoin: miter"/>
   </g>
   <g id="patch_8">
    <path d="M 375.699905 381.684375 
L 411.45464 381.684375 
L 411.45464 286.830804 
L 375.699905 286.830804 
z
" clip-path="url(#p5c67a8cbe8)" style="fill: #edd1cb; fill-opacity: 0.5; stroke: #000000; stroke-linejoin: miter"/>
   </g>
   <g id="patch_9">
    <path d="M 411.45464 381.684375 
L 447.209375 381.684375 
L 447.209375 49.696875 
L 411.45464 49.696875 
z
" clip-path="url(#p5c67a8cbe8)" style="fill: #edd1cb; fill-opacity: 0.5; stroke: #000000; stroke-linejoin: miter"/>
   </g>
   <g id="patch_10">
    <path d="M 447.209375 381.684375 
L 482.96411 381.684375 
L 482.96411 239.404018 
L 447.209375 239.404018 
z
" clip-path="url(#p5c67a8cbe8)" style="fill: #edd1cb; fill-opacity: 0.5; stroke: #000000; stroke-linejoin: miter"/>
   </g>
   <g id="patch_11">
    <path d="M 482.96411 381.684375 
L 518.718845 381.684375 
L 518.718845 334.257589 
L 482.96411 334.257589 
z
" clip-path="url(#p5c67a8cbe8)" style="fill: #edd1cb; fill-opacity: 0.5; stroke: #000000; stroke-linejoin: miter"/>
   </g>
   <g id="patch_12">
    <path d="M 518.718845 381.684375 
L 554.47358 381.684375 
L 554.47358 286.830804 
L 518.718845 286.830804 
z
" clip-path="url(#p5c67a8cbe8)" style="fill: #edd1cb; fill-opacity: 0.5; stroke: #000000; stroke-linejoin: miter"/>
   </g>
   <g id="matplotlib.axis_3">
    <g id="xtick_2">
     <g id="line2d_14">
      <g>
       <use xlink:href="#m4c99cd72f3" x="339.94517" y="391.684375" style="stroke: #000000; stroke-width: 0.8"/>
      </g>
     </g>
     <g id="text_10">
      <text style="font: 10px 'sans-serif'; text-anchor: middle" x="339.94517" y="405.857813" transform="rotate(-0, 339.94517, 405.857813)">0</text>
     </g>
    </g>
    <g id="xtick_3">
     <g id="line2d_15">
      <g>
       <use xlink:href="#m4c99cd72f3" x="382.850852" y="391.684375" style="stroke: #000000; stroke-width: 0.8"/>
      </g>
     </g>
     <g id="text_11">
      <text style="font: 10px 'sans-serif'; text-anchor: middle" x="382.850852" y="405.857813" transform="rotate(-0, 382.850852, 405.857813)">1</text>
     </g>
    </g>
    <g id="xtick_4">
     <g id="line2d_16">
      <g>
       <use xlink:href="#m4c99cd72f3" x="425.756534" y="391.684375" style="stroke: #000000; stroke-width: 0.8"/>
      </g>
     </g>
     <g id="text_12">
      <text style="font: 10px 'sans-serif'; text-anchor: middle" x="425.756534" y="405.857813" transform="rotate(-0, 425.756534, 405.857813)">2</text>
     </g>
    </g>
    <g id="xtick_5">
     <g id="line2d_17">
      <g>
       <use xlink:href="#m4c99cd72f3" x="468.662216" y="391.684375" style="stroke: #000000; stroke-width: 0.8"/>
      </g>
     </g>
     <g id="text_13">
      <text style="font: 10px 'sans-serif'; text-anchor: middle" x="468.662216" y="405.857813" transform="rotate(-0, 468.662216, 405.857813)">3</text>
     </g>
    </g>
    <g id="xtick_6">
     <g id="line2d_18">
      <g>
       <use xlink:href="#m4c99cd72f3" x="511.567898" y="391.684375" style="stroke: #000000; stroke-width: 0.8"/>
      </g>
     </g>
     <g id="text_14">
      <text style="font: 10px 'sans-serif'; text-anchor: middle" x="511.567898" y="405.857813" transform="rotate(-0, 511.567898, 405.857813)">4</text>
     </g>
    </g>
    <g id="xtick_7">
     <g id="line2d_19">
      <g>
       <use xlink:href="#m4c99cd72f3" x="554.47358" y="391.684375" style="stroke: #000000; stroke-width: 0.8"/>
      </g>
     </g>
     <g id="text_15">
      <text style="font: 10px 'sans-serif'; text-anchor: middle" x="554.47358" y="405.857813" transform="rotate(-0, 554.47358, 405.857813)">5</text>
     </g>
    </g>
    <g id="text_16">
     <text style="font: 10px 'sans-serif'; text-anchor: middle" x="447.209375" y="419.115625" transform="rotate(-0, 447.209375, 419.115625)">Value</text>
    </g>
   </g>
   <g id="matplotlib.axis_4">
    <g id="ytick_7">
     <g id="line2d_20">
      <g>
       <use xlink:href="#m8e343aef83" x="319.21875" y="381.684375" style="stroke: #000000; stroke-width: 0.8"/>
      </g>
     </g>
     <g id="text_17">
      <text style="font: 10px 'sans-serif'; text-anchor: end" x="312.21875" y="385.271094" transform="rotate(-0, 312.21875, 385.271094)">0</text>
     </g>
    </g>
    <g id="ytick_8">
     <g id="line2d_21">
      <g>
       <use xlink:href="#m8e343aef83" x="319.21875" y="334.257589" style="stroke: #000000; stroke-width: 0.8"/>
      </g>
     </g>
     <g id="text_18">
      <text style="font: 10px 'sans-serif'; text-anchor: end" x="312.21875" y="337.844308" transform="rotate(-0, 312.21875, 337.844308)">1</text>
     </g>
    </g>
    <g id="ytick_9">
     <g id="line2d_22">
      <g>
       <use xlink:href="#m8e343aef83" x="319.21875" y="286.830804" style="stroke: #000000; stroke-width: 0.8"/>
      </g>
     </g>
     <g id="text_19">
      <text style="font: 10px 'sans-serif'; text-anchor: end" x="312.21875" y="290.417522" transform="rotate(-0, 312.21875, 290.417522)">2</text>
     </g>
    </g>
    <g id="ytick_10">
     <g id="line2d_23">
      <g>
       <use xlink:href="#m8e343aef83" x="319.21875" y="239.404018" style="stroke: #000000; stroke-width: 0.8"/>
      </g>
     </g>
     <g id="text_20">
      <text style="font: 10px 'sans-serif'; text-anchor: end" x="312.21875" y="242.990737" transform="rotate(-0, 312.21875, 242.990737)">3</text>
     </g>
    </g>
    <g id="ytick_11">
     <g id="line2d_24">
      <g>
       <use xlink:href="#m8e343aef83" x="319.21875" y="191.977232" style="stroke: #000000; stroke-width: 0.8"/>
      </g>
     </g>
     <g id="text_21">
      <text style="font: 10px 'sans-serif'; text-anchor: end" x="312.21875" y="195.563951" transform="rotate(-0, 312.21875, 195.563951)">4</text>
     </g>
    </g>
    <g id="ytick_12">
     <g id="line2d_25">
      <g>
       <use xlink:href="#m8e343aef83" x="319.21875" y="144.550446" style="stroke: #000000; stroke-width: 0.8"/>
      </g>
     </g>
     <g id="text_22">
      <text style="font: 10px 'sans-serif'; text-anchor: end" x="312.21875" y="148.137165" transform="rotate(-0, 312.21875, 148.137165)">5</text>
     </g>
    </g>
    <g id="ytick_13">
     <g id="line2d_26">
      <g>
       <use xlink:href="#m8e343aef83" x="319.21875" y="97.123661" style="stroke: #000000; stroke-width: 0.8"/>
      </g>
     </g>
     <g id="text_23">
      <text style="font: 10px 'sans-serif'; text-anchor: end" x="312.21875" y="100.710379" transform="rotate(-0, 312.21875, 100.710379)">6</text>
     </g>
    </g>
    <g id="ytick_14">
     <g id="line2d_27">
      <g>
       <use xlink:href="#m8e343aef83" x="319.21875" y="49.696875" style="stroke: #000000; stroke-width: 0.8"/>
      </g>
     </g>
     <g id="text_24">
      <text style="font: 10px 'sans-serif'; text-anchor: end" x="312.21875" y="53.283594" transform="rotate(-0, 312.21875, 53.283594)">7</text>
     </g>
    </g>
    <g id="text_25">
     <text style="font: 10px 'sans-serif'; text-anchor: middle" x="300.573437" y="207.390938" transform="rotate(-90, 300.573437, 207.390938)">Count</text>
    </g>
   </g>
   <g id="line2d_28">
    <path d="M 339.94517 283.323891 
L 344.257299 277.487094 
L 348.569428 271.957777 
L 353.959589 265.432621 
L 360.427782 258.024461 
L 380.910394 234.96454 
L 389.534652 224.678677 
L 398.15891 214.469828 
L 402.471038 209.698357 
L 405.705135 206.396207 
L 408.939232 203.412786 
L 412.173328 200.821858 
L 414.329393 199.347737 
L 416.485457 198.099142 
L 418.641522 197.094061 
L 420.797586 196.348581 
L 422.95365 195.87659 
L 425.109715 195.689527 
L 427.265779 195.796178 
L 429.421844 196.202527 
L 431.577908 196.911662 
L 433.733972 197.92373 
L 435.890037 199.235957 
L 438.046101 200.842711 
L 440.202166 202.735619 
L 442.35823 204.903723 
L 444.514294 207.333676 
L 446.670359 210.009972 
L 449.904456 214.44777 
L 453.138552 219.334926 
L 456.372649 224.599983 
L 460.684778 232.077328 
L 466.074939 241.901761 
L 479.011325 265.708072 
L 483.323454 273.184704 
L 487.635583 280.231752 
L 491.947712 286.764525 
L 495.181808 291.289881 
L 498.415905 295.476297 
L 501.650001 299.316067 
L 504.884098 302.809286 
L 508.118195 305.963556 
L 511.352291 308.793578 
L 514.586388 311.32061 
L 517.820485 313.57179 
L 521.054581 315.579317 
L 525.36671 317.940218 
L 529.678839 320.026744 
L 536.147032 322.85721 
L 545.849322 327.054987 
L 551.239483 329.646937 
L 554.47358 331.34962 
L 554.47358 331.34962 
" clip-path="url(#p5c67a8cbe8)" style="fill: none; stroke: #edd1cb; stroke-width: 1.5; stroke-linecap: square"/>
   </g>
   <g id="patch_13">
    <path d="M 319.21875 381.684375 
L 319.21875 49.696875 
" style="fill: none; stroke: #000000; stroke-width: 0.8; stroke-linejoin: miter; stroke-linecap: square"/>
   </g>
   <g id="patch_14">
    <path d="M 339.94517 391.684375 
L 554.47358 391.684375 
" style="fill: none; stroke: #000000; stroke-width: 0.8; stroke-linejoin: miter; stroke-linecap: square"/>
   </g>
   <g id="legend_1">
    <g id="patch_15">
     <path d="M 503.95625 69.613125 
L 558.2 69.613125 
Q 560.2 69.613125 560.2 67.613125 
L 560.2 40.0975 
Q 560.2 38.0975 558.2 38.0975 
L 503.95625 38.0975 
Q 501.95625 38.0975 501.95625 40.0975 
L 501.95625 67.613125 
Q 501.95625 69.613125 503.95625 69.613125 
z
" style="fill: #ffffff; opacity: 0.8; stroke: #cccccc; stroke-linejoin: miter"/>
    </g>
    <g id="text_26">
     <text style="font: 10px 'sans-serif'; text-anchor: start" x="520.517187" y="49.270938" transform="rotate(-0, 520.517187, 49.270938)">Year</text>
    </g>
    <g id="patch_16">
     <path d="M 505.95625 63.52875 
L 525.95625 63.52875 
L 525.95625 56.52875 
L 505.95625 56.52875 
z
" style="fill: #edd1cb; fill-opacity: 0.5; stroke: #000000; stroke-linejoin: miter"/>
    </g>
    <g id="text_27">
     <text style="font: 10px 'sans-serif'; text-anchor: start" x="533.95625" y="63.52875" transform="rotate(-0, 533.95625, 63.52875)">2018</text>
    </g>
   </g>
  </g>
  <g id="text_28">
   <text style="font: 12px 'sans-serif'; text-anchor: middle" x="288" y="17.4825" transform="rotate(-0, 288, 17.4825)">Number of time per year providing training for South Africa (without 95 percentile)</text>
  </g>
 </g>
 <defs>
  <clipPath id="pb976664e2d">
   <rect x="46.61875" y="33.0975" width="235.98125" height="348.586875"/>
  </clipPath>
  <clipPath id="p5c67a8cbe8">
   <rect x="329.21875" y="33.0975" width="235.98125" height="348.586875"/>
  </clipPath>
 </defs>
</svg>
