<?xml version="1.0" encoding="utf-8" standalone="no"?>
<!DOCTYPE svg PUBLIC "-//W3C//DTD SVG 1.1//EN"
  "http://www.w3.org/Graphics/SVG/1.1/DTD/svg11.dtd">
<svg height="432pt" version="1.1" viewBox="0 0 576 432" width="576pt" xmlns="http://www.w3.org/2000/svg" xmlns:xlink="http://www.w3.org/1999/xlink">
 <metadata>
  <rdf:RDF xmlns:cc="http://creativecommons.org/ns#" xmlns:dc="http://purl.org/dc/elements/1.1/" xmlns:rdf="http://www.w3.org/1999/02/22-rdf-syntax-ns#">
   <cc:Work>
    <dc:type rdf:resource="http://purl.org/dc/dcmitype/StillImage"/>
    <dc:date>2021-03-29T15:49:34.912823</dc:date>
    <dc:format>image/svg+xml</dc:format>
    <dc:creator>
     <cc:Agent>
      <dc:title>Matplotlib v3.4.0, https://matplotlib.org/</dc:title>
     </cc:Agent>
    </dc:creator>
   </cc:Work>
  </rdf:RDF>
 </metadata>
 <defs>
  <style type="text/css">*{stroke-linecap:butt;stroke-linejoin:round;}</style>
 </defs>
 <g id="figure_1">
  <g id="patch_1">
   <path d="M 0 432 
L 576 432 
L 576 0 
L 0 0 
z
" style="fill:#ffffff;"/>
  </g>
  <g id="axes_1">
   <g id="patch_2">
    <path d="M 54.203125 380.84375 
L 281.010938 380.84375 
L 281.010938 33.21375 
L 54.203125 33.21375 
z
" style="fill:#ffffff;"/>
   </g>
   <g id="patch_3">
    <path clip-path="url(#p5abcf7f349)" d="M 76.883906 365.042386 
L 258.330156 365.042386 
L 258.330156 286.035568 
L 76.883906 286.035568 
L 76.883906 365.042386 
z
" style="fill:#3274a1;stroke:#3f3f3f;stroke-linejoin:miter;stroke-width:1.5;"/>
   </g>
   <g id="matplotlib.axis_1">
    <g id="xtick_1">
     <g id="line2d_1">
      <defs>
       <path d="M 0 0 
L 0 3.5 
" id="mc3a356a46d" style="stroke:#000000;stroke-width:0.8;"/>
      </defs>
      <g>
       <use style="stroke:#000000;stroke-width:0.8;" x="167.607031" xlink:href="#mc3a356a46d" y="390.84375"/>
      </g>
     </g>
     <g id="text_1">
      <text style="font-family:DejaVu Sans;font-size:10px;font-stretch:normal;font-style:normal;font-weight:normal;text-anchor:middle;" transform="rotate(-0, 167.607031, 405.442187)" x="167.607031" y="405.442187">2018</text>
     </g>
    </g>
    <g id="text_2">
     <text style="font-family:DejaVu Sans;font-size:10px;font-stretch:normal;font-style:normal;font-weight:normal;text-anchor:middle;" transform="rotate(-0, 167.607031, 419.120313)" x="167.607031" y="419.120313">Year</text>
    </g>
   </g>
   <g id="matplotlib.axis_2">
    <g id="ytick_1">
     <g id="line2d_2">
      <defs>
       <path d="M 0 0 
L -3.5 0 
" id="m82278324de" style="stroke:#000000;stroke-width:0.8;"/>
      </defs>
      <g>
       <use style="stroke:#000000;stroke-width:0.8;" x="44.203125" xlink:href="#m82278324de" y="365.042386"/>
      </g>
     </g>
     <g id="text_3">
      <text style="font-family:DejaVu Sans;font-size:10px;font-stretch:normal;font-style:normal;font-weight:normal;text-anchor:end;" transform="rotate(-0, 37.203125, 368.841605)" x="37.203125" y="368.841605">0</text>
     </g>
    </g>
    <g id="ytick_2">
     <g id="line2d_3">
      <g>
       <use style="stroke:#000000;stroke-width:0.8;" x="44.203125" xlink:href="#m82278324de" y="312.371174"/>
      </g>
     </g>
     <g id="text_4">
      <text style="font-family:DejaVu Sans;font-size:10px;font-stretch:normal;font-style:normal;font-weight:normal;text-anchor:end;" transform="rotate(-0, 37.203125, 316.170393)" x="37.203125" y="316.170393">2</text>
     </g>
    </g>
    <g id="ytick_3">
     <g id="line2d_4">
      <g>
       <use style="stroke:#000000;stroke-width:0.8;" x="44.203125" xlink:href="#m82278324de" y="259.699962"/>
      </g>
     </g>
     <g id="text_5">
      <text style="font-family:DejaVu Sans;font-size:10px;font-stretch:normal;font-style:normal;font-weight:normal;text-anchor:end;" transform="rotate(-0, 37.203125, 263.499181)" x="37.203125" y="263.499181">4</text>
     </g>
    </g>
    <g id="ytick_4">
     <g id="line2d_5">
      <g>
       <use style="stroke:#000000;stroke-width:0.8;" x="44.203125" xlink:href="#m82278324de" y="207.02875"/>
      </g>
     </g>
     <g id="text_6">
      <text style="font-family:DejaVu Sans;font-size:10px;font-stretch:normal;font-style:normal;font-weight:normal;text-anchor:end;" transform="rotate(-0, 37.203125, 210.827969)" x="37.203125" y="210.827969">6</text>
     </g>
    </g>
    <g id="ytick_5">
     <g id="line2d_6">
      <g>
       <use style="stroke:#000000;stroke-width:0.8;" x="44.203125" xlink:href="#m82278324de" y="154.357538"/>
      </g>
     </g>
     <g id="text_7">
      <text style="font-family:DejaVu Sans;font-size:10px;font-stretch:normal;font-style:normal;font-weight:normal;text-anchor:end;" transform="rotate(-0, 37.203125, 158.156757)" x="37.203125" y="158.156757">8</text>
     </g>
    </g>
    <g id="ytick_6">
     <g id="line2d_7">
      <g>
       <use style="stroke:#000000;stroke-width:0.8;" x="44.203125" xlink:href="#m82278324de" y="101.686326"/>
      </g>
     </g>
     <g id="text_8">
      <text style="font-family:DejaVu Sans;font-size:10px;font-stretch:normal;font-style:normal;font-weight:normal;text-anchor:end;" transform="rotate(-0, 37.203125, 105.485545)" x="37.203125" y="105.485545">10</text>
     </g>
    </g>
    <g id="ytick_7">
     <g id="line2d_8">
      <g>
       <use style="stroke:#000000;stroke-width:0.8;" x="44.203125" xlink:href="#m82278324de" y="49.015114"/>
      </g>
     </g>
     <g id="text_9">
      <text style="font-family:DejaVu Sans;font-size:10px;font-stretch:normal;font-style:normal;font-weight:normal;text-anchor:end;" transform="rotate(-0, 37.203125, 52.814332)" x="37.203125" y="52.814332">12</text>
     </g>
    </g>
    <g id="text_10">
     <text style="font-family:DejaVu Sans;font-size:10px;font-stretch:normal;font-style:normal;font-weight:normal;text-anchor:middle;" transform="rotate(-90, 18.398438, 207.02875)" x="18.398438" y="207.02875">Value</text>
    </g>
   </g>
   <g id="line2d_9">
    <path clip-path="url(#p5abcf7f349)" d="M 167.607031 365.042386 
L 167.607031 365.042386 
" style="fill:none;stroke:#3f3f3f;stroke-linecap:square;stroke-width:1.5;"/>
   </g>
   <g id="line2d_10">
    <path clip-path="url(#p5abcf7f349)" d="M 167.607031 286.035568 
L 167.607031 233.364356 
" style="fill:none;stroke:#3f3f3f;stroke-linecap:square;stroke-width:1.5;"/>
   </g>
   <g id="line2d_11">
    <path clip-path="url(#p5abcf7f349)" d="M 122.245469 365.042386 
L 212.968594 365.042386 
" style="fill:none;stroke:#3f3f3f;stroke-linecap:square;stroke-width:1.5;"/>
   </g>
   <g id="line2d_12">
    <path clip-path="url(#p5abcf7f349)" d="M 122.245469 233.364356 
L 212.968594 233.364356 
" style="fill:none;stroke:#3f3f3f;stroke-linecap:square;stroke-width:1.5;"/>
   </g>
   <g id="line2d_13">
    <defs>
     <path d="M -0 3.535534 
L 2.12132 0 
L -0 -3.535534 
L -2.12132 -0 
z
" id="m226ab95657" style="stroke:#3f3f3f;stroke-linejoin:miter;"/>
    </defs>
    <g clip-path="url(#p5abcf7f349)">
     <use style="fill:#3f3f3f;stroke:#3f3f3f;stroke-linejoin:miter;" x="167.607031" xlink:href="#m226ab95657" y="49.015114"/>
     <use style="fill:#3f3f3f;stroke:#3f3f3f;stroke-linejoin:miter;" x="167.607031" xlink:href="#m226ab95657" y="128.021932"/>
     <use style="fill:#3f3f3f;stroke:#3f3f3f;stroke-linejoin:miter;" x="167.607031" xlink:href="#m226ab95657" y="154.357538"/>
    </g>
   </g>
   <g id="line2d_14">
    <path clip-path="url(#p5abcf7f349)" d="M 76.883906 338.70678 
L 258.330156 338.70678 
" style="fill:none;stroke:#3f3f3f;stroke-linecap:square;stroke-width:1.5;"/>
   </g>
   <g id="patch_4">
    <path d="M 44.203125 365.042386 
L 44.203125 49.015114 
" style="fill:none;stroke:#000000;stroke-linecap:square;stroke-linejoin:miter;stroke-width:0.8;"/>
   </g>
   <g id="patch_5">
    <path d="M 167.607031 390.84375 
L 167.607031 390.84375 
" style="fill:none;stroke:#000000;stroke-linecap:square;stroke-linejoin:miter;stroke-width:0.8;"/>
   </g>
   <g id="PathCollection_1">
    <defs>
     <path d="M 0 2.5 
C 0.663008 2.5 1.29895 2.236584 1.767767 1.767767 
C 2.236584 1.29895 2.5 0.663008 2.5 -0 
C 2.5 -0.663008 2.236584 -1.29895 1.767767 -1.767767 
C 1.29895 -2.236584 0.663008 -2.5 0 -2.5 
C -0.663008 -2.5 -1.29895 -2.236584 -1.767767 -1.767767 
C -2.236584 -1.29895 -2.5 -0.663008 -2.5 0 
C -2.5 0.663008 -2.236584 1.29895 -1.767767 1.767767 
C -1.29895 2.236584 -0.663008 2.5 0 2.5 
z
" id="C0_0_77057b9605"/>
    </defs>
    <g clip-path="url(#p5abcf7f349)">
     <use style="fill:#808080;fill-opacity:0.75;" x="167.607031" xlink:href="#C0_0_77057b9605" y="365.042386"/>
    </g>
    <g clip-path="url(#p5abcf7f349)">
     <use style="fill:#808080;fill-opacity:0.75;" x="161.738684" xlink:href="#C0_0_77057b9605" y="365.042386"/>
    </g>
    <g clip-path="url(#p5abcf7f349)">
     <use style="fill:#808080;fill-opacity:0.75;" x="173.475379" xlink:href="#C0_0_77057b9605" y="365.042386"/>
    </g>
    <g clip-path="url(#p5abcf7f349)">
     <use style="fill:#808080;fill-opacity:0.75;" x="155.870337" xlink:href="#C0_0_77057b9605" y="365.042386"/>
    </g>
    <g clip-path="url(#p5abcf7f349)">
     <use style="fill:#808080;fill-opacity:0.75;" x="179.343726" xlink:href="#C0_0_77057b9605" y="365.042386"/>
    </g>
    <g clip-path="url(#p5abcf7f349)">
     <use style="fill:#808080;fill-opacity:0.75;" x="150.001989" xlink:href="#C0_0_77057b9605" y="365.042386"/>
    </g>
    <g clip-path="url(#p5abcf7f349)">
     <use style="fill:#808080;fill-opacity:0.75;" x="185.212073" xlink:href="#C0_0_77057b9605" y="365.042386"/>
    </g>
    <g clip-path="url(#p5abcf7f349)">
     <use style="fill:#808080;fill-opacity:0.75;" x="144.133642" xlink:href="#C0_0_77057b9605" y="365.042386"/>
    </g>
    <g clip-path="url(#p5abcf7f349)">
     <use style="fill:#808080;fill-opacity:0.75;" x="191.08042" xlink:href="#C0_0_77057b9605" y="365.042386"/>
    </g>
    <g clip-path="url(#p5abcf7f349)">
     <use style="fill:#808080;fill-opacity:0.75;" x="138.265295" xlink:href="#C0_0_77057b9605" y="365.042386"/>
    </g>
    <g clip-path="url(#p5abcf7f349)">
     <use style="fill:#808080;fill-opacity:0.75;" x="196.948768" xlink:href="#C0_0_77057b9605" y="365.042386"/>
    </g>
    <g clip-path="url(#p5abcf7f349)">
     <use style="fill:#808080;fill-opacity:0.75;" x="132.396947" xlink:href="#C0_0_77057b9605" y="365.042386"/>
    </g>
    <g clip-path="url(#p5abcf7f349)">
     <use style="fill:#808080;fill-opacity:0.75;" x="167.607031" xlink:href="#C0_0_77057b9605" y="338.70678"/>
    </g>
    <g clip-path="url(#p5abcf7f349)">
     <use style="fill:#808080;fill-opacity:0.75;" x="161.738684" xlink:href="#C0_0_77057b9605" y="338.70678"/>
    </g>
    <g clip-path="url(#p5abcf7f349)">
     <use style="fill:#808080;fill-opacity:0.75;" x="173.475379" xlink:href="#C0_0_77057b9605" y="338.70678"/>
    </g>
    <g clip-path="url(#p5abcf7f349)">
     <use style="fill:#808080;fill-opacity:0.75;" x="155.870337" xlink:href="#C0_0_77057b9605" y="338.70678"/>
    </g>
    <g clip-path="url(#p5abcf7f349)">
     <use style="fill:#808080;fill-opacity:0.75;" x="179.343726" xlink:href="#C0_0_77057b9605" y="338.70678"/>
    </g>
    <g clip-path="url(#p5abcf7f349)">
     <use style="fill:#808080;fill-opacity:0.75;" x="150.001989" xlink:href="#C0_0_77057b9605" y="338.70678"/>
    </g>
    <g clip-path="url(#p5abcf7f349)">
     <use style="fill:#808080;fill-opacity:0.75;" x="185.212073" xlink:href="#C0_0_77057b9605" y="338.70678"/>
    </g>
    <g clip-path="url(#p5abcf7f349)">
     <use style="fill:#808080;fill-opacity:0.75;" x="144.133642" xlink:href="#C0_0_77057b9605" y="338.70678"/>
    </g>
    <g clip-path="url(#p5abcf7f349)">
     <use style="fill:#808080;fill-opacity:0.75;" x="191.08042" xlink:href="#C0_0_77057b9605" y="338.70678"/>
    </g>
    <g clip-path="url(#p5abcf7f349)">
     <use style="fill:#808080;fill-opacity:0.75;" x="138.265295" xlink:href="#C0_0_77057b9605" y="338.70678"/>
    </g>
    <g clip-path="url(#p5abcf7f349)">
     <use style="fill:#808080;fill-opacity:0.75;" x="167.607031" xlink:href="#C0_0_77057b9605" y="312.371174"/>
    </g>
    <g clip-path="url(#p5abcf7f349)">
     <use style="fill:#808080;fill-opacity:0.75;" x="161.738684" xlink:href="#C0_0_77057b9605" y="312.371174"/>
    </g>
    <g clip-path="url(#p5abcf7f349)">
     <use style="fill:#808080;fill-opacity:0.75;" x="173.475379" xlink:href="#C0_0_77057b9605" y="312.371174"/>
    </g>
    <g clip-path="url(#p5abcf7f349)">
     <use style="fill:#808080;fill-opacity:0.75;" x="155.870337" xlink:href="#C0_0_77057b9605" y="312.371174"/>
    </g>
    <g clip-path="url(#p5abcf7f349)">
     <use style="fill:#808080;fill-opacity:0.75;" x="167.607031" xlink:href="#C0_0_77057b9605" y="286.035568"/>
    </g>
    <g clip-path="url(#p5abcf7f349)">
     <use style="fill:#808080;fill-opacity:0.75;" x="161.738684" xlink:href="#C0_0_77057b9605" y="286.035568"/>
    </g>
    <g clip-path="url(#p5abcf7f349)">
     <use style="fill:#808080;fill-opacity:0.75;" x="173.475379" xlink:href="#C0_0_77057b9605" y="286.035568"/>
    </g>
    <g clip-path="url(#p5abcf7f349)">
     <use style="fill:#808080;fill-opacity:0.75;" x="155.870337" xlink:href="#C0_0_77057b9605" y="286.035568"/>
    </g>
    <g clip-path="url(#p5abcf7f349)">
     <use style="fill:#808080;fill-opacity:0.75;" x="179.343726" xlink:href="#C0_0_77057b9605" y="286.035568"/>
    </g>
    <g clip-path="url(#p5abcf7f349)">
     <use style="fill:#808080;fill-opacity:0.75;" x="150.001989" xlink:href="#C0_0_77057b9605" y="286.035568"/>
    </g>
    <g clip-path="url(#p5abcf7f349)">
     <use style="fill:#808080;fill-opacity:0.75;" x="167.607031" xlink:href="#C0_0_77057b9605" y="259.699962"/>
    </g>
    <g clip-path="url(#p5abcf7f349)">
     <use style="fill:#808080;fill-opacity:0.75;" x="167.607031" xlink:href="#C0_0_77057b9605" y="233.364356"/>
    </g>
    <g clip-path="url(#p5abcf7f349)">
     <use style="fill:#808080;fill-opacity:0.75;" x="161.738684" xlink:href="#C0_0_77057b9605" y="233.364356"/>
    </g>
    <g clip-path="url(#p5abcf7f349)">
     <use style="fill:#808080;fill-opacity:0.75;" x="167.607031" xlink:href="#C0_0_77057b9605" y="154.357538"/>
    </g>
    <g clip-path="url(#p5abcf7f349)">
     <use style="fill:#808080;fill-opacity:0.75;" x="167.607031" xlink:href="#C0_0_77057b9605" y="128.021932"/>
    </g>
    <g clip-path="url(#p5abcf7f349)">
     <use style="fill:#808080;fill-opacity:0.75;" x="167.607031" xlink:href="#C0_0_77057b9605" y="49.015114"/>
    </g>
   </g>
  </g>
  <g id="axes_2">
   <g id="patch_6">
    <path d="M 338.392187 380.84375 
L 565.2 380.84375 
L 565.2 33.21375 
L 338.392187 33.21375 
z
" style="fill:#ffffff;"/>
   </g>
   <g id="patch_7">
    <path clip-path="url(#p4f9d1c90b7)" d="M 389.444681 380.84375 
L 396.007987 380.84375 
L 396.007987 49.76756 
L 389.444681 49.76756 
z
" style="fill:#1f77b4;opacity:0.4;"/>
   </g>
   <g id="patch_8">
    <path clip-path="url(#p4f9d1c90b7)" d="M 396.007987 380.84375 
L 402.571294 380.84375 
L 402.571294 104.946925 
L 396.007987 104.946925 
z
" style="fill:#1f77b4;opacity:0.4;"/>
   </g>
   <g id="patch_9">
    <path clip-path="url(#p4f9d1c90b7)" d="M 402.571294 380.84375 
L 409.134601 380.84375 
L 409.134601 380.84375 
L 402.571294 380.84375 
z
" style="fill:#1f77b4;opacity:0.4;"/>
   </g>
   <g id="patch_10">
    <path clip-path="url(#p4f9d1c90b7)" d="M 409.134601 380.84375 
L 415.697907 380.84375 
L 415.697907 270.48502 
L 409.134601 270.48502 
z
" style="fill:#1f77b4;opacity:0.4;"/>
   </g>
   <g id="patch_11">
    <path clip-path="url(#p4f9d1c90b7)" d="M 415.697907 380.84375 
L 422.261214 380.84375 
L 422.261214 215.305655 
L 415.697907 215.305655 
z
" style="fill:#1f77b4;opacity:0.4;"/>
   </g>
   <g id="patch_12">
    <path clip-path="url(#p4f9d1c90b7)" d="M 422.261214 380.84375 
L 428.824521 380.84375 
L 428.824521 380.84375 
L 422.261214 380.84375 
z
" style="fill:#1f77b4;opacity:0.4;"/>
   </g>
   <g id="patch_13">
    <path clip-path="url(#p4f9d1c90b7)" d="M 428.824521 380.84375 
L 435.387827 380.84375 
L 435.387827 353.254067 
L 428.824521 353.254067 
z
" style="fill:#1f77b4;opacity:0.4;"/>
   </g>
   <g id="patch_14">
    <path clip-path="url(#p4f9d1c90b7)" d="M 435.387827 380.84375 
L 441.951134 380.84375 
L 441.951134 325.664385 
L 435.387827 325.664385 
z
" style="fill:#1f77b4;opacity:0.4;"/>
   </g>
   <g id="patch_15">
    <path clip-path="url(#p4f9d1c90b7)" d="M 441.951134 380.84375 
L 448.51444 380.84375 
L 448.51444 380.84375 
L 441.951134 380.84375 
z
" style="fill:#1f77b4;opacity:0.4;"/>
   </g>
   <g id="patch_16">
    <path clip-path="url(#p4f9d1c90b7)" d="M 448.51444 380.84375 
L 455.077747 380.84375 
L 455.077747 380.84375 
L 448.51444 380.84375 
z
" style="fill:#1f77b4;opacity:0.4;"/>
   </g>
   <g id="patch_17">
    <path clip-path="url(#p4f9d1c90b7)" d="M 455.077747 380.84375 
L 461.641054 380.84375 
L 461.641054 380.84375 
L 455.077747 380.84375 
z
" style="fill:#1f77b4;opacity:0.4;"/>
   </g>
   <g id="patch_18">
    <path clip-path="url(#p4f9d1c90b7)" d="M 461.641054 380.84375 
L 468.20436 380.84375 
L 468.20436 380.84375 
L 461.641054 380.84375 
z
" style="fill:#1f77b4;opacity:0.4;"/>
   </g>
   <g id="patch_19">
    <path clip-path="url(#p4f9d1c90b7)" d="M 468.20436 380.84375 
L 474.767667 380.84375 
L 474.767667 353.254067 
L 468.20436 353.254067 
z
" style="fill:#1f77b4;opacity:0.4;"/>
   </g>
   <g id="patch_20">
    <path clip-path="url(#p4f9d1c90b7)" d="M 474.767667 380.84375 
L 481.330974 380.84375 
L 481.330974 380.84375 
L 474.767667 380.84375 
z
" style="fill:#1f77b4;opacity:0.4;"/>
   </g>
   <g id="patch_21">
    <path clip-path="url(#p4f9d1c90b7)" d="M 481.330974 380.84375 
L 487.89428 380.84375 
L 487.89428 353.254067 
L 481.330974 353.254067 
z
" style="fill:#1f77b4;opacity:0.4;"/>
   </g>
   <g id="patch_22">
    <path clip-path="url(#p4f9d1c90b7)" d="M 487.89428 380.84375 
L 494.457587 380.84375 
L 494.457587 380.84375 
L 487.89428 380.84375 
z
" style="fill:#1f77b4;opacity:0.4;"/>
   </g>
   <g id="patch_23">
    <path clip-path="url(#p4f9d1c90b7)" d="M 494.457587 380.84375 
L 501.020893 380.84375 
L 501.020893 380.84375 
L 494.457587 380.84375 
z
" style="fill:#1f77b4;opacity:0.4;"/>
   </g>
   <g id="patch_24">
    <path clip-path="url(#p4f9d1c90b7)" d="M 501.020893 380.84375 
L 507.5842 380.84375 
L 507.5842 380.84375 
L 501.020893 380.84375 
z
" style="fill:#1f77b4;opacity:0.4;"/>
   </g>
   <g id="patch_25">
    <path clip-path="url(#p4f9d1c90b7)" d="M 507.5842 380.84375 
L 514.147507 380.84375 
L 514.147507 353.254067 
L 507.5842 353.254067 
z
" style="fill:#1f77b4;opacity:0.4;"/>
   </g>
   <g id="matplotlib.axis_3">
    <g id="xtick_2">
     <g id="line2d_15">
      <g>
       <use style="stroke:#000000;stroke-width:0.8;" x="389.444681" xlink:href="#mc3a356a46d" y="390.84375"/>
      </g>
     </g>
     <g id="text_11">
      <text style="font-family:DejaVu Sans;font-size:10px;font-stretch:normal;font-style:normal;font-weight:normal;text-anchor:middle;" transform="rotate(-0, 389.444681, 405.442187)" x="389.444681" y="405.442187">0</text>
     </g>
    </g>
    <g id="xtick_3">
     <g id="line2d_16">
      <g>
       <use style="stroke:#000000;stroke-width:0.8;" x="441.404192" xlink:href="#mc3a356a46d" y="390.84375"/>
      </g>
     </g>
     <g id="text_12">
      <text style="font-family:DejaVu Sans;font-size:10px;font-stretch:normal;font-style:normal;font-weight:normal;text-anchor:middle;" transform="rotate(-0, 441.404192, 405.442187)" x="441.404192" y="405.442187">5</text>
     </g>
    </g>
    <g id="xtick_4">
     <g id="line2d_17">
      <g>
       <use style="stroke:#000000;stroke-width:0.8;" x="493.363702" xlink:href="#mc3a356a46d" y="390.84375"/>
      </g>
     </g>
     <g id="text_13">
      <text style="font-family:DejaVu Sans;font-size:10px;font-stretch:normal;font-style:normal;font-weight:normal;text-anchor:middle;" transform="rotate(-0, 493.363702, 405.442187)" x="493.363702" y="405.442187">10</text>
     </g>
    </g>
    <g id="xtick_5">
     <g id="line2d_18">
      <g>
       <use style="stroke:#000000;stroke-width:0.8;" x="545.323213" xlink:href="#mc3a356a46d" y="390.84375"/>
      </g>
     </g>
     <g id="text_14">
      <text style="font-family:DejaVu Sans;font-size:10px;font-stretch:normal;font-style:normal;font-weight:normal;text-anchor:middle;" transform="rotate(-0, 545.323213, 405.442187)" x="545.323213" y="405.442187">15</text>
     </g>
    </g>
    <g id="text_15">
     <text style="font-family:DejaVu Sans;font-size:10px;font-stretch:normal;font-style:normal;font-weight:normal;text-anchor:middle;" transform="rotate(-0, 451.796094, 419.120313)" x="451.796094" y="419.120313">Value</text>
    </g>
   </g>
   <g id="matplotlib.axis_4">
    <g id="ytick_8">
     <g id="line2d_19">
      <g>
       <use style="stroke:#000000;stroke-width:0.8;" x="328.392187" xlink:href="#m82278324de" y="380.84375"/>
      </g>
     </g>
     <g id="text_16">
      <text style="font-family:DejaVu Sans;font-size:10px;font-stretch:normal;font-style:normal;font-weight:normal;text-anchor:end;" transform="rotate(-0, 321.392187, 384.642969)" x="321.392187" y="384.642969">0.0</text>
     </g>
    </g>
    <g id="ytick_9">
     <g id="line2d_20">
      <g>
       <use style="stroke:#000000;stroke-width:0.8;" x="328.392187" xlink:href="#m82278324de" y="314.628512"/>
      </g>
     </g>
     <g id="text_17">
      <text style="font-family:DejaVu Sans;font-size:10px;font-stretch:normal;font-style:normal;font-weight:normal;text-anchor:end;" transform="rotate(-0, 321.392187, 318.427731)" x="321.392187" y="318.427731">0.1</text>
     </g>
    </g>
    <g id="ytick_10">
     <g id="line2d_21">
      <g>
       <use style="stroke:#000000;stroke-width:0.8;" x="328.392187" xlink:href="#m82278324de" y="248.413274"/>
      </g>
     </g>
     <g id="text_18">
      <text style="font-family:DejaVu Sans;font-size:10px;font-stretch:normal;font-style:normal;font-weight:normal;text-anchor:end;" transform="rotate(-0, 321.392187, 252.212493)" x="321.392187" y="252.212493">0.2</text>
     </g>
    </g>
    <g id="ytick_11">
     <g id="line2d_22">
      <g>
       <use style="stroke:#000000;stroke-width:0.8;" x="328.392187" xlink:href="#m82278324de" y="182.198036"/>
      </g>
     </g>
     <g id="text_19">
      <text style="font-family:DejaVu Sans;font-size:10px;font-stretch:normal;font-style:normal;font-weight:normal;text-anchor:end;" transform="rotate(-0, 321.392187, 185.997254)" x="321.392187" y="185.997254">0.3</text>
     </g>
    </g>
    <g id="ytick_12">
     <g id="line2d_23">
      <g>
       <use style="stroke:#000000;stroke-width:0.8;" x="328.392187" xlink:href="#m82278324de" y="115.982798"/>
      </g>
     </g>
     <g id="text_20">
      <text style="font-family:DejaVu Sans;font-size:10px;font-stretch:normal;font-style:normal;font-weight:normal;text-anchor:end;" transform="rotate(-0, 321.392187, 119.782016)" x="321.392187" y="119.782016">0.4</text>
     </g>
    </g>
    <g id="ytick_13">
     <g id="line2d_24">
      <g>
       <use style="stroke:#000000;stroke-width:0.8;" x="328.392187" xlink:href="#m82278324de" y="49.76756"/>
      </g>
     </g>
     <g id="text_21">
      <text style="font-family:DejaVu Sans;font-size:10px;font-stretch:normal;font-style:normal;font-weight:normal;text-anchor:end;" transform="rotate(-0, 321.392187, 53.566778)" x="321.392187" y="53.566778">0.5</text>
     </g>
    </g>
    <g id="text_22">
     <text style="font-family:DejaVu Sans;font-size:10px;font-stretch:normal;font-style:normal;font-weight:normal;text-anchor:middle;" transform="rotate(-90, 299.409375, 207.02875)" x="299.409375" y="207.02875">Density</text>
    </g>
   </g>
   <g id="line2d_25">
    <path clip-path="url(#p4f9d1c90b7)" d="M 348.701634 380.089481 
L 350.773884 379.656498 
L 352.846134 379.016314 
L 354.918385 378.092884 
L 356.990635 376.793557 
L 359.062886 375.010404 
L 360.099011 373.900361 
L 361.135136 372.624005 
L 362.171261 371.165717 
L 363.207387 369.510169 
L 365.279637 365.549738 
L 367.351888 360.641181 
L 369.424138 354.71507 
L 371.496389 347.749001 
L 373.568639 339.781009 
L 375.640889 330.919289 
L 378.749265 316.369429 
L 384.966017 286.375298 
L 387.038267 277.403331 
L 389.110517 269.525724 
L 391.182768 263.026007 
L 392.218893 260.361035 
L 393.255018 258.111377 
L 394.291144 256.288704 
L 395.327269 254.898675 
L 396.363394 253.941034 
L 397.399519 253.409851 
L 398.435644 253.293895 
L 399.47177 253.577143 
L 400.507895 254.23937 
L 401.54402 255.256832 
L 402.580145 256.602985 
L 403.616271 258.249243 
L 404.652396 260.165723 
L 406.724646 264.68761 
L 408.796897 269.929692 
L 411.905272 278.66979 
L 419.158149 300.390824 
L 423.30265 312.437896 
L 427.447151 323.748195 
L 430.555527 331.610308 
L 433.663902 338.852416 
L 436.772278 345.413826 
L 439.880654 351.255619 
L 441.952904 354.739836 
L 444.025155 357.891693 
L 446.097405 360.708358 
L 448.169655 363.186788 
L 450.241906 365.323993 
L 452.314156 367.118357 
L 454.386407 368.571794 
L 456.458657 369.692302 
L 458.530908 370.496354 
L 460.603158 371.010577 
L 462.675409 371.272276 
L 464.747659 371.328588 
L 467.856035 371.148967 
L 475.108911 370.505191 
L 478.217287 370.513172 
L 481.325663 370.805067 
L 484.434038 371.362158 
L 488.578539 372.371058 
L 493.759166 373.656763 
L 496.867541 374.247164 
L 499.975917 374.632242 
L 504.120418 374.852379 
L 514.48167 375.120041 
L 517.590046 375.464288 
L 521.734547 376.194899 
L 526.915173 377.394382 
L 533.131924 378.835358 
L 537.276425 379.594364 
L 541.420926 380.135089 
L 546.601552 380.53758 
L 552.818304 380.751427 
L 554.890554 380.784655 
L 554.890554 380.784655 
" style="fill:none;stroke:#1f77b4;stroke-linecap:square;stroke-width:1.5;"/>
   </g>
   <g id="patch_26">
    <path d="M 328.392187 380.84375 
L 328.392187 49.76756 
" style="fill:none;stroke:#000000;stroke-linecap:square;stroke-linejoin:miter;stroke-width:0.8;"/>
   </g>
   <g id="patch_27">
    <path d="M 389.444681 390.84375 
L 545.323213 390.84375 
" style="fill:none;stroke:#000000;stroke-linecap:square;stroke-linejoin:miter;stroke-width:0.8;"/>
   </g>
   <g id="legend_1">
    <g id="patch_28">
     <path d="M 500.75 55.891875 
L 558.2 55.891875 
Q 560.2 55.891875 560.2 53.891875 
L 560.2 40.21375 
Q 560.2 38.21375 558.2 38.21375 
L 500.75 38.21375 
Q 498.75 38.21375 498.75 40.21375 
L 498.75 53.891875 
Q 498.75 55.891875 500.75 55.891875 
z
" style="fill:#ffffff;opacity:0.8;stroke:#cccccc;stroke-linejoin:miter;"/>
    </g>
    <g id="patch_29">
     <path d="M 502.75 49.812188 
L 522.75 49.812188 
L 522.75 42.812188 
L 502.75 42.812188 
z
" style="fill:#1f77b4;opacity:0.4;"/>
    </g>
    <g id="text_23">
     <text style="font-family:DejaVu Sans;font-size:10px;font-stretch:normal;font-style:normal;font-weight:normal;text-anchor:start;" transform="rotate(-0, 530.75, 49.812188)" x="530.75" y="49.812188">2018</text>
    </g>
   </g>
  </g>
  <g id="text_24">
   <text style="font-family:DejaVu Sans;font-size:12px;font-stretch:normal;font-style:normal;font-weight:normal;text-anchor:middle;" transform="rotate(-0, 288, 17.758125)" x="288" y="17.758125">Number of time per year providing training for World (without 95 percentile)</text>
  </g>
 </g>
 <defs>
  <clipPath id="p5abcf7f349">
   <rect height="347.63" width="226.807813" x="54.203125" y="33.21375"/>
  </clipPath>
  <clipPath id="p4f9d1c90b7">
   <rect height="347.63" width="226.807812" x="338.392187" y="33.21375"/>
  </clipPath>
 </defs>
</svg>
